<?xml version="1.0" standalone="no"?><!DOCTYPE svg PUBLIC "-//W3C//DTD SVG 1.1//EN" "http://www.w3.org/Graphics/SVG/1.1/DTD/svg11.dtd"><svg t="1649681368988" class="icon" viewBox="0 0 1024 1024" version="1.1" xmlns="http://www.w3.org/2000/svg" p-id="126747" xmlns:xlink="http://www.w3.org/1999/xlink" width="200" height="200"><defs><style type="text/css">@font-face { font-family: "feedback-iconfont"; src: url("//at.alicdn.com/t/font_1031158_u69w8yhxdu.woff2?t=1630033759944") format("woff2"), url("//at.alicdn.com/t/font_1031158_u69w8yhxdu.woff?t=1630033759944") format("woff"), url("//at.alicdn.com/t/font_1031158_u69w8yhxdu.ttf?t=1630033759944") format("truetype"); }
</style></defs><path d="M524.97 518.41m-389.4 0a389.4 389.4 0 1 0 778.8 0 389.4 389.4 0 1 0-778.8 0Z" fill="#EAE8B5" p-id="126748"></path><path d="M509.33 937.4a419.27 419.27 0 0 1-393.41-563.48 8.29 8.29 0 0 1 15.57 5.72 401.12 401.12 0 0 0-24.56 138.76c0 221.89 180.52 402.41 402.41 402.41s402.4-180.51 402.4-402.4a401.42 401.42 0 0 0-60.23-211.87 8.29 8.29 0 0 1 14.09-8.75A418.87 418.87 0 0 1 509.33 937.4zM231.44 224.29a8.29 8.29 0 0 1-5.61-14.4A419.42 419.42 0 0 1 678.65 135a8.29 8.29 0 0 1-6.71 15.17A402.84 402.84 0 0 0 237 222.1a8.27 8.27 0 0 1-5.56 2.19z" fill="#050505" p-id="126749"></path><path d="M122.47 299.12c26.87 18.27 57.56 35.94 75.28 64.09 19.26 30.6 22.9 69.27 25.8 104.43 3.1 37.74 6.52 79.45 25.09 114.07 12.6 23.48 38.87 57.38 68.45 45.45C356.34 611.31 390.51 563 416 530.6L378.58 373 283 305l-82.74-15.76s-97.87-3.78-77.79 9.88z" fill="#EAE8B5" p-id="126750"></path><path d="M143 301.68c24.93 13 66.54 30.05 82 56.18 16.85 28.4 20 64.28 22.57 96.9 2.72 35 5.71 73.73 22 105.85 11 21.79 34 53.25 59.89 42.17 34.34-14.69 64.23-59.54 86.55-89.59l-32.75-146.25-83.6-63.07-72.4-14.62s-103.51 2.41-84.26 12.43z" fill="#EFA69B" p-id="126751"></path><path d="M304.73 634.35c-10.38 0-21-4.37-31.29-13-14.11-11.82-24.22-28.51-29-37.4-19-35.46-22.54-78.16-25.64-115.83-2.64-32.09-5.92-71.91-25.09-102.38-14.67-23.31-38.89-39.38-62.31-54.92-3.84-2.55-7.8-5.18-11.62-7.78-5.36-3.65-5.1-7.41-4.47-9.32 1.53-4.64 6.17-8.86 45.75-9.59 19.65-0.36 39.2 0.38 39.39 0.39h0.36l84.11 16 97.85 69.61 38.38 161.58-1.42 1.8c-2.77 3.52-5.64 7.22-8.61 11.05-25 32.24-56.1 72.37-92.26 87a37.53 37.53 0 0 1-14.13 2.79zM127.05 296.48c3.18 2.15 6.45 4.31 9.62 6.42 24.26 16.09 49.34 32.74 65.1 57.77 20.41 32.43 23.79 73.54 26.51 106.57 3 36.84 6.46 78.49 24.55 112.21 5 9.4 31.77 55.68 62.49 43.29 33.78-13.63 64-52.63 88.31-84 2.48-3.2 4.9-6.31 7.24-9.3l-36.5-153.61-93.25-66.33-81.37-15.5c-2.56-0.09-18.72-0.64-35.64-0.42-22.54 0.3-32.62 1.79-37.06 2.9z m-2.92-2.11z" fill="#050505" p-id="126752"></path><path d="M696.3 303.78c0 2.93-40.53 192.18-36 196.08s27.89 49.75 43.2 54.63c27.37 8.72 59.68 23.07 85.3 2.84 8.62-6.8 21.19-12.18 28.19-20.89 8.17-10.16 17.92-24 22-36.61 19.81-61.17-33.53-108.21-48.14-159.83-12-42.59-10.08-108.45 9-149.91 1.8-3.9-1.06-17-10.05-13.11s-72 84.87-72 84.87z" fill="#EFA69B" p-id="126753"></path><path d="M767.2 576.23c-17.1 0-34.67-5.42-51-10.46-3.45-1.06-6.7-2.07-9.95-3-12.49-3.67-26.54-23.34-41.05-44.9-3.2-4.76-6.83-10.16-7.92-11.15-3-2.38-4.64-3.71 8.78-68.78 7.14-34.61 16.3-75.87 22.36-103.17 3.32-15 6.2-27.93 6.57-30.06v-0.92L719.42 260l0.29-0.35c16.36-19.39 70.51-83 80.67-87 6.11-2.44 9.52-0.64 11.31 1.3 5.1 5.54 0.07 15.8-0.15 16.23-20 40.08-16.88 107.25-3.74 150.11 5 16.3 14.79 32.6 25.16 49.86 22.14 36.86 45 75 21.65 116.34-7 12.31-16.23 22.95-25.19 33.23-7.73 8.87-15.72 18-25.64 25.27-11.46 8.25-23.89 11.24-36.58 11.24z m-102.56-75.58c1.78 2 4.22 5.6 8.45 11.89 9 13.31 25.62 38.08 35.85 41.09 3.31 1 6.75 2 10.07 3.06 27.59 8.52 56.12 17.32 79.17 0.53 9-6.59 16.68-15.35 24.07-23.83 8.65-9.93 17.6-20.19 24.09-31.67 20.67-36.54 0.17-70.65-21.52-106.77-10.21-17-20.76-34.56-26.1-52C785 298.36 781.9 228.12 803 185.84a15.59 15.59 0 0 0 1.37-4.64l-0.49 0.19c-6 2.85-43.64 44.89-76.64 84l-23 41.23c-0.45 2.46-1.9 9.08-6.59 30.18-9.13 41.35-33.16 149.58-33.01 163.85zM695 304.88v0.08z" fill="#050505" p-id="126754"></path><path d="M238.82 281.84a221 221 0 0 1 31.49 5c42.34 10 82.75 31.22 111.47 63.92 5.3 6 10.62 12.74 18.24 15.3 15.91 5.34 40-27.89 42.6-41 3.53-17.55-9.85-67.33 0-47.14a191.25 191.25 0 0 1 13.79 37.92s17.73-31.7 34.48-42.44 37.43-17.64 37.43-17.64-33.32 30.32-39.42 38.43c-6.34 8.44-8.7 14.79-3.08 19.68 6.34 4.89 18.88-11.08 38.05-15 15.85-3.27 38.91 1.27 39.89 4.23s-24.14 3.2-38.42 10.94c-7.88 3.84-14.78 11.72-3.94 10.73s45.31-3.94 56.15 0 35.43 17.47 41 19c9.56 2.56 53.53-65.5 60.2-73.78 31.39-39 55.24-56.81 87.09-80.27 9-6.66 29.37-20 40.39-14.35-20.77 32-40.48 59.49-64.54 104.8-25.33 47.69-30.57 99.49-37.06 152.74-0.84 6.93-1.49 17.13 1.63 23.38s9.51 6.7 15.31 2.81c6.76-4.53 5-24.18 11.42-29.17 2 8.52 11.05 27 0.36 42.95 20.84-3.08 25.73 9.06 25.78 15.17-8.93-6.29-32.31-4.43-30.86 14.46 0.27 3.53 4 11.94 13.32 14.41s36.7 7.61 56.12 17.72c17.49 10.17 49.5 35.22 50.24 39.65s-35.46 2.59-35.46 2.59 43.59 19.95 44 26.23-60.21-3-60.21-3 33.35 11.77 34.47 13.78c0.83 1.5-39.48 30-43.17 33.21-35 30.08-52.57 75.31-81.94 110.57-28.53 34.25-64.22 62.48-107.38 75.48q-4.06 1.22-8.17 2.27c-56.54 14.39-122.14 5.51-167.14-33.29-10.65-9.18-21.72-18.47-35-23-25.84-8.76-60.62-2.42-87.13 1.73-31.52 4.93-12.81-16.75-9.85-17.73s-39.54 13.43-41.37 9.85 45.31-42.36 45.31-42.36-83.17 13.31-86.68 8.87 52-88.2 86.44-123.13c35.42-35.88 62.8-52.45 53.19-55.41S316 567.54 316 567.54c5.64-9.65 15-16.6 21.07-24.43-7.43-6.46-17.23-10.35-26.74-13 4.33-6 13.33-5.52 20.49-3.69s15.2 4.28 21.53 0.47c-3.92-20.7-7.36-43.93 4.54-61.32 4.38-6.4 10.59-11.5 14.32-18.31 6.21-11.34-0.91-22.42-7.31-31.87-25.79-38.11-61.9-68.93-103.06-89.39-36-17.9-91.4-30.07-137.64-28.86-11.46 0.3-4.35-12.54 8.86-14a509.08 509.08 0 0 1 106.76-1.3z" fill="#EAE8B5" p-id="126755"></path><path d="M245.81 281.84a216.21 216.21 0 0 1 31.13 5c41.86 10 81.81 31.22 110.2 63.92 5.24 6 10.5 12.74 18 15.3 15.73 5.34 39.51-27.89 42.12-41 3.49-17.55-9.74-67.33 0-47.14a192.73 192.73 0 0 1 13.63 37.92s17.53-31.7 34.09-42.44 37-17.64 37-17.64-32.93 30.31-39 38.42c-6.27 8.44-8.6 14.79-3 19.68 6.27 4.89 18.66-11.08 37.62-15 15.67-3.27 38.47 1.27 39.44 4.23s-23.87 3.2-38 10.94c-7.79 3.84-14.61 11.72-3.9 10.73s44.8-3.94 55.51 0 35 17.47 40.53 19c9.45 2.56 52.93-65.5 59.52-73.78 31-39 54.62-56.81 86.1-80.27 8.94-6.66 29-20 39.94-14.35-20.53 32-40 59.49-63.81 104.8-25 47.69-30.22 99.49-36.64 152.74-0.83 6.93-1.48 17.13 1.61 23.38s9.41 6.7 15.14 2.81c6.69-4.53 4.93-24.18 11.29-29.17 2 8.52 10.93 27 0.36 42.95 20.6-3.08 25.44 9.06 25.49 15.17-8.83-6.29-31.94-4.43-30.51 14.46 0.27 3.53 3.92 11.94 13.17 14.41s36.28 7.61 55.48 17.72c17.3 10.17 48.94 35.22 49.67 39.65S813 576.77 813 576.77s43.09 19.95 43.46 26.23-59.53-3-59.53-3 33 11.77 34.08 13.78c0.82 1.5-28.29 9.2-49.41 22.93-49.49 32.17-54.91 79.2-73.92 120.38-28.21 34.25-63.86 63-106.53 76q-4 1.22-8.08 2.27c-55.9 14.39-110.67-0.61-155.16-39.41-10.53-9.18-20.45-26-44.11-31.94-34.31-8.68-63 7.3-89.18 11.44-31.16 4.93-10.23-11.38-7.31-12.37s-39.1 13.43-40.9 9.85 44.84-47.37 44.84-47.37-60.74 5.19-63.53 2C234 723.33 279.41 656 313.5 621.09c35-35.88 63.6-53.47 50.29-66.17-7.23-6.9-41.64 12.62-41.64 12.62 5.57-9.65 14.87-16.6 20.83-24.43-7.35-6.46-17-10.35-26.44-13 4.28-6 13.18-5.52 20.26-3.69s19.34 2.39 25.6-1.41c-3.87-20.7-3.07-32.95 8.7-50.34 4.33-6.4 13.54-13.52 17.23-20.33 6.14-11.34 5.74-29.66-4.18-43-27.3-36.81-68.91-71.42-109.6-91.87-35.61-17.9-97.33-23.5-143-22.29-11.33 0.3-4.3-12.54 8.76-14a497.65 497.65 0 0 1 105.5-1.34z" fill="#818A8A" p-id="126756"></path><path d="M538.21 846.64c-44.82 0-87.46-14.29-118.4-41-9.15-7.89-20.53-17.7-33.45-22.09-23.15-7.85-54.61-2.87-79.9 1.14l-5 0.78c-13.74 2.15-21.56-0.3-23.26-7.28a11.74 11.74 0 0 1 0.38-6.25c-2.09 0.63-4.26 1.28-6.39 1.88-6 1.72-10.93 3-14.58 3.65-4.27 0.82-10.12 1.95-12.35-2.42-2.06-4 1.35-7.85 7.19-13.66 3.75-3.73 9.09-8.64 15.88-14.59 3.56-3.12 7.16-6.22 10.43-9-7.35 1.09-16.34 2.37-25.36 3.55-45.14 5.89-46.93 3.62-49 1-2.43-3.08-1.77-6.8 6.8-21.54 5.35-9.21 13.16-21.36 22-34.23 21-30.55 42.64-58.08 58-73.65 14.11-14.29 27.15-25.72 36.67-34.06 5.89-5.16 11.92-10.45 15.06-13.82-6.75 0.15-17.94 3.75-25 6.82a4.75 4.75 0 0 1-6-6.76c3.69-6.32 8.65-11.35 13.44-16.22 1.71-1.74 3.37-3.42 4.89-5.09-5.39-3.68-12.37-6.69-21.19-9.16a4.75 4.75 0 0 1-2.57-7.36c4.73-6.55 13.79-8.5 25.52-5.51l1.38 0.36c4.77 1.23 9.66 2.5 13.59 1.74-3.88-21.46-6-43.52 6-61a84.86 84.86 0 0 1 6.65-8.19 55.72 55.72 0 0 0 7.43-9.71c4.62-8.44-0.24-16.83-7.08-26.92-25-36.95-60.05-67.3-101.26-87.79-36.49-18.13-90.9-29.54-135.4-28.36-7.4 0.19-10.35-4-10.6-7.63-0.51-7.26 8.28-14.68 18.8-15.88a513 513 0 0 1 107.72-1.28 224.43 224.43 0 0 1 32.16 5.13c46 10.92 86.48 34.14 113.94 65.4l1.41 1.62c4.65 5.34 9 10.39 14.77 12.31 3 1 6.75-0.56 9.35-2.06 12.25-7.08 25.35-26.77 27.08-35.38 1.53-7.62-0.63-23.2-2.2-34.58-0.62-4.46-1.15-8.31-1.41-11.22-0.3-3.32-0.75-8.33 3.66-9.67 4.68-1.43 7.11 3.55 8.89 7.19A204 204 0 0 1 458 304c6.79-10.57 18.58-27.08 30.27-34.58 17-10.94 37.63-17.86 38.5-18.15a4.75 4.75 0 0 1 4.7 8c-9.17 8.35-34 31.4-38.8 37.76-7.06 9.39-5.48 11.68-4 13 1.6 0.06 6.1-2.72 9.44-4.77 6.54-4 14.68-9 24.8-11.1 7.45-1.54 17.35-1.64 27.14-0.27 16.44 2.29 17.69 6 18.22 7.65a5.27 5.27 0 0 1-0.48 4.38c-1.74 2.91-5.24 3.51-13.7 5-8.06 1.38-19.1 3.28-26.48 7.28l-0.18 0.09a25.5 25.5 0 0 0-2.46 1.38c28.23-2.41 46.46-2.2 54.22 0.62 5.83 2.12 14.91 6.62 23.7 11 6.32 3.13 13.41 6.64 16.25 7.65 1.46-0.71 6.49-4.23 20-21.75 9.36-12.18 19.32-26.54 26.59-37 4.52-6.51 7.78-11.21 9.36-13.18 32.24-40.06 56.84-58.18 88-81.12 13.88-10.22 33-21.08 45.38-14.75a4.75 4.75 0 0 1 1.82 6.81c-4.35 6.71-8.72 13.32-13 19.72-16 24.13-32.45 49.08-51.38 84.73-23.67 44.56-29.46 92.5-35.59 143.25l-1 7.84c-1.49 12.2-0.19 18 1.16 20.68a4.38 4.38 0 0 0 2.72 2.55c1.54 0.41 3.62-0.16 5.7-1.56 1.81-1.21 3.06-7.54 3.88-11.73 1.33-6.74 2.71-13.71 7.26-17.25a4.75 4.75 0 0 1 7.54 2.67c0.3 1.29 0.82 3 1.43 4.88 2.6 8.27 6.64 21.17 2.19 33.93 6.4 0.25 11.64 2.11 15.67 5.55a20.09 20.09 0 0 1 7 14.8 4.75 4.75 0 0 1-7.49 3.92c-3.95-2.78-12.62-3.48-18.31-0.25-3.79 2.15-5.45 5.57-5.07 10.45a13.4 13.4 0 0 0 9.79 10.18c1.64 0.43 3.95 1 6.62 1.6 12.74 3 34.07 8 50.48 16.5l0.19 0.11c8.37 4.86 20.61 13.42 32 22.35 19.73 15.52 20.29 18.84 20.58 20.63a5.59 5.59 0 0 1-1.37 4.66c-0.93 1-3 3.35-17.48 3.82l2.76 1.44c22.4 11.81 24.44 15.91 24.64 19.39a5.77 5.77 0 0 1-1.91 4.6c-1.69 1.54-4.15 3.79-26.91 1.87a5.49 5.49 0 0 1 2.49 2.31c2.11 3.78-1.19 6.56-3.85 8.79-1.79 1.5-4.33 3.51-7.77 6.13-6.2 4.72-14.19 10.58-20.61 15.29-5.63 4.13-10.95 8-12 8.92-20.38 17.53-35.15 41.07-49.44 63.83-9.81 15.63-19.95 31.78-31.95 46.18-32.43 38.94-69.33 64.84-109.66 77-2.75 0.83-5.57 1.61-8.37 2.32a215.24 215.24 0 0 1-53.02 6.59z m-181.57-76.72c11.51 0 22.72 1.24 32.77 4.65 14.68 5 26.84 15.46 36.61 23.89 40.73 35.12 103.13 47.5 162.86 32.29 2.67-0.68 5.35-1.42 8-2.21 38.52-11.6 73.88-36.49 105.1-74 11.59-13.91 21.56-29.79 31.2-45.16 14.66-23.36 29.82-47.51 51.29-66 1.26-1.08 5.38-4.12 12.57-9.38s19.07-14 25.5-19.07c-6.42-2.67-17.61-6.85-27.86-10.46a4.75 4.75 0 0 1 2.3-9.18c18.44 2.81 39.7 5.11 50.32 5.13-7.69-5.13-23.06-13.11-36.76-19.38a4.75 4.75 0 0 1 2.22-9.07 235.22 235.22 0 0 0 27.35 0c-8.45-8-29.93-24.71-44.66-33.29-15.34-8-35.88-12.76-48.16-15.62-2.74-0.64-5.11-1.19-6.88-1.66-10.85-2.86-16.38-12.62-16.85-18.64-0.66-8.56 2.84-15.46 9.85-19.45a29.35 29.35 0 0 1 17.09-3.19c-3.49-2.81-9.16-3.73-16.44-2.66a4.75 4.75 0 0 1-4.64-7.35c5.61-8.37 4.85-17.62 2.88-25.69l-0.14 0.73c-1.39 7.07-2.84 14.38-7.92 17.78-4.42 3-9.19 4-13.42 2.86a13.69 13.69 0 0 1-8.79-7.48c-2.85-5.7-3.54-14.23-2.1-26.08l0.95-7.83C707.1 372.78 713 324 737.49 277.86c19.14-36 35.77-61.19 51.85-85.51 2.94-4.44 5.95-9 9-13.6-7.09 0.73-17.72 5.93-29.65 14.71-30.58 22.53-54.74 40.33-86.21 79.42-1.37 1.7-4.72 6.53-9 12.64-33 47.56-46.15 63-54.49 63a6.44 6.44 0 0 1-1.68-0.22c-3-0.8-9-3.76-18.66-8.53-8.16-4-17.4-8.62-22.73-10.56-3.08-1.12-14.5-3.33-54.09 0.27-7.4 0.67-9.82-2.3-10.54-4.91-1.73-6.22 6.61-12.19 11.88-14.78 6.4-3.45 14.48-5.46 21.75-6.88-6.42-0.63-13.8-0.7-20.09 0.6-8.49 1.75-15.84 6.27-21.75 9.89-7.36 4.51-14.31 8.78-20.16 4.26l-0.22-0.18c-10.41-9.07-1.1-21.45 2.4-26.12 3-3.93 11.66-12.52 20.2-20.65a136 136 0 0 0-11.87 6.73c-15.57 10-32.72 40.46-32.9 40.76a4.75 4.75 0 0 1-8.79-1.29 164.79 164.79 0 0 0-5-16.75c1.14 9.65 1.84 19.4 0.54 25.87-2.15 10.68-16.38 32.91-31.64 41.73-6.24 3.61-12 4.56-17.13 2.84-8.17-2.75-13.88-9.3-18.91-15.08l-1.38-1.58c-26.17-29.79-64.88-52-109-62.43a215.19 215.19 0 0 0-30.81-4.92 504.05 504.05 0 0 0-105.8 1.26 15 15 0 0 0-9.53 4.56C169 291.19 225.21 303 263 321.75c42.67 21.21 78.95 52.67 104.9 91 6.1 9 15.32 22.61 7.54 36.82a63.68 63.68 0 0 1-8.68 11.43 76.67 76.67 0 0 0-5.93 7.27c-10.65 15.56-7.71 37.06-3.8 57.76a4.75 4.75 0 0 1-2.22 5c-7.64 4.59-16.6 2.27-23.8 0.41l-1.35-0.35a36.7 36.7 0 0 0-4.89-0.91 59 59 0 0 1 15.44 9.42 4.75 4.75 0 0 1 0.65 6.48 108.26 108.26 0 0 1-8.73 9.59l-2 2c6.65-1.75 13.93-2.82 19-1.25 3.77 1.16 4.84 3.73 5.15 5.16 1.23 5.77-4.6 10.88-20.19 24.54-9.41 8.25-22.3 19.54-36.17 33.59-31.43 31.84-75.92 98.56-84 116 12 0 47.81-4.6 80.1-9.76a4.75 4.75 0 0 1 3.77 8.36c-14.25 11.73-29.49 25-37.78 33 9.14-2.22 22.55-6.37 29.17-8.64l0.15-0.05a4.75 4.75 0 0 1 3.6 8.8l-0.14 0.05c-1.93 1.42-5.67 6.7-5.41 8.47 0.39 0.28 3 1.72 12.57 0.22l4.95-0.78c15.96-2.57 34.2-5.46 51.74-5.46z m-64.13-2.38l0.16-0.06z m0.5-0.23zM618.75 339z" fill="#020202" p-id="126757"></path><path d="M372.74 669.72c-0.7 1.09 13.7 18 14.74 19.41 18.17 24.2 34.94 49.39 52.15 74.27 32 46.3 66.88 92.82 129.47 88.82 46.14-3 69.18-30.57 69.93-34.27 2.3-11.34 23.78-25.51 30.5-34.64 10.67-14.52 20.23-29.93 27.37-46.51 8.89-20.64 13.87-42.7 17-64.88 2.86-20.25 6.64-42.67 5.5-63.12-1.48-26.47-5.91-21.82-5.91-21.82L384 652.35z" fill="#FCFCFC" p-id="126758"></path><path d="M561.62 857.21c-26.3 0-49.84-8.83-71.75-26.87-20.89-17.2-37.53-40.2-54.15-64.24q-6.11-8.84-12.18-17.72c-12.81-18.69-26.05-38-39.86-56.4-0.21-0.28-0.92-1.13-1.9-2.32-2.18-2.63-5.46-6.62-8.22-10.15-4.66-6-7-9-4.8-12.38L380 649.77a4.75 4.75 0 0 1 3.06-2.08l328.69-65.22a5.74 5.74 0 0 1 4.54-0.2c4 1.48 6.74 6.39 7.85 26.26 1 18.57-1.79 38.1-4.52 57q-0.52 3.57-1 7.06c-3.65 25.86-9.33 47.48-17.35 66.1-6.64 15.42-15.77 30.94-27.91 47.45-2.73 3.72-7.34 7.9-12.23 12.32-7.26 6.58-16.3 14.77-17.45 20.45-1.4 6.92-27.75 35.09-74.29 38.07q-3.93 0.23-7.77 0.23zM378.24 670c1.73 2.43 5.37 7 10.86 13.65 1.32 1.59 1.91 2.31 2.18 2.67 13.93 18.55 27.23 38 40.1 56.74q6.07 8.85 12.16 17.69c34.34 49.67 67.48 90.46 125.25 86.78 42.21-2.7 63.64-26.91 65.65-30.82 1.94-8.62 11.28-17.08 20.3-25.26 4.52-4.1 8.79-8 11-10.91 11.71-15.92 20.48-30.82 26.84-45.57 7.68-17.83 13.13-38.66 16.67-63.67q0.5-3.51 1-7.09c2.67-18.42 5.42-37.48 4.44-55.1-0.56-10.11-1.53-14.88-2.19-17l-325.61 64.51z m256.13 147z m0.14-0.47zM376.73 672.29z m-4-2.58z m344.19-79.47z" fill="#070707" p-id="126759"></path><path d="M501.22 817.74s33 57.13 77.33 49.74 61.56-38.9 68.45-79.78" fill="#FCFCFC" p-id="126760"></path><path d="M570.49 872.91c-42.38 0-72.06-50.5-73.39-52.79a4.75 4.75 0 1 1 8.23-4.75c0.4 0.68 32 54.19 72.43 47.43 36.83-6.14 56.74-29.54 64.56-75.89a4.75 4.75 0 0 1 9.37 1.58c-5.34 31.64-18.64 74.73-72.37 83.69a53.65 53.65 0 0 1-8.83 0.73z" fill="#070707" p-id="126761"></path><path d="M420.66 682.05c2.16-1.41 18.25 13.41 20.47 15.51A112.65 112.65 0 0 1 459 719.43c9.48 15.07 15.67 31.95 24.89 47.26 16.35 27.15 42 65.84 77.89 65.34 30.59-0.43 54.92-19.85 68.75-46.1 6.55-12.43 9.41-24.46 11.27-38.34l7.89-58.89c2-14.77 2.63-32.07 8.87-45.8 7.39-16.25-164 4.43-164 4.43s-42.13 14.03-73.9 34.72z" fill="#020202" p-id="126762"></path><path d="M561.06 838c-36.29 0-62-34.46-82.3-68.24-4.54-7.53-8.36-15.43-12.06-23.07-4.1-8.47-8-16.48-12.77-24.09A106.8 106.8 0 0 0 437 701.9c-5-4.76-13.58-12.11-16.7-13.88a6 6 0 0 1-2.92-11c32-20.86 73.49-34.79 75.24-35.38a6 6 0 0 1 1.17-0.26c0.39 0 39.32-4.73 78.83-7.86 23.29-1.85 42.25-2.8 56.36-2.84 24.42 0 31.2 2.45 34.19 6.54a8 8 0 0 1 0.78 8.14c-4.52 10-5.9 22.35-7.23 34.33-0.36 3.24-0.73 6.6-1.16 9.79l-7.89 58.89c-1.58 11.77-4.22 25.76-11.91 40.34-16 30.44-43.69 48.87-74 49.29zM432.28 681.91q1.17 0.94 2.42 2c4.59 3.81 9.17 8 10.55 9.33a118.8 118.8 0 0 1 18.81 23 258.89 258.89 0 0 1 13.41 25.24c3.58 7.4 7.29 15.05 11.54 22.12 18.61 30.91 41.72 62.4 72.07 62.4h0.61c26.2-0.36 49.37-16 63.54-42.91 5.49-10.42 8.57-20.95 10.63-36.35l7.89-58.89c0.41-3.06 0.76-6.2 1.13-9.52 1.23-11.06 2.6-23.46 6.72-34.34-5.94-1.32-24.46-2.95-81.3 1.68-35.39 2.88-69.47 6.88-74.43 7.47-4.58 1.62-36.27 12.76-63.59 28.77z m-8.39 5.18z m0 0z" fill="#070707" p-id="126763"></path><path d="M485.33 758.64s24.63-28.88 49.25-24.29 33.49 18.87 33.49 18.87 9.36-9.61 21.18-9.24 24.13 10.71 30.54 24.5 6.4 20.78 6.4 20.78-25.74 34.32-46.94 38.66c-28.5 5.83-48.92-8.84-57.58-15.25s-17.67-20.92-23.42-29.42-12.92-24.61-12.92-24.61z" fill="#F94C53" p-id="126764"></path><path d="M412.56 427.49a4.76 4.76 0 0 1-4.41-6.52c2.3-5.74 7-10.83 11.19-15.33 0.9-1 1.78-1.92 2.59-2.82a196.18 196.18 0 0 1 17.5-17.33c4.62-4 9.47-7.87 14.43-11.44a82.55 82.55 0 0 0-37.2 15.17c-1.42 1.05-3.08 2.41-3.37 3.61a4.75 4.75 0 1 1-9.24-2.25c1-4.13 4.07-6.87 6.94-9a90.91 90.91 0 0 1 58.69-17.75 4.75 4.75 0 0 1 1.86 9 37.84 37.84 0 0 0-7 4.95c-1.41 1.16-2.87 2.36-4.46 3.49-5 3.53-9.8 7.35-14.4 11.36A186.7 186.7 0 0 0 429 409.14c-0.85 1-1.77 1.94-2.72 3-3.61 3.89-7.7 8.29-9.34 12.39a4.75 4.75 0 0 1-4.38 2.96zM660.21 392.6a4.73 4.73 0 0 1-3.17-1.21c-7.69-6.88-15.64-14-25.08-17.66a59 59 0 0 0-17.78-3.49c-2.29-0.15-4.71-0.09-7.28 0a62.81 62.81 0 0 1-12.22-0.51 4.75 4.75 0 0 1-3-7.57c3.25-4.24 9-8 17-11.09a54 54 0 0 1 18.68-3.63c12.45-0.2 24.27 3.64 32.09 6.54a4.75 4.75 0 0 1-3.31 8.91c-7.1-2.64-17.8-6.13-28.62-5.95a44.56 44.56 0 0 0-15.4 3q-1 0.37-1.82 0.74c1.47 0 3 0 4.43 0.11a68.09 68.09 0 0 1 20.6 4.11c11 4.29 20 12.33 28 19.43a4.75 4.75 0 0 1-3.17 8.29z" fill="#070707" p-id="126765"></path><path d="M471.67 459.18s-1-51.71 16.25-54.67 19.7 18.22 19.7 18.22 6.4-40.88 25.12-40.88 31.52 36 31.52 36 3.45-15.08 16.25-15.42 25.12 33.15 25.12 33.15l37.68 156.13-158.84 19.12z" fill="#C3C7C0" p-id="126766"></path><path d="M441.37 568.07c-10.68-21.24-21.69-42.44-24.57-66.23a99 99 0 0 1 4.56-44.84c4.89-13.77 13.81-34.19 31.78-30.87 7.86 1.45 14.53 6.6 20.22 12.22 15 14.79 25.43 33.83 31.42 54s6.71 40.28 6.62 61.09c0 2.32-0.14 38.22-1.17 38.22h-57.61c-3.43-7.95-7.31-15.77-11.25-23.59z" fill="#FFF274" p-id="126767"></path><path d="M510.24 596.42h-60.75l-1.24-2.87c-3.36-7.82-7.18-15.51-11.12-23.34L436 568c-10.34-20.54-21-41.78-23.92-65.55a103.81 103.81 0 0 1 4.8-47c3.36-9.47 13.6-38.3 37.12-34 9.94 1.83 17.71 8.59 22.7 13.51 14.8 14.61 26.08 34 32.64 56 6.45 21.71 6.9 43.63 6.82 62.47v0.21c0 7.35-0.11 14.62-0.21 20.47-0.09 5.22-0.21 9.36-0.35 12.33-0.09 1.83-0.18 3.21-0.29 4.21-0.53 5.03-3.4 5.77-5.07 5.77z m-54.52-9.5h50.34c0.28-5.25 0.52-16.27 0.6-33.27v-0.21c0.08-18.16-0.34-39.24-6.42-59.72s-16.54-38.5-30.21-52c-6.51-6.42-12.15-9.9-17.75-10.93-10.76-2-18.91 6.58-26.44 27.79a94.26 94.26 0 0 0-4.32 42.67c2.69 22.13 13 42.61 23 62.42l1.13 2.24c3.5 7.09 6.94 13.95 10.07 21.01z" fill="#020202" p-id="126768"></path><path d="M479.23 591.45h0.12c-3.62-0.33-10.65-12.46-12.56-15.35a98.94 98.94 0 0 1-10-19.64c-5.24-13.95-7.25-28.43-4.68-43.15 0.92-5.25 2.41-10.53 5.54-14.85 6.1-8.42 16-8.95 24.56-3.82 10.6 6.4 18.8 17.95 22.28 29.84 4.83 16.5-0.25 65.25-0.25 65.25-7 2.4 4.37 1.71-2.6 4.12-3.78 1.3-8.51 3.93-12.49 4.31-5.43 0.51-8.1-3.35-12.88-7z" fill="#6A9636" p-id="126769"></path><path d="M473.826399 558.687512a31.79 14.19 74.26 1 0 27.315824-7.698713 31.79 14.19 74.26 1 0-27.315824 7.698713Z" fill="#020202" p-id="126770"></path><path d="M622.46 572c-2.19 0.32-11-14.38-12-16-17.38-25.67-28-56.27-26.52-87.51 0.9-18.86 6.88-63.85 32.06-66.11 4.33-0.39 8.62 1.45 12 4.14 17.21 13.55 24.23 36 28.65 56.6 7.25 33.72 5 71.2-4.22 104.44z" fill="#FFF274" p-id="126771"></path><path d="M622.23 576.81c-3.6 0-6.62-3.52-14.84-16.65-0.44-0.7-0.75-1.21-0.91-1.43-19.34-28.56-28.79-59.82-27.33-90.4 0.54-11.29 4.83-67.78 36.38-70.62 5.14-0.46 10.6 1.36 15.4 5.14 18.78 14.79 26.09 39.48 30.35 59.33 7.13 33.17 5.6 71.07-4.29 106.71l-0.83 3-3.06 0.45-29.55 4.35-0.41 0.06a6.36 6.36 0 0 1-0.91 0.06z m0-9.52h-0.44z m-5.06-160.14h-0.76c-19.66 1.77-26.69 39.56-27.74 61.61-1.34 28.1 7.79 58.15 25.71 84.61 0.18 0.27 0.56 0.88 1.09 1.71 4.68 7.46 7 10.63 8.18 12 3-0.46 9.77-1.45 25-3.7 8.76-33.31 10-68.42 3.35-99.2-4.17-19.43-10.64-41-26.94-53.86-1.56-1.23-4.56-3.17-7.91-3.17z" fill="#020202" p-id="126772"></path><path d="M607 542s-11.91-73.95 8.28-76.41c16.46-2 24.7 25.8 28.19 37.78 6.49 22.24 4.32 44.26 1.36 66.82L622.46 572z" fill="#6A9636" p-id="126773"></path><path d="M610.906017 530.023567a32.01 16.01 85.01 1 0 31.898641-2.785159 32.01 16.01 85.01 1 0-31.898641 2.785159Z" fill="#020202" p-id="126774"></path><path d="M685.91 531.59s-41.37 49.25-11.82 70.92 73.91-19.7 73.91-19.7" fill="#818A8A" p-id="126775"></path><path d="M693.88 613.59a37.31 37.31 0 0 1-22.6-7.25A29.43 29.43 0 0 1 659 585.43c-3-25.2 22.24-55.62 23.32-56.9a4.75 4.75 0 0 1 7.28 6.11c-0.24 0.28-23.71 28.56-21.16 49.67a20 20 0 0 0 8.51 14.37c26.07 19.13 67.41-19 67.83-19.34a4.75 4.75 0 1 1 6.48 6.95c-1.55 1.4-29.71 27.29-57.38 27.3z" fill="#020202" p-id="126776"></path><path d="M443.59 616.79c0 3 5.08 8.75 6.63 11.11 14.4 22 33.56 42.17 60.22 47.8 26.14 5.51 53.93-3.34 71.7-23.34 4.11-4.63 22.54 3.31 27.45 4.52a70.09 70.09 0 0 0 35.61-0.54c23.41-6.61 40.49-24.87 47.68-47.8 3.69-11.77 1.63-24.5-8.81-31.89-5.63-4-12.39-6.08-19.17-7.31-15.22-2.77-27.92-2.4-42.45 2.86-13.2 4.78-22.74 22.32-40.84 22.69-21.36 0.44-39.26-19.26-61.31-15.51-17.2 2.93-34.48 9-50.26 16.44-3.28 1.54-26.46 12.54-26.46 15.57z" fill="#F9F9F9" p-id="126777"></path><path d="M526.1 681.13a79.69 79.69 0 0 1-16.45-1.72c-23.62-5-44.1-21.15-62.62-49.43-0.31-0.47-0.89-1.24-1.5-2-3.26-4.3-5.75-7.86-5.75-11.15v-5.42c0-2.35 0-5.58 28.65-19 17.83-8.36 35.07-14 51.24-16.75 13-2.22 24.4 2.88 35.4 7.81 9 4 17.5 7.81 26.47 7.64 9.63-0.2 16.53-6 23.83-12 4.9-4.08 10-8.31 15.79-10.42 14.31-5.18 27.6-6.09 44.43-3 8.56 1.55 15.32 4.15 20.68 7.95 10.89 7.71 14.82 21.55 10.24 36.14-7.79 24.82-26.58 43.63-50.28 50.33a73.65 73.65 0 0 1-37.56 0.58c-1.22-0.3-2.95-0.89-5.13-1.63-10.62-3.61-16.88-5-18.63-4a78.78 78.78 0 0 1-58.81 26.07z m-78.71-64.4c0.23 1.36 3 5 4.21 6.61 0.72 1 1.35 1.78 1.8 2.47 17.36 26.51 36.27 41.61 57.82 46.16a71.43 71.43 0 0 0 68.07-22.15c4.53-5.1 14.77-2.16 26.71 1.91 1.93 0.66 3.6 1.22 4.5 1.45a66 66 0 0 0 33.67-0.51c21.53-6.08 38-22.59 45.09-45.28 3.61-11.49 0.85-21.83-7.38-27.65-4.44-3.14-10.21-5.32-17.65-6.67-15.62-2.84-27.34-2.06-40.47 2.7-4.57 1.65-8.91 5.28-13.5 9.11-7.62 6.36-16.25 13.56-28.55 13.81h-0.78c-10.4 0-19.83-4.23-29-8.32-10.43-4.67-20.28-9.08-31-7.26-15.49 2.64-32.07 8.07-49.28 16.14-11.5 5.39-21.7 11-24.27 13.22z" fill="#020202" p-id="126778"></path><path d="M403.21 562.12S487.92 569 480 600.54s-53.19 58.12-115.25 70.92" fill="#818A8A" p-id="126779"></path><path d="M364.78 676.21a4.75 4.75 0 0 1-1-9.41c61.62-12.71 104.38-38.55 111.6-67.42a10.71 10.71 0 0 0-1.88-9.42c-10.83-15.1-54.73-21.8-70.73-23.11a4.75 4.75 0 0 1 0.77-9.47c6.34 0.52 62.34 5.66 77.68 27a20.1 20.1 0 0 1 3.38 17.27c-4.13 16.53-17.77 32.22-39.45 45.39-20.62 12.53-48.1 22.57-79.45 29a4.8 4.8 0 0 1-0.92 0.17z" fill="#020202" p-id="126780"></path><path d="M546.634515 590.230583a19.84 37.48 85.01 1 0 74.675894-6.520161 19.84 37.48 85.01 1 0-74.675894 6.520161Z" fill="#070707" p-id="126781"></path><path d="M582.14 658.33a6 6 0 0 1-4.14-10.28 16.87 16.87 0 0 0 5-12.82 6 6 0 0 1 11.88-1.42 29 29 0 0 1-8.53 22.84 6 6 0 0 1-4.21 1.68zM278.1 645.07a2.17 2.17 0 0 1-0.65-4.25 815.53 815.53 0 0 1 234.07-37.53 2.17 2.17 0 0 1 0 4.35A811.29 811.29 0 0 0 278.75 645a2.17 2.17 0 0 1-0.65 0.07zM287.48 755.83a2.17 2.17 0 0 1-1.36-3.88C348.24 702.52 421.73 662.31 510.8 629a2.17 2.17 0 0 1 1.52 4.07c-88.64 33.11-161.74 73.1-223.49 122.24a2.17 2.17 0 0 1-1.35 0.52zM652.42 593.85a2.17 2.17 0 0 1-1-4.1l16.5-8.75c84.52-45 126.94-67.63 229.48-77.44a2.17 2.17 0 1 1 0.41 4.33C796.14 517.58 754 540 670 584.8l-16.52 8.79a2.17 2.17 0 0 1-1.06 0.26zM888 628.08a2.17 2.17 0 0 1-1.56-0.66c-1.28-0.66-11-4.29-75.64-10.92-75.71-7.77-152.46-0.08-153.22 0a2.17 2.17 0 0 1-0.44-4.33c0.77-0.08 77.94-7.81 154.11 0 31.93 3.28 54.64 6.23 67.5 8.77 10.56 2.09 11.36 3.24 11.43 4.88a2.17 2.17 0 0 1-2.09 2.26z m-2.17-2z m0 0z m0 0z m0 0z m0 0z m0 0z m0 0z m0 0z m0 0z" fill="#070707" p-id="126782"></path></svg>