<?xml version="1.0" standalone="no"?><!DOCTYPE svg PUBLIC "-//W3C//DTD SVG 1.1//EN" "http://www.w3.org/Graphics/SVG/1.1/DTD/svg11.dtd"><svg t="1649681398721" class="icon" viewBox="0 0 1024 1024" version="1.1" xmlns="http://www.w3.org/2000/svg" p-id="128647" xmlns:xlink="http://www.w3.org/1999/xlink" width="200" height="200"><defs><style type="text/css">@font-face { font-family: "feedback-iconfont"; src: url("//at.alicdn.com/t/font_1031158_u69w8yhxdu.woff2?t=1630033759944") format("woff2"), url("//at.alicdn.com/t/font_1031158_u69w8yhxdu.woff?t=1630033759944") format("woff"), url("//at.alicdn.com/t/font_1031158_u69w8yhxdu.ttf?t=1630033759944") format("truetype"); }
</style></defs><path d="M525.14 510.64m-389.4 0a389.4 389.4 0 1 0 778.8 0 389.4 389.4 0 1 0-778.8 0Z" fill="#F7CDDF" p-id="128648"></path><path d="M509.5 929.63A419.26 419.26 0 0 1 118.06 360.9a8.29 8.29 0 1 1 15.49 5.93 400.77 400.77 0 0 0-26.45 143.81C107.1 732.53 287.62 913 509.5 913s402.41-180.47 402.41-402.36a402 402 0 0 0-55.64-204.3 8.29 8.29 0 0 1 14.28-8.43 418.87 418.87 0 0 1-361 631.73zM262.69 190.64a8.29 8.29 0 0 1-5-14.92c73-55 160.12-84.08 251.81-84.08a418.51 418.51 0 0 1 214 58.73 8.29 8.29 0 0 1-8.48 14.25 401.91 401.91 0 0 0-205.52-56.39c-88.06 0-171.69 27.92-241.84 80.75a8.26 8.26 0 0 1-4.97 1.66z" fill="#050505" p-id="128649"></path><path d="M207.32 381.28a373.81 373.81 0 0 0 4 55.49c2.61 18.42 6.3 36.66 10.39 54.8 3.3 14.61 10.69 31.84 8.95 47-2 17.4-10.58 33-12.4 50.5-9 86.77 36.67 172 108.07 219.83 57.89 38.82 139.41 51.26 207.19 47.53 104-5.72 209.34-53.82 271.17-141.84 29.23-41.61 46.84-92.59 50-144.16a277.7 277.7 0 0 0-6.28-78.67c-3.35-14.7-6.32-29.74-12.57-43.51-3.15-6.95-7.13-13.87-12.86-18.95-2.52-2.23-5.59-3.38-6.79-6.36-1.69-4.22-5.58-17.62-6-22.3-4.23-52.49-5.46-90-23.59-137.73a31.21 31.21 0 0 0-16.9-17.44c-9.77-3.86-15.26 0.81-22 9-11.2 13.73-14.63 21.62-24.08 36.65-6.25 9.94-15.9 29.68-29.67 29.68-10.48 0-22.86-6.79-35.72-10.19s-138.82-24.75-138.82-24.75-168.28 81-169.3 83c-3.43 6.75-12.11 6.14-17.11 2.2-15.46-12.12-33.28-20.69-49.28-32-12.32-8.73-48.3-41.41-63.78-25.66-4.21 4.29-5.88 10.41-7.15 16.29a254.15 254.15 0 0 0-5.47 51.59z" fill="#050505" p-id="128650"></path><path d="M242.21 748.59c-0.25-0.17 28.66-24.58 32.93-27.84 24.71-18.86 52.58-33.37 81.66-44.21 26.4-9.84 53.82-16.71 81.53-21.65 13.1-2.34 26.4-4.1 39.43-6.37 0.74-0.13 13.92-1.06 14.3-1 0.6 0.15 12.11-16 13.46-17.39a79 79 0 0 1 23-16.91c14-6.62 30.49-8.37 45.07-3.24 9.87 3.48 19 10.63 22.18 20.61 1.05 3.35 74.56-4 82.19-4.08 31.08-0.36 62.43 2.05 92.4 10.71 17.87 5.16 35.45 12.71 49.26 25.17a32.84 32.84 0 0 1 8 9.78c8.25 17.11-16.06 32.54-24.36 47.28-9.46 16.78-20.92 21.45-31.66 37.43-9.07 13.49-17 10.8-26.56 23.95-2 2.79-3.07-2.32-28.54 20.67s-176.21 60-176.21 60-41.27 7.74-127.51-6.9-170.47-105.95-170.57-106.01z" fill="#FFFDFD" p-id="128651"></path><path d="M197 470.73a5.9 5.9 0 0 1-2.69-11.15c29-14.84 74.2-45.27 72.35-63.75-2.05-20.53-51.71-35.89-68.94-39.65a5.9 5.9 0 0 1 2.52-11.52 238.15 238.15 0 0 1 36.76 11.7c26.07 10.89 40 23.78 41.47 38.29s-11.33 31.41-39.11 51.21a356 356 0 0 1-39.6 24.21 5.87 5.87 0 0 1-2.76 0.66zM815.72 384.38a5.87 5.87 0 0 1-3.27-1 313 313 0 0 1-35.54-28.3c-24.16-22.52-34.85-41.72-31.78-57.07 2.05-10.25 9.71-23 34.53-25.57a102.85 102.85 0 0 1 26.69 1.07 5.9 5.9 0 0 1-2.21 11.59c-0.43-0.08-42.84-7.83-47.45 15.23-4.08 20.39 36 55.74 62.3 73.24a5.9 5.9 0 0 1-3.28 10.81z" fill="#2D2D2D" p-id="128652"></path><path d="M500.33 869.19a443.34 443.34 0 0 1-87.76-8.65c-40.95-8.35-76.22-22.13-104.83-41A263.28 263.28 0 0 1 236.8 751a249.55 249.55 0 0 1-40-90.22c-7.09-32.13-8.38-61.89-3.84-88.46a129 129 0 0 1 6-21.88c2.54-7.3 4.22-12.12 3-17.69C191.4 486.12 187 435.51 189 382.34a311.75 311.75 0 0 1 5.24-37.88c6.16-30.62 12.92-36.89 18.11-38.93 18.93-7.42 41.28 9.37 56.07 20.48 1.57 1.18 3 2.29 4.41 3.29 9.65 7.05 19 14.71 28 22.11 6.66 5.47 13.56 11.12 20.47 16.43a8.49 8.49 0 0 0 6.43 1.63 3.72 3.72 0 0 0 2.67-2c1.16-2.15 1.25-2.33 30.25-16.39 14.51-7 34.65-16.7 59.88-28.73 42.94-20.47 86.3-41 86.74-41.17l1.64-0.78 1.79 0.3c5.3 0.88 130 21.65 143.37 25.1 5.15 1.33 10.11 3.12 14.9 4.85 7.51 2.71 14.61 5.26 20.4 5.26 9 0 17.31-13.67 22.81-22.72 1-1.66 2-3.21 2.83-4.59l2.4-3.75c9.14-14.31 18.6-29.1 29.41-42.1 7.56-9.1 21.21-17.86 34.79-12.6 10.25 4 15.46 14.44 18.49 22 15.77 39.22 22.58 88.2 21.45 154.14a63.57 63.57 0 0 1-0.61 6.42c-0.35 2.74-1.07 8.44-0.47 10a8.81 8.81 0 0 0 2.33 1.92 32.9 32.9 0 0 1 3.08 2.31c7.42 6.44 11.94 15.12 14.7 21.08 6 12.9 9.12 26.71 12.17 40.06q0.57 2.51 1.15 5a280.65 280.65 0 0 1 6.61 81.15c-3.35 53.17-22 106-52.55 148.63-60.78 84.92-166.76 139.38-283.48 145.69-8.02 0.45-16.08 0.64-24.15 0.64z m-278-553.85a15.53 15.53 0 0 0-5.72 1s-5.44 2.76-11 30.74a304.05 304.05 0 0 0-5 35.68c-1.92 52.17 2.33 101.77 12.65 147.42 2 8.81-0.47 15.88-3.32 24.07a117.4 117.4 0 0 0-5.5 20c-4.29 25.08-3 53.35 3.74 84 13.64 61.77 51.26 115.61 105.94 151.6 51.34 33.79 129.75 51.38 209.71 47.06 113.24-6.12 215.91-58.77 274.66-140.85 29.29-40.93 47.2-91.57 50.41-142.6a269 269 0 0 0-6.33-77.79q-0.58-2.52-1.16-5.05c-2.92-12.77-5.94-26-11.39-37.78-3.67-7.94-7.42-13.4-11.78-17.19a23.12 23.12 0 0 0-2-1.51c-2.23-1.53-5-3.44-6.51-7.11-1.75-4.3-1-10.16-0.29-15.83 0.26-2 0.5-3.95 0.52-5.16 1.1-64.34-5.45-111.87-20.62-149.6-2.22-5.52-5.87-13.13-11.9-15.47-7.33-2.84-16.16 2.57-21.66 9.19-10.35 12.45-19.6 26.93-28.55 40.94l-2.4 3.76c-0.83 1.3-1.73 2.77-2.68 4.35-6.85 11.27-17.19 28.31-32.74 28.31-7.81 0-15.84-2.89-24.33-5.95-4.55-1.64-9.25-3.33-13.88-4.53-10.2-2.61-95.36-17.04-140.6-24.57-64.45 30.46-159.75 75.83-170.82 81.95a15.33 15.33 0 0 1-9.6 6.42 20 20 0 0 1-15.94-3.78c-7.05-5.43-14-11.14-20.75-16.66-8.9-7.3-18.11-14.85-27.5-21.71-1.4-1-2.92-2.16-4.54-3.38-10.3-7.75-26.58-19.98-39.14-19.98z" fill="#020202" p-id="128653"></path><path d="M369.36 494.41a5.8 5.8 0 0 1-5.79-5.45 63.77 63.77 0 0 1 4.64-25.27c4.94-12.27 16.11-28.25 41.24-34.74a5.81 5.81 0 0 1 2.91 11.25c-38.79 10-37.27 46.53-37.19 48.08a5.82 5.82 0 0 1-5.47 6.12zM691 446.63a5.8 5.8 0 0 1-4.89-2.67c-17.53-27.28-52.87-21-53.23-21a5.81 5.81 0 0 1-2.13-11.42c1.76-0.33 43.42-7.68 65.13 26.09a5.81 5.81 0 0 1-4.88 8.95z" fill="#2D2D2D" p-id="128654"></path><path d="M529.64 571.68a22.97 24.26 0 1 0 45.94 0 22.97 24.26 0 1 0-45.94 0Z" fill="#E88987" p-id="128655"></path><path d="M522 697.2c-17.19 0-35.09-11.78-36-12.37a5.81 5.81 0 0 1 6.44-9.67c5.92 3.93 23.82 13.3 35.45 9.59 6.15-2 9.55-6.26 13.14-10.8 4.62-5.83 10.36-13.1 21.6-10.38 6.27 1.51 11 4.69 15.17 7.49 6.52 4.38 12.16 8.17 23.87 6.61 19-2.54 29-19.08 29.09-19.25a5.81 5.81 0 1 1 10 5.9c-0.52 0.88-13 21.58-37.56 24.86-16.08 2.14-24.84-3.75-31.89-8.48-3.85-2.58-7.17-4.82-11.41-5.84-3.64-0.88-5.1 0.41-9.76 6.3-4.1 5.18-9.2 11.62-18.73 14.66a31 31 0 0 1-9.41 1.38zM561.72 737.82a48.17 48.17 0 0 1-19.72-4.09 5.81 5.81 0 0 1 5.08-10.44 36.62 36.62 0 0 0 38.33-6.08 5.81 5.81 0 1 1 7.48 8.89c-10.89 9.16-22.06 11.72-31.17 11.72zM146.07 699.93a4.22 4.22 0 0 1-1.81-8c73.6-34.93 171.5-43.6 240.67-44.72 74.78-1.21 133.07 5.9 133.65 6a4.22 4.22 0 0 1-1 8.38c-0.58-0.07-58.38-7.11-132.6-5.9-68.3 1.11-164.86 9.63-237.06 43.9a4.2 4.2 0 0 1-1.85 0.34z" fill="#2D2D2D" p-id="128656"></path><path d="M349 358.08c-1.6 16.17 12.17 34.58 21.13 47.22a201 201 0 0 0 37.62 39.94c31.89 25.75 73.79 42 114.94 41.9 39.39-0.12 84.55-16.27 108.09-49.39 24.42-34.36 28.65-79.12 23.55-119.93-2-15.68-147.52-31.86-147.52-31.86l-146.02 48.51c-1.73 0.58-6.37 9.82-7.56 11.68a26.85 26.85 0 0 0-4.23 11.93z" fill="#050505" p-id="128657"></path><path d="M522.27 492.94c-41.09 0-84.12-15.73-118.13-43.19a206.41 206.41 0 0 1-38.71-41.09l-1.3-1.83c-9.54-13.4-22.61-31.75-20.87-49.32a32.77 32.77 0 0 1 5.08-14.51c0.2-0.31 0.76-1.32 1.25-2.21 4.52-8.17 6.4-10.87 9.37-11.86L506.22 280l1.26 0.14c0.37 0 37 4.13 73.32 10.09 71.57 11.73 78.43 19.68 79.32 26.82 4.34 34.69 3.59 84.37-24.58 124-22.28 31.35-66.56 51.7-112.8 51.83zM354.81 358.65c-1.31 13.23 10.3 29.54 18.78 41.44l1.31 1.85a194.8 194.8 0 0 0 36.53 38.78c32 25.82 72.35 40.61 110.83 40.61h0.44c32.36-0.09 78.85-12.45 103.37-46.95 25.8-36.3 26.59-82.44 22.62-115-2-1.85-13.11-8.54-73.9-18.27-30.85-4.94-60.91-8.46-67.35-9.2l-143.63 47.68c-1.15 1.59-3.22 5.33-4.06 6.85-0.71 1.29-1.22 2.21-1.62 2.83a21 21 0 0 0-3.32 9.38z" fill="#1E1E1E" p-id="128658"></path><path d="M526.17 460.69a143.74 143.74 0 0 1-56.81-11.8C431.3 432.21 402 397.58 379.91 343l10.76-4.37c20.93 51.61 48.19 84.19 83.34 99.6 38.42 16.84 92.33 16.39 121-17.07 8.24-9.61 14.31-22.36 18.06-37.91 6.5-27 7.86-54.49 3.81-77.34l-0.1-0.57a10.21 10.21 0 0 0-0.27-1.31l11-3.87a18.79 18.79 0 0 1 0.77 3.26l0.08 0.46c4.32 24.38 2.92 53.53-4 82.08-4.18 17.35-11.08 31.74-20.53 42.76-19.28 22.55-48.36 31.97-77.66 31.97z" fill="#1E1E1E" p-id="128659"></path><path d="M320.31 327.27c-11.44 7.68 12.51 42.18 19.3 46.64 6.11 4 80.2-43.06 132.94-52.46a353.35 353.35 0 0 1 151.7 6q10.45 2.76 20.72 6.19c4.8 1.61 15.89 8.9 16.74 0.32 1-9.8 2.94-40.68 0-44.11s-51.46-26-76.95-32.35-57.83-11.27-82.34-9.31S427 260 389.22 282.52c-16.05 9.59-33.3 18.49-47.87 30.38-6.27 5.1-15.67 10.76-21.04 14.37z" fill="#F7CDDF" p-id="128660"></path><path d="M320.21 328.65c-11.06 6.39 14.38 37.91 20.95 41.62 5.91 3.34 75.28-38.64 126.29-46.45a396 396 0 0 1 146.71 5q10.11 2.3 20 5.15c4.64 1.33 15.36 7.4 16.19 0.27 0.95-8.15 6-30.59 0-36.67S600.61 276 576 270.66s-55.93-9.37-79.63-7.74-73 9.78-109.49 28.52c-15.52 8-32.2 15.37-46.29 25.26-6.1 4.3-15.18 8.95-20.38 11.95z" fill="#D81E12" p-id="128661"></path><path d="M340.57 380a7.2 7.2 0 0 1-4.16-1.21c-7-4.58-24.89-29.78-25-44.61 0-6.54 3-10 5.62-11.71 1.49-1 3.29-2.16 5.24-3.42a183.06 183.06 0 0 0 15.36-10.63c11.54-9.42 24.62-17 37.27-24.28 3.73-2.15 7.59-4.38 11.29-6.59C425.68 254 477.54 244.38 502 242.42c22-1.76 53.46 1.78 84.21 9.47 23.33 5.83 75.14 28.6 79.95 34.2 1.78 2.08 3.34 5.45 2.87 23.6-0.26 9.83-1 20.26-1.5 24.87s-2.84 6.94-4.76 8c-5.22 3-11.54 0.14-16.62-2.16-1.18-0.54-2.3-1-3-1.27-6.67-2.23-13.52-4.28-20.36-6.08a348.52 348.52 0 0 0-149.2-5.91c-31.11 5.54-69.68 24.46-97.85 38.27-21 10.32-29.9 14.59-35.17 14.59z m0.06-11.63z m-17.08-36.26c-0.45 0.3-0.48 1.62-0.48 2 0 9.77 13.42 29.09 18.63 34 4.61-1.22 17.46-7.52 28.91-13.13 28.79-14.12 68.21-33.45 100.92-39.28a360.22 360.22 0 0 1 154.2 6.11c7.08 1.87 14.17 4 21.07 6.3 1.25 0.42 2.63 1 4.1 1.71a50.76 50.76 0 0 0 5.17 2.11c1.18-12.7 2-33.06 0.86-38.46-7.33-4.74-50.12-24.48-73.57-30.34-29.59-7.4-59.67-10.82-80.47-9.16-21.81 1.74-73 11-110.7 33.5-3.78 2.26-7.67 4.5-11.44 6.68-12.25 7.08-24.92 14.39-35.74 23.22a191.1 191.1 0 0 1-16.42 11.4c-1.88 1.21-3.61 2.32-5.05 3.29z m332.34 1.6z m0.84-40.93z" fill="#020202" p-id="128662"></path><path d="M298.9 316.84c11.66 10.7 18.4 16.48 35.17 9.41 7.23-3 14.17-8.55 20.24-13.4 42.7-34.15 94.35-58.5 150.3-63.15S611.8 269.47 661.34 292c8.85 4 18-2.58 23.92-8.08 7.09-6.62 14.23-13.29 19.75-21.16 11.1-15.81 12.31-27.42-4.13-38.25C640 184.38 564.67 164.39 491 170c-43.86 3.37-86.46 16.53-125 36.61a379 379 0 0 0-55.66 35.55c-11.36 8.72-39.25 25.27-36.25 41.75 1.15 6.28 5.18 11.68 9.35 16.65a176.64 176.64 0 0 0 15.46 16.28z" fill="#FFFDFD" p-id="128663"></path><path d="M311.39 338.45c-15.46 0-27.3-11.33-35.07-18.77a196.41 196.41 0 0 1-16.7-18.26c-4.86-6.05-9.55-12.76-11-20.78-3.39-19.38 19.36-37 34.42-48.59 1.65-1.28 3.17-2.45 4.49-3.5 19.38-15.51 41.24-28 60.06-38.26 42.93-23.3 87.66-37 132.95-40.58a339.62 339.62 0 0 1 116.62 11.15A349.61 349.61 0 0 1 703.61 210c23.82 16.37 15.64 35.17 5.85 49.72-6.13 9.11-13.9 16.67-21.4 24-11.38 11.09-22 14.42-31.53 9.9C600.4 267 551.8 250.29 497 255c-53.79 4.66-102.84 26-150 65.37l-1 0.87c-6.24 5.21-12.69 10.61-20.58 14.07a34.65 34.65 0 0 1-14.03 3.14z m195.89-178.2q-12.89 0-25.77 1c-43 3.45-87.42 17-128.33 39.21-18.38 10-39.68 22.19-58.35 37.12-1.36 1.09-2.93 2.31-4.65 3.63-11.27 8.71-32.26 24.92-30.08 37.4 1 5.71 4.95 11 8.57 15.51a184.54 184.54 0 0 0 15.67 17.14c13.67 13.08 23.52 19.09 36.41 13.43 6.38-2.8 11.93-7.44 17.8-12.35l1.05-0.88c49-40.89 100.18-63.14 156.41-68 60.74-5.27 115.42 16 165.46 39.68 4.7 2.23 10.9-0.37 18.45-7.72 7.08-6.9 14.41-14 19.87-22.15 10.92-16.23 10.22-24.72-2.79-33.66-56.29-38.68-122.82-59.36-189.72-59.36z" fill="" p-id="128664"></path><path d="MNaN NaNaNaN NaN NaN 1 0 NaN NaN NaN NaN NaN 1 0 NaN NaNZ" fill="#EBD038" p-id="128665"></path><path d="M499.55 208.07a39.47 39.47 0 0 1 26.82 10.68 43.16 43.16 0 0 1 4.56 57.92 39 39 0 0 1-57.66 4.43 43.16 43.16 0 0 1-4.56-57.92 39 39 0 0 1 30.84-15.11m0-11.8a51 51 0 0 0-5.13 0.26c-28.55 2.89-49.27 29.14-46.28 58.63 2.81 27.71 25.54 48.42 52 48.42a50.93 50.93 0 0 0 5.13-0.26c28.55-2.89 49.27-29.14 46.28-58.63-2.81-27.71-25.54-48.42-52-48.42z" fill="" p-id="128666"></path><path d="M525.62 255.32l-28.45-31.69-21.53 36.75 10.36-1.05 1.79 17.62 29.25-2.97-1.78-17.61 10.36-1.05z" fill="#1C489D" p-id="128667"></path><path d="M487.78 279.63a2.68 2.68 0 0 1-2.66-2.41l-1.51-14.95-7.69 0.78a2.68 2.68 0 0 1-2.58-4l21.52-36.75a2.68 2.68 0 0 1 4.31-0.44l28.45 31.69a2.68 2.68 0 0 1-1.72 4.46l-7.69 0.78 1.51 14.95a2.68 2.68 0 0 1-2.4 2.94l-29.26 3z m-1.78-23a2.68 2.68 0 0 1 2.67 2.41l1.51 14.96 23.92-2.42-1.51-14.95a2.68 2.68 0 0 1 2.4-2.94l5.11-0.52-22.47-25-17 29 5.11-0.52z" fill="" p-id="128668"></path><path d="M382.77 561.05a60.2 82.24 0 1 0 120.4 0 60.2 82.24 0 1 0-120.4 0Z" fill="#E8CA4B" p-id="128669"></path><path d="M596.53 531.61a61.39 80.5 0 1 0 122.78 0 61.39 80.5 0 1 0-122.78 0Z" fill="#E8CA4B" p-id="128670"></path><path d="M412.74 555.51a42.15 56.36 0 1 0 84.3 0 42.15 56.36 0 1 0-84.3 0Z" fill="#070707" p-id="128671"></path><path d="M627.41 526.1a42.15 56.36 0 1 0 84.3 0 42.15 56.36 0 1 0-84.3 0Z" fill="#070707" p-id="128672"></path><path d="M450.537759 552.297915a29.42 16.36 84.37 1 0 32.562164-3.209962 29.42 16.36 84.37 1 0-32.562164 3.209962Z" fill="#FFFFFD" p-id="128673"></path><path d="M431.919793 575.925097a11.99 7.68 79.78 1 0 15.116294-2.725299 11.99 7.68 79.78 1 0-15.116294 2.725299Z" fill="#FFFFFD" p-id="128674"></path><path d="M669.783374 524.86212a30.02 16.8 84.37 1 0 33.43792-3.296294 30.02 16.8 84.37 1 0-33.43792 3.296294Z" fill="#FFFFFD" p-id="128675"></path><path d="M650.10514 549.214398a10.64 7.77 80.94 1 0 15.346123-2.447064 10.64 7.77 80.94 1 0-15.346123 2.447064Z" fill="#FFFFFD" p-id="128676"></path><path d="M589.18 658a4.22 4.22 0 0 1-2.06-7.91 1181.61 1181.61 0 0 1 132.61-61c69.32-26.85 168.49-56.81 247.34-47.08a4.22 4.22 0 1 1-1 8.38c-77.11-9.52-174.84 20.08-243.25 46.58a1171.85 1171.85 0 0 0-131.55 60.55 4.2 4.2 0 0 1-2.09 0.48z" fill="#2D2D2D" p-id="128677"></path></svg>