<?xml version="1.0" standalone="no"?><!DOCTYPE svg PUBLIC "-//W3C//DTD SVG 1.1//EN" "http://www.w3.org/Graphics/SVG/1.1/DTD/svg11.dtd"><svg t="1649680998930" class="icon" viewBox="0 0 1024 1024" version="1.1" xmlns="http://www.w3.org/2000/svg" p-id="103816" xmlns:xlink="http://www.w3.org/1999/xlink" width="200" height="200"><defs><style type="text/css">@font-face { font-family: "feedback-iconfont"; src: url("//at.alicdn.com/t/font_1031158_u69w8yhxdu.woff2?t=1630033759944") format("woff2"), url("//at.alicdn.com/t/font_1031158_u69w8yhxdu.woff?t=1630033759944") format("woff"), url("//at.alicdn.com/t/font_1031158_u69w8yhxdu.ttf?t=1630033759944") format("truetype"); }
</style></defs><path d="M529.33 512.8m-389.4 0a389.4 389.4 0 1 0 778.8 0 389.4 389.4 0 1 0-778.8 0Z" fill="#FFCFCF" p-id="103817"></path><path d="M110.63 600.37a8.29 8.29 0 0 1-8.13-6.7 422.3 422.3 0 0 1-7.8-80.87 419.1 419.1 0 0 1 805.06-163.1 416.38 416.38 0 0 1 32.93 163.1c0 8.2-0.24 16.49-0.71 24.65a8.29 8.29 0 0 1-16.56-1c0.45-7.84 0.68-15.81 0.68-23.69 0-221.89-180.52-402.41-402.41-402.41S111.28 290.91 111.28 512.8a405.71 405.71 0 0 0 7.49 77.69 8.29 8.29 0 0 1-6.55 9.73 8.38 8.38 0 0 1-1.59 0.15zM513.69 931.79a415.8 415.8 0 0 1-247.2-80.65 8.29 8.29 0 0 1 9.79-13.38 402.54 402.54 0 0 0 478.32-2.6 8.29 8.29 0 1 1 9.94 13.28C691.7 903 605 931.79 513.69 931.79z" fill="#050505" p-id="103818"></path><path d="M649.56 421.27s6.11-23.39 6.83-27.64c0.68-4-2.82-7.35-2-9.74s6.08-3.53 6.57-6.91a13.58 13.58 0 0 0-1.81-8.17s20.08-4.72 22.24-11.92S655 202.77 639 202.77c-17.37 0-43.63 133.11-38.7 144.14 3.42 7.65 14.32 13.1 14.86 17.6s-3.8 4.63-4.49 7.39c-0.76 3-1.59 3.65-2.43 6.42-0.68 2.26 2.67 4.63 2.25 6.43-0.37 1.57 0.86 16.53 0.86 16.53z" fill="#8E847A" p-id="103819"></path><path d="M644.28 426.55A5.28 5.28 0 0 1 642 426l-44.5-21a5.28 5.28 0 0 1-3-5.63c0.86-5.25 2.91-17.64 3.35-19.34 0.88-3.38 3.91-4.67 5.83-5.44a10.18 10.18 0 0 1-0.44-6.61 8.6 8.6 0 0 1 3.84-4.93c-1.85-1.16-4.59-2.59-6.63-3.66-7.6-4-15.45-8.1-18.36-14-4.56-9.18 5.25-53.77 8.36-67.22 3.18-13.76 14.57-60.25 27.31-80.8 2.94-4.75 7.61-11.05 14.15-11.05 3.75 0 7.24 2.31 10.67 7.06 11.47 15.91 23.92 61.77 30.31 87.68 0.16 0.66 16.17 66 13.46 74.15-2.49 7.47-14.83 12.11-23.77 14.55a15.6 15.6 0 0 1 0.17 5.73c-0.72 4.42-4.4 6.65-6.84 8.12l-0.32 0.19c1 2.14 2.51 5.38 1.78 9.27-0.86 4.58-7.34 27-8.08 29.53a5.28 5.28 0 0 1-5.07 3.81z m-38.67-29.36l35.31 16.66c2.63-9.23 5.66-20.08 6.13-22.6a7.59 7.59 0 0 0-1-2.85c-1-2.13-2.35-5-1.07-8.32 1.07-2.74 3.52-4.22 5.48-5.41a20.27 20.27 0 0 0 1.93-1.26 8.33 8.33 0 0 0-1.32-4.28 5.25 5.25 0 0 1 3.27-8.13c9.83-2.09 20.17-6.29 21.87-8.82 0.06-5.73-6-39.61-16.44-79.85-5.39-20.72-10.82-38.55-15.7-51.55-7-18.62-11.16-22.81-12.32-23.68-0.76 0.43-2.92 2.09-6.31 8.16-7.81 14-17.1 42.44-24.87 76.18-7.91 34.36-10 55.68-8.94 59.47 1.53 2.78 8.87 6.62 13.74 9.18 7.79 4.08 12.93 6.78 13.58 11.68 0.79 5.88-3.27 8.54-5.17 9.64a9.86 9.86 0 0 1 0.53 7.27c-1.19 3.58-4.55 4.91-6.55 5.71-0.43 2.55-1.28 7.61-2.15 12.8zM632.09 197z m-0.63-0.07z" fill="" p-id="103820"></path><path d="M432.73 324c-2.94 14.75-20.5 18.69-20.08 22.47s6.22 2.23 5.82 7.27-5.5 7.3-4.22 9 8.59 2.85 9.15 6-5.83 8.28-4.58 10.38c1.52 2.56 10.85 1 9.78 3-5.69 10.84 18.47 2.4 19.2 2.21 14.61-3.84 28-7.73 43.24-9.49 30-3.48 60.6-1.16 90.1 4.83 81.92 16.64 165 58 202.77 132.56C805.28 554.45 810.1 603 827 647.2c14 36.4 48.34 93.45-0.71 117.94-91.21 45.55-195.58 59.53-297.47 55.8-60.59-2.22-120.78-6.22-180.42-16.8-52.53-9.31-113-18.64-161.81-41-5.59-2.55-10.93-6-14.65-10.86-8.15-10.71-6.78-25.92-2.56-38.7 25.36-76.85 43.05-161.1 92.73-227 30.52-40.5 72-64.84 115-90 0 0-7.15-2.79-6.31-7.83s10.1-6.25 9.68-10-11.58-5.9-10.74-9.68 10.58-6.62 8.48-10-27.72-3.36-30.25-21S360.14 187 378.2 184.35c20.11-2.96 57.17 126.44 54.53 139.65z" fill="#FFCFCF" p-id="103821"></path><path d="M432.73 324c-2.94 14.75-20.5 18.69-20.08 22.47s6.22 2.23 5.82 7.27-5.5 7.3-4.22 9 8.59 2.85 9.15 6-5.83 8.28-4.58 10.38c1.52 2.56 10.85 1 9.78 3-5.69 10.84 18.47 2.4 19.2 2.21 14.61-3.84 28-7.73 43.24-9.49 30-3.48 60.6-1.16 90.1 4.83C663.07 396.33 730.23 438.22 768 512.8c21.37 42.19 29.53 93.67 46.46 137.84 14 36.4 60.9 90 11.85 114.51-91.21 45.55-195.58 59.53-297.47 55.8C468.26 818.73 410 808 350.79 791.13c-51.3-14.63-126.88-33.26-140.35-44.88-11-9.51-9.26-23.1-7.39-36.43 13.38-95.21 35.2-154.35 71.81-214.54 27.9-45.88 59.27-73.54 102.22-98.65 0 0-7.15-2.79-6.31-7.83s10.1-6.25 9.68-10-11.58-5.9-10.74-9.68 10.58-6.62 8.48-10-8-8.67-12.53-25.22c-4.75-17.18 5.09-139.46 12.53-149.54 20.12-2.97 57.18 126.43 54.54 139.64z" fill="#8E847A" p-id="103822"></path><path d="M847.25 744.69a404 404 0 0 0-146.35-39.81c-37.28-2.95-75.07-1.37-111.65 6.76-44.56 9.91-87.42 30-121.7 60.41-17.43 15.46-25.63 25.11-39.84 43.48 21.28 10.81 231.18 6.95 293-12.17S862.28 752 847.25 744.69z" fill="#FEFEEC" p-id="103823"></path><path d="M560 826.8q-15.49 0-31.34-0.58c-53.56-2-117-5.49-181.15-16.87L334.2 807c-48.93-8.57-104.38-18.28-149.77-39-7.4-3.39-12.85-7.46-16.66-12.46-8-10.49-9.18-26-3.38-43.55 5.28-16 10.33-32.67 15.22-48.79 18.9-62.37 38.45-126.86 78.3-179.76 29.59-39.28 70-64.07 109.74-87.38a10.28 10.28 0 0 1-2.09-8.1c0.77-4.65 4.56-7.2 7.39-8.9l-0.48-0.26c-3.45-1.85-9.21-5-7.91-10.83 0.64-2.9 2.71-4.87 4.92-6.52-9-2.42-24.53-7-26.75-22.57-1.46-10.22 2-49.49 7.41-84.06 3.13-20 6.69-37 10.29-49.27 5.16-17.51 10.24-25.4 17-26.4 4.05-0.59 8.16 1.27 12.22 5.54 21.66 22.78 51 126.51 48.25 140.39-2.32 11.66-11.78 17.67-17.43 21.26a8.55 8.55 0 0 1 3.27 7.86 13.68 13.68 0 0 1-2.18 6.32c3 1.33 6.34 3.37 7 7.29 0.53 2.94-0.82 5.59-2.31 7.86 2.66 0.23 5.47 0.72 7 3.43a5.69 5.69 0 0 1 0.69 3.21 59.18 59.18 0 0 0 11.8-2.83l0.71-0.22 5.26-1.39c12.84-3.42 25-6.65 38.71-8.24 28.59-3.31 59.46-1.66 91.76 4.9 44.5 9 85.87 24.67 119.64 45.22 39.46 24 68.66 54.33 86.79 90.13 12.64 24.92 19.65 52.22 26.39 78.62 4.86 18.92 9.89 38.48 16.91 56.81 2 5.1 4.33 10.64 6.85 16.51 7.74 18.06 16.52 38.52 18 57.66 1.84 23.18-7.63 40.13-28.17 50.39C752.94 807.69 662.67 826.8 560 826.8zM376.08 389.69a8.14 8.14 0 0 0 3 2 5.29 5.29 0 0 1 0.71 9.46c-42.89 25.07-83.4 48.76-113.4 88.57-38.73 51.4-58 115-76.63 176.47-4.9 16.18-10 32.92-15.3 49-2.71 8.22-6.09 23.55 1.75 33.85 2.73 3.58 6.86 6.61 12.65 9.25 44.16 20.2 98.9 29.78 147.2 38.24l13.33 2.34c63.51 11.34 126.46 14.85 179.61 16.8 114 4.16 213.21-14.43 295-55.25 34.78-17.42 23.49-51.57 5.1-94.42-2.56-6-5-11.6-7-16.89-7.25-18.9-12.35-38.75-17.28-58-6.64-25.85-13.51-52.59-25.61-76.48C735.32 428 635.62 396.15 580.09 384.87c-31.2-6.34-61-7.94-88.44-4.76-13 1.5-24.75 4.63-37.21 8l-5.19 1.38-0.25 0.08c-17.37 5.61-22.28 3.31-24.8 0.32a7.38 7.38 0 0 1-1.69-3.91c-3.12-0.33-6.44-1.11-8.23-4.13-2.37-4 0.31-7.82 2.26-10.62l0.71-1c-0.56-0.25-1.15-0.49-1.57-0.66-2.2-0.9-4.28-1.76-5.65-3.55-3.14-4.13 0.23-8.14 1.34-9.46a9.79 9.79 0 0 0 1.63-2.34c-1.65-0.79-5.11-2.59-5.61-7.07-0.51-4.63 3.34-7.08 7.41-9.67 5-3.2 11.29-7.18 12.73-14.41 0.63-3.81-3.87-26.68-13.64-58.11-10.23-32.9-21.31-59.15-29.63-70.22-3-4-4.74-4.86-5.25-5-3.3 2.18-11.17 19.12-18.85 69.4-5.29 34.64-8.1 70.55-7 78.32 1.2 8.4 10.05 11.45 19.81 14.08 4.81 1.29 8 2.15 9.69 4.88 3.82 6.12-2.58 10.56-5.31 12.46l-0.52 0.36 0.63 0.34c3.44 1.85 7.72 4.15 8.23 8.71 0.58 5.22-4 7.93-6.71 9.54a18.46 18.46 0 0 0-2.9 1.86z m55.2-7.39z m-56.68-11.37z m39.4-16.3zM427.55 323z m-48.69-133.42z" fill="" p-id="103824"></path><path d="M747.05 536.14c2.53 22.92-2.54 41.37-21.74 41.37-29.22 0-40.45-19.69-40.45-41.37s8.24-39.25 27.43-39.25 32.38 17.7 34.76 39.25z" fill="#FFFFFF" p-id="103825"></path><path d="M699.74 571.9a3.15 3.15 0 0 1-1.77-0.54c-10.65-7.17-16.28-19.35-16.28-35.22 0-26.56 11.44-42.42 30.6-42.42 19.58 0 35.17 17.3 37.91 42.07 1.41 12.79 0.4 22.87-3 29.95a3.17 3.17 0 1 1-5.71-2.75c2.89-6 3.71-14.91 2.43-26.5-2.37-21.45-15.37-36.43-31.61-36.43-21.9 0-24.26 25.24-24.26 36.09 0 9.53 2.34 22.47 13.48 30a3.17 3.17 0 0 1-1.77 5.8z" fill="" p-id="103826"></path><path d="M699.717033 538.528438a13.17 9.78 80.52 1 0 19.292872-3.221596 13.17 9.78 80.52 1 0-19.292872 3.221596Z" fill="" p-id="103827"></path><path d="M401.76 545.05c1.75 25.62 12 48 42.29 48 32.14 0 44.79-24.1 42.29-49.66-2.52-25.76-22.29-44.81-45.65-44.81s-40.61 21.83-38.93 46.47z" fill="#FFFFFF" p-id="103828"></path><path d="M418.83 586.32a3.15 3.15 0 0 1-1.79-0.56c-11.07-7.62-17.1-20.86-18.44-40.49a49.08 49.08 0 0 1 12.65-36.84 40 40 0 0 1 29.44-13c25.16 0 46.14 20.49 48.8 47.67 1.43 14.63-1.86 27.05-9.51 35.92a3.17 3.17 0 0 1-4.8-4.14c6.49-7.52 9.26-18.3 8-31.16-2.34-23.91-20.61-41.95-42.5-41.95a33.75 33.75 0 0 0-24.81 11 42.72 42.72 0 0 0-11 32.08c1.2 17.58 6.34 29.26 15.71 35.71a3.17 3.17 0 0 1-1.8 5.78z" fill="" p-id="103829"></path><path d="M420.58252 546.209414a16.07 12.51 80.58 1 0 24.682607-4.095031 16.07 12.51 80.58 1 0-24.682607 4.095031Z" fill="" p-id="103830"></path><path d="M557.46 532.29a2.64 2.64 0 0 1-1-5.07c27.71-11.64 57.23-21.64 86.74-5.34a2.64 2.64 0 0 1-2.55 4.62c-27.43-15.16-55.62-5.55-82.14 5.58a2.63 2.63 0 0 1-1.05 0.21zM616.27 532.81c23.76 0.29 48.45 10.28 45.09 18.69s-36.36 10.08-52.09 10.64-51 2-51.81-3.08 33.33-26.56 58.81-26.25z" fill="" p-id="103831"></path><path d="M583.25 568c-24.77 0-30.06-2.49-31-8.08-0.56-3.39 1.75-6.08 2.5-7 7.74-9 37.94-25.43 61-25.43h0.58c18.28 0.22 42.1 6.57 48.69 16.43a10 10 0 0 1 1.24 9.49c-2.51 6.28-11.13 12.33-56.8 14h-1.22c-9.99 0.41-18.24 0.59-24.99 0.59z m-17.14-11.19c7.16 0.8 21.14 0.83 41.76 0.09h1.22c37.62-1.34 45.52-5.64 47.14-7.13-2.21-3.57-18.94-11.39-40-11.64-18.39-0.25-41.18 11.87-50.12 18.68z m90.31-6.68zM623 674.21a3.7 3.7 0 0 1-3-5.82c0.34-0.48 8.47-11.88 20.8-13.31 11.56-1.35 19.91 7.81 20.26 8.2a3.7 3.7 0 0 1-5.49 5c-0.1-0.11-6.26-6.7-13.92-5.81-9 1-15.54 10.13-15.61 10.22a3.7 3.7 0 0 1-3.04 1.52zM384.39 612.23a5.26 5.26 0 0 1-2.42-0.59c-1.27-0.66-128.13-65.77-224.17-76.74a5.28 5.28 0 0 1 1.2-10.49c98 11.19 226.54 77.18 227.83 77.85a5.28 5.28 0 0 1-2.43 10zM145 655.91a5.28 5.28 0 0 1-1.82-10.24c82.44-30.28 203.49-8.73 208.6-7.8a5.28 5.28 0 0 1-1.89 10.39c-1.23-0.22-123.36-22-203.07 7.32a5.26 5.26 0 0 1-1.82 0.33zM136.55 720.61a5.28 5.28 0 0 1-1.88-10.21c92.39-35.23 214.89-35.63 216.12-35.63a5.28 5.28 0 0 1 0 10.56c-1.21 0-121.81 0.42-212.36 34.94a5.26 5.26 0 0 1-1.88 0.34zM782.63 609.7a5.28 5.28 0 0 1-2.49-9.94c1.88-1 46.7-24.3 105.66-10a5.28 5.28 0 1 1-2.48 10.24c-54.91-13.33-97.79 8.83-98.22 9.06a5.25 5.25 0 0 1-2.47 0.64zM881.76 655.63a5.26 5.26 0 0 1-3-0.94c-34.49-23.88-75.77-21.5-76.19-21.48a5.28 5.28 0 0 1-0.68-10.54c1.83-0.12 45.39-2.62 82.88 23.33a5.28 5.28 0 0 1-3 9.62zM876.16 699.88a5.25 5.25 0 0 1-3.37-1.22c-31.36-26-70.5-28.75-70.89-28.77a5.28 5.28 0 0 1 0.65-10.54c1.74 0.11 43 3 77 31.19a5.28 5.28 0 0 1-3.38 9.34z" fill="" p-id="103832"></path></svg>