<?xml version="1.0" standalone="no"?><!DOCTYPE svg PUBLIC "-//W3C//DTD SVG 1.1//EN" "http://www.w3.org/Graphics/SVG/1.1/DTD/svg11.dtd"><svg t="1649683085528" class="icon" viewBox="0 0 2685 1024" version="1.1" xmlns="http://www.w3.org/2000/svg" p-id="11957" xmlns:xlink="http://www.w3.org/1999/xlink" width="524.4140625" height="200"><defs><style type="text/css">@font-face { font-family: "feedback-iconfont"; src: url("//at.alicdn.com/t/font_1031158_u69w8yhxdu.woff2?t=1630033759944") format("woff2"), url("//at.alicdn.com/t/font_1031158_u69w8yhxdu.woff?t=1630033759944") format("woff"), url("//at.alicdn.com/t/font_1031158_u69w8yhxdu.ttf?t=1630033759944") format("truetype"); }
</style></defs><path d="M554.913612 602.659191h-16.913293a241.564603 241.564603 0 0 0-61.715228 23.723638c-28.277 16.491164-49.529777 30.64655-49.529777 30.64655s17.695639 17.695639 30.646549 32.987957 25.24893 27.016242 25.24893 27.016242z" p-id="11958"></path><path d="M2246.49621 836.54105H689.505153l-0.562838-750.826394c0-59.255624 27.292033-73.731827 73.681171-73.731827L1462.95765 0 2157.190645 11.189227c27.016242 0 65.553786 0.422129 81.926754 19.310985 13.586918 15.652535 7.345041 47.593613 7.378811 69.932668z" fill="#4E5B9E" p-id="11959"></path><path d="M862.752434 132.548438h100.793096v7.074878h-100.793096z m406.712639 8.904103c-19.614917 0-42.212878-0.512183-67.473065-1.857367a1506.442543 1506.442543 0 0 0-170.934015 0l-0.512183-7.046736a1513.787583 1513.787583 0 0 1 171.924611 0c97.494864 5.217512 154.352796-2.251354 154.921263-2.341408l0.928683 6.984824a745.822761 745.822761 0 0 1-88.855294 4.260687z m-406.712639 49.428466h357.137835v7.074878h-357.137835z m178.549218 47.739951h341.215137v7.074878h-341.186995z m0 63.634507h223.807052v7.074878h-223.77891z m316.47839-7.080507h459.670102v7.074878h-459.670102z m-495.027608 68.975843h349.162415v7.074879h-349.162415z" fill="#FFFFFF" p-id="11960"></path><path d="M2194.647539 878.466881h-1456.231731v-3.540253l-0.478413-750.860165c0-54.8486 20.993871-77.249567 71.975772-77.249567l651.716184-11.994086 646.172226 11.183599h0.298305c23.273367 0 62.047303 0 78.662291 20.599884 10.55322 13.102877 9.326232 35.655811 8.245583 55.597175-0.332075 5.819749-0.630379 11.453761-0.630379 16.581219z m-1448.999258-7.074878h1441.778042V138.762173c0-5.245654 0.332075-11.00349 0.630379-16.975205 1.018737-18.652464 2.161299-39.792673-6.68652-50.73988-14.543744-18.010828-51.460313-18.010828-73.501064-18.010828l-646.110314-11.200483-651.659901 11.999714c-40.214802 0-65.075373 11.757694-65.075373 70.174688z" fill="#5E6DBE" p-id="11961"></path><path d="M0 972.151329h2684.964191v7.10302H0z" fill="#231815" p-id="11962"></path><path d="M2316.046148 975.691582H511.552543l280.490505-109.449551 1454.430649-29.717866 69.544309 139.150532z" fill="#4E5B9E" p-id="11963"></path><path d="M549.752384 606.351411s26.599742-35.357507 50.77365-50.655454 55.839195-38.593827 55.839195-38.593827l207.732388 55.236958s-26.087559-49.929392 14.571886-75.572309 144.086624-51.612279 144.086624-51.612279 66.307989-17.335422 82.174403-21.770588 126.255905-26.751708 155.585413-26.509688 267.083695-2.397691 307.056476 5.628384 260.453459 94.286685 260.453458 94.286685l56.587771 34.895979s248.397461 148.082777 265.192558 162.21002 163.527062 82.230687 197.145398 92.097244 73.354726 14.994014 93.684447 7.074878 22.102663-2.667854 28.277-34.485107-200.65751-22.969434-200.657509-22.969434h-21.804359v-28.704757l48.314046-6.630237s89.305565-7.97542 100.793097-14.994014 83.097458-14.155385 105.200121-1.767312 39.764531 19.434809 55.687229 38.987814 32.689653 58.326941 24.764888 94.556847-3.540253 67.022794-54.820458 79.472779-13.254844 11.577585-13.254843 11.577585 38.987814 47.171484 42.736318 54.792316l7.648973 29.177542-51.252063 10.615131a159.722274 159.722274 0 0 1-53.261395 0.658521 272.070443 272.070443 0 0 1-59.976057-15.686305 153.373458 153.373458 0 0 0-27.61848 2.999928c-6.568324 0.990596-14.633798 2.307637-24.528496 4.046808-44.982043 7.97542-147.638134 19.462951-198.918339 22.102663s-176.933872-31.817253-176.933872-31.817253-96.352302-36.224278-143.945915-68.975843a149.15217 149.15217 0 0 1-18.573666-14.994014 159.660362 159.660362 0 0 1-11.487531-11.994086 98.778135 98.778135 0 0 1-3.939869-4.801012 261.247061 261.247061 0 0 1-6.596466-8.814049 174.918911 174.918911 0 0 1-23.003204-44.982043l29.329508 65.85209h-86.67711l-904.582582-9.658306-47.981972 9.658306-145.296727 65.733894s-167.939715 52.180746-192.620177 49.839339-173.753835 12.945283-186.350158 4.857295 7.525149-34.969148 18.950768-44.565543 23.9938-23.723638 46.963234-25.519092 71.480474-9.005414 71.480474-9.005414l78.482183-44.26161a76.050721 76.050721 0 0 0-5.628384-21.742446c-5.39762-14.127243 6.191222-64.805211 6.191223-64.805211s-3.748504-21.202122 16.581218-55.478979 33.888499-57.308203 33.888499-57.308203 19.553005-43.186589 20.391634-52.512821 33.168066-35.115486 33.168066-35.115486z" fill="#FFFFFF" p-id="11964"></path><path d="M448.424591 891.806151c-13.226702-7.829082-13.434952-44.025218-11.695781-54.4321l0.630379-3.939868c2.487746-15.472427 8.335636-51.820529 17.273509-73.731828a194.410004 194.410004 0 0 1 20.003276-36.916569c3.540253-5.459532 7.468865-11.515673 11.994086-19.254701a125.141485 125.141485 0 0 0 17.301652-41.982114c0.782345-2.999929 1.620975-6.388216 2.639712-10.164861 6.450128-23.9938 39.702619-46.991376 41.087201-47.981972l4.018666 5.999857c-0.332075 0.242021-32.509545 22.513535-38.273009 43.963306-1.018737 3.776646-1.857367 7.074878-2.639712 10.074807a132.131937 132.131937 0 0 1-18.010828 43.901393 543.251601 543.251601 0 0 1-12.236107 19.462951 190.599588 190.599588 0 0 0-19.2547 35.599527c-8.633941 21.17398-14.571886 58.270657-16.82324 72.212164l-0.630378 3.939869c-1.891137 11.155457 0 42.212878 8.335636 47.205254z" p-id="11965"></path><path d="M411.356056 782.199005h38.89776v7.080507h-38.89776z m-1.480265 30.71409l38.920274-18.849457 3.073097 6.343189-38.920274 18.849457z" fill="#231815" p-id="11966"></path><path d="M463.75068 811.252722l-16.102806-17.44799 5.217512-4.801011 12.174194 13.226702 23.419705-13.885223 3.596537 6.089911z m-238.862978 189.952324h-7.074879v-6.928541l26.301438-40.575018c0.180108 0 19.192789-15.596251 37.935306-28.457109s70.112777-11.487531 76.889351-11.256767l87.926611-30.348245 2.307637 6.68652-89.187369 30.798516h-0.658521c-0.562838 0-55.597175-2.161299-73.264671 9.984752-16.975205 11.633869-34.124891 25.400896-37.068536 27.770446l-23.9938 37.518806z m558.932278-124.038322h238.981174v7.074879h-238.981174z m-212.443345 95.007118h1354.842026v7.080507H571.376635z" fill="#231815" p-id="11967"></path><path d="M909.923918 542.649364s31.817253-3.478341 53.019375 5.999857 21.804359 28.277 59.976057 64.833352 91.044736 96.656234 174.716289 92.964015 173.275423-54.218221 190.971061-71.975771 81.302003-84.960453 107.237596-91.97342 63.634507-14.037189 83.699695-4.046808 77.789892 26.453404 122.563685 26.453404 73.084563-17.605584 83.699695-26.453404 42.404243-41.982114 42.404243-41.982114l-53.413362-33.376316c-31.040536-15.894556 0 0-112.246857-38.987814a282.285959 282.285959 0 0 0-37.518806-10.018523l-98.69371-19.733114c-122.805705-23.9938-291.550279 8.487603-388.324709 34.54702a398.084327 398.084327 0 0 0-91.410581 37.276786z" fill="#FFC14D" p-id="11968"></path><path d="M1529.772193 669.479364c27.398972 5.206255 53.323308-10.131091 57.904813-34.203689s-13.918993-47.841262-41.323594-53.058773-53.323308 10.131091-57.904812 34.203688 13.935878 47.852519 41.323593 53.058774z" fill="#FFC14D" p-id="11969"></path><path d="M1561.555676 921.073746h-206.117041a16.524935 16.524935 0 0 1-16.491165-16.491164v-33.168066h239.909858v32.419491a17.27351 17.27351 0 0 1-17.301652 17.245368z m-215.567098-42.584351v26.093187a9.450056 9.450056 0 0 0 9.416286 9.416286h206.117042a10.164861 10.164861 0 0 0 10.164861-10.164861v-25.327727z" fill="#FFFFFF" p-id="11970"></path><path d="M1438.327842 413.697463l-5.459532-4.502707 42.432385-51.43217 5.459533 4.502707z m12.737033 17.183456l-5.009262-5.009262 51.848671-51.848671 5.065546 5.009262z" p-id="11971"></path><path d="M1926.213032 578.068783l67.17476-4.857295" fill="#FFFFFF" p-id="11972"></path><path d="M1926.449424 581.603408l-0.478412-7.046737 67.17476-4.857295 0.478412 7.046737z" p-id="11973"></path><path d="M1950.955407 595.758793l59.227482-7.074878" fill="#FFFFFF" p-id="11974"></path><path d="M1950.572677 592.190398l59.227482-7.057994 0.83863 7.029852-59.227483 7.052365z" p-id="11975"></path><path d="M1828.099046 695.910254l31.817254 11.904031" fill="#FFFFFF" p-id="11976"></path><path d="M1826.855174 699.259142l2.47086-6.602094 31.822882 11.90966-2.470861 6.596466z" p-id="11977"></path><path d="M1825.155402 714.787853l43.00648 23.003204" fill="#FFFFFF" p-id="11978"></path><path d="M1823.506285 717.984775l3.337632-6.241878 43.00648 22.980691-3.337631 6.241878z" p-id="11979"></path><path d="M2043.170847 764.300745a100.235886 100.235886 0 0 1 21.804358 15.326089 131.045659 131.045659 0 0 0 41.26731 22.969434c5.279424 0.602237 26.509688 14.155385 26.509688 14.155385" fill="#FFFFFF" p-id="11980"></path><path d="M2130.855437 819.689669a139.865337 139.865337 0 0 0-25.012537-13.586918c-6.68652-0.748575-31.490807-13.316756-43.242873-23.9938a98.17027 98.17027 0 0 0-20.993871-14.757622l2.999929-6.388216a103.095105 103.095105 0 0 1 22.671129 15.894556 131.225767 131.225767 0 0 0 39.286119 22.102663c5.667782 0.630379 22.87938 11.363707 28.03498 14.66194z" p-id="11981"></path><path d="M2421.657141 799.686393c-32.301294 0-92.21544-16.322313-106.911149-22.192717-17.031489-6.754061-150.244076-75.510397-155.945629-78.420271l3.23632-6.298161c1.378954 0.720433 138.548295 71.480474 155.28148 78.150108 19.136505 7.615203 96.56618 27.348317 116.597598 20.262182 24.382158-8.639569 38.385577-16.885151 37.665144-33.528282-0.630379-14.245439-0.360217-22.400967-0.146338-28.941149 0-2.999929 0.180108-5.515816 0.180109-8.307495h7.074878c0 2.999929 0 5.577728-0.180108 8.515745-0.20825 6.754061-0.478413 14.45369 0 28.428966 1.018737 23.183313-20.363492 32.717795-42.376102 40.484965a45.815044 45.815044 0 0 1-14.476203 1.846109z" fill="#231815" p-id="11982"></path><path d="M2253.087048 705.343425l-1.407096-6.928541c7.080507-1.440866 42.854514-8.442576 52.062549-5.999857l-1.919278 6.810345c-5.847891-1.559062-32.9767 2.938016-48.736175 6.118053z m77.215796 231.99635a298.771495 298.771495 0 0 1-30.168137-28.851095c-13.586918-15.236035-33.494512-34.186803-33.70839-34.366911l4.891066-5.127458c0.20825 0.180108 20.30158 19.310985 34.096748 34.78904a287.16014 287.16014 0 0 0 29.35765 28.06875z" fill="#231815" p-id="11983"></path><path d="M2311.807975 909.501789l-2.161299-6.75406c0.180108 0 18.573666-5.999857 32.987957-9.956611a51.522225 51.522225 0 0 1 28.609075 0l-2.251354 6.68652a45.314118 45.314118 0 0 0-24.438442 0 1198.130937 1198.130937 0 0 0-32.745937 10.024151z m-509.515068-11.543815l-112.218716-3.416429 0.208251-7.074878 112.218715 3.416429zM351.228032 481.412548H285.52228l37.603232-53.559699-45.820672 4.046807-0.630379-7.046736 60.966653-5.369478-38.537544 54.842971h52.118834v7.074879z" fill="#231815" p-id="11984"></path><path d="M363.25026 609.165603l-15.084069-11.667639-20.82502-35.925974 6.118053-3.540253 20.481689 35.295594 13.586918 10.198632-4.260686 5.628383z" p-id="11985"></path><path d="M430.790865 380.050985H369.075637l20.689939-41.385506c-9.50634 1.2889-22.642988 2.161299-27.016242-2.099387l5.009261-5.009261c2.099387 1.801083 14.994014 1.350812 27.528425-0.962454l6.956682-1.260758-21.8325 43.636859h50.261467z m-117.408085-86.609569l-30.798516-6.568324 17.903888-23.509759h-16.43488V256.316597h30.708462l-19.789398 25.986247 19.88508 4.226917z" fill="#231815" p-id="11986"></path><path d="M2370.258741 890.911238c0-4.136862 22.400967-38.323665 45.972638-44.205327s57.730332 8.245582 81.302004 0 49.529777-22.400967 51.882441-43.603089-16.496793-50.655454-10.615131-65.435589-4.710957-21.202122 17.695638-15.596252 36.528211 58.630874 36.528211 58.630874 17.695639 38.987814 4.705329 65.975915-33.376316 47.109572-50.655454 53.469645c-14.301723 5.279424-60.668349 5.999857-60.668349 5.999857z" fill="#FFC14D" p-id="11987"></path><path d="M2465.721758 906.11913s9.005414 0.782345 3.540253 14.994015-14.127243 20.779993-10.693929 37.665144a74.62674 74.62674 0 0 0 16.643131 31.09682l16.581218 11.00349s72.966367 0.782345 79.439009-6.866628-11.633869-52.721071-21.804359-55.991161-49.687372-32.41949-49.687372-32.419491z" fill="#FFC14D" p-id="11988"></path><path d="M2466.768637 906.147272c-40.18666 0-82.979262-4.587133-85.709028-4.885437l-80.221354-19.344755a278.942699 278.942699 0 0 1-28.907379-8.785907l-86.969786-31.997361 2.431462-6.658378 87.116124 31.997361a251.054058 251.054058 0 0 0 28.141919 8.543887l79.799225 19.310984c0.562838 0 99.234034 10.693929 137.107428 0s44.593685-25.400896 56.497717-68.666281c11.155457-40.456822-5.994229-75.544167-22.434738-101.631726-12.382444-19.823168-42.775717-31.879166-65.013461-40.693215l-3.416429-1.350812c-19.699343-7.829082-41.982114-7.497007-66.724489 0.8724a272.745849 272.745849 0 0 1-41.982115 10.857152l-1.080649-6.984824a272.63891 272.63891 0 0 0 40.755126-10.558848c26.267667-9.005414 50.351521-9.208036 71.609927-0.748575l3.422057 1.350812c23.121401 9.174266 54.786688 21.714305 68.42989 43.513035 9.984753 16.046522 36.618265 58.630874 23.245225 107.237596-12.236106 44.385434-20.661797 62.227411-61.416924 73.624888a225.428026 225.428026 0 0 1-54.679748 4.998004z" fill="#231815" p-id="11989"></path><path d="M2214.887207 1023.251425a117.751417 117.751417 0 0 1-13.586918-0.686663c-3.720362-0.450271-9.658307-1.018737-17.391706-1.767312-63.758331-6.298161-233.133284-23.003204-302.885844-62.975986-87.870327-50.593542-107.271366-85.855366-111.109924-95.423619a247.840251 247.840251 0 0 1-9.894699-31.490807l6.89477-1.587204a244.727754 244.727754 0 0 0 9.534483 30.438299c2.61157 6.450128 19.969506 41.205398 107.958029 91.945278 68.345464 39.348031 242.667766 56.497716 299.885915 62.165498 7.795312 0.748575 13.767027 1.350812 17.543672 1.801083 32.447632 3.748504 102.352159-9.928469 147.187864-25.102592 39.584423-13.37304 43.84511-8.785907 45.674334-6.810344a5.200627 5.200627 0 0 1 0.810487 1.125677l39.674477 10.226773c38.205469 9.804645 120.588122-4.407024 131.951829-10.79524-2.757908-7.795312-24.4103-39.438085-38.447489-56.767879a86.193069 86.193069 0 0 0-26.093187-21.663649l2.999928-6.360073a92.305494 92.305494 0 0 1 28.519021 23.543529c6.838486 8.442576 40.276714 53.227625 40.276714 62.317465a4.952978 4.952978 0 0 1-2.189441 3.939869c-10.496936 8.127386-98.963872 22.823096-138.846599 12.596322l-45.702476-11.757693 0.692291-1.688515c-2.999929-0.298304-11.994086 0.298304-37.147333 8.814049-39.59568 13.58129-99.121466 25.963734-136.308198 25.963734z" fill="#231815" p-id="11990"></path><path d="M573.746184 761.480925a36.719576 36.719576 0 0 1-21.714304-39.764532c2.251354-24.292104 8.397549-40.665073 7.975419-55.270728s-2.847962-37.997219-8.279352-48.16208a23.543529 23.543529 0 0 1-0.748575-19.913222 80.9643 80.9643 0 0 1 14.307351-18.984538c7.97542-7.074878 70.743156-53.469646 80.969929-57.910441l10.164861-4.407024s33.590194-54.370187 68.04716-76.472851 52.152604-29.177541 66.307989-29.177541 29.177541 0.900541 38.025361 14.605656 10.164861 16.795097 11.487531 25.192646 0 69.842614 0 69.842614 1.767313-43.783197 14.571886-52.180746 59.976057-14.994014 77.339621-20.751851 63.668277-10.164861 92.395548-11.994086l28.704757-1.767312s-168.418127 57.910441-173.275423 70.264742-13.254844 31.400753-14.571885 42.882656-1.317042 24.764889-1.317042 24.764889l-188.809762 172.014664s-30.736604 22.249001-39.708247 22.192718c-43.816968-0.202622-43.310413 3.422057-61.872823-5.003633z" fill="#FFC14D" p-id="11991"></path><path d="M808.342848 435.946464s8.442576-6.388216 11.099173 5.099316-26.509688 35.357507-28.282629 40.665073-2.814192 4.857295 1.559062 7.198703 15.624393 3.990524 18.950769 16.64313 4.649045 18.292247-1.649117 22.969435a22.474136 22.474136 0 0 1-18.860714 4.795383c-9.005414-0.720433-32.267524-5.127458-34.276857-5.127458s-23.9938 0.990596-23.9938 0.990595-20.661797 7.378811-20.329722 9.326232a75.983181 75.983181 0 0 1 17.543672-47.593613c19.823168-24.528496 14.994014-24.354017 30.528354-32.987957s47.711809-21.978839 47.711809-21.978839z" fill="#FFB01F" p-id="11992"></path><path d="M707.200791 560.4238c0-0.838629-3.596537-20.82502 9.005415-50.351521 13.316756-30.956111 30.88857-50.9819 55.388924-62.47506a348.087394 348.087394 0 0 1 42.314189-17.27351l2.099387 6.754061a348.396955 348.396955 0 0 0-41.385505 16.885151c-22.851238 10.885294-39.348031 29.59967-51.882442 58.929178-11.757694 27.410229-8.667711 46.124605-8.633941 46.304713z" fill="#FFFFFF" p-id="11993"></path><path d="M715.401347 535.304323l-5.999857-3.939869c8.515745-12.804573 29.301366-25.130734 30.168137-25.642916l3.568395 5.999857c0.050655 0.219507-20.132729 12.095397-27.736675 23.582928z" fill="#FFFFFF" p-id="11994"></path><path d="M713.763487 544.692467l-5.774722-4.080578a43.451123 43.451123 0 0 1 23.9938-14.994014 19.462951 19.462951 0 0 0 8.21744-4.170633 18.365416 18.365416 0 0 1 16.614989-3.90047l13.975277 2.127529-1.080649 7.018595-13.975277-2.1613a11.054146 11.054146 0 0 0-11.127315 2.459604 26.155099 26.155099 0 0 1-10.693929 5.577728 37.546948 37.546948 0 0 0-20.149614 12.123539z" fill="#FFFFFF" p-id="11995"></path><path d="M263.9318 1023.881804c-4.502707 0-8.155528 0-10.823382-0.298304-27.382087-2.251354-30.258191-3.416429-34.575162-13.463094a9.832786 9.832786 0 0 1 0.360217-7.97542c5.999857-14.515602 36.736461-45.285976 56.739737-53.711666a95.119686 95.119686 0 0 1 35.987885-6.838487 32.9767 32.9767 0 0 0 10.947207-1.317041 62.114843 62.114843 0 0 1 20.262181-2.757909 71.913859 71.913859 0 0 0 22.040751-2.999928c8.245582-4.739099 110.805991-62.47506 110.805991-62.47506 1.08065-0.602237 105.712304-58.568961 140.945987-88.928463s273.47191-224.077214 275.897743-226.024635l4.468937 5.487674c-2.397691 1.947421-240.360129 195.304917-275.717635 225.878297s-137.878517 87.470712-142.229258 89.722065-102.470355 57.730332-110.721566 62.47506c-5.18937 2.999929-14.994014 3.416429-25.220787 3.939869a68.739451 68.739451 0 0 0-17.44799 2.037475 35.019804 35.019804 0 0 1-13.82331 2.071245 89.547586 89.547586 0 0 0-33.500141 6.27002c-22.513535 9.50634-54.398329 45.589908-53.469645 52.090691 2.999929 6.68652 3.146267 7.345041 28.817325 9.50634 27.652249 2.217583 175.312897-9.326232 176.787534-9.416286l89.964086-16.463022c0.450271-0.20825 101.153313-36.584494 139.476978-52.839267s156.958738-78.234534 158.157583-78.8424l3.270091 6.27002c-1.198846 0.630379-119.957743 62.733965-158.641624 79.112562s-139.420694 52.721071-140.439432 53.109429l-90.988452 16.643131c-5.729695 0.478413-124.122747 9.776503-167.365619 9.776503z" fill="#231815" p-id="11996"></path><path d="M511.760794 778.42236l-0.450271-7.046737 200.9333-12.945282 0.478413 7.046736z m176.843818 70.591189l-177.98638-48.314046 1.829225-6.810345 177.986379 48.314046z" fill="#231815" p-id="11997"></path></svg>