<?xml version="1.0" standalone="no"?><!DOCTYPE svg PUBLIC "-//W3C//DTD SVG 1.1//EN" "http://www.w3.org/Graphics/SVG/1.1/DTD/svg11.dtd"><svg t="1649681871001" class="icon" viewBox="0 0 1024 1024" version="1.1" xmlns="http://www.w3.org/2000/svg" p-id="158592" xmlns:xlink="http://www.w3.org/1999/xlink" width="200" height="200"><defs><style type="text/css">@font-face { font-family: "feedback-iconfont"; src: url("//at.alicdn.com/t/font_1031158_u69w8yhxdu.woff2?t=1630033759944") format("woff2"), url("//at.alicdn.com/t/font_1031158_u69w8yhxdu.woff?t=1630033759944") format("woff"), url("//at.alicdn.com/t/font_1031158_u69w8yhxdu.ttf?t=1630033759944") format("truetype"); }
</style></defs><path d="M116.77193 395.22807v611.651369L207.440842 916.210526l104.663579 104.663579L416.768 916.210526l104.214456 104.214456L625.196912 916.210526l104.663579 104.663579L834.52407 916.210526 907.22807 988.914526V395.22807C907.22807 176.954386 730.273684 0 512 0S116.77193 176.954386 116.77193 395.22807" fill="#4482C3" p-id="158593"></path><path d="M655.719298 664.701754a17.946947 17.946947 0 0 1-14.946807-7.994386L583.859649 571.338105l-56.912842 85.369263c-6.664982 9.988491-23.228632 9.988491-29.893614 0L440.140351 571.338105l-56.912842 85.369263c-6.664982 9.988491-23.228632 9.988491-29.893614 0l-71.859649-107.789473a17.964912 17.964912 0 0 1 29.893614-19.941053L368.280702 614.346105l56.912842-85.369263c6.664982-9.988491 23.228632-9.988491 29.893614 0L512 614.346105l56.912842-85.369263c6.664982-9.988491 23.228632-9.988491 29.893614 0L655.719298 614.346105l56.912842-85.369263a17.964912 17.964912 0 1 1 29.893614 19.941053l-71.859649 107.789473A17.982877 17.982877 0 0 1 655.719298 664.701754" fill="#35638C" p-id="158594"></path><path d="M476.070175 341.333333a71.859649 71.859649 0 1 1-143.719298 0 71.859649 71.859649 0 0 1 143.719298 0M709.614035 341.333333a71.859649 71.859649 0 1 1-143.719298 0 71.859649 71.859649 0 0 1 143.719298 0" fill="#FFFFFF" p-id="158595"></path><path d="M440.140351 323.368421a17.964912 17.964912 0 1 1-35.929825 0 17.964912 17.964912 0 0 1 35.929825 0M655.719298 359.298246a17.964912 17.964912 0 1 1-35.929824 0 17.964912 17.964912 0 0 1 35.929824 0" fill="#35638C" p-id="158596"></path></svg>