<?xml version="1.0" standalone="no"?><!DOCTYPE svg PUBLIC "-//W3C//DTD SVG 1.1//EN" "http://www.w3.org/Graphics/SVG/1.1/DTD/svg11.dtd"><svg t="1649644299411" class="icon" viewBox="0 0 1024 1024" version="1.1" xmlns="http://www.w3.org/2000/svg" p-id="28914" xmlns:xlink="http://www.w3.org/1999/xlink" width="200" height="200"><defs><style type="text/css">@font-face { font-family: "feedback-iconfont"; src: url("//at.alicdn.com/t/font_1031158_u69w8yhxdu.woff2?t=1630033759944") format("woff2"), url("//at.alicdn.com/t/font_1031158_u69w8yhxdu.woff?t=1630033759944") format("woff"), url("//at.alicdn.com/t/font_1031158_u69w8yhxdu.ttf?t=1630033759944") format("truetype"); }
</style></defs><path d="M189.76 932.48a89.92 89.92 0 0 1-56.8-19.68 60 60 0 0 1-22.4-46.88 86.72 86.72 0 0 1 27.52-61.12 79.04 79.04 0 0 1 21.12-12.8L208 682.88a451.04 451.04 0 0 1-112-96c-68-81.28-83.52-176-80-206.56 4.8-42.72 73.92-104.48 132.48-131.04a685.76 685.76 0 0 1 120.32-39.2 252.32 252.32 0 0 1 140-104.64 348.96 348.96 0 0 1 94.08-13.44 282.88 282.88 0 0 1 132.32 32 314.56 314.56 0 0 1 87.52 78.4 440.16 440.16 0 0 1 171.36 78.88c76.48 62.56 115.68 130.08 113.44 195.36-2.4 69.28-73.92 144-101.28 167.52a506.24 506.24 0 0 1-54.08 38.56l32 93.76a88.16 88.16 0 0 1 52.96 64 64 64 0 0 1-12.96 53.6 76.16 76.16 0 0 1-58.72 26.72 70.4 70.4 0 0 1-37.44-10.4c-31.2-19.52-43.2-44.64-36.8-76.8a126.4 126.4 0 0 1 6.56-21.44c-22.08-25.76-48-55.68-62.88-72.64a332.8 332.8 0 0 1-71.52 19.36c-35.84 6.24-62.88 9.76-80 11.52l-1.28 16a69.44 69.44 0 0 1 17.44 58.24C595.52 874.56 566.56 896 528 896a82.56 82.56 0 0 1-49.6-15.04 69.44 69.44 0 0 1-14.4-92.32 57.76 57.76 0 0 1 12.8-14.88l-0.96-3.68a633.6 633.6 0 0 1-75.84-12.96c-32-7.36-54.56-12.96-68.64-16L254.4 832a75.68 75.68 0 0 1 5.92 48c-5.6 32-33.92 52.48-70.56 52.48z" fill="#FFFFFF" p-id="28915"></path><path d="M286.24 233.28A226.08 226.08 0 0 1 416 130.72a278.88 278.88 0 0 1 206.56 16 307.04 307.04 0 0 1 84.8 78.88s99.2 17.76 169.6 75.52 105.6 117.92 103.52 173.6-63.2 123.84-91.68 148a553.92 553.92 0 0 1-69.12 48L864 796.48a64 64 0 0 1 48 48c7.84 39.52-40.96 59.2-68.48 41.92s-27.68-34.08-24.64-48.8a131.2 131.2 0 0 1 11.84-31.04S742.4 704 740.96 704s-16 14.72-81.92 26.08a968.32 968.32 0 0 1-100.64 13.28l-4.48 52.32a39.52 39.52 0 0 1 18.72 42.88c-4 32-56.64 36.96-78.88 20.16s-13.76-44.8-6.4-57.28a35.84 35.84 0 0 1 21.28-16l-11.36-42.4a513.44 513.44 0 0 1-90.72-13.76c-55.68-12.8-84.32-20.64-84.32-20.64L219.68 832a40.64 40.64 0 0 1 14.24 44.32c-5.92 32-57.28 37.92-83.84 16s-4.96-58.24 5.44-67.04a56.16 56.16 0 0 1 23.2-11.36l64-142.56a398.4 398.4 0 0 1-126.24-102.08C56.48 496 40.16 409.44 43.04 382.72s59.2-83.36 116.8-109.44a680.96 680.96 0 0 1 126.4-40z" fill="#1D1D1B" p-id="28916"></path><path d="M263.52 260.48c1.92 0.96 2.88 4.96 2.88 4.96a442.88 442.88 0 0 0-24.64 91.2 236 236 0 0 0 3.52 74.4c1.92 2.4 48 67.52 172.16 86.72a541.28 541.28 0 0 0 265.28-26.56 163.04 163.04 0 0 0 58.72-43.2 70.88 70.88 0 0 0 10.56-38.08 304 304 0 0 0-4.96-76 662.56 662.56 0 0 0-16-66.56 300.96 300.96 0 0 1 98.56 38.88c36.48 26.56 104.96 77.44 102.08 145.92s-86.24 113.92-125.28 130.24-171.04 73.6-322.4 60.8-215.04-34.08-300.8-93.76-98.56-99.36-105.6-130.24c-12.32-54.72 42.4-97.12 75.52-115.2a905.28 905.28 0 0 1 110.4-43.52z" fill="#8EC480" p-id="28917"></path><path d="M273.92 419.68a250.08 250.08 0 0 1 19.2-133.6q45.12-93.92 128-124.32a232.64 232.64 0 0 1 176 4 193.12 193.12 0 0 1 106.56 118.4 625.92 625.92 0 0 1 16 140.96 33.12 33.12 0 0 1-3.52 14.24s-81.92-72.96-85.28-72.96-13.28 7.84-10.4 11.36 83.52 65.12 81.44 68.64a96 96 0 0 1-22.72 11.36s-61.6-54.72-66.08-54.72-11.84 7.84-9.92 9.44 65.12 50.24 62.56 52.8a74.72 74.72 0 0 1-25.12 9.44c-2.4-0.96-43.84-43.36-48-42.88s-10.4 4.96-8.32 7.84 44.16 38.72 41.12 40.32-28.16 7.36-28.16 7.36-31.04-28.64-33.12-28.64-11.36 2.88-10.4 6.4 26.08 26.56 24.16 27.68a355.2 355.2 0 0 1-188.8-7.36c-103.36-31.68-115.2-65.76-115.2-65.76z" fill="#E6E4DA" p-id="28918"></path><path d="M633.92 320A693.76 693.76 0 0 1 704 377.28a22.56 22.56 0 0 1-2.4 9.92s-70.72-51.2-71.2-53.76a27.04 27.04 0 0 1 3.52-13.44zM642.24 297.44s5.92-9.92 8.32-10.4a304 304 0 0 1 49.76 41.92c0 4 0.96 11.36 0 10.4s-57.6-41.92-58.08-41.92zM654.08 248.64a122.4 122.4 0 0 1 30.56 18.24c1.44 4 2.88 9.44 0.96 9.92a156.48 156.48 0 0 1-33.6-17.76c-0.8-3.04 2.08-10.4 2.08-10.4zM333.6 272a140.8 140.8 0 0 1 32-52.8c23.68-24.16 45.92-35.04 49.76-33.12s5.92 7.84 3.52 8.8a136 136 0 0 0-45.44 40.96c-16 24.64-18.24 44.32-21.76 44.8a57.28 57.28 0 0 1-18.08-8.64zM421.28 260c4.8-1.28 9.92 5.44 8.8 14.24a225.28 225.28 0 0 0 4.96 91.2c12.32 45.92 11.84 76.48 6.4 80a171.68 171.68 0 0 1-68.48-6.4c-28.16-7.84-36.96-16-36-34.56a221.76 221.76 0 0 1 33.12-88.32 198.08 198.08 0 0 1 51.2-56.16z" fill="#1D1D1B" p-id="28919"></path><path d="M406.08 301.92c2.4 0 1.44 37.44 8.8 68.48s11.36 52.32 6.88 55.2a196.32 196.32 0 0 1-51.36-6.88c-10.88-2.4-16-4.96-16-12.32a271.04 271.04 0 0 1 17.28-61.12c9.76-19.2 28.32-42.88 34.4-43.36z" fill="#FFFFFF" p-id="28920"></path><path d="M115.68 424.64a89.92 89.92 0 0 1 1.44-55.68 93.92 93.92 0 0 1 56.16-48c5.44 0 8.8 7.36 6.88 8.8s-40 16-44.8 40.48 8.32 55.2 6.4 58.72-23.68-1.76-26.08-4.32zM839.04 347.68a521.44 521.44 0 0 1 58.24 39.52 6.4 6.4 0 0 1-4 6.88 342.88 342.88 0 0 1-57.28-32 44.48 44.48 0 0 1 3.04-14.4zM825.76 392.16a581.44 581.44 0 0 1 72.48 57.76c0 4-1.44 7.36-4 7.36s-71.52-46.88-72.96-49.28a29.92 29.92 0 0 1 4.48-15.84zM809.92 433.6a582.56 582.56 0 0 1 81.92 53.28c0 2.88-4 9.92-5.44 8.8s-87.84-43.84-86.4-46.88a75.04 75.04 0 0 1 9.92-15.2zM778.4 468.64c2.88 0 80.8 40.48 80 43.84s-2.88 7.84-5.92 6.88S768 481.92 770.08 480s5.92-10.88 8.32-11.36zM753.28 506.56a598.88 598.88 0 0 1 62.72 38.4c-2.4 1.92-3.52 3.52-6.4 4a476 476 0 0 1-64-31.04 28 28 0 0 1 7.68-11.36zM724.64 541.12a306.4 306.4 0 0 1 54.72 33.12c-2.4 1.44-5.92 4.48-8.32 4.48a422.88 422.88 0 0 1-55.68-29.12 30.24 30.24 0 0 1 9.28-8.48zM683.68 567.2a312 312 0 0 1 40 25.6s-5.92 4.48-7.84 4a368 368 0 0 1-38.88-22.72c-0.16-1.44 4.32-5.92 6.72-6.88z" fill="#1D1D1B" p-id="28921"></path><path d="M138.72 550.4c2.24-2.24 76.96 55.68 153.92 84.32S422.88 667.84 528 672a592 592 0 0 0 262.4-51.36c64-28.64 100.64-54.72 103.52-51.36s-36.48 49.76-96 77.44-134.08 67.04-258.88 67.52-213.28-18.4-283.04-59.2-121.6-100.16-117.28-104.64z" fill="#C8DB89" p-id="28922"></path><path d="M259.04 681.12A157.6 157.6 0 0 1 304 707.2c-1.44 1.44-92.16 113.44-95.2 113.92s-10.4 0-10.4-1.92 57.6-135.68 60.64-138.08zM176 834.56c13.28-1.28 42.4 10.88 41.44 32s-34.56 24.16-49.76 17.28-17.6-46.88 8.32-49.28zM514.56 746.24a253.92 253.92 0 0 1 28.16 0.96 343.2 343.2 0 0 1-5.92 41.92c-1.44 0-12.32 0-12.8-0.96s-9.44-41.92-9.44-41.92zM510.56 806.88a30.4 30.4 0 0 1 41.92 17.76c8.8 23.68-28.16 32-41.44 22.72s-16.16-35.04-0.48-40.48zM761.12 700.32a218.56 218.56 0 0 1 43.84-18.24c0 1.44 36.96 106.56 34.08 107.52s-1.92 5.44-5.44 0-72.96-87.84-72.48-89.28zM848 819.68a44.96 44.96 0 0 1 44.32 22.72 24.8 24.8 0 0 1-36.96 30.08c-24.64-13.76-20.32-49.28-7.36-52.8z" fill="#FAB900" p-id="28923"></path></svg>