<?xml version="1.0" standalone="no"?><!DOCTYPE svg PUBLIC "-//W3C//DTD SVG 1.1//EN" "http://www.w3.org/Graphics/SVG/1.1/DTD/svg11.dtd"><svg t="1649644303206" class="icon" viewBox="0 0 1024 1024" version="1.1" xmlns="http://www.w3.org/2000/svg" p-id="29064" xmlns:xlink="http://www.w3.org/1999/xlink" width="200" height="200"><defs><style type="text/css">@font-face { font-family: "feedback-iconfont"; src: url("//at.alicdn.com/t/font_1031158_u69w8yhxdu.woff2?t=1630033759944") format("woff2"), url("//at.alicdn.com/t/font_1031158_u69w8yhxdu.woff?t=1630033759944") format("woff"), url("//at.alicdn.com/t/font_1031158_u69w8yhxdu.ttf?t=1630033759944") format("truetype"); }
</style></defs><path d="M278.4 982.72a261.6 261.6 0 0 1-39.68-1.76 32 32 0 0 1-30.88-32L208 944c-4.32-45.28-6.24-95.04 25.12-112a194.72 194.72 0 0 1 50.56-14.24c-15.2-41.44-41.6-113.44-57.12-156.32-12.64-34.72-23.04-65.28-29.76-85.6l-7.68 2.56a52 52 0 0 1-19.52 37.6 77.76 77.76 0 0 1-44.16 16 49.28 49.28 0 0 1-41.44-20.8 64 64 0 0 1-11.84-37.76 64 64 0 0 1-19.52-53.76c5.92-40.96 26.72-52.96 35.36-56.32a46.4 46.4 0 0 1 8-1.76 56.32 56.32 0 0 1 43.04-22.88 48 48 0 0 1 12.32 1.6 60.8 60.8 0 0 1 17.28 7.52 283.52 283.52 0 0 1 3.68-90.88 254.4 254.4 0 0 1 28.16-75.52L160 238.56a112 112 0 0 1-44.8 9.92 93.12 93.12 0 0 1-22.56-2.72 93.44 93.44 0 0 1-63.2-50.56 93.6 93.6 0 0 1 6.08-84.48c23.2-44.8 75.04-60.64 112-60.64A86.4 86.4 0 0 1 219.68 80a88.96 88.96 0 0 1 10.24 77.44l34.56 30.72a415.04 415.04 0 0 1 171.36-95.04 491.2 491.2 0 0 1 117.12-16 276.64 276.64 0 0 1 149.92 38.72A289.92 289.92 0 0 1 768 171.36a117.6 117.6 0 0 1 5.28-78.08 89.6 89.6 0 0 1 60.96-46.88 136 136 0 0 1 35.2-4.96 81.6 81.6 0 0 1 61.12 24.96C958.4 96 960 142.24 958.56 167.2a87.2 87.2 0 0 1-75.36 87.36 58.88 58.88 0 0 1-8.48 0 133.76 133.76 0 0 1-26.72-2.72L824.48 288a287.04 287.04 0 0 1 20.48 96c1.12 32 0 56.48 0 72l32 12.96a165.92 165.92 0 0 1 41.76-6.72 56.48 56.48 0 0 1 37.12 11.68 61.6 61.6 0 0 1 18.4 24.48 48 48 0 0 1 19.04 14.72 48 48 0 0 1 7.52 41.6 78.4 78.4 0 0 1-16.8 33.44 46.72 46.72 0 0 1-3.36 28.96 68.16 68.16 0 0 1-62.08 36.96 59.2 59.2 0 0 1-27.36-6.4 128 128 0 0 1-51.04-67.36 128 128 0 0 1-2.72-11.36l-8.16-2.56c-12.96 43.04-38.4 128-51.52 168.64-8 24.96-14.4 46.24-19.2 61.92 24.48 5.44 53.28 18.08 60.48 48 0 0.8 18.72 89.76-9.12 112-20.8 16-150.08 16-151.36 16-45.28 0-74.56-7.68-89.12-23.52a35.84 35.84 0 0 1-9.92-27.2c0-7.84 0-64.96-1.28-96h-7.04c-10.88 0-21.6 0-30.4 1.28a141.6 141.6 0 0 0-21.92 3.84v16c2.4 89.76 1.44 96-2.4 104.48s-13.76 30.08-187.2 32z" fill="#FFFFFF" p-id="29065"></path><path d="M265.44 224a395.68 395.68 0 0 1 176.96-104.32c104.96-25.92 188.96-16 245.92 20s74.08 70.08 74.08 70.08L800 181.6s-36.96-88 40.96-108.96 92.96 43.04 89.92 92.96-37.44 60-50.88 62.08a142.56 142.56 0 0 1-43.04-7.04l-43.04 64A247.2 247.2 0 0 1 817.76 384a596.32 596.32 0 0 1-1.76 89.28s57.28 24 59.36 24 46.72-16 62.72-2.72 11.36 25.28 11.36 25.28 32 0 24.64 28a44.16 44.16 0 0 1-26.72 33.28 18.56 18.56 0 0 1 8 24.64A42.24 42.24 0 0 1 903.04 624a101.12 101.12 0 0 1-37.28-50.72 128.96 128.96 0 0 1-4.64-24.64l-50.72-16s-41.28 138.08-59.36 194.72-28.64 93.28-28.64 93.28 62.08 0 69.28 30.72 6.72 78.72 0 83.36-80 10.72-134.72 10.72-72.64-12.64-72-21.28 0-120.64-4-122.72a265.92 265.92 0 0 0-64 0c-26.72 2.72-46.08 10.08-46.72 16s4 116.64 0 124-100 16-162.72 16-73.28 0-73.28-6.72-10.72-80 10.08-91.36a307.84 307.84 0 0 1 75.36-16s-45.92-125.28-68.64-188-37.92-110.72-37.92-110.72l-52 15.36s4.64 26.08-8 35.36-36 16-48 0a39.36 39.36 0 0 1-5.28-33.28 44.32 44.32 0 0 1-21.28-38.72c3.36-23.36 12.64-32 18.08-34.72a40.96 40.96 0 0 1 14.08-1.28s13.6-26.08 33.28-20.8a24.96 24.96 0 0 1 20.64 21.28l36-13.28a261.76 261.76 0 0 1-1.92-112 184.96 184.96 0 0 1 36.64-84l-70.72-74.08a87.2 87.2 0 0 1-66.08 14.72C64 210.56 32 176 59.68 123.36S176 65.92 197.76 96s0 69.28 0 69.28z" fill="#1D1D1B" p-id="29066"></path><path d="M133.12 501.92l-8.64-13.92s3.36-16 16-9.92 16 25.28 18.08 24.64 40-16 42.08-11.36 8.64 38.72 8.64 38.72-64 16-64 20 5.76 25.92-2.88 33.28-21.28 8-24 2.72-4.64-18.72 0-19.36 9.28-3.36 9.28-5.28-1.28-11.36-1.28-11.36-16 5.28-24-3.36-14.72-33.44-6.4-39.36a22.24 22.24 0 0 1 24.64-1.28c3.04 3.84 12.48-4.16 12.48-4.16z" fill="#DDC07C" p-id="29067"></path><path d="M194.4 502.56c1.28 2.08 4.64 11.36 1.28 13.28a36.32 36.32 0 0 1-12.64 2.08s-5.92-8.64-3.36-10.72a70.56 70.56 0 0 1 14.72-4.64z" fill="#1D1D1B" p-id="29068"></path><path d="M135.68 96c27.68-5.12 51.36 6.72 55.36 32s-29.28 64-52 73.28-53.28 7.36-65.92-12S56.32 110.56 135.68 96z" fill="#FAB900" p-id="29069"></path><path d="M192 179.36A603.84 603.84 0 0 1 256 240a80 80 0 0 1-12 20.64s-68-58.72-65.6-62.08 13.6-19.2 13.6-19.2z" fill="#DDC07C" p-id="29070"></path><path d="M846.4 92c22.72-7.36 61.28-3.36 70.08 49.28s-24 72.64-56.64 66.08a56.32 56.32 0 0 1-45.92-62.08c1.12-29.28 13.76-47.36 32.48-53.28z" fill="#FAB900" p-id="29071"></path><path d="M808.32 194.56c2.08 2.72 19.36 16 17.28 18.72l-36.64 48a350.08 350.08 0 0 1-16-35.36c0.8-1.92 35.36-31.36 35.36-31.36z" fill="#DDC07C" p-id="29072"></path><path d="M404.32 155.36c39.04-17.92 138.72-30.72 208-20S752 229.28 768 288a795.84 795.84 0 0 1 21.28 121.28s-57.92-34.72-60.64-32-3.36 12-1.28 13.28 60.64 26.72 62.08 32 0 41.28 0 41.28a564.64 564.64 0 0 0-57.92-25.28c-1.28 2.08-7.36 10.08 0 12a380.48 380.48 0 0 1 55.36 32c0 2.72-5.28 43.36-5.28 43.36s-44-24.64-45.92-24-4.64 9.28-1.92 10.08 46.08 26.72 45.28 30.72S720 732 717.76 732.64a338.88 338.88 0 0 1-34.72-14.72s-5.28 9.28-2.72 10.72 34.08 14.08 32 17.28-5.92 16-5.92 16a213.12 213.12 0 0 0-37.28-17.28c-1.92 2.08-5.28 6.72-1.92 9.28a384 384 0 0 1 36.8 17.44c0 2.72 0 13.28-1.92 13.28A372.64 372.64 0 0 0 661.76 768c-3.36 1.28-7.36 8-3.36 10.72s39.36 17.28 38.72 21.28a77.44 77.44 0 0 1-5.92 14.08 364.96 364.96 0 0 0-36-20.64c-1.92 0-4.64 10.08-2.72 11.36a241.12 241.12 0 0 1 32 20.64c0 2.08-42.72 4.64-43.36 10.08a33.76 33.76 0 0 0 0 14.72c1.28 2.72 48 0 77.28 4s42.08 3.36 43.36 10.72 4.64 52.64 0 54.08-91.36 0-113.28-1.28-33.92-5.28-33.92-9.28-1.28-124-4.64-128-52-9.92-91.36-8a226.88 226.88 0 0 0-71.36 16 140.16 140.16 0 0 0-20.64-16c-2.72 0-9.28 4.64-7.36 8s20 18.08 20 20a64 64 0 0 1-1.28 8 336 336 0 0 0-48-29.92c-2.72 2.08-5.92 10.08-2.72 12a487.68 487.68 0 0 1 50.08 37.28c0 3.36 1.28 19.36 1.28 19.36s-41.92-28-44.64-24-3.36 12.64-1.28 14.08 44.64 20 45.28 24.64a362.24 362.24 0 0 1 0 60c-2.72 3.36-169.92 16-172 9.28s-1.92-56 2.72-59.36 103.36-16 104.64-19.36 1.28-12-1.92-12.64-21.92 0-22.72-1.28-88.64-225.92-108-307.36S213.76 340.64 272 264s84.32-86.72 132.32-108.64z" fill="#8EC480" p-id="29073"></path><path d="M533.12 185.92c5.28 0 5.28 16 3.36 16a176 176 0 0 0-108.64 30.08c-53.92 37.28-60 50.72-64 49.28s-11.36-4-9.92-7.36a225.44 225.44 0 0 1 178.72-88.64zM702.4 238.56a80 80 0 0 1 34.72 19.36c0 3.36 0 9.28-3.36 7.36a286.24 286.24 0 0 1-32-16c-1.44-2.72-2.72-8 0.64-10.72zM713.12 283.36s44.64 18.08 48 27.36 5.28 11.36 1.28 10.72a299.52 299.52 0 0 1-50.72-25.28c-0.64-3.52-0.64-11.52 1.44-12.8zM721.12 333.28a308.64 308.64 0 0 1 49.28 27.36c1.28 4.64 6.08 11.36 0 8.64a466.56 466.56 0 0 1-51.36-24.64 49.6 49.6 0 0 1 2.08-11.36z" fill="#1D1D1B" p-id="29074"></path><path d="M819.04 489.28c2.72 1.28 57.28 24.64 59.36 25.28s32-13.92 48-9.28 12 13.28 10.72 17.28-5.92 12-2.72 14.72 3.36 4.64 5.28 4.64 8.64-9.92 14.08-6.72a18.56 18.56 0 0 1 1.92 24.8 83.84 83.84 0 0 1-25.28 19.36c-2.72 0-4 8-1.28 10.08s17.28 6.72 14.08 12.64a25.28 25.28 0 0 1-38.72 7.36c-19.36-16-25.28-58.72-25.92-61.92a38.24 38.24 0 0 0-8-14.72c-1.92 0-56-16-56-17.92s4.48-25.6 4.48-25.6z" fill="#DDC07C" p-id="29075"></path><path d="M521.12 625.28c2.56 0 58.72 6.72 99.36-13.28s65.28-52 70.72-50.72 12.64 9.28 11.36 12A160 160 0 0 1 628.32 640c-50.72 22.72-100.64 24.64-104.64 20.64s-9.28-34.08-2.56-35.36zM491.04 290.56c59.36-13.28 145.28 3.36 178.72 74.08s24.64 165.28-52.64 209.28-180.64 42.72-228.64-3.36-82.72-238.56 102.56-280z" fill="#1D1D1B" p-id="29076"></path><path d="M494.88 311.84c51.2-11.36 125.44 2.88 154.24 64s21.28 142.72-45.44 180.64-155.68 36.8-197.44-2.88-71.36-206.08 88.64-241.76z" fill="#E6E4DA" p-id="29077"></path><path d="M503.36 400a48 48 0 0 1 38.08 85.6c-23.36 13.28-54.56 12.96-69.12-0.96A52.32 52.32 0 0 1 503.36 400z" fill="#1D1D1B" p-id="29078"></path><path d="M515.68 416a25.44 25.44 0 0 1 25.28 7.36c6.72 8-16 26.72-18.72 25.28s-18.56-26.08-6.56-32.64z" fill="#E6E4DA" p-id="29079"></path></svg>