<?xml version="1.0" standalone="no"?><!DOCTYPE svg PUBLIC "-//W3C//DTD SVG 1.1//EN" "http://www.w3.org/Graphics/SVG/1.1/DTD/svg11.dtd"><svg t="1649644291489" class="icon" viewBox="0 0 1024 1024" version="1.1" xmlns="http://www.w3.org/2000/svg" p-id="28763" xmlns:xlink="http://www.w3.org/1999/xlink" width="200" height="200"><defs><style type="text/css">@font-face { font-family: "feedback-iconfont"; src: url("//at.alicdn.com/t/font_1031158_u69w8yhxdu.woff2?t=1630033759944") format("woff2"), url("//at.alicdn.com/t/font_1031158_u69w8yhxdu.woff?t=1630033759944") format("woff"), url("//at.alicdn.com/t/font_1031158_u69w8yhxdu.ttf?t=1630033759944") format("truetype"); }
</style></defs><path d="M472.16 963.36a50.56 50.56 0 0 1-37.12-12.8 51.84 51.84 0 0 1-11.68-49.92 48 48 0 0 1 28-32 100.96 100.96 0 0 1-11.68-23.2 64 64 0 0 1-29.6 7.2 59.04 59.04 0 0 1-58.72-48 75.04 75.04 0 0 1 9.76-55.04 68 68 0 0 1 22.88-20.8c5.76-28.48 17.76-80 33.28-101.44a113.76 113.76 0 0 1 42.56-36.96c-39.52-2.72-102.24-13.6-144-54.4a221.6 221.6 0 0 1-58.08-85.76A103.52 103.52 0 0 1 201.28 432a70.08 70.08 0 0 1-23.2-52 86.72 86.72 0 0 1 27.36-65.12 133.12 133.12 0 0 1 33.28-24.16 270.08 270.08 0 0 1 12.96-48q2.72-7.04 5.44-12.64L224 210.72a64 64 0 0 1-27.36 6.08 79.04 79.04 0 0 1-28-5.44 68.48 68.48 0 0 1-43.36-52.8 73.44 73.44 0 0 1 22.24-68.32 87.36 87.36 0 0 1 58.08-21.28 85.12 85.12 0 0 1 48 14.08 50.56 50.56 0 0 1 21.6 39.68l48 21.76a263.36 263.36 0 0 1 152.8-59.68h17.76A320 320 0 0 1 672 137.28a145.12 145.12 0 0 1 23.52 24.32l54.24-36.32A68.64 68.64 0 0 1 800 64a81.44 81.44 0 0 1 25.44-4.16 73.28 73.28 0 0 1 57.92 28.32 74.72 74.72 0 0 1-58.72 121.28 48 48 0 0 1-9.92-0.96l-6.08-0.48L752 253.76a94.08 94.08 0 0 1 5.28 16.96 80 80 0 0 1 40 21.6 74.72 74.72 0 0 1 19.84 56.64 94.56 94.56 0 0 1-70.72 86.24 183.52 183.52 0 0 1-80 101.28 354.24 354.24 0 0 1-108.32 44.64l1.44 16a91.04 91.04 0 0 1 39.68 37.6c7.84 14.56 13.6 24.48 17.76 31.04l8.32-6.72 9.28-7.36a71.2 71.2 0 0 1-2.72-42.56 60.16 60.16 0 0 1 34.56-38.72 81.12 81.12 0 0 1 34.4-8.16 59.68 59.68 0 0 1 51.2 25.28 67.52 67.52 0 0 1 7.2 61.44 72.16 72.16 0 0 1-68 46.08c-52 49.92-61.92 51.36-69.28 52.48h-6.08a68 68 0 0 1-32-9.6 374.08 374.08 0 0 1 8 84.96 107.84 107.84 0 0 1-14.72 41.12A48 48 0 0 1 608 892.64a46.24 46.24 0 0 1-5.76 42.88 65.28 65.28 0 0 1-52.48 26.08 58.24 58.24 0 0 1-10.08-0.8 81.28 81.28 0 0 1-23.2-7.52 101.6 101.6 0 0 1-44.32 10.08z" fill="#FFFFFF" p-id="28764"></path><path d="M489.44 564s-101.28 5.28-155.36-48-55.36-92.64-55.36-92.64-42.72 1.28-60-13.28-20.64-52 5.28-76.64 38.72-22.72 38.72-22.72a302.24 302.24 0 0 1 14.08-59.36 143.04 143.04 0 0 1 17.28-33.28l-72.64-40a36.8 36.8 0 0 1-44 7.36 46.4 46.4 0 0 1-12-75.36 62.88 62.88 0 0 1 72.64-5.28c16 11.36 8 34.08 8 34.08L328.16 176a230.56 230.56 0 0 1 149.28-64A296.64 296.64 0 0 1 656 160a232.8 232.8 0 0 1 33.28 39.36l88.64-59.36a40.8 40.8 0 0 1 32-48 48 48 0 1 1 12 92 56.8 56.8 0 0 1-16-6.72l-85.28 70.08a149.6 149.6 0 0 1 12 30.08c1.28 9.28 2.08 19.36 2.08 19.36s59.36-3.36 57.28 52.64-65.92 64-65.92 64a150.88 150.88 0 0 1-71.36 100.64 310.08 310.08 0 0 1-123.36 45.28l5.28 58.08a69.6 69.6 0 0 1 41.28 32c13.28 24.64 30.08 53.28 36.64 53.28s32-21.92 41.28-29.28a50.88 50.88 0 0 0 14.08-14.72s-29.28-43.36 10.72-61.92 63.52 11.2 52.16 43.2-53.28 28-53.28 28S626.88 720 617.44 720a37.28 37.28 0 0 1-27.36-11.36 581.76 581.76 0 0 0-38.72-65.92c-7.36-5.92-12.64-4-13.28-1.92s30.08 147.36 26.08 178.72a91.04 91.04 0 0 1-28 52l1.28 16s38.08-5.28 45.28 14.72-19.36 35.36-37.92 32-21.92-9.28-21.92-12-2.72-45.28-2.72-45.28l-16-2.72s7.36 51.36 0 56-39.36 10.72-48 1.28a23.68 23.68 0 0 1 12-38.72c20.64-4.64 24.64-1.92 24.64-1.92v-20.32a71.2 71.2 0 0 1-32-62.56c0-44.64 26.72-179.36 26.72-179.36s-8-8.64-25.28 12.64a238.08 238.08 0 0 0-34.72 89.28c-2.72 19.36-3.36 26.08-3.36 26.08a39.04 39.04 0 0 1 21.28 38.08 35.36 35.36 0 0 1-53.28 26.08c-20-12.64-17.28-43.36-8.64-56a46.4 46.4 0 0 1 24-16s14.72-81.28 32-104.64a79.04 79.04 0 0 1 40-32l10.08-2.72z" fill="#1D1D1B" p-id="28765"></path><path d="M190.08 114.56a27.2 27.2 0 0 1 38.08 20.64 30.08 30.08 0 1 1-37.92-20.64zM816 105.28a27.2 27.2 0 0 1 38.08 20.64A30.08 30.08 0 1 1 816 105.28zM259.52 336c3.52-1.12 2.08 22.72 5.28 39.36s6.08 26.72 2.72 26.72-27.36 2.72-32-19.36a39.04 39.04 0 0 1 24-46.72zM738.08 320a24.8 24.8 0 0 1 30.72 22.08c4.64 26.08-36 46.72-37.92 44s6.08-22.72 6.72-35.36a137.44 137.44 0 0 1 0.48-30.72z" fill="#C8DB89" p-id="28766"></path><path d="M246.88 157.28c3.36 0 65.92 28 64 33.28s-8 14.08-9.92 12.64-58.08-27.2-59.52-30.56 5.44-15.36 5.44-15.36zM704 208c2.72-1.28 70.72-55.36 74.72-51.36s11.36 9.92 8 13.28-71.36 61.28-73.28 58.08S704 208 704 208z" fill="#FAB900" p-id="28767"></path><path d="M432 141.28c48-17.28 136-10.72 206.08 36s64 184 62.72 199.36a145.12 145.12 0 0 1-9.92 33.28 240 240 0 0 0-25.92-35.36c-3.36 0-12 6.08-8.64 9.28a219.84 219.84 0 0 1 29.28 44c-1.28 4-12.64 22.72-12.64 22.72a347.36 347.36 0 0 0-29.28-42.72c-2.72 0-11.36 6.72-9.92 8.64a320 320 0 0 1 30.08 50.08c-1.92 3.36-16 17.28-17.28 14.72A325.44 325.44 0 0 0 624 444c-1.92 0-9.28 3.36-8 6.72s24.64 39.36 22.08 42.72a120 120 0 0 1-16 12s-13.28-32-16-32-14.72 6.08-13.28 8 17.28 28.64 14.72 32a48 48 0 0 1-9.28 6.08L579.52 496l-9.28 6.08s14.72 22.72 12 23.36l-13.28 4s-8-18.08-10.72-18.72-13.28 0-11.36 2.08a147.52 147.52 0 0 1 8.64 19.36 307.36 307.36 0 0 1-124.64 0 172.32 172.32 0 0 1-133.28-140.64 253.76 253.76 0 0 1 29.28-181.28c23.2-38.24 64.64-54.24 105.12-68.96z" fill="#8EC480" p-id="28768"></path><path d="M361.44 193.92c3.84-2.72 10.08 2.72 8 6.08a99.36 99.36 0 0 0-29.92 45.28c-8 28.64-4.64 35.36-8 36s-12 0-12.64-1.28a176 176 0 0 1 12-46.08 121.92 121.92 0 0 1 30.56-40zM490.88 165.28a106.24 106.24 0 0 1 128 119.36C608 384 464.8 422.56 416.8 356s-41.28-160.64 74.08-190.72z" fill="#1D1D1B" p-id="28769"></path><path d="M494.24 193.76a79.04 79.04 0 0 1 95.2 88.64c-8 74.4-114.4 102.56-150.08 52.96s-30.88-119.36 54.88-141.6z" fill="#E6E4DA" p-id="28770"></path><path d="M499.36 235.52a38.88 38.88 0 0 1 46.88 43.68c-3.84 36.64-56.48 50.56-74.08 26.08s-15.2-58.72 27.2-69.76zM411.52 424a92.64 92.64 0 0 0 82.56 40 121.92 121.92 0 0 0 84-34.72c5.28 0 16 14.72 14.72 21.28s-35.36 44-100.64 40-96-45.92-96-49.28 9.92-17.28 15.36-17.28z" fill="#1D1D1B" p-id="28771"></path><path d="M512 592c2.72 0 32 224 25.28 237.28s-41.28 22.72-48 0S504.8 592 512 592z" fill="#8EC480" p-id="28772"></path><path d="M407.52 769.92c11.2-2.4 22.08 10.08 22.08 22.08a20.16 20.16 0 0 1-27.36 16c-10.08-6.08-14.08-34.08 5.28-38.08zM696.8 608A23.36 23.36 0 0 1 720 628.64c0 12-24 24-32 20s-11.2-36.64 8.8-40.64z" fill="#C8DB89" p-id="28773"></path></svg>