<?xml version="1.0" standalone="no"?><!DOCTYPE svg PUBLIC "-//W3C//DTD SVG 1.1//EN" "http://www.w3.org/Graphics/SVG/1.1/DTD/svg11.dtd"><svg t="1649644277296" class="icon" viewBox="0 0 1024 1024" version="1.1" xmlns="http://www.w3.org/2000/svg" p-id="28383" xmlns:xlink="http://www.w3.org/1999/xlink" width="200" height="200"><defs><style type="text/css">@font-face { font-family: "feedback-iconfont"; src: url("//at.alicdn.com/t/font_1031158_u69w8yhxdu.woff2?t=1630033759944") format("woff2"), url("//at.alicdn.com/t/font_1031158_u69w8yhxdu.woff?t=1630033759944") format("woff"), url("//at.alicdn.com/t/font_1031158_u69w8yhxdu.ttf?t=1630033759944") format("truetype"); }
</style></defs><path d="M512 0C301.366292 0 130.008278 163.570592 130.008278 364.628462v382.000403C130.008278 804.06653 176.741493 850.799744 234.187839 850.799744s104.179561-46.733215 104.17956-104.170879v-57.125125a390.495379 390.495379 0 0 0 69.45304 26.027527v135.164298C407.820439 908.198341 454.553654 954.979305 512 954.979305s104.179561-46.780963 104.179561-104.28374v-135.164298a390.495379 390.495379 0 0 0 69.45304-26.027527v230.215124c0 57.498436 46.733215 104.279399 104.17956 104.2794s104.179561-46.780963 104.179561-104.2794V364.628462c0-201.05787-171.358014-364.628462-381.991722-364.628462z m156.599243 478.236273c-24.82078 63.931524-86.664372 105.203993-153.664852 105.203992-14.090286 0-28.401953-1.823142-42.644167-5.638718a26.040549 26.040549 0 1 1 13.478231-50.310046c44.519399 11.906856 90.028504-4.675058 117.210687-38.481326-117.610042 13.295916-253.759705 0.078135-334.064783-39.531802V607.714103a34.72652 34.72652 0 0 1-69.453041 0V364.628462c0-172.608169 139.930513-312.538682 312.538682-312.538682s312.538682 139.930513 312.538682 312.538682c0 56.226577-66.483923 94.022053-155.939439 113.607811z" fill="#C1DB66" p-id="28384"></path><path d="M512 52.08978c-172.608169 0-312.538682 139.930513-312.538682 312.538682v243.085641a34.72652 34.72652 0 0 0 69.453041 0v-158.23573c80.305078 39.609937 216.454741 52.827719 334.064783 39.531802a112.118911 112.118911 0 0 0 21.018226-41.328899 26.036209 26.036209 0 0 1 31.891968-18.413738 26.040549 26.040549 0 0 1 18.418078 31.891968 165.445824 165.445824 0 0 1-5.708171 17.076767C758.054759 458.650515 824.538682 420.855039 824.538682 364.628462c0-172.608169-139.930513-312.538682-312.538682-312.538682z m0 347.265202c-47.944302 0-86.8163-38.88068-86.8163-86.8163 0-9.141756 1.805779-17.78866 4.427631-26.070935C440.741181 321.576258 473.253885 347.265202 512 347.265202s71.258819-25.688943 82.388669-60.797455c2.621852 8.282275 4.427631 16.929179 4.427631 26.070935 0 47.93562-38.871999 86.8163-86.8163 86.8163zM454.492883 247.951695C469.837664 234.286809 489.835798 225.722381 512 225.722381s42.162336 8.564428 57.507117 22.229314A17.20265 17.20265 0 0 0 564.08978 260.448901c0 28.723173-23.366607 52.08978-52.08978 52.089781s-52.08978-23.366607-52.08978-52.089781c0-4.935507-2.100954-9.332752-5.417337-12.497206zM650.906081 312.538682a17.36326 17.36326 0 0 1-17.36326-17.363261c0-67.022184-54.520637-121.542821-121.542821-121.54282S390.457179 228.153238 390.457179 295.175421a17.36326 17.36326 0 0 1-34.72652 0c0-86.165178 70.104163-156.269341 156.269341-156.26934s156.269341 70.104163 156.269341 156.26934a17.36326 17.36326 0 0 1-17.36326 17.363261z" fill="#CCEA60" p-id="28385"></path><path d="M512 138.906081c-86.165178 0-156.269341 70.104163-156.269341 156.26934a17.36326 17.36326 0 0 0 34.72652 0c0-67.022184 54.520637-121.542821 121.542821-121.54282s121.542821 54.520637 121.542821 121.54282a17.36326 17.36326 0 0 0 34.72652 0c0-86.165178-70.104163-156.269341-156.269341-156.26934z" fill="#2F4556" p-id="28386"></path><path d="M512 312.538682c28.723173 0 52.08978-23.366607 52.08978-52.089781 0-4.935507 2.100954-9.332752 5.417337-12.497206C554.162336 234.286809 534.164202 225.722381 512 225.722381s-42.162336 8.564428-57.507117 22.229314A17.20265 17.20265 0 0 1 459.91022 260.448901c0 28.723173 23.366607 52.08978 52.08978 52.089781z" fill="#4F676D" p-id="28387"></path><path d="M512 347.265202c-38.746115 0-71.258819-25.688943-82.388669-60.797455C426.989479 294.750022 425.1837 303.396925 425.1837 312.538682c0 47.93562 38.871999 86.8163 86.8163 86.8163s86.8163-38.88068 86.8163-86.8163c0-9.141756-1.805779-17.78866-4.427631-26.070935C583.258819 321.576258 550.746115 347.265202 512 347.265202z" fill="#4F676D" p-id="28388"></path><path d="M655.889336 429.263198a26.036209 26.036209 0 0 0-31.891968 18.418078 112.118911 112.118911 0 0 1-21.018226 41.328899c-27.182184 33.806267-72.691288 50.388181-117.210687 38.485666a26.040549 26.040549 0 1 0-13.482572 50.310047c14.246555 3.811236 28.558222 5.634378 42.648508 5.634377 67.00048 0 128.844071-41.272469 153.664852-105.203992a165.445824 165.445824 0 0 0 5.708171-17.076767 26.040549 26.040549 0 0 0-18.418078-31.891968z" fill="#FF6B97" p-id="28389"></path></svg>