<?xml version="1.0" standalone="no"?><!DOCTYPE svg PUBLIC "-//W3C//DTD SVG 1.1//EN" "http://www.w3.org/Graphics/SVG/1.1/DTD/svg11.dtd"><svg t="1649644308089" class="icon" viewBox="0 0 1024 1024" version="1.1" xmlns="http://www.w3.org/2000/svg" p-id="29224" xmlns:xlink="http://www.w3.org/1999/xlink" width="200" height="200"><defs><style type="text/css">@font-face { font-family: "feedback-iconfont"; src: url("//at.alicdn.com/t/font_1031158_u69w8yhxdu.woff2?t=1630033759944") format("woff2"), url("//at.alicdn.com/t/font_1031158_u69w8yhxdu.woff?t=1630033759944") format("woff"), url("//at.alicdn.com/t/font_1031158_u69w8yhxdu.ttf?t=1630033759944") format("truetype"); }
</style></defs><path d="M537.919154 1023.99968a518.063082 518.063082 0 0 1-158.874812-24.79919c-63.99791-20.479331-148.635146-54.558218-136.955528-115.676223 2.239927-11.839613 30.399007-103.19663 46.878469-156.794879a459.664989 459.664989 0 0 1-167.514529-81.277346C48.015152 583.854054 8.976427 520.816112 16.016197 476.977544c6.239796-39.678704 47.998433-84.637236 107.996473-114.716254a536.622476 536.622476 0 0 1 134.715601-39.038725 202.553385 202.553385 0 0 1 71.35767-115.196238 411.026577 411.026577 0 0 1 130.235747-72.957618h0.959968c1.439953-26.239143 11.519624-33.758898 15.999478-36.958793a54.718213 54.718213 0 0 1-12.799582-27.679096 62.077973 62.077973 0 0 1 13.919545-49.278391A63.99791 63.99791 0 0 1 527.999478 0.033119a94.236923 94.236923 0 0 1 22.719258 2.879906 63.99791 63.99791 0 0 1 47.998432 43.678573 65.437863 65.437863 0 0 1-5.919807 52.318292 27.199112 27.199112 0 0 1 7.67975 15.999477 122.076013 122.076013 0 0 1 0 20.319337 227.192581 227.192581 0 0 1 119.676091 63.99791A315.029712 315.029712 0 0 1 789.590935 320.022669c37.438777 6.399791 117.59616 24.479201 167.51453 67.197806A137.115522 137.115522 0 0 1 992.944294 560.014832a296.950303 296.950303 0 0 1-125.915888 123.035982 767.974921 767.974921 0 0 1-79.997387 36.798798c66.077842 167.034545 63.037941 180.634101 61.277998 188.793835-7.03977 31.998955-67.197806 78.717429-151.995036 95.996865a763.015083 763.015083 0 0 1-158.394827 19.359368z" fill="#FFFFFF" p-id="29225"></path><path d="M282.407498 346.741797a170.394436 170.394436 0 0 1 63.99791-117.27617 377.427675 377.427675 0 0 1 122.555997-68.477764c5.919807-1.919937 19.039378-4.639848 19.039379-4.639849s-3.35989-31.038986 3.999869-35.51884a92.316985 92.316985 0 0 1 27.679096-6.559786l-1.279958-20.479331s-24.319206-5.919807-27.679096-27.039117 13.119572-47.998433 52.798276-37.598772a37.598772 37.598772 0 0 1 26.399138 55.358192 40.478678 40.478678 0 0 1-18.3994 9.279697l-1.279958 21.75929s23.039248 0 23.679227 3.35989 0 38.87873 0 38.87873 77.757461 5.279828 127.99582 58.718083a286.230653 286.230653 0 0 1 63.99791 118.716123v9.279697s113.436296 12.479592 173.274342 63.99791a110.876379 110.876379 0 0 1 29.599033 138.39548 270.07118 270.07118 0 0 1-114.716254 111.996343A494.063866 494.063866 0 0 1 751.992163 702.730171s73.597597 184.473976 70.237706 199.67348-46.078495 58.078103-131.195716 75.837523-183.194018 33.598903-303.990072-4.639848-121.27604-71.197675-118.716124-84.957226 54.718213-181.27408 54.718214-181.27408-111.996343-21.759289-184.473976-82.397309-100.796708-114.716254-95.996865-143.995298 40.158689-67.837785 93.596943-94.876902 146.235225-39.358715 146.235225-39.358714z" fill="#1D1D1B" p-id="29226"></path><path d="M521.119702 44.511666a26.719127 26.719127 0 0 1 34.558872 24.319206c0 20.799321-37.598772 17.279436-43.038595 7.839744a23.999216 23.999216 0 0 1 8.479723-32.15895z" fill="#CBE7F5" p-id="29227"></path><path d="M510.240057 131.548824c4.959838 0 45.9185-2.399922 47.038464 2.399922a54.238229 54.238229 0 0 1 0 19.839352c-1.439953 0.959969-50.398354 0.959969-50.398354 0.959969s-1.119963-23.679227 3.35989-23.199243z" fill="#F2910D" p-id="29228"></path><path d="M316.966369 359.381384c-1.759943-1.919937-3.039901-47.998433 40.478678-95.996865s94.876902-79.037419 161.114739-83.037288A226.872591 226.872591 0 0 1 687.994253 248.665 216.152941 216.152941 0 0 1 733.592764 352.021624c1.439953 11.839613 3.039901 13.919545 0 15.999478s-38.078756 16.799451-38.078757 16.799451-70.237706-47.998433-72.157643-47.038464-9.919676 10.39966-7.839744 11.359629 69.277738 39.518709 65.757852 41.598642a118.076144 118.076144 0 0 1-25.759159 6.879775c-1.919937 0-47.998433-31.998955-51.838307-31.998955s-12.319598 5.919807-9.919676 8.479723 47.998433 24.639195 42.078626 29.119049-114.716254 13.279566-197.753542-3.0399-110.876379-29.279044-121.116045-40.798668z" fill="#E7413E" p-id="29229"></path><path d="M368.004702 343.221912a103.51662 103.51662 0 0 1 20.799321-69.757722c24.639195-36.638804 47.998433-48.958401 51.358323-47.998433S448.00209 240.025282 448.00209 240.025282a99.036766 99.036766 0 0 0-47.998433 44.958531c-16.799451 33.118918-13.279566 61.757983-17.75942 63.997911s-11.999608-1.919937-14.239535-5.759812zM642.235747 314.902836c3.839875-3.839875 77.597466 40.958662 76.157513 45.918501s-5.439822 7.839744-7.839744 7.35976-73.117612-38.558741-73.597597-40.478679a25.919154 25.919154 0 0 1 5.279828-12.799582zM647.515575 295.703463c-0.959969-1.439953 1.919937-9.439692 5.919806-8.479723A425.586102 425.586102 0 0 1 719.993208 328.342398c0 4.479854 0 8.959707-3.519885 8.959707a668.298176 668.298176 0 0 1-68.957748-41.598642zM660.475151 258.584676c2.079932 0 33.598903 12.799582 34.078887 17.75942s1.919937 8.479723 0 8.479723a205.273297 205.273297 0 0 1-35.038855-15.999478c-1.599948-1.759943-3.519885-10.239666 0.959968-10.239665z" fill="#1D1D1B" p-id="29230"></path><path d="M317.926338 393.140282a504.623521 504.623521 0 0 0 151.195062 40.958662 582.860966 582.860966 0 0 0 206.073271-9.919676 407.826682 407.826682 0 0 0 63.99791-21.279305c1.439953 0.959969 3.519885 57.27813-5.439823 69.757722s-75.677529 40.478678-191.99373 39.518709-191.99373-31.998955-202.71338-39.038725a40.478678 40.478678 0 0 1-16.799451-17.279436c-1.439953-4.479854-7.839744-61.277999-4.319859-62.717951z" fill="#FAB900" p-id="29231"></path><path d="M374.244499 434.098944A28.79906 28.79906 0 0 1 416.003135 455.378249c5.439822 25.279174-34.558871 31.198981-48.958401 21.759289a24.639195 24.639195 0 0 1 7.199765-43.038594z" fill="#1D1D1B" p-id="29232"></path><path d="M385.604128 446.898526c6.879775 0 20.319336 10.39966 12.799582 18.239404a17.43943 17.43943 0 0 1-24.639196-1.119963 12.319598 12.319598 0 0 1 11.839614-17.119441z" fill="#CBE7F5" p-id="29233"></path><path d="M523.519624 450.418411c10.71965-4.319859 41.598642 3.519885 43.518579 27.199112s-31.998955 31.998955-52.958271 21.279305-15.199504-38.558741 9.439692-48.478417z" fill="#1D1D1B" p-id="29234"></path><path d="M531.359368 464.017967c6.399791-1.599948 17.75942 5.919807 17.279436 13.919545s-11.359629 13.919545-23.199243 9.439692-8.319728-20.159342 5.919807-23.359237z" fill="#CBE7F5" p-id="29235"></path><path d="M656.955266 436.018881c10.71965-6.239796 46.398485-11.359629 55.358193 6.399791s3.999869 37.118788-20.319337 39.038725-34.558871-4.479854-39.998694-12.799582a22.239274 22.239274 0 0 1 4.959838-32.638934z" fill="#1D1D1B" p-id="29236"></path><path d="M668.314895 444.978589c6.879775-5.599817 31.998955-0.959969 31.998955 7.359759s-3.999869 18.719389-24.639195 13.279567-12.319598-16.639457-7.35976-20.639326z" fill="#CBE7F5" p-id="29237"></path><path d="M775.671389 381.140673a212.793051 212.793051 0 0 1 106.236531 24.639196c55.838177 27.679096 72.157644 51.358323 72.157644 70.71769A92.47698 92.47698 0 0 1 930.866321 528.015877a463.984848 463.984848 0 0 1-45.9185 30.718997 70.237706 70.237706 0 0 1-21.279305 7.839744s-68.157774-31.198981-71.677659-31.998955-11.839613 7.839744-7.839744 11.359629 65.597858 26.559133 62.237967 30.079018-61.757983 21.279305-159.994775 29.599033-229.912492 14.39953-359.828249-8.959707-215.832952-67.67779-227.672565-79.037419-37.118788-27.199112 3.519885-66.717822 108.796447-63.99791 131.515705-72.157643a259.351531 259.351531 0 0 1 46.398485-10.879645s0 68.157774 10.879644 87.037158 28.79906 41.918631 83.997257 58.718082a630.859398 630.859398 0 0 0 188.313851 25.759159A557.901781 557.901781 0 0 0 718.233265 512.016399a99.196761 99.196761 0 0 0 51.838307-45.9185 101.596682 101.596682 0 0 0 6.879776-44.958532 254.071703 254.071703 0 0 1-1.279959-39.998694z" fill="#E7413E" p-id="29238"></path><path d="M801.750538 500.816765a799.973876 799.973876 0 0 1 87.037158 35.038856c0 1.919937-2.399922 6.879775-6.879776 5.919807s-88.477111-29.759028-88.957095-31.038987 7.03977-9.439692 8.799713-9.919676zM815.990073 483.057345s8.479723-10.39966 10.879645-10.39966 94.396917 40.478678 92.47698 43.998563-1.439953 5.439822-4.959838 5.439822-96.796839-37.118788-98.396787-39.038725zM825.589759 435.058913a950.848949 950.848949 0 0 1 103.356625 47.038464c0 1.439953 0 5.439822-1.919937 5.919806s-104.316593-35.51884-106.716515-38.558741 3.199896-13.439561 5.279827-14.399529zM843.829164 416.019534c-2.239927-1.439953 1.439953-10.39966 5.439822-9.439691a327.6693 327.6693 0 0 1 51.358323 20.319336c0 3.039901 0 7.839744-2.399922 7.35976s-51.838307-16.959446-54.398223-18.239405zM149.771829 502.256718a30.718997 30.718997 0 0 1 0-38.558741 142.555345 142.555345 0 0 1 62.237968-45.9185c3.999869 1.439953 8.479723 7.35976 4.959838 8.959707s-44.478547 23.199242-51.838308 40.478678 5.439822 24.639195 5.439823 28.639065-16.799451 9.439692-20.799321 6.399791z" fill="#1D1D1B" p-id="29239"></path><path d="M107.373214 553.295051c3.35989-3.67988 41.598642 26.719127 111.996342 45.438517s129.115784 35.998824 281.910794 41.278652 215.992946-8.959707 276.790961-20.799321 116.156207-35.038856 119.196108-31.998955-27.199112 28.15908-73.117613 49.438385a637.899169 637.899169 0 0 1-271.991117 63.99791 826.053024 826.053024 0 0 1-319.989551-52.478286c-75.517534-29.759028-130.875726-88.157121-124.795924-94.876902z" fill="#A42116" p-id="29240"></path><path d="M360.964932 712.329858a115.036243 115.036243 0 0 1 44.958532 7.839744c-0.959969 3.039901-29.599033 131.035721-26.719127 132.475674s6.879775 4.959838 8.479723 3.039901 29.599033-132.475674 33.598902-132.475674 27.199112 4.959838 54.398224 7.359759l57.758114 4.959838s4.479854 77.117482 1.919937 125.595899-1.439953 61.757983 0 62.237967a367.987983 367.987983 0 0 0 13.919546-101.756677c0-50.398354-3.039901-83.997257 0-85.597204s13.919545 0.959969 36.638803-3.039901 39.998694-5.439822 39.998694-5.439822 21.759289 63.99791 30.079018 87.997126 18.239404 63.99791 18.239404 63.99791h5.439822a719.976488 719.976488 0 0 0-20.319336-88.477111c-14.879514-50.878339-21.279305-63.99791-19.839352-65.277868a424.786128 424.786128 0 0 0 45.438516-7.35976c22.719258-5.439822 36.158819-7.839744 36.158819-7.839744S787.031019 890.404043 787.511003 896.00386s-33.118918 31.998955-67.517795 44.318553a477.424409 477.424409 0 0 1-66.717822 17.279435s-7.839744-51.838307-16.799451-90.397048-11.359629-47.998433-14.879514-48.958401a11.679619 11.679619 0 0 0-7.839744 1.919937s12.799582 55.358192 19.199373 92.956965a287.990595 287.990595 0 0 1 5.919807 47.998432 759.655193 759.655193 0 0 1-108.796447 9.439692 387.827335 387.827335 0 0 1-87.037158-6.879775c0.959969-1.919937 23.679227-145.275256 21.759289-146.875204s-12.799582-3.519885-13.279566-0.959968-39.998694 137.915496-42.078626 138.39548a543.982236 543.982236 0 0 1-69.757722-24.159211c-25.279174-10.879645-38.078756-17.75942-39.038725-23.199242s53.27826-191.513746 60.31803-194.553647z" fill="#CBE7F5" p-id="29241"></path><path d="M418.243062 955.681911c-7.839744-1.599948 26.719127-88.477111 29.599033-88.477111s1.919937 2.399922 1.919937 4.959838a808.133609 808.133609 0 0 1-18.719388 88.957095c-2.879906 0-10.39966-4.959838-12.799582-5.439822z" fill="#CBE7F5" p-id="29242"></path></svg>