<?xml version="1.0" standalone="no"?><!DOCTYPE svg PUBLIC "-//W3C//DTD SVG 1.1//EN" "http://www.w3.org/Graphics/SVG/1.1/DTD/svg11.dtd"><svg t="1649682388666" class="icon" viewBox="0 0 1024 1024" version="1.1" xmlns="http://www.w3.org/2000/svg" p-id="2669" xmlns:xlink="http://www.w3.org/1999/xlink" width="200" height="200"><defs><style type="text/css">@font-face { font-family: "feedback-iconfont"; src: url("//at.alicdn.com/t/font_1031158_u69w8yhxdu.woff2?t=1630033759944") format("woff2"), url("//at.alicdn.com/t/font_1031158_u69w8yhxdu.woff?t=1630033759944") format("woff"), url("//at.alicdn.com/t/font_1031158_u69w8yhxdu.ttf?t=1630033759944") format("truetype"); }
</style></defs><path d="M387.5 241.7l-74.9-72.6s-11.7-14.4 8.1-30.7c19.9-16.2 20.9-9 27.6-4.5 6.7 4.5 111.4 107.8 111.4 107.8h-72.2z m248.8 2.7l74.9-72.6s11.7-14.4-8.1-30.7c-19.8-16.2-20.9-9-27.6-4.5-6.7 4.5-111.4 107.8-111.4 107.8h72.2z" fill="#FB759C" p-id="2670"></path><path d="M917.4 378.8c-2.7-113.7-101.5-135.3-101.5-135.3s-506.2-4.1-611.8 0c-105.6 29.8-97.5 135.3-97.5 135.3s1.4 226-0.1 340.4c11.4 114.4 99.6 132.6 99.6 132.6s35.2 0.7 60.9 0.7c2.7 7.4 4.7 43.3 44.7 43.3 39.9 0 44.7-43.3 44.7-43.3s292.4-1.4 316.7-1.4c1.4 12.2 7.4 45.3 47.4 44.7 39.9-0.7 42.6-47.4 42.6-47.4s13.5-1.4 54.1 0c94.7-17.6 100.2-128.6 100.2-128.6s-1.3-227.3 0-341z m-81.5 361.9c0 17.9-14.2 32.5-31.7 32.5H227.9c-17.5 0-31.7-14.5-31.7-32.5V359c0-17.9 14.2-32.5 31.7-32.5h576.3c17.5 0 31.7 14.5 31.7 32.5v381.7z" fill="#FB759C" p-id="2671"></path><path d="M256.9 466.8l169.2-32.5 12.8 63.6-167.8 32.5z m526.5 0l-169.2-32.5-12.9 63.6 167.9 32.5zM438.9 624.5s37.2 67 78.5-21.7c39.9 86.6 83.9 23 83.9 23l25 16.3s-46.7 75.1-108.3 18.3c-52.1 56.8-106.9-18.1-106.9-18.1l27.8-17.8z" fill="#FB759C" p-id="2672"></path></svg>