<?xml version="1.0" standalone="no"?><!DOCTYPE svg PUBLIC "-//W3C//DTD SVG 1.1//EN" "http://www.w3.org/Graphics/SVG/1.1/DTD/svg11.dtd"><svg t="1649644179941" class="icon" viewBox="0 0 1560 1024" version="1.1" xmlns="http://www.w3.org/2000/svg" p-id="22433" xmlns:xlink="http://www.w3.org/1999/xlink" width="304.6875" height="200"><defs><style type="text/css">@font-face { font-family: "feedback-iconfont"; src: url("//at.alicdn.com/t/font_1031158_u69w8yhxdu.woff2?t=1630033759944") format("woff2"), url("//at.alicdn.com/t/font_1031158_u69w8yhxdu.woff?t=1630033759944") format("woff"), url("//at.alicdn.com/t/font_1031158_u69w8yhxdu.ttf?t=1630033759944") format("truetype"); }
</style></defs><path d="M141.409524 0h1275.123809C1496.990476 0 1560.380952 63.390476 1560.380952 138.971429v746.057142c0 78.019048-63.390476 138.971429-141.409523 138.971429H141.409524C63.390476 1024 0 960.609524 0 885.028571V138.971429C0 63.390476 63.390476 0 141.409524 0z" fill="#DE2910" p-id="22434"></path><path d="M1560.380952 129.219048v755.809523V138.971429v-9.752381z" fill="#57A863" p-id="22435"></path><path d="M275.504762 126.780952l29.257143 82.895238h87.771428l-73.142857 53.638096 29.257143 82.895238-73.142857-51.2-70.704762 51.2 26.819048-82.895238-70.704762-53.638096h87.771428zM472.990476 46.32381l4.876191 31.695238 31.695238 7.314285-29.257143 12.190477 2.438095 34.133333-21.942857-24.380953-29.257143 14.628572 14.628572-29.257143-21.942858-24.380952 31.695239 7.314285zM543.695238 151.161905l17.066667 26.819047 31.695238-4.87619-21.942857 24.380952 17.066666 26.819048-29.257142-12.190476-21.942858 24.380952 2.438096-34.133333-29.257143-12.190476 31.695238-7.314286zM533.942857 268.190476l9.752381 31.695238h31.695238l-26.819047 19.504762 9.752381 31.695238-24.380953-19.504762-26.819047 19.504762 9.75238-31.695238-24.380952-21.942857 31.695238 2.438095zM470.552381 360.838095l-4.876191 31.695238 31.695239 12.190477-31.695239 9.75238-2.438095 34.133334-17.066666-29.257143-31.695239 9.752381 21.942858-26.819048-17.066667-26.819047 29.257143 9.752381z" fill="#FFDE00" p-id="22436"></path></svg>