<?xml version="1.0" standalone="no"?><!DOCTYPE svg PUBLIC "-//W3C//DTD SVG 1.1//EN" "http://www.w3.org/Graphics/SVG/1.1/DTD/svg11.dtd"><svg t="1649681857884" class="icon" viewBox="0 0 1024 1024" version="1.1" xmlns="http://www.w3.org/2000/svg" p-id="158447" xmlns:xlink="http://www.w3.org/1999/xlink" width="200" height="200"><defs><style type="text/css">@font-face { font-family: "feedback-iconfont"; src: url("//at.alicdn.com/t/font_1031158_u69w8yhxdu.woff2?t=1630033759944") format("woff2"), url("//at.alicdn.com/t/font_1031158_u69w8yhxdu.woff?t=1630033759944") format("woff"), url("//at.alicdn.com/t/font_1031158_u69w8yhxdu.ttf?t=1630033759944") format("truetype"); }
</style></defs><path d="M916.104 850.096c0 45.008-170.744 81.496-381.344 81.496-210.608 0-381.336-36.488-381.336-81.496s173.392-78.168 384-78.168c210.6 0 378.68 33.16 378.68 78.168z" fill="#B8CBCD" p-id="158448"></path><path d="M844.104 803.928v-376c0-181.152-145.064-328-324-328s-324 146.848-324 328v376c56 0 63.216-64 102.736-64 49.264 0 49.264 64 113.264 64 56 0 56-64 104-64s48 64 112 64c48 0 56.584-64 104-64 47.408 0 40.872 64 112 64z" fill="#F6E89A" p-id="158449"></path><path d="M844.104 811.928c-54.472 0-78.104-29.344-93.736-48.768-11.208-13.92-13.328-15.232-18.264-15.232-8.336 0-14.504 6.072-27.624 20.984-15.968 18.16-37.832 43.016-76.376 43.016-48.92 0-73.144-27.976-89.184-46.496-12.752-14.728-16.376-17.504-22.816-17.504-6.576 0-10.176 2.904-22.64 18.296-14.744 18.192-37.024 45.704-81.36 45.704-48.584 0-72.888-27.696-88.968-46.024-12.576-14.336-16.608-17.976-24.296-17.976-3.216 0-11.656 9.944-17.232 16.528-16.024 18.904-40.248 47.472-85.504 47.472v-64c14.2 0 21.712-7.192 36.68-24.856 14.008-16.52 33.184-39.144 66.048-39.144 37.52 0 57.68 22.984 72.408 39.768 14.36 16.368 22.096 24.232 40.864 24.232 12.744 0 18.168-5.376 31.632-21.992 13.552-16.728 34.032-42.008 72.368-42.008 36.896 0 56.72 22.888 71.2 39.608 14.264 16.48 21.96 24.392 40.8 24.392 8.736 0 15.016-6.16 28.32-21.28 15.856-18.032 37.576-42.72 75.68-42.72 36.632 0 55.576 23.528 68.112 39.104 12.928 16.056 20.056 24.896 43.888 24.896v64z" fill="#8D4520" p-id="158450"></path><path d="M829.208 353.312a24.016 24.016 0 0 1-22.36-15.264c-39.416-100.736-135.288-166.624-256.464-176.24-126.936-10.112-245.968 46.4-303.264 143.88a23.984 23.984 0 0 1-32.848 8.528 23.984 23.984 0 0 1-8.528-32.848c66.552-113.208 203.32-178.856 348.448-167.408 139.928 11.112 248.296 89.048 294.568 207.312 4.832 12.344 1.536 25.568-10.808 30.392-2.88 1.12-5.84 1.648-8.744 1.648z" fill="#FFFFFF" p-id="158451"></path><path d="M669.696 385.128m-94.4 0a94.4 94.4 0 1 0 188.8 0 94.4 94.4 0 1 0-188.8 0Z" fill="#FFFFFF" p-id="158452"></path><path d="M669.704 495.528c-60.88 0-110.408-49.528-110.408-110.408s49.528-110.4 110.408-110.4c60.872 0 110.4 49.528 110.4 110.408s-49.528 110.4-110.4 110.4z m0-188.808c-43.232 0-78.408 35.168-78.408 78.408s35.168 78.408 78.408 78.408c43.232 0 78.4-35.168 78.4-78.408s-35.168-78.408-78.4-78.408z" fill="#8D4520" p-id="158453"></path><path d="M868.104 827.928h-24c-50.648 0-72.832-27.544-87.512-45.784-11.696-14.528-15.632-18.216-24.488-18.216-12.192 0-20.32 8.56-33.632 23.704-14.96 17.008-35.448 40.296-70.368 40.296-45.264 0-67.152-25.272-83.136-43.728-13.008-15.016-18.48-20.272-28.864-20.272-10.632 0-16.36 5.832-28.856 21.256-14.616 18.04-34.624 42.744-75.144 42.744-44.96 0-66.92-25.032-82.952-43.304-13.456-15.328-19.16-20.696-30.312-20.696-6.24 0-12.184 6.192-23.336 19.36-15.976 18.832-37.848 44.64-79.4 44.64h-24v-400c0-194.096 156.112-352 348-352s348 157.904 348 352v400z m-352-112c33.24 0 50.936 20.432 65.152 36.848 13.648 15.76 23.512 27.152 46.848 27.152 12.608 0 20.848-8.672 34.328-24 15.672-17.824 35.184-40 69.672-40 32.8 0 49.608 20.872 61.88 36.12 8.296 10.296 15.128 18.784 26.12 23.584V427.928c0-167.624-134.576-304-300-304s-300 136.376-300 304v343.808c6.032-4.672 11.8-11.248 18.792-19.488 13.712-16.176 30.792-36.32 59.944-36.32 33.896 0 51.912 20.536 66.392 37.04 13.728 15.656 23.656 26.96 46.872 26.96 16.848 0 24.568-8.552 37.848-24.952 13.352-16.48 31.632-39.048 66.152-39.048z" fill="#8D4520" p-id="158454"></path><path d="M691.592 383.928m-20 0a20 20 0 1 0 40 0 20 20 0 1 0-40 0Z" fill="#8D4520" p-id="158455"></path><path d="M429.696 385.128m-94.4 0a94.4 94.4 0 1 0 188.8 0 94.4 94.4 0 1 0-188.8 0Z" fill="#FFFFFF" p-id="158456"></path><path d="M429.704 495.528c-60.88 0-110.408-49.528-110.408-110.408s49.528-110.4 110.408-110.4c60.872 0 110.4 49.528 110.4 110.408s-49.528 110.4-110.4 110.4z m0-188.808c-43.232 0-78.408 35.168-78.408 78.408s35.168 78.408 78.408 78.408c43.232 0 78.4-35.168 78.4-78.408s-35.168-78.408-78.4-78.408z" fill="#8D4520" p-id="158457"></path><path d="M451.592 383.928m-20 0a20 20 0 1 0 40 0 20 20 0 1 0-40 0Z" fill="#8D4520" p-id="158458"></path></svg>