<?xml version="1.0" standalone="no"?><!DOCTYPE svg PUBLIC "-//W3C//DTD SVG 1.1//EN" "http://www.w3.org/Graphics/SVG/1.1/DTD/svg11.dtd"><svg t="1649682756743" class="icon" viewBox="0 0 1024 1024" version="1.1" xmlns="http://www.w3.org/2000/svg" p-id="37649" xmlns:xlink="http://www.w3.org/1999/xlink" width="200" height="200"><defs><style type="text/css">@font-face { font-family: "feedback-iconfont"; src: url("//at.alicdn.com/t/font_1031158_u69w8yhxdu.woff2?t=1630033759944") format("woff2"), url("//at.alicdn.com/t/font_1031158_u69w8yhxdu.woff?t=1630033759944") format("woff"), url("//at.alicdn.com/t/font_1031158_u69w8yhxdu.ttf?t=1630033759944") format("truetype"); }
</style></defs><path d="M826.999735 1024h-629.99947c-101.999914 0-174.001854-99.597916-142.199881-196.201835l71.99994-231.197806c24.597979-68.399943 75.599937-124.801895 141.599881-155.40187h488.399589c64.797946 30.599974 115.799903 86.999927 139.797883 154.80187L969.199616 827.798165C1001.001589 924.402084 928.99965 1024 826.999735 1024z" fill="#020d6b" p-id="37650"></path><path d="M826.999735 1024H512V441.198489h244.801794c64.797946 30.599974 115.799903 86.999927 139.797883 154.80187l72.599939 231.797806C1001.001589 924.402084 928.99965 1024 826.999735 1024z" fill="#020d6b" p-id="37651"></path><path d="M824.601737 335.598578L512 335.002579l-311.999738-0.6 193.801837-273.18777C422.000076 23.41284 464.00004-0.58514 512 0.01086h3.599997c48.599959 0.599999 92.397922 23.39998 121.201898 63.001947l187.799842 272.585771z" fill="#020d6b" p-id="37652"></path><path d="M824.601737 335.598578L512 335.002579V0.01086h3.599997c48.599959 0.599999 92.397922 23.39998 121.201898 63.001947l187.799842 272.585771z" fill="#020d6b" p-id="37653"></path><path d="M841.999723 386.000536c0 20.401983-8.399993 50.401958-46.201961 79.801933-0.599999 0-0.599999 0-0.6 0.599999L534.199981 672.802295c-5.397995 4.195996-11.99999 6.599994-18.599984 6.599994-1.201999 0-2.397998 0-3.599997-0.599999-4.801996-0.599999-10.197991-2.397998-14.399988-5.997995L231.802235 468.200467h-0.599999l-0.6-0.6v-0.599999C190.40027 437.600492 182.000277 406.998518 182.000277 386.000536c0-17.999985 5.997995-35.40197 17.999985-51.599957 31.801973-42.601964 95.40192-67.799943 161.999864-82.199931v79.797933l149.999874-0.595999 149.999874-0.6v-78.599934c67.799943 14.399988 131.999889 40.197966 163.197863 83.39793 10.803991 15.597987 16.801986 33.001972 16.801986 50.399958z" fill="#020d6b" p-id="37654"></path><path d="M841.999723 386.000536c0 20.401983-8.399993 50.401958-46.201961 79.801933-0.599999 0-0.599999 0-0.6 0.599999L534.199981 672.802295c-5.397995 4.195996-11.99999 6.599994-18.599984 6.599994-1.201999 0-2.397998 0-3.599997-0.599999v-347.399708l149.999874-0.6v-78.599934c67.799943 14.399988 131.999889 40.197966 163.197863 83.39793 10.803991 15.597987 16.801986 33.001972 16.801986 50.399958z" fill="#020d6b" p-id="37655"></path><path d="M661.999874 252.202648v78.599934C658.399877 413.000513 592.997932 476.00046 512 476.00046s-146.399877-62.999947-149.999874-144.001879V252.200648c52.799956-11.39999 106.80191-16.201986 149.999874-16.201986 42.601964 0.002 97.199918 4.803996 149.999874 16.203986z" fill="#faebd0" p-id="37656"></path><path d="M661.999874 252.202648v78.599934C658.399877 413.000513 592.997932 476.00046 512 476.00046V236.000662c42.601964 0 97.199918 4.801996 149.999874 16.201986z" fill="#faebd0" p-id="37657"></path><path d="M691.999849 620.002339H332.000151c-49.801958 0-89.999924 40.197966-89.999924 89.999925V1024h539.999546V710.002264c0-49.801958-40.197966-89.999924-89.999924-89.999925z" fill="#17ACE8" p-id="37658"></path><path d="M601.999924 814.000176c0 16.801986-13.197989 29.999975-29.999974 29.999975h-119.9999c-16.801986 0-29.999975-13.197989-29.999974-29.999975s13.197989-29.999975 29.999974-29.999974h119.9999c16.801986 0 29.999975 13.197989 29.999974 29.999974z" fill="#E1E4FB" p-id="37659"></path><path d="M781.999773 710.002264V1024H512V620.002339h179.999849c49.801958 0 89.999924 40.197966 89.999924 89.999925z" fill="#dbdbdb" p-id="37660"></path><path d="M601.999924 814.000176c0 16.801986-13.197989 29.999975-29.999974 29.999975h-59.99995v-59.999949h59.99995c16.801986 0 29.999975 13.197989 29.999974 29.999974z" fill="#C5C9F7" p-id="37661"></path></svg>