<?xml version="1.0" standalone="no"?><!DOCTYPE svg PUBLIC "-//W3C//DTD SVG 1.1//EN" "http://www.w3.org/Graphics/SVG/1.1/DTD/svg11.dtd"><svg t="1649682766028" class="icon" viewBox="0 0 1024 1024" version="1.1" xmlns="http://www.w3.org/2000/svg" p-id="37791" xmlns:xlink="http://www.w3.org/1999/xlink" width="200" height="200"><defs><style type="text/css">@font-face { font-family: "feedback-iconfont"; src: url("//at.alicdn.com/t/font_1031158_u69w8yhxdu.woff2?t=1630033759944") format("woff2"), url("//at.alicdn.com/t/font_1031158_u69w8yhxdu.woff?t=1630033759944") format("woff"), url("//at.alicdn.com/t/font_1031158_u69w8yhxdu.ttf?t=1630033759944") format("truetype"); }
</style></defs><path d="M149.333333 746.666667h725.333334c23.466667 0 42.666667-19.2 42.666666-42.666667V192c0-23.466667-19.2-42.666667-42.666666-42.666667H149.333333c-23.466667 0-42.666667 19.2-42.666666 42.666667v512c0 23.466667 19.2 42.666667 42.666666 42.666667z" fill="#455A64" p-id="37792"></path><path d="M170.666667 661.333333h682.666666c12.8 0 21.333333-8.533333 21.333334-21.333333V213.333333c0-12.8-8.533333-21.333333-21.333334-21.333333H170.666667c-12.8 0-21.333333 8.533333-21.333334 21.333333v426.666667c0 12.8 8.533333 21.333333 21.333334 21.333333z" fill="#EA80FC" p-id="37793"></path><path d="M320 597.333333v64h384v-64H320z m46.933333 46.933334h-32v-32h32v32z m64 0h-32v-32h32v32z m64 0h-32v-32h32v32z m64 0h-32v-32h32v32z m64 0h-32v-32h32v32z m64 0h-32v-32h32v32z" fill="#F4BAFD" p-id="37794"></path><path d="M640 832H384l21.333333-85.333333h213.333334z" fill="#607D8B" p-id="37795"></path><path d="M320 832h384v42.666667H320z" fill="#90A4AE" p-id="37796"></path><path d="M629.333333 394.666667m-32 0a32 32 0 1 0 64 0 32 32 0 1 0-64 0Z" fill="#4A148C" p-id="37797"></path><path d="M394.666667 394.666667m-32 0a32 32 0 1 0 64 0 32 32 0 1 0-64 0Z" fill="#4A148C" p-id="37798"></path><path d="M512 345.6c-110.933333 0-277.333333-27.733333-277.333333-27.733333v34.133333s83.2 160 151.466666 160h12.8c32 0 61.866667-14.933333 81.066667-40.533333 14.933333-21.333333 44.8-21.333333 59.733333 0 19.2 25.6 49.066667 40.533333 81.066667 40.533333h12.8c68.266667 0 151.466667-160 151.466667-160v-34.133333c4.266667 0-162.133333 27.733333-273.066667 27.733333z m-64 55.466667c0 40.533333-12.8 55.466667-49.066667 55.466666h-6.4c-27.733333 0-53.333333-19.2-61.866666-44.8-6.4-19.2 8.533333-38.4 27.733333-38.4l89.6 27.733334z m245.333333 10.666666c-8.533333 27.733333-34.133333 44.8-61.866666 44.8h-6.4c-36.266667 0-49.066667-14.933333-49.066667-55.466666l89.6-27.733334c19.2 0 34.133333 19.2 27.733333 38.4z" fill="#263238" p-id="37799"></path><path d="M512 704m-21.333333 0a21.333333 21.333333 0 1 0 42.666666 0 21.333333 21.333333 0 1 0-42.666666 0Z" fill="#263238" p-id="37800"></path></svg>