<?xml version="1.0" standalone="no"?><!DOCTYPE svg PUBLIC "-//W3C//DTD SVG 1.1//EN" "http://www.w3.org/Graphics/SVG/1.1/DTD/svg11.dtd"><svg class="icon" width="200px" height="200.00px" viewBox="0 0 1024 1024" version="1.1" xmlns="http://www.w3.org/2000/svg"><path d="M641.71 275.72c-16.61 0.2-33.03 1.51-49.64 1.3 3.58-4 7.47-7.66 11.81-10.83 8.83 4.22 18.97 3.26 28.62 3.24 6.88-0.01 21.51 3.05 26.03-4.16 10.33-16.45-27.93-14.83-42.6-13.77-0.36-0.36-0.74-0.68-1.18-0.95 0.07-2.6 0.05-5.25 0.66-8.08 0.94-4.32 2.1-8.51 2.97-12.81 4.36-8.87 11.85-20.33 10.96-30.12-0.62-6.83-7.03-9.94-12.73-5.96-7.45 5.2-6.81 18.54-7.78 26.48-0.28 2.28-0.65 4.5-1.05 6.7-0.09 0.31-0.14 0.61-0.17 0.91-0.67 3.51-1.47 6.98-2.39 10.51-1.13 4.33-0.08 10.58-1.28 14.84-8.23 4.68-15.18 10.98-21.31 18.11 0.24-12.73 0.48-25.46 0.63-38.19 0.11-9.8-2.64-22.95-15.77-19.26-12.31 3.46-11.9 17.09-10.03 27.27 2.85 15.46 7.74 30.37 13.92 44.79 0 0.14 0 0.29-0.01 0.43-0.62 0.93-1.23 1.86-1.84 2.79-4.11 6.35-8.12 12.77-12.1 19.21-0.52-4.97-1.39-9.92-2.19-14.7-1.29-7.68-4.15-19.67-14.91-15.26-8.75 3.59-8.9 16.44-9.3 24.27-0.66 13.02-0.68 26.71 2.72 39.36 0.31 1.15 0.88 2.01 1.59 2.63-1.37 2.26-2.74 4.52-4.12 6.78-6.31 10.3-12.8 20.73-18.14 31.66 0.85-12.27-2.1-24.2-8.55-34.58 7.73-15.1 13.77-31 17.52-47.57 2.09-9.25 9.5-31.54-2.63-37.32-14.68-7-18.83 14.86-20.63 23.88-1.63 8.17-2.99 16.48-3.33 24.83-0.12 2.89 0.67 7.52 1.18 12.26-2.95-9.28-5.47-18.67-12.36-26.29-1.82-2.01-5.99-2.26-7.76 0-11.56 14.73 5.93 32.07 13.98 44.26 0.7 1.06 1.59 1.74 2.55 2.13 0.29 0.53 0.58 1.07 0.9 1.59-0.14 3.46 3.25 6.15 6.33 5.85 5.39 9.1 7.89 19.2 7.37 29.86-0.13-0.13-0.24-0.26-0.38-0.38-2.72-2.49-6.21-4.33-9.28-6.33-2.7-1.77-5.72-4.45-9.22-3.57-15.17 3.82 6.7 31.95 10.76 37.19 1.05 1.35 2.3 1.9 3.52 1.91-0.98 4.5-1.65 9.03-2.06 13.56-0.61-0.22-1.22-0.45-1.84-0.67-0.56-0.36-1.2-0.6-1.92-0.69-9.01-3.2-18.21-6.27-27.21-9.73 1.4-5.36 2.69-10.8 5.01-16.04 4.96-11.22 10.7-22.52 9.42-35.18-0.89-8.8-5.71-18.63-15.5-19.53-29.35-2.69-18.06 40-16.1 56.25-1.17 1.74-2.4 3.49-3.66 5.26-0.06-0.03-0.13-0.06-0.19-0.09-4.19-2.2-8.35-4.41-12.51-6.6 0.15-1.46 0.29-2.93 0.43-4.4 0.44-0.95 0.59-2.08 0.33-3.34 1.64-18.14 2.41-36.67 1.89-54.56-0.18-6.28-1.44-13.36-8.34-15.6-5.69-1.84-10.96 1.64-12.54 7.14-2.58 8.98 0.67 21.64 1.85 30.67 1.41 10.79 3.4 21.47 5.85 32.06l-0.03 1.21c-0.39 0.2-0.75 0.45-1.08 0.75-7.16-3.68-14.4-7.23-21.77-10.6 1.44-7.36 1.68-14.91 1.15-22.63-0.78-11.28-1.1-24.03-3.94-35-1.8-6.97-7.55-12.97-15.29-10.11-9.2 3.41-8.87 14.46-7.71 22.41 1.61 11 5.8 21.38 7.2 32.31-8.33-2.79-16.33-6.23-24.07-10.44-4.21-2.29-9.27 1.49-8.06 6.2 3.06 11.92 17.04 18.74 28.55 17.67 0.21-0.02 0.39-0.08 0.59-0.11-5.24 2.52-9.69 6.28-11.26 12.36-1.89 7.36 2.64 15.62 10.35 16.84 9.54 1.51 14.67-8.11 18-15.4 1.31-2.86 2.36-5.76 3.2-8.69 6.38 2.98 12.65 6.14 18.87 9.37-8.06 7.87-16.72 14.94-26.18 21.15-7.2 4.73-14.2 10.36-10.78 19.86 0.63 1.74 1.93 3.21 3.66 3.78 1.05 1.49 2.71 2.6 4.51 2.68 10.1 0.42 19.46-2.28 27.66-8.1 10.53-3.71 14.67-13.72 15.39-24.59 0.16-0.83 0.31-1.68 0.42-2.57 0.17-1.42 0.33-2.85 0.49-4.27 3.36 1.75 6.74 3.48 10.13 5.18-5.75 8.05-11.54 16.45-14.58 25.25-2.41 6.99-2.67 21.02 8.33 19.32 9.51-1.47 17.4-13.54 22.48-20.69 3.1-4.36 4.93-9.08 6.39-13.93 6.97 2.67 14.04 5.13 21.07 7.6-1.34 1.07-2.61 2.26-4.09 3.43-3.57 2.81-8.16 4.02-12.13 6.12-6.98 3.69-13.16 12.25-5.81 19.04 6.15 5.68 15.79 3.52 21.68-1.34 6.11-5.04 8.38-12.44 9.52-19.95 0.7-0.34 1.26-0.79 1.7-1.32-0.48 15.65 1.72 31.38 4.42 46.81 1.22 6.95 11.79 4 10.58-2.92-0.97-5.53-1.87-11.13-2.59-16.75 9.32 0.74 17.01-5.76 23.82-12.36 0.31 0.32 0.65 0.63 1.04 0.92 2.92 2.17 7.92 2.04 11.38 2.67 5.09 0.93 10.18 1.87 15.27 2.8 5.92 1.09 14.18 4.14 20.09 1.52 4.3-1.91 7.21-7.04 5.42-11.66-2.24-5.76-8.43-5.74-13.66-5.97-9.41-0.43-18.82-0.72-28.23-1.05 8.66-7.92 17.67-15.43 27.87-21.13 0.14 0.73 0.41 1.35 0.8 1.87 0 3.73 1.11 7.29 4.33 9.15 3.38 1.95 8.44 1.11 12.1 1.11 7.22-0.01 14.43-0.01 21.65-0.02 7.06-0.01 7.07-10.98 0-10.98-4.21 0-8.42 0.01-12.63 0.01-2.26 0-11.07 1.35-12.63 0.01-5.14-4.42 7-12.67 10.07-15.82 7.08-7.29 14.35-16.33 6.89-26.25-10.54-14.01-25.42 19.51-29.56 34.25-8.89 4.47-16.95 10.18-24.63 16.7-0.67 0.57-1.31 1.17-1.97 1.75 0.27-0.72 0.54-1.43 0.86-2.08 1.42-2.93 3.29-5.77 4.25-8.92 2.7-8.85-4.19-19.62-14.3-15.1-12.35 5.52-3.04 22.23-5.02 31.78-0.07 0.32-0.08 0.62-0.1 0.92-0.01 0.02-0.02 0.05-0.02 0.07-0.78 2.55-1.55 5.32-1.47 7.91-6.1 6.07-13.38 13.79-22.22 12.31-1.5-14.58-1.48-29.28 2.21-43.56 1.56-6.02 3.7-11.81 6.2-17.46 13.4-0.74 26.84-1.6 40.07-3.97 6.44-1.15 23.29-2.58 20.88-13.06-1.97-8.58-15.9-7.28-22.3-6.5-10.35 1.26-20.55 4.48-30.6 7.73 4.4-7.79 9.21-15.37 13.84-22.93 11.1-18.12 22.06-36.34 33.33-54.36 0.9-1.44 1.82-2.88 2.74-4.31 0.26 0.13 0.52 0.26 0.82 0.36 16.46 5.3 33.5 8.5 50.79 9.21 7.28 0.3 31.7 3.99 31.59-8.23-0.1-9.7-10.81-20.79-20.19-20.68z" fill="#3F4B49" /><path d="M587.12 483.8c-7.63-8.8-20.5-8.19-31.11-8.24-33.08-0.15-66.15 1-99.15 3.29-1.34-0.05-2.63 0.05-3.89 0.27l-2.23 0.15c-0.94 0.07-1.62 0.52-2.06 1.13-9.82 4.24-16.39 16.39-17.55 27.55-1.45 13.99 0.05 28.53 0.43 42.56l1.26 46.81c0.83 30.61 1.65 61.22 2.48 91.83 0.27 10.14-0.9 22.34 3.62 31.85 4.12 8.67 11.78 9.89 20.54 10.58 29.55 2.32 59.17 5.35 88.77 6.78 9.19 0.45 19.18-0.31 25.93-7.31 7.05-7.31 7.52-18.25 8.06-27.81 3.49-62.13 6.71-124.28 10.07-186.42 0.58-10.77 2.54-24.13-5.17-33.02z" fill="#E1A952" /><path d="M583.95 667.92c0.07-0.04 0.16-0.09 0.24-0.15-0.11 2.03-0.22 4.04-0.35 6.06-0.4-0.24-0.8-0.48-1.24-0.73-0.31-0.02-0.71-0.04-1.12-0.05-0.77-0.35-1.5-0.66-2.27-1.01-4.79-0.04-7.72-0.88-11.87-1.1-2.56 0.26-7.77 1.04-9.42-2.01-1.72 1.28-3.46 0.7-5.05 0.7 0.13-1.46-1.17-0.84-1.87-1.48-0.48-0.04-1.02-0.07-1.5-0.09-0.8-0.05-1.52-0.09-2.3-0.15-0.73-0.05-1.52-0.09-2.32-0.15l-7.63-0.48c-0.88-0.26-1.74-0.51-2.6-0.68-0.9 0.04-1.85 0.18-2.74 0.31-0.88 0.04-1.76 0.16-2.63 0.2-0.99 0.33-1.87 0.57-2.76 0.8-0.16 0-0.24-0.02-0.4-0.02-1.12 0.02-2.32 0.13-3.44 0.24-1.28 0.02-2.56 0.13-3.84 0.24-0.79-0.26-1.5-0.51-2.29-0.68-1.06 1.7-2.71 1.08-3.88 0.59-2.16 0.04-4.32 0.07-6.48 0-0.82 0.53-1.66 1.17-2.41 1.7-0.13-0.6-0.24-1.3-0.29-1.9-2.09 0-4.08-0.02-6.17-0.02-0.05 0.99-0.11 1.87-0.18 2.85-1.56 0.66-2.07 2.21-2.51 2.67-0.88 0.02-1.77 0.15-2.65 0.16-2.82-0.93-4.37-1.87-5.34-0.46-1.87 0.22-3.64 0.35-5.51 0.48-2.56-1.34-4.17-1.28-4.19 0.11-0.55-0.05-1.04-0.09-1.59-0.15l-3.84-0.37c-2.21-1.3-2.74 0.22-3.11 0.59-1.02-0.11-2.07-0.22-3.04-0.31-1.26-0.13-2.63-0.27-3.82-0.4-2.12-0.6-1.83 0.62-3.2 0.68-0.7-0.37-1.46-0.75-2.23-1.23l-0.71-0.07c-0.9 1.79-2.36 1.02-3.2 0.64l-0.73-0.09c-0.64 1.72-1.79 1.1-2.4 0.73-0.31 0.57-0.6 1.13-0.99 1.77-1.01-0.51-1.94-0.91-2.95-1.32-0.79-0.09-1.52-0.18-2.32-0.27-0.27 0.57-0.6 1.23-0.9 1.79-0.77-0.4-1.54-0.79-2.23-1.15-1.43-0.35-2.76-0.73-4.19-1.01-0.02-1.1-0.04-2.29-0.05-3.38 0.68-0.31 1.37-0.73 2.05-1.13 0.16 0.02 0.24 0.04 0.4 0.05 0.15 1.01 0.29 1.92 0.51 2.95l2.23 0.26c1.15-0.97 2.38-0.33 3.26-1.13 0.7 0.48 1.46 0.86 2.23 1.24 0.9-0.09 1.77-0.09 2.67-0.18 0.51-0.24 1.1-0.49 1.61-0.71 0.93-2.29 1.99-1.57 2.89-1.66 0.04-0.38 0.07-0.88 0.13-1.37 0.24 0.02 0.48 0.05 0.79 0.09 1.12 0.22 2.21 0.53 3.38 0.84 1.57 0.57 2.27-1.15 2.84-2.09 0.82-0.11 1.63-0.24 2.36-0.26 0.46 0.15 1.01 0.4 1.46 0.64 0.35-0.37 0.62-0.62 0.88-0.9 2.29 0.53 4.57 1.08 6.77 1.68 0.6-0.64 1.13-1.19 1.74-1.72 0.93 0.37 1.94 0.77 2.95 1.17 1.04-0.02 2.01-0.11 3.07-0.22l1.19 0.11 0.07-0.88c1.1 0.2 2.29 0.51 3.38 0.8l-0.07 0.9c2.2 0.79 2.23-0.79 3.53-1.08 0.88-0.11 1.85-0.24 2.73-0.26-0.53-2.52-2.41-3.18-3.31-1.66-0.31-0.04-0.57-0.05-0.81-0.07-0.75-0.77-1.41-1.43-2.16-2.2 2.95-3.18 5.07-0.33 7.39-1.72 2.45 0.4 3.05-3.9 5.52-1.41 2.07 1.15 3.44 0.97 3.86-0.57 2.23 0 4.54-0.04 6.84 0.05 0.46 1.72 1.34 0.29 2.27 0.66 4.43-3.33 8.27 1.85 12.68-1.43 1.83 1.52 2.84 0.31 4.61-0.16 1.26 0.18 2.52 0.48 3.79 0.75 2.14-2.91 4.04 2.09 6.81 0.86 1.17 0.27 2.29 0.55 3.38 0.71 1.61-0.2 3.99-2.03 4.23-0.24 1.45-0.09 1.72 2.49 3.75 1.72 2.2-1.13 5.18 0.11 6.59-1.48 2.63 1.83 7.77-1.15 10.61 1.48 2.29-1.65 6.15-0.27 9.17-0.42l1.92 0.11c-0.13 1.08 0.91 0.93 1.48 0.97 0.55-0.07 1.24 0.46 1.59-0.42-0.05-0.79 1.04-0.24 2.18 1.59v0.49c-0.64 0.59-1.24 1.12-1.98 1.77 0.99 1.45 1.79 1.48 2.63 2.51 0.16-0.44 0.25-0.93 0.42-1.43z" fill="#F7EAD6" opacity=".81" /><path d="M585.61 641.32c-0.02 0.53-0.04 1.08-0.07 1.61-2.41 0.09-4.68 0.66-6.9-0.88 2.36-0.58 4.72-0.69 6.97-0.73z" fill="#EFD2A4" opacity=".81" /><path d="M585.61 641.32c-2.25 0.04-4.61 0.15-6.97 0.73 2.21 1.54 4.48 0.97 6.9 0.88-0.15 2.6-0.27 5.18-0.42 7.77-1.1 0.4-2.51-0.02-3.75 0.09-0.7-0.44-1.48-0.77-2.18-1.1-1.94-1.48-2.8-1.74-3.46-1.17-0.69-0.44-1.46-0.97-2.16-1.5-0.57 0.27-1.04 0.55-1.61 0.91-0.86-0.44-1.72-0.79-2.58-1.13-1.04 0.46-2.09 0.9-3.13 1.23-0.95-0.15-1.98-0.4-3-0.57l-1.88-0.11c-1.01-2.93-1.48 1.3-3.79-0.22-0.09 0.29-0.27 0.59-0.44 0.88-1.5 1.7-3.42 0.38-4.54 0.73-0.77-0.57-1.46-1.08-2.23-1.63-0.79-0.15-1.48-0.38-2.27-0.53-1.12 0.22-2.32 0.44-3.44 0.66-0.15 0-0.24 0-0.38-0.02-1.43-0.18-2.76-0.48-4.17-0.75-2.51-0.37-2.73 1.01-4.19 1.7-2.16-1.13-2.62 0.13-3.49 0.16-2.09-1.04-2.73-1.08-3.35-1.13-1.74-0.11-3.55-0.24-5.29-0.37-0.49 0.46-0.93 1.32-1.57 1.28-0.31-0.02-0.55-0.04-0.79-0.05-0.7-0.16-1.48-0.4-2.27-0.66-0.91-0.48-2.65-1.79-4.06-0.71-1.57-0.33-3.05-0.64-4.54-0.84-1.7 0.55-2.89 0.57-4.66 1.02-1.12 0.2-2.23 0.42-3.44 0.71-3.59-1.1-4.46 0.49-6.84 0.31l-3.88 1.15c-1.21 0.2-2.32 0.4-3.46 0.59-0.44-0.51-1.43 0.16-2.27-0.2-4.48-1.72-6.9-1.15-9.15 0.13-1.28 0.18-2.63 0.35-3.86 0.64-0.79-0.09-1.57-0.16-2.27-0.24-1.96-1.39-2.25-0.62-3.07-0.31l-0.07 0.88c-1.1-0.11-2.21-0.22-3.38-0.35-0.11 0.2-0.27 0.27-0.44 0.46-0.7-0.27-1.48-0.46-2.16-0.71-0.33 0.16-0.59 0.24-0.84 0.4-0.86 0.02-1.83 0.11-2.71 0.22a9.95 9.95 0 0 0-1.46-0.66c-0.71 0.04-1.52 0.15-2.32 0.24l-4.48-0.49c2.09-0.97 3.46-3 4.63-0.97 0.79-0.02 1.59-0.11 2.31-0.15 1.59-0.82 3.15-0.66 4.61-0.02l0.91-2.29c0.55 0.05 1.01 0.11 1.56 0.16 0.44-2.23 1.5-1.63 2.36-1.65 0.37-0.46 0.64-0.93 0.91-1.39 0.88-0.2 1.77-0.4 2.73-0.6 0.66 0.66 1.01 2.38 2.05 2.09 0.42-2.14-0.18-6.66 2.76-5.98 2.95 0.77 6.18-0.31 9.4 0.88 1.02-0.99 1.74-2.21 3.49-1.55-0.15 1.19 0.88 1.08 1.5 1.13 1.81 0.05 2.23-1.3 4.15-0.64 0.29 0.22 0.53 0.35 0.75 0.57 1.28-1.39 1.15-1.99 2.03-2.21-1.7-1.43-1.99-0.57-2.62-0.71l-0.71-0.07c-0.75-0.37-1.45-0.7-2.21-1.08 0.79 0.07 1.5 0.13 2.27 0.2 0.33-1.17 0.64-2.23 0.93-3.29l1.17 0.09c2.12 1.28 3.16 2.16 4.28 3.26 0.31 0.02 0.55 0.04 0.77 0.05 0.84-0.62 1.57-1.15 2.4-1.68 0.24 0.13 0.46 0.35 0.68 0.46l1.94-0.71c0.79 0.05 1.56 0.11 2.27 0.16 0.16-0.18 0.26-0.37 0.42-0.46 0.79 0.05 1.48 0.11 2.27 0.18 0.6 0.33 1.23 0.68 1.83 1.12-0.05 0.9-0.11 1.88-0.16 2.76 0.2 0.42 0.42 0.73 0.64 1.04 0.16 0.02 0.31 0.02 0.4 0.04 1.32-0.88 2.6-1.7 3.92-2.56-0.05-0.31-0.2-0.62-0.33-0.93 1.56 0.26 3.04 0.51 4.52 0.75 0.8-0.35 1.54-0.79 2.34-1.23 1.32 0.4 2.73 0.79 4.12 1.28 2.89-1.08 4.96-1.54 6.38-0.04 1.41 0.2 2.73 0.48 4.13 0.77 0.38 0.02 0.79 0.05 1.1 0.07 0.57-0.16 1.04-0.33 1.59-0.4 0.62 0.35 1.15 0.68 1.85 1.01 0.59-0.66 1.24-1.3 1.59-2.27 1.1 0.27 2.27 0.55 3.37 0.71 3.86-0.07 7.79-0.13 11.74-0.2 1.26-0.11 2.1-1.65 3.46-1.77 0.24 0.02 0.46 0.04 0.79 0.05 0.69 0.51 1.45 1.08 2.14 1.59 1.81 0.11 3.53 0.2 5.27 0.29 1.19-0.15 2.31-0.27 3.48-0.31 0.48 0.02 1.02 0.04 1.5 0.07 3.48 0.22 6.97 0.44 10.45 0.68-0.12 1.8-0.21 3.59-0.32 5.38z" fill="#ECC992" opacity=".81" /><path d="M578.06 660.51c2.07 0.44 4.68-0.16 6.48 0.86-0.11 2.14-0.22 4.28-0.35 6.4-0.07 0.05-0.16 0.11-0.24 0.15-0.16 0.49-0.26 0.99-0.44 1.46-0.24 0.09-0.48 0.27-0.8 0.46-0.6-1.01-1.13-2.03-1.83-2.96 0.75-0.75 1.32-1.5 1.98-2.27-1.13-1.83-2.23-2.38-2.18-1.59-0.35 0.88-1.04 0.35-1.59 0.42-0.57-0.04-1.61 0.11-1.48-0.97l-1.92-0.11c-3.02 0.15-6.88-1.23-9.17 0.42-2.84-2.63-7.98 0.35-10.61-1.48-1.41 1.59-4.39 0.35-6.59 1.48-2.03 0.77-2.3-1.81-3.75-1.72-0.24-1.79-2.62 0.04-4.23 0.24-1.1-0.16-2.21-0.44-3.38-0.71-2.76 1.23-4.66-3.77-6.81-0.86-1.26-0.27-2.52-0.57-3.79-0.75-1.77 0.48-2.78 1.68-4.61 0.16-4.41 3.27-8.25-1.9-12.68 1.43-0.93-0.37-1.81 1.06-2.27-0.66-2.31-0.09-4.61-0.05-6.84-0.05-0.42 1.54-1.79 1.72-3.86 0.57-2.47-2.49-3.07 1.81-5.52 1.41-2.32 1.39-4.45-1.46-7.39 1.72 0.75 0.77 1.41 1.43 2.16 2.2 0.24 0.02 0.49 0.04 0.81 0.07 0.9-1.52 2.78-0.86 3.31 1.66-0.88 0.02-1.85 0.15-2.73 0.26-1.15 0.4-2.38 0.68-3.53 1.08l0.07-0.9c-1.1-0.29-2.29-0.6-3.38-0.8l-0.07 0.88-1.19-0.11c-0.73 0.13-1.54 0.26-2.27 0.29-0.33-0.04-0.57-0.05-0.8-0.07-1.01-0.4-2.01-0.8-2.95-1.17-0.37 0.55-0.66 1.13-0.95 1.79-0.24-0.02-0.48-0.05-0.79-0.07-2.2-0.6-4.48-1.15-6.77-1.68-0.26 0.27-0.53 0.53-0.88 0.9-0.46-0.24-1.01-0.49-1.46-0.64 0.04-0.49 0.07-0.99 0.11-1.37-0.42-0.75-0.91-1.39-1.34-2.14 0.44-0.55 0.9-1.19 1.26-1.74 2.4-0.75 4.9-3.18 7.24-3.53 0.73 1.87 2.01 0.8 4.12 1.39 0.04-0.38 0.05-0.7 0.09-0.99 1.99-0.11 4.08-0.2 6.09-0.42 1.3 0.82 1.04-1.19 1.72-1.72 0.62 0.05 1.19 0.11 1.9 0.18 1.65-0.75 3.68-1.54 5.1-2.41 8.82 1.24 16.03 0.59 24.4-0.38 2.16-0.02 2.09 2.54 5.31 0.42 0.88-0.04 1.83-0.16 2.71-0.2 3.11 1.3 5.05 0.84 6.4 2.32 2.16-0.55 1.63-2.36 2.32-2.21 0.57 0.04 1.04 0.07 1.59 0.11 2.09 1.04 2.62-0.11 3.42-0.26 2.09 1.23 2.38-0.04 3.02 0.2 0.15 0 0.24 0.02 0.38 0.02 1.5 0.09 3.02 0.18 4.59 0.29 0.31 0.02 0.71 0.04 1.12 0.07 1.08 0.57 2.25 1.13 3.35 1.59 1.5-0.04 3.09-0.07 4.61-0.11l1.9 0.11c-0.02 0.09-0.02 0.29-0.02 0.4 3.91 1.3 9.35 0.42 12.49 1.68 2.01-1.17 4.45 0.04 6.11-0.16 0.51 1.79 1.98 0.68 2.98 1.63 0.82 0.13 1.51 0.35 2.32 0.49z" fill="#F4E2C5" opacity=".81" /><path d="M584.81 656.12c-0.07 1.76-0.18 3.51-0.27 5.25-1.79-1.02-4.41-0.42-6.48-0.86-0.8-0.15-1.5-0.37-2.29-0.51-1.01-0.95-2.47 0.16-2.98-1.63-1.66 0.2-4.1-1.01-6.11 0.16-3.15-1.26-8.58-0.38-12.49-1.68 0-0.11 0-0.31 0.02-0.4l-1.9-0.11c-1.52 0.04-3.11 0.07-4.61 0.11-1.1-0.46-2.27-1.02-3.35-1.59-0.4-0.04-0.8-0.05-1.12-0.07-1.57-0.11-3.09-0.2-4.59-0.29-0.15 0-0.24-0.02-0.38-0.02-0.64-0.24-0.93 1.02-3.02-0.2-0.8 0.15-1.34 1.3-3.42 0.26-0.55-0.04-1.02-0.07-1.59-0.11-0.7-0.15-0.16 1.66-2.32 2.21-1.35-1.48-3.29-1.02-6.4-2.32-0.88 0.04-1.83 0.16-2.71 0.2-3.22 2.12-3.15-0.44-5.31-0.42-8.38 0.97-15.59 1.63-24.4 0.38-1.43 0.88-3.46 1.66-5.1 2.41-0.71-0.07-1.28-0.13-1.9-0.18-0.68 0.53-0.42 2.54-1.72 1.72-2.01 0.22-4.1 0.31-6.09 0.42-0.04 0.29-0.05 0.6-0.09 0.99-2.1-0.59-3.38 0.48-4.12-1.39-2.34 0.35-4.85 2.78-7.24 3.53-0.37 0.55-0.82 1.19-1.26 1.74 0.42 0.75 0.91 1.39 1.34 2.14-0.04 0.38-0.07 0.88-0.11 1.37-0.73 0.02-1.54 0.15-2.36 0.26-0.57 0.93-1.26 2.65-2.84 2.09-1.17-0.31-2.27-0.62-3.38-0.84-0.31-0.04-0.55-0.07-0.79-0.09-0.62-0.27-1.24-0.44-1.87-0.71-2.47 0.51-4.52 1.77-7.48 1.54-2.09-0.07-4.17-0.15-6.18-0.2-0.16-0.02-0.24-0.04-0.4-0.05 0.05-0.49 0.11-0.99 0.15-1.37 0.84-0.29 1.59-0.51 2.41-0.71 0.04-0.49 1.26-0.66 0.97-1.77-2.91 0.16-3.11-3.27-5.52-2.56-0.31 0.02-0.59 0.07-0.88 0.09-0.02-0.88-0.04-1.74-0.07-2.6v-0.35l0.86-0.04c0.22-0.02 0.44-0.02 0.68-0.02h0.02c1.12-0.05 2.29-0.07 3.46 0.02h0.06c2.25 0.11 4.5 0.57 6.35 1.74 0.02 0 0.04 0.02 0.05 0.02h0.04c0.46 0.13 0.82 0.05 1.15-0.13 0.6-0.33 1.06-1.02 1.57-1.46v-0.02c0.24-0.2 0.49-0.37 0.79-0.4 0.07 0 0.13 0 0.2 0.02 0.07 0 0.16 0.02 0.24 0.04 0.02 0 0.02-0.02 0.04-0.02 0.27-0.15 0.55-0.29 0.82-0.44h0.02c0.22-0.11 0.46-0.24 0.68-0.35h0.02c1.85-0.93 3.69-1.77 5.65-2.25 0.38-0.77 0.84-1.5 1.32-2.27 0.88 0 1.76-0.11 2.73-0.2 0.07 0 0.24 0.02 0.31 0.04l2.87 2.67c0.48-1.04 0.91-2.09 1.39-3.13-0.68-0.57-1.43-1.13-2.16-1.72 0.02-0.38 0.07-0.88 0.11-1.37 0.16-0.18 0.33-0.26 0.44-0.46 1.17 0.13 2.29 0.24 3.38 0.35 0.84 0.29 1.79 0.49 2.63 0.79 0.13-0.49 0.31-0.97 0.51-1.35 0.7 0.07 1.48 0.15 2.27 0.24 1.23-0.29 2.58-0.46 3.86-0.64 2.25-1.28 4.67-1.85 9.15-0.13 0.84 0.37 1.83-0.31 2.27 0.2 1.13-0.18 2.25-0.38 3.46-0.59 1.26 0.2 2.51 0.51 3.75 0.8 2.32-0.29 4.56-0.59 6.88-0.9 0.62 0.26 1.24 0.4 1.87 0.66 0.99 0.57 1.54-0.68 2.34-0.82 2.76 0.09 5.54 0.16 8.38 0.26 2.16-0.24 4.3-0.35 6.46-0.49 0-0.2 0.02-0.29 0.02-0.49 0.24 0.02 0.48 0.04 0.79 0.05 0.69 0.35 1.46 0.7 2.23 1.13 1.52-0.09 3.22 0.62 4.54-0.16 0.22 0.31 0.44 0.62 0.73 1.04l2.69-1.3c0.62 0.24 1.24 0.38 1.87 0.62 0.57-0.46 0.93-1.43 1.65-1.28 0.6 0.35 1.15 0.68 1.85 1.01 0.69 0.26 1.28-0.11 1.92-0.37 1.17 0.27 2.51 0.55 3.77 0.73 0.71 0.05 1.5 0.09 2.21 0.15 0.02-0.31 0.02-0.6 0.04-0.9 0.81-0.15 1.59-0.29 2.31-0.35 0 0.09 0 0.29-0.02 0.49 0.81-0.15 1.52-0.29 2.32-0.35 0.79 0.05 1.5 0.09 2.29 0.15 1.12-0.35 3.04 0.97 4.54-0.73 0.86 0.53 1.77 1.1 2.63 1.63 0.99-0.84 2.45 0.15 3.44-0.8 0.44 0.62 0.97 1.35 1.43 1.98 0.57-0.46 1.06-0.82 1.56-1.3 1.19 0.16 2.29 0.42 3.46 0.68 0-0.2 0.02-0.4 0.02-0.49 0.71 0.04 1.5 0.07 2.21 0.11 1.26 0.07 2.62 0.13 3.81 0.2l-0.04 0.9c-2.2 1.85-3.95 1.76-6.07 1.66l-0.04 0.88c3.35 1.56 6.26 0.33 7.56 1.87 1.97 0.39 4.88 0.92 7.61 0.75z" fill="#F2DAB5" opacity=".81" /><path d="M481.29 630.95c-0.48 0.06-1.03 0.2-1.52 0.35-1.47-0.34-3.01-0.68-4.48-0.92 0.04-0.49 0.08-0.98 0.11-1.38-1.09-0.1-2.26-0.22-3.35-0.32-0.2-0.42-0.41-0.74-0.7-1.06 0.92-1.78 3.1-1.58 4.16-0.09 0.18-0.48 0.32-0.86 0.49-1.34 1.86 0.28 3.71 0.65 5.56 1.02 1.39 0.27 2.71 0.52 4.09 0.78 0.01 0.99 0.09 1.99 0.18 2.89-1.56 0.03-3.04 0.05-4.54 0.07z" fill="#F7EAD6" opacity=".81" /><path d="M586.09 632.52c-0.05 1.13-0.11 2.29-0.18 3.42-3.48-0.24-6.97-0.46-10.45-0.68 0.27-0.97 0.53-1.85 0.8-2.84 2.73 0.55 5.38 1.48 7.56-0.11 0.77 0.34 1.52 0.36 2.27 0.21zM581.48 673.05c-5.12 2.61-8.88 0.34-13.03 0.33-5 1.32-12.09 0.31-17.25-0.47-0.36-0.91-1.26-0.47-1.89-0.61-0.16 0.09-0.25 0.28-0.42 0.47-8.12 0.78-15.34-1.85-23.06 0.37-0.59-0.93-1.73-0.51-2.61-0.67-2.89 1.59-7.21 0.07-10.82 0.19-1.23 1.79-4.08-0.12-5.83 0.94-4.12-0.7-7.84 2.13-11.95 0.01 0.43-0.46 0.94-2 2.5-2.66 0.06-0.99 0.12-1.87 0.19-2.86l6.16 0.03c0.04 0.6 0.16 1.3 0.28 1.9 0.75-0.54 1.59-1.17 2.43-1.7 2.16 0.07 4.32 0.04 6.47 0 1.17 0.49 2.81 1.11 3.87-0.59 0.79 0.16 1.5 0.41 2.28 0.67 1.28-0.1 2.57-0.22 3.85-0.23 1.13-0.12 2.33-0.23 3.45-0.25 0.16 0.01 0.24 0.02 0.4 0.03 0.89-0.23 1.78-0.47 2.76-0.8 0.88-0.04 1.76-0.17 2.64-0.21 0.89-0.13 1.85-0.27 2.73-0.3 0.87 0.16 1.73 0.41 2.6 0.66l7.64 0.48c0.8 0.05 1.59 0.1 2.31 0.14 0.79 0.05 1.51 0.09 2.31 0.14 0.48 0.03 1.04 0.06 1.51 0.09 0.69 0.64 1.99 0.02 1.85 1.49 1.6-0.01 3.33 0.59 5.06-0.7 1.64 3.06 6.86 2.27 9.43 2.01 4.14 0.21 7.07 1.05 11.86 1.1 0.78 0.34 1.5 0.65 2.28 1zM570.48 635.5c-1.73-0.09-3.46-0.18-5.27-0.28-0.7-0.52-1.45-1.08-2.14-1.61 0.8-2.43 2.99-0.13 3.78-2.16 0.99-1.23 2.58 0.53 3.74 1.18 0.94 0.05 1.81 0.09 2.67 0.14-0.18 0.68 0.44 1.01 0.71 2.41-1.19 0.05-2.3 0.19-3.49 0.32zM547.08 635.54c-1.1-0.17-2.27-0.44-3.36-0.71l-1.14-0.96c-1.92 0.77-1.22 2.5-2.3 2.23-0.56 0.06-1.04 0.23-1.6 0.39-0.31-0.02-0.71-0.05-1.1-0.07-1.41-0.28-2.73-0.57-4.14-0.77-1.42-1.49-3.49-1.04-6.38 0.05-1.39-0.5-2.79-0.89-4.1-1.28-0.81 0.44-1.54 0.88-2.35 1.22-1.48-0.24-2.97-0.49-4.52-0.74l-4.46-0.35c-0.6-0.44-1.21-0.79-1.82-1.13-0.78-0.06-1.49-0.12-2.27-0.18-0.16 0.09-0.26 0.28-0.42 0.46-0.7-0.05-1.49-0.12-2.27-0.18-0.64-1.04-1.37-2-2.01-3.04-0.91-0.48-1.39 0.87-2.29 0.3l-3.04-0.26c-0.7-0.06-1.48-0.13-2.19-0.19-0.19 0.58-0.4 1.25-0.52 1.84l-1.17-0.1c-1.08-0.39-2.15-0.78-3.29-1.27-1.42 0.08-2.76 0.15-4.17 0.12-0.08-0.01-0.23-0.02-0.31-0.03-0.09-0.9-0.18-1.9-0.18-2.89 0.73-0.33 1.54-0.75 2.36-1.17 0.7 0.07 1.48 0.13 2.15 0.68 0.88-0.32 1.84-0.53 2.72-0.76 0.84-0.82 1.97-0.13 2.99-0.24 0.78 0.07 1.56 0.13 2.26 0.19 3.09 0.66 6.19 1.24 9.3 1.77 0.25-0.18 0.49-0.26 0.81-0.43 1.23 0.39 2.46 0.78 3.69 1.28 0.47 0.04 1.01 0.08 1.48 0.12 1.87 1.53 2.65 1.69 3.31 1.15 0.63-0.05 1.27-0.2 1.9-0.25 1.6 0.82 0.59-2.13 1.99-1.83 0.43 0.72 0.95 1.35 1.38 2.07 1.17 0.09 3.17 2.4 3.47-0.25 0.9 0.76 2.71 0.89 3.76 0.27 1.38 0.69 1.63 0.31 3.41-0.75 0.11 2.48 0.59 2.42 1.86 0.62 2.74 1.78 5.91 1.37 8.21 1.03 1.08 0.37 2.7 1.17 3.08-0.29 3.07-0.01 5 0.72 7.94 0-0.76-2.52 2.01-1.17 2.62-0.74 1.22 2.94 4.47 0.35 5.94 3.11-1.34 0.12-2.19 1.66-3.46 1.78-3.96 0.05-7.91 0.12-11.77 0.18zM491.96 673.76c-1.67 0.95-4.5 1.21-5.35-0.46 0.99-1.4 2.53-0.48 5.35 0.46zM481.12 673.78c-1.21 1.08-3.45 0.87-4.19 0.11 0.02-1.39 1.63-1.44 4.19-0.11zM475.33 673.74c-1.63 1.24-2.74 1.13-3.9 0.53-1.04-0.1-2-0.2-3.04-0.3 0.35-0.36 0.88-1.89 3.11-0.58l3.83 0.35zM465.35 673.65c-1.72 1.31-2.84 1.2-3.92 0.59-1.06 0.19-2.13 0.38-3.2 0.66-1.15 0.17-2.37 0.36-3.52 0.53-2.31-0.36-3.7 1.57-6.74 1.13-1.16 0.27-2.31 0.44-3.54 0.59-0.97-0.01-1.53-0.96-2.55-1.28l0.91-1.79 2.32 0.26c1.01 0.41 1.94 0.82 2.95 1.33 0.39-0.65 0.68-1.22 0.98-1.78 0.61 0.37 1.77 1 2.41-0.72l0.72 0.08c0.85 0.39 2.32 1.16 3.2-0.64l0.72 0.08c0.76 0.48 1.54 0.85 2.23 1.22 1.38-0.06 1.08-1.28 3.2-0.67 1.2 0.14 2.56 0.28 3.83 0.41zM435.24 676.08c-0.05 0.44-0.13 0.8-0.26 1.1 0-0.4-0.02-0.79-0.02-1.17 0.09 0.02 0.18 0.05 0.28 0.07z" fill="#FAF2E5" opacity=".81" /><path d="M454.19 668.72c1.11 0.22 2.2 0.53 3.38 0.85 1.56 0.56 2.27-1.16 2.83-2.09-0.56 0.93-1.27 2.65-2.83 2.09-1.17-0.32-2.27-0.62-3.38-0.85zM453.27 670.01c-0.9 0.1-1.96-0.62-2.89 1.66-0.51 0.23-1.09 0.48-1.6 0.71-0.9 0.1-1.79 0.1-2.68 0.19-0.77-0.38-1.54-0.77-2.22-1.24-0.88 0.79-2.11 0.16-3.26 1.12l-2.64-0.31c0.18-0.97 0.11-1.87-0.51-2.95l0.4 0.05c2.01 0.07 4.1 0.14 6.19 0.21 2.96 0.24 5.01-1.02 7.47-1.54 0.62 0.27 1.25 0.44 1.87 0.71-0.05 0.51-0.09 1-0.13 1.39z" fill="#F4E2C5" opacity=".81" /><path d="M585.12 650.71c-0.09 1.81-0.2 3.62-0.31 5.41-2.73 0.16-5.63-0.37-7.7-0.8-1.3-1.54-4.21-0.31-7.56-1.87l0.04-0.88c2.12 0.09 3.88 0.18 6.07-1.66l0.04-0.9c-1.19-0.07-2.54-0.13-3.81-0.2-0.71-0.04-1.5-0.07-2.21-0.11 0 0.09-0.02 0.29-0.02 0.49-1.17-0.26-2.27-0.51-3.46-0.68-0.49 0.48-0.99 0.84-1.56 1.3-0.46-0.62-0.99-1.35-1.43-1.98-0.99 0.95-2.45-0.04-3.44 0.8-0.86-0.53-1.77-1.1-2.63-1.63 0.16-0.29 0.35-0.59 0.44-0.88 2.3 1.52 2.78-2.71 3.79 0.22l1.88 0.11c1.02 0.16 2.05 0.42 3 0.57 1.04-0.33 2.09-0.77 3.13-1.23 0.86 0.35 1.72 0.7 2.58 1.13 0.57-0.37 1.04-0.64 1.61-0.91 0.69 0.53 1.46 1.06 2.16 1.5 0.66-0.57 1.52-0.31 3.46 1.17-0.42 0.48-0.82 0.93-1.24 1.32 2.18 1.59 2.56-0.37 3.42-0.22 1.24-0.09 2.65 0.33 3.75-0.07zM550.32 648.61c-0.8 0.05-1.51 0.2-2.31 0.35 0.01-0.2 0.02-0.4 0.02-0.49-0.71 0.05-1.51 0.2-2.31 0.35-0.01 0.3-0.03 0.59-0.04 0.89-0.71-0.05-1.5-0.1-2.21-0.14-1.26-0.18-2.59-0.46-3.77-0.74-0.64 0.26-1.22 0.62-1.92 0.37-0.7-0.34-1.24-0.67-1.85-1.01 1.46-0.7 1.68-2.07 4.2-1.71 1.41 0.29 2.74 0.57 4.16 0.76 0.16 0.01 0.24 0.01 0.39 0.02 1.12-0.22 2.31-0.45 3.43-0.67 0.79 0.15 1.49 0.39 2.27 0.54 0.76 0.55 1.47 1.07 2.23 1.62-0.79-0.05-1.51-0.1-2.29-0.14zM543.72 634.83c-0.36 0.97-1.01 1.62-1.6 2.28-0.69-0.34-1.23-0.67-1.84-1.01 1.09 0.27 0.38-1.46 2.3-2.23l1.14 0.96zM521.41 648.56c-2.15 0.16-4.29 0.27-6.45 0.5-2.85-0.08-5.62-0.17-8.38-0.25-0.8 0.14-1.35 1.38-2.35 0.81-0.62-0.24-1.24-0.4-1.86-0.65-2.32 0.3-4.56 0.6-6.88 0.9-1.25-0.31-2.5-0.61-3.75-0.82l3.88-1.16c2.36 0.2 3.26-1.41 6.83-0.31 1.21-0.29 2.33-0.5 3.45-0.71 1.77-0.46 2.95-0.46 4.65-1.03 1.49 0.21 2.98 0.53 4.54 0.85 1.41-1.08 3.15 0.24 4.07 0.71 0.78 0.26 1.56 0.51 2.26 0.66 0.01 0.21 0 0.3-0.01 0.5zM502.91 634.25c-0.23-0.12-0.45-0.34-0.68-0.46-0.82 0.53-1.56 1.06-2.39 1.68-0.24-0.02-0.47-0.04-0.78-0.07-1.11-1.09-2.15-1.97-4.27-3.24 0.12-0.58 0.32-1.26 0.52-1.84 0.7 0.06 1.48 0.13 2.19 0.19l3.04 0.26c0.91 0.57 1.38-0.78 2.29-0.3 0.64 1.04 1.36 2 2.01 3.04l-1.93 0.74z" fill="#EFD2A4" opacity=".81" /><path d="M495.95 637.02c-0.88 0.22-0.75 0.82-2.03 2.21-0.24-0.04-0.48-0.05-0.79-0.07 0.02-0.2 0.02-0.29 0.04-0.49-1.92-0.66-2.34 0.7-4.15 0.64-0.62-0.05-1.65 0.05-1.5-1.13-1.76-0.66-2.47 0.57-3.49 1.55-3.22-1.19-6.46-0.11-9.4-0.88-2.95-0.68-2.34 3.84-2.76 5.98-1.04 0.29-1.39-1.43-2.05-2.09-0.95 0.2-1.85 0.4-2.73 0.6-0.27 0.46-0.55 0.93-0.91 1.39-0.86 0.02-1.92-0.59-2.36 1.65-0.55-0.05-1.01-0.11-1.56-0.16l-0.91 2.29c-1.46-0.64-3.02-0.8-4.61 0.02-0.71 0.04-1.52 0.13-2.31 0.15-1.17-2.03-2.54 0-4.63 0.97-0.31-0.04-0.55-0.07-0.79-0.09-0.29-1.04-0.53-1.96-0.82-2.98-1.45 0.13-2.8 0.27-4.26 0.51-0.84 0.49-1.61 1.01-2.45 1.61-0.71 0.02-1.52 0.13-2.32 0.22-0.05 0.38-0.09 0.88-0.15 1.37-0.51 0.24-1.08 0.46-1.59 0.79-1.02-0.13-2.12-0.26-3.15-0.38-0.07-2.91-0.15-5.8-0.24-8.69 1.3 0.11 2.8 0.7 4.32 0.04-0.15-0.91-0.29-1.92-0.42-2.84-1.15-0.35-2.23-0.68-3.38-0.91 0.99-1.17 2.82-0.44 2.89-2.03 1.43-0.02 2.76-0.05 4.17 0.02 2.58-0.49 4.59-1.76 8.2-2.43-2.91-0.15-2.67-1.79-3.2-2.76 0.35-0.35 0.62-0.82 0.91-1.28 0.73 0.38 1.41 0.77 2.16 1.24 0.11-1.19 0.2-2.27 0.31-3.35 0.64-0.13 1.26-0.15 1.9-0.27 0.04 0.49 0.13 1.01 0.26 1.52 3.02-0.55 3.29 3.26 5.49 1.52 0.02-0.09 0.04-0.29 0.05-0.49 0.93 0.09 1.94 0.2 2.95 0.31 1.04-0.2 1.99-0.38 3.04-0.59 0.22-0.77 0.44-1.54 0.59-2.32 1.79 0.18 3.49 0.37 5.2 0.55 0.44 1.34 0.82 2.56 1.26 3.9-0.93 1.7-3.31-0.73-3.62 2.01 0.49 0.57 0.95 1.08 1.43 1.63 0.79-0.02 1.7 0.38 2.27-0.75 3.79-0.11 6.57-0.37 9.88-0.44 1.48 0.15 3.04 0.29 4.52 0.42 0.62 0.16 1.23 0.42 1.85 0.57 1.1 0.02 2.29-0.07 3.38-0.09 0.77 0.38 1.46 0.71 2.21 1.08l0.71 0.07c0.6 0.12 0.89-0.74 2.59 0.68z" fill="#E8BF7E" opacity=".81" /><path d="M492.69 635.36c-0.78-0.07-1.49-0.13-2.27-0.19-1.1 0.01-2.29 0.1-3.39 0.1l-1-2.47c-0.29 0.66-0.55 1.24-0.84 1.9-1.48-0.14-3.04-0.29-4.53-0.43-0.32-1.02-0.55-2.04-0.88-2.96 0.48-0.15 1.04-0.3 1.52-0.35 1.5-0.02 2.98-0.04 4.56-0.07 0.08 0.01 0.23 0.02 0.31 0.03 1.41 0.03 2.75-0.04 4.17-0.12 1.14 0.49 2.22 0.89 3.29 1.27-0.31 1.06-0.62 2.13-0.94 3.29zM486.01 649.44c-4.48-1.71-6.89-1.14-9.13 0.13 2.24-1.27 4.66-1.84 9.13-0.13z" fill="#EFD2A4" opacity=".81" /><path d="M467.08 633.82c0.31-2.75 2.7-0.32 3.62-2-0.43-1.34-0.82-2.56-1.25-3.91 0.64-0.13 1.28-0.26 1.9-0.29 0.29 0.33 0.5 0.64 0.7 1.06-0.06 0.79-0.12 1.48-0.19 2.36 1.83 0.69 2.24-1.57 3.43-0.66 1.47 0.24 3.02 0.58 4.48 0.92 0.32 0.92 0.56 1.94 0.88 2.96-3.31 0.07-6.08 0.33-9.87 0.44-0.56 1.13-1.48 0.74-2.26 0.76-0.49-0.56-0.95-1.08-1.44-1.64z" fill="#ECC992" opacity=".81" /><path d="M475.29 630.38c-1.18-0.91-1.6 1.35-3.43 0.66 0.07-0.88 0.12-1.57 0.19-2.36 1.09 0.1 2.26 0.22 3.35 0.32-0.03 0.4-0.07 0.89-0.11 1.38zM470.23 651.32c-0.85-0.29-1.79-0.48-2.64-0.77l0.07-0.89c0.82-0.31 1.12-1.07 3.07 0.32-0.18 0.38-0.38 0.86-0.5 1.34zM465.82 653.75c-0.48 1.04-0.91 2.09-1.39 3.13l-2.87-2.67c-0.07-0.02-0.24-0.04-0.31-0.04-0.97 0.09-1.85 0.2-2.73 0.2-0.31 0.77-0.62 1.54-1.01 2.29-2.07 0.44-3.55 2.3-5.96 2.23h-0.02c-0.22 0-0.44-0.04-0.68-0.07 0.02 0.16 0.02 0.31 0 0.42h-0.02c-0.07 0.48-0.42 0.49-0.82 0.44-0.09 0-0.18-0.02-0.27-0.02-0.07-0.02-0.13-0.02-0.2-0.02-0.35-0.02-0.66 0.02-0.79 0.4v0.02c-0.07 0.2-0.07 0.49-0.02 0.9-0.53 0.27-1.04 0.46-1.56 0.57-0.38 0.09-0.77 0.13-1.15 0.13h-0.04c-2.2-0.02-4.26-1.21-6.4-1.76h-0.06c-1.12-0.29-2.27-0.38-3.46-0.02h-0.02c-0.37 0.09-0.75 0.26-1.13 0.46-0.13 0-0.27-0.02-0.4-0.05v-0.35c-0.04-1.08-0.05-2.16-0.09-3.24 0.8-0.42 1.57-0.57 2.45-0.49 0.91-0.29 1.9-0.66 2.82-1.04-0.82-0.4-1.76-0.82-2.58-1.32 0.09-0.9 0.2-1.87 0.29-2.76 0.51-0.33 1.08-0.55 1.59-0.79 0.79 0.09 1.57 0.18 2.29 0.27 0.77 0.18 1.46 0.46 2.23 0.75 1.94-0.38 3.46-1.19 5.45-1.26 0.02-0.2 0.04-0.4 0.04-0.49 0.24 0.02 0.48 0.05 0.79 0.09l4.48 0.49c0.81-0.09 1.61-0.2 2.32-0.24 0.48 0.16 1.01 0.4 1.46 0.66 0.88-0.11 1.85-0.2 2.71-0.22 0.26-0.16 0.51-0.24 0.84-0.4 0.68 0.26 1.46 0.44 2.16 0.71-0.04 0.49-0.09 0.99-0.11 1.37 0.75 0.58 1.5 1.15 2.17 1.72z" fill="#EFD2A4" opacity=".81" /><path d="M449.8 633.84c-3.6 0.68-5.62 1.94-8.2 2.43-1.41-0.07-2.74-0.04-4.17-0.02-0.07 1.59-1.9 0.86-2.89 2.03 1.15 0.24 2.23 0.57 3.38 0.91 0.13 0.91 0.27 1.92 0.42 2.84-1.52 0.66-3.02 0.07-4.32-0.04-0.11-4.46-0.24-8.93-0.37-13.37 0.88 0.09 1.76 0.22 2.65 0.33 1.43-0.22 2.76-0.35 4.19-0.48 1.17-0.73 2.32-0.6 3.42-0.49 1.28-0.24 2.54-0.4 3.81-0.55 0.77 0.09 1.46 0.16 2.25 0.26-0.11 1.08-0.2 2.16-0.31 3.35-0.75-0.48-1.43-0.86-2.16-1.24-0.29 0.46-0.57 0.93-0.91 1.28 0.54 0.97 0.3 2.62 3.21 2.76z" fill="#ECC992" opacity=".81" /><path d="M581.37 650.79c-0.87-0.14-1.25 1.82-3.41 0.22 0.41-0.38 0.82-0.85 1.23-1.32 0.7 0.34 1.48 0.68 2.18 1.1z" fill="#F2DAB5" opacity=".81" /><path d="M487.03 635.26c-0.62-0.16-1.23-0.41-1.85-0.57 0.29-0.66 0.55-1.24 0.84-1.9l1.01 2.47zM463.66 629.7c-1.03 0.2-2 0.38-3.03 0.58-1.01-0.11-2.02-0.21-2.95-0.31-0.02 0.2-0.04 0.4-0.04 0.5-2.2 1.75-2.48-2.07-5.5-1.52-0.11-0.51-0.22-1.02-0.25-1.52 2.48-0.61 3.95-1.33 5.7-0.74 2.25 0.23 4.42 0.46 6.67 0.69-0.15 0.77-0.38 1.54-0.6 2.32zM456.54 642.76c-0.78-0.09-1.56-0.18-2.27-0.26-0.49-0.65-0.9-1.39-1.32-2.04-3.7-1.71-6.01 1.8-9.11-0.54l0.1-0.98c1.43-0.14 2.79-0.28 4.23-0.51 2.42-0.52 5.8 0.36 8.66 0.99-0.09 1.07-0.2 2.25-0.29 3.34zM448.97 650.04c-1.99 0.07-3.5 0.89-5.45 1.27-0.77-0.29-1.46-0.57-2.23-0.75-0.71-0.08-1.49-0.18-2.28-0.27l0.14-1.37c0.8-0.09 1.61-0.2 2.33-0.22 0.85-0.6 1.62-1.11 2.46-1.61 1.45-0.23 2.81-0.38 4.25-0.51 0.29 1.03 0.54 1.94 0.83 2.98l-0.05 0.48zM439.7 655.15c-1.61 1.68-2.23 1.61-2.82 1.04-0.88-0.07-1.65 0.07-2.45 0.49-0.05-2.01-0.11-4.01-0.16-6 1.02 0.13 2.12 0.26 3.15 0.38-0.09 0.9-0.2 1.87-0.29 2.76 0.81 0.51 1.75 0.93 2.57 1.33z" fill="#ECC992" opacity=".81" /><path d="M516.43 635.81c-1.32 0.87-2.6 1.7-3.93 2.56-0.08-0.01-0.24-0.02-0.4-0.03-0.22-0.31-0.43-0.63-0.65-1.04 0.05-0.89 0.11-1.87 0.16-2.76l4.46 0.35c0.16 0.31 0.3 0.62 0.36 0.92z" fill="#E8BF7E" opacity=".81" /><path d="M440.03 667.12c-0.82 0.2-1.57 0.42-2.41 0.71-0.04 0.38-0.09 0.88-0.15 1.37-0.68 0.4-1.37 0.82-2.05 1.13 0.02 1.1 0.04 2.29 0.05 3.38-0.18-0.02-0.38-0.05-0.59-0.07-0.09-3.6-0.18-7.19-0.29-10.78 0.29-0.02 0.57-0.07 0.88-0.09 2.41-0.71 2.62 2.73 5.52 2.56 0.3 1.13-0.92 1.29-0.96 1.79z" fill="#F4E2C5" opacity=".81" /><path d="M435.47 673.72l-0.24 2.36c-0.09-0.02-0.18-0.05-0.27-0.07-0.02-0.79-0.05-1.57-0.07-2.36 0.2 0.02 0.4 0.05 0.58 0.07z" fill="#F7EAD6" opacity=".81" /><path d="M441.89 675.88c-1.67 1.41-4.45 1.58-6.67 0.21l0.24-2.36c1.43 0.27 2.77 0.66 4.19 1.01 0.71 0.35 1.48 0.75 2.24 1.14z" fill="#FAF2E5" opacity=".81" /><path d="M461.54 663.72c-1.79 1.31-2.67 1.22-3.54 1.13-0.92-4.16 2.18-2.95 3.54-1.13z" fill="#F4E2C5" opacity=".81" /><path d="M535.92 648.19c-0.71-0.15-1.07 0.82-1.65 1.27-0.62-0.24-1.25-0.38-1.87-0.62l-2.68 1.3-0.74-1.04c-1.31 0.8-3.01 0.09-4.52 0.18-0.77-0.45-1.54-0.8-2.24-1.15 0.63 0.04 1.07-0.82 1.57-1.28 1.73 0.12 3.55 0.25 5.28 0.37 0.63 0.04 1.26 0.09 3.35 1.13 0.88-0.04 1.34-1.3 3.5-0.16z" fill="#EFD2A4" opacity=".81" /></svg>