<?xml version="1.0" standalone="no"?><!DOCTYPE svg PUBLIC "-//W3C//DTD SVG 1.1//EN" "http://www.w3.org/Graphics/SVG/1.1/DTD/svg11.dtd"><svg class="icon" width="200px" height="200.00px" viewBox="0 0 1024 1024" version="1.1" xmlns="http://www.w3.org/2000/svg"><path d="M454 439.88c-3.12-9.73-7.02-20.61-13.48-28.66-9.07-11.31-32.1-16.05-41.82-3.2-12.47 16.47-20.88 41.42-12.71 61.29 0.36 0.88 1.03 1.4 1.77 1.65 0.38 0.86 1.17 1.52 2.39 1.52 14.48 0.01 28.95 0.03 43.43 0.02 7.36-0.01 19.7 1.18 23.86-6.8 3.76-7.21-1.22-18.92-3.44-25.82z" fill="#96BD78" /><path d="M460.77 300.29c-1.17-11.79-1.89-27.71-8.48-37.88-5.27-8.13-17.74-13.25-27.18-11.96-23.37 3.19-35.7 32.36-34.38 53.23 0.96 15.25 8.63 29.48 11.41 44.5 3.47 18.76 7.16 37.5 9.94 56.38 1.23 8.32 14.41 9.84 21.45 7.47 9.51-3.2 12.72-15.04 15.86-23.46 10.43-28.02 14.33-58.55 11.38-88.28zM402.66 382.37c-2.06-5.91-4.44-11.77-7.4-17.3-5.29-9.86-12.43-18.76-21.8-25-7.26-4.84-21.09-11.39-30.12-8.06-7.91 2.91-6.12 15.8-5 22.17 2.53 14.37 10.07 27.97 15.95 41.19 5.46 12.27 10.09 26.13 19.27 36.23 5.55 6.1 14.35 10.9 22.59 7.01 10.11-4.77 12.13-19.79 11.79-29.44-0.13-3.61-2.78-19.63-5.28-26.8z"  /><path d="M346.98 368.46c-5.45-5.58-18.23-12.17-23.87-9.27-8.52 4.38 2.89 22 6.21 26.31 3.43 4.45 7.53 8.34 12.16 11.52 3.17 2.18 8.78 6.37 13.05 5.3 11.06-2.79-5.26-31.52-7.55-33.86zM349.2 274.39c-3.6-4.66-8.45-11.59-15.42-9.8-5.23 1.35-5.58 7.16-6.15 11.97-2.42 20.45 9.35 38.34 16.62 56.5 0.41 1.03 1.23 1.58 2.11 1.76 4.95 6.13 13.39-6 14.75-11.66 3.74-15.59-2.36-36.44-11.91-48.77zM404.09 268.81c-1.14-7.39-6.04-26.69-16.61-25.8-10.53 0.89-7.35 15.03-5.69 21.39 2.42 9.26 5.8 22.97 17.3 23.61 0.76 0.04 1.34-0.19 1.77-0.56 7.72 0.02 3.93-14.07 3.23-18.64zM434.64 199.53c-7.58-8.75-26.83-7.49-33.68 2.3-4.08 5.83-2.29 16.18-1.23 22.8 1.84 11.54 5.8 23.1 9.5 34.16 0.19 0.56 0.5 0.97 0.87 1.28 0.05 0.38 0.19 0.77 0.47 1.17 3.47 4.91 8.88 3.88 13.93 1.57 6.28-2.87 7.48-7.04 9.92-13.23 6.36-16.19 13.1-35.17 0.22-50.05zM540.47 251.78c-0.08-11.85-1.57-44.83-19.81-34.2-12.25 7.13 5.32 31.21 14.37 36.55 0.44 3.07 5.43 2.93 5.45-0.45v-1.38c0.01-0.18 0.01-0.35-0.01-0.52z"  /><path d="M639.07 388.63c-6.41-9.83-16.05-20.59-28.25-22.55-11.98-1.92-26.34 6.87-32.91 16.58-4.47 6.61-7.06 14.76-10.19 22.04-3.55 8.24-7.18 16.44-10.63 24.72-5.7 13.7-12.07 23.69-5.45 41.39 0.71 1.89 12.98 9.49 15.33 9.74 40.09 4.33 40.72-2.69 61.84-21.33 9.15-8.07 22-17.84 22.29-31.08 0.29-13.74-4.57-28.08-12.03-39.51z" fill="#96BD78" /><path d="M667.8 342.17c-8.98 3.62-16.43 10.26-23.88 16.27-6.22 5.01-18.1 10.69-18.39 19.62-0.01 0.19-0.65 7.53 1.07 10.24 3.02 4.76 10.96 2.05 15.42 1.04 10.57-2.39 20.57-7.08 30.22-11.9 8.26-4.13 17.07-8.99 21.18-17.73 8.91-18.93-12.01-23.03-25.62-17.54zM647.49 298.19c-7.66-0.36-18.07 3.35-24.02 8.07-7.2 5.72-11.05 15.83-15.52 23.6-4.3 7.49-7.18 12.96-4.29 21.64 1.33 3.99 3.2 7.86 6.15 10.52 4.71 1.46 17.62 3.76 24.07-1.94 7.15-6.33 11.86-16.15 16.1-24.54 3.9-7.74 14.17-36.57-2.49-37.35zM470.78 379.58c-5.6 1.28-9.09 8.67-12.15 12.79-6.11 8.25-12.41 16.34-18.86 24.33-0.38 0.25-0.69 0.63-0.86 1.17-0.31 0.6-0.36 1.23-0.25 1.83-0.28 7.15 5.96 13.23 13.39 9.19 4.89-2.66 8.36-9.13 11.52-13.41 4.86-6.58 10.87-13.31 14.27-20.79 2.71-5.94 2.39-17.26-7.06-15.11zM473.9 338.95c-4.99 2.54-7.91 8.31-10.69 12.86-4.93 8.07-9.84 16.16-14.77 24.24-1.11 1.83 0.18 3.55 1.79 3.97 2.35 3.06 8.79 2.63 12.27-0.29 2.13-1.8 3.72-4.19 5.41-6.38 2.81-3.66 5.74-6.06 9.31-8.93 3.77-3.02 6.37-6.22 7.1-11.14 1.07-7.18-0.38-19.43-10.42-14.33z"  /><path d="M594.14 250.87c-1.8-8.27-3.75-16.55-6.11-24.68-1.64-5.65-3.62-14.61-8.13-18.79-7.24-6.72-16.44 5.45-20.15 10.92-18.44 27.18-18.13 62.53-18.03 93.79 0.07 21.67-2.12 43.29-1.82 64.97 0.12 8.77 0.61 17.6 3.98 25.82 2.83 6.91 6.63 11.8 10.28 19.12 0.91 1.81 2.01 4.4 4.7 3.91 13.71-2.55 22.86-12.72 29.65-24.3 7.59-12.95 14.08-26.86 15.34-41.98 2.97-35.84-2.12-73.8-9.71-108.78z"  /><path d="M526.63 256.33c-15.28-1.61-9.98 21.98-8.43 29.77 1.96 9.87 4.86 19.54 7.89 29.13 1.26 4 2.21 11.18 7 12.81 4.63 1.58 8.26-2.29 9.61-6.25 3.15-9.2 6.56-20.73 4.73-30.28-0.59-3.03-7.99-33.83-20.8-35.18zM554.72 394.23c-0.79-15.41-9.7-39.89-12.33-44.15-3.97-6.43-9.56-11.71-14.33-17.57-3.56-4.36-6.88-9.45-11.97-12.13-5.83-3.07-17.52-5.1-22.44 0.5-6.85 7.79 0 18.25 3.93 25.42 2.29 4.18 3.52 7.51 3.92 12.41 0.21 2.55-0.18 5.08 0.49 7.61 1.23 4.68 4.61 7.83 7.67 11.33 8.62 9.88 12.31 22.49 20.17 32.82 3.73 4.9 13.82 15.73 21.22 12.22 7.49-3.55 3.98-22.39 3.67-28.46zM521.23 460.44c3.25-5.44 1.54-12.27 1.24-18.81-0.47-10.28-1.78-20.56-3.72-30.67-1.9-9.9-10.84-28.5-23.55-17.74-4.87 4.12-5.63 10.96-4.65 16.86 1.66 10.02 5.64 19.99 8.66 29.67 3.59 11.49 16.53 20.69 22.02 20.69z"  /><path d="M543.86 422.44c-3.6-5.14-8.19-4.79-13.08-1.26-7.9 5.7-1.4 15.79 6.22 19.93 0.71 1.04 7.91 3.59 10.6 2.71 1.15-0.38 2.03-1.4 2.01-2.65-0.07-6.68-1.9-13.23-5.75-18.73z"  /><path d="M620.17 274.5c-1.82 8.25-2.95 16.55-3.4 24.99-0.05 0.88 1.33 0.88 1.37 0 0.44-8.31 1.56-16.5 3.35-24.62 0.19-0.86-1.13-1.23-1.32-0.37zM625.18 275.43c-1.83 7.93-3.67 15.86-5.5 23.79-0.2 0.86 1.12 1.23 1.32 0.36 1.83-7.93 3.67-15.86 5.5-23.79 0.21-0.85-1.12-1.22-1.32-0.36zM630.62 277.83c-2.53 8.16-5.7 16.03-9.53 23.67-0.4 0.79 0.79 1.48 1.18 0.69 3.88-7.74 7.1-15.72 9.67-23.99 0.26-0.85-1.06-1.21-1.32-0.37zM521.16 225.45c-0.51 9.11 5.7 19.19 11.02 26.12 0.53 0.69 1.72 0.01 1.18-0.69-5.24-6.81-11.34-16.51-10.84-25.42 0.06-0.89-1.31-0.89-1.36-0.01z" fill="#374210" /><path d="M527.14 223.14c-0.1 3.86 1.22 7.5 2.06 11.23 1.06 4.76 1.87 9.56 2.5 14.39 0.11 0.86 1.49 0.87 1.37 0-0.49-3.73-1.05-7.44-1.79-11.13-0.94-4.74-2.9-9.64-2.77-14.49 0.03-0.88-1.35-0.88-1.37 0zM531.09 223.5c3.07 8.76 4.29 17.76 3.67 27.02-0.06 0.88 1.31 0.88 1.37 0 0.62-9.42-0.61-18.47-3.72-27.38-0.29-0.83-1.61-0.48-1.32 0.36zM380.49 251.07c1.86 11.47 5.72 22.18 11.56 32.22 0.44 0.76 1.63 0.07 1.18-0.69-5.79-9.95-9.58-20.54-11.42-31.89-0.14-0.87-1.46-0.5-1.32 0.36zM386.78 251.46c2.06 10.72 5.42 20.99 10.05 30.87 0.37 0.8 1.56 0.1 1.18-0.69-4.59-9.79-7.87-19.93-9.91-30.54-0.17-0.87-1.49-0.5-1.32 0.36zM394.49 253.05a225.92 225.92 0 0 1 7.59 24.14c0.22 0.86 1.54 0.49 1.32-0.36-2.08-8.19-4.61-16.23-7.59-24.14-0.3-0.83-1.63-0.47-1.32 0.36zM473.92 342.22c-5.41 2.76-8.47 8.38-11.42 13.47-3.6 6.2-6.49 12.72-8.87 19.47-0.29 0.83 1.03 1.19 1.32 0.36 3.48-9.88 9.71-27.05 19.66-32.11 0.79-0.41 0.1-1.59-0.69-1.19z" fill="#374210" /><path d="M456.34 377.5c5.34-12.27 15.77-21.11 22.5-32.52 0.45-0.76-0.74-1.45-1.18-0.69-6.73 11.42-17.15 20.24-22.5 32.52-0.35 0.8 0.83 1.5 1.18 0.69zM459.76 376.91c4.01-5.88 8.12-11.57 13.39-16.41 3.44-3.16 6.63-6.1 8.45-10.47 0.34-0.81-0.99-1.17-1.32-0.36-2.4 5.74-7.73 9.11-11.82 13.52-3.72 4-6.81 8.53-9.88 13.03-0.5 0.73 0.69 1.42 1.18 0.69zM322 368.39c3.59 6.24 5.87 12.73 11.01 17.97 4.74 4.84 10.57 8.51 16.26 12.11 0.75 0.47 1.44-0.71 0.69-1.18-5.61-3.54-11.31-7.13-15.98-11.89-5.09-5.18-7.26-11.54-10.79-17.69-0.44-0.78-1.63-0.09-1.19 0.68zM329.62 366.87c1.34 3.79 4.19 6.76 6.67 9.86 3.51 4.39 7.02 8.79 10.53 13.18 0.55 0.69 1.52-0.29 0.97-0.97l-8.42-10.55c-2.93-3.67-6.84-7.4-8.42-11.89-0.3-0.82-1.62-0.47-1.33 0.37zM339.94 368.94c5.25 8.95 11.84 17.19 13.33 27.78 0.12 0.87 1.44 0.5 1.32-0.36-1.5-10.68-8.15-19.05-13.46-28.1-0.45-0.78-1.64-0.09-1.19 0.68z" fill="#374210" /><path d="M679.54 651.83c-0.26-0.84-0.49-1.66-0.75-2.51-0.75-2.36-1.55-4.7-2.47-7.04-0.05-0.15-0.13-0.26-0.18-0.37-0.04-0.09-0.05-0.2-0.09-0.29-12.18-28.61-37.21-50.97-44.25-81.86-2.03-8.87-5.1-15.24-5.34-24.31-0.22-8.6 1.45-20.8 3.62-29.21 3.46-13.41 18.57-18.93 21.2-32.64 0.37-1.88-0.79-3.27-2.65-3.48-45.57-4.74-91.98-12.59-137.88-9.38-22.89 1.59-45.59 5.16-68.42 7.46-10.21 1.02-20.45 1.83-30.7 2.07-5.67 0.13-11.34 0.11-17.01-0.15-6.18-0.27-13.57-2.31-19.65-1.81-5.31 0.44-6 3.81-8.49 8.63-4.45 8.62-8.14 17.62-11.01 26.86-6 19.19-8.69 39.75-7.02 59.82 2.6 31.54 17.84 59.07 29.32 87.88 0.51 1.24 1.01 2.49 1.46 3.75 3.15 8.14 5.93 16.39 7.99 24.9 5.93 24.42 5.01 25.34-9.02 46.83-10.72 16.39-15.79 30.02-22.72 48.7-0.62 1.66 0.99 3.51 2.65 3.48 33.46-0.68 57.79-0.24 91.21 1.43 32.23 1.63 64.69 6.7 96.94 6.31 30.92-0.37 63.72-6.4 93.32-15.22 27.07-8.07 32.05-10.02 37.89-34.59 6.64-28 9.99-57.45 2.05-85.26z" fill="#E8D173" /><path d="M372.76 555.52c-1.31 1.19 0.64 3.13 1.94 1.94 2.52-2.3 4-5.27 6.01-7.98 2.68-3.61 5.84-6.92 8.77-10.31 1.15-1.33-0.78-3.28-1.94-1.94-2.73 3.16-5.56 6.25-8.16 9.52-2.29 2.87-3.89 6.27-6.62 8.77zM383.17 555.4c-1.48 0.96-0.1 3.33 1.38 2.37 3.25-2.1 3.71-5.21 5.36-8.46 2.17-4.27 6.35-7.1 10.16-9.79 1.43-1.01 0.06-3.39-1.38-2.37-3.28 2.31-6.67 4.67-9.2 7.83-2.45 3.06-3.01 8.28-6.32 10.42zM405.41 555.67c-1.12 1.35 0.81 3.3 1.94 1.94 2.93-3.53 6.73-6 10.3-8.82 3.65-2.89 7.04-6.05 10.21-9.45 1.2-1.29-0.73-3.23-1.94-1.94-3.17 3.4-6.56 6.58-10.21 9.45-3.58 2.82-7.36 5.28-10.3 8.82zM418.34 556.05c-0.83 1.56 1.54 2.95 2.37 1.39 1.99-3.73 5.05-6.46 8.11-9.29 3.17-2.92 6.07-6.19 10.29-7.55 1.67-0.54 0.96-3.19-0.73-2.65-4.34 1.4-7.33 4.37-10.59 7.42-3.52 3.28-7.16 6.38-9.45 10.68zM458.63 557.38c2.36-2.93 4.75-5.84 7.19-8.71 2.37-2.79 4.8-6.51 7.92-8.49 1.48-0.95 0.11-3.32-1.38-2.37-3.05 1.94-5.28 5.19-7.61 7.91-2.74 3.2-5.42 6.45-8.06 9.73-1.09 1.36 0.84 3.31 1.94 1.93zM532.29 556.17c-1.07 1.38 0.85 3.33 1.94 1.94 2.86-3.66 5.92-7.13 9.25-10.37 2.94-2.87 6.94-5.28 9.17-8.76 0.96-1.49-1.42-2.87-2.37-1.39-2.25 3.51-6.73 6.18-9.69 9.14-2.97 2.97-5.72 6.13-8.3 9.44zM566.95 556.55c-0.98 1.47 1.39 2.85 2.37 1.39 2.58-3.87 5.35-7.6 8.38-11.13 2.1-2.46 5.66-4.95 6.48-8.15 0.44-1.71-2.21-2.44-2.65-0.73-0.49 1.9-2.7 3.45-3.96 4.87-1.37 1.53-2.71 3.1-4 4.71-2.35 2.9-4.54 5.92-6.62 9.04zM575.95 556.09c-0.96 1.49 1.42 2.87 2.37 1.38 2.21-3.45 4.62-6.75 7.31-9.84 2.27-2.62 5.3-6.89 8.59-8.14 1.63-0.62 0.93-3.28-0.73-2.65-3.76 1.43-6.78 5.42-9.38 8.37-3.01 3.41-5.71 7.05-8.16 10.88zM588.6 555.44c-1.73 0.21-1.75 2.95 0 2.74 3.08-0.36 4.38-4.66 5.94-6.96 2.96-4.38 6.3-8.47 9.88-12.35 1.2-1.3-0.74-3.24-1.94-1.94-2.53 2.74-4.94 5.58-7.19 8.56-1.08 1.42-2.12 2.88-3.12 4.35-0.42 0.6-2.9 5.52-3.57 5.6zM609.68 551.25c-0.45 0.89-0.79 2.3-1.34 3.25-0.35 0.13-0.65 0.4-0.77 0.88l-0.03 0.12c-0.14 0.54 0.08 1.3 0.63 1.55 0.05 0.02 0.11 0.05 0.16 0.07 0.52 0.24 1.24 0.27 1.66-0.21 0.92-1.07 1.2-2.5 1.8-3.75 0.85-1.77 1.85-3.48 2.98-5.08 2.08-2.97 4.84-5.33 6.09-8.8 0.6-1.66-2.05-2.38-2.65-0.73-1.18 3.26-4.22 5.78-6.15 8.64-0.88 1.3-1.67 2.66-2.38 4.06zM627.22 542.49c-1.37 1.96-2.52 4.28-3.62 5.95-1.88 2.82-3.77 5.63-5.63 8.45-0.99 1.46-3.37 0.07-2.38-1.39 2.38-3.57 4.76-7.13 7.13-10.7 1.26-1.9 2.4-4.15 3.97-5.89 0.13 1.22 0.31 2.43 0.53 3.58zM360.43 556.15c-0.97 1.48 1.4 2.86 2.37 1.38 2.44-3.72 4.88-7.45 7.72-10.88 2.25-2.7 5.16-4.91 7.09-7.84 0.98-1.48-1.4-2.85-2.37-1.38-2.16 3.28-5.57 5.84-8.01 8.95-2.44 3.13-4.62 6.45-6.8 9.77zM375.8 569.65c-1.09-2.7-2.48-5.41-2.89-8.32-0.25-1.74-2.89-1-2.65 0.73 0.41 2.91 1.8 5.62 2.89 8.32 1.26 3.13 2.52 6.25 3.78 9.38 0.65 1.62 3.31 0.91 2.65-0.73-1.26-3.13-2.52-6.26-3.78-9.38zM385.05 570.84c-0.68-2.66-1.18-5.35-1.58-8.07-0.25-1.74-2.9-1-2.65 0.73 0.52 3.55 1.24 7.06 2.24 10.51 0.74 2.53 1.35 5.55 3.16 7.54 1.19 1.31 3.13-0.64 1.94-1.94-1.76-1.94-2.49-6.31-3.11-8.77zM409.41 571.15c-1.63-3.22-3.83-6.56-4.77-10.04-0.46-1.7-3.11-0.98-2.65 0.73 1.02 3.75 3.3 7.25 5.05 10.7 1.89 3.73 3.81 7.32 6.56 10.48 1.16 1.33 3.1-0.61 1.94-1.94-2.59-2.99-4.35-6.43-6.13-9.93zM435.18 572.11c-1.58-2.74-3.9-5.77-4.17-8.99-0.15-1.75-2.89-1.76-2.74 0 0.26 3.06 1.68 5.41 3.2 8.04 1.91 3.3 3.81 6.61 5.72 9.91 0.88 1.53 3.25 0.15 2.37-1.39-1.46-2.52-2.92-5.04-4.38-7.57zM460.18 568.12c-1.02-2.43-1.74-5.63-4.25-6.9-1.57-0.79-2.96 1.57-1.38 2.37 2.29 1.16 3.56 6.61 4.4 8.74 1 2.53 1.93 5.08 2.82 7.64 0.58 1.66 3.23 0.95 2.65-0.73-1.31-3.75-2.71-7.46-4.24-11.12zM576.89 561.26c-1.52-0.91-2.9 1.46-1.38 2.37 1.47 0.87 2.36 3.17 3.31 4.58 1.2 1.79 2.46 3.53 3.78 5.24 2.31 3 4.78 5.85 7.38 8.59 1.22 1.28 3.16-0.66 1.94-1.94-3.19-3.35-6.18-6.87-8.89-10.62-1.85-2.57-3.38-6.57-6.14-8.22zM618.07 559.63c-1.16-1.33-3.1 0.61-1.94 1.94 2.61 3 4.46 6.82 6.53 10.2 2.12 3.46 4.23 6.91 6.35 10.37 0.92 1.5 3.3 0.13 2.37-1.38-4.23-6.93-7.97-15.01-13.31-21.13zM640.05 581.71c-0.59 0.31-1.39 0.27-1.87-0.44-4.61-6.81-9.2-13.65-13.85-20.45-0.99-1.46 1.39-2.84 2.38-1.37 3.18 4.65 6.33 9.31 9.48 13.98 0 0.02 0.02 0.04 0.02 0.05 1.17 2.8 2.45 5.54 3.84 8.23zM366.57 589.89c-2.32 0.9-4.1 4.79-5.2 6.9-1.35 2.52-2.32 5.18-3.06 7.96-0.53-1.43-1.04-2.85-1.54-4.28 0.8-2.25 1.79-4.41 3-6.48 1.48-2.56 3.18-5.63 6.06-6.75 1.66-0.63 2.37 2.02 0.74 2.65zM438.02 604.22c1.67-2.7 3.34-5.39 5-8.09 1.55-2.51 2.97-5.76 5.17-7.73 1.32-1.18-0.63-3.12-1.94-1.94-2.13 1.91-3.45 4.81-4.93 7.21-1.89 3.05-3.78 6.11-5.67 9.16-0.93 1.51 1.45 2.89 2.37 1.39zM446.74 605.22c0.19-0.12 0.38-0.23 0.57-0.35 0.52-0.32 0.68-0.81 0.62-1.28 3.17-5.2 6.6-10.23 10.32-15.05 1.08-1.4-1.3-2.77-2.37-1.38-4 5.18-7.67 10.58-11.03 16.19-0.69 1.16 0.71 2.59 1.89 1.87zM504.19 586.32c-2.32 2.62-5.38 4.43-7.77 6.99-2.37 2.54-4.25 5.44-5.72 8.58-0.74 1.59 1.62 2.99 2.37 1.38 1.51-3.24 3.45-6.2 5.98-8.74 2.23-2.24 4.97-3.89 7.08-6.27 1.17-1.32-0.76-3.27-1.94-1.94zM546.7 586.14c-2.79 1.05-4.2 3.53-5.77 5.94-2.32 3.59-4.33 7.35-6.12 11.23-0.73 1.59 1.63 2.99 2.37 1.39 1.27-2.77 2.65-5.48 4.2-8.12 1.4-2.38 3.31-6.77 6.04-7.79 1.64-0.62 0.93-3.27-0.72-2.65zM556.27 587.75c-2.53 0.85-3.31 4.34-4.57 6.49-2.02 3.47-4.35 6.72-6.93 9.79-1.13 1.34 0.8 3.29 1.94 1.94 2.01-2.39 3.89-4.86 5.59-7.47 0.82-1.26 1.59-2.54 2.33-3.84 0.43-0.77 1.48-3.96 2.37-4.25 1.66-0.58 0.94-3.23-0.73-2.66zM606.18 586.43c-2.04 1.6-2.75 4.51-3.72 6.8-1.35 3.18-2.69 6.37-4.04 9.55-0.68 1.61 1.68 3.01 2.37 1.38 1.19-2.81 2.38-5.62 3.56-8.43 0.97-2.3 1.74-5.79 3.76-7.37 1.4-1.08-0.55-3.01-1.93-1.93zM370.98 624.92c-3-2.76-5.74-5.74-8.25-8.95-0.73-1.77-1.46-3.55-2.16-5.34 0.6-0.31 1.39-0.26 1.88 0.42 3.06 4.35 6.57 8.32 10.46 11.91 1.33 1.21-0.63 3.15-1.93 1.96zM385.48 618.74c2.38 1.94 4.84 3.77 7.37 5.5 1.46 1 2.83-1.38 1.38-2.37a99.34 99.34 0 0 1-6.81-5.07c-1.98-1.62-4.44-3.3-5.54-5.67-0.74-1.6-3.11-0.21-2.37 1.38 1.23 2.64 3.78 4.44 5.97 6.23zM465.75 623.92c1.33 1.15 3.28-0.79 1.94-1.94-2.26-1.95-4.72-3.58-7.26-5.15-2.63-1.64-6.89-3.5-7.53-6.83-0.33-1.73-2.98-1-2.65 0.73 0.57 3 2.96 4.71 5.37 6.31 3.43 2.25 7.02 4.2 10.13 6.88zM502.43 624.75c1.45 1.01 2.83-1.37 1.38-2.37-3.05-2.11-6.03-4.3-8.94-6.6-2.46-1.95-5.25-3.86-6.55-6.8-0.71-1.61-3.08-0.22-2.37 1.38 1.41 3.19 4.33 5.24 6.98 7.36 3.09 2.45 6.26 4.78 9.5 7.03zM515.03 610.65c-1.12-1.37-3.05 0.58-1.94 1.94 1.77 2.16 4.22 3.5 6.19 5.44 2.15 2.12 3.77 4.69 5.97 6.78 1.28 1.21 3.22-0.72 1.94-1.94-2.2-2.08-3.82-4.65-5.97-6.78-1.96-1.94-4.42-3.28-6.19-5.44zM602.31 624.09c0.3 1.74 2.95 1 2.65-0.73-1.17-6.68-10.09-8.92-12.94-14.6-0.79-1.58-3.16-0.19-2.37 1.38 1.26 2.51 3.76 4.24 5.81 6.08 2.34 2.13 6.27 4.59 6.85 7.87zM603.03 608.29c-1.65-0.63-2.36 2.02-0.73 2.65 1.04 0.4 1.99 2.13 2.68 2.96 0.94 1.13 1.89 2.26 2.83 3.39 1.94 2.32 4.04 4.56 5.56 7.18 0.89 1.52 3.26 0.14 2.37-1.39-1.73-2.97-4.15-5.52-6.35-8.15-1.79-2.17-3.65-5.6-6.36-6.64zM624.98 609.71c-1.72-0.42-2.45 2.23-0.73 2.65 1.2 0.29 2.07 2.18 2.75 3.11s1.36 1.87 2.04 2.81c1.45 2.01 2.89 4.02 4.33 6.04 1.01 1.43 3.4 0.06 2.37-1.39-2.01-2.83-4.03-5.64-6.07-8.45-1.26-1.71-2.46-4.22-4.69-4.77zM659.03 623.42c-2.2-2.95-4.4-5.91-6.59-8.86-1.4-1.88-2.87-5.11-5.27-5.78-1.7-0.48-2.43 2.17-0.73 2.65 1.05 0.29 2.34 2.79 2.97 3.63 0.77 1.03 1.54 2.07 2.31 3.1 1.65 2.21 3.3 4.43 4.95 6.64 1.03 1.4 3.41 0.03 2.36-1.38zM395.96 644.81c1.69-2.51 3.38-5.01 5.07-7.52 1.27-1.88 3.53-4.09 3.35-6.47-0.13-1.75-2.88-1.76-2.74 0 0.09 1.2-1.23 2.49-1.85 3.41-0.66 0.97-1.31 1.95-1.97 2.93-1.41 2.09-2.81 4.18-4.22 6.27-1 1.46 1.37 2.83 2.36 1.38zM417.66 642.99c1.29-2.05 3.16-3.74 4.81-5.49 1.66-1.76 3.32-3.51 4.97-5.27 1.21-1.28-0.72-3.23-1.94-1.94-3.4 3.6-7.57 7.11-10.22 11.32-0.94 1.5 1.44 2.88 2.38 1.38zM437.05 645.08c1.19-2.42 2.49-4.76 3.99-7 1.16-1.74 3.74-6.69 6.23-6.67 1.77 0.01 1.77-2.73 0-2.74-2.94-0.02-4.62 2.64-6.25 4.75-2.46 3.21-4.55 6.65-6.34 10.28-0.77 1.58 1.6 2.97 2.37 1.38zM450.49 644.31c2.39-2.41 4.64-4.93 6.73-7.61 1.64-2.11 3.73-4.38 4.13-7.11 0.25-1.73-2.39-2.47-2.65-0.73-0.4 2.75-2.99 5.4-4.69 7.49-1.72 2.1-3.55 4.1-5.46 6.02-1.24 1.25 0.69 3.19 1.94 1.94zM525.79 644.9c2.93-1.8 5.61-3.98 7.83-6.61 1.87-2.22 4.18-4.99 4.5-7.95 0.19-1.75-2.56-1.74-2.74 0-0.26 2.39-2.98 5.27-4.52 6.94-1.9 2.06-4.06 3.79-6.45 5.25-1.51 0.92-0.13 3.29 1.38 2.37zM558.4 645.52c3.09-2.52 6.1-5.14 8.97-7.91 1.71-1.64 5.28-4.01 5.47-6.54 0.13-1.76-2.61-1.75-2.74 0-0.06 0.75-2.59 2.57-3.17 3.15-1.11 1.1-2.24 2.18-3.38 3.24-2.29 2.12-4.66 4.15-7.08 6.12-1.38 1.11 0.57 3.04 1.93 1.94zM674.8 638.8v0.02c-1.52 2.29-3.55 4.43-5.14 6.29-1.13 1.35-3.07-0.6-1.94-1.94 1.26-1.48 2.49-3.02 3.66-4.59 0.62-0.84 1.39-1.76 1.98-2.74 0.51 0.99 0.99 1.98 1.44 2.96zM394.76 688.95a75.396 75.396 0 0 1-7.3-7.76v-0.02c-0.07-0.35-0.15-0.68-0.24-1.02-0.44-1.83-0.91-3.66-1.45-5.47 0.16 0.09 0.33 0.22 0.46 0.4 3.05 4.35 6.57 8.32 10.46 11.91 1.33 1.21-0.63 3.15-1.93 1.96zM409.27 682.77c2.38 1.94 4.84 3.77 7.37 5.5 1.46 1 2.83-1.38 1.38-2.37a99.34 99.34 0 0 1-6.81-5.07c-1.98-1.62-4.44-3.3-5.54-5.67-0.74-1.6-3.11-0.21-2.37 1.38 1.22 2.63 3.77 4.44 5.97 6.23zM489.53 687.95c1.33 1.15 3.28-0.79 1.94-1.94-2.26-1.95-4.72-3.58-7.26-5.15-2.63-1.64-6.89-3.5-7.53-6.83-0.33-1.73-2.98-1-2.65 0.73 0.57 3 2.96 4.71 5.37 6.31 3.43 2.25 7.02 4.2 10.13 6.88zM526.21 688.78c1.46 1.01 2.83-1.37 1.39-2.37-3.05-2.11-6.03-4.3-8.94-6.6-2.46-1.95-5.25-3.86-6.55-6.8-0.71-1.61-3.08-0.22-2.37 1.38 1.41 3.19 4.33 5.24 6.98 7.36 3.08 2.44 6.25 4.78 9.49 7.03zM549.03 688.84c1.28 1.21 3.22-0.72 1.94-1.94-2.2-2.08-3.82-4.65-5.97-6.78-1.97-1.95-4.43-3.28-6.19-5.44-1.12-1.37-3.05 0.58-1.94 1.94 1.77 2.16 4.22 3.5 6.19 5.44 2.16 2.12 3.78 4.7 5.97 6.78zM626.09 688.12c0.3 1.74 2.95 1 2.65-0.73-1.17-6.68-10.09-8.92-12.94-14.6-0.79-1.58-3.16-0.19-2.37 1.38 1.26 2.51 3.76 4.24 5.81 6.08 2.34 2.13 6.28 4.59 6.85 7.87zM631.6 681.32c1.94 2.32 4.04 4.56 5.56 7.18 0.89 1.52 3.26 0.14 2.37-1.39-1.73-2.97-4.15-5.52-6.35-8.15-1.81-2.17-3.67-5.6-6.38-6.64-1.65-0.63-2.36 2.02-0.73 2.65 1.04 0.4 1.99 2.13 2.68 2.96 0.96 1.12 1.91 2.25 2.85 3.39zM652.82 682.3c1.45 2.01 2.89 4.02 4.33 6.04 1.01 1.43 3.4 0.06 2.37-1.39-2.01-2.83-4.03-5.64-6.07-8.45-1.25-1.72-2.46-4.23-4.68-4.77-1.72-0.42-2.45 2.23-0.73 2.65 1.2 0.29 2.07 2.18 2.75 3.11 0.67 0.94 1.35 1.88 2.03 2.81zM675.49 682.18c1.65 2.21 3.3 4.43 4.95 6.64 1.04 1.4 3.43 0.03 2.37-1.38-2.2-2.95-4.4-5.91-6.59-8.86-1.4-1.88-2.87-5.11-5.27-5.78-1.7-0.48-2.43 2.17-0.73 2.65 1.05 0.29 2.34 2.79 2.97 3.63 0.76 1.04 1.53 2.07 2.3 3.1zM684.15 685.09c-2.49-2.84-4.98-5.67-7.37-8.58-1.12-1.35 0.8-3.29 1.94-1.94 1.74 2.1 3.53 4.17 5.32 6.24v0.02c0.08 1.42 0.11 2.83 0.11 4.26zM425.41 694.84c0.09 1.2-1.23 2.49-1.85 3.41-0.66 0.97-1.31 1.95-1.97 2.93-1.41 2.09-2.81 4.18-4.22 6.27-0.99 1.47 1.39 2.84 2.37 1.38 1.69-2.51 3.38-5.01 5.07-7.52 1.27-1.88 3.53-4.09 3.35-6.47-0.13-1.75-2.88-1.76-2.75 0zM449.29 694.32c-3.4 3.6-7.57 7.11-10.22 11.32-0.94 1.5 1.43 2.88 2.37 1.38 1.29-2.05 3.16-3.74 4.81-5.49 1.66-1.76 3.32-3.51 4.97-5.27 1.22-1.28-0.72-3.23-1.93-1.94zM471.05 692.69c-2.94-0.02-4.62 2.64-6.25 4.75-2.46 3.21-4.55 6.65-6.34 10.28-0.77 1.58 1.59 2.97 2.37 1.39 1.19-2.42 2.49-4.76 3.99-7 1.16-1.74 3.74-6.69 6.23-6.67 1.77 0 1.77-2.74 0-2.75zM485.13 693.61c0.25-1.73-2.39-2.47-2.65-0.73-0.4 2.75-2.99 5.4-4.69 7.49-1.72 2.1-3.55 4.1-5.46 6.02-1.25 1.25 0.69 3.2 1.94 1.94 2.39-2.41 4.64-4.93 6.73-7.61 1.65-2.11 3.73-4.38 4.13-7.11zM559.15 694.36c-0.26 2.39-2.98 5.27-4.52 6.94-1.9 2.06-4.06 3.79-6.45 5.25-1.5 0.92-0.13 3.3 1.38 2.37 2.93-1.8 5.61-3.98 7.83-6.61 1.87-2.22 4.18-4.99 4.5-7.95 0.19-1.75-2.55-1.74-2.74 0zM593.88 695.1c-0.06 0.75-2.59 2.57-3.17 3.15-1.11 1.1-2.24 2.18-3.38 3.24-2.29 2.12-4.66 4.15-7.08 6.12-1.37 1.12 0.58 3.05 1.94 1.94 3.09-2.52 6.1-5.14 8.98-7.91 1.71-1.64 5.28-4.01 5.47-6.54 0.12-1.76-2.62-1.75-2.76 0zM683.49 701.53c-0.13 1.68-0.31 3.35-0.49 5.03 0 0-0.02 0 0 0.02-0.33 0.4-0.62 0.8-0.93 1.21-1.04 1.41-3.42 0.04-2.38-1.37 1.22-1.65 2.49-3.28 3.8-4.89z" fill="#F9EFC9" /><path d="M406.51 658.21c0.17-3.37 0.28-6.74 0.32-10.12 0.01-0.88-1.36-0.9-1.37-0.01-0.03 3.41-0.15 6.82-0.32 10.23-0.27 0.17-0.5 0.41-0.54 0.74-0.22 1.54-0.45 3.08-0.67 4.61-0.1 0.68 0.14 1.32 0.78 1.61-0.2 2.62-0.43 5.24-0.71 7.85-0.09 0.88 1.28 0.88 1.37 0.01 0.29-2.68 0.52-5.36 0.72-8.04 0.24-0.17 0.43-0.39 0.48-0.68 0.22-1.54 0.45-3.08 0.67-4.61 0.08-0.66-0.14-1.29-0.73-1.59zM422.81 656.47c0.31-3.35 0.52-6.71 0.49-10.08-0.01-0.88-1.38-0.9-1.37-0.01 0.05 4.68-0.36 9.34-0.89 13.99-0.21 0.8-0.42 1.6-0.62 2.39-0.12 0.45-0.01 0.83 0.2 1.12l-0.6 4.84c-0.11 0.88 1.27 0.88 1.37 0.01 0.17-1.42 0.35-2.84 0.52-4.26 0.5-0.03 0.97-0.33 1.14-0.96 0.46-1.79 0.93-3.57 1.39-5.36 0.3-1.13-0.75-1.82-1.63-1.68zM596.86 656.98l0.03-0.18c0.67-2.92 1.48-5.57 1.19-8.6-0.08-0.87-1.46-0.89-1.37-0.01 0.37 3.87-1.13 7.42-1.72 11.18-0.48 3.05-0.51 6.11-0.27 9.18 0.07 0.87 1.44 0.89 1.37 0.01-0.17-2.21-0.17-4.37 0.01-6.52 0.58 0.29 1.36 0.26 1.83-0.43 0.79-1.15 1.28-2.46 1.54-3.83 0.33-1.69-2.22-2.44-2.61-0.8zM616.86 654.93c0.09-2.35 0.22-4.71 0.55-7.12 0.12-0.87-1.25-0.88-1.37-0.01-0.41 3.03-0.51 6.01-0.61 8.97-0.67 1.45-1.04 3-1.19 4.61-0.07 0.71 0.34 1.13 0.86 1.27-0.22 2.47-0.58 4.95-1.32 7.45-0.25 0.85 1.07 1.22 1.32 0.38 0.8-2.74 1.18-5.43 1.4-8.12 0.25-0.21 0.44-0.52 0.48-0.93 0.15-1.61 0.61-3.13 1.47-4.51 0.73-1.17-0.55-2.28-1.59-1.99zM440.22 646.53c0.04 3.38-0.17 6.74-0.49 10.1-0.79-0.22-1.77 0.18-1.74 1.24 0.03 1.29-0.14 2.52-0.54 3.75-0.36 1.11 0.66 1.79 1.56 1.66l-0.69 5.59c-0.11 0.88 1.27 0.88 1.37 0.01 0.89-7.43 1.99-14.85 1.91-22.34-0.02-0.88-1.39-0.9-1.38-0.01zM456.09 650.02c-0.61 3.5-1.01 7.07-2.19 10.41-1.11 3.12-1.48 5.76-1.49 9.09 0 0.88 1.37 0.9 1.37 0.01 0.01-1.99 0.26-3.7 0.65-5.39 0.67 0.21 1.47-0.02 1.72-0.88l1.11-3.86c0.26-0.91-0.37-1.53-1.09-1.66 0.54-2.42 0.82-4.94 1.24-7.34 0.15-0.87-1.16-1.25-1.32-0.38zM473.1 648.05c0 3.15 0.17 6.46-0.09 9.63-0.81-0.23-1.78 0.16-1.69 1.23 0.11 1.25 0.1 2.52-0.09 3.76-0.08 0.5 0.05 0.97 0.36 1.31-0.64 1.78-1.37 3.55-1.9 5.3-0.25 0.85 1.07 1.22 1.32 0.38 0.53-1.78 1.27-3.55 1.93-5.33 0.45-0.13 0.86-0.44 0.93-0.9 0.15-0.96 0.21-1.92 0.22-2.87 0.08-0.37 0.15-0.75 0.21-1.12 0.51-3.68 0.17-7.66 0.18-11.36 0-0.9-1.38-0.92-1.38-0.03zM493.79 646.2c-0.54 2.79-0.82 5.62-1.08 8.45-0.62-0.12-1.27 0.13-1.43 0.94-0.32 1.65-0.65 3.3-0.97 4.95-0.21 1.06 0.71 1.75 1.52 1.72-0.36 2.31-0.85 4.6-1.64 6.84-0.29 0.83 1.03 1.2 1.32 0.38 1.49-4.22 1.97-8.59 2.38-12.97l0.03-0.17c0.01-0.06-0.01-0.11 0-0.17 0.3-3.2 0.57-6.41 1.19-9.59 0.17-0.87-1.15-1.25-1.32-0.38zM510.74 649.08c-0.41 2.69-0.83 5.37-1.24 8.06-0.32 0.25-0.53 0.63-0.59 1.08-0.15 1.26-0.45 2.48-0.86 3.68-0.22 0.65 0.05 1.16 0.49 1.44-0.23 1.5-0.46 3-0.69 4.51-0.13 0.86 1.19 1.25 1.32 0.38 0.24-1.58 0.49-3.16 0.73-4.73 0.34-0.13 0.64-0.39 0.8-0.84 0.49-1.44 0.78-2.9 0.96-4.41 0.06-0.52-0.31-0.98-0.76-1.21 0.39-2.52 0.78-5.05 1.16-7.57 0.13-0.88-1.19-1.26-1.32-0.39zM528.88 647.44c0-0.88-1.37-0.9-1.37-0.01-0.01 3.88-1.45 7.58-2.28 11.34-0.09 0.42-0.15 0.84-0.24 1.26-0.07 0.17-0.13 0.35-0.2 0.52-0.1 0.27-0.09 0.51-0.04 0.73-0.41 2.17-0.76 4.35-1.03 6.54-0.11 0.87 1.26 0.88 1.37 0.01 0.23-1.89 0.52-3.77 0.86-5.63 0.59 0.05 1.22-0.2 1.48-0.9 0.42-1.12 0.84-2.24 1.27-3.36 0.41-1.08-0.57-1.75-1.47-1.65 0.01-0.02 0.01-0.04 0.01-0.06 0.76-2.95 1.63-5.72 1.64-8.79zM544.59 647.03l-0.54 8.91c-0.78-0.19-1.72 0.22-1.73 1.25-0.01 0.86-0.01 1.72-0.02 2.58-0.01 0.92 0.73 1.35 1.44 1.32-0.11 1.75-0.21 3.51-0.32 5.26-0.05 0.88 1.32 0.89 1.37 0.01l1.17-19.33c0.06-0.87-1.31-0.88-1.37 0zM562.89 648.78c-0.55 3.01-1.17 6.01-1.85 8.99-0.23-0.15-0.47-0.25-0.73-0.26-0.8-0.01-1.3 0.62-1.38 1.36-0.06 0.6-0.13 1.2-0.19 1.81-0.07 0.7 0.59 1.29 1.25 1.36-0.44 1.77-0.85 3.56-1.34 5.32-0.23 0.85 1.09 1.23 1.32 0.38a221.98 221.98 0 0 0 4.24-18.58c0.15-0.87-1.16-1.25-1.32-0.38zM579.47 648.09c-1.41 2.65-1.89 5.16-2.12 8.13 0 0.03-0.01 0.05-0.01 0.08-0.22 0.22-0.37 0.51-0.36 0.92 0.01 1.3-0.2 2.52-0.67 3.74-0.23 0.6-0.02 1.08 0.37 1.37-0.3 2.2-0.66 4.39-1.1 6.59-0.17 0.86 1.15 1.24 1.32 0.38 0.44-2.25 0.86-4.5 1.19-6.77 0.36-0.12 0.69-0.38 0.86-0.82 0.55-1.42 0.79-2.94 0.77-4.47-0.01-0.68-0.43-1.1-0.93-1.26 0.23-2.46 0.62-4.86 1.86-7.19 0.41-0.78-0.76-1.48-1.18-0.7zM633.19 647.6c-0.32 2.17-0.68 4.33-1.03 6.49-0.19 0.15-0.36 0.35-0.46 0.65-0.31 1.02-0.63 2.05-0.94 3.07-0.2 0.66 0.08 1.17 0.53 1.45-0.44 2.48-0.88 4.97-1.37 7.44-0.17 0.86 1.15 1.24 1.32 0.38 0.5-2.55 0.96-5.12 1.42-7.68 0.33-0.13 0.62-0.4 0.75-0.84 0.31-1.02 0.63-2.05 0.94-3.07 0.24-0.78-0.2-1.34-0.78-1.57 0.32-1.98 0.65-3.96 0.94-5.94 0.13-0.87-1.19-1.25-1.32-0.38zM387.69 649.37c0.12 2.79 0.15 5.56 0.12 8.34-0.35-0.28-0.85-0.41-1.25-0.31-0.79 0.2-1.07 0.95-0.97 1.68 0.2 1.55 0.18 3.15-0.05 4.69-0.11 0.74 0.17 1.47 0.94 1.7 0.34 0.1 0.76 0.03 1.1-0.17-0.13 2.25-0.28 4.49-0.51 6.74-0.09 0.88 1.29 0.88 1.37 0.01 0.74-7.55 0.95-15.1 0.62-22.68-0.04-0.87-1.41-0.89-1.37 0zM650.87 645.84c-0.74 3.07-1.41 6.14-2.08 9.2-0.32 0.13-0.62 0.46-0.85 1.07-0.12 0.32-0.24 0.65-0.37 0.97-0.41 1.1-0.28 2.17 0.1 2.89-0.6 2.59-1.24 5.18-1.98 7.76-0.25 0.85 1.08 1.22 1.32 0.38 0.7-2.42 1.3-4.85 1.87-7.28 0.38-0.05 0.76-0.38 1.05-1.12 0.12-0.32 0.24-0.65 0.37-0.97 0.46-1.21 0.25-2.4-0.22-3.11 0.69-3.14 1.37-6.28 2.13-9.41 0.19-0.86-1.13-1.24-1.34-0.38z" fill="#463607" /></svg>