<?xml version="1.0" standalone="no"?><!DOCTYPE svg PUBLIC "-//W3C//DTD SVG 1.1//EN" "http://www.w3.org/Graphics/SVG/1.1/DTD/svg11.dtd"><svg class="icon" width="200px" height="200.00px" viewBox="0 0 1024 1024" version="1.1" xmlns="http://www.w3.org/2000/svg"><path d="M663 824.86c-0.91 0.22-1.87 0.42-2.87 0.62-0.55 0.11-1.26 0.22-2.1 0.33-0.9 0.11-1.68 0.57-2.21 1.23-8.31-3.29-18.68 0.59-27.33 1.66-10.46 1.28-21.04 1.06-31.56 1.12-21.22 0.11-42.44 0.2-63.66 0.31-43.05 0.2-86.38 1.59-129.25-3.64v-0.8c0-1.74-1.28-3.2-3-3.46 0 0-0.02 0-0.02-0.02-0.07-0.02-0.15-0.02-0.22-0.04 0.37-0.84 1.15-1.43 2.38-1.28 46.59 5.78 93.88 3.91 140.72 3.7 23.31-0.11 46.65 0.22 69.94-0.4 10.9-0.27 21.26-3.02 32.01-3.84 6.4-0.51 12.29 0.68 17.17 4.51zM684.19 804.17c0 2.45-0.05 4.3-0.11 5.43-23.54 5.73-48.37 4.41-72.44 4.54-26.25 0.13-52.52 0.02-78.77-1.17-25.85-1.17-51.59-4.46-77.46-5.23-24.35-0.71-48.75-0.26-73.12-0.16 0.02-1.52 0.04-3.37 0-5.49 24.37-0.09 48.77-0.55 73.12 0.16 24.68 0.73 49.23 3.86 73.89 5.07 25.63 1.24 51.31 1.45 76.96 1.35 25.37-0.09 51.95 1.66 76.76-4.46 0.42-0.12 0.82-0.12 1.17-0.04z" fill="#F4E7E0" /><path d="M460.45 490.58c-6.95-25.28-30.35-92.82-34.47-107.81-2.77-10.08-26.37-50.93-33.98-46.55-8.75 5.03 2.71 73.17 15.68 94.11 14.95 24.14 22.69 46.2 42.97 66.01 1.02 3.74 11.63-3.97 9.8-5.76z" fill="#99A95F" /><path d="M561.34 219.96c-0.5-14.44 1.99-37.2-1.83-51.22-2.3-8.44-1.21-21.11-10.68-22.63-9.93-1.59-15.84 53.88-18.59 68.36-5.42 28.32-16.46 126.23-14.64 147.98 0.37 4.37 8.52 23.43 10.53 20.08 14.85-24.76 16.19-39.5 24.23-67.45 8.82-30.64 12.09-63.57 10.98-95.12zM423.67 487.35c-0.71-0.38-1.38-0.8-2.08-1.19 2.3-11.88-3.56-22.07-8.86-32.43-7.17-14.02-14.49-27.95-21.96-41.81-14.67-27.2-29.95-54.06-45.77-80.6-1.47-2.47-4.89-1.23-5.11 1.38-2.8 32.41 10.81 62.4 24.95 90.7 13.4 26.82 28.57 54.16 56.06 68.68 3.12 1.66 5.9-3.08 2.77-4.73zM434.32 286.4c-8.1-21.78-43.11-95.71-55.87-101.96-17.45-8.54-10.24 38.36-9.78 52.57 2.42 74.42 87.78 240.97 95.72 237.23 31.1-14.64-21.9-165.89-30.07-187.84z" fill="#A2B667" /><path d="M534.57 418.7a1794.81 1794.81 0 0 0-13.75-72.74c-4.65-22.08-8.34-45.4-17.05-66.32-7.54-18.09-19.78-33.04-35.42-44.74-3.64-2.72-7.96 1.07-8.26 4.74-1.88 23.52-3.69 47.2-1.89 70.79 1.72 22.49 7.71 42.52 16.5 63.16 2.48 5.83 3.78 11.25 4.04 17.6 0.25 5.89-0.23 11.77 1.5 17.5 2.78 9.19 10.16 15.6 16.41 22.43 15.85 17.33 24.59 39.53 32.98 61.09 0.95 2.43 3.02 3.56 5.11 3.67 2.99 0.51 6.7-1.22 7.16-5.14 2.79-23.71-3.42-48.73-7.33-72.04z" fill="#99A95F" /><path d="M625.33 271.57l-0.24-54.46c-0.05-12 2.82-30.46-8.86-37.41-2.53-1.51-7.95 4.08-9.72 6.44C537.56 278.5 547 479.45 547 479.51c-0.29 3.87 12.21 19.8 22.09 16.75 11.03-3.4 17.34-13.91 21.49-23.96 6.41-15.55 11.65-31.71 17.11-47.61 5.45-15.87 11.05-31.88 14.22-48.4 6.57-34.14 3.57-70.14 3.42-104.72zM706.32 268.6c-0.74-4.42-6.36-4.82-9.17-2.42-12.14 10.37-26.88 20.26-35.93 33.62-9.34 13.79-12.77 32.03-17.71 47.69-11.05 34.97-22.09 69.94-33.14 104.92-1.46 5.37-2.67 18.09 5.11 20.38 9.14 2.69 17.11-3.58 23.05-9.79 15.74-16.47 27.71-36.59 37.64-56.96 20.63-42.33 38.19-89.75 30.15-137.44zM518.09 426.95c-5.98-47-11.5-103.9-49.06-137.55-2.17-1.94-5.62-2.24-7.76 0-10.56 11.07-10.13 28.02-10.86 42.38-0.98 19.3-0.47 38.68 1.49 57.91 3.72 36.6 12.54 72.4 26.21 106.53 0.8 7.88 3.45 17.62 10.58 18.94 9.23 1.71 19.43-5.78 24.66-12.54 15.74-20.37 7.69-52.44 4.74-75.67z" fill="#A2B667" /><path d="M445.1 405.99c0.12 0.03 0.21 0.06 0.33 0.09 0.49 0.09 1-0.3 0.84-0.84-1.62-5.56-1.88-11.15-0.76-16.83 0.17-0.86-1.15-1.23-1.32-0.36-1.09 5.52-0.93 10.98 0.46 16.39-0.11-0.04-0.22-0.08-0.32-0.13-2.9-6.35-5.78-12.71-8.63-19.08-3.62-8.1-6.83-16.29-9.78-24.56 1.9-0.84 2.41-3.33 2.5-5.18 0.26-5.14-0.23-10.43-0.37-15.58-0.02-0.88-1.4-0.88-1.37 0 0.08 3.1 0.17 6.2 0.25 9.3 0.03 1.29 0.07 2.58 0.1 3.88 0.06 2.44 0.4 2.67-1.85 4.22-0.14 0.1-0.24 0.15-0.36 0.23-4.08-11.73-7.69-23.62-11.18-35.64-1.03-3.56-2.07-7.12-3.1-10.68 0.04-0.09 0.08-0.17 0.08-0.27-0.09-4.77 0.62-9.33 2.16-13.84 0.29-0.84-1.04-1.2-1.32-0.36a41.097 41.097 0 0 0-2.1 10.37c-5.81-20.03-11.62-40.05-17.44-60.08 1.51-3.86 2.67-7.8 3.49-11.87 0.17-0.86-1.15-1.23-1.32-0.36-0.69 3.42-1.64 6.74-2.81 10.01-4.85-16.72-9.71-33.45-14.56-50.17-0.25-0.85-1.57-0.49-1.32 0.36l14.49 49.92c-4.04-3.32-7.46-7.23-10.15-11.75-0.45-0.76-1.64-0.07-1.18 0.69 3.12 5.24 7.15 9.69 12.01 13.36 5.96 20.54 11.92 41.08 17.89 61.62-2.16-1.96-4.01-4.42-5.8-6.64-2.59-3.23-4.85-6.63-6.43-10.48-0.33-0.8-1.66-0.45-1.32 0.36 1.51 3.67 3.56 6.96 5.99 10.08 2.43 3.13 5.02 6.59 8.23 8.98 1.41 4.86 2.82 9.72 4.23 14.59 3.18 10.96 6.79 21.68 10.69 32.26-1.3 0.64-1.27-0.29-2.39-1.92-0.85-1.24-1.7-2.49-2.55-3.73-1.7-2.49-3.4-4.98-5.11-7.46-0.5-0.72-1.69-0.04-1.18 0.69 2.84 4.15 5.63 8.33 8.51 12.44 0.99 1.42 1.88 3.16 3.8 2.88 5.39 14.39 11.33 28.51 17.54 42.57-1.42-0.82-2.8-1.84-4.12-2.54-3.02-1.61-5.01-4.21-6.99-6.92-0.51-0.71-1.71-0.02-1.18 0.69 1.87 2.57 3.8 5.2 6.55 6.89 1.48 0.92 3.08 1.55 4.52 2.55 0.75 0.52 1.4 0.96 2.1 1.3 5.87 13.25 11.96 26.44 18.04 39.75 0.37 0.8 1.55 0.11 1.18-0.69-5.89-12.84-11.8-25.66-17.67-38.51zM500.25 427.48c-3.83 3.51-7.33 8.13-12.48 9.16-0.58 0.12-1.07 0.19-1.54 0.23-0.31-12.05-0.97-24.05-2.27-35.94-0.73-6.73-1.61-13.45-2.54-20.16 1.7-1.48 2.98-4.13 3.42-5.61 0.25-0.85-1.07-1.21-1.32-0.36-0.31 1.04-1.16 3.34-2.3 4.5-1.79-12.77-3.86-25.53-6.03-38.27 2.26-0.61 3.88-4.63 5.21-6.55 0.5-0.73-0.69-1.41-1.18-0.69-1.28 1.85-2.25 4.22-4.44 4.83-2.75-16.02-5.62-32.02-8.22-48-0.14-0.87-1.46-0.5-1.32 0.36 2.59 15.92 5.49 31.87 8.28 47.86-0.55-0.02-0.76-0.35-1.52-1.04-0.73-0.67-1.46-1.35-2.17-2.04-2.79-2.73-5.28-5.67-7.17-9.11-0.43-0.77-1.61-0.08-1.18 0.69 2.75 5.01 6.88 9.44 11.31 13.02 0.38 0.31 0.74 0.49 1.09 0.61 2.25 12.99 4.37 25.99 6.16 39.02-2.74 0.39-3.69-3.06-4.54-4.91-1.64-3.59-3.12-7.25-4.47-10.96-0.3-0.82-1.63-0.47-1.32 0.36 1.1 3.03 2.29 6.02 3.58 8.98 0.92 2.12 2.06 6.57 4.15 7.89 0.98 0.62 1.93 0.59 2.81 0.19 1.03 7.6 1.97 15.2 2.7 22.81 1.04 10.78 1.59 21.64 1.87 32.54-1.61-0.17-2.65-1.07-4.43-2.98-1.63-1.75-2.74-3.68-3.7-5.84-0.36-0.8-1.54-0.11-1.18 0.69 1.6 3.58 5.08 8.85 9.36 10.19 0.25 11.23 0.22 22.49 0.12 33.74-4.09-1.5-4.88-6.89-4.78-11.1 0.02-0.88-1.35-0.88-1.37 0-0.09 4.11 0.57 10.66 5.07 12.38 0.35 0.14 0.71 0.24 1.07 0.34-0.12 12.86-0.32 25.7-0.27 38.45 0 0.88 1.38 0.88 1.37 0-0.05-12.66 0.16-25.43 0.29-38.22 4.79 0.49 10.08-2.25 13.99-4.37 0.78-0.42 0.08-1.61-0.69-1.18-3.8 2.06-7.94 4.16-12.38 4.11-0.32 0-0.61-0.04-0.91-0.07 0.11-11.27 0.15-22.55-0.09-33.8 0.13 0.01 0.26 0.04 0.39 0.04 1.81 0.06 3.29-0.82 4.68-1.87 3.5-2.66 6.62-5.97 9.86-8.94 0.65-0.61-0.32-1.58-0.97-0.98zM549.11 150.2c-0.02-0.88-1.4-0.88-1.37 0 0.54 20.13-2.46 39.96-5.14 59.81a3.14 3.14 0 0 1-0.78-0.77c-1.12-1.59-1.8-3.44-2.19-5.33-0.18-0.86-1.5-0.5-1.32 0.36 0.48 2.36 1.58 5.96 3.87 7.23 0.07 0.04 0.14 0.05 0.21 0.08-1.72 12.83-3.28 25.67-3.62 38.63-0.08 3.11-0.14 6.21-0.21 9.3-0.72-0.85-1.29-1.89-2.22-2.56-0.72-0.51-1.41 0.68-0.69 1.18 1.28 0.91 1.87 2.19 2.88 3.08-0.25 12.53-0.54 24.94-2.09 37.51-0.71 5.8-1.34 11.79-2.38 17.68-1.26-1.24-2.39-2.71-3.34-3.94-0.54-0.7-1.51 0.28-0.97 0.97 1.02 1.3 2.42 3.17 4 4.63-1.86 9.75-4.97 19.14-11.68 26.79-0.58 0.66 0.39 1.64 0.97 0.97 6.81-7.77 9.93-17.05 11.83-26.82 0.78 0.57 1.58 1.02 2.4 1.2 2.82 0.65 4.71-2.43 6.71-3.79 0.73-0.49 0.04-1.68-0.69-1.18-2.03 1.39-3.92 4.64-6.68 3.15-0.49-0.26-0.96-0.6-1.42-0.97 0.44-2.43 0.82-4.89 1.16-7.37 2.24-16 3.58-31.85 3.68-47.99 0.16 0.05 0.3 0.11 0.48 0.14 2.73 0.5 5.09-1.11 7.16-2.64 0.7-0.52 0.02-1.71-0.69-1.18-1.86 1.37-4.51 3.33-6.93 2.27 0.06-16.37 2.03-32.59 4.13-48.79 1.56-0.22 3.03-1.46 4.09-2.53 0.62-0.63-0.35-1.6-0.97-0.97-0.83 0.84-1.87 1.71-2.92 1.97 2.57-19.99 5.27-39.94 4.73-60.12zM610.21 249.2c-1.6 1.28-3.11 2.16-5.02 1.72 2.8-22.67 4.56-46.41 11.34-67.91 0.27-0.84-1.06-1.21-1.32-0.36-6.77 21.46-8.53 45.13-11.32 67.75-1.15-0.66-2.3-1.98-3.26-2.8-2.09-1.79-4.17-3.59-6.26-5.38-0.67-0.57-1.64 0.39-0.97 0.97 3.23 2.78 6.55 6.6 10.3 8.69a438.4 438.4 0 0 1-1.24 9.15c-2.4 16.29-4.91 32.57-7.72 48.8-2.17-1.15-4.6-4.28-5.83-5.43-0.64-0.6-1.62 0.36-0.97 0.97 1.77 1.66 3.51 3.35 5.31 4.98 0.38 0.35 0.77 0.78 1.21 1.13-1.74 10.01-3.6 20-5.62 29.96-1.95 9.62-4.23 19.19-6.66 28.74-3.81-1.71-4.97-7.4-5.96-11.12-0.23-0.85-1.55-0.49-1.32 0.36 0.87 3.26 1.73 7.25 3.65 10.1 0.83 1.23 1.97 1.81 3.25 2.15-3.02 11.8-6.26 23.57-9.41 35.36-0.15-0.12-0.3-0.25-0.46-0.39-1.78-1.65-2.21-4.24-2.55-6.51-0.13-0.87-1.45-0.5-1.32 0.36 0.43 2.89 1.49 6.3 3.94 8.01-2.55 9.59-5.02 19.2-7.25 28.84-0.05 0-0.1 0.03-0.15 0.03-5.47 0.29-4.54-3.94-5.19-7.17-0.18-0.86-1.5-0.5-1.32 0.36 0.7 3.43 0.82 9.88 6.07 8.53 0.07-0.02 0.14-0.05 0.21-0.07-4.01 17.61-7.18 35.35-8.4 53.39-0.06 0.88 1.31 0.88 1.37 0 1.23-18.19 4.43-36.11 8.48-53.89 2.97-1.2 5.97-3.41 8.63-4.83 4.27-2.27 8.54-4.53 12.82-6.8 0.78-0.41 0.09-1.6-0.69-1.18-4.88 2.59-9.76 5.18-14.65 7.77-1.39 0.74-3.79 2.57-5.74 3.43 2.14-9.29 4.5-18.54 6.95-27.78 0.47 0.19 0.98 0.33 1.54 0.4 2.23 0.29 4.17-0.96 6.06-1.95 3.02-1.59 6.03-3.19 9.04-4.79 0.78-0.41 0.09-1.6-0.69-1.18-3.01 1.6-6.01 3.23-9.04 4.79-2.17 1.11-4.16 2.51-6.54 1.35 3.18-11.94 6.45-23.87 9.53-35.82 0.5 0.08 1.01 0.15 1.53 0.21 6.03 0.78 9.14-1.83 11.93-6.9 0.43-0.77-0.76-1.47-1.18-0.69-2.72 4.93-5.91 7.04-11.78 6.05-0.05-0.01-0.1-0.03-0.15-0.04 2.75-10.72 5.33-21.45 7.47-32.24 1.74-8.74 3.33-17.51 4.86-26.29 0.1 0.02 0.2 0.06 0.31 0.06 1.28-0.02 2.31-1.5 3.07-2.27 1.85-1.84 3.69-3.69 5.54-5.53 0.63-0.62-0.34-1.6-0.97-0.97-1.14 1.13-2.27 2.27-3.41 3.4-0.86 0.86-2.29 2.97-3.41 3.4-0.26 0.1-0.53 0.12-0.82 0.1 2.81-16.25 5.36-32.54 7.76-48.85 0.44-2.96 0.83-5.95 1.21-8.96 2.27 0.59 4.33-0.76 6.18-2.24 0.69-0.55-0.29-1.52-0.97-0.97zM698.74 304.96c-3.4 0.07-5.13 2.43-7.97 3.88-0.43 0.22-0.86 0.41-1.3 0.57 5.88-13.33 12.05-27.54 11.89-41.82-0.01-0.88-1.38-0.88-1.37 0 0.16 14-5.79 28.59-11.89 42.14-1.16 0.1-2.28-0.3-3.2-1.78-0.47-0.75-0.61-1.78-0.87-2.61-0.41-1.35-0.74-2.48-1.5-3.68-0.47-0.75-1.66-0.06-1.18 0.69 1.69 2.69 1.35 7.18 4.79 8.52 0.45 0.18 0.88 0.26 1.31 0.3-1.97 4.36-3.94 8.61-5.7 12.68-3.77 8.75-7.71 17.44-11.77 26.06-0.01-0.03-0.02-0.07-0.03-0.09-1.9-4.39-3.29-8.96-4.3-13.64-0.19-0.86-1.51-0.5-1.32 0.36a74.519 74.519 0 0 0 4.91 14.92c-3.8 8.03-7.71 16.02-11.71 23.95-0.46 0.9-0.94 1.81-1.4 2.71-2.03-2.36-0.03-6.69-0.72-9.53-0.21-0.86-1.53-0.49-1.32 0.36 0.75 3.1-1.42 8.06 1.32 10.56-5.69 10.88-12.09 21.78-18.2 32.85-0.2-0.75-0.37-1.52-0.54-2.24-0.61-2.52-1.08-5.06-1.46-7.63-0.13-0.87-1.45-0.5-1.32 0.36 0.49 3.26 1.12 6.5 1.99 9.69 0.12 0.45 0.23 1.01 0.37 1.59-9.91 18.1-18.88 36.71-22.42 56.6-0.15 0.86 1.17 1.23 1.32 0.36 3.36-18.88 12.02-35.8 21.11-52.49 0.38-0.7 0.76-1.41 1.14-2.11 0.16 0.14 0.33 0.26 0.54 0.35 1.43 0.61 4.64-1.24 6.02-1.71 3.48-1.17 6.96-2.33 10.44-3.5 0.83-0.28 0.48-1.6-0.36-1.32-2.32 0.78-4.64 1.55-6.96 2.33-2.12 0.71-4.73 2.08-6.96 2.33-1.03 0.12-1.45 0.27-1.83-0.12 6.22-11.46 12.36-22.97 18.29-34.58 1.25 0.53 2.44 0.12 3.58-0.59 2.41-1.5 4.63-3.44 6.91-5.13 0.7-0.52 0.02-1.71-0.69-1.18-1.73 1.29-6.32 5.87-9.05 5.44 2.03-3.98 4.04-7.98 6.02-11.99 2.26-4.57 4.47-9.17 6.65-13.78 0.35 0.74 0.67 1.48 1.05 2.21 0.16 0.31 0.65 0.45 0.94 0.25l8.4-5.82c0.72-0.5 0.04-1.69-0.69-1.18-1.93 1.33-3.91 3.12-6 4.16-1.22 0.61-1.31 1.25-2.36 0.15-0.25-0.26-0.47-0.71-0.67-1.18 5.24-11.1 10.29-22.29 15.05-33.6 0.95-2.26 1.96-4.55 2.98-6.87 3.52-0.56 6.39-4.76 10.05-4.84 0.87 0 0.87-1.38-0.01-1.36zM402.4 464.49c0.31-0.37 0.31-0.9 0.34-1.42 0.09-1.6 0.06-3.22-0.04-4.82-0.05-0.88-1.42-0.88-1.37 0 0.06 1 0.09 2.01 0.09 3.01 0 0.45 0.1 1.38-0.05 1.81 0.01 0.11 0.01 0.23 0.02 0.34-3.33-3.46-6.82-6.79-10.29-10.12-0.03-0.06-0.07-0.1-0.12-0.15 0.07-0.1 0.13-0.22 0.13-0.38v-8.11c0-0.88-1.37-0.88-1.37 0v7.32c-8.34-8.05-16.43-16.31-21.69-27.04-2.84-5.8-5.22-11.8-7.57-17.81a0.63 0.63 0 0 0-0.02-0.33c-0.98-2.9-1.54-5.86-1.68-8.92-0.04-0.88-1.41-0.88-1.37 0 0.03 0.6 0.08 1.2 0.14 1.79-1.58-3.96-3.21-7.9-5.04-11.76-1.53-3.22-2.91-6.4-4.14-9.58 0.14-0.11 0.25-0.27 0.27-0.49 0.59-5.15 1.66-10.18 3.19-15.13 0.26-0.85-1.06-1.21-1.32-0.36-1.39 4.5-2.37 9.07-3 13.72-4.24-11.69-6.14-23.38-4.09-36.6 0.13-0.86-1.19-1.24-1.32-0.36-2.03 13.11-0.88 25.97 4.1 38.31 5.72 14.2 11.96 28.38 18.05 42.45 4.81 11.12 11.25 20.55 19.85 29.06 1.23 1.21 2.47 2.4 3.72 3.59-1.36-0.25-2.71-0.53-4.05-0.87-0.86-0.21-1.22 1.11-0.36 1.32 2.05 0.51 4.11 0.91 6.2 1.23 3.3 3.09 6.6 6.16 9.78 9.33h-5.07c-0.88 0-0.88 1.37 0 1.37h4.74c0.51 0 1.15 0.08 1.76 0.08 4.86 4.98 9.36 10.29 12.86 16.54 0.43 0.77 1.62 0.08 1.18-0.69-3.44-6.07-7.77-11.36-12.46-16.33z" fill="#99A95F" /><path d="M374.78 432.07a62.978 62.978 0 0 1-0.79-15.57c0.06-0.88-1.31-0.88-1.37 0-0.38 5.36-0.09 10.65 0.84 15.94 0.15 0.87 1.48 0.5 1.32-0.37z" fill="#99A95F" /><path d="M678.42 580.34c0-7.32 1.83-65.86-7.32-69.52s-98.79 10.98-157.33 7.32c-41.72-2.61-93.67-1.5-120.07-0.65-9.72 0.31-17.41 8.29-17.37 18.02 0.29 65.71 7.35 270.65 5.72 277.16-1.23 4.92 4.15 7.36 18.93 9.54h0.03a3.49 3.49 0 0 1 2.99 3.46v11.68c0 1.57 1.17 2.88 2.73 3.03 13.33 1.32 72.59 6.83 116.17 5.21 48.11-1.78 92.75 3.38 130.53-6.49 1.72-0.45 2.79-2.16 2.5-3.91l-0.9-5.41a3.457 3.457 0 0 1 2.97-3.99c0.84-0.1 1.55-0.21 2.1-0.32 18.29-3.66 21.95-9.15 23.78-14.63 1.86-5.49-5.46-223.18-5.46-230.5z" fill="#F67D57" /><path d="M681.83 695.37c-7.77-13.67-21.2-22.23-32.53-32.89-6.02-5.65-10.32-12.2-14.03-19.08 2.63-5.73 5.56-11.27 9.02-16.46 8.85-13.26 20.01-25.23 29.51-38.12 1.68 2.41 3.37 4.83 5.07 7.23-0.18-5.43-0.29-9.68-0.37-12.4-0.18-0.26-0.37-0.49-0.53-0.75l0.49-0.73c-0.02-0.91-0.04-1.52-0.04-1.81 0-1.66 0.09-5.96 0.13-11.69-1.45 2.8-3.04 5.52-4.72 8.2-14.43-21.09-28.39-42.51-41.82-64.28-2.45 0.24-4.99 0.46-7.59 0.71 14.51 23.62 29.6 46.85 45.31 69.66-9.31 13.14-20.73 25.14-29.84 38.29-3.2 4.61-5.93 9.59-8.4 14.78-3.97-8.16-7.67-16.54-12.81-24.29-10.65-16.1-28.68-25.76-41.53-40.06 15.28-18.81 30.99-37.25 43.52-58.05-2.76 0.26-5.6 0.51-8.49 0.77-11.67 18.46-25.76 35.16-39.55 52.08-13.61-15.71-26.8-31.79-40.14-47.75-3.05 0-6.06-0.04-9-0.13 14.91 17.76 29.67 35.67 44.76 53.27-6.86 8.52-13.57 17.14-19.79 26.12-4.52 6.49-8.58 13.17-12.27 20.01-3.04-3.57-6.09-7.13-9.17-10.7-12.68-14.73-25.37-29.43-38.07-44.14 10.06-15.51 20.82-30.53 32.91-44.62-2.76-0.09-5.47-0.22-8.1-0.38-0.16-0.02-0.33-0.02-0.49-0.04-10.46 12.64-19.99 25.94-28.96 39.64-11.85-13.72-23.71-27.48-35.56-41.22-5.6 0-11.09 0.04-16.35 0.09-9.92 14.23-22.96 26-32.69 40.39-3.84 5.67-6.81 11.85-9.64 18.11-2.69-3.88-5.43-7.74-8.21-11.56-1.37-1.88-3.71-1.79-5.2-0.75 0.04 1.76 0.07 3.55 0.11 5.38 3.42 4.7 6.75 9.46 10.03 14.25-2.76 6.15-5.65 12.2-9.35 17.78 0.09 3.62 0.18 7.3 0.26 11.03 5.76-6.73 9.77-14.47 13.45-22.39a602.68 602.68 0 0 1 11.53 17.98c7.59 12.4 13.72 26.87 23.67 37.61a56.13 56.13 0 0 0 3.81 3.75c-3.15 4.94-6.42 9.79-9.93 14.49-11.31 15.17-25.59 27.55-40.15 39.5 0.07 2.89 0.15 5.76 0.22 8.6 15.11-12.26 30.2-24.73 42.37-40.06 4.61-5.8 8.82-11.89 12.82-18.13 7.79 5.98 16.41 11.1 23.54 17.87 5.2 4.94 10.02 10.24 14.65 15.73 2.18 2.54 16.32 20.36 21.97 21.09 12.49-14.09 23.51-28.5 30.2-46.52 3.86-10.39 7.65-20.4 12.07-30.11 19.52 23.42 37.87 47.69 51.81 75.02-2.18 2.71 0.93 7.39 4.28 5.16 20.93-14.01 28.34-37.26 37.69-59.36 2.58 4.32 5.51 8.47 9.09 12.24 12.28 12.92 28.89 21.7 36.81 38.29-2.43 1.79 0.2 5.98 3.2 4.46 0.46-0.24 0.9-0.49 1.32-0.79-0.1-3.44-0.21-6.88-0.3-10.32z m-247.94-53.12c-1.3-1.19-2.56-2.41-3.73-3.77-6.33-7.32-10.56-16.48-15.4-24.79-6.38-10.94-13.19-21.62-20.29-32.11 2.87-6.35 5.8-12.68 9.53-18.6 10.43-16.56 25.63-29.4 36.29-45.81 13.39 15.53 26.76 31.04 40.15 46.58-10.02 15.68-19.41 31.78-28.74 47.89-5.88 10.17-11.64 20.53-17.81 30.61z m89.11 5.91c-3.79 10.98-7.65 21.73-13.99 31.54-4.7 7.24-10.24 13.87-15.99 20.32-1.92-3.22-4.43-6.26-5.71-7.9-10.68-13.5-21.93-26.62-35.82-36.94-3.99-2.96-8.23-5.65-12.24-8.6 5.23-8.54 10.15-17.27 15.15-25.89 10.02-17.31 20.01-34.67 30.72-51.55 11.62 13.48 23.25 26.95 34.89 40.45 4.28 4.98 8.58 9.97 12.82 15-3.74 7.6-7.03 15.43-9.83 23.57z m91.3-30.57c0.46 0.77 0.9 1.54 1.34 2.31-0.9-0.09-1.77 0.29-2.3 1.39-2.67 5.6-7.15 9.02-11.96 12.73-0.84 0.64-2.45 2.36-3.48 2.67h-0.07c0.05-0.18 0.07-0.38 0.07-0.59-0.02-0.82 0-1.76 0.07-2.56 0.49-0.31 0.88-0.8 1.06-1.54 2.8-11.36 1.76-22.54-2.85-33.26a1.93 1.93 0 0 0-0.27-0.49c7.05 5.62 13.57 11.44 18.39 19.34z m-19.08 83.82c-14.53-28.25-33.73-53.34-54.08-77.57 3.4-6.81 7.19-13.48 11.63-20.07 6.27-9.22 13.08-18.06 20.05-26.76 6.11 6.77 12.57 13.01 19.81 18.66 0.75 0.6 1.5 1.19 2.25 1.77-1.87-0.7-4.54 1.55-3.46 4.08 3.9 9.06 4.65 18.7 2.45 28.26-0.57 0.33-0.99 0.84-1.12 1.54-0.15 0.95-0.26 1.92-0.31 2.89-0.55-0.8-1.06-1.7-1.63-2.6-6.13-9.79-12.04-19.74-17.49-29.93-1.68-3.11-6.42-0.35-4.74 2.78 4.17 7.77 8.62 15.42 13.19 22.96 2.85 4.68 6.31 14.27 11.56 16.56 4.46 1.94 8.65-3.6 11.76-5.98 5.2-3.95 9.99-7.83 12.88-13.81 3.46 6.62 6.4 13.5 9.77 20.12-8.73 20.64-15.45 42.92-32.52 57.1z" fill="#F4E7E0" /><path d="M412.35 697.21c1.01 6.94 4.97 13.32 8.44 19.31 3.57 6.16 11.6 14.29 17.99 17.49 3.66 1.83 11.97-9.36 15.1-14.41 5.21-8.41 10.41-16.81 15.62-25.22 1.87-3.01-2.88-5.77-4.74-2.77-3.72 6-7.44 12.01-11.16 18.01-2.63 4.24-5.81 12.13-10.56 15.35 1.67-17.69 2.45-35.42 2.28-53.19-0.03-3.53-5.52-3.54-5.49 0 0.19 18.99-0.68 37.92-2.59 56.82-8.67-7.68-17.92-21.36-19.59-32.84-0.52-3.49-5.81-2.01-5.3 1.45z" fill="#F4E7E0" /><path d="M429.91 684.09c-4.41 0-4.42 6.86 0 6.86 4.41 0 4.42-6.86 0-6.86zM453.53 682.66c-4.41 0-4.42 6.86 0 6.86s4.42-6.86 0-6.86zM523.03 687.15c4.47 9.01 8.91 18.02 13.33 27.06 0.35 0.72 3.68 3.2 5.22 2.31 10.24-5.95 25.44-13.15 26.18-26.68 0.19-3.53-5.29-3.52-5.49 0-0.53 9.64-12.46 15.86-20.73 20.41 0.4-16.77 0.86-33.54 1.8-50.29 0.2-3.53-5.29-3.52-5.49 0-0.78 13.88-1.23 27.77-1.59 41.67-2.83-5.75-5.64-11.5-8.49-17.24-1.57-3.17-6.3-0.4-4.74 2.76z" fill="#F4E7E0" /><path d="M533.53 673.53c-4.41 0-4.42 6.86 0 6.86 4.41 0 4.42-6.86 0-6.86zM554.82 674.07c-4.41 0-4.42 6.86 0 6.86s4.42-6.86 0-6.86zM540.15 743.38c4.41 0 4.42-6.86 0-6.86s-4.42 6.86 0 6.86zM613.65 703.99c2.16 8.67 13.46 18.83 22.45 19.39 0.64 0.04 1.16-0.16 1.59-0.48 0.88 0.37 1.93 0.28 2.8-0.62 3.85-3.97 7.45-8.15 10.78-12.58 3-4 6.65-8.27 6.08-13.56-0.37-3.47-5.87-3.51-5.49 0 0.5 4.63-4.24 9.47-6.94 12.87-2.27 2.86-4.71 5.58-7.23 8.23-2.18-6.76-0.16-15.78 0.43-22.35 0.67-7.43 1.15-14.76 0.84-22.23-0.14-3.52-5.63-3.54-5.49 0 0.4 9.76-0.65 19.36-1.46 29.07-0.43 5.13-1 10.1-0.06 14.92-5.7-2.77-11.87-9.57-13.01-14.12-0.85-3.43-6.15-1.98-5.29 1.46z" fill="#F4E7E0" /><path d="M646.27 687.31c-4.41 0-4.42 6.86 0 6.86s4.42-6.86 0-6.86zM626.05 689.46c-4.41 0-4.42 6.86 0 6.86 4.41 0 4.42-6.86 0-6.86zM406.6 710.01c2.68 6.55 6.64 12.1 11.26 17.43 4.84 5.58 9.74 11.44 16.54 14.64 3.18 1.49 5.97-3.24 2.77-4.74-5.82-2.74-9.94-7.59-14.13-12.31-4.44-5-8.59-10.23-11.14-16.47-1.33-3.24-6.64-1.83-5.3 1.45zM441.33 740.61c-3.5 0.03-3.5 5.49 0.03 5.49 0.63 0 3.35-0.77 3.98-1.7 8.61-12.77 23.54-19.86 30.23-34.12 1.49-3.18-3.24-5.97-4.74-2.77-6.43 13.72-20.82 21-29.5 33.1zM515.16 698.76c-2.65-2.32-6.54 1.55-3.88 3.88 7.8 6.85 12.65 14.86 18.78 23.07 2.48 3.32 6.74 9.9 11.56 9.51 2.56-0.2 5.06-3.14 6.99-4.62 4.1-3.16 8.07-6.31 12.75-8.59 6.73-3.28 12.78-5.6 14.78-13.38 0.88-3.42-4.41-4.88-5.29-1.46-1.95 7.59-11.55 9.24-17.22 12.9-2.28 1.47-4.4 3.15-6.55 4.81-3.74 2.89-5.14 4.7-9.22 1.72-4.68-3.42-7.5-10.6-10.83-15.23-3.43-4.76-7.45-8.74-11.87-12.61zM610.28 711.72c-2.3-2.69-6.17 1.21-3.88 3.88 4.27 4.97 9.19 9.1 15.06 12.07 4 2.03 9.4 6 14.28 6.74-4.06 0.36-3.96 6.83 0.34 6.83 4.03 0 4.37-5.71 1.03-6.7 0.36 0.01 0.71-0.01 1.06-0.05 12.74-1.46 23.05-16.38 30.06-25.58 2.14-2.81-2.62-5.54-4.74-2.77-6.14 8.05-17.33 25.16-29.49 21.4-8.89-2.75-17.72-8.83-23.72-15.82zM411.99 649.97c-4.9 6.88-7.46 14.84-13.26 21.18-3.33 3.62-9.18 9.71-14.23 10.54-1.72 0.27-3.38-0.04-4.99-0.77-0.05-2.58-0.13-5.18-0.2-7.79l0.04 0.04c3.04 2.62 3.57 2.73 6.75 1.5 11.25-4.34 14.91-18.68 21.17-27.48 2-2.86 6.77-0.11 4.72 2.78z" fill="#F4E7E0" /><path d="M404.24 637.75c-1.98 11.67-9.51 20.6-17.42 28.92-0.15 0.18-0.31 0.31-0.48 0.42-1.26 0.97-3.17 1.04-3.97-0.68l-3.46-7.43v-0.02c-0.11-4.57-0.22-9.13-0.35-13.68 1.28 2.74 2.56 5.51 3.84 8.25 0.46-12.17 0.9-24.35 1.34-36.53 0.13-3.53 5.62-3.53 5.49 0-0.49 13.5-0.99 27-1.46 40.5 5.31-6.18 9.75-12.86 11.16-21.2 0.59-3.49 5.88-2.01 5.31 1.45z" fill="#F4E7E0" /><path d="M395.67 625.99c-4.41 0-4.42 6.86 0 6.86 4.41 0 4.42-6.86 0-6.86zM379.45 631.66c-0.46 0-0.86-0.07-1.23-0.2-0.05-2.14-0.11-4.26-0.16-6.38 0.4-0.18 0.86-0.27 1.39-0.27 4.41-0.01 4.41 6.85 0 6.85zM517.07 628.62c-4.54 5.31-8.93 10.74-13.09 16.36-4.01 5.42-7.41 13.82-12.31 18.16-3.42 3.03-3.01 2.11-6.38-1.55-2.39-2.59-4.68-5.28-7.01-7.92-5.45-6.16-10.91-12.32-16.36-18.47-2.35-2.65-6.22 1.24-3.88 3.88 6.23 7.04 12.47 14.07 18.7 21.11 3.7 4.18 7.51 10.05 12.85 12.24 0.93 0.38 1.98-0.12 2.67-0.71 4.86-4.14 7.91-11.84 11.56-17.11 5.32-7.68 11.07-15.02 17.14-22.12 2.27-2.66-1.59-6.56-3.89-3.87z" fill="#F4E7E0" /><path d="M486.32 646.75c1.14 1.67 3.64 1.87 4.74 0 3.3-5.62 7.75-8.71 11.68-13.63 3.96-4.96 5.64-10.74 10.15-15.57 2.41-2.58-1.46-6.47-3.88-3.88-4.65 4.97-6.67 10.91-10.75 16-2.32 2.9-4.85 5.36-7.22 8.02 0.29-16.33-0.39-32.6-2.08-48.85-0.36-3.48-5.85-3.51-5.49 0 1.68 16.17 2.36 32.36 2.08 48.61-6.58-6.67-14.51-12.05-19.38-20.21-1.81-3.03-6.55-0.27-4.74 2.77 6.41 10.74 17.89 16.53 24.89 26.74z" fill="#F4E7E0" /><path d="M479.42 614.71c4.41 0 4.42-6.86 0-6.86-4.41 0-4.42 6.86 0 6.86zM499.7 613.04c4.41 0 4.42-6.86 0-6.86-4.41 0-4.42 6.86 0 6.86zM490.87 679.91c-4.41 0-4.42 6.86 0 6.86s4.43-6.86 0-6.86zM382.78 691.31c4.41 0 4.42-6.86 0-6.86-4.41 0-4.42 6.86 0 6.86zM615.97 636.32c-3.99 6.28-8.22 12.37-12.93 18.15-4.12 5.06-7.12 10.89-13.14 5.02-8.29-8.09-19.15-20.11-22.31-31.49-0.94-3.4-6.24-1.95-5.29 1.46 2.28 8.19 8.21 15.21 13.31 21.88 4.38 5.73 10.09 14.16 16.66 17.49 4.83 2.45 7.36-1.98 10.42-5.46 6.67-7.59 12.62-15.74 18.03-24.27 1.89-3-2.86-5.75-4.75-2.78zM588.71 619.25c4.41 0 4.42-6.86 0-6.86s-4.43 6.86 0 6.86zM605.65 623.06c4.41 0 4.42-6.86 0-6.86s-4.42 6.86 0 6.86zM596.58 673.23c-4.41 0-4.42 6.86 0 6.86 4.41 0 4.42-6.86 0-6.86zM681.19 673.4c-0.86 0.07-1.79-0.24-2.43-0.75-11.74-9.35-23.38-18.82-34.92-28.41-2.73-2.25 1.19-6.13 3.88-3.88 10.59 8.8 21.26 17.47 32.01 26.07 0.38-0.79 0.77-1.56 1.19-2.3 0.08 3.07 0.18 6.14 0.27 9.27zM680.47 649.31c-0.24 0.16-0.48 0.33-0.73 0.49-0.51 0.35-1.02 0.46-1.5 0.44-0.64 0.15-1.37 0.09-2.05-0.2-7.7-3.27-14.65-7.48-21.26-12.6-2.8-2.16 1.12-6.02 3.88-3.88 5.03 3.9 10.37 7.12 16.04 9.86 0.13-12.15 0.16-24.29 0.09-36.42-0.02-2.43 2.54-3.18 4.17-2.3v0.02c0.36 11.95 0.85 27.45 1.36 44.59z" fill="#F4E7E0" /><path d="M668.4 621.93c-4.41 0-4.42 6.86 0 6.86s4.42-6.86 0-6.86zM681.52 684.85c-0.07 0.02-0.15 0.02-0.22 0.02-4.43 0-4.43-6.86 0-6.86h0.04c0.05 2.27 0.12 4.56 0.18 6.84zM451.44 582.63c-2.23 6.68-15.29 24.58-24.38 20.41-3.29-1.51-6.8-6.57-9.24-9.23-4.27-4.65-8.15-9.59-11.81-14.72-2.03-2.85-6.8-0.11-4.74 2.77 4.89 6.84 10.15 13.37 16.05 19.38 2.99 3.05 7.5 9.51 12.33 9.29 4.54-0.2 11.3-6.35 14.67-9.06 5.86-4.71 10.03-10.27 12.42-17.39 1.11-3.34-4.19-4.78-5.3-1.45z" fill="#F4E7E0" /><path d="M433.96 591.36c4.98-1.61 10.51-6.61 14.83-9.62 4.99-3.47 9.38-7.11 13.1-11.94 2.15-2.8-2.61-5.53-4.74-2.77-5.16 6.7-12.59 10.96-19.52 15.59-0.26 0.17-0.51 0.3-0.76 0.45 7.09-11.92 2.2-26.31 3.33-39.79 0.29-3.52-5.2-3.5-5.49 0-1.07 12.81 5.02 28.78-4.35 39.61a2.71 2.71 0 0 0-0.69 1.98c-5.67-0.69-10.16-6.38-14-11.94-1.99-2.89-6.75-0.15-4.74 2.77 4.51 6.52 13.69 18.67 23.03 15.66z" fill="#F4E7E0" /><path d="M427.88 559.83c4.41 0 4.42-6.86 0-6.86-4.41 0-4.42 6.86 0 6.86zM446.97 560.79c4.41 0 4.42-6.86 0-6.86s-4.42 6.86 0 6.86zM428.6 612.39c-4.41 0-4.42 6.86 0 6.86 4.41 0 4.42-6.86 0-6.86zM535.02 594.49c-4.41 0-4.42 6.86 0 6.86 4.41 0 4.42-6.86 0-6.86zM634.28 604.03c-4.41 0-4.42 6.86 0 6.86s4.42-6.86 0-6.86zM541.53 565.2c-1.59 3.71-3.59 8.28-6.65 11.01-3.66 3.25-4.74 1.51-8.28-0.76-6.41-4.12-13.16-7.25-17.99-13.36-2.19-2.77-6.05 1.14-3.88 3.88 3.27 4.13 7.29 7.07 11.75 9.81 2.43 1.5 4.96 2.85 7.36 4.41 1.97 1.28 4.11 3.87 6.43 4.46 7.41 1.89 13.74-11.42 16-16.68 1.38-3.21-3.34-6.01-4.74-2.77z" fill="#F4E7E0" /><path d="M519.35 563.67c2.18 2.17 6.07 6.08 9.44 5.76 3.29-0.31 5.34-4.79 6.72-7.24 2.3-4.08 4-8.43 5.23-12.94 0.93-3.41-4.36-4.87-5.29-1.46-0.7 2.57-1.53 5.09-2.61 7.53a77.707 77.707 0 0 0-7.45-23.9c-1.58-3.16-6.31-0.38-4.74 2.77 4.09 8.2 6.52 16.88 7.26 26.01 0.08 0.95 0.55 1.64 1.18 2.08-0.36 0.35-0.73 0.58-1.1 0.65-2.07 0.36-4.95-3.24-6.26-4.77-1.97-2.29-3.42-4.82-4.66-7.56-1.45-3.21-6.18-0.43-4.74 2.77 1.72 3.82 4.04 7.33 7.02 10.3z" fill="#F4E7E0" /><path d="M517.84 549.57c4.41 0 4.42-6.86 0-6.86s-4.42 6.86 0 6.86zM533.59 543.84c4.41 0 4.42-6.86 0-6.86s-4.43 6.86 0 6.86zM653.74 574.67c-4.19 5.07-14.45 19.91-22.31 18.28-3.06-0.63-7.73-5.7-10.28-7.61-4.85-3.65-9.44-7.2-13.17-12.04-2.13-2.76-6.9-0.03-4.74 2.77 3.72 4.83 8.08 8.68 12.92 12.36 4.04 3.06 10.44 10.1 15.42 10.63 9.95 1.05 20.75-14.11 26.03-20.5 2.24-2.71-1.62-6.61-3.87-3.89z" fill="#F4E7E0" /><path d="M633.64 573.35c-1.16-0.27-2.33-0.71-3.52-1.38-6.67-3.8-12.58-9.48-18.58-14.23-2.74-2.17-6.65 1.69-3.88 3.88 7.38 5.84 16 15.23 25.4 17.68 8.52 2.22 16.61-4.63 23.43-8.85 3-1.86 0.24-6.61-2.77-4.74-4.63 2.87-9.51 6.63-14.67 7.68 0.05-0.33 0.05-0.68-0.04-1.06-1.58-7.12-1.74-14.28-2.6-21.49-0.75-6.31-3.32-12.71-2.76-19.02 0.31-3.52-5.18-3.5-5.49 0-0.66 7.4 2.33 14.64 3.06 21.99 0.68 6.58 1.04 13.07 2.42 19.54z" fill="#F4E7E0" /><path d="M620.68 553.15c4.41 0 4.42-6.86 0-6.86-4.41 0-4.42 6.86 0 6.86zM642.63 560.79c4.41 0 4.42-6.86 0-6.86-4.41 0-4.42 6.86 0 6.86zM418.42 516.86c-5.05 6.35-10.48 12.29-16.21 18.04-3.75 3.75-9.53 11.6-14.31 13.63-2.1 0.91-2.58 0.4-4.45-0.4-2.31-1.01-4.88-4.12-7.08-6.66-0.02-2.1-0.04-4.1-0.04-5.96 0-0.64 0.04-1.28 0.09-1.92 1.68 1.65 3.38 3.29 5.07 4.94 5.4 5.29 6.31 2.69 11.14-1.96 6.51-6.24 12.79-12.68 18.59-19.56 2.31-0.06 4.71-0.09 7.2-0.15z" fill="#F4E7E0" /><path d="M402.21 517.25c-3.38 4.43-7.08 8.6-11.1 12.46-1.32 1.24-6.18 0.13-7.15-0.64-1.52-1.21-3.06-2.4-4.63-3.53 1.01-1.54 2.27-2.91 3.7-4.06 0.31 0.24 0.62 0.46 0.93 0.69 0.04-0.49 0.07-0.99 0.11-1.48 1.68-1.17 3.57-2.05 5.62-2.6-0.04 0.37-0.07 0.71-0.11 1.08-0.13 1.55-0.2 3.09-0.33 4.63 2.01-2.03 3.95-4.15 5.78-6.33h0.02c2.22-0.08 4.61-0.15 7.16-0.22zM502.26 517.52a296.96 296.96 0 0 0-9.81 10.26c-2.85 3.15-5.63 8.01-9.44 10.04-1.08 0.59-2.43 0.46-3.31-0.44-2.41-2.38-4.01-5.8-6.07-8.51-2.82-3.68-5.91-7.02-9.22-10.24-0.66-0.64-0.9-1.39-0.8-2.09 2.18 0.02 4.37 0.05 6.57 0.07 2.41 2.45 4.7 4.99 6.84 7.7 0.64 0.81 1.23 1.66 1.79 2.56 0.11-0.4 0.97-8.85 1.41-10.08 1.85 0.04 3.68 0.07 5.51 0.13-0.26 0.71-1.54 11.74-1.21 12.18 3.04-2.62 3.44-4.59 5.87-7.21 1.46-1.57 2.95-3.15 4.46-4.68 2.48 0.09 4.95 0.2 7.41 0.31zM602.4 515.23c0.05 0.66-0.2 1.34-0.84 1.94-6.93 6.38-11.27 14.25-17.4 21.24-2.71 3.09-8.6 10.74-13.19 11.07-9.62 0.66-17.78-21.77-22.79-27.5-0.99-1.12-0.86-2.45-0.2-3.44 1.45-0.04 2.89-0.09 4.34-0.13 4.43 5.47 13.02 25.61 19.61 24.02 5.36-1.3 11.67-12.38 14.21-16.14 2.65-3.91 5.58-7.24 8.87-10.46 2.48-0.19 4.95-0.39 7.39-0.6z" fill="#F4E7E0" /><path d="M584.87 516.61c-1.85 2.71-4.12 5.07-6.31 7.54-1.77 2.01-3.16 4.04-4.45 6.37-0.8 1.45-1.45 2.71-3.07 3.31-3.71 1.39-5.2-1.65-6-4.63-1.01-3.77-3.15-7.32-3.79-11.14 1.87-0.09 3.71-0.18 5.56-0.29 0.04 0.26 0.11 0.49 0.18 0.75 0.02-0.26 0.04-0.51 0.04-0.77h0.02c1.85-0.09 3.68-0.2 5.51-0.29-0.11 1.94-0.24 3.86-0.35 5.8 0.66-0.86 1.35-1.7 2.07-2.52 1.06-1.21 2.14-2.38 3.18-3.59h0.02l7.39-0.54zM678.11 542.2c-2.91 2.98-6.37 5.62-10.76 5.45-6.27-0.24-8.2-5.34-10.94-10.15-4.45-7.87-9.37-15.44-14.62-22.81-0.82-1.15-0.55-2.27 0.2-3.02 1.37-0.11 2.71-0.22 4.01-0.33 0.18 0.16 0.37 0.35 0.53 0.59 3.7 5.2 7.26 10.48 10.59 15.93 3.11 5.1 6.33 14.74 14.1 13.15 1.88-0.4 4.23-2.73 6.46-5.43 0.18 2.16 0.31 4.37 0.43 6.62z" fill="#F4E7E0" /><path d="M676.83 526.98c-2.71 2.41-5.4 4.85-8.73 6.48-1.66 0.82-3.22-0.11-3.86-1.39-0.07-0.05-0.15-0.07-0.2-0.15-5.12-4.56-7.83-14.47-9.82-20.8-0.04-0.13-0.07-0.27-0.09-0.4 2.03-0.15 3.9-0.26 5.62-0.33 1.46 4.79 3.37 11.78 6.66 16.01 3.82-3.62 3.73-11.69 2.71-15.99 0.86 0.09 1.54 0.24 1.99 0.42 1.81 0.73 3.18 3.6 4.24 7.81v0.02c-0.22 0.99-0.48 2.05-0.82 3.16 0.44-0.38 0.86-0.77 1.3-1.13 0.38 1.9 0.71 4.02 1 6.29zM670.07 561.02c4.41 0 4.42-6.86 0-6.86-4.41 0-4.42 6.86 0 6.86zM573.79 558.52c4.41 0 4.42-6.86 0-6.86-4.41 0-4.42 6.86 0 6.86z" fill="#F4E7E0" /><path d="M683.93 778.85c-1.81-0.79-3.7-1.5-5.51-2.27-1.04-0.44-2.74-0.8-3.97-1.52-5.18 0.2-10.37 0.37-15.55 0.53 3.35 2.23 6.95 3.95 10.85 5.09 0.84 0.26 0.49 1.57-0.37 1.32a40.793 40.793 0 0 1-12.79-6.33c-1.28 0.04-2.54 0.07-3.82 0.11-0.13 1.26-1.01 2.41-2.63 2.41-1.55 0-2.41-1.06-2.6-2.25-3.31 0.09-6.6 0.15-9.9 0.24 2.34 0.62 4.66 1.39 6.93 2.32 0.8 0.33 0.46 1.66-0.37 1.32-4.06-1.66-8.25-2.8-12.57-3.49-3.77 0.07-7.54 0.15-11.29 0.2 0.16 0.62 1.26 0.71 2.47 1.28 2.43 1.13 4.85 2.27 7.26 3.4 0.79 0.37 0.09 1.55-0.7 1.17-2.6-1.21-5.21-2.43-7.81-3.64-0.91-0.42-2.74-0.79-3.02-1.94-0.02-0.07 0-0.16-0.02-0.24-4.13 0.07-8.27 0.15-12.4 0.22-0.29 1.02-1.13 1.88-2.52 1.88h-5.38c-1.34 0-2.16-0.79-2.49-1.77-3.9 0.05-7.77 0.09-11.67 0.13 0.6 0.38 1.81 0.86 2.14 1.02 4.15 2.01 8.58 3.18 13.15 3.64 0.88 0.09 0.88 1.46 0 1.37-3.82-0.38-7.54-1.19-11.1-2.62-1.61-0.64-5.27-1.65-6.18-3.4-5.45 0.04-10.9 0.09-16.35 0.11-0.15 0.24-0.24 0.48-0.16 0.79 0.16 0.86 0.99 0.55 1.79 0.6 1.23 0.11 2.41 0.31 3.6 0.57 3.22 0.7 6.29 1.88 9.37 3.06 0.82 0.31 0.46 1.65-0.37 1.32-2.34-0.9-4.7-1.79-7.13-2.49-2.4-0.68-4.76-0.77-7.19-1.17-1.34-0.2-2.45-0.59-1.99-2.18 0.05-0.16 0.15-0.31 0.22-0.48-3.62 0.02-7.23 0.02-10.85 0.04-0.05 1.34-1.3 2.82-2.73 2.65a37.31 37.31 0 0 0-6.68-0.2c-1.37 0.09-2.54-1.12-2.73-2.41-3.13 0-6.27 0.02-9.4 0.02 0 0.68 0.53 0.91 1.15 1.43 1.52 1.24 3.13 2.4 4.77 3.46 0.75 0.48 0.05 1.66-0.68 1.19-2.18-1.41-4.9-3.02-6.59-5.01-0.31-0.37-0.48-0.71-0.55-1.06h-5.4c-2.41 0-4.83 0.02-7.24 0.02-0.02 0.15-0.04 0.31-0.07 0.46-0.29 1.34-2.03 2.47-3.37 1.92-0.97-0.4-1.46-0.48-2.49-0.37-1.24 0.13-2.23-0.88-2.6-1.99-3.99 0.02-7.98 0.02-11.98 0.04 3.09 1.81 5.91 3.38 8.49 5.98 0.62 0.64-0.35 1.61-0.97 0.97-2.03-2.03-4.28-3.79-6.84-5.16-0.77-0.4-2.74-0.86-3.33-1.79-2.43 0-4.88-0.02-7.34-0.02 0.05 0.62 0.91 0.93 1.88 1.32 3.29 1.35 6.44 2.85 9.46 4.72 0.75 0.46 0.07 1.65-0.68 1.19-2.56-1.57-5.21-2.96-7.99-4.12-1.3-0.53-4.15-1.19-4.81-2.67-0.07-0.16-0.09-0.31-0.11-0.44-4.5-0.02-9.02-0.07-13.52-0.15-0.16 1.23-1.02 2.34-2.62 2.34-1.63 0-2.51-1.17-2.62-2.43a574 574 0 0 1-11.73-0.33c0.15 1.5 3.68 1.76 4.83 2.21 2.69 1.1 5.14 2.67 7.83 3.79 0.8 0.33 0.46 1.66-0.37 1.32-3.44-1.43-6.62-3.71-10.28-4.61-1.41-0.35-4.01-0.4-4.15-2.34-0.02-0.15 0.04-0.29 0.05-0.42-3.49-0.13-6.97-0.29-10.46-0.49-1.72-0.09-3.42-0.2-5.14-0.33-0.22 1.23-1.37 2.41-2.69 2.29-2.56-0.24-5.58-0.09-7.88-1.34-0.97-0.51-1.35-1.34-1.37-2.16-5.62-0.66-11.21-1.45-16.81-2.27 0.16 0.26 0.53 0.53 1.04 0.91 0.7 0.55 1.43 1.06 2.21 1.52 1.81 1.04 3.77 1.79 5.8 2.31 0.86 0.22 0.49 1.55-0.37 1.34-3.06-0.81-5.91-2.09-8.43-4.01-0.79-0.6-1.98-1.34-2.1-2.32-5.89-0.88-11.76-1.74-17.65-2.52 0.04 0.16 0.26 0.35 0.71 0.49 0.46 0.66 1.77 1.23 2.41 1.66 1.61 1.1 3.22 2.2 4.85 3.29 0.71 0.49 0.04 1.68-0.7 1.17-1.48-1.01-2.96-2.01-4.45-3.02-1.15-0.79-2.71-1.52-3.7-2.52-0.46-0.46-0.7-0.79-0.59-1.28-1.54-0.2-3.07-0.38-4.61-0.57 0-0.46-0.02-0.91-0.02-1.39 1.81 0.2 3.6 0.42 5.41 0.66 1.35-1.48 3.99-2.76 5.51-3.51 2.38-1.21 4.92-2.01 7.54-2.51 0.86-0.16 1.23 1.15 0.37 1.32-3.81 0.71-7.39 2.12-10.54 4.37-0.27 0.2-0.53 0.42-0.79 0.62 5.58 0.73 11.14 1.55 16.72 2.38 1.15-1.37 3.99-2.25 5.4-2.8 2.95-1.15 6-1.77 9.15-2.01 0.88-0.07 0.88 1.3 0 1.37-4.01 0.31-8.74 1.24-12.13 3.55-0.11 0.07-0.18 0.13-0.26 0.2 5.45 0.79 10.9 1.54 16.39 2.2 0.66-1.24 2.16-2.07 3.75-1.21 0.55 0.29 1.35 0.24 1.98 0.29 1.04 0.09 2.1 0.2 3.15 0.29 1.15 0.11 2.16 0.75 2.56 1.77 2.34 0.18 4.68 0.37 7.02 0.48 3.18 0.16 6.35 0.31 9.53 0.42 1.21-1.08 3.29-1.76 4.26-2.29 3.04-1.63 6.07-3.27 9.13-4.87 0.79-0.42 1.48 0.77 0.69 1.17-2.25 1.19-4.5 2.4-6.75 3.6-0.79 0.44-1.59 0.86-2.38 1.28-0.42 0.22-1.68 0.7-2.6 1.17 3.59 0.13 7.19 0.22 10.79 0.29 0.33-0.93 1.15-1.68 2.45-1.68 1.35 0 2.18 0.79 2.51 1.77 4.74 0.07 9.49 0.11 14.25 0.15 0.57-0.48 1.35-0.82 1.87-1.15 2.6-1.59 5.21-3.18 7.81-4.79 0.75-0.46 1.45 0.73 0.7 1.19-1.88 1.15-3.77 2.3-5.65 3.46-0.62 0.38-1.59 0.79-2.25 1.3 2.21 0 4.41 0.02 6.6 0.02 0.73-0.93 2.6-1.43 3.31-1.77 2.58-1.21 5.14-2.41 7.72-3.64 0.8-0.37 1.5 0.8 0.7 1.19-1.99 0.95-4.01 1.88-6 2.84-0.99 0.46-1.96 0.91-2.93 1.37 3.88 0 7.76 0 11.63-0.02 0.26-1.23 1.46-1.99 2.69-2.12 1.34-0.15 2.71 0.05 3.95 0.57 0.81 0.33 1.41 0.86 1.74 1.54 2.49 0 4.99-0.02 7.48-0.02h5.74c0.07-0.11 0.13-0.22 0.22-0.31 0.68-0.66 1.63-0.99 2.4-1.52 1.01-0.7 1.88-1.59 2.87-2.36 1.32-1.04 2.63-1.74 4.32-1.9 0.9-0.07 0.88 1.3 0 1.37-2.8 0.26-4.54 2.8-6.77 4.26-0.29 0.2-0.55 0.31-0.77 0.46 2.95-0.02 5.91-0.02 8.85-0.02 0.42-0.99 1.41-1.63 2.54-1.7 2.23-0.13 4.45-0.07 6.68 0.2 1.02 0.13 1.94 0.62 2.41 1.46 4.06-0.02 8.12-0.02 12.2-0.04 1.46-1.39 3.75-2.43 5.16-3.06 3.11-1.35 6.37-2.31 9.11-4.41 0.71-0.53 1.39 0.66 0.7 1.19-3.77 2.85-8.76 3.51-12.53 6.26 4.85-0.04 9.71-0.07 14.56-0.11 0.79-3.31 10.43-4.85 12.53-5.01 0.9-0.07 0.88 1.3 0 1.37-2.65 0.22-5.1 0.77-7.54 1.85-0.49 0.2-2.07 0.93-2.8 1.77 3.84-0.04 7.68-0.07 11.53-0.13 0.16-1.23 1.02-2.34 2.62-2.34h5.38c1.54 0 2.4 1.04 2.6 2.21 4.24-0.05 8.47-0.13 12.7-0.2 0.53-0.86 1.48-1.59 2.05-2.2 1.01-1.1 6.97-6.38 6.42-7.54-0.37-0.79 0.8-1.5 1.19-0.69 1.24 2.62-3.35 5.65-4.88 7.3-0.86 0.93-1.88 1.83-2.63 2.85-0.07 0.09-0.11 0.15-0.16 0.24 3.06-0.05 6.13-0.11 9.18-0.16 1.72-4.45 7.28-4.3 9.86-7.96 0.49-0.71 1.68-0.04 1.17 0.69-2.32 3.31-7.7 3.64-9.53 7.19 0.05 0.02 0.09 0.02 0.15 0.02 5.31-0.11 10.61-0.24 15.92-0.37 0.31-1.02 1.13-1.87 2.51-1.87 1.32 0 2.14 0.77 2.49 1.72 1.13-0.04 2.27-0.07 3.42-0.11 1.59-1.96 3.44-3.44 5.69-4.57 0.79-0.38 1.48 0.79 0.7 1.19-1.74 0.86-3.2 1.96-4.5 3.31 5.09-0.15 10.15-0.31 15.22-0.49 0-0.02-0.02-0.04-0.04-0.05-0.07-0.24 0.04-0.51 0.18-0.68 1.43-1.54 3.84-2.49 5.67-3.48 1.56-0.82 3.13-1.61 4.72-2.34 0.02 0.49 0.02 0.99 0.04 1.48-1.21 0.57-2.41 1.17-3.59 1.79-1.13 0.6-2.91 1.23-3.81 2.12-0.68 0.69-0.99 0.8-0.73 1.06l8.21-0.33c0.02 0.48 0.02 0.93 0.02 1.37-2.05 0.07-4.1 0.15-6.15 0.24 1.92 1.01 4.28 1.68 6.2 2.47 0.08 0.5 0.08 0.97 0.1 1.45z" fill="#302A27" /></svg>