<?xml version="1.0" standalone="no"?><!DOCTYPE svg PUBLIC "-//W3C//DTD SVG 1.1//EN" "http://www.w3.org/Graphics/SVG/1.1/DTD/svg11.dtd"><svg class="icon" width="200px" height="200.00px" viewBox="0 0 1024 1024" version="1.1" xmlns="http://www.w3.org/2000/svg"><path d="M555.47 591.55c6.95-10.08 4.01-21.81 1.1-32.83-4.48-16.97-5.7-33.99-6.65-51.44-1.94-35.79-3.89-71.58-5.83-107.37-0.09-1.64-2.65-1.65-2.56 0l5.46 100.55c0.8 14.81 1.14 29.79 3.72 44.43 2.53 14.35 11.83 31.91 2.55 45.36-0.93 1.37 1.28 2.65 2.21 1.3z" fill="#4D4733" /><path d="M546.73 428.52c-1.48-8.2 0.26-16.66 2.89-24.57 9.09-27.42 28.4-50.37 39.07-77.22 10.75-27.06 12.22-57.41 5.99-85.85-2.88-13.16-7.38-26.14-7.64-39.61-0.14-7.38 0.84-15.42-3.27-21.55-15.43 20.5-40.84 30.89-59.1 48.91-8.91 8.8-16.01 19.3-25.02 28-4.65 4.49-9.8 8.48-14.14 13.28-13.72 15.17-17.96 37.4-14.09 57.48s15.06 38.16 28.79 53.31c4.6 5.08 9.52 9.9 13.5 15.47 4.21 5.89 7.95 13.05 14.85 15.26 2.99 0.96 6.25 0.82 9.23 1.81s5.83 3.78 5.18 6.86zM465.49 542.84c-4.55-5.93-12.14-8.81-17-14.49-3.91-4.57-5.74-10.57-9.3-15.42-3.36-4.57-8.1-7.89-12.76-11.13-16.38-11.37-33.49-22.91-53.11-26.45-15.63-2.82-31.69-0.34-47.34 2.4-30.55 5.35-60.93 11.67-91.08 18.95-0.86 0.21-1.76 0.44-2.38 1.06-1.67 1.67-0.18 4.48 1.39 6.24 8.82 9.84 20 17.2 31.04 24.45 16.78 11.01 33.57 22.02 50.35 33.04 4.68 3.07 9.38 6.15 14.51 8.41 10.62 4.68 22.47 5.58 34.07 5.93 25.8 0.78 52.38-1 75.83-11.81 10.14-4.68 20.04-11.59 24.27-21.94z" fill="#CDD5CF" /><path d="M554.13 603.47c2.89-2.61 3.26-5.02 4.46-8.66 2.35-7.15 5.6-12 11.3-16.8 8.53-7.18 17.62-13.57 25.63-21.38 7.23-7.05 13.8-15.02 18.02-24.26 4.92-10.78 4.06-23.39 10.03-33.65 0.83-1.43-1.38-2.72-2.21-1.29-5.26 9.02-4.87 19.47-8.24 29.15-4.11 11.82-12.35 21.64-21.36 30.09-7.82 7.33-16.63 13.38-24.7 20.4-3.35 2.92-6.47 6.12-8.54 10.09-2.42 4.65-2.1 10.79-6.21 14.5-1.21 1.1 0.6 2.91 1.82 1.81z" fill="#4D4733" /><path d="M555.93 597.97c0.24-7.82-2.84-14.22-7.63-20.29-6.86-8.7-15.45-16.92-23.65-24.34-5.84-5.28-11.73-5.73-19.42-5.73-12.94 0-25.94 1.48-38.03-4.23-1.48-0.7-2.78 1.51-1.29 2.21 6.63 3.13 13.47 4.44 20.77 4.73 9.2 0.36 19.94-1.9 28.91 0.5 8.74 2.34 16.87 13.81 23.03 20.03 7.48 7.55 15.1 15.78 14.74 27.11-0.05 1.65 2.52 1.65 2.57 0.01z" fill="#4D4733" /><path d="M622.47 500.56c29.65-4.17 59.67-14.91 79.86-37.02 5.11-5.59 9.5-11.82 14.76-17.26 4.67-4.83 9.98-9 14.62-13.86 4.33-4.53 8.03-9.62 11.72-14.68 13.24-18.18 26.69-36.78 33.52-58.2 2.54-7.95 4.12-16.16 5.69-24.35l9.18-47.74c0.26-1.35 0.36-3.09-0.85-3.76-1.51-0.85-3.11 0.9-4.07 2.34-9.44 14.18-27.76 18.79-44.3 22.89a730.596 730.596 0 0 0-55.97 16.28c-6.68 2.24-13.36 4.58-19.63 7.79-7.62 3.89-14.55 8.99-21.44 14.07-11.28 8.32-22.83 16.92-30.32 28.78-5.97 9.46-9 20.47-10.95 31.48-5.34 30.1-2.71 62.65 13.24 88.73 1.21 1.98 2.93 4.16 5.25 4.03z" fill="#CDD5CF" /><path d="M523.25 553.07c-7.06-11.75-13.6-24.11-21.46-35.34-6.3-9-14.9-13.98-24.35-19.17-12.42-6.82-24.85-13.63-37.27-20.44-5.73-3.14-11.47-6.29-17.2-9.43-6.58-3.61-18.49-7.85-18.67-16.87-0.03-1.65-2.59-1.65-2.56 0 0.18 9.53 9.79 13.52 17.07 17.51 13.38 7.34 26.76 14.68 40.14 22.01 12.3 6.74 27.9 12.7 37.33 23.39 10.04 11.38 16.98 26.68 24.77 39.64 0.84 1.41 3.05 0.12 2.2-1.3z" fill="#4D4733" /><path d="M421.78 468.67c-0.31-2.55 0.12-5.07 0.05-7.62-0.08-2.83-0.85-5.4-2.14-7.91-0.75-1.47-2.96-0.17-2.21 1.29 2.47 4.81 1.13 9.19 1.74 14.23 0.2 1.62 2.76 1.64 2.56 0.01zM434.8 475.35c-1.72-3.5 0.34-8.94 1.6-12.21 0.59-1.54-1.88-2.21-2.47-0.68-1.56 4.06-3.42 9.93-1.34 14.18 0.73 1.48 2.94 0.19 2.21-1.29z" fill="#4D4733" /><path d="M439.26 477.65c-6.67-1.86-13.52 1.52-20.22 1.46-1.65-0.01-1.65 2.55 0 2.56 6.43 0.05 13.2-3.33 19.54-1.56 1.59 0.46 2.27-2.01 0.68-2.46zM539.75 565.42c-4.76-27.31-15.5-51.71-29.66-75.39-6.21-10.39-12.44-20.93-21.52-29.11-9.17-8.27-20.09-14.23-30.24-21.15a208.932 208.932 0 0 1-31.67-26.56c-9.46-9.67-17.1-20.61-25.61-31.06-7.87-9.67-16.86-14.44-27.59-20.3a99.536 99.536 0 0 1-29.68-24.82c-8.66-10.75-13.5-24.61-23.71-34.09-11.06-10.28-27.09-16.18-40.33-23.06-1.46-0.76-2.76 1.45-1.29 2.21 11.8 6.14 24.78 11.47 35.6 19.26 11.49 8.27 16.42 21.79 24.44 32.93 5.93 8.24 13.09 15.58 21.19 21.71 9.95 7.54 22.48 11.36 31.8 19.63 9.27 8.23 15.68 19.38 23.68 28.79 8.08 9.5 17.02 18.27 26.66 26.18 20.72 17.01 45.1 27.34 59.93 50.69 16.76 26.39 30.14 53.84 35.54 84.84 0.28 1.6 2.74 0.92 2.46-0.7zM560.67 583.97c17.3-20.51 17.52-47.33 21.56-72.54 4.56-28.48 18.34-52.98 42.78-68.97 1.37-0.9 0.09-3.12-1.29-2.21-19.71 12.89-34.38 32.23-40.72 55-8.09 29.05-3.48 62.43-24.13 86.9-1.07 1.26 0.73 3.08 1.8 1.82z" fill="#4D4733" /><path d="M569.18 570.63c10.78-27.3 4.46-56.81-3.75-83.92-9.38-30.97-22.34-60.68-34.9-90.44-6.28-14.88-13.11-29.79-17.54-45.35-4.28-15.02-4.52-30.74-8.16-45.89-6.47-26.94-21.19-52.76-37.43-74.99-15.91-21.8-36.15-40.65-62.44-48.62-1.58-0.48-2.26 1.99-0.68 2.47 25.6 7.77 45.41 26.22 60.91 47.44 15.55 21.31 29.64 45.89 36.44 71.5 3.73 14.05 4.08 28.68 7.35 42.81 3.28 14.18 9.19 27.65 14.77 41.04 11.6 27.81 23.89 55.36 33.74 83.86 10.81 31.29 22 67.07 9.23 99.41-0.61 1.54 1.87 2.2 2.46 0.68z" fill="#4D4733" /><path d="M559.22 459.5c3.28-15.06 8.25-29.62 15.27-43.36 6.18-12.1 13.64-25.5 24.27-34.24 9.22-7.58 18.18-13.29 25.51-23.02 8.21-10.89 14.84-22.81 25.33-31.81 1.25-1.07-0.57-2.88-1.81-1.81-10 8.57-16.52 19.74-24.2 30.25-3.97 5.43-8.24 10.64-13.44 14.92-5.63 4.64-12.08 8.08-17.22 13.33-19.07 19.51-30.48 48.9-36.17 75.06-0.36 1.61 2.11 2.3 2.46 0.68z" fill="#4D4733" /><path d="M711.49 719.5c-2.23-13.9-5.14-27.35-12.96-39.21-7.93-12.02-16.11-22.06-27.39-31.13-5.71-4.6-12.15-7.44-18.78-10.4-5.34-2.39-9.85-4.44-15.73-4.98-7.67-0.7-14.05-3.73-21.33-5.95-2.73-0.83-7.51-0.79-9.83-2.55-3.7-2.81-1.91-6.57 0.52-9.14 4.25-4.51 8.57-6.2 13.64-9.51 3.06-2 5.95-4.47 5.58-8.42-0.16-1.72-1.88-2.38-3.12-1.99v-0.01H486.25c-0.44-0.14-0.88-0.12-1.29 0h-0.68v0.33c-1.05 0.72-1.55 2.18-0.32 3.24 4.81 4.13 12.71 7.03 15.69 12.8 5.81 11.24-12.37 15.78-19.63 18.41-13.72 4.96-27.35 9.53-40.12 16.72-10.61 5.97-21.98 12.94-28.23 23.75-6.91 11.96-11.31 26.57-15.03 39.79-4.08 14.47-5.22 28.9-3.87 43.86 1.05 11.56 1.73 25.15 8.86 34.84 6.83 9.27 18.35 13.09 29.09 15.65 14.64 3.48 29.67 5.41 44.67 6.38 31.77 2.05 63.61-0.51 95.28-2.99 15.95-1.25 31.91-2.5 47.9-3.2 15.33-0.67 30.86 0.34 46.13-1.12 11.28-1.07 22.68-4.07 31.65-11.32 9.52-7.7 13.78-19.34 15.72-31.09 2.34-14.19 1.7-28.6-0.58-42.76z" fill="#ABC168" /><path d="M625.35 598c-5.97-11.84-24.01-8.78-34.7-8.72l-60.37 0.33c-9.58 0.05-19.16 0.11-28.73 0.16-4.13 0.02-8.31 0.25-12.44 0.1-1.96-0.07-5.39-1.09-7.3 0.45-2.76 2.22-1.1 6.29 0.85 8.39 4.7 5.06 12.99 5.22 19.34 5.27h63.99c18.84 0 39.76 2.6 58.05-2.77 1.42-0.4 1.95-1.93 1.31-3.21z" fill="#E4C8AC" /><path d="M320.81 303.84c2.15-13.2-1.04-26.9-2.81-40-0.22-1.63-2.69-0.93-2.47 0.68 1.71 12.64 4.89 25.89 2.81 38.64-0.26 1.61 2.21 2.31 2.47 0.68z" fill="#4D4733" /><path d="M320.82 287.98c5.77-3.35 9.89-8.71 11.64-15.15 0.43-1.59-2.04-2.27-2.47-0.68-1.58 5.82-5.25 10.6-10.46 13.62-1.42 0.83-0.14 3.04 1.29 2.21zM306.86 294.35c-5.26-0.6-10.29 0.83-15.53 0.65-5.88-0.2-11.54-2.06-17.08-3.85-1.57-0.51-2.24 1.96-0.68 2.47 5.07 1.64 10.21 3.33 15.54 3.8 5.97 0.53 11.79-1.19 17.75-0.51 1.63 0.19 1.62-2.37 0-2.56z" fill="#4D4733" /><path d="M290.42 295.8c-5.27 2.36-10.54 4.72-15.82 7.08-1.5 0.67-0.2 2.88 1.29 2.21 5.27-2.36 10.54-4.72 15.82-7.08 1.51-0.67 0.21-2.88-1.29-2.21zM338.55 330.71c3.04-12.17 4.7-24.45 5-37 0.04-1.65-2.52-1.65-2.56 0-0.29 12.3-1.93 24.38-4.91 36.32-0.4 1.59 2.07 2.28 2.47 0.68z" fill="#4D4733" /><path d="M342.39 317.95c5.88-0.76 10.67-4.55 12.71-10.13 0.56-1.55-1.91-2.22-2.47-0.68-1.6 4.4-5.58 7.65-10.24 8.25-1.61 0.2-1.63 2.77 0 2.56zM330.34 316.26c-5.9-0.23-12.17 1.81-17.9-0.21-4.61-1.63-8.42-4.99-13.01-6.75-1.54-0.59-2.21 1.88-0.68 2.47 5.13 1.97 9.36 5.98 14.76 7.28 5.5 1.32 11.26-0.44 16.83-0.22 1.64 0.05 1.64-2.51 0-2.57z" fill="#4D4733" /><path d="M316.57 316.83c-6.53 0.24-12.34 3.62-15.76 9.19-0.86 1.41 1.35 2.7 2.21 1.29 2.94-4.78 7.94-7.72 13.55-7.92 1.65-0.06 1.65-2.62 0-2.56zM355.58 349.97c-11.82 0.8-22.87-2.01-32.87-8.38-1.39-0.89-2.68 1.33-1.29 2.21 10.31 6.57 21.95 9.55 34.16 8.73 1.63-0.11 1.64-2.67 0-2.56zM366.55 358.23c-1.15-10.36 3.86-20.96-1.66-30.63-0.82-1.43-3.03-0.14-2.21 1.29 5.18 9.08 0.23 19.6 1.31 29.34 0.18 1.62 2.74 1.64 2.56 0zM432.99 194.7c1.3-4.82-0.59-8.53-2.94-12.7-3.66-6.49-6.99-13.04-9.78-19.97-0.61-1.51-3.08-0.85-2.47 0.68 1.73 4.3 3.58 8.53 5.68 12.66 2.8 5.49 8.78 12.2 7.03 18.65-0.42 1.6 2.05 2.28 2.48 0.68z" fill="#4D4733" /><path d="M430.24 183.22c8.5-1.89 23.16-4.64 26.27-14.31 0.5-1.57-1.97-2.25-2.47-0.68-2.67 8.34-17.08 10.89-24.48 12.53-1.61 0.35-0.93 2.82 0.68 2.46zM422.09 189.52c-8.29 3.77-17.29 3.32-26.16 2.74-1.64-0.11-1.64 2.45 0 2.56 9.4 0.62 18.7 0.89 27.45-3.09 1.5-0.68 0.2-2.89-1.29-2.21zM446.01 208.88c-1.63 2.45-13.78 1.31-16.63 1.4-5.28 0.17-10.57 0.22-15.85 0.22-1.65 0-1.65 2.56 0 2.56 7.93 0.01 15.85-0.15 23.77-0.54 3.37-0.17 8.79 0.85 10.92-2.34 0.91-1.39-1.31-2.67-2.21-1.3z" fill="#4D4733" /><path d="M433.84 210.93c-2.86 0.44-4.66 2.71-6.45 4.78-2.26 2.62-4.41 5.32-6.5 8.07-1 1.31 1.23 2.59 2.21 1.29 1.77-2.34 3.6-4.63 5.51-6.86 1.61-1.9 3.29-4.41 5.91-4.81 1.62-0.25 0.93-2.72-0.68-2.47zM464.51 226.67c6.05-10.22 7.42-21.91 3.88-33.24-0.49-1.57-2.96-0.9-2.47 0.68 3.35 10.72 2.1 21.61-3.62 31.27-0.84 1.41 1.37 2.7 2.21 1.29zM474.58 241.06A173.373 173.373 0 0 1 441 227.38c-1.45-0.78-2.75 1.43-1.29 2.21 10.92 5.84 22.3 10.48 34.19 13.94 1.59 0.46 2.27-2.01 0.68-2.47z" fill="#4D4733" /><path d="M457.95 235.23c-3.83 0.52-7.68 0.99-11.5 1.58-2.56 0.39-4.72 1.03-6.69 2.74-1.25 1.08 0.57 2.89 1.81 1.81 2.24-1.94 5.34-2.05 8.14-2.43 2.97-0.41 5.95-0.81 8.92-1.22 1.63-0.23 0.94-2.7-0.68-2.48zM483.76 255.72c0.66-4.47 4.42-8.64 6.08-12.92 1.72-4.45 2.65-9.07 3.07-13.82 0.14-1.64-2.42-1.63-2.56 0-0.49 5.57-1.81 10.95-4.22 16.01-1.6 3.36-4.27 6.3-4.83 10.05-0.24 1.61 2.22 2.31 2.46 0.68zM494.26 276.37c-7.28-2.07-13.58-5.97-18.71-11.53-1.12-1.21-2.93 0.6-1.81 1.81 5.41 5.87 12.16 10.01 19.84 12.19 1.59 0.45 2.27-2.02 0.68-2.47zM501.22 291.05c8.73-10.42 13.9-22.58 15.37-36.1 0.18-1.64-2.38-1.62-2.56 0-1.39 12.79-6.35 24.42-14.62 34.29-1.05 1.26 0.75 3.08 1.81 1.81z" fill="#4D4733" /><path d="M478.92 270.29c-6.47 0.95-12.96 1.65-19.48 2.11-1.63 0.12-1.65 2.68 0 2.56 6.75-0.48 13.47-1.21 20.16-2.2 1.63-0.24 0.93-2.71-0.68-2.47zM504.87 307.7c-5.82-1.86-11.23-4.43-16.24-7.93-4.4-3.08-8.35-6.59-13.18-9.04-1.47-0.74-2.76 1.46-1.29 2.21 5.43 2.75 9.81 6.88 14.88 10.19 4.71 3.08 9.81 5.33 15.15 7.03 1.57 0.51 2.25-1.96 0.68-2.46z" fill="#4D4733" /><path d="M488.09 300.09l-27.43 4.8c-1.62 0.28-0.93 2.75 0.68 2.47l27.43-4.8c1.62-0.28 0.93-2.75-0.68-2.47zM512.6 350.78a73.905 73.905 0 0 1-18.19-15.28c-1.08-1.25-2.88 0.57-1.81 1.81a75.916 75.916 0 0 0 18.71 15.68c1.41 0.84 2.7-1.37 1.29-2.21zM511.39 339.49c7.49-9.63 12.83-20.33 15.92-32.13 0.42-1.6-2.05-2.28-2.47-0.68-2.98 11.37-8.04 21.73-15.26 31-1.01 1.29 0.79 3.11 1.81 1.81zM639.95 336.73c0.01-4.52 0.03-9.04 0.03-13.56-0.01-3.1-0.08-5.97-1.95-8.56-0.96-1.32-3.18-0.04-2.21 1.29 2.17 2.99 1.61 6.95 1.6 10.46-0.01 3.46-0.01 6.91-0.02 10.37-0.01 1.65 2.55 1.65 2.55 0zM626.6 354.22c9.43 1.59 18.67-0.5 26.39-6.2 1.31-0.97 0.04-3.19-1.29-2.21-7.15 5.28-15.62 7.42-24.42 5.94-1.61-0.27-2.3 2.2-0.68 2.47z" fill="#4D4733" /><path d="M634.53 355.13c7.51 3.2 15.07 6.2 23.39 5.44 1.63-0.15 1.64-2.71 0-2.56-7.87 0.72-14.99-2.06-22.09-5.09-1.51-0.64-2.81 1.57-1.3 2.21zM614.49 367.52c-3.15-3.86-3.48-7.51-3.5-12.39-0.01-3.75-0.01-7.49 0-11.24 0-1.65-2.56-1.65-2.56 0-0.01 5.54-0.42 11.29 0.06 16.82 0.3 3.48 2.03 5.97 4.19 8.62 1.05 1.28 2.85-0.54 1.81-1.81z" fill="#4D4733" /><path d="M610.69 357.44c4.59-2.72 6.44-10.07 7.36-14.93 0.31-1.61-2.16-2.3-2.47-0.68-0.79 4.13-2.3 11.09-6.19 13.4-1.41 0.84-0.12 3.05 1.3 2.21zM599.48 381.67c5.15-4.56 17.67-1.74 24.13-1.73 6.33 0 12.42-0.54 18.56-2.15 1.59-0.42 0.92-2.89-0.68-2.47-9.54 2.5-18.99 2.01-28.74 1.78-5.41-0.13-10.84-0.98-15.08 2.77-1.24 1.08 0.58 2.89 1.81 1.8z" fill="#4D4733" /><path d="M621.92 379.81c7.89 4.23 16.41 6.27 25.36 6.05 1.64-0.04 1.65-2.6 0-2.56-8.53 0.21-16.55-1.67-24.07-5.7-1.45-0.78-2.74 1.43-1.29 2.21zM593.64 386.06c-0.41-4.45-1.88-8.4-3.1-12.66-1.59-5.52-2.25-11.14-2.18-16.88 0.02-1.65-2.54-1.65-2.56 0-0.05 4.49 0.26 8.94 1.2 13.34 1.17 5.48 3.57 10.58 4.09 16.2 0.14 1.63 2.7 1.64 2.55 0z" fill="#4D4733" /><path d="M589.82 371.85c-2.43-2.36-5.68-3.55-8.14-5.91-2.63-2.52-4.34-5.58-4.92-9.18-0.26-1.62-2.73-0.93-2.47 0.68 0.55 3.4 2.06 6.4 4.32 8.99 2.71 3.1 6.53 4.43 9.4 7.23 1.18 1.15 3-0.65 1.81-1.81zM608.12 456.32c13.12-0.21 29.22 2.59 37.93-9.42 0.97-1.34-1.25-2.62-2.21-1.29-7.8 10.76-23.97 7.96-35.72 8.15-1.65 0.02-1.65 2.58 0 2.56z" fill="#4D4733" /><path d="M624.86 456.55c2.95 0.7 5.53 3.11 8.36 4.28 2.5 1.04 5.09 1.63 7.77 1.99 1.63 0.22 1.61-2.34 0-2.56-3.27-0.44-6.44-1.41-9.34-2.99-2.06-1.12-3.8-2.64-6.12-3.19-1.59-0.38-2.27 2.09-0.67 2.47zM598.4 466.52c-3.87-3.44-7.87-6.96-10.47-11.51-3.9-6.85-2.7-13.13-0.24-20.14 0.55-1.56-1.93-2.23-2.47-0.68-2.26 6.45-3.67 12.57-1.01 19.11 2.5 6.14 7.54 10.73 12.38 15.04 1.23 1.09 3.05-0.72 1.81-1.82z" fill="#4D4733" /><path d="M587.92 457.74c8.95-0.75 15.77-11.78 17.65-19.7 0.38-1.6-2.09-2.29-2.47-0.68-1.57 6.59-7.56 17.19-15.18 17.82-1.63 0.14-1.65 2.7 0 2.56zM588.26 486.14c7.08-4.48 16.16-1.54 23.38-5.88 1.41-0.85 0.13-3.06-1.29-2.21-7.17 4.31-16.22 1.35-23.38 5.88-1.39 0.88-0.1 3.09 1.29 2.21z" fill="#4D4733" /><path d="M603.1 481.26c0.83-1.91 1.82-3.73 3.04-5.42 1.15-1.59 3.23-4.61 5.51-4.17 1.61 0.31 2.3-2.16 0.68-2.47-5.55-1.06-9.63 6.6-11.44 10.77-0.64 1.5 1.56 2.8 2.21 1.29zM396.63 378.66c8.54-3.94 12.5-14.64 14.71-23.13 0.42-1.6-2.05-2.28-2.47-0.68-2.04 7.83-5.63 17.95-13.53 21.6-1.49 0.69-0.19 2.89 1.29 2.21z" fill="#4D4733" /><path d="M407.6 362.48c-4.41-2.23-8.21-12.33-9.9-16.71-2.37-6.15-2.81-12.4-3.08-18.93-0.07-1.64-2.63-1.65-2.56 0 0.32 7.83 1.01 14.73 4.17 22.02 2.13 4.91 5.05 13.29 10.08 15.83 1.47 0.75 2.76-1.46 1.29-2.21z" fill="#4D4733" /><path d="M399.96 351.22c7.68-5.22 14.88-11.04 21.58-17.46 1.19-1.14-0.62-2.95-1.81-1.81a161.094 161.094 0 0 1-21.06 17.06c-1.36 0.92-0.08 3.14 1.29 2.21z" fill="#4D4733" /><path d="M411.52 341.11c3.76-9.99 4.84-20.94 10.82-30.01 0.91-1.38-1.31-2.66-2.21-1.29-6.11 9.26-7.24 20.41-11.08 30.62-0.58 1.55 1.9 2.21 2.47 0.68z" fill="#4D4733" /><path d="M417.36 324.84c9.84-0.89 19.05-3.82 27.56-8.84 1.42-0.84 0.13-3.05-1.29-2.21-8.13 4.79-16.87 7.64-26.27 8.49-1.63 0.15-1.65 2.71 0 2.56z" fill="#4D4733" /><path d="M431.36 318.55c4.48-6.87 5.01-15.1 1.69-22.56-0.67-1.5-2.87-0.2-2.21 1.29 2.95 6.64 2.25 13.93-1.69 19.98-0.9 1.38 1.32 2.67 2.21 1.29z" fill="#4D4733" /><path d="M436.63 304.83c6.03-5.48 13.45-10.82 15.94-18.93 0.49-1.58-1.99-2.25-2.47-0.68-2.32 7.55-9.68 12.7-15.29 17.8-1.21 1.11 0.6 2.92 1.82 1.81zM435.16 423.11c5.74-4.05 7.48-12.71 8.08-19.27 0.15-1.64-2.41-1.63-2.56 0-0.51 5.5-1.98 13.64-6.82 17.05-1.33 0.96-0.05 3.18 1.3 2.22zM426.72 413.8c-7.56 0.05-14.6-1.83-21.13-5.65-1.42-0.83-2.71 1.38-1.29 2.21 6.88 4.03 14.44 6.06 22.42 6 1.65-0.01 1.65-2.57 0-2.56zM463.71 502.62c4.75 1.76 10.17 3.29 14.62-0.02 1.31-0.97 0.03-3.2-1.29-2.21-3.9 2.91-8.53 1.29-12.65-0.23-1.54-0.58-2.21 1.9-0.68 2.46z" fill="#4D4733" /><path d="M480 501.64c2.07-5.42 2.62-10.98 1.82-16.72-0.23-1.62-2.69-0.93-2.47 0.68 0.73 5.26 0.07 10.4-1.82 15.36-0.58 1.55 1.89 2.21 2.47 0.68z" fill="#4D4733" /><path d="M315.43 264.43c3.29 0 3.3-5.12 0-5.12s-3.3 5.12 0 5.12z" fill="#AEB779" /><path d="M315.43 265.13c4.94 0 4.95-7.68 0-7.68-4.94 0-4.95 7.68 0 7.68zM330.34 275.74c4.94 0 4.95-7.68 0-7.68-4.94 0-4.95 7.68 0 7.68zM278.43 284.06c4.94 0 4.95-7.68 0-7.68-4.94 0-4.95 7.68 0 7.68zM272.41 295.25c4.94 0 4.95-7.68 0-7.68s-4.95 7.68 0 7.68zM274.99 307.58c4.94 0 4.95-7.68 0-7.68s-4.95 7.68 0 7.68zM299.65 313.61c4.94 0 4.95-7.68 0-7.68-4.94 0-4.95 7.68 0 7.68zM302.52 331.1c4.94 0 4.95-7.68 0-7.68-4.94 0-4.95 7.68 0 7.68zM342.68 297.26c4.94 0 4.95-7.68 0-7.68-4.94 0-4.95 7.68 0 7.68zM353.58 311.89c4.94 0 4.95-7.68 0-7.68-4.94-0.01-4.95 7.68 0 7.68zM364.19 331.68c4.94 0 4.95-7.68 0-7.68-4.94 0-4.95 7.68 0 7.68zM320.59 347.16c4.94 0 4.95-7.68 0-7.68-4.94 0-4.95 7.68 0 7.68zM390.58 331.1c4.94 0 4.95-7.68 0-7.68-4.94 0-4.95 7.68 0 7.68zM420.41 337.99c4.94 0 4.95-7.68 0-7.68-4.94 0-4.95 7.68 0 7.68zM409.51 359.21c4.94 0 4.95-7.68 0-7.68-4.94 0-4.95 7.68 0 7.68zM420.69 313.89c4.94 0 4.95-7.68 0-7.68-4.94 0-4.95 7.68 0 7.68zM431.31 302.13c4.94 0 4.95-7.68 0-7.68-4.94 0-4.95 7.68 0 7.68zM451.1 289.51c4.94 0 4.95-7.68 0-7.68-4.94 0-4.95 7.68 0 7.68zM445.36 318.77c4.94 0 4.95-7.68 0-7.68-4.94 0-4.95 7.68 0 7.68zM441.63 407.4c4.94 0 4.95-7.68 0-7.68-4.94 0-4.95 7.68 0 7.68zM404.06 413.42c4.94 0 4.95-7.68 0-7.68-4.94 0-4.95 7.68 0 7.68zM433.89 467.06c4.94 0 4.95-7.68 0-7.68-4.94 0-4.95 7.68 0 7.68zM419.26 456.45c4.94 0 4.95-7.68 0-7.68-4.94 0-4.95 7.68 0 7.68zM402.62 456.16c4.94 0 4.95-7.68 0-7.68-4.94 0-4.95 7.68 0 7.68zM417.54 483.41c4.94 0 4.95-7.68 0-7.68-4.94 0-4.95 7.68 0 7.68zM463.43 504.63c4.94 0 4.95-7.68 0-7.68-4.94 0-4.95 7.68 0 7.68zM479.49 489.14c4.94 0 4.95-7.68 0-7.68-4.94 0-4.95 7.68 0 7.68zM419.26 166.75c4.94 0 4.95-7.68 0-7.68-4.94 0-4.95 7.68 0 7.68zM455.69 172.77c4.94 0 4.95-7.68 0-7.68-4.94 0-4.95 7.68 0 7.68zM406.07 186.83c4.94 0 4.95-7.68 0-7.68s-4.95 7.68 0 7.68zM397.18 197.73c4.94 0 4.95-7.68 0-7.68s-4.96 7.68 0 7.68zM413.24 215.8c4.94 0 4.95-7.68 0-7.68-4.94 0-4.95 7.68 0 7.68zM422.13 227.84c4.94 0 4.95-7.68 0-7.68-4.94 0-4.95 7.68 0 7.68zM440.2 233.58c4.94 0 4.95-7.68 0-7.68-4.94 0-4.95 7.68 0 7.68zM441.35 243.91c4.94 0 4.95-7.68 0-7.68s-4.95 7.68 0 7.68zM467.73 198.3c4.94 0 4.95-7.68 0-7.68-4.94 0-4.95 7.68 0 7.68zM490.97 234.15c4.94 0 4.95-7.68 0-7.68-4.94 0-4.95 7.68 0 7.68zM474.04 269.43c4.94 0 4.95-7.68 0-7.68-4.94 0-4.95 7.68 0 7.68zM458.27 278.04c4.94 0 4.95-7.68 0-7.68-4.94 0-4.95 7.68 0 7.68zM514.49 258.82c4.94 0 4.95-7.68 0-7.68-4.94 0-4.95 7.68 0 7.68zM474.04 295.82c4.94 0 4.95-7.68 0-7.68-4.94 0-4.95 7.68 0 7.68zM459.99 310.16c4.94 0 4.95-7.68 0-7.68-4.94 0-4.95 7.68 0 7.68zM525.96 311.02c4.94 0 4.95-7.68 0-7.68-4.94 0-4.95 7.68 0 7.68zM494.7 341.43c4.94 0 4.95-7.68 0-7.68s-4.95 7.68 0 7.68zM576.16 361.79c4.94 0 4.95-7.68 0-7.68s-4.95 7.68 0 7.68zM587.05 360.93c4.94 0 4.95-7.68 0-7.68-4.94 0-4.95 7.68 0 7.68zM608.28 348.03c4.94 0 4.95-7.68 0-7.68-4.94-0.01-4.95 7.68 0 7.68zM617.46 346.59c4.94 0 4.95-7.68 0-7.68-4.94 0-4.95 7.68 0 7.68zM635.53 320.2c4.94 0 4.95-7.68 0-7.68-4.94 0-4.95 7.68 0 7.68zM649.01 330.53c4.94 0 4.95-7.68 0-7.68-4.94 0-4.95 7.68 0 7.68zM651.59 351.18c4.94 0 4.95-7.68 0-7.68-4.94 0-4.95 7.68 0 7.68zM657.61 363.51c4.94 0 4.95-7.68 0-7.68-4.94 0-4.95 7.68 0 7.68zM640.69 381.3c4.94 0 4.95-7.68 0-7.68-4.94 0-4.95 7.68 0 7.68zM647.29 389.62c4.94 0 4.95-7.68 0-7.68-4.94-0.01-4.95 7.68 0 7.68zM585.33 437.8c4.94 0 4.95-7.68 0-7.68-4.94 0-4.95 7.68 0 7.68zM603.4 440.38c4.94 0 4.95-7.68 0-7.68-4.94 0-4.95 7.68 0 7.68zM624.63 447.27c4.94 0 4.95-7.68 0-7.68-4.94 0-4.95 7.68 0 7.68zM646.43 448.7c4.94 0 4.95-7.68 0-7.68-4.94 0-4.95 7.68 0 7.68zM640.4 465.91c4.94 0 4.95-7.68 0-7.68-4.94 0-4.95 7.68 0 7.68zM611.43 473.94c4.94 0 4.95-7.68 0-7.68-4.94 0-4.95 7.68 0 7.68zM610.86 483.98c4.94 0 4.95-7.68 0-7.68-4.94 0-4.95 7.68 0 7.68z" fill="#AEB779" /></svg>