<?xml version="1.0" standalone="no"?><!DOCTYPE svg PUBLIC "-//W3C//DTD SVG 1.1//EN" "http://www.w3.org/Graphics/SVG/1.1/DTD/svg11.dtd"><svg class="icon" width="200px" height="200.00px" viewBox="0 0 1024 1024" version="1.1" xmlns="http://www.w3.org/2000/svg"><path d="M393.28 379.34c36.15 18.68 33.35 66.17 47.15 99.01 3.73 8.87 7.89 17.41 9.99 26.86 2.15 9.62 3.24 19.49 4.68 29.23 3.17 21.49 6.33 42.98 9.5 64.48 0.38 2.61 4.35 1.5 3.97-1.09-3.34-22.69-6.68-45.37-10.03-68.06-1.58-10.73-2.67-21.74-5.84-32.14-3.1-10.21-8.45-19.54-11.84-29.65-10.81-32.21-11.2-74.46-45.51-92.19-2.34-1.22-4.43 2.33-2.07 3.55zM357.51 440.98c5.5 6.06 11.18 11.99 16.52 18.19 4.32 5.02 6.74 11.08 11.13 16.05 10.96 12.41 23.85 22.96 34.07 36.07 9.89 12.68 15.99 27.35 21.56 42.32 5.86 15.73 11.61 31.5 17.41 47.25 0.91 2.46 4.89 1.4 3.97-1.09-5.98-16.24-11.87-32.51-17.95-48.7-5.37-14.31-11.28-28.48-20.56-40.76-9.52-12.6-21.34-23.42-32.36-34.67-5.21-5.32-8-11.48-12.47-17.22-5.56-7.15-12.32-13.62-18.41-20.33-1.78-1.98-4.69 0.93-2.91 2.89zM625.73 205.55c-33.99 24.09-59.12 57.39-82.61 91.3-20.55 29.66-43.41 60.81-49.21 96.99-0.35 0.24-0.63 0.6-0.72 1.12-5.53 31.38-18 61.22-19.77 93.28-1.89 34.19 0.93 69.01 1.81 103.22 0.02 0.96 0.59 1.57 1.29 1.83 0.03 1.84-0.24 3.82-0.24 5.29-0.01 2.65-0.01 5.3-0.02 7.95s4.11 2.65 4.12 0c0.01-3.53 0.02-7.07 0.02-10.6 0.01-2.78 0.34-5.51-0.96-8.03-0.07-0.13-0.14-0.24-0.22-0.34-0.93-31.82-3.08-63.96-1.85-95.74 1.1-28.38 10.73-54.93 17.02-82.3 1.07 0.07 2.22-0.57 2.29-1.96 1.39-41.3 27.38-75.98 50-108.63 23.07-33.3 47.75-66.16 81.14-89.82 2.13-1.53 0.07-5.1-2.09-3.56zM882.02 330.46c-21.54-5.39-43.29-1.98-64.73 2.16-22.06 4.27-44.22 9.32-64.48 19.36-10.01 4.96-19.35 11.13-28.87 16.93-9.24 5.62-18.87 9.98-28.46 14.89-9.03 4.62-15.31 11.57-22.75 18.26-7.45 6.7-15.74 12.19-24.6 16.73-0.56-0.38-1.3-0.49-2.07-0.05-18.82 10.7-32.94 25-47.97 40.31-15.54 15.84-31.67 30.92-46.68 47.31-13.88 15.15-29.93 29.88-38.79 48.71-4.5 9.56-7.77 19.66-12.82 28.96-4.22 7.77-9.33 14.68-8.35 23.92 0.28 2.61 4.4 2.64 4.12 0-1.11-10.5 7.14-19.79 11.31-28.92 3.94-8.64 6.94-17.72 11.39-26.12 9.7-18.31 26.72-33.56 40.7-48.68 13.17-14.23 27.28-27.38 40.92-41.13 13.79-13.92 26.67-27.28 43.13-37.7 0.4 0.07 0.83 0.03 1.28-0.17 8.61-3.9 16.73-8.6 24.24-14.35 8.38-6.42 15.11-15.12 24.04-20.76 8.38-5.3 17.98-8.62 26.6-13.56 9.23-5.29 18.05-11.24 27.3-16.49 19.38-11 40.6-17.03 62.29-21.53 23.66-4.91 48.23-10.08 72.17-4.09 2.55 0.62 3.65-3.35 1.08-3.99z" fill="#375647" /><path d="M602.76 462.21c5.76-7.43 7.96-18.23 7.51-26.92-0.28-5.47-0.82-11.63-5.07-15.59-5.15-4.8-13.05-3.88-19.51-3.41-5.68 0.41-12.53 0.96-16.73 5.34-4.98 5.18-4.47 13.01-3.79 19.57 0.71 6.92 1.39 12.86 6.75 17.72 4.93 4.48 11.1 8.08 17.5 10.18 0.13 0.17 0.29 0.33 0.46 0.46-3.84 3.97-5.62 9.31-3 16.02 3.9 10.03 20.7 15.22 30.17 11.97 9.48-3.25 16.66-14.64 12.89-24.57-3.65-9.56-17.39-11.41-27.18-10.77zM722.56 379.64c3.99-3.91 7.02-9.2 9.12-14.3 4.92-11.92-3.9-23.98-14.8-29.1-10.62-4.99-22.03 3.29-25.82 13.5-3.84 10.36 4.48 22.23 13.03 28.68-0.29 0.4-0.48 0.91-0.49 1.54-0.14 6.56-0.9 13.66-0.52 20.42-8.64-3.68-19.77-2.96-27.58 0.71-1.22 0.57-1.56 1.62-1.35 2.6-0.71 0.83-1.35 1.74-1.92 2.7 2.96-5.51 4.53-12.04 4.7-18.51 0.41-15.56-8.68-26.55-24.51-26.89-14.17-0.31-28.84 4.86-27.96 21.26 0.67 12.32 5.97 35.12 20.29 38.02-2.61 1.57-4.19 4.16-4.34 7.57 0 0.01-0.01 0.01-0.01 0.02-5.01 11.3-0.97 24.22 11.29 29.09 9.6 3.81 24.48 2.66 28.39-8.37 1.3-3.65 1.25-8.9 0.06-13.97 1.64 1.14 3.39 2.02 5.18 2.39 5.82 1.18 13.1-0.49 18.26-3.15 4.55-2.35 8.28-6.45 10.17-11.11 8.61 6.29 22.12 8.65 30.95 1.66 9.74-7.7 9.32-23.24 1.96-32.28-6.16-7.56-14.91-10.83-24.1-12.48z m-51.07 28.08c-1.81 3.62-2.62 7.84-2.15 11.79-0.24-0.08-0.47-0.19-0.72-0.26-2.37-0.6-5.31-0.96-8.34-1.1 4.78-2.22 8.51-5.91 11.21-10.43zM796.17 351.48c-7.18-3.65-15.31-5.6-23.14-5.09 6.09-4.27 11.06-9.84 12.95-17.48 2.29-9.25-1.12-21.95-12.26-22.58-10.93-0.61-24.44 4.12-26.74 16-1.29 6.7 0.36 14.95 2.27 21.41 0.95 3.2 2.02 8.59 4.95 10.95-0.03 1.23 1.08 2.42 2.43 2.71-0.87 10.94 2.99 19.79 14.16 25.1 10.53 5.01 25.06 4.18 33-5.21 7.99-9.45 2.3-20.77-7.62-25.81zM826.62 332.31c4.78-1.65 9.02-4.47 11.68-9.16 4.33-7.65 2.05-20.29-3.84-26.72-5.69-6.21-17.25 0.38-22.31 4.78-7.33 6.37-4.58 18.31-1.97 26.43 0.42 1.32 1.5 1.89 2.59 1.9-11.37 15.11 3.13 36.88 21.75 34.05 7.53-1.15 14.04-8.24 11.94-16.18-1.97-7.44-11.63-12.12-19.84-15.1zM875.84 312.13c-2.97-6.12-11.3-3.26-16.29-1.25-5.96 2.4-10.7 7.59-10.18 14.31 0.1 1.25 0.86 2.05 1.78 2.41 0 0.01-0.01 0.02-0.02 0.03-3.11 7.12-3.65 15.4 0.39 22.32 3.32 5.68 10.7 10.88 17.61 9.32 6.81-1.53 8.65-9.55 6.9-15.46-1.7-5.72-5.93-9.53-10.93-12.13 3.43-0.46 6.71-1.54 9.36-3.85 4.74-4.14 3.89-10.52 1.38-15.7zM913.11 316.09c-4.16-3.85-15.82-1.69-20.66 0.25-6.23 2.5-10.59 7.72-10.52 14.61 0.01 0.64 0.2 1.16 0.5 1.57-3.94 9.4-3.2 20.72 0.76 30.1 2.83 6.69 13.55 7.4 18.89 3.31 6.4-4.91 7.99-14.58 2.55-20.7-2.79-3.14-6.54-5.34-9.81-7.99 4.91-1.05 9.6-4.16 13.56-7.01 3.9-2.82 9.78-9.47 4.73-14.14zM457.96 489.28c5.63 1.49 12.24-0.38 17.76-3.11-1.2 3.22-1.67 6.75-1.28 10.33 0.17 1.62 1.46 2.48 2.74 2.6-0.61 1.17-0.51 2.73 0.94 3.62 1.93 1.18 2.8 3.74 4.75 5.01 1.65 1.08 3.45 1.42 5.38 1.71 5.22 0.76 12.18 0.97 17.18-1.09 9.83-4.06 5.28-18.16 2.49-25.49-3.29-8.67-10.29-12.11-19.3-9.2a20.24 20.24 0 0 0-7.98 4.84c-0.3-0.2-0.63-0.33-0.99-0.37-3.91-5.62-9.62-12.48-16.67-13.06-5.73-0.47-13.74 3.21-14.16 9.62-0.36 5.73 3.32 13.06 9.14 14.59zM462.97 460.78c5.36-0.41 14.26-2.85 18.82-7.63 0.35 9.52 4.78 17.32 16.18 17.15 10.64-0.16 23.63-5.72 22.87-18.08-0.52-8.57-6.42-22.64-16.33-23.22-8.45-0.5-16.48 3.24-20.69 9.9-2.75-6.79-7.05-12.88-14.88-13.18-4.83-0.18-10.8-0.54-14.87 2.59-4.29 3.3-4.91 8.74-5.16 13.79-0.49 9.77 2.3 19.58 14.06 18.68zM461.28 409.98c12 3.96 25.7-7.08 35.72-15.14-1.7 5.85 0.07 12.39 5.26 16.67 7.25 5.96 17.35 4.2 23.97-1.77 6.19-5.58 6.72-19.71 0.56-25.59-6.62-6.33-17.17-4.93-24.23-0.25-3.09-8.5-9.81-15.02-18.69-18.35-13.44-5.03-23.18 0.94-28.41 13.63-4 9.71-7 26.57 5.82 30.8zM492.32 347.11c9.02 1.97 18.16-0.81 26.23-4.85-0.83 3.37-0.28 7.65-0.06 10.51 0.41 5.45 3.61 7.55 8.42 9.86 8.33 4 23.27 8.55 28.51-1.93 5.44-10.87 5.97-24.43-5.44-31.07-4.48-2.61-11.39-5.35-16.58-3.36-4.27 1.64-7.45 6.37-9.74 10.47-2.55-6.97-4.73-13.39-13.25-14.13-7.2-0.62-19.38-2.67-22.02 6.21-1.1 3.71-2.32 9.77-1.79 13.53 0.46 3.2 2.77 4.11 5.72 4.76zM518.05 310.83c7.24 2.09 15.07-1.4 20.44-6.14 0.33 0.76 0.66 1.52 1 2.26 0.05 0.12 0.12 0.21 0.19 0.32-2.38 2.5-4.08 5.59-4.69 9.34-0.23 1.44 0.56 2.54 1.59 3.07 0.11 0.2 0.23 0.4 0.38 0.58 1.5 1.8 3.51 3.04 5.72 3.78 0.68 0.23 1.44 0.1 2.07-0.26 7.42 0.72 18.83 1.52 24.37-2.86 4.93-3.9 2.99-13.53-0.11-18.02-4.37-6.34-12.83-3.9-19.03-1.86-2.1 0.69-4.11 1.6-5.94 2.73-3.26-7.2-5.61-16.86-14.48-18.37-6.63-1.13-14.57 1.88-16.98 8.49-2.39 6.55-2.4 14.67 5.47 16.94zM543.18 278.14c0.26-0.14 0.52-0.28 0.77-0.42 4.94 8.13 11.22 12.38 21.38 11.82 7.11-0.39 16.76-2.63 17.77-10.81 1-8.06-2.54-17.8-11.7-17.87-11.1-0.1-21.65 7.53-30.99 12.55-3.11 1.66-0.34 6.4 2.77 4.73zM563.53 248.71c4.78 3.42 11.22 2.14 17.16-0.48-0.45 0.39-0.88 0.79-1.31 1.2-1.47 1.4-0.82 3.27 0.49 4.15 2.61 9.02 5.18 15.29 16.05 14.83 9.74-0.42 18.71 0.22 22.05-10.3 2.9-9.14-3.88-15.61-12.48-17.56-4.32-0.97-8.53-0.66-12.48 0.55-0.02-0.11-0.02-0.21-0.04-0.31 0.84-1.18 0.54-2.75-0.33-3.7-0.14-4.19 0.19-8.2-1.76-12.33-2.07-4.37-5.7-7.86-10.17-9.72-8.56-3.58-17.35-0.95-20.79 7.91-2.96 7.61-3.91 20.38 3.61 25.76zM454.02 524.09c6.33 0.32 10.67-2.55 13.59-7.62 1.41 0.64 3.27 0.26 3.7-1.68 1.71-7.64-2.34-15.45-10.3-17.16-7.67-1.64-15.71 4.3-18.68 11.17-0.93 2.14-1.16 4.17-0.89 6.01-4.51-0.21-10.09 1.67-11.61 5.5-0.58 1.46-0.73 2.97-0.56 4.45-1.22-0.83-2.54-1.53-3.93-2.04-0.46-0.17-0.88-0.21-1.27-0.15-0.79-0.68-1.92-1-3.1-0.48-6.67 2.94-17.53 5.97-17.12 15.24 0.36 8.12 10.51 10.66 17.09 11.19 7.06 0.57 14.32-0.74 15.49-8.85 0.24-1.68 0.16-3.31-0.16-4.87 1.32 0.57 2.53-0.05 3.18-1.07 2.62 0.01 5.22-0.15 7.83-0.53 2.57-0.37 5.88-0.85 7.16-3.5 0.83-1.73 0.51-3.69-0.42-5.61zM419.31 508.62c0.32-0.41 0.52-0.95 0.54-1.6 0-0.08-0.01-0.19-0.02-0.28 4.08-1.79 7.69-4.57 9.33-8.93 1.65-4.37 1.06-10.75-3.85-12.75-3.59-1.46-10.19-0.6-12.46 2.91-1.81 2.79-1.55 5.84-0.78 8.92-3.21-2.17-6.99-3.43-11.02-3.47-7.01-0.06-13.24 2.21-14.4 9.87-0.89 5.9 1.3 12.55 7.7 13.86 8.67 1.78 15.13-3.98 23.13-5.33 1.79-0.31 2.26-1.85 1.83-3.2z" fill="#45705D" /><path d="M394.26 483.18c0.75 0.46 1.62 0.51 2.4 0.27 4.39 3.69 11.8 1.93 15.25-2.44 3.53-4.47 1.04-13.18-2.65-16.99-2.33-2.41-5.35-2.81-8.55-2.74-2.96 0.06-6.84-0.2-9.33 1.7-3.7 2.81-3.11 8.28-1.35 12.99-0.64-0.44-1.36-0.83-2.16-1.15-0.32-1.37-1.57-2.6-3.34-2.24-7.08 1.44-12.8 4.43-14 12.17-1.02 6.6 2.89 12.52 9.57 13.68 9.11 1.56 15.14-7.64 14.16-15.25zM375.28 457.6c0.08 0.02 0.17 0.02 0.26 0.03-0.45 1.36 0.01 2.93 1.82 3.24 5.81 0.98 15.21 1.32 19.62-3.5 3.6-3.94 2.04-12.49-1.76-15.8-8.76-7.64-25.49 1.07-22.54 12.29-6.53-1.16-13.23-0.46-18.59 3.78-3.32 2.63-7.98 8.45-4.68 12.71 3.06 3.95 10.41 2.9 14.37 1.24 5.76-2.41 9.42-7.52 11.37-13.29 0.07-0.25 0.11-0.48 0.13-0.7zM390.03 391.53c-3.92 2.15-8.45 8.18-6.29 12.89 2.23 4.87 10.94 4.67 15.33 3.84 5.81-1.1 10.52-4.69 12.87-9.94 0.01 0.01 0.02 0.02 0.04 0.03 3.77 2.24 8.36 2.6 12.37 0.76 4.41-2.02 5.94-5.74 4.65-10.35-1.13-4.03-4.2-6.82-8.55-6.29-4.87 0.59-7.58 4.69-9.66 8.71-0.14 0.28-0.22 0.55-0.27 0.82-6.81-0.5-13.97-4.05-20.49-0.47zM355.45 453.28c4.06-2.66 5.56-7.33 5.68-11.96 0.15-0.08 0.3-0.18 0.45-0.28 0.03-0.01 0.06-0.01 0.09-0.02 0.8-0.16 1.33-0.58 1.64-1.1 1.11 0.05 2.19-0.52 2.46-1.97 0.49-2.61 0.83-5.25 0.86-7.9 0.02-2.07 0.18-4.76-1.11-6.53-2.27-3.1-9.68-3.42-12.23-0.61-2.91 3.2-2.31 9.8-1.08 13.57 0.06 0.19 0.14 0.38 0.22 0.57-2.49 0.54-4.86 1.35-6.55 2.86-2.98 2.66-3.99 8.9-1.78 12.32 2.43 3.77 8.05 3.21 11.35 1.05zM382.77 386.32c6.47-0.34 10.4-3.56 14.32-8.45 0.83-1.03 0.79-2.23 0.3-3.18 0.52-0.44 0.91-1.06 1.01-1.89 0.45-3.98 1.91-11.63-1.99-14.32-1.99-1.38-4.78-2.03-7.12-2.56-2.18-0.49-4.67-0.99-6.75 0.15-3.67 2.01-3.88 7.17-2.33 10.57 0.66 1.46 1.64 2.77 2.85 3.82-3.76-0.55-7.57-0.63-10.87 0.28-4.72 1.31-7.46 7.34-5.32 11.89 2.04 4.34 11.95 3.9 15.9 3.69z" fill="#45705D" /><path d="M578.03 754.58c-0.23-14.3-0.45-28.61-0.68-42.91-0.43-27.41-0.87-54.83-1.3-82.24-0.11-7.06 0.36-14.43-0.34-21.45-0.23-2.26-0.26-4.51-1.69-6.4-5.02-6.61-20.73-3.51-27.63-3.52-27.57-0.04-55.13-0.09-82.7-0.12-13.13-0.02-26.27-0.14-39.4-0.04-8.91 0.06-22.88-1.09-30.38 5.2-6.9 5.78-6.1 19.61-6.79 27.56-1.3 14.99-1.49 30.05-1.52 45.09-0.06 29.23 0.87 57.04-4.17 85.73-0.95 6.91-2.45 7.15 1.81 10.39 7.03 5.34 20.9 1.52 28.95 1.15a973.23 973.23 0 0 1 82.99-0.22c13.19 0.52 26.35 1.56 39.53 2.25 11.11 0.58 26.7 2.53 37.22-2.37 7.5-3.5 6.21-11.02 6.1-18.1z" fill="#344849" /><path d="M541.42 546.87c-13.93 2.06-27.31 9.74-35.27 21.47-0.09-0.15-0.2-0.29-0.31-0.41-2.84-10.97-13.48-17.14-24.56-17.78-6.09-0.35-32.17 0.78-26.21 12.5 2.65 5.2 10.84 5.54 14.9 9.39 5.06 4.79 8.96 11.3 16.46 12.45 5.18 0.8 15.43-3.39 19.1-9.07 9.45 28.33 53.9 18.02 57.17-10.32 0.58-5 0.16-12.01-3.58-15.89-4.16-4.36-12.42-3.12-17.7-2.34zM601.13 227.1c0.87 9.06 6.06 14.48 16.45 12.49 6.93-1.33 9.86-8.91 10.32-16.27 8.05 8.71 30.22 10.63 32.36-4 0.93-6.33-4.7-10.81-10.11-12.66-6.51-2.23-12.76 0.36-18.75 3.15 2.38-9.06 8.29-19.59 4.21-28.42-1.34-2.91-3.54-3.67-6.53-3.92-4.58-0.39-10.67-0.81-14.94 1.26-6.69 3.25-7.99 14.41-5.74 20.73 0.63 1.76 1.68 3.34 2.99 4.73-2.32 0.42-4.64 1.31-6.8 2.67-5.1 3.2-9.7 16.38-3.46 20.24z m24.41-17.08c0.1 0 0.2-0.01 0.31-0.01-0.04 0.14-0.07 0.28-0.1 0.42-0.07-0.13-0.13-0.28-0.21-0.41zM545.7 496.32c-10.87 0.88-19.1 9.23-14 20.1-0.03 0.11-0.06 0.21-0.07 0.33-0.63 5.22-0.47 11.7 4.96 14.41 5.55 2.77 14.47 1.38 20.43 1.15 4.34-0.17 13.94 0.89 17.31-2.86 3.14-3.49 0.74-11.48-0.38-15.4-3.91-13.66-14.57-18.84-28.25-17.73zM498.67 516.14c-3.17-1.4-8.32 0.1-11.38 1.17-6.82 2.4-11.97 8.13-12 15.17-1.6 0.03-3.3 1.36-2.86 3.42 1.78 8.26 12.69 8.89 19.42 7.26 8.93-2.16 10.91-10.9 10.46-18.98-0.15-3.02-0.47-6.64-3.64-8.04z" fill="#45705D" /></svg>