<?xml version="1.0" standalone="no"?><!DOCTYPE svg PUBLIC "-//W3C//DTD SVG 1.1//EN" "http://www.w3.org/Graphics/SVG/1.1/DTD/svg11.dtd"><svg class="icon" width="200px" height="200.00px" viewBox="0 0 1024 1024" version="1.1" xmlns="http://www.w3.org/2000/svg"><path d="M711.56 346.76c-6.38-6.73-15.58-4.13-23.84-3.04-0.67 0.09-1.41 0.15-2.17 0.21-0.86-0.03-1.71-0.05-2.57-0.07 4.05-3.2 7.99-6.87 7.72-13.32-0.31-7.37-6.71-9.99-12.76-6.54-6.8 3.88-12.64 12.04-15.55 20.76-4.97 0.59-9.94 1.47-14.92 2.76-0.22 0.03-0.44 0.07-0.66 0.1 3.74-3.15 6.94-6.35 7.01-12.73 0.03-2.59-2.36-3.93-4.66-3.55-8.88 1.49-17.17 12.14-17.43 21.43a575.3 575.3 0 0 0-20.96 8.38c3.06-11.64 10.65-23 13.49-34.63 0.7-2.85 1.29-5.72 1.81-8.61 4.39-1.52 8.74-3.78 12.57-5.26 4.04-1.56 9.57-4.23 9.91-9.26 0.68-10.19-11.15-5.46-20.41-0.47 0.5-4.98 0.86-9.98 1.15-14.96 0.05-0.86 0.08-1.71 0.13-2.57 16.22-2.69 31.53-12.16 38.65-26.21 1.34-2.65-0.35-5.25-3.18-5.54-5.53-0.56-8.48 1.26-12.21 5.04-4.37 4.42-6.32 8.13-12.35 10.62-3.4 1.4-6.86 2.66-10.33 3.92 0.26-6.06 0.56-12.13 1.01-18.18 2.18-0.21 4.3-0.64 6.29-1.35 13.02-4.65 25.43-20.6 27.51-34.03 0.46-2.99-2.41-5.96-5.41-4.16-7.56 4.54-10.6 11.7-16.58 17.83-3.04 3.12-6.66 5.16-10.19 7.31 2.42-12.56 8.07-24.58 8.63-37.24 0.46-10.44-7.3-42.53-24.5-31.65-15.48 9.8 2.41 39.03 9.95 48.06 0.92 1.1 2.04 1.38 3.06 1.15-1.57 4.88-3.14 9.76-3.99 14.92-0.37 2.25-0.68 4.51-0.96 6.77-0.38 0-0.78 0.04-1.21 0.18 0.06-0.02-12.06-15.51-14.59-17.07-3.83-2.37-8.63-3.62-12.88-1.4-10.35 5.38-3.38 15.78 3.1 20.77 6.32 4.88 15.47 8.84 24.41 9.83-0.15 2.09-0.29 4.18-0.41 6.28-0.22 3.72-0.39 7.45-0.55 11.18-9.24-5.26-25.02-15.06-33.14-10.82-9.44 4.94 0.64 14.92 6.05 18.17 7.86 4.73 17.13 6.71 26.46 6.37-0.34 6.59-0.79 13.17-1.57 19.71-6.19-6.99-19.78-19.16-24.86-8.6-4.86 10.11 13.41 21.89 21.74 22.26 0.31 0.01 0.62-0.03 0.93-0.04-0.05 0.25-0.09 0.51-0.14 0.76-3.26 15.36-13.16 29.12-15.55 44.44-10.27 4.47-20.44 9.16-30.46 13.89-14.07 6.64-27.11 16.18-38.44 27.63-1.39-0.46-2.77-0.98-4.11-1.68-0.4-0.21-0.79-0.32-1.18-0.38 1.66-0.21 3.26-1.37 3.44-3.48 0.57-6.53 1.37-13.04 2.24-19.55 5-1.35 10.21-4.02 13.41-7.98 3.02-3.73 10-12.13 9.26-17.19-0.64-4.36-5.42-4.85-8.92-3.58-2.75 0.99-4.5 3.06-6.32 5.24-1.75 2.11-3.31 4.01-4.97 5.82 0.95-6.83 1.84-13.67 2.52-20.52 4.27-2.1 9.15-4.12 12.3-7.3 2.92-2.95 6.43-9.9 4.87-14.2-1.39-3.81-5.76-5.1-9.34-3.84-2.72 0.96-4.78 3.28-6.59 5.94 0.1-4.65 0.02-9.31-0.27-13.98 2-2.43 3.6-5.33 5.75-7.47 2.92-2.9 6.73-4.86 9.27-8.14 3.09-3.99 7.27-12.85 4.58-17.78-5.83-10.68-15.55 1.69-22.06 12.37-1.11-7.14-2.37-14.25-3.5-21.39 11.72-7.28 34.21-25.47 24.55-37.63-3.94-4.97-9.74-1.84-12.95 1.87-3.31 3.81-4.77 8.92-8.43 12.69a34.297 34.297 0 0 1-5.54 4.57c-0.65-6.8-1.16-13.61-2.01-20.38 8.57-4.11 15.35-11.78 19.84-19.9 3.5-6.33 13.04-18.75 9.54-26.71-2.3-5.23-9.32-7.08-13.89-3.64-9.18 6.92-6.4 25.01-12.61 34.2-1.41 2.08-3.07 3.59-4.7 4.86-0.09-0.42-0.16-0.84-0.25-1.26-3.43-15.49-9.56-30.58-10.44-46.55-0.53-9.59 3.96-22.33-4.09-29.88-4.9-4.59-12.55-5.24-16.57 0.81-5.59 8.43 2.73 17.23 5.09 25 0.37 1.2 1.14 1.94 2.05 2.3 0.56 1.16 1.2 2.29 1.7 3.33 3.34 7.05 5.85 14.39 7.85 21.92 0.22 0.84 0.65 1.46 1.18 1.89 0.04 0.15 0.08 0.29 0.11 0.44 2.09 7.91 4.49 15.75 6.23 23.75-9.67 5.19-22.49-12.79-31.2-4.19-4.06 4.01-1.8 9.56 2.53 12.3 7.39 4.66 21.34 5.66 30.36 3.81 0.13 0.28 0.23 0.52 0.38 0.81 0.02 0.03 0.04 0.05 0.06 0.09 0.74 6.26 1.19 12.55 1.77 18.83-11.23 0.76-20.14-10.61-32.04-7.43-6.06 1.62-9.45 7.09-9.02 13.16 1.24 17.72 29.81 19.28 43.67 14.43 1.51 9.63 3.13 19.21 4.28 28.84-0.17 0.32-0.31 0.6-0.41 0.78-0.27 0.5-0.42 1-0.46 1.48-5.44-1.44-10.31-3.8-14.86-7.42-2.14-1.71-3.88-4.26-6.75-4.67-6.22-0.88-9.06 6.14-8.14 11.15 2.04 11.08 20.84 16.6 31.9 13.52 0.21 4.3 0.32 8.62 0.16 12.98-0.11 2.83-0.28 5.66-0.5 8.49-0.06 0-0.11-0.01-0.17-0.01-6.79 0.32-11.18-7.28-18.49-6.14-4.51 0.7-8.37 4.22-8.13 9.02 0.48 9.75 16.58 10.05 25.82 7.61-0.71 6.43-1.59 12.84-2.51 19.25-6.94-5.69-17.67-9.99-21.01 0.19-2.83 8.63 9.73 14.69 18.73 15.89-0.6 4.41-1.13 8.82-1.6 13.24-0.37-0.6-0.78-1.17-1.27-1.67-3.6-3.71-9.31-3.42-12.46 0.72-5.88 7.73 0.47 19.93 8.12 29.01-9.42 12.72-16.88 26.83-21.77 41.47-2.45-12.93-5.19-25.95-7.26-39.21-2.05-13.17-3.28-28.12-5.67-42.89 3.26-0.85 5.28-3.01 6.99-6.3 1.84-3.54 5.33-8.38 2.13-11.98-1.43-1.61-3.72-1.17-5.2 0a31.608 31.608 0 0 1-6.69 4c-1.22-5.22-2.67-10.33-4.46-15.24 1.51-0.89 2.78-2 3.65-3.4 2.85-4.58 9.2-28.26-0.97-28.33-4.67-0.04-5.2 5.05-6.02 8.59-0.23 1.01-0.41 2.18-0.61 3.4-2.84-7.08-8.99-14.03-11.09-20.11a3.45 3.45 0 0 0-0.99-1.46c-0.08-0.56-0.21-1.1-0.38-1.64-0.07-0.44-0.22-0.82-0.44-1.14-1.06-2.3-3.08-4.32-6.29-5.66-0.41-0.6-1.01-1.11-1.85-1.42-15.94-5.89-25.49 16.97-9.9 24 2.09 0.94 4.13 1.28 6.07 1.18 3.32 3.89 6.64 7.77 9.96 11.66-2.86-0.03-5.61 0.2-7.83 2.77-2.61 3.02-2.27 7.33 0.76 9.86 3.97 3.32 12.04 4.97 18.95 3.99 1.81 4.84 3.28 9.9 4.5 15.08-3.53 0.42-6.6-0.48-10.07-0.53-2.1-1.8-6.6 0.21-6.09 3.95 0.65 4.76 6.41 6.22 10.24 7.75 2.68 1.07 5.54 1.47 8.43 1.54 0.58 3.49 1.09 6.99 1.55 10.47-11.49-4.36-23.33-9.21-34.41-15.24 4.1-6.55 6.24-13.83 4.81-22.36-0.39-2.32-3.55-3.38-5.41-2.2-4.35 2.77-5.95 6.64-7.36 11.44-0.78 2.67-1.29 4.92-2.71 6.73-4.04-2.67-7.92-5.53-11.54-8.67 4.48-6.41 10.62-13.72 12.08-21 0.93-4.67-1.28-13.41-5.7-15.95-4.36-2.51-11.13 2.37-13.79 5.67-3.46 4.29-5.32 10.66-6.04 16.74-2.28-3.15-4.37-6.49-6.2-10.07-1.98-3.89-3.55-7.97-4.88-12.16 11.13-2.9 20.22-11.12 19.61-24.08-0.28-6.09-2.58-11.94-9.97-10.33-2.29 0.5-4.16 1.76-5.7 3.52-3.88 4.43-4.85 9.21-8.32 13.05-1.11-5.69-2.08-11.39-3.18-16.94-0.35-1.77-0.67-3.54-0.98-5.3 6.75-1.81 11.91-7.99 16.67-13.43 4.43-5.05 14.56-16.92 11.51-24.5-2.19-5.46-9.97-5.25-14.25-2.68-3.95 2.37-5.5 6.34-7.39 10.31-2.69 5.65-5.06 10.33-8.81 14.62-1.17-10.15-1.8-20.31-2.08-30.76-0.21-7.71-0.37-15.43-0.31-23.15 0.05-7.29 1.44-15.4 0.02-22.59-1.23-6.24-6.03-12.61-13.11-11.9-23.59 2.37 3.29 40.58 3.41 49.37 0.03 1.85 1.17 2.97 2.54 3.37 0.31 10.47 0.98 20.75 2.02 30.98-7.62-7.88-12.69-18.59-21.79-24.41-5.56-3.55-12.9-3.91-15.82 3.22-6.75 16.49 27.53 39.09 40.12 41.71 0.05 0.01 0.09 0.01 0.14 0.02 0.92 5.93 1.96 11.88 3.17 17.9 0.48 2.39 0.98 4.74 1.5 7.06-2.14-1.97-4.4-3.75-6.48-5.99-4.06-4.36-5.17-10.14-9.01-14.62-4.08-4.76-11.62-7.63-16.98-2.89-15.14 13.42 13.27 34.87 24.07 38.14 4.05 1.22 8.39 1.65 12.67 1.36 2.23 6.93 4.99 13.52 8.59 19.76-4.76-0.16-9.26-1.07-13.76-3.02-3.14-1.35-6.24-3.51-9.82-2.83-6.27 1.19-7 8.52-5.12 13.57 6.17 16.48 25.23 10.6 36.7 3.75 2.01 2.4 4.2 4.75 6.61 7.02 0.12 0.11 0.24 0.21 0.35 0.32 0.15 0.16 0.31 0.31 0.49 0.44 2.96 2.73 6.04 5.27 9.24 7.65-9.07-1.95-25.22 8-29.17 16.1-3.73 7.64 2.31 13.11 9.53 14.12 12.56 1.76 23.16-7.43 31.35-15.74 1.42-1.44 2.77-2.92 4.04-4.42 12.54 6.93 26.03 12.29 39.42 17.32 0.15 0.06 0.28 0.08 0.42 0.11 1.07 9 1.98 17.73 3.21 25.65 3.11 19.91 7.84 39.36 10.64 58.82-6.52-6.94-11.38-15.12-17.53-22.41-3.83-4.54-8.17-8.58-12.74-12.34 2.34-11.12 2.05-27.68-6.58-31.45-4.71-2.05-9.57 1.04-11.63 5.4-1.88 3.97-1.49 8.04-0.56 12.14-13.05-9.11-28.29-17.9-44.09-12.75-10.26 3.35-20.36 15.73-10.73 25.39 5.53 5.54 13.97 5.11 21.14 4.92 8-0.21 23.8-3.37 33.34-0.16-11.28 4.78-30.89 14.17-17.77 23.89 11.47 8.5 29.54-10.5 34.32-19.48 0.06-0.11 0.11-0.25 0.17-0.36 0.53 0.47 1.09 0.95 1.61 1.42 11.04 10 17.71 23.53 28.53 33.69 1.14 1.07 2.48 1.21 3.63 0.81 0.7 6.35 1.12 12.71 1.17 19.1-14.83-0.99-29.61-1.76-43.93-3.86-0.07-5.2-1.25-10.2-3.63-13.89-2.56-3.97-8.93-0.28-6.35 3.71 1.46 2.26 2.29 5.47 2.5 8.94-6.94-1.29-13.75-2.97-20.39-5.23 0.25-4.36-0.49-8.53-2.85-11.43-2.12-2.6-5.55-3.92-8.74-2.57-3.05 1.3-4.22 4.08-4.53 7.05-4.18-2.22-8.27-4.74-12.23-7.66 0.12-0.18 0.24-0.37 0.34-0.6 2.07-4.64 5.17-9.7 5.64-14.85 0.37-4.09-1.76-9.4-6.62-8.81-6.07 0.74-7.85 6.26-10.14 11.19-4.57-7.9-8.37-16.71-11.49-25.7 8.57-4.47 10.35-14.03 9.12-23.14-0.39-2.86-4.39-3.38-6.15-1.62l-8.04 8.01a244.4 244.4 0 0 1-2.65-11.07c-0.23-1.04-0.44-2.14-0.66-3.26 5.03-1.32 9.25-4.66 11.29-9.78 1.79-4.51 1.86-9.84 2.38-14.59 0.48-4.41 2.04-9.99 0.8-14.41-1.39-4.97-6.29-7.57-11.04-4.72-2.4 1.44-3.61 4.08-4.4 6.65-1.47 4.8-2.21 9.4-3.41 14.03-1.78-7.14-4.25-13.89-8.08-18.89 1.36-0.98 2.03-2.69 0.7-4.43-13.78-18.05-12.54-47.61-37.65-56.86-5.79-2.13-13.26-2.2-16.43 3.92-4.15 7.99 2.81 18 7.65 23.73 8.62 10.21 18.15 21.8 28.41 30.35 5.02 4.18 10.36 6.09 13.55 12.45 0.31 0.62 0.6 1.28 0.88 1.94-5.76-5.01-12.56-9.93-19.24-10.08-5.16-0.12-10.76 3.44-10.91 9.07-0.22 8.09 11.62 13.82 16.46 18.56 6.11 5.96 13.07 12.65 21.96 13.59 1.15 4.82 2.31 9.69 3.56 14.57-5.72-1.32-11.04-3.88-16.92-5.39-3.47-0.89-9.43-2.57-12.79-0.64-7.79 4.49-0.18 16.07 4.57 19.76 7.54 5.87 20.42 7.01 30.43 4.61 2.31 7.05 4.98 13.93 8.22 20.47-7.71-0.99-17.9-3.64-25.05-0.92-4.66 1.78-8 6.99-5.92 11.88 2.64 6.23 11.76 6.78 17.51 6.74 7.25-0.05 12.89-4.47 18.38-8.8 0.15 0.24 0.3 0.49 0.45 0.73-1.19 2.25 0.76 4.88 3.13 5.16 0.16 0.58 0.49 1.16 1.09 1.67 8.01 6.89 16.46 12.15 25.26 16.22-1.43 5.88-4.99 8.29-9.65 11.9-2.42 1.88-3.98 5.01-2.36 7.98 4.01 7.34 17.82-1.18 20.88-5.65 1.6-2.34 3.07-5.61 4.06-9.15 6.89 2.27 13.96 3.98 21.16 5.29-0.96 5.13-3.27 9.8-7.01 11.82-4.17 2.25-0.46 8.61 3.71 6.35 5.7-3.08 9.26-9.74 10.63-16.97 14.43 2.12 29.33 2.97 44.41 3.98-0.42 9.88-1.87 19.84-4.83 29.93-1.33 4.55 5.77 6.5 7.1 1.96 5.48-18.69 6.04-36.85 4.37-54.91 9.11-3.38 16.73-9.33 25.32-13.81 1.03-0.54 2.07-1.04 3.12-1.55 2.98 6.59 11.06 16.95 17.95 11.15 2.93-2.47 2.16-7.96 1.16-11.17-0.79-2.52-2.16-4.75-3.93-6.6 3.35-1.37 6.71-2.75 10.03-4.19 2.23 7.66 10.63 14.07 18.89 12.73 4.25-0.69 6.05-4.98 5.48-8.95-0.73-5.09-4.88-8.71-8.88-11.82 7.07-4.59 12.71-9.89 17.62-16.09 1.69 1.17 3.73 1.97 6.27 2.34 8.45 1.25 33.37-1.19 31.79-14.24-1.49-12.26-16.52-8.24-27.89-3.77 0.97-1.77 1.93-3.58 2.89-5.47 3.72-7.33 22.88-35.76 11.55-42.08-4.16-2.32-9.44-0.06-12.34 3.16-8.27 9.21 0.73 21.4-4.28 31.43-0.41 0.83-0.5 1.63-0.35 2.37-0.86-2.4-2.32-4.49-4.84-5.79-4.01-2.07-9.37-0.84-11.51 3.25-3.09 5.88 0.72 14.96 2.85 20.5a27.6 27.6 0 0 0 1.62 3.45c-1.07 1.39-2.17 2.74-3.34 4-1.93 2.09-4.02 3.97-6.22 5.72 1.6-6.56 1.3-12.66-6.17-11.3-10.64 1.94-13.5 13.14-13.75 22.85-2.89 1.3-5.8 2.52-8.71 3.72 1.51-6.08-0.23-11.75-9.28-10.65-8.9 1.08-9.7 11.02-8.45 18.77-9.11 5.02-17.91 10.85-27.41 14.51-0.48-3.87-1.04-7.74-1.67-11.61 0.66-0.42 1.19-1.09 1.43-2.09 4.24-17.37 12.24-33.87 22.93-48.41 2.29 2.18 4.48 3.95 6.29 5.08 6.32 3.96 14.14 5.69 21.44 3.69 5.01-1.37 12.3-5.46 12.59-11.39 0.31-6.19-7.29-11.4-12.13-13.99-3.37-1.8-6.9-2.66-10.43-3.4 11.02-10.34 23.56-18.95 37.07-25.1 8.58-3.9 17.21-7.84 25.91-11.66 1.25 0.05 2.56-0.44 3.37-1.48 8.15-3.54 16.35-6.94 24.61-10.08 3.6 7.1 12.39 11.92 19.3 13.93 3.87 1.12 5.66-3.46 3.58-6.15-3.53-4.56-7.47-8.3-11.99-11.67 2.51-0.79 5.03-1.45 7.54-2.03 2.31-0.18 4.55-0.13 6.59 0.38 0.46 0.12 0.88 0.25 1.31 0.38 0.23 0.44 0.47 0.88 0.73 1.31 0.03 9.13 4.43 17.06 15.7 19.2 2.53 0.48 5.53-1.66 4.53-4.53-0.04-0.13-0.09-0.26-0.13-0.39 0.91-1.26 1-3.06-0.32-4.62-0.64-0.76-1.2-1.47-1.71-2.17-0.97-3.3-2.11-6.64-3.86-9.39 0.04-0.77 0.18-1.5 0.43-2.17 4.25-0.39 8.59-0.46 10.43-0.71 0.14-0.02 0.3-0.05 0.45-0.07 7.57 0.26 15.22 0.94 23.01 1.73 3.33 0.33 4.6-4.18 2.58-6.3z m-340.34 95.16l-0.03-0.09c0.21-0.1 0.4-0.22 0.58-0.36-0.18 0.16-0.36 0.31-0.55 0.45z" fill="#91A92D" /><path d="M584.03 652.44c-1.67-8.89-4.96-17.64-11.26-24.32-7.05-7.48-16.88-11-25.19-16.72-14.93-10.26-14.69-25.81-15.27-42.13-0.32-8.92-0.06-21.42-6.25-28.55-6.78-7.81-21.75-4.71-30.83-4.77-9.33-0.07-24.17-3.99-30.75 4.39-1.13 1.44-0.86 5.47-1.76 8.29-0.48 1.5-0.92 3.03-1.09 4.6-1.08 9.99 0.1 16.69-0.12 27.51-0.33 16.7-5.11 30.97-15.08 44.34-6.6 8.85-14.29 17-18.99 27.12-4.74 10.21-5.72 21.78-6.64 32.86-1.76 21.2-4.84 50.08 5.21 69.87 9.44 18.61 34.46 17.43 52.48 19.19 25.08 2.45 52.18 6.41 75.4-5.26 8.02-4.03 19.13-5.05 26.23-10.52 7.73-5.96 7.22-15.97 7.22-24.79-0.01-26.48 1.59-54.98-3.31-81.11z" fill="#2D2D8B" /><path d="M566.1 764.5c-0.16 0.05-0.33 0.11-0.51 0.15-0.18 0.07-0.38 0.13-0.59 0.18-0.4 0.13-6.58 1.06-7 1.17-0.2-6.82-13.11-14.14-13-21-0.38-22.43 3.38-45.57 3-68-0.33-19.25 7.33-41.76 7-61 0.35 0.22 7.16 4.07 7.49 4.27 0.18 0.11 0.37 0.22 0.53 0.33 0.24 0.13 0.46 0.27 0.68 0.42 0.04 0.02 0.05 0.02 0.07 0.05 0.33 18.48 0.64 36.95 0.97 55.43 0.38 22.45 0.79 44.87 1.15 67.32v1.13c-0.03 6.53 0.04 13.04 0.21 19.55z" fill="#4F4FA9" opacity=".109" /></svg>