<?xml version="1.0" standalone="no"?><!DOCTYPE svg PUBLIC "-//W3C//DTD SVG 1.1//EN" "http://www.w3.org/Graphics/SVG/1.1/DTD/svg11.dtd"><svg class="icon" width="200px" height="200.00px" viewBox="0 0 1024 1024" version="1.1" xmlns="http://www.w3.org/2000/svg"><path d="M509.45 898.68c7.82-24.13 5.46-49.26 3.61-74.12-0.98-13.14-1.82-26.4-0.66-39.56 1.18-13.37 5.75-26.01 7.39-39.28 3.41-27.6-5.2-56.07-8.58-83.32a692.85 692.85 0 0 1-4.86-108.07c0.28-8.27-0.14-17.42 1.84-25.49 4.54-18.54 25.17-21.58 41.13-23.19 3.13-0.32 3.17-5.27 0-4.95-21.7 2.19-44.32 8.03-46.87 33.31-3 29.76-1.85 60.58 0.17 90.36 2.1 30.85 7.95 60.89 11.71 91.5 1.92 15.59 0.99 30.06-2.65 45.33-3.16 13.23-4.91 26.21-4.76 39.85 0.35 32.18 7.94 64.89-2.25 96.33-0.97 3.02 3.8 4.32 4.78 1.3z" fill="#876A1B" /><path d="M511.44 516.07c-0.33-24.04-0.67-48.07-1-72.11-0.32-23.39 0.29-47.03-1.88-70.34-2-21.52-7.09-43.9-14.22-64.3-5.5-15.73-15.23-30.27-32.01-34.94-3.07-0.85-4.38 3.93-1.31 4.78 21.13 5.88 28.12 28.02 33.06 47.03 5.43 20.85 9.68 41.4 10.5 62.99 1.6 42.24 1.32 84.62 1.91 126.88 0.05 3.2 4.99 3.21 4.95 0.01z" fill="#876A1B" /><path d="M495.82 309c1.84-5.87 5.71-10.37 11.19-13.13 4.3-2.16 8.33-3.61 11.18-7.7 1.83-2.62-2.46-5.1-4.27-2.5-3.21 4.61-10.05 5.58-14.32 9.06-4.15 3.38-6.96 7.87-8.55 12.95-0.95 3.05 3.81 4.36 4.77 1.32zM511.3 383.97c14.9-17.48 33.08-31.23 53.94-40.8 2.89-1.32 0.38-5.6-2.49-4.28-21.21 9.73-39.79 23.8-54.94 41.57-2.06 2.42 1.42 5.94 3.49 3.51zM509.02 409.01c-4.34-8.04-12.4-11.51-20.29-15.32-8.93-4.31-17.85-9.8-27.84-10.96-3.15-0.37-3.13 4.59 0 4.95 8.93 1.04 17.36 6.43 25.35 10.28 6.97 3.37 14.65 6.38 18.51 13.54 1.52 2.82 5.79 0.32 4.27-2.49z" fill="#876A1B" /><path d="M716.86 597.01c-14.89-43.84-43.45-84.3-87.02-102.96-10.7-4.58-21.87-7.4-33.34-9.2-11.2-1.76-23.73-4.5-35.05-2.81-7.26 1.08-14.81 5.26-17.45 12.53-2.46 6.78-1.65 16 8.87 13.12 61.27 4.27 129.81 35.38 159.47 91.23 1.31 2.44 5.43 0.77 4.52-1.91zM798.37 246.28c-11.38-18.36-35.02-19.81-54.48-20.01-29.51-0.3-59.12 3.9-87.39 12.4-43.4 13.04-97.13 42.76-93.79 94.95-1.36 0.82-2.73 1.64-4.09 2.48-2.7 1.67-0.22 5.95 2.49 4.28 0.72-0.44 1.44-0.87 2.16-1.31 0.61 2.9 5.31 2.88 4.89-0.21-0.12-0.88-0.17-1.74-0.26-2.6 33.44-19.95 68.83-36.32 104.15-52.63 39.85-18.41 80.06-31.44 124.17-33.63 1.82-0.08 3.18-2.05 2.15-3.72zM470.06 277.05c-0.4-16.82-18.31-26-32.87-33.19-16.18-7.99-33.23-15.36-50.49-20.63-19.2-5.86-39.73-10.59-59.59-13.61-18.24-2.77-36.48-1.39-54.25 2.42-10.95 2.35-35.03 4.42-37.17 19.71-1.93 13.72 17.46 16.1 26.53 18.31 19.65 4.77 37.88 10.84 55.17 21.56 7.06 4.38 14.05 8.93 21.7 12.23 8.78 3.79 18.14 5.63 27.45 7.54 21.05 4.33 42.32 8.18 63.88 5.84 11.3-1.23 40.1-0.95 39.64-20.18zM578.71 156.57c-5.76-12.96-13.93-25.52-27.68-30.83-13.16-5.07-22.83-19.75-36.04-14.45-13.57 5.44-30.88 34.67-35.91 47.44-6.28 15.95-9.46 33.29-10.64 50.35-2.26 32.8 7.68 75.15 43.48 81.59 31.07 5.59 54.56-18.57 68.82-42.25 16.93-28.14 10.63-63.36-2.03-91.85zM467.93 384.24c-41.76-12.05-84.79-29.35-128.2-15.37-19.44 6.26-38.74 15.69-56.44 25.83-17.67 10.12-28.84 24.55-39.96 41.24-10.51 15.77-24.75 43.33-24.83 63.48-0.06 13.57 8.59 16.63 23.27 16.8 9.78 0.12 20.75-4.68 29.88-7.84 9.61-3.32 19.06-7.1 28.38-11.19 20.14-8.83 39.56-19.25 58.61-30.24 20.81-12 42.33-23.91 61.04-39.09 14.12-11.46 26.16-27 23.45-45.89 7.85 2.37 15.68 4.79 23.48 7.05 3.07 0.88 4.38-3.9 1.32-4.78z" fill="#23441E" /><path d="M569.06 321.85c-0.36-6.97-0.74-15.91-4.04-22.17-6.27-11.93-26.64-7.04-36.93-4.79-16.82 3.68-32.21 11.48-45.55 22.33-1.46 1.19-10.81 7.75-16.21 10.2-3.94 1.78-7.97 3.93-9.66 8.2-3.95 10 7.7 20.81 14.51 26.23 21.22 16.88 51.4 13.91 72.26 31.16 1.33 1.1 2.86 0.85 3.88-0.5 10.24-13.63 17.25-29.42 20.2-46.25 1.41-8.05 1.96-16.25 1.54-24.41zM539.98 422.67c-9.56-8.87-23.18-7.21-34.99-5.38-1.15 0.18-39.42 2.86-47.02 31.6-5.88 22.22 1.1 45.89 16.87 61.41 7.73 7.6 17.15 13.41 27.35 17.01 4.67 1.65 18.33 7.32 21.54 0.94 1.99-3.95-0.21-10.39 0.98-14.71 1.86-6.75 6.48-13.09 9.23-19.55 5.16-12.11 8.8-24.85 10.79-37.87 1.72-11.13 4.47-24.9-4.75-33.45z" fill="#23441E" /><path d="M384.7 731.34a1203.3 1203.3 0 0 0 1.16 150.61c0.74 10.51 2.4 22.43 11.06 28.41 4.38 3.02 9.84 3.93 15.1 4.69a704.166 704.166 0 0 0 189.57 1.7c7.96-1.01 16.35-2.35 22.52-7.49 9.86-8.21 10.63-22.85 10.62-35.71-0.07-49.69-0.14-99.37-0.2-149.06z" fill="#EACEA3" /><path d="M369.49 734.4c-2.45-9.6-1.52-19.39-0.96-29.29s1.26-9.89 9.47-15.42c7.56-5.09 17.21-5.49 26.31-5.66 74.38-1.41 142.28-9.07 216.25-2.61 4.55 0.4 9.24 0.85 13.27 3 11.35 6.05 12.34 21.69 11.84 34.57-0.23 5.86 2.84 12.05-0.4 16.94-5.69 8.58-14.21 9.68-24.49 9.92-76.05 1.75-152.11 3.51-228.16 5.26-4.27 0.1-8.71 0.16-12.85-0.73-3.65-0.78-6.58-3.51-7.64-7.1l-2.64-8.88z" fill="#D1AC7C" /></svg>