<?xml version="1.0" standalone="no"?><!DOCTYPE svg PUBLIC "-//W3C//DTD SVG 1.1//EN" "http://www.w3.org/Graphics/SVG/1.1/DTD/svg11.dtd"><svg class="icon" width="200px" height="200.00px" viewBox="0 0 1024 1024" version="1.1" xmlns="http://www.w3.org/2000/svg"><path d="M568.85 505.65c2.06 0.78 3.3 1.34 4.41 1.99 1.04 0.69 2.04 1.26 2.55 2.53 0.49 1.27 0.64 3.27 1.62 4.33 0.94 1.1 2.41 1.5 4.06 1.57 0.81 0.07 1.71 0.09 2.12-0.03 0.49-0.13 0.38-0.42-0.09-0.54-0.38-0.1-0.3-0.25 0.19-0.67 0.54-0.45 1.13-0.87 1.78-1.17 1.3-0.59 2.73-0.98 4.32-1.11 1.57-0.16 3.3-0.07 5.31 0.44l0.47 0.77c-0.47 1.99-1.22 3.57-2.13 4.89-0.89 1.35-1.94 2.45-3.12 3.34-0.59 0.44-1.24 0.77-1.94 1.05-0.76 0.29-1.98 0.85-3.81 0.93-1.91 0.07-3.47-0.67-4.25-1.46-0.88-0.77-1.16-1.6-1.56-2.31-0.76-1.52-1.69-2.74-3.08-3.36-1.34-0.66-3.45-0.48-5.06-1.2-1.59-0.72-2.53-2.3-3.14-3.99-0.54-1.72-0.65-3.76 0.5-5.72l0.85-0.28zM583.69 477c1.53 1.69 2.65 2.32 3.65 3.54 0.49 0.56 0.97 1.27 1.34 1.97 0.41 0.68 0.63 1.36 0.68 2.11 0.08 1.44-0.4 3.39 0.52 4.55 0.83 1.18 2.63 1.37 3.56 0.48 0.88-0.89 1.18-1.83 2.11-2.73 0.79-0.98 1.93-2.41 3.29-3.31 1.38-0.91 2.92-1.64 4.64-2.12 1.7-0.52 3.59-0.8 5.79-0.69l0.57 0.7c-0.36 2.18-1.04 3.97-1.9 5.53a16.91 16.91 0 0 1-3.05 4.1c-1.22 1.15-2.58 1.88-4.48 2.81-0.93 0.44-1.98 0.92-3.22 1.06-1.22 0.2-2.6 0-3.79-0.4-2.39-0.92-3.74-2.26-5.4-3.21-1.6-0.99-3.92-1.86-5.33-3.35a5.626 5.626 0 0 1-1.37-2.4c-0.27-0.82-0.43-1.64-0.52-2.62-0.15-1.86 0.06-4.52 2.03-6.13l0.88 0.11zM593.37 447.8c0.73-0.12 1.57 0.31 2.11 0.84 0.53 0.54 0.95 1.11 1.24 1.63 0.64 1.1 1.03 1.48 1.47 2.09 0.8 1.14 1.71 2 2.14 3.47 0.4 1.46 0.68 3.67 1.97 4.9 0.61 0.63 1.38 0.98 2.1 1.05 0.74 0.06 1.33-0.33 1.75-0.82 0.79-1.07 1.3-2.33 2.33-3.57 0.99-1.39 2.06-2.95 3.38-4.1 2.76-2.28 5.9-4.19 10.46-5.24l0.7 0.57c-0.09 4.72-1.87 8.36-4.26 11.39-1.26 1.5-2.82 2.55-4.54 3.68-1.68 1.22-4.19 2.37-7.05 2.11-1.39-0.1-2.7-0.6-3.72-1.13-1.03-0.52-1.88-1.11-2.79-1.53-1.75-0.88-4.28-1.15-6.18-2.58-1.87-1.41-2.84-3.84-3.03-6.27-0.08-1.17 0.08-2.63 0.52-3.38 0.29-0.87 1.02-1.19 0.97-2.32l0.43-0.79zM600.54 420.98c2.48 0.64 4.23 1.78 5.76 3.06 1.46 1.34 2.84 2.73 3.44 4.64 0.28 0.97 0.42 2.04 0.56 3.11 0.15 1.07 0.22 1.88 0.72 2.51 0.45 0.63 1.11 0.76 1.22 0.48l0.92-2.12c0.75-1.98 1.63-3.82 2.83-5.34 1.12-1.6 2.23-3.21 3.7-4.46 1.48-1.24 3.12-2.31 4.98-3.16s3.83-1.6 6.27-1.86l0.63 0.64c-0.28 2.45-1.05 4.41-1.91 6.27-0.87 1.85-1.95 3.49-3.2 4.96-1.26 1.46-2.88 2.56-4.48 3.67-1.52 1.19-3.38 2.06-5.35 2.79-0.48 0.21-0.96 0.37-1.43 0.63-0.49 0.25-1.22 0.71-2.07 0.87-1.79 0.34-3.08-0.57-4.03-1.17-0.96-0.63-2.03-1.39-2.94-1.93-0.94-0.53-1.87-1.05-2.67-1.68-1.55-1.27-2.33-3.07-3.02-4.92-0.62-1.9-1.03-3.95-0.7-6.5l0.77-0.49zM601.95 390.24c2.49 0.46 4.27 1.45 5.84 2.52 1.51 1.14 2.92 2.24 3.7 3.92 0.76 1.68 1.03 3.98 2.26 5.37 1.18 1.41 2.99 2.11 4.9 2.23 0.47 0.05 0.94 0.06 1.41 0.07 0.19-0.01 0.54 0.05 0.6-0.03-0.01-0.04-0.11-0.15-0.44-0.25-0.31-0.1-0.98-0.17-1.68 0.09-1.47 0.67-1.55 1.34-1.5 0.98 0.05-0.24 0.12-0.47 0.19-0.7l0.44-1.37c0.59-1.82 1.17-3.65 2.19-5.24a21.33 21.33 0 0 1 3.79-4.38c1.52-1.32 3.16-2.58 5.4-3.51l0.79 0.43c0.46 2.39 0.32 4.45 0.05 6.45-0.27 1.99-0.81 3.84-1.56 5.58-0.76 1.73-1.97 3.22-3.16 4.71l-0.9 1.12c-0.15 0.19-0.31 0.37-0.48 0.54-0.17 0.05-0.48 1.17-2.39 2.04-0.92 0.36-1.83 0.3-2.37 0.15-0.56-0.14-0.88-0.33-1.11-0.47-0.37-0.28-0.43-0.44-0.66-0.67-0.37-0.42-0.74-0.83-1.07-1.28-1.35-1.76-2.6-3.27-4.31-4.28-1.65-1.04-4.08-1.38-5.88-2.46-1.79-1.08-2.81-2.85-3.66-4.64-0.79-1.86-1.31-3.86-1.1-6.39l0.71-0.53zM598.22 351.99c2.79 0.04 5.08 1.12 7.03 2.38 1.9 1.34 3.63 2.77 4.62 4.74 0.98 1.97 1.35 4.5 2.71 6.15 1.29 1.66 3.37 2.65 5.39 2.88 0.44 0.03 0.78-0.1 0.72-0.32-0.03-0.27-0.65-0.31-0.68-0.41-0.1-0.12 0.14-0.46 0.49-0.9l0.95-1.2c1.25-1.61 2.36-3.28 3.76-4.69 1.41-1.4 2.94-2.73 4.66-4.03 1.73-1.3 3.5-2.62 5.86-3.83l0.8 0.41c0.55 5.24-1.25 9.92-4.02 13.74-1.43 1.9-3.34 3.36-5.3 4.69-0.49 0.33-0.98 0.66-1.48 0.97-0.47 0.28-1.04 0.67-2.08 1.1-0.96 0.46-2.69 0.69-3.8 0.25-1.13-0.38-1.8-0.97-2.3-1.48-1.7-2.02-3.05-3.74-4.93-5.04-1.82-1.32-4.41-1.98-6.33-3.25-1.91-1.27-3.03-3.12-4.12-4.94a24.298 24.298 0 0 1-2.5-6.51l0.55-0.71zM604.34 323.74c2.28 0.79 3.77 1.67 5.12 2.61 1.28 0.99 2.51 1.85 3.19 3.33 0.66 1.48 0.98 3.64 2.21 4.83 1.18 1.22 2.94 1.66 4.72 1.56 0.84-0.02 1.55-0.36 1.64-0.65 0.07-0.17-0.09-0.28-0.14-0.36-0.05-0.09 0.01-0.19 0.16-0.38 0.28-0.38 1.04-1.17 1.62-1.72 0.61-0.59 1.24-1.12 1.92-1.55 2.82-1.73 5.48-2.57 9.66-3.97l0.78 0.45c0.37 2.29-0.13 4.52-1.04 6.39-0.88 1.91-2.14 3.5-3.52 4.77-0.7 0.64-1.47 1.14-2.26 1.58-0.84 0.46-1.47 0.73-2.65 1.3-0.59 0.27-1.31 0.57-2.18 0.76-0.87 0.2-1.91 0.2-2.71-0.02-1.66-0.39-2.61-1.36-3.34-2.1-1.37-1.58-2.64-2.88-4.32-3.66-1.63-0.8-4-0.87-5.82-1.84-1.8-0.96-2.85-2.75-3.61-4.58-0.69-1.89-1-4-0.25-6.34l0.82-0.41zM617.79 305.72c1.98-0.17 3.23 0.14 4.26 0.53 0.96 0.46 1.8 0.86 2.01 1.87 0.19 1.01-0.07 2.71 0.57 3.49 0.58 0.8 1.76 0.86 2.77 0.34 0.46-0.23 0.74-0.73 0.5-1.01-0.31-0.33-0.62-0.31-0.58-0.53-0.01-0.18 0.26-0.62 0.46-0.93 0.22-0.33 0.45-0.62 0.77-0.83 1.35-0.81 3.06-1.25 6.52-1.88l0.82 0.37c1.75 3.17 1.05 6.21-0.55 8.34-0.42 0.53-0.95 0.94-1.54 1.28-0.6 0.34-1.14 0.56-2.04 0.93-0.84 0.33-2.15 0.77-3.5 0.48-1.28-0.23-2.04-1-2.55-1.58-0.93-1.27-1.6-2.2-2.73-2.59-1.07-0.41-2.91-0.07-4.21-0.53-1.28-0.46-1.81-1.62-2.16-2.78-0.29-1.23-0.29-2.58 0.46-4.43l0.72-0.54z" fill="#ABCB66" /><path d="M533.03 633.16c5.17-29.54 16.81-57.63 30.29-84.09 3.48-6.59 7.12-13.08 10.68-19.61 3.59-6.51 7.17-13.03 10.4-19.71 3.31-6.65 6.23-13.47 9.1-20.31 2.66-6.92 5.28-13.86 7.43-20.94 4.53-14.09 8.02-28.41 10.55-42.8 0.54-3.61 1.2-7.21 1.66-10.83l0.88-10.89c0.64-7.24 0.62-14.56 0.65-21.97 0.08-14.76 0.34-30.13 3.42-44.96 2.96-14.82 7.71-29.25 14.53-42.56l0.71 0.29c-4.41 14.22-7.64 28.64-9.24 43.2-1.77 14.57-1.48 29.07-1.19 44.02-0.04 7.45 0.09 15.04-0.86 22.59l-1.32 11.3c-0.61 3.74-1.41 7.44-2.1 11.15-3.06 14.8-7.74 29.19-13.71 42.91-5.74 13.83-12.17 27.26-18.22 40.85-6.01 13.62-11.64 27.43-17.56 41.05l-18.51 40.36c-6.04 13.49-11.52 27.18-16.82 41.13l-0.77-0.18z" fill="#45705D" /><path d="M563.68 518.7c0.61 0.82 1.34 0.62 1.82 0.76 0.27 0.04 0.54 0.08 0.77 0.14 0.28 0.12 0.53 0.24 0.75 0.36 0.89 0.53 1.68 0.91 1.96 1.97 0.25 1.06 0.22 2.88 1.05 3.73 0.79 0.88 2.09 1 3.42 0.64 1.34-0.38 2.54-0.72 3.62-0.65 1.11-0.05 2.22-0.17 3.27 0.16 1.05 0.35 2.12 0.91 3.2 1.75 1.08 0.81 2.18 1.89 3.24 3.48l-0.09 0.9c-1.36 1.34-2.68 2.17-4.01 2.68-1.33 0.55-2.68 0.76-4.02 0.69-1.34-0.09-2.62-0.73-3.85-1.43-1.27-0.58-2.38-1.69-3.28-3.03-0.91-1.31-1.78-2.31-3.05-2.73-1.22-0.46-3.19-0.12-4.69-0.75-1.48-0.62-2.26-2.12-2.68-3.65-0.1-0.39-0.14-0.8-0.18-1.21-0.05-0.47-0.04-0.98 0.03-1.53 0.09-1 0.69-2.53 1.96-2.77l0.76 0.49zM414.77 263.6c-0.12 1.15 0.65 1.46 1.02 2.04l0.71 0.8 0.68 1.08c0.78 1.45 1.61 2.71 1.75 4.36 0.13 1.63-0.24 3.85 0.64 5.4 0.39 0.79 1.04 1.4 1.75 1.9 0.33 0.2 0.86 0.53 1.09 0.49 0.1-0.01 0.09-0.16-0.14-0.32-0.22-0.15-0.56-0.19-0.73-0.21-0.36-0.03-0.34-0.24-0.29-0.64 0.15-0.5 0.34-0.98 0.55-1.44 0.4-0.94 0.97-1.75 1.52-2.57 1.11-1.64 2.3-3.26 3.88-4.45 3.21-2.28 7.09-3.81 11.77-3.33l0.48 0.77c-1.55 4.39-3.58 7.26-5.91 9.83-1.19 1.24-2.66 2.15-4.12 3.14-0.73 0.5-1.41 1.04-2.24 1.46-0.4 0.23-0.82 0.44-1.27 0.63-0.54 0.29-1.16 0.78-2.37 1.13-0.59 0.17-1.4 0.21-2.08-0.03a3.21 3.21 0 0 1-1.37-0.92c-0.49-0.61-0.58-0.97-0.92-1.39-0.56-0.82-1.16-1.57-1.89-2.24-1.4-1.33-3.69-2.28-5.15-3.97-1.43-1.68-1.82-3.92-1.81-6.07-0.01-0.54 0.08-1.09 0.16-1.63 0.08-0.64 0.25-1.3 0.52-1.95 0.24-0.66 0.65-1.31 1.22-1.88s1.44-0.93 2.15-0.78l0.4 0.79zM404.95 289.08c0.41 1.35 1.23 1.87 1.98 2.66 0.81 0.69 1.7 1.67 2.48 2.58 1.52 1.89 3.05 3.65 3.95 5.91 0.88 2.26 1.28 5.06 2.76 7.07 0.71 1.02 1.62 1.86 2.62 2.59 0.51 0.36 1.05 0.68 1.62 0.96 0.54 0.3 1.19 0.58 1.61 0.65 0.45 0.09 0.71-0.11 0.53-0.34-0.2-0.23-0.24-0.34 0.01-0.63 0.57-0.66 1.32-1.32 1.99-2.11 1.33-1.55 2.83-3.69 4.73-5.37 1.89-1.67 3.95-3.18 6.23-4.48 2.28-1.29 4.66-2.48 7.53-3.18l0.64 0.64c-0.69 2.88-1.86 5.27-3.13 7.56a36.708 36.708 0 0 1-4.43 6.26c-1.69 1.86-3.59 3.46-6.14 5.15-1.27 0.82-2.61 1.61-4.3 2.06-0.88 0.26-2.16 0.56-3.63 0.23-1.45-0.34-2.35-1.15-2.91-1.8-1.06-1.32-1.54-2.36-2.43-3.41-0.81-1.02-1.68-1.97-2.67-2.81-1.94-1.7-4.72-2.82-6.75-4.68s-3.16-4.39-4.01-6.96c-0.39-1.32-0.7-2.57-0.79-4.24-0.12-1.53 0.2-3.71 1.7-4.71l0.81 0.4zM404.94 328.74c2.6 0.69 4.48 1.69 6.23 2.76 1.69 1.13 3.32 2.17 4.45 3.87 1.11 1.7 1.89 4.07 3.48 5.43 1.55 1.39 3.63 1.99 5.81 2.09 0.53 0.04 0.93-0.04 0.97-0.25 0.03-0.24-0.42-0.4-0.61-0.43-0.42-0.11-0.08-0.53 0.33-1.47 1.03-2.03 2.15-4.06 3.76-5.68 1.61-1.61 3.47-2.98 5.58-4 2.1-1.02 4.35-1.81 6.97-1.91l0.55 0.71c-1.53 4.86-3.56 8.29-5.84 11.53-1.18 1.57-2.65 2.89-4.08 4.29-0.82 0.76-1.74 2.15-4.07 3.02-1.13 0.43-2.68 0.44-3.69-0.01-1.01-0.4-1.58-0.93-2-1.35-1.64-1.73-3.25-3.2-5.25-4.1-1.96-0.94-4.6-1.07-6.72-2.09-2.11-1.02-3.56-2.89-4.76-4.85-1.14-2.02-1.96-4.3-1.83-7.03l0.72-0.53zM405.97 359.83c2.81 0.23 5.04 1.13 7.09 2.22 1.99 1.16 3.92 2.39 5.22 4.32 1.29 1.93 2.02 4.55 3.51 6.21 1.45 1.69 3.54 2.72 5.71 2.98 0.51 0.08 1.24 0.16 0.87-0.18-0.15-0.16-0.73-0.22-1.01-0.19-0.29 0.03-0.36 0.03-0.33-0.11 0.41-0.81 1.21-1.74 1.8-2.57 1.26-1.73 2.4-3.51 3.83-5.03 2.97-2.99 6.14-5.81 10.77-8.44l0.8 0.42c0.31 2.73-0.15 5.22-0.87 7.59-0.72 2.38-1.84 4.58-3.26 6.56-1.43 1.97-3.34 3.54-5.29 4.98-1.02 0.75-1.86 1.37-3.15 2.06-0.4 0.23-0.94 0.55-1.75 0.81-0.8 0.26-1.96 0.24-2.66-0.02-1.48-0.57-1.72-1.14-2.2-1.58-1.75-1.99-3.21-3.81-5.16-5.07-1.91-1.31-4.53-1.72-6.61-2.79-2.07-1.07-3.51-2.85-4.89-4.7-1.32-1.91-2.47-4.02-3.02-6.8l0.6-0.67zM407.63 392.58c2.76 0.11 4.9 0.75 6.92 1.51 1.97 0.84 3.88 1.65 5.38 3.21 1.48 1.56 2.68 3.85 4.5 5.03 1.8 1.23 4 1.64 6.27 1.6 0.59 0.02 1.06-0.06 1.04-0.28-0.05-0.26-0.64-0.29-0.55-0.46-0.03-0.16 0.36-0.6 0.73-0.99l1.08-1.15c1.43-1.55 2.77-3.14 4.38-4.43 3.32-2.5 6.87-4.72 11.83-6.33l0.71 0.56c-0.48 5.26-2.9 9.48-6.05 12.89-1.61 1.68-3.62 2.91-5.65 4.05l-1.53 0.84c-0.51 0.26-0.98 0.51-1.96 0.89-0.47 0.17-1.05 0.35-1.72 0.44-0.68 0.08-1.43-0.01-1.97-0.18-1.12-0.35-1.67-0.85-2.1-1.22-1.81-1.6-3.63-2.92-5.78-3.6-2.11-0.72-4.78-0.5-7.07-1.17-2.27-0.68-4.03-2.26-5.62-3.96-1.54-1.77-2.86-3.83-3.44-6.56l0.6-0.69zM417.03 426.78c2.4-0.95 4.56-0.99 6.6-0.73 2.01 0.35 4.01 0.84 5.56 2.23 1.55 1.4 2.64 3.6 4.22 4.78 0.78 0.61 1.65 1.05 2.58 1.4 0.89 0.35 2.18 0.63 2.22 0.15 0.01-0.24-0.47-0.36-0.55-0.5-0.13-0.17-0.07-0.44 0.16-0.87 0.43-0.89 1-1.63 1.52-2.41 1.04-1.56 2.01-3.14 3.32-4.43 2.69-2.53 5.73-4.74 10.25-6.36l0.75 0.5c0.21 2.47-0.25 4.6-0.89 6.64a19.45 19.45 0 0 1-2.82 5.52c-1.22 1.64-2.86 2.91-4.52 4.11-0.83 0.6-1.64 1.22-2.6 1.67-0.47 0.24-1.11 0.64-2.08 0.96-0.91 0.35-2.38 0.47-3.33 0.05-1.89-0.85-2.15-1.84-2.95-2.41-0.73-0.63-1.54-1.14-2.45-1.47-1.81-0.69-4.15-0.26-6.08-0.54-1.93-0.29-3.45-1.38-5-2.53-1.51-1.23-2.96-2.66-4.2-4.91l0.29-0.85zM418.89 460.25c2.62-0.89 4.95-0.94 7.19-0.74 2.21 0.29 4.4 0.66 6.27 1.92 1.87 1.27 3.46 3.36 5.43 4.34 1.96 1.02 4.18 1.28 6.52 1.2 0.42 0 1.74 0.03 0.56-0.31-0.66-0.1-1.49 0.35-1.71 0.54-0.26 0.2-0.3 0.19-0.32 0.02 0.09-1.1 0.4-2.19 0.66-3.26 0.52-2.15 1.03-4.31 2.01-6.27 1.01-1.99 2.14-3.74 3.75-5.66 1.57-1.85 3.91-4.05 6.8-4.14l0.51 0.74c-0.74 2.45-0.63 4.22-0.85 6.33-0.15 2.09-0.65 4.4-1.33 6.44-0.7 2.08-1.87 3.96-3.03 5.85-0.59 0.95-1.11 1.88-1.86 2.8-0.24 0.33-0.51 0.82-1.12 1.45-0.56 0.62-1.89 1.39-3.1 1.31-1.14-0.06-1.65-0.45-1.91-0.62l-0.67-0.56c-1.78-1.52-3.69-2.7-5.85-3.12-2.15-0.46-4.69 0.19-6.95 0.02-2.25-0.18-4.19-1.24-6.11-2.39-1.88-1.24-3.68-2.73-5.18-5.05l0.29-0.84zM436.47 493.57c2.77-0.69 5.15-0.59 7.43-0.24 2.24 0.43 4.44 0.95 6.28 2.33 1.84 1.4 3.38 3.61 5.36 4.72 0.98 0.58 1.69 0.56 1.81 0.17 0.27-0.39 0.33-1.4 0.45-2.66 0.14-2.42 0.44-4.76 1.16-6.91 0.61-2.19 1.22-4.39 2.28-6.37 1.07-1.98 2.36-3.86 3.93-5.62 1.58-1.76 3.28-3.46 5.62-4.9l0.83 0.36c0.48 2.67 0.32 5.08 0.04 7.43-0.29 2.35-0.86 4.58-1.65 6.71-0.8 2.13-2.06 4.05-3.31 5.97-1.14 1.97-2.7 3.74-4.43 5.43-0.82 0.76-1.57 1.99-3.12 3.01-0.79 0.5-1.84 0.65-2.62 0.55-0.79-0.1-1.43-0.31-2.01-0.45-2.19-0.61-4.81-0.13-7.13-0.45-2.32-0.34-4.29-1.55-6.21-2.84-1.89-1.38-3.66-2.99-5.06-5.41l0.35-0.83zM458.15 520.79c2.42 0.65 4.08 1.55 5.59 2.52 1.45 1.03 2.84 1.97 3.69 3.54 0.41 0.8 0.74 1.73 1.12 2.66 0.41 0.92 0.83 1.84 1.23 2.11 0.2 0.16 0.28 0.16 0.29 0.13 0 0 0.16-0.21 0.34-0.63 0.4-0.85 0.63-1.84 0.85-2.83 0.37-2.03 0.89-3.95 1.79-5.59 0.8-1.72 1.59-3.44 2.79-4.87 1.21-1.42 2.62-2.7 4.27-3.81 1.62-1.13 3.49-2.08 5.77-2.75l0.73 0.52c0.11 2.37-0.18 4.45-0.72 6.35-0.51 1.93-1.27 3.68-2.22 5.29-0.96 1.6-2.34 2.92-3.7 4.23-1.27 1.39-2.91 2.5-4.7 3.51-0.86 0.53-1.71 1.06-2.4 1.72-0.36 0.33-0.79 0.9-1.63 1.31-0.84 0.38-1.77 0.32-2.43 0.15-1.37-0.38-2.34-0.78-3.39-0.98-1.07-0.24-2.14-0.54-3.1-1-1.88-0.96-3.05-2.74-3.98-4.57-0.86-1.9-1.39-4.03-0.95-6.53l0.76-0.48z" fill="#ABCB66" /><path d="M428.25 259.6c-2.62 8.59-2.6 17.48-2.16 26.37l1.27 26.9c0.75 17.93 1.62 35.79 2.82 53.6 0.52 8.91 1.24 17.82 2.25 26.72 0.97 8.9 2.21 17.79 3.99 26.57 3.46 17.6 8.7 34.81 14.88 51.62 6.26 16.81 13.22 33.22 20.36 49.69 7.1 16.48 14.43 33.07 19.68 50.57 5.32 17.5 8.12 35.71 9.23 53.78 1.07 18.1 0.81 36.13-0.03 54.13l-0.77 0.02c-3.29-35.83-5.32-71.86-16.3-105.5-10.51-33.74-26.8-66.39-36.19-101.37-4.95-17.37-9.26-34.85-13.31-52.41-4.07-17.54-7.96-35.23-10.19-53.22-2.12-17.99-2.51-36.09-2.4-54.09 0.07-9.02 0.23-17.97 0.6-27.02 0.43-9 1.49-18.44 5.55-26.66l0.72 0.3z" fill="#45705D" /><path d="M599.75 242.59c2.04 1.22 3.25 2.5 4.27 3.81 0.94 1.34 1.83 2.62 1.93 4.28 0.09 1.65-0.48 3.74 0.08 5.31 0.26 0.78 0.73 1.52 1.25 1.92 0.58 0.45 1.08 0.31 1.58 0.05 0.52-0.22 1.25-0.63 2.17-0.78 0.87-0.22 1.72-0.23 2.57-0.29 1.7-0.11 3.41-0.23 5.04 0.15 1.63 0.39 3.23 1.02 4.79 1.95 1.56 0.89 3.09 2.08 4.54 3.77l-0.12 0.89c-1.86 1.22-3.65 1.95-5.4 2.38-1.75 0.47-3.46 0.63-5.14 0.56-1.68-0.09-3.28-0.67-4.89-1.24-1.71-0.53-2.93-1.19-5.15-2.7-1.11-0.75-1.97-1.99-2.39-2.88-0.49-0.93-0.8-1.69-1.39-2.35-1.07-1.36-3.14-2.26-4.41-3.68-1.25-1.41-1.58-3.26-1.71-5.09-0.04-1.86 0.24-3.81 1.51-5.85l0.87-0.21zM595.07 257.34c1.23 2.37 1.91 4.23 2.53 6.04 0.53 1.81 1.16 3.43 1.1 5.31-0.08 1.86-0.66 4.22 0.11 6.1 0.37 0.93 0.95 1.76 1.7 2.42 0.36 0.34 0.81 0.69 1.11 0.73 0.35 0.1 0.29-0.26 0.18-0.44-0.2-0.29 0.97-1.19 1.84-1.77 0.89-0.65 1.85-1.1 2.8-1.59 1.89-0.98 3.78-1.97 5.82-2.48 2.05-0.5 4.17-0.77 6.38-0.75 2.22 0.03 4.48 0.19 6.95 1l0.28 0.86c-1.52 2.12-3.25 3.58-5.03 4.91a26.212 26.212 0 0 1-5.6 3.16c-1.95 0.79-4.06 1.1-6.16 1.43-1.05 0.16-2.09 0.36-3.19 0.36-0.55 0.02-1.1 0.02-1.67-0.03-0.6-0.03-1.45 0.07-2.56-0.15-1.17-0.18-2.22-1.07-2.63-1.7-0.47-0.68-0.63-1.19-0.92-1.68-0.55-0.99-1.11-1.93-1.81-2.81-1.34-1.75-3.59-3.29-4.82-5.48-1.22-2.17-1.26-4.73-0.89-7.13 0.45-2.4 1.49-4.76 3.61-6.5l0.87 0.19zM580.92 297.93c2.32 1.87 3.86 3.83 5.25 5.83 1.3 2.03 2.59 3.99 3.14 6.34 0.54 2.35 0.46 5.17 1.53 7.37 0.51 1.11 1.22 2.1 2.06 3 0.41 0.45 0.88 0.86 1.37 1.25 0.4 0.35 1.23 0.99 1.08 0.55-0.04-0.23-0.82-0.56-1.22-0.51-0.39 0-0.41-0.03-0.28-0.26 0.37-0.52 0.79-1.02 1.21-1.5 0.82-0.98 1.76-1.79 2.68-2.64 1.83-1.69 3.66-3.39 5.77-4.67 2.12-1.27 4.38-2.35 6.8-3.17 2.43-0.82 4.94-1.52 7.85-1.66l0.51 0.74c-1.15 2.67-2.7 4.78-4.32 6.77a35.55 35.55 0 0 1-5.37 5.26c-1.94 1.53-4.17 2.64-6.4 3.76-1.11 0.56-2.2 1.15-3.41 1.58-0.59 0.23-1.19 0.43-1.84 0.61-0.38 0.12-0.93 0.43-1.92 0.58-1 0.21-2.44-0.28-2.97-0.89-1.13-1.21-0.91-1.68-1.27-2.3-0.24-0.61-0.48-1.21-0.78-1.77-0.58-1.13-1.23-2.2-2.03-3.18-1.56-1.97-4.07-3.46-5.77-5.51-1.69-2.05-2.44-4.6-2.96-7.16-0.44-2.59-0.52-5.31 0.41-8.18l0.88-0.24zM576.49 337.37c-0.22 0.55 0.3 0.72 0.53 0.9l0.81 0.64c0.14 0.12 0.27 0.15 0.42 0.28l0.48 0.58c0.29 0.39 0.59 0.77 0.83 1.16 0.98 1.57 1.87 3.01 2.04 4.72 0.15 1.69-0.26 3.9 0.68 5.41 0.42 0.77 1.1 1.32 1.85 1.72 0.36 0.17 0.88 0.39 1.08 0.29 0.09-0.03 0.09-0.15-0.1-0.27-0.2-0.12-0.52-0.12-0.69-0.13-0.66 0.13 0.02-1.45 0.41-2.35 0.45-1.02 1.1-1.89 1.77-2.75 1.33-1.72 2.88-3.36 4.82-4.39 3.87-1.98 8.65-2.56 12.92-0.32l0.15 0.89c-3.13 3.47-5.49 5.63-7.98 7.62-1.24 0.95-2.69 1.6-4.09 2.44-0.71 0.41-1.35 0.9-2.14 1.29-0.39 0.2-0.77 0.42-1.21 0.6-0.43 0.16-0.98 0.74-2.13 1.22-0.57 0.24-1.37 0.37-2.03 0.22-0.66-0.14-1.12-0.42-1.44-0.67-0.64-0.53-0.82-0.94-1.22-1.32-0.71-0.79-1.39-1.53-2.17-2.2-1.52-1.34-3.83-2.41-5.28-4.11-1.43-1.69-1.78-3.81-1.93-5.81-0.03-0.5-0.01-1.02 0.02-1.53l0.08-0.78c0.03-0.33 0.05-0.75 0.12-1.1 0.11-0.72 0.4-1.44 0.88-2.16 0.25-0.36 0.62-0.71 1.06-0.93 0.45-0.24 0.99-0.21 1.32-0.05l0.14 0.89zM566.91 364.27c1.85 1.28 3.15 1.3 4.66 2.57 1.38 1.14 2.68 2.33 3.22 4.07 0.53 1.75 0.36 4 1.15 5.57 0.75 1.59 2.15 2.71 3.85 3.62 0.4 0.21 0.87 0.52 1.21 0.65 0.12 0 0.23-0.06 0.12-0.28-0.09-0.17-0.52-0.62-1.4-0.76-0.89-0.14-1.69 0.25-1.75 0.26-0.14 0.02 0.16-0.28 0.26-0.41l0.86-1c1.16-1.33 2.3-2.67 3.76-3.61a18.21 18.21 0 0 1 4.87-2.17c1.77-0.53 3.73-0.82 5.99-0.72l0.55 0.71c-0.47 2.22-1.25 4.04-2.2 5.63a18.19 18.19 0 0 1-3.33 4.18c-1.28 1.17-2.86 1.95-4.44 2.74l-1.18 0.59c-0.24 0.13-0.28 0.11-0.77 0.38-0.41 0.25-1.63 0.84-2.95 0.68a4.108 4.108 0 0 1-2.57-1.27c-0.44-0.49-0.61-0.9-0.75-1.24-0.16-0.57-0.2-0.97-0.3-1.46-0.32-1.9-0.93-3.59-2.2-4.81-1.23-1.25-3.41-1.81-4.89-2.87-1.47-1.07-2.18-2.69-2.82-4.36-0.26-0.83-0.59-1.81-0.68-3.01-0.13-1.14-0.02-2.57 0.82-3.6l0.91-0.08zM560.26 388.52c2.15 0.34 3.52 1.06 4.68 1.89 1.08 0.88 2.09 1.78 2.35 3.19 0.24 1.42-0.18 3.34 0.39 4.6 0.53 1.28 1.73 2.07 3.22 2.6 0.62 0.2 1.79 0.81 1.62 0.23-0.01-0.3-0.92-0.85-1.63-0.83-0.67-0.02-0.82 0.06-0.74-0.1 0.9-0.91 2.12-1.98 3.43-2.49 1.35-0.51 2.82-0.78 4.4-0.72 1.56 0.02 3.24 0.36 5.05 1.22l0.33 0.84c-1.44 3.69-3.29 5.72-5.41 7.25-1.11 0.74-2.29 0.97-3.75 1.4-0.51 0.16-1.29 0.54-2.64 0.58-1.4 0.09-2.98-0.73-3.52-1.46-0.63-0.7-0.81-1.28-0.86-1.68l-0.17-1.2c-0.19-1.62-0.62-3.01-1.69-3.94-1.02-0.96-3.01-1.27-4.28-2.12-1.26-0.85-1.72-2.25-2.07-3.69-0.27-1.48-0.29-3.11 0.51-5.14l0.78-0.43zM553.74 410.35c2.25 0.71 3.69 1.94 4.84 3.33 1.06 1.42 1.99 2.95 1.96 4.77-0.05 1.83-1.01 3.83-0.91 5.49 0.02 0.83 0.24 1.74 0.56 1.97 0.16 0.13 0.29-0.02 0.31-0.19 0-0.15-0.04-0.38 0.02-0.57 0.16-0.4 0.42-1.04 1.06-1.66 0.75-0.72 1.63-1.21 2.47-1.66 1.7-0.92 3.38-1.65 5.01-1.86 1.64-0.19 3.14-0.1 4.68 0.16 1.54 0.22 3.09 0.65 5.2 1.03l0.5 0.75c-0.6 2.16-2.06 3.85-3.61 5.01-1.55 1.22-3.22 1.97-4.74 2.47-1.53 0.48-3.01 0.45-4.39 0.54-0.7 0.04-1.32 0.15-2.04 0.11-0.81 0.06-2.02 0.17-3.47 0-0.73-0.08-1.61-0.35-2.35-0.87-0.71-0.51-1.17-1.29-1.36-1.88-0.39-1.24-0.32-1.98-0.7-2.71-0.62-1.49-2.42-2.63-3.43-3.89-1-1.28-1.15-2.8-1.3-4.39-0.06-1.63 0.06-3.35 0.87-5.54l0.82-0.41zM541.91 435.35c2.31 0.45 3.88 1.35 5.24 2.37 1.29 1.07 2.5 2.17 2.97 3.81 0.46 1.65 0.26 3.82 1.04 5.28 0.73 1.49 2.13 2.48 3.8 3.21 0.38 0.14 0.9 0.47 1.16 0.46 0.09-0.04 0.11-0.24-0.3-0.58-0.38-0.34-1.41-0.54-1.99-0.4-0.59 0.11-0.76 0.2-0.76 0.12 0-0.09 0.24-0.34 0.35-0.49l0.89-1.02c1.21-1.34 2.51-2.65 4.12-3.46 3.25-1.53 7.06-2.16 11.18-0.61l0.32 0.85c-2.02 3.85-4.13 6.1-6.48 8-1.19 0.9-2.61 1.43-4.02 2.06l-1.06 0.48c-0.21 0.1-0.29 0.11-0.61 0.27-0.33 0.17-0.85 0.5-1.82 0.73-0.97 0.27-2.44 0.02-3.18-0.51-0.77-0.52-1.05-1.02-1.23-1.36-0.27-0.64-0.26-0.96-0.4-1.45-0.38-1.83-1.01-3.43-2.26-4.55-1.21-1.15-3.37-1.62-4.82-2.64-1.44-1.02-2.11-2.62-2.68-4.26-0.49-1.69-0.74-3.54-0.2-5.84l0.74-0.47zM533.12 465.46c2.22-0.72 4.36 0.66 5.52 1.96 1.16 1.38 1.94 2.71 1.83 4.05-0.13 1.33-1.04 2.92-0.54 3.98 0.42 1.08 1.81 1.22 2.67 0.42 0.88-0.79 1.43-1.62 2.24-2.15 0.83-0.68 1.38-1.38 2.68-1.99 1.26-0.55 2.85-1.03 4.72-1.03 1.81-0.05 4.03 0.52 5.36 2.15l-0.09 0.9c-1.4 1.37-1.91 2.57-2.61 3.54-0.66 1.02-1.43 1.94-2.52 2.76-1.03 0.79-2.88 1.42-4.62 1.68-1.74 0.4-3.94 0.15-5.78-0.97-1.86-1.09-3.02-2.41-4.29-3.47-1.24-1.06-3.21-2.03-4.28-3.26-1.05-1.22-1.08-2.51-1.1-3.59 0-1.15 0.5-2.09 0.35-4.23l0.46-0.75zM521.54 487.27c2.29 1.01 3.8 2.19 5.14 3.42 1.27 1.28 2.48 2.49 3.03 4.22 0.54 1.73 0.54 4.03 1.58 5.57 0.49 0.78 1.17 1.39 1.93 1.91 0.66 0.42 2.02 1.12 2.03 0.59-0.06-0.28-0.53-0.47-0.59-0.63-0.09-0.2 0-0.43 0.27-0.79 0.57-0.77 1.26-1.38 1.93-2.04 1.35-1.31 2.75-2.68 4.53-3.6 1.78-0.9 3.82-1.57 6.01-1.77 2.17-0.23 4.52 0.04 6.66 1.15l0.16 0.89c-3 3.52-5 5.81-7.81 7.96-1.39 1.03-3.09 1.73-4.84 2.48-0.88 0.37-1.75 0.79-2.74 1.03-0.51 0.15-1.22 0.41-2.19 0.52-0.92 0.15-2.39 0.02-3.31-0.64-1.69-1.34-1.51-2.17-2.24-2.98-0.57-0.79-1.18-1.52-1.95-2.11-1.48-1.22-3.84-1.8-5.5-3.09-1.65-1.28-2.46-3.21-3.05-5.16-0.51-2-0.69-4.16 0.12-6.57l0.83-0.36zM517.84 514.89c2.3 0.92 3.78 2.19 5.05 3.48 1.19 1.34 2.29 2.61 2.67 4.3 0.36 1.68 0.16 3.9 1.1 5.39 0.43 0.76 1.09 1.33 1.81 1.78 0.63 0.4 2.04 0.9 1.64 0.23-0.23-0.25-0.36-0.37-0.21-0.65 0.13-0.28 0.57-0.66 0.89-0.95 0.68-0.65 1.43-1.12 2.17-1.63 1.47-1.02 2.9-2.07 4.54-2.69 1.64-0.61 3.38-1.03 5.27-1.21 1.87-0.22 3.88-0.2 6.16 0.2l0.44 0.79c-0.86 2.16-2.01 3.89-3.33 5.33a18.204 18.204 0 0 1-4.39 3.6c-1.61 0.93-3.44 1.38-5.27 1.81-0.92 0.21-1.81 0.45-2.79 0.5-0.51 0.05-0.89 0.03-1.6 0.07-0.68 0.03-1.72 0.13-2.85-0.3-1.12-0.44-1.57-1.17-1.89-1.59-0.27-0.45-0.53-0.88-0.84-1.25-0.58-0.78-1.19-1.49-1.94-2.1-1.43-1.23-3.74-1.94-5.28-3.31-1.53-1.36-2.14-3.27-2.57-5.14-0.35-1.92-0.38-3.92 0.4-6.27l0.82-0.39zM505.56 544.44c2.73 0.69 4.76 1.85 6.62 3.13 1.8 1.35 3.54 2.69 4.65 4.66 1.1 1.98 1.67 4.57 3.12 6.29 0.71 0.87 1.57 1.59 2.51 2.2 0.46 0.3 1.01 0.59 1.49 0.78 0.43 0.22 0.79 0 0.4-0.26-0.41-0.2-0.45-0.28-0.08-0.75 0.38-0.47 0.79-0.9 1.2-1.3 0.81-0.85 1.73-1.52 2.62-2.23 1.79-1.41 3.57-2.83 5.6-3.81 2.04-0.97 4.19-1.73 6.5-2.23 2.31-0.49 4.69-0.86 7.4-0.63l0.44 0.79c-1.2 2.45-2.74 4.3-4.35 6.03a29.948 29.948 0 0 1-5.25 4.43c-1.89 1.24-4.02 2.04-6.15 2.85-1.07 0.4-2.11 0.84-3.25 1.1-0.56 0.15-1.14 0.27-1.74 0.36-0.6 0.08-1.68 0.58-3.23 0.32-1.53-0.33-2.15-1.25-2.57-1.74-0.37-0.54-0.66-1-1.05-1.44-0.74-0.89-1.54-1.68-2.48-2.35-1.84-1.35-4.49-1.91-6.53-3.17-2.03-1.26-3.35-3.23-4.53-5.26-1.11-2.1-1.98-4.39-2.07-7.22l0.73-0.55z" fill="#ABCB66" /><path d="M499.25 666.07c5.42-17.67 9.13-35.6 12.12-53.71 3.07-18.1 5.34-36.4 8.97-54.58 1.84-9.08 4.04-18.12 6.43-27.09 1.25-4.48 2.5-8.95 3.95-13.36 1.3-4.45 2.8-8.85 4.29-13.23 6.01-17.51 12.72-34.74 18.47-52.24 5.7-17.51 10.93-35.14 15.79-52.85 4.83-17.72 8.94-35.62 12.78-53.56 2.02-8.95 3.75-17.97 5.49-26.98 1.73-9.01 3.32-18.19 5.65-27.27 2.27-9.07 5.39-18.08 9.86-26.43 4.47-8.33 10.89-15.73 18.78-20.71l0.45 0.63c-3.43 3.05-6.59 6.33-9.19 10.02-2.54 3.74-4.76 7.65-6.54 11.79-3.63 8.25-5.75 17.09-7.43 26.02-1.69 8.94-2.82 18.03-4.21 27.21-1.33 9.18-3.03 18.31-4.81 27.41-3.68 18.19-8.48 36.14-13.86 53.89-5.34 17.76-11.67 35.21-18.8 52.3-7.04 17.11-14.63 33.95-20.05 51.54-5.43 17.59-8.17 35.8-10.72 54-2.72 18.18-5.48 36.46-9.43 54.61-3.87 18.13-9.24 36.14-17.28 52.87l-0.71-0.28z" fill="#45705D" /><path d="M498.62 488.24c2.11 0.43 3.41 0.96 4.55 1.55 1.07 0.64 2.05 1.17 2.49 2.35 0.42 1.18 0.53 3.09 1.5 4.01 0.45 0.48 1.06 0.74 1.7 0.87 0.56 0.09 1.6 0.12 1.75-0.27 0.09-0.2-0.35-0.48-0.87-0.44-0.52 0.02-0.84 0.17-0.98 0.12-0.17-0.05-0.22-0.2-0.21-0.47l0.14-1.05c0.19-1.4 0.37-2.8 1.02-4.01 0.66-1.2 1.54-2.32 2.71-3.32 1.13-1.01 2.54-1.92 4.41-2.63l0.84 0.34c0.85 1.82 1.23 3.45 1.34 4.96 0.14 1.53 0 2.95-0.36 4.27-0.38 1.32-1.22 2.45-2.05 3.59l-0.63 0.85c-0.25 0.36-0.57 0.84-1.1 1.36-0.51 0.52-1.29 1.21-2.44 1.53-1.14 0.35-2.3 0.08-2.87-0.27-1.18-0.73-1.35-1.35-2.02-1.83-0.58-0.47-1.18-0.87-1.88-1.11-1.36-0.52-3.43-0.25-5.03-0.91-1.57-0.65-2.45-2.15-3.03-3.68-0.51-1.58-0.67-3.39 0.24-5.4l0.78-0.41zM492.61 467.38c2.17-0.35 3.52-0.48 4.81-0.48 1.25 0.08 2.4 0.07 3.47 0.92 1.05 0.86 2.18 2.51 3.55 2.94 1.36 0.48 2.83 0.09 4.3-0.67 0.74-0.34 1.52-0.78 1.82-1.09 0.36-0.36 0.12-0.55-0.35-0.43-0.38 0.11-0.39-0.06-0.17-0.68 0.24-0.66 0.55-1.32 0.96-1.9 0.84-1.16 1.88-2.21 3.19-3.12 1.28-0.93 2.83-1.71 4.82-2.28l0.79 0.43c0.58 1.96 0.72 3.7 0.59 5.3-0.1 1.62-0.47 3.1-1.04 4.46-0.29 0.68-0.69 1.29-1.16 1.88-0.51 0.63-1.29 1.72-2.83 2.71-1.62 1.01-3.34 1.15-4.41 0.86-1.14-0.23-1.8-0.81-2.5-1.22-1.42-0.93-2.83-1.53-4.34-1.37-1.49 0.1-3.23 1.3-4.98 1.49-1.74 0.18-3.34-0.73-4.71-1.89-1.33-1.22-2.43-2.93-2.41-5.21l0.6-0.65zM491.22 435.13c2.16 0.7 3.45 0.69 4.92 1.24 0.7 0.24 1.47 0.61 2.14 1.04 0.69 0.38 1.23 0.87 1.64 1.48 0.78 1.21 1.34 3.14 2.72 3.68 1.31 0.61 2.96-0.13 3.32-1.36 0.32-1.21 0.11-2.18 0.47-3.42 0.2-1.24 0.47-3.06 1.21-4.52 0.75-1.48 1.71-2.88 2.97-4.16 1.22-1.3 2.71-2.49 4.68-3.5l0.84 0.33c0.77 2.07 1.08 3.96 1.1 5.74 0.06 1.79-0.16 3.48-0.61 5.08-0.48 1.61-1.3 2.92-2.48 4.68-0.59 0.85-1.26 1.79-2.27 2.53-0.96 0.79-2.26 1.3-3.48 1.55-2.53 0.4-4.37-0.09-6.28-0.08-1.88-0.06-4.32 0.35-6.29-0.24-0.96-0.29-1.76-0.78-2.38-1.39-0.64-0.58-1.19-1.21-1.76-2.01-1.06-1.53-2.2-3.94-1.3-6.33l0.84-0.34zM485.07 404.99c0.58-0.47 1.52-0.52 2.25-0.32s1.38 0.49 1.88 0.79c1.1 0.63 1.63 0.77 2.31 1.08 1.26 0.59 2.48 0.88 3.59 1.94 1.08 1.07 2.42 2.84 4.14 3.26 0.84 0.24 1.68 0.16 2.34-0.14 0.67-0.31 0.99-0.95 1.11-1.58 0.15-1.32-0.03-2.67 0.24-4.26 0.16-1.7 0.31-3.59 0.89-5.25 1.26-3.36 3.03-6.58 6.46-9.77l0.89 0.14c2.27 4.13 2.54 8.18 1.98 12-0.34 1.93-1.17 3.62-2.1 5.46-0.84 1.9-2.45 4.15-5.07 5.35-1.26 0.61-2.64 0.83-3.79 0.88-1.16 0.06-2.18-0.02-3.18 0.07-1.95 0.11-4.28 1.14-6.64 0.85-2.33-0.29-4.37-1.9-5.75-3.92-0.65-0.98-1.24-2.33-1.23-3.19-0.18-0.89 0.29-1.54-0.31-2.5l-0.01-0.89zM477.95 378.16c2.47-0.69 4.55-0.57 6.52-0.23 1.93 0.43 3.81 0.94 5.29 2.3 0.73 0.7 1.38 1.55 2.03 2.41 0.66 0.85 1.13 1.52 1.87 1.82 0.71 0.32 1.34 0.1 1.3-0.2l-0.25-2.29c-0.33-2.09-0.49-4.13-0.2-6.04 0.18-1.95 0.34-3.9 0.99-5.71 0.66-1.81 1.56-3.56 2.74-5.23 1.19-1.67 2.52-3.3 4.51-4.75l0.87 0.24c0.97 2.26 1.29 4.35 1.46 6.39s0.05 4-0.31 5.9c-0.37 1.9-1.22 3.66-2.06 5.42-0.73 1.8-1.9 3.47-3.25 5.09-0.31 0.42-0.65 0.8-0.92 1.26-0.3 0.46-0.7 1.23-1.36 1.79-1.38 1.19-2.95 1.04-4.07 1-1.15-0.07-2.45-0.19-3.5-0.2-1.07 0.01-2.15 0.02-3.15-0.12-1.98-0.33-3.54-1.5-5.07-2.75-1.49-1.34-2.86-2.91-3.84-5.29l0.4-0.81zM463.87 350.81c2.39-0.84 4.42-0.88 6.32-0.73 1.87 0.23 3.65 0.48 5.16 1.55 1.49 1.07 2.87 2.93 4.63 3.52 1.73 0.64 3.64 0.33 5.36-0.52 0.43-0.19 0.85-0.42 1.25-0.64 0.16-0.11 0.5-0.23 0.51-0.32-0.03-0.03-0.17-0.07-0.51 0-0.32 0.07-0.93 0.34-1.41 0.92-0.94 1.32-0.68 1.93-0.82 1.6-0.07-0.23-0.13-0.47-0.18-0.7l-0.3-1.41c-0.4-1.87-0.81-3.75-0.71-5.64 0.11-1.89 0.45-3.78 1.1-5.69 0.66-1.9 1.45-3.81 2.94-5.74l0.9-0.03c1.59 1.84 2.49 3.7 3.26 5.56a20.91 20.91 0 0 1 1.42 5.62c0.2 1.88-0.1 3.77-0.39 5.67l-0.22 1.42a8.9 8.9 0 0 1-0.14 0.71c-0.13 0.13 0.17 1.25-1.06 2.96-0.62 0.77-1.44 1.17-1.98 1.32-0.55 0.15-0.93 0.15-1.19 0.15-0.46-0.06-0.59-0.17-0.9-0.25-0.53-0.18-1.06-0.35-1.57-0.57-2.05-0.85-3.89-1.54-5.86-1.56-1.95-0.07-4.22 0.84-6.32 0.81-2.09-0.04-3.85-1.07-5.49-2.19-1.61-1.21-3.05-2.7-4.13-4.99l0.33-0.83zM441.6 319.52c2.44-1.37 4.96-1.57 7.28-1.45 2.31 0.21 4.52 0.59 6.37 1.8 1.83 1.22 3.41 3.23 5.41 3.97 1.95 0.79 4.24 0.61 6.11-0.2 0.39-0.2 0.62-0.47 0.46-0.64-0.16-0.22-0.72 0.05-0.8-0.02-0.15-0.06-0.11-0.47-0.02-1.02l0.23-1.51c0.28-2.02 0.42-4.02 0.93-5.94 0.53-1.92 1.19-3.84 2.03-5.82 0.85-1.99 1.73-4.03 3.17-6.25l0.9-0.04c3.09 4.27 3.86 9.22 3.35 13.92-0.29 2.36-1.23 4.58-2.26 6.71-0.26 0.53-0.52 1.06-0.8 1.58-0.27 0.47-0.57 1.1-1.26 2-0.61 0.88-1.99 1.94-3.17 2.11-1.17 0.24-2.04 0.06-2.73-0.13-2.48-0.9-4.51-1.72-6.79-1.91-2.23-0.23-4.81 0.48-7.1 0.35-2.28-0.14-4.18-1.19-6.03-2.22-1.84-1.12-3.55-2.4-5.4-4.39l0.12-0.9zM432.84 291.98c2.37-0.46 4.1-0.43 5.74-0.3 1.61 0.22 3.1 0.35 4.43 1.29 1.31 0.95 2.67 2.66 4.32 3.08 1.63 0.47 3.37-0.03 4.86-1.01 0.72-0.43 1.17-1.09 1.1-1.38-0.03-0.18-0.22-0.2-0.3-0.24-0.09-0.05-0.08-0.17-0.06-0.41 0.06-0.46 0.32-1.53 0.55-2.3 0.24-0.82 0.52-1.59 0.89-2.31 1.58-2.91 3.47-4.97 6.4-8.28h0.9c1.46 1.8 2.13 3.98 2.28 6.06 0.19 2.09-0.12 4.1-0.68 5.89-0.29 0.9-0.7 1.72-1.17 2.5-0.5 0.82-0.91 1.36-1.65 2.45-0.38 0.53-0.85 1.15-1.51 1.75-0.66 0.61-1.55 1.13-2.36 1.34-1.63 0.5-2.93 0.13-3.94-0.15-1.98-0.69-3.72-1.18-5.56-1.01-1.81 0.12-3.9 1.24-5.96 1.31-2.04 0.07-3.84-0.96-5.41-2.17-1.54-1.29-2.86-2.97-3.37-5.37l0.5-0.74zM435.53 269.64c1.63-1.14 2.87-1.5 3.95-1.67 1.06-0.08 1.99-0.16 2.67 0.62 0.66 0.78 1.29 2.38 2.23 2.74 0.9 0.41 1.95-0.14 2.57-1.09 0.29-0.43 0.27-1-0.07-1.13-0.43-0.13-0.69 0.05-0.77-0.16-0.1-0.15-0.08-0.66-0.06-1.04 0.02-0.39 0.09-0.76 0.26-1.1 0.77-1.38 2.03-2.62 4.72-4.89l0.9-0.09c3.1 1.88 4 4.86 3.67 7.51-0.1 0.66-0.35 1.29-0.7 1.88-0.35 0.6-0.71 1.06-1.31 1.83-0.57 0.7-1.48 1.74-2.8 2.17-1.23 0.44-2.27 0.15-3-0.1-1.44-0.64-2.48-1.11-3.65-0.88-1.13 0.18-2.56 1.39-3.91 1.64-1.33 0.24-2.38-0.5-3.26-1.33-0.86-0.92-1.54-2.09-1.81-4.07l0.37-0.84z" fill="#ABCB66" /><path d="M525.03 595.8c-10.22-28.19-14.11-58.35-15.6-88.02-0.26-7.45-0.33-14.89-0.5-22.34-0.13-7.44-0.27-14.88-0.8-22.28-0.44-7.42-1.31-14.79-2.22-22.15-1.14-7.33-2.33-14.65-3.99-21.86-3.09-14.47-7.19-28.63-12.16-42.37-1.33-3.4-2.55-6.85-3.95-10.21l-4.66-9.88c-3.05-6.59-6.71-12.93-10.37-19.36-7.28-12.83-14.7-26.28-19.41-40.68-4.81-14.32-7.87-29.21-8.59-44.15l0.76-0.1c3.25 14.52 7.63 28.64 13.5 42.06 5.72 13.51 13.18 25.94 20.87 38.75 3.67 6.48 7.56 12.99 10.5 20.01l4.48 10.45c1.33 3.54 2.48 7.15 3.73 10.72 4.71 14.36 7.82 29.17 9.47 44.05 1.91 14.85 3.02 29.71 4.54 44.52 1.57 14.81 3.56 29.6 5.21 44.36l4.05 44.23c1.48 14.72 3.54 29.31 5.89 44.06l-0.75 0.19z" fill="#45705D" /><path d="M618.85 643.27c0.16-4.42-0.12-17.87-0.04-22.29 0.56-32.74 19.75-86.34-8.17-81.41-23.33 4.13-61.7 0.25-93.61 1.65-28.86 1.27-64.12 2.29-93.16 0.83-1.01-0.05-2.13 0.8-2.4 1.82-0.2 0.44-0.27 0.97-0.14 1.56 0.17 0.78 0.31 1.56 0.48 2.34 2.79 22.24 7.13 45.03 7.43 67.39 0.13 9.28-0.9 28.11-0.9 28.11s-24.71-0.4-32.85 1.65c-18.21 4.57-7.59 82.84 11.63 85.58 10.46 1.49 233.13-1.75 243.74-3.25 7.29-1.03 17.68-52.86 17.25-60.94-1.63-31.27-6.56-23.04-49.26-23.04z" fill="#9B715C" /></svg>