<?xml version="1.0" standalone="no"?><!DOCTYPE svg PUBLIC "-//W3C//DTD SVG 1.1//EN" "http://www.w3.org/Graphics/SVG/1.1/DTD/svg11.dtd"><svg class="icon" width="200px" height="200.00px" viewBox="0 0 1024 1024" version="1.1" xmlns="http://www.w3.org/2000/svg"><path d="M419.847493 691.537171c-21.246751-16.838556-32.495766-40.218224-33.494791-61.035395-1.478556-30.8224 5.64199-66.562498 21.361639-107.222791a62.184273 62.184273 0 0 1 5.49963-0.824195c39.783649-4.183415 76.008273 30.237971 80.910985 76.879922 4.900215 46.641951-23.374673 87.841717-63.155824 92.022634a62.578888 62.578888 0 0 1-11.121639 0.179825z" fill="#FFFFFF" /><path d="M427.09042 771.746341h25.327765a24.97561 24.97561 0 0 0 23.297249-15.971902l35.61522-92.147512c0.504507-1.301229 0.896624-2.647415 1.176351-4.016078 2.75481-13.514302-5.969171-26.703922-19.485971-29.458732l-44.818732-9.138576-0.472039-0.089912c-13.566751-2.492566-26.586537 6.483668-29.079102 20.047922l-15.744624 85.666342-36.074771 6.87079A21.129366 21.129366 0 0 0 349.658537 754.263415a17.482927 17.482927 0 0 0 17.482926 17.482926h59.948957z" fill="#5DE4C7" /><path d="M396.462829 720.239141l14.81803-80.61877c3.241834-17.637776 20.165307-29.30638 37.803082-26.064547l0.6144 0.117386 44.82123 9.136078c17.570341 3.581502 28.911766 20.727259 25.332761 38.2976a33.010263 33.010263 0 0 1-1.528508 5.2224l-35.620214 92.15001A32.475785 32.475785 0 0 1 452.418185 779.239024H367.141463c-13.794029 0-24.97561-11.184078-24.975609-24.975609 0-13.74158 9.765463-25.545054 23.26478-28.115044l31.032195-5.90923zM452.418185 764.253659a17.477932 17.477932 0 0 0 16.306576-11.181581l35.617717-92.147512a17.482927 17.482927 0 0 0-12.814985-23.434615l-44.82123-9.131083c-9.827902-1.810732-18.939005 4.473132-20.687297 13.968859l-16.67122 90.711414-41.112351 7.829854A13.636683 13.636683 0 0 0 357.15122 754.263415a9.990244 9.990244 0 0 0 9.990243 9.990244h85.276722z" fill="#524F75" /><path d="M358.649756 761.526322l15.330029-3.873717a7.492683 7.492683 0 0 0-3.673912-14.53081l-15.330029 3.876215a7.492683 7.492683 0 1 0 3.673912 14.528312z" fill="#524F75" /><path d="M536.97561 771.746341h22.088429a24.97561 24.97561 0 0 0 24.878205-22.780253l5.254868-59.546849a25.00558 25.00558 0 0 0-1.463571-10.876878c-4.795317-12.932371-19.166283-19.528429-32.098653-14.73561l-32.33842 11.988293a24.973112 24.973112 0 0 0-16.29159 23.417132v29.004175l-27.782868 5.292332A21.129366 21.129366 0 0 0 462.04878 754.263415a17.482927 17.482927 0 0 0 17.482927 17.482926h57.443903z" fill="#5DE4C7" /><path d="M499.512195 722.017405v-22.805229c0-13.579239 8.449249-25.724878 21.179317-30.442771l32.335922-11.988293c16.81358-6.233912 35.497834 2.342712 41.729249 19.15879 1.675863 4.51559 2.325229 9.343376 1.903141 14.138693l-5.254868 59.546849A32.468293 32.468293 0 0 1 559.064039 779.239024H479.531707c-13.794029 0-24.97561-11.184078-24.975609-24.975609 0-13.74158 9.765463-25.545054 23.26478-28.115044l21.691317-4.130966zM559.064039 764.253659a17.482927 17.482927 0 0 0 17.415493-15.946927l5.25237-59.546849a17.482927 17.482927 0 0 0-23.492058-17.92999l-32.333424 11.988292a17.482927 17.482927 0 0 0-11.408859 16.393991v35.205619l-33.871922 6.4512A13.636683 13.636683 0 0 0 469.541463 754.263415a9.990244 9.990244 0 0 0 9.990244 9.990244h79.532332z" fill="#524F75" /><path d="M471.04 761.526322l15.330029-3.873717a7.492683 7.492683 0 0 0-3.673912-14.53081l-15.330029 3.876215a7.492683 7.492683 0 1 0 3.673912 14.528312z" fill="#524F75" /><path d="M273.123278 545.627161l2.777288 17.375532a24.978107 24.978107 0 0 0 20.754732 20.724761c7.325346 1.161366 12.8 1.630907 16.428956 1.411122 5.434693-0.329678 13.139668-3.241834 23.112429-8.736469a7.48519 7.48519 0 0 0 3.868722-6.888273l-0.207298-4.742868c19.106341 3.254322 36.152195 5.691941 51.137561 7.317854 17.378029 1.888156 45.238322 9.470751 83.583376 22.750282a7.492683 7.492683 0 0 0 9.945288-7.078087v-78.420917a7.492683 7.492683 0 0 0-8.356839-7.442732l-141.941386 16.488897-9.510712-3.18439-0.719297-12.417873a11.718556 11.718556 0 0 0-11.698576-11.03922 12.802498 12.802498 0 0 0-12.667629 10.939318l-1.8432 12.515278c-2.152898 0-4.240859 0.269737-6.23641 0.779239l-34.890927 1.735805a13.719102 13.719102 0 0 0-13.037268 13.699121 13.576741 13.576741 0 0 0 13.042263 13.566752l16.458927 0.646868z" fill="#5DE4C7" /><path d="M256.372137 552.46798a21.069424 21.069424 0 0 1-20.240235-21.054439 21.211785 21.211785 0 0 1 20.157815-21.184312l34.19161-1.700839c0.247259-0.054946 0.49202-0.109893 0.739278-0.159844l0.996527-6.77838a20.297678 20.297678 0 0 1 20.08039-17.340566 19.211239 19.211239 0 0 1 19.178771 18.097327l0.427083 7.355317 3.119453 1.04398 140.283005-16.294087a14.985366 14.985366 0 0 1 16.713678 14.885463v78.420917a14.985366 14.985366 0 0 1-19.890575 14.158673c-37.848039-13.109698-65.266263-20.57241-81.939981-22.383141-12.88242-1.396137-27.245893-3.384195-43.092917-5.966673a14.977873 14.977873 0 0 1-7.282888 9.395824c-10.86439 5.984156-19.473483 9.238478-26.276839 9.653073-4.288312 0.259746-10.237502-0.254751-18.054868-1.493541a32.468293 32.468293 0 0 1-26.981151-26.941191l-1.808234-11.311453-10.319922-0.402108z m76.003278 12.627669a7.492683 7.492683 0 0 1 8.741463-7.712469c18.96398 3.231844 35.862478 5.649483 50.688 7.255415 18.082341 1.963083 46.3872 9.668059 85.229268 23.12242v-78.420917l-141.941385 16.4864a7.432741 7.432741 0 0 1-3.241834-0.339669l-9.510712-3.179395a7.49518 7.49518 0 0 1-5.102517-6.673483l-0.721796-12.417873a4.225873 4.225873 0 0 0-4.21838-3.981112c-2.634927 0-4.870244 1.930615-5.254868 4.538068l-1.840703 12.520273a7.490185 7.490185 0 0 1-7.412761 6.398752c-1.498537 0-2.967102 0.18482-4.385717 0.546965-0.484527 0.124878-0.979044 0.199805-1.478556 0.224781l-34.893424 1.733307a6.223922 6.223922 0 0 0-5.916722 6.216429 6.081561 6.081561 0 0 0 5.844292 6.079064l16.458927 0.649366a7.490185 7.490185 0 0 1 7.105561 6.301346l2.777288 17.375532a17.487922 17.487922 0 0 0 14.528312 14.508331c6.830829 1.083941 11.835941 1.511024 14.803044 1.3312 4.071024-0.244761 10.869385-2.814751 19.94802-7.817365l-0.2048-4.745366z" fill="#524F75" /><path d="M273.29561 553.449522h19.985483a7.492683 7.492683 0 1 0 0-14.985366h-19.985483a7.492683 7.492683 0 0 0 0 14.985366z" fill="#524F75" /><path d="M582.815844 294.51239c5.452176 10.699551-7.530146 31.142088-38.939473 61.32761l-32.490771-63.772722c42.171317-9.068644 65.980566-8.254439 71.430244 2.445112z" fill="#FFC48B" /><path d="M576.541971 298.640859c-2.632429-5.64199-20.832156-7.370302-53.5552-2.332722l21.761249 46.664429c24.343727-22.915122 34.481327-38.564839 31.793951-44.331707z m13.579239-6.331318c7.200468 15.439922-7.692488 37.178693-42.843161 68.677932a7.492683 7.492683 0 0 1-11.790986-2.412644l-30.247961-64.866653a7.492683 7.492683 0 0 1 5.472157-10.542205c46.127454-8.249444 72.139551-6.448702 79.409951 9.14357z" fill="#524F75" /><path d="M600.181385 355.700137c4.775337 9.790439-7.322849 28.130029-36.292058 55.016273l-28.462205-58.365503c38.392507-7.55762 59.978927-6.44121 64.754263 3.34923z" fill="#FFC48B" /><path d="M562.653034 396.919883c11.381385-8.689015 19.810654-16.266615 25.247844-22.652878 5.577054-6.5536 7.330341-10.979278 6.643512-12.974829-0.661854-1.915629-4.600507-4.140956-12.839961-5.589542-8.154537-1.431102-19.398556-1.835707-33.649639-1.176351l14.598244 42.3936z m46.06002-40.507942c5.184937 15.055298-10.442302 33.407376-45.420644 58.695181a7.492683 7.492683 0 0 1-11.473795-3.633951l-21.141854-61.397542a7.492683 7.492683 0 0 1 6.541112-9.912819c42.750751-3.09198 66.257795 1.03399 71.495181 16.249131z" fill="#524F75" /><path d="M614.117776 421.291083c3.546537 10.302439-10.697054 27.028605-42.725776 50.183493l-21.141854-61.397542c39.029385-2.824741 60.321093 0.914107 63.86763 11.214049z" fill="#FFC48B" /><path d="M599.547005 438.426849c6.436215-5.711922 8.78642-9.85038 8.384312-11.923356-0.387122-1.988059-3.981112-4.740371-11.935844-7.320352-7.872312-2.552507-18.951493-4.518088-33.157619-5.849287l8.556644 44.014517c12.475317-7.020644 21.878634-13.351961 28.152507-18.921522z m23.092449-14.783064c3.039532 15.629737-14.990361 31.63161-53.1456 51.80441a7.49518 7.49518 0 0 1-10.859395-5.194927l-12.3904-63.742751a7.492683 7.492683 0 0 1 7.857326-8.903805c42.763239 2.884683 65.468566 10.242498 68.538069 26.037073z" fill="#524F75" /><path d="M622.177405 470.490537c5.53959 8.863844-3.067005 26.888741-25.812293 54.069697l-33.015258-52.830907c33.67961-9.690537 53.287961-10.102634 58.827551-1.23879z" fill="#FFC48B" /><path d="M613.203668 487.011902c3.069502-7.048117 3.404176-11.343922 2.250303-13.054751-1.103922-1.6384-5.00761-2.799766-12.437854-2.385171-7.165502 0.402107-16.606283 2.285268-28.242419 5.664469l23.324722 34.578731c7.160507-9.827902 12.198088-18.122302 15.105248-24.803278z m14.673171-21.43157c8.556644 12.680117-0.31719 33.067707-24.208859 63.735258a7.49518 7.49518 0 0 1-12.12316-0.414595l-34.838479-51.649561a7.492683 7.492683 0 0 1 3.893698-11.313951c36.664195-11.950829 58.630244-13.179629 67.2768-0.357151z" fill="#524F75" /><path d="M651.308956 502.14962c8.206985 4.930185 8.679024 23.219824 1.416117 54.866419l-48.912234-29.391298c23.45959-21.916098 39.289132-30.407805 47.496117-25.475121z" fill="#FFC48B" /><path d="M650.419824 520.112078c0.057444-6.848312-1.1264-10.394849-2.48757-11.281483-1.291239-0.836683-4.782829-0.444566-10.72203 2.480078-5.696937 2.804761-12.720078 7.562615-20.992 14.261073l30.560156 19.84562c2.372683-10.404839 3.581502-18.864078 3.641444-25.305288z m5.671961-23.846712c12.09319 7.852332 11.908371 28.409756 2.6624 63.093385a7.492683 7.492683 0 0 1-11.321444 4.353249l-47.858263-31.077151a7.490185 7.490185 0 0 1-0.83918-11.933347c26.861268-23.394654 45.123434-32.380878 57.356487-24.436136z" fill="#524F75" /><path d="M699.946459 502.511766c8.861346 1.088937 16.19918 16.488898 22.018497 46.204878l-52.820917-6.486166c11.6736-27.568078 21.938576-40.807649 30.80242-39.718712z" fill="#FFC48B" /><path d="M705.121405 517.85678c-2.87719-5.5296-5.284839-7.814868-6.583571-7.929756-0.369639-0.032468-0.966556 0.152351-1.950595 0.826693-1.540995 1.056468-3.356722 2.952117-5.339785 5.699434-3.356722 4.657951-6.945717 11.403863-10.714537 20.197776l32.44082 2.839727c-2.535024-9.240976-5.167454-16.468917-7.852332-21.633874z m-5.277346-22.860175c13.7216 1.201327 22.637893 18.344585 30.267941 51.177522a7.49518 7.49518 0 0 1-7.954732 9.161053l-53.018224-4.63797a7.492683 7.492683 0 0 1-6.343805-10.142595c11.963317-31.244488 23.159883-46.771824 37.04882-45.55801z" fill="#524F75" /><path d="M356.821541 272.883512c29.793405-12.213073 63.970029-15.185171 103.206713 0s84.415063 80.036839 99.879961 138.272468c4.735376 17.832585 7.035629 34.588722 6.900761 50.270908-0.41959 48.003122 35.894946 88.373698 83.673287 93.016663 17.313093 1.683356 62.736234-13.863961 94.442771-42.103883 11.174088-12.907395 18.187239-18.666771 21.046946-17.275629 4.285815 2.085463 1.301229 15.737132 0.796722 17.275629-16.59879 50.805385-31.686556 68.740371-50.842848 85.743766s-41.112351 32.418341-65.443591 42.770732c-9.765463 27.533112-49.099551 52.406322-80.341541 62.344117s-57.771083 14.01881-103.386537 8.354341-78.588254-43.162849-80.40398-81.048351c-1.933112-40.308137 10.379863-88.238829 36.941424-143.794575a7.487688 7.487688 0 0 0-6.089053-10.694557c-52.993249-4.765346-85.341659-11.481288-97.042732-20.150321C293.798088 436.328898 284.721951 408.813268 284.721951 374.436839c0-49.299356 42.306185-89.342751 72.09959-101.553327z" fill="#5DE4C7" /><path d="M356.821541 272.883512C327.028137 285.094088 284.721951 325.137483 284.721951 374.436839c0 34.376429 9.076137 61.892059 35.437893 81.425483 11.701073 8.669034 44.049483 15.387473 97.042732 20.150322a7.492683 7.492683 0 0 1 6.089053 10.694556c-26.561561 55.555746-38.874537 103.488937-36.941424 143.794576 1.818224 37.885502 34.791024 75.383883 80.40398 81.048351s72.144546 1.583454 103.386537-8.354342 70.576078-34.811005 80.341541-62.344117c24.331239-10.35239 46.2848-25.767337 65.443591-42.770731s34.246556-34.93838 50.842848-85.743766c0.50201-1.538498 3.486595-15.190166-0.796722-17.27563-2.859707-1.391141-9.872859 4.368234-21.046946 17.27563-31.706537 28.24242-77.132176 43.787239-94.442771 42.103883-47.778341-4.642966-84.092878-45.013541-83.673287-93.016664 0.137366-15.682185-2.165385-32.438322-6.900761-50.270907-15.464898-58.233132-60.643278-123.0848-99.879961-138.269971s-73.413307-12.213073-103.206713 0z m392.239454 213.873639c2.709854-2.225327 5.259863-3.921171 7.924761-5.100019 4.877737-2.157893 10.145093-2.694868 15.54482-0.067434 6.084059 2.95961 8.993717 8.074615 10.14759 13.93639 0.589424 2.987083 0.674341 6.086556 0.439571 9.438283-0.3072 4.315785-1.258771 9.450771-2.102947 12.028253-15.454907 47.313795-29.710985 69.731902-55.141151 92.299864-20.395083 18.097327-41.674302 32.615649-63.91758 42.865639-13.566751 27.902751-50.171005 53.520234-87.272274 65.318712-36.759102 11.69358-65.503532 14.443395-109.775297 8.943766-51.112585-6.3488-91.278361-48.34279-93.526166-95.202029-1.950595-40.665288 9.435785-87.706849 33.864429-141.287025-49.686478-4.957659-80.146732-11.761015-94.008195-22.030985-29.021659-21.501502-41.501971-52.044176-41.501971-93.463727 0-26.544078 10.394849-52.059161 28.207454-74.102634 15.07278-18.654283 34.870946-33.806985 53.193054-41.317151 36.159688-14.823024 74.162576-15.644722 114.300878-0.109893 43.60242 16.87602 92.035122 84.697288 108.956097 148.402576 5.067551 19.081366 7.547629 37.163707 7.400273 54.249522-0.352156 40.235707 30.090615 74.075161 70.139005 77.971356 15.659707 1.521015 56.764566-15.35001 82.332098-37.763122 5.796839-6.656 10.662088-11.618654 14.795551-15.010342z" fill="#524F75" /><path d="M312.195122 392.117073a7.492683 7.492683 0 0 1 7.492683 7.492683v14.985366a7.492683 7.492683 0 1 1-14.985366 0v-14.985366a7.492683 7.492683 0 0 1 7.492683-7.492683zM347.160976 392.117073a7.492683 7.492683 0 0 1 7.492683 7.492683v14.985366a7.492683 7.492683 0 1 1-14.985366 0v-14.985366a7.492683 7.492683 0 0 1 7.492683-7.492683z" fill="#44756A" /><path d="M405.069424 489.951532c10.911844 1.138888 19.840624 1.138888 26.891239-0.064937 21.561444-3.688898 28.309854-6.211434 41.364605-17.313093a7.492683 7.492683 0 1 0-9.708019-11.416351c-10.619629 9.03118-15.035317 10.679571-34.186615 13.956371-5.50962 0.94158-13.144663 0.94158-22.807727-0.067434a7.492683 7.492683 0 1 0-1.553483 14.905444z" fill="#524F75" /><path d="M419.847493 691.537171c-21.246751-16.838556-32.498263-40.218224-33.497288-61.035395-1.476059-30.8224 5.64199-66.562498 21.361639-107.220293a62.184273 62.184273 0 0 1 5.499629-0.824195c39.783649-4.183415 76.008273 30.237971 80.910986 76.879922 4.900215 46.641951-23.374673 87.841717-63.155825 92.022634-3.746341 0.392117-7.460215 0.444566-11.119141 0.177327z" fill="#FFFFFF" /><path d="M404.689795 261.144976L364.024507 257.973073C383.77522 213.926088 415.264468 195.391688 458.484761 202.369873 501.707551 209.345561 521.920312 239.293815 519.120546 292.214634H463.514849c-0.574439-33.819473-8.117073-52.533698-22.632898-56.147668-14.515824-3.611473-26.579044 4.745366-36.192156 25.07801z" fill="#FFF185" /><path d="M442.690185 228.796566c17.645268 4.390712 26.444176 23.519532 28.072586 55.925385H511.875122C512.449561 239.935688 494.517073 215.774283 457.290927 209.765151 420.821541 203.880898 394.020215 217.3952 375.625678 251.362029l24.640937 1.923122c10.759493-19.953015 25.145444-28.789385 42.42357-24.488585zM352.832937 264.614088l4.353248-9.70802C378.283083 207.867005 412.98919 187.436956 459.678595 194.972098 506.979902 202.607141 529.590322 236.111922 526.600741 292.611746L526.22361 299.707317H456.147044l-0.124878-7.365307c-0.52199-30.759961-6.863298-46.492098-16.950946-49.004644-10.459785-2.602459-19.358595 3.561522-27.605542 21.009483l-2.207844 4.670439L352.832937 264.614088z" fill="#524F75" /><path d="M499.512195 304.702439m-47.453658 0a47.453659 47.453659 0 1 0 94.907317 0 47.453659 47.453659 0 1 0-94.907317 0Z" fill="#FFF185" /><path d="M499.512195 359.64878c-30.345366 0-54.946341-24.600976-54.946341-54.946341s24.600976-54.946341 54.946341-54.946341 54.946341 24.600976 54.946342 54.946341-24.600976 54.946341-54.946342 54.946341z m0-14.985365c22.068449 0 39.960976-17.892527 39.960976-39.960976s-17.892527-39.960976-39.960976-39.960976-39.960976 17.892527-39.960975 39.960976 17.892527 39.960976 39.960975 39.960976z" fill="#524F75" /><path d="M507.004878 297.209756m-24.97561 0a24.97561 24.97561 0 1 0 49.95122 0 24.97561 24.97561 0 1 0-49.95122 0Z" fill="#FFFBDC" /><path d="M312.195122 302.204878m-37.463415 0a37.463415 37.463415 0 1 0 74.92683 0 37.463415 37.463415 0 1 0-74.92683 0Z" fill="#FFFFFF" /><path d="M312.195122 347.160976C287.366868 347.160976 267.239024 327.033132 267.239024 302.204878S287.366868 257.24878 312.195122 257.24878s44.956098 20.127844 44.956098 44.956098-20.127844 44.956098-44.956098 44.956098z m0-14.985366c16.551337 0 29.970732-13.419395 29.970732-29.970732S328.746459 272.234146 312.195122 272.234146 282.22439 285.653541 282.22439 302.204878s13.419395 29.970732 29.970732 29.970732z" fill="#524F75" /><path d="M292.446907 310.798985A11.239024 11.239024 0 1 0 289.717073 303.22638l8.331864 1.211318-5.60203 6.361287z" fill="#232323" /><path d="M498.458224 472.543532c7.662517-16.416468 12.495298-30.342868 14.498342-41.781698 1.153873-19.381073 1.153873-32.445815 0-39.194224-0.3072-1.790751-2.497561-4.810302-6.571083-9.058654-13.621698-3.711376-22.528-17.178224-20.235239-31.431805C488.987473 333.431883 504.762068 320.826693 522.599649 321.950595l21.511492 1.356176c15.464898 0.976546 27.732917 12.879922 29.558635 27.850302 4.770341 2.769795 9.588137 7.442732 9.448273 13.389425-0.304702 13.002302-8.569132 18.269659-18.11481 19.615843l-13.444371 1.893152 7.357815 35.273053c1.940605 11.853424 6.086556 23.487063 6.086556 38.122771l-6.086556 45.655415" fill="#5DE4C7" /><path d="M552.273171 426.650849c0.279727 1.41362 0.589424 2.882185 0.976546 4.62798 0.147356 0.674341 0.299707 1.358673 0.507005 2.280273l0.507005 2.265288c2.282771 10.23001 3.204371 16.131746 3.246829 23.139903l-6.016624 45.153405a7.492683 7.492683 0 1 0 14.852995 1.978068l6.084058-45.655415c0.044956-0.32718 0.067434-0.659356 0.067435-0.989034 0-8.59161-1.048976-15.429932-3.608976-26.891239l-0.509503-2.277776-0.494517-2.225326a184.817015 184.817015 0 0 1-0.909112-4.318283 124.42599 124.42599 0 0 1-0.661853-3.621464l-5.779357-27.757892 5.517113-0.776742c14.513327-2.043005 24.196371-11.179083 24.561014-26.858771 0.172332-7.387785-3.88121-13.546771-10.107629-18.054868A39.30162 39.30162 0 0 0 544.585678 315.831571l-21.511493-1.356176C501.382868 313.104234 482.2016 328.431766 478.752468 349.888312c-2.762302 17.195707 7.357815 33.67961 23.527025 39.196722 1.176351 1.286244 2.092956 2.385171 2.739824 3.2768 0.284722 0.392117 0.494517 0.714302 0.629385 0.949073 0.94158 6.13401 0.9216 18.474459-0.144858 36.574283-1.920624 10.634615-6.521132 23.829229-13.83399 39.491434a7.492683 7.492683 0 0 0 13.576741 6.341308c7.919766-16.963434 12.959844-31.486751 15.090264-43.657366 0.049951-0.279727 0.08242-0.561951 0.099902-0.846673 1.188839-19.940527 1.188839-33.409873-0.094907-40.902556-0.654361-3.826263-3.404176-7.620059-8.546654-12.982322a7.500176 7.500176 0 0 0-3.436644-2.043005c-10.037698-2.734829-16.473912-12.652644-14.808039-23.015025a27.208429 27.208429 0 0 1 28.577093-22.837697l21.511492 1.356175a24.311259 24.311259 0 0 1 22.595435 21.27922 7.48519 7.48519 0 0 0 3.673912 5.572058c3.69639 2.145405 5.766868 4.767844 5.721912 6.733425-0.179824 7.739941-3.941151 11.28398-11.671102 12.372917l-13.441874 1.893151a7.492683 7.492683 0 0 0-6.291356 8.948761l7.325347 35.118205c0.209795 1.261268 0.449561 2.562498 0.721795 3.943649z" fill="#524F75" /><path d="M555.707317 528.234146m-8.741463 0a8.741463 8.741463 0 1 0 17.482926 0 8.741463 8.741463 0 1 0-17.482926 0Z" fill="#524F75" /><path d="M514.05799 326.683473l-2.340214 15.764605a7.492683 7.492683 0 1 0 14.820526 2.200351l2.342713-15.764605a7.492683 7.492683 0 0 0-14.823025-2.200351zM539.0336 329.181034l-2.340215 15.764605a7.492683 7.492683 0 1 0 14.820527 2.200351l2.342712-15.764605a7.492683 7.492683 0 0 0-14.823024-2.200351z" fill="#524F75" /><path d="M389.619512 289.717073m-47.453658 0a47.453659 47.453659 0 1 0 94.907317 0 47.453659 47.453659 0 1 0-94.907317 0Z" fill="#FFFFFF" /><path d="M389.619512 344.663415C359.274146 344.663415 334.673171 320.062439 334.673171 289.717073S359.274146 234.770732 389.619512 234.770732s54.946341 24.600976 54.946342 54.946341-24.600976 54.946341-54.946342 54.946342z m0-14.985366c22.068449 0 39.960976-17.892527 39.960976-39.960976S411.687961 249.756098 389.619512 249.756098 349.658537 267.648624 349.658537 289.717073s17.892527 39.960976 39.960975 39.960976z" fill="#524F75" /><path d="M365.787785 302.007571A14.985366 14.985366 0 1 0 362.146341 291.909932l11.109152 1.615922-7.467708 8.481717z" fill="#232323" /></svg>