<?xml version="1.0" standalone="no"?><!DOCTYPE svg PUBLIC "-//W3C//DTD SVG 1.1//EN" "http://www.w3.org/Graphics/SVG/1.1/DTD/svg11.dtd"><svg class="icon" width="200px" height="200.00px" viewBox="0 0 1024 1024" version="1.1" xmlns="http://www.w3.org/2000/svg"><path d="M767.567844 1009.02924c0-150.705653-114.806768-256.427166-256.427166-256.427166S254.712515 858.323587 254.712515 1009.02924h512.855329z" fill="#1A1A1A" /><path d="M778.479532 1024H236.538012v-16.207345c0-153.419353 117.551407-269.114386 270.971758-269.114386 153.418355 0 270.969762 115.694035 270.969762 269.114386V1024z m-510.789364-29.94152h486.900023C748.430222 866.307992 645.838596 762.996772 511.140678 762.996772 376.441762 762.996772 273.850136 866.307992 267.690168 994.05848z"  /><path d="M511.194573 381.189489m-298.979056 0a298.979057 298.979057 0 1 0 597.958113 0 298.979057 298.979057 0 1 0-597.958113 0Z" fill="#1A1A1A" /><path d="M511.194573 692.851774c-171.851353 0-311.663283-139.808936-311.663283-311.660289S339.342222 69.525209 511.194573 69.525209s311.663283 139.813926 311.663283 311.665278-139.81193 311.661287-311.663283 311.661287z m0-597.958113c-157.862674 0-286.29483 128.433154-286.29483 286.296826s128.431158 286.291836 286.29483 286.291837 286.29483-128.428164 286.294831-286.291837S669.057248 94.893661 511.194573 94.893661z"  /><path d="M765.448982 352.209092s15.210292 1.901287 23.765583-3.802573 17.110581-13.309006 17.110581-13.309006l5.046144 46.090978s-7.184967 11.183158-22.395259 17.837162-22.576904 0.712608-22.576904 0.712608l-0.950145-47.529169z" fill="#C90505" /><path d="M775.606144 414.86871c-9.889684 0-15.642448-4.023142-17.169466-5.256733l-4.599017-3.705763-1.363337-68.094003 14.544592 1.813458c0.001996 0 1.80248 0.203602 4.32156 0.203602 5.809653 0 9.469505-1.06492 10.83883-1.977138 7.686986-5.122994 15.643446-12.169232 15.722292-12.238098l18.359143-16.296171 8.208967 74.955602-2.425264 3.775626c-0.94715 1.476117-9.784889 14.636413-27.983345 22.598861-6.397505 2.798534-12.607376 4.220756-18.454955 4.220757z m2.781568-50.028289l0.48605 24.25862c1.37731-0.3074 3.046051-0.827384 5.019197-1.6897a44.012039 44.012039 0 0 0 14.296078-10.083306l-2.005084-18.323212c-4.719782 3.126893-10.684133 5.07908-17.796241 5.837598z"  /><path d="M259.337481 352.209092s-15.209294 1.901287-23.765582-3.802573c-8.55529-5.70386-17.110581-13.309006-17.110581-13.309006l-5.046145 46.090978s7.184967 11.183158 22.39526 17.837162c15.209294 6.654004 22.576904 0.712608 22.576904 0.712608l0.950144-47.529169z" fill="#C90505" /><path d="M249.181318 414.86871h-0.001996c-5.847579 0-12.056452-1.422222-18.452959-4.221755-18.198456-7.962448-27.036195-21.121747-27.983345-22.598861l-2.425264-3.775626 8.204975-74.955603 18.362136 16.296172c0.078846 0.068865 8.035306 7.115103 15.722293 12.238098 1.368327 0.91122 5.029177 1.977138 10.83883 1.977138 2.539041 0 4.347509-0.207595 4.366472-0.207595l14.450776-1.69968-1.314433 67.984218-4.598019 3.705763c-1.527018 1.234589-7.28078 5.257731-17.169466 5.257731z m-22.584889-37.532694a44.177715 44.177715 0 0 0 14.297076 10.073325c1.972148 0.862316 3.641887 1.3823 5.019197 1.6897l0.48605-24.25862c-7.111111-0.758519-13.075462-2.710706-17.795243-5.8366l-2.00708 18.332195z"  /><path d="M736.716101 243.347712C658.649575 115.702019 511.191579 124.60563 511.191579 124.60563s-147.455002-8.90361-225.521528 118.741083c-78.063532 127.647688-8.672062 460.112343 225.521528 460.112344 234.196585 0.000998 303.594043-332.463657 225.524522-460.111345z" fill="#F8EDD2" /><path d="M511.191579 716.144281c-90.500242 0-167.581692-48.591096-217.048078-136.826761-60.340148-107.63278-68.995244-261.31462-19.294316-342.587883 72.728951-118.914745 204.443696-124.939977 230.108569-124.939976 3.052039 0 5.176889 0.073856 6.231829 0.118768 1.053942-0.044912 3.178791-0.118768 6.234822-0.118768 25.665871 0 157.38361 6.025232 230.112562 124.939976 49.702924 81.268273 41.048827 234.946121-19.289326 342.578901-49.466386 88.238659-126.551828 136.835743-217.056062 136.835743z m-6.232827-578.986168c-23.289513 0-142.800094 5.440374-208.46584 112.810667-45.426277 74.276928-36.553606 216.459228 19.779369 316.941972 31.678129 56.504639 91.209856 123.864078 194.920296 123.864078 103.714433 0 163.249154-67.360437 194.927283-123.874058 56.331977-100.482745 65.203649-242.660055 19.775376-316.93299-65.665747-107.370292-185.178324-112.810667-208.469832-112.810667-3.364429 0-5.291665 0.098807-5.487283 0.113778l-0.744546 0.039922-0.764507-0.044912c-0.177653-0.008982-2.108881-0.107789-5.470316-0.10779z"  /><path d="M587.288951 167.353138c11.492554 0.196616 20.708554 6.088109 20.570823 13.158301-0.137731 7.073185-9.573302 12.648296-21.06885 12.450682-11.501536-0.201606-20.711548-6.092101-20.576811-13.164289 0.140725-7.067197 9.575298-12.6463 21.074838-12.444694z" fill="#F8EDD2" /><path d="M587.369793 205.653333l-0.792452-0.00499c-10.755992-0.193622-20.430097-3.944296-26.554136-10.300881-4.29561-4.4543-6.601107-10.063345-6.49232-15.791158 0.283446-14.195275 14.534612-24.892382 33.149255-24.892382l0.832375 0.00499c10.737029 0.188632 20.411135 3.939306 26.538167 10.295891 4.296608 4.4543 6.602105 10.068335 6.490324 15.796148-0.278456 14.190285-14.538604 24.892382-33.171213 24.892382z m-2.52407-25.517161c0.676678 0.078846 1.401263 0.133739 2.168764 0.143719l0.355306 0.00499c0.693645 0 1.351361-0.034932 1.969154-0.088826a20.150643 20.150643 0 0 0-2.270565-0.15869h-0.016967c-0.784468 0-1.521029 0.033934-2.205692 0.098807z"  /><path d="M435.104187 167.353138c11.498542-0.201606 20.931119 5.377497 21.070846 12.444694 0.136733 7.072187-9.073279 12.96368-20.577809 13.164289-11.492554 0.197614-20.931119-5.377497-21.066854-12.450682-0.136733-7.070191 9.077271-12.961684 20.573817-13.158301z" fill="#F8EDD2" /><path d="M435.017357 205.653333c-18.6366 0-32.894752-10.702097-33.168219-24.897372-0.111782-5.727813 2.193715-11.336858 6.490324-15.791158 6.127033-6.356585 15.802136-10.107259 26.546152-10.295891l0.827384-0.00499c18.616639 0 32.864811 10.697107 33.143267 24.887392 0.109786 5.732803-2.193715 11.341848-6.489325 15.796148-6.124039 6.356585-15.801138 10.108257-26.546152 10.300881l-0.803431 0.00499z m-1.846394-25.448296c0.581864 0.049903 1.197661 0.078846 1.845396 0.078846l0.366284-0.00499c0.810417-0.014971 1.568936-0.069864 2.277552-0.15869a20.060819 20.060819 0 0 0-1.948195-0.088827c-0.912218 0.014971-1.759563 0.074854-2.541037 0.173661z"  /><path d="M607.624234 249.318051c-0.137731 7.070191-9.573302 12.645302-21.06885 12.448686-11.501536-0.201606-20.711548-6.092101-20.576811-13.161295 0.140725-7.069193 9.570308-12.6463 21.071844-12.44669 11.498542 0.195618 20.711548 6.087111 20.573817 13.159299z" fill="#F8EDD2" /><path d="M587.150222 274.454955l-0.813411-0.00499c-10.742019-0.188632-20.417123-3.939306-26.544156-10.290901-4.296608-4.4543-6.603103-10.068335-6.494316-15.796148 0.28145-14.195275 14.536608-24.892382 33.158238-24.892382l0.812413 0.00499c10.737029 0.183641 20.414129 3.929326 26.541162 10.285911 4.3006 4.45929 6.607096 10.073326 6.495314 15.806128-0.275462 14.190285-14.529622 24.887392-33.155244 24.887392z m-2.521076-25.517162c0.669692 0.078846 1.386292 0.133739 2.143813 0.14372l0.376265 0.00499c0.683665 0 1.332398-0.029942 1.945201-0.088827a21.204585 21.204585 0 0 0-2.256593-0.153699 23.755602 23.755602 0 0 0-2.208686 0.093816z"  /><path d="M435.335735 236.157754c11.50453-0.198612 20.935111 5.377497 21.074838 12.44669 0.136733 7.069193-9.073279 12.960686-20.577809 13.161295-11.492554 0.197614-20.931119-5.377497-21.066854-12.448686-0.137731-7.071189 9.074277-12.962682 20.569825-13.159299z" fill="#F8EDD2" /><path d="M435.238924 274.454955c-18.62662 0-32.879782-10.697107-33.156242-24.887392-0.109786-5.737793 2.197708-11.351828 6.498308-15.811119 6.128031-6.351595 15.802136-10.098277 26.541162-10.28092l0.807423-0.00499c18.624624 0 32.88078 10.697107 33.16223 24.8834 0.109786 5.737793-2.194713 11.346838-6.493318 15.806128-6.125037 6.351595-15.803135 10.103267-26.549146 10.290901l-0.810417 0.003992z m-1.827431-25.447298c0.576873 0.049903 1.185684 0.078846 1.827431 0.078846l0.374269-0.00499c0.801435-0.009981 1.555961-0.069864 2.258589-0.1537a19.944047 19.944047 0 0 0-1.941209-0.088827c-0.905232 0.014971-1.743595 0.073856-2.51908 0.168671z"  /><path d="M398.495688 401.454908c-57.005661-3.834511-78.409856-38.357084-67.802573-75.181161 10.600296-36.819088 63.623735-30.685068 101.965848-6.901521 38.339119 23.78255 35.076491 48.330604 31.811867 59.073622 0 0-8.968483 26.847563-65.975142 23.00906z" fill="#1A1A1A" /><path d="M409.279626 414.516398c-3.735704 0-7.650058-0.138729-11.635275-0.406207-41.19554-2.769591-61.323228-19.724476-70.953419-33.454659-11.364803-16.207345-14.271127-36.769185-8.185014-57.89692 6.468366-22.465123 25.836538-35.346963 53.137217-35.346963 21.325349 0 46.001154 7.719922 67.703766 21.18163 43.63777 27.068133 42.076819 57.693318 37.262222 73.53837-1.204647 3.617934-12.407766 32.384749-67.329497 32.384749z m-37.636491-101.736297c-15.835072 0-25.511173 5.717832-28.759829 16.999798-2.773583 9.632187-4.231735 23.748616 4.578059 36.309083 9.253926 13.19922 27.196881 21.052881 51.886658 22.71264 3.421318 0.227556 6.761793 0.347322 9.931603 0.347321 34.144312 0 42.372242-13.387852 43.261505-15.05759 4.460288-15.325068-4.440327-30.213988-26.567112-43.944172-17.53575-10.875758-37.84708-17.36708-54.330884-17.36708z"  /><path d="M557.915322 378.445848c-3.262628-10.742019-6.52825-35.291072 31.812865-59.073622 38.338121-23.783548 91.360561-29.917567 101.96984 6.901521 10.600296 36.825076-10.802901 71.347649-67.809559 75.181161-56.999673 3.838503-65.973146-23.00906-65.973146-23.00906z" fill="#1A1A1A" /><path d="M613.107524 414.516398c-54.929715 0-66.127844-28.772803-67.222705-32.052398-4.92039-16.177404-6.479345-46.807579 37.157427-73.870721 21.69862-13.461708 46.374425-21.18163 67.700772-21.18163 27.300678 0 46.669848 12.882838 53.144202 35.346963 6.083119 21.131727 3.173801 41.694565-8.192998 57.89692-9.632187 13.734175-29.759875 30.685068-70.953419 33.454659-3.98322 0.267478-7.898573 0.406207-11.633279 0.406207z m-43.237551-40.381131c0.998051 1.838409 9.360717 15.012678 43.237551 15.012678 3.168811 0 6.509287-0.118768 9.929607-0.347321 24.689778-1.659758 42.631735-9.513419 51.887657-22.71264 8.810791-12.560468 7.356632-26.676897 4.584046-36.309083-3.250651-11.281965-12.929747-16.999797-28.765816-16.999798-16.485801 0-36.795135 6.490324-54.327891 17.366082-21.992047 13.647345-30.918612 28.442448-26.545154 43.990082z"  /><path d="M343.980164 505.209263c-5.185871 2.250604-12.35986-1.972148-16.017716-9.429583-3.663844-7.454441-2.425263-15.330058 2.758612-17.579664 5.185871-2.250604 12.356865 1.969154 16.02071 9.426588 3.657856 7.462425 2.422269 15.330058-2.761606 17.582659z" fill="#F8EDD2" /><path d="M340.983018 518.498308c-9.722012 0-19.3023-6.723867-24.40733-17.133536-3.749676-7.630097-4.438331-15.988772-1.88931-22.921232 2.00708-5.455345 5.90846-9.677099 10.985544-11.876803a20.05483 20.05483 0 0 1 8.049279-1.654768c9.716023 0 19.296312 6.718877 24.404335 17.118565 3.749676 7.650058 4.437333 16.003743 1.88931 22.931213-2.005084 5.455345-5.90347 9.672109-10.976561 11.881793a20.1217 20.1217 0 0 1-8.055267 1.654768z"  /><path d="M366.56106 592.834121c-5.186869 2.250604-12.357864-1.967158-16.014721-9.429583-3.663844-7.454441-2.429255-15.330058 2.75462-17.577669 5.185871-2.2526 12.356865 1.967158 16.021708 9.429583 3.65586 7.455439 2.424265 15.328062-2.761607 17.577669z" fill="#F8EDD2" /><path d="M363.559922 606.123166c-9.72301 0-19.301302-6.723867-24.404335-17.133536-3.748678-7.630097-4.438331-15.988772-1.887314-22.921232 2.005084-5.460335 5.907462-9.677099 10.983548-11.876803a20.05483 20.05483 0 0 1 8.049278-1.654768c9.716023 0 19.29731 6.723867 24.40733 17.123555 3.750674 7.655049 4.435337 16.013723 1.88432 22.940195-2.008078 5.455345-5.90846 9.667119-10.983548 11.871813a20.119704 20.119704 0 0 1-8.049279 1.650776z"  /><path d="M460.122324 647.767828c-3.034074 4.551111-11.496546 4.698823-18.892102 0.333349-7.39855-4.36747-10.932647-11.597349-7.898573-16.142471 3.037068-4.553107 11.495548-4.701817 18.895096-0.333349 7.394558 4.36747 10.932647 11.594355 7.895579 16.142471z" fill="#F8EDD2" /><path d="M452.034121 663.965193c-5.727813 0-11.853848-1.753575-17.251306-4.940351-7.658043-4.519173-13.007595-11.296936-14.674339-18.59069-1.26453-5.524211-0.314386-11.039439 2.671781-15.5137 3.883415-5.82662 10.677146-9.161107 18.642589-9.161107 5.727813 0 11.856842 1.753575 17.256296 4.945341 7.664031 4.528156 13.011587 11.306916 14.673341 18.600671 1.25954 5.524211 0.3074 11.034448-2.680764 15.508709-3.879423 5.811649-10.674152 9.151127-18.637598 9.151127z"  /><path d="M575.454066 648.101177c-7.394558 4.365474-15.853037 4.216764-18.890105-0.333349-3.034074-4.548117 0.501021-11.775002 7.895579-16.142471 7.397552-4.368468 15.859025-4.219758 18.899088 0.333349 3.029084 4.545123-0.50701 11.775002-7.904562 16.142471z" fill="#F8EDD2" /><path d="M564.652164 663.965193c-7.96145 0-14.754183-3.339478-18.637599-9.151127-2.989162-4.484242-3.93731-9.988491-2.67777-15.5137 1.664749-7.293754 7.011306-14.066526 14.668351-18.59568 5.400452-3.190768 11.529481-4.945341 17.260289-4.945341 7.962448 0 14.758175 3.334487 18.642588 9.156117 2.989162 4.484242 3.935314 9.993481 2.670784 15.52368-1.669739 7.288764-7.01929 14.066526-14.678331 18.5857-5.394464 3.181786-11.520499 4.940351-17.248312 4.940351z"  /><path d="M666.140943 583.405536c-3.659852 7.462425-10.82885 11.679189-16.016717 9.429583-5.184873-2.250604-6.417466-10.123228-2.758612-17.577669 3.661848-7.462425 10.831844-11.682183 16.018713-9.429583 5.182877 2.24761 6.421458 10.123228 2.756616 17.577669z" fill="#F8EDD2" /><path d="M653.125365 606.123166c-2.810511 0-5.518222-0.554916-8.046285-1.649778-5.077084-2.204694-8.978464-6.421458-10.985544-11.876803-2.550019-6.931462-1.863361-15.285146 1.886316-22.930215 5.107025-10.404678 14.686316-17.128546 24.406331-17.128545 2.810511 0 5.518222 0.554916 8.046285 1.649777 5.081076 2.204694 8.981458 6.426448 10.988538 11.881794 2.549021 6.936452 1.85837 15.290136-1.895298 22.931212-5.099041 10.39869-14.679329 17.122558-24.400343 17.122558z"  /><path d="M694.427696 495.77968c-3.661848 7.457435-10.82885 11.679189-16.016717 9.429583-5.184873-2.2526-6.42046-10.120234-2.764601-17.582659 3.667836-7.457435 10.836834-11.677193 16.021708-9.426588 5.185871 2.249606 6.418464 10.125224 2.75961 17.579664z" fill="#F8EDD2" /><path d="M681.409123 518.498308c-2.809513 0-5.516226-0.554916-8.044289-1.649778-5.085068-2.209684-8.983454-6.431439-10.988538-11.881793-2.549021-6.931462-1.863361-15.285146 1.880328-22.926222 5.121996-10.409669 14.701287-17.128546 24.413318-17.128546 2.811509 0 5.518222 0.554916 8.046284 1.649778 5.076086 2.204694 8.976468 6.421458 10.983548 11.876803 2.552016 6.931462 1.864359 15.290136-1.885318 22.930214-5.111018 10.405676-14.690308 17.129544-24.405333 17.129544z"  /><path d="M513.474121 577.923244c-0.786464 0-1.50506-0.017965-2.279548-0.017965-0.769497 0-1.491088 0.017965-2.277552 0.017965v-0.043915c-100.163368-0.923197-95.372725-31.850791-95.372725-65.790502 0-34.46269 29.032296-36.914901 48.01023-32.001498 18.107634 4.696827 46.891415 4.358487 49.513295 4.314574v-0.007985s0.098807 0 0.126752 0.007985c0.032936-0.007984 0.131743-0.007984 0.131743-0.007985v0.007985c2.626869 0.043914 31.406659 0.382253 49.511298-4.314574 18.97494-4.913404 48.00524-2.461193 48.00524 32.001498 0 33.939712 4.795634 64.868304-95.369731 65.790502v0.043915z" fill="#1A1A1A" /><path d="M513.475119 590.604476l-2.279548-0.014971-14.961778 0.014971v-0.332351c-88.516117-3.414331-95.637209-34.193216-95.39069-73.816827l0.018963-4.370464c0-28.747852 17.599626-46.609965 45.932289-46.609965 5.850573 0 12.055454 0.807423 17.940959 2.333443 13.151314 3.404351 33.701177 3.874433 41.688577 3.924335l1.003041-0.847345 4.909411 0.837365c0.58386 0.009981 1.288483 0.009981 2.161778 0.00998 6.570168 0 29.100164-0.282448 43.159704-3.924335 5.887501-1.526019 12.091384-2.333442 17.942955-2.333443 28.330667 0 45.929294 17.862113 45.929294 46.609965l0.018963 4.375454c0.246519 39.61862-6.874573 70.397505-95.387696 73.811837v0.292429l-12.686222 0.039922z m-66.681762-99.759158c-18.226402 0-20.563836 11.351828-20.563837 21.241512l-0.018962 4.528156c-0.179649 28.791766-0.297419 47.813614 82.824233 48.582113l2.16078 0.019961 2.161778-0.019961c83.120655-0.767501 83.000889-19.789349 82.82124-48.577122l-0.018963-4.533147c0-9.889684-2.337435-21.241513-20.560842-21.241512-3.736702 0-7.740881 0.529965-11.579384 1.521029-16.500772 4.275649-40.128624 4.736749-49.523275 4.736749-1.012023 0-1.834417-0.00499-2.436242-0.009981l-1.026994 0.1537-0.869302-0.1537c-0.55292 0.00499-1.3314 0.009981-2.263579 0.009981-9.394651 0-33.023501-0.461099-49.528265-4.736749-3.836507-0.991064-7.841684-1.521029-11.578386-1.521029z"  /><path d="M469.199595 571.573645l-32.299915-3.894394 27.902503-85.113762 32.300913 3.894394z" fill="#F8EDD2" /><path d="M493.950253 487.104624h32.119267v87.858401h-32.119267z" fill="#F8EDD2" /><path d="M548.719283 571.93494l-28.046223-83.889154 32.235041-4.206784 28.047221 83.889154z" fill="#F8EDD2" /><path d="M507.867072 739.345965l-44.678737 107.419197-149.245505-15.210293s58.937887-85.554901 193.924242-92.208904z" fill="#C90505" /><path d="M471.279532 860.342643l-179.935563-18.342175 12.153263-17.63855c2.552016-3.705762 64.100803-90.801653 203.74506-97.683212l20.041856-0.986074L471.279532 860.342643z m-131.533099-38.905013l115.350705 11.753044 33.067416-79.504717c-77.774097 9.033357-125.850199 45.60393-148.418121 67.751673z"  /><path d="M514.522074 739.345965l44.678737 107.419197 149.245505-15.210293s-58.937887-85.554901-193.924242-92.208904z" fill="#C90505" /><path d="M551.108616 860.342643l-56.004616-134.651009 20.041856 0.986074c139.644257 6.882558 201.195041 93.97745 203.747056 97.683212l12.154261 17.63855-179.938557 18.343173zM534.226589 753.695938l33.064421 79.494736 115.237926-11.743064c-22.702659-22.142752-70.939446-58.713326-148.302347-67.751672z"  /><path d="M600.077973 63.197567s1.994105-28.255813-44.771556-46.160842c0 0-2.982175 12.733131-49.647033 5.272702-46.66386-7.458433-75.920717 4.682854-75.920717 4.682854l35.627415 33.823937s-89.95331-11.923712-147.65561 36.629458c-57.70729 48.554168-89.357474 46.580023-89.357474 46.580024l88.569014 14.498682s-26.162901 9.847766-27.952406 58.999766c0 0 81.02375-46.881435 165.628507-38.326144 40.712483 4.116959 115.024343 38.974877 115.024343 38.974877s7.536281-37.476803 17.421973-41.054815c40.222441-14.559563 149.03791 53.91869 154.314604 73.916632 0 0 4.17784-35.617435-17.615594-70.13901-21.788444-34.525567-42.482027-43.081856-42.482028-43.081856s108.094877 31.203057 124.112593 52.790893c0 0-29.468444-59.888031-63.125708-82.738401-30.822799-20.926129-59.502784-46.544094-142.170323-44.668757z" fill="#FFE477" /><path d="M746.164647 318.959033l-16.978838-64.342331c-6.947431-14.180304-87.095891-66.830472-129.000047-66.830472-2.893349 0-5.400452 0.282448-7.476397 0.837365-3.095953 4.206784-7.988398 18.808265-10.650199 32.052397l-3.185778 15.845053-14.635415-6.862597c-0.723587-0.342331-72.836741-33.989614-110.914371-37.840093a198.190908 198.190908 0 0 0-19.829271-0.981084c-72.23791 0-137.520405 37.290168-138.171134 37.666433l-19.862207 11.490557 0.834371-22.931212c0.851337-23.386324 6.869583-39.351142 13.763119-50.083182l-63.753482-10.43961 2.837458-25.17483c0.921201-0.014971 29.155057-0.510004 80.400967-43.626792 38.816187-32.662207 90.760733-39.821224 122.80315-40.777356L406.855361 22.762542l18.020803-7.481388c0.794448-0.332351 19.810308-8.076226 50.921544-8.076226 10.423641 0 21.144702 0.867306 31.865762 2.580959 9.06729 1.452164 16.959875 2.184733 23.459181 2.184733 7.028273 0 10.848811-0.862316 12.691213-1.481107L546.27306 0l13.568499 5.192858c34.408795 13.174269 46.50517 32.359797 50.714948 45.227664 71.896577 0.406207 103.244351 22.227587 130.930277 41.505934 2.63685 1.833419 5.253739 3.656858 7.885598 5.445365 36.019649 24.457232 66.11986 85.06386 67.383392 87.634838l-21.567875 13.155306c-5.485287-7.392561-33.076398-19.705513-65.574924-31.378714a201.009404 201.009404 0 0 1 4.859508 7.342659c23.9103 37.879018 19.677567 76.749099 19.485942 78.384905l-7.793778 66.448218zM600.185762 162.417778c33.736109 0 90.879501 27.905497 125.220429 54.091353-2.347415-9.012398-6.181926-19.011867-12.387805-28.846659-18.928031-29.991423-36.584546-38.117552-36.762199-38.196398l8.523353-23.842433c15.694347 4.533146 53.036413 15.816109 84.28538 29.114137-9.833793-13.952749-21.700616-28.069177-33.942706-36.37795a864.289934 864.289934 0 0 1-8.133115-5.614035c-27.160951-18.917053-55.397801-38.330136-126.62269-36.86899l-13.921809 0.31738 0.980086-13.887875c-0.014971-0.391236-0.311392-16.939914-29.541302-30.432561-5.449357 3.096951-13.839969 5.465326-26.760733 5.465325-7.835696 0-17.075649-0.842355-27.464359-2.502113-9.401637-1.501068-18.775329-2.264577-27.860584-2.264577-7.763836 0-14.594495 0.554916-20.348258 1.337388l46.995213 44.612865-38.742332-5.132974c-0.07685-0.009981-9.248936-1.184686-23.23961-1.184686-27.283712 0-78.44878 4.538136-114.584202 34.945746-17.547727 14.765162-32.899743 25.155867-45.958238 32.463595l85.886253 14.056546-44.414253 16.722339c-0.329357 0.15869-10.921669 5.147945-16.487798 25.012148 27.047173-12.179212 75.572398-29.93653 128.591844-29.93653 7.582191 0 15.113481 0.376265 22.380289 1.109832 31.689107 3.205739 80.862066 23.227634 104.952016 33.737107 5.622019-20.096749 12.965676-31.893708 21.900226-35.124397 5.07908-1.837411 10.952608-2.773583 17.456904-2.773583z"  /><path d="M510.552827 901.661942m-20.913154 0a20.913154 20.913154 0 1 0 41.826308 0 20.913154 20.913154 0 1 0-41.826308 0Z" fill="#FFFFFF" /></svg>