<?xml version="1.0" standalone="no"?><!DOCTYPE svg PUBLIC "-//W3C//DTD SVG 1.1//EN" "http://www.w3.org/Graphics/SVG/1.1/DTD/svg11.dtd"><svg t="1649682357877" class="icon" viewBox="0 0 1275 1024" version="1.1" xmlns="http://www.w3.org/2000/svg" p-id="817" xmlns:xlink="http://www.w3.org/1999/xlink" width="249.0234375" height="200"><defs><style type="text/css">@font-face { font-family: "feedback-iconfont"; src: url("//at.alicdn.com/t/font_1031158_u69w8yhxdu.woff2?t=1630033759944") format("woff2"), url("//at.alicdn.com/t/font_1031158_u69w8yhxdu.woff?t=1630033759944") format("woff"), url("//at.alicdn.com/t/font_1031158_u69w8yhxdu.ttf?t=1630033759944") format("truetype"); }
</style></defs><path d="M269.547925 1019.098502c-77.380989-12.533181-149.246613-64.37251-190.055211-137.086652-24.967475-44.496142-29.793818-66.764948-45.663652-210.808807-19.528667-177.228558-18.957672-169.786484-14.992606-195.350472 7.23473-46.636576 10.631991-52.614479 97.739034-171.952437C146.32146 263.142573 174.966908 222.081971 180.23027 212.655769c14.683185-26.29767 26.138174-39.688938 44.138871-51.603276 31.484474-20.839723 37.522985-21.356489 204.846854-17.53497 132.113572 3.014471 149.843127 2.848595 156.443064-1.473741 15.369017-10.070566 15.196761-15.362637-1.1707-36.113042a8542.758473 8542.758473 0 0 1-36.620239-46.923669c-25.213098-32.546716-27.280164-42.945843-10.316189-51.861659 9.314556-4.896521 16.530146 0.165876 39.806965 27.943667a39335.304187 39335.304187 0 0 0 40.968095 48.796149l20.925851 24.871778 17.704035-2.520034c9.742004-1.384424 32.623274-2.194662 50.847266-1.795923l33.14323 0.720921 13.078656-15.101064C785.197891 54.078651 801.852444 38.278995 808.634206 38.278995c6.762623 0 17.550919 8.836068 17.55092 14.386523 0 2.232941-23.898853 38.582037-40.79903 62.043871-3.610985 5.020928-2.264841 7.480354 11.100909 20.287868 18.511084 17.742314 14.794832 17.260637 149.664492 19.40745 86.918839 1.384424 97.946379 2.169143 116.071483 8.274643 34.744568 11.706993 68.857533 38.390642 91.304974 71.422226 11.359292 16.718351 25.92126 49.469222 29.911845 67.275334 5.907725 26.364658 54.528429 449.19125 54.528429 474.193814-0.00319 60.401065-17.678516 91.365582-104.632444 183.327678-44.480193 47.041695-53.34816 53.893635-78.353914 60.550991-23.599001 6.284135-746.472308 5.958764-785.437135-0.350891z m775.506926-211.84553c17.91138-1.735314 33.876911-5.269742 41.612458-9.215668 16.600324-8.469228 38.119499-32.199015 46.148519-50.895114 12.022794-27.988325 11.148757-45.150075-11.292304-222.400963-11.553877-91.231605-22.603747-171.617496-24.559165-178.635311-13.499726-48.499487-53.549125-89.891841-100.115523-103.484074-8.561735-2.497704-92.000375-5.180424-253.598344-8.150236-389.440929-7.154982-388.180912-7.158172-405.508537 0.622034-21.021548 9.442152-38.451251 26.444406-49.029013 47.839174-15.365827 31.069785-14.673615 48.907796 9.234808 238.618497 11.496458 91.231605 23.069475 173.158225 25.717105 182.061282 10.590522 35.621795 42.894804 72.822599 77.869046 89.662166 22.46977 10.820196 11.649574 10.383177 333.741801 13.486966 138.601862 1.339765 258.462966 2.628491 266.358009 2.867735 7.895043 0.239244 27.43328-0.829378 43.42114-2.376488z m-460.566492-226.515954c-5.741849-3.595036-11.866489-9.770714-13.617752-13.72302-1.748074-3.949116-8.124717-45.759349-14.163229-92.909502-9.697345-75.645675-10.478875-86.941168-6.660545-96.080278 5.821597-13.930364 16.469538-20.753595 32.3936-20.753595 16.657743 0 28.734766 9.059362 33.184699 24.894107 4.469073 15.901733 22.358123 150.48749 22.358123 168.217044 0 28.549751-29.589663 45.34466-53.494896 30.358434z m329.422654 0.156306c-16.491867-10.392747-74.471785-71.527493-79.62031-83.958597-6.175678-14.912859-6.261806-31.372827-0.239244-45.784868 8.089628-19.359602 57.887411-80.063709 68.800114-83.869279 22.776002-7.939702 46.148519 8.631913 46.148519 32.715782 0 11.703803-2.66996 17.107521-19.139498 38.738343-10.526724 13.825097-20.380375 27.155757-21.895585 29.624752-2.003267 3.256905 4.663658 12.019605 24.37096 32.02676 30.240406 30.706134 34.208662 36.757405 34.208663 52.145561 0 12.826653-6.708394 23.200261-19.174587 29.647082-12.300317 6.360693-21.908345 5.990663-33.459032-1.285536z" fill="#FDD6A7" p-id="818"></path><path d="M268.565431 1018.900727c-59.42814-10.038667-125.682701-49.826492-162.503905-97.592298-27.283354-35.395311-43.086199-67.099889-53.635252-107.595876-6.516999-25.015323-33.886481-273.790514-34.071496-309.705781-0.296662-56.238224 7.974791-74.143224 78.711184-170.437227 54.0946-73.632837 71.23083-98.354689 86.11817-124.231289C201.826003 176.938276 225.906681 157.262872 256.150277 149.71872c12.290747-3.06551 29.267482-2.781607 86.127739 1.451412 112.367991 8.357581 143.415446 11.729322 155.348923 16.858708 6.982727 2.998521 17.168129 12.737336 27.184467 25.985058 8.810549 11.652764 19.576516 22.986537 23.924372 25.187579 6.829611 3.454679 3.135688 4.038434-27.184467 4.293627l-100.546161 0.845328-65.457082 0.548665-21.382009 10.526724c-33.270827 16.37384-53.080207 45.414838-58.365898 85.575884-2.899634 22.000853 41.089312 365.36344 49.781834 388.595601 13.301951 35.561187 41.889981 67.166877 75.706283 83.712973 17.89543 8.75632 19.171397 8.899866 99.499868 11.177466 44.754525 1.269587 171.805701 3.990585 282.3363 6.051271 220.263719 4.102232 248.153157 5.183614 245.464057 9.54104-0.998444 1.610908-5.359059 2.928343-9.697345 2.928343-14.995796 0-12.172721 8.727611 14.303584 44.20586 14.220647 19.05656 25.857461 36.128992 25.857462 37.940864 0 4.746595 10.057806 6.619076 47.848744 8.906246 26.584762 1.610908 36.393755 0.976114 47.548892-3.078269 25.209908-9.15506 22.782382-5.094296-31.23566 52.250829-29.860806 31.707768-43.031971 43.287164-57.073982 50.180573l-18.252701 8.963664-376.410121 0.504007c-310.12366 0.414689-381.076968-0.283903-402.911945-3.971446z m314.254602-441.57692c-11.209366-8.816929-14.144089-20.163461-18.131484-70.127119-1.88843-23.685128-5.627012-60.161821-8.306542-81.062153-5.73228-44.716246-3.607795-54.148829 13.841047-61.437787 14.207887-5.936434 30.948568-0.899556 37.146575 11.180657 2.398817 4.679607 6.769002 26.450786 9.710105 48.38146 2.941103 21.930674 8.890297 59.220796 13.222203 82.864455 4.328716 23.643659 7.005056 46.933238 5.946004 51.750012-4.727456 21.519175-35.857849 32.272383-53.427908 18.450475z m296.754721-30.412661c-46.713134-48.01781-52.158321-59.396241-42.090945-87.933233 5.461137-15.477474 44.173961-68.104712 59.715233-81.183369 12.472573-10.494825 28.95487-9.059362 39.838864 3.470629 12.839413 14.775692 9.91745 26.061616-15.152102 58.499875-12.281178 15.892163-22.329414 30.285065-22.329414 31.98848 0 1.703415 13.614563 15.662489 30.249976 31.025126 39.414606 36.384185 44.977819 52.726126 24.823928 72.883207-6.453201 6.453201-11.250835 8.092818-23.653229 8.092817h-15.560411zM589.665593 146.449056c-3.180347-1.968178-2.322259-4.510542 3.662024-10.880804 9.467672-10.080135 10.947793-7.183691-32.699832-63.996101-30.262736-39.395466-35.302803-50.145484-27.273784-58.174503 11.234885-11.234885 25.624597 1.119661 83.617276 71.789066 10.373608 12.644828 20.469693 23.60538 22.434681 24.358201 1.968178 0.75601 12.077023-0.095697 22.46977-1.882051 21.787128-3.754531 72.171856 1.167509 88.77537 8.670193 5.579164 2.520034 15.643349 9.569749 22.367693 15.662489l12.220569 11.081769-13.815527 1.783163c-23.117323 2.982572-177.321066 4.328716-181.75824 1.585388z" fill="#FDAEB0" p-id="819"></path><path d="M285.497507 1020.463786C196.007595 1007.37556 116.546781 950.084664 75.776461 869.252185c-19.0438-37.752659-23.911612-62.49684-39.376326-200.071549-19.914647-177.16795-19.649884-202.400188 2.577452-246.421032 6.09912-12.083403 115.880089-162.472006 125.950654-172.542571 5.73228-5.73228 11.400761-2.829456 9.033843 4.625378-0.956975 3.024041-0.516766 12.070643 0.985684 20.106043 2.201042 11.780361 10.67665 25.031273 43.752892 68.404564C241.262938 372.933112 262.785303 403.604157 266.517505 411.4992c10.431026 22.042321 16.096318 50.939773 30.007542 153.115981 16.498247 121.15302 19.82214 138.525304 30.86882 161.224748 13.818717 28.399825 41.877221 56.579545 70.334464 70.643886l23.752117 11.738892 62.796691 2.68272c41.022323 1.754454 66.66606 4.252158 73.958209 7.202831 6.140589 2.488135 14.45989 5.438807 18.488755 6.561657 4.366995 1.218548 18.405817 16.794909 34.760518 38.566088 25.331125 33.726985 26.996261 36.846723 21.71376 40.712902-12.000465 8.77227 89.977968 13.152025 306.231962 13.152024 184.40906 0 202.122665-0.462538 215.019497-5.614252 25.391734-10.150314 22.744103-5.70995-30.234027 50.726048-31.828985 33.90881-41.437012 42.138794-58.783777 50.343259l-20.734456 9.812182-370.030288 0.446589c-203.516658 0.245624-378.643062-0.813429-389.169785-2.350969z m637.236814-438.954809c-6.85194-1.320625-66.477855-62.433041-77.888185-79.830844-6.963587-10.612851-10.28748-29.608803-7.445265-42.543914 2.494515-11.356102 44.288798-68.289728 59.571687-81.15147 8.296972-6.979537 12.325836-8.249123 21.547884-6.781762 14.574727 2.319069 25.694776 14.8682 25.694776 28.996339 0 8.338441-4.890142 17.002254-22.329414 39.567722-12.281178 15.892163-22.329414 30.779502-22.329414 33.085811 0 2.30312 11.588966 15.64016 25.752194 29.634323 34.259701 33.854581 40.974475 47.925302 31.411105 65.798403-2.803936 5.237843-22.555898 16.680072-25.959538 15.037265-0.494437-0.239244-4.105422-1.052672-8.02583-1.811873z m-334.628597-4.676417c-3.748152-1.811872-8.462848-6.922118-10.482065-11.346532-2.016027-4.427604-8.730801-46.10705-14.922428-92.622409-12.663968-95.171152-12.338596-99.869899 7.521823-108.170061 14.309964-5.977903 30.932618-0.899556 37.290121 11.391191 4.319147 8.357581 24.090248 150.959598 24.090248 173.780259 0 15.439195-2.606162 20.664278-12.989339 26.032907-10.357658 5.359059-20.721696 5.674861-30.50836 0.934645z m16.188825-442.642352c5.974713-6.603127 14.549208-5.588733 14.549209 1.722555 0 2.858165-3.588656 4.443553-10.064186 4.443553-9.745194 0-9.88874-0.194585-4.485023-6.166108z" fill="#FD98B6" p-id="820"></path><path d="M532.716018 1021.720613c-141.074047-0.504007-246.720884-2.118104-250.408428-3.827899-3.508908-1.626857-16.351511-5.31759-28.540181-8.207655-81.250357-19.247955-155.001222-85.193094-185.184209-165.585364-12.660778-33.723795-15.732667-53.408768-32.195825-206.298265-15.171242-140.866703-15.263749-142.356394-10.27791-167.662 2.765657-14.042011 8.842448-33.586628 13.499725-43.43071 10.220492-21.608493 121.229578-177.394434 126.662006-177.761274 1.097331-0.073368 1.355714 12.424724 0.574185 27.777791-1.084572 21.391579 4.615809 80.40822 24.399669 252.61904 14.195127 123.586926 28.058504 233.399794 30.801832 244.028595 16.38979 63.479334 66.69158 119.031726 123.373202 136.247704 21.659532 6.580797 26.316809 6.660545 408.44326 7.068854 362.135245 0.38279 387.418522 0.057418 400.586496-5.205943 25.391734-10.143934 22.744103-5.70357-30.234027 50.729238-31.828985 33.90881-41.437012 42.138794-58.783777 50.343259l-20.734456 9.812182-133.976483 0.111647c-73.687066 0.063798-243.789351-0.277523-378.005079-0.7592z m54.962258-446.103411c-3.885318-2.720999-8.529836-7.687698-10.32257-11.03711-1.792733-3.349412-8.357581-44.384495-14.584297-91.186947-12.743716-95.745337-12.424724-100.393045 7.451645-108.696397 14.309964-5.981093 30.932618-0.902746 37.290121 11.388001 4.510542 8.727611 24.179565 152.066499 23.98817 174.839311-0.108457 13.212633-4.121372 20.220879-14.83949 25.93083-9.601648 5.113436-20.58453 4.644518-28.983579-1.237688z m332.61257 2.035167c-3.508908-1.51202-22.393212-19.168207-41.963349-39.235971-43.516838-44.620549-50.623971-61.916275-36.684037-89.266617 7.850384-15.397726 46.052821-64.094988 57.093121-72.781129 17.780593-13.984593 45.478636 0.529526 45.478637 23.828674 0 8.338441-4.890142 17.002254-22.329414 39.567722-12.281178 15.892163-22.329414 30.779502-22.329414 33.085811 0 2.30312 11.588966 15.64016 25.752194 29.634323 27.43328 27.107909 34.856215 37.889826 34.856215 50.630351 0 17.046913-23.579861 31.557842-39.873953 24.536836z" fill="#FDCF6B" p-id="821"></path><path d="M532.716018 1021.720613c-141.074047-0.504007-246.720884-2.118104-250.408428-3.827899-3.508908-1.626857-16.351511-5.31759-28.540181-8.207655-81.250357-19.247955-155.001222-85.193094-185.184209-165.585364-12.660778-33.723795-15.732667-53.408768-32.195825-206.298265-15.171242-140.866703-15.263749-142.356394-10.27791-167.662 2.765657-14.042011 8.842448-33.586628 13.499725-43.43071 10.220492-21.608493 121.229578-177.394434 126.662006-177.761274 1.097331-0.073368 1.355714 12.424724 0.574185 27.777791-1.084572 21.391579 4.615809 80.40822 24.399669 252.61904 14.195127 123.586926 28.058504 233.399794 30.801832 244.028595 16.236674 62.886009 66.235422 118.524529 122.234402 136.01803 20.514352 6.405352 29.232393 6.583987 406.943999 8.36077 278.033103 1.307866 389.498347 0.826188 398.560899-1.722555 6.918928-1.945849 13.158405-2.960242 13.866566-2.25527 0.704971 0.708161-17.601958 21.420288-40.687382 46.030492-32.7732 34.929583-45.950744 46.693994-60.120352 53.654391L1044.69758 1022.368166l-133.976483 0.111647c-73.687066 0.063798-243.789351-0.277523-378.005079-0.7592z m53.140815-447.704749c-4.58072-3.604605-9.697345-11.860109-11.365671-18.342018-4.319147-16.76939-10.66708-79.865934-9.371974-93.135986l1.090951-11.164707 22.329414-2.054306c17.586008-1.617288 23.114133-1.065432 26.023337 2.602972 4.402084 5.547264 13.515675 53.220563 16.125027 84.366905 2.086205 24.874967-1.384424 35.012521-13.939934 40.735231-11.598536 5.282501-21.582974 4.309577-30.89115-3.011281z m334.434013 3.636505c-3.508908-1.51202-22.412352-19.187346-42.004818-39.277439-38.205627-39.175362-46.08472-53.303501-39.456074-70.742774 3.716252-9.770714 3.961876-9.793043 30.699754-3.078269 19.152257 4.810394 23.043955 7.419745 51.207726 34.2916 31.720527 30.265926 39.427365 40.875587 39.427365 54.270046 0 17.046913-23.579861 31.557842-39.873953 24.536836z" fill="#FD668F" p-id="822"></path><path d="M726.503432 1021.669575c-27.631055-0.583755-50.241181-2.229751-50.241182-3.658834 0-4.312767-30.696564-9.799423-82.67625-14.769313-70.328084-6.730723-68.369476-6.140589-85.052737-25.672446-8.245934-9.649497-14.054771-19.44892-13.493346-22.756862 1.378044-8.080058 11.212556-15.040455 28.106352-19.892318 7.895043-2.264841 15.924062-5.397338 17.841202-6.957208 8.848828-7.196451 79.492714-9.15825 331.47696-9.212478 165.821418-0.031899 272.141327-1.250447 278.90395-3.189916 6.012992-1.722555 11.525168-2.542363 12.249278-1.818253 0.727301 0.727301-17.566869 21.452187-40.652293 46.062392-32.7732 34.929583-45.950744 46.693994-60.120352 53.654391L1044.69758 1022.368166l-133.976483 0.178636c-73.687066 0.098887-156.58342-0.293472-184.217665-0.877227zM91.576116 527.637671c-59.721613-64.978595-59.938527-65.262497-57.826802-77.122605 4.028864-22.664355 15.353067-43.134048 52.20617-94.389623C138.640141 282.849876 163.961697 249.100562 166.373273 248.947446c1.14837-0.073368 1.320625 11.05944 0.38279 24.740991s-0.082938 39.159412 1.90119 56.621014c5.103866 44.97463 9.601648 98.823606 11.997275 143.657879 3.244145 60.694537-7.582431 116.9838-22.753672 118.326754-4.5552 0.401929-23.509683-18.074066-66.32474-64.656413z m494.280717 46.375003c-4.58072-3.604605-9.697345-11.856919-11.365671-18.342018-4.319147-16.7662-10.66708-79.862744-9.371974-93.132796l1.090951-11.164707 22.329414-2.054306c17.586008-1.617288 23.114133-1.065432 26.023337 2.602972 4.402084 5.547264 13.515675 53.220563 16.125027 84.366905 2.086205 24.874967-1.384424 35.012521-13.939934 40.735231-11.598536 5.282501-21.582974 4.309577-30.89115-3.011281z m337.623929-2.150003c-20.262348-5.027308-78.912149-62.927478-84.405185-83.326993-3.585466-13.32428-0.156306-29.187734 6.316034-29.187734 1.875671 0 12.737336 2.344588 24.138097 5.205943 19.152257 4.810394 23.043955 7.419745 51.207726 34.2916 16.7662 15.99743 32.495677 32.961405 34.955102 37.698431 12.94468 24.929196-3.116548 42.537534-32.211774 35.318753z" fill="#FC9262" p-id="823"></path><path d="M726.503432 1021.809931c-27.631055-0.660313-50.241181-2.370108-50.241182-3.79919 0-4.312767-30.696564-9.799423-82.67625-14.769313-70.328084-6.730723-68.369476-6.140589-85.052737-25.672446-8.245934-9.649497-14.054771-19.44892-13.493346-22.756862 1.378044-8.080058 11.212556-15.040455 28.106352-19.892318 7.895043-2.264841 15.924062-5.397338 17.841202-6.957208 6.944448-5.649342 65.348625-9.15506 153.355225-9.212478 49.421373-0.031899 92.284278 0.877227 95.24771 2.016027 5.843927 2.242511-0.845328 4.848673-40.40029 15.739047-11.943047 3.288804-22.731343 8.325681-24.74737 11.553877-2.647631 4.242589-2.638061 5.7259 0.031899 5.725899 2.618921 0 2.65401 1.14837 0.127597 4.19474-2.67634 3.221815 0.491247 8.118337 13.636892 21.101297 17.120281 16.906556 17.12666 16.909746 43.765651 19.614795 14.651285 1.486501 53.632062 4.338286 86.625367 6.331984 50.630351 3.06232 89.572849 7.981171 72.395149 9.13911-4.252158 0.287092-4.252158 0.669882 0 3.4164 3.250525 2.102155-6.46596 3.110168-30.304204 3.151637-19.298993 0.031899-57.338745 0.558235-84.532782 1.16751-27.194036 0.606084-72.053829 0.564615-99.684883-0.095698zM91.576116 527.637671c-59.629105-64.873327-59.932147-65.281637-57.88422-77.122605 3.390881-19.573326 15.585931-43.335013 39.197691-76.372976 26.635801-37.267792 50.27627-62.688235 56.190375-60.417014 6.532949 2.504084 13.34023-4.56158 17.735935-18.424957 2.188283-6.890219 7.971601-20.527111 12.848982-30.304204l8.871158-17.777404-1.741695 25.672447c-0.956975 14.118569-0.121217 39.956891 1.862911 57.418493 5.103866 44.97463 9.601648 98.823606 11.997275 143.657879 3.244145 60.694537-7.582431 116.9838-22.753672 118.326754-4.5552 0.401929-23.509683-18.074066-66.32474-64.656413z m491.932939 43.602966c-16.727921-16.731111-11.681473-23.860574 19.05656-26.922893 22.291135-2.220182 29.104796 0.586945 28.93573 11.914337-0.121217 8.207655-5.461137 15.6274-14.83949 20.622809-11.80269 6.284135-23.181122 4.357426-33.1528-5.614253z m339.971707 0.622034c-14.338674-3.556757-69.371109-52.18384-64.532006-57.019754 2.762467-2.762467 84.896432 17.436082 94.038731 23.126893 9.16144 5.69719 9.569749 21.059827 0.797479 29.835287-6.124639 6.124639-16.421689 7.499493-30.304204 4.057574z" fill="#FB7573" p-id="824"></path></svg>