<?xml version="1.0" standalone="no"?><!DOCTYPE svg PUBLIC "-//W3C//DTD SVG 1.1//EN" "http://www.w3.org/Graphics/SVG/1.1/DTD/svg11.dtd"><svg t="1649681363219" class="icon" viewBox="0 0 1024 1024" version="1.1" xmlns="http://www.w3.org/2000/svg" p-id="126609" xmlns:xlink="http://www.w3.org/1999/xlink" width="200" height="200"><defs><style type="text/css">@font-face { font-family: "feedback-iconfont"; src: url("//at.alicdn.com/t/font_1031158_u69w8yhxdu.woff2?t=1630033759944") format("woff2"), url("//at.alicdn.com/t/font_1031158_u69w8yhxdu.woff?t=1630033759944") format("woff"), url("//at.alicdn.com/t/font_1031158_u69w8yhxdu.ttf?t=1630033759944") format("truetype"); }
</style></defs><path d="M199.111111 449.422222v-73.955555l-19.911111 19.911111c-5.688889 5.688889-14.222222 5.688889-19.911111 0L99.555556 334.222222c-5.688889-5.688889-5.688889-14.222222 0-19.911111l59.733333-59.733333c5.688889-5.688889 14.222222-5.688889 19.911111 0l19.911111 19.911111v-73.955556c-25.6-11.377778-58.311111-7.111111-79.644444 14.222223l-59.733334 59.733333c-28.444444 28.444444-28.444444 72.533333 0 100.977778l59.733334 59.733333c21.333333 21.333333 54.044444 27.022222 79.644444 14.222222zM824.888889 200.533333v73.955556l19.911111-19.911111c5.688889-5.688889 14.222222-5.688889 19.911111 0l59.733333 59.733333c5.688889 5.688889 5.688889 14.222222 0 19.911111l-59.733333 59.733334c-5.688889 5.688889-14.222222 5.688889-19.911111 0L824.888889 375.466667v73.955555c25.6 11.377778 58.311111 7.111111 79.644444-14.222222l59.733334-59.733333c28.444444-28.444444 28.444444-72.533333 0-100.977778l-59.733334-59.733333c-21.333333-22.755556-54.044444-27.022222-79.644444-14.222223z" fill="#EB1D5F" p-id="126610"></path><path d="M348.444444 598.755556h-85.333333c-11.377778 0-21.333333-9.955556-21.333333-21.333334s9.955556-21.333333 21.333333-21.333333h85.333333c11.377778 0 21.333333 9.955556 21.333334 21.333333s-9.955556 21.333333-21.333334 21.333334zM348.444444 668.444444h-85.333333c-11.377778 0-21.333333-9.955556-21.333333-21.333333s9.955556-21.333333 21.333333-21.333333h85.333333c11.377778 0 21.333333 9.955556 21.333334 21.333333s-9.955556 21.333333-21.333334 21.333333zM760.888889 598.755556h-85.333333c-11.377778 0-21.333333-9.955556-21.333334-21.333334s9.955556-21.333333 21.333334-21.333333h85.333333c11.377778 0 21.333333 9.955556 21.333333 21.333333s-9.955556 21.333333-21.333333 21.333334zM760.888889 668.444444h-85.333333c-11.377778 0-21.333333-9.955556-21.333334-21.333333s9.955556-21.333333 21.333334-21.333333h85.333333c11.377778 0 21.333333 9.955556 21.333333 21.333333s-9.955556 21.333333-21.333333 21.333333z" fill="#404042" p-id="126611"></path><path d="M142.222222 256v440.888889c0 93.866667 76.8 170.666667 170.666667 170.666667h398.222222c93.866667 0 170.666667-76.8 170.666667-170.666667V256c0-55.466667-44.088889-99.555556-99.555556-99.555556H241.777778c-55.466667 0-99.555556 44.088889-99.555556 99.555556z m568.888889 554.666667H312.888889c-62.577778 0-113.777778-51.2-113.777778-113.777778V256c0-24.177778 18.488889-42.666667 42.666667-42.666667h540.444444c24.177778 0 42.666667 18.488889 42.666667 42.666667v440.888889c0 62.577778-51.2 113.777778-113.777778 113.777778z" fill="#404042" p-id="126612"></path><path d="M355.555556 337.066667c-35.555556 0-64 28.444444-64 64s28.444444 64 64 64 64-28.444444 64-64-28.444444-64-64-64z m0 85.333333c-11.377778 0-21.333333-9.955556-21.333334-21.333333s9.955556-21.333333 21.333334-21.333334 21.333333 9.955556 21.333333 21.333334-9.955556 21.333333-21.333333 21.333333zM668.444444 337.066667c-35.555556 0-64 28.444444-64 64s28.444444 64 64 64 64-28.444444 64-64-28.444444-64-64-64z m0 85.333333c-11.377778 0-21.333333-9.955556-21.333333-21.333333s9.955556-21.333333 21.333333-21.333334 21.333333 9.955556 21.333334 21.333334-9.955556 21.333333-21.333334 21.333333zM452.266667 628.622222l22.755555 31.288889c18.488889 25.6 56.888889 25.6 75.377778 0l22.755556-31.288889c22.755556-31.288889 0-73.955556-36.977778-73.955555h-45.511111c-39.822222 0-61.155556 42.666667-38.4 73.955555z m39.822222-31.288889h41.244444c2.844444 0 5.688889 4.266667 4.266667 7.111111l-19.911111 31.288889c-1.422222 2.844444-5.688889 2.844444-7.111111 0l-19.911111-31.288889c-4.266667-2.844444-2.844444-7.111111 1.422222-7.111111z" fill="#404042" p-id="126613"></path></svg>