<?xml version="1.0" standalone="no"?><!DOCTYPE svg PUBLIC "-//W3C//DTD SVG 1.1//EN" "http://www.w3.org/Graphics/SVG/1.1/DTD/svg11.dtd"><svg class="icon" width="200px" height="95.84px" viewBox="0 0 2137 1024" version="1.1" xmlns="http://www.w3.org/2000/svg"><path d="M982.96968663 164.38571167c-117.89520611 0-219.20992287 92.96781943-264.02256454 226.14049157v8.25247591c3.55026416-0.26438103 7.10052833-0.41545611 10.70744548-0.41545678 104.8649816 0 189.8635914 111.73889664 189.86359072 249.57601208 0 52.02647663-12.12377408 100.33272948-32.83994264 140.31096888 0.15107507-2.5682762 0.24549716-5.1365524 0.24549715-7.74259704a129.28248939 129.28248939 0 0 0-0.98198796-15.88176699c-18.88438316 49.6092755-57.72956021 83.69558714-102.74993061 83.69558783a89.13428969 89.13428969 0 0 1-28.13773159-4.58890511 90.26735272 90.26735272 0 0 0 10.55637041 13.55898727h379.9537954c76.08518063-68.32369904 126.07214379-183.17851918 126.0721438-313.48076564C1271.63637225 334.34516284 1142.39165196 164.38571167 982.96968663 164.38571167z" fill="#93CEC7" /><path d="M1683.48589078 857.29150929c-6.94945325-231.48477202-151.88709635-416.34400222-329.68356597-416.34400221s-322.71522883 184.87811407-329.70245052 416.34400222z" fill="#93CEC7" /><path d="M773.39079918 859.61428833a108.0375574 108.0375574 0 0 1-45.32251985-10.15979816c-35.88032862-16.46718203-64.94339451-52.02647663-79.97536404-97.53784067-24.02093556-72.74264519 1.68071033-157.741255 57.276335-189.44813462a70.68424718 70.68424718 0 0 1 66.09534208-3.15369193c23.60547946 10.85852054 42.81089732 34.27515582 52.70631377 64.2069037 15.86288242 48.04187182-1.18971601 104.20402764-37.97649505 125.20346181-3.77687677 2.09616644-8.12028472 0.30215014-9.93318556-4.00348869a9.44219192 9.44219192 0 0 1 3.41807364-11.63278046c30.02616996-17.12813597 43.77400073-63.47041291 30.63046957-103.27869336-8.38466642-25.41838031-24.54969832-45.2092139-44.28387892-54.292602a57.91840371 57.91840371 0 0 0-54.17929604 2.60604463c-48.83501559 27.85446531-71.23189448 103.01431164-49.9303102 167.54225003 13.54010271 40.97911192 39.65720539 72.91260482 71.55292918 87.62353899 28.76091574 13.21906868 60.01457083 11.72720185 88.00122667-4.23010199 78.20023163-44.6049136 114.1372139-164.80401422 80.08867068-267.93163182-21.56596601-65.3021983-63.16826275-116.23338034-114.15609845-139.7444377-46.05901134-21.18827833-96.08374294-18.88438316-140.87750006 6.76060908-77.23712821 44.05726631-131.26534919 135.87313885-144.54107153 245.59140659-0.56653117 4.75886473-4.32452407 8.06363173-8.38466576 7.38379391s-6.89280027-5.07989943-6.30738453-9.83876347c13.95555949-115.45912042 71.06193485-212.20381663 152.73689378-258.71605318 48.57063456-27.70339026 102.84435203-30.21501347 152.81243064-7.30825638 54.76471178 25.24842068 99.53958501 79.78651987 122.5785333 149.62097028 36.76789448 111.41786261-2.45496956 241.38018916-87.43469548 289.85640094a109.69938318 109.69938318 0 0 1-54.59475283 14.88089447z" fill="#07998B" /><path d="M1038.79192459 692.80852909a107.99978899 107.99978899 0 0 1-45.32252054-10.15979817c-35.88032862-16.46718203-64.94339451-52.02647663-79.97536403-97.53784067-24.02093556-72.74264519 1.68071033-157.741255 57.27633499-189.44813461a70.70313174 70.70313174 0 0 1 66.09534208-3.15369192c23.60547946 10.85852054 42.81089732 34.27515582 52.70631446 64.20690369 15.86288242 48.04187182-1.17083147 104.20402764-37.97649506 125.20346247-3.77687677 2.09616644-8.12028472 0.30215014-9.93318623-4.00348936a9.44219192 9.44219192 0 0 1 3.41807363-11.63278045c30.04505385-17.12813597 43.77400073-63.47041291 30.63047025-103.27869267-8.38466642-25.41838031-24.54969832-45.2092139-44.2838796-54.29260268a57.88063528 57.88063528 0 0 0-54.17929604 2.60604463c-48.83501559 27.85446531-71.23189448 103.01431164-49.93030953 167.54225003 13.52121884 40.97911192 39.65720539 72.91260482 71.55292851 87.62353965 28.76091574 13.21906868 60.03345471 11.7460864 88.02011123-4.23010197 78.20023163-44.6049136 114.11832934-164.80401422 80.06978612-267.95051706-21.56596601-65.3021983-63.16826275-116.23338034-114.15609777-139.7444377-46.05901134-21.18827833-96.08374294-18.88438316-140.87750074 6.76060976-52.98958004 30.21501347-96.31035555 84.37542497-121.93646391 152.47251207-1.66182578 4.40006161-6.04300283 6.38292141-9.78211048 4.4567139a9.32888528 9.32888528 0 0 1-3.77687678-11.46282014c27.06132154-71.76065724 72.87483572-129.05587679 129.01810768-161.10267565 48.58951845-27.70339026 102.84435203-30.21501347 152.81243065-7.30825638 54.76471178 25.24842068 99.52070047 79.76763598 122.5785333 149.62097028 36.76789448 111.41786261-2.45496956 241.38018916-87.43469548 289.85640163a109.69938318 109.69938318 0 0 1-54.61363671 14.95643132z" fill="#07998B" /><path d="M1641.44925336 857.02712757a7.91255665 7.91255665 0 0 1-7.34602549-7.55375285c-22.98229462-189.46701917-145.40975286-327.0019838-291.29161412-327.00198379-62.77169052 0-122.74849224 25.64499293-173.30198728 74.14008925a6.70395609 6.70395609 0 0 1-10.44306375-1.2274851 9.74434207 9.74434207 0 0 1 1.03864094-12.23708074c53.29173018-50.98783501 116.47887682-78.08692565 182.70641009-78.08692497 74.32893344 0 146.18401207 35.01164663 202.36505249 98.57648161 55.38789661 62.67726845 92.19356021 149.18662894 103.63749647 243.36304894 0.56653117 4.75886473-2.2472415 9.15892566-6.30738386 9.83876415a6.51511259 6.51511259 0 0 1-1.05752549 0.18884351zM340.0508522 854.55327346c-38.35418272 0-75.70749295-17.60024506-105.16713107-49.55262184a9.76322594 9.76322594 0 0 1-0.39657222-12.29373371 6.68507153 6.68507153 0 0 1 10.48083285-0.47210977c26.70251842 28.96864447 60.43002694 44.92594831 95.06398588 44.92594831 68.22927763 0 131.24646463-70.43875002 146.56170044-163.82202625 0.7742599-4.72109561 4.66444264-7.7992507 8.68681588-6.89280027s6.66618767 5.4575871 5.89192776 10.17868272c-16.59937323 101.50356094-85.88617568 177.92866082-161.12155953 177.92866081z" fill="#07998B" /><path d="M997.11409029 795.5206906c10.93405808 0 10.95294263-16.99594478 0-16.99594478s-10.95294263 16.99594478 0 16.99594478zM1244.59393526 605.54379323c10.93405808 0 10.95294263-16.99594478 0-16.99594478s-10.95294263 16.99594478 0 16.99594478zM1333.67157198 779.903306c10.93405808 0 10.95294263-16.99594478 0-16.99594544s-10.95294263 16.99594478 0 16.99594544zM1583.07762376 772.10405531c10.93405808 0 10.95294263-16.99594478 0-16.99594478s-10.95294263 16.99594478 0 16.99594478z" fill="#098475" /><path d="M1018.88778436 787.57036551c7.28937183 0 7.30825638-11.33063031 0-11.33063031s-7.30825638 11.33063031 0 11.33063031zM1377.23784464 659.96858645c7.28937183 0 7.30825638-11.33063031 0-11.33063032s-7.30825638 11.33063031 0 11.33063032zM1309.91501745 805.69937332c7.28937183 0 7.30825638-11.33063031 0-11.33062963s-7.30825638 11.33063031 0 11.33062964zM1569.27314002 816.1235532c7.28937183 0 7.30825638-11.33063031 0-11.3306303s-7.30825638 11.33063031 0 11.3306303z" fill="#FFFFFF" /></svg>