<svg xmlns="http://www.w3.org/2000/svg" xmlns:xlink="http://www.w3.org/1999/xlink" viewBox="0 0 459 801.47"><defs><style>.cls-1{fill:none;}.cls-2{clip-path:url(#clip-path);}.cls-3{fill:#e5e52e;}.cls-4{fill:#e4e42e;}.cls-5{fill:#e4e32f;}.cls-6{fill:#e3e22f;}.cls-7{fill:#e2e12f;}.cls-8{fill:#e2e030;}.cls-9{fill:#e1df30;}.cls-10{fill:#e0de30;}.cls-11{fill:#e0dd31;}.cls-12{fill:#dfdc31;}.cls-13{fill:#dedb31;}.cls-14{fill:#deda32;}.cls-15{fill:#ddd932;}.cls-16{fill:#dcd832;}.cls-17{fill:#dcd733;}.cls-18{fill:#dbd633;}.cls-19{fill:#dad533;}.cls-20{fill:#dad434;}.cls-21{fill:#d9d334;}.cls-22{fill:#d8d135;}.cls-23{fill:#d8d035;}.cls-24{fill:#d7cf35;}.cls-25{fill:#d7ce36;}.cls-26{fill:#d6cd36;}.cls-27{fill:#d5cc36;}.cls-28{fill:#d5cb37;}.cls-29{fill:#d4ca37;}.cls-30{fill:#d3c937;}.cls-31{fill:#d3c838;}.cls-32{fill:#d2c738;}.cls-33{fill:#d1c638;}.cls-34{fill:#d1c539;}.cls-35{fill:#d0c439;}.cls-36{fill:#cfc339;}.cls-37{fill:#cfc23a;}.cls-38{fill:#cec13a;}.cls-39{fill:#cdc03a;}.cls-40{fill:#cdbf3b;}.cls-41{fill:#ccbe3b;}.cls-42{fill:#1a1b23;}.cls-43{fill:#d6d354;}.cls-44{fill:#ccc78d;}.cls-45{fill:#efefef;}.cls-46{fill:#fff;}.cls-47{fill:#e8e8e8;}.cls-48{clip-path:url(#clip-path-2);}.cls-49{fill:#d9d235;}.cls-50{opacity:0.7;}.cls-51{fill:#3636ff;}.cls-52{fill:#1d1dbc;}.cls-53{fill:#c0c0ff;}</style><clipPath id="clip-path"><path class="cls-1" d="M347.75,754.77c-.06,21.93-53.71,39.7-119.88,39.7S108.05,776.7,108,754.77l.53-3.81,43.77-570.22H303.45L347.22,751Z"/></clipPath><clipPath id="clip-path-2"><path class="cls-1" d="M323,72.48c0,32.56-42.3,44.63-94.48,44.63S134.05,105,134.05,72.48,176.35,7,228.52,7,323,39.91,323,72.48Z"/></clipPath></defs><g id="图层_2" data-name="图层 2"><g id="图层_1-2" data-name="图层 1"><g class="cls-2"><rect class="cls-3" x="107.99" y="180.74" width="239.77" height="58.01"/><rect class="cls-3" x="107.99" y="238.74" width="239.77" height="11.9"/><rect class="cls-4" x="107.99" y="250.65" width="239.77" height="11.9"/><rect class="cls-5" x="107.99" y="262.55" width="239.77" height="11.9"/><rect class="cls-6" x="107.99" y="274.45" width="239.77" height="11.9"/><rect class="cls-7" x="107.99" y="286.36" width="239.77" height="11.9"/><rect class="cls-8" x="107.99" y="298.26" width="239.77" height="11.9"/><rect class="cls-9" x="107.99" y="310.16" width="239.77" height="11.9"/><rect class="cls-10" x="107.99" y="322.06" width="239.77" height="11.9"/><rect class="cls-11" x="107.99" y="333.97" width="239.77" height="11.9"/><rect class="cls-12" x="107.99" y="345.87" width="239.77" height="11.9"/><rect class="cls-13" x="107.99" y="357.77" width="239.77" height="11.9"/><rect class="cls-14" x="107.99" y="369.68" width="239.77" height="11.9"/><rect class="cls-15" x="107.99" y="381.58" width="239.77" height="11.9"/><rect class="cls-16" x="107.99" y="393.48" width="239.77" height="11.9"/><rect class="cls-17" x="107.99" y="405.39" width="239.77" height="11.9"/><rect class="cls-18" x="107.99" y="417.29" width="239.77" height="11.9"/><rect class="cls-19" x="107.99" y="429.19" width="239.77" height="11.9"/><rect class="cls-20" x="107.99" y="441.1" width="239.77" height="11.9"/><rect class="cls-21" x="107.99" y="453" width="239.77" height="11.9"/><rect class="cls-22" x="107.99" y="464.9" width="239.77" height="11.9"/><rect class="cls-23" x="107.99" y="476.81" width="239.77" height="11.9"/><rect class="cls-24" x="107.99" y="488.71" width="239.77" height="11.9"/><rect class="cls-25" x="107.99" y="500.61" width="239.77" height="11.9"/><rect class="cls-26" x="107.99" y="512.51" width="239.77" height="11.9"/><rect class="cls-27" x="107.99" y="524.42" width="239.77" height="11.9"/><rect class="cls-28" x="107.99" y="536.32" width="239.77" height="11.9"/><rect class="cls-29" x="107.99" y="548.22" width="239.77" height="11.9"/><rect class="cls-30" x="107.99" y="560.13" width="239.77" height="11.9"/><rect class="cls-31" x="107.99" y="572.03" width="239.77" height="11.9"/><rect class="cls-32" x="107.99" y="583.93" width="239.77" height="11.9"/><rect class="cls-33" x="107.99" y="595.84" width="239.77" height="11.9"/><rect class="cls-34" x="107.99" y="607.74" width="239.77" height="11.9"/><rect class="cls-35" x="107.99" y="619.64" width="239.77" height="11.9"/><rect class="cls-36" x="107.99" y="631.55" width="239.77" height="11.9"/><rect class="cls-37" x="107.99" y="643.45" width="239.77" height="11.9"/><rect class="cls-38" x="107.99" y="655.35" width="239.77" height="11.9"/><rect class="cls-39" x="107.99" y="667.25" width="239.77" height="11.9"/><rect class="cls-40" x="107.99" y="679.16" width="239.77" height="11.9"/><rect class="cls-41" x="107.99" y="691.06" width="239.77" height="11.9"/><rect class="cls-41" x="107.99" y="702.96" width="239.77" height="91.51"/></g><path class="cls-42" d="M227.87,801.47c-32.73,0-63.6-4.25-86.93-12-33-10.92-39.92-24.9-39.95-34.7v-.5l.57-4.09,44.25-576.46H309.93L354.18,750.2l.57,4.09v.5c0,9.8-7,23.78-39.95,34.7C291.47,797.22,260.6,801.47,227.87,801.47ZM115,755.16c.89,13.63,43.69,32.31,112.87,32.31s112-18.68,112.87-32.31l-.5-3.67L297,187.74H158.78l-43.29,564Z"/><path class="cls-43" d="M227.87,778.18c-27.62,0-54.09-3.27-74.51-9.21-14-4.08-21.88-8.46-25.85-11.52a3.44,3.44,0,0,1,0-5.44c4-3.06,11.84-7.44,25.86-11.52,20.42-5.94,46.88-9.22,74.5-9.22s54.08,3.28,74.5,9.22c14,4.08,21.89,8.46,25.86,11.52a3.44,3.44,0,0,1,0,5.44c-4,3.06-11.83,7.44-25.85,11.52C282,774.91,255.5,778.18,227.87,778.18Z"/><circle class="cls-44" cx="182.92" cy="253.42" r="7.82"/><circle class="cls-44" cx="203.76" cy="252.77" r="3.26"/><circle class="cls-44" cx="270.22" cy="249.51" r="3.26"/><circle class="cls-44" cx="243.51" cy="275.57" r="3.26"/><circle class="cls-44" cx="257.19" cy="303.59" r="3.26"/><circle class="cls-44" cx="207.02" cy="303.59" r="3.26"/><circle class="cls-44" cx="163.37" cy="278.83" r="3.26"/><circle class="cls-44" cx="301.49" cy="291.21" r="3.26"/><circle class="cls-44" cx="182.92" cy="339.42" r="3.26"/><circle class="cls-44" cx="210.28" cy="325.74" r="3.26"/><circle class="cls-44" cx="293.68" cy="339.42" r="3.26"/><circle class="cls-44" cx="220.05" cy="385.68" r="3.26"/><circle class="cls-44" cx="263.71" cy="379.82" r="3.26"/><circle class="cls-44" cx="293.68" cy="245.6" r="3.26"/><circle class="cls-44" cx="160.11" cy="364.83" r="3.26"/><circle class="cls-44" cx="234.39" cy="306.19" r="7.82"/><circle class="cls-44" cx="268.92" cy="275.57" r="7.82"/><circle class="cls-44" cx="171.19" cy="311.4" r="7.82"/><circle class="cls-44" cx="210.28" cy="352.45" r="7.82"/><circle class="cls-44" cx="182.92" cy="385.68" r="7.82"/><circle class="cls-44" cx="226.57" cy="412.39" r="7.82"/><circle class="cls-44" cx="257.19" cy="337.47" r="7.82"/><circle class="cls-44" cx="245.46" cy="360.27" r="7.82"/><circle class="cls-44" cx="278.04" cy="311.4" r="7.82"/><circle class="cls-44" cx="207.02" cy="283.39" r="7.82"/><circle class="cls-44" cx="290.42" cy="374.6" r="7.82"/><circle class="cls-44" cx="229.83" cy="257.33" r="7.82"/><path class="cls-45" d="M452,143.17c0,45-99.61,81.44-222.5,81.44S7,188.15,7,143.17C7,114.67,47,89.6,107.53,75q6.61-1.59,13.55-3c32.08-6.57,69.05-10.31,108.42-10.31C352.39,61.73,452,98.19,452,143.17Z"/><path class="cls-42" d="M229.5,231.61c-60.23,0-117-8.62-159.74-24.28C24.77,190.87,0,168.08,0,143.17c0-31.44,38.6-58.76,105.9-74.94,4.53-1.08,9.16-2.11,13.77-3C153.07,58.34,191,54.73,229.5,54.73c60.23,0,117,8.62,159.74,24.28,45,16.46,69.76,39.25,69.76,64.16s-24.78,47.7-69.76,64.16C346.46,223,289.73,231.61,229.5,231.61Zm0-162.88c-37.53,0-74.53,3.51-107,10.16-4.46.92-8.94,1.91-13.32,3C50.47,96,14,119.46,14,143.17c0,18.33,22.08,36.93,60.57,51,41.28,15.1,96.3,23.42,154.93,23.42s113.65-8.32,154.93-23.42c38.49-14.09,60.57-32.69,60.57-51s-22.08-36.92-60.57-51C343.15,77.05,288.13,68.73,229.5,68.73Z"/><path class="cls-46" d="M442.88,134.7c0,37.07-96.11,67.11-214.68,67.11s-214.68-30-214.68-67.11c0-23.48,38.58-44.15,97-56.14q6.39-1.31,13.07-2.47c31-5.42,66.63-8.5,104.62-8.5C346.77,67.59,442.88,97.64,442.88,134.7Z"/><path class="cls-42" d="M228.2,208.81c-58,0-112.69-7.09-153.9-20C30,175,6.52,156.25,6.52,134.7c0-26.65,37.39-49.61,102.59-63,4.36-.89,8.82-1.73,13.27-2.51,32.17-5.62,68.76-8.6,105.82-8.6,58,0,112.68,7.1,153.89,20,44.35,13.86,67.79,32.58,67.79,54.13S426.44,175,382.09,188.84C340.88,201.72,286.23,208.81,228.2,208.81Zm0-134.22c-36.26,0-72,2.9-103.41,8.39-4.32.76-8.65,1.58-12.87,2.44-55.52,11.4-91.4,30.74-91.4,49.28,0,28.43,85.29,60.11,207.68,60.11s207.68-31.68,207.68-60.11S350.59,74.59,228.2,74.59Z"/><path class="cls-47" d="M196.55,133.06c-2.15.08-4.32.13-6.51.13-49.66,0-89.92-22.32-89.92-49.85a28,28,0,0,1,.2-3.3q6.62-1.59,13.55-3a28.3,28.3,0,0,0-.71,6.3C113.16,109.66,149.93,131.21,196.55,133.06Z"/><path class="cls-47" d="M264.36,132.62c2.15.08,4.32.13,6.51.13,49.66,0,89.91-22.32,89.91-49.85a28,28,0,0,0-.19-3.3c-4.41-1-8.93-2.06-13.55-3a28.3,28.3,0,0,1,.71,6.3C347.75,109.22,311,130.77,264.36,132.62Z"/><path class="cls-42" d="M228.2,208.81c-58,0-112.69-7.09-153.9-20C30,175,6.52,156.25,6.52,134.7c0-26.65,37.39-49.61,102.59-63,4.36-.89,8.82-1.73,13.27-2.51,32.17-5.62,68.76-8.6,105.82-8.6,58,0,112.68,7.1,153.89,20,44.35,13.86,67.79,32.58,67.79,54.13S426.44,175,382.09,188.84C340.88,201.72,286.23,208.81,228.2,208.81Zm0-134.22c-36.26,0-72,2.9-103.41,8.39-4.32.76-8.65,1.58-12.87,2.44-55.52,11.4-91.4,30.74-91.4,49.28,0,28.43,85.29,60.11,207.68,60.11s207.68-31.68,207.68-60.11S350.59,74.59,228.2,74.59Z"/><g class="cls-48"><polygon class="cls-3" points="323 63.47 262.57 7 323 7 323 63.47"/><polygon class="cls-3" points="323 66.76 259.05 7 262.57 7 323 63.47 323 66.76"/><polygon class="cls-4" points="323 70.05 255.52 7 259.05 7 323 66.76 323 70.05"/><polygon class="cls-5" points="323 73.34 252 7 255.52 7 323 70.05 323 73.34"/><polygon class="cls-6" points="323 76.63 248.48 7 252 7 323 73.34 323 76.63"/><polygon class="cls-7" points="323 79.92 244.96 7 248.48 7 323 76.63 323 79.92"/><polygon class="cls-8" points="323 83.21 241.44 7 244.96 7 323 79.92 323 83.21"/><polygon class="cls-9" points="323 86.5 237.91 7 241.44 7 323 83.21 323 86.5"/><polygon class="cls-10" points="323 89.79 234.39 7 237.91 7 323 86.5 323 89.79"/><polygon class="cls-11" points="323 93.08 230.87 7 234.39 7 323 89.79 323 93.08"/><polygon class="cls-12" points="323 96.38 227.35 7 230.87 7 323 93.08 323 96.38"/><polygon class="cls-13" points="323 99.67 223.82 7 227.35 7 323 96.38 323 99.67"/><polygon class="cls-14" points="323 102.96 220.3 7 223.82 7 323 99.67 323 102.96"/><polygon class="cls-15" points="323 106.25 216.78 7 220.3 7 323 102.96 323 106.25"/><polygon class="cls-16" points="323 107.97 322.21 108.81 213.26 7 216.78 7 323 106.25 323 107.97"/><polygon class="cls-17" points="322.21 108.81 320.57 110.57 209.74 7 213.26 7 322.21 108.81"/><polygon class="cls-18" points="320.57 110.57 318.93 112.33 206.21 7 209.74 7 320.57 110.57"/><polygon class="cls-19" points="318.93 112.33 317.29 114.08 202.69 7 206.21 7 318.93 112.33"/><polygon class="cls-20" points="317.29 114.08 315.65 115.84 199.17 7 202.69 7 317.29 114.08"/><polygon class="cls-21" points="315.65 115.84 314.46 117.11 313.49 117.11 195.65 7 199.17 7 315.65 115.84"/><polygon class="cls-49" points="309.96 117.11 192.13 7 195.65 7 313.49 117.11 309.96 117.11"/><polygon class="cls-23" points="306.44 117.11 188.6 7 192.13 7 309.96 117.11 306.44 117.11"/><polygon class="cls-24" points="302.92 117.11 185.08 7 188.6 7 306.44 117.11 302.92 117.11"/><polygon class="cls-25" points="299.4 117.11 181.56 7 185.08 7 302.92 117.11 299.4 117.11"/><polygon class="cls-26" points="295.87 117.11 178.04 7 181.56 7 299.4 117.11 295.87 117.11"/><polygon class="cls-27" points="292.35 117.11 174.51 7 178.04 7 295.87 117.11 292.35 117.11"/><polygon class="cls-28" points="288.83 117.11 170.99 7 174.51 7 292.35 117.11 288.83 117.11"/><polygon class="cls-29" points="285.31 117.11 167.47 7 170.99 7 288.83 117.11 285.31 117.11"/><polygon class="cls-30" points="281.79 117.11 163.95 7 167.47 7 285.31 117.11 281.79 117.11"/><polygon class="cls-31" points="278.26 117.11 161.3 7.82 162.07 7 163.95 7 281.79 117.11 278.26 117.11"/><polygon class="cls-32" points="274.74 117.11 159.66 9.58 161.3 7.82 278.26 117.11 274.74 117.11"/><polygon class="cls-33" points="271.22 117.11 158.02 11.33 159.66 9.58 274.74 117.11 271.22 117.11"/><polygon class="cls-34" points="267.7 117.11 156.38 13.09 158.02 11.33 271.22 117.11 267.7 117.11"/><polygon class="cls-35" points="264.18 117.11 154.74 14.85 156.38 13.09 267.7 117.11 264.18 117.11"/><polygon class="cls-36" points="260.65 117.11 153.09 16.6 154.74 14.85 264.18 117.11 260.65 117.11"/><polygon class="cls-37" points="257.13 117.11 151.45 18.36 153.09 16.6 260.65 117.11 257.13 117.11"/><polygon class="cls-38" points="253.61 117.11 149.81 20.12 151.45 18.36 257.13 117.11 253.61 117.11"/><polygon class="cls-39" points="250.09 117.11 148.17 21.88 149.81 20.12 253.61 117.11 250.09 117.11"/><polygon class="cls-40" points="246.56 117.11 146.53 23.63 148.17 21.88 250.09 117.11 246.56 117.11"/><polygon class="cls-41" points="243.04 117.11 144.88 25.39 146.53 23.63 246.56 117.11 243.04 117.11"/><polygon class="cls-41" points="134.05 36.98 144.88 25.39 243.04 117.11 134.05 117.11 134.05 36.98"/></g><path class="cls-42" d="M228.52,124.11c-65.43,0-101.47-18.34-101.47-51.63,0-18.2,11.15-36.65,30.58-50.63C177.21,7.76,202.39,0,228.52,0s51.31,7.76,70.89,21.85S330,54.28,330,72.48C330,105.77,294,124.11,228.52,124.11Zm0-110.11C205.3,14,183,20.82,165.81,33.21c-15.74,11.32-24.76,25.63-24.76,39.27,0,34,61.17,37.63,87.47,37.63S316,106.44,316,72.48c0-13.64-9-27.95-24.76-39.27C274,20.82,251.75,14,228.52,14Z"/><g class="cls-50"><ellipse class="cls-46" cx="240.99" cy="25.5" rx="5.92" ry="17.48" transform="translate(191.69 262.77) rotate(-84.3)"/></g><g class="cls-50"><ellipse class="cls-46" cx="291.93" cy="50.95" rx="7.83" ry="23.11" transform="translate(49.48 221.35) rotate(-45)"/></g><path class="cls-51" d="M70.85,139.26a7.59,7.59,0,0,1-.35,2.28c-1.58,5-8.26,8.8-16.26,8.8s-14.69-3.77-16.27-8.8a7.92,7.92,0,0,1-.35-2.28c0-6.12,7.44-11.07,16.62-11.07S70.85,133.14,70.85,139.26Z"/><path class="cls-52" d="M70.5,141.54a11.55,11.55,0,0,1-5.91,6.38,23.36,23.36,0,0,1-20.71,0A11.55,11.55,0,0,1,38,141.54c1.58-5,8.27-8.79,16.27-8.79S68.92,136.52,70.5,141.54Z"/><path class="cls-53" d="M64.59,147.92a23.36,23.36,0,0,1-20.71,0,11,11,0,0,1,20.71,0Z"/><path class="cls-51" d="M108.31,159.46a6.31,6.31,0,0,1-.29,1.88c-1.29,4.13-6.8,7.24-13.39,7.24s-12.09-3.11-13.39-7.24a6.31,6.31,0,0,1-.29-1.88c0-5,6.13-9.12,13.68-9.12S108.31,154.42,108.31,159.46Z"/><path class="cls-52" d="M108,161.34a9.47,9.47,0,0,1-4.86,5.25,19.26,19.26,0,0,1-17,0,9.46,9.46,0,0,1-4.87-5.25c1.3-4.14,6.8-7.25,13.39-7.25S106.73,157.2,108,161.34Z"/><path class="cls-53" d="M103.16,166.59a19.26,19.26,0,0,1-17,0,9,9,0,0,1,17,0Z"/><path class="cls-51" d="M154.25,173.79a4.92,4.92,0,0,1-.23,1.48c-1,3.25-5.35,5.69-10.52,5.69S134,178.52,133,175.27a5.25,5.25,0,0,1-.22-1.48c0-4,4.81-7.16,10.75-7.16S154.25,169.83,154.25,173.79Z"/><path class="cls-52" d="M154,175.27a7.5,7.5,0,0,1-3.82,4.13,15.17,15.17,0,0,1-13.4,0,7.52,7.52,0,0,1-3.83-4.13c1-3.25,5.35-5.69,10.53-5.69S153,172,154,175.27Z"/><path class="cls-53" d="M150.2,179.4a15.17,15.17,0,0,1-13.4,0,7.1,7.1,0,0,1,13.4,0Z"/></g></g></svg>