<?xml version="1.0" standalone="no"?><!DOCTYPE svg PUBLIC "-//W3C//DTD SVG 1.1//EN" "http://www.w3.org/Graphics/SVG/1.1/DTD/svg11.dtd"><svg t="1649680303173" class="icon" viewBox="0 0 1062 1024" version="1.1" xmlns="http://www.w3.org/2000/svg" p-id="1695" xmlns:xlink="http://www.w3.org/1999/xlink" width="207.421875" height="200"><defs><style type="text/css">@font-face { font-family: "feedback-iconfont"; src: url("//at.alicdn.com/t/font_1031158_u69w8yhxdu.woff2?t=1630033759944") format("woff2"), url("//at.alicdn.com/t/font_1031158_u69w8yhxdu.woff?t=1630033759944") format("woff"), url("//at.alicdn.com/t/font_1031158_u69w8yhxdu.ttf?t=1630033759944") format("truetype"); }
</style></defs><path d="M686.03837 880.573598H368.51769l-37.269362-99.469543 401.391796-1.595538z" fill="#F2B1B1" p-id="1696"></path><path d="M686.03837 859.070389H368.51769a21.507509 21.507509 0 0 1 20.135604 13.955583l-37.273662-99.469543a21.503209 21.503209 0 0 1-20.049591 29.050835l401.391795-1.595538a21.507509 21.507509 0 0 1-19.615227-30.508753l-46.601754 101.065081a21.520411 21.520411 0 0 1 19.533515-12.497665z m46.51144-101.06508l-401.391795 1.595538a21.490307 21.490307 0 0 0-17.611128 9.289386 21.486006 21.486006 0 0 0-2.438464 19.761449l37.273662 99.469542a21.503209 21.503209 0 0 0 20.135605 13.955583h317.52068a21.503209 21.503209 0 0 0 19.529214-12.497665l46.601754-101.065081a21.507509 21.507509 0 0 0-19.619528-30.508752z" fill="#6E6E96" p-id="1697"></path><path d="M284.943319 230.015523C318.638847 127.376407 416.173101 55.908343 531.228169 55.908343c115.06797 0 212.597924 71.472365 246.289151 174.11148" fill="#9FDEFF" p-id="1698"></path><path d="M305.371367 236.720223C336.654235 141.430904 427.419279 77.411551 531.228169 77.411551c103.813191 0 194.578235 64.027954 225.861103 159.321574a21.494607 21.494607 0 0 0 27.14135 13.719047 21.503209 21.503209 0 0 0 13.723348-27.137049C760.856634 110.324362 653.67174 34.405134 531.228169 34.405134 408.788899 34.405134 301.604005 110.320062 264.51097 223.306522a21.503209 21.503209 0 1 0 40.860397 13.413701z" fill="#6E6E96" p-id="1699"></path><path d="M349.452945 264.420657C371.33461 161.781541 434.683063 90.313476 509.406713 90.313476c74.727951 0 138.072103 71.472365 159.953768 174.111481" fill="#C4EBFF" p-id="1700"></path><path d="M227.934012 374.155831V316.097168C227.934012 284.164903 266.639788 232.234654 313.946847 232.234654h447.26674c47.307059 0 86.012835 51.930249 86.012835 83.862514V374.155831" fill="#91CAE8" p-id="1701"></path><path d="M309.646205 378.456473V320.397809C309.646205 288.465544 348.351981 236.535296 395.65904 236.535296h228.402782c47.307059 0 86.012835 51.930249 86.012834 83.862513V378.456473" fill="#A0DDFF" p-id="1702"></path><path d="M249.437221 374.155831V316.097168C249.437221 295.565904 279.296576 253.737862 313.946847 253.737862h447.26674c34.654571 0 64.509626 41.828042 64.509626 62.359306V374.155831a21.503209 21.503209 0 1 0 43.006418 0V316.097168c0-41.449585-46.163088-105.365723-107.516044-105.365723H313.946847c-61.348654 0-107.516043 63.916137-107.516044 105.365723V374.155831a21.503209 21.503209 0 0 0 43.006418 0z" fill="#6E6E96" p-id="1703"></path><path d="M765.798071 343.7933H292.452239a226.015926 226.015926 0 0 0-87.001982 17.275678 223.770991 223.770991 0 0 0-70.939085 46.756577c-20.50546 20.002285-36.624265 43.298861-47.909149 69.236032a211.50126 211.50126 0 0 0-17.69284 84.916171v9.401202c0 29.373383 5.952088 57.955448 17.69284 84.911871 11.284884 25.93287 27.403689 49.225145 47.909149 69.244632a223.805396 223.805396 0 0 0 70.939085 46.752277 226.11054 226.11054 0 0 0 87.001982 17.275678h473.341532a226.028828 226.028828 0 0 0 86.997681-17.275678 223.90001 223.90001 0 0 0 70.943387-46.752277c20.50976-20.006585 36.628566-43.298861 47.909149-69.244632a211.406646 211.406646 0 0 0 17.69284-84.911871v-9.401202a211.527064 211.527064 0 0 0-17.69284-84.916171c-11.280583-25.928569-27.399389-49.225145-47.909149-69.236032s-44.36542-35.746934-70.943387-46.756577a225.689077 225.689077 0 0 0-86.993381-17.275678z" fill="#DADAF2" p-id="1704"></path><path d="M765.798071 322.290092H292.452239a247.347109 247.347109 0 0 0-95.237711 18.909921A245.050566 245.050566 0 0 0 119.48903 392.433558c-22.500958 21.950475-40.198098 47.539294-52.601149 76.043948a232.823842 232.823842 0 0 0-19.481907 93.495951v9.401203a232.823842 232.823842 0 0 0 19.481907 93.495951c12.39875 28.491752 30.100192 54.076269 52.60545 76.048248a245.239794 245.239794 0 0 0 77.725498 51.224944 247.390115 247.390115 0 0 0 95.23341 18.909921h473.341532a247.342808 247.342808 0 0 0 95.242012-18.914222 245.046265 245.046265 0 0 0 77.721197-51.220643c22.509559-21.959077 40.219602-47.556496 52.60545-76.056849a232.712025 232.712025 0 0 0 19.477606-93.48735v-9.401203a232.858247 232.858247 0 0 0-19.481907-93.500252c-12.394449-28.491752-30.095891-54.08057-52.601149-76.043947a245.222592 245.222592 0 0 0-77.729799-51.229245 247.192286 247.192286 0 0 0-95.22911-18.909921z m0 43.006417c27.261768 0 53.758022 5.263985 78.753352 15.632833a202.229076 202.229076 0 0 1 64.165575 42.28821c18.509962 18.049793 33.050432 39.049827 43.212848 62.423815a190.174378 190.174378 0 0 1 15.903773 76.336391v9.401202a190.032456 190.032456 0 0 1-15.899473 76.323489c-10.166717 23.382589-24.702886 44.378322-43.208547 62.441018a202.280684 202.280684 0 0 1-64.165575 42.279609 204.495515 204.495515 0 0 1-78.761953 15.637133H292.452239a204.568625 204.568625 0 0 1-78.766253-15.637133 202.237678 202.237678 0 0 1-64.156973-42.279609c-18.501361-18.054094-33.03753-39.058428-43.204247-62.432416a190.028156 190.028156 0 0 1-15.908074-76.332091v-9.401202a190.045358 190.045358 0 0 1 15.908074-76.332091c10.171018-23.382589 24.711487-44.378322 43.208547-62.428115a202.25488 202.25488 0 0 1 64.156974-42.28391 204.581527 204.581527 0 0 1 78.766253-15.637133h473.341531z" fill="#6E6E96" p-id="1705"></path><path d="M730.545711 380.830427H325.0253c-25.782347 0-50.86369 3.978094-74.534422 11.831065-22.763297 7.543326-43.212848 18.320734-60.776669 32.03118-17.568121 13.706145-31.377482 29.657225-41.045325 47.418876-10.0549 18.475557-15.155461 38.047777-15.155461 58.166179v6.442362c0 20.122703 5.104862 39.699224 15.155461 58.161879 9.667843 17.765951 23.477203 33.721332 41.045325 47.418875 17.568121 13.710446 38.013372 24.487854 60.776669 32.026879 23.675033 7.848671 48.752075 11.835366 74.534422 11.835366h405.51611c25.782347 0 50.859389-3.986695 74.530122-11.835366 22.771898-7.543326 43.217149-18.320734 60.780969-32.026879 17.572422-13.701845 31.381783-29.657225 41.041025-47.418875 10.063502-18.471256 15.155461-38.047777 15.155461-58.161879v-6.442362c0-20.122703-5.104862-39.699224-15.155461-58.166179-9.659241-17.765951-23.468602-33.721332-41.041025-47.418876-17.563821-13.710446-38.009072-24.487854-60.780969-32.03118-23.666431-7.852972-48.739173-11.831065-74.525821-11.831065z" fill="#F0F0FF" p-id="1706"></path><path d="M329.089406 570.802674c0 37.363975-30.263616 67.610389-67.601787 67.610389-37.338172 0-67.601787-30.242113-67.601788-67.610389 0-37.32957 30.263616-67.593186 67.601788-67.593186 37.338172 0 67.601787 30.263616 67.601787 67.593186z" fill="#9FDEFF" p-id="1707"></path><path d="M529.976682 569.490979m-81.29073 0a81.29073 81.29073 0 1 0 162.581461 0 81.29073 81.29073 0 1 0-162.581461 0Z" fill="#9FDEFF" p-id="1708"></path><path d="M798.306622 570.979001m-67.769512 0a67.769512 67.769512 0 1 0 135.539025 0 67.769512 67.769512 0 1 0-135.539025 0Z" fill="#9FDEFF" p-id="1709"></path><path d="M261.487619 481.70628c-49.130531 0-89.104996 39.970164-89.104996 89.096394 0 49.139132 39.970164 89.113597 89.104996 89.113598s89.104996-39.974465 89.104996-89.113598c0-49.126231-39.970164-89.096395-89.104996-89.096394z m0 135.203575c-25.416793 0-46.098579-20.686087-46.098579-46.107181 0-25.412492 20.681786-46.089977 46.098579-46.089977 25.421093 0 46.098579 20.677485 46.098579 46.089977 0 25.421093-20.681786 46.10718-46.098579 46.107181z m268.489063-150.212815c-56.682458 0-102.793939 46.120082-102.793938 102.793939s46.111481 102.785337 102.793938 102.785337c56.682458 0 102.793939-46.111481 102.793939-102.785337s-46.111481-102.793939-102.793939-102.793939z m0 162.585761c-32.96872 0-59.787521-26.818802-59.787521-59.783221 0-32.96872 26.818802-59.787521 59.787521-59.787521s59.787521 26.818802 59.787522 59.787521c0 32.955818-26.818802 59.783221-59.787522 59.783221z m268.32994-147.576521c-49.220845 0-89.272721 40.047576-89.272721 89.272721s40.047576 89.272721 89.272721 89.272721 89.272721-40.047576 89.272721-89.272721-40.047576-89.272721-89.272721-89.272721z m0 135.539025c-25.511407 0-46.266304-20.750596-46.266303-46.266304 0-25.511407 20.754897-46.266304 46.266303-46.266304 25.515707 0 46.266304 20.754897 46.266304 46.266304-0.004301 25.511407-20.759198 46.266304-46.266304 46.266304z" fill="#6E6E96" p-id="1710"></path><path d="M500.117327 122.155428c7.883076 10.429056-6.919733 27.360683-27.769244 43.135436-20.849511 15.770453-39.841145 24.401841-47.728522 13.977086-7.883076-10.424756 2.619091-31.661324 23.468602-47.431778s44.141787-20.1055 52.029164-9.680744z" fill="#FFFFFF" p-id="1711"></path><path d="M798.306622 509.552935c-43.660115 0-80.034943 31.532305-87.715889 73.016295h44.460035c6.601485-17.499311 23.477203-30.009878 43.264456-30.009878 19.782952 0 36.650069 12.501966 43.260155 30.009878h44.460034c-7.689547-41.48399-44.064375-73.016295-87.728791-73.016295z m-268.32994-15.01354c-51.663609 0-94.528105 38.310117-101.718778 88.021234h43.853644c6.601485-25.833955 30.005577-45.014817 57.865134-45.014817 27.863858 0 51.263649 19.180862 57.865135 45.014817h43.853644c-7.190673-49.702517-50.050869-88.021234-101.718779-88.021234z m-268.489063 15.01354c-43.634311 0-79.970433 31.545207-87.573968 73.016295H218.343581c6.545577-17.49071 23.39119-30.009878 43.144038-30.009878s36.598461 12.510567 43.144038 30.009878h44.42993c-7.603535-41.471088-43.943957-73.016295-87.573968-73.016295z" fill="#6E6E96" opacity=".15" p-id="1712"></path><path d="M560.614454 593.712193c0 8.31314-12.19662 15.052246-27.235964 15.052246-15.043645 0-27.235964-6.739106-27.235964-15.052246s12.192319-7.883076 27.235964-7.883076c15.039344 0 27.235964-0.430064 27.235964 7.883076zM825.972651 586.650539c0 7.453012-10.945133 13.512616-24.453449 13.512617-13.504015 0-24.449148-6.051003-24.449149-13.512617 0-7.461613 10.945133-7.078856 24.449149-7.078856 13.508316 0.004301 24.453449-0.378456 24.453449 7.078856zM286.96032 587.824614c0 7.457313-10.945133 13.516917-24.449148 13.516917s-24.449148-6.051003-24.449149-13.516917c0-7.457313 10.945133-7.074556 24.449149-7.074555s24.449148-0.387058 24.449148 7.074555z" fill="#FFFFFF" opacity=".52" p-id="1713"></path><path d="M355.981319 997.370426l79.561872-128.382757 36.555455 22.655781-79.561872 128.382757zM617.507644 868.987669l79.566172 128.382757-36.555454 22.655781-79.566173-128.382757z" fill="#6E6E96" p-id="1714"></path><path d="M606.4894 859.070389H418.641669l-12.901925-48.020965h213.651581z" fill="#FFC9C9" p-id="1715"></path></svg>