<?xml version="1.0" standalone="no"?><!DOCTYPE svg PUBLIC "-//W3C//DTD SVG 1.1//EN" "http://www.w3.org/Graphics/SVG/1.1/DTD/svg11.dtd"><svg t="1649684265561" class="icon" viewBox="0 0 1024 1024" version="1.1" xmlns="http://www.w3.org/2000/svg" p-id="7004" xmlns:xlink="http://www.w3.org/1999/xlink" width="200" height="200"><defs><style type="text/css">@font-face { font-family: "feedback-iconfont"; src: url("//at.alicdn.com/t/font_1031158_u69w8yhxdu.woff2?t=1630033759944") format("woff2"), url("//at.alicdn.com/t/font_1031158_u69w8yhxdu.woff?t=1630033759944") format("woff"), url("//at.alicdn.com/t/font_1031158_u69w8yhxdu.ttf?t=1630033759944") format("truetype"); }
</style></defs><path d="M465.184 524.464c-42.704-26.16-83.536-48.24-134.784-52.256-62.64-4.944-125.12 13.888-182.464 37.28L65.52 797.92C176 755.712 277.904 750.832 380.16 815.68l85.072-291.2-0.048-0.032" fill="#486DAE" p-id="7005"></path><path d="M354.976 412.656c52.048 6.4 93.376 28.384 127.072 49.6 27.888-96.272 55.504-192.592 83.616-288.752-40.16-25.552-81.184-47.68-129.28-52.48-63.28-7.552-129.216 11.424-187.104 35.104-28.224 96.48-55.84 193.12-83.744 289.68 59.744-23.424 124.768-41.12 189.44-33.152" fill="#F08E3C" p-id="7006"></path><path d="M516.896 558.96c-0.224 0.256-0.576 0.48-0.816 0.64L432.32 849.504c106.16 70.336 226.352 69.696 341.792 20.96l81.216-283.328-0.736 0.192c-61.216 20.48-114.88 29.024-162.24 29.024-77.52 0-130.272-27.296-175.472-57.376z" fill="#FDC606" p-id="7007"></path><path d="M957.872 228.512c-116.608 47.328-231.504 52.288-339.744-19.648-4.96 17.088-9.504 30-12.4 40.032l-28.688 99.28c-14.656 50.816-29.344 101.648-44.032 152.464 105.824 68.4 225.92 72.064 340.624 20.544l84.992-292-0.16-0.16c-0.24-0.16-0.416-0.336-0.592-0.528z" fill="#B6CA19" p-id="7008"></path></svg>