<?xml version="1.0" standalone="no"?><!DOCTYPE svg PUBLIC "-//W3C//DTD SVG 1.1//EN" "http://www.w3.org/Graphics/SVG/1.1/DTD/svg11.dtd"><svg class="icon" width="200px" height="200.00px" viewBox="0 0 1024 1024" version="1.1" xmlns="http://www.w3.org/2000/svg"><path d="M228.8 758.4c1.9-13.4 5.8-28.7 9.6-46C248 658.8 259.5 586 273 492.2c19.2-126.4 51.8-214.5 96-264.3 44.2-49.8 78.7-80.4 99.8-93.8 25-15.3 48-23 69.1-26.8 21.1-5.7 36.5-7.7 49.9-5.7 13.4 1.9 38.4 5.7 74.9 9.6l-5.8-1.9s-1.9 0-1.9-1.9c-23-9.6-44.2-15.3-67.2-15.3h-40.3c-5.8 0-13.4 1.9-19.2 1.9l-11.5 1.9c-7.7 1.9-15.4 3.8-25 7.7-3.8 1.9-7.7 1.9-13.4 3.8-1.9 0-3.8 1.9-5.8 1.9-23 7.7-44.2 19.2-63.4 32.6-5.8 3.8-11.5 9.6-21.1 15.3v1.9l-5.8 3.8-3.8 3.8c-21.1 17.2-42.2 38.3-57.6 59.4-3.8 5.7-7.7 9.6-11.5 15.3-1.9 1.9-1.9 3.8-3.8 5.7v1.9c-1.9 1.9-1.9 1.9-1.9 3.8-1.9 3.8-5.8 9.6-11.5 17.2-9.6 21.1-17.3 44-25 67-1.9 3.8-1.9 7.7-3.8 9.6l-11.5 40.2c-5.8 21.1-11.5 42.1-13.4 63.2 0 1.9-1.9 5.7-1.9 7.7v7.7c-1.9 9.6-3.8 21.1-5.8 36.4-1.9 7.7-1.9 17.2-3.8 28.7-5.8 11.5-7.7 21.1-7.7 32.6-1.9 11.5-1.9 21.1-3.8 30.6v5.7l-5.8 44-11.7 72.8v1.9l-1.9 1.9v1.9c-7.7 24.9-15.4 47.9-23 68.9-3.8 9.6-11.5 23-19.2 40.2 0 1.9-1.9 1.9-1.9 3.8l-5.8 11.5c-5.8 11.5-13.4 24.9-21.1 40.2 0-1.9-1.9 0-3.8 1.9-11.5 24.9-19.2 38.3-21.1 42.1-1.9 3.8-5.8 9.6-7.7 13.4-7.7 13.4-11.5 24.9-15.4 32.6v1.9l163.2 21.1h1.9c-7.7-30.6-13.4-55.5-17.3-76.6-7.7-57.3-7.7-112.8 3.9-164.5z" fill="#D6BE4B" /><path d="M459.1 808.2c-9.6 15.3-25 30.6-44.2 47.9-25 23-42.2 36.4-53.8 40.2l-17.3 5.7s-1.9 0-5.8 1.9c-1.9 1.9-7.7 1.9-13.4 1.9-3.8 0-9.6 0-17.3-1.9-6-4-13.1-8-21.5-12.9 8.7 4.7 15.3 7.1 19.6 7.1 7.7 1.9 13.4 1.9 17.3 1.9 5.8 0 11.5 0 13.4-1.9 3.8-1.9 5.8-1.9 5.8-1.9s7.7-1.9 17.3-5.7c11.5-3.8 30.7-17.2 53.8-40.2 19.2-17.2 32.6-34.5 44.2-47.9l11.5-21.1c-9.6-9.6-28.8 1.9-59.5 36.4s-53.8 55.5-67.2 63.2c-15.4 5.7-28.8 7.7-38.4 5.7-9.6-1.9-17.3-7.7-26.9-17.2-5.9-7.3-9.5-10.1-11.7-8.5 0.2-0.6 0.2-1 0.2-1l-0.9 1.7c-0.4 0.5-0.8 1.2-1.1 2.1-1.9 3.8-1.9 7.7-1.9 11.5 6.5 4.7 12.5 8.7 17.8 12-6-3.5-12.5-7.4-19.8-12h-1.9C245.9 888.6 242 896.3 244 902s7.7 9.6 19.2 13.4 19.2 5.7 26.9 5.7c5.8 0 13.4 0 21.1 1.9 15.4-1.9 26.9-1.9 30.7-3.8 3.8-1.9 7.7-1.9 11.5-1.9 1.9-1.9 7.7-1.9 15.4-5.7 7.7-1.9 17.3-9.6 28.8-19.2 13.4-9.6 26.9-24.9 44.2-47.9 17.3-23 25-36.4 26.9-40.2 0-3.5 1.6-10.2 1.9-17.2-1.9 1.9-1.9 1.9-1.9 5.7-1.9 3.9-5.7 9.6-9.6 15.4zM470.6 787.1v-1.9 1.9zM572.4 224.1c-11.5 1.9-21.1 1.9-25 1.9l-7.7-1.9s-3.8 0-9.6-1.9c-3.8 0-5.8 1.9-5.8 3.8-1.9 3.8 1.9 7.7 7.7 13.4 5.8 3.8 15.4 5.7 26.9 7.7 15.4 0 25-1.9 34.6-9.6s15.4-11.5 17.3-15.3c1.9-1.9 5.8-3.8 7.7-9.6 3.8-5.7 5.8-15.3 7.7-30.6-11.5 15.3-19.2 24.9-23 28.7s-7.7 5.7-9.6 7.7c-2 1.8-9.7 3.7-21.2 5.7zM795.1 256.6c1.9-1.9 1.9-3.8 1.9-7.7s-3.8-9.6-5.8-11.5c-1.9-1.9-5.8-5.7-9.6-5.7-1.9 1.9-1.9 3.8-1.9 5.7 0 1.9 1.9 5.7 5.8 9.6 3.8 5.8 5.7 9.6 9.6 9.6zM760.5 262.4c1.9-5.7 1.9-9.6 1.9-15.3v-11.5c1.9-3.8 0-3.8-5.8-3.8-1.9 5.7-3.8 11.5-3.8 15.3 0 9.5 2 13.3 7.7 15.3zM893.6 562.2c0.5-1.6 0.9-3.2 1.3-4.9-0.7 1.4-1.1 3.1-1.3 4.9zM893 587.9c1.9-3.8 1.9-9.6 1.9-15.3-1.2-3.6-1.7-7.3-1.3-10.4-5.9 20.3-15.1 34.1-29.4 43-15.4 7.7-25 15.3-25 19.2 0 3.8 5.8 9.6 23 13.4 15.4 3.8 25 3.8 30.7 0-1.9-9.6-1.9-15.3-1.9-21.1 0-1.9 0-7.7 1.9-15.3v-13.5zM854.6 543.9V542c-7.7 3.8-13.4 7.7-21.1 11.5-1.9 0-1.9 1.9-1.9 1.9l-21.1 11.5c-28.8 15.3-49.9 24.9-63.4 28.7-30.7 9.6-78.7 13.4-142.1 13.4s-113.3-3.8-149.7-11.5c-9.6-1.9-19.2-5.7-32.6-7.7-9.6-1.9-15.4-5.7-17.3-5.7s-1.9-1.9-1.9-1.9c0-1.9 1.9-3.8 1.9-7.7h1.9c1.9-17.2 9.6-40.2 23-67 13.4-23 25-42.1 38.4-61.3 11.5 0 25 1.9 38.4 1.9h1.9c9.6 0 15.4-1.9 21.1-5.7-19.2-7.7-28.8-13.4-25-19.2 1.9-5.7 11.5-15.3 28.8-30.6-1-3.9-1.5-7.4-1.7-10 2 2.7 4.7 5.4 7.5 8.1 3.8 1.9 7.7 3.8 7.7 5.7 1.9 0 3.8 1.9 9.6 3.8s11.5 1.9 19.2 1.9c7.7-1.9 11.5-3.8 11.5-3.8-9.6-3.8-17.3-7.7-23-15.3-1.9-1.9-1.9-5.7-1.9-11.5 7.7-19.2 15.4-28.7 19.2-32.6 5.8-3.8 7.7-7.7 7.7-7.7s0-1.9-1.9-1.9c-18.6 13-37.1 27.7-55.7 46-0.2 0.2-0.4 0.5-0.7 0.7l-1.2 1.2c-9 9.2-17.9 19.7-26.9 28.7-13.4 9.6-21.1 23-30.7 34.5 9.6-11.5 17.3-24.9 26.9-34.5 9.6-11.5 19.2-21.1 28.8-30.6 19.2-19.2 38.4-34.5 57.6-47.9 17.3-11.5 34.6-21.1 53.8-28.7 1.9 0 1.9 0 3.8-1.9 9.6-3.8 19.2-7.7 30.7-9.6 7.7-1.9 15.4-1.9 23-3.8-1.9 0 7.7-1.9 25-3.8v1.9h9.6c11.5 1.9 28.8 5.7 53.8 9.6v-1.9c0-1.9-5.8-5.7-19.2-11.5-13.4-5.7-30.7-9.6-51.8-11.5-13.4 0-26.9 1.9-44.2 3.8-32.6 5.7-65.3 21.1-99.8 44-34.6 23-63.4 49.8-88.3 80.4-25 28.7-46.1 61.3-61.4 95.8-15.4 34.5-25 61.3-25 82.4 0 9.6 3.8 17.2 11.5 19.2 3.8 1.9 7.7 1.9 11.5 3.8 15.4 7.7 36.5 13.4 67.2 19.2 34.6 9.6 72.9 19.2 115.2 23 3.8 1.9 15.4 1.9 30.7 1.9 32.6 0 59.5-1.9 78.7-7.7 19.2-7.7 38.4-13.4 55.7-21.1 17.3-7.7 34.6-17.2 51.8-30.6 17.2-11.5 30.6-24.9 36.4-36.4z" fill="#D6BE4B" /><path d="M645.3 296.8c-1.9 0-1.9 0-3.8 1.9-19.2 7.7-36.5 15.3-53.8 28.7 0 1.9 1.9 1.9 1.9 1.9l1.9 1.9 1.9 1.9c7.7 13.4 15.4 21.1 21.1 24.9 5.8 1.9 13.4 5.7 21.1 5.7 7.7 1.9 13.4 0 17.3-5.7-9.6-1.9-17.3-3.8-23-9.6-5.8-3.8-7.7-7.7-7.7-9.6-3.8-1.9-3.8-5.7-3.8-7.7 0-1.9 0-7.7 3.8-11.5 2-3.6 9.7-11.3 23.1-22.8zM810.4 296.8c-1.9 0-5.8 0-9.6 1.9l9.6 1.9v-3.8zM727.9 285.3v-1.9h-5.8c-7.7 0-15.4 0-25 1.9-7.7 1.9-15.4 1.9-23 3.8-9.6 1.9-19.2 3.8-28.8 7.7 3.8 1.9 3.8 5.7 7.7 11.5 1.9 3.8 5.8 9.6 9.6 17.2 7.7 11.5 15.4 21.1 23 23 1.9 1.9 7.7 1.9 11.5 1.9-11.5-1.9-15.4-11.5-13.4-30.6 1.9-19.2 15.4-28.7 40.3-30.6 0 1.9 0 1.9 1.9 3.8l1.9 1.9c1.9 1.9 5.8 9.6 11.5 23 5.8 11.5 11.5 19.2 17.3 21.1 1.9 0 1.9 0 1.9 1.9 1.9 0 5.8 1.9 11.5 1.9-5.8-13.4-9.6-28.7-7.7-42.1 1.9 0 5.8 0 13.4 1.9 11.5 1.9 21.1 0 25-1.9v-1.9h-1.9c-5.8-1.9-11.5-1.9-17.3-3.8-24.8-3.9-42.1-7.7-53.6-9.7z" fill="#D6BE4B" /><path d="M992.8 275.8c-15.4-15.3-30.7-21.1-51.8-21.1-21.1 1.9-32.6 7.7-36.5 21.1-3.8 13.4-5.8 23-5.8 32.6v26.8c0 9.6-5.8 17.2-17.3 24.9-9.6 9.6-21.1 15.3-28.8 23-9.6 5.7-17.3 11.5-23 17.2 5.8 1.9 17.3 0 32.6-1.9 7.7-1.9 15.4-1.9 25-3.8 26.9-5.7 53.8-13.4 78.7-23 23-9.6 38.4-23 40.3-44 3.9-19.3-1.9-36.5-13.4-51.8zM893 369.6c0-1.9 1.9-1.9 1.9-1.9l-1.9 1.9zM647.3 298.7h-1.9c-13.4 9.6-21.1 17.2-23 21.1-3.8 3.8-3.8 7.7-3.8 11.5 0 1.9 0 5.7 1.9 7.7 0 1.9 1.9 5.7 7.7 9.6 5.8 3.8 13.4 7.7 23 9.6 1.9-1.9 1.9-5.7 3.8-11.5 0-5.7 0-13.4-1.9-24.9s-3.9-19.2-5.8-23.1zM589.7 329.4c0 1.9-1.9 3.8-7.7 7.7-5.8 5.7-11.5 15.3-21.1 28.7 0 5.7 1.9 7.7 1.9 11.5 5.8 7.7 13.4 11.5 23 15.3 5.8-3.8 7.7-9.6 7.7-19.2 0-13.4 0-26.8-1.9-40.2-1.9-1.9-1.9-1.9-1.9-3.8zM532.1 390.7c-15.4 15.3-25 26.8-28.8 30.6-3.8 7.7 5.8 13.4 25 21.1 3.8-3.8 5.8-9.6 5.8-15.3-1.9-15.3-1.9-26.8-1.9-34.5v-1.9zM802.8 298.7c-3.8 1.9-13.4 3.8-25 1.9-7.7 0-11.5 0-13.4-1.9-1.9 15.3 1.9 28.7 11.5 40.2 7.7 1.9 13.4 1.9 15.4 0 3.8-1.9 7.7-7.7 11.5-13.4 3.8-7.7 7.7-15.3 9.6-26.8l-9.6-1.9v1.9zM729.8 293v-5.7l-3.8 1.9c-25 0-38.4 9.6-40.3 30.6-1.9 19.2 3.8 30.6 13.4 30.6h1.9c15.4-1.9 23-7.7 25-19.2 1.9-11.5 3.8-19.2 3.8-26.8 0-7.6 1.9-11.4 0-11.4z" fill="#FFFFFF" /><path d="M265.2 860c-0.7 1-1.4 2.2-1.8 3.7l1.8-3.7z" fill="#FAF0B6" /><path d="M917.9 760.3c-3.8-15.3-7.7-30.6-11.5-44-7.7-34.5-13.4-59.4-15.4-76.6-3.8 3.8-15.4 3.8-30.7 0-15.4-3.8-23-7.7-23-13.4 0-3.8 7.7-11.5 25-19.2 15.4-9.6 25-24.9 28.8-47.9h1.9v-3.8c0-9.6 1.9-17.2 0-21.1v-3.8c-3.8-3.8-9.6-5.7-15.4-5.7-5.8 0-9.6 1.9-13.4 5.7-1.9 1.9-5.8 7.7-5.8 11.5l-1.9 1.9c-5.8 11.5-19.2 24.9-36.5 36.4-17.3 13.4-34.6 23-51.8 30.6-17.3 7.7-36.5 13.4-55.7 21.1-19.2 5.7-46.1 9.6-78.7 7.7-15.4 0-26.9-1.9-30.7-1.9-42.2-3.8-80.6-13.4-115.2-23-30.7-5.7-51.8-11.5-67.2-19.2-5.8-1.9-9.6-1.9-11.5-3.8-7.7-1.9-11.5-9.6-11.5-19.2 0-21.1 7.7-47.9 25-82.4 15.4-34.5 36.5-67 61.4-95.8 25-30.6 53.8-55.5 88.3-80.4 34.6-23 67.2-38.3 99.8-44 17.3-1.9 30.7-3.8 44.2-3.8 21.1 1.9 40.3 5.7 51.8 11.5 13.4 5.7 19.2 9.6 19.2 11.5v1.9c5.8 1.9 11.5 1.9 17.3 3.8h1.9c3.8 0 7.7 0 9.6-1.9 3.8-1.9 5.8-1.9 9.6-3.8 1.9-1.9 5.8-3.8 9.6-5.7 3.8-32.6-9.6-65.1-40.3-95.8-28.8-30.6-71-55.5-128.6-80.4-36.5-3.8-59.5-5.7-72.9-7.7-11.5-1.9-28.8 0-49.9 5.7-21.1 3.8-44.2 13.4-69.1 26.8-21.1 11.5-55.7 42.1-99.8 93.8-44.2 49.8-76.8 137.9-96 264.3-13.4 93.8-25 168.5-34.6 220.2-3.8 17.2-5.8 32.6-9.6 46-15.4 55.5-15.4 111.1-7.7 168.5 1.9 21.1 7.7 46 17.3 76.6h1.9c261.1 9.6 491.5 1.9 693-21.1 5.8-13.4 9.6-26.8 9.6-38.3v-11.5c-2-38.2-11.6-95.6-30.8-170.3zM781.6 229.8c3.8 1.9 7.7 3.8 9.6 5.7 1.9 3.8 5.8 7.7 5.8 13.4 0 1.9-1.9 5.7-1.9 7.7-1.9-1.9-5.8-3.8-9.6-9.6-1.9-5.7-3.8-7.7-5.8-9.6 0-3.8 0-5.7 1.9-7.6z m-24.9 1.9c5.8-1.9 7.7 0 7.7 1.9v11.5c0 5.7 0 11.5-1.9 15.3v1.9c-5.8 0-9.6-5.7-9.6-15.3-0.1-3.8 1.9-9.5 3.8-15.3z m-140.2-53.6c-16.8 33.4-42.5 47.1-80.9 46.1 36.7 0.8 64.2-14.6 80.9-46.1z m-84.4 46c5.8 1.9 7.7 1.9 9.6 1.9l7.7 1.9c5.8 0 13.4 0 25-1.9 11.5-1.9 19.2-3.8 21.1-5.7s5.8-5.7 9.6-7.7c3.8-3.8 11.5-13.4 23-28.7-1.9 15.3-3.8 24.9-7.7 30.6-3.8 3.8-5.8 7.7-9.6 7.7-1.9 3.8-9.6 7.7-17.3 15.3-9.6 7.7-21.1 9.6-32.6 9.6s-21.1-1.9-26.9-7.7c-5.8-3.8-7.7-7.7-7.7-11.5 0-1.9 1.9-3.8 5.8-3.8zM367 798.6c25-36.4 36.5-63.2 36.5-82.4 1.9 19.2-11.6 46-36.5 82.4-26.9 40.2-48 59.4-65.3 61.3 17.3-1.9 38.4-23 65.3-61.3z m72.9 40.2c-17.3 23-30.7 38.3-44.2 47.9-11.5 9.6-21.1 15.3-28.8 19.2-7.7 1.9-13.4 3.8-15.4 5.7-1.9 0-5.8 1.9-11.5 1.9-3.8 1.9-15.4 1.9-30.7 3.8-7.7-1.9-15.4-1.9-21.1-1.9-7.7 0-15.4-1.9-26.9-5.7-11.5-3.8-17.3-7.7-19.2-13.4s1.9-13.4 13.4-26.8h1.9c0-3.8 0-7.7 1.9-11.5 1.9-5.7 5.8-7.7 11.5-7.7 1.9 0 5.8 0 11.5 1.9 5.1 4.1 9.1 6 12.3 6.9-2.7-0.5-5.3-1.1-8.5-1.1-5.8-1.9-9.6-1.9-11.5-1.9-4.2 0-7.4 1-9.6 3.9v3.8c0-5.7 3.8-3.8 11.5 5.7 7.7 9.6 17.3 15.3 26.9 17.2 9.6 1.9 21.1 0 38.4-5.7 15.4-7.7 38.4-26.8 67.2-63.2 30.3-34.1 49.4-47.5 59.2-36.8-1.6 7.1-1.6 14-1.6 17.6-1.7 3.8-9.4 17.2-26.7 40.2zM265.2 860l0.1-0.2-0.1 0.2zM512.9 55.5c0 5.7 3.8 19.2 11.5 36.4h1.9v1.9c5.8-1.9 11.5-1.9 19.2-1.9h40.3C580 84.2 568.5 67 549.3 44 534 24.9 518.6 15.3 509 17.2c1.9 1.9 1.9 5.7 1.9 11.5 0.1 11.5 0.1 21.1 2 26.8zM420.7 113c13.4 1.9 30.7 0 53.8-3.8 1.9 0 3.8-1.9 5.8-1.9-7.7-5.7-21.1-13.4-36.5-23-15.4-9.6-28.8-11.5-38.4-9.6-1.9 24.9 1.9 38.3 15.3 38.3zM282.5 145.5l-2.8 4.5c1-1 2.2-1.9 3.3-2.7-0.2-0.6-0.3-1.2-0.5-1.8zM272.9 160.9l6.8-10.8c-3 2.8-5.3 6.3-6.8 10.8z" fill="#FAF0B6" /><path d="M332.4 183.8c15.4-7.7 28.8-13.4 44.2-17.2l3.8-3.8c-9.6-3.8-15.4-5.7-17.3-7.7-7.7-1.9-17.3-5.7-28.8-7.7-11.5-3.8-25-5.7-36.5-5.7-5.5 0.9-10.6 2.7-14.8 5.6 2.3 7.4 7.8 16.5 14.8 28.8 7.7 11.6 19.3 15.4 34.6 7.7z" fill="#FAF0B6" /><path d="M526.3 91.9c-7.7-19.2-11.5-30.6-11.5-36.4s0-15.3-1.9-26.8c0-5.7-1.9-9.6-3.8-11.5-1.9 0-3.8 1.9-5.8 1.9-7.7 9.6-11.5 28.7-11.5 53.6v30.6c7.7-1.9 17.3-5.7 25-7.7l11.5-1.9c-2 0.1-2-1.8-2-1.8zM405.4 78.5c-9.6 5.7-17.3 19.2-21.1 40.2s-5.8 36.4-1.9 47.9l1.9-1.9c1.9-1.9 1.9-1.9 3.8-1.9l1.9-3.8c7.7-7.7 15.4-13.4 21.1-15.3 21.1-13.4 42.2-24.9 63.4-32.6-23 3.8-40.3 5.7-53.8 5.7s-17.2-13.4-15.3-38.3zM296 178.1c-5.8-13.4-11.5-23-13.4-30.6l-9.6 15.3c-5.8 11.5-3.8 26.8 3.8 44 7.7 19.2 15.4 32.6 23 40.2l1.9 1.9c1.9-1.9 1.9-3.8 3.8-5.7 3.8-5.7 7.7-9.6 11.5-15.3 17.3-21.1 36.5-42.1 57.6-59.4-15.4 5.7-30.7 11.5-44.2 17.2-13.3 7.7-24.9 3.9-34.4-7.6zM297.9 247l-0.8 0.8c0.4 0.2 0.9 0.4 1.3 0.5-0.3-0.2-0.5-0.6-0.5-1.3z" fill="#D9C040" /><path d="M297.1 247.8c-8.4-3.4-15.3-6.6-22.2-6.6-17.3-1.9-32.6 0-42.2 1.9-11.5 1.9-17.3 5.7-23 11.5-5.8 5.7-7.7 11.5-7.7 15.3 0 1.9 0 1.9-1.9 3.8l3.8-1.9c21.1 7.7 32.6 11.5 40.3 9.6 21.1-5.7 36.5-11.5 44.2-17.2v7.7c3.8-5.7 5.8-11.5 7.7-13.4 1.9-3.8 1.9-5.7 3.8-9.6H296l1.1-1.1z" fill="#D9C040" /><path d="M299.8 248.9c-0.5-0.2-0.9-0.4-1.4-0.6 0.6 0.6 1.4 0.6 1.4 0.6zM203.8 356.2c-15.4 7.7-25 17.2-28.8 28.7-1.9 9.6 0 19.2 7.7 28.7l1.9-1.9c-15.4-19.2-11.5-26.8 7.7-21.1 21.1 3.8 38.4 1.9 55.7-1.9h1.9l11.5-40.2c0-3.8 1.9-5.7 3.8-9.6-3.8 1.9-9.6 1.9-21.1 3.8-11.5 2-24.9 5.8-40.3 13.5zM150.1 511.3c0 5.7 0 11.5 1.9 15.3 0 1.9 1.9 5.7 1.9 7.7l-1.9-23c5.8 0 13.4 0 25 1.9 7.7-1.9 25-3.8 49.9-9.6 1.9-15.3 3.8-28.7 5.8-36.4-7.7 3.8-21.1 7.7-38.4 15.3-28.9 11.6-44.2 21.2-44.2 28.8zM128.9 645.4v3.8c5.8 0 11.5-1.9 19.2-5.7 23 3.8 42.2 1.9 59.5-5.7v5.7l5.8-44c-9.6 1.9-25 5.7-44.2 11.5-19.1 7.6-32.6 19.1-40.3 34.4zM186.5 720.1h-9.6c-11.5 0-23 3.8-36.5 9.6-1.9 5.7-1.9 11.5-1.9 15.3 0 7.7 3.8 17.2 13.4 24.9 7.7 9.6 15.4 15.3 21.1 21.1 7.7-21.1 15.4-44 23-68.9v-1.9h-1.9c-3.7-2-5.7-0.1-7.6-0.1zM104 850.3c-1.9 0-1.9 1.9-3.8 5.7-1.9 1.9 0 5.7 5.8 11.5 3.8 5.7 7.7 11.5 7.7 21.1 1.9 7.7 3.8 7.7 7.7 0 1.9-1.9 3.8-3.8 3.8-5.7 7.7-15.3 15.4-26.8 21.1-40.2l-21.1-1.9c-7.8 3.8-15.5 5.7-21.2 9.5z" fill="#D9C040" /><path d="M246 279.6c-5.8 1.9-19.2-1.9-40.3-9.6l-3.8 1.9c0 9.6 5.8 23 19.2 36.4s25 23 32.6 24.9c1.9 0 5.8 1.9 11.5 1.9 7.7-21.1 15.4-42.1 25-65.1v-7.7c-7.7 7.7-21.1 13.5-44.2 17.3zM190.4 388.8c-19.2-3.8-21.1 3.8-5.8 23l-3.8 1.9c3.8 3.8 7.7 7.7 11.5 13.4 15.4 15.3 30.7 23 42.2 23 3.8-21.1 7.7-42.1 13.4-63.2H246c-17.2 5.7-34.5 7.6-55.6 1.9zM173.1 509.4c-11.5 0-19.2 0-25-1.9 5.8 19.2 9.6 30.6 13.4 32.6l-3.8 3.8c1.9 3.8 5.8 7.7 7.7 11.5 15.4 19.2 28.8 30.6 42.2 34.5l5.8 1.9c1.9-7.7 3.8-17.2 5.8-28.7s1.9-21.1 3.8-32.6 1.9-21.1 3.8-28.7c-24.9 5.7-42.2 9.5-53.7 7.6zM148.1 643.5c-7.7 1.9-13.4 3.8-19.2 5.7 3.8 17.2 13.4 32.6 30.7 44 17.3 13.4 28.8 21.1 32.6 21.1h5.8l9.6-70.9v-5.7c-17.2 7.7-36.4 9.6-59.5 5.8zM152 767.9c-9.6-9.6-13.4-17.2-13.4-24.9 0-3.8 0-7.7 1.9-15.3l-1.9 1.9c-9.6 5.7-17.3 13.4-21.1 26.8-1.9 19.2 0 34.5 9.6 42.1 7.7 7.7 15.4 15.3 19.2 21.1 3.8 3.8 5.8 7.7 9.6 11.5 5.8-19.2 11.5-32.6 17.3-42.1-5.9-3.8-13.6-11.5-21.2-21.1zM96.3 838.8c-5.8 1.9-9.6 5.7-13.4 7.7 0 1.9-1.9 1.9-1.9 1.9 0 1.9-1.9 5.7-1.9 9.6-1.9 7.7-3.8 13.4-3.8 17.2 0 7.7 1.9 15.3 7.7 24.9 0 3.8 1.9 5.7 1.9 9.6 5.8 11.5 11.5 17.2 15.4 21.1 1.9-3.8 9.6-17.2 21.1-42.1-3.8 7.7-7.7 7.7-7.7 0-1.9-7.7-3.8-15.3-7.7-21.1-5.8-5.7-7.7-9.6-5.8-11.5 1.9-1.9 1.9-3.8 3.8-5.7 5.8-3.8 11.5-7.7 21.1-9.6l21.1 1.9 5.8-11.5h-28.8c-13.5 3.8-23.1 5.7-26.9 7.6zM75.2 936.5c-5.8 0-7.7 1.9-9.6 5.7-11.5 1.9-21.1 3.8-28.8 7.7-3.8 5.7-9.6 13.4-15.4 23-1.9 0-1.9 1.9-3.8 3.8l13.4 5.7h25c13.4 0 15.4-1.9 7.7-3.8h1.9l1.9-1.9c1.9-5.7 5.8-13.4 9.6-21.1 1.9 0 3.8-1.9 5.8-3.8 1.9-3.8 1.9-3.8 1.9-5.7 0-5.8-1.9-9.6-9.6-9.6z" fill="#B28621" /><path d="M833.5 526.6c1.9 1.9 1.9 3.8 1.9 7.7 0 1.9-3.8 7.7-11.5 15.3-7.7 7.7-11.5 11.5-15.4 11.5v1.9l21.1-7.7 1.9-1.9c15.4-9.5 17.3-19.1 2-26.8z" fill="#C4651A" /><path d="M837.3 534.3c0-1.9 0-5.7-1.9-7.7 0 0-1.9-3.8-5.8-3.8-19.2-3.8-63.4 3.8-130.5 24.9-38.4 11.5-71 21.1-99.8 26.8-3.8 1.9-11.5 5.7-23 7.7s-23 3.8-34.6 7.7c-11.5 1.9-1.9 1.9 30.7 0s69.1-7.7 109.4-15.3c42.2-9.6 78.7-19.2 113.3-34.5-17.3 13.4-44.2 24.9-80.6 34.5-34.6 9.6-55.7 15.3-59.5 15.3-5.8 1.9-13.4 1.9-25 1.9 3.8 1.9 11.5 1.9 23 1.9h9.6c25 0 53.8-3.8 84.5-13.4 17.3-3.8 36.5-11.5 61.4-19.2v-1.9c1.9-1.9 7.7-5.7 15.4-11.5 9.6-5.7 13.4-11.5 13.4-13.4z" fill="#D78E44" /><path d="M812.4 566.9l-1.9-1.9c-25 7.7-44.2 13.4-61.4 19.2-30.7 9.6-59.5 13.4-84.5 13.4H655c-11.5 0-19.2 0-23-1.9 11.5 0 19.2 0 25-1.9 3.8-1.9 25-5.7 59.5-15.3 36.5-9.6 63.4-21.1 80.6-34.5-34.6 13.4-72.9 24.9-113.3 34.5-42.2 7.7-78.7 13.4-109.4 15.3-32.6 1.9-42.2 1.9-30.7 0 11.5-1.9 23-5.7 34.6-7.7 11.5-1.9 19.2-3.8 23-7.7h-1.9c-25 5.7-51.8 7.7-78.7 7.7s-53.8-1.9-72.9-5.7c-15.4-1.9-23-1.9-26.9-1.9H419s-1.9 0-1.9-1.9c-1.9 3.8-1.9 7.7-1.9 7.7s0 1.9 1.9 1.9c1.9 1.9 7.7 3.8 17.3 5.7 11.5 3.8 23 5.7 32.6 7.7 36.5 7.7 86.4 11.5 149.7 11.5s111.3-3.8 142.1-13.4c3.6-5.9 24.8-15.5 53.6-30.8z" fill="#B66D23" /><path d="M837.3 411.7c-3.8 0-7.7 0-11.5-1.9s-7.7-3.8-7.7-7.7c0-3.8 0-7.7 3.8-11.5 5.8-5.7 15.4-11.5 25-17.2 5.8-3.8 13.4-9.6 21.1-13.4 3.8-1.9 5.8-3.8 9.6-5.7 7.7-5.7 11.5-11.5 11.5-15.3v-26.8c0-11.5 1.9-23 5.8-36.4 3.8-11.5 13.4-26.8 46.1-28.7h5.8c21.1 0 38.4 7.7 51.8 24.9 15.4 19.2 21.1 38.3 17.3 61.3-1.9 15.3-11.5 38.3-48 51.7-23 9.6-48 17.2-80.6 23-7.7 1.9-13.4 1.9-19.2 3.8-0.1-0.1-30.8-0.1-30.8-0.1z m109.4-145.5h-3.8c-11.5 0-23 3.8-26.9 11.5-3.8 11.5-5.8 21.1-5.8 28.7v28.7c0 13.4-7.7 24.9-21.1 34.5-3.8 1.9-7.7 3.8-9.6 7.7-5.8 3.8-9.6 5.7-13.4 9.6 5.8 0 11.5-1.9 17.3-1.9 28.8-5.7 53.8-13.4 76.8-23 21.1-7.7 30.7-19.2 34.6-34.5 1.9-17.2 0-30.6-11.5-44-11.6-11.6-23.1-17.3-36.6-17.3z" fill="#64321D" /><path d="M532.1 235.5h7.7c40.3 0 69.1-19.2 86.4-53.6 1.9-5.7 0-13.4-5.8-15.3-5.8-1.9-13.4 0-15.4 5.7-15.4 28.7-38.4 42.1-72.9 40.2-5.8 0-11.5 5.7-11.5 11.5s5.7 11.5 11.5 11.5zM459.1 771.8c-1.9 1.9-3.8 3.8-3.8 5.7-1.9 1.9-1.9 3.8-1.9 3.8v1.9c-1.9 3.8-3.8 9.6-7.7 13.4-11.5 15.3-25 30.6-42.2 46-7.7 7.7-36.5 34.5-49.9 38.3-9.6 3.8-13.4 5.7-15.4 5.7s-3.8 0-7.7 1.9h-9.6c-3.8 0-7.7 0-17.3-1.9-1.9 0-9.6-1.9-32.6-17.2v-3.8s3.8 0 7.7 1.9h1.9c7.7 1.9 13.4 3.8 19.2 3.8h1.9c21.1-1.9 44.2-23 72.9-65.1 26.9-38.3 40.3-67 38.4-88.1 0-5.7-5.8-9.6-11.5-9.6-5.8 0-9.6 5.7-9.6 11.5 0 15.3-11.5 40.2-34.6 74.7-32.6 46-49.9 53.6-57.6 55.5-3.8 0-5.8 0-11.5-1.9-5.8-3.8-11.5-3.8-15.4-3.8-9.6 0-17.3 5.7-21.1 15.3-3.8 5.7-3.8 11.5-3.8 15.3s1.9 7.7 5.8 9.6c28.8 21.1 42.2 24.9 48 24.9s13.4 1.9 19.2 1.9c7.7 0 13.4 0 15.4-1.9s3.8-1.9 3.8-1.9c1.9 0 5.8-1.9 21.1-7.7 11.5-3.8 28.8-17.2 57.6-42.1 17.3-15.3 32.6-32.6 44.2-49.8 3.8-5.7 7.7-13.4 9.6-17.2 1.9-1.9 1.9-1.9 1.9-3.8 1.9-1.9 1.9-1.9 1.9-3.8 1.9-3.8 1.9-7.7-1.9-11.5-3.9-3.9-11.5-3.9-15.4 0z" fill="#64321D" /><path d="M962.1 925c-1.9-40.2-11.5-99.6-30.7-172.4-1.9-9.6-3.8-17.2-5.8-24.9-1.9-5.7-3.8-13.4-5.8-19.2-7.7-38.3-13.4-63.2-15.4-76.6-1.9-7.7-1.9-13.4-1.9-19.2V584c0-5.7 1.9-9.6 1.9-15.3 0-3.8 1.9-7.7 1.9-11.5v-30.6s0-1.9-1.9-3.8c0 0 0-1.9-1.9-3.8-5.8-7.7-15.4-7.7-23-7.7-7.7 0-15.4 3.8-21.1 9.6-3.2 3.2-5.8 6.4-7.5 10-1.8 0.4-3.8 1.4-5.9 3.5-3.8 1.9-5.8 3.8-9.6 5.7-1.9 1.9-5.8 1.9-7.7 3.8h-3.8l-19.2 11.5c-28.8 13.4-49.9 23-61.4 26.8-28.8 9.6-74.9 13.4-138.2 13.4-65.3 0-111.3-3.8-145.9-11.5-7.7-1.9-17.3-5.7-26.9-7.7l-3.8-1.9c-1.9 0-5.8-1.9-7.7-1.9v-1.9c0-1.2-0.2-2.3-0.7-3.5 3.1-14.9 10.3-34.7 21.8-55.9 9-16.1 18-34 31.7-53.5 9.1 0.4 20.6 1.8 33.6 1.8 10.9 0 19.3-2.5 24.1-6.6 1.7-0.7 3.5-1.9 4.7-3 5.8-5.7 9.6-13.4 9.6-23v-11.5c0-4.2-0.4-8-0.8-11.5h0.8c1.9 0 3.8 0 7.7 1.9 5.8 1.9 11.5 1.9 17.3 1.9 1.9 0 3.8 0 5.8 3.8h1.9c7.7-1.9 11.5-1.9 13.4-3.8 0-1.9 1.9-1.9 1.9-1.9 9.6-5.7 13.4-15.3 13.4-28.7-0.6-3.8-1.1-7.6-1.4-11.5 1.1 0.8 2.3 1.4 3.3 2 5.8 1.9 15.4 5.7 25 5.7h5.8c9.6 0 17.3-3.8 19.2-9.6 1.9 0 1.9-1.9 1.9-1.9 1.9-3.8 1.9-7.7 3.8-15.3v-1.8c5.6 6.7 11.1 10.8 17.3 13.3 3.8 1.9 7.7 3.8 17.3 3.8 26.9-3.8 34.6-17.2 36.5-24.9 0.7-1.6 1.2-3.3 1.8-4.9 4.9 7.2 10.7 11.8 17.4 14.5h1.9c1.9 1.9 3.8 1.9 5.8 1.9h3.8c1.9 1.9 3.8 1.9 5.8 1.9 3.8 1.9 7.7 1.9 11.5 1.9 5.8 0 9.6 0 15.4-5.7 5.8-3.8 11.5-9.6 15.4-17.2 3.7-9.3 7.4-18.5 9.4-27.8 0.7-0.3 1.3-0.6 2.1-1 3.8-1.9 7.7-3.8 11.5-7.7 1.9-1.9 3.8-3.8 3.8-7.7 3.8-36.4-11.5-68.9-44.2-103.4-30.7-28.7-72.9-55.5-132.5-82.4 0-1.9-1.9-1.9-1.9-1.9-22.7-8.5-45.3-14-66.5-15-6.4-9.8-21-26.3-37.3-46.1-19.2-23-36.5-34.5-51.8-30.6l-11.5 5.7v1.9C486 26.8 482.2 46 482.2 74.7v20.2c-7.5-5.4-18-12.1-32.6-20.2-19.2-9.6-34.6-13.4-49.9-9.6 0 1.9-1.9 1.9-1.9 1.9-11.5 7.7-19.2 23-25 47.9-2 12-3.5 22-3.9 30.6-7.7-1.9-17.2-5.7-26.8-7.6-13.4-3.8-26.9-5.7-40.3-5.7-19.2-1.9-30.7 7.7-36.5 24.9-5.8 15.3-5.8 32.6 3.8 53.6 4.2 9.2 8 16.9 11.6 23.5-2.8-0.3-5.5-0.5-7.8-0.5-19.2-1.9-32.6 0-44.2 1.9-9.6 1.9-21.1 5.7-28.8 15.3-5.8 5.7-7.7 11.5-9.6 19.2v5.7c0 13.4 7.7 28.7 23 44 5.3 5.3 10.1 9.9 14.6 13.7-10.2 2.3-21 5.8-31.9 11.2-19.2 7.7-30.7 21.1-34.6 36.4-3.8 11.5 0 24.9 9.6 38.3 3.8 5.7 7.7 9.6 13.4 15.3 14 12.6 26 20 37.4 23.9-0.2 0.2-0.3 0.3-0.4 0.5-7.8 3.5-18.5 7.7-31.2 12-34.6 11.5-49.9 23-51.8 36.4v1.9c0 7.7 0 13.4 1.9 19.2V540l5.8 11.5c3.8 5.7 5.8 9.6 9.6 13.4 10.7 13 19.9 22.4 29 29-6.9 1.9-13.7 3.9-19.4 5.5-21.1 9.6-38.4 23-46.1 42.1-1.9 0-1.9 1.9-1.9 3.8v5.7c5.8 21.1 17.3 38.3 34.6 51.7 3.6 2.5 6.7 4.6 9.6 6.6-8.4 1.2-16.8 3.7-26.8 8.7l-1.9 1.9c-13.4 5.7-23 17.2-26.9 32.6v1.9c-5.8 28.7 3.8 44 11.5 51.7 5.2 5.2 9.3 9.3 12.3 12.6-0.3 0.3-0.5 0.6-0.8 0.8-0.6 0.6-1.1 1.3-1.4 1.9h-6.3c-13.4 3.8-23 5.7-26.9 7.7h-1.9c-7.7 1.9-13.4 5.7-21.1 11.5l-1.9 1.9c-1.9 1.9-3.8 3.8-3.8 5.7v3.8c0 1.9-1.9 3.8-1.9 5.7v3.8c0 7.7-1.9 11.5-1.9 17.2 0 7.7 1.9 15.3 7.7 26.8 1.9 0 1.9 1.9 1.9 1.9 1.9 0 1.9 1.9 1.9 1.9 0 1.9 1.9 3.8 1.9 5.7 0.4 1.3 0.9 2.6 1.5 3.8h-5.3c0 1.9-3.8 1.9-5.8 1.9s-5.8 1.9-9.6 1.9c-7.7 1.9-17.3 7.7-26.9 19.2-5.8 5.7-11.5 15.3-17.3 24.9-1.7 2.5-2.3 5.1-1.9 7.5-1.2 1.2-2 2.6-2 4 0 3.8 1.9 7.7 7.7 11.5l13.4 1.9h28.9c71 9.6 128.6 15.3 182.4 19.2h3.8c74.9 1.9 147.8 3.8 218.8 3.8 170.3 0 327.5-9.3 469.8-26.1 0.7 0.5 1.5 0.9 2.4 1.2h3.8c3.8 0 7.7-3.8 13.4-3.8 5.8-15.3 7.7-26.8 9.6-40.2v-13.4c0-1.7-0.3-3.2-0.8-4.5 0.5-0.7 0.8-1.7 1-2.8zM522.5 427.1c0 2.5 0 4.2-0.5 5.6-1.2 0.5-2.4 1.2-3.3 2.1 0 0-3.8 1.9-11.5 1.9-5.8 0-11.5-0.4-17.2-0.8 5.8-8 11.9-15.6 19.1-24.1 3.5-4.4 7.5-9.2 11.8-14 0.5 4.2 1.7 10.5 1.7 17.8v11.5z m61.4-38.3H582s-3.8 1.9-7.7 1.9c-5.8 0-9.6 0-13.4-1.9-1.9 0-3.8-1.9-5.8-1.9-1.9-1.9-1.9-1.9-3.8-1.9 0 0-1.9-1.9-5.8-3.8-1.1-1.1-2.2-2.7-3.2-4.3 12.7-12.2 25.5-22.5 40-33.4 1.6 14.3 1.7 26.9 3.6 37.7-0.1 3.7-2 5.6-2 7.6z m57.6-38.4h-5.8c-5.8 0-11.5-1.9-17.3-3.8-1.9 0-7.7-3.8-17.3-19.2-0.1-0.1-0.1-0.2-0.2-0.3 12.1-7.4 23.8-13.1 37.2-18.7 0.4 1.8 0.8 3.7 1.4 5.5l1.9 7.7c1.9 9.6 1.9 17.2 1.9 21.1s-1.8 5.8-1.8 7.7z m76.8-53.6v9.5c0 5.7 0 13.4-3.8 24.9 0 1.9-1.9 7.7-15.4 9.6-1.9-1.9-5.8-1.9-7.7-1.9h-1.9c-3.8-1.9-9.6-5.7-17.3-19.2-1.9-5.7-3.8-7.7-5.8-11.5-1.8-1.8-1.9-3.7-3.6-5.5 5.1-1.5 10.1-3 15.2-4.1 7.7-1.9 15.4-1.9 23-3.8 6.4-1.6 11.5-1.9 17.4-1.9-0.1 1.3-0.1 2.6-0.1 3.9z m74.9 23c-1.9 3.8-5.8 7.7-7.7 9.6 0 0-1.9 1.9-7.7 0-1.9-1.9-3.8-1.9-5.8-1.9-1.9-1.9-3.8-1.9-5.8-1.9h-3.8s-5.8-1.9-11.5-15.3l-5.8-11.5c0-0.1-0.1-0.2-0.1-0.3 4 0.7 8.5 1.4 13.6 2.2 7.7 0 15.4 1.9 23 3.8 5.4 1.8 10.8 1.9 16.2 3.5-1.2 3.9-2.7 7.9-4.6 11.8z m-288-247c0-23 1.9-38.3 7.7-46 3.8-1.9 13.4 3.8 28.8 23 9.9 10.9 18.5 21.8 25.1 30.6h-21.3c-7.7 1.9-15.4 3.8-19.2 3.8l-11.5 1.9c-3.2 0.8-6.3 1.6-9.6 2.5V72.8z m-111.3 45.9c5.8-21.1 11.5-28.7 15.4-32.6 1.9-1.9 11.5-1.9 26.9 7.7 7.8 4.3 14.4 7.8 20 10.9-16.2 7.1-32 16.2-48.8 27.4-5.8 1.9-9.6 5.7-17.3 11.5 0.4-7 1.8-15.2 3.8-24.9z m-111.4 47.9v-1.9c1.9-7.7 5.8-9.6 13.4-9.6 11.5 0 23 1.9 34.6 5.7s19.2 5.7 26.9 7.7H359.6c-18.2 16-33.9 32.5-48.3 51.7-3.3 4.9-6.6 8.5-9.9 13-4.5-7.3-9.2-17.1-15.1-30.2-5.7-15.3-7.6-28.7-3.8-36.4z m-69.1 114.9v-3.8c0-1.9 0-5.7 3.8-9.6 1.9-1.9 3.8-5.7 15.4-7.7 7.7-1.9 21.1-3.8 38.4-1.9 3.2 0 7.1 0.6 11.1 1.5-0.5 0.8-1 1.5-1.5 2.4l-1.9 3.8v1.9c-8.5 20.2-15.4 40.5-22.2 60.7-0.6 0.1-1.3 0.3-2.1 0.4-3.9-0.8-10.1-5.5-25.6-20.9-11.6-11.5-15.4-21-15.4-26.8zM200 415.6c-3.8-3.8-5.8-7.7-9.6-11.5-5.8-7.7-7.7-13.4-5.8-19.2 0-5.7 3.8-13.4 21.1-21.1 13.4-5.7 25-9.6 36.5-11.5 1.7 0 3.2 0 4.8-0.1-0.3 0.6-0.5 1.3-0.9 2-3.8 9.6-7.7 21.1-9.6 30.6-4.3 18.7-7.6 34.1-10.5 48.7-7.5-3.1-16.8-8.7-26-17.9z m-25 135.9c-1.9-3.8-5.8-5.7-7.7-11.5-1.9-1.9-1.9-3.8-3.8-7.7v-21.1c0-1.9 7.7-7.7 36.5-19.2 6.1-2.7 11.6-4.9 16.7-6.8-0.4 2.7-0.9 5.6-1.3 8.7v5.7c-1.9 5.7-3.8 11.5-3.8 17.2 0 3.8-1.9 7.7-1.9 11.5 0 5.7-1.9 9.6-1.9 13.4 0 5.7-1.9 11.5-1.9 19.2 0 3.8-1.9 9.6-1.9 13.4 0 1.1-0.2 2.3-0.4 3.6-8.6-4.9-18.6-13.5-28.6-26.4z m-32.6 95.8c5.8-11.5 17.3-21.1 32.6-26.8 9.3-3.1 17.5-5.6 24.6-7.6l-3.5 26.8-9.2 58.2c-4.3-3.1-10.5-7.6-19.6-14.1-13.4-9.7-21.1-23.1-24.9-36.5z m-13.5 114.9c3.8-9.6 7.7-15.3 15.4-19.2 1.9 0 3.8-1.9 3.8-1.9 11.5-5.7 19.2-7.7 28.8-7.7h4.7c-6.1 18.4-12.1 34.7-18.2 49.8-3.7 8.7-7.5 17.4-11.8 26.2-0.5-0.4-1.1-0.9-1.7-1.3-0.5-0.4-1.1-0.6-1.6-0.9-3.5-4.2-8.3-9-13.8-14.4-5.6-5.7-7.5-15.3-5.6-30.6zM67.5 971c-1.4 1.4-1.8 1.8-1.9 2.7-1.9-0.3-3.9-0.5-5.8-0.8h-26c4.4-6.3 7.8-12.5 12.6-17.2 9.6-11.5 13.4-11.5 13.4-11.5h1.9c1.9 0 5.8 0 7.7-1.9 1.9 0 5.8-1.9 7.7-1.9H82c-5.4 12.5-10.8 23.3-14.5 30.6z m23-103.5v-3.8c1.9-1.9 1.9-3.8 1.9-5.7v-2c1.9-1.9 3.8-3.8 7.7-5.7 3.8-1.9 11.5-3.8 25-5.7h5.1c-5 9.7-10.8 19.1-16.6 30.6 0 1.9-1.9 3.8-1.9 5.7v1.9l-9.6 21.1c-1 2-2 3.9-2.9 5.7-0.3-0.6-0.6-1.2-1-1.9 0-1.9-1.9-3.8-1.9-5.7s-1.9-1.9-1.9-3.8c-3.8-7.7-5.8-15.3-5.8-19.2 0-1.9 0-7.6 1.9-11.5z m848.6 72.8v1.9c-1.6 9.8-3.3 19.6-7.3 29.3-198.5 22.5-428.9 30-685.7 20.5h-3.8c-43.7-3.2-92.9-7.8-149.9-14.9l13.6-27.2V948c0-3 1.2-4.8 2.6-7.3 1.1-0.2 2.1-0.4 3.2-0.4 2.8-2.8 2.5-7.6 0.7-11.5 2.1-3.7 5.1-9.6 8.9-17.2l9.6-19.2c1.9-1.9 3.8-3.8 3.8-5.7 7.7-15.3 15.4-28.7 21.1-40.2 1.9-1.9 1.9-3.8 3.8-5.7 0 0 1.9-1.9 1.9-3.8 0.4-0.6 0.7-1.2 0.9-1.8 1-1.2 1.9-2.5 2.9-3.9 5.8-13.4 13.4-26.8 19.2-40.2 9.6-19.2 17.3-42.1 25-68.9v-5.7c0-1.6-0.4-3.1-1.2-4.6l10.8-68.2 5.7-43.3c0.7-0.8 1.3-1.7 2-2.7 0.7-2 0.6-4 0.1-5.8 0.4-4.7 1.8-8.3 1.8-13.4 0-3.8 1.9-9.6 1.9-13.4 0-7.7 1.9-13.4 1.9-19.2 0-5.7 1.9-9.6 1.9-13.4s1.9-7.7 1.9-11.5c0-5.7 0-11.5 1.9-17.2v-5.7c1.3-9.4 1.7-16.8 2.5-23.1 3.8-3.7 4.8-8.5 3.2-13.3-0.6-0.9-1.3-1.7-2-2.4 2.3-1.7 3.9-4.1 3.9-7.1 1.9-17.2 5.8-36.4 13.4-61.3 1.9-9.6 3.8-19.2 7.7-28.7 1.9-3.8 1.9-5.7 3.8-9.6 1.4-1.4 1.8-3.8 2.6-6.5 0.5-0.4 0.9-0.8 1.2-1.2 0.5-1.6 0.6-3.2 0.3-4.8 7.6-22.7 15.2-45.3 24.6-66.1l1.9-1.9c2.8-4.1 4.5-7.3 6-10.2 0.6-0.4 1.1-0.8 1.7-1.3 1.9-1.9 2.9-4.8 2.9-7.7 0.5-0.5 1-1 1-1.9 0-1.9 1.9-1.9 1.9-3.8 1.9 0 1.9-1.9 1.9-1.9 1.9-5.7 5.8-9.6 9.6-13.4 16.7-20.3 35.1-38.8 55.3-55.6h0.4s0.9 0 1.4-0.6c1.4-0.3 2.7-0.9 3.9-1.6 1.3-0.5 2.4-1.6 2.4-1.6 0.7-0.7 1.2-1.4 1.6-2.3 1.8-0.4 3.9-1.4 6.1-3.5l5.8-3.8c5.8-5.7 11.5-9.6 15.4-11.5 21.1-15.3 42.2-24.9 61.4-32.6 1.9 0 1.9-1.9 3.8-1.9h1.9c1.7-0.6 3.1-1.4 4.4-2.5 0.8 0.3 1.7 0.5 2.5 0.6h0.8c2.1 0 4.1-0.8 5.9-2 7.8-2.6 12.8-4.1 19-5.7l11.5-1.9c5.8 0 11.5-1.9 17.3-1.9h36.4c1.8 1.2 3.8 1.9 5.9 1.9 19.2 0 40.3 3.8 61.4 13.4 1.2 1.2 2.4 1.6 3.6 1.8 0.1 0 0.2 0.1 0.3 0.1 55.7 24.9 97.9 49.8 124.8 78.5 26.9 26.8 40.3 53.6 38.4 82.4-1.9 1.9-3.8 1.9-3.8 1.9v0.1c-0.6-0.1-1.3-0.1-1.9-0.1-2 0-4.1 0.7-5.9 1.9h-5.7c-5.8-1.9-9.6-1.9-15.4-3.8-7.7-1.9-15.4-1.9-23-3.8-10.1-1.7-18.7-3.3-25.8-5-2-1.6-4.4-2.6-6.8-2.6H724c-9.6 0-17.3 1.9-25 1.9-7.7 0-17.3 1.9-25 3.8-11.5 1.9-23 5.7-32.6 9.6-0.6 0.4-1.1 0.8-1.6 1.2-0.7 0.4-1.5 0.7-2.3 0.7-21.1 7.7-38.4 17.2-55.7 28.7-23 15.3-42.2 32.6-59.5 49.8-11.5 11.5-23 23-30.7 32.6-9.6 11.5-19.2 23-26.9 34.5-1.4 1.4-2.8 2.8-3.4 4.9-1.1 1-2.1 2.1-2.8 3.4-15.1 20.8-26.5 39.8-36 58.7-14.6 27.3-22.3 49.4-24.6 68l-0.3 0.9v3.8c-1.9 3.8-1.9 5.7-1.9 7.7 0 1.9 0 7.7 7.7 11.5 3.8 1.9 11.5 5.7 19.2 7.7l3.8 1.9c11.5 3.8 19.2 5.7 28.8 7.7 36.5 7.7 84.5 11.5 151.7 11.5 65.3 0 113.3-5.7 142.1-17.2 13.4-3.8 34.6-13.4 65.3-28.7l19.2-9.6c1.9 0 1.9-1.9 3.8-1.9s3.8-1.9 7.7-3.8l11.5-5.7h1.9c0.9-0.4 1.7-0.9 2.5-1.6 4.8-0.1 9-5 9-9.9 0-1.9 0-3.8 1.9-5.7 1.9-1.9 3.8-1.9 5.8-1.9h5.8v23c0 3.8-1.9 7.7-1.9 11.5v1.9c0 5.7-1.9 11.5-1.9 13.4v30.7c0 5.7 0 13.4 1.9 23 1.9 15.3 5.8 40.2 15.4 78.5 1.9 7.7 3.8 13.4 5.8 21.1 1.9 9.6 3.8 17.2 5.8 24.9 17.3 70.9 26.9 126.4 28.8 166.6 0 2 0.7 4.1 1.9 5.8v5.2z" fill="#64321D" /></svg>