<?xml version="1.0" encoding="utf-8"?>
<!-- Generator: Adobe Illustrator 23.1.0, SVG Export Plug-In . SVG Version: 6.00 Build 0)  -->
<svg version="1.1" id="图层_1" xmlns="http://www.w3.org/2000/svg" xmlns:xlink="http://www.w3.org/1999/xlink" x="0px" y="0px"
	 viewBox="0 0 750 1334" style="enable-background:new 0 0 750 1334;" xml:space="preserve">
<style type="text/css">
	.st0{fill:#FACFAD;stroke:#3D7CC0;stroke-miterlimit:10;}
	.st1{fill:#FBEDB7;stroke:#E83828;stroke-miterlimit:10;}
	.st2{fill:#BBE3F9;stroke:#335BA9;stroke-miterlimit:10;}
	.st3{fill:#C8A5CC;stroke:#FFF100;stroke-miterlimit:10;}
	.st4{fill:#FBEDB7;stroke:#EA5514;stroke-miterlimit:10;}
	.st5{fill:#FACFAD;stroke:#2EA7E0;stroke-miterlimit:10;}
</style>
<g id="图层_13">
	<path class="st0" d="M342.3,405.6c0-2.1,4.1-21,29-17.6l-2-11.6l28.2-3.5v9.6c0,0,22.2-4.4,31.8,9.6l5.7-6.1l19.6,15.7l-7.6,6.1
		c0,0,14.7,19,6.6,26.9l12.8,0l0.5,21.3l-12.9-1.5c0,0,7.8,16.2-4.1,26.7l5.1,3.7l-15.4,17.6l-10-6.9c0,0-5.3,9-25.6,6.9v11.7
		l-33.2-3l3.2-11.7c0,0-23.3-2.5-30.3-19.2l-11.3,7.2l-8.5-24.7l11.3-1.7c-7.6-8,1.8-28.9-1.3-28.4c-4.2,0.7-12.5-2.6-12.9-3
		c1.3-9.4,2.8-28.9,3.6-27.8C325.5,402.6,342.3,405.6,342.3,405.6z"/>
	<circle class="st0" cx="395.2" cy="446.5" r="38.2"/>
	<circle class="st0" cx="394.1" cy="446.5" r="26.8"/>
	<path class="st1" d="M132.3,616.9c0-1,1.9-9.7,13.4-8.1l-0.9-5.4l13-1.6v4.5c0,0,10.2-2,14.7,4.4l2.6-2.8l9.1,7.2l-3.5,2.8
		c0,0,6.8,8.8,3.1,12.4l5.9,0l0.2,9.8l-5.9-0.7c0,0,3.6,7.5-1.9,12.3l2.4,1.7l-7.1,8.1l-4.6-3.2c0,0-2.4,4.1-11.8,3.2v5.4l-15.3-1.4
		l1.5-5.4c0,0-10.7-1.2-14-8.9l-5.2,3.3l-3.9-11.4l5.2-0.8c-3.5-3.7,0.8-13.3-0.6-13.1c-1.9,0.3-5.8-1.2-5.9-1.4
		c0.6-4.3,1.3-13.3,1.7-12.8C124.6,615.5,132.3,616.9,132.3,616.9z"/>
	<circle class="st1" cx="156.7" cy="635.8" r="17.6"/>
	<circle class="st1" cx="156.2" cy="635.8" r="12.3"/>
	<path class="st2" d="M365.4,561.7c0-1.2,2.5-12.4,17.2-10.4l-1.2-6.9l16.7-2.1v5.7c0,0,13.2-2.6,18.9,5.7l3.4-3.6l11.6,9.3
		l-4.5,3.6c0,0,8.7,11.3,3.9,15.9l7.6,0l0.3,12.6l-7.6-0.9c0,0,4.6,9.6-2.4,15.8l3,2.2l-9.1,10.5l-6-4.1c0,0-3.1,5.3-15.2,4.1v7
		l-19.7-1.8l1.9-7c0,0-13.8-1.5-18-11.4l-6.7,4.3l-5-14.6l6.7-1c-4.5-4.8,1-17.1-0.8-16.8c-2.5,0.4-7.4-1.6-7.6-1.8
		c0.8-5.6,1.6-17.1,2.2-16.5C355.4,559.9,365.4,561.7,365.4,561.7z"/>
	<circle class="st2" cx="396.8" cy="586" r="22.7"/>
	<circle class="st2" cx="396.1" cy="586" r="15.9"/>
	<path class="st3" d="M491.4,424.2c0-1.5,3-15.3,21.1-12.8l-1.4-8.5l20.5-2.6v7c0,0,16.2-3.2,23.2,7l4.1-4.5l14.3,11.4l-5.6,4.5
		c0,0,10.7,13.9,4.8,19.6l9.3,0l0.4,15.5l-9.4-1.1c0,0,5.7,11.8-3,19.4l3.7,2.7l-11.2,12.9l-7.3-5c0,0-3.8,6.5-18.7,5v8.5l-24.2-2.2
		l2.3-8.5c0,0-17-1.9-22.1-14l-8.2,5.3l-6.2-18l8.2-1.2c-5.5-5.8,1.3-21-0.9-20.7c-3.1,0.5-9.1-1.9-9.4-2.2c1-6.9,2-21,2.6-20.3
		C479.1,422,491.4,424.2,491.4,424.2z"/>
	<ellipse transform="matrix(0.1602 -0.9871 0.9871 0.1602 -3.0763 904.3842)" class="st3" cx="530" cy="454" rx="27.9" ry="27.8"/>
	<circle class="st3" cx="529.1" cy="454" r="19.5"/>
	<path class="st4" d="M466.2,364.2c0-0.8,1.6-8.2,11.3-6.9l-0.8-4.5l11-1.4v3.8c0,0,8.7-1.7,12.4,3.7l2.2-2.4l7.6,6.1l-3,2.4
		c0,0,5.7,7.4,2.6,10.5l5,0l0.2,8.3l-5-0.6c0,0,3,6.3-1.6,10.4l2,1.5l-6,6.9l-3.9-2.7c0,0-2.1,3.5-10,2.7v4.6l-12.9-1.2l1.3-4.6
		c0,0-9.1-1-11.8-7.5l-4.4,2.8l-3.3-9.6l4.4-0.7c-3-3.1,0.7-11.3-0.5-11.1c-1.6,0.3-4.9-1-5-1.2c0.5-3.7,1.1-11.3,1.4-10.8
		C459.6,363,466.2,364.2,466.2,364.2z"/>
	<circle class="st4" cx="486.8" cy="380.1" r="14.9"/>
	<circle class="st4" cx="486.4" cy="380.1" r="10.4"/>
	<path class="st2" d="M257.2,419.2c0-0.8,1.6-8.2,11.3-6.9l-0.8-4.5l11-1.4v3.8c0,0,8.7-1.7,12.4,3.7l2.2-2.4l7.6,6.1l-3,2.4
		c0,0,5.7,7.4,2.6,10.5l5,0l0.2,8.3l-5-0.6c0,0,3,6.3-1.6,10.4l2,1.5l-6,6.9l-3.9-2.7c0,0-2.1,3.5-10,2.7v4.6l-12.9-1.2l1.3-4.6
		c0,0-9.1-1-11.8-7.5l-4.4,2.8l-3.3-9.6l4.4-0.7c-3-3.1,0.7-11.3-0.5-11.1c-1.6,0.3-4.9-1-5-1.2c0.5-3.7,1.1-11.3,1.4-10.8
		C250.6,418,257.2,419.2,257.2,419.2z"/>
	<circle class="st2" cx="277.8" cy="435.1" r="14.9"/>
	<circle class="st2" cx="277.4" cy="435.1" r="10.4"/>
	<path class="st3" d="M204.4,530.6c0-2.3,4.7-23.5,32.6-19.8l-2.2-13.1l31.7-4v10.9c0,0,25-4.9,35.8,10.8l6.4-6.9l22.1,17.7
		l-8.6,6.9c0,0,16.5,21.4,7.4,30.2l14.4,0l0.5,23.9l-14.5-1.7c0,0,8.8,18.2-4.6,30l5.8,4.2l-17.3,19.8l-11.3-7.8
		c0,0-5.9,10.1-28.8,7.8v13.2l-37.3-3.4l3.6-13.2c0,0-26.2-2.8-34-21.6l-12.7,8.1l-9.6-27.7l12.7-1.9c-8.6-9,2-32.5-1.4-31.9
		c-4.7,0.8-14-3-14.5-3.4c1.5-10.6,3.1-32.5,4.1-31.3C185.4,527.2,204.4,530.6,204.4,530.6z"/>
	<circle class="st3" cx="263.8" cy="576.5" r="43"/>
	<circle class="st3" cx="262.5" cy="576.5" r="30.1"/>
	<path class="st5" d="M461.4,544c0-2.1,4.1-21,29-17.6l-2-11.6l28.2-3.5v9.6c0,0,22.2-4.4,31.8,9.6l5.7-6.1l19.6,15.7l-7.6,6.1
		c0,0,14.7,19,6.6,26.9l12.8,0l0.5,21.3l-12.9-1.5c0,0,7.8,16.2-4.1,26.7l5.1,3.7l-15.4,17.7l-10-6.9c0,0-5.3,9-25.6,6.9v11.7
		l-33.2-3l3.2-11.7c0,0-23.3-2.5-30.3-19.2l-11.3,7.2l-8.5-24.7l11.3-1.7c-7.6-8,1.8-28.9-1.3-28.4c-4.2,0.7-12.5-2.6-12.9-3
		c1.3-9.4,2.8-28.9,3.6-27.8C444.5,541,461.4,544,461.4,544z"/>
	<circle class="st5" cx="514.3" cy="584.9" r="38.2"/>
	
		<ellipse transform="matrix(0.9239 -0.3827 0.3827 0.9239 -184.768 240.8884)" class="st5" cx="513.1" cy="584.9" rx="26.8" ry="26.8"/>
</g>
</svg>
