<?xml version="1.0" standalone="no"?><!DOCTYPE svg PUBLIC "-//W3C//DTD SVG 1.1//EN" "http://www.w3.org/Graphics/SVG/1.1/DTD/svg11.dtd"><svg t="1649681422498" class="icon" viewBox="0 0 1024 1024" version="1.1" xmlns="http://www.w3.org/2000/svg" p-id="129306" xmlns:xlink="http://www.w3.org/1999/xlink" width="200" height="200"><defs><style type="text/css">@font-face { font-family: "feedback-iconfont"; src: url("//at.alicdn.com/t/font_1031158_u69w8yhxdu.woff2?t=1630033759944") format("woff2"), url("//at.alicdn.com/t/font_1031158_u69w8yhxdu.woff?t=1630033759944") format("woff"), url("//at.alicdn.com/t/font_1031158_u69w8yhxdu.ttf?t=1630033759944") format("truetype"); }
</style></defs><path d="M515.04 510.75m-448.47 0a448.47 448.47 0 1 0 896.94 0 448.47 448.47 0 1 0-896.94 0Z" fill="#8952AA" p-id="129307"></path><path d="M221.74 562.71a289.24 243.85 0 1 0 578.48 0 289.24 243.85 0 1 0-578.48 0Z" fill="#FBF5EF" p-id="129308"></path><path d="M236.91 484.85s3.25-81.77 11.86-140.08 32.87-156.91 32.87-156.91l93.75 162.65-138.48 134.34z" fill="#3A3938" p-id="129309"></path><path d="M257.12 465.69s1.85-46.56 6.75-79.76 18.72-89.34 18.72-89.34l53.38 92.61-78.85 76.49z" fill="#F8C8A4" p-id="129310"></path><path d="M785.55 484.85s-3.25-81.77-11.86-140.08-32.87-156.91-32.87-156.91l-93.75 162.65 138.48 134.34z" fill="#DB902E" p-id="129311"></path><path d="M765.34 465.69s-1.85-46.56-6.75-79.76-18.72-89.34-18.72-89.34l-53.38 92.61 78.85 76.49z" fill="#F8C8A4" p-id="129312"></path><path d="M238.55 702.46l-0.05-0.06c-1.04 0.23-1.59 0.35-1.59 0.35l1.64-0.29zM793.8 702.46l1.64 0.29s-0.55-0.12-1.59-0.35l-0.05 0.06z" fill="#465C62" p-id="129313"></path><path d="M510.98 317.86c-9.16 0-18.21 0.38-27.14 1.08-3.08 14.68-4.93 36.7 2.5 61.2 13.3 43.85 59.48 166.06 293.48 190.65 7.02 0.74 13.71 1.35 20.1 1.85 0.19-3.62 0.3-7.26 0.3-10.93 0-134.68-129.49-243.85-289.24-243.85z" fill="#DB902E" p-id="129314"></path><path d="M558.63 321.17c-15.5-2.17-31.42-3.31-47.65-3.31-159.74 0-289.24 109.17-289.24 243.85 0 2.14 0.03 4.27 0.1 6.4 7.29 1.62 14.86 2.58 22.67 2.66 83.48 0.93 163.91-37.25 183.13-46.22 28.57-13.34 82.76-58.43 106.17-97.17 15.62-25.82 22.18-75.76 24.82-106.21z" fill="#3A3938" p-id="129315"></path><path d="M378.86 564.16m-51.57 0a51.57 51.57 0 1 0 103.14 0 51.57 51.57 0 1 0-103.14 0Z" fill="#FFFFFF" p-id="129316"></path><path d="M378.86 564.16m-35.75 0a35.75 35.75 0 1 0 71.5 0 35.75 35.75 0 1 0-71.5 0Z" fill="#C5C535" p-id="129317"></path><path d="M391.15 550.42m-12.29 0a12.29 12.29 0 1 0 24.58 0 12.29 12.29 0 1 0-24.58 0Z" fill="#FFFFFF" p-id="129318"></path><path d="M644.67 564.16m-51.57 0a51.57 51.57 0 1 0 103.14 0 51.57 51.57 0 1 0-103.14 0Z" fill="#FFFFFF" p-id="129319"></path><path d="M644.67 564.16m-35.75 0a35.75 35.75 0 1 0 71.5 0 35.75 35.75 0 1 0-71.5 0Z" fill="#C5C535" p-id="129320"></path><path d="M659.06 550.42m-12.29 0a12.29 12.29 0 1 0 24.58 0 12.29 12.29 0 1 0-24.58 0Z" fill="#FFFFFF" p-id="129321"></path><path d="M483.25 636.61c0.01-8.26 55.69-6.98 55.86-0.01 0.32 13.04-18.55 31.5-28.31 31.54-9.72 0.04-27.56-17.25-27.55-31.53z" fill="#D08C7D" p-id="129322"></path><path d="M480.94 728.85l-3.07-2.77 30.85-34.23V665.9h4.14v27.54z" fill="#D08C7D" p-id="129323"></path><path d="M541.04 728.86l-32.33-35.43 0.4-27.56 4.13 0.06-0.37 25.92 31.22 34.23z" fill="#D08C7D" p-id="129324"></path></svg>