<?xml version="1.0" standalone="no"?><!DOCTYPE svg PUBLIC "-//W3C//DTD SVG 1.1//EN" "http://www.w3.org/Graphics/SVG/1.1/DTD/svg11.dtd"><svg t="1649682651515" class="icon" viewBox="0 0 1024 1024" version="1.1" xmlns="http://www.w3.org/2000/svg" p-id="27854" xmlns:xlink="http://www.w3.org/1999/xlink" width="200" height="200"><defs><style type="text/css">@font-face { font-family: "feedback-iconfont"; src: url("//at.alicdn.com/t/font_1031158_u69w8yhxdu.woff2?t=1630033759944") format("woff2"), url("//at.alicdn.com/t/font_1031158_u69w8yhxdu.woff?t=1630033759944") format("woff"), url("//at.alicdn.com/t/font_1031158_u69w8yhxdu.ttf?t=1630033759944") format("truetype"); }
</style></defs><path d="M127.52 97L97 222.11l15.26 221.23L97 615.75V902.59L228.21 927l302.1-16.78L757.64 927h132.74L927 865.97l-12.21-126.63L927 603.54l-19.84-247.16L927 159.56l-62.6-60.18-234.92 15.93L434.19 97H127.52z" fill="#3F4F61" p-id="27855"></path><path d="M127.52 97l27.46 109.85-42.72 236.49L97 222.11M104.17 534.71l21.82 297.69L228.21 927 97 902.59V615.75M348.75 97l109.85 44.25 256.24-31.73" fill="#64717E" p-id="27856"></path><path d="M523.55 910.59l288.51-9.53L890.38 927H757.64M907.16 356.38l-8.13 205.97v199.87L927 865.97V483.01l-11.15-212.84" fill="#303B4F" p-id="27857"></path><path d="M459.36 913.11L299.21 779.55 474.09 654.7v-31.41l-38.03-30.97 2.18-224.39 63.31 54.61 63.17-187.2 334.54 313.92L927 865.97 890.38 927l-78.32-25.94-352.7 12.05z" fill="#1F2C39" p-id="27858"></path><path d="M527.92 649.86c-105.29 0-194.93 54.07-228.72 129.69 0 0 287.75-9.54 394.51-76.79-43.42-32.76-101.65-52.9-165.79-52.9z" fill="#EAD696" p-id="27859"></path><path d="M693.72 702.76C587 770 299.21 779.55 299.21 779.55h457.43c-13.21-29.55-35.04-55.76-62.92-76.79z" fill="#C6A458" p-id="27860"></path><path d="M529 222.13V724.8a54.93 54.93 0 0 0 54.93-54.93V277.06A54.93 54.93 0 0 0 529 222.13zM367.28 583.62A39.67 39.67 0 0 0 407 623.29a39.67 39.67 0 0 0 39.67-39.67V392.27A39.67 39.67 0 0 0 407 352.6a39.67 39.67 0 0 0-39.67 39.67v191.35z" fill="#59A333" p-id="27861"></path><path d="M407 352.6a39.67 39.67 0 0 0-39.67 39.67v191.35A39.67 39.67 0 0 0 407 623.3" fill="#88CC60" p-id="27862"></path><path d="M647.94 503.43c-11.36 67.82-54.19 67.82-71.37 67.82 0 0-14.21-7.06-11.51-12.75 2-4.17 17.86-5.34 21.17-9.63 10.68-13.86 6.61-26.4 6.61-46.44v-30.09c0-20 6.81-35.28 24-35.28 17.18 0 31.11 16.25 31.11 36.28v30.09zM446.62 585s3.56 21.81 27.46 21.81 0 16.47 0 16.47H407" fill="#59A333" p-id="27863"></path><path d="M474.09 277.06v392.82A54.93 54.93 0 0 0 529 724.8V222.13a54.93 54.93 0 0 0-54.91 54.93z" fill="#88CC60" p-id="27864"></path></svg>