<?xml version="1.0" standalone="no"?><!DOCTYPE svg PUBLIC "-//W3C//DTD SVG 1.1//EN" "http://www.w3.org/Graphics/SVG/1.1/DTD/svg11.dtd"><svg t="1649682655132" class="icon" viewBox="0 0 1024 1024" version="1.1" xmlns="http://www.w3.org/2000/svg" p-id="27998" xmlns:xlink="http://www.w3.org/1999/xlink" width="200" height="200"><defs><style type="text/css">@font-face { font-family: "feedback-iconfont"; src: url("//at.alicdn.com/t/font_1031158_u69w8yhxdu.woff2?t=1630033759944") format("woff2"), url("//at.alicdn.com/t/font_1031158_u69w8yhxdu.woff?t=1630033759944") format("woff"), url("//at.alicdn.com/t/font_1031158_u69w8yhxdu.ttf?t=1630033759944") format("truetype"); }
</style></defs><path d="M358.481887 1019.970187v-388.830531H134.074973c-53.666294 0-97.570679-43.904385-97.570679-97.570679V246.217922c0-50.761924 41.532483-92.302475 92.298441-92.302475h20.306384c50.761924 0 92.298442 41.536517 92.298441 92.302475v199.542285h117.074327v-252.881837c0-89.442478 73.186077-162.616454 162.624521-162.616454h35.776185c89.438444 0 162.616454 73.182043 162.616454 162.616454v437.680412h109.167987v-154.665742c0-39.342105 32.190095-71.540268 71.536234-71.540268h15.740069c39.346139 0 71.536234 32.198163 71.536234 71.540268v222.732868c0 41.601059-34.037597 75.630588-75.626554 75.630588h-192.366072v245.713691" fill="#BAD9A3" p-id="27999"></path><path d="M877.069158 475.89304c0-30.217544 19.02362-56.155177 45.655075-66.594772a70.874683 70.874683 0 0 0-10.818776-0.915683h-15.740069c-39.346139 0-71.536234 32.198163-71.536234 71.540268v150.631895h52.440004v-154.661708z m-429.842648-283.01467c0-77.167483 14.154767-142.180987 86.542143-158.582607h-16.696091c-89.438444 0-162.624521 73.178009-162.624521 162.616454v248.84799h92.778469v-252.881837z m268.226589 827.091817h-268.226589v-388.830531H182.481131c-53.666294 0-69.333754-43.904385-69.333754-97.570679V246.217922c0-41.254148-0.802735-76.417188 36.724139-88.143579-1.589336-0.084711-3.186739-0.125049-4.79221-0.12505h-20.306383C74.002931 157.949293 32.470447 199.489844 32.470447 250.251769v287.347021c0 53.670328 43.904385 97.570679 97.570679 97.570679h224.406915v388.830531m413.445062-249.743504v4.033846h139.926067c8.426705 0 16.518601-1.456219 24.106267-4.033846h-164.032334z" fill="#CDF0B4" p-id="28000"></path><path d="M374.617273 1019.970187v-388.830531a16.135386 16.135386 0 0 0-16.135386-16.135386H134.074973c-44.904779 0-81.435293-36.534548-81.435293-81.435293V246.217922c0-41.996376 34.16668-76.167089 76.163055-76.167089h20.306384c41.996376 0 76.163056 34.170714 76.163055 76.167089v199.542285a16.135386 16.135386 0 0 0 16.135386 16.135386h117.074327a16.135386 16.135386 0 0 0 16.135386-16.135386v-252.881837c0-80.769708 65.715393-146.481068 146.489135-146.481068h35.776185c80.765674 0 146.481068 65.715393 146.481068 146.481068v437.680412a16.135386 16.135386 0 0 0 16.135386 16.135386h109.167987a16.135386 16.135386 0 0 0 16.135386-16.135386v-154.665742c0-14.715472 5.78857-28.608039 16.292706-39.116209 10.504136-10.504136 24.39267-16.292706 39.108142-16.292706h15.740069c14.715472 0 28.608039 5.78857 39.108142 16.292706 10.504136 10.50817 16.292706 24.400737 16.292706 39.116209v222.732868c0 32.807274-26.691962 59.495202-59.491168 59.495202h-192.366072a16.135386 16.135386 0 0 0-16.135386 16.135386v245.713691h32.270772V774.256496a16.135386 16.135386 0 0 1-16.135386 16.135386h192.366072c50.596537 0 91.76194-41.165403 91.76194-91.765974v-222.732868c0-23.339836-9.14473-45.332367-25.739975-61.935679-16.599278-16.603312-38.595843-25.748042-61.935679-25.748042h-15.740069c-23.339836 0-45.328333 9.148764-61.935679 25.748042-16.599278 16.595244-25.739974 38.591809-25.739974 61.935679v154.665742a16.135386 16.135386 0 0 1 16.135386-16.135386h-109.167988a16.135386 16.135386 0 0 1 16.135386 16.135386V192.87837c0-98.567039-80.188834-178.75184-178.75184-178.75184h-35.776184c-98.575107 0-178.759907 80.188834-178.759908 178.75184v252.877803a16.135386 16.135386 0 0 1 16.135386-16.135386H241.40756a16.135386 16.135386 0 0 1 16.135386 16.135386V246.217922c0-59.789673-48.644155-108.437861-108.433827-108.437861h-20.306384C69.013063 137.780061 20.368908 186.42825 20.368908 246.217922v287.351055c0 62.698076 51.007989 113.706065 113.706065 113.706065h224.406914a16.135386 16.135386 0 0 1-16.135386-16.135386v388.830531h32.270772z" fill="#6E6E96" p-id="28001"></path><path d="M358.481887 221.268582h88.478389v32.270772H358.481887zM581.07357 346.317823h124.056915v32.270772H581.07357zM358.481887 725.499393h120.749161v32.270772H358.481887zM358.481887 429.624821h84.444543v32.270772H358.481887zM624.449522 194.096592h81.741865v32.270772h-81.741865zM176.692561 350.351669h64.714999v32.270772H176.692561zM36.504294 463.299371h79.68057v32.270772H36.504294zM828.671068 511.705529h66.046169v32.270772H828.671068zM564.938184 902.988639h154.56893v32.270772H564.938184zM601.242803 535.908608h118.264311v32.270772H601.242803z" fill="#6E6E96" p-id="28002"></path><path d="M521.106408 46.393269s88.083072 0.960055 88.083072 132.443281v841.432142h110.309567V175.839402s-21.879583-179.57071-198.392639-129.446133z" fill="#6E6E96" opacity=".15" p-id="28003"></path><path d="M855.096797 420.488158s62.302759-30.84279 62.302759 115.722989v157.320013s4.033846 34.287695-34.287696 34.287695h-163.620881v30.310323h183.059988s68.801286 14.187038 68.801285-59.495202v-222.732868s3.19884-110.817831-116.255455-55.41295z" fill="#6E6E96" opacity=".15" p-id="28004"></path></svg>