<?xml version="1.0" standalone="no"?><!DOCTYPE svg PUBLIC "-//W3C//DTD SVG 1.1//EN" "http://www.w3.org/Graphics/SVG/1.1/DTD/svg11.dtd"><svg t="1649680458564" class="icon" viewBox="0 0 1024 1024" version="1.1" xmlns="http://www.w3.org/2000/svg" p-id="2645" xmlns:xlink="http://www.w3.org/1999/xlink" width="200" height="200"><defs><style type="text/css">@font-face { font-family: "feedback-iconfont"; src: url("//at.alicdn.com/t/font_1031158_u69w8yhxdu.woff2?t=1630033759944") format("woff2"), url("//at.alicdn.com/t/font_1031158_u69w8yhxdu.woff?t=1630033759944") format("woff"), url("//at.alicdn.com/t/font_1031158_u69w8yhxdu.ttf?t=1630033759944") format("truetype"); }
</style></defs><path d="M625.348562 898.027473c-50.575167-8.443803-96.675911-9.249366-127.249742-3.643816-22.221853-0.680346-47.227698 0.34226-73.548321 3.35999-87.676979 10.03406-156.450357 38.182853-153.624627 62.833917 2.825731 24.659411 76.182054 36.52164 163.85486 26.475058 36.337988-4.165554 69.403637-11.436491 95.503044-20.280988 23.064981 7.997196 50.504211 14.963438 80.255782 19.926206 87.038372 14.5377 160.903911 6.469548 164.998508-18.014559 4.08625-24.488281-63.155307-56.118108-150.189504-70.655808z" fill="#FFE38F" p-id="2646"></path><path d="M627.068209 887.738805c-50.078473-8.364499-97.769473-9.679278-130.851818-3.614599l2.199646-0.166956c-23.666023-0.726259-48.918128 0.429912-75.0551 3.4226-74.512493 8.527281-137.233714 30.194005-156.083055 53.918462-5.259116 6.619808-7.521371 13.502572-6.719981 20.468814 0.797215 6.962068 4.562075 13.160312 11.181882 18.423602 23.720283 18.845166 89.722191 25.765495 164.230511 17.225692 35.974859-4.119641 69.745897-11.302926 97.665125-20.765161l-6.770068-0.025043c24.321325 8.431281 52.662118 15.472654 81.958734 20.360292 80.848476 13.506746 170.725101 10.948144 177.006823-26.587754 6.260853-37.531724-77.910049-69.157377-158.762699-82.659949z m138.177016 79.220654c-1.932516 11.557534-57.683322 25.364801-152.986019 9.44554-28.161315-4.699813-55.325067-11.440665-78.55283-19.496295l-3.385034-1.168692-3.389209 1.143649c-26.533493 8.994758-58.810275 15.844131-93.340963 19.800989-76.144489 8.727628-132.525553 0.146087-148.870552-12.834747-2.041038-1.623648-3.289035-3.247296-3.426774-4.457727-0.137739-1.214605 0.709563-3.076166 2.329037-5.11303 12.985008-16.344999 65.968516-37.45242 142.113006-46.171701 24.784628-2.842427 49.698648-3.977728 72.041543-3.293208l1.110258 0.033391 1.089388-0.200347c30.795047-5.647289 75.864837-4.307467 123.647664 3.673033 95.311045 15.919261 143.548827 47.085785 141.620485 58.639145z" fill="#6E6E96" p-id="2647"></path><path d="M260.094598 330.180668s-121.318627 140.794052-86.787939 351.050176c0 0 40.574498 115.58786 51.389078-74.211972 10.810405-189.804006 35.39886-193.355996 35.398861-276.838204z" fill="#9595AB" p-id="2648"></path><path d="M252.189228 323.373034c-5.083812 5.901897-124.098445 146.929688-89.179584 359.556588l0.146087 0.901563 0.304694 0.863998c4.720683 13.448311 17.810039 44.42701 37.343899 41.663887 14.42083-2.036864 28.562009-17.830908 34.309472-118.739156 6.060505-106.371885 16.641346-154.522015 24.363064-189.674615 6.173201-28.098706 11.052492-50.295516 11.052492-87.756283v-28.094533l-18.340124 21.278551z m-37.915723 283.053144c-5.033725 88.332282-16.198913 98.725297-17.455257 99.618512 0.538433-0.383999 1.798952-0.517564 2.408341-0.258782-3.756512-1.6153-11.570056-15.226393-16.082043-28.015228l0.450781 1.769734c-33.278518-202.672145 83.2276-341.178899 84.412988-342.552112l-18.348472-6.80346c0 35.198513-4.432684 55.366806-10.564145 83.277687-7.876153 35.841294-18.665688 84.930552-24.822193 192.963649z" fill="#6E6E96" p-id="2649"></path><path d="M784.895954 330.180668s121.306105 140.8024 86.783764 351.050176c0 0-40.557803 115.58786-51.384904-74.211972-10.810405-189.804006-35.39886-193.355996-35.39886-276.838204z" fill="#9595AB" p-id="2650"></path><path d="M776.994758 336.992476l-0.008348-0.008348c1.181214 1.377388 117.674811 139.892489 84.400467 342.556286l0.446607-1.76556c-4.499466 12.784661-12.31301 26.395754-16.069521 28.011054 0.60939-0.262956 1.869908-0.125217 2.408341 0.258782-1.256344-0.893215-12.421531-11.28623-17.459431-99.618512-6.156505-108.033098-16.946041-157.122356-24.818019-192.963649-6.135636-27.915055-10.564145-48.083348-10.564146-83.277687l-18.33595 6.807634z m32.886172 270.623264c5.75581 100.908248 19.896989 116.702292 34.317819 118.739156 19.53386 2.754775 32.610694-28.223923 37.331377-41.663887l0.300521-0.863998 0.146087-0.901562c34.910514-212.614379-84.087424-353.654691-89.17541-359.556589l-18.340124-21.286898v28.098706c0 37.464942 4.879291 59.657577 11.048318 87.756283 7.730066 35.160948 18.310907 83.306904 24.371412 189.678789z" fill="#6E6E96" p-id="2651"></path><path d="M746.821623 227.33573c38.929981 100.924943 87.130198 213.666202 87.130198 326.674591 0 253.789919-119.102285 387.429904-309.181769 387.429903-190.096179 0-309.181769-145.660822-309.181768-399.438219 0-110.195179 34.175907-222.656786 83.331947-314.632884C362.952057 107.51136 374.13394 22.426374 524.761704 22.426374c120.592368 0 171.255187 73.201888 222.059919 204.909356z" fill="#9595AB" p-id="2652"></path><path d="M737.088084 231.092242l10.472319 26.955057c35.603382 91.337491 75.956663 194.866949 75.956664 295.958848 0 239.586132-108.888748 376.995149-298.747015 376.995149-187.065926 0-298.747014-145.422909-298.747014-389.003464 0-100.65364 29.154703-210.648471 82.100646-309.716028 10.739449-20.101511 19.826033-38.871547 28.616271-57.019672C379.752012 86.462374 405.709506 32.861128 524.761704 32.861128c114.206298 0 162.73208 69.666593 212.32638 198.231114zM524.761704 11.99162c-132.133206 0-163.454165 64.670433-206.800133 154.179755-8.698411 17.964473-17.697343 36.542509-28.244793 56.28089-54.527852 102.039375-84.563248 215.523588-84.563249 319.54974 0 125.909919 29.576267 230.111375 85.535768 301.33066 55.78837 71.01059 136.732846 108.542314 234.080755 108.542314 97.999038 0 178.893427-35.390513 233.934669-102.352418 56.852715-69.174073 85.681854-168.600585 85.681854-295.51224 0-105.019541-41.112932-210.485689-77.384138-303.542828l-10.447275-26.888274C704.869737 89.571931 650.366928 11.99162 524.761704 11.99162z" fill="#6E6E96" p-id="2653"></path><path d="M703.64261 210.243603c32.781824 84.972291 73.356322 179.903511 73.356322 275.0476 0 213.67455-100.273814 326.211287-260.317901 326.211287-160.056609 0-260.326249-122.654275-260.326249-336.324651 0-92.781661 28.779052-187.474969 70.159113-264.917541C380.432358 109.352051 389.840332 37.707028 516.672683 37.707028c101.530159 0 144.18326 61.64018 186.969927 172.536575z" fill="#A9A9BA" p-id="2654"></path><path d="M632.314803 208.348651c0 22.584982-17.029519 23.645153-43.450316 38.053462-18.795079 10.234407-42.340059 34.630862-67.901033 34.630862-22.964807 0-44.31014-24.584281-62.032527-34.630862-29.73905-16.862563-49.297953-20.14325-49.297953-38.053462 0 0 49.844734-12.23788 111.33048-12.23788 61.498268 0 111.35135 12.23788 111.351349 12.23788z" fill="#6E6E96" opacity=".59" p-id="2655"></path><path d="M786.118907 633.452192c0 197.417203-100.682857 301.372398-261.357203 301.372398-160.686868 0-261.348855-113.304736-261.348855-310.71359 0-197.421377 153.253149-320.071478 261.348855-320.071478 108.108228 0 261.357203 131.999641 261.357203 329.41267z" fill="#F0F0FF" p-id="2656"></path><path d="M775.684153 633.452192c0 184.895498-91.458534 290.937644-250.922449 290.937644-157.114008 0-250.914101-112.257086-250.9141-300.278836 0-86.21194 31.01209-166.805808 87.318023-226.935036 47.770305-51.009253 110.458135-82.697514 163.591904-82.697514 99.902337-0.004174 250.926622 127.21635 250.926622 318.973742zM524.761704 293.604767c-58.718449 0-127.241393 34.217646-178.826644 89.304801-59.945576 64.006783-92.956965 149.667767-92.956965 241.201432 0 98.625123 25.21454 180.28751 72.913889 236.163532 47.469784 55.596371 116.238988 84.984813 198.86972 84.984812 83.173339 0 151.888283-27.714707 198.711113-80.138912 48.49239-54.289939 73.080845-132.23338 73.080845-231.66824 0-207.455436-160.970693-339.847424-271.791958-339.847425z" fill="#6E6E96" p-id="2657"></path><path d="M458.555276 100.181989a19.963772 15.881696 90 1 0 31.763392 0 19.963772 15.881696 90 1 0-31.763392 0Z" fill="#6E6E96" p-id="2658"></path><path d="M556.742139 101.525985a21.307768 16.954389 90 1 0 33.908778 0 21.307768 16.954389 90 1 0-33.908778 0Z" fill="#6E6E96" p-id="2659"></path><path d="M637.30679 194.829384c0-4.895987-16.052826-3.322426-41.279888-14.5377-20.176641-8.957193-46.209266-31.604784-74.650232-31.604784-32.001304 0-60.980704 22.334548-81.967081 31.629827-20.973856 9.295279-33.950516 5.551289-33.950517 14.516831h-0.004174c0 14.207961 20.36864 16.812476 51.322296 30.194004 18.461167 7.967978 40.687194 21.616637 64.595302 21.616637 26.600276 0 51.1136-13.494224 70.676678-21.616637 27.43923-11.398926 45.132399-12.279619 45.236746-30.052092a0.646955 0.646955 0 0 0 0.02087-0.146086z" fill="#FFE38F" p-id="2660"></path><path d="M722.934383 589.855788c0 159.835392-81.5163 244.006293-211.616816 244.006294s-211.604295-91.738185-211.604294-251.569403 124.08175-259.140861 211.604294-259.140861c87.530893-0.004174 211.616816 106.868579 211.616816 266.70397z" fill="#FFFFFF" p-id="2661"></path><path d="M413.084791 198.047462h218.098885S561.825952 246.635852 521.37667 246.635852c-40.43676 0-115.863337-36.888943-108.291879-48.58839z" fill="#6E6E96" opacity=".15" p-id="2662"></path></svg>