<?xml version="1.0" standalone="no"?><!DOCTYPE svg PUBLIC "-//W3C//DTD SVG 1.1//EN" "http://www.w3.org/Graphics/SVG/1.1/DTD/svg11.dtd"><svg t="1649679944721" class="icon" viewBox="0 0 1024 1024" version="1.1" xmlns="http://www.w3.org/2000/svg" p-id="1905" xmlns:xlink="http://www.w3.org/1999/xlink" width="200" height="200"><defs><style type="text/css">@font-face { font-family: "feedback-iconfont"; src: url("//at.alicdn.com/t/font_1031158_u69w8yhxdu.woff2?t=1630033759944") format("woff2"), url("//at.alicdn.com/t/font_1031158_u69w8yhxdu.woff?t=1630033759944") format("woff"), url("//at.alicdn.com/t/font_1031158_u69w8yhxdu.ttf?t=1630033759944") format("truetype"); }
</style></defs><path d="M768 704h64v64h-64zM768 640h64v64h-64zM768 576h64v64h-64zM768 512h64v64h-64zM768 448h64v64h-64zM768 384h64v64h-64zM768 320h64v64h-64zM768 256h64v64h-64zM704 768h64v64h-64z" fill="#333333" p-id="1906"></path><path d="M704 704h64v64h-64zM704 640h64v64h-64zM704 576h64v64h-64zM704 512h64v64h-64zM704 448h64v64h-64zM704 384h64v64h-64zM704 320h64v64h-64zM704 256h64v64h-64z" fill="#0C33AF" p-id="1907"></path><path d="M704 192h64v64h-64zM640 832h64v64h-64z" fill="#333333" p-id="1908"></path><path d="M640 768h64v64h-64z" fill="#D3D9ED" p-id="1909"></path><path d="M640 704h64v64h-64zM640 640h64v64h-64zM640 576h64v64h-64z" fill="#2B49C9" p-id="1910"></path><path d="M640 512h64v64h-64zM640 448h64v64h-64z" fill="#FF4D4D" p-id="1911"></path><path d="M640 384h64v64h-64zM640 320h64v64h-64zM640 256h64v64h-64z" fill="#2B49C9" p-id="1912"></path><path d="M640 192h64v64h-64z" fill="#D3D9ED" p-id="1913"></path><path d="M640 128h64v64h-64zM576 832h64v64h-64z" fill="#333333" p-id="1914"></path><path d="M576 768h64v64h-64z" fill="#E4E8F2" p-id="1915"></path><path d="M576 704h64v64h-64zM576 640h64v64h-64z" fill="#2B49C9" p-id="1916"></path><path d="M576 576h64v64h-64zM576 512h64v64h-64zM576 448h64v64h-64zM576 384h64v64h-64z" fill="#FF4D4D" p-id="1917"></path><path d="M576 320h64v64h-64zM576 256h64v64h-64z" fill="#2B49C9" p-id="1918"></path><path d="M576 192h64v64h-64z" fill="#E4E8F2" p-id="1919"></path><path d="M576 128h64v64h-64zM512 832h64v64h-64z" fill="#333333" p-id="1920"></path><path d="M512 768h64v64h-64z" fill="#E4E8F2" p-id="1921"></path><path d="M512 704h64v64h-64zM512 640h64v64h-64z" fill="#2B49C9" p-id="1922"></path><path d="M512 576h64v64h-64z" fill="#FF4D4D" p-id="1923"></path><path d="M512 512h64v64h-64zM512 448h64v64h-64z" fill="#F3F7FF" p-id="1924"></path><path d="M512 384h64v64h-64z" fill="#FF4D4D" p-id="1925"></path><path d="M512 320h64v64h-64zM512 256h64v64h-64z" fill="#2B49C9" p-id="1926"></path><path d="M512 192h64v64h-64z" fill="#E4E8F2" p-id="1927"></path><path d="M512 128h64v64h-64zM448 832h64v64h-64z" fill="#333333" p-id="1928"></path><path d="M448 768h64v64h-64z" fill="#E4E8F2" p-id="1929"></path><path d="M448 704h64v64h-64zM448 640h64v64h-64z" fill="#2B49C9" p-id="1930"></path><path d="M448 576h64v64h-64zM448 512h64v64h-64z" fill="#4D6ED6" p-id="1931"></path><path d="M448 448h64v64h-64zM448 384h64v64h-64z" fill="#F3F7FF" p-id="1932"></path><path d="M448 320h64v64h-64zM448 256h64v64h-64z" fill="#2B49C9" p-id="1933"></path><path d="M448 192h64v64h-64z" fill="#E4E8F2" p-id="1934"></path><path d="M448 128h64v64h-64zM384 832h64v64h-64z" fill="#333333" p-id="1935"></path><path d="M384 768h64v64h-64z" fill="#F3F7FF" p-id="1936"></path><path d="M384 704h64v64h-64zM384 640h64v64h-64zM384 576h64v64h-64z" fill="#2B49C9" p-id="1937"></path><path d="M384 512h64v64h-64zM384 448h64v64h-64z" fill="#4D6ED6" p-id="1938"></path><path d="M384 384h64v64h-64zM384 320h64v64h-64zM384 256h64v64h-64z" fill="#2B49C9" p-id="1939"></path><path d="M384 192h64v64h-64z" fill="#F3F7FF" p-id="1940"></path><path d="M384 128h64v64h-64zM320 832h64v64h-64z" fill="#333333" p-id="1941"></path><path d="M320 768h64v64h-64z" fill="#F3F7FF" p-id="1942"></path><path d="M320 704h64v64h-64zM320 640h64v64h-64zM320 576h64v64h-64zM320 512h64v64h-64zM320 448h64v64h-64zM320 384h64v64h-64zM320 320h64v64h-64zM320 256h64v64h-64z" fill="#2B49C9" p-id="1943"></path><path d="M320 192h64v64h-64z" fill="#F3F7FF" p-id="1944"></path><path d="M320 128h64v64h-64zM256 768h64v64h-64z" fill="#333333" p-id="1945"></path><path d="M256 704h64v64h-64zM256 640h64v64h-64zM256 576h64v64h-64zM256 512h64v64h-64zM256 448h64v64h-64zM256 384h64v64h-64zM256 320h64v64h-64zM256 256h64v64h-64z" fill="#547BDD" p-id="1946"></path><path d="M256 192h64v64h-64zM192 704h64v64h-64zM192 640h64v64h-64zM192 576h64v64h-64zM192 512h64v64h-64zM192 448h64v64h-64zM192 384h64v64h-64zM192 320h64v64h-64zM192 256h64v64h-64z" fill="#333333" p-id="1947"></path></svg>