<?xml version="1.0" standalone="no"?><!DOCTYPE svg PUBLIC "-//W3C//DTD SVG 1.1//EN" "http://www.w3.org/Graphics/SVG/1.1/DTD/svg11.dtd"><svg t="1649679949898" class="icon" viewBox="0 0 1024 1024" version="1.1" xmlns="http://www.w3.org/2000/svg" p-id="2085" xmlns:xlink="http://www.w3.org/1999/xlink" width="200" height="200"><defs><style type="text/css">@font-face { font-family: "feedback-iconfont"; src: url("//at.alicdn.com/t/font_1031158_u69w8yhxdu.woff2?t=1630033759944") format("woff2"), url("//at.alicdn.com/t/font_1031158_u69w8yhxdu.woff?t=1630033759944") format("woff"), url("//at.alicdn.com/t/font_1031158_u69w8yhxdu.ttf?t=1630033759944") format("truetype"); }
</style></defs><path d="M832.57 313.76h59.56v59.56h-59.56zM773.01 790.24h59.55v59.56h-59.55zM773.01 730.68h59.55v59.55h-59.55z" fill="#333333" p-id="2086"></path><path d="M773.01 671.12h59.55v59.56h-59.55zM773.01 611.57h59.55v59.55h-59.55zM773.01 552h59.55v59.56h-59.55zM773.01 492.45h59.55V552h-59.55zM773.01 432.88h59.55v59.56h-59.55z" fill="#333333" p-id="2087"></path><path d="M773.01 313.76h59.55v59.56h-59.55z" fill="#999999" p-id="2088"></path><path d="M773.01 254.21h59.55v59.55h-59.55zM713.45 849.8h59.56v59.56h-59.56z" fill="#333333" p-id="2089"></path><path d="M713.45 790.24h59.56v59.56h-59.56zM713.45 730.68h59.56v59.55h-59.56z" fill="#999999" p-id="2090"></path><path d="M713.45 671.12h59.56v59.56h-59.56zM713.45 611.57h59.56v59.55h-59.56zM713.45 552h59.56v59.56h-59.56zM713.45 492.45h59.56V552h-59.56z" fill="#999999" p-id="2091"></path><path d="M713.45 432.88h59.56v59.56h-59.56z" fill="#CCCCCC" p-id="2092"></path><path d="M713.45 313.76h59.56v59.56h-59.56z" fill="#999999" p-id="2093"></path><path d="M713.45 254.21h59.56v59.55h-59.56zM653.89 849.8h59.55v59.56h-59.55z" fill="#333333" p-id="2094"></path><path d="M653.89 790.24h59.55v59.56h-59.55zM653.89 730.68h59.55v59.55h-59.55z" fill="#999999" p-id="2095"></path><path d="M653.89 671.12h59.55v59.56h-59.55zM653.89 611.57h59.55v59.55h-59.55zM653.89 552h59.55v59.56h-59.55zM653.89 492.45h59.55V552h-59.55zM653.89 432.88h59.55v59.56h-59.55z" fill="#CCCCCC" p-id="2096"></path><path d="M653.89 313.76h59.55v59.56h-59.55z" fill="#999999" p-id="2097"></path><path d="M653.89 254.21h59.55v59.55h-59.55zM594.33 849.8h59.56v59.56h-59.56z" fill="#333333" p-id="2098"></path><path d="M594.33 790.24h59.56v59.56h-59.56z" fill="#999999" p-id="2099"></path><path d="M594.33 730.68h59.56v59.55h-59.56z" fill="#CCCCCC" p-id="2100"></path><path d="M594.33 671.12h59.56v59.56h-59.56z" fill="#CCCCCC" p-id="2101"></path><path d="M594.33 611.57h59.56v59.55h-59.56zM594.33 552h59.56v59.56h-59.56zM594.33 492.45h59.56V552h-59.56z" fill="#333333" p-id="2102"></path><path d="M594.33 432.88h59.56v59.56h-59.56zM594.33 313.76h59.56v59.56h-59.56z" fill="#CCCCCC" p-id="2103"></path><path d="M594.33 254.21h59.56v59.55h-59.56zM594.33 194.64h59.56v59.56h-59.56zM534.77 849.8h59.55v59.56h-59.55z" fill="#333333" p-id="2104"></path><path d="M534.77 790.24h59.55v59.56h-59.55z" fill="#999999" p-id="2105"></path><path d="M534.77 730.68h59.55v59.55h-59.55z" fill="#CCCCCC" p-id="2106"></path><path d="M534.77 671.12h59.55v59.56h-59.55zM534.77 611.57h59.55v59.55h-59.55zM534.77 552h59.55v59.56h-59.55zM534.77 492.45h59.55V552h-59.55zM534.77 432.88h59.55v59.56h-59.55zM534.77 313.76h59.55v59.56h-59.55z" fill="#CCCCCC" p-id="2107"></path><path d="M534.77 254.21h59.55v59.55h-59.55zM534.77 194.64h59.55v59.56h-59.55zM534.77 135.09h59.55v59.55h-59.55zM475.21 849.8h59.56v59.56h-59.56z" fill="#333333" p-id="2108"></path><path d="M475.21 790.24h59.56v59.56h-59.56z" fill="#999999" p-id="2109"></path><path d="M475.21 730.68h59.56v59.55h-59.56z" fill="#CCCCCC" p-id="2110"></path><path d="M475.21 671.12h59.56v59.56h-59.56zM475.21 611.57h59.56v59.55h-59.56zM475.21 552h59.56v59.56h-59.56zM475.21 492.45h59.56V552h-59.56zM475.21 432.88h59.56v59.56h-59.56zM475.21 313.76h59.56v59.56h-59.56z" fill="#CCCCCC" p-id="2111"></path><path d="M475.21 254.21h59.56v59.55h-59.56z" fill="#333333" p-id="2112"></path><path d="M475.21 194.64h59.56v59.56h-59.56z" fill="#CCCCCC" p-id="2113"></path><path d="M475.21 135.09h59.56v59.55h-59.56zM415.65 849.8h59.55v59.56h-59.55z" fill="#333333" p-id="2114"></path><path d="M415.65 790.24h59.55v59.56h-59.55z" fill="#999999" p-id="2115"></path><path d="M415.65 730.68h59.55v59.55h-59.55z" fill="#CCCCCC" p-id="2116"></path><path d="M415.65 671.12h59.55v59.56h-59.55zM415.65 611.57h59.55v59.55h-59.55zM415.65 552h59.55v59.56h-59.55zM415.65 492.45h59.55V552h-59.55zM415.65 432.88h59.55v59.56h-59.55zM415.65 313.76h59.55v59.56h-59.55z" fill="#CCCCCC" p-id="2117"></path><path d="M415.65 254.21h59.55v59.55h-59.55z" fill="#333333" p-id="2118"></path><path d="M415.65 194.64h59.55v59.56h-59.55z" fill="#CCCCCC" p-id="2119"></path><path d="M415.65 135.09h59.55v59.55h-59.55zM356.09 849.8h59.56v59.56h-59.56z" fill="#333333" p-id="2120"></path><path d="M356.09 790.24h59.56v59.56h-59.56z" fill="#E5E5E5" p-id="2121"></path><path d="M356.09 730.68h59.56v59.55h-59.56z" fill="#CCCCCC" p-id="2122"></path><path d="M356.09 671.12h59.56v59.56h-59.56z" fill="#CCCCCC" p-id="2123"></path><path d="M356.09 611.57h59.56v59.55h-59.56zM356.09 552h59.56v59.56h-59.56zM356.09 492.45h59.56V552h-59.56z" fill="#333333" p-id="2124"></path><path d="M356.09 432.88h59.56v59.56h-59.56zM356.09 313.76h59.56v59.56h-59.56z" fill="#CCCCCC" p-id="2125"></path><path d="M356.09 254.21h59.56v59.55h-59.56zM356.09 194.64h59.56v59.56h-59.56zM296.54 849.8h59.55v59.56h-59.55z" fill="#333333" p-id="2126"></path><path d="M296.54 790.24h59.55v59.56h-59.55zM296.54 730.68h59.55v59.55h-59.55z" fill="#E5E5E5" p-id="2127"></path><path d="M296.54 671.12h59.55v59.56h-59.55zM296.54 611.57h59.55v59.55h-59.55zM296.54 552h59.55v59.56h-59.55zM296.54 492.45h59.55V552h-59.55zM296.54 432.88h59.55v59.56h-59.55zM296.54 313.76h59.55v59.56h-59.55z" fill="#CCCCCC" p-id="2128"></path><path d="M296.54 254.21h59.55v59.55h-59.55zM236.97 849.8h59.56v59.56h-59.56z" fill="#333333" p-id="2129"></path><path d="M236.97 790.24h59.56v59.56h-59.56zM236.97 730.68h59.56v59.55h-59.56z" fill="#E5E5E5" p-id="2130"></path><path d="M236.97 671.12h59.56v59.56h-59.56zM236.97 611.57h59.56v59.55h-59.56zM236.97 552h59.56v59.56h-59.56zM236.97 492.45h59.56V552h-59.56zM236.97 432.88h59.56v59.56h-59.56zM236.97 313.76h59.56v59.56h-59.56z" fill="#E5E5E5" p-id="2131"></path><path d="M236.97 254.21h59.56v59.55h-59.56zM177.41 790.24h59.56v59.56h-59.56zM177.41 730.68h59.56v59.55h-59.56z" fill="#333333" p-id="2132"></path><path d="M177.41 671.12h59.56v59.56h-59.56zM177.41 611.57h59.56v59.55h-59.56zM177.41 552h59.56v59.56h-59.56zM177.41 492.45h59.56V552h-59.56zM177.41 432.88h59.56v59.56h-59.56z" fill="#333333" p-id="2133"></path><path d="M177.41 313.76h59.56v59.56h-59.56z" fill="#E5E5E5" p-id="2134"></path><path d="M177.41 254.21h59.56v59.55h-59.56zM117.85 313.76h59.55v59.56h-59.55z" fill="#333333" p-id="2135"></path></svg>