<svg xmlns="http://www.w3.org/2000/svg" viewBox="0 0 500.79 334.65"><defs><style>.cls-1{fill:#0c0b0b;}.cls-17,.cls-2{fill:#171628;}.cls-3{fill:#fff;}.cls-4{fill:#dfdff4;}.cls-5{fill:#d62316;}.cls-6{fill:#c5cc2f;}.cls-7{fill:#84780c;}.cls-8{fill:#443f3e;}.cls-9{fill:#3d2927;}.cls-10{fill:#c9c9c9;}.cls-11{opacity:0.2;}.cls-12{fill:#302524;}.cls-13{fill:#999;}.cls-14{fill:#d16822;}.cls-15{fill:#919191;}.cls-16{fill:#443e3d;}.cls-17{fill-rule:evenodd;}</style></defs><g id="图层_2" data-name="图层 2"><g id="图层_2-2" data-name="图层 2"><ellipse class="cls-1" cx="255.93" cy="325.29" rx="229.25" ry="9.36"/><path class="cls-2" d="M284.55,9c7.27.42,5.8,10.46,33.17,28.68a115.69,115.69,0,0,1,14.12,4.89c11.86,4.84,23.33,10.85,34.43,16.67,4.78,2.51,9.72,5.1,14.57,7.53q13.19,6.6,26.41,13.16L430.6,91.55l1,.51A124.38,124.38,0,0,1,442,80.9c13.34-13,22.84-17.76,29.5-20.62A16,16,0,0,1,477.78,59a17.81,17.81,0,0,1,6.67,1.27c2.54,1.91-2.18,8.89-2.18,8.89.49,8.56-1.15,10.15-1.15,10.15s4.08,9.51,1.16,10.15a14.37,14.37,0,0,0-7.66,6.66c-2.22,4.12-1.9,26.64-2.22,38.37-.1,3.88-.14,7.95-.45,11.66.34.46.6.84.77,1.13,3.23,5.66,9.55,27.53,9.55,103,0,3.53,0,7.17,0,10.94a149.58,149.58,0,0,1,9.2,34.52s1.27,6.27-1.11,9.52-6.9,5.31-13.32,7.61c-6.08,2.18-19.58,5.3-24.23,6.35-.32.07-1.38.28-1.62.36-2.33.85-39.75,2.33-64.92,2.33-11.49,0-25,.35-36.32.35-13.5,0-24-.5-24.57-2.68l-57.13-.78h-.39a37.7,37.7,0,0,1-5.71.79c-8.62.57-17.79.76-26.17.76-13,0-24.16-.46-28.42-.66a1.91,1.91,0,0,1-1.82-1.88c0-3.09-.69-8.79-6.81-8.79-5.82,0-7.31,5.26-7.69,8a1.9,1.9,0,0,1-1.83,1.61c-3.18.1-6.34.15-9.43.15a388.18,388.18,0,0,1-41.24-2.32,1.91,1.91,0,0,1-1.69-1.93c0-3.67-.78-10.45-7.69-11.07a7.57,7.57,0,0,0-.81,0c-5.43,0-7,5.24-7.46,8.08a1.9,1.9,0,0,1-1.86,1.58H119c-4.64-.52-16.56-1.9-21.78-2.74-4-.65-7.58-.75-9.81-2.39C83.27,307,37.14,296.83,23.8,293,9.85,289,9,271.84,9,269.31a3.3,3.3,0,0,1,2.33-3.18s.84-11.84,1.27-17.12a5.68,5.68,0,0,1,1.61-3.66,9.18,9.18,0,0,1,2.69-1.8c1-.51,1.83-.83,1.83-1.31,0-1.27,6.45-26.33,6.66-27.07s1.59-6,1.59-6c.44-2.1,2.68-2.51,4.39-2.51a11.76,11.76,0,0,1,2.05.18c13.64-12,45-29.18,47.9-31.4,2.47-1.92,11.15-7.19,13.41-8.55a2.24,2.24,0,0,1,1.18-.33h3.17l11.74-6.66s43.45-18.93,51.91-22.31,1.69-5.92,14.8-14.8,30-25,38.06-32.14,31-38.06,35-44.83S262.78,34,266.25,28.88,276.3,9,283.78,9h.77m.26-9h-1C272.68,0,265.94,11.65,261,20.15c-.86,1.48-1.67,2.88-2.2,3.65A40,40,0,0,1,253.65,29c-3.73,3.4-8,7.25-10.86,12.26-3.74,6.44-26.09,36.29-33.2,42.64l-4.94,4.48c-8.7,7.94-21.85,19.93-32.17,26.92-8.39,5.68-10.77,9.84-12.48,13.62v0l-.6.25c-8.49,3.39-50.39,21.64-52.16,22.42l-.44.19-.41.23-9.68,5.49h-.79a11.29,11.29,0,0,0-5.83,1.62c-2.59,1.56-11.17,6.77-14.19,9.08-.77.53-3.9,2.38-6.66,4-10.67,6.31-27.91,16.51-38.91,25.4-7.35.42-11.07,5.14-12.08,9.33-.65,2.51-1.39,5.3-1.51,5.72-.16.59-1.92,7.4-3.48,13.6-1.23,4.91-2,8.17-2.55,10.39a16.43,16.43,0,0,0-2.94,2.37,14.73,14.73,0,0,0-4.13,9.23c-.28,3.41-.72,9.44-1,13.39A12,12,0,0,0,0,269.31c0,9.73,4.49,27.48,21.31,32.33C33,305,68.32,312.93,84,316.41c3.09,1.62,6.41,2.06,9.4,2.47.78.1,1.58.21,2.36.34,6.15,1,20.53,2.61,22.2,2.79a10.31,10.31,0,0,0,1.24.07,10.87,10.87,0,0,0,9.13-4.94,10.86,10.86,0,0,0,9.38,8.26,392.11,392.11,0,0,0,42.24,2.38c3.31,0,6.58,0,9.72-.15a11,11,0,0,0,8.44-4.43,10.9,10.9,0,0,0,9,5.52c4.28.2,15.61.67,28.86.67,9.92,0,18.91-.26,26.72-.78a49,49,0,0,0,6-.75l53.59.73c3.24,1.58,7.08,1.93,9.67,2.16,4.21.39,9.91.56,18,.56,5.72,0,12-.09,18.18-.17s12.44-.18,18.14-.18c11.56,0,27-.32,41.36-.85,20.79-.78,24.5-1.34,26.09-1.84l.56-.11.45-.1h.06c5.46-1.23,18.85-4.35,25.29-6.66,6.62-2.37,13.44-5.16,17.54-10.76,4.22-5.76,3.24-13.59,2.73-16.32a160.49,160.49,0,0,0-9.07-34.76c0-2.88,0-5.92,0-9.22,0-56.4-3.51-93.1-10.15-106.41.12-2.34.17-4.7.23-7,0-.73,0-1.46,0-2.18.07-2.62.11-5.75.15-9.06.09-7.16.28-21.83,1.21-25.64a5.25,5.25,0,0,1,2.47-2,10.19,10.19,0,0,0,5.85-5c.68-1.33,2.61-5.08-.37-13.78a34.64,34.64,0,0,0,.65-7.68c.4-.74.82-1.58,1.21-2.47,4.22-9.73-1-14.66-2.71-15.94l-.8-.61-.92-.41A26.73,26.73,0,0,0,477.78,50a24.81,24.81,0,0,0-9.87,2c-8.14,3.49-18.33,8.89-32.24,22.44q-3.5,3.4-6.29,6.44-9.08-4.53-18.13-9c-8.65-4.3-17.6-8.75-26.38-13.15-4.94-2.47-10.19-5.23-14.42-7.45-11.27-5.91-22.92-12-35.21-17a128.59,128.59,0,0,0-13.72-4.85c-13.73-9.31-19-16-22.54-20.4-3.2-4-6.81-8.57-13.91-9l-.26,0Z"/><path class="cls-3" d="M491.43,295.79a149.58,149.58,0,0,0-9.2-34.52c0-3.77,0-7.41,0-10.94,0-75.51-6.32-97.38-9.55-103-.17-.29-.43-.67-.77-1.13.31-3.71.35-7.78.45-11.66.32-11.73,0-34.25,2.22-38.37a14.37,14.37,0,0,1,7.66-6.66c2.92-.64-1.16-10.15-1.16-10.15s1.64-1.59,1.15-10.15c0,0,4.72-7,2.18-8.89a17.56,17.56,0,0,0-13,0c-6.66,2.86-16.16,7.62-29.5,20.62a124.38,124.38,0,0,0-10.34,11.16l-1-.51L407.25,79.93Q394,73.36,380.84,66.77c-4.85-2.43-9.79-5-14.57-7.53-11.1-5.82-22.57-11.83-34.43-16.67a115.69,115.69,0,0,0-14.12-4.89C290.35,19.46,291.82,9.42,284.55,9h-.45c-7.61-.43-14.38,14.8-17.85,19.87S254.5,39,250.57,45.8s-26.94,37.64-35,44.83-25,23.26-38.06,32.14-6.34,11.42-14.8,14.8-51.91,22.31-51.91,22.31l-11.74,6.66H95.91a2.24,2.24,0,0,0-1.18.33c-2.26,1.36-10.94,6.63-13.41,8.55-2.86,2.22-34.26,19.35-47.9,31.4,0,0-5.7-1.16-6.44,2.33,0,0-1.38,5.28-1.59,6s-6.66,25.8-6.66,27.07c0,.48-.81.8-1.83,1.31a9.18,9.18,0,0,0-2.69,1.8A5.68,5.68,0,0,0,12.6,249c-.43,5.28-1.27,17.12-1.27,17.12A3.3,3.3,0,0,0,9,269.31C9,271.84,9.85,289,23.8,293c13.34,3.84,59.47,14,63.57,14.95,2.23,1.64,5.78,1.74,9.81,2.39,5.22.84,17.14,2.22,21.78,2.74a1.89,1.89,0,0,0,2.09-1.57c.47-3,2.19-8.59,8.27-8,6.91.62,7.73,7.4,7.69,11.07a1.91,1.91,0,0,0,1.69,1.93,376.74,376.74,0,0,0,50.67,2.17A1.9,1.9,0,0,0,191.2,317c.38-2.7,1.87-8,7.69-8,6.12,0,6.8,5.7,6.81,8.79a1.91,1.91,0,0,0,1.82,1.88c7,.33,32.57,1.35,54.59-.1a37.7,37.7,0,0,0,5.71-.79h.39l57.13.78c1.05,4,35.73,2.33,60.89,2.33s62.59-1.48,64.92-2.33c.24-.08,1.3-.29,1.62-.36,4.65-1,18.15-4.17,24.23-6.35,6.42-2.3,10.94-4.36,13.32-7.61S491.43,295.79,491.43,295.79Z"/><path class="cls-4" d="M491.43,294.91a152.73,152.73,0,0,0-8.64-33.14,1.28,1.28,0,0,0-1.76-.67c-5,2.34-19.47,4-22.08,4.31a1.25,1.25,0,0,1-.76-.15c-3.17-1.8-26.83-15.08-34.32-15.87-7.79-.82-18.94,3.12-19.63,3.36l-.08,0-42.88,12.47h0c-4-3-12.48-4.23-26.43.42s-50.53,16.5-64.14,15.86a35.38,35.38,0,0,1-4.46-.5c-12.08-2.07-23.9-9.78-33.32-14.3-10.57-5.07-25.58-4-39.75-3.38-7.59.34-27.6,3.4-48.23,5.43-17.9,1.77-36.25,2.75-47.35.49-6.72-1.37-13.37-3.17-19.69-5.11-16.13-5-30.09-10.87-37.61-13.08-9.21-2.7-20.32-7.17-22.86-8.2a1.26,1.26,0,0,0-1.09.06,6.16,6.16,0,0,0-3.75,5.18c-.35,4.48-1,13.66-1.21,16.36a1.26,1.26,0,0,1-.65,1A3.18,3.18,0,0,0,9,268.42c0,2.54.84,19.67,14.8,23.68,13.3,3.83,59.26,14,63.54,14.95h0c2.23,1.65,5.79,1.74,9.82,2.39,5.47.88,18.26,2.35,22.38,2.81a1.28,1.28,0,0,0,1.41-1.12c.36-2.78,1.89-9.14,8.35-8.56,7.27.65,7.81,8.11,7.68,11.61a1.29,1.29,0,0,0,1.13,1.32,375.29,375.29,0,0,0,51.78,2.23,1.29,1.29,0,0,0,1.24-1.16c.28-2.51,1.59-8.39,7.74-8.39,6.51,0,6.87,6.43,6.81,9.33a1.27,1.27,0,0,0,1.21,1.3c6,.29,32.49,1.42,55.2-.06a39.35,39.35,0,0,0,5.56-.77,1.73,1.73,0,0,1,.32,0c2.24.08,27.72,1,56.77.8a1.13,1.13,0,0,1,.82.41c3.29,3.49,36.39,1.91,60.66,1.91,25.16,0,62.59-1.48,64.91-2.32.24-.09,1.3-.29,1.62-.36,4.66-1.06,18.15-4.18,24.23-6.36,6.43-2.3,10.95-4.36,13.33-7.61S491.43,294.91,491.43,294.91Z"/><path class="cls-2" d="M87.05,309.07c-.5-.11-50.13-11.06-64-15.05C7,289.4,6.82,269.27,6.82,268.42A5.16,5.16,0,0,1,9.23,264c.22-3.1.85-11.73,1.19-16,.37-4.67,3.88-6.36,5.76-7.27l.5-.24c.93-4.92,6.54-26.5,6.6-26.71.17-.59,1.19-4.52,1.58-6,.79-3.74,4.88-4.28,7.77-3.95,10.33-8.87,29.53-20.23,39.95-26.4,3.58-2.11,6.66-3.94,7.33-4.46,2.53-2,11-7.14,13.6-8.68a4.25,4.25,0,0,1,2.22-.62h2.64l11.46-6.49c.44-.19,43.58-19,52-22.33,3.2-1.28,3.59-2.15,4.38-3.88,1.09-2.39,2.58-5.67,10-10.72,10.71-7.26,24.06-19.43,32.9-27.48,1.87-1.72,3.55-3.24,4.95-4.5,8-7.11,30.94-38.07,34.58-44.34,2.37-4.08,6.18-7.55,9.54-10.61a43.22,43.22,0,0,0,6.23-6.43c.67-1,1.51-2.43,2.47-4.1,4.17-7.2,9.84-17,17.14-16.65,4,.22,5.91,2.66,8.83,6.34,4,5.09,10.8,13.6,29.34,25.26l-2.13,3.39C301,29.08,293.93,20.23,289.73,15c-2.84-3.58-3.84-4.72-5.92-4.83-4.78-.3-10.22,9.07-13.46,14.65-1,1.74-1.87,3.24-2.63,4.36a45.49,45.49,0,0,1-6.84,7.13c-3.3,3-6.71,6.11-8.77,9.66-3.81,6.56-27,37.81-35.37,45.31-1.4,1.25-3.06,2.77-4.93,4.47-8.92,8.13-22.4,20.42-33.34,27.84-6.53,4.42-7.71,7-8.65,9.06-1.11,2.46-2.17,4.19-6.53,5.94-8.15,3.26-49.46,21.24-51.76,22.24l-12.11,6.87H95.73a.24.24,0,0,0-.15,0c-5.16,3.12-11.34,7-13.22,8.42-.82.64-3.09,2-7.74,4.75-10.56,6.24-30.21,17.87-40.06,26.57l-.74.66-1-.2c-1-.19-3.85-.37-4.09.78-.08.31-1.41,5.41-1.62,6.17-.38,1.35-6.31,24.5-6.59,26.6-.05,1.62-1.47,2.3-2.62,2.86-2,.93-3.34,1.77-3.51,4-.42,5.22-1.26,17-1.27,17.11L13,266.8l-1.37.38a1.21,1.21,0,0,0-.85,1.24c0,.73.15,18,13.35,21.76,13.74,3.95,63.24,14.87,63.74,15ZM20.54,241.35v0Zm-4-.3a2.53,2.53,0,0,0,0,.3A2.13,2.13,0,0,1,16.57,241.05Z"/><path class="cls-5" d="M89.59,292.74s-5.28,1.69-4.86,8.88,5.71,6.76,12.26,7.82c5.22.84,17.14,2.22,21.79,2.75a1.89,1.89,0,0,0,2.08-1.58c.48-3,2.19-8.59,8.27-8,6.91.62,7.74,7.4,7.7,11.07a1.9,1.9,0,0,0,1.68,1.93,378.22,378.22,0,0,0,50.68,2.18,1.9,1.9,0,0,0,1.82-1.62c.38-2.7,1.88-8,7.69-8,6.13,0,6.81,5.7,6.82,8.79a1.89,1.89,0,0,0,1.81,1.88c7,.33,32.58,1.35,54.6-.1,0,0,7.4-.42,8.46-2.11s-3-16.27-49.86-26l-.1,0c-1.31-.2-29.48-4.59-39.53-4.14a1.87,1.87,0,0,0-.89.28c-2.17,1.31-12.7,7.26-23.86,6.41-12.53-1-23.79-6.82-27.6-7.46S105.35,285.65,89.59,292.74Z"/><path class="cls-2" d="M235.82,321.5c-13,0-24.15-.46-28.58-.66a3.89,3.89,0,0,1-3.72-3.88c0-6.79-3.51-6.79-4.82-6.79-4,0-5.31,3.39-5.71,6.24a3.88,3.88,0,0,1-3.74,3.33,377.73,377.73,0,0,1-51-2.18,3.9,3.9,0,0,1-3.46-3.94c.06-5.66-1.92-8.71-5.87-9.06-3.33-.3-5.4,1.84-6.12,6.37a3.9,3.9,0,0,1-4.29,3.24c-4.84-.55-16.67-1.92-21.87-2.76-.88-.14-1.74-.25-2.56-.36-5.37-.72-10.93-1.46-11.39-9.32-.4-6.79,3.77-10,6.13-10.86,16.61-7.44,36.44-7.74,40-7.14a39.89,39.89,0,0,1,6,1.93c5.23,1.94,13.13,4.87,21.44,5.5,10.59.8,20.74-5,22.67-6.12a3.81,3.81,0,0,1,1.83-.57c10.32-.45,38.74,4,39.94,4.17l.2,0c40,8.31,49,20,50.95,24.61.77,1.81.84,3.37.19,4.41-1.33,2.12-6.19,2.83-10,3.05C253.4,321.31,244.22,321.5,235.82,321.5Zm-28.3-4.66c7.35.35,32.54,1.33,54.28-.09a26,26,0,0,0,6.64-1.13c-.68-2.27-6.29-14.31-48.31-23-10.07-1.58-31.22-4.47-39.15-4.12-2,1.26-13.18,7.59-25,6.68-8.87-.67-17.09-3.72-22.53-5.73a39.49,39.49,0,0,0-5.25-1.74c-2.89-.49-22-.23-37.81,6.88l-.19.07c-.42.15-3.81,1.53-3.49,6.87.25,4.34,2.23,4.82,7.92,5.58.86.12,1.75.24,2.66.39,5.09.82,16.72,2.16,21.59,2.72,1.09-6.51,5-10.09,10.41-9.61,6.11.54,9.58,5.29,9.52,13A375.45,375.45,0,0,0,189,315.75c.89-6,4.49-9.58,9.66-9.58C204.26,306.17,207.47,310.06,207.52,316.84Z"/><path class="cls-6" d="M491.25,294.9s-21.52,7.62-35.42,10.31l-4.3,12a.91.91,0,0,0,1.05,1.2c4.66-1.05,18.16-4.17,24.24-6.35,6.42-2.3,10.94-4.36,13.32-7.61S491.25,294.9,491.25,294.9Z"/><path class="cls-2" d="M452.38,320.4a2.9,2.9,0,0,1-2.73-3.89l4.68-13.05,1.12-.21c13.59-2.64,34.92-10.16,35.13-10.23l2.17-.77.46,2.26c.15.73,1.36,7.24-1.46,11.09-2.66,3.63-7.24,5.8-14.26,8.31-6.08,2.18-19.13,5.22-24.47,6.42A2.73,2.73,0,0,1,452.38,320.4ZM457.33,307l-3.25,9c5.48-1.26,16.77-3.95,22.06-5.84,6.13-2.2,10.34-4.12,12.38-6.91,1-1.35,1.13-3.75,1-5.63C483.75,299.6,468.57,304.64,457.33,307Z"/><path class="cls-5" d="M325.15,318.74s3-8.45,4.65-11.63,1.91-5.92,2.12-9.3,2.75-11.84,21.14-16.92S388,270.32,402.12,271s27.07,10.15,31.3,13.53,11.84,12.26,15,15.43,4.86,4.66,7.4,5.29-2.54,12.69-4.86,13.53-39.76,2.33-64.92,2.33S326.21,322.76,325.15,318.74Z"/><path class="cls-2" d="M350.83,323.39c-22.82,0-26.82-1.14-27.61-4.14l-.16-.59.2-.58c.13-.35,3-8.64,4.78-11.91,1.46-2.73,1.66-5,1.88-8.48.24-3.82,2.92-13.29,22.61-18.72,2.75-.76,5.45-1.53,8.12-2.28,15-4.26,29.18-8.28,41.56-7.73,14.34.64,27.47,10,32.46,14,3,2.38,7.42,7.23,11,11.12,1.7,1.86,3.17,3.46,4.17,4.46,3.15,3.14,4.52,4.27,6.47,4.76a3,3,0,0,1,2.21,3.09c.13,2.69-1.63,6.82-2.17,8-1.64,3.6-3.22,5.7-4.7,6.24-3,1.11-42.88,2.45-65.6,2.45-5.75,0-12.11.09-18.26.18C361.22,323.34,355.61,323.39,350.83,323.39Zm-23.32-5.29c4.61,1.65,25.05,1.36,40.22,1.15,6.16-.09,12.54-.18,18.32-.18,24.86,0,60.6-1.45,64.17-2.2,1.44-1.16,4.2-7.65,4.32-9.95-2.59-.85-4.46-2.51-7.52-5.58-1.07-1.06-2.56-2.69-4.3-4.58-3.48-3.8-7.82-8.52-10.55-10.71-4.68-3.74-17-12.51-30.14-13.1-11.73-.53-25.6,3.41-40.29,7.58-2.67.76-5.39,1.53-8.14,2.29-17.7,4.88-19.54,12.8-19.69,15.11-.2,3.34-.4,6.49-2.34,10.13A102.71,102.71,0,0,0,327.51,318.1Z"/><path class="cls-7" d="M321.58,39.42V85.51l-53.65,33.31,2.61-54.34c-5.94-11.11,5.24-16.82,4-21.1-.76-2.54-5.06-3.49-7.07-5.82a11.87,11.87,0,0,0-4.68-3.7.83.83,0,0,1-.29-1.38,29.91,29.91,0,0,0,4-4.48C270,22.92,276.75,7.7,284.36,8.12S290,19.54,321.58,39.42Z"/><path class="cls-2" d="M265.75,122.52l2.77-57.6c-4-7.93-.22-13.58,2.27-17.33.89-1.34,2-3,1.81-3.64s-1.59-1.5-2.8-2.21a14.56,14.56,0,0,1-3.87-2.88,10.11,10.11,0,0,0-3.83-3.12,2.82,2.82,0,0,1-1-4.72,26.65,26.65,0,0,0,3.76-4.16c.68-1,1.52-2.43,2.49-4.1,4.16-7.19,9.82-17,17.12-16.64,4,.22,5.91,2.66,8.84,6.34,4,5.09,10.8,13.6,29.34,25.26l.93.59V86.62Zm-.7-89.76A17.3,17.3,0,0,1,269,36.25a12,12,0,0,0,2.86,2c1.85,1.08,3.95,2.3,4.61,4.51.72,2.43-.75,4.65-2.31,7-2.37,3.58-5.07,7.64-1.81,13.73l.26.49-2.46,51.09,49.47-30.72V40.52C301.17,28.79,294.31,20.15,290.18,15c-2.85-3.58-3.84-4.72-5.93-4.84h-.2c-4.75,0-10.05,9.15-13.24,14.65-1,1.74-1.88,3.25-2.65,4.37A25.73,25.73,0,0,1,265.05,32.76Z"/><path class="cls-2" d="M489.27,295.18a151.94,151.94,0,0,0-8.26-32c-6.11,2.44-19.46,3.95-22.43,4.27l-.64.06-.56-.32c-7.31-4.17-27.65-15.16-33.9-15.81-7.48-.79-18.66,3.23-18.77,3.27l-.13,0-43.87,12.75-.8-.58c-1.64-1.21-8.27-4.74-24.61.71-22.8,7.59-52.54,16.53-64.87,16-11-.52-21.73-6.19-31.17-11.2-2.61-1.38-5.07-2.69-7.38-3.8-9.48-4.55-23.07-3.92-36.21-3.31l-2.59.12c-3.82.17-10.87,1.05-19.79,2.16-23.35,2.91-58.64,7.31-76.27,3.72-16.64-3.38-32.81-9.35-44.61-13.72-5.2-1.91-9.68-3.57-12.86-4.5-10.45-3.06-23.47-8.44-23.6-8.49l1.53-3.7c.13.05,13,5.35,23.19,8.35,3.32,1,7.86,2.65,13.12,4.59,11.69,4.32,27.69,10.23,44,13.55,17,3.46,51.89-.89,75-3.77,9-1.12,16.12-2,20.1-2.18l2.59-.12c13.63-.64,27.74-1.29,38.12,3.69,2.39,1.15,4.88,2.47,7.53,3.88,9.06,4.81,19.34,10.26,29.47,10.73,9.15.45,31.66-5.17,63.42-15.76,15.71-5.23,23.71-3,27.41-.7l42-12.2c1.06-.38,12.33-4.33,20.49-3.47,7.81.82,30.32,13.4,34.9,16,8.09-.89,19.88-2.83,22-4.56l2.06-1.7,1.05,2.46a150.43,150.43,0,0,1,9.34,35Z"/><path d="M264.87,282.63c-25.49-19.1-93.2-69.23-100.25-71.75-8.36-3-27.55,0-40.54,4.45-6.41,2.2-9.64,4.18-10.47,6.4-.76,2.05.19,5.14,3.19,10.32,6.16,10.62,29.19,35.11,29.42,35.36l-2.91,2.74c-1-1-23.58-25.08-30-36.09-3.14-5.42-4.93-9.83-3.47-13.73,1.32-3.54,5.06-6.08,12.9-8.78,13.93-4.79,33.9-7.75,43.2-4.43,9.06,3.23,97.53,69.49,101.3,72.31Z"/><path d="M290.87,262l-2.43-3.17c.54-.42,54.12-41.48,62-48.73,2.07-1.91,2.94-3.83,2.65-5.87-.53-3.8-5.15-8.21-12.34-11.81a87.36,87.36,0,0,0-10.16-3.77c-13.52-4.46-33.95-11.22-49.07-30-19.62-24.3-21.36-42.54-21.43-43.31l0-.41.13-.4c2.64-7.7,5.11-15.62,7.5-23.27,3.08-9.86,6.27-20.06,9.86-29.95,2.56-7.06,5.75-15.86,14.93-19.53,11.65-4.67,25.39-.33,37.29,4.52,11.62,4.74,23,10.69,33.93,16.44,4.82,2.53,9.8,5.14,14.71,7.6q13.09,6.56,26.2,13.05l23.57,11.74.31.15.24.25c4.3,4.48,42.13,43.91,45.54,49.88,3.16,5.52,10.44,27.79,9.78,115l-4,0c.67-88.64-6.91-108.88-9.25-113-2.66-4.65-32.95-36.58-44.72-48.84Q414.47,92.76,402.83,87q-13.11-6.51-26.21-13.06c-4.94-2.47-9.94-5.09-14.78-7.63C351,60.58,339.7,54.68,328.26,50c-11.16-4.56-24-8.65-34.3-4.52-7,2.79-9.74,9.15-12.65,17.19-3.56,9.8-6.73,20-9.8,29.77-2.35,7.54-4.79,15.33-7.39,22.94.37,2.71,3.27,19.39,20.51,40.75C299,174,318.77,180.51,331.85,184.83a87.65,87.65,0,0,1,10.69,4c5,2.5,13.51,7.75,14.51,14.83.33,2.33-.08,5.85-3.9,9.37C345.14,220.39,293.09,260.28,290.87,262Z"/><path class="cls-8" d="M255.46,112.92c2.61-7.62,5.07-15.49,7.45-23.1,3.1-9.93,6.31-20.19,9.94-30.2,2.74-7.58,6.5-18,17.76-22.47a34.68,34.68,0,0,1,12.94-2.37c9.87,0,19.75,3.49,28.11,6.91,11.86,4.83,23.33,10.84,34.42,16.66,4.78,2.51,9.72,5.1,14.57,7.53q13.2,6.6,26.42,13.16,11.67,5.8,23.35,11.63l1.08.54.83.87v7.2"/><path class="cls-2" d="M257.36,113.57l-3.79-1.3c2.59-7.56,5-15.38,7.4-22.94l0-.11c3.12-10,6.33-20.25,10-30.28,2.87-7.94,6.8-18.81,18.9-23.65a36.74,36.74,0,0,1,13.68-2.51c10.21,0,20.32,3.57,28.87,7C344.36,44.7,355.88,50.74,367,56.58c4.77,2.5,9.7,5.09,14.54,7.51q13.18,6.6,26.41,13.16l.46.23q11.44,5.68,22.89,11.4l1.39.69,1.63,1.7v8h-4l0-6.44-.77-.39q-11.43-5.72-22.88-11.39l-.46-.23Q393,74.26,379.76,67.67c-4.87-2.44-9.82-5-14.6-7.55-11.06-5.79-22.48-11.78-34.25-16.58-8.19-3.34-17.84-6.76-27.36-6.76A32.72,32.72,0,0,0,291.36,39c-10.44,4.18-14,14.08-16.63,21.3-3.61,10-6.8,20.16-9.89,30.05l0,.17C262.41,98.11,260,106,257.36,113.57Z"/><path class="cls-9" d="M270.09,64.48l-2.61,54.35-91.33,58.11L118.38,169c-15.38-.95-16.67-1.92-16.67-1.92L99,165.66,110.71,159s43.45-18.92,51.91-22.3,1.69-5.92,14.8-14.81,30-24.95,38.06-32.14,31.05-38.06,35-44.82c2.48-4.28,6.7-7.88,10.35-11.23,0,0,1.91-1.08,6.18,3.87,2,2.33,6.31,3.28,7.07,5.82C275.33,47.66,264.15,53.37,270.09,64.48Z"/><path class="cls-2" d="M176.6,179l-58.42-8c-14.28-.89-16.81-1.78-17.49-2.18l-5.87-3.13,15.09-8.56c.44-.19,43.58-19,52-22.32,3.2-1.28,3.59-2.15,4.38-3.88,1.09-2.39,2.57-5.67,10-10.73,10.73-7.27,24.11-19.47,33-27.54,1.85-1.69,3.5-3.19,4.89-4.43,7.93-7.1,30.93-38.06,34.58-44.34,2.37-4.09,6.19-7.57,9.56-10.63l1.34-1.22.2-.12c1-.56,3.85-1.28,8.67,4.31a12,12,0,0,0,2.86,2c1.86,1.08,3.95,2.3,4.62,4.51.72,2.43-.75,4.65-2.31,7-2.38,3.58-5.07,7.64-1.82,13.73l.26.49L269.43,120ZM103.29,165.5c1.41.3,5.29.92,15.21,1.53h.15l57,7.82,89.84-57.16,2.54-52.78c-4-7.93-.23-13.58,2.27-17.33.89-1.34,2-3,1.8-3.64s-1.58-1.5-2.79-2.21a14.56,14.56,0,0,1-3.87-2.88c-2.08-2.4-3.34-3-3.85-3.21l-.65.59c-3.31,3-6.73,6.12-8.79,9.68-3.82,6.57-27,37.82-35.38,45.31-1.37,1.23-3,2.72-4.85,4.4-8.94,8.15-22.44,20.47-33.42,27.9-6.53,4.43-7.7,7-8.64,9.07-1.12,2.46-2.17,4.19-6.54,5.94-8.14,3.26-49.45,21.23-51.75,22.24Z"/><path class="cls-3" d="M482.05,260.39c-2.86,2.35-16.13,4.16-21.46,4.81a6.81,6.81,0,0,1-4.12-.81c-6.22-3.47-26-14.29-32.78-15-8-.84-19.66,3.38-19.66,3.38L361.1,265.25c-4-3-12.47-4.23-26.43.42-7.22,2.41-20.49,6.74-33.5,10.27,0,0-4.62-6.23-11.51-15.55,0,0,54.1-41.45,62.14-48.85s.42-15.65-10.15-20.93-39.12-9.1-58.58-33.2q-.93-1.16-1.8-2.28c-17.75-23-19.18-39.94-19.18-39.94,6-17.64,11-35.66,17.34-53.18,2.74-7.57,5.72-15.13,13.79-18.36,11.39-4.56,25.09.15,35.8,4.52,16.63,6.78,32.45,15.93,48.5,24,16.57,8.3,33.19,16.5,49.77,24.79,0,0,41.86,43.56,45.25,49.48S482.69,176,482.05,260.39Z"/><path class="cls-2" d="M300.37,278.22l-.81-1.09s-4.62-6.23-11.51-15.56L286.88,260l1.56-1.19c.54-.42,54.12-41.48,62-48.73,2.07-1.91,2.94-3.83,2.65-5.87-.54-3.8-5.15-8.21-12.34-11.8a86,86,0,0,0-10.16-3.78c-13.52-4.47-33.95-11.22-49.08-30q-.94-1.17-1.83-2.31c-17.9-23.16-19.53-40.28-19.59-41l0-.41.13-.4c2.64-7.69,5.11-15.59,7.49-23.23,3.09-9.88,6.28-20.08,9.87-30,2.55-7.06,5.74-15.85,14.92-19.53,11.66-4.67,25.4-.33,37.3,4.53,11.64,4.74,23,10.7,34,16.46,4.8,2.52,9.76,5.12,14.65,7.57q13.2,6.62,26.43,13.17,11.67,5.79,23.34,11.62l.31.15.24.25c4.3,4.48,42.13,43.91,45.54,49.87,3.16,5.54,10.44,27.82,9.78,115v.94l-.72.59c-3,2.45-13.87,4.21-22.49,5.26a8.76,8.76,0,0,1-5.33-1.05c-12.16-6.79-26.95-14.23-32-14.76-7.48-.79-18.66,3.23-18.77,3.27l-.13,0-43.87,12.75-.8-.58c-6.5-4.79-20.48-.67-24.61.7-12.57,4.2-23.88,7.67-33.61,10.31Zm-7.94-17.44L302,273.65c9.35-2.58,20.14-5.9,32.07-9.88,15.7-5.23,23.71-3,27.4-.7l42-12.21c1-.37,12.32-4.31,20.48-3.46,6.95.73,25.78,10.91,33.56,15.25a4.72,4.72,0,0,0,2.9.56c11.41-1.38,17.51-2.89,19.7-3.94.61-87.69-6.92-107.79-9.25-111.87-2.66-4.65-32.95-36.58-44.72-48.84q-11.49-5.75-23-11.46-13.23-6.57-26.44-13.18c-4.92-2.46-9.9-5.07-14.72-7.6C351,60.6,339.72,54.69,328.26,50c-11.16-4.56-24-8.66-34.3-4.52-7,2.79-9.75,9.16-12.65,17.19-3.56,9.82-6.74,20-9.81,29.81-2.35,7.53-4.78,15.3-7.37,22.9.35,2.62,3.05,18.23,18.72,38.5q.86,1.11,1.77,2.25C299,174,318.77,180.5,331.84,184.83a86.68,86.68,0,0,1,10.7,4c5,2.49,13.51,7.73,14.51,14.82.33,2.33-.08,5.84-3.9,9.37C345.81,219.76,301.53,253.8,292.43,260.78Z"/><path class="cls-10" d="M269.42,107.42a1,1,0,0,1-1-.81l-.49-2.45a1,1,0,0,1,2-.39l.49,2.45a1,1,0,0,1-.79,1.18Z"/><path class="cls-10" d="M308.69,260.41a1,1,0,0,1-.61-1.79l3.89-3a1,1,0,0,1,1.22,1.58l-3.89,3A1,1,0,0,1,308.69,260.41Zm7.78-6a1,1,0,0,1-.62-1.79l3.89-3a1,1,0,1,1,1.22,1.58l-3.88,3A1,1,0,0,1,316.47,254.4Zm7.76-6a1,1,0,0,1-.62-1.79l3.88-3a1,1,0,0,1,1.23,1.57l-3.88,3A.94.94,0,0,1,324.23,248.38Zm7.75-6a1,1,0,0,1-.62-1.79l3.87-3a1,1,0,0,1,1.4.16,1,1,0,0,1-.17,1.41l-3.86,3A1.05,1.05,0,0,1,332,242.34Zm7.73-6.07a1,1,0,0,1-.62-1.78l3.85-3.05a1,1,0,0,1,1.24,1.57l-3.85,3.05A1,1,0,0,1,339.71,236.27Zm7.69-6.11a1,1,0,0,1-.78-.37,1,1,0,0,1,.16-1.41l3.82-3.08a1,1,0,0,1,1.26,1.55c-1.18,1-2.46,2-3.83,3.09A1,1,0,0,1,347.4,230.16ZM355,224a1,1,0,0,1-.64-1.76c1.22-1,2.18-1.86,2.83-2.46L358,219a1,1,0,0,1,1.43,1.41l-.85.81c-.67.62-1.65,1.47-2.9,2.52A1,1,0,0,1,355,224Zm6.72-7.1a1,1,0,0,1-.53-.15,1,1,0,0,1-.32-1.38,17.78,17.78,0,0,0,1.9-4.21,1,1,0,1,1,1.92.57,19.72,19.72,0,0,1-2.12,4.7A1,1,0,0,1,361.74,216.85Zm2.72-9.31a1,1,0,0,1-1-1,16.14,16.14,0,0,0-.16-2.32,19.12,19.12,0,0,0-.47-2.25,1,1,0,1,1,1.92-.54,19.87,19.87,0,0,1,.53,2.5,18.79,18.79,0,0,1,.18,2.59A1,1,0,0,1,364.46,207.54Zm-2.56-9.34a1,1,0,0,1-.87-.51,24.34,24.34,0,0,0-2.73-3.83,1,1,0,0,1,.1-1.41,1,1,0,0,1,1.41.1,26.65,26.65,0,0,1,3,4.15,1,1,0,0,1-.38,1.37A1.12,1.12,0,0,1,361.9,198.2Zm-6.35-7.43a1,1,0,0,1-.64-.24,40.7,40.7,0,0,0-3.83-2.88,1,1,0,0,1-.27-1.39,1,1,0,0,1,1.38-.27,42,42,0,0,1,4,3,1,1,0,0,1-.65,1.76Zm-8.11-5.49a1,1,0,0,1-.48-.12c-.67-.37-1.33-.71-2-1s-1.49-.71-2.35-1.07a1,1,0,0,1-.54-1.31,1,1,0,0,1,1.31-.54c.9.38,1.71.75,2.47,1.13s1.35.69,2,1.06a1,1,0,0,1-.48,1.88Zm-9-3.88a1.26,1.26,0,0,1-.33-.05c-1.46-.51-3-1-4.63-1.56a1,1,0,1,1,.63-1.9c1.63.54,3.19,1.05,4.66,1.57a1,1,0,0,1-.33,1.94Zm-9.3-3.12a1.26,1.26,0,0,1-.33-.05q-2.26-.78-4.65-1.65a1,1,0,1,1,.7-1.88c1.56.58,3.1,1.12,4.6,1.63a1,1,0,0,1-.32,1.95Zm-9.2-3.42a1.09,1.09,0,0,1-.39-.08c-1.57-.65-3.09-1.32-4.53-2a1,1,0,0,1,.85-1.81c1.41.66,2.9,1.31,4.45,2a1,1,0,0,1-.38,1.93Zm-8.88-4.18a1,1,0,0,1-.48-.12c-1.47-.79-2.92-1.62-4.3-2.48a1,1,0,0,1-.32-1.38,1,1,0,0,1,1.37-.32c1.35.84,2.76,1.65,4.2,2.42a1,1,0,0,1-.47,1.88Zm-8.34-5.17a1,1,0,0,1-.58-.19c-1.35-1-2.67-2-3.93-3a1,1,0,0,1,1.28-1.54c1.22,1,2.51,2,3.82,3a1,1,0,0,1,.23,1.4A1,1,0,0,1,302.71,165.51Zm-7.52-6.29a1,1,0,0,1-.69-.29c-1.19-1.15-2.35-2.37-3.44-3.61a1,1,0,0,1,1.51-1.32c1.05,1.2,2.17,2.38,3.32,3.5a1,1,0,0,1,0,1.42A1,1,0,0,1,295.19,159.22Zm-6.48-7.36a1,1,0,0,1-.79-.38l-.22-.29c-.93-1.21-1.85-2.44-2.74-3.68a1,1,0,0,1,.23-1.39,1,1,0,0,1,1.4.23c.87,1.21,1.77,2.43,2.69,3.62l.22.28a1,1,0,0,1-.17,1.4A1,1,0,0,1,288.71,151.86Zm-5.7-8a1,1,0,0,1-.84-.45c-.91-1.4-1.79-2.81-2.61-4.21a1,1,0,0,1,1.72-1c.81,1.37,1.67,2.76,2.56,4.13a1,1,0,0,1-.29,1.39A1,1,0,0,1,283,143.88Zm-5-8.46a1,1,0,0,1-.89-.54c-.78-1.48-1.51-3-2.18-4.46a1,1,0,0,1,1.83-.82c.65,1.44,1.36,2.9,2.12,4.36a1,1,0,0,1-.42,1.35A1,1,0,0,1,278,135.42Zm-4-8.94a1,1,0,0,1-.94-.65c-.61-1.62-1.14-3.21-1.58-4.73a1,1,0,0,1,1.93-.55c.42,1.46.93,3,1.52,4.57a1,1,0,0,1-.58,1.29A.91.91,0,0,1,274,126.48ZM271.34,117a1,1,0,0,1-1-.8l-1-4.81a1,1,0,1,1,2-.4l1,4.82a1,1,0,0,1-.78,1.17A.68.68,0,0,1,271.34,117Z"/><path class="cls-10" d="M304.34,266.92a1,1,0,0,1-.8-.41l-1.49-2a1,1,0,0,1,.19-1.39l2-1.52a1,1,0,1,1,1.22,1.59l-1.2.92.9,1.22a1,1,0,0,1-.2,1.4A1,1,0,0,1,304.34,266.92Z"/><path class="cls-10" d="M307.64,271.43a1,1,0,0,1-.81-.41l-1.47-2a1,1,0,1,1,1.61-1.18l1.48,2a1,1,0,0,1-.81,1.59Z"/><path class="cls-3" d="M301.16,275.94c-12.15,3.3-24.07,5.9-30.64,5.59a35.38,35.38,0,0,1-4.46-.5s-91.89-68.85-100.77-72-28.34-.21-41.87,4.44-14.69,8.67-8.35,19.62,29.69,35.72,29.69,35.72c-17.9,1.77-36.25,2.75-47.35.49a236.71,236.71,0,0,1-27.26-7.55h0c.11-.77,4.72-33.8,11.93-53.55,7.3-20,25.06-34.26,43.46-42.82s92-48.21,92-48.21,19-10.79,39-4.13c1.65.55,3.51,1.29,5.55,2.19,0,0,1.43,17,19.18,39.94-10.21-.22-32-.4-44.92,1.64-17.34,2.75-12.9,14.38-7.19,22,4.2,5.6,41.25,55.62,60.5,81.62.57.76,1.12,1.51,1.65,2.23l2.72,3.67,4.34,5.87c.12.17.24.33.37.49l.52.7.09.13.78,1,.75,1a1,1,0,0,0,.08.11l.16.22,0,.05Z"/><path class="cls-2" d="M271.61,283.55c-.41,0-.8,0-1.18,0a38.32,38.32,0,0,1-4.71-.52l-.47-.09-.39-.28c-25.49-19.1-93.19-69.23-100.24-71.75-8.36-3-27.56,0-40.55,4.45-6.4,2.2-9.62,4.18-10.45,6.4-.77,2.05.18,5.14,3.18,10.32C123,242.67,146,267.16,146.22,267.4l2.79,3-4,.4c-22.74,2.24-38.42,2.4-47.95.46a238,238,0,0,1-27.49-7.62l-1.37-.45,0-1.74c.51-3.55,5-34.83,12-54,8.91-24.37,31.7-38,44.5-43.95,18.13-8.44,91.14-47.76,91.88-48.15s20-11.13,40.59-4.27c1.67.56,3.54,1.29,5.72,2.26l1.09.48.1,1.18c0,.16,1.65,16.75,18.77,38.88l2.56,3.32-4.19-.09c-11.28-.25-32.06-.36-44.57,1.61-5.59.89-9,2.75-10.13,5.54-1.28,3.15.27,8,4.23,13.29,4.52,6,45.21,61,60.51,81.63.49.65,1,1.3,1.43,1.93l.22.3,2.72,3.66L300,271c.12.16.21.29.31.41l.08.1c.16.23.32.44.48.64l.15.22.24.33.48.64.93,1.25.51.47v2.44l-1.47.4C287.79,281.64,277.68,283.55,271.61,283.55Zm-4.74-4.42a32.5,32.5,0,0,0,3.75.4c5.11.23,14.25-1.36,27.19-4.77l-.18-.24-.49-.66-.41-.55-4.32-5.83-2.72-3.67-.22-.31c-.46-.62-.93-1.27-1.42-1.91-21.27-28.73-56.49-76.28-60.5-81.62-2.83-3.79-7.22-11.06-4.74-17.19,1.7-4.18,6.14-6.87,13.22-8,11.4-1.8,29.33-1.91,41.18-1.74-13.32-18.34-16.33-32.36-17-36.48q-2.43-1-4.34-1.68c-18.91-6.3-37.21,3.87-37.39,4-.77.41-73.89,39.78-92.12,48.28-12.24,5.69-34,18.68-42.43,41.69-6.22,17-10.5,44.13-11.59,51.51a231.21,231.21,0,0,0,25.44,7c8.57,1.74,22.57,1.7,42.73-.14-6.43-7-22.06-24.25-27.2-33.11-3.14-5.42-4.93-9.83-3.47-13.73,1.32-3.54,5.06-6.08,12.9-8.78,13.93-4.79,33.89-7.76,43.2-4.44C174.82,210.28,259.5,273.61,266.87,279.13Zm35.7-4.66v0Z"/><g class="cls-11"><path d="M254.86,279.88l-1.66-.79.83-1.74-1.34,1.36c-.5-.45-5-3.82-8.54-6.53-2.08-1.57-4.13-3.12-5.66-4.29l-1.85-1.43a6.17,6.17,0,0,1-.66-.56c-41-30.3-68.75-49.94-72.41-51.25a25.44,25.44,0,0,0-7.92-1c-8.6,0-20.37,2.13-30,5.43-7.23,2.49-8,4-8,4s-.16,1.63,2.91,6.92c4.77,8.23,24,29.91,30.48,36.88l-2.93,2.72c-4.87-5.24-25.69-28.4-31-37.6-3-5.18-4-8.27-3.19-10.32.56-1.5,2.25-3.58,10.46-6.4,10-3.43,22.26-5.65,31.27-5.65a29,29,0,0,1,9.27,1.2c5.65,2,48.47,33.35,73.49,51.84l-.59,1,.77-.79c.46.41,4.63,3.56,8,6.09l6,4.57c.83.63,1.53,1.17,2,1.55.8.63,2.15,1.69,1.21,3.23Z"/></g><g class="cls-11"><path d="M291.38,259l-17.32-23.41c-17.77-24-39.89-53.89-43-58-4-5.38-5.53-10.09-4.24-13.29,1.12-2.75,4.62-4.66,10.14-5.54,7.23-1.14,18.59-1.74,32.85-1.74,3.2,0,6.51,0,9.82.09l.94,0,1.24,1.55c15.13,18.74,35.56,25.49,49.08,30a84.68,84.68,0,0,1,10.16,3.78c6.5,3.24,14.95,10.79,15.54,15l-4,.57c-.25-1.82-6.75-8.65-13.37-12a83.69,83.69,0,0,0-9.61-3.54c-14-4.62-35.08-11.6-51-31.26l-.08-.1c-3,0-5.92-.07-8.8-.07-14.05,0-25.2.58-32.22,1.69-4.58.73-6.67,2.12-7.06,3.1-.58,1.42.35,4.87,3.73,9.38,3.12,4.16,25.24,34.05,43,58.06l17.33,23.41Z"/></g><path class="cls-10" d="M271.64,274.55c-.27,0-.54,0-.79,0-.57,0-1.15-.07-1.73-.13a1,1,0,0,1-.49-.2l-2.07-1.55a1,1,0,0,1,1.2-1.6l1.85,1.39c.45,0,.9.08,1.34.1h1.14a1,1,0,0,1,1,1,1,1,0,0,1-1,1Zm5.44-.45a1,1,0,0,1-.13-2c1.46-.2,3.1-.48,4.88-.82a1,1,0,1,1,.37,2c-1.81.34-3.48.62-5,.83Zm9.83-1.84a1,1,0,0,1-.83-1.57l-1.8-2.43a1,1,0,1,1,1.61-1.19l2.52,3.4a1.06,1.06,0,0,1,.15,1,1,1,0,0,1-.71.64l-.72.16Zm-23.77-2.41a1,1,0,0,1-.6-.2l-4-3a1,1,0,0,1,1.19-1.61l4,3a1,1,0,0,1-.6,1.8Zm19-5.21a1,1,0,0,1-.8-.4l-3-4a1,1,0,1,1,1.6-1.19l3,4a1,1,0,0,1-.2,1.39A1,1,0,0,1,282.11,264.64Zm-27-.78a1,1,0,0,1-.59-.2l-4-3a1,1,0,0,1,1.19-1.61l4,3a1,1,0,0,1,.21,1.4A1,1,0,0,1,255.1,263.86Zm-140.53-.28c-1.39,0-2.73,0-4-.05a1,1,0,0,1-1-1,1,1,0,0,1,1-1c1.26,0,2.58.05,3.95.05h1a1,1,0,0,1,1,1,1,1,0,0,1-1,1Zm6-.11a1,1,0,0,1,0-2c1.59-.05,3.25-.12,5-.21a1,1,0,0,1,.11,2c-1.74.09-3.41.16-5,.21Zm-15-.19h-.08c-1.85-.14-3.54-.33-5-.57a1,1,0,1,1,.32-2c1.45.23,3.09.42,4.88.56a1,1,0,0,1-.07,2Zm-9.87-1.56-.22,0c-1.6-.37-3.24-.76-4.89-1.18a1,1,0,0,1,.5-1.94c1.63.42,3.25.81,4.83,1.16a1,1,0,0,1-.22,2Zm30.37-.62a1,1,0,0,1-.76-.34c-1.08-1.23-2.18-2.5-3.28-3.79a1,1,0,1,1,1.52-1.3q1.65,1.92,3.27,3.77a1,1,0,0,1-.1,1.41A1,1,0,0,1,126.1,261.1ZM86,259.26a1.26,1.26,0,0,1-.27,0c-1.57-.44-3.17-.91-4.82-1.41a1,1,0,0,1,.58-1.91c1.63.49,3.22,1,4.78,1.39a1,1,0,0,1-.27,2Zm161-1.37a1,1,0,0,1-.6-.2l-4-3a1,1,0,1,1,1.19-1.6l4,3a1,1,0,0,1-.59,1.8Zm29.09-1.29a1,1,0,0,1-.8-.41l-3-4A1,1,0,1,1,274,251l3,4a1,1,0,0,1-.2,1.4A1,1,0,0,1,276.15,256.6ZM79.53,254.48h-.16a1,1,0,0,1-.82-1.15c.25-1.52.54-3.18.85-4.94a1,1,0,0,1,1.16-.81,1,1,0,0,1,.81,1.16c-.31,1.75-.6,3.4-.85,4.92A1,1,0,0,1,79.53,254.48Zm40.06-1a1,1,0,0,1-.77-.36q-1.62-1.95-3.17-3.89a1,1,0,0,1,.16-1.4,1,1,0,0,1,1.4.15c1,1.28,2.08,2.57,3.15,3.86a1,1,0,0,1-.13,1.41A1,1,0,0,1,119.59,253.49ZM239,251.93a1,1,0,0,1-.59-.19l-4-3a1,1,0,0,1-.21-1.4,1,1,0,0,1,1.39-.21l4,3a1,1,0,0,1,.21,1.4A1,1,0,0,1,239,251.93Zm31.19-3.38a1,1,0,0,1-.8-.41l-3-4a1,1,0,1,1,1.61-1.19l3,4a1,1,0,0,1-.21,1.4A1,1,0,0,1,270.19,248.55ZM230.94,246a1,1,0,0,1-.6-.2l-4-3a1,1,0,0,1,1.18-1.62l4,3a1,1,0,0,1-.59,1.81Zm-117.58-.33a1,1,0,0,1-.8-.39c-1.11-1.47-2.1-2.85-3-4.09a1,1,0,0,1,1.65-1.14c.84,1.23,1.82,2.58,2.91,4a1,1,0,0,1-.2,1.4A1,1,0,0,1,113.36,245.67Zm-32.07-1a.55.55,0,0,1-.18,0,1,1,0,0,1-.8-1.17c.3-1.59.63-3.24,1-4.92a1,1,0,1,1,2,.4c-.34,1.67-.66,3.31-1,4.9A1,1,0,0,1,81.29,244.63Zm182.94-4.13a1,1,0,0,1-.8-.4l-3-4a1,1,0,0,1,.21-1.4,1,1,0,0,1,1.4.21l3,4a1,1,0,0,1-.21,1.39A1,1,0,0,1,264.23,240.5Zm-41.37-.42a1,1,0,0,1-.59-.19l-4.05-3a1,1,0,0,1-.22-1.39,1,1,0,0,1,1.4-.22l4,3a1,1,0,0,1-.59,1.8Zm-115.1-2.69a1,1,0,0,1-.87-.51c-1-1.68-1.71-3.16-2.32-4.53a1,1,0,0,1,.51-1.32,1,1,0,0,1,1.32.5c.58,1.31,1.31,2.74,2.23,4.36a1,1,0,0,1-.87,1.5Zm-24.47-2.56-.21,0a1,1,0,0,1-.77-1.2c.36-1.62.73-3.26,1.12-4.89a1,1,0,1,1,1.94.46c-.38,1.62-.75,3.25-1.1,4.86A1,1,0,0,1,83.29,234.83Zm131.47-.65a1,1,0,0,1-.59-.19l-4.06-2.93a1,1,0,0,1-.22-1.4,1,1,0,0,1,1.39-.22l4.06,2.93a1,1,0,0,1-.58,1.81Zm43.51-1.73a1,1,0,0,1-.81-.4l-3-4a1,1,0,0,1,1.61-1.19l3,4a1,1,0,0,1-.21,1.4A.94.94,0,0,1,258.27,232.45Zm-51.64-4.13a1,1,0,0,1-.58-.19L202,225.21a1,1,0,1,1,1.17-1.62l4.07,2.92a1,1,0,0,1,.23,1.39A1,1,0,0,1,206.63,228.32Zm-102.79-.1a1,1,0,0,1-1-.77,18.66,18.66,0,0,1-.52-4.23c0-.34,0-.68,0-1a1,1,0,0,1,1.06-.93,1,1,0,0,1,.93,1.06c0,.3,0,.59,0,.89a16.34,16.34,0,0,0,.47,3.77,1,1,0,0,1-1,1.23ZM85.6,225.09a1.07,1.07,0,0,1-.25,0,1,1,0,0,1-.72-1.22c.43-1.64.87-3.27,1.32-4.85a1,1,0,0,1,1.24-.69,1,1,0,0,1,.68,1.24c-.45,1.57-.88,3.18-1.3,4.8A1,1,0,0,1,85.6,225.09Zm166.71-.68a1,1,0,0,1-.8-.4l-3-4a1,1,0,1,1,1.6-1.19l3,4a1,1,0,0,1-.21,1.39A1,1,0,0,1,252.31,224.41Zm-53.83-1.92a1,1,0,0,1-.57-.18l-4.09-2.89a1,1,0,0,1-.24-1.4,1,1,0,0,1,1.39-.24q2,1.41,4.09,2.9a1,1,0,0,1,.24,1.39A1,1,0,0,1,198.48,222.49Zm-93.91-4.06a1,1,0,0,1-.4-.08,1,1,0,0,1-.51-1.32,15.6,15.6,0,0,1,3-4.41,1,1,0,1,1,1.45,1.38,13.43,13.43,0,0,0-2.58,3.84A1,1,0,0,1,104.57,218.43Zm85.72-1.71a1,1,0,0,1-.57-.18c-1.41-1-2.79-1.94-4.11-2.85a1,1,0,1,1,1.13-1.65l4.13,2.86a1,1,0,0,1,.24,1.39A1,1,0,0,1,190.29,216.72Zm56.06-.35a1,1,0,0,1-.8-.41l-3-4a1,1,0,1,1,1.6-1.19l3,4a1,1,0,0,1-.2,1.4A1,1,0,0,1,246.35,216.37Zm-158-.89a1.12,1.12,0,0,1-.31,0,1,1,0,0,1-.64-1.26c.41-1.26.83-2.48,1.24-3.61.14-.39.29-.78.44-1.17a1,1,0,0,1,1.86.74c-.14.37-.29.74-.42,1.11-.41,1.12-.82,2.31-1.22,3.55A1,1,0,0,1,88.37,215.48Zm22.86-4.3a1,1,0,0,1-.53-1.85,35.47,35.47,0,0,1,4.55-2.39,1,1,0,0,1,1.32.52,1,1,0,0,1-.51,1.32,32.31,32.31,0,0,0-4.3,2.24A.94.94,0,0,1,111.23,211.18ZM182,211a1,1,0,0,1-.56-.17q-2.22-1.5-4.16-2.77a1,1,0,0,1,1.09-1.68c1.31.86,2.7,1.79,4.19,2.79a1,1,0,0,1,.26,1.39A1,1,0,0,1,182,211Zm58.35-2.72a1,1,0,0,1-.81-.4l-3-4a1,1,0,1,1,1.61-1.19l3,4a1,1,0,0,1-.8,1.59Zm-120.07-1.27a1,1,0,0,1-.33-2l.51-.17c1.38-.48,2.82-.94,4.29-1.38a1,1,0,0,1,1.25.68,1,1,0,0,1-.68,1.24c-1.44.43-2.86.88-4.21,1.35l-.51.17A.91.91,0,0,1,120.32,207.05Zm-28.24-.84a1,1,0,0,1-.45-.11,1,1,0,0,1-.44-1.35c.76-1.49,1.61-3,2.52-4.42a1,1,0,1,1,1.69,1.07c-.88,1.39-1.69,2.82-2.43,4.26A1,1,0,0,1,92.08,206.21Zm81.56-.65a1,1,0,0,1-.53-.15c-1.79-1.11-3.22-1.94-4.26-2.47a1,1,0,1,1,.9-1.78c1.09.55,2.58,1.4,4.42,2.55a1,1,0,0,1-.53,1.85ZM129.9,204.2a1,1,0,0,1-.24-2c1.62-.41,3.27-.79,4.91-1.13a1,1,0,0,1,.41,2c-1.61.34-3.24.72-4.84,1.12A1,1,0,0,1,129.9,204.2Zm9.79-2.06a1,1,0,0,1-.17-2c1.68-.29,3.36-.53,5-.74a1,1,0,1,1,.25,2c-1.6.2-3.25.44-4.9.72Zm24.86-.63a.71.71,0,0,1-.2,0,37.09,37.09,0,0,0-4.83-.66,1,1,0,0,1,.16-2,41.26,41.26,0,0,1,5.08.7,1,1,0,0,1,.77,1.19A1,1,0,0,1,164.55,201.51Zm-14.94-.6a1,1,0,0,1-.08-2c1.77-.13,3.47-.21,5.06-.23h0a1,1,0,0,1,0,2c-1.55,0-3.21.1-4.93.23Zm84.81-.63a1,1,0,0,1-.8-.41l-3-4a1,1,0,0,1,.21-1.4,1,1,0,0,1,1.4.21l3,4a1,1,0,0,1-.21,1.4A1,1,0,0,1,234.42,200.28Zm-137-2.52a1,1,0,0,1-.6-.2,1,1,0,0,1-.2-1.41c1-1.32,2.1-2.64,3.24-3.91a1,1,0,1,1,1.49,1.33c-1.11,1.24-2.16,2.51-3.13,3.8A1,1,0,0,1,97.41,197.76Zm131-5.53a1,1,0,0,1-.8-.4l-3-4a1,1,0,1,1,1.61-1.19l3,4a1,1,0,0,1-.21,1.4A1,1,0,0,1,228.45,192.23ZM104.06,190.3a1,1,0,0,1-.7-1.72c1.19-1.15,2.46-2.29,3.76-3.4a1,1,0,1,1,1.29,1.53c-1.27,1.07-2.5,2.19-3.66,3.31A1,1,0,0,1,104.06,190.3Zm118.41-6.12a1,1,0,0,1-.81-.41,43.85,43.85,0,0,1-2.79-4.28,1,1,0,1,1,1.73-1,45.14,45.14,0,0,0,2.67,4.09,1,1,0,0,1-.21,1.4A1,1,0,0,1,222.47,184.18Zm-110.79-.35a1,1,0,0,1-.8-.4,1,1,0,0,1,.2-1.4c1.32-1,2.71-2,4.13-2.92a1,1,0,0,1,1.11,1.67c-1.39.92-2.75,1.88-4,2.85A1,1,0,0,1,111.68,183.83Zm8.32-5.54a1,1,0,0,1-.86-.49,1,1,0,0,1,.35-1.37c1.42-.85,2.91-1.68,4.41-2.47a1,1,0,1,1,.93,1.77c-1.47.78-2.92,1.59-4.32,2.42A1,1,0,0,1,120,178.29Zm97.59-2.8a1,1,0,0,1-.94-.65,25.18,25.18,0,0,1-1.35-5,1,1,0,1,1,2-.3,24,24,0,0,0,1.25,4.61,1,1,0,0,1-.58,1.29A.84.84,0,0,1,217.59,175.49Zm-88.69-1.9A1,1,0,0,1,128,173a1,1,0,0,1,.45-1.31l.42.9-.36-.93c1.25-.59,2.74-1.31,4.44-2.14a1,1,0,0,1,1.34.45,1,1,0,0,1-.46,1.34c-1.71.85-3.21,1.57-4.47,2.16A1.12,1.12,0,0,1,128.9,173.59Zm9-4.38a1,1,0,0,1-.89-.55,1,1,0,0,1,.44-1.34l4.47-2.27a1,1,0,0,1,.91,1.78l-4.48,2.27A.91.91,0,0,1,137.86,169.21Zm78.32-3.52h-.12a1,1,0,0,1-.87-1.11,17.2,17.2,0,0,1,1.13-4.42c.1-.23.19-.45.29-.67a1,1,0,1,1,1.82.83c-.08.19-.17.39-.25.59a15,15,0,0,0-1,3.91A1,1,0,0,1,216.18,165.69Zm-69.39-1a1,1,0,0,1-.89-.54,1,1,0,0,1,.43-1.35l4.45-2.3a1,1,0,0,1,.92,1.78l-4.45,2.3A1,1,0,0,1,146.79,164.65Zm8.9-4.61a1,1,0,0,1-.46-1.89l4.44-2.32a1,1,0,1,1,.92,1.77l-4.44,2.32A1,1,0,0,1,155.69,160Zm64.58-3.3a1,1,0,0,1-.68-.26,1,1,0,0,1-.06-1.41,18.78,18.78,0,0,1,4.07-3.33,1,1,0,0,1,1.38.33,1,1,0,0,1-.33,1.37,16.83,16.83,0,0,0-3.65,3A1,1,0,0,1,220.27,156.74Zm-55.7-1.35a1,1,0,0,1-.89-.53,1,1,0,0,1,.42-1.36l4.43-2.33a1,1,0,0,1,1.36.42,1,1,0,0,1-.42,1.35L165,155.28A1.07,1.07,0,0,1,164.57,155.39Zm64.07-3.93a1,1,0,0,1-.34-1.94,35.79,35.79,0,0,1,5-1.34,1,1,0,0,1,1.18.78,1,1,0,0,1-.79,1.18,33,33,0,0,0-4.67,1.27A1,1,0,0,1,228.64,151.46Zm-55.21-.74a1,1,0,0,1-.88-.53,1,1,0,0,1,.41-1.35l4.43-2.35a1,1,0,1,1,.94,1.77l-4.43,2.34A1,1,0,0,1,173.43,150.72Zm65-1.32a1,1,0,0,1-.12-2c1.56-.19,3.24-.36,5-.51a1,1,0,1,1,.17,2c-1.74.15-3.4.32-4.94.51Zm10-.86a1,1,0,0,1-.06-2c1.6-.1,3.27-.18,5-.25a1,1,0,0,1,.08,2c-1.73.07-3.39.15-5,.25Zm10-.41a1,1,0,0,1,0-2q2.43-.06,5-.09h0a1,1,0,0,1,0,2c-1.72,0-3.38.05-5,.09ZM182.29,146a1,1,0,0,1-.47-1.88l4.42-2.35a1,1,0,1,1,.94,1.76l-4.42,2.35A1,1,0,0,1,182.29,146Zm82.58,0a1,1,0,0,1-.87-.5c-.84-1.48-1.64-3-2.4-4.44a1,1,0,0,1,1.78-.91c.74,1.44,1.54,2.91,2.36,4.36a1,1,0,0,1-.37,1.36A1,1,0,0,1,264.87,146Zm-73.73-4.69a1,1,0,0,1-.47-1.88l4.42-2.35a1,1,0,1,1,.94,1.76l-4.42,2.36A1,1,0,0,1,191.14,141.32Zm69.17-4.21a1,1,0,0,1-.91-.58c-.7-1.55-1.36-3.11-2-4.65a1,1,0,1,1,1.86-.73c.6,1.5,1.25,3,1.93,4.55a1,1,0,0,1-.49,1.33A1,1,0,0,1,260.31,137.11Zm-60.33-.5a1,1,0,0,1-.47-1.88l4.42-2.37a1,1,0,0,1,.94,1.77l-4.42,2.36A1,1,0,0,1,200,136.61Zm8.84-4.73a1,1,0,0,1-.47-1.88l4.42-2.37a1,1,0,0,1,.95,1.76l-4.43,2.37A1,1,0,0,1,208.82,131.88Zm47.85-4.07a1,1,0,0,1-1-.69c-.54-1.66-1-3.3-1.42-4.87a1,1,0,0,1,1.94-.49c.39,1.53.85,3.12,1.38,4.74a1,1,0,0,1-.64,1.26A1.12,1.12,0,0,1,256.67,127.81Zm-39-.67a1,1,0,0,1-.89-.53,1,1,0,0,1,.41-1.36l3.65-2,.15-.08h0l.68-.35a1,1,0,1,1,.88,1.8l-.58.3-.16.08-3.66,2A1,1,0,0,1,217.67,127.14Zm9-4.33a1,1,0,0,1-.34-1.94c1.6-.58,3.23-1.09,4.86-1.51a1,1,0,0,1,.5,1.94c-1.56.4-3.14.89-4.68,1.45A1,1,0,0,1,226.71,122.81Zm24.57-2-.23,0a34.19,34.19,0,0,0-4.79-.79,1,1,0,0,1-.9-1.09,1,1,0,0,1,1.09-.9,35.28,35.28,0,0,1,5.07.84,1,1,0,0,1-.24,2Zm-14.9-.49a1,1,0,0,1-1-.85,1,1,0,0,1,.84-1.14,44.63,44.63,0,0,1,5.09-.48,1,1,0,1,1,.07,2,43.1,43.1,0,0,0-4.86.46Z"/><path class="cls-10" d="M393.27,180.88h0a9.33,9.33,0,0,1-4-1.06l-1.16-.61a1,1,0,1,1,.92-1.78l1.17.61a7.19,7.19,0,0,0,3.1.84,1,1,0,0,1,0,2Zm4.73-1.34a1,1,0,0,1-.55-1.83,7.38,7.38,0,0,0,2.78-3.33,1,1,0,1,1,1.85.77,9.26,9.26,0,0,1-3.53,4.23A1,1,0,0,1,398,179.54ZM384.13,177a1.11,1.11,0,0,1-.46-.11l-4.43-2.32a1,1,0,1,1,.92-1.77l4.44,2.31a1,1,0,0,1-.47,1.89Zm-8.86-4.62a.93.93,0,0,1-.46-.12L370.37,170a1,1,0,1,1,.93-1.77l4.43,2.31a1,1,0,0,1-.46,1.89Zm26.29-1.53a1,1,0,0,1-1-.77l-.07-.31-1.19-4.5a1,1,0,0,1,1.93-.51l1.29,4.87a1,1,0,0,1-.76,1.2A.82.82,0,0,1,401.56,170.86Zm-35.16-3.1a1,1,0,0,1-.46-.11l-4.43-2.31a1,1,0,1,1,.92-1.78l4.43,2.32a1,1,0,0,1-.46,1.88Zm-8.87-4.62a1.11,1.11,0,0,1-.46-.11l-4.43-2.32a1,1,0,1,1,.92-1.77l4.44,2.31a1,1,0,0,1,.42,1.35A1,1,0,0,1,357.53,163.14ZM399,161.19a1,1,0,0,1-1-.74l-1.28-4.83a1,1,0,1,1,1.94-.51l1.28,4.83a1,1,0,0,1-.72,1.22A1.07,1.07,0,0,1,399,161.19Zm-50.34-2.67a.93.93,0,0,1-.46-.12l-4.44-2.31a1,1,0,1,1,.93-1.77l4.43,2.31a1,1,0,0,1-.46,1.89Zm-8.87-4.63a1,1,0,0,1-.46-.11l-4.44-2.31a1,1,0,0,1,.93-1.78l4.43,2.32a1,1,0,0,1-.46,1.88Zm56.65-2.36a1,1,0,0,1-1-.75L394.2,146a1,1,0,0,1,1.94-.51l1.28,4.83a1,1,0,0,1-.71,1.22A.82.82,0,0,1,396.45,151.53Zm-65.52-2.26a1.11,1.11,0,0,1-.46-.11L326,146.84a1,1,0,1,1,.92-1.77l4.44,2.31a1,1,0,0,1-.47,1.89Zm-8.87-4.62a1,1,0,0,1-.46-.12l-1.16-.6a9.31,9.31,0,0,1-3.12-2.66,1,1,0,0,1,1.6-1.2,7.34,7.34,0,0,0,2.45,2.08l1.16.61a1,1,0,0,1-.47,1.89Zm71.83-2.79a1,1,0,0,1-1-.74l-1.28-4.84a1,1,0,0,1,.71-1.22,1,1,0,0,1,1.22.71l1.28,4.83a1,1,0,0,1-.71,1.23A1.15,1.15,0,0,1,393.89,141.86ZM316.38,137a1,1,0,0,1-1-.8l-1-4.9a1,1,0,1,1,2-.4l1,4.9a1,1,0,0,1-.78,1.18Zm74.95-4.85a1,1,0,0,1-1-.74l-1.28-4.84a1,1,0,1,1,1.93-.51l1.28,4.84a1,1,0,0,1-.71,1.22A1.15,1.15,0,0,1,391.33,132.19Zm-76.95-5a1,1,0,0,1-1-.8l-1-4.9a1,1,0,1,1,2-.4l1,4.9a1,1,0,0,1-.78,1.18Zm74.39-4.71a1,1,0,0,1-1-.75L386.53,117a1,1,0,1,1,1.93-.51l1.28,4.83a1,1,0,0,1-.71,1.22A1.09,1.09,0,0,1,388.77,122.53Zm-76.38-5.09a1,1,0,0,1-1-.8l-1-4.9a1,1,0,1,1,2-.4l1,4.9a1,1,0,0,1-.78,1.18ZM385.87,113a1,1,0,0,1-.85-.47,7.17,7.17,0,0,0-2.65-2.51l-.7-.38a1,1,0,0,1,1-1.76l.7.39a9.13,9.13,0,0,1,3.39,3.2,1,1,0,0,1-.85,1.53Zm-75.47-5.35a1,1,0,0,1-1-.8l-1-4.9a1,1,0,1,1,2-.4l1,4.9a1,1,0,0,1-.78,1.18Zm67.37-.29a1,1,0,0,1-.48-.12l-4.39-2.41a1,1,0,1,1,1-1.75l4.39,2.4a1,1,0,0,1-.48,1.88ZM369,102.54a.89.89,0,0,1-.47-.12l-4.39-2.4a1,1,0,1,1,1-1.75l4.39,2.4a1,1,0,0,1-.49,1.87Zm-60.58-4.7a1,1,0,0,1-1-.8l-1-4.9a1,1,0,1,1,2-.4l1,4.9a1,1,0,0,1-.78,1.18Zm51.81-.1a1.07,1.07,0,0,1-.48-.12l-4.38-2.4a1,1,0,1,1,1-1.76l4.39,2.4a1,1,0,0,1-.49,1.88Zm-8.77-4.8a1,1,0,0,1-.48-.13l-4.38-2.4a1,1,0,1,1,1-1.75l4.39,2.4a1,1,0,0,1-.49,1.88Zm-8.77-4.81a1.07,1.07,0,0,1-.48-.12l-4.38-2.4a1,1,0,1,1,1-1.76l4.38,2.41a1,1,0,0,1,.4,1.35A1,1,0,0,1,342.68,88.13ZM306.41,88a1,1,0,0,1-1-.8l-1-4.9a1,1,0,0,1,2-.4l1,4.9a1,1,0,0,1-.78,1.18Zm27.5-4.71a1.07,1.07,0,0,1-.48-.12l-4.38-2.41a1,1,0,1,1,1-1.75l4.38,2.4a1,1,0,0,1-.48,1.88Zm-28.62-2.68h-.1a1,1,0,0,1-.9-1.09,9,9,0,0,1,2.2-5.07A1,1,0,0,1,308,75.79a7.06,7.06,0,0,0-1.72,4A1,1,0,0,1,305.29,80.65Zm19.85-2.13a1,1,0,0,1-.48-.12L320.28,76a1,1,0,1,1,1-1.75l4.38,2.4a1,1,0,0,1-.48,1.87Zm-8.8-4.73a1.13,1.13,0,0,1-.36-.06,7,7,0,0,0-4.3-.23,1,1,0,0,1-.51-1.94,9,9,0,0,1,5.52.3,1,1,0,0,1-.35,1.93Z"/><path class="cls-2" d="M71.78,264.36l-2.26-.76c-6.32-2.11-12.09-4.24-17.19-6.13s-9.61-3.55-12.78-4.47c-8.44-2.47-18.34-6.37-22.21-7.93a2.64,2.64,0,0,1-1.66-2.24,2.68,2.68,0,0,1,1-2.33c.9-4.82,6.55-26.54,6.61-26.76.21-.73,1.58-6,1.58-6,.89-4.2,5.94-4.36,8.78-3.77l.37.11c.29.12,29.52,12.16,44.29,16.63l1.83.56-.47,1.85c-4.12,16.12-6.78,33.68-7.5,38.68ZM20.45,242c4.52,1.79,13,5,20.22,7.15,3.3,1,7.82,2.63,13,4.56,4.45,1.64,9.42,3.48,14.8,5.32,1-6.58,3.36-21.14,6.8-35.06-14.71-4.67-40.14-15.09-42.64-16.11-1.09-.18-3.7-.29-3.93.8,0,.09-1.41,5.42-1.62,6.16-.38,1.36-6.32,24.58-6.59,26.62A2.41,2.41,0,0,1,20.45,242Zm.09-.65v0Zm-4-.32a1.58,1.58,0,0,0,0,.32A2.5,2.5,0,0,1,16.57,241Z"/><path class="cls-2" d="M76.87,224.32a3.09,3.09,0,0,1-1-.15c-13.05-4.08-35.14-13-41.6-15.63a3.21,3.21,0,0,1-.84-5.44c10.46-8.74,28.39-19.35,39.1-25.68,3.57-2.12,6.66-3.95,7.32-4.46,2.56-2,11.15-7.2,13.72-8.75a3.17,3.17,0,0,1,2.48-.35,116.68,116.68,0,0,0,18.55,2.86h0a3.2,3.2,0,0,1,1.39,5.94C105,179.35,90.46,191.06,84,208.84c-1.32,3.64-2.67,8-4,13.07a3.22,3.22,0,0,1-3.11,2.41Zm-39.81-19c7.47,3,27,10.87,39.26,14.78,1.28-4.83,2.59-9.07,3.88-12.64,6.51-17.8,20.46-29.79,31.76-37a117.61,117.61,0,0,1-16.56-2.67c-5.14,3.1-11.18,6.86-13,8.31-.83.64-3.1,2-7.75,4.74C65,186.53,47.44,196.94,37.06,205.33Zm77.25-34.63Zm-19.23-3Z"/><path class="cls-12" d="M484.27,59.4a17.5,17.5,0,0,0-13,0C464.61,62.25,455.11,67,441.77,80,429.4,92.07,423.05,101,423.69,110.15s5.71,14.59,15.54,27.27,18.71,21.44,24.42,21.44c8.58,0,8.25-13.51,8.57-25.24s0-34.26,2.22-38.38a14.35,14.35,0,0,1,7.65-6.66c2.93-.64-1.15-10.15-1.15-10.15s1.64-1.59,1.15-10.15C482.09,68.28,486.81,61.3,484.27,59.4Z"/><path class="cls-2" d="M463.65,160.86c-5.91,0-14.42-7.27-26-22.21-1.12-1.45-2.18-2.8-3.18-4.07-7.85-10-12.17-15.54-12.78-24.3-.72-10.5,6.95-20.26,18.68-31.7,13.11-12.77,22.58-17.8,30.11-21a19.48,19.48,0,0,1,14.61,0l.38.23c3.47,2.6.25,8.53-1.35,11,.25,5.41-.34,8.24-1,9.72,1.13,2.79,2.8,7.82,1.52,10.31a3.15,3.15,0,0,1-2,1.63,12.33,12.33,0,0,0-6.49,5.7c-1.51,2.79-1.7,18.29-1.83,28.55-.05,3.29-.08,6.37-.15,8.93l-.06,2.46C473.89,147.72,473.59,160.86,463.65,160.86ZM477.59,60.13a14.11,14.11,0,0,0-5.54,1.1c-7.19,3.09-16.24,7.9-28.89,20.22-13.11,12.77-18,20.78-17.48,28.56.52,7.53,4.34,12.4,11.94,22.1,1,1.28,2.07,2.63,3.19,4.09,13.93,18,20.29,20.66,22.84,20.66,5.6,0,6.23-8.63,6.51-20.83l.06-2.47c.07-2.54.11-5.6.15-8.87.2-15.66.48-27,2.31-30.4a16.44,16.44,0,0,1,8.47-7.49c.13-1.22-.78-4.62-2-7.59L478.56,78l.85-.83c.18-.36,1-2.43.68-8.73l0-.67.38-.56c1.51-2.25,2.73-5.12,2.6-6.1A16.49,16.49,0,0,0,477.59,60.13Z"/><path class="cls-2" d="M77.14,224.55c-15-4.53-44.37-16.65-44.66-16.77L34,204.09c.3.12,29.53,12.16,44.3,16.63Z"/><path class="cls-2" d="M75.9,232a1,1,0,0,1-.29,0c-1-.31-2.18-.68-3.39-1.08a1,1,0,0,1,.63-1.9c1.2.4,2.31.76,3.34,1.07A1,1,0,0,1,75.9,232Zm-8.09-2.72a1,1,0,0,1-.34-.06c-1.52-.54-3.1-1.13-4.72-1.73a1,1,0,0,1,.71-1.88c1.61.61,3.18,1.19,4.68,1.73a1,1,0,0,1,.61,1.28A1,1,0,0,1,67.81,229.26Zm-9.38-3.52a1.19,1.19,0,0,1-.37-.06l-4.67-1.83a1,1,0,0,1,.74-1.86q2.34.93,4.66,1.82a1,1,0,0,1-.36,1.93Zm-9.32-3.67a.94.94,0,0,1-.37-.07l-4.65-1.88a1,1,0,1,1,.75-1.85l4.64,1.87a1,1,0,0,1-.37,1.93Zm-9.28-3.78a1,1,0,0,1-.38-.07l-4.63-1.92a1,1,0,0,1,.77-1.85l4.62,1.92a1,1,0,0,1-.38,1.92Zm-9.25-3.85a1.09,1.09,0,0,1-.39-.08l-4.63-2a1,1,0,1,1,.79-1.84s1.74.75,4.62,2a1,1,0,0,1-.39,1.92Z"/><path class="cls-2" d="M73.74,240.32a.92.92,0,0,1-.29,0c-1-.32-2.18-.68-3.39-1.09a1,1,0,1,1,.63-1.89c1.19.39,2.31.75,3.34,1.06a1,1,0,0,1-.29,2Zm-8.1-2.72a1.06,1.06,0,0,1-.34-.06c-1.51-.55-3.09-1.13-4.71-1.74a1,1,0,0,1,.7-1.87c1.62.6,3.19,1.18,4.69,1.72a1,1,0,0,1-.34,1.95Zm-9.38-3.52a.92.92,0,0,1-.36-.07c-1.54-.59-3.11-1.21-4.67-1.82a1,1,0,0,1,.74-1.86l4.65,1.82a1,1,0,0,1-.36,1.93ZM47,230.4a1,1,0,0,1-.38-.07l-4.64-1.88a1,1,0,0,1-.55-1.3,1,1,0,0,1,1.3-.55l4.64,1.88a1,1,0,0,1,.55,1.3A1,1,0,0,1,47,230.4Zm-9.28-3.77a.84.84,0,0,1-.38-.08c-1.65-.67-3.2-1.32-4.63-1.91a1,1,0,0,1-.54-1.31,1,1,0,0,1,1.31-.54l4.62,1.91a1,1,0,0,1,.54,1.31A1,1,0,0,1,37.67,226.63Zm-9.25-3.85a1.09,1.09,0,0,1-.39-.08l-4.64-2a1,1,0,1,1,.79-1.83l4.63,1.95a1,1,0,0,1,.53,1.31A1,1,0,0,1,28.42,222.78Z"/><path class="cls-2" d="M118.18,171c-15.45-1-22.88-3.23-23.19-3.33l1.19-3.82c.07,0,7.36,2.23,22.25,3.15Z"/><path class="cls-2" d="M111.36,174.65h-.06c-1.06-.06-2.08-.14-3.06-.23a1,1,0,0,1-.91-1.09,1,1,0,0,1,1.09-.9l3,.23a1,1,0,0,1-.06,2Zm-8-.81h-.15c-1.71-.25-3.39-.54-5-.88a1,1,0,1,1,.41-1.95c1.55.32,3.18.61,4.86.85a1,1,0,0,1-.14,2Zm-9.78-2.08a.9.9,0,0,1-.28,0,30.8,30.8,0,0,1-4.86-1.8,1,1,0,0,1,.91-1.78,29,29,0,0,0,4.52,1.66,1,1,0,0,1-.29,2Z"/><path class="cls-2" d="M104.52,180.21h-.06l-2-.14a1,1,0,1,1,.16-2l1.93.14a1,1,0,0,1-.06,2Zm-6.92-.67h-.13c-1.75-.24-3.43-.52-5-.84a1,1,0,0,1,.4-2c1.53.31,3.16.59,4.86.82a1,1,0,0,1,.86,1.12A1,1,0,0,1,97.6,179.54Zm-9.78-2a1,1,0,0,1-.29,0,23.08,23.08,0,0,1-4.86-1.94,1,1,0,0,1-.34-1.37,1,1,0,0,1,1.37-.34,22.21,22.21,0,0,0,4.42,1.74,1,1,0,0,1-.3,2Z"/><path class="cls-2" d="M83.91,298.42c0-.05-4.69-5-9.43-9.77-3.61-3.65-12.15-6.19-15.14-6.86l-.14,0L10.57,267.16l1.15-3.83L60.29,277.9c1.09.25,12,2.87,17,7.93,4.78,4.83,9.46,9.8,9.51,9.85Z"/><path class="cls-2" d="M84.76,295.62a210.61,210.61,0,0,1-9-31.08l3.93-.76a207.1,207.1,0,0,0,8.8,30.4Z"/><path class="cls-2" d="M313.27,313c-.54,0-1,0-1.53,0a6.55,6.55,0,0,1-5.81-4.16c-.95-2.41-2.23-5.81-3.8-10.11-1.43-3.91-1.36-7.36.2-10.25,2.26-4.2,6.92-5.63,7.83-5.88l50.22-19.2,1.43,3.73-50.58,19.33s-3.8,1-5.39,3.94c-1,1.84-1,4.18.05,7,1.55,4.27,2.82,7.64,3.76,10a2.55,2.55,0,0,0,2.26,1.63c4.57.2,12.94-.43,17.72-6.84l3.21,2.39C327.47,311.72,318.81,313,313.27,313Z"/><path class="cls-2" d="M433.46,286.49l-.09-4c1.22,0,29.9-.64,35.36-.64,1.82,0,3.2-.6,3.79-1.64a2.09,2.09,0,0,0,0-2.07c-1-1.62-8.53-6.85-15.21-11l2.1-3.41c2.4,1.49,14.5,9.06,16.51,12.28a6.06,6.06,0,0,1,.08,6.12c-1.31,2.35-4,3.7-7.28,3.7C463.31,285.85,433.76,286.48,433.46,286.49Z"/><ellipse class="cls-3" cx="130.47" cy="179.79" rx="7.19" ry="6.53"/><path class="cls-13" d="M130.47,188.32c-5.07,0-9.19-3.83-9.19-8.53s4.12-8.53,9.19-8.53,9.19,3.83,9.19,8.53S135.54,188.32,130.47,188.32Zm0-13.06c-2.86,0-5.19,2-5.19,4.53s2.33,4.53,5.19,4.53,5.19-2,5.19-4.53S133.33,175.26,130.47,175.26Z"/><ellipse class="cls-3" cx="186.57" cy="153.08" rx="7.19" ry="6.46"/><path class="cls-13" d="M186.57,161.55c-5.07,0-9.19-3.8-9.19-8.47s4.12-8.46,9.19-8.46,9.18,3.8,9.18,8.46S191.63,161.55,186.57,161.55Zm0-12.93c-2.86,0-5.19,2-5.19,4.46s2.33,4.47,5.19,4.47,5.18-2,5.18-4.47S189.43,148.62,186.57,148.62Z"/><ellipse class="cls-3" cx="233.56" cy="126.53" rx="7.19" ry="6.56"/><path class="cls-13" d="M233.56,135.09c-5.07,0-9.19-3.84-9.19-8.56s4.12-8.56,9.19-8.56,9.18,3.84,9.18,8.56S238.62,135.09,233.56,135.09Zm0-13.12c-2.86,0-5.19,2-5.19,4.56s2.33,4.56,5.19,4.56,5.18-2.05,5.18-4.56S236.42,122,233.56,122Z"/><ellipse class="cls-3" cx="280.67" cy="74.69" rx="7.42" ry="7.74"/><path class="cls-13" d="M280.67,84.43a9.75,9.75,0,1,1,9.42-9.74A9.6,9.6,0,0,1,280.67,84.43Zm0-15.48a5.75,5.75,0,1,0,5.42,5.74A5.6,5.6,0,0,0,280.67,69Z"/><path class="cls-2" d="M316.6,320.77c-26.69,0-48.79-.81-49-.82l.15-4c.27,0,27.17,1,57.43.79l0,4Z"/><path class="cls-3" d="M132.48,183.56a8.82,8.82,0,0,1-8.72-1.84c-3.21-2.89-7.29-8.5-8.52-18.82-2.12-17.76,3-14.8,6.34-16.07s6.77-5.07,8.88-4.65.64,8.88,3.73,19c1.53,5,3.58,12.3,3.46,16.53C137.59,180.06,136.36,182.24,132.48,183.56Z"/><path class="cls-2" d="M129.7,186a10.91,10.91,0,0,1-7.28-2.81c-3.46-3.12-7.87-9.14-9.17-20.07-1.67-14.08.78-17.07,6.2-17.88a7.75,7.75,0,0,0,1.43-.3,19.09,19.09,0,0,0,3.83-2.28c2.11-1.47,4.11-2.86,6.15-2.46,2.51.5,2.73,3.26,3.08,7.44a59.17,59.17,0,0,0,2.16,12.93c1.59,5.19,3.68,12.62,3.55,17.17-.07,2.52-1.26,5.9-6.52,7.69A10.68,10.68,0,0,1,129.7,186Zm-.15-41.7A23.92,23.92,0,0,0,127,146a22.44,22.44,0,0,1-4.71,2.75,11.41,11.41,0,0,1-2.25.51c-2.13.31-4.34.64-2.82,13.45,1.16,9.7,4.92,14.9,7.88,17.56a6.79,6.79,0,0,0,6.74,1.43h0c3.31-1.12,3.78-2.73,3.81-4,.13-4.43-2.51-13.05-3.37-15.89A62.23,62.23,0,0,1,130,148C129.84,146.71,129.72,145.2,129.55,144.32Z"/><path class="cls-3" d="M187.78,156.91a8.81,8.81,0,0,1-8.72-1.83c-3.21-2.89-7.1-8.52-8.52-18.82-2.65-19.13.63-21.2,4-22.46s7.09-6.83,11.95-5.55c6.46,1.69-.1,16.17,3,26.29,1.53,5,3.58,12.3,3.46,16.52C192.88,153.42,191.66,155.6,187.78,156.91Z"/><path class="cls-2" d="M185,159.37a10.88,10.88,0,0,1-7.28-2.8c-3.33-3-7.63-8.92-9.16-20-2.5-18.09-.07-22.61,5.29-24.62a14.06,14.06,0,0,0,3.1-2.07c2.63-2.06,5.9-4.62,10.06-3.54,5.26,1.38,4.68,7.52,4.06,14-.43,4.48-.91,9.56.33,13.62,1.59,5.19,3.68,12.62,3.55,17.17-.07,2.52-1.26,5.9-6.52,7.69h0A10.67,10.67,0,0,1,185,159.37Zm0-49.31c-1.72,0-3.41,1.2-5.63,2.94a16.47,16.47,0,0,1-4.15,2.67c-2.23.83-5.28,2-2.74,20.32,1.37,9.92,5,15,7.87,17.6a6.81,6.81,0,0,0,6.75,1.43h0c3.31-1.12,3.78-2.74,3.81-4,.13-4.43-2.51-13.06-3.37-15.89-1.48-4.82-1-10.32-.49-15.17.53-5.59.74-9.29-1.09-9.77A4,4,0,0,0,185,110.06Z"/><path class="cls-3" d="M235.57,130.48a8.83,8.83,0,0,1-8.73-1.83c-3.2-2.89-7.75-14-9.17-24.32-2.65-19.14-.3-27.29,3.09-28.56s4.65-14.68,9.51-13.41c6.46,1.69.21,15.44,7,45.74,1.14,5.11,3.58,12.3,3.46,16.53C240.67,127,239.44,129.17,235.57,130.48Z"/><path class="cls-2" d="M232.79,132.94a10.85,10.85,0,0,1-7.28-2.81c-3.83-3.44-8.42-15.38-9.82-25.53-2.5-18.08-1-28.7,4.37-30.7.66-.4,1.77-3.26,2.43-5,1.68-4.32,3.76-9.7,8.29-8.51,4.7,1.23,4.77,6.06,4.87,14.07a149,149,0,0,0,3.58,33.17c.33,1.46.76,3.1,1.23,4.84,1.17,4.38,2.37,8.9,2.28,12.18-.07,2.52-1.26,5.9-6.52,7.69h0A10.67,10.67,0,0,1,232.79,132.94Zm-3.13-68.66c-1.08,0-2.67,4.1-3.44,6.1-1.34,3.44-2.49,6.41-4.76,7.26-.05,0-5.15,2.23-1.81,26.41,1.48,10.75,6,20.87,8.53,23.11a6.83,6.83,0,0,0,6.75,1.43h0c3.31-1.13,3.77-2.74,3.81-4,.08-2.7-1.1-7.13-2.15-11-.47-1.78-.92-3.46-1.26-5a152.54,152.54,0,0,1-3.68-34c-.09-6.61-.2-9.81-1.88-10.26Z"/><path class="cls-3" d="M285.07,79.25a8.83,8.83,0,0,0-.59-8.9c-2.4-3.58-5.17-6.92-15.16-9.79-18.58-5.32-34.59-6.88-36.33-3.71s-5.83,3.27-5.25,8.26c.76,6.63,10.07,8.67,23.39,11.84,5.09,1.21,18.08,4,22.28,4.44C275.75,81.66,283.21,82.9,285.07,79.25Z"/><path class="cls-2" d="M278.45,83.8a38.33,38.33,0,0,1-4.68-.35l-.59-.07c-4.31-.49-17.21-3.22-22.51-4.48l-1-.25c-13.34-3.17-23-5.46-23.88-13.31-.49-4.28,1.82-6.1,3.5-7.43a7.05,7.05,0,0,0,2-2c3.89-7.11,37.21,2.35,38.63,2.75,10.47,3,13.67,6.73,16.27,10.6a10.81,10.81,0,0,1,.71,10.92h0C285.34,83.12,281.71,83.8,278.45,83.8ZM234.7,57.9a10.52,10.52,0,0,1-3,3.15c-1.5,1.18-2.24,1.77-2,3.83.58,5.06,9.08,7.08,20.84,9.88l1,.24c5.35,1.28,18,4,22,4.4l.62.08c5.27.65,8.31.27,9-1.13h0a6.8,6.8,0,0,0-.46-6.88c-2.33-3.48-4.85-6.34-14.06-9C249.16,56.87,236.44,56.52,234.7,57.9Z"/><path class="cls-14" d="M480.86,78.43c-14,5.71-25.41,17.08-30.55,23.62a4.43,4.43,0,0,1-5.66,1.12h0a4.44,4.44,0,0,1-1.38-6.52C458,77,482,68.28,482,68.28,482.49,76.85,480.86,78.43,480.86,78.43Z"/><path class="cls-2" d="M446.84,105.75a6.51,6.51,0,0,1-3.17-.84,6.44,6.44,0,0,1-2-9.46c14.91-19.91,38.64-28.69,39.65-29l2.52-.92.16,2.68c.49,8.56-1.06,11-1.75,11.7l-.28.27-.36.15c-12.64,5.14-23.91,15.61-29.73,23A6.39,6.39,0,0,1,446.84,105.75Zm33.25-34.53c-6.51,2.84-23.83,11.43-35.22,26.62a2.44,2.44,0,0,0-.43,2,2.44,2.44,0,0,0,4.3,1c2.18-2.78,13.83-16.86,30.71-24A17.38,17.38,0,0,0,480.09,71.22Z"/><path class="cls-15" d="M463,149.15a.52.52,0,0,1-.33-.12.49.49,0,0,1-.05-.7,2.12,2.12,0,0,0,.42-.8l1-3.74a.49.49,0,0,1,.61-.35.5.5,0,0,1,.36.61l-1,3.73a3.06,3.06,0,0,1-.62,1.2A.52.52,0,0,1,463,149.15Zm-4.27-.5a.5.5,0,0,1-.37-.16l-3.38-3.7a.5.5,0,1,1,.74-.67c1.52,1.68,2.77,3,3.38,3.7a.5.5,0,0,1-.37.83ZM452,141.24a.52.52,0,0,1-.38-.17c-1.13-1.26-2.28-2.55-3.33-3.75a.5.5,0,0,1,0-.7.51.51,0,0,1,.71,0c1.05,1.2,2.2,2.48,3.33,3.74a.51.51,0,0,1-.37.84Zm11.42-1.08A.49.49,0,0,1,463,140l-3.38-3.71a.51.51,0,0,1,0-.71.49.49,0,0,1,.7,0l3.37,3.7a.5.5,0,0,1,0,.71A.46.46,0,0,1,463.41,140.16Zm-18-6.47a.48.48,0,0,1-.38-.18l-.35-.43c-.68-.83-1.59-2-2.73-3.56a.5.5,0,0,1,.11-.7.51.51,0,0,1,.7.1c1.12,1.52,2,2.71,2.7,3.54l.33.42a.49.49,0,0,1-.06.7A.48.48,0,0,1,445.39,133.69Zm11.3-1a.52.52,0,0,1-.38-.17c-1.22-1.38-2.38-2.7-3.3-3.78a.5.5,0,1,1,.76-.65c.92,1.08,2.07,2.39,3.29,3.77a.48.48,0,0,1,0,.7A.46.46,0,0,1,456.69,132.73Zm-17.31-7a.49.49,0,0,1-.41-.21c-1-1.35-2-2.74-2.92-4.07a.5.5,0,0,1,.12-.7.49.49,0,0,1,.69.12l2.92,4.06a.51.51,0,0,1-.11.7A.46.46,0,0,1,439.38,125.68Zm10.9-.65a.49.49,0,0,1-.4-.21c-.9-1.19-1.91-2.58-3-4a.5.5,0,1,1,.81-.59c1,1.46,2.07,2.84,3,4a.5.5,0,0,1-.1.7A.54.54,0,0,1,450.28,125Zm-16.72-7.51a.48.48,0,0,1-.41-.21c-1.71-2.42-2.89-4.11-2.89-4.11a.48.48,0,0,1,.1-.67l.34-.27a.5.5,0,0,1,.65.76l2.61,3.71a.5.5,0,0,1-.12.7A.47.47,0,0,1,433.56,117.52Zm10.83-.6a.48.48,0,0,1-.4-.21c-1-1.43-2-2.83-2.9-4.09a.5.5,0,1,1,.81-.57l2.9,4.08a.5.5,0,0,1-.41.79Zm-9.45-6.86a.5.5,0,0,1-.31-.89l3-2.34a.52.52,0,0,1,.38-.1.51.51,0,0,1,.34.21l.7,1a.51.51,0,0,1-.12.7.5.5,0,0,1-.7-.12l-.4-.58-2.55,2A.47.47,0,0,1,434.94,110.06Z"/><circle class="cls-16" cx="157.35" cy="221.4" r="3.41"/><circle class="cls-16" cx="149.58" cy="243.6" r="3.41"/><circle class="cls-16" cx="166.23" cy="240.19" r="3.41"/><circle class="cls-16" cx="182.09" cy="235.91" r="3.41"/><circle class="cls-16" cx="239.42" cy="171.44" r="3.41"/><circle class="cls-16" cx="274.08" cy="166.16" r="3.41"/><circle class="cls-16" cx="257.48" cy="182.76" r="3.41"/><circle class="cls-16" cx="275.67" cy="194.6" r="3.41"/><circle class="cls-16" cx="295.29" cy="182.76" r="3.41"/><circle class="cls-16" cx="259.33" cy="206.28" r="3.41"/><circle class="cls-16" cx="275.67" cy="221.4" r="3.41"/><circle class="cls-16" cx="295.29" cy="207.64" r="3.41"/><circle class="cls-16" cx="317.3" cy="194.6" r="3.41"/><circle class="cls-16" cx="339.26" cy="206.28" r="3.41"/><circle class="cls-16" cx="313.89" cy="221.4" r="3.41"/><circle class="cls-16" cx="291.88" cy="236.78" r="3.41"/><circle class="cls-16" cx="313.89" cy="79.02" r="3.41"/><circle class="cls-16" cx="318.82" cy="99.97" r="3.41"/><circle class="cls-16" cx="324.84" cy="120.92" r="3.41"/><circle class="cls-16" cx="331.66" cy="141.85" r="3.41"/><circle class="cls-16" cx="351.08" cy="151.65" r="3.41"/><circle class="cls-16" cx="371.51" cy="161.1" r="3.41"/><circle class="cls-16" cx="391.46" cy="171.44" r="3.41"/><circle class="cls-16" cx="386.69" cy="151.65" r="3.41"/><circle class="cls-16" cx="381.85" cy="135.03" r="3.41"/><circle class="cls-16" cx="376.7" cy="115.95" r="3.41"/><circle class="cls-16" cx="361.7" cy="122.77" r="3.41"/><circle class="cls-16" cx="346.08" cy="131.62" r="3.41"/><circle class="cls-16" cx="366.57" cy="141.94" r="3.41"/><circle class="cls-16" cx="340.7" cy="111.6" r="3.41"/><circle class="cls-16" cx="356.22" cy="103.61" r="3.41"/><circle class="cls-16" cx="335.07" cy="91.57" r="3.41"/><path class="cls-1" d="M160.13,219.42a3.4,3.4,0,0,0-5.39,2.77,3.35,3.35,0,0,0,.63,2,3.4,3.4,0,1,1,4.76-4.74Z"/><path class="cls-1" d="M152.38,241.64a3.37,3.37,0,0,0-2-.65A3.41,3.41,0,0,0,147,244.4a3.33,3.33,0,0,0,.63,2,3.41,3.41,0,1,1,4.78-4.73Z"/><path class="cls-1" d="M169,238.22a3.41,3.41,0,0,0-5.4,2.77,3.38,3.38,0,0,0,.62,2,3.41,3.41,0,0,1,2-6.17A3.42,3.42,0,0,1,169,238.22Z"/><path class="cls-1" d="M184.87,233.93a3.4,3.4,0,0,0-5.39,2.77,3.33,3.33,0,0,0,.63,2,3.4,3.4,0,1,1,4.76-4.74Z"/><path class="cls-1" d="M242.18,169.44a3.41,3.41,0,0,0-5.37,2.79,3.42,3.42,0,0,0,.64,2,3.41,3.41,0,0,1,2-6.19A3.38,3.38,0,0,1,242.18,169.44Z"/><path class="cls-1" d="M276.85,164.18a3.33,3.33,0,0,0-2-.63,3.41,3.41,0,0,0-3.41,3.41,3.37,3.37,0,0,0,.65,2,3.41,3.41,0,1,1,4.73-4.78Z"/><path class="cls-1" d="M260.24,180.77a3.35,3.35,0,0,0-2-.63,3.41,3.41,0,0,0-3.41,3.41,3.35,3.35,0,0,0,.63,2,3.4,3.4,0,1,1,4.75-4.75Z"/><path class="cls-1" d="M278.46,192.64a3.36,3.36,0,0,0-2-.65,3.4,3.4,0,0,0-2.77,5.39,3.41,3.41,0,1,1,4.76-4.74Z"/><path class="cls-1" d="M298.05,180.77a3.33,3.33,0,0,0-2-.63,3.41,3.41,0,0,0-3.41,3.41,3.35,3.35,0,0,0,.63,2,3.4,3.4,0,1,1,4.75-4.75Z"/><path class="cls-1" d="M262.12,204.32a3.36,3.36,0,0,0-2-.65,3.41,3.41,0,0,0-3.41,3.41,3.36,3.36,0,0,0,.65,2,3.41,3.41,0,1,1,4.75-4.75Z"/><path class="cls-1" d="M278.45,219.42a3.4,3.4,0,0,0-5.39,2.77,3.35,3.35,0,0,0,.63,2,3.4,3.4,0,1,1,4.76-4.74Z"/><path class="cls-1" d="M298.05,205.66a3.33,3.33,0,0,0-2-.63,3.4,3.4,0,0,0-2.77,5.39,3.41,3.41,0,1,1,4.74-4.76Z"/><path class="cls-1" d="M320.07,192.62a3.33,3.33,0,0,0-2-.63,3.41,3.41,0,0,0-3.41,3.41,3.36,3.36,0,0,0,.65,2,3.41,3.41,0,1,1,4.73-4.77Z"/><path class="cls-1" d="M342,204.31a3.3,3.3,0,0,0-2-.64,3.4,3.4,0,0,0-2.77,5.39,3.41,3.41,0,1,1,4.75-4.75Z"/><path class="cls-1" d="M316.67,219.42a3.4,3.4,0,0,0-5.39,2.77,3.32,3.32,0,0,0,.64,2,3.41,3.41,0,1,1,4.75-4.75Z"/><path class="cls-1" d="M294.66,234.81a3.4,3.4,0,0,0-5.39,2.77,3.27,3.27,0,0,0,.64,2,3.37,3.37,0,0,1-1.44-2.77,3.41,3.41,0,0,1,6.19-2Z"/><path class="cls-1" d="M316.67,77a3.4,3.4,0,0,0-5.39,2.77,3.32,3.32,0,0,0,.64,2A3.41,3.41,0,1,1,316.67,77Z"/><path class="cls-1" d="M321.61,98a3.41,3.41,0,0,0-5.4,2.76,3.33,3.33,0,0,0,.63,2,3.38,3.38,0,0,1-1.42-2.76,3.41,3.41,0,0,1,6.19-2Z"/><path class="cls-1" d="M327.63,119a3.41,3.41,0,0,0-4.78,4.73,3.41,3.41,0,0,1,2-6.17A3.42,3.42,0,0,1,327.63,119Z"/><path class="cls-1" d="M334.45,139.89a3.36,3.36,0,0,0-2-.65,3.4,3.4,0,0,0-2.77,5.39,3.41,3.41,0,1,1,4.76-4.74Z"/><path class="cls-1" d="M353.87,149.69a3.36,3.36,0,0,0-2-.65,3.41,3.41,0,0,0-3.41,3.41,3.36,3.36,0,0,0,.65,2,3.41,3.41,0,1,1,4.75-4.75Z"/><path class="cls-1" d="M374.29,159.13a3.4,3.4,0,0,0-5.39,2.77,3.27,3.27,0,0,0,.64,2,3.37,3.37,0,0,1-1.44-2.77,3.41,3.41,0,0,1,6.19-2Z"/><path class="cls-1" d="M394.24,169.46a3.4,3.4,0,0,0-5.39,2.77,3.32,3.32,0,0,0,.64,2,3.41,3.41,0,1,1,4.75-4.75Z"/><path class="cls-1" d="M389.47,149.68a3.32,3.32,0,0,0-2-.64,3.4,3.4,0,0,0-2.77,5.39,3.41,3.41,0,1,1,4.75-4.75Z"/><path class="cls-1" d="M384.63,133.06a3.32,3.32,0,0,0-2-.64,3.4,3.4,0,0,0-2.77,5.39,3.41,3.41,0,1,1,4.75-4.75Z"/><path class="cls-1" d="M379.47,114a3.33,3.33,0,0,0-2-.63,3.41,3.41,0,0,0-3.41,3.41,3.36,3.36,0,0,0,.65,2,3.41,3.41,0,1,1,4.73-4.77Z"/><path class="cls-1" d="M364.49,120.81a3.36,3.36,0,0,0-2-.65,3.4,3.4,0,0,0-2.77,5.39,3.41,3.41,0,1,1,4.76-4.74Z"/><path class="cls-1" d="M348.86,129.65a3.4,3.4,0,0,0-4.75,4.75,3.41,3.41,0,1,1,4.75-4.75Z"/><path class="cls-1" d="M369.33,140a3.33,3.33,0,0,0-2-.63,3.41,3.41,0,0,0-3.41,3.41,3.35,3.35,0,0,0,.63,2,3.4,3.4,0,1,1,4.75-4.75Z"/><path class="cls-1" d="M343.48,109.62a3.4,3.4,0,0,0-5.39,2.77,3.32,3.32,0,0,0,.64,2,3.41,3.41,0,1,1,4.75-4.75Z"/><path class="cls-1" d="M359,101.64a3.41,3.41,0,0,0-4.78,4.73,3.41,3.41,0,0,1,2-6.17A3.42,3.42,0,0,1,359,101.64Z"/><path class="cls-1" d="M337.87,89.61a3.37,3.37,0,0,0-2-.65,3.41,3.41,0,0,0-3.41,3.41,3.33,3.33,0,0,0,.63,2,3.41,3.41,0,1,1,4.78-4.73Z"/><path class="cls-17" d="M405.61,215.23c-3.8,4.46-7.44,10-7.48,14.13a4.92,4.92,0,0,0,1.67,3.95,8.13,8.13,0,0,0,5.49,2,20.8,20.8,0,0,0,7.61-2c3.6-1.43,43.38-18.71,43.38-18.71.38-.19.31-.43-.17-.31l-43.3,11.73a9.57,9.57,0,0,1-2.51.36c-3.31,0-6.26-1.82-6.24-5.69a12.66,12.66,0,0,1,1.55-5.5Z"/></g></g></svg>