<svg xmlns="http://www.w3.org/2000/svg" viewBox="0 0 76.88 66.72"><defs><style>.cls-1{isolation:isolate;}.cls-2,.cls-6{fill:#3c3c3c;}.cls-3,.cls-7{fill:#323333;}.cls-4{fill:#f37721;}.cls-5{fill:#c36224;}.cls-6{opacity:0.6;}.cls-6,.cls-7{mix-blend-mode:screen;}.cls-7{opacity:0.5;}.cls-8{fill:#f9b332;}.cls-9{fill:#f18b22;}</style></defs><title>资源 20</title><g class="cls-1"><g id="图层_2" data-name="图层 2"><g id="Layer_1" data-name="Layer 1"><path class="cls-2" d="M51.39,34.78c0,14.86-3.77,24.9-13,24.9s-12.95-10-12.95-24.9,5.8-26.92,13-26.92S51.39,19.91,51.39,34.78Z"/><path class="cls-3" d="M13.08,34.72c0,14.1,6.6,21.6,15.3,21.6s12.28-7.5,12.28-21.6S35.16,9.21,28.38,9.21,13.08,20.63,13.08,34.72Z"/><path class="cls-2" d="M11.07,34.72c0,14.1,6.59,21.6,15.3,21.6s12.28-7.5,12.28-21.6S33.15,9.21,26.37,9.21,11.07,20.63,11.07,34.72Z"/><path class="cls-3" d="M63.8,34.72c0,14.1-6.59,21.6-15.3,21.6s-12.28-7.5-12.28-21.6S41.72,9.21,48.5,9.21,63.8,20.63,63.8,34.72Z"/><path class="cls-2" d="M65.81,34.72c0,14.1-6.59,21.6-15.3,21.6s-12.28-7.5-12.28-21.6S43.73,9.21,50.51,9.21,65.81,20.63,65.81,34.72Z"/><path class="cls-3" d="M74.87,38.75c0,14.09-8.61,19.58-17.31,19.58S44.27,52.84,44.27,38.75s6.5-25.52,13.29-25.52C70.59,13.23,74.87,24.65,74.87,38.75Z"/><path class="cls-2" d="M76.88,38.75c0,14.09-8.61,19.58-17.31,19.58S47.29,52.84,47.29,38.75s5.5-25.52,12.28-25.52C72.61,13.23,76.88,24.65,76.88,38.75Z"/><path class="cls-3" d="M60.73,13.26C71.32,14.41,74.87,24.6,74.87,37c0,13.17-8.05,18.31-16.19,18.31-7.29,0-10.73-4.15-11.36-14.51.35,12.56,4,17.52,12.25,17.52,8.7,0,17.31-5.49,17.31-19.58C76.88,25.08,72.86,13.93,60.73,13.26Z"/><path class="cls-4" d="M30.89,17.61c-1.79-1.55,5.53-2.72,5.22-9.24-.19-4.28-6-3.67-6.45-5.39s2-3.28,4.4-2.93,8.24,4.81,8.55,12.26c.06,2.77,5.22,3,3.21,5.06S34.83,21,30.89,17.61Z"/><path class="cls-5" d="M42.61,12.31a14.3,14.3,0,0,0-1.35-5.48c1.65,5.33-.23,4.57,1.27,7.82S35.87,18.3,34,17.13c-.87-.54-.61-1.86-.08-3.14-1.87,1.89-4.06,2.69-3,3.62,3.94,3.42,12.91,1.78,14.93-.24S42.67,15.08,42.61,12.31Z"/><path class="cls-2" d="M65.81,41.77c0,14.09-6.59,21.59-15.3,21.59s-12.28-7.5-12.28-21.59,5.5-25.52,12.28-25.52S65.81,27.67,65.81,41.77Z"/><path class="cls-3" d="M55.48,18.06C60,22,63.93,30,63.93,39.22c0,13.13-6.15,20.12-14.26,20.12-7.86,0-11.22-6.59-11.42-19,0,.46,0,.93,0,1.4,0,14.09,3.58,21.59,12.28,21.59s15.3-7.5,15.3-21.59C65.81,31,60.85,21.81,55.48,18.06Z"/><path class="cls-3" d="M2,38.75c0,14.09,8.61,19.58,17.32,19.58s12.28-5.49,12.28-19.58-5.5-25.52-12.28-25.52C6.29,13.23,2,24.65,2,38.75Z"/><path class="cls-2" d="M0,38.75C0,52.84,8.61,58.33,17.31,58.33s12.28-5.49,12.28-19.58S24.1,13.23,17.31,13.23C4.27,13.23,0,24.65,0,38.75Z"/><path class="cls-3" d="M22.72,18.26c-6.06,0-13.66,10.2-13.66,22.79,0,8.54,2.71,14.36,6.88,17.23.46,0,.91,0,1.37,0,8.71,0,12.28-5.49,12.28-19.58,0-8.13-1.82-15.36-4.67-20A5.64,5.64,0,0,0,22.72,18.26Z"/><path class="cls-2" d="M11.07,41.77c0,14.09,6.59,21.59,15.3,21.59s12.28-7.5,12.28-21.59-5.5-25.52-12.28-25.52S11.07,27.67,11.07,41.77Z"/><path class="cls-3" d="M31.72,18.79C27,21.72,23.47,30.87,23.47,41.72c0,10.42,2.1,18.14,7,21,5.74-2.15,8.19-9.28,8.19-20.9C38.65,31.66,35.82,22.93,31.72,18.79Z"/><path class="cls-2" d="M51.39,41.82c0,14.86-3.77,24.9-13,24.9s-12.95-10-12.95-24.9,5.8-26.91,13-26.91S51.39,27,51.39,41.82Z"/><path class="cls-3" d="M42.5,16.26c3.54,4.8,5.88,13.1,5.88,22.54,0,14.86-3.78,24.9-13,24.9a9.94,9.94,0,0,1-5.61-1.61,10,10,0,0,0,8.63,4.63c9.18,0,13-10,13-24.9C51.39,29.9,47.66,19.8,42.5,16.26Z"/><path class="cls-6" d="M29.19,28.65C29.05,26.42,31,17.9,38.1,16.34S29.66,36.39,29.19,28.65Z"/><path class="cls-6" d="M17.16,26.22c.38-1.92,3.91-8.71,10.28-8.45S15.83,32.87,17.16,26.22Z"/><path class="cls-6" d="M6.09,20.74c.68-1.68,5.08-7.25,10.83-5.91S3.73,26.58,6.09,20.74Z"/><path class="cls-7" d="M35,5a5.14,5.14,0,0,1,1.6,5.57S38.87,6.49,35,5Z"/><path class="cls-7" d="M37.42,6.65a6.13,6.13,0,0,1-.3,4.88A3.36,3.36,0,0,0,37.42,6.65Z"/><path class="cls-5" d="M34.21.68c.21.42-.55,1.21-1.68,1.75s-2.21.65-2.42.22.55-1.2,1.68-1.75S34,.26,34.21.68Z"/><path class="cls-3" d="M42.07,38.83c0-2-2.43-5.79-3.63-5.79s-3.63,3.79-3.63,5.79S42.07,40.83,42.07,38.83Z"/><path class="cls-3" d="M58.27,38.3c-.48.06-2,3.66-3.17,7.06-.85-1.29-1.83-2.29-2.49-2.29-1,0-2.6,2.1-3.53,4.16-.92-2.06-2.56-4.16-3.52-4.16S42.92,45.23,42,47.32c-.91-2.09-2.59-4.25-3.56-4.25s-2.65,2.16-3.56,4.25c-.92-2.09-2.59-4.25-3.56-4.25s-2.6,2.1-3.53,4.16c-.92-2.06-2.56-4.16-3.52-4.16-.65,0-1.64,1-2.49,2.29-1.21-3.4-2.69-7-3.17-7.06-.89-.1-3.16,6.28-1.23,9.73a8.37,8.37,0,0,0,4.51,3.52c.71,1.21,1.62,2.23,2.21,2.23s1.61-1.16,2.33-2.47l.42-.11c.73,1.36,1.76,2.58,2.4,2.58s1.51-1,2.21-2.25h.05c.71,1.22,1.63,2.25,2.22,2.25s1.63-1.18,2.35-2.51c.73,1.33,1.73,2.51,2.36,2.51s1.64-1.18,2.36-2.51c.72,1.33,1.73,2.51,2.35,2.51s1.51-1,2.22-2.25h.05c.7,1.22,1.62,2.25,2.21,2.25S49.3,52.56,50,51.2l.42.11c.72,1.31,1.72,2.47,2.34,2.47s1.49-1,2.2-2.23A8.37,8.37,0,0,0,59.5,48C61.43,44.58,59.15,38.2,58.27,38.3Z"/><path class="cls-3" d="M31.07,30.83c0-2-3.31-5.79-5.63-5.79s-5.63,3.79-5.63,5.79S31.07,32.83,31.07,30.83Z"/><path class="cls-3" d="M57.07,30.83c0-2-3.31-5.79-5.63-5.79s-5.63,3.79-5.63,5.79S57.07,32.83,57.07,30.83Z"/><path class="cls-8" d="M42.07,37.83c0-2-2.43-5.79-3.63-5.79s-3.63,3.79-3.63,5.79S42.07,39.83,42.07,37.83Z"/><path class="cls-9" d="M38.44,34c1,0,2.69,2.4,3.36,4.4a.88.88,0,0,0,.27-.61c0-2-2.43-5.79-3.63-5.79s-3.63,3.79-3.63,5.79a.92.92,0,0,0,.27.61C35.75,36.44,37.49,34,38.44,34Z"/><path class="cls-8" d="M58.27,37.3c-.48.06-2,3.66-3.17,7.06-.85-1.29-1.83-2.29-2.49-2.29-1,0-2.6,2.1-3.53,4.16-.92-2.06-2.56-4.16-3.52-4.16S42.92,44.23,42,46.32c-.91-2.09-2.59-4.25-3.56-4.25s-2.65,2.16-3.56,4.25c-.92-2.09-2.59-4.25-3.56-4.25s-2.6,2.1-3.53,4.16c-.92-2.06-2.56-4.16-3.52-4.16-.65,0-1.64,1-2.49,2.29-1.21-3.4-2.69-7-3.17-7.06-.89-.1-3.16,6.28-1.23,9.73a8.37,8.37,0,0,0,4.51,3.52c.71,1.21,1.62,2.23,2.21,2.23s1.61-1.16,2.33-2.47l.42-.11c.73,1.36,1.76,2.58,2.4,2.58s1.51-1,2.21-2.25h.05c.71,1.22,1.63,2.25,2.22,2.25s1.63-1.18,2.35-2.51c.73,1.33,1.73,2.51,2.36,2.51s1.64-1.18,2.36-2.51c.72,1.33,1.73,2.51,2.35,2.51s1.51-1,2.22-2.25h.05c.7,1.22,1.62,2.25,2.21,2.25S49.3,51.56,50,50.2l.42.11c.72,1.31,1.72,2.47,2.34,2.47s1.49-1,2.2-2.23A8.37,8.37,0,0,0,59.5,47C61.43,43.58,59.15,37.2,58.27,37.3Z"/><path class="cls-8" d="M31.07,29.83c0-2-3.31-5.79-5.63-5.79s-5.63,3.79-5.63,5.79S31.07,31.83,31.07,29.83Z"/><path class="cls-8" d="M57.07,29.83c0-2-3.31-5.79-5.63-5.79s-5.63,3.79-5.63,5.79S57.07,31.83,57.07,29.83Z"/><path class="cls-9" d="M20.2,30.42c.93-2,3.39-4.38,5.24-4.38s4.31,2.39,5.25,4.38a.75.75,0,0,0,.38-.59c0-2-3.31-5.79-5.63-5.79s-5.63,3.79-5.63,5.79A.74.74,0,0,0,20.2,30.42Z"/><path class="cls-9" d="M46.19,30.42c.94-2,3.4-4.38,5.25-4.38s4.31,2.39,5.24,4.38a.77.77,0,0,0,.39-.59c0-2-3.31-5.79-5.63-5.79s-5.63,3.79-5.63,5.79A.75.75,0,0,0,46.19,30.42Z"/><path class="cls-9" d="M18.61,40.3c.48.06,2,3.66,3.17,7.06.85-1.29,1.84-2.29,2.49-2.29,1,0,2.6,2.1,3.52,4.16.93-2.06,2.57-4.16,3.53-4.16s2.64,2.16,3.56,4.25c.91-2.09,2.59-4.25,3.56-4.25s2.65,2.16,3.56,4.25c.92-2.09,2.59-4.25,3.56-4.25s2.6,2.1,3.52,4.16c.93-2.06,2.57-4.16,3.53-4.16.66,0,1.64,1,2.49,2.29,1.21-3.4,2.69-7,3.17-7.06s1.54,2.19,1.88,4.74c.53-3.46-1.15-7.82-1.88-7.74-.48.06-2,3.66-3.17,7.06-.85-1.29-1.83-2.29-2.49-2.29-1,0-2.6,2.1-3.53,4.16-.92-2.06-2.56-4.16-3.52-4.16S42.92,44.23,42,46.32c-.91-2.09-2.59-4.25-3.56-4.25s-2.65,2.16-3.56,4.25c-.92-2.09-2.59-4.25-3.56-4.25s-2.6,2.1-3.53,4.16c-.92-2.06-2.56-4.16-3.52-4.16-.65,0-1.64,1-2.49,2.29-1.21-3.4-2.69-7-3.17-7.06-.73-.08-2.41,4.27-1.87,7.74C17.07,42.48,18.08,40.24,18.61,40.3Z"/></g></g></g></svg>