<?xml version="1.0" standalone="no"?><!DOCTYPE svg PUBLIC "-//W3C//DTD SVG 1.1//EN" "http://www.w3.org/Graphics/SVG/1.1/DTD/svg11.dtd"><svg t="1649682847828" class="icon" viewBox="0 0 1024 1024" version="1.1" xmlns="http://www.w3.org/2000/svg" p-id="42173" xmlns:xlink="http://www.w3.org/1999/xlink" width="200" height="200"><defs><style type="text/css">@font-face { font-family: "feedback-iconfont"; src: url("//at.alicdn.com/t/font_1031158_u69w8yhxdu.woff2?t=1630033759944") format("woff2"), url("//at.alicdn.com/t/font_1031158_u69w8yhxdu.woff?t=1630033759944") format("woff"), url("//at.alicdn.com/t/font_1031158_u69w8yhxdu.ttf?t=1630033759944") format("truetype"); }
</style></defs><path d="M643.2 833.6c-2.4-45.6 24-124 24-253.6 0-36-9.6-106.4-46.4-178.4C565.6 291.2 576 112 576 112H448s10.4 179.2-45.6 289.6c-36.8 72-46.4 142.4-46.4 178.4 0 129.6 27.2 208 24 253.6-2.4 39.2-17.6 68-24.8 112.8-4 24 15.2 46.4 39.2 46.4H628.8c24.8 0 43.2-22.4 39.2-46.4-7.2-44.8-22.4-73.6-24.8-112.8z" fill="#FFFFFF" p-id="42174"></path><path d="M668 945.6c-7.2-44-22.4-73.6-24.8-112.8-2.4-45.6 24-124 24-253.6 0-36-15.2-104-46.4-178.4-32-62.4-42.4-172-44.8-233.6H496l-4.8 93.6c-0.8 23.2-47.2-20-51.2 8-6.4 45.6-18.4 92.8-37.6 132-30.4 74.4-46.4 142.4-46.4 178.4 0 129.6 27.2 208 24 253.6-2.4 39.2-17.6 68-24.8 112.8-4 24 15.2 46.4 39.2 46.4H628.8c24.8 0 43.2-22.4 39.2-46.4z" fill="#70E7D2" p-id="42175"></path><path d="M643.2 833.6c-2.4-45.6 24-124 24-253.6 0-36-9.6-106.4-46.4-178.4l-25.6-63.2H428.8l-25.6 63.2c-36.8 72-46.4 142.4-46.4 178.4 0 129.6 27.2 208 24 253.6-2.4 39.2-17.6 68-24.8 112.8-4 24 15.2 46.4 39.2 46.4H628.8c24.8 0 43.2-22.4 39.2-46.4-7.2-44.8-22.4-73.6-24.8-112.8z" fill="#8D5459" p-id="42176"></path><path d="M482.4 968H388.8c-13.6 0-24-10.4-24-24s10.4-24 24-24h93.6c13.6 0 24 10.4 24 24s-10.4 24-24 24z" fill="#FFFFFF" p-id="42177"></path><path d="M668 945.6c-7.2-44-22.4-73.6-24.8-112.8-2.4-45.6 24-124 24-253.6 0-32.8-8-92.8-36-156.8-5.6-13.6-19.2-21.6-33.6-21.6-25.6 0-44 25.6-35.2 49.6 19.2 53.6 24.8 101.6 24.8 128.8 0 129.6-27.2 208-24 253.6 2.4 39.2 17.6 68 24.8 112.8 4 24 40.8 46.4 40.8 46.4 24.8 0 43.2-22.4 39.2-46.4z" fill="#6A3C41" p-id="42178"></path><path d="M356.8 580c0 52 4 95.2 9.6 132h292c4.8-36.8 9.6-80 9.6-132 0-24-4-63.2-17.6-108H374.4c-13.6 44.8-17.6 84-17.6 108z" fill="#FC697D" p-id="42179"></path><path d="M649.6 472h-80c13.6 44.8 17.6 84 17.6 108 0 52-4 95.2-9.6 132h80c4.8-36.8 9.6-80 9.6-132 0-24-4-63.2-17.6-108z" fill="#E34F66" p-id="42180"></path><path d="M628.8 1016H395.2c-19.2 0-36.8-8-48.8-22.4-12-14.4-17.6-32.8-14.4-51.2 3.2-20.8 8.8-38.4 12.8-54.4 5.6-19.2 10.4-36 12-55.2 0.8-16-2.4-39.2-7.2-68.8-7.2-44-16.8-104.8-16.8-183.2 0-45.6 12.8-118.4 48.8-189.6 20-38.4 32.8-80 39.2-124 1.6-12.8 14.4-22.4 27.2-20 12.8 1.6 22.4 14.4 20 27.2-7.2 48.8-22.4 95.2-44 138.4-41.6 81.6-43.2 153.6-43.2 168 0 74.4 8.8 130.4 16 175.2 4.8 32 9.6 57.6 8 79.2-1.6 24.8-7.2 45.6-13.6 65.6-4 15.2-8.8 31.2-12 48.8-0.8 6.4 1.6 10.4 3.2 12.8 1.6 2.4 5.6 5.6 12 5.6h233.6c6.4 0 10.4-3.2 12-5.6 1.6-2.4 4.8-6.4 3.2-12.8-3.2-18.4-7.2-33.6-12-48.8-5.6-20-12-41.6-13.6-65.6-1.6-21.6 2.4-46.4 8-79.2 7.2-44.8 16-101.6 16-175.2 0-13.6-2.4-86.4-43.2-168-58.4-115.2-48-218.4-48-223.2 1.6-12.8 13.6-22.4 26.4-21.6 12.8 1.6 22.4 13.6 21.6 26.4 0 0.8-8.8 94.4 43.2 196 36 70.4 48.8 144 48.8 189.6 0 78.4-9.6 139.2-16.8 183.2-4.8 29.6-8.8 52.8-7.2 68.8 0.8 19.2 6.4 36 12 55.2 4.8 16 9.6 33.6 12.8 54.4 3.2 18.4-2.4 37.6-14.4 51.2-11.2 15.2-28.8 23.2-48 23.2z" fill="#3F4A54" p-id="42181"></path><path d="M576 144H448c-13.6 0-24-10.4-24-24s10.4-24 24-24h128c13.6 0 24 10.4 24 24s-10.4 24-24 24z" fill="#FC697D" p-id="42182"></path><path d="M576 144h-32c-13.6 0-24-10.4-24-24s10.4-24 24-24h32c13.6 0 24 10.4 24 24s-10.4 24-24 24z" fill="#E34F66" p-id="42183"></path><path d="M560.8 612H404.8c-13.6 0-24-10.4-24-24s10.4-24 24-24h156c13.6 0 24 10.4 24 24s-11.2 24-24 24z" fill="#FFFFFF" p-id="42184"></path><path d="M420 776c-11.2 0-21.6-8.8-24-20-2.4-12.8-4-25.6-6.4-40-4-30.4-9.6-76.8-9.6-135.2 0-33.6 8-76.8 21.6-116 6.4-17.6 13.6-35.2 21.6-52 5.6-11.2 10.4-22.4 15.2-33.6 9.6-22.4 16.8-46.4 21.6-72 4.8-25.6 7.2-52 7.2-82.4V144h88v24h-40v56c0 33.6-2.4 63.2-8 92-5.6 28-13.6 55.2-24 80.8-4.8 12.8-11.2 24.8-16.8 37.6-7.2 14.4-13.6 29.6-19.2 45.6-17.6 51.2-19.2 89.6-19.2 100 0 54.4 4.8 97.6 9.6 128.8 1.6 14.4 4 27.2 6.4 39.2 2.4 12.8-7.2 25.6-20 27.2-0.8 0.8-2.4 0.8-4 0.8z" fill="#FFFFFF" p-id="42185"></path><path d="M752 1016H623.2c-13.6 0-24-10.4-24-24s10.4-24 24-24H752c13.6 0 24 10.4 24 24s-10.4 24-24 24z" fill="#3F4A54" p-id="42186"></path><path d="M872 1016c-1.6 0-3.2 0-4.8-0.8-1.6 0-3.2-0.8-4.8-1.6-1.6-0.8-2.4-1.6-4-2.4-1.6-0.8-2.4-1.6-4-3.2l-3.2-3.2c-0.8-1.6-1.6-2.4-2.4-4-0.8-1.6-0.8-3.2-1.6-4.8 0-1.6-0.8-3.2-0.8-4.8 0-6.4 2.4-12.8 7.2-16.8 5.6-5.6 13.6-8 21.6-6.4 1.6 0 3.2 0.8 4.8 1.6 1.6 0.8 3.2 1.6 4 2.4 1.6 0.8 2.4 1.6 4 3.2 4.8 4.8 7.2 10.4 7.2 16.8 0 1.6 0 3.2-0.8 4.8 0 1.6-0.8 3.2-1.6 4.8s-1.6 3.2-2.4 4c-0.8 1.6-1.6 2.4-3.2 3.2-0.8 0.8-2.4 2.4-4 3.2-1.6 0.8-2.4 1.6-4 2.4-1.6 0.8-3.2 0.8-4.8 1.6h-2.4z" fill="#3F4A54" p-id="42187"></path><path d="M426.4 858.4m-24 0a24 24 0 1 0 48 0 24 24 0 1 0-48 0Z" fill="#FFFFFF" p-id="42188"></path></svg>