<?xml version="1.0" standalone="no"?><!DOCTYPE svg PUBLIC "-//W3C//DTD SVG 1.1//EN" "http://www.w3.org/Graphics/SVG/1.1/DTD/svg11.dtd"><svg t="1649682840770" class="icon" viewBox="0 0 1024 1024" version="1.1" xmlns="http://www.w3.org/2000/svg" p-id="41877" xmlns:xlink="http://www.w3.org/1999/xlink" width="200" height="200"><defs><style type="text/css">@font-face { font-family: "feedback-iconfont"; src: url("//at.alicdn.com/t/font_1031158_u69w8yhxdu.woff2?t=1630033759944") format("woff2"), url("//at.alicdn.com/t/font_1031158_u69w8yhxdu.woff?t=1630033759944") format("woff"), url("//at.alicdn.com/t/font_1031158_u69w8yhxdu.ttf?t=1630033759944") format("truetype"); }
</style></defs><path d="M704 128H320v-16c0-8.84 7.16-16 16-16h352c8.84 0 16 7.16 16 16v16zM283.58 951.15c2.71 5.42 8.25 8.85 14.31 8.85h428.22c6.06 0 11.6-3.42 14.31-8.85 8.81-17.62 15.48-36.14 20.1-55.15H263.48c4.62 19.01 11.29 37.54 20.1 55.15z" fill="#E6E6E6" p-id="41878"></path><path d="M768 253.07c0-9.93-1.62-19.71-4.6-29.07H260.6c-2.98 9.36-4.6 19.14-4.6 29.07v581.27c0 20.85 2.59 41.54 7.48 61.67h497.04c4.89-20.13 7.48-40.81 7.48-61.67V253.07z" fill="#DD6657" p-id="41879"></path><path d="M751.88 199.81L704 128H320l-47.88 71.81c-5.01 7.51-8.82 15.68-11.53 24.19h502.8c-2.69-8.51-6.51-16.68-11.51-24.19z" fill="#EB9789" p-id="41880"></path><path d="M607.79 128S576 160 608 448 501.92 896 501.92 896h110.89s73.81-158.33 17.5-446.65C594.2 208.15 668.6 128 668.6 128h-60.81zM380.31 633.41c1.38 0.78 3.05 1.34 5.02 1.72s3.8 0.56 5.47 0.56c4.86 0 8.69-1.5 11.5-4.56 2.81-3.03 4.22-6.91 4.22-11.59 0-4.88-1.22-9.53-3.64-14.03a43.073 43.073 0 0 0-9.47-11.84 45.815 45.815 0 0 0-12.98-8.09c-4.78-1.97-9.53-2.97-14.23-2.97-3.34 0-6.03 0.75-8.09 2.19-2.05 1.44-3.64 3.25-4.78 5.47a24.907 24.907 0 0 0-2.39 6.81c-0.45 2.38-0.69 4.47-0.69 6.28 0 7.91 1.75 16.19 5.25 24.84 3.48 8.66 8.23 17.19 14.23 25.62s13.03 16.44 21.08 24.03 16.7 14.28 25.97 20.03c9.27 5.78 18.84 10.38 28.7 13.81 9.88 3.41 19.59 5.12 29.17 5.12 5.61 0 10.75-0.66 15.38-1.94 4.64-1.31 8.66-3.25 12.08-5.81 3.41-2.59 6.08-5.78 7.97-9.56 1.91-3.81 2.84-8.22 2.84-13.22 0-6.53-1.44-12.91-4.33-19.16-2.88-6.22-6.8-11.81-11.73-16.75-4.92-4.91-10.62-8.88-17.08-11.84-6.45-2.94-13.17-4.44-20.17-4.44-6.22 0-11.47 1.28-15.72 3.88s-6.38 7.22-6.38 13.91c0 3.5 0.91 6.81 2.73 10.03 1.83 3.19 4.06 6.22 6.72 9.09 2.66 2.91 5.47 5.47 8.44 7.75 2.95 2.28 5.66 4.25 8.08 5.94l-1.14 2.28c-3.94-2.59-7.7-5.41-11.27-8.44a73.69 73.69 0 0 1-9.69-9.91c-2.89-3.59-5.17-7.5-6.84-11.75-1.66-4.25-2.5-8.97-2.5-14.12 0-7.91 2.39-14.34 7.17-19.38 4.8-5 11.05-7.5 18.8-7.5 9.27 0 17.47 2.31 24.61 6.94 7.14 4.66 13.14 10.62 18 18s8.58 15.56 11.16 24.62c2.59 9.03 3.88 17.94 3.88 26.75 0 15.19-4.33 26.97-12.98 35.31-8.66 8.38-20.5 12.53-35.53 12.53-9.72 0-19.45-2.03-29.17-6.16-9.72-4.09-19.02-9.59-27.91-16.5s-17.12-14.97-24.72-24.16-14.2-18.88-19.83-29.06c-5.61-10.16-10.02-20.5-13.2-30.97-3.2-10.47-4.8-20.5-4.8-30.06 0-4.41 0.47-8.66 1.38-12.78 0.91-4.09 2.39-7.75 4.44-10.94s4.83-5.73 8.31-7.62c3.5-1.91 7.83-2.84 13-2.84 5.61 0 10.67 1.36 15.14 4.09 4.48 2.73 8.25 6.28 11.28 10.59 3.05 4.34 5.39 9.16 7.06 14.47s2.5 10.5 2.5 15.5c0 3.19-0.38 6.25-1.14 9.22-0.75 2.97-1.92 5.59-3.53 7.88-1.59 2.28-3.64 4.12-6.14 5.56-2.52 1.47-5.5 2.19-9 2.19-2.12 0-4.25-0.31-6.38-0.94-2.12-0.59-3.73-1.19-4.8-1.81l0.67-2.27zM452.98 468.91c3.95 3.05 7.53 6.64 10.72 10.83 3.19 4.17 4.78 8.77 4.78 13.78 0 3.5-0.77 6.53-2.28 9.11s-3.64 4.94-6.38 7.06c7.59 1.83 14.77 4.83 21.53 9 6.75 4.17 12.69 9.23 17.77 15.16 5.09 5.92 9.11 12.53 12.08 19.81 2.97 7.3 4.44 14.89 4.44 22.78 0 8.38-2.39 15.06-7.17 20.06s-11.36 7.53-19.7 7.53c-8.05 0-15.77-2.06-23.12-6.16-7.38-4.09-13.83-9.44-19.38-15.97-5.53-6.53-9.94-13.73-13.2-21.64-3.27-7.89-4.91-15.64-4.91-23.23 0-8.2 2.2-14.66 6.61-19.38 4.41-4.7 9.72-7.59 15.95-8.66 4.55-0.75 8.2-2.47 10.94-5.12s4.09-6.11 4.09-10.36c0-4.11-1.22-7.98-3.64-11.62-2.44-3.64-6.08-7.52-10.94-11.61l1.81-1.37z m59.93 105.93c0-3.8-1.28-7.59-3.88-11.39-2.58-3.8-5.92-7.44-10.02-10.94-4.11-3.48-8.73-6.72-13.91-9.67-5.16-2.97-10.33-5.55-15.48-7.75s-10.09-3.91-14.81-5.12c-4.7-1.22-8.66-1.83-11.84-1.83-3.8 0-6.77 0.8-8.89 2.39s-3.19 4.14-3.19 7.64c0 3.8 1.3 7.59 3.88 11.39s5.92 7.44 10.03 10.94c4.09 3.48 8.73 6.72 13.89 9.67 5.17 2.97 10.33 5.55 15.5 7.77 5.16 2.19 10.09 3.91 14.8 5.12 4.72 1.22 8.66 1.81 11.86 1.81 3.8 0 6.75-0.78 8.88-2.38s3.18-4.15 3.18-7.65z" fill="#FFFFFF" p-id="41881"></path><path d="M352.75 391.45l112.09 70.41c9.56 5.92 17.5 10.62 23.8 14.12 6.31 3.48 11.44 5.23 15.39 5.23 4.09 0 6.14-1.67 6.14-5.02 0-3.19-1.73-7.52-5.23-12.98s-8.36-11.31-14.58-17.55a336.165 336.165 0 0 0-18.45-17.08c-6.53-5.62-13.3-11.09-20.28-16.41l0.69-2.05c2.42 1.81 5.16 3.91 8.2 6.27 3.03 2.34 6.11 4.81 9.22 7.41 3.12 2.58 6.23 5.2 9.34 7.86s5.97 5.27 8.55 7.86c8.95 8.8 15.64 16.59 20.05 23.34 4.41 6.77 6.61 13.78 6.61 21.08 0 10.33-4.56 15.48-13.67 15.48-4.25 0-9.61-1.55-16.06-4.66-6.45-3.12-15.16-7.94-26.09-14.47l-104.34-63.58-1.38-25.26z" fill="#FFFFFF" p-id="41882"></path><path d="M433.17 346.58l-1.38-23.69c2.73 1.36 6.05 3.33 9.92 5.92 3.88 2.58 8.05 5.39 12.53 8.42 4.48 3.05 9.11 6.12 13.89 9.23s9.42 5.95 13.91 8.55c4.47 2.58 8.66 4.66 12.53 6.25 3.86 1.61 7.17 2.41 9.91 2.41 3.8 0 5.69-1.91 5.69-5.7 0-3.64-2.12-8.58-6.38-14.81-4.25-6.22-9.88-12.75-16.86-19.59-2.88-2.88-6-5.81-9.34-8.77-3.33-2.97-6.64-5.81-9.91-8.55s-6.3-5.23-9.11-7.52-5.12-4.11-6.95-5.47l0.91-1.59c5.33 3.95 11.2 8.5 17.66 13.67 6.47 5.16 13.33 11.39 20.62 18.67 7.3 7.3 13.25 14.47 17.89 21.53 4.62 7.06 6.94 14.09 6.94 21.08 0 4.86-1.25 8.62-3.75 11.28-2.52 2.66-5.59 3.98-9.23 3.98-1.22 0-2.34-0.08-3.42-0.22-1.05-0.16-1.89-0.39-2.5-0.69v0.45c5.31 4.7 9.8 10.03 13.44 15.95 3.66 5.92 5.47 12.3 5.47 19.12 0 3.66-0.67 6.77-2.05 9.34-1.36 2.59-3.22 4.67-5.58 6.27s-5.02 2.78-7.98 3.53c-2.95 0.77-6.03 1.14-9.22 1.14-7.44 0-14.89-2.05-22.33-6.16-7.44-4.09-14.16-9.25-20.16-15.48s-10.86-13.17-14.59-20.84c-3.72-7.67-5.58-15-5.58-21.98 0-5.31 1.14-9.5 3.42-12.53 2.28-3.05 5.84-5.55 10.7-7.52l-9.11-5.68z m58.33 68.34c4.41 0 8.23-0.72 11.5-2.16s4.91-4.52 4.91-9.23c-0.16-3.19-1.48-6.53-4-10.02-2.5-3.5-5.66-6.88-9.45-10.14s-8-6.38-12.64-9.34c-4.62-2.97-9.3-5.55-14.02-7.75-4.7-2.2-9.14-3.94-13.33-5.23-4.17-1.3-7.7-1.94-10.59-1.94-4.09 0-7.28 0.77-9.56 2.28s-3.42 4.48-3.42 8.88c0 3.5 1.06 7.03 3.19 10.59 2.12 3.58 4.94 7 8.44 10.27 3.48 3.27 7.41 6.38 11.73 9.33 4.33 2.97 8.77 5.52 13.33 7.64 4.55 2.12 8.92 3.8 13.09 5.02 4.18 1.21 7.77 1.8 10.82 1.8z" fill="#FFFFFF" p-id="41883"></path></svg>