<?xml version="1.0" standalone="no"?><!DOCTYPE svg PUBLIC "-//W3C//DTD SVG 1.1//EN" "http://www.w3.org/Graphics/SVG/1.1/DTD/svg11.dtd"><svg t="1649681047502" class="icon" viewBox="0 0 1024 1024" version="1.1" xmlns="http://www.w3.org/2000/svg" p-id="106764" xmlns:xlink="http://www.w3.org/1999/xlink" width="200" height="200"><defs><style type="text/css">@font-face { font-family: "feedback-iconfont"; src: url("//at.alicdn.com/t/font_1031158_u69w8yhxdu.woff2?t=1630033759944") format("woff2"), url("//at.alicdn.com/t/font_1031158_u69w8yhxdu.woff?t=1630033759944") format("woff"), url("//at.alicdn.com/t/font_1031158_u69w8yhxdu.ttf?t=1630033759944") format("truetype"); }
</style></defs><path d="M879.028 203.277H559.911l-19.06-65.018-13.486-7.694-79.352 20.153-8.087 13.591 32.411 127.623-0.94-0.717-16.65 3.634-20.152 37.788v10.529l27.896 52.297-15.354 42.652-12.823-11.537-17.291 2.934-21.411 39.048-0.044 10.683 14.316 26.578-18.622 25.781-7.694-13.082-17.392-2.396-28.971 27.845-3.433 8.065v25.355l-36.831 15.67v-20.873l-17.261-9.39-37.34 24.161-36.969-19.414 8.155-35.695-9.48-13.583-33.853-4.344c-4.73-13.941-15.146-58.723 3.088-149.897l-19.989-8.8c-3.513 4.795-85.815 118.703-66.081 227.416 8.738 48.131 36.182 87.602 81.577 117.308 58.261 38.126 113.201 59.903 161.503 70.838L301.8 843.32l6.077 14.4 43.457 18.262 4.332 0.874h61.09l11.185-11.185v-35.899l-8.002-10.722-25.403-7.54 22.244-31.687c38.495-1.064 67.92-9.498 84.787-19.604a66.58 66.58 0 0 0 2.791 3.043l-50.069 69.417 4.948 16.94 66.758 26.451 4.121 0.787h74.317l11.185-11.185v-39.049l-11.185-11.185H561.56l-0.83-0.622 54.114-45.205a56.864 56.864 0 0 0 20.466-43.756c0-15.734-6.448-30.6-17.783-41.34 15.295-11.2 39.943-34.087 57.577-74.211a89.004 89.004 0 0 0 29.645-13.515l24.754-17.388c11.956-8.4 26.007-12.841 40.624-12.841h46.235l11.185-11.185v-23.618l-8.986-10.966-53.946-10.813a92.828 92.828 0 0 0-52.756 4.809l-16.193 6.458c2.909-29.346 0.317-50.997-4.015-78.002h187.377l11.185-11.185V214.462l-11.185-11.185z" fill="#FCE3C3" p-id="106765"></path><path d="M559.911 203.277l-19.06-65.018-13.486-7.694-79.352 20.153-8.087 13.591 32.411 127.623-0.94-0.717-16.65 3.634-20.152 37.788v10.529l27.896 52.297-15.354 42.652-12.823-11.537-17.291 2.934-21.411 39.048-0.044 10.683 14.316 26.578-18.622 25.781-7.694-13.082-17.392-2.396-28.971 27.845-3.433 8.065v25.355l-36.831 15.67v-20.873l-17.261-9.39-37.34 24.161-36.969-19.414 8.155-35.695-9.48-13.583-33.853-4.344c-4.73-13.941-15.146-58.723 3.088-149.897l-19.989-8.8c-1.726 2.356-22.462 31.05-40.777 72.514-15.495 70.715 0.845 167.923 42.855 211.574 42.014 43.655 131.834 89.688 262.033 40.39C573.468 620.61 545.321 522.858 576.112 477.07c34.974-52.007 91.302-43.105 91.302-43.105l57.126 9.277h154.488l11.185-11.185V214.462l-11.185-11.185H559.911z" fill="#ED8F27" p-id="106766"></path><path d="M604.435 876.857h-74.317l-4.121-0.787-66.759-26.451-4.948-16.94 50.069-69.417c-13.114-13.377-16.08-28.679-35.58-28.679v-22.369c37.435 0 54.215 37.905 58.489 42.882l0.586 13.832-47.017 65.185 51.416 20.375h60.998v-16.679h-35.418l-6.71-2.235-15.117-11.334-0.459-17.534 64.96-54.264a34.55 34.55 0 0 0 12.434-26.585 34.55 34.55 0 0 0-12.434-26.582l-2.039-2.238-40.771-44.378 18.415-12.692 39.952 43.187c12.252 10.825 19.246 26.298 19.246 42.704a56.864 56.864 0 0 1-20.466 43.756l-54.114 45.205 0.83 0.622h42.875l11.185 11.185v39.049l-11.185 11.182zM416.756 876.857h-61.09l-4.332-0.874-43.457-18.263-6.077-14.399 33.365-84.942 20.818 8.178-29.37 74.772 31.307 13.158h47.652v-16.366l-32.306-9.59-5.971-17.148 34.639-49.341 18.307 12.852-25.705 36.616 25.403 7.54 8.002 10.723v35.899z" fill="#300604" p-id="106767"></path><path d="M408.575 779.944c-62.543 0.004-146.952-19.246-239.787-79.997-45.394-29.706-72.838-69.177-81.577-117.308-19.734-108.712 62.568-222.62 66.081-227.415l19.989 8.8c-18.233 91.174-7.817 135.957-3.088 149.897l33.853 4.344 9.48 13.583-8.155 35.695 36.969 19.414 37.34-24.161 17.261 9.39v20.873l36.831-15.67v-25.355l3.433-8.065 28.971-27.845 17.392 2.396 7.694 13.082 18.622-25.781-14.316-26.578 0.044-10.683 21.411-39.048 17.291-2.934 12.823 11.537 15.354-42.652-27.896-52.297v-10.529l20.152-37.788 16.65-3.634 0.94 0.717-32.411-127.623 8.087-13.591 79.352-20.153 13.486 7.694 19.06 65.018h319.117l11.185 11.185v217.595l-11.185 11.185H691.652c5.29 32.983 7.992 57.971 1.237 98.756l-21.812 3.457c7.071-42.696 2.523-75.755-3.663-111.49l11.021-13.093h189.409V225.646h-316.31l-10.734-8.039-18.382-62.707-58.057 14.742 37.551 147.873-17.618 11.651-15.994-12.19-11.156 20.924 27.423 51.416 0.652 9.051-22.671 62.98-18.004 4.525-14.694-13.224-11.702 21.336 14.756 27.397-0.782 11.854-32.75 45.347-18.707-0.881-9.197-15.634-15.324 14.727v27.988l-6.805 10.292-59.201 25.191-15.565-10.292v-17.229l-25.566 16.541-11.276 0.513-50.382-26.45-5.705-12.393 7.329-32.073-28.082-3.601-8.334-5.625c-0.874-1.558-17.793-33.034-9.925-112.742-20.964 41.462-44.01 103.502-33.398 161.807 7.613 41.823 31.771 76.309 71.801 102.504 165.429 108.261 296.228 74.114 314.723 55.618l15.816 15.816c-13.881 13.883-50.836 27.282-102.999 27.285z" fill="#300604" p-id="106768"></path><path d="M603.565 693.288l-9.692-20.163 4.846 10.082-4.889-10.06c0.385-0.189 38.56-19.449 61.756-74.047l20.585 8.745c-26.677 62.797-70.746 84.548-72.606 85.443zM745.07 314.958h129.935v22.369H745.07z" fill="#300604" p-id="106769"></path><path d="M653.554 612.965a88.946 88.946 0 0 1-30.339-5.33l-14.635-3.016L614.333 583l16.127 3.463a66.677 66.677 0 0 0 61.432-7.981l24.751-17.388c15.743-11.057 34.239-16.905 53.484-16.905h35.051v-3.27l-44.961-9.011a70.521 70.521 0 0 0-40.071 3.652l-56.776 22.642-6.124 0.619c-2.115-0.379-22.216 10.667-63.416-55.188l18.962-11.862c30.67 49.017 35.447 41.415 45.616 44.331l53.452-21.317c16.791-6.699 35.024-8.359 52.756-4.809l53.946 10.813 8.986 10.966v23.618l-11.185 11.185h-46.235c-14.618 0-28.668 4.442-40.624 12.842l-24.754 17.388a89.067 89.067 0 0 1-51.196 16.177z" fill="#300604" p-id="106770"></path><path d="M734.235 861.672l33-81.426 20.73 8.402-32.998 81.426zM801.765 867.314l-20.731-8.402 13.704-33.817 20.732 8.402z" fill="#300604" p-id="106771"></path><path d="M215.058 870.01l-32.999-81.427 20.732-8.402 32.999 81.426zM154.596 833.525l20.732-8.402 13.705 33.818-20.732 8.401z" fill="#300604" p-id="106772"></path><path d="M593.829 255.953l88.179 29.046s-12.991 51.601-66.423 32.75c-31.277-11.036-21.756-61.796-21.756-61.796z" fill="#300604" p-id="106773"></path><path d="M745.07 324.249l22.111 53.888 24.047-52.997z" fill="#FCE3C3" p-id="106774"></path><path d="M775.376 381.855l-16.521-0.303-22.11-53.888 8.5-12.414 46.158 0.891 8.021 12.717-24.048 52.997z m-16.777-48.343l8.998 21.929 9.785-21.566-18.783-0.363z" fill="#300604" p-id="106775"></path><path d="M262.403 363.322s8.039 8.12 26.008 9.23 22.886-6.701 22.886-6.701l28.651-48.029-34.328-49.225-35.169 15.317-22.901 45.142 14.853 34.266z" fill="#B12800" p-id="106776"></path><path d="M262.403 363.322c-8.077-20.119-2.497-31.056 5.466-40.865 8.542-11.245 11.191-22.363 11.191-22.363s5.87 8.21 2.642 20.764c11.504-11.552 14.666-30.977 13.652-38.397 23.376 18.611 31.803 56.9 15.943 83.389 77.905-38.354 25.176-105.865 15.826-113.31 2.968 7.541 2.702 19.787-4.501 25.228-8.584-43.694-35.923-53.721-35.923-53.721 2.063 22.2-14.563 45.208-30.339 62.382 0.054-8.826-0.072-14.719-4.415-23.817-1.973 16.065-14.973 28.015-19.39 43.929-5.755 21.719 1.097 37.839 29.848 56.781z" fill="#B12800" p-id="106777"></path><path d="M331.907 458.698s3.643 3.68 11.785 4.182c8.143 0.503 10.371-3.037 10.371-3.037l12.983-21.764-15.556-22.306-15.937 6.941-10.378 20.456 6.732 15.528z" fill="#B12800" p-id="106778"></path><path d="M331.907 458.698c-3.66-9.117-1.131-14.073 2.477-18.518 3.871-5.095 5.071-10.134 5.071-10.134s2.66 3.721 1.197 9.409c5.213-5.235 6.646-14.037 6.187-17.4 10.593 8.434 14.411 25.784 7.224 37.787 35.303-17.38 11.408-47.973 7.171-51.346 1.345 3.417 1.225 8.966-2.039 11.432-3.89-19.8-16.278-24.343-16.278-24.343 0.935 10.06-6.599 20.486-13.748 28.268 0.025-3.999-0.033-6.67-2.001-10.792-0.894 7.28-6.785 12.695-8.786 19.906-2.609 9.843 0.496 17.147 13.525 25.731z" fill="#B12800" p-id="106779"></path></svg>