<?xml version="1.0" standalone="no"?><!DOCTYPE svg PUBLIC "-//W3C//DTD SVG 1.1//EN" "http://www.w3.org/Graphics/SVG/1.1/DTD/svg11.dtd"><svg t="1649684989233" class="icon" viewBox="0 0 1058 1024" version="1.1" xmlns="http://www.w3.org/2000/svg" p-id="9877" xmlns:xlink="http://www.w3.org/1999/xlink" width="206.640625" height="200"><defs><style type="text/css">@font-face { font-family: "feedback-iconfont"; src: url("//at.alicdn.com/t/font_1031158_u69w8yhxdu.woff2?t=1630033759944") format("woff2"), url("//at.alicdn.com/t/font_1031158_u69w8yhxdu.woff?t=1630033759944") format("woff"), url("//at.alicdn.com/t/font_1031158_u69w8yhxdu.ttf?t=1630033759944") format("truetype"); }
</style></defs><path d="M115.521356 25.507006C61.199937 25.507006 17.004798 69.697893 17.004798 124.019313v767.467541c0 54.312917 44.195139 98.508056 98.512307 98.508056h822.864507c54.317169 0 98.516558-44.195139 98.516558-98.508056V214.649955c0-54.32142-44.195139-98.512307-98.516558-98.512307h-330.660069c-40.114018 0-90.520112-18.2035-110.096739-39.748417C471.692682 47.855394 412.274112 25.507006 362.348399 25.507006H115.521356z" fill="#E3BD84" p-id="9878"></path><path d="M931.71153 124.827035h-325.218574c-39.442333 0-89.032203-17.901667-108.285742-39.093738-25.498503-28.066209-83.939305-50.044745-133.04029-50.044745H122.399746C68.975322 35.692803 25.507133 79.156741 25.507133 132.581165v41.810233c0-53.424423 43.468189-96.888361 96.892613-96.888361h242.762926c49.105237 0 107.541787 21.978537 133.040291 50.044745 19.253538 21.187819 68.839157 39.093737 108.285742 39.093737h325.218574c53.415921 0 96.888361 17.956932 96.888361 71.385607v-16.303228c0.004251-53.432926-43.463938-96.896864-96.88411-96.896863z" fill="#FFEDB8" opacity=".21" p-id="9879"></path><path d="M362.344148 8.502335H115.517105c-15.550771 0-30.672174 3.073594-44.947595 9.140011a115.542485 115.542485 0 0 0-36.666321 24.763051A115.542485 115.542485 0 0 0 9.140138 79.071718 114.292641 114.292641 0 0 0 0.000128 124.019313v767.467541c0 15.54652 3.073594 30.672174 9.14001 44.947595a115.410698 115.410698 0 0 0 24.763051 36.657819 115.406447 115.406447 0 0 0 36.670572 24.7588 114.182111 114.182111 0 0 0 44.943344 9.14001h822.864507c15.550771 0 30.680677-3.082097 44.943344-9.14001a115.474466 115.474466 0 0 0 36.674823-24.7588 115.478717 115.478717 0 0 0 24.754549-36.657819 114.156604 114.156604 0 0 0 9.14001-44.947595V214.654207c0-15.550771-3.077845-30.672174-9.14001-44.947596a115.533982 115.533982 0 0 0-24.754549-36.670572 115.589248 115.589248 0 0 0-36.666321-24.763051 114.296893 114.296893 0 0 0-44.951846-9.14001h-330.660069c-17.502057 0-38.5921-4.085372-57.871145-11.206078-20.82647-7.690362-34.132625-16.906894-39.637886-22.969059-18.658375-20.53314-46.409997-33.647992-66.40749-41.036521C416.873875 13.977839 387.948931 8.502335 362.344148 8.502335zM34.009468 124.019313C34.009468 79.19075 70.688543 42.511676 115.517105 42.511676h246.827043c44.832814 0 100.038476 20.392851 122.684447 45.317447 22.64597 24.920345 77.851633 45.313196 122.688697 45.313196h330.660069c44.828563 0 81.511888 36.679074 81.511887 81.511888v676.828396c0 44.828563-36.683325 81.503386-81.511887 81.503386H115.517105C70.688543 972.985989 34.009468 936.315417 34.009468 891.486854V124.019313z" fill="#6E6E96" p-id="9880"></path><path d="M119.032821 294.359348c-56.259952 0-102.028023 45.772322-102.028023 102.028023v491.575265c0 56.25145 45.768071 102.028023 102.028023 102.028023h815.833075c56.25145 0 102.028023-45.776573 102.028023-102.028023V396.387371c0-56.255701-45.776573-102.028023-102.028023-102.028023H119.032821z" fill="#FFE494" p-id="9881"></path><path d="M934.865896 926.223145H119.032821c-56.259952 0-102.028023-45.776573-102.028023-102.028023v59.516347c0 56.25145 45.768071 102.028023 102.028023 102.028022h815.833075c56.25145 0 102.028023-45.776573 102.028023-102.028022v-59.516347c0 56.259952-45.772322 102.028023-102.028023 102.028023z" fill="#FF5D00" opacity=".12" p-id="9882"></path><path d="M927.477367 294.359348H133.325246C78.561705 294.359348 34.009468 338.915836 34.009468 393.675126v49.657889c0-54.763541 44.552237-99.315778 99.315778-99.315778H927.477367c54.763541 0 99.315778 44.552237 99.315778 99.315778V393.675126c0.004251-54.75929-44.552237-99.315778-99.315778-99.315778z" fill="#FFEDB8" p-id="9883"></path><path d="M124.699627 297.050337h815.833076c56.247199 0 102.028023 45.772322 102.028022 102.028023v-59.516347c0-56.255701-45.780824-102.028023-102.028022-102.028022H124.699627c-56.255701 0-102.028023 45.772322-102.028023 102.028022v59.516347c0-56.255701 45.772322-102.028023 102.028023-102.028023z" fill="#6E6E96" opacity=".15" p-id="9884"></path><path d="M934.874398 277.358929H119.032821c-16.022651 0-31.60318 3.16712-46.31222 9.416336a119.053949 119.053949 0 0 0-37.784378 25.519759 119.053949 119.053949 0 0 0-25.519759 37.784378A117.787101 117.787101 0 0 0 0.000128 396.391622v491.571014c0 16.026902 3.16712 31.611682 9.416336 46.316471a119.232498 119.232498 0 0 0 25.519759 37.792881 119.206991 119.206991 0 0 0 37.784378 25.52401A117.863622 117.863622 0 0 0 119.032821 1007.012334h815.841577c16.026902 0 31.60318-3.171371 46.316472-9.416336a119.287763 119.287763 0 0 0 37.780126-25.52401 118.990182 118.990182 0 0 0 25.524011-37.792881 117.629808 117.629808 0 0 0 9.420587-46.316471V396.391622c0-16.022651-3.162869-31.60318-9.420587-46.31222a119.138972 119.138972 0 0 0-25.524011-37.784378 119.036944 119.036944 0 0 0-37.780126-25.519759 117.897632 117.897632 0 0 0-46.316472-9.416336zM34.009468 396.391622c0-46.762844 38.260509-85.023352 85.023353-85.023352h815.841577c46.762844 0 85.023352 38.260509 85.023353 85.023352v491.571014c0 46.762844-38.260509 85.023352-85.023353 85.023353H119.032821c-46.762844 0-85.023352-38.260509-85.023353-85.023353V396.391622z" fill="#6E6E96" p-id="9885"></path><path d="M496.978627 852.631182l172.270065-236.756027 166.951855 236.756027z" fill="#F0F0FF" p-id="9886"></path><path d="M836.28557 869.635853a0.280577 0.280577 0 0 1-0.085023 0h-339.22192a17.013173 17.013173 0 0 1-13.748276-27.011919l172.270065-236.756027a17.00467 17.00467 0 0 1 13.748276-6.997422h0.123284c5.484006 0.042512 10.610914 2.724998 13.769532 7.201478l166.09737 235.540193c2.525194 2.967315 4.047112 6.818873 4.047111 11.019026a16.996168 16.996168 0 0 1-17.000419 17.004671z m-305.905519-34.009341h273.022738l-134.370906-190.554338-138.651832 190.554338z" fill="#6E6E96" p-id="9887"></path><path d="M217.970245 852.631182l119.198489-226.825299 187.421226 226.825299z" fill="#F0F0FF" p-id="9888"></path><path d="M524.674984 869.635853H217.970245a17.000419 17.000419 0 0 1-15.053385-24.916094l119.198489-226.825299a16.996168 16.996168 0 0 1 28.159734-2.920552l186.507226 225.719995a16.996168 16.996168 0 0 1-12.107325 28.94195z m-278.557758-34.009341h242.367568L340.335854 656.337769l-94.218628 179.288743z" fill="#6E6E96" p-id="9889"></path><path d="M305.216958 852.631182l194.070053-394.686904 232.220031 394.686904z" fill="#F0F0FF" p-id="9890"></path><path d="M731.592065 869.635853a0.280577 0.280577 0 0 1-0.085023 0H305.216958a17.00467 17.00467 0 0 1-15.261692-24.507982l194.070053-394.691155a17.00467 17.00467 0 0 1 29.915467-1.118057l231.433565 393.356289a16.996168 16.996168 0 0 1-13.782286 26.960905z m-399.065606-34.009341h369.247917l-201.148247-341.870398-168.09967 341.870398z" fill="#6E6E96" p-id="9891"></path><path d="M499.287011 457.944278l120.33355 336.30987-121.081756-107.873378 58.083703 118.395018-179.161208 20.040004 90.571126-316.087065-162.815468 343.902455 424.661887-2.253119zM337.168734 625.805883l-66.037638 200.004683 112.362611-161.888714 0.208307 9.433341-78.485056 179.275989H217.970245z" fill="#6E6E96" opacity=".24" p-id="9892"></path><path d="M641.403544 656.949937l108.17096 174.123574h39.370064l-119.695876-215.198356 166.951855 236.756027-106.321702-0.505889z" fill="#6E6E96" opacity=".24" p-id="9893"></path><path d="M745.888742 475.867201m-51.014011 0a51.014011 51.014011 0 1 0 102.028022 0 51.014011 51.014011 0 1 0-102.028022 0Z" fill="#FFA6A6" p-id="9894"></path><path d="M745.888742 543.885883c-37.503801 0-68.018682-30.51063-68.018682-68.018682s30.514881-68.018682 68.018682-68.018682 68.018682 30.514881 68.018682 68.018682-30.514881 68.018682-68.018682 68.018682z m0-102.028023c-18.7519 0-34.009341 15.257441-34.009341 34.009341s15.257441 34.009341 34.009341 34.009341 34.009341-15.253189 34.009341-34.009341-15.257441-34.009341-34.009341-34.009341z" fill="#6E6E96" p-id="9895"></path></svg>