<svg xmlns="http://www.w3.org/2000/svg" width="373.107" height="162.017" viewBox="0 0 373.107 162.017">
  <g id="组_9977" data-name="组 9977" transform="translate(5 4.557)">
    <g id="组_9974" data-name="组 9974" transform="translate(0 0.443)">
      <g id="矩形_2040" data-name="矩形 2040" fill="#3864ff" stroke="#030515" stroke-width="5">
        <rect width="363.107" height="152.017" rx="20" stroke="none"/>
        <rect x="-2.5" y="-2.5" width="368.107" height="157.017" rx="22.5" fill="none"/>
      </g>
      <g id="组_9973" data-name="组 9973" transform="translate(36.394 24.557)">
        <g id="矩形_1414" data-name="矩形 1414" transform="translate(124.664) rotate(90)" fill="#534893" stroke="#030515" stroke-width="5">
          <rect width="101.534" height="15.488" rx="7.744" stroke="none"/>
          <rect x="-2.5" y="-2.5" width="106.534" height="20.488" rx="10.244" fill="none"/>
        </g>
        <g id="矩形_1418" data-name="矩形 1418" transform="translate(124.664 50.767) rotate(90)" fill="#42ffe9" stroke="#030515" stroke-width="5">
          <rect width="50.767" height="15.488" rx="7.744" stroke="none"/>
          <rect x="-2.5" y="-2.5" width="55.767" height="20.488" rx="10.244" fill="none"/>
        </g>
        <g id="矩形_1413" data-name="矩形 1413" transform="translate(69.524 35) rotate(90)" fill="#534893" stroke="#030515" stroke-width="5">
          <rect width="66.534" height="15.488" rx="7.744" stroke="none"/>
          <rect x="-2.5" y="-2.5" width="71.534" height="20.488" rx="10.244" fill="none"/>
        </g>
        <g id="矩形_1412" data-name="矩形 1412" transform="translate(15.488 15.055) rotate(90)" fill="#534893" stroke="#030515" stroke-width="5">
          <rect width="86.478" height="15.488" rx="7.744" stroke="none"/>
          <rect x="-2.5" y="-2.5" width="91.478" height="20.488" rx="10.244" fill="none"/>
        </g>
        <g id="矩形_1420" data-name="矩形 1420" transform="translate(15.488 48.058) rotate(90)" fill="#ff2f3f" stroke="#030515" stroke-width="5">
          <rect width="53.476" height="15.488" rx="7.744" stroke="none"/>
          <rect x="-2.5" y="-2.5" width="58.476" height="20.488" rx="10.244" fill="none"/>
        </g>
      </g>
      <g id="组_9976" data-name="组 9976" transform="translate(223.258 24.296)">
        <g id="组_9971" data-name="组 9971">
          <g id="椭圆_2130" data-name="椭圆 2130" fill="#ff6a57" stroke="#030515" stroke-width="5">
            <circle cx="52.5" cy="52.5" r="52.5" stroke="none"/>
            <circle cx="52.5" cy="52.5" r="55" fill="none"/>
          </g>
          <g id="组_9969" data-name="组 9969" transform="translate(18 18)">
            <g id="路径_34368" data-name="路径 34368" transform="translate(-0.491 -27.294)" fill="#42ffe9" stroke-linecap="round" stroke-linejoin="round">
              <path d="M 12.0004825592041 63.76094436645508 L 10.02029323577881 63.66976165771484 L 0.4340028166770935 63.22834396362305 L -1.564217209815979 63.13633346557617 L -1.471867203712463 61.13812255859375 C -0.6411972045898438 43.16513061523438 13.51071262359619 28.62185287475586 31.44670295715332 27.30918312072754 L 31.45254325866699 27.30876159667969 L 31.45839309692383 27.30836296081543 L 31.97177314758301 27.27381324768066 L 35.41543197631836 27.04206275939941 L 34.13202285766602 29.67715263366699 L 34.65736389160156 38.73502349853516 L 34.77317428588867 40.73175430297852 L 32.77644348144531 40.84747314453125 C 21.68687438964844 41.49017333984375 12.81149864196777 50.33451843261719 12.12908267974854 61.42145919799805 L 12.10928249359131 61.78165435791016 L 12.0004825592041 63.76094436645508 Z" stroke="none"/>
              <path d="M 32.10606384277344 29.26930236816406 L 31.59267234802246 29.30385208129883 C 14.70492362976074 30.53980255126953 1.310953140258789 44.24666213989258 0.5260009765625 61.23046112060547 L 10.1122932434082 61.67188262939453 L 10.13244247436523 61.30531311035156 C 10.87227249145508 49.2317008972168 20.55741310119629 39.55228424072266 32.66072463989258 38.85082244873047 L 32.10512161254883 29.27123260498047 L 32.10606384277344 29.26930236816406 M 32.10672378540039 25.26927947998047 C 33.43163299560547 25.26927947998047 34.67825698852539 25.92710876464844 35.42452239990234 27.03595352172852 C 35.84948348999023 27.66738891601563 36.07785415649414 28.39397811889648 36.10361480712891 29.12932968139648 L 36.65401458740234 38.61922073364258 C 36.7154426574707 39.6783332824707 36.35360336303711 40.71847152709961 35.64811325073242 41.51080322265625 C 34.94263458251953 42.30312347412109 33.95127105712891 42.78274154663086 32.89216232299805 42.84412384033203 C 22.81505966186523 43.42815399169922 14.74945068359375 51.46419906616211 14.12569236755371 61.53794860839844 L 14.10626220703125 61.89142227172852 C 13.98921394348145 64.02075958251953 12.22626304626465 65.67196655273438 10.11532783508301 65.67196655273438 C 10.05325698852539 65.67196655273438 9.990942001342773 65.6705322265625 9.928302764892578 65.66764831542969 L 0.3420143127441406 65.22623443603516 C -0.7178459167480469 65.17742156982422 -1.714908599853516 64.70954132080078 -2.429767608642578 63.92554473876953 C -3.144618988037109 63.14153289794922 -3.518718719482422 62.10564422607422 -3.4697265625 61.04579162597656 C -2.592357635498047 42.06214141845703 12.35568237304688 26.70103454589844 31.30071258544922 25.31452178955078 C 31.30850219726563 25.31394958496094 31.31629180908203 25.31340026855469 31.32409286499023 25.31288146972656 L 31.83748245239258 25.27833557128906 C 31.92749786376953 25.27227783203125 32.01728820800781 25.26927947998047 32.10672378540039 25.26927947998047 Z" stroke="none" fill="#030515"/>
            </g>
            <g id="路径_34369" data-name="路径 34369" transform="translate(0 -490.717)" fill="#ff2f3f" stroke-linecap="round" stroke-linejoin="round">
              <path d="M 33.62554550170898 561.8079223632813 L 33.58327484130859 561.8079223632813 C 28.83037567138672 561.8079223632813 24.21283531188965 560.8848876953125 19.86128425598145 559.0643920898438 C 15.65918445587158 557.3064575195313 11.87594509124756 554.7874755859375 8.616635322570801 551.5774536132813 C 5.359775066375732 548.369873046875 2.784304857254028 544.6282348632813 0.9617748856544495 540.45654296875 C -0.9233251214027405 536.1416015625 -1.918105125427246 531.55029296875 -1.994945049285889 526.81005859375 L -1.995065093040466 526.802490234375 L -1.995135068893433 526.794921875 L -1.999925136566162 526.2391967773438 L -2.017305135726929 524.2219848632813 L 4.904174602415878e-06 524.2219848632813 L 9.595874786376953 524.2219848632813 L 11.59587478637695 524.2219848632813 L 11.59587478637695 526.2219848632813 C 11.59587478637695 538.3472290039063 21.46041488647461 548.2118530273438 33.58557510375977 548.2118530273438 C 36.63676071166992 548.2118530273438 39.58541107177734 547.601318359375 42.34943008422852 546.3973388671875 L 42.8358154296875 546.1790771484375 L 44.63877487182617 545.3701171875 L 45.46933364868164 547.1632690429688 L 49.50249481201172 555.8706665039063 L 50.34328460693359 557.6858520507813 L 48.52785491943359 558.5262451171875 C 46.20351409912109 559.6021118164063 43.7566032409668 560.427001953125 41.25508499145508 560.9778442382813 C 38.75375366210938 561.5286254882813 36.18680572509766 561.8079223632813 33.62554550170898 561.8079223632813 Z" stroke="none"/>
              <path d="M -3.814697265625e-06 526.2219848632813 L 0.004795074462890625 526.7776489257813 C 0.3013153076171875 545.0703125 15.22195434570313 559.8079223632813 33.58565521240234 559.8079223632813 C 33.59902954101563 559.8079223632813 33.61215591430664 559.8079223632813 33.62553024291992 559.8079223632813 C 38.4818115234375 559.8079223632813 43.2803840637207 558.7513427734375 47.68770599365234 556.7112426757813 L 43.65455627441406 548.0038452148438 L 43.15844345092773 548.2264404296875 C 40.16835403442383 549.5305786132813 36.92974472045898 550.2118530273438 33.58557510375977 550.2118530273438 C 20.33654403686523 550.2118530273438 9.595874786376953 539.4711303710938 9.595874786376953 526.2219848632813 L -3.814697265625e-06 526.2219848632813 M -3.814697265625e-06 522.2219848632813 L 9.595874786376953 522.2219848632813 C 11.80501556396484 522.2219848632813 13.59587478637695 524.0128173828125 13.59587478637695 526.2219848632813 C 13.59587478637695 537.2444458007813 22.5632152557373 546.2118530273438 33.58557510375977 546.2118530273438 C 36.35687255859375 546.2118530273438 39.03337478637695 545.6587524414063 41.54126739501953 544.56787109375 L 42.01707458496094 544.3543701171875 C 42.54852676391602 544.1159057617188 43.10480499267578 544.0029296875 43.65227508544922 544.0029296875 C 45.16349792480469 544.0028686523438 46.60832214355469 544.8636474609375 47.28411483764648 546.3226928710938 L 51.31726455688477 555.0300903320313 C 51.76320648193359 555.9928588867188 51.80835342407227 557.0933837890625 51.44278335571289 558.0894165039063 C 51.07720565795898 559.0855102539063 50.33086395263672 559.8955078125 49.36797332763672 560.3411865234375 C 46.9125862121582 561.477783203125 44.32772445678711 562.34912109375 41.68520355224609 562.9310302734375 C 39.0428352355957 563.512939453125 36.3311767578125 563.8079223632813 33.62553405761719 563.8079223632813 L 33.57967376708984 563.8079223632813 C 28.56026458740234 563.8070678710938 23.68476104736328 562.8319091796875 19.08940505981445 560.909423828125 C 14.65087509155273 559.0526123046875 10.65515518188477 556.3922729492188 7.213245391845703 553.00244140625 C 3.773983001708984 549.6151733398438 1.054065704345703 545.6635131835938 -0.8709640502929688 541.2572021484375 C -2.862556457519531 536.698486328125 -3.913536071777344 531.8486938476563 -3.994674682617188 526.8424682617188 C -3.994846343994141 526.8323974609375 -3.994964599609375 526.8223266601563 -3.99505615234375 526.8121948242188 L -3.999855041503906 526.2565307617188 C -4.009075164794922 525.189697265625 -3.59173583984375 524.1634521484375 -2.840625762939453 523.4058227539063 C -2.089504241943359 522.6481323242188 -1.066856384277344 522.2219848632813 -3.814697265625e-06 522.2219848632813 Z" stroke="none" fill="#030515"/>
            </g>
            <g id="路径_34370" data-name="路径 34370" transform="translate(-464.192)" fill="#ffe167" stroke-linecap="round" stroke-linejoin="round">
              <path d="M 513.404296875 69.68482971191406 L 512.4681396484375 67.89830017089844 L 506.2328796386719 55.99938201904297 L 505.3035888671875 54.22599029541016 L 507.0779724121094 53.29859161376953 C 513.7252197265625 49.82427215576172 517.852294921875 43.00651931762695 517.8486328125 35.50592041015625 C 517.8486328125 24.61842918395996 508.99853515625 15.61769962310791 498.1184387207031 15.43707370758057 L 497.7621765136719 15.43424034118652 L 495.778076171875 15.41846084594727 L 495.778076171875 13.43430042266846 L 495.778076171875 6.103515488575795e-07 L 495.778076171875 -1.999999403953552 L 497.778076171875 -1.999999403953552 C 502.8404235839844 -1.999999403953552 507.7523193359375 -1.008119344711304 512.3773803710938 0.9480805993080139 C 516.8436889648438 2.837130546569824 520.8543701171875 5.541070461273193 524.2980346679688 8.984780311584473 C 527.74169921875 12.42850017547607 530.4456176757813 16.4392204284668 532.3346557617188 20.90555000305176 C 534.2908325195313 25.53064155578613 535.28271484375 30.44259071350098 535.28271484375 35.50495147705078 C 535.2848510742188 42.26977920532227 533.453857421875 48.91682052612305 529.9876708984375 54.72684097290039 C 526.5214233398438 60.53689193725586 521.5418701171875 65.30553436279297 515.58740234375 68.51724243164063 L 515.5842895507813 68.5189208984375 L 515.5811767578125 68.52059173583984 L 515.182861328125 68.73361968994141 L 513.404296875 69.68482971191406 Z" stroke="none"/>
              <path d="M 497.778076171875 0 L 497.778076171875 13.43429946899414 L 498.1427001953125 13.43720245361328 C 510.1634521484375 13.63198852539063 519.8486328125 23.43707656860352 519.8486328125 35.50493621826172 C 519.8526611328125 43.72391510009766 515.288330078125 51.26399993896484 508.00439453125 55.07108688354492 L 514.2396240234375 66.97000122070313 L 514.637939453125 66.75696563720703 C 526.12646484375 60.56033706665039 533.286865234375 48.55809783935547 533.28271484375 35.50495147705078 C 533.28271484375 15.89566421508789 517.38720703125 0 497.778076171875 0 M 497.778076171875 -4 C 503.1094970703125 -4 508.2835693359375 -2.954963684082031 513.1564331054688 -0.8939361572265625 C 517.8611450195313 1.095947265625 522.0855712890625 3.943824768066406 525.7122802734375 7.570575714111328 C 529.3389892578125 11.19732666015625 532.1868286132813 15.42173767089844 534.1766967773438 20.1264762878418 C 536.2376708984375 24.99941253662109 537.28271484375 30.17347717285156 537.28271484375 35.50495147705078 C 537.2849731445313 42.63001251220703 535.3563232421875 49.63159942626953 531.7052001953125 55.75152587890625 C 528.0540771484375 61.87147521972656 522.8089599609375 66.89448547363281 516.5368041992188 70.27750396728516 C 516.53271484375 70.27972412109375 516.528564453125 70.28193664550781 516.5244750976563 70.28414916992188 L 516.1261596679688 70.49718475341797 C 515.5403442382813 70.81048583984375 514.8917236328125 70.97000122070313 514.239501953125 70.97000122070313 C 513.8443603515625 70.97000122070313 513.4479370117188 70.91146850585938 513.0632934570313 70.79312896728516 C 512.0437622070313 70.47942352294922 511.1917114257813 69.77146148681641 510.6965942382813 68.82659912109375 L 504.4613647460938 56.92768859863281 C 503.9686279296875 55.98737335205078 503.869873046875 54.88975143432617 504.1868896484375 53.8765869140625 C 504.50390625 52.86342620849609 505.210693359375 52.01785278320313 506.1515502929688 51.52610015869141 C 512.13623046875 48.39808654785156 515.8519287109375 42.2598876953125 515.8486328125 35.50690078735352 C 515.8486328125 25.70623779296875 507.8850708007813 17.60436248779297 498.0936279296875 17.43693923950195 L 497.7462768554688 17.43417739868164 C 495.5496215820313 17.41670227050781 493.778076171875 15.63102722167969 493.778076171875 13.43429946899414 L 493.778076171875 0 C 493.778076171875 -2.209136962890625 495.5689086914063 -4 497.778076171875 -4 Z" stroke="none" fill="#030515"/>
            </g>
          </g>
        </g>
      </g>
    </g>
  </g>
</svg>
