<svg xmlns="http://www.w3.org/2000/svg" width="326.238" height="301.152" viewBox="0 0 326.238 301.152">
  <g id="组_9929" data-name="组 9929" transform="translate(-91.446 70.021)">
    <g id="矩形_2061" data-name="矩形 2061" transform="translate(97.446 -64.021)" fill="#544994" stroke="#030515" stroke-width="6">
      <rect width="260.921" height="289.152" rx="20" stroke="none"/>
      <rect x="-3" y="-3" width="266.921" height="295.152" rx="23" fill="none"/>
    </g>
    <g id="矩形_2063" data-name="矩形 2063" transform="translate(273.595 151.427)" fill="#fff" stroke="#030515" stroke-width="6">
      <rect width="55.606" height="55.606" rx="27.803" stroke="none"/>
      <rect x="-3" y="-3" width="61.606" height="61.606" rx="30.803" fill="none"/>
    </g>
    <g id="矩形_2064" data-name="矩形 2064" transform="translate(233.744 33.804)" fill="#ffbbb0" stroke="#030515" stroke-width="6">
      <rect width="177.939" height="18" rx="9" stroke="none"/>
      <rect x="-3" y="-3" width="183.939" height="24" rx="12" fill="none"/>
    </g>
    <g id="矩形_2065" data-name="矩形 2065" transform="translate(125.526 76.711)" fill="#3864ff" stroke="#030515" stroke-width="6">
      <rect width="148.853" height="15.399" rx="7.699" stroke="none"/>
      <rect x="-3" y="-3" width="154.853" height="21.399" rx="10.699" fill="none"/>
    </g>
    <g id="矩形_2066" data-name="矩形 2066" transform="translate(125.526 118.063)" fill="#42ffe9" stroke="#030515" stroke-width="6">
      <rect width="55.606" height="15.399" rx="7.699" stroke="none"/>
      <rect x="-3" y="-3" width="61.606" height="21.399" rx="10.699" fill="none"/>
    </g>
    <g id="矩形_2067" data-name="矩形 2067" transform="translate(197.729 118.063)" fill="#3864ff" stroke="#030515" stroke-width="6">
      <rect width="55.606" height="15.399" rx="7.699" stroke="none"/>
      <rect x="-3" y="-3" width="61.606" height="21.399" rx="10.699" fill="none"/>
    </g>
    <g id="矩形_2068" data-name="矩形 2068" transform="translate(269.83 118.063)" fill="#ff2f3f" stroke="#030515" stroke-width="6">
      <rect width="64.161" height="15.399" rx="7.699" stroke="none"/>
      <rect x="-3" y="-3" width="70.161" height="21.399" rx="10.699" fill="none"/>
    </g>
  </g>
</svg>
