<svg xmlns="http://www.w3.org/2000/svg" width="228.268" height="251.667" viewBox="0 0 228.268 251.667">
  <g id="组_10057" data-name="组 10057" transform="translate(-2921.799 -5835.957)">
    <g id="组_9987" data-name="组 9987" transform="translate(2927.799 5841.957)">
      <g id="矩形_2040" data-name="矩形 2040" transform="translate(0 0)" fill="#3864ff" stroke="#030515" stroke-width="6">
        <rect width="216.268" height="239.667" rx="18" stroke="none"/>
        <rect x="-3" y="-3" width="222.268" height="245.667" rx="21" fill="none"/>
      </g>
      <g id="矩形_1414" data-name="矩形 1414" transform="translate(81.178 126.227) rotate(90)" fill="#534893" stroke="#030515" stroke-width="6">
        <rect width="83.671" height="12.763" rx="6.382" stroke="none"/>
        <rect x="-3" y="-3" width="89.671" height="18.763" rx="9.382" fill="none"/>
      </g>
      <g id="矩形_1418" data-name="矩形 1418" transform="translate(81.178 168.063) rotate(90)" fill="#42ffe9" stroke="#030515" stroke-width="6">
        <rect width="41.835" height="12.763" rx="6.382" stroke="none"/>
        <rect x="-3" y="-3" width="47.835" height="18.763" rx="9.382" fill="none"/>
      </g>
      <g id="矩形_1413" data-name="矩形 1413" transform="translate(120.554 126.227) rotate(90)" fill="#534893" stroke="#030515" stroke-width="6">
        <rect width="83.671" height="12.763" rx="6.382" stroke="none"/>
        <rect x="-3" y="-3" width="89.671" height="18.763" rx="9.382" fill="none"/>
      </g>
      <g id="矩形_1412" data-name="矩形 1412" transform="translate(159.208 126.227) rotate(90)" fill="#534893" stroke="#030515" stroke-width="6">
        <rect width="83.671" height="12.763" rx="6.382" stroke="none"/>
        <rect x="-3" y="-3" width="89.671" height="18.763" rx="9.382" fill="none"/>
      </g>
      <g id="矩形_1420" data-name="矩形 1420" transform="translate(159.208 144.122) rotate(90)" fill="#ff2f3f" stroke="#030515" stroke-width="6">
        <rect width="65.776" height="12.763" rx="6.382" stroke="none"/>
        <rect x="-3" y="-3" width="71.776" height="18.763" rx="9.382" fill="none"/>
      </g>
      <g id="矩形_1408" data-name="矩形 1408" transform="translate(25.883 47.165)" fill="#ff2f3f" stroke="#030515" stroke-width="6">
        <rect width="65.235" height="12.763" rx="6.382" stroke="none"/>
        <rect x="-3" y="-3" width="71.235" height="18.763" rx="9.382" fill="none"/>
      </g>
      <g id="矩形_1409" data-name="矩形 1409" transform="translate(26.592 81.201)" fill="#ff2f3f" stroke="#030515" stroke-width="6">
        <rect width="128.343" height="12.763" rx="6.382" stroke="none"/>
        <rect x="-3" y="-3" width="134.343" height="18.763" rx="9.382" fill="none"/>
      </g>
    </g>
  </g>
</svg>
