<?xml version="1.0" standalone="no"?><!DOCTYPE svg PUBLIC "-//W3C//DTD SVG 1.1//EN" "http://www.w3.org/Graphics/SVG/1.1/DTD/svg11.dtd"><svg t="1649679225414" class="icon" viewBox="0 0 1024 1024" version="1.1" xmlns="http://www.w3.org/2000/svg" p-id="8669" xmlns:xlink="http://www.w3.org/1999/xlink" width="200" height="200"><defs><style type="text/css">@font-face { font-family: "feedback-iconfont"; src: url("//at.alicdn.com/t/font_1031158_u69w8yhxdu.woff2?t=1630033759944") format("woff2"), url("//at.alicdn.com/t/font_1031158_u69w8yhxdu.woff?t=1630033759944") format("woff"), url("//at.alicdn.com/t/font_1031158_u69w8yhxdu.ttf?t=1630033759944") format("truetype"); }
</style></defs><path d="M868.797254 1009.035303H155.202746a13.658985 13.658985 0 0 1-13.658985-13.658986V28.621683a13.658985 13.658985 0 0 1 13.658985-13.658985h713.594508a13.658985 13.658985 0 0 1 13.658985 13.658985v966.754634a13.656986 13.656986 0 0 1-13.658985 13.658986z" fill="#F3F0F3" p-id="8670"></path><path d="M882.45024 28.627682v966.742637c0 7.542335-6.104653 13.666984-13.646988 13.666983h-39.901193c7.540336 0 13.646988-6.124648 13.646988-13.666983V28.627682c0-7.542335-6.104653-13.666984-13.646988-13.666984h39.901193c7.542335 0 13.646988 6.124648 13.646988 13.666984z" fill="#E2DEE2" p-id="8671"></path><path d="M801.456116 941.760151h-578.912232a14.042901 14.042901 0 0 1-14.042901-14.042901V96.280751a14.042901 14.042901 0 0 1 14.042901-14.042901h578.914232a14.042901 14.042901 0 0 1 14.0429 14.042901v831.438498a14.0449 14.0449 0 0 1-14.0449 14.040902z" fill="#D8ECFE" p-id="8672"></path><path d="M815.495018 96.280751v831.436499a14.040901 14.040901 0 0 1-14.044901 14.0449h-39.901193a14.040901 14.040901 0 0 0 14.0449-14.0449V96.280751a14.040901 14.040901 0 0 0-14.0449-14.044901h39.901193a14.040901 14.040901 0 0 1 14.044901 14.044901z" fill="#C4E2FF" p-id="8673"></path><path d="M549.187793 550.044603h-74.373586l-15.742526 153.538114a10.247738 10.247738 0 0 0 10.141762 11.709416h85.573114a10.247738 10.247738 0 0 0 10.141762-11.709416z" fill="#E49280" p-id="8674"></path><path d="M554.792556 715.288134h-40.589042a10.24174 10.24174 0 0 0 10.14776-11.703417l-15.746525-153.540114h40.589042l15.726529 153.540114c0.9078 6.186635-3.883143 11.703417-10.127764 11.703417z" fill="#DD7F66" p-id="8675"></path><path d="M421.391997 367.966789c-41.270891 38.487506-84.067446 89.136327-90.486029 128.58562-2.563434 15.748524 5.806718 31.295093 20.201541 38.175575a362.196062 362.196062 0 0 0 23.920721 10.355714c89.040349 34.898298 188.250453 34.440399 276.992867-1.209733a357.950999 357.950999 0 0 0 20.877392-9.147981c14.382826-6.874483 22.74698-22.377061 20.203541-38.115587-6.580548-40.727011-49.958974-89.454257-92.609561-128.643608z" fill="#46CC8D" p-id="8676"></path><path d="M672.898489 534.721985a357.299143 357.299143 0 0 1-20.879392 9.155979 399.499829 399.499829 0 0 1-16.412377 6.16464c9.539895-9.056001 14.552788-23.224874 12.513238-37.577707-6.508564-45.701913-49.179146-100.339855-91.465813-144.506107h43.842324c42.650587 39.19335 86.029013 87.928594 92.597563 128.657605 2.545438 15.730528-5.802719 31.233107-20.195543 38.10559z" fill="#00C27A" p-id="8677"></path><path d="M651.953112 350.142722c-8.01823-52.274463-95.188991-121.847108-127.765802-146.217729a20.333512 20.333512 0 0 0-24.372621 0c-32.574811 24.368622-119.747571 93.943266-127.765801 146.217729-1.843593 12.021347 4.708961 23.758756 15.680539 29.003599 4.133088 1.975564 9.147981 4.231066 14.968696 6.598544a290.395909 290.395909 0 0 0 218.603754 0 275.291242 275.291242 0 0 0 14.968696-6.598544c10.971579-5.244842 17.526132-16.982252 15.682539-29.003599z" fill="#6ED5A1" p-id="8678"></path><path d="M636.272573 379.140323a271.730028 271.730028 0 0 1-14.978695 6.610541c-3.799162 1.555657-7.640314 3.011335-11.501461 4.387031 5.114871-6.044666 7.640314-14.068895 6.38659-22.215097-8.206189-53.484196-97.36851-124.636492-130.679158-149.578987a17.89605 17.89605 0 0 0-2.405469-1.535661 745.837391 745.837391 0 0 1 16.71631-12.877158 20.315516 20.315516 0 0 1 24.37662 0c32.562813 24.356624 119.743572 93.931269 127.769801 146.203732 1.839594 12.025346-4.708961 23.768754-15.684538 29.005599z" fill="#46CC8D" p-id="8679"></path><path d="M511.294156 449.384819c-19.9356 0.647857-36.951845-14.612775-38.317543-34.674347-1.395692-20.507474 14.098888-38.263555 34.606362-39.659247 51.594613-3.511225 76.171189-11.751406 124.866441-29.013597 19.375724-6.866485 40.647029 3.269278 47.515514 22.643003s-3.269278 40.647029-22.643003 47.515513c-55.083843 19.52969-86.328947 29.149567-144.688067 33.12069a38.031606 38.031606 0 0 1-1.339704 0.067985z" fill="#F3F0F3" p-id="8680"></path><path d="M657.325926 416.204142a637.299346 637.299346 0 0 1-22.145112 7.400367c8.342159-10.881598 11.181532-25.628344 6.244621-39.517278-6.194633-17.504137-22.858955-28.325748-40.487064-27.907841a563.139713 563.139713 0 0 0 31.519044-10.141762c19.367725-6.856487 40.639031 3.26128 47.517512 22.649002 6.856487 19.367725-3.283275 40.639031-22.649001 47.517512z" fill="#E2DEE2" p-id="8681"></path><path d="M565.914101 191.25179l-24.982486-21.607231c-14.610775-12.637211-39.385308-11.587443-54.064068 0l-63.455995 51.458643c-16.606335 13.111106-19.441709 37.201789-6.330603 53.810124 13.111106 16.606335 37.201789 19.441709 53.810124 6.330603l37.01583-30.017375a8.20019 8.20019 0 0 1 10.529676 0.165963c16.606335 13.111106 40.699018 10.275732 53.810124-6.330603 13.109107-16.608334 10.275732-40.699018-6.332602-53.810124z" fill="#F3F0F3" p-id="8682"></path><path d="M572.238705 245.057915a38.227563 38.227563 0 0 1-30.08536 14.584781c-0.279938 0-0.577872 0-0.857811-0.019996 8.040225-15.920486 4.069102-35.832092-10.473688-47.303559l-24.978487-21.607232c-9.19797-7.960243-22.425051-10.493684-34.614361-8.38015l15.642548-12.6892c14.684759-11.591442 39.443295-12.629213 54.066067 0l24.978488 21.607232c16.598337 13.109107 19.431711 37.209788 6.322604 53.808124z" fill="#E2DEE2" p-id="8683"></path><path d="M868.797254 0H155.202746c-15.780517 0-28.621683 12.839166-28.621683 28.621683v966.756634c0 15.780517 12.839166 28.621683 28.621683 28.621683h713.594508c15.782517 0 28.621683-12.839166 28.621683-28.621683V28.621683C897.418937 12.839166 884.57977 0 868.797254 0z m-1.303713 994.072605H156.508458V29.927395h710.985083z" p-id="8684"></path><path d="M222.543884 956.724848h578.912232c15.99447 0 29.005598-13.011128 29.005599-29.005599V96.278751c0-15.99447-13.011128-29.005598-29.005599-29.005598h-578.912232c-15.99447 0-29.005598 13.011128-29.005599 29.005598v215.066534c0 8.264176 6.698522 14.962698 14.962698 14.962698s14.962698-6.698522 14.962698-14.962698V97.200548h577.070639v829.596905H223.463681V379.904154c0-8.264176-6.698522-14.962698-14.962698-14.962698s-14.962698 6.698522-14.962698 14.962698v547.815095c0 15.99447 13.011128 29.005598 29.005599 29.005599z" p-id="8685"></path><path d="M364.054652 784.08295a14.962698 14.962698 0 0 0-14.962698 14.962698 14.960698 14.960698 0 0 0 14.962698 14.962698h295.890696c8.264176 0 14.962698-6.698522 14.962698-14.962698s-6.698522-14.962698-14.962698-14.962698zM306.765296 863.443435a14.962698 14.962698 0 0 0 14.962698 14.962698h380.542013a14.962698 14.962698 0 0 0 14.962698-14.962698 14.960698 14.960698 0 0 0-14.962698-14.962697H321.727994a14.962698 14.962698 0 0 0-14.962698 14.962697zM344.654934 548.231004a377.06878 377.06878 0 0 0 24.910502 10.78362 391.627567 391.627567 0 0 0 86.924815 23.010921l-12.281289 119.791562a25.19444 25.19444 0 0 0 5.946687 19.733644 25.200438 25.200438 0 0 0 19.055795 8.706079h85.575113a25.19444 25.19444 0 0 0 19.055794-8.706079 25.19444 25.19444 0 0 0 5.946688-19.733644l-2.205513-21.509253a14.956699 14.956699 0 0 0-16.412378-13.359052 14.964697 14.964697 0 0 0-13.359052 16.410378l1.739616 16.970255h-75.105424l11.807394-115.166582c8.568109 0.569874 17.148215 0.867808 25.730322 0.867808 8.590104 0 17.180208-0.303933 25.758315-0.875807l2.955347 28.831637a14.964697 14.964697 0 0 0 29.77143-3.051326l-2.963346-28.901622a392.173446 392.173446 0 0 0 90.090117-24.274642 372.267839 372.267839 0 0 0 21.755198-9.533896c20.357507-9.731852 32.084919-31.938951 28.519706-54.002082-3.325266-20.585457-14.798734-43.874317-34.20845-69.628632a51.808566 51.808566 0 0 0 18.327955-21.029359c5.996677-12.583223 6.732514-26.746097 2.075542-39.885197-5.424803-15.304622-17.30818-26.502151-31.505047-31.62902-11.241519-30.679229-40.215124-63.447997-70.660405-91.559792a52.988305 52.988305 0 0 0 3.181298-25.392396c-1.649636-14.014907-8.6101-26.558139-19.615671-35.364195L550.719454 158.325057c-19.383722-16.7643-52.184483-16.958257-73.277827-0.303933l-63.302029 51.33667c-11.169535 8.818054-18.235975 21.457264-19.899608 35.590145a52.896326 52.896326 0 0 0 4.856928 29.231549c-24.494594 27.77587-38.589483 52.51241-41.838766 73.693735-2.603425 16.958257 5.740733 34.034488 20.511473 42.872538-27.553919 30.241326-55.989643 68.712835-61.634397 103.403179-3.595207 22.097123 8.132205 44.336215 28.519706 54.082064z m300.207743-189.368206c9.163977 0 17.768079 5.702741 20.999365 14.81673a22.11112 22.11112 0 0 1-0.885804 17.010246 22.11112 22.11112 0 0 1-12.655207 11.403483c-55.13983 19.549685-85.111216 28.511707-140.724942 32.296872a19.517692 19.517692 0 0 1-0.759832 0.037991h-0.029994c-12.057339 0.36392-22.085126-8.718076-22.900945-20.733424a22.10912 22.10912 0 0 1 5.4348-16.144437 22.101122 22.101122 0 0 1 15.258633-7.570329c52.956312-3.603205 79.180525-12.229301 128.847563-29.839414a22.179105 22.179105 0 0 1 7.416363-1.277718zM423.96343 248.445167c0.727839-6.194633 3.825156-11.73341 8.874041-15.71853l63.302029-51.33667c4.958906-3.915136 11.731411-5.884701 18.321957-5.884702 6.318605 0 12.469248 1.8116 16.682318 5.456796l0.007998-0.011997c1.579651 1.385694 6.702521 5.816716 24.974488 21.621228 0.167963 0.145968 0.341925 0.287936 0.515886 0.425906 4.89492 3.863147 7.992236 9.401925 8.720076 15.596558s-0.99778 12.301285-4.862927 17.196204c-7.932249 10.049782-22.525029 11.815392-32.6248 3.99112a23.140893 23.140893 0 0 0-29.395512-0.177961l-36.863864 29.895402c-4.89492 3.867147-10.999572 5.592766-17.194205 4.862927s-11.73341-3.825156-15.596558-8.720076-5.590766-11.003571-4.860927-17.196205z m-37.125806 103.965055c2.449459-15.968476 14.818729-35.488168 32.428843-55.81968a53.098281 53.098281 0 0 0 21.659219 7.490346c2.113534 0.249945 4.223068 0.371918 6.320605 0.371918 11.921369 0 23.440827-3.98912 33.068702-11.591441l32.998717-26.760094c18.657882 12.045342 42.658585 11.017568 60.150725-1.667632 24.340628 22.774973 45.156034 46.311779 56.021635 66.833249-0.67985 0.209954-1.361699 0.423906-2.03755 0.663854-48.313337 17.130219-71.744166 24.844517-120.879321 28.189778-13.906931 0.945791-26.612127 7.2484-35.778104 17.750083a52.522408 52.522408 0 0 0-6.906476 10.077776 276.902887 276.902887 0 0 1-55.54774-16.070454 261.042387 261.042387 0 0 1-14.152877-6.236623c-5.142865-2.453459-8.164198-7.896257-7.346378-13.23108z m-41.162915 146.547656c3.933132-24.168666 26.264203-58.707043 61.202492-95.562909a306.266406 306.266406 0 0 0 51.318674 13.932925 51.952534 51.952534 0 0 0 53.55618 47.009625c0.637859-0.019996 1.279718-0.049989 1.89958-0.093979 53.098281-3.613203 83.953471-11.539453 131.341013-27.877847 19.183766 24.088684 30.533261 45.262011 33.338642 62.628177 1.459678 9.044004-3.427244 18.185986-11.885377 22.229094a345.93965 345.93965 0 0 1-20.001585 8.766066c-85.6371 34.404407-180.088254 34.818315-265.955303 1.161743-7.962243-3.119312-15.67654-6.458575-22.92894-9.92181-8.47413-4.051106-13.363051-13.209085-11.885376-22.271085z" p-id="8686"></path></svg>