<?xml version="1.0" standalone="no"?><!DOCTYPE svg PUBLIC "-//W3C//DTD SVG 1.1//EN" "http://www.w3.org/Graphics/SVG/1.1/DTD/svg11.dtd"><svg t="1649679169193" class="icon" viewBox="0 0 1024 1024" version="1.1" xmlns="http://www.w3.org/2000/svg" p-id="6522" xmlns:xlink="http://www.w3.org/1999/xlink" width="200" height="200"><defs><style type="text/css">@font-face { font-family: "feedback-iconfont"; src: url("//at.alicdn.com/t/font_1031158_u69w8yhxdu.woff2?t=1630033759944") format("woff2"), url("//at.alicdn.com/t/font_1031158_u69w8yhxdu.woff?t=1630033759944") format("woff"), url("//at.alicdn.com/t/font_1031158_u69w8yhxdu.ttf?t=1630033759944") format("truetype"); }
</style></defs><path d="M560.567206 780.54902h-102.823967l-21.7643 212.271416c-1.231904 8.541333 5.393579 16.188735 14.020905 16.188735h118.308757c8.629326 0 15.252808-7.649402 14.020905-16.188735z" fill="#E49280" p-id="6523"></path><path d="M568.300602 1009.017171h-38.678979c8.627326 0 15.256808-7.647403 14.016905-16.194735L521.872229 780.53902h38.698976l21.7663 212.283416c1.219905 8.547332-5.389579 16.194735-14.036903 16.194735z" fill="#DD7F66" p-id="6524"></path><path d="M297.177783 544.461464c-58.721412 60.585267-109.18747 127.540036-118.852715 185.653496-4.811624 28.935739 10.335193 57.5975 36.801125 70.250511 42.816655 20.468401 125.770174 53.703804 233.071792 65.79286a544.793438 544.793438 0 0 0 121.918475 0c107.301617-12.087056 190.255136-45.324459 233.071791-65.79286 26.465932-12.651012 41.612749-41.312772 36.801125-70.250511-9.665245-58.11346-60.131302-125.068229-118.850715-185.653496z" fill="#46CC8D" p-id="6525"></path><path d="M803.188251 800.369471c-12.361034 5.911538-28.055808 12.878994-46.706351 20.088431 0.159988-0.079994 0.299977-0.159988 0.459964-0.239982 26.457933-14.096899 41.614749-46.0864 36.801125-78.375876-9.205281-61.721178-55.391673-132.429654-110.485369-197.38658h37.879041c58.707413 60.583267 109.18747 127.538036 118.850715 185.665495 4.815624 28.93374-10.341192 57.587501-36.799125 70.248512z" fill="#00C27A" p-id="6526"></path><path d="M372.22392 307.671963c-62.371127 58.165456-127.048074 134.707476-136.749316 194.326818-3.873697 23.800141 8.775314 47.296305 30.531614 57.695493a546.81728 546.81728 0 0 0 36.151176 15.648777c134.565487 52.73988 284.495774 52.047934 418.609296-1.829857a540.661761 540.661761 0 0 0 31.551535-13.82492c21.736302-10.389188 34.375314-33.817358 30.533615-57.6015-9.943223-61.549191-75.502101-135.189438-139.959066-194.412811H372.22392z" fill="#6ED5A1" p-id="6527"></path><path d="M752.310226 559.692274a532.98636 532.98636 0 0 1-30.171643 13.258964c12.818999-13.81892 19.388485-34.205328 16.474713-54.811718-9.365268-66.334818-68.152676-144.950676-128.835935-210.465557h33.107414c64.456964 59.225373 130.033841 132.86962 139.977064 194.410812 3.8337 23.780142-8.807312 47.202312-30.551613 57.607499z" fill="#46CC8D" p-id="6528"></path><path d="M737.2774 427.228623m-32.89343 0a32.89343 32.89343 0 1 0 65.78686 0 32.89343 32.89343 0 1 0-65.78686 0Z" fill="#8AC9FE" p-id="6529"></path><path d="M720.660698 280.734068c-12.117053-78.999828-143.856761-184.143614-193.086915-220.972737a30.729599 30.729599 0 0 0-36.833122 0c-49.230154 36.829123-180.969862 141.972908-193.086915 220.972737-2.785782 18.166581 7.117444 35.905195 23.698148 43.830575a415.971502 415.971502 0 0 0 22.620233 9.971221c105.825732 43.030638 224.542458 43.030638 330.36819 0a413.729677 413.729677 0 0 0 22.620233-9.971221c16.582704-7.925381 26.485931-25.663995 23.700148-43.830575z" fill="#91DEB6" p-id="6530"></path><path d="M696.95655 324.564643a419.417233 419.417233 0 0 1-27.595844 11.941067c12.481025-9.045293 19.428482-24.302101 17.03267-39.876884-12.121053-78.993829-143.850762-184.147613-193.092915-220.968737a30.783595 30.783595 0 0 0-15.594782-5.989532 1088.624951 1088.624951 0 0 1 13.038982-9.903226 30.669604 30.669604 0 0 1 36.821123 0c49.242153 36.821123 180.971862 141.974908 193.092915 220.968736 2.795782 18.17058-7.107445 35.901195-23.702149 43.828576z" fill="#6ED5A1" p-id="6531"></path><path d="M813.653433 671.153566m-32.89343 0a32.89343 32.89343 0 1 0 65.786861 0 32.89343 32.89343 0 1 0-65.786861 0Z" fill="#FEE45A" p-id="6532"></path><path d="M259.45873 813.44045m-32.89343 0a32.89343 32.89343 0 1 0 65.78686 0 32.89343 32.89343 0 1 0-65.78686 0Z" fill="#EE6161" p-id="6533"></path><path d="M631.467667 166.612983m-32.893431 0a32.89343 32.89343 0 1 0 65.786861 0 32.89343 32.89343 0 1 0-65.786861 0Z" fill="#EE6161" p-id="6534"></path><path d="M432.015249 353.218405m-32.89343 0a32.89343 32.89343 0 1 0 65.78686 0 32.89343 32.89343 0 1 0-65.78686 0Z" fill="#FEE45A" p-id="6535"></path><path d="M770.160831 427.222623c0 18.17058-14.71685 32.907429-32.88743 32.907429-13.538942 0-25.160034-8.18736-30.21164-19.868447 0.917928 0.079994 1.857855 0.119991 2.81578 0.11999 18.17058 0 32.887431-14.71685 32.88743-32.88743 0-4.631638-0.957925-9.025295-2.67579-13.018983 16.852683 1.415889 30.071651 15.554785 30.07165 32.747441z" fill="#60B7FF" p-id="6536"></path><path d="M846.538864 671.153566c0 18.17058-14.71685 32.887431-32.887431 32.887431-13.538942 0-25.160034-8.167362-30.211639-19.868448 0.917928 0.099992 1.857855 0.139989 2.81578 0.139989 18.17058 0 32.887431-14.736849 32.88743-32.887431 0-4.631638-0.957925-9.045293-2.675791-13.038981 16.852683 1.437888 30.071651 15.554785 30.071651 32.76744z" fill="#FED402" p-id="6537"></path><path d="M292.360159 813.448449c0 18.150582-14.736849 32.887431-32.907429 32.887431-13.518944 0-25.160034-8.18736-30.191641-19.868448 0.917928 0.099992 1.857855 0.139989 2.795782 0.139989 18.17058 0 32.887431-14.736849 32.88743-32.907429 0-4.631638-0.957925-9.045293-2.675791-13.038981 16.852683 1.437888 30.091649 15.574783 30.091649 32.787438zM664.369096 166.614983c0 18.17058-14.736849 32.887431-32.907429 32.887431-13.518944 0-25.160034-8.167362-30.21164-19.848449 0.917928 0.079994 1.857855 0.119991 2.81578 0.11999 18.17058 0 32.907429-14.736849 32.907429-32.887431 0-4.631638-0.957925-9.045293-2.695789-13.038981 16.852683 1.437888 30.091649 15.554785 30.091649 32.76744z" fill="#E94444" p-id="6538"></path><path d="M464.906679 353.220405c0 18.17058-14.71685 32.887431-32.887431 32.88743-13.538942 0-25.160034-8.167362-30.211639-19.868447 0.917928 0.099992 1.857855 0.139989 2.81578 0.139989 18.17058 0 32.887431-14.736849 32.88743-32.887431 0-4.631638-0.957925-9.045293-2.67579-13.038981 16.852683 1.435888 30.071651 15.554785 30.07165 32.76744z" fill="#FED402" p-id="6539"></path><path d="M558.617358 45.648434l-25.004047-21.626311c-14.622858-12.647012-39.41892-11.599094-54.109772 0l-63.511038 51.503977c-16.620702 13.122975-19.45848 37.235091-6.335505 53.855792s37.235091 19.45848 53.855792 6.335505l37.049106-30.043653a8.205359 8.205359 0 0 1 10.537176 0.167987c16.620702 13.122975 40.732818 10.285196 53.855793-6.335505 13.120975-16.622701 10.283197-40.734818-6.337505-53.857792z" fill="#F3F0F3" p-id="6540"></path><path d="M564.946864 99.502226a38.257011 38.257011 0 0 1-30.111648 14.59686c-0.279978 0-0.579955 0-0.857933-0.019998 8.047371-15.934755 4.073682-35.863198-10.483181-47.344302l-25.000047-21.62631c-9.205281-7.967378-22.444247-10.503179-34.645293-8.387345l15.654777-12.699008c14.696852-11.601094 39.476916-12.639013 54.113772 0l25.000047 21.626311c16.612702 13.118975 19.448481 37.241091 6.329506 53.853792z" fill="#E2DEE2" p-id="6541"></path><path d="M500.103929 661.956285c-19.934443-1.089915-35.573221-17.78661-35.187251-37.907039 0.393969-20.568393 17.386642-36.925115 37.957035-36.531146a568.119616 568.119616 0 0 0 153.422014-18.062589c19.916444-5.159597 40.244856 6.797469 45.406453 26.711913 5.163597 19.914444-6.797469 40.244856-26.711914 45.406453a642.5578 642.5578 0 0 1-173.542442 20.432404c-0.449965-0.007999-0.89993-0.025998-1.343895-0.049996z" fill="#F3F0F3" p-id="6542"></path><path d="M674.992266 641.581876a635.990313 635.990313 0 0 1-22.724224 5.451575c9.265276-10.123209 13.378955-24.58008 9.665244-38.858965-4.653636-17.990594-20.328412-30.231638-37.939036-31.34955a564.453902 564.453902 0 0 0 32.309476-7.367425c19.908445-5.151598 40.236856 6.78947 45.408453 26.717913 5.149598 19.906445-6.811468 40.234857-26.719913 45.406452z" fill="#E2DEE2" p-id="6543"></path><path d="M510.501117 262.811468a596.263417 596.263417 0 0 0 37.25509 9.447262 14.97883 14.97883 0 0 0 6.443496-29.253715 565.795797 565.795797 0 0 1-35.373236-8.967299 14.982829 14.982829 0 0 0-18.548551 10.223201 14.97483 14.97483 0 0 0 10.223201 18.550551zM420.746129 226.43831c10.903148 6.057527 22.706226 11.801078 35.081259 17.070666a14.922834 14.922834 0 0 0 5.861543 1.201906 14.97883 14.97883 0 0 0 5.875541-28.757753c-11.419108-4.86362-22.27626-10.145207-32.273479-15.698774-7.231435-4.019686-16.348723-1.41189-20.364409 5.819545s-1.41189 16.348723 5.819545 20.36441zM604.271791 282.251949c12.279041 1.681869 25.030045 3.129755 37.903039 4.299664a14.97683 14.97683 0 0 0 2.713788-29.829669 815.606281 815.606281 0 0 1-36.553144-4.145677 14.97483 14.97483 0 1 0-4.063683 29.675682zM593.746614 503.286681a1037.686931 1037.686931 0 0 1-41.258777-4.323662c-8.18736-1.031919-15.692774 4.785626-16.724693 12.992984s4.785626 15.694774 12.992984 16.724694c13.722928 1.723865 28.003812 3.219748 42.452684 4.449652a14.97883 14.97883 0 0 0 16.192735-13.652933 14.982829 14.982829 0 0 0-13.654933-16.190735zM697.646496 507.710335a1432.588079 1432.588079 0 0 1-41.644746-0.781939c-8.213358-0.269979-15.194813 6.195516-15.472791 14.46287a14.97883 14.97883 0 0 0 14.46287 15.472791c13.846918 0.467963 28.1538 0.735943 42.522678 0.799938h0.067994a14.97883 14.97883 0 0 0 0.063995-29.95366zM491.246621 489.08979a690.30607 690.30607 0 0 1-40.128865-9.257277 14.97883 14.97883 0 0 0-7.633403 28.963737 718.739848 718.739848 0 0 0 41.880728 9.663245 14.982829 14.982829 0 0 0 17.624623-11.745082 14.97283 14.97283 0 0 0-11.743083-17.624623zM392.732318 460.971987c-13.140973-5.155597-25.556003-10.759159-36.901117-16.656699a14.97483 14.97483 0 0 0-20.196422 6.379501 14.97483 14.97483 0 0 0 6.379501 20.196423c12.277041 6.383501 25.661995 12.427029 39.778892 17.966596a14.948832 14.948832 0 0 0 5.465573 1.037919 14.98083 14.98083 0 0 0 13.944911-9.511257 14.97283 14.97283 0 0 0-8.471338-19.412483zM294.721975 674.993266a14.97883 14.97883 0 0 0-16.668698 24.888056c11.897071 7.965378 25.018045 15.576783 39.004953 22.618233a14.97883 14.97883 0 0 0 13.470947-26.75191c-12.884993-6.487493-24.934052-13.470948-35.807202-20.754379zM762.019467 777.201281a14.928834 14.928834 0 0 0-15.318803-14.624857 1768.44184 1768.44184 0 0 1-40.622826 0.477962l-2.285822-0.001999h-0.019998a14.97683 14.97683 0 0 0-0.019999 29.95166l2.323819 0.001999c13.498945 0 27.399859-0.163987 41.316772-0.485962a14.97683 14.97683 0 0 0 14.626857-15.318803zM388.520647 719.903758c-7.821389-2.68979-16.340723 1.477885-19.026514 9.301273s1.477885 16.340723 9.301274 19.026513a642.573799 642.573799 0 0 0 42.382688 12.878994 14.98083 14.98083 0 0 0 18.336568-10.597172 14.97683 14.97683 0 0 0-10.597172-18.338567 611.508226 611.508226 0 0 1-40.396844-12.271041zM491.048637 745.939723a14.97683 14.97683 0 0 0-5.307586 29.477698 974.371877 974.371877 0 0 0 43.416609 6.78147 14.97883 14.97883 0 0 0 3.96569-29.689681 942.230388 942.230388 0 0 1-42.074713-6.569487zM596.822373 759.116694a14.97483 14.97483 0 0 0-2.265823 29.865667c14.198891 1.077916 28.893743 1.949848 43.676588 2.591797a14.97883 14.97883 0 0 0 1.299898-29.925662 1321.400766 1321.400766 0 0 1-42.710663-2.531802z" p-id="6544"></path><path d="M848.808687 703.601031c7.885384-8.537333 12.715007-19.936442 12.715006-32.447465 0-26.395938-21.474322-47.87026-47.87026-47.87026-2.213827 0-4.389657 0.163987-6.52549 0.455964-11.951066-17.252652-26.023967-35.209249-42.254699-53.857792 23.928131-14.538864 37.241091-42.442684 32.761441-70.186517-2.5578-15.828763-8.459339-32.801437-17.66062-50.868026a47.562284 47.562284 0 0 0 5.169596-21.598312c0-26.395938-21.474322-47.86826-47.87026-47.868261-1.447887 0-2.877775 0.075994-4.293665 0.201985-10.419186-12.613015-22.042278-25.607999-34.897274-38.988954a391.309429 391.309429 0 0 0 5.331584-2.495805c22.594235-10.801156 35.771205-35.313241 32.043496-59.611343-4.979611-32.475463-27.793829-68.296664-57.065541-102.398 0.613952-3.057761 0.941926-6.217514 0.941926-9.453262 0-26.395938-21.474322-47.87026-47.87026-47.87026-2.827779 0-5.593563 0.25998-8.287353 0.733943a1010.225076 1010.225076 0 0 0-36.339161-31.895508c4.365659-19.308492-2.227826-40.310851-18.662542-53.461824-15.636778-13.526943-21.938286-18.974518-24.834059-21.350332l0.063995-0.073994c-19.398484-16.780689-52.233919-16.970674-73.340271-0.305976l-14.044903 11.38911a14.97683 14.97683 0 0 0 18.864527 23.264183l13.892914-11.26712c9.72324-7.673401 26.419936-7.877385 35.063261-0.403969l24.976049 21.602313a17.198656 17.198656 0 0 0 0.515959 0.427966c10.11521 7.985376 11.847074 22.708226 3.863699 32.821436-7.93938 10.059214-22.542239 11.827076-32.653449 3.993688a23.158191 23.158191 0 0 0-29.419702-0.177986l-36.895118 29.921662c-10.11521 7.985376-24.83806 6.253511-32.821435-3.861698-7.103445-8.997297-6.567487-22.074275 1.245902-30.419623a14.97683 14.97683 0 1 0-21.866291-20.470401c-14.014905 14.97083-17.742614 36.575143-10.87915 55.109694-11.477103 10.75716-22.756222 21.930287-33.443388 33.319397-36.941114 39.370924-67.730709 82.43556-73.618248 120.822561-3.725709 24.300102 9.451262 48.814186 32.045496 59.613343 1.235903 0.589954 2.499805 1.173908 3.759706 1.759862-74.600172 79.545785-93.610687 133.031607-97.960346 159.75352-4.521647 27.78183 8.785314 55.727646 32.739442 70.286508-52.22992 60.011312-82.425561 112.961175-89.878978 157.777674-5.865542 35.263245 12.687009 70.718475 45.114475 86.219264 0.965925 0.461964 1.955847 0.931927 2.971768 1.40989 0.973924 25.542005 22.046278 46.024404 47.822264 46.024404 13.106976 0 24.996047-5.297586 33.647371-13.858917 38.65298 12.687009 85.901289 24.806062 139.455105 31.865511l-11.455105 111.723271a29.127724 29.127724 0 0 0 6.863464 22.882213 29.127724 29.127724 0 0 0 22.030279 10.063213h118.308757c8.459339 0 16.488712-3.667713 22.028279-10.061214a29.131724 29.131724 0 0 0 6.867463-22.882212l-11.455105-111.725271a768.303976 768.303976 0 0 0 72.516335-13.116976l2.573799-0.599953a14.97483 14.97483 0 1 0-6.805468-29.167721l-2.543802 0.593954a736.282478 736.282478 0 0 1-83.053511 14.250886 530.104586 530.104586 0 0 1-118.564737 0c-55.017702-6.197516-103.523912-18.146582-143.058824-30.855589 0.333974-2.279822 0.51396-4.60764 0.51396-6.979455 0-26.395938-21.474322-47.86826-47.87026-47.86826-16.242731 0-30.611608 8.137364-39.268932 20.542395-19.58047-10.119209-30.693602-31.881509-27.091884-53.541817 3.8457-23.126193 15.018827-49.196157 33.373393-78.009906a14.940833 14.940833 0 0 0 20.772377 1.79186 14.97883 14.97883 0 0 0 2.119835-21.074353 109.319459 109.319459 0 0 1-5.009609-6.605484c10.801156-14.572861 23.230185-29.757675 37.301086-45.544442a587.700086 587.700086 0 0 0 15.034825 6.153519c49.744114 19.496477 101.262089 31.887509 153.272026 37.231092a52.009937 52.009937 0 0 0 49.320147 50.392063c0.629951 0.033997 1.265901 0.057995 1.875853 0.069994a657.490634 657.490634 0 0 0 177.588126-20.908366c13.504945-3.501726 24.83806-12.051059 31.909507-24.076119 7.075447-12.023061 9.041294-26.083962 5.539567-39.586908-0.083993-0.321975-0.183986-0.63595-0.273978-0.953925 3.481728-1.315897 6.959456-2.653793 10.423186-4.045684a591.913757 591.913757 0 0 0 10.327193-4.275666c16.810687 18.860527 31.247559 36.849121 43.378611 53.967784-8.801312 8.685321-14.268885 20.74038-14.268885 34.053339 0 26.395938 21.474322 47.87026 47.87026 47.870261 2.843778 0 5.625561-0.263979 8.333349-0.741942a136.659323 136.659323 0 0 1 3.223748 14.288883c1.53188 9.203281 0.375971 18.418561-2.923772 26.763909-3.697711 0.225982-7.42342 0.465964-11.077134 0.669948a14.97483 14.97483 0 0 0-14.118897 15.786767 14.906835 14.906835 0 0 0 3.605718 8.929302 50.956019 50.956019 0 0 1-3.97169 2.131833c-24.414093 11.669088-50.862026 22.254261-78.609858 31.463542a14.97683 14.97683 0 0 0 9.433263 28.427779c28.93174-9.60125 56.551582-20.660386 82.093586-32.867432 11.529099-5.511569 21.662308-13.902914 29.337708-23.884134 13.458949-17.500633 19.418483-40.412843 15.774768-62.33513-1.2839-7.769393-3.281744-15.792766-5.941536-24.052121z m-386.471807 178.988017a560.108242 560.108242 0 0 0 93.638684 0l11.427108 111.443293h-116.492899z m-202.87815-87.065198c9.879228 0 17.9166 8.037372 17.9166 17.9166s-8.037372 17.9166-17.9166 17.9166-17.9166-8.037372-17.9166-17.9166 8.037372-17.9166 17.9166-17.9166z m477.81867-386.211828c9.879228 0 17.9166 8.037372 17.9166 17.916601s-8.037372 17.9166-17.9166 17.9166-17.9166-8.037372-17.9166-17.9166 8.037372-17.9166 17.9166-17.916601zM631.469666 148.696383c9.879228 0 17.9166 8.037372 17.916601 17.9166s-8.037372 17.9166-17.916601 17.916601-17.9166-8.037372-17.9166-17.916601 8.037372-17.9166 17.9166-17.9166z m-319.017076 134.307507c4.415655-28.787751 27.207874-62.241137 55.885634-94.240637a171.334614 171.334614 0 0 0 3.659714 3.439731 14.918834 14.918834 0 0 0 10.095211 3.917694 14.97683 14.97683 0 0 0 10.103211-26.035966 139.565096 139.565096 0 0 1-3.281744-3.101758 762.176455 762.176455 0 0 1 19.062511-18.56055 53.363831 53.363831 0 0 0 31.777517 10.475182c11.619092 0 23.336177-3.769705 33.189407-11.549098l33.02742-26.781907c20.778377 13.410952 48.180236 10.62917 65.862854-6.4095a1034.359191 1034.359191 0 0 1 23.798141 20.770378c-7.477416 8.44734-12.03106 19.542473-12.03106 31.685524 0 26.395938 21.474322 47.87026 47.87026 47.87026a47.656277 47.656277 0 0 0 30.881588-11.333114c15.860761 19.226498 28.963737 38.640981 36.703132 56.95955-7.701398 0.38597-14.062901 6.575486-14.316881 14.45687a14.97283 14.97283 0 0 0 14.486868 15.450793c2.197828 0.069995 4.437653 0.12599 6.667479 0.183986-1.195907 8.773315-6.893461 16.792688-15.386798 20.852371a402.708538 402.708538 0 0 1-21.806296 9.609249c-50.864026 20.682384-104.541833 31.169565-159.543536 31.169565-9.825232 0-19.602469-0.373971-29.331708-1.047918-1.271901-25.268026-22.228263-45.43445-47.806266-45.43445-19.624467 0-36.519147 11.873072-43.90057 28.809749a424.462839 424.462839 0 0 1-38.504992-13.496946 402.55655 402.55655 0 0 1-21.802296-9.609249c-10.785157-5.153597-17.098664-16.688696-15.3588-28.049809z m137.479259 70.214515c0 9.879228-8.037372 17.9166-17.9166 17.9166s-17.9166-8.037372-17.9166-17.9166 8.037372-17.9166 17.9166-17.9166 17.9166 8.037372 17.9166 17.9166z m234.909648 263.591407a22.114272 22.114272 0 0 1-13.608937 10.267198 627.177002 627.177002 0 0 1-169.524756 19.954441 17.004672 17.004672 0 0 1-0.783939-0.029998h-0.002a22.182267 22.182267 0 0 1-21.030357-22.668229 22.126271 22.126271 0 0 1 6.823467-15.62078 22.118272 22.118272 0 0 1 15.87276-6.219514 582.930459 582.930459 0 0 0 157.463698-18.538551c11.895071-3.079759 24.072119 4.083681 27.153879 15.972752a22.128271 22.128271 0 0 1-2.363815 16.882681z m73.776236-80.289728a39.93288 39.93288 0 0 1-12.757003 9.653246 525.82492 525.82492 0 0 1-30.677604 13.44095 549.227092 549.227092 0 0 1-15.840762 6.047528c-12.519022-10.555175-29.787673-15.112819-46.804344-10.703164a553.08679 553.08679 0 0 1-149.37633 17.586626c-13.942911-0.265979-27.163878 4.911616-37.217092 14.58686a52.60589 52.60589 0 0 0-8.151363 10.039216 552.886806 552.886806 0 0 1-150.170268-35.773205 533.146348 533.146348 0 0 1-35.157253-15.216811c-15.846762-7.573408-24.978049-24.754066-22.208265-41.778736 3.401734-20.904367 14.892836-45.968409 33.365393-73.650247 0.941926 0.89993 1.92185 1.819858 2.979767 2.779783a14.918834 14.918834 0 0 0 10.065214 3.891696 14.97483 14.97483 0 0 0 10.073213-26.059964 121.630498 121.630498 0 0 1-5.397578-5.203593c13.342958-17.304648 29.041731-35.375236 46.872338-53.89179a454.994454 454.994454 0 0 0 37.313085 12.347035c5.127599 20.908367 24.020123 36.471151 46.486368 36.471151 16.396719 0 30.887587-8.289352 39.518912-20.894368 12.467026 1.02992 25.008046 1.591876 37.619061 1.591876 54.701726 0 108.179548-9.705242 159.163566-28.833747 13.372955 13.550941 25.452012 26.685915 36.247168 39.374924-9.319272 8.739317-15.156816 21.148348-15.156816 34.901273 0 26.395938 21.474322 47.87026 47.87026 47.87026 7.139442 0 13.910913-1.581876 20.002438-4.395657 5.469573 12.039059 9.099289 23.326178 10.787157 33.771362 0.105992 0.661948 0.163987 1.323897 0.235981 1.985845-2.679791 0.103992-5.355582 0.203984-8.005374 0.293977a14.97483 14.97483 0 0 0-14.458871 15.476791c0.247981 7.347426 5.753551 13.260964 12.779002 14.290883z m55.0357 152.552082c-9.879228 0-17.9166-8.037372-17.9166-17.9166s8.037372-17.9166 17.9166-17.9166 17.9166 8.037372 17.916601 17.9166-8.037372 17.9166-17.916601 17.9166z" p-id="6545"></path></svg>