<?xml version="1.0" standalone="no"?><!DOCTYPE svg PUBLIC "-//W3C//DTD SVG 1.1//EN" "http://www.w3.org/Graphics/SVG/1.1/DTD/svg11.dtd"><svg t="1649679215446" class="icon" viewBox="0 0 1024 1024" version="1.1" xmlns="http://www.w3.org/2000/svg" p-id="8214" xmlns:xlink="http://www.w3.org/1999/xlink" width="200" height="200"><defs><style type="text/css">@font-face { font-family: "feedback-iconfont"; src: url("//at.alicdn.com/t/font_1031158_u69w8yhxdu.woff2?t=1630033759944") format("woff2"), url("//at.alicdn.com/t/font_1031158_u69w8yhxdu.woff?t=1630033759944") format("woff"), url("//at.alicdn.com/t/font_1031158_u69w8yhxdu.ttf?t=1630033759944") format("truetype"); }
</style></defs><path d="M512 148.59142s-278.064914 283.982891-301.924821 734.65713h603.849642C790.064914 432.57431 512 148.59142 512 148.59142z" fill="#EE6161" p-id="8215"></path><path d="M813.914821 883.25055h-39.365847c-19.981922-377.534525-218.351147-638.107507-282.232897-712.727216 12.355952-14.453944 19.683923-21.939914 19.683923-21.939914s278.060914 283.988891 301.914821 734.66713z" fill="#E94444" p-id="8216"></path><path d="M845.424698 1009.024058H178.575302a13.859946 13.859946 0 0 1-13.859945-13.859945v-98.055617a13.859946 13.859946 0 0 1 13.859945-13.859946h666.851396a13.859946 13.859946 0 0 1 13.859945 13.859946v98.055617a13.863946 13.863946 0 0 1-13.861945 13.859945z" fill="#F3F0F3" p-id="8217"></path><path d="M859.290643 897.104496v98.057617a13.851946 13.851946 0 0 1-13.873945 13.853946h-38.54785a13.847946 13.847946 0 0 0 13.853946-13.853946v-98.057617a13.859946 13.859946 0 0 0-13.853946-13.853946h38.54785c7.66597 0 13.873946 6.207976 13.873945 13.853946z" fill="#E2DEE2" p-id="8218"></path><path d="M613.017605 115.989547c0 12.90195-13.845946 22.95791-18.497927 34.177866-4.821981 11.629955-2.323991 28.487889-11.087957 37.253855-8.763966 8.763966-25.6219 6.265976-37.253855 11.087957-11.219956 4.651982-21.275917 18.497928-34.177866 18.497927s-22.95791-13.845946-34.177866-18.497927c-11.629955-4.821981-28.487889-2.323991-37.253855-11.089957-8.763966-8.763966-6.265976-25.6219-11.087957-37.253855-4.651982-11.219956-18.497928-21.275917-18.497927-34.177866s13.845946-22.95791 18.497927-34.177867c4.821981-11.629955 2.323991-28.487889 11.089957-37.253854 8.763966-8.763966 25.6219-6.265976 37.253854-11.087957 11.219956-4.651982 21.275917-18.497928 34.177867-18.497927s22.95791 13.845946 34.177866 18.497927c11.629955 4.821981 28.487889 2.323991 37.253855 11.089957 8.763966 8.763966 6.265976 25.6219 11.087957 37.253854 4.649982 11.219956 18.495928 21.277917 18.495927 34.177867z" fill="#F3F0F3" p-id="8219"></path><path d="M613.011605 115.983547c0 12.91595-13.833946 22.95791-18.485927 34.175866-4.831981 11.637955-2.335991 28.485889-11.099957 37.269855-8.763966 8.763966-25.6119 6.247976-37.249854 11.079957-11.219956 4.651982-21.279917 18.505928-34.175867 18.505927-12.295952 0-21.997914-12.575951-32.599873-17.78593 11.279956-2.135992 20.52192-13.953945 30.72188-18.185929 11.637955-4.829981 37.169855-4.267983 45.931821-13.031949 8.763966-8.763966 1.467994-21.253917 6.297975-32.891872 4.651982-11.219956 15.745938-17.175933 15.745939-30.091882 0-12.89595-12.143953-18.173929-16.795935-29.393885-3.573986-8.603966-5.965977-31.373877-9.059964-40.297843 10.859958 2.43599 23.855907 1.895993 31.181878 9.223964 8.763966 8.763966 6.267976 25.6319 11.099957 37.249854 4.653982 11.217956 18.487928 21.277917 18.487927 34.173867z" fill="#E2DEE2" p-id="8220"></path><path d="M663.357409 363.60058c-40.94384 11.437955-87.975656 20.681919-132.471483 20.52192h-37.769852c-44.495826 0.159999-91.529642-9.083965-132.471483-20.52192a1254.4851 1254.4851 0 0 1 41.261839-69.669728c29.763884 6.267976 61.065761 10.479959 91.209644 10.359959h37.769852c30.143882 0.12 61.44576-4.091984 91.209644-10.359959a1255.221097 1255.221097 0 0 1 41.261839 69.669728zM748.377077 553.785837c-55.655783 17.767931-138.581459 39.127847-214.979161 38.867848h-42.799832c-76.397702 0.259999-159.321378-21.099918-214.977161-38.867848a1250.339116 1250.339116 0 0 1 27.547893-71.445721c53.519791 15.45194 122.80952 30.70188 187.429268 30.503881h42.799832c64.619748 0.199999 133.909477-15.051941 187.429268-30.503881a1247.355128 1247.355128 0 0 1 27.549893 71.445721zM800.760872 759.861032c-74.32171 15.25194-169.783337 30.123882-258.876989 29.923883h-59.767766c-89.093652 0.199999-184.555279-14.671943-258.876989-29.923883a1172.639419 1172.639419 0 0 1 14.991941-76.8157c71.905719 14.153945 160.679372 27.109894 243.885048 26.909895h59.767766c83.203675 0.199999 171.979328-12.75595 243.885048-26.909895a1173.703415 1173.703415 0 0 1 14.991941 76.8157z" fill="#F3F0F3" p-id="8221"></path><path d="M663.357409 363.60058a665.775399 665.775399 0 0 1-34.635865 8.703966 1266.407053 1266.407053 0 0 0-42.021836-72.125719c11.937953-1.655994 23.775907-3.791985 35.393862-6.247975a1130.435584 1130.435584 0 0 1 12.021953 19.259925 1176.311405 1176.311405 0 0 1 16.189937 27.237893c3.491986 6.073976 6.911973 12.001953 10.27396 18.143929 0.921996 1.675993 1.859993 3.351987 2.777989 5.027981zM748.377077 553.785837a985.798149 985.798149 0 0 1-35.693861 10.679958 1228.287202 1228.287202 0 0 0-27.269893-72.623716 925.936383 925.936383 0 0 0 35.413861-9.501963c2.419991 5.751978 4.787981 11.499955 7.127972 17.289932 1.675993 4.139984 20.42392 54.155788 20.421921 54.155789zM800.760872 759.861032a1994.656208 1994.656208 0 0 1-38.187851 7.425971 1183.399377 1183.399377 0 0 0-14.571943-77.235699 1683.193425 1683.193425 0 0 0 37.769853-7.005972l1.617993 7.125972c1.723993 7.477971 3.279987 14.995941 4.811981 22.597912 0.855997 4.275983 9.185964 46.961817 8.559967 47.091816z" fill="#E2DEE2" p-id="8222"></path><path d="M845.424698 868.276608h-17.419932c-6.471975-99.357612-25.6379-198.395225-57.091777-294.600849-26.343897-80.579685-61.297761-159.365377-103.887595-234.167085-31.483877-55.295784-62.233757-99.90961-87.221659-132.983481 5.04798-1.703993 9.983961-4.287983 14.213945-8.517966 8.847965-8.849965 10.539959-20.787919 11.899953-30.379882 0.649997-4.575982 1.261995-8.899965 2.431991-11.723954 1.053996-2.54199 3.699986-6.015977 6.259975-9.375963 5.961977-7.827969 13.381948-17.567931 13.381948-30.537881s-7.419971-22.711911-13.381948-30.535881c-2.55999-3.361987-5.20598-6.833973-6.259975-9.375963-1.171995-2.823989-1.783993-7.147972-2.431991-11.723954-1.357995-9.593963-3.051988-21.531916-11.899953-30.381882-8.847965-8.847965-20.787919-10.539959-30.379882-11.897953-4.575982-0.649997-8.897965-1.261995-11.725954-2.433991-2.54199-1.053996-6.015977-3.699986-9.375963-6.259975C534.709911 7.419971 524.969949 0 512 0s-22.709911 7.419971-30.535881 13.381948c-3.359987 2.55999-6.833973 5.20598-9.375963 6.259975-2.825989 1.171995-7.147972 1.783993-11.723954 2.433991-9.593963 1.357995-21.531916 3.047988-30.379882 11.897953-8.847965 8.847965-10.539959 20.789919-11.899953 30.379882-0.647997 4.577982-1.259995 8.899965-2.431991 11.723954-1.053996 2.54199-3.699986 6.015977-6.259975 9.375963-5.961977 7.827969-13.381948 17.567931-13.381948 30.537881s7.419971 22.711911 13.381948 30.537881c2.55999 3.357987 5.20598 6.833973 6.259975 9.375963 1.171995 2.825989 1.783993 7.147972 2.431991 11.723954 1.357995 9.593963 3.051988 21.529916 11.899953 30.379882 4.229983 4.229983 9.167964 6.813973 14.217945 8.517966-24.989902 33.073871-55.735782 77.677697-87.225659 132.983481-42.589834 74.801708-77.543697 153.5874-103.887595 234.167085-31.453877 96.205624-50.617802 195.243237-57.091777 294.600849h-17.419932c-15.897938 0-28.829887 12.933949-28.829887 28.831888v98.057617c0 15.897938 12.933949 28.831887 28.829887 28.831887h498.930051a14.971942 14.971942 0 1 0 0-29.943883H179.687298v-95.831626h664.625404v95.831626h-97.079621a14.971942 14.971942 0 1 0 0 29.943883h98.191617c15.897938 0 28.829887-12.933949 28.829887-28.831887v-98.057617c0.002-15.899938-12.931949-28.833887-28.829887-28.833888zM443.310268 144.433436c-2.53999-6.125976-6.555974-11.397955-10.09796-16.047938-3.233987-4.245983-7.257972-9.529963-7.257972-12.395951s4.023984-8.147968 7.257972-12.395952c3.541986-4.649982 7.55797-9.919961 10.09796-16.047937 2.62599-6.333975 3.579986-13.059949 4.419983-18.993926 0.695997-4.907981 1.647994-11.629955 3.425987-13.405947 1.777993-1.777993 8.499967-2.729989 13.407947-3.425987 5.933977-0.841997 12.659951-1.793993 18.993926-4.421983 6.127976-2.53999 11.399955-6.555974 16.051937-10.09796 4.243983-3.233987 9.527963-7.257972 12.391952-7.257972s8.145968 4.023984 12.391952 7.257972c4.651982 3.541986 9.923961 7.55797 16.049937 10.09796 6.333975 2.62799 13.059949 3.579986 18.993926 4.421983 4.907981 0.693997 11.629955 1.647994 13.407947 3.425987 1.775993 1.775993 2.729989 8.497967 3.425987 13.405947 0.839997 5.933977 1.793993 12.659951 4.419983 18.995926 2.53999 6.125976 6.555974 11.397955 10.09996 16.049937 3.233987 4.243983 7.255972 9.525963 7.255972 12.391952s-4.023984 8.147968-7.257972 12.395951c-3.541986 4.649982-7.55797 9.919961-10.09796 16.047938-2.62599 6.333975-3.579986 13.059949-4.421983 18.993926-0.693997 4.907981-1.647994 11.629955-3.425987 13.407947-1.775993 1.775993-8.497967 2.729989-13.405947 3.423987-5.933977 0.841997-12.659951 1.793993-18.995926 4.421983-6.125976 2.53999-11.395955 6.555974-16.047937 10.09796-4.245983 3.233987-9.527963 7.257972-12.393952 7.257972s-8.147968-4.023984-12.393952-7.257972c-4.649982-3.541986-9.921961-7.55797-16.049937-10.09796-6.333975-2.62799-13.059949-3.579986-18.993926-4.421983-4.907981-0.693997-11.629955-1.645994-13.407947-3.425987-1.775993-1.775993-2.729989-8.497967-3.425987-13.405947-0.837997-5.931977-1.791993-12.657951-4.417983-18.993926z m32.543873 70.059726c1.781993 1.197995 3.709986 2.66199 5.607978 4.105984 7.825969 5.961977 17.565931 13.381948 30.537881 13.381948s22.711911-7.419971 30.537881-13.381948c1.881993-1.433994 3.795985-2.885989 5.565978-4.077984 14.403944 18.583927 31.251878 41.627837 49.275807 68.835731-23.853907 4.015984-46.14182 6.029976-66.49574 5.963977h-37.827852c-20.233921 0.153999-42.533834-1.931992-66.375741-5.971977 17.487932-26.389897 34.287866-49.565806 49.173808-68.855731z m-88.767653 132.727482a1212.795263 1212.795263 0 0 1 16.977934-28.455889c0.491998-0.799997 4.491982-8.217968 5.03598-8.113968 30.281882 5.817977 58.499771 8.679966 84.015672 8.613966h37.709852c25.5959 0.185999 53.81379-2.795989 84.105672-8.617966l0.619998 0.983996c0.601998 0.963996 1.199995 1.941992 1.799992 2.911988a1244.821137 1244.821137 0 0 1 23.505909 39.527846c-40.589841 10.12796-77.497697 15.195941-109.971571 15.081941h-37.821852c-32.415873 0.128-69.325729-4.951981-109.913571-15.081941a1032.563967 1032.563967 0 0 1 3.935985-6.849973z m-18.915926 33.915867c45.533822 11.915953 87.12566 17.96193 123.751516 17.96193l1.193996-0.002h37.715852l1.195996 0.002c36.673857 0 78.275694-6.045976 123.807516-17.96193a1255.481096 1255.481096 0 0 1 44.443827 91.361643c-61.54576 16.607935-118.509537 25.375901-165.697353 25.375901l-1.181996-0.002h-42.845832l-1.179996 0.002c-47.149816 0-104.109593-8.749966-165.657353-25.357901a1255.991094 1255.991094 0 0 1 44.453827-91.379643zM281.340901 583.61372a1210.145273 1210.145273 0 0 1 3.735985-11.229956c19.571924 5.951977 39.029848 11.275956 58.007774 15.807938a14.971942 14.971942 0 1 0 6.955973-29.123886 960.454248 960.454248 0 0 1-55.049785-14.935942 1244.24514 1244.24514 0 0 1 4.525982-12.209952l0.052-0.135999a1368.850653 1368.850653 0 0 1 12.365952-31.419878c66.855739 18.379928 126.883504 27.593892 178.665302 27.451893h42.753833l1.333994 0.002c51.487799 0 111.097566-9.227964 177.381307-27.453893 0.599998 1.467994 1.209995 2.933989 1.803993 4.403983 1.273995 3.149988 15.46794 39.261847 15.139941 39.361846-53.76779 16.281936-126.729505 33.555869-194.277241 33.555869l-1.337995-0.002h-42.849832c-22.357913 0.086-46.847817-1.787993-72.899715-5.533978a14.971942 14.971942 0 0 0-4.263984 29.639884c26.951895 3.877985 52.463795 5.839977 75.811704 5.839977l1.401995-0.002h42.749833l1.425994 0.002c71.61372 0 148.223421-18.211929 204.153203-35.219862a1190.829348 1190.829348 0 0 1 3.523986 10.575959 1188.785356 1188.785356 0 0 1 25.139902 88.279655c-83.623673 15.721939-158.855379 23.721907-223.819126 23.721907l-1.889993-0.002H482.080117c-65.287745 0.177999-141.233448-7.851969-225.671119-23.725907a1188.031359 1188.031359 0 0 1 24.931903-87.647658z m-40.009844 159.201378a1167.111441 1167.111441 0 0 1 8.383968-42.309834c86.761661 16.369936 164.855356 24.531904 232.401092 24.419904h59.731766l1.957993 0.002c67.087738 0 144.559435-8.211968 230.481099-24.421904 0.585998-0.11 8.517967 43.187831 9.273964 47.541814-89.079652 17.537931-171.725329 26.767895-239.997062 26.767895l-1.679994-0.002h-59.801766c-68.509732 0.161999-151.835407-9.085965-241.643056-26.765895 0.303999-1.743993 0.581998-3.487986 0.891996-5.23198z m-5.653978 34.785864c91.545642 18.00393 173.785321 27.161894 244.605045 27.159894l1.833993-0.002h59.735766l1.833993 0.002c70.845723 0 153.103402-9.167964 244.639045-27.171893a1149.729509 1149.729509 0 0 1 9.705962 90.689645h-572.057766a1148.475514 1148.475514 0 0 1 9.703962-90.677646z" p-id="8223"></path></svg>