<?xml version="1.0" standalone="no"?><!DOCTYPE svg PUBLIC "-//W3C//DTD SVG 1.1//EN" "http://www.w3.org/Graphics/SVG/1.1/DTD/svg11.dtd"><svg t="1649679211736" class="icon" viewBox="0 0 1024 1024" version="1.1" xmlns="http://www.w3.org/2000/svg" p-id="8067" xmlns:xlink="http://www.w3.org/1999/xlink" width="200" height="200"><defs><style type="text/css">@font-face { font-family: "feedback-iconfont"; src: url("//at.alicdn.com/t/font_1031158_u69w8yhxdu.woff2?t=1630033759944") format("woff2"), url("//at.alicdn.com/t/font_1031158_u69w8yhxdu.woff?t=1630033759944") format("woff"), url("//at.alicdn.com/t/font_1031158_u69w8yhxdu.ttf?t=1630033759944") format("truetype"); }
</style></defs><path d="M1009.028529 409.824822v-155.783517c0-17.573751-14.245419-31.819169-31.81917-31.81917H46.792681c-17.573751 0-31.819169 14.245419-31.819169 31.81917v155.783517c0 17.573751 14.245419 31.819169 31.819169 31.81917-17.573751 0-31.819169 14.245419-31.819169 31.819169v155.783518c0 17.573751 14.245419 31.819169 31.819169 31.819169-17.573751 0-31.819169 14.247419-31.819169 31.81917v155.783517c0 17.573751 14.245419 31.819169 31.819169 31.81917h930.414678c17.573751 0 31.819169-14.247419 31.81917-31.81917V692.889018c0-17.573751-14.245419-31.819169-31.81917-31.819169 17.573751 0 31.819169-14.245419 31.81917-31.81917V473.467162c0-17.573751-14.245419-31.819169-31.81917-31.81917 17.573751-0.002 31.82117-14.249419 31.82117-31.82317z" fill="#E49280" p-id="8068"></path><path d="M977.21336 441.647992c17.56775 0 31.82117 14.233418 31.821169 31.82117v155.775517c0 17.56775-14.25342 31.82117-31.821169 31.821169 17.56775 0 31.82117 14.25342 31.821169 31.82317v155.775517c0 17.587752-14.25342 31.82117-31.821169 31.82117h-39.927978c17.56775 0 31.82117-14.233418 31.82117-31.82117v-155.775517c0-17.56775-14.25342-31.82317-31.82117-31.82317 17.56775 0 31.82117-14.25342 31.82117-31.821169v-155.775517c0-17.587752-14.25342-31.82117-31.82117-31.82117 17.56775 0 31.82117-14.25342 31.82117-31.821169v-155.775517c0-17.587752-14.25342-31.82317-31.82117-31.82317h39.927978c17.56775 0 31.82117 14.233418 31.821169 31.82317v155.775517c0 17.56775-14.25342 31.82117-31.821169 31.821169z" fill="#DD7F66" p-id="8069"></path><path d="M656.659429 924.598099h-124.028354c-23.39033 0-42.352219-18.961889-42.352219-42.352219 0-23.39033 18.961889-42.352219 42.352219-42.352219h124.028354c23.39033 0 42.352219 18.961889 42.352219 42.352219-0.002 23.39033-18.961889 42.352219-42.352219 42.352219z" fill="#F3F0F3" p-id="8070"></path><path d="M699.019649 882.24588a42.208204 42.208204 0 0 1-12.417237 29.944983 42.194203 42.194203 0 0 1-29.944983 12.397235H610.940875a42.190203 42.190203 0 0 0 29.944983-12.397235 42.194203 42.194203 0 0 0 12.397235-29.944983c0-23.398331-18.965889-42.342218-42.342218-42.342218h45.716554c23.39633 0 42.36222 18.945887 42.36222 42.342218z" fill="#E2DEE2" p-id="8071"></path><path d="M325.088402 178.115742h-32.961283c12.391234-7.388736 20.720064-20.88608 20.720064-36.361622 0-23.39033-18.961889-42.350218-42.352219-42.350218h-70.052978c-23.39033 0-42.352219 18.961889-42.352219 42.350218 0 15.475542 8.326829 28.972886 20.720064 36.361622H148.442806c-23.39033 0-42.352219 18.961889-42.352218 42.352219 0 23.39033 18.961889 42.350218 42.352218 42.350218h176.645596c23.39033 0 42.352219-18.961889 42.352219-42.350218-0.002-23.39033-18.963889-42.352219-42.352219-42.352219z" fill="#F3F0F3" p-id="8072"></path><path d="M367.444621 220.471961c0 23.378329-18.965889 42.342218-42.36222 42.342218h-45.716554c21.852177 0 44.066389-20.116004 40.035988-43.100293-3.784377-21.596151-28.360825-33.219309-48.420823-33.22331-11.193115 0-18.127806-12.355231-12.127208-21.802171 4.870485-7.668764 8.272824-15.953589 8.272824-22.934285 0-11.699165-4.750473-22.280219-12.397235-29.944983a42.230207 42.230207 0 0 0-29.944982-12.397235h45.716553a42.224206 42.224206 0 0 1 29.944983 12.397235c7.646762 7.666764 12.397235 18.245817 12.397235 29.944983 0 15.471541-8.324829 28.966885-20.722064 36.353621h32.959283a42.238207 42.238207 0 0 1 29.964985 12.397235 42.248208 42.248208 0 0 1 12.399235 29.966985z" fill="#E2DEE2" p-id="8073"></path><path d="M620.311809 752.352941a14.967491 14.967491 0 0 0 19.321925-8.662862l9.350931-24.552446h63.356311l9.250921 24.512442a14.981492 14.981492 0 0 0 14.011396 9.688965 14.901484 14.901484 0 0 0 5.282526-0.970097 14.973492 14.973492 0 0 0 8.722869-19.293922l-51.821162-137.315678a18.0678 18.0678 0 0 0-16.927686-11.641159h-0.020002a18.061799 18.061799 0 0 0-16.893683 11.607156l-52.297209 137.309677a14.967491 14.967491 0 0 0 8.662863 19.317924z m60.496026-116.773631l20.232015 53.61134h-40.650049zM429.268779 752.010907a14.975492 14.975492 0 0 0 17.393733-12.075202l15.607554-86.482615 25.668557 87.004667a18.087802 18.087802 0 0 0 17.339727 12.879282h0.09401a18.085802 18.085802 0 0 0 17.299723-13.041299l24.782469-86.93866 16.575651 86.73464c1.552155 8.124809 9.398936 13.473342 17.517745 11.895185a14.975492 14.975492 0 0 0 11.897185-17.517745l-25.962586-135.847532a18.129806 18.129806 0 0 0-16.729667-14.471441 18.0678 18.0678 0 0 0-18.415834 13.013296l-27.250715 95.593522-28.248814-95.747537a18.125806 18.125806 0 0 0-18.555848-12.839279c-8.206817 0.550055-15.025497 6.576655-16.611655 14.825477l-24.478438 135.625509a14.973492 14.973492 0 0 0 12.077203 17.389732zM831.034799 753.335039c28.168806 0 51.80716-17.883781 56.205598-42.524236 3.294328-18.449838-5.202518-42.592243-38.931878-55.033481-17.497743-6.454643-33.759363-13.493344-38.329818-15.499544-3.528351-2.704269-5.226521-6.940691-4.570455-11.521148 0.420042-2.920291 2.504249-10.049001 12.787274-13.145309 20.920084-6.292627 40.05399 8.890886 40.570041 9.306927a14.971491 14.971491 0 0 0 21.032095-1.880188 14.973492 14.973492 0 0 0-1.826182-21.096101c-1.272127-1.072107-31.611149-26.086598-68.414815-15.005495-18.309824 5.51655-31.257114 19.909983-33.791366 37.565742-2.370236 16.503644 4.782476 32.381225 18.66586 41.432127 0.660066 0.432043 1.354135 0.810081 2.076207 1.130113 0.80408 0.356035 19.909983 8.862883 41.436127 16.803674 6.682666 2.466246 21.98819 9.508947 19.815974 21.676159-1.566156 8.770874-11.991194 17.841777-26.726662 17.841777-14.519446 0-28.51484-5.876585-37.437729-15.725566a14.975492 14.975492 0 0 0-22.190211 20.106002c14.507445 16.011595 36.797665 25.568547 59.62994 25.568547z" p-id="8074"></path><path d="M1024.00002 254.041305c0-25.80257-20.992091-46.794661-46.792661-46.794661H380.855957c-5.986596-25.252515-28.70886-44.104393-55.767555-44.104394h-1.464146a56.891667 56.891667 0 0 0 4.194418-21.38813c0-31.609149-25.714561-57.32571-57.32371-57.32571h-70.052978c-31.609149 0-57.32371 25.716562-57.32371 57.32571 0 7.420739 1.470146 14.677462 4.198418 21.400132-26.560646 0.512051-48.742855 19.189911-54.645443 44.092392H46.792681C20.992111 207.248644 0.00002 228.238735 0.00002 254.041305v155.783517c0 12.277223 4.752473 23.464337 12.515247 31.82117C4.752493 450.002825 0.00002 461.187939 0.00002 473.465162v155.785517c0 12.275223 4.750473 23.462337 12.513246 31.81917A46.608643 46.608643 0 0 0 0.00002 692.887018v155.785518c0 25.80057 20.992091 46.792661 46.792661 46.792661h430.068839c5.986596 25.254516 28.71086 44.106393 55.769555 44.106393h124.028354c27.058695 0 49.782959-18.851878 55.769556-44.106393h73.777349a14.973492 14.973492 0 1 0 0-29.944983h-74.719443c-7.176715-23.472338-29.036892-40.596044-54.827462-40.596044h-124.028354c-25.790569 0-47.652747 17.123706-54.827461 40.596044H46.792681c-9.288925 0-16.847678-7.556753-16.847678-16.845678V692.889018c0-9.216918 7.442741-16.719665 16.635657-16.835677 0.052005 0 0.10401 0.008001 0.156015 0.008001h47.196702a14.973492 14.973492 0 1 0 0-29.946983h-46.764659c-0.126013-0.004-0.250025-0.020002-0.378037-0.020002-9.288925 0-16.847678-7.556753-16.847678-16.845678v-155.785518c0-9.290925 7.556753-16.845678 16.847678-16.845678h47.140695a14.973492 14.973492 0 1 0 0-29.946983H46.788681c-9.286925-0.002-16.841678-7.560753-16.841678-16.847678v-155.783517c0-9.288925 7.556753-16.847678 16.847678-16.847678h46.820664c7.174715 23.474338 29.036892 40.598044 54.827461 40.598043h23.578349a14.973492 14.973492 0 1 0 0-29.946983H148.440806c-15.097504 0-27.378727-12.283224-27.378727-27.378727 0-15.097504 12.281223-27.378727 27.378727-27.378727h30.369025a14.973492 14.973492 0 0 0 7.668764-27.830772c-8.398837-5.008499-13.415336-13.795374-13.415336-23.502341 0-15.097504 12.283224-27.378727 27.378727-27.378727h70.052978c15.095504 0 27.378727 12.283224 27.378727 27.378727 0 9.706967-5.014499 18.493842-13.413336 23.502341a14.969491 14.969491 0 0 0 7.668764 27.830772h32.961283c15.095504 0 27.378727 12.283224 27.378727 27.378727s-12.281223 27.378727-27.378727 27.378727h-84.192386a14.973492 14.973492 0 1 0 0 29.946983h84.192386c25.792569 0 47.652747-17.123706 54.827461-40.598043h597.291496c9.288925 0 16.847678 7.558753 16.847678 16.847678v155.783517c0 9.288925-7.554753 16.845678-16.841677 16.847678h-47.146696a14.973492 14.973492 0 1 0 0 29.946983h47.140695c9.288925 0 16.847678 7.556753 16.847678 16.845678v155.785518c0 9.288925-7.556753 16.845678-16.847678 16.845678-0.588059 0-1.166116 0.042004-1.736173 0.108011h-46.214603a14.973492 14.973492 0 1 0 0 29.946983h47.196701c0.488049 0 0.972097-0.028003 1.448144-0.074008 8.966893 0.368037 16.153609 7.754772 16.153609 16.811675v155.785518c0 9.288925-7.556753 16.845678-16.847678 16.845678h-120.87004a14.973492 14.973492 0 1 0 0 29.944983h120.87004c25.80257 0 46.792661-20.992091 46.792661-46.792661v-155.785518c0-12.275223-4.750473-23.462337-12.513246-31.81917a46.616643 46.616643 0 0 0 12.513246-31.819169v-155.785518c0-12.277223-4.752473-23.462337-12.515246-31.819169a46.616643 46.616643 0 0 0 12.515246-31.82117v-155.779517zM532.629075 854.869153h124.028354c15.097504 0 27.378727 12.281223 27.378727 27.378727s-12.283224 27.378727-27.378727 27.378727h-124.028354c-15.097504 0-27.378727-12.283224-27.378727-27.378727 0-15.097504 12.283224-27.378727 27.378727-27.378727z" p-id="8075"></path><path d="M273.581271 494.749282l21.468139-75.309502 14.337428 75.019473c1.552155 8.122809 9.396936 13.471342 17.517745 11.895185a14.973492 14.973492 0 0 0 11.897185-17.517745l-23.918383-125.152467a17.877781 17.877781 0 0 0-16.503644-14.273421c-8.098807-0.480048-15.501544 4.610459-18.005793 12.327227a15.35553 15.35553 0 0 0-0.158016 0.516052L256.225542 446.396465l-24.870477-84.298397a17.879781 17.879781 0 0 0-18.301823-12.673262c-8.094806 0.542054-14.821476 6.484646-16.387632 14.623457L174.117364 488.986708a14.975492 14.975492 0 0 0 12.075203 17.393732c8.136811 1.456145 15.925586-3.938392 17.393732-12.075203l13.493344-74.767447 22.236215 75.369507a17.837777 17.837777 0 0 0 17.105704 12.711267h0.092009a17.841777 17.841777 0 0 0 17.0677-12.869282zM453.413184 492.647072a14.973492 14.973492 0 0 0-14.973491-14.973491h-38.591844v-33.617349h34.64345a14.973492 14.973492 0 1 0 0-29.946983h-34.64345v-33.617348h38.591844a14.973492 14.973492 0 1 0 0-29.946983h-53.565336a14.973492 14.973492 0 0 0-14.973491 14.973491v127.124663a14.971491 14.971491 0 0 0 14.973491 14.973491h53.565336a14.969491 14.969491 0 0 0 14.973491-14.969491zM779.371653 492.609068a14.971491 14.971491 0 0 0 14.935487 15.009496h0.038004a14.971491 14.971491 0 0 0 14.971492-14.935488l0.150014-61.110087 38.229809-58.72785a14.971491 14.971491 0 0 0-4.380437-20.716064 14.969491 14.969491 0 0 0-20.718064 4.378436l-28.1148 43.188302-28.424831-43.532336a14.973492 14.973492 0 0 0-25.072498 16.371631l38.533838 59.013878zM583.558148 397.695614c0-26.640654-22.520243-48.316813-50.203001-48.316813h-34.1334a14.973492 14.973492 0 0 0-14.973491 14.973492v128.294779c0 8.270824 6.702668 14.973492 14.973491 14.973492s14.973492-6.702668 14.973492-14.973492v-39.137898l43.152298 49.028884a14.935488 14.935488 0 0 0 11.24512 5.080506 14.975492 14.975492 0 0 0 11.235119-24.864477l-33.73136-38.325818c21.530145-5.438542 37.461732-24.326423 37.461732-46.732655z m-50.203001 18.36783c-4.408439 0-12.0512 0.032003-18.967889 0.066006-0.036004-6.760673-0.086009-29.722961-0.106011-36.805666h19.0739c10.981094 0 20.258018 8.412838 20.258018 18.37183 0 9.954992-9.276924 18.36783-20.258018 18.36783zM713.705112 397.695614c0-26.640654-22.520243-48.316813-50.201001-48.316813H629.370711a14.973492 14.973492 0 0 0-14.973491 14.973492v128.294779a14.973492 14.973492 0 1 0 29.946983 0v-39.135898l43.150298 49.026884a14.935488 14.935488 0 0 0 11.24512 5.080506 14.975492 14.975492 0 0 0 11.235119-24.864477l-33.73136-38.325818c21.528144-5.438542 37.461732-24.326423 37.461732-46.732655z m-50.203001 18.36783c-4.410439 0-12.0512 0.032003-18.967889 0.066006-0.036004-6.760673-0.086009-29.722961-0.106011-36.805666h19.0739c10.979094 0 20.256018 8.412838 20.256018 18.37183 0 9.954992-9.274924 18.36783-20.256018 18.36783zM142.434208 750.600767a14.891483 14.891483 0 0 0 8.610858 2.734272 14.95349 14.95349 0 0 0 12.25322-6.352633l40.292014-57.193697 40.230007 57.187697a14.96149 14.96149 0 0 0 20.862078 3.628361 14.971491 14.971491 0 0 0 3.630361-20.860078l-46.402622-65.96257 39.501935-56.071585a14.971491 14.971491 0 0 0-3.61836-20.862078 14.971491 14.971491 0 0 0-20.864079 3.61636l-33.323319 47.302712-33.271314-47.294711a14.973492 14.973492 0 0 0-24.49244 17.229716l39.443929 56.067585-46.470629 65.96457a14.979492 14.979492 0 0 0 3.618361 20.866079zM293.881293 683.698103h84.302398a14.973492 14.973492 0 1 0 0-29.944983h-84.302398a14.973492 14.973492 0 1 0 0 29.944983z" p-id="8076"></path></svg>