<?xml version="1.0" standalone="no"?><!DOCTYPE svg PUBLIC "-//W3C//DTD SVG 1.1//EN" "http://www.w3.org/Graphics/SVG/1.1/DTD/svg11.dtd"><svg t="1649679236078" class="icon" viewBox="0 0 1024 1024" version="1.1" xmlns="http://www.w3.org/2000/svg" p-id="9129" xmlns:xlink="http://www.w3.org/1999/xlink" width="200" height="200"><defs><style type="text/css">@font-face { font-family: "feedback-iconfont"; src: url("//at.alicdn.com/t/font_1031158_u69w8yhxdu.woff2?t=1630033759944") format("woff2"), url("//at.alicdn.com/t/font_1031158_u69w8yhxdu.woff?t=1630033759944") format("woff"), url("//at.alicdn.com/t/font_1031158_u69w8yhxdu.ttf?t=1630033759944") format("truetype"); }
</style></defs><path d="M89.864 862.776c-5.008 19.164-19.04 53.108-56.74 64.188-2.57 0.756-2.57 4.426 0 5.18 37.7 11.08 51.732 45.026 56.74 64.188 0.704 2.696 4.532 2.696 5.236 0 5.008-19.164 19.04-53.108 56.74-64.188 2.57-0.756 2.57-4.426 0-5.18-37.7-11.08-51.732-45.026-56.74-64.188-0.704-2.696-4.532-2.696-5.236 0z" fill="#FEE45A" p-id="9130"></path><path d="M151.84 932.14c-37.712 11.082-51.746 45.028-56.748 64.184-0.698 2.712-4.524 2.712-5.242 0-2.79-10.664-8.372-25.932-19.294-39.268 6.1-17.68 19.016-41.32 45.886-52.602 8.512 9.608 19.972 17.98 35.4 22.504 2.568 0.756 2.568 4.424-0.002 5.182z" fill="#FED402" p-id="9131"></path><path d="M605.836 229.178H422.74V128.832c0-15.256 12.368-27.624 27.624-27.624h127.848c15.256 0 27.624 12.368 27.624 27.624z" fill="#918291" p-id="9132"></path><path d="M605.844 128.834v100.342h-41.36V128.834c0-15.248-12.378-27.626-27.626-27.626h41.36c15.246-0.002 27.626 12.378 27.626 27.626z" fill="#7A6D79" p-id="9133"></path><path d="M512 594.686m-414.364 0a414.364 414.364 0 1 0 828.728 0 414.364 414.364 0 1 0-828.728 0Z" fill="#EE6161" p-id="9134"></path><path d="M926.362 594.68c0 228.848-185.514 414.362-414.362 414.362-59.978 0-116.986-12.736-168.452-35.68 41.58 14.032 86.15 21.628 132.472 21.628 228.848 0 414.382-185.514 414.382-414.362 0-168.85-100.998-314.1-245.85-378.662C808.4 257.26 926.362 412.196 926.362 594.68z" fill="#E94444" p-id="9135"></path><path d="M928.9 193.038c-5.008 19.164-19.04 53.108-56.74 64.188-2.57 0.756-2.57 4.426 0 5.18 37.7 11.08 51.732 45.026 56.74 64.188 0.704 2.696 4.532 2.696 5.236 0 5.008-19.164 19.04-53.108 56.74-64.188 2.57-0.756 2.57-4.426 0-5.18-37.7-11.08-51.732-45.026-56.74-64.188-0.704-2.696-4.532-2.696-5.236 0z" fill="#FEE45A" p-id="9136"></path><path d="M990.884 262.402c-37.712 11.082-51.746 45.028-56.748 64.184-0.698 2.712-4.524 2.712-5.242 0-2.79-10.664-8.372-25.932-19.294-39.268 6.1-17.68 19.016-41.32 45.886-52.602 8.512 9.608 19.972 17.98 35.4 22.504 2.568 0.758 2.568 4.426-0.002 5.182z" fill="#FED402" p-id="9137"></path><path d="M924.606 633.012a412.56 412.56 0 0 1-20.49 95.956c-90.694 9.628-180.112 16.026-246.726 20.012a2433.394 2433.394 0 0 1-290.8 0c-66.596-3.986-156.014-10.386-246.708-20.012a412.458 412.458 0 0 1-20.49-95.956c98.986 11.362 199.786 18.658 272.78 23.022a2345.592 2345.592 0 0 0 279.656 0c72.994-4.366 173.794-11.662 272.778-23.022z" fill="#554E56" p-id="9138"></path><path d="M924.606 633.012c-0.18 1.974-0.378 3.966-0.578 5.92-0.504 4.942-1.034 9.886-1.782 14.8-3.282 21.564-7.95 42.916-14.384 63.716a368.74 368.74 0 0 1-3.748 11.52c-14.312 1.514-28.584 2.95-42.756 4.326a410.396 410.396 0 0 0 25.214-96.116c12.68-1.316 25.378-2.712 38.034-4.166z" fill="#433F43" p-id="9139"></path><path d="M596.362 773.636H427.64a19.12 19.12 0 0 1-19.12-19.12v-113.4a19.12 19.12 0 0 1 19.12-19.12h168.722a19.12 19.12 0 0 1 19.12 19.12v113.4c-0.002 10.56-8.562 19.12-19.12 19.12z" fill="#F3F0F3" p-id="9140"></path><path d="M615.47 641.102v113.422a19.114 19.114 0 0 1-19.114 19.114h-51.528c17.002 0 30.776-13.774 30.776-30.776v-90.076c0-17.002-13.774-30.796-30.776-30.796h51.528c10.558-0.002 19.114 8.556 19.114 19.112z" fill="#E2DEE2" p-id="9141"></path><path d="M512 329.338m-45.464 0a45.464 45.464 0 1 0 90.928 0 45.464 45.464 0 1 0-90.928 0Z" fill="#F3F0F3" p-id="9142"></path><path d="M512 477.97m-45.464 0a45.464 45.464 0 1 0 90.928 0 45.464 45.464 0 1 0-90.928 0Z" fill="#F3F0F3" p-id="9143"></path><path d="M557.448 329.338c0 25.114-20.334 45.48-45.448 45.48-16.606 0-31.138-8.924-39.042-22.214C495.012 349.48 512 330.518 512 307.57c0-8.478-2.326-16.446-6.406-23.234a47.128 47.128 0 0 1 6.406-0.446c25.114-0.002 45.448 20.334 45.448 45.448zM557.448 477.962c0 25.116-20.334 45.48-45.448 45.48-16.606 0-31.138-8.924-39.042-22.214C495.012 498.104 512 479.14 512 456.224c0-8.51-2.326-16.478-6.406-23.266a46.808 46.808 0 0 1 6.406-0.446c25.114 0 45.448 20.334 45.448 45.45z" fill="#E2DEE2" p-id="9144"></path><path d="M156.056 912.622c-30.61-8.996-42.266-37.458-46.49-53.626-2.03-7.768-9.054-13.192-17.082-13.192s-15.052 5.424-17.084 13.192c-4.224 16.166-15.882 44.628-46.492 53.624-7.572 2.228-12.66 9.032-12.66 16.934s5.088 14.708 12.662 16.934c30.61 8.996 42.268 37.46 46.492 53.628a17.66 17.66 0 0 0 17.082 13.188 17.666 17.666 0 0 0 17.082-13.192c4.224-16.166 15.88-44.628 46.492-53.624 7.572-2.226 12.66-9.032 12.66-16.934-0.002-7.9-5.09-14.704-12.662-16.932z m-63.574 50.164c-6.658-11.92-16.226-24-29.934-33.23 13.708-9.23 23.276-21.31 29.934-33.23 6.66 11.92 16.226 24 29.934 33.23-13.708 9.23-23.274 21.31-29.934 33.23zM995.092 242.884c-30.61-8.996-42.268-37.46-46.49-53.622a17.66 17.66 0 0 0-17.08-13.194h-0.002a17.662 17.662 0 0 0-17.082 13.188v0.002c-4.224 16.166-15.878 44.628-46.492 53.624-7.572 2.226-12.66 9.03-12.66 16.934 0 7.902 5.088 14.708 12.662 16.934 30.612 8.996 42.268 37.458 46.49 53.626a17.662 17.662 0 0 0 17.084 13.192h0.002a17.664 17.664 0 0 0 17.08-13.192c4.224-16.166 15.88-44.628 46.492-53.626 7.572-2.226 12.66-9.03 12.66-16.934-0.004-7.902-5.092-14.708-12.664-16.932z m-63.574 50.162c-6.658-11.922-16.224-24-29.934-33.23 13.708-9.23 23.274-21.308 29.934-33.23 6.66 11.92 16.226 23.998 29.934 33.23-13.708 9.232-23.276 21.31-29.934 33.23zM620.786 179.228V128.832c0-23.066-18.45-41.864-41.364-42.512v-18.896C579.424 30.246 549.176 0 512 0s-67.422 30.246-67.422 67.422v19.276c-20.74 2.838-36.786 20.626-36.786 42.134V178.16c-102.884 25.658-193.728 88.87-253.922 179.692l-1.318 2.004a14.954 14.954 0 0 0 4.276 20.706 14.952 14.952 0 0 0 20.706-4.278l1.288-1.958c74.308-112.118 198.86-179.054 333.18-179.054 220.238 0 399.416 179.178 399.416 399.416 0 8.35-0.288 16.634-0.796 24.858-96.568 10.74-193.896 17.632-259.686 21.566-6.828 0.41-13.664 0.776-20.504 1.124v-1.118c0-18.786-15.284-34.068-34.068-34.068h-168.722c-18.786 0-34.068 15.284-34.068 34.068v1.118c-6.842-0.348-13.678-0.716-20.506-1.124-65.788-3.934-163.114-10.824-259.684-21.566a403.026 403.026 0 0 1-0.796-24.858c0-55.804 11.282-109.788 33.53-160.448a14.952 14.952 0 0 0-27.376-12.022c-23.924 54.472-36.054 112.5-36.054 172.47 0 114.674 44.656 222.484 125.744 303.572C289.516 979.344 397.326 1024 512 1024s222.484-44.656 303.572-125.744c81.086-81.086 125.744-188.896 125.744-303.572 0-114.674-44.656-222.484-125.744-303.57-54.774-54.772-121.748-92.892-194.786-111.886z m-146.31-111.806c0-20.69 16.834-37.524 37.524-37.524s37.524 16.834 37.524 37.524v18.834h-75.048z m116.412 105.17A434.04 434.04 0 0 0 512 165.372a431.18 431.18 0 0 0-74.31 6.486V128.832a12.69 12.69 0 0 1 12.676-12.674h127.848a12.69 12.69 0 0 1 12.676 12.674v43.76z m-167.418 468.524c0-2.298 1.87-4.17 4.17-4.17h168.722c2.298 0 4.17 1.87 4.17 4.17v113.4a4.176 4.176 0 0 1-4.17 4.17H427.64a4.176 4.176 0 0 1-4.17-4.17z m-306.188 14.838c-0.078-0.502-0.15-1.004-0.224-1.506-0.224-1.49-0.422-2.988-0.63-4.484 95.094 10.41 190.154 17.124 254.85 20.994 7.422 0.444 14.856 0.838 22.292 1.21v63.29c-8.714-0.426-17.416-0.88-26.086-1.398-58.598-3.508-146.326-9.604-236.33-18.938a396.072 396.072 0 0 1-13.872-59.168z m789.664-1.524c-2.996 20.54-7.828 40.894-14.1 60.688-37.016 3.84-76.454 7.426-117.392 10.68a14.952 14.952 0 0 0-13.72 16.086c0.654 8.232 7.876 14.376 16.086 13.72a5039.92 5039.92 0 0 0 103.664-9.278C821.652 891.578 678.584 994.102 512 994.102c-166.582 0-309.648-102.522-369.482-247.772 85.406 8.562 167.42 14.236 223.18 17.574 9.872 0.59 19.786 1.096 29.712 1.564 4.574 13.422 17.278 23.118 32.23 23.118h168.722c14.952 0 27.658-9.698 32.23-23.122 9.92-0.466 19.826-0.97 29.69-1.56 16.9-1.012 33.878-2.096 50.458-3.22 8.236-0.558 14.462-7.69 13.904-15.928s-7.674-14.476-15.928-13.904c-16.502 1.12-33.398 2.198-50.222 3.206-8.662 0.518-17.358 0.972-26.066 1.392v-63.282c7.438-0.37 14.87-0.766 22.29-1.212 64.7-3.87 159.76-10.582 254.852-20.992-0.206 1.496-0.406 2.982-0.624 4.466z" p-id="9145"></path><path d="M464.608 712.766h94.784a14.95 14.95 0 0 0 0-29.9h-94.784a14.95 14.95 0 0 0 0 29.9zM512 389.752c33.312 0 60.414-27.102 60.414-60.414S545.312 268.924 512 268.924s-60.414 27.1-60.414 60.414c0 33.312 27.102 60.414 60.414 60.414z m0-90.928c16.826 0 30.516 13.688 30.516 30.514s-13.69 30.516-30.516 30.516-30.514-13.69-30.514-30.516 13.688-30.514 30.514-30.514zM512 538.384c33.312 0 60.414-27.102 60.414-60.414S545.312 417.556 512 417.556s-60.414 27.102-60.414 60.414 27.102 60.414 60.414 60.414z m0-90.928c16.826 0 30.516 13.688 30.516 30.514s-13.69 30.514-30.516 30.514-30.514-13.688-30.514-30.514 13.688-30.514 30.514-30.514z" p-id="9146"></path></svg>