<?xml version="1.0" standalone="no"?><!DOCTYPE svg PUBLIC "-//W3C//DTD SVG 1.1//EN" "http://www.w3.org/Graphics/SVG/1.1/DTD/svg11.dtd"><svg t="1649679197882" class="icon" viewBox="0 0 1024 1024" version="1.1" xmlns="http://www.w3.org/2000/svg" p-id="7618" xmlns:xlink="http://www.w3.org/1999/xlink" width="200" height="200"><defs><style type="text/css">@font-face { font-family: "feedback-iconfont"; src: url("//at.alicdn.com/t/font_1031158_u69w8yhxdu.woff2?t=1630033759944") format("woff2"), url("//at.alicdn.com/t/font_1031158_u69w8yhxdu.woff?t=1630033759944") format("woff"), url("//at.alicdn.com/t/font_1031158_u69w8yhxdu.ttf?t=1630033759944") format("truetype"); }
</style></defs><path d="M594.197308 249.008814H335.930909v316.089801c0 18.585165-11.379489 35.276415-28.680711 42.06611l-70.994811 24.4949c-78.214486 26.986788-130.698129 100.61548-130.698129 183.353763 0 107.121188 86.840099 193.961287 193.961287 193.961287h241.437154c171.460298 0 310.454054-138.995756 310.454054-310.454054V249.008814z" fill="#EE6161" p-id="7619"></path><path d="M851.407753 249.000814v449.515807c0 171.472297-138.985756 310.458054-310.460053 310.458054h-44.046022c171.452298 0 310.458054-138.985756 310.458054-310.458054V249.000814z" fill="#E94444" p-id="7620"></path><path d="M850.223806 725.655402c-10.541526 121.856526-91.49389 223.587956-201.966927 264.274129-14.515348-46.479912-15.425307-97.319628 1.78592-143.109572 31.928566-84.890187 116.450769-122.562494 200.181007-121.164557z" fill="#F3F0F3" p-id="7621"></path><path d="M850.229806 725.647403c-0.165993 1.901915-0.351984 3.805829-0.537976 5.687744-2.2219 20.453081-6.335715 40.792168-12.551436 60.463284-6.439711 20.377085-15.719294 41.746125-26.324817 60.303291-18.68916 32.702531-44.050021 63.061167-73.062718 86.524113-26.062829 21.077053-57.467418 40.606176-89.315988 51.243698l-0.181992 0.059998a239.997219 239.997219 0 0 1-4.797784-17.661207c89.189993-47.831851 152.283159-137.993801 162.456702-243.623056a262.170223 262.170223 0 0 1 44.316009-2.997865z" fill="#E2DEE2" p-id="7622"></path><path d="M316.283792 1008.976675h-16.773247c-53.569594 0-102.051416-21.707025-137.147839-56.819448-35.094423-35.094423-56.801448-83.596245-56.801448-137.147839 0-82.736283 52.473643-156.362976 130.698129-183.357763l55.151522-19.029145c35.886388 53.805583 56.381467 118.690668 60.843267 183.609752 5.33976 77.600514-16.569256 158.418884-35.970384 212.744443zM918.444742 243.549059c0 27.732754-22.207002 50.627726-49.939757 50.869715l-0.603973 0.002c-20.123096 0-38.176285-8.843603-50.52173-22.850973a5.709744 5.709744 0 0 0-8.591614 0c-12.345445 14.007371-30.400634 22.850973-50.521731 22.850973-20.139095 0-38.196284-8.843603-50.541729-22.850973a5.709744 5.709744 0 0 0-8.591614 0c-12.345445 14.007371-30.400634 22.850973-50.523731 22.850973-20.139095 0-38.196284-8.843603-50.541729-22.850973a5.709744 5.709744 0 0 0-8.591614 0c-12.345445 14.007371-30.402634 22.850973-50.54173 22.850973-20.123096 0-38.176285-8.843603-50.52173-22.850973a5.709744 5.709744 0 0 0-8.591614 0c-12.345445 14.007371-30.402634 22.850973-50.54173 22.850973-20.123096 0-38.176285-8.843603-50.52173-22.850973a5.709744 5.709744 0 0 0-8.591615 0c-12.345445 14.007371-30.400634 22.850973-50.52173 22.850973l-0.603973-0.002c-27.732754-0.243989-49.939757-23.136961-49.939756-50.869715V65.865041c0-27.732754 22.207002-50.627726 49.939756-50.869715l0.603973-0.002c20.123096 0 38.176285 8.843603 50.52173 22.850974a5.709744 5.709744 0 0 0 8.591615 0c12.345445-14.007371 30.400634-22.850973 50.52173-22.850974 20.139095 0 38.196284 8.843603 50.54173 22.850974a5.709744 5.709744 0 0 0 8.591614 0c12.345445-14.007371 30.400634-22.850973 50.52173-22.850974 20.139095 0 38.196284 8.843603 50.54173 22.850974a5.709744 5.709744 0 0 0 8.591614 0c12.345445-14.007371 30.402634-22.850973 50.541729-22.850974 20.123096 0 38.176285 8.843603 50.523731 22.850974a5.709744 5.709744 0 0 0 8.591614 0c12.345445-14.007371 30.402634-22.850973 50.541729-22.850974 20.123096 0 38.176285 8.843603 50.521731 22.850974a5.709744 5.709744 0 0 0 8.591614 0c12.345445-14.007371 30.400634-22.850973 50.52173-22.850974l0.603973 0.002c27.732754 0.243989 49.939757 23.136961 49.939757 50.869715z" fill="#F3F0F3" p-id="7623"></path><path d="M918.450741 65.865041v177.678019c0 27.730754-22.209002 50.643725-49.939756 50.871714-0.205991 0-0.413981 0.019999-0.599973 0.019999-8.209631 0-16.067278-1.467934-23.326952-4.155813 17.949194-7.857647 30.440633-25.930835 30.440632-46.7359V65.865041c0-20.803065-12.489439-38.876254-30.440632-46.713901a67.036989 67.036989 0 0 1 23.326952-4.155814h0.599973c27.730754 0.245989 49.939757 23.138961 49.939756 50.869715z" fill="#E2DEE2" p-id="7624"></path><path d="M868.504985 0.002L867.901012 0a82.346301 82.346301 0 0 0-54.817537 20.93506A82.3563 82.3563 0 0 0 758.263937 0a82.378299 82.378299 0 0 0-54.837536 20.93506A82.344301 82.344301 0 0 0 648.606863 0a82.3623 82.3623 0 0 0-54.835536 20.93506A82.384299 82.384299 0 0 0 538.93179 0a82.352301 82.352301 0 0 0-54.819537 20.93506A82.3663 82.3663 0 0 0 429.276716 0a82.344301 82.344301 0 0 0-54.819537 20.93506A82.346301 82.346301 0 0 0 319.639641 0l-0.735967 0.002c-35.728395 0.313986-64.797089 29.860659-64.797089 65.863041v177.686018c0 36.002383 29.068694 65.547056 64.78309 65.861042l0.749966 0.002c0.433981 0 0.865961-0.023999 1.299942-0.029999v255.714513c0 12.415442-7.409667 23.37695-18.903151 28.006742l-70.672825 24.384904c-84.216217 29.056695-140.799675 108.437129-140.799675 197.527127 0 114.326864 92.297854 207.486679 206.292733 208.918615l-0.002 0.004c0.88596 0.011999 19.427127 0.031999 19.427127 0.031998l0.023999-0.002H540.951699c179.451939 0 325.44738-145.995442 325.447381-325.44738V466.687036a14.991327 14.991327 0 1 0-29.982653 0v231.833585c0 4.117815-0.107995 8.209631-0.273988 12.285448-41.158151 1.351939-79.828414 11.621478-112.736936 29.984653-40.982159 22.860973-71.200802 57.703408-87.396074 100.757474-15.953283 42.442093-17.947194 91.181904-5.983731 138.705769a294.420774 294.420774 0 0 1-89.071999 13.731383h-203.710849c6.097726-18.679161 11.367489-37.264326 15.715294-55.471508a14.989327 14.989327 0 0 0-11.101501-18.061188 14.989327 14.989327 0 0 0-18.061188 11.101501c-4.879781 20.437082-10.973507 41.392141-18.155185 62.431195h-6.123725l-0.177992-0.002c-0.139994-0.004-0.279987-0.01-0.421981-0.009999l0.002 0.004c-98.409579-0.323985-178.371987-80.478385-178.371987-178.963961 0-76.306572 48.463823-144.295518 120.596582-169.1824l44.012023-15.185318c29.60867 48.139837 48.033842 106.835201 52.143658 166.616515 1.439935 20.957059 0.867961 43.590042-1.697924 67.272978a14.989327 14.989327 0 0 0 13.287403 16.519258 14.959328 14.959328 0 0 0 16.519258-13.287403c2.757876-25.434857 3.365849-49.847761 1.803919-72.56274-4.279808-62.261203-23.078963-123.498452-53.229609-174.634155 22.47499-9.399578 36.940341-31.006607 36.940341-55.473508V303.20038a82.476295 82.476295 0 0 0 23.536943-14.721339 82.3563 82.3563 0 0 0 54.819537 20.93506 82.3703 82.3703 0 0 0 54.837537-20.93506 82.3623 82.3623 0 0 0 54.819537 20.93506 82.386299 82.386299 0 0 0 54.837537-20.93506 82.384299 82.384299 0 0 0 54.835536 20.93506 82.344301 82.344301 0 0 0 54.819538-20.93506 82.392299 82.392299 0 0 0 54.837536 20.93506 82.3563 82.3563 0 0 0 54.817538-20.93306 82.480295 82.480295 0 0 0 23.334952 14.637342v94.16977a14.991327 14.991327 0 1 0 29.982653 0v-87.908051c0.499978 0.01 0.999955 0.033998 1.501932 0.033999l0.737967-0.002c35.728395-0.313986 64.797089-29.858659 64.797089-65.861042V65.865041C933.436068 29.862659 904.367374 0.315986 868.504985 0.002zM664.072169 852.099722c29.086693-77.326526 103.641344-107.75116 169.286395-111.159006-0.033998 0.22799-0.061997 0.457979-0.095996 0.687969a293.786803 293.786803 0 0 1-29.042695 90.82592c-5.107771 9.999551-10.781516 19.709115-16.985237 29.066694a296.554678 296.554678 0 0 1-74.004676 76.896546 302.016433 302.016433 0 0 1-39.852209 24.172914c-1.293942 0.651971-15.195317 6.829693-15.133321 7.087681-9.587569-40.580177-7.623658-81.792326 5.827739-117.578718z m239.381246-608.548663c0 19.613119-15.737293 35.708396-35.094423 35.878389l-0.45798 0.001999a52.387647 52.387647 0 0 1-39.276235-17.771201 20.733069 20.733069 0 0 0-15.543302-7.027685c-5.939733 0-11.603479 2.561885-15.539302 7.025685a52.397646 52.397646 0 0 1-39.278236 17.773201 52.407646 52.407646 0 0 1-39.298234-17.777201 20.739068 20.739068 0 0 0-15.543302-7.023684 20.729069 20.729069 0 0 0-15.539302 7.027684 52.389647 52.389647 0 0 1-39.276236 17.773201 52.397646 52.397646 0 0 1-39.296234-17.775201 20.735069 20.735069 0 0 0-15.539302-7.023685h-0.006a20.719069 20.719069 0 0 0-15.535302 7.025685 52.417645 52.417645 0 0 1-39.296235 17.773201 52.389647 52.389647 0 0 1-39.276236-17.773201 20.735069 20.735069 0 0 0-15.539301-7.027684h-0.002c-5.939733 0-11.603479 2.561885-15.545302 7.027684a52.407646 52.407646 0 0 1-39.292235 17.773201 52.381647 52.381647 0 0 1-39.276236-17.771201c-3.937823-4.465799-9.601569-7.027684-15.543301-7.027685s-11.605479 2.561885-15.541302 7.025685a52.397646 52.397646 0 0 1-39.278236 17.773201l-0.469979-0.001999c-19.343131-0.169992-35.080424-16.265269-35.080424-35.878389V65.865041c0-19.615119 15.737293-35.710396 34.94843-35.880388l0.603973-0.002a52.389647 52.389647 0 0 1 39.276236 17.773202c3.937823 4.465799 9.601569 7.027684 15.543302 7.027684s11.605479-2.561885 15.543301-7.027684a52.389647 52.389647 0 0 1 39.276236-17.773202c15.019325 0 29.340682 6.477709 39.292235 17.773202 3.937823 4.465799 9.601569 7.027684 15.543302 7.027684s11.605479-2.561885 15.541301-7.027684a52.403646 52.403646 0 0 1 39.278236-17.773202c15.019325 0 29.340682 6.477709 39.294235 17.773202a20.731069 20.731069 0 0 0 15.537302 7.027684h0.006c5.937733 0 11.603479-2.559885 15.543301-7.027684a52.407646 52.407646 0 0 1 39.292235-17.773202 52.383647 52.383647 0 0 1 39.276236 17.773202c3.937823 4.465799 9.601569 7.027684 15.543302 7.027684s11.605479-2.561885 15.541302-7.027684a52.423645 52.423645 0 0 1 39.296234-17.773202 52.389647 52.389647 0 0 1 39.276236 17.773202 20.733069 20.733069 0 0 0 15.541302 7.027684c5.941733 0 11.605479-2.561885 15.541302-7.027684a52.403646 52.403646 0 0 1 39.278235-17.773202l0.471979 0.002c19.343131 0.169992 35.080424 16.265269 35.080424 35.880388v177.686018z" p-id="7625"></path></svg>