<?xml version="1.0" standalone="no"?><!DOCTYPE svg PUBLIC "-//W3C//DTD SVG 1.1//EN" "http://www.w3.org/Graphics/SVG/1.1/DTD/svg11.dtd"><svg t="1649679160565" class="icon" viewBox="0 0 1024 1024" version="1.1" xmlns="http://www.w3.org/2000/svg" p-id="6224" xmlns:xlink="http://www.w3.org/1999/xlink" width="200" height="200"><defs><style type="text/css">@font-face { font-family: "feedback-iconfont"; src: url("//at.alicdn.com/t/font_1031158_u69w8yhxdu.woff2?t=1630033759944") format("woff2"), url("//at.alicdn.com/t/font_1031158_u69w8yhxdu.woff?t=1630033759944") format("woff"), url("//at.alicdn.com/t/font_1031158_u69w8yhxdu.ttf?t=1630033759944") format("truetype"); }
</style></defs><path d="M1009.052 563.058c0 13.962-15.598 24.722-20.632 36.862-5.218 12.586-1.994 31.176-11.478 40.662-9.484 9.484-28.076 6.26-40.66 11.478-12.14 5.034-22.9 20.632-36.862 20.632s-24.722-15.598-36.862-20.632c-12.586-5.218-31.176-1.994-40.662-11.478-9.484-9.484-6.26-28.076-11.478-40.66-5.034-12.14-20.632-22.9-20.632-36.862s15.598-24.722 20.632-36.862c5.218-12.586 1.994-31.176 11.478-40.662 9.484-9.484 28.076-6.26 40.66-11.478 12.14-5.034 22.9-20.632 36.862-20.632s24.722 15.598 36.862 20.632c12.586 5.218 31.176 1.994 40.662 11.478 9.484 9.484 6.26 28.076 11.478 40.66 5.034 12.14 20.632 22.9 20.632 36.862z" fill="#F3F0F3" p-id="6225"></path><path d="M1009.052 563.058c0 13.952-15.606 24.716-20.628 36.854-5.222 12.596-1.994 31.192-11.48 40.66-9.488 9.488-28.084 6.278-40.66 11.48-12.138 5.042-22.902 20.648-36.874 20.648-13.514 0-24.018-14.63-35.698-20.13 9.866-4.404 18.456-14.67 27.864-18.556 12.596-5.222 31.174-1.994 40.66-11.48 9.488-9.488 6.258-28.084 11.48-40.66 5.042-12.138 20.628-22.902 20.628-36.874 0-13.952-15.586-24.716-20.628-36.854-4.166-10.066-2.95-23.958-7.156-33.964 12.576 5.042 30.954 1.934 40.382 11.36 9.488 9.468 6.258 28.064 11.48 40.66 5.024 12.14 20.63 22.904 20.63 36.856z" fill="#E2DEE2" p-id="6226"></path><path d="M88.85 329.066c-0.56-0.076 12.094-20.916 25.08-42.042 49.72-80.89 127.998-140.81 219.748-165.242 2.418-0.644 4.842-1.266 7.284-1.866 154.246-37.976 334.172-8.178 447.68 109.4 57.026 59.072 102.938 143.432 103.44 227.15l0.45 76.47c0.108 18.274-16.024 32.3-34.134 29.842-76.098-10.328-151.078-41.016-205.02-96.146-14.866-15.194-28.194-34.206-50.306-38.878-37.32-7.886-74.99-14.392-112.452-21.582l-335.35-64.36-66.42-12.746z" fill="#EE6161" p-id="6227"></path><path d="M892.532 532.942c0.1 18.278-16.024 32.29-34.142 29.838a406.66 406.66 0 0 1-22.962-3.768c8.95-5.162 15.048-14.81 14.988-26.07l-0.458-76.478c-0.498-83.712-46.42-168.082-103.444-227.14-77.952-80.782-187.276-120.128-298.056-124.532 124.71-4.904 252.332 33.524 340.19 124.532 57.024 59.058 102.926 143.428 103.424 227.14z" fill="#E94444" p-id="6228"></path><path d="M63.524 726.326V455.544c0-183.964 149.132-333.098 333.098-333.098 183.964 0 333.098 149.132 333.098 333.098v270.782z" fill="#EE6161" p-id="6229"></path><path d="M729.712 455.548v270.77h-39.862V455.548c0-91.984-37.292-175.258-97.564-235.53-55.888-55.908-131.548-92.024-215.6-96.966 6.598-0.398 13.234-0.598 19.932-0.598 91.984 0 175.258 37.272 235.53 97.564 60.272 60.272 97.564 143.546 97.564 235.53z" fill="#E94444" p-id="6230"></path><path d="M778.296 859.892c0 32.602-26.106 59.516-58.706 59.802l-0.71 0.004c-23.656 0-44.88-10.398-59.392-26.864a6.712 6.712 0 0 0-10.1 0c-14.512 16.466-35.738 26.864-59.392 26.864-23.676 0-44.902-10.398-59.414-26.864a6.712 6.712 0 0 0-10.1 0c-14.514 16.466-35.738 26.864-59.392 26.864-23.676 0-44.902-10.398-59.416-26.864a6.712 6.712 0 0 0-10.1 0c-14.512 16.466-35.74 26.864-59.416 26.864-23.656 0-44.88-10.398-59.392-26.864a6.712 6.712 0 0 0-10.1 0c-14.512 16.466-35.74 26.864-59.414 26.864-23.656 0-44.88-10.398-59.392-26.864a6.712 6.712 0 0 0-10.1 0c-14.512 16.466-35.738 26.864-59.392 26.864l-0.71-0.004c-32.6-0.286-58.706-27.2-58.706-59.802v-155.022c0-32.602 26.106-59.516 58.706-59.802l0.71-0.004c23.656 0 44.88 10.398 59.392 26.864a6.712 6.712 0 0 0 10.1 0c14.512-16.466 35.738-26.864 59.392-26.864 23.676 0 44.902 10.398 59.414 26.864a6.712 6.712 0 0 0 10.1 0c14.514-16.466 35.738-26.864 59.392-26.864 23.676 0 44.902 10.398 59.416 26.864a6.712 6.712 0 0 0 10.1 0c14.512-16.466 35.74-26.864 59.416-26.864 23.656 0 44.88 10.398 59.392 26.864a6.712 6.712 0 0 0 10.1 0c14.512-16.466 35.74-26.864 59.414-26.864 23.656 0 44.88 10.398 59.392 26.864a6.712 6.712 0 0 0 10.1 0c14.512-16.466 35.738-26.864 59.392-26.864l0.71 0.004c32.6 0.286 58.706 27.2 58.706 59.802z" fill="#F3F0F3" p-id="6231"></path><path d="M778.304 704.87v155.028c0 32.588-26.11 59.516-58.718 59.794h-0.698c-7.414 0-14.57-1.016-21.366-2.93 23.798-7.814 40.918-30.476 40.918-56.864v-155.028c0-26.41-17.12-49.072-40.938-56.884a78.794 78.794 0 0 1 21.386-2.93c0.218 0 0.458 0 0.698 0.02 32.608 0.28 58.718 27.186 58.718 59.794z" fill="#E2DEE2" p-id="6232"></path><path d="M1009.344 530.82c-2.922-3.694-5.94-7.516-7.116-10.35-1.304-3.144-1.926-8.196-2.53-13.08-1.27-10.288-2.85-23.09-12.184-32.426-9.338-9.336-22.14-10.916-32.428-12.186-4.884-0.602-9.934-1.226-13.078-2.53-2.834-1.176-6.654-4.196-10.35-7.114-6.816-5.388-15.012-11.85-25.358-13.952-3.468-46.564-19.71-95.42-47.524-142.382a14.952 14.952 0 0 0-25.724 15.236c28.562 48.22 43.804 98.194 44.084 144.428l0.45 76.56a14.734 14.734 0 0 1-5.076 11.31c-3.354 2.946-7.66 4.232-12.096 3.63-41.868-5.684-81.072-17.484-115.74-34.484v-57.936c0-160.412-109.092-295.798-256.974-335.932 30.18 1.084 60.068 4.814 89.148 11.264 79.906 17.722 149.428 55.354 201.046 108.822a390.03 390.03 0 0 1 16.222 17.888 14.95 14.95 0 0 0 22.758-19.388 420.196 420.196 0 0 0-17.47-19.266c-55.708-57.704-130.426-98.248-216.082-117.246-79.45-17.622-164.494-16.338-245.924 3.712-2.534 0.624-5.05 1.268-7.558 1.936a377.858 377.858 0 0 0-99.554 42.556c-108.166 59.102-181.704 173.948-181.704 305.652v179.194C20.278 645.306 0 672.832 0 704.87v75.988a14.948 14.948 0 1 0 29.896 0v-75.988c0-24.52 19.688-44.642 43.88-44.854l0.586-0.002a64.262 64.262 0 0 1 48.18 21.8 21.69 21.69 0 0 0 16.264 7.354c6.214 0 12.144-2.68 16.264-7.354a64.254 64.254 0 0 1 48.176-21.8 64.288 64.288 0 0 1 48.202 21.8 21.69 21.69 0 0 0 16.268 7.354 21.68 21.68 0 0 0 16.258-7.354 64.27 64.27 0 0 1 48.18-21.8 64.29 64.29 0 0 1 48.202 21.8c4.118 4.674 10.048 7.354 16.264 7.354s12.144-2.68 16.264-7.354a64.28 64.28 0 0 1 48.2-21.8 64.262 64.262 0 0 1 48.18 21.8 21.688 21.688 0 0 0 16.262 7.354c6.216 0 12.146-2.68 16.266-7.354a64.28 64.28 0 0 1 48.2-21.8 64.26 64.26 0 0 1 48.178 21.8 21.688 21.688 0 0 0 16.262 7.354c6.216 0 12.146-2.68 16.264-7.354a64.27 64.27 0 0 1 48.18-21.8l0.578 0.002c24.2 0.214 43.89 20.334 43.89 44.854v155.022c0 24.52-19.69 44.64-43.882 44.854l-0.586 0.002a64.27 64.27 0 0 1-48.18-21.8c-4.118-4.674-10.048-7.354-16.264-7.354s-12.144 2.68-16.264 7.354a64.254 64.254 0 0 1-48.176 21.8 64.29 64.29 0 0 1-48.202-21.8c-4.118-4.674-10.048-7.354-16.264-7.354s-12.144 2.68-16.264 7.354a64.256 64.256 0 0 1-48.178 21.8 64.288 64.288 0 0 1-48.202-21.8 21.688 21.688 0 0 0-16.262-7.354c-6.216 0-12.146 2.68-16.266 7.354a64.28 64.28 0 0 1-48.2 21.8 64.264 64.264 0 0 1-48.176-21.796 21.696 21.696 0 0 0-16.262-7.358h-0.004c-6.218 0-12.146 2.68-16.266 7.354a64.28 64.28 0 0 1-48.2 21.8 64.26 64.26 0 0 1-48.178-21.8 21.688 21.688 0 0 0-16.262-7.354c-6.216 0-12.146 2.68-16.266 7.354a64.256 64.256 0 0 1-48.178 21.8l-0.578-0.002c-24.2-0.214-43.888-20.334-43.888-44.854v-10.44a14.948 14.948 0 1 0-29.896 0v10.44c0 40.862 32.982 74.394 73.532 74.748l0.832 0.004a94.144 94.144 0 0 0 64.444-25.562 94.138 94.138 0 0 0 64.44 25.562c24.04 0 47.08-9.222 64.466-25.564a94.14 94.14 0 0 0 64.442 25.564c24.04 0 47.08-9.222 64.466-25.562a94.17 94.17 0 0 0 64.464 25.562 94.144 94.144 0 0 0 64.444-25.562 94.17 94.17 0 0 0 64.464 25.562 94.134 94.134 0 0 0 64.442-25.562 94.146 94.146 0 0 0 64.442 25.562l0.838-0.004c40.542-0.354 73.526-33.888 73.526-74.748v-155.022c0-32.036-20.278-59.562-48.578-70.13v-88.286a387.966 387.966 0 0 0 30.518 11.962 34.076 34.076 0 0 0-0.352 4.642c0 13.692 8.126 23.976 14.656 32.238 2.92 3.694 5.94 7.516 7.116 10.35 1.302 3.144 1.926 8.196 2.53 13.08 1.27 10.288 2.85 23.09 12.186 32.428 9.334 9.334 22.136 10.916 32.424 12.186 4.886 0.602 9.936 1.226 13.08 2.53 2.836 1.176 6.656 4.194 10.352 7.116 8.264 6.53 18.548 14.658 32.238 14.658 13.694 0 23.976-8.128 32.238-14.658 3.694-2.92 7.516-5.94 10.35-7.114 3.144-1.304 8.194-1.928 13.078-2.53 10.288-1.27 23.09-2.85 32.426-12.186s10.918-22.14 12.186-32.426c0.604-4.884 1.226-9.936 2.53-13.078 1.176-2.836 4.194-6.656 7.114-10.352 6.532-8.262 14.658-18.546 14.658-32.238 0.008-13.698-8.118-23.98-14.648-32.242z m-294.572 99.394a94.166 94.166 0 0 0-60.334 25.464 94.152 94.152 0 0 0-64.442-25.562 94.166 94.166 0 0 0-64.464 25.562 94.144 94.144 0 0 0-64.444-25.562 94.174 94.174 0 0 0-64.466 25.562 94.18 94.18 0 0 0-64.464-25.562 94.14 94.14 0 0 0-64.442 25.564 94.168 94.168 0 0 0-64.466-25.564 94.14 94.14 0 0 0-64.442 25.562 94.156 94.156 0 0 0-60.334-25.464v-174.67c0-175.428 142.722-318.148 318.15-318.148s318.148 142.72 318.148 318.148z m271.114-53.456c-3.99 5.048-8.512 10.77-11.276 17.436-2.862 6.898-3.778 14.32-4.586 20.868-0.708 5.74-1.59 12.884-3.656 14.948-2.064 2.064-9.206 2.946-14.948 3.654-6.546 0.808-13.968 1.724-20.868 4.586-6.666 2.764-12.388 7.286-17.434 11.276-4.874 3.852-10.398 8.216-13.7 8.216s-8.828-4.364-13.7-8.216c-5.048-3.99-10.772-8.512-17.438-11.278-6.9-2.86-14.322-3.776-20.87-4.584-5.74-0.708-12.884-1.59-14.946-3.654-2.064-2.066-2.946-9.208-3.656-14.948-0.808-6.548-1.724-13.968-4.586-20.868-2.764-6.668-7.286-12.39-11.276-17.438-2.332-2.952-4.842-6.138-6.468-8.928a433.284 433.284 0 0 0 49.908 9.762 45.072 45.072 0 0 0 35.852-10.796 44.808 44.808 0 0 0 15.238-33.944l-0.358-60.82c1.982 1.396 4.04 3.014 5.996 4.56 5.048 3.99 10.768 8.512 17.434 11.276 6.9 2.86 14.322 3.776 20.868 4.584 5.742 0.708 12.886 1.59 14.948 3.654 2.064 2.064 2.946 9.208 3.656 14.948 0.808 6.548 1.724 13.968 4.586 20.87 2.764 6.666 7.286 12.386 11.276 17.434 3.85 4.874 8.216 10.396 8.216 13.7 0.004 3.306-4.362 8.83-8.212 13.702z" p-id="6233"></path></svg>