<?xml version="1.0" standalone="no"?><!DOCTYPE svg PUBLIC "-//W3C//DTD SVG 1.1//EN" "http://www.w3.org/Graphics/SVG/1.1/DTD/svg11.dtd"><svg t="1649679184246" class="icon" viewBox="0 0 1024 1024" version="1.1" xmlns="http://www.w3.org/2000/svg" p-id="7146" xmlns:xlink="http://www.w3.org/1999/xlink" width="200" height="200"><defs><style type="text/css">@font-face { font-family: "feedback-iconfont"; src: url("//at.alicdn.com/t/font_1031158_u69w8yhxdu.woff2?t=1630033759944") format("woff2"), url("//at.alicdn.com/t/font_1031158_u69w8yhxdu.woff?t=1630033759944") format("woff"), url("//at.alicdn.com/t/font_1031158_u69w8yhxdu.ttf?t=1630033759944") format("truetype"); }
</style></defs><path d="M777.791049 475.955181s82.819501 67.752502 109.064273 217.556658l-83.741317 34.6351L712.857985 475.955181z" fill="#EE6161" p-id="7147"></path><path d="M886.86332 693.519838l-36.380752 15.045003c-23.675283-135.197066-99.016274-217.768616-113.519385-232.613659h40.835865s82.811502 67.748503 109.064272 217.568656z" fill="#E94444" p-id="7148"></path><path d="M246.208951 475.955181s-82.819501 67.752502-109.064273 217.556658l83.741317 34.6351 90.25602-252.191758z" fill="#EE6161" p-id="7149"></path><path d="M311.132017 475.951182l-86.548758 241.863816-3.695264 10.329942-41.475737-17.142585c0.319936-1.817638 0.659869-3.635276 1.019797-5.454913 22.915435-116.976696 89.306209-229.59626 89.306208-229.59626z" fill="#E94444" p-id="7150"></path><path d="M137.144678 693.513839s-3.619279 22.027612-3.781246 23.727273c-3.505302 36.59471 12.389532 67.592534 50.761887 74.075243 32.301565 5.456913 55.952853-15.416929 67.628527-44.183198l10.055997-18.984218-124.665165-34.6351z" fill="#FFCEBF" p-id="7151"></path><path d="M261.803844 728.14494l-10.049998 18.980219c-11.687672 28.770268-35.322963 49.648109-67.628527 44.193196-3.975208-0.679865-7.692468-1.597682-11.187771-2.797443-0.919817-25.172985 1.637674-51.425755 6.47271-77.518557 0.319936-1.817638 0.659869-3.635276 1.019797-5.454913 14.385134 3.995204 30.26797 8.390328 44.153204 12.267556a103528.295222 103528.295222 0 0 0 37.220585 10.329942z" fill="#FFB09E" p-id="7152"></path><path d="M886.855322 693.513839s3.619279 22.027612 3.781246 23.727273c3.505302 36.59471-12.389532 67.592534-50.761887 74.075243-32.301565 5.456913-55.952853-15.416929-67.628527-44.183198l-10.055997-18.984218 124.665165-34.6351z" fill="#FFCEBF" p-id="7153"></path><path d="M839.872682 791.316355c-3.395324 0.559888-6.712663 0.839833-9.910026 0.859829 19.140187-13.405329 26.850651-37.040621 24.315156-63.653319-0.139972-1.297741-3.197363-17.162581-4.635077-24.673085 20.857845-5.792846 37.200589-10.329942 37.220585-10.329942 0 0 3.61528 22.017614 3.775248 23.715275 3.497303 36.600708-12.387532 67.588535-50.765886 74.081242z" fill="#FFB09E" p-id="7154"></path><path d="M712.857985 475.955181H311.140015s-218.20053 370.09627 0 465.333297c0 0 8.498307 3.737255 23.969225 9.128181a537.788862 537.788862 0 0 0 353.777521 0c15.470918-5.390926 23.969225-9.128181 23.969225-9.128181 218.20253-95.235027 0.002-465.333297 0.001999-465.333297z" fill="#EE6161" p-id="7155"></path><path d="M712.865984 941.298476s-5.034997 2.217558-14.425127 5.674869c170.979938-118.954302-27.510519-471.022164-27.510519-471.022163h41.935646s218.190532 370.108267 0 465.347294z" fill="#E94444" p-id="7156"></path><path d="M809.76468 771.658271c-49.528133 33.863254-151.43983 89.764117-285.199183 90.663938h-24.913037c-133.917321-0.899821-235.87101-56.800684-285.41714-90.663938 0.519896-23.535311 3.735256-47.748488 8.730261-71.703715 4.135176 3.575288 115.616967 98.756326 276.886839 99.814115h24.493121c162.067713-1.079785 272.551703-96.198835 276.686878-99.814115 4.995005 23.953228 8.212364 48.168404 8.732261 71.703715z" fill="#554E56" p-id="7157"></path><path d="M767.84903 797.411141c0.379924-22.675483-1.717658-46.090818-5.534897-69.466161 23.695279-15.023007 37.320565-26.750671 38.718286-27.990424 0.459908 2.197562 0.899821 4.395124 1.339733 6.604684 2.889424 14.397132 4.997005 27.082605 6.030799 41.825668 0.307939 4.391125 0.869827 8.766254 0.959809 13.173375 0.025995 1.277745 1.25375 9.516104 0.39792 10.099988-11.323744 7.752456-25.368946 16.622688-41.91165 25.75287z" fill="#433F43" p-id="7158"></path><path d="M383.731553 1009.014985h-134.199265c-12.939422 0-23.429332-10.48991-23.429332-23.429332 0-46.868663 37.994431-84.863094 84.863094-84.863094h11.329743c46.868663 0 84.863094 37.994431 84.863093 84.863094 0.002 12.939422-10.487911 23.429332-23.427333 23.429332zM774.465712 1009.014985h-134.199265c-12.939422 0-23.429332-10.48991-23.429333-23.429332 0-46.868663 37.994431-84.863094 84.863094-84.863094h11.329743c46.868663 0 84.863094 37.994431 84.863094 84.863094 0 12.939422-10.487911 23.429332-23.427333 23.429332z" fill="#554E56" p-id="7159"></path><path d="M407.170884 985.591652c0 6.472711-2.617479 12.307548-6.872631 16.5627a23.34335 23.34335 0 0 1-16.5627 6.852635h-39.95804c6.472711 0 12.327544-2.617479 16.5627-6.852635a23.313356 23.313356 0 0 0 6.872631-16.5627c0-41.995634-30.487926-76.858688-70.545946-83.671331a86.494769 86.494769 0 0 1 14.305151-1.197762h11.327743c46.870662-0.002 84.871092 37.99843 84.871092 84.869093zM797.897044 985.591652c0 6.472711-2.617479 12.307548-6.872631 16.5627a23.34335 23.34335 0 0 1-16.5627 6.852635h-39.95804c6.472711 0 12.327544-2.617479 16.5627-6.852635a23.313356 23.313356 0 0 0 6.872631-16.5627c0-41.995634-30.487926-76.858688-70.545946-83.671331a86.494769 86.494769 0 0 1 14.305151-1.197762h11.327743c46.870662-0.002 84.871092 37.99843 84.871092 84.869093z" fill="#433F43" p-id="7160"></path><path d="M297.606711 229.424294v76.430774c0 118.406411 95.986878 214.391289 214.391289 214.391289 118.406411 0 214.391289-95.986878 214.39129-214.391289v-76.430774z" fill="#FFCEBF" p-id="7161"></path><path d="M726.393289 229.432293v76.418776c0 59.198207-23.99522 112.799528-62.793491 151.599798-38.798271 38.798271-92.381596 62.79349-151.599798 62.793491-6.812643 0-13.565298-0.319936-20.217972-0.959809 51.125815-4.775049 97.036668-27.510519 131.36183-61.833682 38.798271-38.798271 62.79349-92.401592 62.79349-151.599798v-76.418776z" fill="#FFB09E" p-id="7162"></path><path d="M721.756213 229.424294H302.241788c-15.064999 0-27.278566-12.213567-27.278566-27.278565V179.426255c0-15.064999 12.213567-27.278566 27.278566-27.278566H721.756213c15.064999 0 27.278566 12.213567 27.278565 27.278566v22.719474c0 15.064999-12.211567 27.278566-27.278565 27.278565z" fill="#F3F0F3" p-id="7163"></path><path d="M749.028779 179.424255v22.715475c0 15.064999-12.207568 27.290563-27.270567 27.290563h-39.958039c15.064999 0 27.270567-12.227564 27.270567-27.290563V179.424255c0-15.064999-12.207568-27.270567-27.270567-27.270567h39.958039c15.062999 0 27.270567 12.207568 27.270567 27.270567z" fill="#E2DEE2" p-id="7164"></path><path d="M512.109978 17.202573S650.974314-3.875228 788.082999 84.675131c0 0-78.584345 27.086604-137.98651 21.175782z" fill="#EE6161" p-id="7165"></path><path d="M788.086998 84.685129s-20.097996 6.912623-47.648507 13.005409c-69.126229-37.000629-136.076891-48.38836-182.567629-51.105819L512.119976 17.196574s138.852338-21.077801 275.967022 67.488555z" fill="#E94444" p-id="7166"></path><path d="M803.367954 84.675131m-42.877458 0a42.877458 42.877458 0 1 0 85.754916 0 42.877458 42.877458 0 1 0-85.754916 0Z" fill="#F3F0F3" p-id="7167"></path><path d="M846.245412 84.685129c0 23.675283-19.200175 42.875458-42.875458 42.875459-17.002613 0-31.685688-9.910026-38.618307-24.255168 1.95761 0.279944 3.955212 0.419916 5.97281 0.419916 23.675283 0 42.875458-19.200175 42.875459-42.875458 0-6.672671-1.517698-13.005409-4.255153-18.640287 20.857845 2.897423 36.900649 20.817853 36.900649 42.475538z" fill="#E2DEE2" p-id="7168"></path><path d="M512 17.202573C364.861313 56.208802 306.908858 152.147689 306.908858 152.147689h410.182284c-0.002 0-57.954454-95.938887-205.091142-134.945116z" fill="#EE6161" p-id="7169"></path><path d="M717.083144 152.153688h-49.368165c-22.935431-27.690484-85.209025-89.964077-201.08794-120.212051A432.173903 432.173903 0 0 1 511.998 17.196574c147.146686 39.018227 205.085143 134.957114 205.085144 134.957114z" fill="#E94444" p-id="7170"></path><path d="M726.391289 327.312793s-45.180999 20.291957-111.377811 36.204787a440.692206 440.692206 0 0 1-206.026956 0c-66.196812-15.91083-111.377811-36.204787-111.377811-36.204787-54.551132 92.269618-45.832869 173.215492-39.936044 202.617635 1.279745 6.384728 7.764453 10.281952 13.993212 8.386329l38.864258-11.835642c0 21.153786 9.600087 46.720692 20.349945 68.72031 19.47812 39.862059 49.478143 73.83729 87.538561 96.640747 26.650691 15.966819 48.714295 24.933033 64.713108 29.958032a96.286818 96.286818 0 0 0 57.740497 0c15.996813-5.024999 38.062417-13.991213 64.713108-29.958032 38.058418-22.803457 68.058441-56.778689 87.538561-96.640747 10.749858-21.999617 20.349946-47.566524 20.349946-68.72031l38.864257 11.835642c6.230759 1.897622 12.713467-1.999602 13.993212-8.386329 5.892826-29.402143 14.613089-110.348017-39.940043-202.617635z" fill="#F3F0F3" p-id="7171"></path><path d="M710.388477 545.557315l0.859829 0.239952c-3.437315 16.36274-10.487911 33.785269-18.12039 49.408157-19.480119 39.85806-49.488141 73.841289-87.546559 96.636748-26.65269 15.96282-48.708296 24.933033-64.711108 29.948034a96.098855 96.098855 0 0 1-33.265373 4.335136c14.965019-5.354933 33.923242-13.785254 56.040835-27.030615 38.060418-22.815455 68.068439-56.780688 87.546559-96.656744 8.558295-17.512511 16.380737-37.292571 19.214172-55.296984 1.093782-6.954615 8.188369-11.261756 14.923028-9.210165zM766.329333 529.934427a11.035801 11.035801 0 0 1-14.00521 8.390329l-26.672686-8.13238c5.394925-32.925441 9.270153-105.568969-37.000629-188.320483 23.775264-8.290348 37.740481-14.565098 37.740481-14.565099 54.543134 92.283615 45.832869 173.217492 39.938044 202.627633z" fill="#E2DEE2" p-id="7172"></path><path d="M457.628832 389.526399a54.371168 41.369758 0 1 0 108.742336 0 54.371168 41.369758 0 1 0-108.742336 0Z" fill="#FFA78F" p-id="7173"></path><path d="M566.36117 389.5224c0 22.855447-24.335152 41.375757-54.36317 41.375757-16.882637 0-31.965632-5.852834-41.935645-15.025007 2.217558 0.239952 4.475108 0.339932 6.772651 0.339933 30.028018 0 54.383166-18.52031 54.383165-41.375758 0-10.010006-4.675069-19.180179-12.427524-26.332754 26.832654 2.519498 47.570523 19.940028 47.570523 41.017829z" fill="#F89580" p-id="7174"></path><path d="M436.097121 274.549305a14.985015 14.985015 0 0 0-14.985014 14.985014v21.979622a14.985015 14.985015 0 1 0 29.970029 0v-21.979622a14.985015 14.985015 0 0 0-14.985015-14.985014zM587.900879 326.498955a14.985015 14.985015 0 0 0 14.985015-14.985014v-21.979622a14.985015 14.985015 0 1 0-29.97003 0v21.979622a14.985015 14.985015 0 0 0 14.985015 14.985014z" p-id="7175"></path><path d="M905.551597 715.817396c-0.04999-0.545891-0.207959-2.205561-3.911221-24.735073l-0.017996-0.077984-0.007998-0.079984c-26.896642-153.525415-110.779931-223.657443-114.335223-226.568863a14.865039 14.865039 0 0 0-2.281545-1.523697c-2.65947-38.758279-13.65328-87.864496-44.215192-140.540002 0.387923-5.430918 0.593882-10.909827 0.593882-16.436725v-66.30879c13.445321-7.082589 22.643489-21.177781 22.643489-37.400549V179.426255c0-22.143589-17.128588-40.327966-38.826265-42.089615-3.247353-4.56909-8.212364-11.099789-15.003011-18.892236 14.911029-2.10958 29.1142-5.007003 41.427747-7.928421 9.510105 18.966222 29.128197 32.021621 51.74969 32.021621 31.903644 0 57.860473-25.956829 57.860473-57.860473 0-31.905644-25.956829-57.862473-57.860473-57.862473-18.778259 0-35.48893 8.998207-46.066823 22.901438a443.7356 443.7356 0 0 0-44.233188-19.682079 14.985015 14.985015 0 0 0-10.655877 28.010419 416.405044 416.405044 0 0 1 43.543326 19.552105 58.02444 58.02444 0 0 0-0.327935 3.5133c-17.984417 4.311141-40.339964 8.602286-62.351578 10.057997-21.035809-19.002214-49.748089-40.215988-87.238621-58.626321a433.263686 433.263686 0 0 1 42.547524 6.784648 14.977016 14.977016 0 0 0 17.754463-11.567695 14.985015 14.985015 0 0 0-11.565696-17.756463c-74.131232-15.644883-129.022296-8.458315-134.531199-7.664473-0.699861 0.081984-1.395722 0.203959-2.083585 0.385923-129.624176 34.363154-192.461658 110.845917-209.354292 134.617182-21.697677 1.759649-38.826265 19.946026-38.826266 42.089615v22.719474c0 16.222768 9.198168 30.31996 22.643489 37.400549v66.30879c0 5.5229 0.213957 10.995809 0.60388 16.422728-30.56991 52.683504-41.565719 101.79772-44.225189 140.557999-0.799841 0.437913-1.565688 0.939813-2.279546 1.523696-3.557291 2.91142-87.438581 73.043448-114.335223 226.568863l-0.005998 0.071986c-0.005999 0.029994-0.013997 0.055989-0.017997 0.085983-3.703262 22.529512-3.861231 24.189181-3.911221 24.727074-4.559092 47.588519 20.241967 83.02546 63.183413 90.278015a74.565145 74.565145 0 0 0 12.429524 1.057789c2.185565 0 4.347134-0.105979 6.486708-0.305939 1.659669 15.950822 4.741055 30.911842 9.256156 44.849065 7.47851 23.085401 18.866241 43.131407 34.03322 60.046038-20.087998 18.276359-32.715482 44.615112-32.715483 73.847288 0 21.179781 17.232567 38.412348 38.412348 38.412348h134.197265c20.415933 0 37.114606-16.020808 38.30037-36.1428a555.743286 555.743286 0 0 0 89.970076 7.352535c30.106002 0 60.206006-2.497502 89.968077-7.386528 1.167767 20.137988 17.872439 36.176793 38.30037 36.176793h134.199265c21.179781 0 38.412348-17.232567 38.412347-38.414348 0-29.250173-12.641482-55.600923-32.747476-73.879281 15.176976-16.908631 26.586703-36.930643 34.063214-60.014044 4.643075-14.333145 7.602485-29.380147 9.196168-44.863063-0.041992 0.40192 17.878438-0.55389 18.980219-0.739853 42.931447-7.254555 67.732506-42.691495 63.175414-90.274015zM803.369954 56.782688c15.380936 0 27.892443 12.513507 27.892443 27.892443s-12.511507 27.892443-27.892443 27.892443-27.894443-12.511507-27.894443-27.892443 12.513507-27.892443 27.894443-27.892443zM512 32.723481c93.16144 25.638892 148.612394 75.340991 174.503236 104.439194H337.376788c25.734873-29.06221 80.991865-78.684325 174.623212-104.439194zM289.948237 179.426255a12.307548 12.307548 0 0 1 12.293551-12.293551H721.756213a12.307548 12.307548 0 0 1 12.29555 12.293551v22.719474a12.309548 12.309548 0 0 1-12.29555 12.29555H302.241788a12.307548 12.307548 0 0 1-12.293551-12.29555z m222.051763 153.745371c-23.277363 0-43.897255 9.376132-56.482748 23.713276-14.467118-1.919618-28.840254-4.529098-43.029427-7.938419-46.910655-11.275754-83.297406-24.911037-99.508176-31.443736a197.086737 197.086737 0 0 1-0.387923-11.647679v-61.445759h398.816548v61.445759c0 3.909221-0.143971 7.786449-0.369926 11.639681-16.206771 6.530699-52.601521 20.171981-99.526173 31.451734-14.191173 3.41132-28.566309 6.018801-43.035426 7.93042-12.587492-14.333145-33.203385-23.705277-56.476749-23.705277z m39.386154 56.354773c0 14.301151-18.038406 26.384744-39.386154 26.384744s-39.386154-12.083593-39.386154-26.384744c0-14.303151 18.038406-26.384744 39.386154-26.384744s39.386154 12.081593 39.386154 26.384744z m-247.280738-43.26938c18.116391 7.224561 54.449153 20.549906 101.377804 31.829659a445.927163 445.927163 0 0 0 37.372555 7.258554 45.97884 45.97884 0 0 0-0.211958 4.181167c0 31.07181 31.111802 56.352773 69.354183 56.352774s69.354183-25.278964 69.354184-56.352774c0-1.40572-0.085983-2.793443-0.209958-4.175168a446.121124 446.121124 0 0 0 37.372554-7.266553c46.926651-11.279753 83.259413-24.605098 101.377804-31.829658 42.419549 78.562349 37.828464 146.430828 32.551515 176.428852l-34.609105-10.539901a14.981016 14.981016 0 0 0-19.350145 14.333145c0 15.446923-6.510703 36.934642-18.828249 62.14162-18.700275 38.270376-46.980641 69.518151-81.777709 90.365998-21.413734 12.831444-42.107611 22.425532-61.503747 28.516319a80.949873 80.949873 0 0 1-48.758286 0c-19.394136-6.090787-40.086014-15.684875-61.501748-28.516319a204.101339 204.101339 0 0 1-30.321959-22.23957 14.983015 14.983015 0 0 0-21.151787 1.285744 14.983015 14.983015 0 0 0 1.285744 21.151786 234.193344 234.193344 0 0 0 34.78507 25.510918c23.433332 14.041203 46.286779 24.605098 67.922469 31.399744a111.225842 111.225842 0 0 0 33.361354 5.140976c11.221764 0 22.449528-1.713659 33.359354-5.140976 21.637689-6.794646 44.491137-17.358542 67.924468-31.399744 39.784074-23.835252 72.047647-59.424162 93.299413-102.915497 10.151978-20.775861 16.804652-39.416148 19.884039-55.678908l6.430719 1.95761c18.064401 39.114208 39.206189 91.833705 51.553729 146.122889-26.00282 20.453925-124.009295 89.694131-260.102182 90.601951h-24.39514c-135.27705-0.887823-234.059371-70.128029-260.360132-90.625946 12.353539-54.277187 33.489328-106.994685 51.539732-146.106893l6.402725-1.949611c3.079387 16.26276 9.732061 34.903047 19.884039 55.678908a258.940414 258.940414 0 0 0 11.705668 21.347747 14.985015 14.985015 0 0 0 25.562907-15.640884 229.09436 229.09436 0 0 1-10.343939-18.866242c-12.317546-25.204979-18.828249-46.694698-18.828249-62.14162a14.981016 14.981016 0 0 0-19.350145-14.333145l-34.609106 10.539901c-5.276949-29.994025-9.870034-97.860504 32.551515-176.426853zM199.112333 776.877231c-3.841235 0.473906-7.992408 0.421916-12.491511-0.337932-38.846261-6.560693-39.794072-42.41755-38.356359-57.720501 0.103979-0.775845 0.473906-3.159371 0.989803-6.388727l53.601321 14.891033c-2.443513 17.328548-3.689265 33.851256-3.743254 49.556127z m8.940219-79.216218a913510.831514 913510.831514 0 0 0-53.593323-14.889034c13.787253-67.150622 39.216187-115.441002 58.736298-144.71717 9.580091-14.367138 18.640287-25.588902 25.922836-33.777271 0.911818 11.817646 2.443513 21.511714 3.86523 28.598303a26.060808 26.060808 0 0 0 12.161577 17.226568c0.545891 0.325935 1.115778 0.60388 1.679666 0.887823a904.005905 904.005905 0 0 0-20.793858 51.263788c-12.507508 33.855255-21.821653 65.676916-27.978426 95.406993z m175.679001 296.368958h-134.197265a8.454316 8.454316 0 0 1-8.444318-8.444318c0-38.530324 31.347755-69.878079 69.880079-69.878079h11.329743c38.532324 0 69.880079 31.347755 69.880078 69.880078a8.458315 8.458315 0 0 1-8.448317 8.442319z m399.178477-8.444318a8.454316 8.454316 0 0 1-8.444318 8.444318h-134.199265a8.454316 8.454316 0 0 1-8.444318-8.444318c0-38.530324 31.347755-69.878079 69.880079-69.878079h11.329743c38.530324 0 69.878079 31.347755 69.878079 69.878079z m2.775447-143.129486c-6.692667 20.657885-16.934626 38.052419-30.82186 52.501541a99.226232 99.226232 0 0 0-41.831666-9.218164h-11.329743c-45.023031 0-83.165432 29.960031-95.57696 70.983859a526.319147 526.319147 0 0 1-188.246497 0.001999c-12.411527-41.025827-50.553929-70.985858-95.578959-70.985858h-11.329743c-14.937024 0-29.106201 3.319339-41.843664 9.224162-13.879235-14.437124-24.107197-31.829659-30.797865-52.471546-4.395124-13.557299-7.046596-27.966429-8.310344-42.901453 56.136816 33.923242 150.588 76.918676 269.636283 77.718517h25.015017c118.828327-0.799841 213.205525-43.793276 269.322346-77.718517-1.267747 14.917028-3.91722 29.31416-8.306345 42.86546z m-261.11998 4.883027h-24.811057c-124.323232-0.835833-220.394093-50.671905-270.244163-83.47737l0.017997-0.353929a358.968487 358.968487 0 0 1 3.741254-36.304767l0.067987-0.425916c40.471937 28.736275 138.366435 87.134641 266.514905 87.976474h24.593101c128.666367-0.85583 225.938989-59.076231 266.240959-87.876494 1.95561 12.821446 3.229357 25.182983 3.807242 36.982633-49.826074 32.803465-145.836947 82.643536-269.928225 83.479369z m242.755638-296.426946c0.515897-0.263947 1.037793-0.513898 1.537694-0.811838a26.060808 26.060808 0 0 0 12.161577-17.224569c1.421717-7.088588 2.953412-16.784656 3.86323-28.606301 23.399338 26.360748 65.402971 84.491168 84.665134 178.49844l-53.591324 14.889034c-11.007807-53.693303-30.535917-105.786925-48.636311-146.744766z m70.056044 225.627051c-4.527098 0.763848-8.692268 0.793842-12.553499 0.305939-0.065987-16.304752-1.40572-32.901445-3.727258-49.514136l53.647313-14.903031c0.515897 3.231356 0.887823 5.616881 0.989802 6.390727 1.435714 15.294953 0.493902 51.159808-38.356358 57.720501z" p-id="7176"></path></svg>