<?xml version="1.0" standalone="no"?><!DOCTYPE svg PUBLIC "-//W3C//DTD SVG 1.1//EN" "http://www.w3.org/Graphics/SVG/1.1/DTD/svg11.dtd"><svg t="1649684701026" class="icon" viewBox="0 0 1024 1024" version="1.1" xmlns="http://www.w3.org/2000/svg" p-id="1635" xmlns:xlink="http://www.w3.org/1999/xlink" width="200" height="200"><defs><style type="text/css">@font-face { font-family: "feedback-iconfont"; src: url("//at.alicdn.com/t/font_1031158_u69w8yhxdu.woff2?t=1630033759944") format("woff2"), url("//at.alicdn.com/t/font_1031158_u69w8yhxdu.woff?t=1630033759944") format("woff"), url("//at.alicdn.com/t/font_1031158_u69w8yhxdu.ttf?t=1630033759944") format("truetype"); }
</style></defs><path d="M515.92192 543.55968m-343.94112 0a343.94112 343.94112 0 1 0 687.88224 0 343.94112 343.94112 0 1 0-687.88224 0Z" fill="#BED5E9" p-id="1636"></path><path d="M515.65568 894.68416c-161.75104 0-301.80864-109.82912-340.58752-267.08992-46.32064-187.93984 68.87936-378.54208 256.8192-424.87808a352.58368 352.58368 0 0 1 84.3008-10.28608c161.75104 0 301.80864 109.82912 340.58752 267.09504 46.32064 187.93984-68.87936 378.53696-256.8192 424.87296a352.6144 352.6144 0 0 1-84.3008 10.28608z m0.53248-688.04096c-27.10528 0-54.3232 3.31776-80.896 9.87136-180.3264 44.46208-290.86208 227.34336-246.40512 407.67488 37.20192 150.89152 171.5712 256.2816 326.77376 256.2816 27.10528 0 54.3232-3.31776 80.896-9.87136 180.3264-44.45696 290.86208-227.34336 246.40512-407.66976-37.20704-150.90176-171.5712-256.28672-326.77376-256.28672z" fill="#6C0000" p-id="1637"></path><path d="M511.73376 353.10592c-238.4384-8.4736-493.83424 37.88288-497.4848 140.5184-3.65056 102.62016 247.81312 166.99904 486.25152 175.47264 238.44352 8.47872 493.83936-37.88288 497.4848-140.50304 3.65056-102.6304-247.808-167.00928-486.25152-175.488z m465.99168 174.7712c-2.34496 65.87392-206.64832 132.3776-476.5696 122.78272-269.92128-9.59488-468.98688-90.43968-466.64704-156.3136 2.33984-65.87392 206.64832-132.39808 476.5696-122.8032 269.92128 9.59488 468.98688 90.46016 466.64704 156.33408z" fill="#6B0306" p-id="1638"></path><path d="M232.87808 366.4384c-8.31488 10.16832-16.62976 26.64448-20.50048 34.81088 81.66912-18.63168 178.11456-24.59136 296.61696-20.3776 131.0976 4.6592 239.7184 21.62176 322.42688 50.0224-3.2-8.83712-14.17216-31.76448-18.02752-40.192-89.95328-26.81856-190.6688-50.91328-302.66368-54.89664-101.9392-3.61984-190.70976 14.10048-277.85216 30.63296z" fill="#BED5E9" p-id="1639"></path><path d="M626.14528 640.2816m-88.576 0a88.576 88.576 0 1 0 177.152 0 88.576 88.576 0 1 0-177.152 0Z" fill="#FFC700" p-id="1640"></path><path d="M626.2016 734.78656h-0.01024c-1.12128 0-2.26816-0.0256-3.39968-0.06144-52.0704-1.85344-92.928-45.7216-91.08992-97.792 1.85344-52.24448 45.41952-93.01504 97.79712-91.0848 52.0704 1.85344 92.928 45.7216 91.08992 97.792a94.15168 94.15168 0 0 1-94.3872 91.14624z m-0.11264-177.15712a82.31424 82.31424 0 0 0-82.53952 79.7184c-1.61792 45.5424 34.11456 83.9168 79.66208 85.54496l2.9952 0.0512a82.33472 82.33472 0 0 0 82.53952-79.72352c1.61792-45.53728-34.11456-83.91168-79.66208-85.53472l-2.9952-0.05632z" fill="#6C0000" p-id="1641"></path><path d="M807.26528 251.19744m-18.83648 0a18.83648 18.83648 0 1 0 37.67296 0 18.83648 18.83648 0 1 0-37.67296 0Z" fill="#FFC700" p-id="1642"></path><path d="M807.28064 275.95776l-0.89088-0.01536a24.80128 24.80128 0 0 1-23.87968-25.6256 24.6784 24.6784 0 0 1 24.73472-23.8848c14.5408 0.50176 25.25184 11.99616 24.76544 25.64096a24.66816 24.66816 0 0 1-24.7296 23.8848z m0.41984-37.67296c-7.43936 0-13.09696 5.47328-13.3376 12.44672a12.93312 12.93312 0 0 0 12.44672 13.37344l0.47616 5.92896v-5.92384a12.85632 12.85632 0 0 0 12.88704-12.45184 12.93312 12.93312 0 0 0-12.44672-13.37344h-0.0256z" fill="#6C0000" p-id="1643"></path><path d="M109.1072 396.40064m-46.69952 0a46.69952 46.69952 0 1 0 93.39904 0 46.69952 46.69952 0 1 0-93.39904 0Z" fill="#FFC700" p-id="1644"></path><path d="M109.12768 449.02912l-1.89952-0.03584c-28.99968-1.03424-51.75808-25.46176-50.72896-54.45632a52.43904 52.43904 0 0 1 52.56704-50.75456l1.89952 0.03584a52.2752 52.2752 0 0 1 36.64896 16.72192 52.3008 52.3008 0 0 1 14.08 37.73952 52.42368 52.42368 0 0 1-52.56704 50.74944z m-0.05632-93.40416a40.61184 40.61184 0 0 0-40.71936 39.33184c-0.79872 22.46656 16.83456 41.3952 39.296 42.19904l1.47968 0.0256a40.6016 40.6016 0 0 0 40.71936-39.32672 40.51456 40.51456 0 0 0-10.89536-29.24544 40.5504 40.5504 0 0 0-28.40064-12.96384l-1.47968-0.02048z" fill="#6C0000" p-id="1645"></path><path d="M537.94304 203.50464c8.74496 2.21184-13.89568 24.84224-4.6336 37.26336 9.2672 12.42112 5.56032 11.68384 9.2672 12.42112 20.19328 4.03456 32.5888-13.88544 46.0032-10.85952 5.3504 1.20832 8.61184 12.75392 13.24544 25.17504 4.6336 12.42112 19.37408 9.35424 19.5072 14.6688 0.20992 8.46848 5.89824 21.27872-3.36896 33.70496-9.2672 12.42112-40.14592 8.5504-47.72352 14.03392-10.0608 7.28576-90.76736-33.04448-36.92544 22.65088 5.41696 5.60128 29.11744-0.31232 37.6064 6.4256 36.864 29.25056 36.51584-2.28352 45.77792 55.68512s-5.2992 69.69344-9.2672 74.53184c-22.6304 27.61216-31.96928 26.60864-35.49696 18.70848-4.608-10.3168 35.49696-35.27168 3.06688-55.97696l-32.43008-20.70528s-22.4768-16.00512-16.14848-25.79456c3.56864-5.52448 18.04288-16.8704-19.0208-49.9968s-53.62176 9.984-72.15104-31.42144c-18.52928-41.40544-11.73504-51.28704-11.73504-80.27136s-0.68096-29.78304-0.68096-29.78304 51.29216-26.59328 115.10784-10.46016z" fill="#FFEC43" p-id="1646"></path><path d="M578.4576 518.67136c-3.06688 0-8.68864-1.08032-11.92448-8.34048-2.88256-6.4512 1.65376-13.14304 6.44608-20.22912 4.72064-6.95808 10.05056-14.84288 8.6528-21.66272-0.83456-4.01408-4.13184-7.8848-9.80992-11.50976l-32.44032-20.70016c-4.76672-3.38944-26.85952-20.16256-17.93024-34.00192 0.384-0.59392 0.85504-1.23904 1.38752-1.9456 3.63008-4.83328 10.37824-13.82912-19.3792-40.4224-12.05248-10.78272-20.97152-12.16512-27.392-12.16512-3.47136 0-6.68672 0.44544-9.70752 0.84992-3.19488 0.43008-6.20032 0.80896-9.08288 0.80896-12.04224 0-20.24448-6.85056-27.42784-22.91712-14.9248-33.36192-14.03392-47.64672-12.91264-65.72544 0.31232-5.07904 0.66048-10.54208 0.66048-16.96256 0-18.08896-0.26624-24.87808-0.43008-27.32032l-3.65568-4.30592 6.59456-3.42528c1.28512-0.6656 31.98464-16.31744 75.79648-16.31744 14.75072 0 29.38368 1.81248 43.48416 5.376 2.59072 0.65536 4.60288 2.25792 5.67808 4.51072 2.19648 4.61824-0.17408 9.71264-3.17952 16.16896-2.8928 6.22592-6.85056 14.7456-3.84 18.78528 3.93216 5.25824 5.73952 8.43264 6.7072 10.32704 1.46944 0.2304 2.62656 0.31232 3.75808 0.31232 6.90688 0 13.03552-3.06688 18.95936-6.02112 7.03488-3.51232 14.87872-6.96832 22.41024-5.28896 7.68 1.73056 11.10528 11.24352 15.44192 23.28576l2.048 5.59104c1.59744 4.28544 4.95104 5.6064 9.89184 7.12704 3.68128 1.13152 9.83552 3.03616 9.984 9.472 0.04608 1.81248 0.39424 3.85024 0.75264 6.0672 1.36704 8.3968 3.21536 19.89632-5.2992 31.3088-7.18336 9.64608-22.61504 11.35104-35.00544 12.71808-5.19168 0.57344-12.29824 1.3568-13.98784 2.57536-5.21728 3.7632-16.49664 1.24928-29.99808-2.08896-8.43264-2.08896-17.408-4.01408-22.25664-4.13696 1.2288 2.59072 4.9152 8.38656 16.1024 19.96288 1.42336 0.89088 8.28416 0.94208 12.3904 0.9728 9.14944 0.07168 18.60096 0.14336 24.64256 4.93568 12.5184 9.92768 20.16256 12.27776 25.7536 13.99296 14.10048 4.33664 16.39424 9.00096 22.21056 45.3888 9.08288 56.9088-4.13184 71.91552-9.76384 78.32576l-0.77312 0.896c-14.37184 17.55648-25.04192 25.728-33.55648 25.728zM476.06784 335.85664c12.4928 0 23.7056 4.82304 35.28192 15.17568 33.37728 29.81888 29.32736 45.22496 20.96128 56.36096l-0.91136 1.25952c-1.5616 2.42688 5.94432 11.55584 14.61248 17.76128l32.18432 20.52608c8.46848 5.40672 13.53728 11.83232 15.0272 19.09248 2.42688 11.71968-4.7104 22.2464-10.43456 30.70976-2.08384 3.07712-5.24288 7.7312-5.2992 9.3184 0.45056 0.75776 0.79872 0.75776 0.9728 0.75776 1.14688 0 7.71584-1.02912 24.3968-21.376l1.03936-1.21344c4.15232-4.71552 15.16544-17.22368 6.95296-68.62848-5.30944-33.26464-6.46656-33.62304-13.98784-35.93216-6.1184-1.87904-15.36512-4.72064-29.62432-16.04096-2.84672-2.25792-11.24352-2.31936-17.37728-2.36544-8.84736-0.06144-16.49664-0.12288-20.8128-4.5824-16.80896-17.39264-22.21056-26.87488-19.26144-33.82272 1.2032-2.8416 4.27008-6.23104 12.05248-6.23104 6.59456 0 15.81568 2.28352 24.71936 4.49024 7.52128 1.86368 15.2832 3.78368 19.50208 3.78368 0.91136 0 1.25952-0.09728 1.27488-0.09728 3.64544-2.74944 10.4448-3.49184 19.06688-4.44928 10.112-1.11616 22.69696-2.50368 26.81344-8.02304 5.50912-7.39328 4.28032-14.99136 3.08736-22.33856a91.27936 91.27936 0 0 1-0.76288-5.54496c-0.56832-0.18944-1.2288-0.39424-1.77152-0.56832-5.1456-1.5872-13.74208-4.23936-17.50528-14.30528l-2.08384-5.71904c-2.09408-5.80096-5.25312-14.57664-7.26528-15.872-0.256-0.01024-0.85504-0.0768-1.50528-0.0768-3.584 0-7.78752 2.0992-12.6464 4.5312-8.4224 4.20352-18.41664 9.12896-31.36 6.55872-3.2256-0.64-5.05344-1.57184-6.7328-5.08928-0.59904-1.2544-1.83808-3.86048-6.1184-9.6-7.25504-9.70752-1.5616-21.93408 2.59072-30.85824 0.7168-1.55136 1.59744-3.44064 2.19648-4.96128a166.0928 166.0928 0 0 0-37.44768-4.2496c-32.5888 0-57.82016 9.472-66.79552 13.3632 0.24064 4.57728 0.33792 12.36992 0.33792 26.15808 0 6.69696-0.34816 12.40064-0.68096 17.70496-1.06496 17.09056-1.83808 29.44512 11.89376 60.14976 7.12704 15.90784 12.84096 15.90784 16.62464 15.90784 2.3808 0 4.86912-0.35328 7.50592-0.70656 3.52768-0.47104 7.26528-0.95744 11.2896-0.95744z" fill="#6B0204" p-id="1647"></path><path d="M236.64128 731.76576s16.7424-46.29504 40.38656-47.27808 26.59328 13.78816 26.59328 21.66784c0 7.87968 5.90848 22.656 13.78816 26.59328 7.87968 3.9424 69.93408 11.82208 88.64768 15.75936s41.3696 10.83392 46.29504 23.63904c4.92544 12.80512-2.95424 29.54752-6.89664 39.3984-3.9424 9.85088-7.87968 9.85088 2.95424 22.656s25.61024 12.80512 33.48992 22.656c7.87968 9.85088 10.83392 19.70176 10.83392 19.70176l2.95424 7.87968s-103.424-5.90848-171.38688-53.19168-87.65952-99.4816-87.65952-99.4816z" fill="#FFEC43" p-id="1648"></path><path d="M504.4224 890.86976l-9.06752-0.52224c-4.29056-0.24064-105.88672-6.5536-174.42816-54.23616-68.69504-47.78496-88.99584-100.05504-89.8304-102.25152l-0.77312-2.05312 0.75264-2.05312c1.85344-5.12512 18.8672-50.06848 45.70624-51.18464l2.45248-0.0512c18.98496 0 30.3104 10.33216 30.3104 27.63776 0 6.6304 5.43744 18.75968 10.51648 21.2992 4.13184 2.03264 32.76288 6.4512 51.712 9.3696 14.48448 2.23232 28.17024 4.34176 35.51744 5.89312 29.75232 6.26176 45.83424 14.94016 50.60096 27.30496 5.33504 13.85472-1.36704 30.16704-5.79584 40.96512l-1.13152 2.7648c-0.79872 2.00192-1.59744 3.63008-2.28864 5.04832-1.95584 3.968-2.03776 4.1216 4.27008 11.58144 4.87936 5.77024 10.7008 8.48896 16.86528 11.37152 5.96992 2.79552 12.14464 5.67808 16.72704 11.40736 8.50432 10.61888 11.75552 21.25312 11.8784 21.69856l6.00576 16.01024z m-261.4016-159.22688c4.37248 9.81504 26.53696 54.30784 84.6592 94.74048 54.18496 37.69344 132.67968 48.63488 159.2064 51.34848a61.184 61.184 0 0 0-9.61536-17.16736c-2.84672-3.56864-7.3216-5.6576-12.4928-8.07936-6.7072-3.13344-14.32064-6.69696-20.89472-14.44864-9.7536-11.53536-10.01984-16.01024-5.85216-24.46848 0.57856-1.18784 1.25952-2.54464 1.93024-4.224l1.15712-2.85696c3.72736-9.05728 9.34912-22.75328 5.70368-32.2048-2.12992-5.5296-11.14112-13.48096-41.984-19.97312-7.03488-1.47968-20.5568-3.56864-34.87744-5.78048-30.81728-4.75648-49.90464-7.8336-55.20384-10.48064-10.41408-5.21216-17.06496-22.36928-17.06496-31.89248 0-10.624-6.03648-15.79008-18.46272-15.79008l-1.96608 0.04096c-15.10912 0.62976-29.30176 28.74368-34.24256 41.23648z" fill="#6B0204" p-id="1649"></path></svg>