<?xml version="1.0" encoding="utf-8"?>
<!-- Generator: Adobe Illustrator 16.0.0, SVG Export Plug-In . SVG Version: 6.00 Build 0)  -->
<!DOCTYPE svg PUBLIC "-//W3C//DTD SVG 1.1//EN" "http://www.w3.org/Graphics/SVG/1.1/DTD/svg11.dtd">
<svg version="1.1" id="Earth" xmlns="http://www.w3.org/2000/svg" xmlns:xlink="http://www.w3.org/1999/xlink" x="0px" y="0px"
	 width="512px" height="512px" viewBox="0 0 512 512" enable-background="new 0 0 512 512" xml:space="preserve">
<circle id="Background" fill="#323653" cx="256" cy="256" r="255.931"/>
<path id="Shadow" opacity="0.1" d="M377.676,158.512L164.399,383.645L290.4,509.646c93.279-12.724,175.996-76.616,208.115-171.873
	c5.015-14.875,8.578-29.887,10.78-44.887L377.676,158.512z"/>
<g id="Star_1_">
	<g>
		<circle fill="#E3DFF0" cx="207.08" cy="61.416" r="4.775"/>
		<polygon fill="#E3DFF0" points="217.475,57.235 206.699,60.469 196.686,65.595 207.46,62.36 		"/>
		<polygon fill="#E3DFF0" points="202.899,51.019 206.134,61.795 211.261,71.809 208.025,61.034 		"/>
	</g>
	<g>
		<circle fill="#E3DFF0" cx="338.931" cy="413.709" r="4.776"/>
		<polygon fill="#E3DFF0" points="349.326,409.528 338.552,412.763 328.537,417.891 339.312,414.655 		"/>
		<polygon fill="#E3DFF0" points="334.751,403.313 337.985,414.09 343.112,424.103 339.878,413.329 		"/>
	</g>
	<g>
		<circle fill="#E3DFF0" cx="34.132" cy="330.774" r="4.776"/>
		<polygon fill="#E3DFF0" points="44.527,326.594 33.752,329.828 23.738,334.955 34.513,331.721 		"/>
		<polygon fill="#E3DFF0" points="29.952,320.379 33.187,331.155 38.313,341.168 35.078,330.394 		"/>
	</g>
	<g id="Star">
		<circle fill="#E3DFF0" cx="377.496" cy="115.381" r="7.124"/>
		<polygon fill="#E3DFF0" points="393.004,109.144 376.928,113.969 361.99,121.616 378.063,116.79 		"/>
		<polygon fill="#E3DFF0" points="371.262,99.872 376.086,115.947 383.732,130.885 378.907,114.813 		"/>
	</g>
</g>
<g id="Earth_1_">
	<circle fill="#49AEE2" cx="256" cy="256.826" r="156.438"/>
	<path fill="#FBB26A" d="M252.334,264.998l3.666-15.33c0,0-7.848,0.71-10.33,0c-5.494-1.573-2.667-8.665-20.217-10.665
		c-3.09-0.352-33.769,10.665-35.768,10.665s-3.999,1.999-13.996-2c-9.998-3.999-15.996-16.663-13.997-21.328
		c2-4.665-1-7.423,0.333-9.422c1.333-2,14.034-34.103,12.997-39.23c-1.086-5.372-10.623-19.176-10.623-19.176l-14.16-16.946h0
		c-30.182,27.708-49.453,67.113-50.618,111.034c0,0,8.443-2.523,10.752-4.264c1.704-1.284,4.654-6.044,6.665-5.332
		c3.126,1.109,2.615,11.999,2.667,12.997c0.833,16.013,10.473,18.133,16.662,18.328c6.099,0.192,17.995-16.492,17.995-16.492
		l6.665-6.168c0,0,0.082-1.333,3.373,0c3.292,1.333,7.957,6.168,7.957,6.168s-3.999,5.829,0.667,5.829c4.666,0,9.331,0,9.331,0
		s2,4.831,2,6.414c0,1.584,2,6.915,2.666,8.915c0.667,1.999-1.333,9.997-1.333,9.997v9.33v5.332c0,0-2.666,3.999,0,5.998
		c2.666,1.999,6.665,5.998,6.665,5.998l14.663,8.504l5.999,17.205l-9.108,6.37v29.904l-11.289,22.248l6.134,2.575
		c0.003,0.001,0.005,0.002,0.008,0.003l14.255-14.829l8.664-15.995l14.663-10.663L256,350.308l8.332-29.325
		c0,0,6.739-36.323,2.073-40.989C261.739,275.328,252.334,264.998,252.334,264.998z"/>
	<path fill="#FBB26A" d="M392.846,274.84c0,0,3.19-12.828,2.954-10.876c-0.239,1.948-0.239,1.948-0.239,1.948l-3.07-1.684
		l-3.057-1.632l-2.088,7.459c0,0,6.43-3.083,7.488-2.087c1.058,0.994,7.33-4.521,4.742-8.199c-2.587-3.678-4.412-5.707-4.412-5.707
		s5.215-20.904-1.247-15.332c-6.463,5.569-4.208,4.313-6.463,5.569c-2.252,1.257-7.087,0.721-7.087,0.721l-0.017-7.536l2.567-3.858
		c0,0,0.517-6.426,3.004-0.837c2.486,5.591,1.029,8.891,3.737,13.408c2.709,4.521,9.604,7.096,9.905,3.383
		c0.118-1.458,1.107-2.794,1.99-4.296c1.369-2.323,2.485-5.046-0.263-9.24c-4.527-6.905,0.498-1.955-7.984-8.105
		c-8.484-6.151-13.639-5.969-13.639-5.969l-7.256-1.749l15.2,9.586l3.279,3.483l4.108-0.202c0,0,3.144,1.007,3.388,1.883
		c0.244,0.873,1.871,7.644,1.871,7.644l0.922,14.511l3.806,8.047l3.728,9.643c0,0,0.246,2.758-2.492,2.265
		c-2.74-0.493-2.735,2.332-6.365-0.427C396.226,273.897,392.846,274.84,392.846,274.84z"/>
	<path fill="#FBB26A" d="M171.113,231.878c0,0,6.146-5.922,5.376-4.945c-0.77,0.976-0.77,0.976-0.77,0.976l-1.511-1.844l-1.518-1.81
		l-3.727,3.372c0,0,5.237,0.306,5.627,1.164c0.39,0.858,6.287-0.192,5.723-2.959s-1.138-4.416-1.138-4.416s10.025-9.646,3.986-8.624
		c-6.04,1.021-4.149,1.034-6.04,1.021c-1.89-0.012-4.932-1.777-4.932-1.777l2.354-4.055l2.917-1.291c0,0,2.36-3.297,2.257,0.467
		c-0.104,3.766-2.107,5.094-1.728,8.351c0.38,3.256,4.15,6.746,5.516,4.842c0.536-0.748,1.611-1.165,2.67-1.702
		c1.639-0.831,3.234-1.954,2.725-5.048c-0.837-5.095,0.945-0.898-2.757-6.795c-3.702-5.898-7.182-7.374-7.182-7.374l-4.27-3.155
		l7.085,9.795l1.084,2.874l2.792,1.146c0,0,1.771,1.502,1.658,2.047c-0.112,0.544-1.157,4.681-1.157,4.681l-3.944,8.081v5.489
		l-0.551,6.322c0,0-0.701,1.558-2.365,0.456c-1.665-1.102-2.548,0.419-4.094-2.172C173.654,232.404,171.113,231.878,171.113,231.878
		z"/>
	<path fill="#FBB26A" d="M172.522,158.512c0,0-1.999,3.514,0,4.514c2,1,6.458,3.499,6.458,3.499s-0.541-8.027,0-8.013
		s-0.041-0.485,0-2.484c0.041-2-3.254,2.484-3.254,2.484H172.522z"/>
	<g>
		<path fill="#FBB26A" d="M371.969,190.018c3.999,2.499,1,6.498,3.999,2.499c2.999-3.999,0.499-6.498,2.999-3.999
			c2.499,2.499-1,1,0,4.499s1,3.499,1,3.499s0.499,5.999,3.499,2c2.999-3.999,2.999-3.999,2.999-3.999l4.102-2.499
			c0,0,0.896,7.998,4.896,11.997c2.532,2.533,7.171,5.463,10.234,7.274c-12.215-40.206-40.181-73.548-76.716-92.855v5.603
			l-20.809,13.663c0,0-8.684,1.333-8.684,2.833s0,20.488,0,20.488l12.496,21.001l10.498,8.998c0,0,2.112,1,3.805,0
			c1.693-1,7.191-1.5,7.691-2.999s2.869-4.999,2.869-4.999s1.63-3.499,3.629-3.499c2,0,6.999,0.5,6.999,0.5l1.999,11.441
			l15.996,7.054c0,0,2.499-4.999,0-8.998c-2.5-3.999-4.999-8.998-1.5-10.497s8.442-1,8.442-1s1.443-1,0,2.5
			c-1.444,3.499-2.444-2.5-1.444,3.499S367.97,187.519,371.969,190.018z"/>
		<path fill="#FBB26A" d="M243.433,108.67C242.238,108.705,242.855,109.01,243.433,108.67L243.433,108.67z"/>
		<path fill="#FBB26A" d="M290.99,122.037c17.995-4.499,19.495-4.499,20.994-4.499c1.5,0,5.999,0.5,7.998,1c2,0.5,5.78,2.5,5.78,2.5
			l1.233-3.643c-14.645-7.472-30.623-12.704-47.483-15.245c0.198,0.666,0.187,2.024-0.02,4.392
			c-0.999,11.497-0.999,14.996-0.999,14.996s0.5,2,4.998,1.5C287.991,122.536,272.995,126.535,290.99,122.037z"/>
		<path fill="#FBB26A" d="M266.405,109.271c6.226-1.312,9.999-5.996,11.85-7.298c-6.627-0.944-13.387-1.472-20.255-1.558
			c-4.501,2.126-14.497,3.126-13.997,6.625c0.136,0.951-0.208,1.417-0.571,1.63c0.815-0.024,2.47,0.078,5.569,0.601
			C259.499,111.04,255.816,111.501,266.405,109.271z"/>
	</g>
	<g>
		<path fill="#FBB26A" d="M252.249,413.217h0.001c1.246,0.029,2.496,0.048,3.749,0.048c3.052,0,6.083-0.097,9.092-0.27
			C260.697,413.233,252.249,413.217,252.249,413.217z"/>
		<path fill="#FBB26A" d="M277.994,402.459c-2.999-0.501-7.979,10.174-11.951,10.476c-0.005,0-0.011,0.001-0.016,0.001
			c11.301-0.714,22.278-2.617,32.8-5.605h-0.001c-0.25,0.074-7.836-7.369-12.834-4.888
			C280.993,404.925,280.993,402.96,277.994,402.459z"/>
	</g>
	<g>
		<path fill="#FBB26A" d="M137.215,358.618c-0.008-0.058-0.017-0.118-0.026-0.179C137.197,358.496,137.206,358.555,137.215,358.618
			L137.215,358.618z"/>
		<path fill="#FBB26A" d="M137.141,358.11c0.017,0.112,0.033,0.224,0.048,0.329C137.17,358.31,137.154,358.197,137.141,358.11z"/>
		<path fill="#FBB26A" d="M137.112,357.911c0,0,0.011,0.075,0.029,0.199C137.131,358.042,137.123,357.981,137.112,357.911z"/>
		<path fill="#FBB26A" d="M141.67,351.604c-0.622-1.129-2.087-0.286-5.027,3.079c0.126,0.868,0.28,1.927,0.469,3.228
			c0,0,1.046-8.581,2.905-2.671c0.159,0.504,0.255,0.919,0.326,1.297c0.13-0.076,0.256-0.153,0.417-0.224
			c1.527-0.669,0.921,0.167-0.298,1.363c-0.036,1.009-0.544,1.116-0.864,0.817c-0.457,0.419-0.941,0.85-1.406,1.255
			c0.73,0.836,1.468,1.667,2.216,2.486c0.199-1.031-0.063-1.304-0.122-1.945c-0.067-0.739,0.608-1.355,1.149-1.849
			c0.54-0.492,0.743,0.125,1.419,1.356s0.473,0.615,0.744,1.897c0.27,1.281-0.811,0.688-0.946,2.043
			c-0.029,0.294-0.109,0.509-0.208,0.684c0.221,0.233,0.443,0.466,0.666,0.697l2.921-3.424c0,0,0.406-4.36,0-5.382
			C145.626,355.292,142.383,352.9,141.67,351.604z"/>
		<path fill="#FBB26A" d="M140.344,356.537c-1.211,0.711-1.117,1.609-0.744,1.957c0.307-0.282,0.599-0.558,0.864-0.817
			C140.474,357.383,140.431,356.993,140.344,356.537z"/>
		<path fill="#FBB26A" d="M135.896,347.729c0,0-1.901,2.349-3.779,4.623c1.031,1.335,2.076,2.659,3.148,3.96
			c0.492-0.598,0.95-1.14,1.377-1.628c-0.565-3.892-0.566-3.896-0.566-3.896L135.896,347.729z"/>
	</g>
	<path opacity="0.08" d="M281.128,102.408c30.3,32.516,49.082,77.671,49.082,127.598c0,84.545-53.846,155.413-126.306,174.363
		c16.297,5.754,33.828,8.896,52.095,8.896c86.399,0,156.438-70.039,156.438-156.438
		C412.438,178.984,355.578,114.431,281.128,102.408z"/>
</g>
</svg>
