<?xml version="1.0" standalone="no"?><!DOCTYPE svg PUBLIC "-//W3C//DTD SVG 1.1//EN" "http://www.w3.org/Graphics/SVG/1.1/DTD/svg11.dtd"><svg t="1649644235379" class="icon" viewBox="0 0 1024 1024" version="1.1" xmlns="http://www.w3.org/2000/svg" p-id="24493" xmlns:xlink="http://www.w3.org/1999/xlink" width="200" height="200"><defs><style type="text/css">@font-face { font-family: "feedback-iconfont"; src: url("//at.alicdn.com/t/font_1031158_u69w8yhxdu.woff2?t=1630033759944") format("woff2"), url("//at.alicdn.com/t/font_1031158_u69w8yhxdu.woff?t=1630033759944") format("woff"), url("//at.alicdn.com/t/font_1031158_u69w8yhxdu.ttf?t=1630033759944") format("truetype"); }
</style></defs><path d="M371.488422 87.88386a255.249904 255.249904 0 1 0 130.620843 336.53841A255.549493 255.549493 0 0 0 371.488422 87.88386z" fill="#F8C44F" p-id="24494"></path><path d="M532.168037 862.022066A390.963761 390.963761 0 0 1 373.485682 828.86754a394.858419 394.858419 0 0 1 159.780848-756.16286 395.058145 395.058145 0 0 1 360.805126 553.640636 395.257871 395.257871 0 0 1-361.803756 235.67675z" fill="#FFFFFF" p-id="24495"></path><path d="M533.26653 92.277833a374.885813 374.885813 0 1 1-343.628685 223.79305A372.78869 372.78869 0 0 1 533.26653 92.277833z m0-39.945211a414.831025 414.831025 0 0 0-167.76989 794.4104 410.736641 410.736641 0 0 0 166.671397 35.25165A414.831025 414.831025 0 0 0 700.137652 87.584271a410.337189 410.337189 0 0 0-166.871122-35.251649z" fill="#282D33" p-id="24496"></path><path d="M903.858233 515.197764l-52.128501 40.54439-94.070974 79.09152-4.194248-76.694807-60.916448 11.084796-6.890549-70.703025-41.942472 22.369319-12.083427-9.287262-36.150417-36.25028-11.484248 49.132611 27.662059 27.861785L490.42529 669.885597l-32.854937 5.192877v-63.413023l23.667538-95.868509-43.040965-21.071099-4.393974-41.243431 54.525215-57.221516 40.444527 7.489727 16.17781 24.965757 59.917818 9.986303-45.038226-58.619598-45.837131-29.958909 3.994521-16.077948 59.917818-6.59096-6.59096-39.945212 67.806997-22.668907 43.740007 40.843979 97.166728 10.984933s43.340555-3.29548 91.674261-6.59096a374.985676 374.985676 0 0 1 32.155896 205.118663zM434.601857 105.859205L400.548563 131.024689l-61.116174 47.035487a5.891919 5.891919 0 0 0-2.196986 5.392603l7.090275 48.43357a6.491097 6.491097 0 0 0 3.395343 4.493836 5.59233 5.59233 0 0 0 5.592329-0.599178l34.552609-24.166853 18.774249 67.008093-109.350017 35.551238L250.754019 298.894442a5.792056 5.792056 0 0 0-5.991782 1.497945l-21.470551 22.968497a5.991782 5.991782 0 0 0-1.398083 5.392604L235.275249 379.483907l-38.147677-43.040966-6.291371-22.469182A374.086909 374.086909 0 0 1 434.601857 105.859205zM240.767716 520.98982l-4.393973-72.50056 63.013571-57.421242 55.723571 125.228239-149.794544 126.826048V599.182572l34.153156-75.79604a5.192878 5.192878 0 0 0 1.298219-2.396712zM461.564875 231.986212l-3.195617-97.965632c68.506038-3.794795 108.850702 6.291371 123.930019 11.284522l-49.332336 67.307682z" fill="#34CA9D" p-id="24497"></path><path d="M960.680297 76.299749a65.709874 65.709874 0 0 0-9.187399-12.283153l28.860416-27.562196a109.849333 109.849333 0 0 1 14.779728 19.972606zM159.279484 966.878247l-2.696302-39.945212a285.208813 285.208813 0 0 0 37.24891-5.29274l7.989042 39.146307a310.773748 310.773748 0 0 1-42.54165 6.091645z m-44.439048-1.398082a137.511392 137.511392 0 0 1-44.838501-14.280413l18.874113-35.151787a98.065495 98.065495 0 0 0 31.756443 9.986303z m127.924541-15.179181L230.781413 912.053444c11.783838-3.595069 24.166853-7.889179 36.649732-12.782468l14.480139 37.24891c-13.18192 5.192878-26.463703 9.786577-39.146307 13.781098z m77.593574-29.958909l-16.577263-36.350142c11.584111-5.292741 23.467812-11.084796 35.351512-17.276305l18.374798 35.551239c-12.582742 6.491097-25.06562 12.482879-36.849458 18.075208zM33.152477 918.744267a120.834266 120.834266 0 0 1-18.774249-44.239322l39.046444-8.388495a78.392478 78.392478 0 0 0 12.383016 29.958909z m360.505537-36.050554l-19.972605-34.752334c11.284522-6.391234 22.768771-13.18192 34.153156-19.972606l20.971236 33.95343c-11.683974 6.890549-23.567675 14.080687-35.151787 20.77151z m69.904121-43.040966l-22.069729-33.254388c10.88507-7.190138 21.870003-14.679865 32.854936-22.469182l23.06836 32.655211Q480.438987 828.86754 463.462272 839.652747zM51.02796 831.16439L11.082748 828.86754a267.33333 267.33333 0 0 1 5.692192-43.040966l39.146308 8.088906A224.392228 224.392228 0 0 0 51.02796 831.16439z m479.342542-38.646993l-23.967127-31.956169c9.986303-7.889179 21.071099-15.978085 31.556717-24.266716l24.766032 31.356991q-16.177811 12.782468-32.355622 24.865894zM65.807688 757.465474l-38.047814-12.283153c4.194247-12.682605 9.087536-25.864525 14.580002-39.24617l36.949321 15.279043c-5.192878 12.383016-9.686714 24.666168-13.481509 36.25028z m528.674879-15.578633l-25.564935-30.65795c9.986303-8.488358 19.972606-17.076578 29.958908-25.864524l26.263977 29.958908c-9.986303 9.187399-20.272195 17.975345-30.65795 26.563566z m61.515626-53.626447l-26.963018-29.958908c8.787947-8.088905 17.575893-16.277674 26.263977-24.666169l2.796165-2.696302 27.562196 28.960279-2.696302 2.596439c-8.987673 9.087536-17.975345 17.47603-26.963018 25.764661z m-560.531185-2.696301l-35.950691-17.476031c5.792056-11.883701 12.283153-24.266716 19.173702-36.649731l34.95206 19.273564a791.114921 791.114921 0 0 0-18.175071 34.852198z m619.150784-53.72631l-28.261238-28.261238c9.986303-9.486988 18.77425-18.973976 27.761923-28.560826l29.060141 27.562196c-9.187399 9.786577-18.674387 19.473291-28.3611 29.259868z m56.322749-59.218777l-29.958909-26.763292c8.987673-9.986303 17.775619-19.972606 26.363839-29.958909l29.958909 26.064251q-12.383016 15.378907-26.164113 30.65795z m53.226994-61.915078l-30.957539-25.265347c8.488358-9.986303 16.776989-20.77151 24.666168-31.157265L849.932197 478.647895c-8.388494 10.685344-16.876852 21.270825-25.564936 32.056033z m49.931515-64.91097l-32.255758-23.367949c7.889179-10.88507 15.47877-21.77014 22.76877-32.555347l33.154526 22.369318c-7.889179 11.084796-15.378907 22.269456-23.467812 33.553978zM919.836318 377.786235l-33.95343-21.170962c7.090275-11.284522 13.880961-22.768771 19.972606-33.95343l34.852197 19.972606c-6.191508 11.384385-13.281783 23.268086-20.871373 35.151786z m39.945212-71.901381l-34.952061-17.875482c5.991782-11.983564 11.584111-23.967127 16.577263-35.451376l36.649732 15.678496c-5.292741 12.283153-11.184659 24.965757-17.575893 37.648362zM993.135782 229.689362l-37.748226-12.982194a376.683348 376.683348 0 0 0 10.685344-36.949321l38.846719 9.087536c-2.995891 12.682605-6.990412 26.36384-11.783837 40.843979z m18.674386-83.38563l-39.945212-3.195617c0-4.993151 0.599178-9.986303 0.599178-14.580002a139.1092 139.1092 0 0 0-1.497945-20.971236l39.945212-6.091645a168.269205 168.269205 0 0 1 1.99726 27.062881c-0.399452 5.392604-0.599178 11.284522-1.098493 17.376167zM133.614685 616.458876l-34.053293-20.971236c3.495206-5.692193 7.090275-11.384385 10.785207-17.176441l33.653841 21.470551z" fill="#282D33" p-id="24498"></path><path d="M142.302769 966.678521c-42.042335 0-76.095629-11.584111-99.263852-35.950691l28.860416-27.562196c69.904121 72.700286 320.360599-17.975345 583.399819-269.031002 119.835636-114.143443 216.003733-238.173326 271.028263-349.520603 51.329597-103.458099 59.917818-183.947701 25.165483-220.996885C909.850015 19.977 801.298902 37.153441 668.980387 108.455644L650.206138 73.303858C803.495888-9.382731 923.830839-22.764377 980.353314 36.4544c48.333706 50.630556 41.842609 145.200845-18.274935 266.234837-57.02179 115.04221-156.185778 243.066614-279.616483 360.405674-198.727429 190.039345-408.439791 303.58361-540.159127 303.58361z" fill="#282D33" p-id="24499"></path><path d="M298.488547 920.84139a83.185904 83.185904 0 1 1-83.185904-83.285766 83.185904 83.185904 0 0 1 83.185904 83.285766z" fill="#FFFFFF" p-id="24500"></path><path d="M215.302643 1023.9999a103.258373 103.258373 0 1 1 103.15851-103.15851 103.258373 103.258373 0 0 1-103.15851 103.15851z m0-166.47167a63.313161 63.313161 0 1 0 63.213298 63.31316 63.413024 63.413024 0 0 0-63.213298-63.31316z" fill="#282D33" p-id="24501"></path></svg>