<svg xmlns="http://www.w3.org/2000/svg" viewBox="0 0 78.77 68.57"><defs><style>.cls-1{isolation:isolate;}.cls-2{fill:#323333;}.cls-3{fill:#3c3c3c;}.cls-4{fill:#f9b332;}.cls-5{fill:#878787;}.cls-6{fill:#b5b6b9;}.cls-7,.cls-9{fill:#d2d3d5;}.cls-8{fill:#fff;opacity:0.6;mix-blend-mode:screen;}.cls-9{opacity:0.5;mix-blend-mode:multiply;}.cls-10{fill:#545556;}</style></defs><title>资源 16</title><g class="cls-1"><g id="图层_2" data-name="图层 2"><g id="Layer_1" data-name="Layer 1"><path class="cls-2" d="M78.54,59.42c0-.2-2.57-.32-6.47-.38-3.09-2.71-6.43-5.16-7.9-5.56-3.37-.9-46.06-1.29-49.52,0a38,38,0,0,0-7.54,4.9l-6.5-.27c-.77,1.17-.76,7.06-.24,8.6h0a1.06,1.06,0,0,0,.18.33c2.18,2.79,75.34,1.09,77.7,0a.42.42,0,0,0,.18-.13h0C79,66.44,78.68,60.3,78.54,59.42Z"/><path class="cls-3" d="M78.26,60C75.9,61.09,2.74,62.8.56,60S11.2,47.73,14.65,46.44s46.15-.91,49.52,0S80.62,58.92,78.26,60Z"/><path class="cls-4" d="M69,57.39c-1.8.83-57.53,2.12-59.19,0S17.92,48,20.56,47.05s35.15-.69,37.71,0S70.81,56.56,69,57.39Z"/><path class="cls-5" d="M55.65,53.62c1-.88,3.81-3.21,4.38-4.46S61.3,41.6,61.71,36,63.62,7.24,59.1,3.83l-4.79,5Z"/><path class="cls-6" d="M19.16,8.41c.81-.9,3.26-3.9,5.36-5.14S30.65-.11,42.33,0,58,2.68,59.6,4.29c0,0-.45,1.4-4.59,4.93Z"/><path class="cls-7" d="M18.8,53.33c-2.29-4.42-4.28-37.89,0-44.45S52.13,2.46,56,8.88s1.6,40.66,0,44.29S20.67,57,18.8,53.33Z"/><path class="cls-8" d="M22.41,9.21a8.7,8.7,0,0,1,7.78-3.54c3.65.27-9.08,20.63-9.38,14.82S21.25,11.13,22.41,9.21Z"/><path class="cls-9" d="M56,8.88A6,6,0,0,0,53.83,7c2.27,9.55.55,38.18-.7,41.46-1.36,3.58-29.92,3.71-31.5.16-1.78-4-3.34-31.82-.82-41.49a6.12,6.12,0,0,0-2,1.78c-4.28,6.56-2.29,40,0,44.45C20.67,57,54.41,56.81,56,53.17S59.9,15.31,56,8.88Z"/><path class="cls-10" d="M26.83,38.93c.62-.64,2.32-3.14,3.3-2.18a22.25,22.25,0,0,0,2.06,2.06c1.19.91,2.7-.47,3.51-1.14H34.48c1.06.82,2.93,2.19,4.41,1.6,2.35-.93,6.62,0,9,.46,1.08.23,1.55-1.43.46-1.67-1.58-.33-2.87-1.21-4.53-.85a35.12,35.12,0,0,1-8.11-.77.91.91,0,0,0-1.22,0c-1.69,1.41-3.09-.87-4-1.72a.88.88,0,0,0-1.05-.14,17.6,17.6,0,0,0-3.86,3.13c-.77.81.45,2,1.22,1.22Z"/><path class="cls-10" d="M45.12,44.26c-.92,1.71-3.57.31-5,.25-1,0-2,.84-2.95-.12-.53-.52-.76-1-1.54-1.18-1.23-.34-1.94,1.49-3.22.88s-2.65,0-4,.27c-1,.22-.57,1.74.42,1.52a7.08,7.08,0,0,1,3.63,0c.41.11.76.28,1.16.08,2-1,2.67.51,4.53.51,1.29,0,1.9-.6,3.39-.15a7.52,7.52,0,0,0,2.12.59,2.79,2.79,0,0,0,2.8-1.81c.48-.9-.88-1.7-1.36-.8Z"/><path class="cls-10" d="M35.7,31.2c-.32-.42-.63-20.84-.14-21.24s3.26-.24,3.5,0c.43.45.32,20.54.1,21C38.86,31.62,36.07,31.7,35.7,31.2Z"/><path class="cls-10" d="M30.93,14.94c.32-.35,8.16-1.08,12.21.26.67.25.55,2.81.15,3.13s-10,.47-12.18-.31C30.63,17.83,30.61,15.28,30.93,14.94Z"/></g></g></g></svg>