<?xml version="1.0" standalone="no"?><!DOCTYPE svg PUBLIC "-//W3C//DTD SVG 1.1//EN" "http://www.w3.org/Graphics/SVG/1.1/DTD/svg11.dtd"><svg t="1649679182043" class="icon" viewBox="0 0 1024 1024" version="1.1" xmlns="http://www.w3.org/2000/svg" p-id="6984" xmlns:xlink="http://www.w3.org/1999/xlink" width="200" height="200"><defs><style type="text/css">@font-face { font-family: "feedback-iconfont"; src: url("//at.alicdn.com/t/font_1031158_u69w8yhxdu.woff2?t=1630033759944") format("woff2"), url("//at.alicdn.com/t/font_1031158_u69w8yhxdu.woff?t=1630033759944") format("woff"), url("//at.alicdn.com/t/font_1031158_u69w8yhxdu.ttf?t=1630033759944") format("truetype"); }
</style></defs><path d="M964.093744 1009.014937H59.908256a6.695582 6.695582 0 0 1-6.697582-6.697582v-67.717767a6.695582 6.695582 0 0 1 6.697582-6.697582h904.185488a6.695582 6.695582 0 0 1 6.697582 6.697582v67.717767a6.699581 6.699581 0 0 1-6.697582 6.697582z" fill="#918291" p-id="6985"></path><path d="M970.795325 934.593588v67.733767a6.695582 6.695582 0 0 1-6.693581 6.693581H921.142429a6.699581 6.699581 0 0 0 6.71358-6.693581v-67.733767a6.699581 6.699581 0 0 0-6.71358-6.693582h42.957315a6.693582 6.693582 0 0 1 6.695581 6.693582z" fill="#7A6D79" p-id="6986"></path><path d="M97.887882 125.800137h828.228236V927.902006H97.887882z" fill="#F3F0F3" p-id="6987"></path><path d="M886.154615 125.800137h39.961503V927.902006h-39.961503z" fill="#E2DEE2" p-id="6988"></path><path d="M253.538154 924.7982V639.988001c0-141.92713 115.054809-256.979939 256.979939-256.979939h2.963814c141.92513 0 256.979939 115.054809 256.979939 256.979939V927.902006z" fill="#554E56" p-id="6989"></path><path d="M770.469846 639.980001v287.920005l-39.961503-0.239985V639.980001c0-135.707518-105.197425-246.840572-238.487094-256.30998 6.113618-0.439973 12.287232-0.659959 18.502843-0.659959h2.957815c141.91913 0 256.987938 115.04681 256.987939 256.969939z" fill="#433F43" p-id="6990"></path><path d="M714.095369 927.902006H309.908631V639.932004c0-110.973064 89.962377-200.935442 200.935441-200.935441h2.317855c110.973064 0 200.935442 89.962377 200.935442 200.935441V927.902006z" fill="#E49280" p-id="6991"></path><path d="M714.105368 639.940004v287.960002h-39.961502V639.940004c0-104.617461-79.963002-190.594088-182.122617-200.065496 6.193613-0.579964 12.467221-0.879945 18.820823-0.879945h2.317856c110.973064 0 200.945441 89.972377 200.94544 200.945441z" fill="#DD7F66" p-id="6992"></path><path d="M309.898631 732.130242h404.206737v97.883882H309.898631zM714.045372 634.764327H309.958628c0.899944-35.725767 11.129304-69.131679 28.352228-97.883882h347.382288c17.222924 28.750203 27.452284 62.158115 28.352228 97.883882z" fill="#F0BDB1" p-id="6993"></path><path d="M674.143866 732.130242h39.961502v97.883882h-39.961502zM714.045372 634.764327h-39.981501a199.717518 199.717518 0 0 0-28.332229-97.883882h39.961502c0.599963 0.999938 1.199925 2.017874 1.777889 3.03781 8.111493 14.263109 14.573089 29.252172 19.000813 45.015187a187.104306 187.104306 0 0 1 3.555777 14.507093c2.001875 9.811387 3.145803 19.606775 3.775764 29.590151 0.121992 1.897881 0.201987 3.815762 0.241985 5.733641z" fill="#EAA998" p-id="6994"></path><path d="M964.093744 125.800137H59.908256a6.695582 6.695582 0 0 1-6.697582-6.697581V21.682645a6.695582 6.695582 0 0 1 6.697582-6.697582h904.185488a6.695582 6.695582 0 0 1 6.697582 6.697582v97.419911a6.695582 6.695582 0 0 1-6.697582 6.697581z" fill="#918291" p-id="6995"></path><path d="M970.795325 21.680645v97.425911a6.695582 6.695582 0 0 1-6.693581 6.693581H921.142429a6.699581 6.699581 0 0 0 6.71358-6.693581V21.680645a6.699581 6.699581 0 0 0-6.71358-6.693582h42.957315a6.695582 6.695582 0 0 1 6.695581 6.693582z" fill="#7A6D79" p-id="6996"></path><path d="M604.64021 722.090869l-19.51678 30.150116c-2.39785 3.705768-8.077495 2.71383-9.047435-1.591901-4.737704-21.044685-18.256859-68.701706-53.604649-134.409599-4.48172-8.331479-16.458971-8.331479-20.942692 0-35.347791 65.707893-48.866946 113.364915-53.604649 134.409599-0.969939 4.305731-6.649584 5.295669-9.047435 1.591901l-19.51678-30.150116c-2.387851-3.68777-7.803512-3.767765-10.23936-0.109993-70.213612 105.449409 5.27767 205.92113 5.27767 205.92113h195.2038s75.491282-100.471721 5.27767-205.92113c-2.433848-3.657771-7.851509-3.577776-10.23936 0.109993z" fill="#FEE97D" p-id="6997"></path><path d="M522.471346 616.241485c23.03856 42.797325 36.8037 77.963127 44.897193 103.079557-1.717893 0.199988-3.375789 1.137929-4.435722 2.777827l-19.52078 30.150115c-2.39785 3.695769-8.071496 2.697831-9.051435-1.5979-4.235735-18.840822-15.505031-59.022311-43.217298-114.368852a729.308418 729.308418 0 0 1 10.38935-20.040747c4.47372-8.331479 16.462971-8.331479 20.938692 0zM609.6059 927.900006h-41.719393s63.438035-84.438723 19.900756-179.744766l16.842948-26.054371c2.39785-3.695769 7.811512-3.775764 10.249359-0.119993 70.213612 105.455409-5.27367 205.91913-5.27367 205.91913z" fill="#FEDF30" p-id="6998"></path><path d="M562.430848 858.376351c-10.127367-33.077933-29.030186-55.076558-40.597463-66.127867a14.205112 14.205112 0 0 0-19.66677 0c-11.565277 11.051309-30.470096 33.049934-40.597463 66.127867 0 0-12.419224 38.319605 11.03931 69.525655h78.781076c23.460534-31.20605 11.04131-69.525655 11.04131-69.525655z" fill="#F3F0F3" p-id="6999"></path><path d="M551.385538 927.898006h-45.477157c23.456534-31.210049 11.029311-69.531654 11.02931-69.531654-6.853572-22.418599-17.76289-39.761515-27.67227-52.028748a145.5929 145.5929 0 0 1 12.907193-14.08712 14.189113 14.189113 0 0 1 19.660771 0c11.569277 11.049309 30.470096 33.047935 40.601463 66.115868 0 0 12.407225 38.321605-11.04931 69.531654z" fill="#E2DEE2" p-id="7000"></path><path d="M301.867133 66.963815l-71.959502 17.006937c-10.419349 2.461846-16.700956 13.095182-13.833136 23.408537l14.865071 53.43266a41.069433 41.069433 0 0 1-4.455721 32.315981l-30.374102 50.062871a46.357103 46.357103 0 0 0 57.816387 66.685832l60.764202-25.914381c38.155615-16.272983 57.486407-59.062309 44.47522-98.449847l-35.053809-106.111368a18.858821 18.858821 0 0 0-22.24461-12.437222z" fill="#EE6161" p-id="7001"></path><path d="M314.696331 283.964252l-60.760202 25.914381a46.471096 46.471096 0 0 1-18.182864 3.715767 46.333104 46.333104 0 0 1-34.765827-15.685019 45.015187 45.015187 0 0 1-3.815761-4.975689 43.423286 43.423286 0 0 0 13.527154-3.375789l58.122368-24.796451c36.48372-15.545028 54.986563-56.48447 42.539341-94.148115l-32.447972-98.223861 22.958565-5.433661c9.511406-2.23786 19.180801 3.157803 22.23861 12.447222l35.065809 106.117368c13.005187 39.381539-6.335604 82.180864-44.479221 98.443847z" fill="#E94444" p-id="7002"></path><path d="M537.570402 66.963815l-71.959503 17.006937c-10.419349 2.461846-16.700956 13.095182-13.833135 23.408537l14.865071 53.43266a41.069433 41.069433 0 0 1-4.455722 32.315981l-30.374101 50.062871a46.357103 46.357103 0 0 0 57.816386 66.685832l60.764202-25.914381c38.155615-16.272983 57.486407-59.062309 44.475221-98.449847l-35.053809-106.111368a18.858821 18.858821 0 0 0-22.24461-12.437222z" fill="#EE6161" p-id="7003"></path><path d="M550.3996 283.964252l-60.760202 25.914381a46.471096 46.471096 0 0 1-18.182864 3.715767 46.333104 46.333104 0 0 1-34.765827-15.685019 45.015187 45.015187 0 0 1-3.815762-4.975689 43.423286 43.423286 0 0 0 13.527155-3.375789l58.122367-24.796451c36.48372-15.545028 54.986563-56.48447 42.539342-94.148115l-32.447972-98.223861 22.958565-5.433661c9.511406-2.23786 19.180801 3.157803 22.23861 12.447222l35.065808 106.117368c13.005187 39.381539-6.335604 82.180864-44.47922 98.443847z" fill="#E94444" p-id="7004"></path><path d="M773.27367 66.963815l-71.959502 17.006937c-10.419349 2.461846-16.700956 13.095182-13.833136 23.408537l14.865071 53.43266a41.069433 41.069433 0 0 1-4.455721 32.315981l-30.374102 50.062871a46.357103 46.357103 0 0 0 57.816387 66.685832l60.764202-25.914381c38.155615-16.272983 57.486407-59.062309 44.47522-98.449847l-35.053809-106.111368a18.858821 18.858821 0 0 0-22.24461-12.437222z" fill="#EE6161" p-id="7005"></path><path d="M786.102869 283.964252l-60.760203 25.914381a46.471096 46.471096 0 0 1-18.182863 3.715767 46.333104 46.333104 0 0 1-34.765828-15.685019 45.015187 45.015187 0 0 1-3.815761-4.975689 43.423286 43.423286 0 0 0 13.527154-3.375789l58.122368-24.796451c36.48372-15.545028 54.986563-56.48447 42.539341-94.148115l-32.447972-98.223861 22.958565-5.433661c9.511406-2.23786 19.180801 3.157803 22.23861 12.447222l35.065809 106.117368c13.005187 39.381539-6.335604 82.180864-44.47922 98.443847z" fill="#E94444" p-id="7006"></path><path d="M176.16099 425.407412h27.314293a14.985063 14.985063 0 0 0 0-29.970127H176.16099a14.985063 14.985063 0 0 0 0 29.970127zM336.738954 369.466908h27.314293a14.985063 14.985063 0 0 0 0-29.970127H336.738954a14.985063 14.985063 0 0 0 0 29.970127zM155.67427 663.822511H182.988563a14.985063 14.985063 0 0 0 0-29.970127H155.67427a14.985063 14.985063 0 0 0 0 29.970127zM225.339916 479.904006H198.025623a14.985063 14.985063 0 0 0 0 29.970127h27.314293a14.985063 14.985063 0 0 0 0-29.970127zM210.304856 699.142304H182.988563a14.985063 14.985063 0 0 0 0 29.970126h27.314293a14.985063 14.985063 0 0 0 0.002-29.970126zM182.988563 789.162677H155.67427a14.985063 14.985063 0 0 0 0 29.970127H182.988563a14.985063 14.985063 0 0 0 0-29.970127zM719.179051 397.993125h27.314293a14.985063 14.985063 0 1 0 0-29.970126h-27.314293a14.985063 14.985063 0 1 0 0 29.970126zM877.151178 674.315855h-27.314293a14.985063 14.985063 0 1 0 0 29.970127h27.314293a14.985063 14.985063 0 1 0 0-29.970127zM829.366165 618.865321h27.314292a14.985063 14.985063 0 1 0 0-29.970127h-27.314292a14.985063 14.985063 0 1 0 0 29.970127zM849.834885 449.929879h27.314293a14.985063 14.985063 0 1 0 0-29.970126h-27.314293a14.985063 14.985063 0 1 0 0 29.970126zM856.682457 817.772889H829.368164a14.985063 14.985063 0 1 0 0 29.970127h27.314293a14.985063 14.985063 0 0 0 14.985064-14.985063 14.983064 14.983064 0 0 0-14.985064-14.985064z" p-id="7007"></path><path d="M964.093744 140.785201c11.955253 0 21.682645-9.727392 21.682645-21.682645V21.682645C985.774389 9.727392 976.048997 0 964.093744 0h-96.357977a14.985063 14.985063 0 1 0 0 29.970127h88.068495v80.844947h-134.127617l-11.929254-36.115743c-5.547653-16.790951-22.71458-26.390351-39.921505-22.320605l-71.961503 17.006937a33.559903 33.559903 0 0 0-21.352665 15.721018c-4.623711 7.827511-5.879633 16.932942-3.599775 25.708393h-86.938566l-11.929255-36.111743c-5.547653-16.79495-22.71258-26.388351-39.923505-22.322605h0.002l-71.959502 17.006937a33.557903 33.557903 0 0 0-21.354666 15.723018c-4.625711 7.827511-5.879633 16.932942-3.597775 25.706393h-86.938566l-11.929254-36.113743c-5.547653-16.79495-22.71658-26.388351-39.921505-22.322605l-71.959503 17.006937a33.557903 33.557903 0 0 0-21.354665 15.723018c-4.625711 7.827511-5.879633 16.932942-3.597775 25.706393H68.195738V29.970127h730.986313a14.985063 14.985063 0 1 0 0-29.970127H59.908256c-11.955253 0-21.682645 9.727392-21.682645 21.682645v97.419911c0 11.955253 9.727392 21.682645 21.682645 21.682645h22.992563v772.129742H59.908256c-11.955253 0-21.682645 9.727392-21.682645 21.682645v67.717767c0 11.955253 9.727392 21.682645 21.682645 21.682645h904.185488c11.955253 0 21.682645-9.727392 21.682645-21.682645v-67.717767c0-11.955253-9.727392-21.682645-21.682645-21.682645H941.101181V140.785201z m-247.310543 16.008999l-14.867071-53.43066a3.803762 3.803762 0 0 1 0.397975-3.009812 3.795763 3.795763 0 0 1 2.443848-1.799888l71.959502-17.006937a3.861759 3.861759 0 0 1 4.573714 2.555841l35.05181 106.111368c10.481345 31.730017-5.385663 66.855822-36.125743 79.965002l-60.762202 25.91438a31.324042 31.324042 0 0 1-35.83376-8.101494 31.234048 31.234048 0 0 1-3.293794-37.025685l30.372101-50.062871a56.276483 56.276483 0 0 0 6.08362-44.109244z m-235.705268 0l-14.865071-53.43266a3.793763 3.793763 0 0 1 0.395975-3.007812 3.799763 3.799763 0 0 1 2.445847-1.799888l71.957503-17.006937h0.002a3.849759 3.849759 0 0 1 4.569714 2.555841l35.053809 106.111368c10.479345 31.730017-5.387663 66.855822-36.127742 79.965002l-60.762202 25.91438a31.326042 31.326042 0 0 1-35.831761-8.101494 31.234048 31.234048 0 0 1-3.295794-37.025685l30.374102-50.064871a56.242485 56.242485 0 0 0 6.08362-44.107244z m-235.703269 0l-14.865071-53.43266a3.793763 3.793763 0 0 1 0.395975-3.007812 3.799763 3.799763 0 0 1 2.445848-1.799888l71.959502-17.006937a3.849759 3.849759 0 0 1 4.569714 2.555841l35.05181 106.111368c10.481345 31.730017-5.385663 66.855822-36.125742 79.965002l-60.762203 25.91438a31.326042 31.326042 0 0 1-35.83176-8.101494 31.234048 31.234048 0 0 1-3.295794-37.025685l30.372101-50.062871a56.240485 56.240485 0 0 0 6.08562-44.109244z m-132.503718-16.008999h96.941941l6.687582 24.042497a26.184363 26.184363 0 0 1-2.829823 20.526717l-30.374102 50.062871c-13.997125 23.068558-11.407287 52.16274 6.443597 72.397476a61.238173 61.238173 0 0 0 70.063621 15.843009l60.762203-25.91438c21.92063-9.347416 39.393538-26.454347 49.204924-48.170989s11.097306-46.137116 3.621774-68.763703l-13.223174-40.027498h85.344666l6.687582 24.042498a26.182364 26.182364 0 0 1-2.829823 20.526717l-30.374101 50.062871c-13.997125 23.068558-11.407287 52.16274 6.443597 72.397475a61.238173 61.238173 0 0 0 70.063621 15.84301l60.762202-25.914381a94.56009 94.56009 0 0 0 49.204925-48.170989 94.55809 94.55809 0 0 0 3.621774-68.763702l-13.223174-40.027499h85.344666l6.689582 24.040498a26.194363 26.194363 0 0 1-2.831823 20.528717l-30.372102 50.062871c-13.999125 23.068558-11.409287 52.16274 6.443597 72.399475a61.236173 61.236173 0 0 0 70.065621 15.84301l60.764203-25.914381a94.55609 94.55609 0 0 0 49.202924-48.170989 94.548091 94.548091 0 0 0 3.621774-68.763702l-13.221174-40.027498h79.553028v772.129741H785.450909l-0.002-272.928942c0-149.960627-122.002375-271.965002-271.965002-271.965002h-2.965814c-149.960627 0-271.965002 122.002375-271.965003 271.965002v272.928942H112.870946z m400.288982 283.226298h-2.317856c-119.058559 0-215.920505 96.861946-215.920505 215.920505v270.129117l-26.39835-0.15799V639.986001c0-133.43566 108.559215-241.994875 241.994876-241.994875h2.965814c133.43566 0 241.994875 108.559215 241.994876 241.994875l0.001999 272.840947-26.39835-0.15799V639.932004c-0.002-119.058559-96.861946-215.920505-215.922504-215.920505z m146.524842 391.017562c-0.383976-23.344541-5.187676-46.145116-14.327105-67.913756h53.752641v67.913756z m39.425536 29.970127v67.487782l-62.72008-0.375977c5.75964-11.419286 12.065246-26.328354 16.672958-43.805262a204.577214 204.577214 0 0 0 4.717705-23.304544h41.329417z m-69.507656-127.856009c-0.739954-1.157928-1.481907-2.315855-2.24786-3.467784a21.000687 21.000687 0 0 0-17.534904-9.381413h-0.137991a21.082682 21.082682 0 0 0-17.620899 9.653396l-7.207549 11.137304c-5.567652-18.836823-14.575089-44.349228-28.884195-75.337291h143.143053v67.393788h-69.509655z m-52.862696 136.775451c-11.293294-36.829698-32.757953-61.234173-44.553216-72.505468a29.174177 29.174177 0 0 0-40.371476 0c-11.793263 11.269296-33.255922 35.667771-44.551216 72.505468-0.849947 2.699831-8.709456 29.28417 0.47597 57.986376h-26.618336c-5.933629-9.839385-15.509031-29.11218-21.470658-52.272733-10.71533-41.631398-5.747641-81.134929 14.753078-117.624648l11.893256 18.372851a19.942754 19.942754 0 0 0 20.284733 8.817449 19.912755 19.912755 0 0 0 15.963002-15.259046c4.725705-20.992688 17.380914-64.775952 49.454909-125.488157 32.075995 60.716205 44.731204 104.497469 49.454909 125.490157a19.906756 19.906756 0 0 0 15.963002 15.257046 19.942754 19.942754 0 0 0 20.282733-8.815449l11.895256-18.374851c20.500719 36.489719 25.468408 75.99525 14.753078 117.624648-6.193613 24.062496-16.282982 42.739329-22.132617 52.272733h-25.956377c9.189426-28.704206 1.325917-55.290544 0.47997-57.986376z m-32.899944 57.988376h-63.67802c-12.183239-22.960565-4.403725-48.692957-4.335729-48.910943l0.073995-0.233986c9.131429-29.826136 26.314355-49.712893 36.099744-59.180301 9.787388 9.467408 26.972314 29.358165 36.099744 59.180301l0.049997 0.15999c0.089994 0.283982 7.873508 26.022374-4.309731 48.984939z m-177.618899-66.907818c1.103931 7.739516 2.663834 15.51303 4.717705 23.304543 4.407725 16.722955 10.371352 31.094057 15.923005 42.307356l-61.970127-0.371977v-65.241922h41.329417z m-41.327417-29.970127v-67.913756h53.752641c-9.141429 21.770639-13.943129 44.571214-14.327105 67.913756z m0-97.885882v-67.393788h42.72133a14.985063 14.985063 0 0 0 0-29.970127h-41.625398c0.045997-0.425973 0.097994-0.851947 0.145991-1.27792 0.335979-2.911818 0.737954-5.799638 1.207924-8.679458a185.786388 185.786388 0 0 1 9.771389-36.173739 183.048559 183.048559 0 0 1 9.993376-21.782639h329.787388a185.748391 185.748391 0 0 1 5.645647 11.35929 185.222424 185.222424 0 0 1 14.381101 48.17099 186.388351 186.388351 0 0 1 0.951941 7.159552c0.045997 0.407975 0.095994 0.815949 0.139991 1.223924h-156.738204a777.44141 777.44141 0 0 0-5.609649-10.637335 26.834323 26.834323 0 0 0-23.666521-14.135117 26.832323 26.832323 0 0 0-23.666521 14.135117 777.039435 777.039435 0 0 0-5.607649 10.637335h-45.12118a14.985063 14.985063 0 0 0 0 29.970127h30.430098c-14.307106 30.986063-23.314543 56.500469-28.882195 75.337291l-7.211549-11.141304a21.086682 21.086682 0 0 0-17.620899-9.649396h-0.135992a20.998688 20.998688 0 0 0-17.532904 9.379413c-0.765952 1.151928-1.507906 2.309856-2.247859 3.467784z m42.373352-195.247797c34.131867-41.44341 85.820636-67.911756 143.575026-67.911756h2.317856c57.75639 0 109.44516 26.470346 143.577026 67.911756z m588.537216 420.991688v51.140803H68.195738v-51.140803z" p-id="7008"></path></svg>