<?xml version="1.0" standalone="no"?><!DOCTYPE svg PUBLIC "-//W3C//DTD SVG 1.1//EN" "http://www.w3.org/Graphics/SVG/1.1/DTD/svg11.dtd"><svg t="1649680306233" class="icon" viewBox="0 0 1024 1024" version="1.1" xmlns="http://www.w3.org/2000/svg" p-id="1851" xmlns:xlink="http://www.w3.org/1999/xlink" width="200" height="200"><defs><style type="text/css">@font-face { font-family: "feedback-iconfont"; src: url("//at.alicdn.com/t/font_1031158_u69w8yhxdu.woff2?t=1630033759944") format("woff2"), url("//at.alicdn.com/t/font_1031158_u69w8yhxdu.woff?t=1630033759944") format("woff"), url("//at.alicdn.com/t/font_1031158_u69w8yhxdu.ttf?t=1630033759944") format("truetype"); }
</style></defs><path d="M941.664402 484.150628c0 274.483414-308.883816 497.004184-429.664402 497.004184C399.137205 981.154812 82.335598 758.634042 82.335598 484.150628 82.335598 209.662929 274.701925 42.845188 512 42.845188s429.664402 166.817741 429.664402 441.30544z" fill="#DADAEB" p-id="1852"></path><path d="M884.033339 447.44087c0 238.32636-278.930745 431.528167-387.997456 431.528168C394.120033 878.960469 108.042711 685.76723 108.042711 447.44087 108.042711 209.110226 281.754243 64.267782 496.035883 64.267782c214.28164 0 387.997456 144.842444 387.997456 383.173088z" fill="#F0F0FF" p-id="1853"></path><path d="M748.154109 399.972686c0 179.491347-210.061389 324.993607-292.208469 324.993607-76.757155-0.004285-292.204184-145.506544-292.204184-324.993607S294.564954 111.39749 455.94564 111.39749s292.208469 109.088134 292.208469 288.575196z" fill="#FFFFFF" opacity=".42" p-id="1854"></path><path d="M223.986075 342.82149S438.430527 372.753138 438.430527 619.978444c0 0-239.230393-11.57677-214.444452-277.156954z" fill="#BABADE" p-id="1855"></path><path d="M221.025473 364.038427l-0.055699-0.008569c8.003481 1.161105 196.038159 31.041339 196.038159 255.948586a21.422594 21.422594 0 0 1 22.459448-21.396888c-0.852619-0.04713-90.900351-5.56559-147.880168-71.542895-37.892285-43.882042-53.462226-105.189222-46.272803-182.22487a21.422594 21.422594 0 0 1-24.288937 19.224636z m238.827648 255.940017c0-136.808971-63.17523-210.759766-116.174728-248.707749-57.236887-40.981423-114.3281-49.33195-116.731715-49.666143a21.422594 21.422594 0 0 0-24.288937 19.228921c-8.333389 89.323649 10.796987 161.530644 56.859849 214.615832 69.242109 79.790594 173.475883 85.716084 177.884653 85.934595a21.465439 21.465439 0 0 0 15.814159-5.886929 21.465439 21.465439 0 0 0 6.636719-15.518527z" fill="#6E6E96" p-id="1856"></path><path d="M799.011347 342.82149S584.549757 385.606695 584.549757 619.978444c0.012854 0 240.190126 1.276787 214.46159-277.156954z" fill="#BABADE" p-id="1857"></path><path d="M794.821088 321.814494c-2.382192 0.475582-59.002109 12.129473-115.84482 54.524786-52.845255 39.421858-115.840536 113.689707-115.840536 243.639164a21.422594 21.422594 0 0 0 21.422594 21.422594c4.203113 0.021423 106.213222-0.3599 175.900921-76.405825 48.586444-53.020921 68.736536-128.437021 59.893289-224.144602a21.439732 21.439732 0 0 0-8.517624-15.201473 21.452586 21.452586 0 0 0-17.013824-3.834644z m-188.840167 298.16395c0-214.337339 189.170075-254.543264 197.22497-256.149959a21.41831 21.41831 0 0 1-25.522878-19.040401c7.665004 82.982561-8.663297 147.233205-48.552168 190.965288-56.628485 62.095531-143.634209 62.798192-144.512535 62.798193a21.379749 21.379749 0 0 1 21.362611 21.426879z" fill="#6E6E96" p-id="1858"></path><path d="M920.241808 484.150628c0 259.569004-296.420151 475.58159-408.241808 475.58159C411.982192 959.732218 103.758192 745.759063 103.758192 484.150628c0-247.221021 167.880301-419.882845 408.241808-419.882846s408.241808 172.661824 408.241808 419.882846zM512 21.422594C388.100285 21.422594 274.881874 65.398895 193.206092 145.245188 106.658812 229.855866 60.913004 347.05031 60.913004 484.150628c0 169.019983 112.19441 302.397054 179.062896 366.85764C331.090477 938.832335 445.491414 1002.577406 512 1002.577406c70.308954 0 183.42882-62.361172 275.074678-151.650544 65.737372-64.040703 176.012318-196.847933 176.012318-366.776234 0-137.100318-45.745808-254.294762-132.293088-338.90544C749.118126 65.398895 635.904 21.422594 512 21.422594z" fill="#6E6E96" p-id="1859"></path><path d="M799.011347 336.36472s-214.46159 42.785205-214.46159 277.156954c0 0 3.637556 0.017138 9.922946-0.462728 40.964285-158.261556 195.421188-193.343197 204.114477-195.198394 2.874912-24.078996 3.234812-51.122879 0.424167-81.495832z m-575.025272 0c-2.840636 30.420084-2.185105 57.468251 1.152536 81.585807 14.498812 2.395046 165.386711 31.109891 204.213021 194.697105a141.431967 141.431967 0 0 0 9.078895 0.874042c0-247.221021-214.444452-277.156954-214.444452-277.156954z" fill="#6E6E96" opacity=".15" p-id="1860"></path></svg>