<?xml version="1.0" standalone="no"?><!DOCTYPE svg PUBLIC "-//W3C//DTD SVG 1.1//EN" "http://www.w3.org/Graphics/SVG/1.1/DTD/svg11.dtd"><svg t="1649680845752" class="icon" viewBox="0 0 1024 1024" version="1.1" xmlns="http://www.w3.org/2000/svg" p-id="96416" xmlns:xlink="http://www.w3.org/1999/xlink" width="200" height="200"><defs><style type="text/css">@font-face { font-family: "feedback-iconfont"; src: url("//at.alicdn.com/t/font_1031158_u69w8yhxdu.woff2?t=1630033759944") format("woff2"), url("//at.alicdn.com/t/font_1031158_u69w8yhxdu.woff?t=1630033759944") format("woff"), url("//at.alicdn.com/t/font_1031158_u69w8yhxdu.ttf?t=1630033759944") format("truetype"); }
</style></defs><path d="M691.12526065 935.22771227c-8.83738127 0-16.01775355-7.18037229-16.01775355-16.01775355 0-99.00628702-80.50301999-179.509307-179.50930699-179.50930701s-179.509307 80.50301999-179.50930701 179.50930701c0 8.83738127-7.18037229 16.01775355-16.01775355 16.01775355-8.83738127 0-16.01775355-7.18037229-16.01775353-16.01775355 0-116.68104955 94.86376453-211.54481408 211.54481409-211.54481409s211.54481408 94.86376453 211.54481409 211.54481409c0 8.83738127-7.18037229 16.01775355-16.01775355 16.01775355z" fill="#4C466D" p-id="96417"></path><path d="M495.59820011 821.44642845c-124.96609449 0-227.1483154-102.18222091-227.1483154-227.1483154v-124.96609448c0-124.96609449 102.18222091-227.1483154 227.1483154-227.14831539s227.1483154 102.18222091 227.14831539 227.14831539v124.96609448c0 124.96609449-102.18222091 227.1483154-227.14831539 227.1483154z" fill="#49DAF2" p-id="96418"></path><path d="M495.59820011 242.18370318c124.96609449 0 227.1483154 102.18222091 227.14831539 227.14831539v124.96609448c0 124.96609449-102.18222091 227.1483154-227.14831539 227.1483154s-227.1483154-102.18222091-227.1483154-227.1483154v-124.96609448c0-124.96609449 102.18222091-227.1483154 227.1483154-227.14831539m0-32.03550709c-142.91702518 0-259.18382249 116.2667973-259.18382249 259.18382248v124.96609448c0 142.91702518 116.2667973 259.18382249 259.18382249 259.18382249s259.18382249-116.2667973 259.18382248-259.18382249v-124.96609448c0-142.91702518-116.2667973-259.18382249-259.18382248-259.18382248z" fill="#4C466D" p-id="96419"></path><path d="M495.59820011 770.76957024c-95.83035312 0-173.84785962-78.01750651-173.84785963-173.84785963v-130.07520552c0-95.83035312 78.01750651-173.84785962 173.84785963-173.84785962s173.84785962 78.01750651 173.8478596 173.84785962v130.07520552c0 95.83035312-78.01750651 173.84785962-173.8478596 173.84785963z" fill="#38C9F1" p-id="96420"></path><path d="M495.59820011 708.21748095c-61.30933253 0-111.29577034-49.84835372-111.29577034-111.29577034v-130.07520552c0-61.30933253 49.84835372-111.29577034 111.29577034-111.29577034s111.29577034 49.84835372 111.29577032 111.29577034v130.07520552c0 61.30933253-49.98643779 111.29577034-111.29577032 111.29577034z" fill="#49BCEA" p-id="96421"></path><path d="M741.24978252 172.45124162c17.39859437 0 31.48317076 14.08457639 31.48317076 31.48317076 0 17.39859437-14.08457639 31.48317076-31.48317076 31.48317076-17.39859437 0-31.48317076-14.08457639-31.48317075-31.48317076 0.13808409-17.39859437 14.22266047-31.48317076 31.48317075-31.48317076m0-32.0355071c-34.93527282 0-63.38059378 28.44532095-63.38059377 63.38059378 0 34.93527282 28.44532095 63.38059378 63.38059377 63.38059378 34.93527282 0 63.38059378-28.44532095 63.38059378-63.38059378 0.13808409-34.93527282-28.30723687-63.38059378-63.38059378-63.38059378z" fill="#4C466D" p-id="96422"></path><path d="M495.59820011 738.18172682m-23.61237808 0a23.61237808 23.61237808 0 1 0 47.22475614 0 23.61237808 23.61237808 0 1 0-47.22475614 0Z" fill="#F7554A" p-id="96423"></path><path d="M495.59820011 714.56934875c12.97990373 0 23.61237808 10.63247434 23.61237806 23.61237807 0 12.97990373-10.63247434 23.61237808-23.61237806 23.61237807-12.97990373 0-23.61237808-10.63247434-23.61237808-23.61237807 0-13.11798782 10.49439025-23.61237808 23.61237808-23.61237807m0-32.03550712c-30.65466627 0-55.64788517 24.9932189-55.64788517 55.64788519 0 30.65466627 24.9932189 55.64788517 55.64788517 55.64788517S551.24608528 768.83639309 551.24608528 738.18172682c0-30.65466627-24.9932189-55.64788517-55.64788517-55.64788519z" fill="#4C466D" p-id="96424"></path><path d="M395.34915635 723.82098225m-23.61237808 0a23.61237808 23.61237808 0 1 0 47.22475616 0 23.61237808 23.61237808 0 1 0-47.22475616 0Z" fill="#4C466D" p-id="96425"></path><path d="M595.84724385 723.82098225m-23.61237807 0a23.61237808 23.61237808 0 1 0 47.22475615 0 23.61237808 23.61237808 0 1 0-47.22475615 0Z" fill="#4C466D" p-id="96426"></path><path d="M904.18899965 268.00542657c-0.27616816 16.70817396-24.57896666 94.58759638-56.20022151 94.03526004 31.62125485 0.55233633 53.30045577 74.01306812 53.02428761 95.96843721 0.41425225-21.817285 26.92639605-94.58759638 56.2002215-94.03526005-29.27382545-0.55233633-53.30045577-76.63666569-53.0242876-95.9684372z" fill="#FFFFFF" p-id="96427"></path><path d="M901.01306575 473.88879328h-0.27616817c-8.69929718-0.13808409-15.74158539-7.31845635-15.74158538-16.01775355v-0.27616816c0.13808409-7.87079269-4.28060655-29.27382545-13.11798781-49.1579333-9.11354943-20.71261235-18.91751926-30.3784981-24.16471441-30.37849811-8.69929718-0.13808409-15.74158539-7.31845635-15.74158538-16.01775355v-0.27616816c0.13808409-8.69929718 7.31845635-15.74158539 16.01775354-15.74158538h0.41425224c15.18924905 0 39.49204754-59.92849171 39.90629979-78.29367467 0.13808409-8.83738127 7.31845635-15.87966947 16.29392171-15.74158537 8.83738127 0.13808409 15.87966947 7.45654045 15.7415854 16.2939217-0.41425225 21.40303275 24.71705073 79.39834732 37.28270222 79.67451549 8.69929718 0.13808409 15.74158539 7.31845635 15.74158539 16.01775355v0.27616817c-0.13808409 8.69929718-7.31845635 15.74158539-16.01775357 15.74158538h-0.27616815c-3.1759339 0-13.11798782 7.18037229-24.30279849 29.82616177-9.94205392 20.16027601-15.46541722 41.14905653-15.6035013 48.60559697-0.27616816 8.42312903-7.45654045 15.46541722-16.15583763 15.46541722z m-20.57452826-111.71002258c7.59462453 8.14696086 14.49882864 19.33177153 20.71261234 33.27826383 0.41425225 0.96658859 0.8285045 1.93317715 1.24275674 3.03784982 0.55233633-1.10467265 0.96658859-2.07126124 1.51892491-3.03784982 6.76612003-13.67032415 13.9464923-24.44088257 21.54111683-32.17359117-8.97546534-9.94205392-16.29392172-23.33620992-22.09345316-37.00653406-5.93761554 13.2560719-13.67032415 26.23597565-22.92195766 35.9018614z" fill="#4C466D" p-id="96428"></path><path d="M164.19640257 381.51054222c-0.13808409 13.9464923-19.88410785 79.67451549-46.39625166 79.53643141 26.65022788 0.13808409 45.42966308 61.86166887 45.29157901 80.08876774 0.13808409-18.36518295 21.817285-79.67451549 46.39625165-79.53643141-24.44088257-0.13808409-45.42966308-63.79484603-45.291579-80.08876774z" fill="#FFFFFF" p-id="96429"></path><path d="M163.09172992 557.15349491c-8.97546534 0-16.01775355-7.18037229-16.01775356-16.01775354v-0.13808409c0.13808409-19.05560336-18.91751926-63.9329301-29.41190953-64.07101419-8.83738127 0-15.87966947-7.18037229-15.87966945-16.01775354v-0.13808408c0-8.83738127 7.18037229-15.87966947 16.01775353-15.87966947h0.13808409c10.35630617 0 30.10232993-48.19134474 30.3784981-63.65676193 0-8.83738127 7.18037229-15.87966947 16.01775357-15.87966948h0.13808406c8.83738127 0 15.87966947 7.31845635 15.87966947 16.15583763-0.13808409 14.49882864 18.7794352 61.30933253 29.54999361 64.0710142 0.41425225 0 0.8285045 0 1.24275674 0.13808408 8.28504494 0.69042042 14.63691274 7.59462453 14.49882865 16.01775354 0 8.83738127-7.31845635 15.87966947-16.15583763 15.87966946h-0.13808408c-10.21822208 1.79509307-30.24041403 46.67241982-30.37849811 63.65676195 0.13808409 8.69929718-7.04228819 15.87966947-15.87966946 15.87966946z m-14.49882864-96.10652128c6.07569962 6.90420412 11.18481067 15.32733314 15.32733312 24.1647144 4.97102697-9.80396985 10.08013802-17.81284661 15.60350131-24.02663031-5.3852792-6.35186779-10.49439025-14.63691274-15.32733314-24.71705075-4.41869063 8.97546534-9.52780169 17.53667845-15.60350129 24.57896666z" fill="#4C466D" p-id="96430"></path><path d="M495.59820011 464.22290753m-147.74996807 0a147.74996806 147.74996806 0 1 0 295.49993612 0 147.74996806 147.74996806 0 1 0-295.49993612 0Z" fill="#D7F7FF" p-id="96431"></path><path d="M495.59820011 316.47293947c81.60769264 0 147.74996806 66.14227541 147.74996805 147.74996806s-66.14227541 147.74996806-147.74996805 147.74996805-147.74996806-66.14227541-147.74996807-147.74996805c-0.13808409-81.60769264 66.14227541-147.74996806 147.74996807-147.74996806m0-32.03550712c-99.14437109 0-179.78547517 80.64110406-179.78547517 179.78547518s80.64110406 179.78547517 179.78547517 179.78547515 179.78547517-80.64110406 179.78547515-179.78547515-80.64110406-179.78547517-179.78547515-179.78547518z" fill="#4C466D" p-id="96432"></path><path d="M862.07335454 634.20441283m-50.95302638 0a50.95302637 50.95302637 0 1 0 101.90605275 0 50.95302637 50.95302637 0 1 0-101.90605275 0Z" fill="#F7554A" p-id="96433"></path><path d="M862.07335454 583.25138647c28.1691528 0 50.95302637 22.78387358 50.95302637 50.95302636s-22.78387358 50.95302637-50.95302637 50.95302637-50.95302637-22.78387358-50.95302638-50.95302637 22.78387358-50.95302637 50.95302638-50.95302636m0-32.0355071c-45.70583125 0-82.98853347 37.28270222-82.98853347 82.98853346s37.28270222 82.98853347 82.98853347 82.98853348 82.98853347-37.28270222 82.98853346-82.98853348-37.28270222-82.98853347-82.98853346-82.98853346z" fill="#4C466D" p-id="96434"></path><path d="M616.97410845 380.1297014c1.79509307 9.11354943 2.76168163 18.50326702 2.76168164 28.1691528 0 81.60769264-66.14227541 147.74996806-147.74996806 147.74996805-50.26260596 0-94.72568046-25.13130297-121.37590834-63.65676195 13.11798782 68.07545259 73.04647954 119.58081526 144.98828642 119.58081528 81.60769264 0 147.74996806-66.14227541 147.74996805-147.74996805 0-31.2070026-9.80396985-60.20465988-26.37405971-84.09320613z" fill="#C1E6EA" p-id="96435"></path><path d="M207.6928885 835.807173c-68.07545259 0-121.51399243-10.08013802-152.72099503-30.51658218-19.33177153-12.70373557-30.5165822-29.13574137-33.00209568-48.74368106-9.25163351-70.83713422 37.28270222-123.72333775 165.70089878-188.76094051 7.87079269-4.00443838 17.53667845-0.8285045 21.54111683 7.0422882 4.00443838 7.87079269 0.8285045 17.53667845-7.04228819 21.54111683-131.45604637 66.41844358-154.37800401 110.46726585-148.44038847 156.03501302 1.38084082 10.08013802 7.45654045 18.64135111 18.77943519 26.09789155 65.45185502 42.9441496 266.0880266 29.82616178 477.21858843-31.2070026 274.51115562-79.26026325 429.44149597-196.90790137 420.74219879-264.70718578-5.5233633-42.1156451-75.11774077-62.69017337-191.24645399-56.33830558-8.69929718 0.55233633-16.29392172-6.2137837-16.84625805-15.05116498-0.41425225-8.83738127 6.2137837-16.43200579 15.05116498-16.84625804 175.36678453-9.52780169 219.00135453 40.45863612 224.66280189 84.09320613 12.70373557 97.34927803-169.84342124 220.52027943-443.66415643 299.6424586-131.8702986 38.11120672-255.59363635 57.7191464-350.73356905 57.7191464z" fill="#4C466D" p-id="96436"></path><path d="M118.49057132 685.70977554c-0.13808409 18.7794352-26.51214381 106.60091154-62.13783704 106.46282746 35.62569324 0.27616816 60.8950803 82.7123653 60.61891215 107.29133195 0.13808409-24.57896666 29.27382545-106.60091154 62.13783704-106.46282746-32.86401158-0.27616816-60.75699621-85.47404695-60.61891215-107.29133195z" fill="#FFFFFF" p-id="96437"></path><path d="M116.97164643 915.34360442c-8.97546534 0-16.01775355-7.18037229-16.01775354-16.01775356v-0.13808408c0-8.97546534-5.24719513-33.554432-15.46541723-56.06213741-11.737147-25.8217234-23.06004175-35.07335691-29.27382544-35.07335691-8.83738127 0-15.87966947-7.18037229-15.87966947-16.01775355v-0.13808408c0-8.83738127 7.18037229-15.87966947 16.01775353-15.87966946h0.1380841c6.48995186 0 18.08901478-11.32289475 29.68807768-36.7303659 10.49439025-23.06004175 16.29392172-47.63900839 16.29392172-53.8527921 0-8.83738127 7.31845635-16.15583763 16.15583763-15.87966945 8.83738127 0 15.87966947 7.31845635 15.87966948 16.15583762 0 6.76612003 5.3852792 30.93083443 16.43200578 54.95746476 12.15139925 26.51214381 23.61237808 36.17802957 28.30723688 36.17802957 8.83738127 0 15.87966947 7.18037229 15.87966945 16.01775354v0.13808408c0 8.83738127-7.18037229 15.87966947-16.01775353 15.87966946h-0.13808409c-17.26051028 0-45.84391532 66.00419135-45.98199941 90.583158 0 8.83738127-7.18037229 15.87966947-16.01775354 15.87966947z m-26.78831198-123.30908551c8.97546534 8.97546534 17.26051028 21.67920092 24.57896665 37.97312264 1.10467265 2.48551348 2.20934532 4.97102697 3.1759339 7.45654043 7.31845635-16.84625804 16.98434213-33.27826384 28.44532095-44.87732673-8.69929718-9.11354943-16.84625804-21.95536909-24.44088256-38.52545896-1.24275675-2.76168163-2.48551348-5.5233633-3.59018614-8.28504494-0.96658859 2.3474294-1.93317715 4.55677472-3.03784981 6.76612002-7.7327086 17.12242621-16.15583763 30.24041403-25.13130299 39.49204754z" fill="#4C466D" p-id="96438"></path><path d="M444.64517373 499.84860075m-19.88410785 0a19.88410785 19.88410785 0 1 0 39.7682157 0 19.88410785 19.88410785 0 1 0-39.7682157 0Z" fill="#F7554A" p-id="96439"></path><path d="M444.64517373 479.96449291c11.04672658 0 19.88410785 8.97546534 19.88410785 19.88410784 0 11.04672658-8.97546534 19.88410785-19.88410785 19.88410785-11.04672658 0-19.88410785-8.97546534-19.88410785-19.88410785-0.13808409-10.90864251 8.83738127-19.88410785 19.88410785-19.88410784m0-32.03550711c-28.58340503 0-51.91961495 23.33620992-51.91961495 51.91961495 0 28.58340503 23.33620992 51.91961495 51.91961495 51.91961495 28.58340503 0 51.91961495-23.33620992 51.91961495-51.91961495-0.13808409-28.58340503-23.33620992-51.91961495-51.91961495-51.91961495z" fill="#4C466D" p-id="96440"></path><path d="M291.78609461 277.39514416c-0.96658859 0-2.07126124-0.13808409-3.17593387-0.27616816-8.69929718-1.65700898-14.36074457-10.08013802-12.5656515-18.7794352 4.14252247-21.12686459 16.29392172-39.21587937 34.10676833-51.22919453 17.81284661-12.01331517 39.21587937-16.29392172 60.34274397-12.15139925 8.69929718 1.65700898 14.36074457 10.08013802 12.56565149 18.7794352-1.65700898 8.69929718-10.08013802 14.22266047-18.7794352 12.5656515-12.70373557-2.48551348-25.54555523 0.13808409-36.31611365 7.31845636-10.77055842 7.18037229-18.08901478 18.22709886-20.57452825 30.93083443-1.38084082 7.45654045-8.14696086 12.84181965-15.60350132 12.84181965zM269.55455738 219.95216592c-0.96658859 0-2.07126124-0.13808409-3.1759339-0.27616816-8.69929718-1.65700898-14.36074457-10.08013802-12.56565148-18.77943519 2.76168163-14.08457639 10.90864251-26.37405971 22.92195764-34.38293649 12.01331517-8.00887677 26.37405971-10.90864251 40.45863613-8.14696086 8.69929718 1.65700898 14.36074457 10.08013802 12.56565149 18.7794352-1.65700898 8.69929718-10.08013802 14.36074457-18.77943519 12.56565148-5.79953147-1.10467265-11.59906291 0-16.43200579 3.31401797s-8.14696086 8.28504494-9.38971761 14.0845764c-1.51892491 7.45654045-8.14696086 12.84181965-15.60350129 12.84181965z" fill="#4C466D" p-id="96441"></path><path d="M452.65405051 519.7327086l42.9441496 106.04857522" fill="#F7554A" p-id="96442"></path><path d="M437.89286211 525.79459982l29.69636273-12.01745769 42.8861543 105.98781822-29.69774359 12.01607684z" fill="#4C466D" p-id="96443"></path><path d="M656.89421664 282.99859623l40.41859174-50.77765959 25.06502261 19.9531499-40.41997257 50.77627874zM496.97904093 949.17420459c-8.83738127 0-16.01775355-7.18037229-16.01775355-16.01775357v-86.99297184c0-8.83738127 7.18037229-16.01775355 16.01775355-16.01775355 8.83738127 0 16.01775355 7.18037229 16.01775354 16.01775355v86.99297184c0 8.83738127-7.18037229 16.01775355-16.01775354 16.01775357z" fill="#4C466D" p-id="96444"></path></svg>