<?xml version="1.0" encoding="iso-8859-1"?>
<!-- Generator: Adobe Illustrator 23.0.0, SVG Export Plug-In . SVG Version: 6.00 Build 0)  -->
<svg version="1.1" id="&#x56FE;&#x5C42;_1" xmlns="http://www.w3.org/2000/svg" xmlns:xlink="http://www.w3.org/1999/xlink" x="0px"
	 y="0px" viewBox="0 0 1040 720" style="enable-background:new 0 0 1040 720;" xml:space="preserve">
<g>
	<path style="fill:#F0F0FF;" d="M29.251,438.415c0,0,9.488-351.628,342.14-407.418s337.321,2.682,434.743,25.238
		c154.086,35.675,203.614,133.782,203.614,382.179S862.114,713,490.182,713S29.251,598.764,29.251,438.415z"/>
	<path style="fill:#C7D0FF;" d="M224.136,108.041C366.268-19.669,673.302,37.639,714.859,51.302
		c66.037,21.064,275.18,183.822,285.022,325.251c9.842,141.429,0.723,329.367-367.681,329.367
		c-250.906,0-394.689,6.672-478.845-84.195C12.045,469.145,48.228,256.814,224.136,108.041z"/>
	<g>
		<defs>
			<path id="SVGID_1_" d="M83.288,417.505c0-156.399,168.77-370.188,310.982-370.188c204.965,0,590.051,76.666,590.051,392.092
				c0,266.38-439.058,263.293-497.1,263.293S83.288,705.979,83.288,417.505z"/>
		</defs>
		<clipPath id="SVGID_2_">
			<use xlink:href="#SVGID_1_"  style="overflow:visible;"/>
		</clipPath>
		<linearGradient id="SVGID_3_" gradientUnits="userSpaceOnUse" x1="83.2875" y1="375.0104" x2="984.3206" y2="375.0104">
			<stop  offset="0" style="stop-color:#110443"/>
			<stop  offset="1" style="stop-color:#1D136A"/>
		</linearGradient>
		<path style="clip-path:url(#SVGID_2_);fill:url(#SVGID_3_);" d="M83.288,417.505c0-156.399,168.77-370.188,310.982-370.188
			c204.965,0,590.051,76.666,590.051,392.092c0,266.38-439.058,263.293-497.1,263.293S83.288,705.979,83.288,417.505z"/>
		<g style="opacity:0.5;clip-path:url(#SVGID_2_);">
			
				<linearGradient id="SVGID_4_" gradientUnits="userSpaceOnUse" x1="4888.0747" y1="-2382.2166" x2="5090.3569" y2="-2382.2166" gradientTransform="matrix(0.7071 -0.7071 0.7071 0.7071 -1326.7733 5856.8857)">
				<stop  offset="0" style="stop-color:#6E1475"/>
				<stop  offset="1" style="stop-color:#2C0356"/>
			</linearGradient>
			<path style="opacity:0.5;fill:url(#SVGID_4_);" d="M588.171,590.152L462.309,716.014c-4.742,4.742-12.431,4.742-17.173,0l0,0
				c-4.742-4.742-4.742-12.431,0-17.173l125.862-125.862c4.742-4.742,12.431-4.742,17.173,0l0,0
				C592.913,577.721,592.913,585.41,588.171,590.152z"/>
			
				<linearGradient id="SVGID_5_" gradientUnits="userSpaceOnUse" x1="4699.3662" y1="-7513.3667" x2="4901.6484" y2="-7513.3667" gradientTransform="matrix(0.643 -0.643 0.4173 0.4173 565.1504 6866.772)">
				<stop  offset="0" style="stop-color:#F2BD37"/>
				<stop  offset="0.2648" style="stop-color:#A2006F"/>
				<stop  offset="0.6147" style="stop-color:#920774;stop-opacity:0"/>
			</linearGradient>
			<path style="fill:url(#SVGID_5_);" d="M581.691,589.594L461.751,709.533c-2.799,2.799-7.336,2.799-10.135,0h0
				c-2.799-2.799-2.799-7.336,0-10.135l119.939-119.939c2.799-2.799,7.336-2.799,10.135,0l0,0
				C584.49,582.258,584.49,586.795,581.691,589.594z"/>
			
				<linearGradient id="SVGID_6_" gradientUnits="userSpaceOnUse" x1="2834.1787" y1="-16728.0527" x2="3036.8328" y2="-16728.0527" gradientTransform="matrix(0.2512 -0.2512 0.2404 0.2404 3764.6387 5438.8462)">
				<stop  offset="0" style="stop-color:#FFF31A"/>
				<stop  offset="0.5558" style="stop-color:#F9AD37"/>
				<stop  offset="0.999" style="stop-color:#BB2D76;stop-opacity:0"/>
			</linearGradient>
			<path style="fill:url(#SVGID_6_);" d="M461.284,705.703c-1.612,1.612-4.226,1.612-5.838,0l0,0c-1.612-1.612-1.612-4.226,0-5.838
				l50.418-45.561L461.284,705.703z"/>
		</g>
		<g style="opacity:0.5;clip-path:url(#SVGID_2_);">
			<linearGradient id="SVGID_7_" gradientUnits="userSpaceOnUse" x1="200.3332" y1="415.6203" x2="200.3332" y2="390.7341">
				<stop  offset="0" style="stop-color:#0C4594;stop-opacity:0"/>
				<stop  offset="1" style="stop-color:#394987"/>
			</linearGradient>
			<polygon style="fill:url(#SVGID_7_);" points="216.037,416.972 184.63,416.972 193.337,388.789 207.33,388.789 			"/>
			<path style="fill:#090933;" d="M227.681,392.058h-55.318c-1.792,0-3.257-1.466-3.257-3.257l0,0c0-1.792,1.466-3.257,3.257-3.257
				h55.318c1.792,0,3.257,1.466,3.257,3.257l0,0C230.939,390.592,229.473,392.058,227.681,392.058z"/>
			<path style="fill:#090933;" d="M215.1,385.967c0,6.038-30.155,6.038-30.155,0s6.75-10.932,15.078-10.932
				S215.1,379.93,215.1,385.967z"/>
		</g>
		<g style="opacity:0.5;clip-path:url(#SVGID_2_);">
			<linearGradient id="SVGID_8_" gradientUnits="userSpaceOnUse" x1="617.239" y1="199.6718" x2="617.239" y2="174.7856">
				<stop  offset="0" style="stop-color:#0C4594;stop-opacity:0"/>
				<stop  offset="1" style="stop-color:#394987"/>
			</linearGradient>
			<polygon style="fill:url(#SVGID_8_);" points="632.942,201.024 601.536,201.024 610.242,172.84 624.236,172.84 			"/>
			<path style="fill:#090933;" d="M644.587,176.109h-55.318c-1.792,0-3.258-1.466-3.258-3.257l0,0c0-1.792,1.466-3.257,3.258-3.257
				h55.318c1.792,0,3.257,1.466,3.257,3.257l0,0C647.845,174.644,646.379,176.109,644.587,176.109z"/>
			<path style="fill:#090933;" d="M632.006,170.019c0,6.038-30.155,6.038-30.155,0c0-6.038,6.75-10.932,15.078-10.932
				S632.006,163.981,632.006,170.019z"/>
		</g>
		<path style="opacity:0.5;clip-path:url(#SVGID_2_);fill:#35257E;" d="M351.277,13.54c0,0-167.242,207.639-122.396,258.835
			c42.886,48.958,108.733,47.82,149.722,153.137s86.556,91.919,191.09,110.251c104.534,18.332,101.902,70.212,170.785,66.606
			s126.95-69.073,113.857-149.152c-13.094-80.079,93.83-196.253,125.95-184.468c32.121,11.785,29.464,366.639,29.464,366.639
			L555.46,752.091c0,0-20.115-71.161-77.233-81.977c-57.118-10.816-183.499-77.802-210.256-165.092s-34.157-143.27-101.712-188.433
			c-55.86-37.344,61.483-219.364,82.736-257.127S351.277,13.54,351.277,13.54z"/>
		<g style="clip-path:url(#SVGID_2_);">
			
				<linearGradient id="SVGID_9_" gradientUnits="userSpaceOnUse" x1="5376.3613" y1="-2372.4211" x2="5578.6436" y2="-2372.4211" gradientTransform="matrix(0.7071 -0.7071 0.7071 0.7071 -1326.7733 5856.8857)">
				<stop  offset="0" style="stop-color:#6E1475"/>
				<stop  offset="1" style="stop-color:#2C0356"/>
			</linearGradient>
			<path style="opacity:0.5;fill:url(#SVGID_9_);" d="M940.368,251.807L814.506,377.669c-4.742,4.742-12.431,4.742-17.173,0l0,0
				c-4.742-4.742-4.742-12.431,0-17.173l125.862-125.862c4.742-4.742,12.431-4.742,17.173,0l0,0
				C945.111,239.376,945.111,247.065,940.368,251.807z"/>
			
				<linearGradient id="SVGID_10_" gradientUnits="userSpaceOnUse" x1="5236.3066" y1="-7496.769" x2="5438.5889" y2="-7496.769" gradientTransform="matrix(0.643 -0.643 0.4173 0.4173 565.1504 6866.772)">
				<stop  offset="0" style="stop-color:#F2BD37"/>
				<stop  offset="0.2648" style="stop-color:#A2006F"/>
				<stop  offset="0.6147" style="stop-color:#920774;stop-opacity:0"/>
			</linearGradient>
			<path style="fill:url(#SVGID_10_);" d="M933.888,251.249L813.949,371.189c-2.799,2.799-7.336,2.799-10.135,0v0
				c-2.799-2.799-2.799-7.336,0-10.135l119.939-119.939c2.799-2.799,7.336-2.799,10.135,0v0
				C936.687,243.913,936.687,248.451,933.888,251.249z"/>
			
				<linearGradient id="SVGID_11_" gradientUnits="userSpaceOnUse" x1="4208.6079" y1="-16699.2383" x2="4411.2617" y2="-16699.2383" gradientTransform="matrix(0.2512 -0.2512 0.2404 0.2404 3764.6387 5438.8462)">
				<stop  offset="0" style="stop-color:#FFF31A"/>
				<stop  offset="0.5558" style="stop-color:#F9AD37"/>
				<stop  offset="0.999" style="stop-color:#BB2D76;stop-opacity:0"/>
			</linearGradient>
			<path style="fill:url(#SVGID_11_);" d="M813.482,367.359c-1.612,1.612-4.226,1.612-5.838,0l0,0c-1.612-1.612-1.612-4.226,0-5.838
				l50.418-45.561L813.482,367.359z"/>
		</g>
		<g style="clip-path:url(#SVGID_2_);">
			
				<linearGradient id="SVGID_12_" gradientUnits="userSpaceOnUse" x1="4879.2188" y1="-2855.52" x2="4993.5767" y2="-2855.52" gradientTransform="matrix(0.7071 -0.7071 0.7071 0.7071 -1326.7733 5856.8857)">
				<stop  offset="0" style="stop-color:#6E1475"/>
				<stop  offset="1" style="stop-color:#2C0356"/>
			</linearGradient>
			<path style="opacity:0.5;fill:url(#SVGID_12_);" d="M185.061,316.445L113.906,387.6c-2.681,2.681-7.028,2.681-9.709,0h0
				c-2.681-2.681-2.681-7.028,0-9.709l71.155-71.155c2.681-2.681,7.028-2.681,9.709,0h0
				C187.742,309.417,187.742,313.764,185.061,316.445z"/>
			
				<linearGradient id="SVGID_13_" gradientUnits="userSpaceOnUse" x1="4685.2476" y1="-8315.3555" x2="4799.6055" y2="-8315.3555" gradientTransform="matrix(0.643 -0.643 0.4173 0.4173 565.1504 6866.772)">
				<stop  offset="0" style="stop-color:#F2BD37"/>
				<stop  offset="0.2648" style="stop-color:#A2006F"/>
				<stop  offset="0.6147" style="stop-color:#920774;stop-opacity:0"/>
			</linearGradient>
			<path style="fill:url(#SVGID_13_);" d="M181.397,316.13l-67.806,67.806c-1.582,1.582-4.148,1.582-5.73,0h0
				c-1.582-1.582-1.582-4.148,0-5.73l67.806-67.806c1.582-1.582,4.148-1.582,5.73,0h0C182.98,311.982,182.98,314.547,181.397,316.13
				z"/>
			
				<linearGradient id="SVGID_14_" gradientUnits="userSpaceOnUse" x1="2791.4114" y1="-18120.3047" x2="2905.9797" y2="-18120.3047" gradientTransform="matrix(0.2512 -0.2512 0.2404 0.2404 3764.6387 5438.8462)">
				<stop  offset="0" style="stop-color:#FFF31A"/>
				<stop  offset="0.5558" style="stop-color:#F9AD37"/>
				<stop  offset="0.999" style="stop-color:#BB2D76;stop-opacity:0"/>
			</linearGradient>
			<path style="fill:url(#SVGID_14_);" d="M113.327,381.771c-0.911,0.911-2.389,0.911-3.301,0l0,0c-0.911-0.911-0.911-2.389,0-3.301
				l28.503-25.757L113.327,381.771z"/>
		</g>
		<g style="clip-path:url(#SVGID_2_);">
			
				<linearGradient id="SVGID_15_" gradientUnits="userSpaceOnUse" x1="5435.5356" y1="-2660.1516" x2="5549.8936" y2="-2660.1516" gradientTransform="matrix(0.7071 -0.7071 0.7071 0.7071 -1326.7733 5856.8857)">
				<stop  offset="0" style="stop-color:#6E1475"/>
				<stop  offset="1" style="stop-color:#2C0356"/>
			</linearGradient>
			<path style="opacity:0.5;fill:url(#SVGID_15_);" d="M716.583,61.216l-71.155,71.155c-2.681,2.681-7.028,2.681-9.709,0v0
				c-2.681-2.681-2.681-7.028,0-9.709l71.155-71.155c2.681-2.681,7.028-2.681,9.709,0v0
				C719.264,54.188,719.264,58.535,716.583,61.216z"/>
			
				<linearGradient id="SVGID_16_" gradientUnits="userSpaceOnUse" x1="5296.9966" y1="-7984.314" x2="5411.3545" y2="-7984.314" gradientTransform="matrix(0.643 -0.643 0.4173 0.4173 565.1504 6866.772)">
				<stop  offset="0" style="stop-color:#F2BD37"/>
				<stop  offset="0.2648" style="stop-color:#A2006F"/>
				<stop  offset="0.6147" style="stop-color:#920774;stop-opacity:0"/>
			</linearGradient>
			<path style="fill:url(#SVGID_16_);" d="M712.919,60.901l-67.806,67.806c-1.582,1.582-4.148,1.582-5.73,0l0,0
				c-1.582-1.582-1.582-4.148,0-5.73l67.806-67.806c1.582-1.582,4.148-1.582,5.73,0v0C714.501,56.753,714.501,59.318,712.919,60.901
				z"/>
			
				<linearGradient id="SVGID_17_" gradientUnits="userSpaceOnUse" x1="4357.3315" y1="-17545.6152" x2="4471.8999" y2="-17545.6152" gradientTransform="matrix(0.2512 -0.2512 0.2404 0.2404 3764.6387 5438.8462)">
				<stop  offset="0" style="stop-color:#FFF31A"/>
				<stop  offset="0.5558" style="stop-color:#F9AD37"/>
				<stop  offset="0.999" style="stop-color:#BB2D76;stop-opacity:0"/>
			</linearGradient>
			<path style="fill:url(#SVGID_17_);" d="M644.849,126.542c-0.911,0.911-2.389,0.911-3.301,0l0,0c-0.911-0.911-0.911-2.389,0-3.301
				l28.503-25.757L644.849,126.542z"/>
		</g>
		<g style="clip-path:url(#SVGID_2_);">
			
				<linearGradient id="SVGID_18_" gradientUnits="userSpaceOnUse" x1="5066.4019" y1="-2617.8845" x2="5180.7598" y2="-2617.8845" gradientTransform="matrix(0.7071 -0.7071 0.7071 0.7071 -1326.7733 5856.8857)">
				<stop  offset="0" style="stop-color:#6E1475"/>
				<stop  offset="1" style="stop-color:#2C0356"/>
			</linearGradient>
			<path style="opacity:0.5;fill:url(#SVGID_18_);" d="M485.453,352.12l-71.155,71.155c-2.681,2.681-7.028,2.681-9.709,0l0,0
				c-2.681-2.681-2.681-7.028,0-9.709l71.155-71.155c2.681-2.681,7.028-2.681,9.709,0l0,0
				C488.134,345.092,488.134,349.439,485.453,352.12z"/>
			
				<linearGradient id="SVGID_19_" gradientUnits="userSpaceOnUse" x1="4891.082" y1="-7912.6943" x2="5005.4399" y2="-7912.6943" gradientTransform="matrix(0.643 -0.643 0.4173 0.4173 565.1504 6866.772)">
				<stop  offset="0" style="stop-color:#F2BD37"/>
				<stop  offset="0.2648" style="stop-color:#A2006F"/>
				<stop  offset="0.6147" style="stop-color:#920774;stop-opacity:0"/>
			</linearGradient>
			<path style="fill:url(#SVGID_19_);" d="M481.79,351.805l-67.806,67.806c-1.582,1.582-4.148,1.582-5.73,0l0,0
				c-1.582-1.582-1.582-4.148,0-5.73l67.806-67.806c1.582-1.582,4.147-1.582,5.73,0l0,0
				C483.372,347.657,483.372,350.223,481.79,351.805z"/>
			
				<linearGradient id="SVGID_20_" gradientUnits="userSpaceOnUse" x1="3318.2947" y1="-17421.2852" x2="3432.863" y2="-17421.2852" gradientTransform="matrix(0.2512 -0.2512 0.2404 0.2404 3764.6387 5438.8462)">
				<stop  offset="0" style="stop-color:#FFF31A"/>
				<stop  offset="0.5558" style="stop-color:#F9AD37"/>
				<stop  offset="0.999" style="stop-color:#BB2D76;stop-opacity:0"/>
			</linearGradient>
			<path style="fill:url(#SVGID_20_);" d="M413.719,417.446c-0.911,0.911-2.389,0.911-3.301,0l0,0c-0.911-0.911-0.911-2.389,0-3.301
				l28.503-25.757L413.719,417.446z"/>
		</g>
		<radialGradient id="SVGID_21_" cx="718.7495" cy="575.8974" r="13.514" gradientUnits="userSpaceOnUse">
			<stop  offset="0.1955" style="stop-color:#FFFFFF"/>
			<stop  offset="0.8827" style="stop-color:#FFFFFF;stop-opacity:0"/>
		</radialGradient>
		<path style="clip-path:url(#SVGID_2_);fill:url(#SVGID_21_);" d="M731.916,576.446l-1.136-1.136c0,0-7.049-0.739-8.545-2.236
			s-2.527-10.07-2.527-10.07l-0.959-0.959l-0.981,0.981c0,0-0.477,8.295-2.388,9.932c-1.911,1.637-8.563,2.254-8.563,2.254
			l-1.234,1.234l1.375,1.375c0,0,6.285-0.161,8.456,2.147c2.171,2.308,2.536,8.982,2.536,8.982l0.801,0.801l0.886-0.886
			c0,0,0.072-6.381,2.37-8.817s8.836-2.527,8.836-2.527L731.916,576.446z"/>
		<radialGradient id="SVGID_22_" cx="847.977" cy="364.1237" r="13.514" gradientUnits="userSpaceOnUse">
			<stop  offset="0.1955" style="stop-color:#FFFFFF"/>
			<stop  offset="0.8827" style="stop-color:#FFFFFF;stop-opacity:0"/>
		</radialGradient>
		<path style="clip-path:url(#SVGID_2_);fill:url(#SVGID_22_);" d="M861.144,364.672l-1.136-1.136c0,0-7.049-0.739-8.545-2.236
			s-2.527-10.07-2.527-10.07l-0.959-0.959l-0.981,0.981c0,0-0.477,8.295-2.388,9.932c-1.911,1.637-8.563,2.254-8.563,2.254
			l-1.234,1.234l1.375,1.375c0,0,6.285-0.161,8.456,2.147c2.171,2.308,2.536,8.982,2.536,8.982l0.801,0.801l0.885-0.886
			c0,0,0.072-6.381,2.37-8.817s8.836-2.527,8.836-2.527L861.144,364.672z"/>
		<radialGradient id="SVGID_23_" cx="483.0658" cy="159.3711" r="13.514" gradientUnits="userSpaceOnUse">
			<stop  offset="0.1955" style="stop-color:#FFFFFF"/>
			<stop  offset="0.8827" style="stop-color:#FFFFFF;stop-opacity:0"/>
		</radialGradient>
		<path style="clip-path:url(#SVGID_2_);fill:url(#SVGID_23_);" d="M496.233,159.92l-1.136-1.136c0,0-7.049-0.739-8.545-2.236
			c-1.497-1.497-2.527-10.07-2.527-10.07l-0.959-0.959l-0.981,0.981c0,0-0.477,8.295-2.388,9.932
			c-1.911,1.637-8.563,2.254-8.563,2.254l-1.234,1.234l1.375,1.375c0,0,6.285-0.161,8.456,2.147
			c2.171,2.308,2.536,8.982,2.536,8.982l0.801,0.801l0.886-0.886c0,0,0.072-6.381,2.37-8.817c2.299-2.436,8.836-2.527,8.836-2.527
			L496.233,159.92z"/>
		<radialGradient id="SVGID_24_" cx="147.7574" cy="444.203" r="13.514" gradientUnits="userSpaceOnUse">
			<stop  offset="0.1955" style="stop-color:#FFFFFF"/>
			<stop  offset="0.8827" style="stop-color:#FFFFFF;stop-opacity:0"/>
		</radialGradient>
		<path style="clip-path:url(#SVGID_2_);fill:url(#SVGID_24_);" d="M160.924,444.752l-1.136-1.136c0,0-7.049-0.739-8.545-2.236
			s-2.527-10.07-2.527-10.07l-0.959-0.959l-0.981,0.981c0,0-0.477,8.295-2.388,9.932c-1.911,1.637-8.563,2.254-8.563,2.254
			l-1.234,1.234l1.375,1.375c0,0,6.285-0.161,8.456,2.147c2.171,2.308,2.536,8.982,2.536,8.982l0.801,0.801l0.886-0.886
			c0,0,0.072-6.381,2.37-8.817s8.836-2.527,8.836-2.527L160.924,444.752z"/>
		<radialGradient id="SVGID_25_" cx="400.5196" cy="645.9194" r="13.514" gradientUnits="userSpaceOnUse">
			<stop  offset="0.1955" style="stop-color:#FFFFFF"/>
			<stop  offset="0.8827" style="stop-color:#FFFFFF;stop-opacity:0"/>
		</radialGradient>
		<path style="clip-path:url(#SVGID_2_);fill:url(#SVGID_25_);" d="M413.686,646.468l-1.136-1.136c0,0-7.049-0.739-8.545-2.236
			c-1.497-1.497-2.527-10.07-2.527-10.07l-0.959-0.959l-0.981,0.981c0,0-0.477,8.295-2.388,9.932
			c-1.911,1.637-8.563,2.254-8.563,2.254l-1.234,1.234l1.375,1.375c0,0,6.285-0.161,8.456,2.147
			c2.171,2.308,2.536,8.982,2.536,8.982l0.801,0.801l0.886-0.885c0,0,0.072-6.381,2.37-8.817c2.299-2.436,8.836-2.527,8.836-2.527
			L413.686,646.468z"/>
		
			<linearGradient id="SVGID_26_" gradientUnits="userSpaceOnUse" x1="-5496.52" y1="-1398.3004" x2="-5496.52" y2="-1319.7393" gradientTransform="matrix(-0.7071 -0.7071 -0.7071 0.7071 -4275.4238 -2228.2305)">
			<stop  offset="0" style="stop-color:#1A2D72"/>
			<stop  offset="1" style="stop-color:#216D7A"/>
		</linearGradient>
		<circle style="clip-path:url(#SVGID_2_);fill:url(#SVGID_26_);" cx="573.487" cy="696.111" r="39.281"/>
		
			<linearGradient id="SVGID_27_" gradientUnits="userSpaceOnUse" x1="171.8929" y1="-3157.8545" x2="171.8929" y2="-3079.2932" gradientTransform="matrix(0.1925 -0.9813 -0.9813 -0.1925 -2750.1614 -384.5609)">
			<stop  offset="0" style="stop-color:#1A2D72"/>
			<stop  offset="1" style="stop-color:#216D7A"/>
		</linearGradient>
		<circle style="clip-path:url(#SVGID_2_);fill:url(#SVGID_27_);" cx="345.014" cy="47.317" r="39.281"/>
		<g style="clip-path:url(#SVGID_2_);">
			
				<radialGradient id="SVGID_28_" cx="-12520.042" cy="2290.8049" r="116.1217" gradientTransform="matrix(-0.9627 0.2704 0.2704 0.9627 -12529.7432 1726.1483)" gradientUnits="userSpaceOnUse">
				<stop  offset="0" style="stop-color:#08ACD2"/>
				<stop  offset="1" style="stop-color:#08ACD2;stop-opacity:0"/>
			</radialGradient>
			<circle style="fill:url(#SVGID_28_);" cx="143.342" cy="546.245" r="116.122"/>
			<circle style="fill:#08ACD2;" cx="143.342" cy="546.245" r="87.186"/>
			<g>
				<defs>
					<circle id="SVGID_29_" cx="143.342" cy="546.245" r="87.186"/>
				</defs>
				<clipPath id="SVGID_30_">
					<use xlink:href="#SVGID_29_"  style="overflow:visible;"/>
				</clipPath>
				<g style="clip-path:url(#SVGID_30_);">
					<path style="fill:#11AFCB;" d="M236.781,533.688c0,0-9.192-2.66-23.326-2.184s-65.207,19.77-94.674,21.64
						c-29.467,1.87-65.67-5.725-65.67-5.725l0.448,20.257c0,0,46.743,9.876,62.422,8.675s75.772-14.293,91.128-12.491
						c15.357,1.802,27.484,2.473,27.484,2.473L236.781,533.688z"/>
					<g>
						<path style="fill:#43CFD6;" d="M113.035,576.641c-17.743,0-59.073-8.686-59.514-8.779l-0.147-0.031l-0.457-20.647l0.234,0.049
							c0.362,0.076,36.516,7.568,65.619,5.721c16.935-1.075,41.441-8.032,61.132-13.623c14.768-4.193,27.522-7.814,33.547-8.017
							c14.002-0.471,23.293,2.165,23.385,2.192l0.147,0.042l-2.21,32.985l-0.187-0.01c-0.121-0.007-12.309-0.692-27.495-2.474
							c-9.663-1.133-37.601,3.735-60.05,7.648c-13.547,2.361-25.247,4.4-31.042,4.844
							C115.106,576.609,114.113,576.641,113.035,576.641z M53.746,567.521c2.909,0.608,47.186,9.792,62.221,8.641
							c5.777-0.442,17.468-2.48,31.006-4.839c22.473-3.917,50.443-8.791,60.159-7.651c14.149,1.66,25.69,2.367,27.285,2.461
							l2.165-32.303c-1.236-0.332-10.139-2.573-23.12-2.137c-5.978,0.201-18.712,3.816-33.456,8.003
							c-19.708,5.596-44.236,12.56-61.212,13.637c-3.198,0.203-6.483,0.293-9.793,0.293c-25.602,0-52.887-5.403-55.693-5.974
							L53.746,567.521z"/>
					</g>
				</g>
				<g style="clip-path:url(#SVGID_30_);">
					<path style="fill:#18B2CA;" d="M238.082,552.833c0,0-11.072-4.17-18.544-3.819c-7.472,0.352-84.124,21.88-98.452,22.701
						s-60.102-10.783-68.89-8.897c-8.788,1.886,6.974,24.831,6.974,24.831s27.25,11.81,65.556,14.033
						c38.305,2.223,95.321-11.461,108.661-6.472S238.082,552.833,238.082,552.833z"/>
					<g>
						<path style="fill:#4AD6DD;" d="M133.822,602.214c-3.126,0-6.171-0.078-9.114-0.248c-19.812-1.15-36.604-4.909-47.202-7.86
							c-11.487-3.198-18.382-6.166-18.45-6.196l-0.075-0.033l-0.046-0.067c-0.481-0.7-11.743-17.204-9.354-23.208
							c0.437-1.098,1.296-1.792,2.555-2.062c4.472-0.96,18.189,1.493,32.71,4.089c14.322,2.561,29.13,5.209,36.223,4.802
							c8.204-0.47,36.471-7.641,61.41-13.967c18.156-4.606,33.837-8.583,37.046-8.734c7.447-0.349,18.546,3.795,18.657,3.837
							l0.151,0.057l0.029,0.158c0.269,1.474,6.507,36.178-0.666,42.18c-1.185,0.992-2.669,1.165-4.409,0.514
							c-6.538-2.445-23.996-0.321-44.211,2.139C171.188,599.791,151.275,602.214,133.822,602.214z M59.358,587.42
							c0.778,0.33,7.503,3.132,18.314,6.141c10.568,2.942,27.314,6.69,47.07,7.836c19.32,1.121,43.198-1.784,64.265-4.348
							c20.289-2.469,37.811-4.601,44.479-2.107c1.556,0.582,2.814,0.445,3.845-0.417c6.683-5.591,0.961-38.871,0.5-41.482
							c-1.352-0.493-11.419-4.068-18.279-3.745c-3.151,0.148-18.806,4.119-36.932,8.717c-24.964,6.333-53.259,13.51-61.517,13.983
							c-7.16,0.41-22.002-2.244-36.356-4.81c-14.464-2.586-28.126-5.029-32.49-4.093c-1.076,0.231-1.778,0.792-2.145,1.716
							C47.905,570.352,58.559,586.242,59.358,587.42z"/>
					</g>
				</g>
				<g style="clip-path:url(#SVGID_30_);">
					<path style="fill:#11AFCB;" d="M198.44,470.786c0,0-50.338,18.797-68.824,19.33c-18.486,0.533-42.661-9.857-44.414-14.024
						c-1.753-4.167-18.687,19.517-18.687,19.517s26.78,13.444,53.657,13.758s94.306-8.433,99.074-15.305
						C207.747,482.149,198.44,470.786,198.44,470.786z"/>
					<path style="fill:#43CFD6;" d="M121.601,509.564c-0.49,0-0.967-0.003-1.432-0.008c-13.909-0.162-27.779-3.9-36.966-7.006
						c-9.952-3.365-16.707-6.738-16.774-6.771l-0.198-0.1l0.129-0.18c0.598-0.836,14.69-20.483,18.26-20.081
						c0.346,0.039,0.608,0.247,0.757,0.601c0.871,2.07,7.524,5.716,15.821,8.669c10.005,3.561,20.359,5.471,28.413,5.239
						c9.527-0.275,27.712-5.511,41.291-9.855c14.721-4.71,27.347-9.416,27.473-9.463l0.127-0.047l0.086,0.105
						c0.093,0.114,9.434,11.494,20.795,23.264l0.108,0.112l-0.089,0.128c-1.154,1.663-5.805,3.483-13.823,5.411
						c-7.067,1.699-16.594,3.433-27.551,5.016C157.209,507.603,134.845,509.564,121.601,509.564z M66.799,495.537
						c1.186,0.579,7.554,3.619,16.532,6.655c9.159,3.097,22.986,6.823,36.843,6.984c26.639,0.311,93.382-8.313,98.823-15.099
						c-10.74-11.137-19.651-21.894-20.618-23.066c-1.362,0.506-13.423,4.961-27.361,9.421c-13.602,4.352-31.825,9.598-41.397,9.874
						c-8.099,0.234-18.503-1.684-28.551-5.261c-8.523-3.034-15.12-6.685-16.043-8.88c-0.097-0.23-0.239-0.348-0.449-0.371
						C81.827,475.491,70.94,489.765,66.799,495.537z"/>
				</g>
				<g style="clip-path:url(#SVGID_30_);">
					<path style="fill:#11AFCB;" d="M193.234,455.359c0,0-18.393,22.637-59.036,26.19s-48.884-13.351-48.884-13.351l48.558-16.841
						L193.234,455.359z"/>
					<path style="fill:#43CFD6;" d="M123.475,482.228c-5.08,0-9.794-0.36-14.092-1.079c-5.76-0.963-10.792-2.57-14.956-4.775
						c-7.114-3.768-9.198-7.918-9.283-8.092l-0.094-0.192l0.202-0.07l48.594-16.854l59.766,4.029l-0.231,0.284
						c-1.597,1.966-6.646,6.963-14.323,11.804c-8.848,5.58-23.811,12.617-44.843,14.456
						C130.479,482.064,126.894,482.228,123.475,482.228z M85.584,468.305c0.85,1.55,3.671,4.908,9.057,7.752
						c6.492,3.428,18.621,7.132,39.541,5.303c20.957-1.832,35.861-8.841,44.674-14.399c8.325-5.25,12.921-10.219,13.988-11.438
						l-58.946-3.974L85.584,468.305z"/>
				</g>
			</g>
			<path style="opacity:0.5;fill:#0C88B0;" d="M119.767,462.307c5.263-1.478,10.549-2.435,15.803-2.911
				c-33.821,17.156-51.636,57.802-40.489,97.492c12.586,44.813,57.327,71.449,99.986,59.564
				c-8.246,6.077-17.705,10.799-28.151,13.733c-46.358,13.02-94.494-14.006-107.514-60.364
				C46.383,523.462,73.409,475.327,119.767,462.307z"/>
			<path style="opacity:0.5;fill:#4ACFDD;" d="M56.157,548.192c0.001,0.048,0.004,0.097,0.005,0.145
				c-10.862,6.731-16.649,12.872-15.379,17.394c3.224,11.478,50.668,8.191,105.97-7.341c55.302-15.532,97.519-37.428,94.296-48.905
				c-1.27-4.523-9.408-6.752-22.186-6.844c-0.024-0.042-0.047-0.085-0.071-0.127c25.333-0.785,42.525,3.447,45.144,12.773
				c4.982,17.738-44.631,47.187-110.815,65.775c-66.183,18.588-123.874,19.277-128.856,1.539
				C21.645,573.275,34.12,560.712,56.157,548.192z"/>
		</g>
		<g style="clip-path:url(#SVGID_2_);">
			<radialGradient id="SVGID_31_" cx="902.5334" cy="570.1097" r="81.7872" gradientUnits="userSpaceOnUse">
				<stop  offset="0" style="stop-color:#70EB8F"/>
				<stop  offset="1" style="stop-color:#70EB8F;stop-opacity:0"/>
			</radialGradient>
			<circle style="fill:url(#SVGID_31_);" cx="902.533" cy="570.11" r="81.787"/>
			<g style="opacity:0.3;">
				<path style="fill:#70EB8F;" d="M902.533,638.519c-9.235,0-18.194-1.809-26.628-5.376c-8.146-3.446-15.462-8.378-21.745-14.661
					c-6.283-6.283-11.215-13.599-14.661-21.745c-3.567-8.434-5.376-17.393-5.376-26.628s1.809-18.194,5.376-26.628
					c3.445-8.146,8.378-15.462,14.661-21.745c6.283-6.282,13.598-11.215,21.745-14.661c8.434-3.567,17.393-5.376,26.628-5.376
					c9.235,0,18.194,1.809,26.628,5.376c8.146,3.446,15.462,8.378,21.745,14.661c6.283,6.283,11.215,13.599,14.661,21.745
					c3.567,8.434,5.376,17.393,5.376,26.628s-1.809,18.194-5.376,26.628c-3.446,8.146-8.378,15.462-14.661,21.745
					c-6.282,6.282-13.598,11.215-21.745,14.661C920.727,636.71,911.768,638.519,902.533,638.519z M902.533,502.08
					c-37.512,0-68.029,30.518-68.029,68.029s30.518,68.029,68.029,68.029s68.029-30.518,68.029-68.029
					S940.045,502.08,902.533,502.08z"/>
			</g>
			<g style="opacity:0.7;">
				<path style="fill:#70EB8F;" d="M902.533,633.205c-16.853,0-32.698-6.563-44.615-18.48c-11.917-11.917-18.48-27.762-18.48-44.615
					c0-16.854,6.563-32.698,18.48-44.615c11.917-11.917,27.762-18.48,44.615-18.48s32.698,6.563,44.615,18.48
					c11.917,11.917,18.48,27.762,18.48,44.615c0,16.854-6.563,32.698-18.48,44.615C935.232,626.642,919.387,633.205,902.533,633.205
					z M902.533,508.532c-33.954,0-61.578,27.624-61.578,61.578c0,33.954,27.624,61.578,61.578,61.578
					c33.954,0,61.578-27.624,61.578-61.578C964.111,536.156,936.487,508.532,902.533,508.532z"/>
			</g>
			<linearGradient id="SVGID_32_" gradientUnits="userSpaceOnUse" x1="902.9362" y1="626.7518" x2="902.1159" y2="511.4066">
				<stop  offset="0" style="stop-color:#70EB8F"/>
				<stop  offset="1" style="stop-color:#70EB8F"/>
			</linearGradient>
			<circle style="fill:url(#SVGID_32_);" cx="902.533" cy="570.11" r="57.674"/>
			<path style="fill:#43C85E;" d="M902.533,512.436c-3.035,0-6.014,0.236-8.922,0.688c27.616,4.289,40.467,28.169,40.467,56.987
				s-12.852,52.698-40.467,56.986c2.908,0.452,5.887,0.688,8.922,0.688c31.853,0,57.674-25.822,57.674-57.674
				S934.386,512.436,902.533,512.436z"/>
			<ellipse style="fill:#43C85E;" cx="914.004" cy="537.927" rx="13.064" ry="10.197"/>
			<ellipse style="fill:#43C85E;" cx="864.615" cy="593.37" rx="9.559" ry="7.01"/>
			<ellipse style="fill:#43C85E;" cx="877.042" cy="548.123" rx="4.461" ry="3.271"/>
			<ellipse style="fill:#43C85E;" cx="891.062" cy="613.445" rx="4.461" ry="3.271"/>
			<ellipse style="fill:#43C85E;" cx="909.225" cy="618.023" rx="6.691" ry="4.663"/>
			<ellipse style="fill:#43C85E;" cx="933.442" cy="567.518" rx="6.691" ry="6.734"/>
			<ellipse style="fill:#43C85E;" cx="906.994" cy="583.174" rx="2.607" ry="1.912"/>
		</g>
		<g style="clip-path:url(#SVGID_2_);">
			<path style="fill:#D9E6FF;" d="M511.185,470.443c0,0,1.048,55.9,0,63.062c-1.048,7.162-64.984,49.437-70.923,51.183
				c-5.939,1.747-15.023-21.137-15.023-21.137s41.925-33.016,44.021-37.208c1.223-3.319-2.096-36.859-2.446-38.955
				c-0.349-2.096-3.494-2.795-7.337,2.271s-27.601,35.986-28.649,37.034c-1.048,1.048-60.966,44.895-70.748,49.961
				c-9.783,5.066-18.517-13.8-18.517-13.8s54.503-51.009,58.87-57.472s22.011-31.444,22.709-34.938
				c0.699-3.494,4.367-16.071,6.463-18.168C431.703,450.179,511.185,470.443,511.185,470.443z"/>
			<path style="opacity:0.8;fill:#94A4C4;" d="M431.743,525.586l-1.271-0.535l-8.215-3.122c0,0,2.3,3.779-2.3,7.722
				c-4.6,3.943-36.64,27.11-36.64,27.11s2.861,0.117,5.845,0.238c19.405-13.781,41.04-29.681,41.667-30.307
				C430.931,526.59,431.25,526.203,431.743,525.586z"/>
			<path style="opacity:0.8;fill:#94A4C4;" d="M412.892,515.686c0,0,10.351,5.915,10.68,6.079c0.329,0.164,6.901,3.286,6.901,3.286
				l2.076-0.479c5.717-7.243,23.636-30.572,26.93-34.914c3.586-4.728,6.563-4.434,7.229-2.67c-0.269-1.223-1.427-4.567-6.003-4.163
				c-5.586,0.493-23.002,31.382-29.41,32.368c-6.408,0.986-16.713,2.472-27.334-14.948c0,0,0,0,0,0
				c-0.313,0.509-0.498,0.759-0.607,0.88c-0.052,0.076-0.103,0.15-0.155,0.224v2.507l2.629,8.215L412.892,515.686z"/>
			<path style="opacity:0.8;fill:#94A4C4;" d="M500.301,539.674c-1.479,2.3-51.591,37.297-51.591,37.297l2.53,1.533
				c19.521-12.128,57.449-38.249,59.839-44.608l0.066-0.466l-8.872,1.479C502.273,534.909,501.78,537.374,500.301,539.674z"/>
			<radialGradient id="SVGID_33_" cx="490.5712" cy="501.8304" r="27.4428" gradientUnits="userSpaceOnUse">
				<stop  offset="0" style="stop-color:#942236"/>
				<stop  offset="1" style="stop-color:#972030;stop-opacity:0"/>
			</radialGradient>
			<path style="fill:url(#SVGID_33_);" d="M511.185,470.443c0,0-1.749-0.446-4.734-1.198c0.511,16.61,1.254,53.271-2.043,55.807
				c-4.272,3.286-28.532,2.069-34.886-1.348c0,0,0,0,0,0c-0.006,0.344-0.016,0.662-0.031,0.951c0.041,1.886,0.753,2.327,0.753,2.327
				l15.27,5.628l18.566,1.807l7.108-0.927C512.232,526.265,511.185,470.443,511.185,470.443z"/>
			<path style="fill:#D9E6FF;" d="M511.185,470.443c0,0,1.747-11.18,3.319-16.595c1.572-5.415,16.77-24.806,20.438-34.413
				c3.668-9.608-4.542-49.611-4.542-49.611l-15.198-9.433h-50.135c0,0-28.649,67.779-31.793,71.098s-4.857,13.03-5.398,25.381
				C447.233,462.356,511.185,470.443,511.185,470.443z"/>
			<radialGradient id="SVGID_34_" cx="509.5222" cy="464.9685" r="4.5221" gradientUnits="userSpaceOnUse">
				<stop  offset="0" style="stop-color:#942236"/>
				<stop  offset="1" style="stop-color:#972030;stop-opacity:0"/>
			</radialGradient>
			<path style="fill:url(#SVGID_34_);" d="M506.486,469.835c2.972,0.389,4.699,0.608,4.699,0.608s0.714-4.572,1.641-9.285
				c0.001-0.159,0.002-0.244,0.002-0.244s-3.627-0.666-6.613-1.419C506.3,462.238,506.397,465.796,506.486,469.835z"/>
			<path style="opacity:0.8;fill:#94A4C4;" d="M512.828,460.913c0,0-3.627-0.666-6.613-1.419c0.511,16.61,1.489,63.021-1.807,65.557
				c-4.272,3.286-28.532,2.069-34.886-1.348c0,0,0,0,0,0c-0.006,0.344-0.016,0.662-0.031,0.951c0.041,1.886,0.753,2.327,0.753,2.327
				l15.27,5.628l18.566,1.807l7.108-0.927C512.232,526.265,512.828,460.913,512.828,460.913z"/>
			<path style="opacity:0.8;fill:#94A4C4;" d="M528.89,414.475c0,0-13.309,36.804-27.931,39.761s-29.739,3.615-29.739,3.615
				l11.777,3.122h29.866c0.513-2.597,1.088-5.219,1.642-7.126c1.472-5.07,14.888-22.39,19.602-32.463L528.89,414.475z"/>
			<path style="fill:#DAE4F7;" d="M458.43,357.595l-44.371,18.692c0,0,1.397,28.125,13.451,28.299
				c12.403-4.717,15.897-6.114,15.897-6.114L458.43,357.595z"/>
			<path style="fill:#CED9ED;" d="M487.777,331.217c0-4.367,6.463-33.889,33.715-33.889c27.251,0,39.13,19.74,39.13,37.558
				c0,17.818-18.095,30.628-25.982,30.628c-19.74,0-46.863-28.008-46.863-28.008V331.217z"/>
			<path style="fill:#F8FAFF;" d="M560.622,334.885c0-9.62-3.465-19.798-10.94-27.129c-6.141-0.406,1.388,18.654,2.045,23.582
				c0.657,4.929-8.544,16.923-11.994,19.059c-3.45,2.136-2.465,6.244-1.314,7.065c1.149,0.821,4,5.548,4.004,5.557
				C550.76,358.463,560.622,348.04,560.622,334.885z"/>
			<linearGradient id="SVGID_35_" gradientUnits="userSpaceOnUse" x1="538.3828" y1="335.3844" x2="560.6219" y2="335.3844">
				<stop  offset="0.2822" style="stop-color:#110443"/>
				<stop  offset="1" style="stop-color:#1D136A"/>
			</linearGradient>
			<path style="fill:url(#SVGID_35_);" d="M560.622,334.885c0-9.62-3.465-19.798-10.94-27.129
				c-6.141-0.406,2.21,19.147,2.867,24.075c0.657,4.929-8.051,16.43-11.501,18.566c-3.45,2.136-2.957,6.408-1.807,7.229
				c1.149,0.821,3.179,5.384,3.183,5.392C550.76,358.463,560.622,348.04,560.622,334.885z"/>
			<path style="fill:#DB6445;" d="M476.073,344.144c0,0,3.197-4.426,3.854-5.412c0.657-0.986,7.046-2.449,13.473-0.986
				c9.755,2.221,26.124,7.722,38.118,17.909c5.066,4.717,12.831,10.772,8.141,11.548s-4.717,0.873-4.717,0.873l-22.36-9.433
				L476.073,344.144z"/>
			<path style="fill:#DB6445;" d="M428.739,441.674c0,0,17.536,13.474,34.691,16.879c17.155,3.406,43.992,4.754,49.222,3.504
				c2.273-0.592,0.43-2.173,0.43-2.173s-40.712-1.376-49.42-4.662c-8.708-3.286-33.89-15.246-33.89-15.246
				S428.483,439.298,428.739,441.674z"/>
			<g>
				<path style="fill:#6A82B7;" d="M507.349,459.044c-4.048,0-7.736-1.02-7.987-1.09c-0.873-0.246-1.381-1.154-1.135-2.027
					c0.246-0.873,1.318-3.024,2.191-2.778l0.705,0.267c2.428,0.682,9.717,1.174,13.473-0.329c0.822-0.329,0.657,0.986,0.744,1.804
					c0.096,0.902-0.488,2.12-1.237,2.632C512.006,458.954,510.003,459.044,507.349,459.044z"/>
			</g>
			<g>
				<path style="fill:#D9E6FF;" d="M480.615,342.397c-5.241,0-20.334,4.341-24.282,15.198c-1.397,3.843-25.504,55.725-25.504,55.725
					s-10.307,27.775,14.848,35.287s48.913,13.451,48.913,13.451s6.289-0.175,9.433-8.385c3.144-8.21,23.408-49.961,23.408-49.961
					s11.529-31.618,9.608-34.763c-1.922-3.144-4.018-5.939-6.463-6.988S495.638,342.397,480.615,342.397z"/>
				<path style="fill:#6A82B7;" d="M494.545,462.47l-0.055-0.014c-0.238-0.06-24.054-6.028-48.93-13.456
					c-7.014-2.094-11.965-5.953-14.716-11.469c-2.8-5.613-2.758-11.938-2.231-16.256c0.57-4.665,1.78-7.96,1.831-8.098l0.013-0.03
					c0.241-0.519,24.115-51.91,25.491-55.693c2.205-6.063,7.666-9.817,11.859-11.898c4.944-2.453,10.105-3.571,12.808-3.571
					c12.891,0,38.734,13.627,47.226,18.105c1.479,0.78,2.548,1.344,2.897,1.493c2.74,1.174,4.995,4.438,6.652,7.151
					c0.321,0.526,1.299,2.125-4.042,18.899c-2.614,8.211-5.501,16.139-5.53,16.218l-0.016,0.039
					c-0.203,0.417-20.292,41.828-23.394,49.928c-0.921,2.405-2.724,5.657-6.083,7.485c-2.028,1.104-3.654,1.161-3.722,1.163
					L494.545,462.47z M431.209,413.477c-0.181,0.503-4.743,13.441,0.372,23.692c2.646,5.302,7.428,9.019,14.214,11.045
					c24.255,7.243,47.503,13.097,48.836,13.431c0.636-0.038,6.123-0.585,9.008-8.119c3.089-8.065,22.884-48.885,23.413-49.974
					c0.162-0.446,2.967-8.174,5.513-16.169c4.717-14.815,4.455-17.677,4.124-18.219c-1.594-2.608-3.748-5.741-6.275-6.824
					c-0.379-0.162-1.404-0.703-2.956-1.522c-8.448-4.454-34.154-18.01-46.842-18.01c-2.611,0-7.618,1.091-12.443,3.485
					c-4.059,2.014-9.34,5.634-11.453,11.442C455.335,361.542,432.296,411.137,431.209,413.477z"/>
			</g>
			<g>
				<circle style="fill:#F8F9FF;" cx="480.831" cy="375.618" r="14.854"/>
				<linearGradient id="SVGID_36_" gradientUnits="userSpaceOnUse" x1="466.9742" y1="375.1192" x2="495.6849" y2="375.1192">
					<stop  offset="0" style="stop-color:#110443"/>
					<stop  offset="1" style="stop-color:#1D136A"/>
				</linearGradient>
				<circle style="fill:url(#SVGID_36_);" cx="481.33" cy="375.119" r="14.355"/>
				<circle style="fill:#DB6445;" cx="482.027" cy="374.421" r="13.658"/>
				<circle style="fill:#EF9786;" cx="482.027" cy="374.421" r="5.483"/>
			</g>
			<g>
				<path style="fill:#A1B5D6;" d="M504.023,453.673c3.144-8.21,23.408-49.961,23.408-49.961s6.965-19.1,9.165-29.087
					c-0.448-3.36-0.986-5.804-1.628-6.484c-2.793-2.957-8.215-0.164-10.844,2.465s-39.104,65.064-38.611,74.429
					c0.465,8.834,7.62,15.842,8.916,16.982c0.106,0.027,0.161,0.04,0.161,0.04S500.879,461.883,504.023,453.673z"/>
				<path style="fill:#6A82B7;" d="M494.545,462.47l-0.312-0.078l-0.075-0.066c-0.349-0.307-8.547-7.627-9.054-17.268
					c-0.505-9.603,36.142-72.152,38.731-74.741c1.866-1.866,5.152-3.854,8-3.854c0.029,0,0.058,0,0.087,0.001
					c1.364,0.019,2.489,0.49,3.347,1.397c0.421,0.446,1.059,1.626,1.736,6.711l0.01,0.072l-0.016,0.071
					c-2.181,9.898-9.111,28.948-9.181,29.139l-0.016,0.039c-0.203,0.417-20.292,41.828-23.394,49.928l-0.384-0.147l0.384,0.147
					c-3.206,8.37-9.537,8.641-9.805,8.649L494.545,462.47z M494.627,461.644l0.002,0c0.279-0.02,1.671-0.163,3.342-1.083
					c1.719-0.946,4.098-2.934,5.668-7.035c3.089-8.065,22.884-48.885,23.413-49.974c0.258-0.71,6.972-19.22,9.127-28.944
					c-0.624-4.648-1.213-5.87-1.51-6.184c-0.699-0.74-1.628-1.124-2.761-1.14c-1.844-0.023-4.974,1.093-7.494,3.613
					c-1.248,1.248-10.887,17.244-20.407,34.596c-11.865,21.628-18.288,35.663-18.085,39.522
					C486.394,453.953,493.755,460.855,494.627,461.644z"/>
			</g>
			<path style="fill:#EEF3FF;" d="M538.786,365.456c5.414-0.093,16.983,1.203,17.643,28.299c0.349,14.324,1.048,26.378,5.415,30.221
				c4.367,3.843,23.583,16.071,23.583,16.071s6.114,7.337,2.795,12.053c-3.319,4.717-9.258,13.975-13.975,14.15
				s-35.462-19.041-38.431-23.758c-2.97-4.717-12.228-26.727-14.674-41.226C518.697,386.767,518.348,365.805,538.786,365.456z"/>
			<path style="fill:#EEF3FF;" d="M584.554,451.052c0,0,10.831,2.271,15.722,4.542c4.891,2.271,14.674,7.861,12.053,13.276
				c0,0-0.873,1.747-5.59-0.349c0.524,1.572,2.096,7.512,0.349,9.258c-1.747,1.223-4.193-0.349-4.367-0.873
				c-0.349,2.271-0.524,5.241-2.446,5.241c0,0-1.747,0.524-3.494-1.922c-0.699,2.446-5.066,3.319-5.066,0.349
				c0-2.97-1.048-7.337-1.922-8.036c0,0,0.175,4.193-3.144,3.843c-3.319-0.349-4.367-5.765-4.367-11.879
				c-0.175-1.223-4.717-0.873-4.717-0.873L584.554,451.052z"/>
			<path style="opacity:0.8;fill:#94A4C4;" d="M584.917,473.789c0,0-1.314-9.365-1.807-10.844c-0.493-1.479-4.217-1.121-4.217-1.121
				s0.15,0.716,0.369,1.763c1.311,0.023,2.919,0.198,3.022,0.917c0,6.114,1.048,11.529,4.367,11.879
				c0.207,0.022,0.4,0.026,0.581,0.014C585.512,475.827,584.917,473.789,584.917,473.789z"/>
			<path style="fill:#DAE4F7;" d="M415.107,381.177c0,0-5.59-7.686-9.783-7.861c-4.193-0.175-9.258,10.307-9.783,11.704
				c-0.524,1.398-1.747,16.945,1.572,16.945c3.319,0,5.415-4.717,6.987-4.717s8.734,6.463,12.403,6.289
				c3.668-0.175,7.162-1.397,7.162-1.397L415.107,381.177z"/>
			<path style="fill:#B3CBF2;" d="M459.243,573.414c0,0,0.06,1.841-2.735,3.414c-2.795,1.572-13.975,10.132-15.198,11.879
				s1.572,16.595,2.795,19.39s6.987,12.578-3.843,18.342c-10.307-7.337-35.112-47.34-35.112-47.34l33.715-27.601
				c0,0,1.396-0.841,3.273,0.17c1.135,0.611,6.373,3.155,10.351,7.887C457.004,564.926,459.243,573.414,459.243,573.414z"/>
			<path style="fill:#839AB7;" d="M407.306,578.614c5.397,0.45,15.408,0.039,17.06,16.556c0.524,5.241,6.289,13.8,8.56,15.372
				c2.271,1.572,9.932,9.401,8.884,13.419s-7.707,7.018-15.871,4.049c-3.843-1.397-9.783-9.782-12.578-15.023
				c-2.795-5.241-9.608-17.818-11.355-20.089S401.017,578.09,407.306,578.614z"/>
			<path style="fill:#B3CBF2;" d="M339.992,562.503l36.51-35.636c0,0,7.686-3.144,15.897,7.512
				c8.21,10.656,6.114,19.565,6.114,19.565l-40.353,24.631L339.992,562.503z"/>
			<path style="fill:#839AB7;" d="M343.835,599.362c-4.672,0.644-15.897-2.446-18.866-12.752
				c-0.524-10.307,9.608-24.107,15.023-24.107s18.168,6.289,18.168,16.071C358.159,588.357,353.967,597.965,343.835,599.362z"/>
			<path style="fill:#DB6445;" d="M533.456,437.939c0,0,2.253,0.732,5.62-1.447c2.793-1.807,15.151-11.307,20.227-16.58
				c1.115-1.015,1.701,1.387,1.17,2.411c-0.531,1.024-17.29,16.633-20.576,18.112c-3.286,1.479-3.543,1.16-4.565,1.237
				C534.312,441.75,531.451,438.894,533.456,437.939z"/>
			<path style="fill:#DB6445;" d="M573.268,466.115c0,0,12.884-11.871,15.47-20.09c1.107,2.296,1.933,4.362-4.394,12.037
				C578.016,465.738,574.928,468.3,573.268,466.115z"/>
			<path style="fill:#BC4839;" d="M414.042,376.357c0,0-1.314,27.767,13.801,28.26c3.615,0,0-1.479-1.314-2.465
				s-6.572-3.286-8.544-15.937C416.014,373.564,415.192,374.221,414.042,376.357z"/>
			
				<ellipse transform="matrix(0.866 -0.5 0.5 0.866 -155.497 359.0396)" style="fill:#DB6445;" cx="592.228" cy="469.681" rx="1.068" ry="1.643"/>
			
				<ellipse transform="matrix(0.7813 -0.6241 0.6241 0.7813 -161.8795 474.6932)" style="fill:#DB6445;" cx="596.5" cy="468.367" rx="1.068" ry="1.643"/>
			
				<ellipse transform="matrix(0.7071 -0.7071 0.7071 0.7071 -153.4406 560.7087)" style="fill:#DB6445;" cx="600.115" cy="465.573" rx="1.068" ry="1.643"/>
			
				<ellipse transform="matrix(0.5639 -0.8258 0.8258 0.5639 -118.2696 697.9731)" style="fill:#DB6445;" cx="601.758" cy="460.973" rx="1.068" ry="1.643"/>
			<path style="fill:#DB6445;" d="M511.651,530.731c0,0,2.066,3.84-1.685,4.913c-7.365,1.73-33.133-1.001-41.047-8.785
				c-1.807-1.972,0.546-1.794,0.546-1.794S499.506,537.233,511.651,530.731z"/>
			<path style="fill:#DB6445;" d="M403.201,501.345c0,0,1.476,7.933,6.076,11.219c4.6,3.286,21.558,11.541,23.266,12.014
				c1.708,0.473-0.263,2.116-1.742,1.787s-20.866-8.379-24.317-11.994c-3.45-3.615-3.948-9.226-4.439-11.35
				C401.555,500.899,403.201,501.345,403.201,501.345z"/>
			<g>
				<radialGradient id="SVGID_37_" cx="441.4328" cy="414.9754" r="6.0057" gradientUnits="userSpaceOnUse">
					<stop  offset="0" style="stop-color:#942236"/>
					<stop  offset="1" style="stop-color:#972030;stop-opacity:0"/>
				</radialGradient>
				<path style="fill:url(#SVGID_37_);" d="M447.936,418.087l-13.632-4.181c-0.564-0.173-0.881-0.77-0.708-1.334l0,0
					c0.173-0.564,0.77-0.881,1.334-0.708l13.632,4.181c0.564,0.173,0.881,0.77,0.708,1.334l0,0
					C449.097,417.943,448.499,418.26,447.936,418.087z"/>
				<g>
					<defs>
						<path id="SVGID_38_" d="M447.936,418.087l-13.632-4.181c-0.564-0.173-0.881-0.77-0.708-1.334l0,0
							c0.173-0.564,0.77-0.881,1.334-0.708l13.632,4.181c0.564,0.173,0.881,0.77,0.708,1.334l0,0
							C449.097,417.943,448.499,418.26,447.936,418.087z"/>
					</defs>
					<use xlink:href="#SVGID_38_"  style="overflow:visible;fill:#F3F8FF;"/>
					<clipPath id="SVGID_39_">
						<use xlink:href="#SVGID_38_"  style="overflow:visible;"/>
					</clipPath>
					<linearGradient id="SVGID_40_" gradientUnits="userSpaceOnUse" x1="434.0415" y1="414.6468" x2="449.8098" y2="414.6468">
						<stop  offset="0" style="stop-color:#110443"/>
						<stop  offset="1" style="stop-color:#1D136A"/>
					</linearGradient>
					<path style="clip-path:url(#SVGID_39_);fill:url(#SVGID_40_);" d="M448.428,417.758l-13.632-4.181
						c-0.564-0.173-0.881-0.77-0.708-1.334l0,0c0.173-0.564,0.77-0.881,1.334-0.708l13.632,4.181
						c0.564,0.173,0.881,0.77,0.708,1.334l0,0C449.59,417.614,448.992,417.931,448.428,417.758z"/>
				</g>
			</g>
			<g>
				<radialGradient id="SVGID_41_" cx="443.2401" cy="412.1822" r="6.0057" gradientUnits="userSpaceOnUse">
					<stop  offset="0" style="stop-color:#942236"/>
					<stop  offset="1" style="stop-color:#972030;stop-opacity:0"/>
				</radialGradient>
				<path style="fill:url(#SVGID_41_);" d="M449.743,415.294l-13.632-4.181c-0.564-0.173-0.881-0.77-0.708-1.334l0,0
					c0.173-0.564,0.77-0.881,1.334-0.708l13.632,4.181c0.564,0.173,0.881,0.77,0.708,1.334l0,0
					C450.904,415.15,450.307,415.467,449.743,415.294z"/>
				<g>
					<defs>
						<path id="SVGID_42_" d="M449.743,415.294l-13.632-4.181c-0.564-0.173-0.881-0.77-0.708-1.334l0,0
							c0.173-0.564,0.77-0.881,1.334-0.708l13.632,4.181c0.564,0.173,0.881,0.77,0.708,1.334l0,0
							C450.904,415.15,450.307,415.467,449.743,415.294z"/>
					</defs>
					<use xlink:href="#SVGID_42_"  style="overflow:visible;fill:#F3F8FF;"/>
					<clipPath id="SVGID_43_">
						<use xlink:href="#SVGID_42_"  style="overflow:visible;"/>
					</clipPath>
					<linearGradient id="SVGID_44_" gradientUnits="userSpaceOnUse" x1="435.8488" y1="411.8536" x2="451.6172" y2="411.8536">
						<stop  offset="0" style="stop-color:#110443"/>
						<stop  offset="1" style="stop-color:#1D136A"/>
					</linearGradient>
					<path style="clip-path:url(#SVGID_43_);fill:url(#SVGID_44_);" d="M450.236,414.965l-13.632-4.181
						c-0.564-0.173-0.881-0.77-0.708-1.334l0,0c0.173-0.564,0.77-0.881,1.334-0.708l13.632,4.181
						c0.564,0.173,0.881,0.77,0.708,1.334l0,0C451.397,414.821,450.8,415.138,450.236,414.965z"/>
				</g>
			</g>
			<g>
				<radialGradient id="SVGID_45_" cx="444.8831" cy="409.3891" r="6.0057" gradientUnits="userSpaceOnUse">
					<stop  offset="0" style="stop-color:#942236"/>
					<stop  offset="1" style="stop-color:#972030;stop-opacity:0"/>
				</radialGradient>
				<path style="fill:url(#SVGID_45_);" d="M451.386,412.501l-13.632-4.181c-0.564-0.173-0.881-0.77-0.708-1.334l0,0
					c0.173-0.564,0.77-0.881,1.334-0.708l13.632,4.181c0.564,0.173,0.881,0.77,0.708,1.334l0,0
					C452.547,412.357,451.95,412.673,451.386,412.501z"/>
				<g>
					<defs>
						<path id="SVGID_46_" d="M451.386,412.501l-13.632-4.181c-0.564-0.173-0.881-0.77-0.708-1.334l0,0
							c0.173-0.564,0.77-0.881,1.334-0.708l13.632,4.181c0.564,0.173,0.881,0.77,0.708,1.334l0,0
							C452.547,412.357,451.95,412.673,451.386,412.501z"/>
					</defs>
					<use xlink:href="#SVGID_46_"  style="overflow:visible;fill:#F3F8FF;"/>
					<clipPath id="SVGID_47_">
						<use xlink:href="#SVGID_46_"  style="overflow:visible;"/>
					</clipPath>
					<linearGradient id="SVGID_48_" gradientUnits="userSpaceOnUse" x1="437.4919" y1="409.0605" x2="453.2602" y2="409.0605">
						<stop  offset="0" style="stop-color:#110443"/>
						<stop  offset="1" style="stop-color:#1D136A"/>
					</linearGradient>
					<path style="clip-path:url(#SVGID_47_);fill:url(#SVGID_48_);" d="M451.879,412.172l-13.632-4.181
						c-0.564-0.173-0.881-0.77-0.708-1.334v0c0.173-0.564,0.77-0.881,1.334-0.708l13.632,4.181c0.564,0.173,0.881,0.77,0.708,1.334
						l0,0C453.04,412.028,452.443,412.345,451.879,412.172z"/>
				</g>
			</g>
		</g>
		<g style="clip-path:url(#SVGID_2_);">
			<radialGradient id="SVGID_49_" cx="788.4868" cy="170.0927" r="156.5531" gradientUnits="userSpaceOnUse">
				<stop  offset="0" style="stop-color:#FFCF00"/>
				<stop  offset="1" style="stop-color:#FFCF00;stop-opacity:0"/>
			</radialGradient>
			<circle style="fill:url(#SVGID_49_);" cx="788.487" cy="170.093" r="156.553"/>
			<g>
				<path style="fill:#FFCF00;" d="M788.487,301.218c-17.701,0-34.874-3.467-51.04-10.305c-15.614-6.604-29.637-16.059-41.68-28.101
					c-12.042-12.042-21.496-26.065-28.101-41.68c-6.838-16.166-10.305-33.339-10.305-51.04s3.467-34.874,10.305-51.04
					c6.604-15.614,16.059-29.637,28.101-41.679c12.042-12.042,26.065-21.497,41.68-28.101c16.166-6.838,33.339-10.305,51.04-10.305
					c17.701,0,34.874,3.467,51.04,10.305c15.615,6.604,29.637,16.059,41.68,28.101c12.042,12.042,21.497,26.065,28.101,41.679
					c6.838,16.166,10.305,33.339,10.305,51.04s-3.467,34.874-10.305,51.04c-6.604,15.614-16.059,29.637-28.101,41.68
					c-12.042,12.042-26.065,21.496-41.68,28.101C823.361,297.751,806.188,301.218,788.487,301.218z M788.487,40.486
					c-17.497,0-34.47,3.427-50.449,10.185c-15.433,6.528-29.294,15.873-41.197,27.776c-11.903,11.903-21.248,25.764-27.776,41.197
					c-6.758,15.978-10.185,32.952-10.185,50.449s3.427,34.471,10.185,50.449c6.528,15.433,15.873,29.294,27.776,41.197
					c11.903,11.903,25.764,21.248,41.197,27.776c15.978,6.758,32.951,10.185,50.449,10.185c17.497,0,34.471-3.427,50.449-10.185
					c15.433-6.528,29.294-15.873,41.197-27.776c11.903-11.903,21.248-25.764,27.776-41.197
					c6.758-15.978,10.185-32.952,10.185-50.449s-3.427-34.471-10.185-50.449c-6.528-15.433-15.873-29.294-27.776-41.197
					c-11.903-11.903-25.764-21.248-41.197-27.776C822.957,43.912,805.984,40.486,788.487,40.486z"/>
			</g>
			<g style="opacity:0.99;">
				<path style="fill:#FFCF00;" d="M788.487,288.883c-16.035,0-31.593-3.141-46.24-9.336c-14.146-5.983-26.849-14.548-37.758-25.457
					c-10.909-10.909-19.473-23.612-25.457-37.758c-6.195-14.647-9.336-30.204-9.336-46.24s3.141-31.593,9.336-46.24
					c5.983-14.146,14.548-26.85,25.457-37.758c10.909-10.909,23.612-19.473,37.758-25.457c14.647-6.195,30.204-9.336,46.24-9.336
					s31.593,3.141,46.24,9.336c14.146,5.983,26.849,14.548,37.758,25.457c10.909,10.909,19.473,23.612,25.457,37.758
					c6.195,14.647,9.336,30.204,9.336,46.24s-3.141,31.593-9.336,46.24c-5.983,14.146-14.548,26.85-25.457,37.758
					c-10.909,10.909-23.612,19.473-37.758,25.457C820.079,285.742,804.522,288.883,788.487,288.883z M788.487,56.995
					c-15.269,0-30.08,2.99-44.022,8.887c-13.467,5.696-25.563,13.851-35.95,24.239s-18.543,22.483-24.239,35.95
					c-5.897,13.941-8.887,28.753-8.887,44.022s2.99,30.081,8.887,44.022c5.696,13.467,13.851,25.563,24.239,35.95
					c10.388,10.388,22.483,18.543,35.95,24.239c13.941,5.897,28.753,8.887,44.022,8.887c15.269,0,30.08-2.99,44.022-8.887
					c13.467-5.696,25.563-13.851,35.95-24.239c10.388-10.388,18.543-22.483,24.239-35.95c5.897-13.941,8.887-28.753,8.887-44.022
					s-2.99-30.081-8.887-44.022c-5.696-13.467-13.851-25.563-24.239-35.95s-22.483-18.543-35.95-24.239
					C818.567,59.985,803.756,56.995,788.487,56.995z"/>
			</g>
			<radialGradient id="SVGID_50_" cx="788.4868" cy="170.0927" r="104.0723" gradientUnits="userSpaceOnUse">
				<stop  offset="0" style="stop-color:#FFD200"/>
				<stop  offset="0.7186" style="stop-color:#FDC305"/>
				<stop  offset="1" style="stop-color:#F69813"/>
			</radialGradient>
			<circle style="fill:url(#SVGID_50_);" cx="788.487" cy="170.093" r="104.072"/>
			<path style="fill:#FDF879;" d="M788.487,66.02c-15.547,0-30.295,3.415-43.543,9.526c3.904,21.07,11.507,50.706,24.19,57.992
				c20.212,11.611,73.109,20.212,75.259,42.145c1.828,18.64,13.596,47.838,26.856,57.505c13.366-17.505,21.31-39.371,21.31-63.095
				C892.559,112.615,845.965,66.02,788.487,66.02z"/>
			<path style="fill:#FFB109;" d="M788.487,192.025c-12.919-7.333-73.467-17.217-103.61-31.724
				c-0.301,3.224-0.462,6.489-0.462,9.792c0,57.478,46.595,104.072,104.072,104.072
				C787.627,253.953,804.399,201.056,788.487,192.025z"/>
			<path style="fill:#FFEA73;" d="M694.779,215.418c11.645,24.031,32.262,42.903,57.499,52.27
				c0.512-12.993,0.677-41.728-7.226-50.29C737.703,209.437,710.08,212.813,694.779,215.418z"/>
			<path style="opacity:0.3;fill:#E5690A;" d="M711.873,240.523c19.021,20.68,46.301,33.642,76.613,33.642
				c57.478,0,104.072-46.595,104.072-104.072c0-5.766-0.477-11.42-1.378-16.931c-15.544,25.554-21.844,51.765-65.28,73.698
				C782.466,248.792,743.751,240.819,711.873,240.523z"/>
		</g>
		<g style="clip-path:url(#SVGID_2_);">
			<circle style="fill:#312287;" cx="313.134" cy="136.884" r="10.816"/>
			<radialGradient id="SVGID_51_" cx="319.3966" cy="143.1465" r="8.3495" gradientUnits="userSpaceOnUse">
				<stop  offset="0" style="stop-color:#D6D3FE"/>
				<stop  offset="1" style="stop-color:#D6D3FE;stop-opacity:0"/>
			</radialGradient>
			<circle style="fill:url(#SVGID_51_);" cx="319.397" cy="143.147" r="8.35"/>
			<circle style="fill:#D6D3FE;" cx="319.397" cy="143.147" r="4.554"/>
		</g>
		<g style="clip-path:url(#SVGID_2_);">
			<radialGradient id="SVGID_52_" cx="319.3966" cy="143.1465" r="8.3495" gradientUnits="userSpaceOnUse">
				<stop  offset="0" style="stop-color:#D6D3FE"/>
				<stop  offset="1" style="stop-color:#D6D3FE;stop-opacity:0"/>
			</radialGradient>
			<circle style="fill:url(#SVGID_52_);" cx="319.397" cy="143.147" r="8.35"/>
			<circle style="fill:#D6D3FE;" cx="319.397" cy="143.147" r="4.554"/>
		</g>
		<g style="clip-path:url(#SVGID_2_);">
			<radialGradient id="SVGID_53_" cx="778.0499" cy="581.6851" r="4.1748" gradientUnits="userSpaceOnUse">
				<stop  offset="0" style="stop-color:#D6D3FE"/>
				<stop  offset="1" style="stop-color:#D6D3FE;stop-opacity:0"/>
			</radialGradient>
			<circle style="fill:url(#SVGID_53_);" cx="778.05" cy="581.685" r="4.175"/>
			<circle style="fill:#D6D3FE;" cx="778.05" cy="581.685" r="2.277"/>
		</g>
		<g style="clip-path:url(#SVGID_2_);">
			<radialGradient id="SVGID_54_" cx="749.0164" cy="379.2097" r="4.1748" gradientUnits="userSpaceOnUse">
				<stop  offset="0" style="stop-color:#FFFFFF"/>
				<stop  offset="1" style="stop-color:#FFFFFF;stop-opacity:0"/>
			</radialGradient>
			<circle style="fill:url(#SVGID_54_);" cx="749.016" cy="379.21" r="4.175"/>
			<radialGradient id="SVGID_55_" cx="636.1084" cy="212.0299" r="4.1748" gradientUnits="userSpaceOnUse">
				<stop  offset="0" style="stop-color:#FFFFFF"/>
				<stop  offset="1" style="stop-color:#FFFFFF;stop-opacity:0"/>
			</radialGradient>
			<circle style="fill:url(#SVGID_55_);" cx="636.108" cy="212.03" r="4.175"/>
			<radialGradient id="SVGID_56_" cx="541.6072" cy="144.8544" r="4.1748" gradientUnits="userSpaceOnUse">
				<stop  offset="0" style="stop-color:#FFFFFF"/>
				<stop  offset="1" style="stop-color:#FFFFFF;stop-opacity:0"/>
			</radialGradient>
			<circle style="fill:url(#SVGID_56_);" cx="541.607" cy="144.854" r="4.175"/>
			<radialGradient id="SVGID_57_" cx="431.9251" cy="114.6823" r="4.1748" gradientUnits="userSpaceOnUse">
				<stop  offset="0" style="stop-color:#FFFFFF"/>
				<stop  offset="1" style="stop-color:#FFFFFF;stop-opacity:0"/>
			</radialGradient>
			<circle style="fill:url(#SVGID_57_);" cx="431.925" cy="114.682" r="4.175"/>
			<radialGradient id="SVGID_58_" cx="309.9085" cy="194.7616" r="4.1748" gradientUnits="userSpaceOnUse">
				<stop  offset="0" style="stop-color:#FFFFFF"/>
				<stop  offset="1" style="stop-color:#FFFFFF;stop-opacity:0"/>
			</radialGradient>
			<circle style="fill:url(#SVGID_58_);" cx="309.909" cy="194.762" r="4.175"/>
			<radialGradient id="SVGID_59_" cx="423.5756" cy="366.8752" r="4.1748" gradientUnits="userSpaceOnUse">
				<stop  offset="0" style="stop-color:#FFFFFF"/>
				<stop  offset="1" style="stop-color:#FFFFFF;stop-opacity:0"/>
			</radialGradient>
			<circle style="fill:url(#SVGID_59_);" cx="423.576" cy="366.875" r="4.175"/>
			<radialGradient id="SVGID_60_" cx="184.0967" cy="456.0631" r="4.1748" gradientUnits="userSpaceOnUse">
				<stop  offset="0" style="stop-color:#FFFFFF"/>
				<stop  offset="1" style="stop-color:#FFFFFF;stop-opacity:0"/>
			</radialGradient>
			<circle style="fill:url(#SVGID_60_);" cx="184.097" cy="456.063" r="4.175"/>
			<radialGradient id="SVGID_61_" cx="419.4009" cy="677.1351" r="4.1748" gradientUnits="userSpaceOnUse">
				<stop  offset="0" style="stop-color:#FFFFFF"/>
				<stop  offset="1" style="stop-color:#FFFFFF;stop-opacity:0"/>
			</radialGradient>
			<circle style="fill:url(#SVGID_61_);" cx="419.401" cy="677.135" r="4.175"/>
			<radialGradient id="SVGID_62_" cx="673.6812" cy="554.5493" r="4.1748" gradientUnits="userSpaceOnUse">
				<stop  offset="0" style="stop-color:#FFFFFF"/>
				<stop  offset="1" style="stop-color:#FFFFFF;stop-opacity:0"/>
			</radialGradient>
			<circle style="fill:url(#SVGID_62_);" cx="673.681" cy="554.549" r="4.175"/>
			<radialGradient id="SVGID_63_" cx="809.9298" cy="546.1997" r="4.1748" gradientUnits="userSpaceOnUse">
				<stop  offset="0" style="stop-color:#FFFFFF"/>
				<stop  offset="1" style="stop-color:#FFFFFF;stop-opacity:0"/>
			</radialGradient>
			<circle style="fill:url(#SVGID_63_);" cx="809.93" cy="546.2" r="4.175"/>
			<radialGradient id="SVGID_64_" cx="611.6292" cy="444.1081" r="4.1748" gradientUnits="userSpaceOnUse">
				<stop  offset="0" style="stop-color:#FFFFFF"/>
				<stop  offset="1" style="stop-color:#FFFFFF;stop-opacity:0"/>
			</radialGradient>
			<circle style="fill:url(#SVGID_64_);" cx="611.629" cy="444.108" r="4.175"/>
			<radialGradient id="SVGID_65_" cx="597.5868" cy="329.4922" r="4.1748" gradientUnits="userSpaceOnUse">
				<stop  offset="0" style="stop-color:#FFFFFF"/>
				<stop  offset="1" style="stop-color:#FFFFFF;stop-opacity:0"/>
			</radialGradient>
			<circle style="fill:url(#SVGID_65_);" cx="597.587" cy="329.492" r="4.175"/>
		</g>
		<g style="clip-path:url(#SVGID_2_);">
			<path style="fill:#FEFFFD;" d="M749.169,522.344l7.772,19.86c0.8,2.044,3.293,2.812,5.105,1.573l76.917-52.609
				c0,0,4.365-3.226,2.657-6.072c-1.708-2.846-6.831,0-6.831,0l-13.887,0.585c-2.704,0.114-5.319,0.999-7.536,2.55L764.956,522.1
				l-7.738-5.952c-1.249-0.961-2.994-0.941-4.222,0.047l-2.79,2.247C749.046,519.377,748.627,520.956,749.169,522.344z"/>
			<path style="fill:#8D5E83;" d="M773.604,520.947c0.712,0,1.43-0.211,2.049-0.648l30.508-21.583
				c0.834-0.59,1.376-1.511,1.486-2.527c0.11-1.016-0.222-2.032-0.91-2.787l-0.297-0.325l-0.941,0.658l0.396,0.434
				c0.469,0.514,0.695,1.206,0.62,1.897c-0.075,0.692-0.444,1.319-1.011,1.72l-30.508,21.583c-1.071,0.758-2.576,0.516-3.355-0.54
				l-0.684-0.927l-0.933,0.653l0.701,0.95C771.418,520.446,772.505,520.947,773.604,520.947z"/>
			<path style="fill:#C695C9;" d="M762.046,543.778l76.917-52.609c0,0,4.252-3.146,2.714-5.966l-83.986,58.158
				C758.807,544.489,760.633,544.744,762.046,543.778z"/>
			<linearGradient id="SVGID_66_" gradientUnits="userSpaceOnUse" x1="796.2897" y1="511.673" x2="800.7" y2="518.0519">
				<stop  offset="0" style="stop-color:#C695C9"/>
				<stop  offset="1" style="stop-color:#945B89"/>
			</linearGradient>
			<path style="fill:url(#SVGID_66_);" d="M781.349,519.829l28.974-20.282c0.795-0.556,1.807,0.316,1.373,1.184l-8.174,16.348
				c-0.154,0.308-0.371,0.58-0.636,0.799l-13.989,11.549c-1.06,0.876-2.632,0.715-3.494-0.357l-4.562-5.674
				C779.946,522.284,780.18,520.647,781.349,519.829z"/>
			<path style="fill:#C695C9;" d="M752.733,541.824l23.839-15.954c0.331-0.221,0.529-0.593,0.529-0.991v-0.448
				c0-0.658-0.534-1.192-1.192-1.192h-1.85c-0.243,0-0.48,0.074-0.68,0.213l-22.26,15.453c-0.253,0.176-0.429,0.443-0.489,0.745
				l-0.19,0.949c-0.148,0.738,0.417,1.426,1.169,1.426h0.461C752.306,542.025,752.537,541.955,752.733,541.824z"/>
			<path style="fill:#945B89;" d="M817.975,495.344h1.778c0.521,0,1.028-0.173,1.44-0.492l9.821-7.604
				c0.706-0.546,0.973-1.306,0.911-2.031l-7.033,0.296l-8.228,5.526c-0.65,0.437-1.041,1.169-1.041,1.952
				C815.623,494.291,816.676,495.344,817.975,495.344z"/>
			
				<rect x="816.022" y="491.169" transform="matrix(0.7071 0.7071 -0.7071 0.7071 588.0746 -436.2613)" style="fill:#FEFFFD;" width="9.259" height="1.139"/>
			
				<rect x="818.299" y="489.461" transform="matrix(0.7071 0.7071 -0.7071 0.7071 587.5339 -438.3717)" style="fill:#FEFFFD;" width="9.259" height="1.139"/>
		</g>
	</g>
</g>
</svg>
