<?xml version="1.0" encoding="iso-8859-1"?>
<!-- Generator: Adobe Illustrator 23.0.0, SVG Export Plug-In . SVG Version: 6.00 Build 0)  -->
<svg version="1.1" id="&#x56FE;&#x5C42;_1" xmlns="http://www.w3.org/2000/svg" xmlns:xlink="http://www.w3.org/1999/xlink" x="0px"
	 y="0px" viewBox="0 0 1040 720" style="enable-background:new 0 0 1040 720;" xml:space="preserve">
<g>
	<path style="fill:#F0F0FF;" d="M6.159,419.905c0-121.455,189.111-241.038,340.75-241.038S506.465,10,764.855,10
		c87.768,0,269.987,34.26,269.987,185.754s-59.104,212.033-59.104,284.863C975.738,544.37,823.701,711,643.476,711
		c-351.071,0-363.95-36.99-442.115-36.99S6.159,582.853,6.159,419.905z"/>
	<path style="fill:#C7D0FF;" d="M30.282,419.466c0-121.455,164.987-240.598,316.626-240.598S505.906,25.278,764.296,25.278
		c87.768,0,247.426,21.796,247.426,173.29s-35.985,209.219-35.985,282.048C975.738,544.37,823.701,711,643.476,711
		c-351.071,0-363.95-36.99-442.115-36.99S30.282,582.414,30.282,419.466z"/>
	<g>
		<defs>
			<path id="SVGID_1_" d="M48.978,419.466c0-121.455,151.193-222.378,302.832-222.378S505.906,25.278,764.296,25.278
				c87.768,0,237.174,29.391,237.174,180.885s-47.345,196.229-47.345,269.059C954.125,538.975,823.701,711,643.476,711
				c-351.071,0-355.091-46.032-433.255-46.032S48.978,582.414,48.978,419.466z"/>
		</defs>
		<clipPath id="SVGID_2_">
			<use xlink:href="#SVGID_1_"  style="overflow:visible;"/>
		</clipPath>
		<linearGradient id="SVGID_3_" gradientUnits="userSpaceOnUse" x1="192.0886" y1="700.4241" x2="923.7517" y2="90.5804">
			<stop  offset="0" style="stop-color:#020B31"/>
			<stop  offset="0.5028" style="stop-color:#150557"/>
			<stop  offset="1" style="stop-color:#0D0339"/>
		</linearGradient>
		<path style="clip-path:url(#SVGID_2_);fill:url(#SVGID_3_);" d="M48.978,419.466c0-121.455,151.193-222.378,302.832-222.378
			S505.906,25.278,764.296,25.278c87.768,0,237.174,29.391,237.174,180.885s-47.345,196.229-47.345,269.059
			C954.125,538.975,823.701,711,643.476,711c-351.071,0-355.091-46.032-433.255-46.032S48.978,582.414,48.978,419.466z"/>
		<g style="clip-path:url(#SVGID_2_);">
			<circle style="opacity:0.1;fill:#FFFFFF;" cx="152.51" cy="437.395" r="1.005"/>
			<circle style="opacity:0.1;fill:#FFFFFF;" cx="153.716" cy="548.365" r="1.005"/>
			<circle style="opacity:0.1;fill:#FFFFFF;" cx="279.764" cy="525.246" r="1.005"/>
			<circle style="opacity:0.1;fill:#FFFFFF;" cx="389.728" cy="615.51" r="1.005"/>
			<circle style="opacity:0.1;fill:#FFFFFF;" cx="361.785" cy="502.328" r="1.005"/>
			<circle style="opacity:0.1;fill:#FFFFFF;" cx="391.739" cy="570.478" r="1.005"/>
			<circle style="opacity:0.1;fill:#FFFFFF;" cx="432.548" cy="644.659" r="1.005"/>
			<circle style="opacity:0.1;fill:#FFFFFF;" cx="372.641" cy="687.278" r="1.005"/>
			<circle style="opacity:0.1;fill:#FFFFFF;" cx="530.652" cy="694.716" r="1.005"/>
			<circle style="opacity:0.1;fill:#FFFFFF;" cx="498.286" cy="537.71" r="1.005"/>
			<circle style="opacity:0.1;fill:#FFFFFF;" cx="526.229" cy="461.117" r="1.005"/>
			<circle style="opacity:0.1;fill:#FFFFFF;" cx="682.03" cy="608.674" r="1.005"/>
			<circle style="opacity:0.1;fill:#FFFFFF;" cx="602.421" cy="664.159" r="1.005"/>
			<circle style="opacity:0.1;fill:#FFFFFF;" cx="731.886" cy="669.587" r="1.005"/>
			<circle style="opacity:0.1;fill:#FFFFFF;" cx="763.649" cy="509.566" r="1.005"/>
			<circle style="opacity:0.1;fill:#FFFFFF;" cx="657.102" cy="483.431" r="1.005"/>
			<circle style="opacity:0.1;fill:#FFFFFF;" cx="814.108" cy="433.173" r="1.005"/>
			<circle style="opacity:0.1;fill:#FFFFFF;" cx="952.217" cy="357.786" r="1.005"/>
			<circle style="opacity:0.1;fill:#FFFFFF;" cx="907.186" cy="387.941" r="1.005"/>
			<circle style="opacity:0.1;fill:#FFFFFF;" cx="717.21" cy="318.786" r="1.005"/>
			<circle style="opacity:0.1;fill:#FFFFFF;" cx="585.936" cy="333.059" r="1.005"/>
			<circle style="opacity:0.1;fill:#FFFFFF;" cx="488.837" cy="335.471" r="1.005"/>
			<circle style="opacity:0.1;fill:#FFFFFF;" cx="352.738" cy="354.972" r="1.005"/>
			<circle style="opacity:0.1;fill:#FFFFFF;" cx="222.268" cy="274.961" r="1.005"/>
			<circle style="opacity:0.1;fill:#FFFFFF;" cx="165.778" cy="363.616" r="1.005"/>
			<circle style="opacity:0.1;fill:#FFFFFF;" cx="80.139" cy="368.24" r="1.005"/>
			<circle style="opacity:0.1;fill:#FFFFFF;" cx="94.613" cy="522.834" r="1.005"/>
			<circle style="opacity:0.1;fill:#FFFFFF;" cx="261.269" cy="428.75" r="1.005"/>
			<circle style="opacity:0.1;fill:#FFFFFF;" cx="901.356" cy="222.692" r="1.005"/>
			<circle style="opacity:0.1;fill:#FFFFFF;" cx="786.968" cy="170.223" r="1.005"/>
			<circle style="opacity:0.1;fill:#FFFFFF;" cx="913.418" cy="118.759" r="1.005"/>
			<circle style="opacity:0.1;fill:#FFFFFF;" cx="763.448" cy="80.763" r="1.005"/>
			<circle style="opacity:0.1;fill:#FFFFFF;" cx="708.968" cy="46.588" r="1.005"/>
			<circle style="opacity:0.1;fill:#FFFFFF;" cx="714.999" cy="113.331" r="1.005"/>
			<circle style="opacity:0.1;fill:#FFFFFF;" cx="910" cy="301.095" r="1.005"/>
			<circle style="opacity:0.1;fill:#FFFFFF;" cx="805.262" cy="354.771" r="1.005"/>
			<circle style="opacity:0.1;fill:#FFFFFF;" cx="614.081" cy="437.395" r="1.005"/>
			<circle style="opacity:0.1;fill:#FFFFFF;" cx="411.842" cy="430.56" r="1.005"/>
		</g>
		<g style="opacity:0.4;clip-path:url(#SVGID_2_);">
			<ellipse style="fill:#FFFFFF;" cx="745.154" cy="632.597" rx="1.809" ry="2.211"/>
			<ellipse style="fill:#FFFFFF;" cx="671.576" cy="667.376" rx="1.809" ry="2.211"/>
			<ellipse style="fill:#FFFFFF;" cx="723.442" cy="547.762" rx="1.809" ry="2.211"/>
			<ellipse style="fill:#FFFFFF;" cx="937.341" cy="452.07" rx="1.809" ry="2.211"/>
			<ellipse style="fill:#FFFFFF;" cx="764.654" cy="232.141" rx="1.809" ry="2.211"/>
			<ellipse style="fill:#FFFFFF;" cx="630.766" cy="287.827" rx="1.809" ry="2.211"/>
			<ellipse style="fill:#FFFFFF;" cx="427.925" cy="356.58" rx="1.809" ry="2.211"/>
			<ellipse style="fill:#FFFFFF;" cx="388.321" cy="307.327" rx="1.809" ry="2.211"/>
			<ellipse style="fill:#FFFFFF;" cx="301.073" cy="242.796" rx="1.809" ry="2.211"/>
			<ellipse style="fill:#FFFFFF;" cx="675.999" cy="66.088" rx="1.809" ry="2.211"/>
			<ellipse style="fill:#FFFFFF;" cx="660.72" cy="133.233" rx="1.809" ry="2.211"/>
			<ellipse style="fill:#FFFFFF;" cx="830.995" cy="104.284" rx="1.809" ry="2.211"/>
			<ellipse style="fill:#FFFFFF;" cx="403.399" cy="665.165" rx="1.809" ry="2.211"/>
			<ellipse style="fill:#FFFFFF;" cx="112.907" cy="583.344" rx="1.809" ry="2.211"/>
			<ellipse style="fill:#FFFFFF;" cx="197.34" cy="493.483" rx="1.809" ry="2.211"/>
			<ellipse style="fill:#FFFFFF;" cx="342.888" cy="581.133" rx="1.809" ry="2.211"/>
			<ellipse style="fill:#FFFFFF;" cx="477.178" cy="690.294" rx="1.809" ry="2.211"/>
			<ellipse style="fill:#FFFFFF;" cx="417.27" cy="599.829" rx="1.809" ry="2.211"/>
			<ellipse style="fill:#FFFFFF;" cx="78.329" cy="405.23" rx="1.809" ry="2.211"/>
		</g>
		<g style="clip-path:url(#SVGID_2_);">
			<ellipse style="fill:#FFFFFF;" cx="124.969" cy="489.06" rx="1.809" ry="2.211"/>
			<ellipse style="fill:#FFFFFF;" cx="470.744" cy="642.046" rx="1.809" ry="2.211"/>
			<ellipse style="fill:#FFFFFF;" cx="757.216" cy="442.019" rx="1.809" ry="2.211"/>
			<ellipse style="fill:#FFFFFF;" cx="884.469" cy="460.313" rx="1.809" ry="2.211"/>
			<ellipse style="fill:#FFFFFF;" cx="525.224" cy="368.24" rx="1.809" ry="2.211"/>
			<ellipse style="fill:#FFFFFF;" cx="759.427" cy="121.171" rx="1.809" ry="2.211"/>
			<ellipse style="fill:#FFFFFF;" cx="951.413" cy="174.646" rx="1.809" ry="2.211"/>
			<ellipse style="fill:#FFFFFF;" cx="270.516" cy="305.116" rx="1.809" ry="2.211"/>
			<ellipse style="fill:#FFFFFF;" cx="127.783" cy="353.765" rx="1.809" ry="2.211"/>
			<circle style="fill:#FFFFFF;" cx="356.357" cy="451.668" r="1.809"/>
			<circle style="fill:#FFFFFF;" cx="567.039" cy="555.401" r="1.809"/>
		</g>
		
			<linearGradient id="SVGID_4_" gradientUnits="userSpaceOnUse" x1="1857.1837" y1="4401.5112" x2="1963.7308" y2="4401.5112" gradientTransform="matrix(0.7071 -0.7071 0.7071 0.7071 -3714.4636 -1063.5084)">
			<stop  offset="0" style="stop-color:#401D61"/>
			<stop  offset="1" style="stop-color:#090B3D"/>
		</linearGradient>
		<circle style="clip-path:url(#SVGID_2_);fill:url(#SVGID_4_);" cx="748.772" cy="697.933" r="53.274"/>
		
			<linearGradient id="SVGID_5_" gradientUnits="userSpaceOnUse" x1="1966.6683" y1="-2028.9861" x2="2053.7153" y2="-2028.9861" gradientTransform="matrix(1 0 0 1 -1223.3239 2054.365)">
			<stop  offset="0" style="stop-color:#003C5F"/>
			<stop  offset="1" style="stop-color:#0E0128"/>
		</linearGradient>
		<circle style="clip-path:url(#SVGID_2_);fill:url(#SVGID_5_);" cx="786.868" cy="25.379" r="43.524"/>
		<g style="clip-path:url(#SVGID_2_);">
			<g>
				
					<linearGradient id="SVGID_6_" gradientUnits="userSpaceOnUse" x1="-1519.1066" y1="-2219.9736" x2="-1519.1066" y2="-2265.6877" gradientTransform="matrix(0.7071 0.7071 -0.7071 0.7071 355.994 2793.4539)">
					<stop  offset="0" style="stop-color:#FFFFFF;stop-opacity:0.3"/>
					<stop  offset="1" style="stop-color:#FFFFFF;stop-opacity:0"/>
				</linearGradient>
				<path style="fill:url(#SVGID_6_);" d="M875.575,141.193c-8.926,8.926-19.668,12.656-23.993,8.331
					c-4.325-4.325-0.595-15.067,8.331-23.993s19.668-12.656,23.993-8.331C888.232,121.525,884.501,132.267,875.575,141.193z"/>
				
					<linearGradient id="SVGID_7_" gradientUnits="userSpaceOnUse" x1="-1519.1066" y1="-2219.9736" x2="-1519.1066" y2="-2251.9485" gradientTransform="matrix(0.7071 0.7071 -0.7071 0.7071 355.994 2793.4539)">
					<stop  offset="0" style="stop-color:#FFFFFF;stop-opacity:0.3"/>
					<stop  offset="1" style="stop-color:#FFFFFF;stop-opacity:0"/>
				</linearGradient>
				<path style="fill:url(#SVGID_7_);" d="M867.736,143.07c-6.243,6.243-13.476,9.134-16.154,6.455
					c-2.678-2.678,0.212-9.911,6.455-16.154c6.243-6.243,13.476-9.134,16.154-6.455C876.87,129.594,873.98,136.826,867.736,143.07z"
					/>
				
					<linearGradient id="SVGID_8_" gradientUnits="userSpaceOnUse" x1="-1519.1066" y1="-2219.9736" x2="-1519.1066" y2="-2394.3367" gradientTransform="matrix(0.7071 0.7071 -0.7071 0.7071 355.994 2793.4539)">
					<stop  offset="0" style="stop-color:#FFFFFF"/>
					<stop  offset="0.2169" style="stop-color:#FFFFFF;stop-opacity:0.2349"/>
					<stop  offset="1" style="stop-color:#FFFFFF;stop-opacity:0"/>
				</linearGradient>
				<path style="fill:url(#SVGID_8_);" d="M860.465,145.234c0,0-7.615,5.559-8.883,4.291c-1.268-1.268,4.291-8.883,4.291-8.883
					S973.607,24.963,974.875,26.232C976.143,27.5,860.465,145.234,860.465,145.234z"/>
				
					<radialGradient id="SVGID_9_" cx="-1519.1066" cy="-2226.0522" r="14.0723" gradientTransform="matrix(0.7071 0.7071 -0.7071 0.7071 355.994 2793.4539)" gradientUnits="userSpaceOnUse">
					<stop  offset="0" style="stop-color:#FFFFFF;stop-opacity:0.5"/>
					<stop  offset="1" style="stop-color:#FFFFFF;stop-opacity:0"/>
				</radialGradient>
				<circle style="fill:url(#SVGID_9_);" cx="855.88" cy="145.227" r="14.072"/>
			</g>
			<g>
				
					<linearGradient id="SVGID_10_" gradientUnits="userSpaceOnUse" x1="-1249.1611" y1="-1773.4762" x2="-1249.1611" y2="-1819.1903" gradientTransform="matrix(0.7071 0.7071 -0.7071 0.7071 355.994 2793.4539)">
					<stop  offset="0" style="stop-color:#FFFFFF;stop-opacity:0.3"/>
					<stop  offset="1" style="stop-color:#FFFFFF;stop-opacity:0"/>
				</linearGradient>
				<path style="fill:url(#SVGID_10_);" d="M750.734,647.795c-8.926,8.926-19.668,12.656-23.993,8.331
					c-4.325-4.325-0.595-15.067,8.331-23.993c8.926-8.926,19.668-12.656,23.993-8.331
					C763.39,628.127,759.66,638.869,750.734,647.795z"/>
				
					<linearGradient id="SVGID_11_" gradientUnits="userSpaceOnUse" x1="-1249.1611" y1="-1773.4762" x2="-1249.1611" y2="-1805.451" gradientTransform="matrix(0.7071 0.7071 -0.7071 0.7071 355.994 2793.4539)">
					<stop  offset="0" style="stop-color:#FFFFFF;stop-opacity:0.3"/>
					<stop  offset="1" style="stop-color:#FFFFFF;stop-opacity:0"/>
				</linearGradient>
				<path style="fill:url(#SVGID_11_);" d="M742.895,649.671c-6.243,6.243-13.476,9.134-16.154,6.455
					c-2.678-2.678,0.212-9.911,6.455-16.154c6.243-6.243,13.476-9.134,16.154-6.455
					C752.029,636.195,749.139,643.428,742.895,649.671z"/>
				
					<linearGradient id="SVGID_12_" gradientUnits="userSpaceOnUse" x1="-1249.1611" y1="-1773.4762" x2="-1249.1611" y2="-1947.8391" gradientTransform="matrix(0.7071 0.7071 -0.7071 0.7071 355.994 2793.4539)">
					<stop  offset="0" style="stop-color:#FFFFFF"/>
					<stop  offset="0.2169" style="stop-color:#FFFFFF;stop-opacity:0.2349"/>
					<stop  offset="1" style="stop-color:#FFFFFF;stop-opacity:0"/>
				</linearGradient>
				<path style="fill:url(#SVGID_12_);" d="M735.624,651.836c0,0-7.615,5.559-8.883,4.291s4.291-8.883,4.291-8.883
					s117.734-115.678,119.003-114.41C851.302,534.101,735.624,651.836,735.624,651.836z"/>
				
					<radialGradient id="SVGID_13_" cx="-1249.1611" cy="-1779.5548" r="14.0723" gradientTransform="matrix(0.7071 0.7071 -0.7071 0.7071 355.994 2793.4539)" gradientUnits="userSpaceOnUse">
					<stop  offset="0" style="stop-color:#FFFFFF;stop-opacity:0.5"/>
					<stop  offset="1" style="stop-color:#FFFFFF;stop-opacity:0"/>
				</radialGradient>
				<circle style="fill:url(#SVGID_13_);" cx="731.039" cy="651.828" r="14.072"/>
			</g>
			<g>
				
					<linearGradient id="SVGID_14_" gradientUnits="userSpaceOnUse" x1="-1768.7244" y1="-1739.5021" x2="-1768.7244" y2="-1785.2161" gradientTransform="matrix(0.7071 0.7071 -0.7071 0.7071 355.994 2793.4539)">
					<stop  offset="0" style="stop-color:#FFFFFF;stop-opacity:0.3"/>
					<stop  offset="1" style="stop-color:#FFFFFF;stop-opacity:0"/>
				</linearGradient>
				<path style="fill:url(#SVGID_14_);" d="M359.324,304.432c-8.926,8.926-19.668,12.656-23.993,8.331
					c-4.325-4.325-0.595-15.067,8.331-23.993c8.926-8.926,19.668-12.656,23.993-8.331
					C371.98,284.763,368.25,295.505,359.324,304.432z"/>
				
					<linearGradient id="SVGID_15_" gradientUnits="userSpaceOnUse" x1="-1768.7244" y1="-1739.5021" x2="-1768.7244" y2="-1771.4769" gradientTransform="matrix(0.7071 0.7071 -0.7071 0.7071 355.994 2793.4539)">
					<stop  offset="0" style="stop-color:#FFFFFF;stop-opacity:0.3"/>
					<stop  offset="1" style="stop-color:#FFFFFF;stop-opacity:0"/>
				</linearGradient>
				<path style="fill:url(#SVGID_15_);" d="M351.485,306.308c-6.243,6.243-13.476,9.134-16.154,6.455
					c-2.678-2.678,0.212-9.911,6.455-16.154c6.243-6.243,13.476-9.134,16.154-6.455
					C360.619,292.832,357.729,300.064,351.485,306.308z"/>
				
					<linearGradient id="SVGID_16_" gradientUnits="userSpaceOnUse" x1="-1768.7244" y1="-1739.5021" x2="-1768.7244" y2="-1913.865" gradientTransform="matrix(0.7071 0.7071 -0.7071 0.7071 355.994 2793.4539)">
					<stop  offset="0" style="stop-color:#FFFFFF"/>
					<stop  offset="0.2169" style="stop-color:#FFFFFF;stop-opacity:0.2349"/>
					<stop  offset="1" style="stop-color:#FFFFFF;stop-opacity:0"/>
				</linearGradient>
				<path style="fill:url(#SVGID_16_);" d="M344.214,308.473c0,0-7.615,5.559-8.883,4.291c-1.268-1.268,4.291-8.883,4.291-8.883
					s117.734-115.678,119.003-114.41C459.892,190.738,344.214,308.473,344.214,308.473z"/>
				
					<radialGradient id="SVGID_17_" cx="-1768.7244" cy="-1745.5806" r="14.0723" gradientTransform="matrix(0.7071 0.7071 -0.7071 0.7071 355.994 2793.4539)" gradientUnits="userSpaceOnUse">
					<stop  offset="0" style="stop-color:#FFFFFF;stop-opacity:0.5"/>
					<stop  offset="1" style="stop-color:#FFFFFF;stop-opacity:0"/>
				</radialGradient>
				<circle style="fill:url(#SVGID_17_);" cx="339.629" cy="308.465" r="14.072"/>
			</g>
			<g>
				
					<linearGradient id="SVGID_18_" gradientUnits="userSpaceOnUse" x1="46.2471" y1="-6795.6162" x2="46.2471" y2="-6841.3306" gradientTransform="matrix(0.4162 0.4162 -0.3754 0.3754 -2457.5476 3143.7915)">
					<stop  offset="0" style="stop-color:#FFFFFF;stop-opacity:0.3"/>
					<stop  offset="1" style="stop-color:#FFFFFF;stop-opacity:0"/>
				</linearGradient>
				<path style="fill:url(#SVGID_18_);" d="M125.651,608.311c-4.738,4.738-10.643,6.516-13.189,3.97
					c-2.546-2.546-0.768-8.451,3.97-13.189c4.738-4.738,10.643-6.516,13.189-3.97C132.167,597.668,130.39,603.573,125.651,608.311z"
					/>
				
					<linearGradient id="SVGID_19_" gradientUnits="userSpaceOnUse" x1="46.2471" y1="-6795.6162" x2="46.2471" y2="-6827.5913" gradientTransform="matrix(0.4162 0.4162 -0.3754 0.3754 -2457.5476 3143.7915)">
					<stop  offset="0" style="stop-color:#FFFFFF;stop-opacity:0.3"/>
					<stop  offset="1" style="stop-color:#FFFFFF;stop-opacity:0"/>
				</linearGradient>
				<path style="fill:url(#SVGID_19_);" d="M121.318,609.134c-3.314,3.314-7.279,4.723-8.856,3.146
					c-1.577-1.577-0.168-5.541,3.146-8.856c3.314-3.314,7.279-4.723,8.856-3.146C126.041,601.855,124.632,605.82,121.318,609.134z"
					/>
				
					<linearGradient id="SVGID_20_" gradientUnits="userSpaceOnUse" x1="46.2471" y1="-6795.6162" x2="46.2471" y2="-6969.9795" gradientTransform="matrix(0.4162 0.4162 -0.3754 0.3754 -2457.5476 3143.7915)">
					<stop  offset="0" style="stop-color:#FFFFFF"/>
					<stop  offset="0.2169" style="stop-color:#FFFFFF;stop-opacity:0.2349"/>
					<stop  offset="1" style="stop-color:#FFFFFF;stop-opacity:0"/>
				</linearGradient>
				<path style="fill:url(#SVGID_20_);" d="M117.311,610.136c0,0-4.102,2.891-4.848,2.145s2.145-4.848,2.145-4.848
					s62.556-61.346,63.303-60.6S117.311,610.136,117.311,610.136z"/>
				
					<radialGradient id="SVGID_21_" cx="46.2471" cy="-6801.6948" r="14.0723" gradientTransform="matrix(0.4162 0.4162 -0.3754 0.3754 -2457.5476 3143.7915)" gradientUnits="userSpaceOnUse">
					<stop  offset="0" style="stop-color:#FFFFFF;stop-opacity:0.5"/>
					<stop  offset="1" style="stop-color:#FFFFFF;stop-opacity:0"/>
				</radialGradient>
				<path style="fill:url(#SVGID_21_);" d="M120.601,615.856c-2.917,2.917-7.905,2.66-11.139-0.575s-3.492-8.222-0.575-11.139
					c2.917-2.917,7.905-2.66,11.139,0.575S123.518,612.939,120.601,615.856z"/>
			</g>
			<g style="opacity:0.5;">
				
					<linearGradient id="SVGID_22_" gradientUnits="userSpaceOnUse" x1="481.6537" y1="-7219.5288" x2="481.6537" y2="-7265.2432" gradientTransform="matrix(0.4162 0.4162 -0.3754 0.3754 -2457.5476 3143.7915)">
					<stop  offset="0" style="stop-color:#FFFFFF;stop-opacity:0.3"/>
					<stop  offset="1" style="stop-color:#FFFFFF;stop-opacity:0"/>
				</linearGradient>
				<path style="fill:url(#SVGID_22_);" d="M465.999,630.424c-4.738,4.738-10.643,6.516-13.189,3.97
					c-2.546-2.546-0.768-8.451,3.97-13.189c4.738-4.738,10.643-6.516,13.189-3.97C472.515,619.781,470.738,625.686,465.999,630.424z
					"/>
				
					<linearGradient id="SVGID_23_" gradientUnits="userSpaceOnUse" x1="481.6537" y1="-7219.5288" x2="481.6537" y2="-7251.5039" gradientTransform="matrix(0.4162 0.4162 -0.3754 0.3754 -2457.5476 3143.7915)">
					<stop  offset="0" style="stop-color:#FFFFFF;stop-opacity:0.3"/>
					<stop  offset="1" style="stop-color:#FFFFFF;stop-opacity:0"/>
				</linearGradient>
				<path style="fill:url(#SVGID_23_);" d="M461.666,631.248c-3.314,3.314-7.279,4.723-8.856,3.146s-0.168-5.541,3.146-8.856
					s7.279-4.723,8.856-3.146C466.389,623.969,464.98,627.934,461.666,631.248z"/>
				
					<linearGradient id="SVGID_24_" gradientUnits="userSpaceOnUse" x1="481.6537" y1="-7219.5288" x2="481.6537" y2="-7393.8916" gradientTransform="matrix(0.4162 0.4162 -0.3754 0.3754 -2457.5476 3143.7915)">
					<stop  offset="0" style="stop-color:#FFFFFF"/>
					<stop  offset="0.2169" style="stop-color:#FFFFFF;stop-opacity:0.2349"/>
					<stop  offset="1" style="stop-color:#FFFFFF;stop-opacity:0"/>
				</linearGradient>
				<path style="fill:url(#SVGID_24_);" d="M457.658,632.249c0,0-4.102,2.891-4.848,2.145s2.145-4.848,2.145-4.848
					s62.556-61.346,63.303-60.6S457.658,632.249,457.658,632.249z"/>
				
					<radialGradient id="SVGID_25_" cx="481.6537" cy="-7225.6074" r="14.0723" gradientTransform="matrix(0.4162 0.4162 -0.3754 0.3754 -2457.5476 3143.7915)" gradientUnits="userSpaceOnUse">
					<stop  offset="0" style="stop-color:#FFFFFF;stop-opacity:0.5"/>
					<stop  offset="1" style="stop-color:#FFFFFF;stop-opacity:0"/>
				</radialGradient>
				<path style="fill:url(#SVGID_25_);" d="M460.949,637.97c-2.917,2.917-7.905,2.66-11.139-0.575s-3.492-8.222-0.575-11.139
					s7.905-2.66,11.139,0.575S463.866,635.053,460.949,637.97z"/>
			</g>
			<g style="opacity:0.5;">
				
					<linearGradient id="SVGID_26_" gradientUnits="userSpaceOnUse" x1="337.9671" y1="-7568.4438" x2="337.9671" y2="-7600.3335" gradientTransform="matrix(0.4162 0.4162 -0.3754 0.3754 -2457.5476 3143.7915)">
					<stop  offset="0" style="stop-color:#FFFFFF;stop-opacity:0.3"/>
					<stop  offset="1" style="stop-color:#FFFFFF;stop-opacity:0"/>
				</linearGradient>
				<path style="fill:url(#SVGID_26_);" d="M533.17,440.851c-3.305,3.305-7.425,4.545-9.201,2.769
					c-1.776-1.776-0.536-5.895,2.769-9.201c3.305-3.305,7.425-4.545,9.201-2.769C537.715,433.427,536.476,437.546,533.17,440.851z"
					/>
				
					<linearGradient id="SVGID_27_" gradientUnits="userSpaceOnUse" x1="337.9671" y1="-7568.4438" x2="337.9671" y2="-7590.749" gradientTransform="matrix(0.4162 0.4162 -0.3754 0.3754 -2457.5476 3143.7915)">
					<stop  offset="0" style="stop-color:#FFFFFF;stop-opacity:0.3"/>
					<stop  offset="1" style="stop-color:#FFFFFF;stop-opacity:0"/>
				</linearGradient>
				<path style="fill:url(#SVGID_27_);" d="M530.147,441.426c-2.312,2.312-5.078,3.295-6.178,2.195
					c-1.1-1.1-0.117-3.866,2.195-6.178c2.312-2.312,5.078-3.295,6.178-2.195C533.442,436.348,532.459,439.114,530.147,441.426z"/>
				
					<linearGradient id="SVGID_28_" gradientUnits="userSpaceOnUse" x1="337.9671" y1="-7568.4438" x2="337.9671" y2="-7690.0771" gradientTransform="matrix(0.4162 0.4162 -0.3754 0.3754 -2457.5476 3143.7915)">
					<stop  offset="0" style="stop-color:#FFFFFF"/>
					<stop  offset="0.2169" style="stop-color:#FFFFFF;stop-opacity:0.2349"/>
					<stop  offset="1" style="stop-color:#FFFFFF;stop-opacity:0"/>
				</linearGradient>
				<path style="fill:url(#SVGID_28_);" d="M527.352,442.124c0,0-2.861,2.017-3.382,1.496c-0.521-0.521,1.496-3.382,1.496-3.382
					s43.638-42.794,44.159-42.273C570.146,398.486,527.352,442.124,527.352,442.124z"/>
				
					<radialGradient id="SVGID_29_" cx="337.9671" cy="-7572.6841" r="9.8166" gradientTransform="matrix(0.4162 0.4162 -0.3754 0.3754 -2457.5476 3143.7915)" gradientUnits="userSpaceOnUse">
					<stop  offset="0" style="stop-color:#FFFFFF;stop-opacity:0.5"/>
					<stop  offset="1" style="stop-color:#FFFFFF;stop-opacity:0"/>
				</radialGradient>
				<path style="fill:url(#SVGID_29_);" d="M529.647,446.115c-2.035,2.035-5.514,1.855-7.771-0.401s-2.436-5.736-0.401-7.771
					c2.035-2.035,5.514-1.855,7.771,0.401C531.503,440.601,531.682,444.08,529.647,446.115z"/>
			</g>
			<g style="opacity:0.5;">
				
					<linearGradient id="SVGID_30_" gradientUnits="userSpaceOnUse" x1="-171.3354" y1="-7176.1309" x2="-171.3354" y2="-7208.02" gradientTransform="matrix(0.4162 0.4162 -0.3754 0.3754 -2457.5476 3143.7915)">
					<stop  offset="0" style="stop-color:#FFFFFF;stop-opacity:0.3"/>
					<stop  offset="1" style="stop-color:#FFFFFF;stop-opacity:0"/>
				</linearGradient>
				<path style="fill:url(#SVGID_30_);" d="M173.925,376.119c-3.305,3.305-7.425,4.545-9.201,2.769
					c-1.776-1.776-0.536-5.895,2.769-9.201c3.305-3.305,7.425-4.545,9.201-2.769C178.47,368.694,177.231,372.813,173.925,376.119z"
					/>
				
					<linearGradient id="SVGID_31_" gradientUnits="userSpaceOnUse" x1="-171.3354" y1="-7176.1309" x2="-171.3354" y2="-7198.436" gradientTransform="matrix(0.4162 0.4162 -0.3754 0.3754 -2457.5476 3143.7915)">
					<stop  offset="0" style="stop-color:#FFFFFF;stop-opacity:0.3"/>
					<stop  offset="1" style="stop-color:#FFFFFF;stop-opacity:0"/>
				</linearGradient>
				<path style="fill:url(#SVGID_31_);" d="M170.902,376.693c-2.312,2.312-5.078,3.295-6.178,2.195
					c-1.1-1.1-0.117-3.866,2.195-6.178s5.078-3.295,6.178-2.195C174.197,371.616,173.214,374.381,170.902,376.693z"/>
				
					<linearGradient id="SVGID_32_" gradientUnits="userSpaceOnUse" x1="-171.3354" y1="-7176.1309" x2="-171.3354" y2="-7297.7637" gradientTransform="matrix(0.4162 0.4162 -0.3754 0.3754 -2457.5476 3143.7915)">
					<stop  offset="0" style="stop-color:#FFFFFF"/>
					<stop  offset="0.2169" style="stop-color:#FFFFFF;stop-opacity:0.2349"/>
					<stop  offset="1" style="stop-color:#FFFFFF;stop-opacity:0"/>
				</linearGradient>
				<path style="fill:url(#SVGID_32_);" d="M168.107,377.392c0,0-2.861,2.017-3.382,1.496c-0.521-0.521,1.496-3.382,1.496-3.382
					s43.638-42.794,44.159-42.273C210.901,333.753,168.107,377.392,168.107,377.392z"/>
				
					<radialGradient id="SVGID_33_" cx="-171.3354" cy="-7180.3711" r="9.8166" gradientTransform="matrix(0.4162 0.4162 -0.3754 0.3754 -2457.5476 3143.7915)" gradientUnits="userSpaceOnUse">
					<stop  offset="0" style="stop-color:#FFFFFF;stop-opacity:0.5"/>
					<stop  offset="1" style="stop-color:#FFFFFF;stop-opacity:0"/>
				</radialGradient>
				<path style="fill:url(#SVGID_33_);" d="M170.402,381.382c-2.035,2.035-5.514,1.855-7.771-0.401
					c-2.257-2.257-2.436-5.736-0.401-7.771s5.514-1.855,7.771,0.401S172.437,379.347,170.402,381.382z"/>
			</g>
			<g>
				
					<radialGradient id="SVGID_34_" cx="-1367.8574" cy="-2097.8738" r="25.0646" gradientTransform="matrix(0.7071 0.7071 -0.7071 0.7071 355.994 2793.4539)" gradientUnits="userSpaceOnUse">
					<stop  offset="0" style="stop-color:#FFFFFF;stop-opacity:0.5"/>
					<stop  offset="1" style="stop-color:#FFFFFF;stop-opacity:0"/>
				</radialGradient>
				<circle style="fill:url(#SVGID_34_);" cx="872.193" cy="342.812" r="25.065"/>
				
					<linearGradient id="SVGID_35_" gradientUnits="userSpaceOnUse" x1="-1367.8574" y1="-2087.0471" x2="-1367.8574" y2="-2168.47" gradientTransform="matrix(0.7071 0.7071 -0.7071 0.7071 355.994 2793.4539)">
					<stop  offset="0" style="stop-color:#FFFFFF;stop-opacity:0.3"/>
					<stop  offset="1" style="stop-color:#FFFFFF;stop-opacity:0"/>
				</linearGradient>
				<path style="fill:url(#SVGID_35_);" d="M907.273,335.628c-15.899,15.899-35.032,22.543-42.735,14.839
					c-7.703-7.703-1.059-26.836,14.839-42.735s35.032-22.543,42.735-14.839S923.172,319.729,907.273,335.628z"/>
				
					<linearGradient id="SVGID_36_" gradientUnits="userSpaceOnUse" x1="-1367.8574" y1="-2087.0471" x2="-1367.8574" y2="-2143.9985" gradientTransform="matrix(0.7071 0.7071 -0.7071 0.7071 355.994 2793.4539)">
					<stop  offset="0" style="stop-color:#FFFFFF;stop-opacity:0.3"/>
					<stop  offset="1" style="stop-color:#FFFFFF;stop-opacity:0"/>
				</linearGradient>
				<path style="fill:url(#SVGID_36_);" d="M893.311,338.97c-11.12,11.12-24.003,16.268-28.773,11.498
					c-4.771-4.771,0.377-17.653,11.498-28.773c11.12-11.12,24.003-16.268,28.773-11.498
					C909.579,314.967,904.432,327.849,893.311,338.97z"/>
				
					<linearGradient id="SVGID_37_" gradientUnits="userSpaceOnUse" x1="-1367.8574" y1="-2087.0471" x2="-1367.8574" y2="-2397.6108" gradientTransform="matrix(0.7071 0.7071 -0.7071 0.7071 355.994 2793.4539)">
					<stop  offset="0" style="stop-color:#FFFFFF"/>
					<stop  offset="0.2169" style="stop-color:#FFFFFF;stop-opacity:0.2349"/>
					<stop  offset="1" style="stop-color:#FFFFFF;stop-opacity:0"/>
				</linearGradient>
				<path style="fill:url(#SVGID_37_);" d="M880.36,342.825c0,0-13.563,9.901-15.822,7.642c-2.259-2.259,7.642-15.822,7.642-15.822
					s209.701-206.038,211.96-203.78C1086.398,133.125,880.36,342.825,880.36,342.825z"/>
			</g>
		</g>
		<g style="clip-path:url(#SVGID_2_);">
			<linearGradient id="SVGID_38_" gradientUnits="userSpaceOnUse" x1="855.6237" y1="459.0157" x2="934.5217" y2="522.5912">
				<stop  offset="0" style="stop-color:#FFFFFF;stop-opacity:0.4"/>
				<stop  offset="1" style="stop-color:#FFFFFF;stop-opacity:0.3"/>
			</linearGradient>
			<path style="fill:url(#SVGID_38_);" d="M851.5,453.88c0,0,0.402,15.681,3.619,28.949c3.216,13.268,25.732,17.691,25.933,32.567
				c0.201,14.876-0.617,63.171,9.542,77.22c10.159,14.049,91.376-137.329,91.376-137.329s-28.453-8.547-42.82-7.84
				c-12.263,0.603-43.021,18.495-54.681,11.459c-15.681-14.072-18.093-11.258-25.129-12.866
				C854.314,438.802,851.5,453.88,851.5,453.88z"/>
			
				<linearGradient id="SVGID_39_" gradientUnits="userSpaceOnUse" x1="1246.2124" y1="3850.3259" x2="1246.2124" y2="3838.666" gradientTransform="matrix(0.7071 -0.7071 0.7071 0.7071 -2739.9832 -1383.9047)">
				<stop  offset="0" style="stop-color:#ECDBAC"/>
				<stop  offset="1" style="stop-color:#FC9E49"/>
			</linearGradient>
			<path style="fill:url(#SVGID_39_);" d="M857.141,447.665c0,0,4.11,1.576,5.463,3.351c1.352,1.775,1.507,4.464,2.782,4.894
				c-1.974,1.405-6.925,1.523-12.469-4.02C855.24,449.566,857.141,447.665,857.141,447.665z"/>
			<path style="fill:#CBA5EC;" d="M834.661,438.282l15.078,15.078l-5.337,5.337c-1.018,1.018-2.536,0.88-2.89-0.264l-8.587-17.257
				L834.661,438.282z"/>
			<polygon style="fill:#9560CC;" points="844.336,449.382 846.607,456.493 849.739,453.36 834.661,438.282 834.127,439.173 			"/>
			<path style="fill:#CBA5EC;" d="M843.567,429.377l15.078,15.078l5.856-5.856c0.772-0.772,0.667-1.922-0.2-2.191l-17.84-8.768
				L843.567,429.377z"/>
			<polygon style="fill:#9560CC;" points="854.667,439.051 861.778,441.322 858.645,444.455 843.567,429.377 844.458,428.842 			"/>
			<path style="fill:#8036EA;" d="M848.46,452.081l-0.569-0.569l-6.56,6.56l0.18,0.361c0.047,0.151,0.115,0.283,0.198,0.398
				L848.46,452.081z"/>
			<polygon style="fill:#8036EA;" points="857.365,443.176 864.188,436.353 863.426,435.978 856.797,442.607 			"/>
			
				<linearGradient id="SVGID_40_" gradientUnits="userSpaceOnUse" x1="1236.4034" y1="3814.4417" x2="1254.5398" y2="3814.4417" gradientTransform="matrix(0.7071 -0.7071 0.7071 0.7071 -2739.9832 -1383.9047)">
				<stop  offset="0" style="stop-color:#BAA7CE"/>
				<stop  offset="0.3865" style="stop-color:#FFFFFF"/>
				<stop  offset="0.5259" style="stop-color:#FFFFFF"/>
				<stop  offset="0.6788" style="stop-color:#FFFFFF"/>
				<stop  offset="1" style="stop-color:#CEBFE0"/>
			</linearGradient>
			<path style="fill:url(#SVGID_40_);" d="M860.604,442.496L847.78,455.32l-2.556-6.474c0,0-19.488-19.488-19.526-19.527
				c-4.671-4.759-6.491-10.532-4.059-12.963c2.43-2.43,8.195-0.615,12.951,4.047c0.042,0.041,19.728,19.726,19.728,19.726
				L860.604,442.496z"/>
			
				<linearGradient id="SVGID_41_" gradientUnits="userSpaceOnUse" x1="1239.4656" y1="3795.7107" x2="1251.4778" y2="3795.7107" gradientTransform="matrix(0.7071 -0.7071 0.7071 0.7071 -2739.9832 -1383.9047)">
				<stop  offset="0" style="stop-color:#5024A3"/>
				<stop  offset="1" style="stop-color:#8036EA"/>
			</linearGradient>
			<path style="fill:url(#SVGID_41_);" d="M826.188,420.904c1.952-1.952,5.732-2.727,5.761-2.733
				c-4.083-2.945-8.317-3.808-10.31-1.816c-1.992,1.992-1.129,6.227,1.816,10.31C823.459,426.65,824.233,422.859,826.188,420.904z"
				/>
			
				<linearGradient id="SVGID_42_" gradientUnits="userSpaceOnUse" x1="1245.4717" y1="3804.8926" x2="1245.4717" y2="3801.4751" gradientTransform="matrix(0.7071 -0.7071 0.7071 0.7071 -2739.9832 -1383.9047)">
				<stop  offset="0" style="stop-color:#2A49AD"/>
				<stop  offset="1" style="stop-color:#789FFF"/>
			</linearGradient>
			<path style="fill:url(#SVGID_42_);" d="M826.074,427.558l1.706,1.706c0,0,0.394-2.1,2.531-4.237s4.237-2.531,4.237-2.531
				l-1.706-1.706c0,0-2.492,1.07-4.273,2.852C826.788,425.422,826.074,427.558,826.074,427.558z"/>
			<path style="fill:#E7D7FF;" d="M843.246,437.962c0,0,6.308,4.495,11.852,10.039c-0.55,0.55-1.263,1.263-1.773,1.773
				C847.758,444.254,843.246,437.962,843.246,437.962z"/>
			<path style="fill:#A68DCE;" d="M843.246,437.962c0,0,4.511,6.292,10.079,11.812c0.254-0.254,0.558-0.558,0.867-0.867
				L843.246,437.962z"/>
			
				<linearGradient id="SVGID_43_" gradientUnits="userSpaceOnUse" x1="1238.6705" y1="3838.2639" x2="1252.2728" y2="3838.2639" gradientTransform="matrix(0.7071 -0.7071 0.7071 0.7071 -2739.9832 -1383.9047)">
				<stop  offset="0" style="stop-color:#730C97"/>
				<stop  offset="1" style="stop-color:#6D27D0"/>
			</linearGradient>
			<polygon style="fill:url(#SVGID_43_);" points="859.248,446.126 851.411,453.963 849.383,453.717 859.001,444.099 			"/>
		</g>
		<g style="clip-path:url(#SVGID_2_);">
			
				<radialGradient id="SVGID_44_" cx="330.7914" cy="-349.1873" r="138.6653" gradientTransform="matrix(0.9942 0.1073 -0.1073 0.9942 123.907 480.306)" gradientUnits="userSpaceOnUse">
				<stop  offset="0" style="stop-color:#0061C1;stop-opacity:0"/>
				<stop  offset="0.8579" style="stop-color:#0061C1;stop-opacity:0"/>
				<stop  offset="1" style="stop-color:#0061C1;stop-opacity:0.6"/>
			</radialGradient>
			<circle style="opacity:0.8;fill:url(#SVGID_44_);" cx="490.245" cy="168.615" r="138.665"/>
			<circle style="fill:#102D77;" cx="490.245" cy="168.615" r="110.585"/>
			<path style="fill:#0061C1;" d="M595.964,136.083c-12.62-40.939-48.561-72.528-93.857-77.415
				c-27.257-2.941-53.266,4.289-74.25,18.641c7.694,11.02,16.227,24.052,26.001,29.146c19.021,9.914,48.196-4.118,50.368,5.434
				s26.595-0.916,28.852,5.151C534.733,121.489,569.357,136.695,595.964,136.083z"/>
			<path style="fill:#0061C1;" d="M437.568,171.084c-21.646-2.335-42.384-18.648-54.438-30.004
				c-1.299,5.078-2.253,10.309-2.832,15.673c-5.171,47.929,21.1,92.003,62.259,111.669c13.666-6.784,20.473-18.214,21.132-26.386
				c0.861-10.68-20.44-23.752-3.353-39.087S471.243,174.717,437.568,171.084z"/>
			<path style="fill:#0061C1;" d="M570.986,194.795c-59.237-9.594-90.606,38.268-73.359,43.04
				c17.246,4.772,27.078,0.01,42.022,4.533c6.125,1.854,11.238,8.099,16.281,15.208c18.384-13.581,32.539-32.794,39.714-55.425
				C589.414,199.05,581.361,196.476,570.986,194.795z"/>
			
				<radialGradient id="SVGID_45_" cx="330.7914" cy="-349.1873" r="110.5849" gradientTransform="matrix(0.9942 0.1073 -0.1073 0.9942 123.907 480.306)" gradientUnits="userSpaceOnUse">
				<stop  offset="0" style="stop-color:#0061C1;stop-opacity:0"/>
				<stop  offset="0.8022" style="stop-color:#FF7BAC;stop-opacity:0"/>
				<stop  offset="1" style="stop-color:#FF7BAC;stop-opacity:0.6"/>
			</radialGradient>
			<circle style="opacity:0.7;fill:url(#SVGID_45_);" cx="490.245" cy="168.615" r="110.585"/>
			<path style="fill:#1673C8;" d="M688.272,166.125c-10.462-6.71-25.559-13.308-44.871-19.61
				c-14.415-4.705-30.671-9.083-48.277-13.042c1.718,5.116,3.069,10.387,4.025,15.779c14.385,3.406,27.74,7.1,39.762,11.023
				c17.887,5.838,32.254,12.073,41.548,18.034c8.67,5.561,11.485,9.962,11.26,12.042s-3.913,5.779-13.57,9.363
				c-10.351,3.841-25.717,6.869-44.438,8.757c-39.825,4.016-92.187,2.946-147.44-3.015s-106.639-16.083-144.691-28.501
				c-17.887-5.837-32.254-12.073-41.548-18.034c-8.67-5.561-11.485-9.962-11.261-12.042s3.913-5.779,13.57-9.363
				c10.351-3.841,25.717-6.869,44.438-8.757c12.582-1.269,26.417-2.029,41.198-2.289c2.084-5.063,4.528-9.925,7.298-14.557
				c-18.045,0.112-34.861,0.923-49.948,2.445c-20.212,2.038-36.369,5.264-48.021,9.588c-14.252,5.289-21.965,12.482-22.925,21.381
				s5.041,17.572,17.837,25.778c10.462,6.71,25.559,13.308,44.871,19.61c38.978,12.721,91.407,23.066,147.629,29.132
				c56.222,6.065,109.651,7.14,150.445,3.026c20.212-2.038,36.369-5.264,48.021-9.588c14.252-5.289,21.965-12.482,22.925-21.381
				C707.069,183.004,701.068,174.331,688.272,166.125z"/>
		</g>
		<g style="clip-path:url(#SVGID_2_);">
			<radialGradient id="SVGID_46_" cx="242.1706" cy="651.0923" r="106.9492" gradientUnits="userSpaceOnUse">
				<stop  offset="0" style="stop-color:#0061C1;stop-opacity:0"/>
				<stop  offset="0.8767" style="stop-color:#DB2577;stop-opacity:0"/>
				<stop  offset="1" style="stop-color:#DB2577;stop-opacity:0.4"/>
			</radialGradient>
			<circle style="fill:url(#SVGID_46_);" cx="242.171" cy="651.092" r="106.949"/>
			<circle style="fill:#DB2577;" cx="242.171" cy="651.092" r="86.444"/>
			<path style="opacity:0.5;fill:#8F104D;" d="M158.825,674.106c10.075,36.57,43.573,63.43,83.345,63.43
				c30.2,0,56.783-15.487,72.241-38.952c-9.406-5.665-20.533-7.557-29.511-6.026c-12.526,2.137-27.455,17.601-38.63,16.957
				c-11.175-0.645-29.612-28.725-51.555-39.231C176.085,661.365,171.004,670.024,158.825,674.106z"/>
			<path style="opacity:0.5;fill:#8F104D;" d="M199.552,622.144c-14.27-2.595-23.073-12.281-28.165-20.682
				c-9.269,13.195-14.944,29.099-15.597,46.29c22.357,9.305,85.264,24.012,88.994-0.68
				C249.006,619.128,226.088,626.968,199.552,622.144z"/>
			<path style="opacity:0.5;fill:#8F104D;" d="M242.171,564.648c-14.872,0-28.866,3.756-41.087,10.371
				c1.225,10.56,5.156,25.513,17.566,26.418c19.299,1.407,62.923-8.443,64.531,11.66c1.467,18.344,25.7,45.225,44.899,47.65
				c0.352-3.17,0.534-6.391,0.534-9.655C328.615,603.351,289.912,564.648,242.171,564.648z"/>
			<radialGradient id="SVGID_47_" cx="242.1706" cy="651.0923" r="86.4439" gradientUnits="userSpaceOnUse">
				<stop  offset="0" style="stop-color:#0061C1;stop-opacity:0"/>
				<stop  offset="0.8022" style="stop-color:#F39467;stop-opacity:0"/>
				<stop  offset="1" style="stop-color:#F89A5E;stop-opacity:0.8"/>
			</radialGradient>
			<circle style="fill:url(#SVGID_47_);" cx="242.171" cy="651.092" r="86.444"/>
			<path style="fill:#F2619C;" d="M362.063,634.899c-6.777-4.107-16.361-7.764-28.486-10.872c-3.229-0.827-6.598-1.605-10.092-2.333
				c1.037,2.869,1.929,5.808,2.662,8.809c1.853,0.423,3.665,0.86,5.433,1.313c11.2,2.87,20.299,6.314,26.315,9.96
				c5.23,3.169,8.111,6.478,8.111,9.316s-2.88,6.147-8.111,9.316c-6.016,3.645-15.116,7.089-26.315,9.96
				c-23.832,6.108-55.585,9.472-89.41,9.472s-65.578-3.364-89.41-9.472c-11.2-2.87-20.299-6.314-26.315-9.96
				c-5.23-3.169-8.111-6.478-8.111-9.316s2.88-6.147,8.111-9.316c6.016-3.645,15.116-7.089,26.315-9.96
				c1.768-0.453,3.581-0.891,5.433-1.313c0.733-3.001,1.624-5.94,2.662-8.809c-3.494,0.728-6.863,1.506-10.092,2.333
				c-12.125,3.107-21.709,6.765-28.486,10.872c-7.952,4.819-11.985,10.267-11.985,16.194s4.032,11.375,11.985,16.193
				c6.777,4.107,16.361,7.765,28.486,10.872c24.466,6.27,56.928,9.724,91.406,9.724s66.941-3.453,91.406-9.724
				c12.125-3.107,21.709-6.765,28.486-10.872c7.952-4.819,11.985-10.267,11.985-16.193S370.016,639.717,362.063,634.899z"/>
		</g>
		<g style="clip-path:url(#SVGID_2_);">
			<radialGradient id="SVGID_48_" cx="869.5928" cy="584.3496" r="82.2223" gradientUnits="userSpaceOnUse">
				<stop  offset="0" style="stop-color:#0061C1;stop-opacity:0"/>
				<stop  offset="0.8767" style="stop-color:#66E7D7;stop-opacity:0"/>
				<stop  offset="1" style="stop-color:#66E7D7;stop-opacity:0.5"/>
			</radialGradient>
			<circle style="fill:url(#SVGID_48_);" cx="869.593" cy="584.35" r="82.222"/>
			<circle style="fill:#66E7D7;" cx="869.593" cy="584.35" r="69.983"/>
			<path style="fill:#41DECA;" d="M869.593,514.367c-3.263,0-6.473,0.224-9.617,0.656c-2.548,2.566-4.618,5.238-5.133,7.503
				c-1.569,6.904,6.277,12.396,11.298,21.811c5.021,9.415-12.553,24.949-23.223,40.013c-10.67,15.064-22.438,13.808-29.343,19.3
				c-2.997,2.384-6.792,2.698-10.435,2.701c9.223,27.872,35.489,47.982,66.453,47.982c38.651,0,69.983-31.332,69.983-69.983
				C939.576,545.699,908.243,514.367,869.593,514.367z"/>
			<path style="fill:#2ACCB0;" d="M869.593,654.333c38.651,0,69.983-31.332,69.983-69.983c0-21.078-9.319-39.979-24.061-52.809
				c-5.027,2.052-8.885,3.628-9.99,8.873c-1.883,8.944,4.394,22.595,0,32.01c-4.394,9.415-1.883,31.853-14.436,38.13
				c-12.553,6.276-21.34,14.436-38.13,13.808c-15.916-0.595-22.946,7.158-34.263,8.019
				C831.456,645.897,849.539,654.333,869.593,654.333z"/>
			<ellipse style="fill:#13A87A;" cx="855.471" cy="541.669" rx="8.159" ry="4.864"/>
			<ellipse style="fill:#13A87A;" cx="907.173" cy="560.891" rx="6.983" ry="8.395"/>
			<path style="fill:#13A87A;" d="M799.713,588.163c0.856,0.375,1.77,0.581,2.721,0.581c4.766,0,8.63-5.093,8.63-11.376
				c0-6.283-3.864-11.376-8.63-11.376c-0.132,0-0.264,0.005-0.395,0.013c-1.584,5.847-2.429,11.998-2.429,18.346
				C799.61,585.629,799.645,586.9,799.713,588.163z"/>
			<circle style="fill:#13A87A;" cx="846.291" cy="605.768" r="10.749"/>
			<path style="fill:#13A87A;" d="M895.483,638.014c-12.046,0-21.811,3.653-21.811,8.159c0,2.835,3.867,5.333,9.734,6.795
				c10.291-2.06,19.767-6.378,27.89-12.414C907.323,638.989,901.708,638.014,895.483,638.014z"/>
			
				<ellipse transform="matrix(0.866 -0.5 0.5 0.866 -178.3781 531.3843)" style="fill:#13A87A;" cx="902.388" cy="598.55" rx="6.904" ry="9.807"/>
			<path style="fill:#13A87A;" d="M881.134,515.314c-1.237,1.048-1.97,2.35-1.97,3.76c0,3.466,4.426,6.276,9.885,6.276
				c4.601,0,8.467-1.996,9.57-4.698C893.134,518.149,887.269,516.332,881.134,515.314z"/>
		</g>
		<g style="clip-path:url(#SVGID_2_);">
			<path style="fill:#91A5C1;" d="M516.43,483.588c0,0-6.262-18.263-7.305-20.872c-1.044-2.609-8.871-9.914-17.742-7.305
				s-16.176,12.523-12.002,22.438c4.174,9.914,13.045,17.22,14.089,22.96c1.044,5.74,3.131,17.742,7.827,19.307
				s18.785-5.218,20.351-13.045S516.43,483.588,516.43,483.588z"/>
			<path style="fill:#91A5C1;" d="M524.519,550.304c0,0-6.002,2.163-10.699,0.076c-4.696-2.087-19.307-10.958-24.525-6.784
				c-5.218,4.174-9.393,20.872-1.044,32.874c3.131,4.696,37.048,8.349,41.745,9.914s13.645-8.09,12.562-15.525
				C541.477,563.425,524.519,550.304,524.519,550.304z"/>
			<path style="fill:#B3CBF2;" d="M519.748,480.892c0,0-6.262-18.263-7.305-20.872c-1.044-2.609-8.871-9.914-17.742-7.305
				c-8.871,2.609-16.176,12.523-12.002,22.438c4.174,9.914,13.045,17.22,14.089,22.96s3.131,17.742,7.827,19.307
				s18.785-5.218,20.351-13.045C526.532,496.546,519.748,480.892,519.748,480.892z"/>
			<path style="fill:#B3CBF2;" d="M527.838,547.608c0,0-6.002,2.163-10.699,0.076c-4.696-2.087-19.307-10.958-24.525-6.784
				c-5.218,4.174-9.393,20.872-1.044,32.874c3.131,4.696,37.049,8.349,41.745,9.914c4.696,1.565,13.645-8.09,12.562-15.525
				C544.795,560.729,527.838,547.608,527.838,547.608z"/>
			<path style="fill:#D9E6FF;" d="M634.817,480.096c0,0-43.059-23.73-45.146-24.773s-69.922,23.481-69.922,23.481
				s-9.914,12.523-6.262,19.307c3.653,6.784,7.827,9.393,11.48,8.349c3.653-1.044,54.268-17.742,54.268-17.742l42.788,16.176
				l22.492-2.294L634.817,480.096z"/>
			<path style="opacity:0.8;fill:#94A4C4;" d="M611.549,500.935l16.217,1.351h4.77v-2.903c0,0-32.145-7.259-37.122-9.125
				c-4.977-1.866-14.86-5.538-14.792-6.502c0.068-0.964-2.006,0.073-2.006,0.073l0.703,4.921L611.549,500.935z"/>
			<path style="fill:#94A4C4;" d="M516.396,499.722c-1.497-1.416-2.439-1.885-3.024-1.838c0.037,0.076,0.074,0.153,0.114,0.227
				c3.653,6.784,7.827,9.393,11.48,8.349c3.255-0.93,43.809-14.293,52.596-17.19l1.053-5.441c0,0-19.494,7.466-29.242,10.162
				C539.626,496.687,521.579,504.624,516.396,499.722z"/>
			<path style="fill:#D9E6FF;" d="M648.635,500.199c0,0-54.268-5.218-59.486-3.131c-5.218,2.087-64.183,51.137-64.183,51.137
				s0.522,16.176,16.698,22.438c10.958-5.74,56.877-39.658,56.877-39.658s64.183,8.349,72.01,7.305
				c7.827-1.044,16.176-13.567,16.176-13.567l-4.174-9.393L648.635,500.199z"/>
			<path style="opacity:0.8;fill:#94A4C4;" d="M598.218,531.224l-8.404-10.065c0,0-12.651,21.568-22.19,27.79
				s-30.146,18.769-34.256,16.643l0,0c2.163,1.962,4.879,3.728,8.297,5.051C552.085,565.185,594.122,534.244,598.218,531.224z"/>
			<path style="opacity:0.8;fill:#94A4C4;" d="M670.695,532.358c0,0-47.906-2.074-59.313-4.77
				c-11.406-2.696-17.398-5.558-20.624-7.341c-2.384-1.318,3.338,7.174,6.486,11.695c0.837-0.616,1.297-0.956,1.297-0.956
				s64.183,8.349,72.01,7.305c1.312-0.175,2.638-0.673,3.938-1.38L670.695,532.358z"/>
			<path style="fill:#AEC3E5;" d="M728.111,441.513c0,0,12.885,7.027,13.928,10.158c2.087-3.131,9.641-5.418,13.477-6.208
				c-1.037-4.977-20.783-20.405-26.001-21.97s-9.152,6.152-9.152,6.152L728.111,441.513z"/>
			<path style="fill:#718DB5;" d="M755.179,448.953c-5.176,10.664-17.219,34.333-20.446,37.157
				c-4.174,3.653-1.044-41.32-1.044-41.32l7.305-1.99l12.636,0.79C753.631,443.59,757.175,444.841,755.179,448.953z"/>
			<path style="fill:#D9E6FF;" d="M677.426,423.512c0,0-4.266-2.107-9.484-0.019c-5.218,2.087-27.656,14.089-27.656,14.089
				s-35.534-21.561-36.577-22.605c-1.044-1.044-5.442-1.793-8.573,3.425c-3.131,5.218-2.626,9.64-2.626,9.64
				s3.944,7.452,14.38,15.801c10.436,8.349,22.96,18.263,28.178,18.263c5.218,0,14.089-3.653,14.089-3.653l-13.925,23.301
				c0,0,2.967,18.443,15.491,26.792c12.523,8.349,26.612,10.958,26.612,10.958l36.005-16.176l22.268-48.12
				c0,0,1.867-11.406-6.613-17.107C715.773,429.216,677.426,423.512,677.426,423.512z"/>
			<path style="fill:#94A4C4;" d="M682.228,517.307l20.542-9.229c4.645-5.587,11.062-13.425,11.062-14.087
				c0-1.037,3.957-39.89,3.957-39.89s-10.594,33.669-15.986,36.157c-5.392,2.489-15.969,18.872-24.679,16.384
				s-23.642-2.696-29.034-6.429c-5.392-3.733,10.992,9.125,10.992,9.125L682.228,517.307z"/>
			<path style="fill:#718DB5;" d="M730.939,439.673c-1.722,0.275-4.849,0.863-8.233,1.925c-7.021,2.203-11.541,5.292-13.435,9.179
				c-0.252,0.518-0.564,1.15-0.924,1.879c-2.555,5.182-7.871,15.964-11.638,26.017c-6.643,17.731-4.443,22.512-2.21,24.567
				c2.761,2.54,5.295,4.175,7.403,5.229l5.308-2.385c-2.006-0.461-5.724-2.052-9.903-5.896c-0.738-0.679-2.682-4.131,3.286-20.059
				c3.694-9.86,8.949-20.517,11.474-25.638c0.363-0.737,0.677-1.374,0.932-1.897c2.819-5.786,15.254-8.458,19.807-9
				c0.315-0.037,0.603-0.145,0.855-0.303C732.983,442.017,732.095,440.784,730.939,439.673z"/>
			<path style="fill:#718DB5;" d="M679.472,423.835c-1.307-0.213-2.046-0.323-2.046-0.323s-0.738-0.363-1.972-0.639
				c-0.001,0.004-0.003,0.008-0.004,0.012c-0.029,0.092-2.958,9.276-7.596,19.195c-6.007,12.849-12.068,21.026-17.527,23.646
				c-2.047,0.983-3.959,1.157-5.832,0.53l-2.147,3.592c0.099,0.059,0.204,0.113,0.315,0.156c1.329,0.514,2.681,0.77,4.048,0.77
				c1.783,0,3.592-0.437,5.411-1.31c6.423-3.083,12.98-11.706,19.49-25.629c4.751-10.162,7.67-19.313,7.792-19.698
				C679.435,424.038,679.456,423.937,679.472,423.835z"/>
			<path style="opacity:0.8;fill:#94A4C4;" d="M635.719,462.089l-0.487-5.842c0,0-2.489,1.452-5.807,0
				c-3.318-1.452-33.804-24.886-33.804-24.886s-2.281-3.318-2.074-5.392c0.127-1.266,0.315,0.499-0.207,3.318
				c0.01,0.354,0.207,0.83,0.207,0.83s2.907,5.378,13.343,13.727c10.436,8.349,22.96,18.263,28.178,18.263
				C635.279,462.107,635.496,462.1,635.719,462.089z"/>
			<path style="opacity:0.8;fill:#94A4C4;" d="M649.127,458.528l2.489-3.526c0,0-12.443,4.77-16.384,1.244
				c-0.102,2.854,0.097,4.704,0.325,5.85c5.264-0.21,13.6-3.643,13.6-3.643l-0.187,0.171L649.127,458.528z"/>
			<path style="fill:#DB6445;" d="M636.762,479.246c0,0,2.767,8.911,11.12,17.234c8.221,8.191,24.713,17.131,38.781,17.628
				c14.148,0.5-7.673,4.77-7.673,4.77s-29.301-9.674-35.812-18.06c-6.909-8.9-7.739-12.218-8.776-19.269
				C634.195,480.511,635.181,479.018,636.762,479.246z"/>
			<g>
				<path style="fill:#718DB5;" d="M768.946,462.894c-3.668,0-7.766-0.694-12.26-2.079c-5.469-1.686-9.503-3.801-9.672-3.89
					c-1.52-0.802-2.102-2.683-1.3-4.203c0.802-1.52,2.683-2.102,4.203-1.3c0.11,0.057,3.822,1.985,8.712,3.481
					c6.229,1.906,11.56,2.274,15.417,1.063c2.845-0.892,4.903-2.626,6.293-5.301c4.901-9.435,3.004-20.53-0.832-26.846
					c-3.468-5.709-7.423-6.561-9.473-6.561c-6.836,0-17.624-0.93-30.198-5.362c-15.052-5.305-28.672-14.218-40.482-26.493
					c-4.831-5.021-9.707-8.358-14.493-9.918c-4.006-1.305-7.974-1.365-11.793-0.176c-10.212,3.178-17.237,14.532-18.382,21.506
					c-0.901,5.491,4.611,10.342,9.394,13.444c5.759,3.736,11.93,5.904,11.992,5.926c1.622,0.565,2.48,2.337,1.917,3.959
					c-0.564,1.622-2.334,2.481-3.957,1.918c-0.277-0.096-6.856-2.399-13.241-6.521c-11.572-7.47-13.046-14.855-12.244-19.734
					c0.78-4.752,3.43-10.392,7.087-15.086c3.051-3.916,8.231-9.064,15.586-11.352c7.493-2.332,19.234-2.191,32.619,11.721
					c11.131,11.569,23.938,19.96,38.066,24.939c11.744,4.139,21.779,5.008,28.13,5.008c5.712,0,11.103,3.482,14.79,9.553
					c2.684,4.418,4.327,9.973,4.627,15.642c0.326,6.169-0.915,12.152-3.591,17.302c-2.164,4.165-5.517,6.982-9.966,8.374
					C773.79,462.565,771.469,462.894,768.946,462.894z"/>
			</g>
			<circle style="fill:#CED9ED;" cx="706.034" cy="406.273" r="33.396"/>
			<linearGradient id="SVGID_49_" gradientUnits="userSpaceOnUse" x1="675.05" y1="411.4579" x2="728.3485" y2="411.4579">
				<stop  offset="0" style="stop-color:#020B31"/>
				<stop  offset="0.5028" style="stop-color:#150557"/>
				<stop  offset="1" style="stop-color:#0D0339"/>
			</linearGradient>
			<ellipse style="fill:url(#SVGID_49_);" cx="701.699" cy="411.458" rx="26.649" ry="28.211"/>
			<path style="fill:#DB6445;" d="M730.514,428.986c-6.099,6.57-14.808,10.683-24.48,10.683c-13.92,0-25.849-8.518-30.864-20.624
				c-1.681,0.621-4.094,2.781,1.539,10.242c8.295,15.347,29.422,14.517,33.597,14.517c4.174,0,23.435-4.148,23.435-9.332
				C733.741,429.667,731.996,428.83,730.514,428.986z"/>
			<path style="fill:#D9E6FF;" d="M598.404,413.527c0,0-4.876-11.707-9.055-13.541c-4.178-1.834-1.597,5.655,1.072,8.891
				c-3.76-2.199-11.3-13.134-15.466-12.439s6.148,11.659,8.618,12.858c-5.338-0.983-14.169-7.431-15.584-6.275
				s-3.218,6.254,13.277,10.504c-5.432-0.738-13.633-2.986-13.801-1.446c-0.168,1.54-1.017,5.23,12.373,5.561
				c-3.056,0.706-10.883,2.964-10.702,3.952c0.181,0.989,1.285,2.48,11.213,0.924c2.152-0.161,4.552,0.851,5.176,1.043
				c0.624,0.192,7.926,1.505,7.926,1.505L598.404,413.527z"/>
			<path style="fill:#EEF3FF;" d="M665.151,533.748c0,0-6.557,0.382-10.864,1.147c-1.802,0.32-10.061,2.052-9.448,6.031
				c0.402,2.613,8.313,1.05,8.313,1.05l-14.344,6.187c0,0-2.529,1.015-2.073,3.048c0.366,1.631,3.681,0.57,3.681,0.57l10.554-3.691
				l-13.019,6.754c0,0-1.909,1.485-0.885,3.032c1.024,1.547,3.213,0.654,3.213,0.654l13.807-6.549l-11.105,7.733
				c0,0-1.884,1.691-0.423,3.394s3.889-0.271,3.889-0.271l10.561-7.254l-9.153,9.264c0,0-1.206,1.608-0.007,2.631
				c1.455,1.241,2.822-0.219,2.822-0.219l10.694-8.358c0,0,8.836-7.298,10.72-8.989c1.884-1.691,3.56-5.61,3.56-5.61
				L665.151,533.748z"/>
			<path style="fill:#EEF3FF;" d="M665.607,527.072c-2.087,1.044-3.131,6.784,2.087,12.523c5.218,5.74,11.48,7.827,15.654,5.74
				c4.174-2.087,40.949-30.526,43.036-32.613c2.087-2.087,7.921-14.357,8.964-20.096c1.044-5.74,13.374-44.612-1.565-47.485
				c-13.567-2.609-16.698,7.305-16.698,7.305l-13.139,42.534L665.607,527.072z"/>
			<path style="opacity:0.5;fill:#94A4C4;" d="M729.181,508.287l-3.911-0.017c0,0-7.084,8.119-17.246,16.207
				c-10.162,8.088-25.587,19.354-29.592,18.802c0.592,1.178,1.903,2.018,3.375,2.614c0.538-0.131,1.054-0.315,1.541-0.558
				c4.174-2.087,40.949-30.526,43.036-32.613C727.037,512.07,728.057,510.421,729.181,508.287z"/>
			<path style="opacity:0.5;fill:#94A4C4;" d="M735.349,492.626c0.708-3.892,6.604-23.017,5.67-35.824
				c-1.091,4.655-10.828,45.699-15.749,49.118c1.21,1.099,2.591,1.844,3.919,2.35C731.659,503.583,734.633,496.566,735.349,492.626z
				"/>
			<path style="fill:#DB6445;" d="M641.362,437.008c0,0-3.02,1.611-4.056,6.796c-1.037,5.185-1.066,16.92-0.637,18.207
				s-2.443,1.202-2.562,0c-0.12-1.202-1.724-23.561,5.092-25.24C640.624,436.545,642.308,436.434,641.362,437.008z"/>
			<path style="fill:#DB6445;" d="M704.261,494.011c0,0,6.253,7.862,15.17,10.35c8.918,2.489,11.279,2.752,11.279,2.752
				s1.367,2.377-1.534,2.301c-2.901-0.076-13.893-1.527-20.322-5.675c-6.429-4.148-6.023-7.808-6.023-7.808
				S702.156,494.237,704.261,494.011z"/>
			<path style="fill:#DB6445;" d="M592.494,456.608c0,0-7.243-0.361-8.902,5.446c-1.659,5.807-3.739,19.951-2.699,27.292
				c-0.824,1.824-3.561,0-3.561,0s-0.759-22.306,2.942-28.122c2.903-4.563,3.911-4.483,4.562-4.77S590.198,453.443,592.494,456.608z
				"/>
			<path style="fill:#DB6445;" d="M590.299,496.807c0,0-5.669,6.724-3.803,13.775c1.866,7.051,7.251,15.513,13.684,20.615
				c2.497,1.7-2.214,2.888-4.112,1.61c-1.898-1.278-12.475-12.892-13.305-21.809c-0.83-8.918,2.118-11.124,2.118-11.124
				S589.124,495.06,590.299,496.807z"/>
			<path style="fill:#DB6445;" d="M664.926,527.625c0,0,0.481,6.289,5.665,10.644c5.185,4.355,11.821,6.844,12.858,7.051
				s-0.415,1.659-3.318,1.244c-2.903-0.415-7.881-0.622-11.821-5.392S660.919,529.632,664.926,527.625z"/>
			<path style="fill:#DB6445;" d="M593.547,430.116c0,0-2.281-1.866-2.281-4.148c0-2.281-0.521-5.963,3.94-11.614
				c3.111-3.94,7.259-2.281,7.259-2.281s1.452,0.622,0.56,2.391c-2.427,1.135-4.086,1.135-4.916,2.586
				C594.584,422.65,594.268,425.918,593.547,430.116z"/>
			<path style="fill:#DB6445;" d="M521.561,478.151c0,0-6.821,13.144-6.614,16.463c0.207,3.318,4.148,8.918,9.955,12.028
				c1.452,0.83-1.452,1.659-3.94,0.415s-8.918-6.222-9.332-11.821c-0.415-5.599,7.177-17.085,7.177-17.085
				S520.708,476.413,521.561,478.151z"/>
			<path style="fill:#DB6445;" d="M525.822,547.494c0,0-2.056-0.89-2.214,1.008c-0.158,1.898,0.464,11.853,5.856,17.245
				c5.392,5.392,12.651,6.636,12.651,6.636s1.907-1.037,0.539-2.281s-7.59-3.318-10.908-7.673
				C528.427,558.074,526.12,552.676,525.822,547.494z"/>
			<g>
				<path style="fill:#94A4C4;" d="M649.126,459.565c-0.227,0-0.455-0.074-0.646-0.226c-0.448-0.357-0.521-1.009-0.164-1.457
					c0.504-0.632,12.379-15.5,16.401-18.252c0.473-0.324,1.118-0.203,1.441,0.27c0.323,0.473,0.202,1.118-0.27,1.441
					c-3.768,2.578-15.83,17.681-15.951,17.833C649.733,459.432,649.431,459.565,649.126,459.565z"/>
			</g>
			
				<ellipse transform="matrix(0.7071 -0.7071 0.7071 0.7071 -197.4957 630.6409)" style="fill:#DB6445;" cx="662.503" cy="553.719" rx="1.244" ry="0.726"/>
			
				<ellipse transform="matrix(0.823 -0.568 0.568 0.823 -196.1726 472.046)" style="fill:#DB6445;" cx="659.392" cy="550.815" rx="1.244" ry="0.726"/>
			
				<ellipse transform="matrix(0.866 -0.5 0.5 0.866 -185.8995 401.623)" style="fill:#DB6445;" cx="656.489" cy="547.705" rx="1.244" ry="0.726"/>
			
				<ellipse transform="matrix(0.9508 -0.3097 0.3097 0.9508 -136.2374 229.4277)" style="fill:#DB6445;" cx="654.415" cy="543.764" rx="1.244" ry="0.726"/>
			<g>
				<path style="fill:#FFFFFF;" d="M684.014,403.156c-0.214,0-0.432-0.041-0.642-0.128c-0.857-0.355-1.264-1.338-0.909-2.195
					c2.172-5.242,6.18-9.119,11.591-11.212c4.046-1.565,7.455-1.583,7.598-1.583c0.928,0,1.68,0.752,1.68,1.68
					c0,0.926-0.75,1.678-1.676,1.68c-0.046,0-3.029,0.034-6.499,1.399c-4.541,1.787-7.768,4.924-9.59,9.322
					C685.299,402.766,684.673,403.156,684.014,403.156z"/>
			</g>
			<circle style="fill:#FFFFFF;" cx="683.007" cy="409.035" r="1.68"/>
			<g>
				<path style="fill:#94A4C4;" d="M672.229,456.044l22.656,15.504c0.738,0.505,0.919,1.516,0.403,2.246l-11.034,15.589
					c-0.552,0.78-1.659,0.906-2.372,0.27l-21.052-18.772c-0.625-0.557-0.715-1.503-0.206-2.168l9.43-12.32
					C670.571,455.716,671.526,455.563,672.229,456.044z"/>
				<path style="fill:#D9E6FF;" d="M672.516,456.921l21.482,14.7c0.7,0.479,0.871,1.438,0.382,2.13l-10.462,14.781
					c-0.523,0.739-1.573,0.859-2.249,0.256l-19.961-17.799c-0.593-0.529-0.678-1.425-0.195-2.055l8.941-11.682
					C670.944,456.61,671.85,456.465,672.516,456.921z"/>
				<circle style="fill:#94A4C4;" cx="681.699" cy="485.454" r="1.005"/>
				<circle style="fill:#94A4C4;" cx="679.464" cy="483.43" r="1.005"/>
				<circle style="fill:#94A4C4;" cx="677.228" cy="481.406" r="1.005"/>
				<g>
					<path style="fill:#94A4C4;" d="M684.164,469.733c-0.167-0.015-0.333-0.073-0.481-0.176l-12.707-8.849
						c-0.456-0.317-0.568-0.944-0.25-1.399c0.317-0.455,0.944-0.567,1.399-0.25l12.707,8.849c0.456,0.317,0.568,0.944,0.25,1.399
						C684.868,469.614,684.512,469.765,684.164,469.733z"/>
				</g>
				<g>
					<path style="fill:#94A4C4;" d="M679.649,470.526c-0.18-0.017-0.358-0.082-0.512-0.199l-9.434-7.133
						c-0.443-0.335-0.53-0.965-0.196-1.408c0.335-0.443,0.965-0.531,1.408-0.195l9.434,7.133c0.443,0.335,0.53,0.965,0.196,1.408
						C680.326,470.419,679.984,470.557,679.649,470.526z"/>
				</g>
			</g>
		</g>
	</g>
</g>
</svg>
