<?xml version="1.0" encoding="utf-8"?>
<!-- Generator: Adobe Illustrator 25.2.3, SVG Export Plug-In . SVG Version: 6.00 Build 0)  -->
<svg version="1.1" id="_5" xmlns="http://www.w3.org/2000/svg" xmlns:xlink="http://www.w3.org/1999/xlink" x="0px" y="0px"
	 viewBox="0 0 1024 1024" style="enable-background:new 0 0 1024 1024;" xml:space="preserve">
<style type="text/css">
	.st0{fill:#FEFEFD;}
	.st1{fill:#F3A844;}
	.st2{fill:#FAE24A;}
	.st3{fill:#F3B966;}
	.st4{fill:#F4BA65;}
	.st5{fill:#F4BB62;}
	.st6{fill:#E0C933;}
	.st7{fill:#FEFDFA;}
	.st8{fill:#FEFDF7;}
	.st9{fill:#FDF8D8;}
	.st10{fill:#FAE34F;}
	.st11{fill:#FAE456;}
</style>
<g>
	<path class="st0" d="M641.1,682.4c1.2-8.6,3.4-14.5,14.2-14c2.3,0.1,3.9-1.4,5.1-3.2c2.5-3.7,5-7,10.2-5.8c1.9,0.4,2-0.9,2.7-2
		c4.2-6.4,9.7-11.1,17.2-13.5c2.8-0.9,5.7-2.6,7-5.8c2-4.9,4.3-8.8,10.3-10.3c4.5-1.2,8.3,0,12.2,0.8c3.9,0.8,5-0.4,5.5-3.9
		c0.5-3.6,7.3-9.6,10.7-9.6c8.6,0,16.4,3.4,23.7,7.2c5.2,2.6,10.5,5.5,15.5,8.6c6.6,4,15.1,4.8,20.5,11.2c1.3,1.6,2.9,3.5,4.9,1.5
		c2-2,0.4-4.1-1.1-5.7c-2.4-2.5-5.4-4.9-6.8-7.7c-2.7-5-6.3-8.9-9.9-13.1c-8.9-10.7-17.7-21.5-26.9-32c-6.5-7.5-9.5-17.1-14-25.7
		c-1.3-2.4-4.1-6.1,0.3-10c2.2-1.9,3.2-8,1.9-10.8c-3.2-6.7,1.8-10.5,4.4-14.1c4.2-5.9,5.8-8.2,1.8-14c-2.4-3.4-1.6-4.7,1.6-6.7
		c5-3.2,10.8-6.1,10.4-13.6c-0.3-6.8,3.6-10.5,8.9-14.2c7.2-4.9,14.7-8.9,23-11.2c2.4-0.7,4.9-1.1,5-3.5c0-2.6-2.6-3.3-5.1-3.9
		c-11.6-2.8-23.7-2.8-35.1-7.8c-6.7-2.9-14-4.4-20.6-8.3c-8.9-5.3-17.2-10.8-23-19.7c-0.8-1.3-2.1-2.3-1.4-4c1.4-3.7-1-5.2-3.5-7.2
		c-4.3-3.4-7.4-7.8-9.1-13.1c-1.7-5.2-1.3-11.3-6.1-15.4c-2.4-2.1-2.8-4.8-1.7-7.6c2.1-5.2-0.6-6.5-5.2-7.1
		c-9.6-1.2-12.9-4.8-14.3-14.6c-0.1-0.6-0.5-1.5-0.9-1.6c-4.4-1.1-3-4.3-2.3-6.8c0.8-2.9,0.4-5.2-1.6-7.3c-3.1-3.2-3.3-6.8-2.4-11
		c1.4-6,5.5-11,5.5-17.6c0-3.9-2.2-6.2-5.7-4.6c-2.1,1-4.6,2.2-5.6,4c-3.5,6.2-10,9.1-14.9,13.7c-5.6,5.3-13,9-21.5,10.3
		c-4.8,0.7-7.1,0-9.4-3.6c-1-1.5-2.1-3-3.1-4.5c-2.2-3.3-5.9-3.9-8.8-2.7c-2.6,1.2-3.1,0.2-4.1-1.4c-2.6-4-6.2-4.4-10.2-2.7
		c-2,0.8-4.4,1-5.6-0.5c-3.4-4-8.5-5.2-12.5-8.3c-1.6-1.3-4.6-1.6-6.7-1.3c-7.8,1.3-14.4-2-15.7-9.2c-0.8-4.5-3.3-8.3-6.3-10.3
		c-6.3-4.2-7.3-10.9-10-16.8c-2.9-6.3-4.6-13-5.2-19.8c-0.3-3.6-2.1-7.1-1.3-10.8c0.6-2.6,1.4-4.8-2.5-5.5c-4-0.7-3.7,2.1-4.3,4.4
		c-3.3,12.7-2.4,26.2-8.6,38.3c-2.4,4.6-2.6,10.1-4.8,15.2c-3.3,7.6-7.4,13.7-14.1,18.2c-2.5,1.7-6.7,2.3-7.6,3.8
		c-2.9,5-6.4,2.7-9.8,2.2c-4.3-0.6-9.3-0.3-12.3,1.7c-4.2,2.7-6.1,0.6-8.8-1.2c-1.1-0.7-1.7-2.1-3.1-2.3
		c-9.9-1.7-14.2-9.1-17.3-17.4c-1-2.7-3.1-2.1-4.8-2.5c-1.9-0.5-2.2,1.2-2.3,2.5c-0.2,4.1-1,8-0.6,12.4c0.7,7.6,1.8,15,3.7,22.4
		c0.7,2.9-0.6,7.4-4,7.6c-4.6,0.2-7.1,2.7-10,5.3c-2.5,2.3-5.3,2.7-8.7,1.8c-4.4-1.1-8.5-1.9-13.1,1.4c-3.6,2.6-8.9,2.6-13.6,0.9
		c-2.2-0.9-3.6-3.2-6.3-3.5c-4.1-0.5-7.4-3.1-10.7-5.3c-9-6-19-11.2-23-22.5c-0.6-1.7-2.7-2.1-4.4-1.4c-2,0.9-1.5,2.7-0.9,4.3
		c0.4,1.2,1.8,2.8,0.6,3.6c-3.4,2.2-0.9,3.7,0.3,5.6c2.9,4.5,7.9,7.8,9.8,12.4c2,4.8,5.2,8.9,7.2,13.7c3.3,7.8,7.7,14.8,8.9,23.7
		c0.5,3.7-1.5,5-2.5,6.8c-1.1,2.1-3.9,4.2-6.8,4.4c-7.4,0.6-7.6,0.5-8.6,8.2c-0.4,3.3-2.2,5.2-4.8,5.4c-3.5,0.2-3.5,2.4-4,4.6
		c-1.5,7.5-5.1,10.3-12.7,9.2c-3.3-0.5-5.7,0.3-8,2.4c-2.1,2-4.5,2.6-7.7,2.1c-8.3-1.4-15.8-4.5-23.2-8.4
		c-8.7-4.6-17.6-8.9-25.9-14.1c-8.5-5.3-17-10.6-25.5-16c-3.7-2.4-6.5-6.2-11.3-6.6c-1.3-0.1-2.7-0.5-3.6,0.9
		c-0.8,1.4-0.1,2.4,0.6,3.7c4.9,8.7,12.1,15.7,18.7,22.9c6.2,6.7,12.4,13.6,19.2,19.9c7,6.5,13.9,13.3,20.8,19.9
		c7.7,7.4,16.8,13.3,25.8,19c1.2,0.8,1.4,1.7,2.1,2.7c2.5,4.1,0.4,7.3-2,9.7c-2.9,2.8-3,6-3.7,9.3c-0.8,3.7-0.1,8.2-2.4,11.1
		c-4.1,5.1-8.9,9.6-13.7,14c-1.6,1.4-2.2,2.9-3,4.8c-1.6,3.9,0.6,7.3,0.6,10.9c0.1,8.3-6,13.6-11.2,17.2c-8.6,6-15,14.5-25.2,18.9
		c-8.8,3.9-16.4,10.5-25.7,13.9c-1.8,0.7-4,1.9-2.7,4.4c1.1,2.3,3.9,2.1,5.3,1.1c3.1-2.2,6-0.7,9-0.4c2.3,0.3,4.4,0.4,6.8-0.2
		c5.8-1.3,12-1.3,17.8-2.6c4-0.9,8-0.5,11.9-0.9c5.9-0.6,11.8-2.1,17.9-1c3.1,0.6,6.3,2.4,9.5-0.4c0.8-0.7,2.3,0,3,1
		c1.2,1.7,2.9,2.5,4.7,2.3c4.1-0.3,7.5,2,9.5,4.5c5,6.1,11.6,11.8,9.1,21.2c-0.3,1.2,0,2.3,0.8,3.2c2.6,2.9,3.1,6.7,4,10.3
		c0.6,2.5,1.7,4.7,4.7,5c5.3,0.6,8.8,3.9,11.8,8c1.2,1.7,2.1,3.5,4.6,4.2c6.4,1.8,9.6,7,8.4,14c-0.9,5.1-2.9,10.4-0.3,15.5
		c2.8,5.5,1.3,11.3-0.8,15.6c-1.9,3.9-2.5,8.5-5.7,12c-1.7,1.8-2.8,4.9-4.1,7.4c-3.6,6.7-6.9,13.5-11.9,19.2
		c-6,6.9-10.8,14.5-16.3,21.8c-1.2,1.6-1.5,3-0.3,4.5c0.9,1.1,2.4,2,3.5,0.9c4-4.1,9.3-6.4,13.4-9.9c3.1-2.7,6.2-5.6,9.5-8.2
		c2.3-1.8,4.9-3.4,7.3-5.1c17.2-12.1,33.8-25.3,52.6-35c4.9-2.5,10.4-4.6,16.6-3.4c5.1,1,10.4,3.4,15.6,1.8
		c5.5-1.6,10.7-1.3,14.9,1.7c2.8,2,5.6,2.5,8.5,3.3c1.3,0.3,2.5,0.7,3.6,1.6c5,4.1,10,7.8,17.2,4.5c1.5-0.7,4.2,0.1,5.5,2.4
		c1.2,2.2,2.9,4.1,4.3,6.2c1.9,2.9,4.4,3.7,7.7,2.5c4.2-1.5,11.5,2.5,12.5,6.8c1.3,5.8,5.1,10.6,4.9,17.2
		c-0.2,5.2,2.7,10.4,1.3,15.9c-0.6,2.3-0.1,3.9,2.6,4.3c2.6,0.4,4.2,0,4.3-3.1c0.1-1.5,0.2-3.4,1.2-4.2c4.6-3.9,2.4-10.5,6.4-14.9
		c2.3-2.5,3.6-6.6,5.7-9.7c3.7-5.5,7.6-11,12.6-15.6c3.8-3.5,6.7-8.1,11.1-11.3c3.9-2.9,8.6-3.5,12.5-5.4c6.2-3,11.9-4.2,18.3-2.6
		c3.1,0.8,5.8,0.8,8.2-1.7c1.4-1.4,2.9-1.7,4.4-0.3c2.6,2.5,5.8,4.4,7.5,7.7c1,1.9,2.4,3,4.7,3.2c6.3,0.4,10.5,4.1,13.9,9.1
		c5.2,7.6,11.6,14.6,14.4,23.5c1.4,4.4,4.9,7.5,5.9,11.7c1.6,6.8,4.7,12.9,6.8,19.4c0.5,1.5,1.3,4.8,4.4,3.3
		c2.2-1.1,3.1-2.9,1.9-5.8c-3-7.1-5.2-14.6-8.3-21.6c-1.6-3.5,0.8-6.5-0.3-10.1c-2.4-8.1-5.8-15.9-6.8-24.6
		c-0.3-3.1-0.2-6.8-1.8-10.2C641.6,688.3,642.4,684.7,641.1,682.4z"/>
	<path class="st1" d="M641.1,682.4c1.3,2.4,0.6,5.9,1.7,8.2c1.6,3.4,1.4,7.1,1.8,10.2c0.9,8.7,4.3,16.5,6.8,24.6
		c1.1,3.6-1.3,6.6,0.3,10.1c3.1,7,5.3,14.5,8.3,21.6c1.2,2.9,0.4,4.7-1.9,5.8c-3.1,1.5-3.9-1.8-4.4-3.3c-2.2-6.5-5.2-12.7-6.8-19.4
		c-1-4.2-4.5-7.3-5.9-11.7c-2.8-8.9-9.2-15.9-14.4-23.5c-3.4-5-7.6-8.6-13.9-9.1c-2.3-0.2-3.7-1.3-4.7-3.2c-1.7-3.3-4.9-5.2-7.5-7.7
		c-1.5-1.4-3-1.2-4.4,0.3c-2.3,2.5-5.1,2.5-8.2,1.7c-6.4-1.7-12.1-0.5-18.3,2.6c-3.9,1.9-8.6,2.5-12.5,5.4
		c-4.4,3.2-7.2,7.8-11.1,11.3c-5.1,4.6-8.9,10.1-12.6,15.6c-2.1,3.1-3.4,7.2-5.7,9.7c-4,4.4-1.8,11-6.4,14.9
		c-0.9,0.8-1.1,2.8-1.2,4.2c-0.1,3-1.7,3.5-4.3,3.1c-2.7-0.5-3.2-2-2.6-4.3c1.5-5.5-1.4-10.8-1.3-15.9c0.2-6.6-3.6-11.4-4.9-17.2
		c-1-4.4-8.3-8.3-12.5-6.8c-3.3,1.2-5.8,0.4-7.7-2.5c-1.4-2.1-3-4-4.3-6.2c-1.3-2.3-4-3.1-5.5-2.4c-7.2,3.3-12.2-0.4-17.2-4.5
		c-1.1-0.9-2.3-1.2-3.6-1.6c-3-0.7-5.7-1.3-8.5-3.3c-4.2-3.1-9.5-3.4-14.9-1.7c-5.2,1.6-10.5-0.8-15.6-1.8
		c-6.2-1.3-11.7,0.8-16.6,3.4c-18.8,9.7-35.4,22.8-52.6,35c-2.4,1.7-5,3.3-7.3,5.1c-3.3,2.6-6.4,5.5-9.5,8.2
		c-4,3.6-9.4,5.8-13.4,9.9c-1,1.1-2.6,0.1-3.5-0.9c-1.2-1.5-0.9-2.9,0.3-4.5c5.5-7.2,10.3-14.9,16.3-21.8c5-5.7,8.3-12.6,11.9-19.2
		c1.4-2.5,2.4-5.6,4.1-7.4c3.2-3.5,3.8-8.2,5.7-12c2.1-4.3,3.6-10.1,0.8-15.6c-2.6-5.1-0.6-10.4,0.3-15.5c1.2-7-1.9-12.2-8.4-14
		c-2.5-0.7-3.4-2.5-4.6-4.2c-3-4.1-6.5-7.4-11.8-8c-3-0.4-4.1-2.5-4.7-5c-0.9-3.6-1.4-7.4-4-10.3c-0.9-1-1.1-2-0.8-3.2
		c2.5-9.4-4.1-15.2-9.1-21.2c-2-2.5-5.4-4.8-9.5-4.5c-1.8,0.1-3.6-0.6-4.7-2.3c-0.7-1-2.2-1.8-3-1c-3.1,2.8-6.4,0.9-9.5,0.4
		c-6.1-1.1-11.9,0.4-17.9,1c-4,0.4-7.9,0-11.9,0.9c-5.8,1.3-12,1.3-17.8,2.6c-2.4,0.6-4.5,0.5-6.8,0.2c-3-0.4-5.9-1.9-9,0.4
		c-1.3,0.9-4.1,1.2-5.3-1.1c-1.2-2.5,0.9-3.8,2.7-4.4c9.3-3.4,17-10.1,25.7-13.9c10.2-4.5,16.6-13,25.2-18.9
		c5.2-3.6,11.4-9,11.2-17.2c-0.1-3.6-2.2-7-0.6-10.9c0.8-1.9,1.4-3.3,3-4.8c4.8-4.4,9.7-8.9,13.7-14c2.3-2.9,1.7-7.4,2.4-11.1
		c0.7-3.3,0.8-6.6,3.7-9.3c2.5-2.4,4.6-5.6,2-9.7c-0.6-1-0.9-2-2.1-2.7c-9-5.7-18.1-11.6-25.8-19c-6.9-6.6-13.8-13.4-20.8-19.9
		c-6.7-6.3-13-13.2-19.2-19.9c-6.6-7.1-13.8-14.2-18.7-22.9c-0.7-1.2-1.4-2.3-0.6-3.7c0.9-1.4,2.3-1.1,3.6-0.9
		c4.8,0.5,7.6,4.3,11.3,6.6c8.4,5.5,16.9,10.8,25.5,16c8.4,5.2,17.3,9.4,25.9,14.1c7.4,4,14.9,7,23.2,8.4c3.2,0.5,5.5,0,7.7-2.1
		c2.3-2.2,4.7-3,8-2.4c7.6,1.2,11.2-1.7,12.7-9.2c0.5-2.2,0.5-4.4,4-4.6c2.6-0.1,4.4-2.1,4.8-5.4c1-7.7,1.2-7.5,8.6-8.2
		c2.9-0.3,5.7-2.3,6.8-4.4c0.9-1.8,3-3.1,2.5-6.8c-1.3-8.8-5.6-15.9-8.9-23.7c-2-4.8-5.2-8.9-7.2-13.7c-1.9-4.6-6.9-7.9-9.8-12.4
		c-1.2-1.8-3.6-3.3-0.3-5.6c1.2-0.8-0.1-2.4-0.6-3.6c-0.6-1.6-1.1-3.4,0.9-4.3c1.6-0.7,3.8-0.3,4.4,1.4c4,11.3,14,16.4,23,22.5
		c3.3,2.2,6.7,4.8,10.7,5.3c2.7,0.4,4.1,2.7,6.3,3.5c4.6,1.8,9.9,1.7,13.6-0.9c4.6-3.3,8.7-2.5,13.1-1.4c3.4,0.8,6.3,0.5,8.7-1.8
		c2.9-2.7,5.3-5.2,10-5.3c3.4-0.1,4.7-4.7,4-7.6c-1.9-7.4-3-14.8-3.7-22.4c-0.4-4.4,0.4-8.3,0.6-12.4c0.1-1.3,0.4-3,2.3-2.5
		c1.7,0.5,3.8-0.2,4.8,2.5c3.1,8.4,7.4,15.7,17.3,17.4c1.5,0.3,2.1,1.6,3.1,2.3c2.7,1.8,4.6,3.9,8.8,1.2c3-2,8-2.3,12.3-1.7
		c3.4,0.5,6.9,2.8,9.8-2.2c0.9-1.6,5.1-2.2,7.6-3.8c6.8-4.5,10.9-10.6,14.1-18.2c2.2-5.1,2.5-10.6,4.8-15.2
		c6.3-12.2,5.3-25.7,8.6-38.3c0.6-2.3,0.3-5.1,4.3-4.4c3.9,0.7,3.2,3,2.5,5.5c-0.9,3.7,0.9,7.2,1.3,10.8c0.7,6.8,2.3,13.5,5.2,19.8
		c2.7,5.9,3.6,12.6,10,16.8c3,2,5.6,5.8,6.3,10.3c1.2,7.2,7.8,10.6,15.7,9.2c2.1-0.4,5.1,0,6.7,1.3c3.9,3.1,9.1,4.3,12.5,8.3
		c1.2,1.5,3.6,1.3,5.6,0.5c4-1.6,7.7-1.2,10.2,2.7c1,1.6,1.5,2.5,4.1,1.4c2.9-1.3,6.5-0.6,8.8,2.7c1,1.5,2.2,3,3.1,4.5
		c2.3,3.6,4.6,4.4,9.4,3.6c8.5-1.3,15.9-5.1,21.5-10.3c4.9-4.6,11.5-7.4,14.9-13.7c1-1.8,3.5-3,5.6-4c3.5-1.6,5.7,0.7,5.7,4.6
		c0,6.5-4.1,11.6-5.5,17.6c-1,4.2-0.7,7.8,2.4,11c2,2.1,2.4,4.4,1.6,7.3c-0.7,2.5-2.1,5.7,2.3,6.8c0.4,0.1,0.8,1,0.9,1.6
		c1.4,9.8,4.7,13.4,14.3,14.6c4.6,0.6,7.3,1.9,5.2,7.1c-1.1,2.9-0.8,5.6,1.7,7.6c4.8,4.1,4.3,10.1,6.1,15.4
		c1.7,5.3,4.9,9.7,9.1,13.1c2.5,2,4.9,3.5,3.5,7.2c-0.7,1.7,0.6,2.7,1.4,4c5.7,8.8,14.1,14.4,23,19.7c6.6,3.9,13.9,5.4,20.6,8.3
		c11.4,5,23.5,4.9,35.1,7.8c2.4,0.6,5.1,1.3,5.1,3.9c0,2.4-2.6,2.8-5,3.5c-8.3,2.3-15.8,6.3-23,11.2c-5.3,3.6-9.2,7.4-8.9,14.2
		c0.4,7.6-5.4,10.4-10.4,13.6c-3.2,2-3.9,3.3-1.6,6.7c4,5.8,2.4,8.1-1.8,14c-2.6,3.6-7.6,7.4-4.4,14.1c1.3,2.8,0.3,8.8-1.9,10.8
		c-4.5,3.9-1.6,7.6-0.3,10c4.5,8.7,7.4,18.3,14,25.7c9.2,10.5,18,21.3,26.9,32c3.6,4.3,7.2,8.1,9.9,13.1c1.5,2.8,4.5,5.2,6.8,7.7
		c1.5,1.6,3.1,3.7,1.1,5.7c-2,2-3.5,0.1-4.9-1.5c-5.4-6.4-13.8-7.1-20.5-11.2c-5.1-3.1-10.3-5.9-15.5-8.6
		c-7.3-3.7-15.1-7.2-23.7-7.2c-3.4,0-10.2,6-10.7,9.6c-0.5,3.5-1.6,4.7-5.5,3.9c-3.9-0.7-7.7-1.9-12.2-0.8c-6,1.6-8.3,5.5-10.3,10.3
		c-1.3,3.2-4.2,4.9-7,5.8c-7.5,2.5-13,7.1-17.2,13.5c-0.8,1.1-0.9,2.5-2.7,2c-5.2-1.2-7.8,2.1-10.2,5.8c-1.2,1.8-2.8,3.3-5.1,3.2
		C644.5,667.9,642.3,673.8,641.1,682.4z M673,613L673,613c2.2,0.2,3.2-0.8,3-3c0.3-0.3,0.6-0.6,0.9-0.9c2.6-0.8,5.2-1.6,5-5.2
		c0-0.3,0-0.6,0-0.8c2.2,0.3,4.2-0.9,5.2-2.4c5.5-8.3,11.7-16.1,16.2-25.1c2.8-5.8,6-11.4,8.4-17.5c3.2-8.1,6.6-16.1,8.4-24.7
		c1.5-6.8,0.2-13.5,0.9-20.2c0.2-2.1,2.2-4.8,1.4-6.1c-3-5.2-0.9-10.9-2.5-16.2c-1.6-5.2-2.8-10.5-3.8-15.8
		c-0.8-4.6-3.8-8.4-4.8-12.6c-1.9-7.9-5.8-14.7-9.9-21.3c-5.9-9.5-12.4-18.5-20.3-26.7c-5.6-5.7-11.7-10.8-17.3-16.5
		c-5.6-5.6-13.2-8.4-19.4-13.2c-5.1-3.9-11.4-5.5-16.6-9.3c-1.7-1.2-3.9-3.2-6.4-3.3c-5.6-0.3-10-3.9-14.8-5.9
		c-7.3-3-15-4.1-22.2-7.1c-6.1-2.5-13.2-2.9-19.9-4.1c-4.6-0.8-9.6-3-13.6-1.7c-7.7,2.4-14.8-1.6-22.6-0.1
		c-4.5,0.9-11.1-0.5-15.4,0.6c-7.9,2.1-16.4,0-23.9,3.9c-0.7,0.4-1.7,0.1-2.5,0.2c-5.9,1.2-11.8,2.3-17.5,3.9
		c-4.1,1.1-8.1,3.2-11.9,4.4c-7.6,2.3-14.5,6.1-21.7,9c-3.6,1.5-7.5,2.5-10.9,4.7c-8.3,5.3-15.4,12.5-25,15.9
		c-2.8,1-5.2,2.9-7.1,5.3c-3.4,4.4-7.8,8.1-12,11.4c-5.7,4.5-8.6,11.2-14.3,15.7c-4,3.2-5.6,8.4-8.2,12.8c-4.8,8-11,15.2-12,25
		c-0.1,0.6-0.3,1.4-0.7,1.8c-4.4,5.1-4.3,12-7.2,17.8c-3.8,7.8-1.3,16.6-2.1,25c-0.5,5.2,1,10.5,0.1,15.8c-0.1,0.4,0.4,0.9,0.4,1.4
		c0.2,5.1,2.4,9.9,3.2,14.8c0.8,5,1.7,9.8,3.8,14.4c2.9,6.7,5.5,13.5,8.7,20.1c1.8,3.7,3.6,7.8,7.8,9.8c0.9,3.1,3.1,5.4,5,7.9
		c0.4,0.9,0.8,1.8,1.2,2.7c2.3,5,7,7.8,10.4,11.8c5.2,6.1,11,11.5,17,16.8c6.8,6.1,14.7,10.6,22.6,15c4,2.2,7.4,5.2,11.8,6.7
		c4.6,0.4,8.8,2.1,12.9,4.1c0.1,1,0.4,2,1.4,2.5c8.5,4.1,17.7,6.4,26.6,9.1c11.1,3.4,23.1,4.1,34.6,6.4c5.4,1.1,10.7-2.2,15.8,0.2
		c5.8,2.7,12-2.5,17.6,1.3c0.2,0.1,1.1-0.2,1.3-0.6c1.2-2.3,3-1.6,4.7-1c4.4,1.6,8.4-0.7,12.6-1.2c6-0.7,12-2.1,18.1-3.1
		c4.2-0.7,9.3-0.5,12.5-4.7c8.1-2.5,16.5-4.5,24.4-7.5c22.8-8.7,43-21.5,60.5-38.5C672.2,614.9,672.9,614.3,673,613z"/>
	<path class="st2" d="M671,615c-17.5,17-37.8,29.8-60.5,38.5c-7.9,3-16.3,5-24.4,7.5c-8.4,1-16.7,1.9-25.1,3
		c-6.7,0.9-13.4,0.9-20.1,1.4c-16,1.3-31.8-0.5-47.6-2c-17.9-1.6-34.8-8.1-52.3-11.5c-4.1-2-8.3-3.7-12.9-4.1
		c-0.5-2.9-2.8-4.5-5-5.9c-5.2-3.3-10.8-6.1-15.9-9.6c-6.2-4.1-13.7-7.4-17.3-13.7c-2.9-5.2-6.7-8.9-11-12.2
		c-4.9-3.7-8.1-9.1-13.9-11.6c-1.9-2.5-4.1-4.8-5-7.9c0.8-4.4-2-7.8-3.8-11c-7.4-12.8-9.3-27.3-12.7-41.2
		c-3.1-12.8-2.2-26.4-0.4-39.6c2.3-17.1,8.5-32.8,17.2-47.5c5.1-8.5,11.5-16,17.7-23.8c8.5-10.8,18.8-19.2,29.7-26.9
		c24.8-17.7,53-27.6,82.5-33.8c11.6-2.5,23.5-2.8,35.3-3.2c10.5-0.4,20.9,0.7,31.3,1.3c10.2,0.6,20.5,2.5,30.2,5.6
		c10.4,3.3,21.2,6.1,31.1,11.2c9.6,4.9,19.3,9.8,28.2,15.8c14.6,10,27.6,21.8,37.8,36.3c0.7,1,1.6,1.9,2.8,1.7
		c2.7-0.3,3.6,1.7,5,3.4c11.7,14.7,14.3,33.4,21.9,49.9c3.2,7,1.6,15.3,1.5,23.2c-0.3,14.4-2.8,28.2-6.9,42
		c-3.6,12-8.7,23.3-14.6,34.2c-3.4,6.4-7.8,12.2-11.7,18.3c0,0.3,0,0.6,0,0.8c-2.7,0.7-4.5,2.3-5,5.1c-0.3,0.3-0.6,0.6-0.9,0.9
		c-2,0-2.3,1.7-3,3c0,0,0,0,0,0C672,613.3,671.3,614,671,615z M487,522L487,522c1-0.2,2-0.5,3.1-0.8c1,0.2,2,0.3,3,0.5
		c1.6,1.2,3,2,3.7-0.9c1.1-0.1,2.2-0.2,3.4-0.3c1.6,1.4,3,2,3.7-0.7l0.1-0.1c1.2,0,2-0.5,2.4-1.7c1.6-1,3.2-2.1,4.7-3.1
		c1.2-0.1,1.8-0.9,2.4-1.8c4.3-2.6,6.6-6.6,7.5-11.4c1.2-0.2,2.9,0.3,2.5-1.9c0.1-1,0.2-2,0.3-3c0.8-0.5,1-1.2,0.4-2
		c0.2-1.3,0.4-2.6,0.6-4c0.9-0.5,1-1.2,0.3-2c1.5-2.5-1.6-3.9-1.4-6c0.9-0.5,1.1-1.1,0.4-2c-1.3-4.2-2-9.4-5.2-11.8
		c-7.2-5.5-13.9-12.5-24.3-12.3c-3.4,0.1-6.6,0.1-10,0.5c-7.8,0.9-17.7,4.2-22.4,10.6c-3.9,5.5-8.2,10.6-8.8,18
		c-0.3,3.2,1.2,5.8,1.1,8.5c-0.3,4.8,1.7,8.4,3.7,12.3c4.4,8.7,12.7,11.6,20.8,14.9c0.8,1.3,1.8,1.2,2.9,0.4
		c0.8,0.1,1.7,0.1,2.5,0.2C485.5,523.6,486.4,524.1,487,522z M543.1,506.1C543.1,506.1,543.1,506.1,543.1,506.1c1-0.3,2-0.5,3-0.8
		c1.4,0.6,2.7,1.1,4-0.1c1.2-0.4,2.7-0.5,2.9-2.2l0,0c1.2-0.3,2.7-0.3,2.9-2.1l0,0c1.2-0.3,2.9,0.2,2.6-2c0.1-0.7,0.3-1.4,0.4-2
		c1.2-0.2,2.9,0.2,2.6-2c0.1-0.7,0.2-1.3,0.2-2c1-0.5,1-1.2,0.3-2c0.1-0.8,0.1-1.7,0.2-2.5c1.3-0.9,1.7-2,1-3.5c0.2-1,0.3-2,0.5-3
		c1.3-0.8,1.2-1.8,0.5-3c0.3-4.5-3.6-6.6-5.4-9.9c-0.2-2-1.4-1.9-2.9-1.4c-0.7-0.1-1.4-0.2-2-0.3c-0.8-1.3-1.8-1.3-2.9-0.4
		c-0.8-0.1-1.7-0.1-2.5-0.2c-0.9-1.3-2-1.7-3.5-1c-2.4-1.4-4.1,0.2-5.9,1.4c-2.5-1.9-3.3,0.1-4.2,1.7c-0.9,0.6-1.8,1.2-2.7,1.8
		c-1.4-0.4-1.9,0.1-1.4,1.4c-0.5,0.9-1.1,1.7-1.6,2.6c-1.4-0.4-1.8,0-1.4,1.4c-0.1,1.3-0.3,2.7-0.4,4c-0.9,0.5-1,1.2-0.3,1.9
		c-0.3,4,1.9,8,0.2,12c-0.8,0.5-0.9,1.2-0.4,2c-0.5,4.4,1.9,7.2,8.3,9.6c0.8,1.2,1.8,1.2,2.9,0.4c0.8,0.1,1.7,0.1,2.5,0.2
		C541.5,507.6,542.4,508.2,543.1,506.1z M678.9,523.4c0.7-10.9-4.3-24.2-9.9-32.8c-5.8-8.8-13.7-16-23.4-19.2
		c-12.4-4.1-25.7-6.5-38.7-1.2c-5.5,2.2-11,4.4-15.9,8.1c-9,6.9-16.1,15.4-20.9,25.4c-2.4,4.9-4.6,10.8-2.7,16.3
		c1.2,3.5,1.5,6.7,1.5,10.1c0,6.2,1.8,12,4,17.6c3.4,8.9,9.1,16.5,15.2,23.8c1.1,1.3,2.1,2.6,1.8,4.4c-0.7,4.6,2.6,6.6,5.8,7.6
		c14.5,4.7,29.1,6.4,43.6,0.1C662.9,573.4,679.2,550.4,678.9,523.4z M430.2,525c-27.4,1.4-46.8,20.9-46.8,49
		c0,29.3,22.8,50.9,51.1,51.5c24.9,0.5,51.7-17.3,49.2-55.2c-0.7-10-5.4-19.3-12.1-27.3C460.7,530.2,445.9,526.6,430.2,525z"/>
	<path class="st3" d="M681.9,603c3.9-6.1,8.2-12,11.7-18.3c5.9-10.9,11-22.2,14.6-34.2c4.1-13.8,6.6-27.6,6.9-42
		c0.2-7.9,1.7-16.2-1.5-23.2c-7.5-16.5-10.2-35.2-21.9-49.9c-1.4-1.7-2.3-3.7-5-3.4c-1.3,0.1-2.1-0.7-2.8-1.7
		c-10.3-14.5-23.2-26.3-37.8-36.3c-8.9-6.1-18.6-11-28.2-15.8c-9.9-5-20.7-7.9-31.1-11.2c-9.7-3.1-20-4.9-30.2-5.6
		c-10.4-0.7-20.8-1.7-31.3-1.3c-11.8,0.4-23.7,0.8-35.3,3.2c-29.5,6.3-57.7,16.1-82.5,33.8c-10.9,7.8-21.2,16.2-29.7,26.9
		c-6.2,7.8-12.6,15.3-17.7,23.8c-8.8,14.7-14.9,30.4-17.2,47.5c-1.8,13.2-2.7,26.8,0.4,39.6c3.4,13.9,5.3,28.4,12.7,41.2
		c1.8,3.2,4.7,6.6,3.8,11c-4.2-2-6-6-7.8-9.8c-3.2-6.5-5.7-13.4-8.7-20.1c-2-4.6-3-9.4-3.8-14.4c-0.8-5-3-9.7-3.2-14.8
		c0-0.5-0.5-1-0.4-1.4c0.9-5.3-0.6-10.6-0.1-15.8c0.8-8.4-1.7-17.2,2.1-25c2.8-5.8,2.7-12.7,7.2-17.8c0.4-0.5,0.6-1.2,0.7-1.8
		c1-9.8,7.2-17,12-25c2.6-4.4,4.2-9.6,8.2-12.8c5.7-4.4,8.6-11.1,14.3-15.7c4.2-3.4,8.6-7,12-11.4c1.9-2.4,4.3-4.4,7.1-5.3
		c9.6-3.4,16.7-10.6,25-15.9c3.3-2.1,7.2-3.2,10.9-4.7c7.2-2.9,14.1-6.7,21.7-9c3.8-1.2,7.8-3.2,11.9-4.4c5.8-1.6,11.7-2.6,17.5-3.9
		c0.8-0.2,1.8,0.1,2.5-0.2c7.5-3.9,15.9-1.8,23.9-3.9c4.3-1.1,10.9,0.2,15.4-0.6c7.7-1.5,14.9,2.5,22.6,0.1c4-1.2,9.1,0.9,13.6,1.7
		c6.7,1.2,13.7,1.5,19.9,4.1c7.2,3,15,4.1,22.2,7.1c4.8,2,9.2,5.6,14.8,5.9c2.5,0.1,4.7,2.1,6.4,3.3c5.2,3.7,11.5,5.3,16.6,9.3
		c6.2,4.8,13.8,7.6,19.4,13.2c5.6,5.6,11.7,10.7,17.3,16.5c7.9,8.1,14.3,17.2,20.3,26.7c4.1,6.6,8,13.4,9.9,21.3c1,4.2,4,8,4.8,12.6
		c1,5.3,2.2,10.6,3.8,15.8c1.6,5.3-0.5,11,2.5,16.2c0.8,1.3-1.2,4-1.4,6.1c-0.7,6.7,0.6,13.3-0.9,20.2c-1.8,8.7-5.2,16.6-8.4,24.7
		c-2.4,6.1-5.6,11.7-8.4,17.5c-4.4,9-10.7,16.8-16.2,25.1C686.2,602.1,684.2,603.3,681.9,603z"/>
	<path class="st4" d="M441,652c17.5,3.3,34.4,9.9,52.3,11.5c15.8,1.4,31.6,3.2,47.6,2c6.7-0.5,13.4-0.5,20.1-1.4
		c8.3-1.2,16.7-2,25.1-3c-3.1,4.2-8.2,3.9-12.5,4.7c-6,1-12,2.4-18.1,3.1c-4.1,0.5-8.2,2.8-12.6,1.2c-1.7-0.6-3.5-1.3-4.7,1
		c-0.2,0.3-1,0.7-1.3,0.6c-5.6-3.8-11.9,1.4-17.6-1.3c-5.1-2.4-10.4,0.9-15.8-0.2c-11.5-2.4-23.4-3-34.6-6.4
		c-8.9-2.7-18.1-5-26.6-9.1C441.4,654,441.1,653,441,652z"/>
	<path class="st5" d="M365,594.9c5.8,2.5,9,8,13.9,11.6c4.3,3.3,8.1,7,11,12.2c3.6,6.3,11.1,9.6,17.3,13.7
		c5.1,3.4,10.7,6.3,15.9,9.6c2.2,1.4,4.4,3,5,5.9c-4.4-1.5-7.8-4.5-11.8-6.7c-8-4.4-15.8-8.9-22.6-15c-6-5.3-11.8-10.7-17-16.8
		c-3.4-4-8.2-6.8-10.4-11.8C365.8,596.7,365.4,595.8,365,594.9z"/>
	<path class="st3" d="M676.9,609c0.5-2.8,2.3-4.4,5-5.1C682.1,607.4,679.5,608.2,676.9,609z"/>
	<path class="st3" d="M673,613c0.7-1.3,1-3,3-3C676.2,612.1,675.2,613.2,673,613z"/>
	<path class="st3" d="M671,615c0.3-1,1-1.7,2-2C672.9,614.3,672.2,614.9,671,615z"/>
	<path class="st6" d="M678.9,523.4c0.3,27-16.1,49.9-39.6,60.2c-14.5,6.3-29.1,4.6-43.6-0.1c-3.2-1-6.5-3.1-5.8-7.6
		c0.3-1.8-0.7-3.1-1.8-4.4c-6-7.3-11.8-14.8-15.2-23.8c-2.1-5.6-4-11.4-4-17.6c0-3.4-0.3-6.7-1.5-10.1c-1.9-5.5,0.3-11.4,2.7-16.3
		c4.8-10,11.9-18.6,20.9-25.4c4.9-3.7,10.4-5.8,15.9-8.1c13-5.3,26.3-2.9,38.7,1.2c9.7,3.2,17.6,10.4,23.4,19.2
		C674.7,499.2,679.7,512.5,678.9,523.4z"/>
	<path class="st6" d="M430.2,525c15.7,1.6,30.5,5.2,41.4,18c6.7,7.9,11.5,17.3,12.1,27.3c2.5,37.9-24.3,55.8-49.2,55.2
		c-28.3-0.6-51-22.2-51.1-51.5C383.4,545.9,402.7,526.4,430.2,525z"/>
	<path class="st7" d="M524.8,490.9c-0.2,1.3-0.4,2.6-0.6,4c-0.9,0.5-1.5,1.1-0.4,2c-0.1,1-0.2,2-0.3,3c-1.3,0.1-2.4,0.3-2.5,1.9
		c-1,4.8-3.3,8.8-7.5,11.4c-1.5-0.3-2.3,0.3-2.4,1.8c-1.6,1-3.2,2.1-4.7,3.1c-1.3-0.2-2.2,0.3-2.4,1.7c0,0-0.1,0.1-0.1,0.1
		c-1.2,0.2-2.6-0.3-3.7,0.7c-1.1,0.1-2.2,0.2-3.4,0.3c-1.2,0.2-2.7-0.3-3.7,0.9c-1-0.2-2-0.3-3-0.5c-1.6-2-2.6-1.6-3.1,0.8
		c0,0,0,0,0,0c-0.8,0.1-1.6,0.2-2.5,0.3c-0.8-0.1-1.7-0.1-2.5-0.2c-0.8-1.3-1.8-1.4-2.9-0.4c-8.1-3.4-16.4-6.3-20.8-14.9
		c-2-3.9-4-7.5-3.7-12.3c0.2-2.7-1.3-5.3-1.1-8.5c0.6-7.3,4.9-12.5,8.8-18c4.6-6.4,14.6-9.7,22.4-10.6c3.4-0.4,6.6-0.4,10-0.5
		c10.4-0.2,17.1,6.8,24.3,12.3c3.2,2.4,4,7.6,5.2,11.8c-1,0.5-1.4,1.1-0.4,2c-0.3,2.2,2.9,3.6,1.4,6
		C524.1,489.5,523.9,490.1,524.8,490.9z M504.1,491.8c-0.4-4.6-1.9-8.5-6.1-10.5c-2.6-1.2-9.9,2.5-12.1,5.1
		c-1.9,2.3-3.1,3.7-1.5,7.2c1.2,2.7,2.4,5.3,4,7.7c0.9,1.5,2.2,1.6,3.9,1.4c5.4-0.6,7.2-5.9,11.2-8.4
		C504,494.1,503.9,492.6,504.1,491.8z"/>
	<path class="st8" d="M527.2,480.1c0.1-1.3,0.3-2.7,0.4-4c0.5-0.5,0.9-0.9,1.4-1.4c0.5-0.9,1.1-1.7,1.6-2.6c0.5-0.5,0.9-1,1.4-1.4
		c0.9-0.6,1.8-1.2,2.7-1.8c1.7,0.1,3.1-0.6,4.2-1.7c1.8-1.2,3.5-2.8,5.9-1.4c0.8,1.6,2.2,1.2,3.5,1c0.8,0.1,1.7,0.1,2.5,0.2
		c0.8,1.3,1.8,1.4,2.9,0.4c0.7,0.1,1.4,0.2,2,0.3c0.5,1.4,1.7,1.3,2.9,1.4c1.8,3.3,5.7,5.4,5.4,9.9c-1.4,0.8-1.5,1.8-0.5,3
		c-0.2,1-0.3,2-0.5,3c-1.6,0.8-1.2,2.2-1,3.5c-0.1,0.8-0.1,1.7-0.2,2.5c-1,0.5-1.2,1.2-0.3,2c-0.1,0.7-0.2,1.3-0.2,2
		c-1.3,0.1-2.5,0.3-2.6,2c-0.1,0.7-0.3,1.4-0.4,2c-1.3,0.1-2.5,0.3-2.6,2c0,0,0,0,0,0c-1.4,0-2.9,0-2.9,2.1c0,0,0,0,0,0
		c-1.6-0.1-3.1-0.1-2.9,2.2c-1.3,1.2-2.7,0.6-4,0.1c-1.6-2-2.6-1.6-3,0.8c0,0,0,0,0,0c-0.9,0.1-1.7,0.1-2.6,0.2
		c-0.8-0.1-1.7-0.1-2.5-0.2c-0.8-1.3-1.8-1.5-2.9-0.4c-6.4-2.4-8.8-5.3-8.3-9.6c1-0.5,1.5-1.1,0.4-2c1.7-4-0.5-8-0.2-12
		C527.9,481.5,528.1,480.9,527.2,480.1z M547.1,489.5c1.5-1.1,4.4-1.3,4.7-4.4c0.2-1.7-4.4-7.6-5.3-6.9c-2.4,1.5-5.7,2.4-6.3,5.7
		C539.7,486.3,543.6,489.5,547.1,489.5z"/>
	<path class="st9" d="M539,467.1c-1.2,1.1-2.5,1.9-4.2,1.7C535.7,467.3,536.6,465.2,539,467.1z"/>
	<path class="st9" d="M493.1,521.7c1-1.1,2.5-0.6,3.7-0.9C496.1,523.7,494.7,523,493.1,521.7z"/>
	<path class="st9" d="M500.1,520.6c1.1-1,2.5-0.5,3.7-0.7C503.1,522.6,501.7,522,500.1,520.6z"/>
	<path class="st9" d="M520.9,501.8c0.1-1.6,1.3-1.8,2.5-1.9C523.9,502.2,522.1,501.6,520.9,501.8z"/>
	<path class="st9" d="M558.9,496.9c0.1-1.7,1.3-1.9,2.6-2C561.8,497.1,560.1,496.6,558.9,496.9z"/>
	<path class="st9" d="M553,503.1c0-2.1,1.4-2.1,2.9-2.1C555.8,502.8,554.3,502.7,553,503.1z"/>
	<path class="st9" d="M550.1,505.2c-0.1-2.2,1.4-2.2,2.9-2.2C552.8,504.7,551.3,504.8,550.1,505.2z"/>
	<path class="st9" d="M543.1,506.1c0.4-2.5,1.3-2.8,3-0.8C545.1,505.5,544.1,505.8,543.1,506.1z"/>
	<path class="st9" d="M535.1,505.7c1.2-1,2.1-0.9,2.9,0.4C536.9,506.9,535.9,506.9,535.1,505.7z"/>
	<path class="st9" d="M487,522c0.5-2.4,1.5-2.7,3.1-0.8C489.1,521.5,488,521.7,487,522z"/>
	<path class="st9" d="M562.3,488.5c-0.3-1.3-0.7-2.7,1-3.5C564,486.4,563.6,487.6,562.3,488.5z"/>
	<path class="st9" d="M479.1,521.7c1.1-1,2.1-0.9,2.9,0.4C480.9,522.9,479.9,522.9,479.1,521.7z"/>
	<path class="st9" d="M563.7,481.9c-1-1.2-0.9-2.2,0.5-3C564.9,480.1,564.9,481.1,563.7,481.9z"/>
	<path class="st9" d="M558.8,469.1c-1.2-0.1-2.4,0-2.9-1.4C557.4,467.1,558.6,467.1,558.8,469.1z"/>
	<path class="st9" d="M553.9,467.4c-1.1,0.9-2.1,0.8-2.9-0.4C552.1,466.1,553.1,466.1,553.9,467.4z"/>
	<path class="st9" d="M548.4,466.7c-1.3,0.3-2.7,0.7-3.5-1C546.4,465,547.5,465.4,548.4,466.7z"/>
	<path class="st9" d="M555.9,500.9c0.1-1.7,1.3-1.9,2.6-2C558.8,501.1,557.1,500.7,555.9,500.9z"/>
	<path class="st9" d="M527.2,494.1c1.1,0.9,0.6,1.5-0.4,2C526.3,495.3,526.4,494.6,527.2,494.1z"/>
	<path class="st9" d="M523.8,496.9c-1-0.9-0.5-1.5,0.4-2C524.7,495.7,524.5,496.4,523.8,496.9z"/>
	<path class="st9" d="M524.8,490.9c-0.9-0.8-0.7-1.5,0.3-2C525.8,489.8,525.7,490.4,524.8,490.9z"/>
	<path class="st9" d="M561.8,492.9c-1-0.8-0.7-1.4,0.3-2C562.8,491.8,562.7,492.4,561.8,492.9z"/>
	<path class="st9" d="M540.5,506.3c0.9-0.1,1.7-0.1,2.6-0.2C542.4,508.2,541.5,507.6,540.5,506.3z"/>
	<path class="st9" d="M511,515c0.1-1.5,0.9-2.1,2.4-1.8C512.8,514.1,512.2,514.9,511,515z"/>
	<path class="st9" d="M503.9,519.8c0.2-1.4,1-1.9,2.4-1.7C506,519.4,505.1,519.8,503.9,519.8z"/>
	<path class="st9" d="M523.8,482.9c-0.9-0.9-0.5-1.5,0.4-2C524.9,481.8,524.6,482.4,523.8,482.9z"/>
	<path class="st9" d="M527.2,480.1c0.9,0.8,0.6,1.4-0.3,1.9C526.2,481.2,526.3,480.6,527.2,480.1z"/>
	<path class="st9" d="M484.5,522.3c0.8-0.1,1.6-0.2,2.5-0.3C486.4,524.1,485.5,523.6,484.5,522.3z"/>
	<path class="st9" d="M529.1,474.7c-0.5,0.5-0.9,0.9-1.4,1.4C527.3,474.7,527.7,474.3,529.1,474.7z"/>
	<path class="st9" d="M532.1,470.6c-0.5,0.5-0.9,1-1.4,1.4C530.2,470.7,530.7,470.3,532.1,470.6z"/>
	<path class="st10" d="M504.1,491.8c-0.2,0.8,0,2.3-0.6,2.6c-4,2.4-5.8,7.7-11.2,8.4c-1.7,0.2-3,0.1-3.9-1.4c-1.6-2.5-2.8-5.1-4-7.7
		c-1.6-3.5-0.4-4.9,1.5-7.2c2.1-2.6,9.5-6.3,12.1-5.1C502.1,483.3,503.7,487.2,504.1,491.8z"/>
	<path class="st11" d="M547.1,489.5c-3.5,0-7.4-3.2-6.9-5.7c0.6-3.3,3.9-4.1,6.3-5.7c1-0.6,5.5,5.2,5.3,6.9
		C551.5,488.1,548.6,488.4,547.1,489.5z"/>
</g>
<g>
	<path d="M529.5,201.1c1.4,7.8,1.1,16.4,2,24.9c1.1,10.8,2.4,21.6,4.3,32.2c1.7,9.4,4.3,18.5,11.5,25.4c4.6,4.4,7.7,9.6,10,15.3
		c1.3,3.3,3.6,4.7,6.6,3.3c6.4-3,11.1,1.3,16.3,3.5c2.1,0.9,4,2.4,5.7,3.9c1.7,1.5,2.9,1.2,4.8,0.1c6.1-3.8,9.5-2.5,12.5,4.4
		c0.8,1.7,1.8,2.6,3.4,1.7c5.5-3,7.8,0.7,10.3,4.5c1.6,2.4,2.2,7.4,7.2,4.1c0.3-0.2,1.2,0,1.4,0.4c3.9,5.6,7.8,1.4,11.2-0.4
		c11.7-6.4,21.4-15.6,31.2-24.5c6.6-6,12.8-12.4,19.3-18.5c3.7-3.5,6.8-7.7,11.1-10.6c1.8-1.2,3.1-4,5.8-1.5
		c2.4,2.3,1.9,4.9,0.4,7.3c-1.8,2.9-3.8,5.7-5.9,8.5c-8.2,10.6-15.4,21.8-21,33.8c-2.8,6-6.2,12.8-0.3,20.1
		c2.5,3.1,2.4,8.5,3.3,12.8c1.3,6.1,3.7,8.4,9.9,9.5c1.6,0.3,3.3,0.5,4.9,0.9c5.7,1.2,8.5,4.8,7.3,10.3c-1,4.6-1.2,8.3,3.6,11.1
		c2.1,1.2,2.7,3.9,2.6,6.7c-0.2,7.8,2.8,13.9,10.1,17.4c3.5,1.7,4.9,4.6,4,8.2c-0.9,3.4-0.1,6.5,0.9,9.7c0.2,0.7,0.8,2,1.2,2
		c7.8-0.6,7.5,9.3,14.2,10.8c5.1,1.2,9.7,4.4,14.9,6.3c8,2.8,16.2,4.7,24.5,6.5c13.7,3.1,27.5,5.1,41.4,6.8c7.3,0.9,14.8,0.2,22.1,0
		c2.2,0,4.3-0.1,6.4,0.5c2.3,0.6,3.8,2.2,3.6,4.7c-0.3,3.1-2.7,2-4.6,2.2c-9.7,1-19.5-1.6-29.1-0.3c-15.9,2-31.2,5.8-44.7,15.2
		c-3.5,2.5-5.7,5.3-5.5,9.9c0.3,6.6-2.6,11.4-8.6,14.3c-4.2,2-5.3,4.7-2.6,9.2c3.1,5,1.9,9.5-2.2,13.9c-4.5,4.9-5.8,11.2-4.8,17.5
		c0.3,2.2,0.4,3.2-1.4,4.4c-3.6,2.3-3.5,5.6-2.3,9.2c2.6,8.4,7.1,15.8,12.2,22.7c9.6,13,20,25.3,30.8,37.3
		c8.1,9.1,15.9,18.3,23.9,27.5c2.1,2.5,3.2,5.4,0.9,8.1c-2.1,2.6-4.7,1.6-7.1-0.2c-0.8-0.6-1.9-0.6-2.8-1.1
		c-9.8-5.9-19.4-12.3-29.5-17.8c-11-6-22.2-11.7-34.7-14c-5.5-1-7.8,0.6-9,5.8c-1.7,6.9-3.3,8-10.5,7.2c-1.7-0.2-3.3-0.5-5-0.5
		c-5.3-0.1-10.3,0.5-12,6.8c-1.6,6-6.7,7.7-11.7,9.6c-2.9,1.1-6,2.1-8.5,3.8c-3.9,2.5-6.4,5.9-3.7,10.9c0.7,1.3,0.7,2.7-0.7,3.5
		c-1.4,0.8-2.5-0.1-3.5-1c-5.4-5.1-7.3-5-11.6,1.4c-2.6,3.8-5.3,5.9-10.2,5.3c-4.6-0.5-7.3,5-6.7,11.6c2.2,22.2,10.2,43,15.5,64.5
		c2.3,9.2,6,18.1,5.5,27.8c-0.2,2.9-0.6,6-4.1,6.6c-3.3,0.6-4.7-2.4-5.8-4.6c-3.9-7.3-6.4-15.2-9.3-22.9
		c-6.2-16.5-13.2-32.6-24.1-46.7c-3.6-4.6-7.4-8.5-13.6-9c-3.6-0.3-5.2-3.4-7.1-5.8c-2.3-2.8-4.1-4.7-8.3-2.3
		c-3.2,1.9-7.4,2.7-11.3,0c-2.6-1.8-5.6,0.1-8.3-0.3c-4.5-0.7-6.2,5.6-10.2,4.4c-5.2-1.7-6.4,2.7-8.8,4.8
		c-8.8,7.6-16.2,16.5-21.8,26.7c-4,7.3-7.3,15-9.5,23.2c-4,14.6-7.4,29.3-9.8,44.3c-0.3,1.6-0.9,2.9-2.7,3c-1.8,0.1-2.7-1.2-3.4-2.5
		c-0.4-0.7-0.6-1.7-0.4-2.4c2.3-7.3,1-14.9,1.1-22.3c0.2-16.7,0.8-33.7-5.2-49.8c-1.8-4.9-4.8-6.5-10.1-6.2
		c-4.8,0.3-9.4-0.3-11.8-5.5c-1.9-4.4-4.4-7.2-9.5-3.6c-1.6,1.2-4,1.2-5.2-0.1c-5-5.7-12.9-5.6-18.7-9.7c-5.1-3.6-10.2-5.2-16.7-3.4
		c-3.6,1-8-0.2-11.8-1.6c-8.3-3.1-15.7-0.4-22.7,3.6c-23.5,13.7-45.8,29.3-67.2,46c-9.7,7.6-18.7,16.1-27.8,24.5
		c-8.7,8-16.7,17-26.6,23.6c-1.3,0.9-2.6,3.1-4.7,1c-1.9-1.9-0.9-3.7,0.6-5.2c3.1-3.2,6.1-6.5,9.3-9.6
		c15.8-14.8,28.4-32.2,40.9-49.7c6.6-9.2,12.4-18.9,17.9-28.8c3.3-6,6.2-12.4,8.6-18.9c1.9-5.2,2.1-10.6-0.2-16
		c-1.8-4.3-1-9.2-0.9-13.8c0.1-2.7-0.2-4.2-3.2-5c-3.9-1.1-7.2-3.4-8.4-7.7c-0.5-1.7-1.1-3.1-3.1-3.4c-9.8-1.6-13.9-8.1-14.8-17.3
		c-0.2-2.1-0.7-3.9-2-5.5c-1.3-1.5-1.6-3.1-1.2-5.1c1.5-6.5-3.1-13.5-8.1-16.1c-9.9-5.2-20.3-6.2-31.3-6c-7.9,0.1-15.7,0.9-23.5,1.5
		c-8.8,0.7-17.4,2.6-26.2,3.8c-8.7,1.2-17.5,2.3-26.2,3.3c-2.6,0.3-4.9,2.1-7.7,1.1c-1.9-0.7-3.5-1.4-3.9-3.4
		c-0.4-2.1,1.3-2.8,2.7-3.7c7.6-4.8,16-8,24-11.8c15.2-7.2,29.6-15.5,42.6-26.3c6-5,12-9.9,15.8-16.9c0.9-1.7,1.8-3.2,1.2-5.1
		c-3-9.5,1.1-16.4,8.4-22c3-2.3,5.5-5.2,8.1-8.1c2.1-2.3,2.8-5.2,1.7-7.9c-1.8-4.2-0.7-7.3,2.1-10.4c1.2-1.3,2.4-2.8,3.3-4.4
		c1.7-3,2.3-5.6-2.3-6.7c-5.5-1.3-8.4-6.2-12.4-9.5c-20.2-17-38.9-35.4-56-55.6c-5.1-6.1-9.7-12.7-15.6-18.1c-1.9-1.8-3.6-3.9-4-6.7
		c-0.3-1.7-2-3.3,0.1-5c2-1.5,4-1.9,6.5-1.2c6.1,1.9,11.2,5.7,16.5,8.9c12.7,7.6,25.3,15.4,38.3,22.6c7.6,4.2,15.3,8.4,23.1,12.1
		c5.4,2.5,11.3,3.9,17.4,4c2.1,0,3.4-1.2,4.9-2.1c2.8-1.9,5.6-3.6,9.2-2.6c3,0.8,3.9-0.8,4-3.4c0.2-5,1.9-8.6,7.4-9.6
		c1.9-0.3,2.7-1.7,2.8-4c0.3-6.2,3.8-9.3,9.8-9.2c7,0.1,9.1-2.8,7.5-9.7c-2.8-11.8-9.4-21.9-14.7-32.6c-5.5-11.1-11.6-22-17.7-32.8
		c-3.4-5.9-7.4-11.5-11.3-17.1c-3.3-4.8-6.4-9.7-9.1-14.9c-1.3-2.5-1.1-4.5,1.1-6.1c2.5-1.8,4.4-0.6,5.8,1.6
		c6.7,10.2,13.4,20.3,21.3,29.5c12.1,14.1,26,26.2,42.5,34.7c7.6,3.9,16.2,7.4,24.8,0.9c2.5-1.9,5.9-1.8,8.9,0.3
		c2.4,1.7,4.2,1.3,5-2c0.9-3.5,3.4-5.2,7.1-4.6c2.8,0.5,3.2-0.7,3.4-3.3c0.7-9.2-0.9-18.1-1.8-27.2c-0.4-3.7,0.6-7.7,1.7-11.3
		c1.1-3.9,6.8-4.5,10.5-1.4c2.7,2.3,4.3,5.5,6,8.5c1.5,2.6,3.1,5.1,4.7,7.6c0.8,1.2,1.9,2.8,3.5,2.4c4.3-0.9,6.9,1,9.1,4.4
		c1,1.6,2.6,1.8,4.3,0.7c2.9-1.8,6.5-2.5,9-5.1c0.8-0.9,1.7-1.5,3-0.5c7.6,6,17.2,0.3,21.9-5.8c6.2-8.1,9.2-17.5,12.3-27.2
		c5-15.9,6.6-32.3,10-48.3c2-9.2,1.4-18.6,2.8-27.8c0.5-2.9,1-6.1,4.7-5.8C529.4,193.8,530.3,196.8,529.5,201.1z M654.9,752.4
		c1.3-1.2,1.4-2.2,1.1-3.2c-4.3-14.1-9.2-28-12.3-42.4c-2.2-9.9-4.9-19.8-2.7-30.1c1.3-6.3,6.2-10.5,12.7-10.1
		c2.3,0.1,4.1,0.1,5.6-2.1c2.8-3.9,5.4-8.1,11.4-7.1c1.5,0.3,1.9-1.6,2.6-2.7c4-6.4,9.8-10.4,17-12.7c3.4-1.1,6.1-2.8,7.3-7
		c1-3.5,2.7-7.7,7.4-8.5c4.7-0.8,9.5-1.5,14.3,0c3.1,1,4.7,0.2,5.7-3.3c1.8-6.5,7.2-10.1,12.7-9.8c8.6,0.5,16.7,3.5,24.3,7
		c11.5,5.4,23,11.2,33.3,18.8c0.8,0.6,1.9,1.2,2.7,0.4c0.9-1-0.2-1.8-0.8-2.5c-9.2-10.7-18.5-21.3-27.6-32.2
		c-10.9-13-22.2-25.8-28.2-42c-1.6-4.3-4.3-9.1-0.7-13.7c2.2-2.8,2.8-5.9,2.1-8.9c-1.6-7.4,1.4-13.2,6.1-18.1c2.7-2.8,2.3-4.9,1-7.7
		c-3.9-8.7-3.7-9.5,4-15c0.9-0.7,1.9-1.3,2.9-1.9c3.1-1.6,4.5-4,4.5-7.6c0.1-5.3,1.4-10,5.9-13.6c7.9-6.3,16.8-10.4,26.2-13.7
		c0.8-0.3,2.3,0.3,2.4-1.1c0-1.6-1.5-1.5-2.6-1.7c-12.3-2.1-24.5-4-36.5-8.1c-9.3-3.2-18.1-6.8-26.3-12.1c-2.4-1.5-3.4-4.4-6.2-5.6
		c-6.9-3-10.3-8.6-11-15.9c-0.2-2.2-1-3.6-2.8-4.8c-7.2-5.1-11.2-12.1-11.4-21c0-1.7-0.2-3.2-1.8-4.4c-4.5-3.3-6.2-7.8-4.6-13.2
		c1-3.3-0.4-4.7-3.5-4.9c-4.9-0.3-9-2.2-12.4-5.7c-2.9-3-3.2-7.2-4.9-10.6c-3.2-6.6-1.8-14.6-6.6-20.6c-0.5-0.7,0-2.3,0.2-3.4
		c1-9.5,5.6-17.4,10.6-25.3c0.6-1,1.7-2.1,0.6-3c-1.3-1.2-1.8,0.8-2.7,1.3c-0.4,0.2-0.8,0.7-1.1,1c-10.7,10.9-21.9,21.5-35.7,28.2
		c-10.9,5.3-18.6,6.3-25.9-5.6c-1.3-2.2-2.9-3.3-5.3-2.4c-4.5,1.7-6.9-0.8-8.5-4.3c-1.2-2.7-2.5-3-4.2-0.7c-1.3,1.8-2.9,1.7-4.8,1.5
		c-4.6-0.4-7.6-3.8-11.5-5.5c-3.5-1.6-5.8-5.8-10.5-4.4c-8.1,2.3-14.4-0.4-17.2-8.1c-2.1-5.8-5.5-10.6-9.7-14.9c-2-2-3.6-4.3-5-6.8
		c-5.4-10.1-7.2-21.1-8.6-32.3c-0.4-3.4-0.9-6.8-1.5-10.5c-1.9,1.3-2,2.7-2.1,4c-2.5,18.5-6.1,36.6-13.6,53.9
		c-3.7,8.6-9,15.6-17.3,20.4c-2,1.2-4.9-0.2-5.9,1.8c-1.9,3.6-4.6,2.5-7.3,2.1c-5.5-0.8-10.9-1-15.7,2.6c-2.7,2-5.2,1.3-7.6-0.8
		c-1.9-1.7-3.3-4.6-6.3-4.5c-3.9,0-6.4-2.3-8.9-4.7c-3.3-3.2-5.6-7-7.5-11.1c-0.5-1.1-0.5-3.1-2.3-2.7c-1.5,0.3-1.1,2.2-1.4,3.4
		c-0.2,0.6-0.3,1.4-0.2,2c1.8,8.3,1.3,16.8,3.8,25.2c2.2,7.4,2,14-8.6,13.8c-1.8,0-2.8,0.8-3.5,2.3c-3.6,6.9-6.9,6.1-13.3,3.9
		c-2.8-1-4.8-1.1-7.3,0.4c-6.3,3.9-13.1,4.1-20.1,1.6c-12.2-4.4-22.8-11.3-32.6-19.6c-1.1-0.9-1.9-2.4-3.9-1.6
		c5,9.2,9.9,18.4,14.8,27.5c4,7.5,7.4,15.1,7.5,23.8c0,6.1-5.4,13.1-11,12.5c-5.7-0.6-7.2,2-7.3,6.7c-0.1,3.5-1.5,6.7-5,7.1
		c-3.9,0.4-4,2.6-4.2,5.4c-0.3,4.9-2.6,7.5-7.8,7.8c-5.2,0.3-10.5,0.7-14.9,4.3c-1.8,1.5-4.1,1-6.2,0.8
		c-10.9-0.7-20.5-5.3-29.8-10.3c-16.2-8.8-32.3-17.9-47.6-28.2c-2.1-1.4-3.9-4.7-7.8-3.7c3.4,6,8.4,10.2,12.5,15.1
		c10.8,12.9,22.5,24.9,34.9,36.1c10.1,9.1,19.9,18.6,32.1,25.5c6.8,3.9,9.5,9.8,2.6,17.5c-2.6,2.9-4.4,6-3.7,9.9
		c1.1,5.7-1.6,9.8-4.7,14c-3.5,4.7-8.4,7.9-12.4,12.2c-2.2,2.4-2.5,4.3-1.7,7.1c1.4,4.9,0.4,9.8-2,13.9c-3.8,6.5-9.3,11.6-15.1,16.3
		c-13.6,11.1-28.2,20.7-44.3,28.2c3,3.7,5.8,0.5,8.4,0.2c8.8-0.8,17.6-1.6,26.3-3.2c7.5-1.4,15.1-2,22.5-2c9.4,0,19,1.4,28,4.6
		c7.8,2.7,13.8,8.3,15.3,16.4c1.4,7.4,3.2,14.7,5.6,21.9c1,3.1,2.5,5.1,5.8,6.1c5,1.6,10.3,3.2,11.6,9.6c0.3,1.3,1.7,2.1,3,2.4
		c9.1,2.1,10,6.5,8.9,16.4c-0.3,3-1.9,6.2-0.6,8.8c3.2,6.2,1.8,12.2,0.9,18.4c-0.6,3.8-2.9,6.7-4,10.1c-2.9,8.5-7.7,16-12.3,23.5
		c-5.1,8.4-10.3,16.7-16.7,24.2c-0.7,0.8-1.1,1.9-0.2,2.7c1.1,0.9,1.7-0.3,2.5-0.8c4.4-3,7.6-7.3,12-10.4
		c18.5-13.1,36.6-26.9,56.5-38c9.2-5.2,18.7-9.3,29.7-5.3c2.7,1,5.7,0.8,8.8,0.2c6.5-1.1,13.2-1.3,18.8,3.6c1.8,1.6,4.1,2.3,6.4,2.7
		c3.9,0.7,7.1,2.4,10.1,5c2.3,2,5,2.2,7.9,1c3.9-1.6,7.1-0.4,9.9,2.5c1.5,1.6,2.5,3.5,3.2,5.6c0.9,2.3,2.5,3.1,4.7,2.7
		c8.3-1.2,12.1,0.5,16.2,7.6c4.1,7,5.4,14.8,6.2,22.7c0.5,4.3,0.7,8.6,0.4,12.8c1.6,0.2,1.8-0.4,2.1-1c3.9-8.9,6.4-18.3,11.4-26.7
		c5.2-8.7,11.5-16.2,18.4-23.5c6.2-6.5,13.5-10.8,22-13.6c4.3-1.4,8.4-3,12.9-2.1c4.4,0.9,8.8,2.2,12.6-1.7c0.5-0.5,1.9-0.3,2.9-0.3
		c4.6-0.1,6.9,3.5,9.7,6.3c2.1,2.1,3.4,5.3,6.7,5.7c7.4,0.8,11.7,5.9,15.8,11.1C642,719.7,648.4,735.9,654.9,752.4z"/>
	<path d="M334.7,523.3c-1.6-6,0.5-12,0.1-17.8c-1-12.8,3.4-24.5,7.2-36c4.7-14.3,12.2-27.6,21.4-39.8c9.7-12.8,20.4-24.7,33.5-33.7
		c20.7-14.4,42.4-27.2,67.1-34.2c13.5-3.8,27-7.2,40.9-8.6c13.3-1.3,26.6-2,40-1c9.8,0.7,19.6,1,29.2,3.1c15.7,3.4,31.1,8,46,14.2
		c20.1,8.4,38.2,19.6,54.4,34c24.4,21.8,40.9,48.5,47.5,80.6c4.5,21.8,4,43.7-2.9,65.4c-8.7,27.5-23.9,50.5-44.8,70.1
		c-23.2,21.7-50.7,35.9-80.8,45.1c-13.5,4.1-27.4,6.4-41.5,8c-26.2,2.8-52,1.2-77.6-4.5c-9-2-17.8-5.1-26.5-8.4
		c-9.1-3.4-17.8-7.4-26.5-11.9c-14.2-7.4-27-16.6-38.8-27.3c-14.4-13.2-26.1-28.4-34.6-46c-5.6-11.6-9.8-23.8-11.8-36.7
		C335.7,533.1,334.8,528.2,334.7,523.3z M508,362.2c-8.1,1.2-16.3,2-24.3,3.8c-19.4,4.3-38.1,10.5-55.7,19.8
		c-6.9,3.6-14.5,6.7-20,11.8c-6.6,6.1-13.8,11.3-20.3,17.5c-19.2,18.5-33.2,40.2-40.6,65.7c-6.3,21.5-6.1,43.4-0.4,65.2
		c7.7,29.9,24.5,53.9,47.7,73.5c13,11,27.3,19.9,43,26.8c10.2,4.5,20.4,8.8,31,11.3c30.1,7.1,60.6,10.1,91.6,4.9
		c17.3-2.9,34.1-7,50.3-13.6c27.4-11.2,51.4-27.4,70.8-50c12.9-15.1,23.1-31.9,28.1-51.1c4.3-16.3,6.9-33,4.6-50.3
		c-2.3-17.2-7.3-33.3-15.8-48.3c-12.9-22.9-30.8-41.1-52.8-55.4c-11.5-7.5-23.8-13.5-36.5-18.7c-9.3-3.8-19.1-5.6-28.6-8.4
		c-13.7-4-28-4.5-42-5.5C528.2,360.7,518,360.8,508,362.2z"/>
	<path d="M571,561c0.8,11.4-3.6,21.7-6.7,32c-3.6,11.8-10.5,22.6-21.8,28.4c-11.3,5.7-20.4,3.9-33.1-7.1c-8.7-7.5-15-16.9-20.4-26.9
		c-0.3-0.6-0.6-1.2-1.7-1.3c-3.5,7.2-6.8,14.8-11.3,21.6c-2.1,3.1-4.2,6.2-6.2,9.4c-0.8,1.3-1.8,1.4-3,1c-1.4-0.4-1.9-1.4-1.6-2.7
		c0.8-3.4,1.1-6.8,2.7-10.1c4.2-8.7,9.1-17.2,10.6-27.1c1.5-10.3-1.1-19.1-8.4-26.4c-3-3.1-6.2-6-9.3-9c-1.7-1.6-2.7-3.5-0.9-5.7
		c1.7-2,4-1.3,5.5-0.3c10.9,7.6,21.1,15.8,22.8,30.3c0.5,4.3,3,7.7,5,11.3c5.9,10.5,12.7,20.5,21.8,28.4
		c14.6,12.4,23.6,9.7,34.2-5.5c7.4-10.7,9.5-23.2,12.6-35.4c1.9-7.4,3.4-15,4.2-22.6c0.6-5.7-0.3-11.5-0.6-17.2
		c-0.2-4.4-0.1-8.7,2.5-12.5c1-1.5,2.3-3.7,4.8-2.7c2.3,1,3.3,3,2.9,5.7c-1.8,10.9-0.2,21.4,3.5,31.7c3.3,9.1,9.6,16.2,15.9,23.3
		c2.1,2.4,4.3,4.7,6.5,6.8c1.9,1.8,3.5,3.9,1.5,6c-1.8,2-4.4,0.6-6.4-0.6c-5.6-3.6-10.5-8-15-13c-3.1-3.4-6.2-6.8-9.3-10.2
		C571.8,560.8,571.4,560.9,571,561z"/>
	<path d="M543.3,513.3c-5.3,0.8-9.8-1.5-14.1-4c-2.2-1.3-2.7-1-4.1,1.1c-10,15.6-27.2,21.9-45.2,17.9c-13.5-3-23.2-10.2-28.8-23.4
		c-4.3-10.2-0.7-30.1,7.7-38.6c8.2-8.2,18.1-13.5,29.3-13.6c13.7-0.2,26.7,3.4,35.2,15.9c1.8,2.6,2.5,3.9,5.5,0.6
		c6-6.9,14-10.2,23.4-10c9.4,0.3,20.1,10.7,20.1,20.3c0,15.3-5.8,28.3-22.2,33.2C547.8,513.4,545.5,512.9,543.3,513.3z M492.6,520.2
		c2.9,1.3,4.9-0.4,7.1-0.9c11.9-2.6,26.9-18.2,23.4-33.8c-2.7-12.2-12.4-21.1-22.4-24.1c-9.7-2.9-19.2-1.4-27.7,3.7
		c-19.3,11.4-22.2,35.1-3.2,49.4C476.6,519.5,484.1,522.9,492.6,520.2z M549,469c-7.8,0.5-12.6,3-17.3,9c-1.4,1.7-2.2,3.9-1.3,5.5
		c1.8,3.4,0.6,6.5,0.3,9.7c-0.8,7.3,6.3,13.6,13.4,11.7c11.7-3,17.6-9.4,18.6-21.8C563.2,475.5,556.7,468.5,549,469z"/>
	<path d="M554.2,419.5c6.7,0,14.1,5.6,16,11.5c1,3.1-0.8,4.1-3.1,4.3c-2.1,0.2-4.1-0.5-5.8-2.2c-4.3-4.2-9.3-4.3-14.6-1.9
		c-2.4,1.1-5,2.6-6.9-0.7c-1.8-3.1,1-4.6,2.7-6.1C546,421.1,550.5,420.5,554.2,419.5z"/>
	<path d="M491.2,434.2c-2.1-0.6-4.2-1-6.2-1.9c-4.4-1.9-9.1-1.2-11.8,2.7c-1.6,2.3-3.3,3.5-5.7,2.3c-2.6-1.3-1.4-3.7-0.9-5.8
		c1.3-5.2,11-11.6,18.4-8.9c3.2,1.2,6.6,2.3,9,5.1c1.3,1.4,1.5,2.9,0.8,4.6C494.2,433.9,493,434.5,491.2,434.2z"/>
	<path d="M655.6,510.7c-1.4,5.7-4.9,11.7-9,17.4c-0.8,1.1-2.1,2.3-3.8,1.3c-1.8-1-2.1-2.9-1.4-4.3c2.6-5.8,5.4-11.5,8.5-17
		c0.6-1.2,2.2-2.6,4.2-1.8C655.6,506.9,655.9,508.1,655.6,510.7z"/>
	<path d="M614.2,533.7c0.8-6.6,4.3-12.4,8.3-17.8c1.3-1.7,3.5-0.9,5,0.1c1.5,1.1,0.9,2.6,0.2,4c-2.2,4.5-4.2,9.2-6.7,13.6
		c-1,1.8-2.2,4.4-4.9,4C614.6,537.4,613.9,535.8,614.2,533.7z"/>
	<path d="M393.8,584c2.9-6,4.8-12.6,8.6-18.1c0.7-1,2.5-2.4,4.3-0.6c1.5,1.5,0.4,2.5,0,4.1c-1.6,5.4-5.4,9.8-6.1,15.5
		c-0.3,2.3-2,3.7-4.2,3.4C394.3,588,393.4,586.3,393.8,584z"/>
	<path d="M453.9,561.2c-1.4,6.3-4.2,12-7.8,17.4c-0.7,1.1-1.7,1.7-3,1.2c-1.7-0.5-1.5-1.9-1.5-3.3c0.3-6,4.2-10.7,6.1-16.1
		c0.5-1.4,2.3-3.5,4.8-2.7C454.3,558.4,454.1,559.8,453.9,561.2z"/>
	<path d="M590.3,537.4c-0.5-5.2,4-9.9,5.6-15.6c0.6-2,2.8-2.1,4.7-1.5c2,0.6,1.8,2.1,1.4,3.7c-1.4,6.4-5.7,11.3-8,17.3
		c-0.4,1.1-1.7,0.9-2.6,0.6C589.8,541.2,589.8,539.8,590.3,537.4z"/>
	<path d="M417.8,579.6c-0.3-4.6,3.5-9.1,5.6-14.2c0.5-1.2,2.5-2.4,4.3-1.3c1.8,1.1,2.5,2.8,1.5,4.7c-2.4,5-5.7,9.5-7.6,14.7
		c-0.4,1-1.6,1.2-2.6,0.8C417.4,583.6,417.5,582.3,417.8,579.6z"/>
	<path d="M497.1,480.2c4.7,0,10.5,5.6,10.6,10.2c0.2,6.8-8.3,16.2-14.5,16c-6.6-0.2-10.8-6.3-10.9-15.8
		C482.3,485.1,489.2,480.2,497.1,480.2z"/>
	<path d="M547.3,493.1c-5,0-8.5-3.2-8.5-7.7c0-4.7,4.2-9.2,8.5-9.1c3.6,0.1,7.6,4.7,7.7,9C555.1,489.7,551.8,493.1,547.3,493.1z"/>
</g>
</svg>
