<?xml version="1.0" encoding="utf-8"?>
<!-- Generator: Adobe Illustrator 16.0.0, SVG Export Plug-In . SVG Version: 6.00 Build 0)  -->
<!DOCTYPE svg PUBLIC "-//W3C//DTD SVG 1.1//EN" "http://www.w3.org/Graphics/SVG/1.1/DTD/svg11.dtd">
<svg version="1.1" id="Sun_in_Space" xmlns="http://www.w3.org/2000/svg" xmlns:xlink="http://www.w3.org/1999/xlink" x="0px"
	 y="0px" width="512px" height="512px" viewBox="0 0 512 512" enable-background="new 0 0 512 512" xml:space="preserve">
<circle id="Background" fill="#323653" cx="256" cy="256" r="255.931"/>
<path id="Shadow" opacity="0.1" d="M377.8,134.533L329.387,80.12l-18.402,33.489L256,65.162l0,71.87l-71.648,62.649L79.92,182.414
	l70.134,70.134L65.161,256l56.501,56.501l-41.9,16.709l51.771,49.257l-10.478,12.477c0,0,68.28,71.981,116.558,120.386
	c113.611,8.261,222.819-60.614,260.902-173.557c10.481-31.084,14.645-62.773,13.197-93.679l-120.77-123.037L377.8,134.533z"/>
<g id="Stars_1_">
	<g>
		<g>
			<path fill="#E2DDEE" d="M98.367,281.935c0.67,2.509-0.689,5.163-3.033,5.917c-2.345,0.759-4.789-0.664-5.46-3.177
				c-0.67-2.51,0.689-5.162,3.03-5.918C95.25,278,97.694,279.422,98.367,281.935z"/>
			<polygon fill="#E2DDEE" points="91.273,272.633 93.214,283.597 96.969,293.974 95.026,283.012 			"/>
			<polygon fill="#E2DDEE" points="84.157,286.523 94.381,284.275 104.083,280.087 93.859,282.336 			"/>
		</g>
		<g>
			<path fill="#E2DDEE" d="M226.711,32.451c1.007,3.768-1.033,7.744-4.55,8.884c-3.521,1.137-7.187-0.999-8.192-4.768
				c-1.006-3.77,1.03-7.749,4.546-8.882C222.035,26.549,225.705,28.684,226.711,32.451z"/>
			<polygon fill="#E2DDEE" points="216.064,18.496 218.979,34.947 224.616,50.521 221.699,34.07 			"/>
			<polygon fill="#E2DDEE" points="205.388,39.338 220.726,35.968 235.286,29.682 219.948,33.055 			"/>
		</g>
		<g>
			<path fill="#E2DDEE" d="M482.397,215.883c1.006,3.768-1.035,7.744-4.552,8.88c-3.521,1.137-7.188-0.996-8.19-4.766
				c-1.008-3.77,1.028-7.749,4.543-8.88C477.719,209.979,481.392,212.114,482.397,215.883z"/>
			<polygon fill="#E2DDEE" points="471.748,201.928 474.665,218.379 480.303,233.953 477.383,217.5 			"/>
			<polygon fill="#E2DDEE" points="461.073,222.768 476.411,219.396 490.972,213.112 475.634,216.484 			"/>
		</g>
		<g>
			<path fill="#E2DDEE" d="M104.563,418.987c1.651,6.171-1.692,12.69-7.456,14.553c-5.763,1.86-11.776-1.635-13.423-7.811
				c-1.647-6.177,1.69-12.693,7.449-14.553C96.901,409.313,102.912,412.809,104.563,418.987z"/>
			<polygon fill="#E2DDEE" points="87.119,396.122 91.893,423.077 101.127,448.59 96.35,421.638 			"/>
			<polygon fill="#E2DDEE" points="69.629,430.268 94.759,424.745 118.611,414.447 93.483,419.971 			"/>
		</g>
		<g>
			<path fill="#E2DDEE" d="M271.85,459.405c0.63,2.354-0.645,4.832-2.838,5.543c-2.196,0.712-4.486-0.619-5.115-2.974
				c-0.629-2.354,0.645-4.836,2.839-5.545C268.932,455.718,271.223,457.052,271.85,459.405z"/>
			<polygon fill="#E2DDEE" points="265.202,450.697 267.024,460.965 270.541,470.684 268.723,460.416 			"/>
			<polygon fill="#E2DDEE" points="258.542,463.704 268.118,461.598 277.203,457.678 267.63,459.78 			"/>
		</g>
	</g>
	<g id="Star_11_">
		<path fill="#E2DDEE" d="M124.544,158.061c0.936,3.509-0.96,7.212-4.235,8.271c-3.275,1.059-6.692-0.929-7.627-4.437
			c-0.938-3.511,0.96-7.215,4.233-8.271C120.191,152.565,123.607,154.551,124.544,158.061z"/>
		<polygon fill="#E2DDEE" points="114.632,145.07 117.345,160.388 122.591,174.886 119.878,159.568 		"/>
		<polygon fill="#E2DDEE" points="104.692,164.471 118.973,161.334 132.53,155.482 118.249,158.622 		"/>
	</g>
</g>
<g id="Sun_1_">
	<path fill="#F15F34" d="M390.943,390.943c-14.463-25.498-25.706-47.315-33.745-67.095c21.351-0.075,45.802,2.041,74.883,5.736
		c-23.31-18.287-42.143-34.346-57.17-49.737c19.799-8.407,43.37-15.962,71.928-23.848c-28.457-7.858-51.962-15.386-71.718-23.758
		c15.033-15.31,33.851-31.279,57.116-49.452c-29.194,3.647-53.721,5.711-75.125,5.574c8.045-19.835,19.315-41.717,33.831-67.308
		c-25.498,14.463-47.315,25.707-67.094,33.745c-0.075-21.35,2.041-45.801,5.737-74.882c-18.288,23.309-34.348,42.144-49.739,57.17
		C271.439,117.29,263.886,93.72,256,65.162c-7.858,28.456-15.385,51.961-23.757,71.717c-15.31-15.033-31.279-33.852-49.452-57.116
		c3.647,29.194,5.711,53.721,5.574,75.125c-19.835-8.044-41.717-19.314-67.308-33.831c14.463,25.499,25.706,47.315,33.745,67.094
		c-21.35,0.075-45.801-2.041-74.881-5.737c23.309,18.288,42.144,34.347,57.17,49.739c-19.8,8.408-43.37,15.961-71.929,23.848
		c28.456,7.858,51.961,15.387,71.717,23.758c-15.032,15.31-33.851,31.279-57.116,49.452c29.194-3.647,53.721-5.712,75.125-5.575
		c-8.044,19.836-19.315,41.718-33.831,67.309c25.499-14.463,47.316-25.706,67.095-33.745c0.075,21.351-2.041,45.802-5.737,74.883
		c18.288-23.31,34.346-42.143,49.738-57.17c8.408,19.799,15.961,43.37,23.847,71.928c7.859-28.456,15.387-51.962,23.757-71.718
		c15.311,15.034,31.28,33.852,49.454,57.116c-3.647-29.193-5.712-53.721-5.575-75.124"/>
	<g>
		<circle fill="#FEC054" cx="256" cy="256" r="142.391"/>
		<path opacity="0.1" d="M356.585,155.215c18.776,23.829,29.981,53.903,29.981,86.595c0,77.333-62.692,140.027-140.026,140.027
			c-52.592,0-98.403-29.001-122.339-71.874c21.264,51.881,72.26,88.428,131.799,88.428c78.641,0,142.391-63.75,142.391-142.391
			C398.391,216.629,382.411,180.991,356.585,155.215z"/>
	</g>
</g>
</svg>
