<?xml version="1.0" standalone="no"?><!DOCTYPE svg PUBLIC "-//W3C//DTD SVG 1.1//EN" "http://www.w3.org/Graphics/SVG/1.1/DTD/svg11.dtd"><svg t="1649680822487" class="icon" viewBox="0 0 1024 1024" version="1.1" xmlns="http://www.w3.org/2000/svg" p-id="95874" xmlns:xlink="http://www.w3.org/1999/xlink" width="200" height="200"><defs><style type="text/css">@font-face { font-family: "feedback-iconfont"; src: url("//at.alicdn.com/t/font_1031158_u69w8yhxdu.woff2?t=1630033759944") format("woff2"), url("//at.alicdn.com/t/font_1031158_u69w8yhxdu.woff?t=1630033759944") format("woff"), url("//at.alicdn.com/t/font_1031158_u69w8yhxdu.ttf?t=1630033759944") format("truetype"); }
</style></defs><path d="M386.23560691 906.23005497l57.16681008-216.79200921h150.09739746l57.16681008 216.79200921" fill="#F7554A" p-id="95875"></path><path d="M650.66662453 922.24780853c-7.04228819 0-13.53224006-4.69485881-15.46541721-11.87523108l-54.12896026-204.77869405h-125.38034675l-54.12896026 204.77869405c-2.20934532 8.5612131-11.04672658 13.67032415-19.60793969 11.32289474-8.5612131-2.20934532-13.67032415-11.04672658-11.32289474-19.60793968l57.16681008-216.79200921c1.79509307-7.04228819 8.14696086-11.87523108 15.46541721-11.87523109h149.95931337c7.31845635 0 13.67032415 4.83294288 15.46541722 11.87523109l57.16681008 216.79200921c2.20934532 8.5612131-2.89976573 17.26051028-11.32289475 19.60793968-1.10467265 0.27616816-2.48551348 0.55233633-3.8663543 0.55233634z" fill="#4C466D" p-id="95876"></path><path d="M96.25903408 597.75021511a429.85574821 67.66120033 0 1 0 859.71149643 0 429.85574821 67.66120033 0 1 0-859.71149643 0Z" fill="#49DAF2" p-id="95877"></path><path d="M526.11478228 529.9509307c237.36653748 0 429.85574821 30.24041403 429.85574823 67.66120032s-192.48921073 67.66120033-429.85574823 67.66120034-429.85574821-30.24041403-429.8557482-67.66120034c0-37.28270222 192.48921073-67.66120033 429.8557482-67.66120032m0-31.897423c-116.40488139 0-226.18172682 7.18037229-308.89409211 20.160276-108.67217277 17.12242621-152.85907911 40.18246795-152.85907911 79.53643141s44.32499042 62.41400519 152.85907911 79.53643141c82.85044939 12.97990373 192.48921073 20.16027601 308.89409211 20.16027601 116.40488139 0 226.18172682-7.18037229 308.89409212-20.16027601 108.67217277-17.12242621 152.85907911-40.18246795 152.85907911-79.53643141s-44.32499042-62.41400519-152.85907911-79.53643141c-82.7123653-12.97990373-192.35112666-20.16027601-308.89409212-20.160276z" fill="#4C466D" p-id="95878"></path><path d="M736.27875555 566.40512843c33.27826384-0.13808409 58.27148273-31.2070026 50.53877414-63.65676194C757.54370423 379.43928098 646.52410207 288.02761851 514.3776353 288.57995483c-132.14646676 0.55233633-242.33756445 92.9305874-270.64480132 216.37775698-7.45654045 32.44975935 17.67476253 63.38059378 51.09111046 63.24250968l441.45481111-1.79509306z" fill="#49DAF2" p-id="95879"></path><path d="M515.48230795 288.57995483c131.59413043 0 242.06139629 91.2735784 271.19713766 214.16841166 7.7327086 32.44975935-17.12242621 63.51867787-50.53877413 63.65676194l-441.45481113 1.79509306h-0.27616817c-33.27826384 0-58.27148273-30.79275037-50.81494228-63.24250968 28.1691528-123.44716958 138.49833455-215.82542064 270.64480131-216.37775698h1.24275674m0-32.0355071h-1.24275674c-70.56096607 0.27616816-139.6030072 24.85513482-194.2843038 69.18012525-53.8527921 43.63457002-91.96399882 104.80581847-107.42941603 172.05276655-5.66144737 24.85513482 0.13808409 50.67685821 16.15583762 70.69905013 16.01775355 20.16027601 40.04438386 31.75933893 65.86610728 31.75933893h0.27616816l441.45481111-1.79509306c25.8217234-0.13808409 49.84835372-11.87523108 65.86610728-32.17359118 15.87966947-20.16027601 21.54111683-45.98199941 15.74158537-70.97521831-15.87966947-66.97077991-54.40512843-127.58969205-108.25792053-170.81000981C654.809147 280.70916213 585.90518993 256.54444773 515.48230795 256.54444773z" fill="#4C466D" p-id="95880"></path><path d="M287.367404 568.20022149c-0.55233633-126.07076714 101.21563233-228.52915621 227.28639947-229.08149254S743.18295967 440.47244537 743.59721193 566.40512843" fill="#38C9F1" p-id="95881"></path><path d="M343.84379364 568.06213742c-0.41425225-94.72568046 76.08432934-171.91468247 170.94809391-172.32893472s171.91468247 76.08432934 172.32893471 170.94809389" fill="#49BCEA" p-id="95882"></path><path d="M656.466156 400.70422966c-3.31401797 0-6.48995186-0.96658859-9.38971762-3.03784981-16.43200579-11.87523108-34.24485242-21.40303275-53.16237167-28.44532095-24.9932189-9.25163351-51.36727861-14.08457639-78.29367467-14.08457639h-0.96658857c-23.75046215 0.13808409-47.22475615 3.86635431-69.59437749 11.32289474-8.42312903 2.76168163-17.39859437-1.79509307-20.16027602-10.21822208-2.76168163-8.42312903 1.79509307-17.39859437 10.21822209-20.16027603 25.54555523-8.42312903 52.3338672-12.84181965 79.53643142-12.84181965 31.2070026-0.13808409 61.5855007 5.24719513 90.58315798 16.01775354 21.54111683 8.00887677 41.97756103 18.91751926 60.75699621 32.44975935 7.18037229 5.10911105 8.83738127 15.18924905 3.59018615 22.36962134-3.31401797 4.28060655-8.14696086 6.62803595-13.11798781 6.62803594zM380.57415955 396.5617072c-5.10911105 0-10.21822208-2.48551348-13.2560719-7.0422882-4.97102697-7.31845635-3.0378498-17.26051028 4.28060655-22.23153725 5.24719513-3.59018613 10.77055842-7.04228819 16.2939217-10.2182221 7.59462453-4.41869063 17.39859437-1.79509307 21.81728501 5.93761555 4.41869063 7.59462453 1.79509307 17.39859437-5.93761553 21.81728499-4.83294288 2.76168163-9.66588576 5.79953147-14.22266049 8.97546536-2.76168163 1.93317715-5.93761554 2.76168163-8.97546534 2.76168165z" fill="#4C466D" p-id="95883"></path><path d="M337.22922918 512.17320991a24.44088257 24.44088257 0 1 0 27.23665027-40.59053818 24.44088257 24.44088257 0 1 0-27.23665027 40.59053818Z" fill="#D7F7FF" p-id="95884"></path><path d="M350.88608185 467.53692549c4.69485881 0 9.3897176 1.38084082 13.53224007 4.14252248 11.18481067 7.45654045 14.22266047 22.64578949 6.62803595 33.83060017-4.69485881 7.04228819-12.42756741 10.77055842-20.2983601 10.77055841-4.69485881 0-9.3897176-1.38084082-13.53224007-4.14252246-11.18481067-7.45654045-14.22266047-22.64578949-6.62803595-33.83060018 4.69485881-7.04228819 12.42756741-10.77055842 20.2983601-10.77055842m0-32.03550709c-18.7794352 0-36.31611363 9.3897176-46.81050392 24.9932189-8.42312903 12.56565149-11.46097883 27.47873238-8.5612131 42.25372919 2.89976573 14.7749968 11.46097883 27.47873238 23.88854625 35.90186139 9.3897176 6.2137837 20.16027601 9.52780169 31.34508669 9.52780169 18.7794352 0 36.31611363-9.3897176 46.81050389-24.9932189 17.26051028-25.8217234 10.35630617-60.8950803-15.46541721-78.29367467-9.11354943-6.07569962-20.02219194-9.3897176-31.2070026-9.3897176zM735.1740829 233.62249008c-24.57896666 0-44.46307451-19.88410785-44.46307451-44.46307451s19.88410785-44.46307451 44.46307451-44.4630745c24.57896666 0 44.46307451 19.88410785 44.4630745 44.4630745s-19.88410785 44.46307451-44.4630745 44.46307451z m0-56.89064192c-6.90420412 0-12.42756741 5.5233633-12.4275674 12.42756741s5.66144737 12.42756741 12.4275674 12.4275674 12.42756741-5.5233633 12.42756741-12.4275674c0-6.76612003-5.5233633-12.42756741-12.42756741-12.42756741z" fill="#4C466D" p-id="95885"></path><path d="M343.15337324 468.91776631c-1.24275675 1.24275675-2.48551348 2.62359757-3.59018614 4.14252249-7.45654045 11.18481067-4.55677472 26.37405971 6.62803596 33.83060015 6.48995186 4.41869063 14.36074457 5.10911105 21.40303275 2.76168165-8.14696086 7.59462453-20.71261235 8.97546534-30.24041403 2.48551349-11.18481067-7.45654045-14.22266047-22.64578949-6.62803595-33.83060018 3.0378498-4.69485881 7.45654045-7.7327086 12.42756741-9.3897176z" fill="#C1E6EA" p-id="95886"></path><path d="M504.7658067 512.23551069a24.44088257 24.44088257 0 1 0 27.23665026-40.59053818 24.44088257 24.44088257 0 1 0-27.23665026 40.59053818Z" fill="#D7F7FF" p-id="95887"></path><path d="M518.52015777 467.53692549c4.69485881 0 9.3897176 1.38084082 13.53224006 4.14252248 11.18481067 7.45654045 14.22266047 22.64578949 6.62803595 33.83060017-4.69485881 7.04228819-12.42756741 10.77055842-20.29836009 10.77055841-4.69485881 0-9.3897176-1.38084082-13.53224007-4.14252246-11.18481067-7.45654045-14.22266047-22.64578949-6.62803596-33.83060018 4.69485881-7.04228819 12.42756741-10.77055842 20.29836011-10.77055842m0-32.03550709c-18.7794352 0-36.31611363 9.3897176-46.8105039 24.9932189-8.42312903 12.56565149-11.46097883 27.47873238-8.56121311 42.25372919 2.89976573 14.7749968 11.46097883 27.47873238 23.88854624 35.90186139 9.3897176 6.2137837 20.16027601 9.52780169 31.34508669 9.52780169 18.7794352 0 36.31611363-9.3897176 46.81050389-24.9932189 17.26051028-25.8217234 10.35630617-60.8950803-15.46541722-78.29367467-9.25163351-6.07569962-20.02219194-9.3897176-31.20700259-9.3897176z" fill="#4C466D" p-id="95888"></path><path d="M510.64936507 468.91776631c-1.24275675 1.24275675-2.48551348 2.62359757-3.59018613 4.14252249-7.45654045 11.18481067-4.55677472 26.37405971 6.62803594 33.83060015 6.48995186 4.41869063 14.36074457 5.10911105 21.40303277 2.76168165-8.14696086 7.59462453-20.71261235 8.97546534-30.24041403 2.48551349-11.18481067-7.45654045-14.22266047-22.64578949-6.62803596-33.83060018 3.0378498-4.69485881 7.59462453-7.7327086 12.42756741-9.3897176z" fill="#C1E6EA" p-id="95889"></path><path d="M172.4814475 331.80027259c-0.13808409 13.9464923-20.16027601 79.67451549-47.08667207 79.53643141 26.92639605 0.13808409 46.12008349 61.86166887 45.98199942 80.08876773 0.13808409-18.36518295 22.23153725-79.67451549 47.08667206-79.5364314-24.85513482-0.13808409-45.98199941-63.79484603-45.98199941-80.08876774z" fill="#FFFFFF" p-id="95890"></path><path d="M171.37677485 507.44322528c-8.83738127 0-16.01775355-7.18037229-16.01775355-16.01775355v-0.13808408c0-6.2137837-4.00443838-24.02663031-11.32289475-40.04438386-8.97546534-19.46985561-16.70817396-23.88854624-18.77943519-23.88854624-8.83738127 0-15.87966947-7.18037229-15.87966946-16.01775355v-0.13808409c0-8.83738127 7.18037229-15.87966947 16.01775353-15.87966946h0.1380841c10.49439025 0 30.79275037-48.19134474 30.93083443-63.65676194 0-8.83738127 7.18037229-15.87966947 16.01775354-15.87966946h0.13808409c8.5612131 0 15.46541722 6.76612003 15.87966946 15.18924905v0.82850449c-0.13808409 14.7749968 19.19368743 61.7235848 30.24041403 64.07101419h1.10467265c8.28504494 0.55233633 14.7749968 7.59462453 14.77499681 16.01775355 0 8.83738127-7.31845635 15.87966947-16.01775354 15.87966946h-0.13808409c-10.49439025 1.38084082-30.79275037 46.25816757-30.93083443 63.65676194-0.13808409 8.97546534-7.31845635 16.01775355-16.15583763 16.01775355zM156.46369396 411.19861991c5.24719513 5.93761554 10.63247434 13.9464923 15.74158539 24.57896666 4.55677472-8.97546534 9.94205392-17.39859437 16.15583763-24.30279848-6.2137837-7.18037229-11.59906291-16.15583763-16.01775356-25.40747115-4.97102697 10.35630617-10.21822208 18.64135111-15.87966946 25.13130297zM480.68511921 239.14585337c-3.31401797 0-6.76612003-1.10467265-9.66588576-3.31401797l-34.10676833-25.8217234c-7.04228819-5.3852792-8.42312903-15.32733314-3.0378498-22.36962133 5.3852792-7.04228819 15.32733314-8.42312903 22.36962133-3.03784981l34.10676833 25.82172339c7.04228819 5.3852792 8.42312903 15.32733314 3.0378498 22.36962133-3.1759339 4.14252247-7.87079269 6.35186779-12.70373557 6.35186779zM535.64258397 236.93650805c-4.83294288 0-9.66588576-2.20934532-12.70373558-6.35186778-5.3852792-7.04228819-4.00443838-17.12242621 3.03784983-22.36962134l31.20700259-23.75046216c7.04228819-5.3852792 17.12242621-4.00443838 22.36962133 3.03784981 5.3852792 7.04228819 4.00443838 17.12242621-3.03784981 22.36962133l-31.2070026 23.75046217c-2.89976573 2.3474294-6.35186779 3.31401797-9.66588576 3.31401797z" fill="#4C466D" p-id="95891"></path><path d="M526.11478228 649.11749373c-185.17075437 0-345.90062617-17.81284661-427.37023473-44.04882226 23.06004175 33.96868425 205.60719855 60.34274397 427.37023473 60.34274396s404.17210891-26.51214381 427.37023475-60.34274396c-81.46960857 26.09789155-242.19948035 44.04882225-427.37023475 44.04882226z" fill="#38C9F1" p-id="95892"></path><path d="M206.0358795 826.41745541c-68.07545259 0-121.51399243-10.08013802-152.72099502-30.51658219-19.33177153-12.70373557-30.5165822-29.13574137-33.00209567-48.74368106-6.62803595-50.81494228 11.737147-87.68339227 63.2425097-127.17543981 7.04228819-5.3852792 17.12242621-4.00443838 22.36962133 3.03784982 5.3852792 7.04228819 4.00443838 17.12242621-2.89976574 22.36962133-48.19134474 36.86844997-55.23363292 64.7614346-50.95302637 97.62544619 1.38084082 10.08013802 7.45654045 18.64135111 18.77943521 26.09789156 65.45185502 42.9441496 266.0880266 29.82616178 477.21858844-31.20700259C822.71939108 658.64529541 977.64973142 540.99765728 968.81235017 473.19837287c-5.5233633-42.1156451-75.11774077-62.55208928-191.24645401-56.33830557-8.5612131 0.55233633-16.43200579-6.2137837-16.84625803-15.05116499-0.41425225-8.83738127 6.2137837-16.43200579 15.05116497-16.84625802 175.5048686-9.52780169 219.00135453 40.45863612 224.6628019 84.09320611 12.70373557 97.34927803-169.84342124 220.52027943-443.66415643 299.6424586-131.73221452 38.11120672-255.59363635 57.7191464-350.73356907 57.71914641z" fill="#4C466D" p-id="95893"></path><path d="M101.50622921 697.58500661c0.69042042 15.05116498-17.26051028 86.99297185-45.98199942 88.23572859 28.72148912-1.24275675 52.3338672 64.34718237 53.1623717 84.09320613-0.8285045-19.74602377 19.46985561-87.13105594 45.9819994-88.23572858-26.65022788 1.10467265-52.47195126-66.55652767-53.16237168-84.09320614z" fill="#FFFFFF" p-id="95894"></path><path d="M108.68660149 885.93169488c-8.5612131 0-15.6035013-6.76612003-16.01775354-15.32733313-0.27616816-7.04228819-5.3852792-25.95980747-14.36074457-43.35840185-9.66588576-18.7794352-18.36518295-25.54555523-21.9553691-25.54555522h-0.13808406c-8.97546534 0.41425225-16.29392172-6.48995186-16.70817397-15.32733314v-0.69042041c0-8.5612131 6.76612003-15.6035013 15.32733314-16.01775355 2.76168163-0.13808409 11.18481067-7.31845635 19.74602377-28.8595732 7.87079269-19.88410785 11.04672658-38.80162713 10.77055841-42.66798143-0.41425225-8.83738127 6.48995186-16.29392172 15.32733314-16.70817397 8.69929718-0.41425225 16.29392172 6.48995186 16.70817396 15.32733315 0.69042042 18.08901478 25.54555523 68.07545259 36.45419772 68.76587298h0.69042042c8.5612131 0 15.6035013 6.76612003 16.01775356 15.32733314 0.41425225 8.83738127-6.48995186 16.29392172-15.32733315 16.70817396-10.35630617 0.69042042-31.48317076 50.12452187-30.65466627 71.52755462v0.69042042c0 8.5612131-6.76612003 15.6035013-15.32733314 16.01775356-0.13808409 0.13808409-0.41425225 0.13808409-0.55233632 0.13808407z m-21.67920092-101.76796866c6.48995186 6.35186779 13.11798782 15.46541722 19.60793968 28.03106871 4.69485881-10.90864251 10.35630617-21.26494868 17.39859436-29.54999361-7.7327086-8.00887677-14.36074457-18.22709886-19.88410784-28.99765729-5.24719513 12.70373557-10.90864251 22.92195766-17.1224262 30.51658219z" fill="#4C466D" p-id="95895"></path><path d="M667.39583697 508.22193527a23.06004175 23.06004175 0 1 0 32.4777918-32.7453076 23.06004175 23.06004175 0 1 0-32.4777918 32.7453076Z" fill="#F7554A" p-id="95896"></path><path d="M683.6687202 468.91776631c5.79953147 0 11.737147 2.20934532 16.15583763 6.62803596 8.97546534 8.97546534 9.11354943 23.47429398 0.13808409 32.58784342-4.55677472 4.55677472-10.35630617 6.76612003-16.29392172 6.76612004-5.79953147 0-11.737147-2.20934532-16.15583763-6.62803595-8.97546534-8.97546534-9.11354943-23.47429398-0.13808407-32.58784341 4.55677472-4.55677472 10.35630617-6.76612003 16.2939217-6.76612006m0-32.03550708c-14.7749968 0-28.72148912 5.79953147-39.07779529 16.29392171-10.35630617 10.49439025-16.01775355 24.30279849-16.01775355 38.93971121 0 14.63691274 5.79953147 28.44532095 16.29392171 38.80162711 10.35630617 10.35630617 24.1647144 16.01775355 38.80162713 16.01775356 14.7749968 0 28.58340503-5.79953147 39.0777953-16.29392171 21.40303275-21.54111683 21.26494868-56.47638966-0.27616818-77.74133834-10.35630617-10.35630617-24.1647144-16.01775355-38.80162712-16.01775354z" fill="#4C466D" p-id="95897"></path><path d="M491.22040306 250.51079748a23.06004175 23.06004175 0 1 0 32.47779181-32.74530761 23.06004175 23.06004175 0 1 0-32.47779181 32.74530761Z" fill="#F7554A" p-id="95898"></path><path d="M507.47343118 211.11478465c5.79953147 0 11.737147 2.20934532 16.15583763 6.62803595 8.97546534 8.97546534 9.11354943 23.47429398 0.13808408 32.58784343-4.55677472 4.55677472-10.35630617 6.76612003-16.29392171 6.76612003-5.79953147 0-11.737147-2.20934532-16.15583763-6.62803594-8.97546534-8.97546534-9.11354943-23.47429398-0.13808408-32.58784343 4.41869063-4.41869063 10.35630617-6.76612003 16.29392171-6.76612004m0-31.89742302c-14.7749968 0-28.72148912 5.79953147-39.0777953 16.29392173-10.35630617 10.49439025-16.01775355 24.30279849-16.01775354 38.93971121 0 14.63691274 5.79953147 28.44532095 16.29392171 38.80162712 10.35630617 10.35630617 24.1647144 16.01775355 38.80162713 16.01775356 14.7749968 0 28.58340503-5.79953147 39.07779529-16.29392172 10.35630617-10.49439025 16.01775355-24.30279849 16.01775354-38.93971122 0-14.63691274-5.79953147-28.44532095-16.2939217-38.80162711-10.49439025-10.35630617-24.1647144-16.01775355-38.80162713-16.01775357z" fill="#4C466D" p-id="95899"></path><path d="M915.92614663 288.57995483c-0.27616816 17.81284661-25.95980747 101.4918005-59.92849172 100.93946417 33.96868425 0.41425225 57.44297824 79.12217917 57.16681008 102.59647315 0.27616816-23.33620992 28.58340503-101.35371642 59.92849172-100.93946416-31.34508668-0.41425225-57.44297824-81.74577674-57.16681008-102.59647316z" fill="#FFFFFF" p-id="95900"></path><path d="M913.16446499 508.13364569h-0.27616816c-8.69929718-0.13808409-15.74158539-7.31845635-15.7415854-16.01775354v-0.27616816c0.27616816-22.92195766-22.92195766-86.16446736-41.2871406-86.30255146-8.69929718-0.13808409-15.74158539-7.31845635-15.74158538-16.01775353v-0.27616817c0.13808409-8.83738127 7.59462453-15.87966947 16.15583763-15.74158538h0.13808409c18.22709886 0 43.35840185-67.38503216 43.63457-85.19787878 0.13808409-8.83738127 7.18037229-15.87966947 16.15583764-15.74158539 8.83738127 0.13808409 15.87966947 7.31845635 15.74158537 16.15583763-0.27616816 21.95536909 26.09789155 86.16446736 41.28714062 86.30255146 8.69929718 0.13808409 15.74158539 7.31845635 15.74158537 16.01775353v0.27616816c-0.13808409 8.83738127-7.18037229 15.87966947-16.15583763 15.74158539h-0.13808408c-15.74158539 0-43.35840185 62.69017337-43.63457001 85.19787878 0 8.83738127-7.18037229 15.87966947-15.87966946 15.87966946z m-24.02663032-118.33805852c10.49439025 10.90864251 18.91751926 26.23597565 25.13130297 41.83947693 7.04228819-15.46541722 16.01775355-30.5165822 26.6502279-41.14905653-10.35630617-11.18481067-18.91751926-26.65022788-25.54555523-42.39181326-6.62803595 15.46541722-15.46541722 30.79275037-26.23597564 41.70139286z" fill="#4C466D" p-id="95901"></path></svg>