<?xml version="1.0" standalone="no"?><!DOCTYPE svg PUBLIC "-//W3C//DTD SVG 1.1//EN" "http://www.w3.org/Graphics/SVG/1.1/DTD/svg11.dtd"><svg t="1649684744180" class="icon" viewBox="0 0 1024 1024" version="1.1" xmlns="http://www.w3.org/2000/svg" p-id="1477" xmlns:xlink="http://www.w3.org/1999/xlink" width="200" height="200"><defs><style type="text/css">@font-face { font-family: "feedback-iconfont"; src: url("//at.alicdn.com/t/font_1031158_u69w8yhxdu.woff2?t=1630033759944") format("woff2"), url("//at.alicdn.com/t/font_1031158_u69w8yhxdu.woff?t=1630033759944") format("woff"), url("//at.alicdn.com/t/font_1031158_u69w8yhxdu.ttf?t=1630033759944") format("truetype"); }
</style></defs><path d="M514.6368 509.7984m-468.77184 0a468.77184 468.77184 0 1 0 937.54368 0 468.77184 468.77184 0 1 0-937.54368 0Z" fill="#FFC700" p-id="1478"></path><path d="M514.6368 988.31872c-263.85408 0-478.5152-214.66112-478.5152-478.5152 0-263.8592 214.66112-478.52544 478.5152-478.52544s478.5152 214.66112 478.5152 478.52544c0 263.84896-214.66624 478.5152-478.5152 478.5152z m0-937.54368c-253.1072 0-459.01824 205.91616-459.01824 459.02848 0 253.1072 205.91616 459.01824 459.01824 459.01824s459.01824-205.91616 459.01824-459.01824c0-253.11232-205.91616-459.02848-459.01824-459.02848z" fill="#6C0000" p-id="1479"></path><path d="M514.6368 978.57024c70.94784 0 141.77792-16.9984 200.55552-48.72192l-4.20352-64.70144s-9.81504-108.34432-100.32128-133.46304c-1.40288-0.384-24.064 21.27872-65.03424 19.32288l-26.2912-7.2448c-2.70336 0.10752-5.62176 3.5072-8.30464 3.62496-2.67776-0.11776-12.5184-11.97056-15.22176-12.07808l-13.83936 6.0416c-40.97536 1.95072-65.01888-11.13088-66.42176-10.74688-90.50624 25.1136-97.28 134.54336-97.28 134.54336l-0.19968 68.53632c58.78272 31.72864 125.61408 44.88704 196.56192 44.88704z" fill="#ECF3FE" p-id="1480"></path><path d="M514.6368 988.31872c-76.88192 0-144.57856-15.49824-201.1904-46.06464l-5.13024-2.76992 0.21504-74.368c0.31744-5.31968 8.33536-117.248 104.4224-143.90272l2.688-0.36352c2.13504 0 3.68128 0.5888 6.48704 1.64864 7.23456 2.73408 27.24352 10.3424 57.6256 9.1904l14.22848-6.21056 2.23744 0.08704c5.03808 0.2048 8.59136 3.6096 13.98272 8.7552 0.63488 0.60416 1.25952 1.21344 1.85344 1.792 2.0992-1.13664 4.29056-1.98144 6.89152-2.09408l1.51552-0.06144 26.69568 7.36256c29.96224 1.18784 48.56832-11.49952 55.3728-16.13312 2.688-1.8176 4.80768-3.2512 8.09984-3.2512l2.59584 0.34304c95.94368 26.63424 107.04384 137.2928 107.47392 141.99296l4.62336 71.18848-5.49376 2.96448c-59.6224 32.17408-132.49024 49.8944-205.19424 49.8944z m-186.79296-60.50816c52.69504 27.21792 115.50208 41.0112 186.79296 41.0112 67.3024 0 134.64576-15.81568 190.42816-44.6464l-3.7888-58.39872c-0.07168-0.74752-10.08128-98.44224-89.18528-123.52-8.78592 5.89312-31.84128 20.224-66.90816 18.47808l-2.13504-0.3328-23.02976-6.35392c-2.63168 1.57696-5.26848 2.9184-8.54016 3.06688-5.85216-0.22016-9.38496-3.59936-14.73024-8.70912-0.70656-0.6656-1.39776-1.34656-2.06336-1.97632l-12.2368 4.63872c-34.98496 1.73568-58.50624-7.06048-67.02592-10.28608-80.01536 24.38144-87.3472 123.9552-87.41888 124.96896l-0.15872 62.05952z" fill="#6C0000" p-id="1481"></path><path d="M594.09408 917.0688c0 3.43552-2.78016 6.21568-6.21056 6.2208l-146.42176 0.09216a6.2208 6.2208 0 0 1-6.2208-6.21056l-0.06144-99.11296c0-3.43552 2.78016-6.21568 6.21056-6.2208l146.42176-0.09216c3.43552 0 6.21568 2.78016 6.2208 6.21056l0.06144 99.11296z" fill="#9DEDDC" p-id="1482"></path><path d="M441.472 931.49696h-0.01024a14.37184 14.37184 0 0 1-14.34624-14.31552l-0.06144-99.1232a14.35648 14.35648 0 0 1 14.34112-14.34624l146.4064-0.08704a14.37696 14.37696 0 0 1 14.35648 14.31552l0.06144 99.11296a14.37696 14.37696 0 0 1-14.32576 14.35648l-146.42176 0.08704z m1.82272-111.5392l0.06144 95.29856 142.6176-0.08704-0.06144-95.29856-142.6176 0.08704z" fill="#6B0204" p-id="1483"></path><path d="M466.5856 840.07936h41.63584v16.69632H466.5856zM520.99584 840.04864h41.63584v16.69632h-41.63584zM466.60608 869.30944h96.0512v25.74848h-96.0512z" fill="#FFEC43" p-id="1484"></path><path d="M372.43904 729.5488l302.35136-5.54496c70.9632-52.38272 118.49728-138.29632 125.60896-228.13696 0.75264-9.53344 1.05472-19.11296 0.88064-28.70272-2.82112-153.87136-133.44256-276.2496-291.75808-273.34656-158.3104 2.90304-284.35968 129.99168-281.53856 283.85792 1.83296 99.93216 60.32896 196.9152 144.45568 251.87328z" fill="#ECF3FE" p-id="1485"></path><path d="M369.62304 739.3536l-2.51392-1.64352c-88.60672-57.8816-147.03616-159.87712-148.87424-259.84512-2.90304-159.0016 127.68256-290.79552 291.11296-293.79072l5.69344-0.04608c160.34304 0 293.12512 126.93504 295.9872 282.96704a306.12992 306.12992 0 0 1-0.91136 29.65504c-7.35232 92.83584-55.77216 180.75648-129.53088 235.20256l-2.50368 1.83808-308.45952 5.66272z m145.41824-535.84384l-5.32992 0.05632c-152.68864 2.80064-274.69312 125.68576-271.97952 273.94048 1.69472 92.76928 55.58784 187.52512 137.55904 242.23744l296.19712-5.4272c67.88096-51.26656 112.37376-132.98176 119.20384-219.22304 0.73216-9.18528 1.024-18.5088 0.84992-27.7504-2.67264-145.46944-126.70976-263.8336-276.50048-263.8336z" fill="#6C0000" p-id="1486"></path><path d="M382.46912 712.28416l273.11104 0.41472c60.40064-49.13664 103.56736-132.6592 102.12352-211.456-2.35008-128.3072-113.08544-230.3232-247.32672-227.86048-134.24128 2.4576-241.16224 108.4672-238.80704 236.7744 1.44384 78.75584 45.824 155.28448 110.8992 202.12736z" fill="#BED5E9" p-id="1487"></path><path d="M659.03616 722.44224l-279.71584-0.41984-2.54464-1.83296c-69.44256-49.98144-113.49504-130.39616-114.95424-209.84832-2.44736-133.47328 108.97408-244.15232 248.3712-246.71232l4.93568-0.04096c136.73472 0 249.92256 106.53184 252.31872 237.48096 1.44384 78.49472-41.04192 166.5792-105.72288 219.18208l-2.688 2.19136z m-273.3824-19.89632l266.42944 0.40448c58.7776-49.2544 97.19808-129.78688 95.872-201.5232-2.19648-120.40192-106.6496-218.35264-232.82688-218.35264l-4.56704 0.04608c-128.66048 2.36544-231.49568 104.13056-229.24288 226.85696 1.32608 72.48384 41.22624 145.98656 104.33536 192.56832z" fill="#6C0000" p-id="1488"></path><path d="M676.92032 733.31712c0 15.67232-6.05696 28.38016-13.52192 28.38016H365.8752c-7.47008 0-13.52192-12.70784-13.52192-28.38016s6.05696-28.38016 13.52192-28.38016h297.5232c7.46496 0 13.52192 12.70784 13.52192 28.38016z" fill="#FFC700" p-id="1489"></path><path d="M663.3984 771.45088H365.87008c-13.48096 0-23.2704-16.03584-23.2704-38.13376 0-22.08768 9.78944-38.12352 23.2704-38.12352h297.52832c13.48096 0 23.2704 16.03584 23.2704 38.12352 0 22.09792-9.78944 38.13376-23.2704 38.13376z m-1.31072-57.07264l-296.2176 0.3072c0 0.57856-3.77344 6.9632-3.77344 18.63168 0 11.6736 3.77344 18.05824 5.08416 18.94912l295.26016-0.3072c1.52064-1.60768 4.736-7.8848 4.736-18.6368-0.00512-11.6736-3.7888-18.05824-5.08928-18.944z" fill="#6C0000" p-id="1490"></path><path d="M563.48672 432.00512c5.00224-5.71904 13.06624-6.85056 18.00704-2.52928l47.19104 41.27744c4.9408 4.32128 4.89472 12.4672-0.10752 18.18624s-13.06624 6.85056-18.00704 2.52928l-47.19104-41.27744c-4.94592-4.3264-4.89472-12.4672 0.10752-18.18624zM595.33312 381.85472c5.00224-5.71904 14.92992-5.2224 22.17472 1.11104l69.1456 60.47744c7.2448 6.33344 9.05728 16.10752 4.05504 21.82656-5.00224 5.71904-14.92992 5.2224-22.17472-1.11104l-69.1456-60.47744c-7.2448-6.33344-9.05728-16.10752-4.05504-21.82656z" fill="#6C0000" p-id="1491"></path></svg>