<?xml version="1.0" standalone="no"?><!DOCTYPE svg PUBLIC "-//W3C//DTD SVG 1.1//EN" "http://www.w3.org/Graphics/SVG/1.1/DTD/svg11.dtd"><svg t="1649682082482" class="icon" viewBox="0 0 1024 1024" version="1.1" xmlns="http://www.w3.org/2000/svg" p-id="168500" xmlns:xlink="http://www.w3.org/1999/xlink" width="200" height="200"><defs><style type="text/css">@font-face { font-family: "feedback-iconfont"; src: url("//at.alicdn.com/t/font_1031158_u69w8yhxdu.woff2?t=1630033759944") format("woff2"), url("//at.alicdn.com/t/font_1031158_u69w8yhxdu.woff?t=1630033759944") format("woff"), url("//at.alicdn.com/t/font_1031158_u69w8yhxdu.ttf?t=1630033759944") format("truetype"); }
</style></defs><path d="M512 512m-511.862 0a511.862 511.862 0 1 0 1023.724 0 511.862 511.862 0 1 0-1023.724 0Z" fill="#323653" p-id="168501"></path><path d="M997.032 675.544a518.85 518.85 0 0 0 12.682-44.074L671.158 306.674l-63.636 85.166-140.768-161.72-44.388 268.088-203.876 220.834 275.114 304.584c220.532 8.016 429.318-128.294 503.428-348.082z" opacity=".1" p-id="168502"></path><path d="M694.91 284.8c2.612 9.77-2.68 20.082-11.798 23.04-9.13 2.948-18.638-2.59-21.248-12.366-2.606-9.776 2.676-20.094 11.79-23.032 9.128-2.948 18.644 2.59 21.256 12.358z" fill="#F2F2F2" p-id="168503"></path><path d="M667.298 248.61l7.56 42.662 14.616 40.39-7.564-42.664z" fill="#F2F2F2" p-id="168504"></path><path d="M639.614 302.658l39.772-8.738 37.758-16.302-39.772 8.748zM543.7 918.81c1.26 4.708-1.29 9.664-5.676 11.086-4.392 1.424-8.972-1.238-10.23-5.948-1.258-4.708 1.29-9.672 5.678-11.09 4.392-1.422 8.974 1.246 10.228 5.952z" fill="#F2F2F2" p-id="168505"></path><path d="M530.404 901.394l3.644 20.536 7.034 19.438-3.636-20.536z" fill="#F2F2F2" p-id="168506"></path><path d="M517.084 927.408l19.152-4.212 18.17-7.84-19.146 4.204z" fill="#F2F2F2" p-id="168507"></path><path d="M904.26 753.028c1.262 4.708-1.288 9.664-5.674 11.086-4.392 1.424-8.972-1.238-10.23-5.948-1.258-4.708 1.29-9.672 5.678-11.09 4.392-1.424 8.974 1.244 10.226 5.952z" fill="#F2F2F2" p-id="168508"></path><path d="M890.966 735.612l3.646 20.534 7.032 19.438-3.636-20.536z" fill="#F2F2F2" p-id="168509"></path><path d="M877.646 761.626l19.15-4.214 18.172-7.84-19.146 4.206z" fill="#F2F2F2" p-id="168510"></path><path d="M135.574 316.12c1.872 7.018-1.92 14.424-8.47 16.542s-13.384-1.858-15.256-8.874c-1.876-7.022 1.92-14.43 8.468-16.542 6.552-2.12 13.382 1.854 15.258 8.874z" fill="#F2F2F2" p-id="168511"></path><path d="M115.75 290.136l5.426 30.638 10.49 28.996-5.424-30.636z" fill="#F2F2F2" p-id="168512"></path><path d="M95.87 328.94l28.562-6.274 27.112-11.706-28.562 6.28z" fill="#F2F2F2" p-id="168513"></path><path d="M313.986 861.914c1.872 7.016-1.92 14.424-8.47 16.542-6.55 2.118-13.384-1.86-15.254-8.874-1.876-7.024 1.92-14.432 8.466-16.542 6.554-2.118 13.384 1.854 15.258 8.874z" fill="#F2F2F2" p-id="168514"></path><path d="M294.164 835.932l5.424 30.636 10.492 28.996-5.424-30.636z" fill="#F2F2F2" p-id="168515"></path><path d="M274.282 874.734l28.562-6.274 27.114-11.704-28.562 6.28z" fill="#F2F2F2" p-id="168516"></path><path d="M733.458 919.864c-2.376-14.126 11.204-27.6 25.58-41.864 14.844-14.728 30.19-29.958 28.13-47.916-1.456-12.684-11.466-24.596-30.61-36.414-28.28-17.46-43.06-35.17-45.192-54.14-3.41-30.372 26.74-60.004 53.34-86.148 22.634-22.242 42.18-41.454 39.62-59.376-1.218-8.538-7.12-15.538-18.036-21.402-40.648-21.844-85.276 34.512-132.518 94.178-53.956 68.146-109.746 138.614-164.948 110.048-43.69-22.61-68.422-58.082-73.508-105.43-3.838-35.718 5.516-65.2 5.612-65.492l-9.508-3.088c-0.414 1.268-10.056 31.512-6.084 69.282 3.694 35.114 20.378 83.326 78.894 113.61 62.516 32.35 123.542-44.724 177.382-112.722 44.566-56.292 86.658-109.458 119.948-91.58 7.92 4.258 12.13 8.84 12.87 14.01 1.846 12.922-16.892 31.338-36.73 50.834-28.226 27.74-60.22 59.186-56.266 94.392 2.494 22.224 18.808 42.352 49.874 61.532 16.136 9.962 24.862 19.736 25.93 29.046 1.508 13.14-11.486 26.032-25.242 39.68-15.55 15.43-31.63 31.386-28.394 50.62 2.264 13.458 13.628 26.024 35.286 38.84 3.4-1.874 6.782-3.788 10.138-5.736-21.734-12.058-33.708-23.724-35.568-34.764z" fill="#E3E3E2" p-id="168517"></path><path d="M489.234 354.82l166.606 132.832-169.33 212.38-166.606-132.832z" fill="#82713A" p-id="168518"></path><path d="M606.536 371.762m-91.724 0a91.724 91.724 0 1 0 183.448 0 91.724 91.724 0 1 0-183.448 0Z" fill="#E6E6E6" p-id="168519"></path><path d="M606.534 371.762m-78.724 0a78.724 78.724 0 1 0 157.448 0 78.724 78.724 0 1 0-157.448 0Z" fill="#2697C7" p-id="168520"></path><path d="M606.536 371.762m-70.362 0a70.362 70.362 0 1 0 140.724 0 70.362 70.362 0 1 0-140.724 0Z" fill="#6CB4E3" p-id="168521"></path><path d="M642.754 321.34c-24.174-19.274-58.874-16.356-79.56 5.946a9.886 9.886 0 0 0-0.922 0.99 9.832 9.832 0 0 0 15.376 12.258l0.054 0.044c13.758-14.73 36.752-16.63 52.782-3.85l0.012-0.012a9.832 9.832 0 0 0 12.258-15.376z" fill="#FFFFFF" p-id="168522"></path><path d="M499.59 645.126c-5.768 7.238-18.146 6.964-27.642-0.608l-97.972-78.116c-9.498-7.57-12.52-19.576-6.75-26.812l107.942-135.382c5.77-7.236 18.146-6.964 27.644 0.61l97.972 78.114c9.496 7.572 12.52 19.578 6.75 26.814l-107.944 135.38z" fill="#E6E6E6" p-id="168523"></path><path d="M524.384 411.432l65.144 51.938-34.07 42.732-65.144-51.94zM789.934 502.978l-4.936-14.314c-3.958-11.482-15.07-18.068-24.814-14.708l-22.802 7.864-1.644-8.334a8.34 8.34 0 0 0-9.796-6.566 8.34 8.34 0 0 0-6.564 9.796l1.84 9.314c0.086 0.432 0.23 0.834 0.376 1.234l-80.54 27.772-33.318-26.568c-9.5-7.572-23.338-6.012-30.91 3.486l-5.642 7.078c-7.572 9.498-6.012 23.336 3.484 30.908l51.07 40.716c0.414 0.33 0.844 0.62 1.274 0.916 5.134 4.742 11.968 6.724 18.25 4.556l134.202-46.276c9.74-3.358 14.43-15.39 10.47-26.874z" fill="#E6E6E6" p-id="168524"></path><path d="M649.752 512.036l-8.702 3.002-4.208-3.36-10.454 59.452c0.208 0.146 0.41 0.302 0.62 0.446 5.134 4.742 11.968 6.724 18.25 4.556l9.052-3.124-4.558-60.972z" fill="#CBAE5E" p-id="168525"></path><path d="M441.136 224.878l15.054 1.624c12.076 1.304 20.97 10.666 19.864 20.916l-2.586 23.982 8.49-0.252a8.34 8.34 0 0 1 0.496 16.668l-9.49 0.282a8.294 8.294 0 0 1-1.288-0.092l-9.136 84.702 33.32 26.566c9.498 7.574 11.058 21.41 3.486 30.91l-5.644 7.078c-7.572 9.496-21.41 11.058-30.908 3.486l-51.07-40.718c-0.414-0.33-0.792-0.686-1.176-1.038-5.768-3.95-9.22-10.17-8.506-16.776l15.224-141.138c1.108-10.248 11.794-17.502 23.87-16.2z" fill="#E6E6E6" p-id="168526"></path><path d="M463.528 363.558l-0.988 9.15 4.212 3.358-55.63 23.43c-0.19-0.168-0.386-0.334-0.572-0.504-5.768-3.95-9.22-10.17-8.506-16.776l1.026-9.522 60.458-9.136z" fill="#CBAE5E" p-id="168527"></path><path d="M546.68 447.14l3.126 2.496-123.438 154.752-3.126-2.494z" fill="#808080" p-id="168528"></path><path d="M354.22 809.18c-14.07-10.916-20.596-26.048-14.582-33.806l113.902-146.828c6.018-7.758 22.298-5.198 36.374 5.714l10.484 8.136c14.072 10.912 20.598 26.046 14.584 33.806l-113.904 146.828c-6.014 7.76-22.298 5.198-36.37-5.716l-10.488-8.134z" fill="#E6E6E6" p-id="168529"></path><path d="M339.638 775.374l113.902-146.828c6.018-7.758 22.298-5.198 36.374 5.714l10.484 8.136c8.676 6.726 14.468 15.056 16.238 22.274 0.684-8.16-5.68-19.332-16.738-27.906l-10.486-8.134c-14.07-10.916-30.354-13.472-36.372-5.716l-113.9 146.83c-2.308 2.974-2.754 7.038-1.654 11.53 0.184-2.226 0.864-4.238 2.152-5.9z" fill="#C2C3C4" p-id="168530"></path><path d="M252.604 702.342c-14.104-10.872-20.676-25.986-14.684-33.762l113.452-147.176c5.994-7.776 22.284-5.266 36.388 5.608l10.51 8.104c14.102 10.868 20.676 25.984 14.682 33.76l-113.454 147.178c-5.99 7.776-22.282 5.262-36.384-5.61l-10.51-8.102z" fill="#E6E6E6" p-id="168531"></path><path d="M413.958 569.71c5.994-7.778-0.578-22.892-14.682-33.76l-10.508-8.106c-10.44-8.046-22.064-11.498-29.838-9.604 5.892 1.426 12.37 4.546 18.444 9.232l10.51 8.102c14.104 10.872 20.676 25.986 14.68 33.764l-113.45 147.176c-1.558 2.018-3.824 3.33-6.548 3.994 7.78 1.886 14.53 0.802 17.94-3.624l113.452-147.174z" fill="#C2C3C4" p-id="168532"></path><path d="M422.364 498.208a8.656 8.656 0 0 1-12.166 1.37 8.656 8.656 0 0 1-1.372-12.164l76.236-95.616a8.658 8.658 0 0 1 13.538 10.794l-76.236 95.616zM541.562 593.244a8.656 8.656 0 1 1-13.538-10.794l76.234-95.614a8.658 8.658 0 0 1 13.538 10.792l-76.234 95.616z" fill="#F27894" p-id="168533"></path><path d="M283.392 742.658c-7.572 9.5-21.41 11.058-30.91 3.486l-33.994-27.104c-9.498-7.572-11.058-21.41-3.486-30.908l4.054-5.088c7.572-9.494 21.412-11.056 30.91-3.484l33.994 27.104c9.5 7.572 11.058 21.412 3.486 30.908l-4.054 5.086zM383.36 847.926c-7.572 9.498-21.41 11.058-30.908 3.486l-33.994-27.104c-9.498-7.572-11.058-21.41-3.486-30.908l4.056-5.088c7.572-9.496 21.412-11.058 30.908-3.486l33.994 27.104c9.498 7.572 11.058 21.412 3.486 30.91l-4.056 5.086z" fill="#D1D1D2" p-id="168534"></path><path d="M338.5 538.112l54.734 43.638-6.868 8.612-54.732-43.638zM437.58 646.932l61.916 49.364-6.868 8.616-61.916-49.364z" fill="#CBAE5E" p-id="168535"></path><path d="M401.386 588.258l48.344 38.544-9.768 12.252-48.346-38.544z" fill="#F27894" p-id="168536"></path><path d="M476.974 432.86l10.63 8.478-7.48 9.378-10.63-8.478z" fill="#FBB03B" p-id="168537"></path><path d="M490.17 443.404l10.63 8.48-7.478 9.376-10.63-8.48z" fill="#22B573" p-id="168538"></path><path d="M504.168 454.592l10.63 8.48-7.48 9.38-10.63-8.48z" fill="#2697C7" p-id="168539"></path></svg>