<svg xmlns="http://www.w3.org/2000/svg" viewBox="0 0 321.44 361.16"><defs><style>.cls-1{fill:#e2eefc;}.cls-2{fill:#151c42;}.cls-3{fill:#73aad8;}.cls-4{fill:#bbd8ef;}.cls-5{fill:#f5fbff;}.cls-6{fill:#92a9e5;}.cls-7{fill:#222551;}.cls-8{fill:#fff;}.cls-9{fill:#fbcfd4;}.cls-10{fill:#f89594;}</style></defs><g id="图层_2" data-name="图层 2"><g id="幽灵"><path class="cls-1" d="M51.88,112.16v70C22.43,167.26-1.34,132.7,4.36,98.57a27.38,27.38,0,0,1,2.1-6.83C10.6,82.63,19.59,75.82,30.05,80.3c9.12,3.89,15.78,14,19.46,23.83A57.1,57.1,0,0,1,51.88,112.16Z"/><path class="cls-2" d="M55.38,187.85l-5.08-2.57a96.37,96.37,0,0,1-38.36-35.9C1.89,132.72-1.92,115,.91,98a30.7,30.7,0,0,1,2.37-7.71C7.9,80.1,18.69,71.62,31.43,77.08,44,82.43,50.55,96.92,52.79,102.9a59.83,59.83,0,0,1,2.51,8.52l.08.36ZM23.63,82.47c-5.06,0-10.51,3.06-14,10.71a23.75,23.75,0,0,0-1.84,6C2.5,131,24,161.49,48.38,176.21V112.53a53.72,53.72,0,0,0-2.14-7.17c-4-10.7-10.57-18.86-17.56-21.85A12.89,12.89,0,0,0,23.63,82.47Z"/><path class="cls-3" d="M123.88,290.16s15,15,31,13,31-16,40-16,33,5,47,2,26-11,41-32"/><path class="cls-2" d="M151.89,306.84c-16.08,0-29.86-13.59-30.48-14.21l4.94-4.95c.14.13,14,13.76,28.1,12,8-1,16-5.37,23-9.23,6.65-3.64,12.4-6.79,17.44-6.79,3.11,0,7.67.53,13,1.14,10.3,1.2,24.4,2.84,33.32.93,10.44-2.23,22.37-7.49,38.88-30.61l5.7,4.07c-14.47,20.25-27,29.93-43.12,33.39-10,2.15-24.21.5-35.59-.82-5.06-.59-9.44-1.1-12.14-1.1-3.25,0-8.51,2.88-14.08,5.93-7.59,4.16-16.19,8.88-25.48,10A28.44,28.44,0,0,1,151.89,306.84Z"/><path class="cls-4" d="M51.88,159.85c-33.8-7.44-46.47-50.92-48.21-55.39-2.24,32.15,20.45,63.65,48.21,77.7Z"/><path class="cls-5" d="M49.51,104.13l-4.9,2.69S33.19,89.24,23,88.39C16,87.8,11,89,6.46,91.74,10.6,82.63,19.59,75.82,30.05,80.3,39.17,84.19,45.83,94.3,49.51,104.13Z"/><path class="cls-2" d="M50.3,185.28a96.37,96.37,0,0,1-38.36-35.9C1.89,132.72-1.92,115,.91,98a30.7,30.7,0,0,1,2.37-7.71C7.9,80.1,18.69,71.62,31.43,77.08,44,82.43,50.55,96.92,52.79,102.9a59.83,59.83,0,0,1,2.51,8.52l-6.84,1.47a54.57,54.57,0,0,0-2.22-7.53c-4-10.7-10.57-18.86-17.56-21.85-6.1-2.61-14.35-.63-19,9.67a23.75,23.75,0,0,0-1.84,6c-5.68,34,19.28,66.55,45.65,79.89Z"/><path class="cls-1" d="M112.49,307.3c-11.3,0-23.07-9.84-35-29.24-9.74-15.87-19.24-37.8-26.75-61.76q-.89-2.82-1.73-5.66C48,207,23.92,120.85,45.15,70.3,62.72,28.47,101.7,3.5,149.41,3.5a138.84,138.84,0,0,1,21.51,1.7c54.92,8.61,72.8,61.9,75.83,72.49,1.45,5.09,2.71,12.35,4.17,20.76,2.5,14.39,5.62,32.31,10.55,41.56,7.89,14.79,30.6,50.4,44.61,67.42a53.82,53.82,0,0,1,11.85,32.82,34,34,0,0,1-9.69,25c-8.19,8.33-20.87,13.11-34.8,13.11A55,55,0,0,1,257.36,276a32.26,32.26,0,0,0-9.36-1.5c-11.5,0-18.28,7.7-23.72,13.89-1.2,1.36-2.33,2.64-3.42,3.74a37.9,37.9,0,0,1-26.18,10.73,38.81,38.81,0,0,1-19-5.15c-8.76-4.86-15.51-8.3-22.67-8.3-7.76,0-16.22,4-27.44,13a20.7,20.7,0,0,1-13.08,4.91Z"/><path class="cls-2" d="M149.41,7a134.55,134.55,0,0,1,21,1.66c51,8,69,56,73,70s7,48,15,63,31,51,45,68a50.42,50.42,0,0,1,11.05,30.65c.41,23-20.46,34.52-41,34.52a52.09,52.09,0,0,1-15.06-2.17A35.45,35.45,0,0,0,248,271c-15.84,0-23.77,12.81-29.62,18.66a34.46,34.46,0,0,1-23.7,9.7,35.32,35.32,0,0,1-17.3-4.7c-9-5-16.25-8.75-24.37-8.75s-17.13,3.75-29.63,13.75a17.22,17.22,0,0,1-10.89,4.14c-21.44,0-44.44-44-58.4-88.54-.59-1.87-1.16-3.73-1.71-5.6,0,0-25-88-4-138C66.48,28.55,106.14,7,149.41,7m0-7h0C100.24,0,60.06,25.77,41.93,68.94c-21.7,51.67,2.67,138.94,3.72,142.63v.06c.54,1.83,1.11,3.71,1.75,5.73,7.59,24.22,17.21,46.43,27.1,62.53,12.6,20.51,25.37,30.91,38,30.91a24.11,24.11,0,0,0,15.27-5.68c10.41-8.33,18.44-12.21,25.25-12.21,6.33,0,12.42,3.11,21,7.86a42.28,42.28,0,0,0,20.7,5.59,41.47,41.47,0,0,0,28.65-11.76c1.18-1.17,2.34-2.5,3.58-3.9,5.24-6,11.17-12.7,21.09-12.7a28.73,28.73,0,0,1,8.34,1.35,58.59,58.59,0,0,0,17.1,2.48c14.86,0,28.45-5.16,37.3-14.16a37.37,37.37,0,0,0,10.69-27.49,57.35,57.35,0,0,0-12.65-35c-13.43-16.31-36.37-52.11-44.22-66.84-4.67-8.75-7.73-26.36-10.19-40.51-1.48-8.51-2.75-15.86-4.26-21.12a122.61,122.61,0,0,0-20.06-39.6c-15.25-19.78-35-31.69-58.58-35.39A143.37,143.37,0,0,0,149.41,0Z"/><path class="cls-4" d="M243.38,78.66c-4-14-22-62-73-70,0,0,51.54,18.71,52.17,97.91,0,1.66,8.38-5.66,8.38-5.66L240,87.66l4.2-5.88S243.65,79.61,243.38,78.66Z"/><path class="cls-4" d="M239.36,166.83s19.22,6.56,27.49,15.33c9.38,9.94,36.53,27.5,36.53,27.5-13.5-16.4-35.36-50.45-44.08-66.31Z"/><path class="cls-5" d="M58.42,226.63S31.33,131.26,54.08,77.07C72.71,32.73,112.37,9.45,156.45,7.19c-46-2.45-89,19-108.07,64.47-21,50,4,138,4,138,2.69,9.06,5.77,18.18,9.16,27Q59.91,231.64,58.42,226.63Z"/><path class="cls-1" d="M225.88,106.16c9.14-7.84,11.9-17.62,17.33-27.71,4.41-8.17,11.64-15.82,21.67-15.29,19,1,22,28,14,48-8.33,20.83-21.29,37.31-37,53"/><path d="M241.88,167.66a3.51,3.51,0,0,1-2.47-6c17.85-17.83,29-33.81,36.22-51.82,5.22-13.06,5.17-28.54-.12-36.82a13.07,13.07,0,0,0-10.81-6.39c-9.48-.5-15.58,8.22-18.41,13.46-1.35,2.52-2.57,5.08-3.74,7.55-3.46,7.31-7,14.85-14.39,21.15a3.5,3.5,0,1,1-4.56-5.31c6.22-5.33,9.19-11.59,12.63-18.84,1.21-2.55,2.46-5.19,3.9-7.87,6.24-11.56,15.1-17.65,24.94-17.13a20,20,0,0,1,16.34,9.61c6.52,10.2,6.81,28,.72,43.19-7.57,18.93-19.22,35.64-37.77,54.17A3.52,3.52,0,0,1,241.88,167.66Z"/><path class="cls-1" d="M225.88,106.16c9.14-7.84,11.9-17.62,17.33-27.71,4.41-8.17,11.64-15.82,21.67-15.29,19,1,22,28,14,48-8.33,20.83-21.29,37.31-37,53"/><path d="M241.88,167.66a3.51,3.51,0,0,1-2.47-6c17.85-17.83,29-33.81,36.22-51.82,5.22-13.06,5.17-28.54-.12-36.82a13.07,13.07,0,0,0-10.81-6.39c-9.48-.5-15.58,8.22-18.41,13.46-1.35,2.52-2.57,5.08-3.74,7.55-3.46,7.31-7,14.85-14.39,21.15a3.5,3.5,0,1,1-4.56-5.31c6.22-5.33,9.19-11.59,12.63-18.84,1.21-2.55,2.46-5.19,3.9-7.87,6.24-11.56,15.1-17.65,24.94-17.13a20,20,0,0,1,16.34,9.61c6.52,10.2,6.81,28,.72,43.19-7.57,18.93-19.22,35.64-37.77,54.17A3.52,3.52,0,0,1,241.88,167.66Z"/><path class="cls-1" d="M241.75,163.68l12.64-13c-3.93,4.59-8.11,9-12.51,13.45Z"/><path d="M241.88,167.66a3.51,3.51,0,0,1-3.38-2.59l-.13-.48a3.52,3.52,0,0,1,.87-3.36l12.64-13a3.5,3.5,0,0,1,5.17,4.72c-3.83,4.47-8,8.94-12.69,13.65A3.5,3.5,0,0,1,241.88,167.66Z"/><ellipse class="cls-6" cx="197.38" cy="350.16" rx="110.5" ry="11"/><circle class="cls-7" cx="83.38" cy="87.66" r="12.5"/><circle class="cls-8" cx="86.88" cy="83.16" r="3.5"/><circle class="cls-7" cx="167.38" cy="87.66" r="12.5"/><circle class="cls-8" cx="164.88" cy="83.16" r="3.5"/><path class="cls-4" d="M278.88,111.16c-6,15-14.37,27.69-24.44,39.49l-.05.06-12.64,13-2.8,2.87c-1.94-1.47-9.75-8.38-1.64-19,.24-.32.5-.64.78-1,10.57-12.56,30.17-24.71,44.48-63.46h0A56.69,56.69,0,0,1,278.88,111.16Z"/><path class="cls-7" d="M146.92,122.09a22,22,0,0,1-43.71,5c-1.39-12.07-.27-34.53,18-36.3C135.68,89.43,145.53,110,146.92,122.09Z"/><path class="cls-9" d="M125,138.62a12.74,12.74,0,0,0,1.63-.1A14,14,0,0,0,139,123a23,23,0,0,0-.47-2.55,1.08,1.08,0,0,0-1.25-.81,47.37,47.37,0,0,0-23.15,12.12,1.07,1.07,0,0,0-.12,1.4A13.94,13.94,0,0,0,125,138.62Z"/><path class="cls-10" d="M122.33,126.67a46.32,46.32,0,0,1,14.81-6,.41.41,0,0,1,.47.31,18.36,18.36,0,0,1,.37,2.13,12.46,12.46,0,0,1-.21,4.22.4.4,0,0,1-.48.3,32.05,32.05,0,0,0-14.66-.27A.39.39,0,0,1,122.33,126.67Z"/><path class="cls-4" d="M314.44,241.13c0,.33,0,.66,0,1A30.16,30.16,0,0,1,303,265.25l0,0a52.74,52.74,0,0,1-8.13,5c-9.33,4.65-21.4,6.94-36.47,2.35-23-7-33,10-40,17s-23,15-41,5-29-15-54,5c-7.54,6-15.54,5.15-23.47-.51-.53-.38-1.07-.78-1.6-1.2l-1-.84c-.67-.57-1.35-1.17-2-1.8l-1-1c-.34-.33-.67-.67-1-1-1-1.05-2-2.16-3-3.34q-2-2.36-4-5c-.66-.89-1.31-1.81-2-2.76q-1.45-2.12-2.9-4.4c-1.92-3-3.8-6.28-5.65-9.69h0c-.61-1.13-1.22-2.29-1.82-3.45q-1.36-2.64-2.7-5.39c-.88-1.82-1.76-3.69-2.62-5.58A337,337,0,0,1,54.1,215.28c.52.75,17.13,24.84,32.78,35.93,11.34,8,26.64,11,35.72,5.92,10.61-5.92,15.21-15.07,26.68-16.07,24.11-2.12,28.31,20.72,50.12,15,20.08-5.27,16.39-23,34.3-27.26,24.67-5.92,34.21,25.59,61.48,19.88a54.23,54.23,0,0,0,19.25-8.36C314.43,240.58,314.44,240.86,314.44,241.13Z"/><path class="cls-5" d="M273.91,66.25a15.38,15.38,0,0,1-5.16,1c-8.67.21-15.65,5.08-19.66,17.34s-14.81,29-20.94,29.07c-4.18.06-5.26-3.26-5.53-5.37l3.26-2.12c9.14-7.83,11.89-17.61,17.33-27.7,4.41-8.18,11.64-15.83,21.67-15.3A16.51,16.51,0,0,1,273.91,66.25Z"/><path class="cls-2" d="M241.88,167.66a3.51,3.51,0,0,1-2.47-6c17.85-17.83,29-33.81,36.22-51.82,5.22-13.06,5.17-28.54-.12-36.82a13.07,13.07,0,0,0-10.81-6.39c-9.48-.5-15.58,8.22-18.41,13.46-1.35,2.52-2.57,5.08-3.74,7.55-3.46,7.31-7,14.85-14.39,21.15a3.5,3.5,0,1,1-4.56-5.31c6.22-5.33,9.19-11.59,12.63-18.84,1.21-2.55,2.46-5.19,3.9-7.87,6.24-11.56,15.1-17.65,24.94-17.13a20,20,0,0,1,16.34,9.61c6.52,10.2,6.81,28,.72,43.19-7.57,18.93-19.22,35.64-37.77,54.17A3.52,3.52,0,0,1,241.88,167.66Z"/></g></g></svg>