<?xml version="1.0" standalone="no"?><!DOCTYPE svg PUBLIC "-//W3C//DTD SVG 1.1//EN" "http://www.w3.org/Graphics/SVG/1.1/DTD/svg11.dtd"><svg t="1649681027390" class="icon" viewBox="0 0 1024 1024" version="1.1" xmlns="http://www.w3.org/2000/svg" p-id="105335" xmlns:xlink="http://www.w3.org/1999/xlink" width="200" height="200"><defs><style type="text/css">@font-face { font-family: "feedback-iconfont"; src: url("//at.alicdn.com/t/font_1031158_u69w8yhxdu.woff2?t=1630033759944") format("woff2"), url("//at.alicdn.com/t/font_1031158_u69w8yhxdu.woff?t=1630033759944") format("woff"), url("//at.alicdn.com/t/font_1031158_u69w8yhxdu.ttf?t=1630033759944") format("truetype"); }
</style></defs><path d="M0 0h1024v1024H0z" fill="#FAECBF" p-id="105336"></path><path d="M385.706667 395.349333c24.661333 3.072-4.650667 117.162667 97.877333 108.672s110.250667-81.066667 102.4-118.698666-81.066667-143.402667-187.733333-115.626667c-76.458667 19.882667-160.298667 103.808-164.437334 233.301333-2.56 81.536 22.186667 137.898667 67.029334 185.301334 16.298667 40.789333 17.066667 83.968 42.666666 82.432s25.088-38.4 25.088-38.4a153.6 153.6 0 0 0 29.866667 6.954666c41.045333 5.290667 113.322667 3.797333 137.728-2.602666 2.901333 23.168 8.277333 39.338667 22.954667 39.338666s29.866667-8.149333 26.197333-70.357333a56.789333 56.789333 0 0 0 9.258667-26.752c3.84-43.178667-54.186667-94.848-191.36-118.741333-105.173333-18.304-42.197333-167.936-17.536-164.821334z" fill="#8CCBA0" p-id="105337"></path><path d="M558.933333 784.64c-20.949333 0-27.477333-22.058667-30.122666-37.717333-31.061333 5.034667-94.293333 5.717333-131.669334 0.896a159.189333 159.189333 0 0 1-21.333333-4.266667c-2.602667 15.488-11.221333 34.346667-32.170667 35.584-24.576 1.493333-31.872-24.576-39.552-52.181333a356.48 356.48 0 0 0-10.794666-34.133334c-48.938667-52.437333-70.613333-112.896-68.266667-190.165333 1.962667-61.44 21.632-117.717333 56.917333-162.773333C312.746667 300.970667 354.133333 272.298667 396.16 261.418667a146.090667 146.090667 0 0 1 116.522667 18.816c47.445333 29.568 76.8 79.146667 81.792 103.381333 2.389333 11.605333 8.149333 52.010667-17.066667 85.333333-19.029333 25.301333-50.389333 39.936-93.312 43.52-76.8 6.357333-87.424-51.2-93.866667-85.333333-1.450667-8.064-3.626667-20.053333-6.058666-22.997333-8.96 3.712-32.725333 44.373333-31.616 86.997333 0.896 34.56 18.261333 55.04 51.584 60.842667 64.64 11.264 117.162667 29.866667 151.893333 53.504 32.298667 22.058667 48.810667 48.469333 46.506667 74.368a65.066667 65.066667 0 0 1-9.088 28.245333c1.92 35.072-2.090667 56.618667-12.544 67.754667a28.970667 28.970667 0 0 1-21.973334 8.789333z m-22.954666-56.405333a8.277333 8.277333 0 0 1 4.778666 1.450666 8.533333 8.533333 0 0 1 3.712 6.016c3.498667 28.245333 9.557333 31.872 14.464 31.872a12.117333 12.117333 0 0 0 9.856-3.541333c4.906667-5.162667 10.197333-19.413333 7.808-57.770667a8.533333 8.533333 0 0 1 1.450667-5.248 48.853333 48.853333 0 0 0 7.850667-22.784c3.370667-37.973333-52.309333-86.570667-184.362667-109.568-49.066667-8.533333-72.533333-45.269333-64-100.778666 5.930667-39.594667 28.8-83.626667 49.365333-81.066667 14.208 1.792 17.066667 18.133333 20.650667 37.077333 6.229333 34.133333 13.994667 76.8 75.477333 71.594667 37.845333-3.114667 65.109333-15.488 81.066667-36.736C584.533333 430.933333 579.797333 396.8 577.792 387.029333c-3.797333-18.432-29.354667-64.426667-74.112-92.330666a128 128 0 0 0-103.253333-16.768c-99.882667 26.026667-155.136 133.034667-157.866667 225.365333-2.346667 74.026667 17.621333 129.28 64.682667 179.2a8.234667 8.234667 0 0 1 1.92 3.285333 364.8 364.8 0 0 1 11.733333 36.736c6.997333 25.045333 11.818667 40.277333 22.101333 39.722667 16.768-1.024 17.066667-28.117333 17.066667-29.568a8.533333 8.533333 0 0 1 11.136-8.32 147.498667 147.498667 0 0 0 28.288 6.528c39.338667 5.077333 110.933333 3.797333 134.485333-2.389333a9.472 9.472 0 0 1 2.048-0.256z" fill="#6C0C5B" p-id="105338"></path><path d="M521.685333 372.181333c-12.8-1.664-25.6 13.824-28.117333 34.56a55.168 55.168 0 0 0 1.536 22.314667l17.792-0.896-10.453333 14.165333a16.469333 16.469333 0 0 0 9.514666 4.992c12.8 1.664 25.6-13.824 28.074667-34.56s-5.546667-38.912-18.346667-40.576zM474.368 508.757333a4.266667 4.266667 0 0 1-3.456-1.749333c-34.133333-46.933333-35.029333-76.074667-25.6-86.997333a4.266667 4.266667 0 0 1 6.442667 5.632c-5.632 6.4-7.424 30.592 25.898666 76.330666a4.266667 4.266667 0 0 1-0.938666 5.973334 4.266667 4.266667 0 0 1-2.346667 0.810666zM609.706667 647.253333a8.533333 8.533333 0 0 1-2.56-16.64 23.04 23.04 0 0 0 14.677333-11.776c4.821333-9.770667 2.901333-23.210667-0.213333-31.744a8.533333 8.533333 0 1 1 16.042666-5.845333c2.176 5.973333 8.533333 26.837333-0.554666 45.141333a40.021333 40.021333 0 0 1-24.874667 20.48 7.552 7.552 0 0 1-2.517333 0.384zM578.688 236.074667c-14.848-11.690667-85.333333 43.221333-85.333333 43.221333l63.658666 49.962667s36.522667-81.536 21.674667-93.184zM440.661333 190.122667c-17.066667-0.938667-40.533333 75.648-40.533333 75.648l72.533333 4.010666s-15.104-78.72-32-79.658666zM309.674667 232.192c-12.8 8.064 9.770667 75.349333 9.770666 75.349333L373.674667 273.066667s-51.370667-48.896-64-40.874667zM233.856 315.733333c-7.722667 10.496 32.682667 57.301333 32.682667 57.301334L298.666667 327.424S241.365333 304.981333 233.856 315.733333zM200.533333 401.792c-3.626667 10.453333 40.234667 39.253333 40.234667 39.253333l15.701333-44.842666S204.330667 391.338667 200.533333 401.792zM191.189333 482.986667c0 9.173333 42.112 19.285333 42.112 19.285333l-0.298666-39.168s-41.898667 10.752-41.813334 19.882667zM200.064 544.64c0.682667 7.168 34.133333 12.202667 34.133333 12.202667l-2.858666-30.677334s-31.957333 11.434667-31.274667 18.474667zM391.722667 407.978667A8.533333 8.533333 0 0 1 384 402.645333c-6.058667-14.890667-17.664-14.122667-18.944-13.994666a8.533333 8.533333 0 0 1-9.429333-7.466667A8.533333 8.533333 0 0 1 362.666667 371.712c8.874667-1.194667 27.946667 2.389333 36.906666 24.533333a8.533333 8.533333 0 0 1-7.893333 11.733334z" fill="#740E62" p-id="105339"></path><path d="M705.408 418.56l-19.584 108.8-98.901333 55.466667-21.333334 111.274666L468.48 746.666667s200.917333 117.930667 302.336-31.36C882.901333 550.4 705.408 418.56 705.408 418.56z" fill="#FFFFFF" p-id="105340"></path><path d="M625.322667 799.488a266.154667 266.154667 0 0 1-45.141334-4.010667 380.586667 380.586667 0 0 1-116.010666-41.344 8.533333 8.533333 0 0 1 0-14.848l93.568-50.944 20.608-107.306666a8.533333 8.533333 0 0 1 4.266666-5.802667l95.36-53.376 18.858667-104.789333a8.533333 8.533333 0 0 1 5.248-6.442667 8.533333 8.533333 0 0 1 8.234667 1.109333 313.941333 313.941333 0 0 1 77.098666 89.173334c28.885333 51.2 50.645333 130.474667-9.685333 219.306666-35.328 52.352-87.637333 79.274667-152.405333 79.274667zM486.4 746.666667a369.664 369.664 0 0 0 96.938667 32.085333c79.658667 13.568 140.330667-9.301333 180.266666-68.266667 44.373333-65.322667 47.488-132.906667 9.216-200.832a305.28 305.28 0 0 0-61.781333-75.306666l-17.066667 94.378666a8.533333 8.533333 0 0 1-4.266666 5.930667l-95.445334 53.376-20.309333 107.434667a8.533333 8.533333 0 0 1-4.266667 5.888z" fill="#6C0C5B" p-id="105341"></path><path d="M678.4 680.576a4.266667 4.266667 0 0 1-3.370667-6.912l27.648-34.645333-21.077333-110.933334a4.266667 4.266667 0 0 1 3.370667-4.949333 4.266667 4.266667 0 0 1 4.992 3.370667l21.333333 112.768a4.266667 4.266667 0 0 1-0.853333 3.456l-28.842667 36.181333a4.266667 4.266667 0 0 1-3.2 1.664z" fill="#740E62" p-id="105342"></path><path d="M732.202667 626.645333a4.266667 4.266667 0 0 1-2.304-0.682666l-32.426667-20.864a4.266667 4.266667 0 1 1 4.608-7.168l32.426667 20.864a4.266667 4.266667 0 0 1 1.28 5.888 4.266667 4.266667 0 0 1-3.584 1.962666z" fill="#740E62" p-id="105343"></path></svg>