<?xml version="1.0" standalone="no"?><!DOCTYPE svg PUBLIC "-//W3C//DTD SVG 1.1//EN" "http://www.w3.org/Graphics/SVG/1.1/DTD/svg11.dtd"><svg t="1649681153108" class="icon" viewBox="0 0 1024 1024" version="1.1" xmlns="http://www.w3.org/2000/svg" p-id="114132" xmlns:xlink="http://www.w3.org/1999/xlink" width="200" height="200"><defs><style type="text/css">@font-face { font-family: "feedback-iconfont"; src: url("//at.alicdn.com/t/font_1031158_u69w8yhxdu.woff2?t=1630033759944") format("woff2"), url("//at.alicdn.com/t/font_1031158_u69w8yhxdu.woff?t=1630033759944") format("woff"), url("//at.alicdn.com/t/font_1031158_u69w8yhxdu.ttf?t=1630033759944") format("truetype"); }
</style></defs><path d="M512 0A512 512 0 1 0 1024 512 512.592397 512.592397 0 0 0 512 0zM189.22843 892.572562l0.677025-0.846281c6.431736-12.101818 11.932562-22.511074 16.925619-32.581818a60.678347 60.678347 0 0 1 2.961984-5.670083c0.507769-0.930909 1.100165-1.861818 1.523306-2.792727a11.001653 11.001653 0 0 0 1.354049-2.623471c5.246942-10.24 10.324628-21.241653 15.825455-32.835703A517.246942 517.246942 0 0 0 246.690909 761.652893a7.10876 7.10876 0 0 0 0-2.284959v-1.184794a13.117355 13.117355 0 0 0 0.507769-1.946446l8.46281-58.30876 0.507768-4.146777 3.977521-31.14314a9.478347 9.478347 0 0 0 0.42314-2.623472v-0.930909c0.761653-4.231405 1.269421-8.46281 1.946447-13.117355v-2.284959l1.354049-9.224462c0.507769-5.33157 1.184793-10.155372 1.861818-15.317686v-1.100166c0.42314-3.13124 0.761653-6.093223 1.100166-8.46281l1.354049-9.309091c0.761653-4.90843 1.438678-9.562975 2.369587-14.386776l0.846281-6.093224c1.35405-9.732231 2.454215-17.518017 3.639008-23.695867l2.284959-12.524959a496.343802 496.343802 0 0 1 11.340165-50.77686c1.946446-7.785785 4.400661-15.740826 7.024133-23.949752l2.454214-8.462809c0.846281-2.115702 1.692562-4.569917 2.538843-7.024133 6.093223-18.956694 12.778843-36.897851 20.395372-54.923636l1.77719-2.792727c2.623471-4.316033 4.739174-7.701157 7.024133-11.086281l0.846281-1.184794a8.46281 8.46281 0 0 0 1.269421-2.115702l0.761653-1.269422a19.295207 19.295207 0 0 0 1.946446-2.708099l1.523306-2.115702A96.645289 96.645289 0 0 1 346.975207 362.377521a295.690579 295.690579 0 0 1 47.137851-48.407273l1.354049-1.184793 1.607934-1.35405a3.723636 3.723636 0 0 1 1.269422-0.930909l0.930909-0.677025 0.761653-0.592397a4.654545 4.654545 0 0 1 1.438677-1.184793 5.923967 5.923967 0 0 0 1.607934-1.269421l4.316033-3.215868c5.416198-4.062149 9.562975-7.193388 12.863471-9.393719a264.801322 264.801322 0 0 1 51.623141-26.74248l2.454215-0.930909 2.115702-0.846281 10.324628-3.300496a187.620496 187.620496 0 0 1 19.549091-5.416198l8.970579-1.438678a140.905785 140.905785 0 0 1 14.725289-2.20033h33.089587A133.035372 133.035372 0 0 1 617.785124 265.562975l1.269421 0.761653a9.478347 9.478347 0 0 0 4.231405 1.523306c46.545455 20.48 80.481322 41.806281 103.500166 65.248264 24.796033 25.38843 35.543802 50.77686 32.581818 77.857852a47.899504 47.899504 0 0 1-7.531901 5.162314h-1.015537l-1.77719 0.846281-2.284959 0.761653-2.20033 0.677024a40.875372 40.875372 0 0 1-4.654546 0.507769h-4.146777c-4.993058-0.846281-9.562975-1.77719-13.963636-2.792727l-18.110413-3.300496c-10.324628-1.946446-18.533554-3.385124-24.119009-4.316033a9.562975 9.562975 0 0 0-2.708099 0h-3.215868a7.447273 7.447273 0 0 0-2.792727-0.423141c-5.670083 0-11.001653 0.42314-16.92562 0.761653h-2.454215c-6.093223 0.930909-11.847934 1.77719-17.7719 2.961984a150.638017 150.638017 0 0 0-24.372893 7.278016h-2.877355l-4.90843 2.115703a9.224463 9.224463 0 0 0-2.623471 0 8.46281 8.46281 0 0 0-3.723637 2.454214 213.008926 213.008926 0 0 0-31.735537 17.856529 327.426116 327.426116 0 0 0-46.545454 38.336529c-8.970579 8.46281-16.92562 18.025785-23.357356 25.38843a300.683636 300.683636 0 0 0-21.072396 27.080992 16.92562 16.92562 0 0 0-1.015538 1.607934 8.970579 8.970579 0 0 0-3.385123 4.485289 352.899174 352.899174 0 0 0-28.51967 47.391735 178.226777 178.226777 0 0 0-19.041322 54.500496 8.46281 8.46281 0 0 0 5.33157 11.340166l7.193388 2.369586 2.961984 0.846281c8.46281 2.284959 15.740826 4.231405 22.680331 5.923967a598.913058 598.913058 0 0 0 119.833388 8.970579c50.77686 0 89.705785-3.639008 114.586446-10.832397a408.415207 408.415207 0 0 0 51.623141-22.764959l16.248595-9.055206 1.523306-0.677025h0.592396a64.232727 64.232727 0 0 0 13.032728-9.816859l9.816859-9.732232a15.402314 15.402314 0 0 1 11.255537-4.654545 14.894545 14.894545 0 0 1 12.186446 3.723636s0.930909 1.100165 1.184794 1.269422a9.901488 9.901488 0 0 0 1.269421 2.708099 70.072066 70.072066 0 0 1 0 12.524958v9.901488c0 2.538843-0.677025 5.670083-1.438677 9.81686a73.541818 73.541818 0 0 1-1.692562 10.493884 7.616529 7.616529 0 0 0 0 3.385124 37.82876 37.82876 0 0 1 0 10.24c0 1.523306 0 3.13124-0.507769 5.416198V677.447934a100.115041 100.115041 0 0 0 1.77719 16.92562c1.77719 11.340165 5.500826 31.227769 12.694215 62.286281l9.055207 35.628429c1.100165 4.400661 2.877355 11.001653 4.823801 18.618182 5.670083 21.918678 13.540496 51.877025 15.825455 62.624794a7.955041 7.955041 0 0 0 1.692562 3.385124 498.036364 498.036364 0 0 1-663.315041 15.910082z m96.560661-445.397686c-0.761653 2.200331-1.438678 4.400661-2.284959 6.431736 0 0 0 1.100165-0.42314 1.269421l-2.454215 7.785785a93.090909 93.090909 0 0 1-20.05686-17.34876A44.852893 44.852893 0 0 1 245.421488 415.523967a7.447273 7.447273 0 0 0 0-0.846281v-1.269422a6.262479 6.262479 0 0 0 0-1.184793 22.087934 22.087934 0 0 1 5.923967-11.932562 27.927273 27.927273 0 0 1 17.7719-9.393719 125.164959 125.164959 0 0 1 34.189752-1.607934 40.367603 40.367603 0 0 1 4.231405 0l-0.846281 1.523306c-7.701157 18.364298-14.556033 36.728595-20.818512 56.10843zM273.771901 482.380165h1.100165c-0.507769 1.861818-1.100165 3.723636-1.523306 5.500827a501.675372 501.675372 0 0 0-11.678677 51.877025l-2.200331 12.355702c-0.677025 3.385124-1.269421 7.278017-1.946446 11.763306a89.367273 89.367273 0 0 1-21.749422-15.317686 88.182479 88.182479 0 0 1-9.055206-10.409256 27.16562 27.16562 0 0 1-6.26248-22.511075 35.797686 35.797686 0 0 1 21.918678-23.103471 112.21686 112.21686 0 0 1 31.397025-10.155372z m-54.33124 308.300166l-9.901487-7.193389A59.239669 59.239669 0 0 1 186.181818 748.620165v-2.708099a54.33124 54.33124 0 0 1 31.566281-27.673388c7.10876-2.369587 13.540496-4.316033 19.210579-5.754711L230.950083 753.190083a16.92562 16.92562 0 0 0-0.846281 5.077686q-5.162314 17.34876-10.663141 32.412562z m-1.607934-131.088926a61.778512 61.778512 0 0 1-7.616529-9.986116 35.62843 35.62843 0 0 1-3.97752-7.785785l-0.677025-1.607934v-0.846281l-1.438678-5.839339A50.77686 50.77686 0 0 1 203.107438 621.170248c0.761653-4.400661 8.46281-11.932562 40.452231-22.426446l9.309091-3.215868v1.523306c0 2.708099-0.761653 5.585455-1.354049 9.309091s-0.761653 5.839339-1.100166 8.462809v1.607934c-0.677025 4.823802-1.35405 9.81686-1.77719 14.809918-0.507769 3.13124-0.930909 6.093223-1.354049 8.970578l-0.423141 2.961984c-0.507769 4.062149-1.100165 8.46281-1.77719 12.01719v4.400661l-2.538843 19.972231a126.942149 126.942149 0 0 1-24.711405-19.972231z m88.859504-356.876694a3.046612 3.046612 0 0 0 0-0.930909 16.333223 16.333223 0 0 1 17.771901-14.640662 107.393058 107.393058 0 0 1 27.504132 5.162315c7.447273 2.031074 13.963636 4.146777 19.295207 5.839338l1.692562 0.507769 1.015537 0.592397c0.930909 0.507769 3.55438 1.607934 6.093223 2.708099h1.015538a309.061818 309.061818 0 0 0-47.814876 49.338182 105.785124 105.785124 0 0 0-9.901488 12.778843l-1.861818 2.708099a157.831405 157.831405 0 0 1-11.847934-27.16562 53.738843 53.738843 0 0 1-2.961984-36.897851zM406.214876 283.16562c0-3.55438 1.35405-8.46281 3.046612-16.163967 3.300496-15.317686 8.46281-25.38843 15.233057-29.619835 8.46281-3.215868 19.972231 1.77719 28.096529 6.600992l12.9481 7.616529a282.065455 282.065455 0 0 0-54.923637 28.435041c-1.269421 0.846281-2.877355 1.946446-4.400661 3.13124z m84.628099-39.690579v-11.001653c0-14.048264 2.623471-22.934215 8.46281-27.842644a12.271074 12.271074 0 0 1 4.823802-1.861818c9.81686-1.523306 21.495537 3.55438 35.713058 15.825454a87.166942 87.166942 0 0 1 15.57157 17.771901h-26.996364a152.330579 152.330579 0 0 0-16.079339 2.369587l-8.46281 1.438677h-0.846281q-6.262479 1.523306-12.186446 3.300496z m250.837686 192.698182a88.690248 88.690248 0 0 1-3.300496 8.46281 33.174215 33.174215 0 0 1-7.616529 10.324628c-2.284959 1.692562-4.231405 1.946446-9.901487 0l-3.977521-1.015537-3.046611-0.592397-1.946447-0.846281c-1.946446-0.761653-6.008595-3.639008-11.086281-14.471405l-3.97752-8.46281 3.723636 0.677025 17.856529 3.215868c4.231405 1.015537 8.970579 1.946446 14.217521 2.877355a19.549091 19.549091 0 0 0 3.131239 0h0.930909a13.709752 13.709752 0 0 0 2.538843 0zM677.024793 426.017851v6.177851a94.698843 94.698843 0 0 1-3.808264 19.633719c-2.200331 8.46281-13.201983 11.847934-22.25719 13.032728h-1.184794a45.614545 45.614545 0 0 1-11.001652-1.861818 44.09124 44.09124 0 0 1-18.872067-16.92562c-2.200331-2.961983-3.977521-5.585455-6.008595-8.46281l-0.761652-1.100165 2.538842-0.677025h0.761653a138.705455 138.705455 0 0 1 21.83405-6.431736c5.33157-1.100165 10.832397-1.946446 16.92562-2.877355h0.930909c4.90843 0 9.647603-0.677025 14.556033-0.761653a19.464463 19.464463 0 0 0 3.808264 0.42314h2.031075z m-76.165289 48.407273a48.06876 48.06876 0 0 1-2.369587 10.409256 11.932562 11.932562 0 0 1-10.155372 5.33157 20.818512 20.818512 0 0 1-3.892892 0 50.099835 50.099835 0 0 1-16.92562-3.808264 39.690579 39.690579 0 0 1-14.809917-13.879008c6.431736-5.162314 13.201983-10.24 20.48-15.233058a200.060826 200.060826 0 0 1 22.934215-13.37124 19.379835 19.379835 0 0 1 0.592396 2.369587l1.692562 6.68562a76.165289 76.165289 0 0 1 2.454215 21.495537z m-63.047934 50.776859l-1.100165 0.761653a69.310413 69.310413 0 0 1-7.531901 4.90843l-3.808264 1.015537a28.688926 28.688926 0 0 1-9.81686 0.677025 31.904793 31.904793 0 0 1-4.654545-0.930909H508.44562a51.961653 51.961653 0 0 1-6.516364-2.538843l-0.930909-0.42314-0.677025-1.015538-1.015537-1.607934c2.200331-2.792727 4.316033-5.500826 6.68562-8.462809a297.721653 297.721653 0 0 1 22.680331-24.288265c1.946446-2.031074 3.977521-3.892893 6.008595-5.754711 1.861818 6.770248 3.723636 13.286612 5.585454 19.295207 3.13124 12.355702-1.100165 16.756364-2.623471 17.856529z m-40.367603 59.23967a27.504132 27.504132 0 0 1-16.248595 8.970578h-0.507769c-6.093223 1.269421-14.809917 2.623471-23.357355 3.808265l-3.977521 0.592397c0.507769-1.015537 0.930909-2.031074 1.523306-3.13124a325.733554 325.733554 0 0 1 27.080992-45.191405 31.820165 31.820165 0 0 1 4.231405-5.754711c0 1.015537 0.930909 2.031074 1.523306 3.300496l0.507768 1.269422c1.861818 3.723636 3.977521 8.46281 6.854876 15.740826l3.215868 7.870413a13.455868 13.455868 0 0 1-1.015537 12.440331z m-16.92562 62.963306c23.441983-1.438678 50.015207-3.13124 66.940827-4.823802a93.090909 93.090909 0 0 0 15.99471-2.877355l108.66248-28.773554c50.77686-14.979174 83.020165-21.157025 96.645289-18.448926-3.977521 5.077686-12.186446 14.471405-16.92562 19.125951a7.701157 7.701157 0 0 0-1.35405 2.031074L736.264463 621.170248a359.584793 359.584793 0 0 1-48.238017 21.495537c-23.272727 6.770248-60.170579 10.155372-110.016529 10.155372a691.41157 691.41157 0 0 1-97.999338-5.500826z m385.98876 216.394049c-3.215868-13.709752-9.647603-38.505785-14.556033-57.293223-2.031074-7.701157-3.723636-14.217521-4.823801-18.533554l-9.309091-35.543801c-7.024132-30.466116-10.66314-49.930579-12.440331-61.101488a86.743802 86.743802 0 0 1-1.77719-14.302149v-5.077686-4.485289a53.823471 53.823471 0 0 0 0-12.863471 68.633388 68.633388 0 0 0 1.692562-10.578512q1.015537-5.670083 1.523306-9.901488v-2.623471-8.716694a82.512397 82.512397 0 0 0 0-15.994711 17.518017 17.518017 0 0 0-0.846281-5.923967 15.994711 15.994711 0 0 0-3.639008-5.670083l-0.592397-0.677024a32.327934 32.327934 0 0 0-24.796033-9.309091 33.85124 33.85124 0 0 0-11.001653 1.946446 7.785785 7.785785 0 0 0-0.930909-3.385124 9.986116 9.986116 0 0 0-4.062149-4.146777 9.309091 9.309091 0 0 0-3.046611-1.77719h-0.930909l-3.977521-1.269421c-16.92562-3.808264-49.676694 1.946446-105.615868 18.618181l-108.408595 28.096529a78.027107 78.027107 0 0 1-13.286612 2.369587c-16.92562 1.607934-43.075702 3.300496-66.348429 4.823802-19.464463 1.184793-31.989421 2.031074-39.859835 2.708099a138.02843 138.02843 0 0 1 5.500826-16.92562l14.72529-2.284958c8.46281-1.269421 17.856529-2.623471 24.796033-4.146777h0.846281a41.298512 41.298512 0 0 0 26.319339-16.417852 30.127603 30.127603 0 0 0 2.623471-26.23471l-0.507769-1.438678-3.385124-8.46281-3.892892-9.478347h0.507768c1.523306 0 3.55438 0.761653 6.177851 1.100165a32.243306 32.243306 0 0 0 4.993058 0 48.322645 48.322645 0 0 0 10.747769-1.269421 49.338182 49.338182 0 0 0 5.246942-1.438678 14.386777 14.386777 0 0 0 3.469752-1.523306 105.023471 105.023471 0 0 0 9.224463-6.008595 23.61124 23.61124 0 0 0 2.877355-2.369587 33.85124 33.85124 0 0 0 7.108761-33.851239 6.262479 6.262479 0 0 0 0-1.184794c0-0.677025-0.42314-1.607934-0.677025-2.369586a31.058512 31.058512 0 0 0 5.33157 2.623471 66.602314 66.602314 0 0 0 22.087934 4.993058h5.839339a28.688926 28.688926 0 0 0 23.441983-13.117356 26.234711 26.234711 0 0 0 1.438678-2.708099 59.916694 59.916694 0 0 0 3.469752-14.048264 12.694215 12.694215 0 0 0 0-1.692562v-5.162314a43.921983 43.921983 0 0 0 14.471405 9.139834 58.478017 58.478017 0 0 0 15.317686 2.792727H652.736529c26.827107-3.469752 33.85124-17.518017 36.220826-25.388429 0-1.015537 0.507769-2.031074 0.761653-3.13124a32.666446 32.666446 0 0 0 15.656199 15.14843l1.015537 0.507768a14.894545 14.894545 0 0 0 6.008595 1.692562h1.015537l3.300496 0.846281a33.85124 33.85124 0 0 0 10.070744 1.692562 23.61124 23.61124 0 0 0 14.556033-4.908429 50.099835 50.099835 0 0 0 11.847934-15.910083 84.628099 84.628099 0 0 0 6.939504-21.664793A63.471074 63.471074 0 0 0 770.115702 423.986777a17.602645 17.602645 0 0 0 6.26248-11.678678c3.215868-32.243306-9.055207-61.947769-37.574876-91.059835-24.626777-25.38843-60.170579-47.560992-108.831736-68.9719a19.379835 19.379835 0 0 0-3.131239-1.015538 13.37124 13.37124 0 0 0-2.200331-1.100165A152.330579 152.330579 0 0 0 575.471074 236.958678c-0.846281-1.184793-1.77719-2.708099-2.792727-4.231405A117.633058 117.633058 0 0 0 550.082645 205.646281c-18.110413-15.57157-33.85124-21.918678-49.338182-19.549091a29.873719 29.873719 0 0 0-11.678678 4.569917 13.286612 13.286612 0 0 0-1.607934 1.269422c-9.309091 8.46281-13.540496 21.326281-13.540496 40.536859V236.958678l-12.609586-7.447273c-16.417851-9.647603-30.804628-12.271074-42.31405-7.870413a14.979174 14.979174 0 0 0-3.300496 1.607934c-10.832397 7.024132-18.279669 20.226116-22.595702 40.367603a96.222149 96.222149 0 0 0-3.808265 22.934215l-2.961983-0.507769-4.146777-1.77719a16.92562 16.92562 0 0 0-3.55438-1.692562l-1.77719-0.592397c-5.500826-1.692562-12.355702-3.892893-19.718347-5.839338a119.74876 119.74876 0 0 0-31.397025-5.839339 33.089587 33.089587 0 0 0-34.951405 26.911735 70.072066 70.072066 0 0 0 3.131239 48.99967A181.527273 181.527273 0 0 0 304.661157 372.363636h-1.100165a133.204628 133.204628 0 0 0-37.574876 1.692562 44.429752 44.429752 0 0 0-26.996364 15.233058 39.859835 39.859835 0 0 0-9.309091 19.295207 17.687273 17.687273 0 0 0-0.42314 1.77719A16.163967 16.163967 0 0 0 228.495868 414.677686c-0.761653 13.201983 6.093223 27.842645 19.718347 42.31405 4.062149 4.316033 7.785785 7.955041 11.340165 11.086281a139.890248 139.890248 0 0 0-24.288264 8.462809 52.300165 52.300165 0 0 0-31.143141 33.85124 43.583471 43.583471 0 0 0 9.055207 36.728595 106.208264 106.208264 0 0 0 10.578512 12.271075l0.761653 0.761652a110.016529 110.016529 0 0 0 24.880661 17.602645l-11.340165 3.892893c-29.196694 10.747769-49.084298 20.310744-51.877025 36.982479a22.341818 22.341818 0 0 0 0 2.454215 62.455537 62.455537 0 0 0 1.438678 16.333223c0 1.269421 0.592397 2.369587 0.846281 3.639008l0.592397 2.284959a12.694215 12.694215 0 0 0 0.930909 3.046611l0.761653 1.861819a50.184463 50.184463 0 0 0 5.670082 10.917024 72.610909 72.610909 0 0 0 9.393719 12.101819 133.881653 133.881653 0 0 0 28.604298 24.372892c-6.431736 1.692562-13.79438 3.808264-22.25719 6.600992a70.833719 70.833719 0 0 0-41.298513 36.643967 16.92562 16.92562 0 0 0-1.607934 7.10876v2.623471a20.05686 20.05686 0 0 0 0.423141 3.723637 75.149752 75.149752 0 0 0 29.958347 44.768264l13.709752 9.901488-0.592397 1.523306a751.836033 751.836033 0 0 1-15.148429 31.989421l-0.507769 1.269421a5.500826 5.500826 0 0 0-0.761653 1.35405c0 0.677025-0.761653 1.35405-1.35405 2.369587s-2.369587 4.316033-3.300495 6.431735c-4.400661 8.46281-9.393719 18.448926-15.233058 29.281323a499.305785 499.305785 0 1 1 689.719008-17.518017z" fill="#659FDF" p-id="114133"></path><path d="M515.639008 371.517355h7.024132a80.904463 80.904463 0 0 0 77.180827-46.968595 8.46281 8.46281 0 0 0-15.14843-7.616529c-13.709752 27.080992-36.136198 39.18281-68.12562 37.490248a8.46281 8.46281 0 1 0-0.930909 16.92562zM882.840331 417.893554a52.300165 52.300165 0 0 0-41.89091-20.733885h-4.654545c-28.181157 1.607934-36.559339 16.92562-38.928926 25.38843a78.36562 78.36562 0 0 0-4.569917 28.604298v19.210578a14.217521 14.217521 0 0 1-4.485289 4.569918l-6.854876 4.654545c-5.246942 3.55438-10.24 7.024132-14.048265 9.901488a169.763967 169.763967 0 0 0-17.602644 13.455867 16.92562 16.92562 0 0 0-5.077686 16.079339 16.417851 16.417851 0 0 0 11.509421 12.355703 37.744132 37.744132 0 0 0 9.901488 1.184793 153.684628 153.684628 0 0 0 18.618182-1.607934l5.077686-0.761653 12.609586-2.115702a293.236364 293.236364 0 0 0 55.769918-16.92562c29.112066-11.59405 36.05157-32.158678 37.574876-43.075702a60.593719 60.593719 0 0 0-12.948099-50.184463z m-3.639009 47.560991c-1.269421 9.224463-6.939504 21.918678-27.334876 29.958348a275.802975 275.802975 0 0 1-52.638677 16.079338c-4.231405 0.846281-8.46281 1.438678-11.847934 2.031075l-4.739174 0.677025a86.743802 86.743802 0 0 1-20.649256 1.100165 161.893554 161.893554 0 0 1 15.57157-11.847934c4.062149-3.046612 8.46281-6.262479 13.879008-9.732231l7.108761-4.823802a23.357355 23.357355 0 0 0 11.509421-18.110413V459.361322v-8.46281a62.709421 62.709421 0 0 1 3.892893-23.272727c2.284959-8.46281 10.24-12.863471 23.949752-13.625124a21.580165 21.580165 0 0 1 3.385124 0 35.882314 35.882314 0 0 1 28.773554 14.386777 44.175868 44.175868 0 0 1 9.139834 37.067107zM475.779174 804.982479a8.46281 8.46281 0 0 0-10.24 6.177852 8.46281 8.46281 0 0 0-1.015538 2.115702 12.271074 12.271074 0 0 1-0.761653 1.861818 111.032066 111.032066 0 0 1-7.193388 11.847934 231.880992 231.880992 0 0 1-35.036033 38.336529c-21.495537 19.12595-35.036033 28.94281-44.260496 32.07405-3.55438 1.35405-12.863471 4.993058-14.386777 5.33157h-1.184793l-3.808265 1.100165a37.82876 37.82876 0 0 1-11.424793 0.930909 120.595041 120.595041 0 0 1-14.640661-1.354049 113.232397 113.232397 0 0 1-35.62843-18.787438 17.941157 17.941157 0 0 1 2.454215-9.393719 9.81686 9.81686 0 0 1 9.478347-6.516364 34.27438 34.27438 0 0 1 10.155372 2.284959 53.992727 53.992727 0 0 0 11.509421 2.115702 6.939504 6.939504 0 0 0 1.861819 0c9.224463-1.692562 25.38843-11.340165 50.776859-47.899504 20.310744-29.36595 29.704463-50.77686 28.858182-64.486612a8.46281 8.46281 0 1 0-16.92562 1.015538c0 5.585455-2.538843 20.05686-25.896198 53.823471s-35.882314 39.18281-39.267438 40.536859a48.322645 48.322645 0 0 1-5.923967-1.184793 47.899504 47.899504 0 0 0-15.317686-3.13124 26.234711 26.234711 0 0 0-24.626777 15.994711 33.85124 33.85124 0 0 0-4.231405 16.92562 16.92562 16.92562 0 0 0 7.701157 14.302149c25.38843 16.92562 35.966942 20.48 42.31405 21.410909a138.113058 138.113058 0 0 0 16.92562 1.523305 49.507438 49.507438 0 0 0 16.925619-1.77719l1.861819-0.592396a94.191074 94.191074 0 0 0 17.856528-6.177852c11.424793-3.808264 25.896198-14.048264 49.761323-35.374545a245.421488 245.421488 0 0 0 37.659504-41.213884 121.695207 121.695207 0 0 0 8.46281-13.963637 16.92562 16.92562 0 0 0 1.354049-3.131239 14.132893 14.132893 0 0 0 1.77719-4.400662 8.46281 8.46281 0 0 0-5.923966-10.324628zM733.810248 380.23405a9.81686 9.81686 0 0 0 2.284959-6.516364 19.041322 19.041322 0 0 0-5.246943-12.948099 22.680331 22.680331 0 0 0-9.901487-5.923967 7.616529 7.616529 0 0 0-1.77719 5.416198v0.507769a50.77686 50.77686 0 0 0 5.246942 9.732231 23.357355 23.357355 0 0 0 9.393719 9.732232zM700.128264 388.69686a46.545455 46.545455 0 0 0 1.692562-13.455868 44.768264 44.768264 0 0 0 0-9.562975c-0.846281-1.438678-2.115702-2.369587-5.500826-2.369587a2.031074 2.031074 0 0 1 0 1.438677 26.657851 26.657851 0 0 0-2.369587 11.001653q0 11.59405 6.177851 12.9481z" fill="#659FDF" p-id="114134"></path></svg>