<?xml version="1.0" standalone="no"?><!DOCTYPE svg PUBLIC "-//W3C//DTD SVG 1.1//EN" "http://www.w3.org/Graphics/SVG/1.1/DTD/svg11.dtd"><svg t="1649681789869" class="icon" viewBox="0 0 1024 1024" version="1.1" xmlns="http://www.w3.org/2000/svg" p-id="155987" xmlns:xlink="http://www.w3.org/1999/xlink" width="200" height="200"><defs><style type="text/css">@font-face { font-family: "feedback-iconfont"; src: url("//at.alicdn.com/t/font_1031158_u69w8yhxdu.woff2?t=1630033759944") format("woff2"), url("//at.alicdn.com/t/font_1031158_u69w8yhxdu.woff?t=1630033759944") format("woff"), url("//at.alicdn.com/t/font_1031158_u69w8yhxdu.ttf?t=1630033759944") format("truetype"); }
</style></defs><path d="M188.99227 972.209518a193.329217 51.790482 0 1 0 386.658435 0 193.329217 51.790482 0 1 0-386.658435 0Z" fill="#D0D1A3" p-id="155988"></path><path d="M180.318376 288.033981s-53.864125-89.874694-30.345986-163.691304c19.623737-61.931099 6.751982-107.247771 17.701825-114.859556S268.09414 64.384066 283.292421 152.210407" fill="#DBAD3B" p-id="155989"></path><path d="M172.73188 292.585879c-2.275949-3.818537-55.634307-94.173709-31.306942-170.923765 10.69696-33.759909 11.379745-62.057541 11.885511-82.718099 0.480478-19.244413 0.75865-30.851752 9.255525-36.743931C168.458153-1.896624 176.19638 0.581631 181.481639 2.781715c30.927617 12.972909 97.284173 71.464796 110.535253 147.911392L274.669103 153.702418C261.620329 78.975428 190.863606 23.568716 172.453708 18.157015a142.752575 142.752575 0 0 0-1.466723 21.216901c-0.505766 20.508829-1.264416 51.487022-12.64416 87.649323-21.950263 69.062406 29.056281 155.599042 29.587336 156.458844z" p-id="155990"></path><path d="M229.807621 51.208851a61.475909 61.475909 0 0 0-27.968883 22.759489 553.131455 553.131455 0 0 0-27.184946-53.105475 5.791026 5.791026 0 0 1 7.586496-8.041686c12.391278 6.423234 30.194256 19.775467 47.567333 38.387672z" p-id="155991"></path><path d="M241.490826 204.405502a5.993332 5.993332 0 0 1-1.112687 4.425456l-2.023065 2.528833-52.675574 69.618749a5.740449 5.740449 0 0 1-9.63485-0.783938c-12.315413-23.442274-45.518979-95.084089-26.148125-155.851925C164.664905 77.609858 160.871657 40.309584 162.995876 21.570938a5.740449 5.740449 0 0 1 10.671671-2.25066C188.68881 44.760329 227.759267 116.958487 241.490826 204.405502z" fill="#DBAD3B" p-id="155992"></path><path d="M181.102314 292.105401a9.736004 9.736004 0 0 1-1.213839 0 14.490208 14.490208 0 0 1-11.708493-7.738226c-44.102833-83.931939-33.405873-141.6146-26.755044-162.654484 10.69696-33.759909 11.379745-62.057541 11.885511-82.718099 0.177018-7.106018 0.328748-13.225792 0.885091-18.308745a14.338478 14.338478 0 0 1 11.379745-12.644161 14.667226 14.667226 0 0 1 15.704047 6.827847c16.108661 27.159657 55.077964 99.863581 68.961253 188.246265a14.692515 14.692515 0 0 1-2.832292 11.101573L192.734942 286.314375a14.490208 14.490208 0 0 1-11.632628 5.791026zM171.189292 32.874818c0 2.073642 0 4.299015-0.177018 6.62554-0.505766 20.508829-1.264416 51.487022-12.644161 87.649322-17.271924 54.471044 10.949843 119.993085 23.315832 144.674487l50.854815-67.317512C220.299212 128.034771 188.68881 63.777147 171.189292 32.874818z m61.551774 172.896254z" p-id="155993"></path><path d="M195.592522 218.137061c-11.506186-29.208011-22.759489-71.56595-11.329168-107.627096 4.22315-13.352234 4.678339-27.058504 6.62554-38.817574C203.356037 101.153286 220.678537 139.085768 227.784555 179.167757z" fill="#F4EBD9" p-id="155994"></path><path d="M283.292421 152.210407L241.794285 206.858469a514.4909 514.4909 0 0 0-35.10019-121.383943c-1.643741-3.894402-3.31277-7.586496-4.931222-11.354456a61.475909 61.475909 0 0 1 27.968883-22.759489q5.057664 5.487566 10.115329 11.582051c19.851332 23.872175 37.350851 54.597486 43.445336 89.267775z" fill="#DBAD3B" p-id="155995"></path><path d="M236.256143 228.909886l-3.135752-20.736424a501.062801 501.062801 0 0 0-34.518559-119.3103c-1.618453-3.843825-3.262193-7.586496-4.855357-11.228015l-1.972489-4.299015 2.70585-4.046131A69.89692 69.89692 0 0 1 226.393698 42.990146l5.689872-2.377102 4.197861 4.52661c3.540365 3.793248 7.055442 7.814091 10.494654 11.961376 16.791445 20.432964 38.26123 53.105475 45.240807 93.566789l0.632208 3.793248z m-24.276789-153.727706c0.986245 2.225372 1.972489 4.501321 2.933446 6.802558a532.774356 532.774356 0 0 1 32.166745 103.328081l26.780332-35.40365c-6.954288-34.746154-25.844665-63.372534-40.764774-81.50426-1.770183-2.149507-3.590942-4.299015-5.436989-6.372657a52.11923 52.11923 0 0 0-15.67876 13.149928z" p-id="155996"></path><path d="M621.928333 895.206579c-96.500235 0-132.005038-34.265676-133.47176-35.732398l-2.200084-2.174796-0.328748-3.085175c-0.177018-1.441434-16.412121-144.902082-25.440052-294.254908-12.416566-205.518188-5.942756-319.290346 19.800756-347.815573C519.181883 169.128294 598.486059 139.085768 673.162473 139.085768c64.257625 0 121.864421 21.191613 166.650038 61.248314 96.095621 85.980293 101.153286 222.840689 86.890672 260.292693-4.22315 11.025708-10.317635 13.352234-14.717803 13.352234a13.175215 13.175215 0 0 1-10.292347-5.259971 338.256588 338.256588 0 0 0-47.213296-43.268318c-27.058504-20.534117-50.197318-31.408095-66.912898-31.408095-30.978194 0-33.152989 42.534957-33.861063 56.49411-3.869113 76.421307 17.979997 108.158151 41.118811 141.741041 19.092683 27.817154 38.817573 56.34238 45.518979 109.371991 6.271504 50.146741-4.37488 92.277085-31.660979 125.202479-32.874818 39.77853-87.876917 63.220804-158.835947 67.620972-9.483121 0.581631-18.839799 0.885091-27.817153 0.885091z" fill="#DBAD3B" p-id="155997"></path><path d="M673.162473 147.860815c55.356136 0 113.064085 16.336256 160.732571 58.997654 108.512187 97.081866 95.96918 258.193762 78.090336 258.193762a4.703628 4.703628 0 0 1-3.489788-2.073642c-12.644161-15.172993-76.750056-77.862742-120.928753-77.862742-22.759489 0-40.233719 16.614427-42.686687 64.889833-7.23246 141.968637 72.172869 137.163855 86.612501 252.680908s-67.368088 175.652681-182.278221 182.859852c-9.609562 0.60692-18.713358 0.885091-27.286099 0.885091-93.946114 0-127.225545-33.152989-127.225545-33.152989s-65.066851-571.693083-7.83938-635.141481c33.608179-37.224409 107.576519-70.276245 186.299065-70.276246m0-17.701825c-77.002939 0-159.012965 31.306942-199.448992 76.143136-17.47423 19.370854-38.792285 77.179957-22.051416 354.264095 9.027931 149.60571 25.288321 293.344529 25.46534 294.710098l0.682784 6.170351 4.400168 4.374879c3.944978 3.91969 41.295829 38.311807 139.717976 38.311807 9.179661 0 18.738646-0.30346 28.398785-0.910379 73.336132-4.627763 130.538315-29.106858 165.082163-70.8073 28.904551-34.897884 40.233719-79.278888 33.658755-131.929173-6.903712-55.179117-28.17119-85.980293-46.935124-113.29168-23.239967-33.734621-43.318895-62.866767-39.576223-136.278764 2.528832-48.047811 19.421431-48.047811 25.01015-48.047811 33.127701 0 91.037957 51.790482 107.323636 71.490085a22.177858 22.177858 0 0 0 17.044329 8.395722c5.866891 0 16.665004-2.528832 22.987084-19.042106 7.586496-19.800756 10.368212-64.63695-1.390858-116.326278-9.811869-42.990146-33.001259-104.693651-87.876917-153.803571-46.429358-41.523424-106.084508-63.498975-172.542217-63.498976z" p-id="155998"></path><path d="M908.495592 462.978589c-10.798113-12.998197-58.820636-60.287358-100.116465-74.044205a744.766355 744.766355 0 0 0 78.747833-114.834268c53.864125 97.638209 36.845084 207.465389 21.368632 188.878473z" fill="#F2ECDF" p-id="155999"></path><path d="M597.676833 288.033981S651.465093 198.159287 628.14926 124.342677c-19.649026-61.931099-6.77727-107.247771-17.701825-114.859556S509.850493 64.384066 494.6775 152.210407" fill="#DBAD3B" p-id="156000"></path><path d="M605.263329 292.585879l-15.172992-9.103796c0.505766-0.859803 51.512311-87.396439 29.612624-156.458844-11.45561-36.1623-12.214259-67.140493-12.644161-87.649323a139.389228 139.389228 0 0 0-1.441434-21.216901c-18.409898 5.411701-89.166621 60.818413-102.114242 135.545403l-17.448942-3.009311C499.229398 74.246512 565.4848 15.754624 596.51357 2.781715c5.285259-2.200084 12.998197-4.678339 18.915665-0.581631 8.496876 5.892179 8.775048 17.499518 9.255525 36.718643 0.505766 20.685847 1.188551 48.983479 11.885511 82.743387 10.115329 31.964438 7.889956 71.742968-6.499098 115.011286a307.151952 307.151952 0 0 1-24.807844 55.912479z" p-id="156001"></path><path d="M548.187588 51.208851a61.678216 61.678216 0 0 1 27.994172 22.759489A541.524115 541.524115 0 0 1 603.417282 20.989307a5.816314 5.816314 0 0 0-7.586496-8.041686c-12.467142 6.296792-30.345986 19.649026-47.643198 38.26123z" p-id="156002"></path><path d="M536.504383 204.405502a5.993332 5.993332 0 0 0 1.112687 4.425456l2.023065 2.528833 52.675574 69.492307a5.765737 5.765737 0 0 0 9.685427-0.783938c12.290124-23.442274 45.518979-95.084089 26.122836-155.851925-14.793668-46.732818-11.101573-84.033092-13.09935-102.771738a5.765737 5.765737 0 0 0-10.69696-2.250661C589.255822 44.760329 550.311807 116.958487 536.504383 204.405502z" fill="#DBAD3B" p-id="156003"></path><path d="M596.892895 292.105401a14.515497 14.515497 0 0 1-11.632628-5.791026L530.586916 214.166794a14.61665 14.61665 0 0 1-2.807003-11.126861c13.858-88.382683 52.827303-161.086608 68.935964-188.246265a14.641938 14.641938 0 0 1 15.729336-6.827847 14.363767 14.363767 0 0 1 11.379744 12.644161c0.531055 5.057664 0.682785 11.202726 0.859803 18.308745 0.505766 20.660559 1.188551 48.95819 11.885511 82.718099 6.650829 20.93873 17.347789 78.722545-26.755044 162.654484a14.490208 14.490208 0 0 1-11.708493 7.738226 9.736004 9.736004 0 0 1-1.213839 0.075865z m-51.436446-87.598746l50.93068 67.191071c12.391278-24.681402 40.587756-90.203443 23.315832-144.674487-11.45561-36.1623-12.214259-67.140493-12.644161-87.649323 0-2.326526 0-4.551898-0.177018-6.62554-17.524807 31.02877-49.160497 95.286395-61.425333 171.758279z" p-id="156004"></path><path d="M582.427975 218.137061c11.480898-29.208011 22.759489-71.56595 11.30388-107.627096-4.22315-13.352234-4.678339-27.134369-6.62554-38.817574C574.639172 101.153286 557.316672 139.085768 550.311807 179.167757z" fill="#F4EBD9" p-id="156005"></path><path d="M494.6775 152.210407l41.447559 54.648062a515.679451 515.679451 0 0 1 35.10019-121.383943c1.643741-3.894402 3.31277-7.586496 5.057664-11.354456a61.678216 61.678216 0 0 0-27.994172-22.759489c-3.413923 3.666807-6.77727 7.586496-10.115328 11.582051-19.851332 23.872175-37.477292 54.597486-43.495913 89.267775z" fill="#DBAD3B" p-id="156006"></path><path d="M541.764354 228.909886l-56.418245-74.42353 0.657497-3.793249c6.954288-40.309584 28.424073-73.108537 45.215518-93.566789 3.439212-4.172573 6.979577-8.193416 10.494654-12.011953l4.197861-4.501321 5.689872 2.377102a70.073939 70.073939 0 0 1 31.93915 26.122836l2.680562 4.020844-1.9472 4.450744c-1.618453 3.641518-3.262193 7.38419-4.880646 11.228015a500.961648 500.961648 0 0 0-34.493271 119.3103z m-37.629022-78.924852l26.780332 35.40365a532.774356 532.774356 0 0 1 32.166745-103.328081c0.986245-2.301237 1.947201-4.577186 2.933446-6.802558a52.11923 52.11923 0 0 0-15.67876-13.149928c-1.846047 2.073642-3.666807 4.22315-5.462277 6.397946-14.793668 18.030573-33.785197 46.656953-40.739486 81.478971z" p-id="156007"></path><path d="M312.601585 484.448374s-91.720742-17.524807-177.271133 186.197911S256.233917 596.804386 256.233917 596.804386" fill="#DBAD3B" p-id="156008"></path><path d="M120.005729 754.426493a13.40281 13.40281 0 0 1-6.878423-1.972489c-12.922332-7.358902-9.230237-29.663201 14.110883-85.221643 87.320574-207.945867 183.036871-192.191243 187.133579-191.48317L311.084286 493.122268c-0.202307 0-21.343343-3.287482-52.11923 16.665004-52.751439 34.215099-91.872472 108.208727-115.415899 164.374089-16.209814 38.589979-19.623737 54.622774-20.078928 61.046008 18.055862-9.988887 71.768256-71.11076 125.65767-143.561801l14.212036 10.570519c-0.30346 0.404613-30.168967 40.461314-62.108117 78.671968-50.753661 60.540242-70.453264 73.538439-81.226089 73.538438z" p-id="156009"></path><path d="M170.177759 699.525548C129.842886 746.005482 91.37935 779.917121 131.764799 683.720347q3.085175-7.308325 6.17035-14.212037a85.42395 85.42395 0 0 0 12.821179 17.550095 65.749636 65.749636 0 0 0 19.421431 12.467143z" p-id="156010"></path><path d="M451.13101 484.448374s91.695454-17.524807 177.245845 186.197911-120.852888-73.841899-120.852888-73.841899" fill="#DBAD3B" p-id="156011"></path><path d="M643.878596 754.426493c-10.772825 0-30.345986-12.972909-81.2008-73.614303-31.964438-38.160077-61.829946-78.393796-62.133406-78.671968l14.212037-10.570519c53.889413 72.451041 107.601808 133.572914 125.682958 143.561801-0.480478-6.423234-3.894402-22.456029-20.230658-61.046008-23.543427-56.064209-62.664461-130.057837-115.415899-164.374089-30.750599-19.952486-51.891636-16.690292-52.093942-16.665004l-3.236905-17.398365c4.020843-0.75865 99.73714-16.487986 187.133579 191.48317 23.315832 55.634307 27.007927 77.862742 14.085595 85.221643a13.40281 13.40281 0 0 1-6.802559 2.073642z" p-id="156012"></path><path d="M612.900403 687.058405a85.42395 85.42395 0 0 0 12.922332-17.550095q3.110464 6.903712 6.17035 14.212037c40.461314 96.095621 1.921912 62.361001-38.41296 15.805201a65.749636 65.749636 0 0 0 19.320278-12.467143z" p-id="156013"></path><path d="M441.572025 981.186872a25.288321 25.288321 0 0 1-22.961796-15.172993c-7.131307-16.260391-21.065172-26.375719-36.339318-26.375719s-29.208011 10.115329-36.31403 26.375719a25.288321 25.288321 0 0 1-22.987084 15.172993 24.529672 24.529672 0 0 1-12.138394-3.262194l-0.404613-0.227595a24.833132 24.833132 0 0 1-12.315413-19.2697c-2.351814-25.844665-16.235102-48.80646-36.212876-59.857457-28.196478-15.628183-49.41338-43.571778-58.163139-76.674191a375.177537 375.177537 0 0 1-12.290125-96.095621c0-25.7688 10.115329-49.666263 19.750179-72.754501a304.092065 304.092065 0 0 0 12.163683-32.040303c14.995975-51.132986 34.897884-91.037957 59.174672-118.855111 27.817154-31.78742 61.324179-47.921369 99.813005-47.921369 73.791322 0 129.223323 59.478132 160.30267 171.960585a272.734547 272.734547 0 0 0 12.062529 32.015015c9.103796 21.495073 18.53634 43.698219 18.53634 67.64626a374.064851 374.064851 0 0 1-12.290125 96.095622c-8.775048 33.102413-29.991949 61.046008-58.163139 76.67419-19.977774 11.050996-33.861062 34.012792-36.212876 59.857457a24.85842 24.85842 0 0 1-12.416566 19.143259l-0.429902 0.252884A24.453807 24.453807 0 0 1 441.572025 981.186872z" fill="#DBAD3B" p-id="156014"></path><path d="M382.321488 462.978589c76.724767 0 124.974885 68.531351 151.729928 165.512064 8.319858 30.067814 30.345986 62.917344 30.345986 97.284172a366.680661 366.680661 0 0 1-11.986664 93.870249c-8.395723 31.610402-28.247055 56.974588-53.914702 71.186625-22.127281 12.264836-38.058924 37.249697-40.764774 66.837034a15.956931 15.956931 0 0 1-8.016398 12.264836l-0.354036 0.202306a15.375299 15.375299 0 0 1-7.586497 2.073643 16.386832 16.386832 0 0 1-14.869533-9.913022c-8.218704-18.814511-25.035438-31.686267-44.43158-31.686267s-36.187588 12.871756-44.431581 31.686267a16.386832 16.386832 0 0 1-14.869533 9.913022 15.375299 15.375299 0 0 1-7.712938-2.073643l-0.354037-0.202306a15.956931 15.956931 0 0 1-8.016398-12.264836c-2.70585-29.587336-18.612205-54.572198-40.764774-66.811745a114.100906 114.100906 0 0 1-53.914701-71.211914 366.680661 366.680661 0 0 1-12.138394-93.870249c0-36.288741 22.354876-70.8073 31.559825-102.29126 27.640135-94.325439 75.081026-160.504976 150.490801-160.504976m0-17.701825c-41.144099 0-76.97765 17.145482-106.489122 50.930679-25.111303 28.77811-45.518979 69.922209-60.995431 122.294323a306.949646 306.949646 0 0 1-11.834935 31.104635c-9.558986 22.759489-20.432964 48.604154-20.432963 76.168424a383.800854 383.800854 0 0 0 12.64416 98.422147c9.381967 35.40365 32.141457 65.345023 62.436866 82.136468 17.448942 9.660139 29.612624 29.941373 31.711555 52.928457a33.633468 33.633468 0 0 0 16.791445 25.996395l0.379325 0.202306a33.102413 33.102413 0 0 0 16.538563 4.450745 34.063369 34.063369 0 0 0 31.079347-20.508829c5.689872-13.023486 16.513274-21.09046 28.221766-21.09046s22.531894 8.066975 28.221767 21.09046a34.063369 34.063369 0 0 0 30.978194 20.508829 33.330008 33.330008 0 0 0 16.538562-4.425457l0.252883-0.151729a33.684044 33.684044 0 0 0 16.842022-25.996395c2.098931-22.987084 14.237325-43.268318 31.686267-52.928457 30.345986-16.791445 53.105475-46.732818 62.462154-82.136468a383.800854 383.800854 0 0 0 12.644161-98.422147c0-25.743511-10.115329-49.843282-19.244413-71.11076a266.817079 266.817079 0 0 1-11.683204-30.902328c-22.481318-81.428395-70.04865-178.484973-168.824834-178.484973z" p-id="156015"></path><path d="M441.572025 981.186872a25.288321 25.288321 0 0 1-22.961796-15.172993c-7.131307-16.260391-21.065172-26.375719-36.339318-26.375719s-29.208011 10.115329-36.31403 26.375719a25.288321 25.288321 0 0 1-22.987084 15.172993 24.529672 24.529672 0 0 1-12.138394-3.262194l-0.404613-0.227595a24.833132 24.833132 0 0 1-12.315413-19.2697c-2.351814-25.844665-16.235102-48.80646-36.212876-59.857457-28.196478-15.628183-49.41338-43.571778-58.163139-76.674191a375.177537 375.177537 0 0 1-12.290125-96.095621c0-25.7688 10.115329-49.666263 19.750179-72.754501a304.092065 304.092065 0 0 0 12.163683-32.040303c14.995975-51.132986 34.897884-91.037957 59.174672-118.855111 27.817154-31.78742 61.324179-47.921369 99.813005-47.921369 73.791322 0 129.223323 59.478132 160.30267 171.960585a272.734547 272.734547 0 0 0 12.062529 32.015015c9.103796 21.495073 18.53634 43.698219 18.53634 67.64626a374.064851 374.064851 0 0 1-12.290125 96.095622c-8.775048 33.102413-29.991949 61.046008-58.163139 76.67419-19.977774 11.050996-33.861062 34.012792-36.212876 59.857457a24.85842 24.85842 0 0 1-12.416566 19.143259l-0.429902 0.252884A24.453807 24.453807 0 0 1 441.572025 981.186872z" fill="#DBAD3B" p-id="156016"></path><path d="M382.321488 462.978589c76.724767 0 124.974885 68.531351 151.729928 165.512064 8.319858 30.067814 30.345986 62.917344 30.345986 97.284172a366.680661 366.680661 0 0 1-11.986664 93.870249c-8.395723 31.610402-28.247055 56.974588-53.914702 71.186625-22.127281 12.264836-38.058924 37.249697-40.764774 66.837034a15.956931 15.956931 0 0 1-8.016398 12.264836l-0.354036 0.202306a15.375299 15.375299 0 0 1-7.586497 2.073643 16.386832 16.386832 0 0 1-14.869533-9.913022c-8.218704-18.814511-25.035438-31.686267-44.43158-31.686267s-36.187588 12.871756-44.431581 31.686267a16.386832 16.386832 0 0 1-14.869533 9.913022 15.375299 15.375299 0 0 1-7.712938-2.073643l-0.354037-0.202306a15.956931 15.956931 0 0 1-8.016398-12.264836c-2.70585-29.587336-18.612205-54.572198-40.764774-66.811745a114.100906 114.100906 0 0 1-53.914701-71.211914 366.680661 366.680661 0 0 1-12.138394-93.870249c0-36.288741 22.354876-70.8073 31.559825-102.29126 27.640135-94.325439 75.081026-160.504976 150.490801-160.504976m0-17.701825c-41.144099 0-76.97765 17.145482-106.489122 50.930679-25.111303 28.77811-45.518979 69.922209-60.995431 122.294323a306.949646 306.949646 0 0 1-11.834935 31.104635c-9.558986 22.759489-20.432964 48.604154-20.432963 76.168424a383.800854 383.800854 0 0 0 12.64416 98.422147c9.381967 35.40365 32.141457 65.345023 62.436866 82.136468 17.448942 9.660139 29.612624 29.941373 31.711555 52.928457a33.633468 33.633468 0 0 0 16.791445 25.996395l0.379325 0.202306a33.102413 33.102413 0 0 0 16.538563 4.450745 34.063369 34.063369 0 0 0 31.079347-20.508829c5.689872-13.023486 16.513274-21.09046 28.221766-21.09046s22.531894 8.066975 28.221767 21.09046a34.063369 34.063369 0 0 0 30.978194 20.508829 33.330008 33.330008 0 0 0 16.538562-4.425457l0.252883-0.151729a33.684044 33.684044 0 0 0 16.842022-25.996395c2.098931-22.987084 14.237325-43.268318 31.686267-52.928457 30.345986-16.791445 53.105475-46.732818 62.462154-82.136468a383.800854 383.800854 0 0 0 12.644161-98.422147c0-25.743511-10.115329-49.843282-19.244413-71.11076a266.817079 266.817079 0 0 1-11.683204-30.902328c-22.481318-81.428395-70.04865-178.484973-168.824834-178.484973z" p-id="156017"></path><path d="M339.912973 958.098634c-0.708073 1.365569-1.390858 2.756427-2.023066 4.197862a16.032796 16.032796 0 0 1-22.582471 7.839379l-0.354037-0.202306a16.032796 16.032796 0 0 1-8.016398-12.264836c-0.227595-2.377102-0.505766-4.728916-0.910379-7.030153 8.699183 2.301237 19.826044 4.855358 33.886351 7.460054zM424.730003 958.098634c0.708073 1.365569 1.390858 2.756427 2.023065 4.197862a16.032796 16.032796 0 0 0 22.582471 7.839379l0.354037-0.202306a16.032796 16.032796 0 0 0 8.016398-12.264836c0.227595-2.377102 0.505766-4.728916 0.910379-7.030153-8.699183 2.301237-19.826044 4.855358-33.88635 7.460054z" p-id="156018"></path><path d="M502.795051 721.981577c0 124.722001-53.93999 131.296965-120.473563 131.296965s-120.473563-6.574964-120.473564-131.296965 53.93999-225.875287 120.473564-225.875287 120.473563 101.127997 120.473563 225.875287z" fill="#F2ECDF" p-id="156019"></path><path d="M385.128491 504.324994c-103.530388 0-175.551527-36.389895-217.732447-66.912898-45.923592-33.254143-67.064628-66.305979-67.94972-67.696837l-4.728916-7.586496 7.586496-4.728916c28.92984-18.055862 61.829946-44.026968 64.561085-54.471044 14.76838-56.671128 41.118811-105.60403 76.219001-141.614601 39.6268-40.461314 88.762008-61.981676 142.095078-61.981675s102.645297 21.419208 142.474403 61.956387c34.897884 35.40365 62.108117 85.803275 76.648902 141.6146 3.085175 11.834934 36.061146 39.121033 58.517176 54.723928l5.614007 3.894401-2.377102 6.423234c-0.505766 1.441434-13.326945 35.40365-54.825081 69.062406-68.329045 55.659595-160.681994 67.317512-226.102882 67.317511z" fill="#DBAD3B" p-id="156020"></path><path d="M385.128491 108.335169c109.52372 0 183.365619 92.529968 210.550565 196.894871 5.310548 20.230657 62.032252 59.756304 62.032252 59.756303s-48.047811 130.487739-272.582817 130.487739c-195.832761 0-278.171536-130.487739-278.171535-130.487739s63.220804-39.399205 68.455486-59.756303c27.184946-104.364903 100.217618-196.894871 209.741338-196.894871m0-17.701825c-55.811325 0-107.12133 22.354876-148.417159 64.63695C200.574321 192.191243 173.515818 242.515003 158.342825 300.576989c-3.338058 8.218704-31.63569 31.231077-60.691972 49.388091l-15.172993 9.432544 9.483121 15.046552c0.91038 1.441434 22.961796 35.909416 70.250957 70.124515 43.24303 31.306942 117.009063 68.607216 222.916553 68.607216 53.105475 0 101.153286-7.181883 142.98017-21.318055a284.417751 284.417751 0 0 0 88.660855-47.896081c43.344183-35.277208 56.999877-71.313066 57.556219-72.830366l4.728916-12.871755-11.253303-7.814092c-26.653891-18.511051-52.372114-41.776307-55.027387-49.767416-15.07184-57.910256-42.231497-108.309881-78.848986-145.433137-41.548712-42.282073-92.985158-64.611661-148.796484-64.611661z" p-id="156021"></path><path d="M657.711308 364.986343s-48.047811 130.487739-272.582817 130.487739c-195.832761 0-278.171536-130.487739-278.171535-130.487739h0.227594l47.415603-3.110463a76.370731 76.370731 0 0 1 19.724891 3.135752c22.456029 7.586496 39.576223 27.817154 85.550391 27.817153 41.675154 0 54.369891-37.780752 105.325859-44.861482l16.993752-1.112686 16.993752 1.112686c50.981256 7.08073 63.675993 44.861482 105.351147 44.861482 45.974168 0 63.094362-20.230657 85.550392-27.817153a76.370731 76.370731 0 0 1 19.72489-3.135752l47.415603 3.110463z" fill="#F2ECDF" p-id="156022"></path><path d="M277.779567 301.891981m-33.15299 0a33.152989 33.152989 0 1 0 66.305979 0 33.152989 33.152989 0 1 0-66.305979 0Z" p-id="156023"></path><path d="M291.157089 313.575186a7.864668 7.864668 0 1 1 7.864668-7.864668 7.864668 7.864668 0 0 1-7.864668 7.864668z" fill="#E5E1D8" p-id="156024"></path><path d="M486.863408 301.891981m-33.152989 0a33.152989 33.152989 0 1 0 66.305979 0 33.152989 33.152989 0 1 0-66.305979 0Z" p-id="156025"></path><path d="M410.138641 375.708592c0 15.350011-16.386832 24.327365-27.817153 24.327365-10.115329 0-27.817154-8.977354-27.817154-24.327365 0-12.644161 12.441854-14.338478 27.817154-14.338479s27.817154 3.363347 27.817153 14.338479z" fill="#282725" p-id="156026"></path><path d="M468.402934 313.575186a7.864668 7.864668 0 1 1 7.864668-7.864668 7.83938 7.83938 0 0 1-7.864668 7.864668z" fill="#E5E1D8" p-id="156027"></path><path d="M382.321488 435.414319c-21.54565 0-29.991949-5.968044-30.877041-6.650829a5.057664 5.057664 0 0 1 6.069197-8.092263c0.278172 0.202307 7.131307 4.627763 24.807844 4.627763s24.757267-4.577186 24.833131-4.627763a5.057664 5.057664 0 0 1 7.004865 1.137975 5.057664 5.057664 0 0 1-0.960956 6.954288c-0.885091 0.682785-9.331391 6.650829-30.87704 6.650829z" p-id="156028"></path></svg>