<?xml version="1.0" standalone="no"?><!DOCTYPE svg PUBLIC "-//W3C//DTD SVG 1.1//EN" "http://www.w3.org/Graphics/SVG/1.1/DTD/svg11.dtd"><svg t="1649681496935" class="icon" viewBox="0 0 1024 1024" version="1.1" xmlns="http://www.w3.org/2000/svg" p-id="134122" xmlns:xlink="http://www.w3.org/1999/xlink" width="200" height="200"><defs><style type="text/css">@font-face { font-family: "feedback-iconfont"; src: url("//at.alicdn.com/t/font_1031158_u69w8yhxdu.woff2?t=1630033759944") format("woff2"), url("//at.alicdn.com/t/font_1031158_u69w8yhxdu.woff?t=1630033759944") format("woff"), url("//at.alicdn.com/t/font_1031158_u69w8yhxdu.ttf?t=1630033759944") format("truetype"); }
</style></defs><path d="M701 755.8c0 59.5-85 71.4-189.9 71.4s-189.9-11.9-189.9-71.4c0-59.5 85-144 189.9-144S701 696.4 701 755.8z" fill="" p-id="134123"></path><path d="M185.548237 616.232033a111.7 95.8 52.46 1 0 151.925033-116.744782 111.7 95.8 52.46 1 0-151.925033 116.744782Z" fill="" p-id="134124"></path><path d="M309.979813 404.875997a149.9 109.4 66.242 1 0 200.257845-88.148938 149.9 109.4 66.242 1 0-200.257845 88.148938Z" fill="" p-id="134125"></path><path d="M185.548237 616.232033a111.7 95.8 52.46 1 0 151.925033-116.744782 111.7 95.8 52.46 1 0-151.925033 116.744782Z" fill="" p-id="134126"></path><path d="M609.533805 517.590355a95.8 129.3 23.327 1 0 102.39998-237.462006 95.8 129.3 23.327 1 0-102.39998 237.462006Z" fill="" p-id="134127"></path><path d="M695.613505 642.25753a69.1 89 49.998 1 0 136.351917-114.420954 69.1 89 49.998 1 0-136.351917 114.420954Z" fill="" p-id="134128"></path><path d="M531 911.4h-4.8c-92.3-0.5-189.5-16.2-215.8-26.9-52-21-64.6-67.9-73.8-102.1-9.1-33.8-13.2-41-24.4-42.7-47.7-7-85.1-38.9-108.3-92.1-9.1-20.8-14.2-41-16.9-55-2-10 5.1-19.5 15.2-20.5l23.2-2.3c8.8-0.9 16.8 5 18.6 13.7 6.1 29.4 25 91.6 76.7 99.3 23.2 3.4 41.2 15.4 53.4 35.6 9.1 15 13.7 32.3 18.2 49.1 8.9 33.1 15.6 53.9 39.7 63.6 14 5.6 102.6 22.2 194.6 22.7 104.6 0.6 174.6-19.6 192.2-55.4 5.7-11.5 10.6-21.5 14.9-30.4 15.8-32.4 23.7-48.7 32.2-59.7 12.4-16.2 25.2-20.4 39.6-23.8 25-6 63.7-51.2 78.1-102.6 7.2-25.6 6.1-47.1-2.9-56.1-11-11-21.7-20.4-32-29.4-17.9-15.6-33.4-29.1-44.3-46.2-13.6-21.1-17.5-44.1-12.1-70.2 6.8-33 0.1-69.6-17.6-95.5-9.5-14-26.9-31.8-56-36.8-29.1-5.1-60.2-1.3-87.6 2.1-33.8 4.2-60.5 7.4-80.1-6.8-113.8-82.8-199.4-96.1-254.3-39.7-59 60.6-29.4 187.7-29.1 189l3.1 12.9c2.4 10.1-4.6 20.1-15 21.1l-13 1.3c-0.7 0.1-74.7 9.1-93.1 58.6-2.8 7.6-10.6 12.2-18.6 11l-23.4-3.5c-10.5-1.6-17.1-12.2-13.9-22.3 11.1-35.3 37.6-63.5 77.5-82.1 7.5-3.5 14.9-6.4 21.9-8.7 7.6-2.6 12.5-10.1 11.6-18.1-5.5-53-4.7-142.4 50.8-199.5 49.1-50.5 116-64.3 193.5-39.9 52.7 16.6 99 46.7 130.7 69.4 2.9 2.1 6.5 3.3 10.1 3.2 9.1-0.1 23.8-1.9 34.4-3.2 29.9-3.7 67.1-8.2 104.6-1.7 38.7 6.8 71.1 27.9 93.7 61.2 26.5 39 36.3 91.1 26.3 139.5-4.5 21.8 2.6 30.5 37.9 61.3 10.5 9.2 22.5 19.6 34.9 32 24.8 24.8 31 64.7 17.6 112.5-8.7 30.8-24.7 62.2-45.2 88.2-16.2 20.7-42.4 47-74.9 54.8-4.6 1.1-8.5 4-10.8 8.1-5.2 8.9-13.2 25.3-22.7 44.8-4.3 8.9-9.3 19-15 30.6-28.8 58.2-109.4 87.6-239.6 87.6z" fill="" p-id="134129"></path><path d="M126.2 555.3l-33.3 2.6c-6 0-8.8-7.4-8.8-13.4v-20.8c0-2.4 0.8-5.4 2.2-8.2 2.5-5.1 8.2-7.9 13.8-7l25.4 4.2c0.5 0.1 1 0.1 1.5 0.1 5.6 0.4 10.1 5.1 10.1 10.8v20.8c-0.1 6-4.9 10.9-10.9 10.9z" fill="" p-id="134130"></path></svg>