<svg xmlns="http://www.w3.org/2000/svg" viewBox="0 0 68.5 50.89"><defs><style>.cls-1{isolation:isolate;}.cls-2,.cls-3,.cls-5,.cls-7{fill:#3c3c3c;}.cls-3{opacity:0.2;mix-blend-mode:multiply;}.cls-4{fill:#f37721;}.cls-5{opacity:0.6;}.cls-5,.cls-7{mix-blend-mode:screen;}.cls-6{fill:#f9b332;}</style></defs><title>资源 7</title><g class="cls-1"><g id="图层_2" data-name="图层 2"><g id="Layer_1" data-name="Layer 1"><path class="cls-2" d="M68.5,41.81c0,9.23-15.33,9.08-34.25,9.08S0,51,0,41.81,15.33,23.17,34.25,23.17,68.5,32.57,68.5,41.81Z"/><path class="cls-3" d="M58.57,29.08c4.22,3,6.74,6.62,6.74,10.22,0,8.55-14.18,8.4-31.69,8.4s-31.69.15-31.69-8.4a10,10,0,0,1,2.19-5.9C1.49,36,0,38.92,0,41.81,0,51,15.33,50.89,34.25,50.89S68.5,51,68.5,41.81C68.5,37.21,64.71,32.58,58.57,29.08Z"/><path class="cls-2" d="M51.63,31.17C49.59,16.33,43.83,9.92,35.15,4c-8.88-6-17-4.1-20.07-1.61C8.66,7.13,2.14,21.77,6.88,23s10.67-6,11.55-4.58c.67,1.11-.71,8.78-1.38,12.21a4.44,4.44,0,0,0-.32,1.65c0,4.72,7.84,8.56,17.52,8.56S51.77,37,51.77,32.25A4.32,4.32,0,0,0,51.63,31.17Z"/><path class="cls-3" d="M51.77,32.25a4.32,4.32,0,0,0-.14-1.08C49.59,16.33,43.83,9.92,35.15,4a24.68,24.68,0,0,0-4.93-2.62,21.52,21.52,0,0,1,7.64,13.73C39,25,22.42,24.58,18.14,24.32c-.33,2.29-.78,4.73-1.09,6.28a4.44,4.44,0,0,0-.32,1.65c0,4.72,7.84,8.56,17.52,8.56S51.77,37,51.77,32.25Z"/><path class="cls-4" d="M50.26,24.26c-2.74,3-8.87,5.08-16,5.08s-13.39-2.13-16.09-5.17c-.34,2.34-1.43,7.51-1.43,8.08,0,4.72,7.84,8.56,17.52,8.56S51.78,37,51.77,32.25A42.7,42.7,0,0,0,50.26,24.26Z"/><path class="cls-3" d="M51.77,32.25a4.32,4.32,0,0,0-.14-1.08A45.68,45.68,0,0,0,48.22,18.5c5.33,20.64-17.43,21.22-24.78,18.84-4-1.29-5.81-3-6.64-4.32.8,4.36,8.3,7.79,17.45,7.79C43.93,40.81,51.77,37,51.77,32.25Z"/><path class="cls-5" d="M16.43,2.62c1.63-.91,7.13-2.43,10.68-.76s-20.31,15-17.69,9.8S14.46,3.71,16.43,2.62Z"/><path class="cls-3" d="M34.65,43c-1.44,0-5-.13-6.75-1.29-2.35-1.53-2.43-5.51-2.4-6.69s.25-4.47,2-5.51,5.44-1.06,7-1.06,5.7.11,7.12,1.12c1.69,1.2,1.88,5,1.91,6.17,0,1.65-.15,4.58-1.66,5.74C40.07,42.91,35.89,43,34.65,43Zm-.11-12c-3.08,0-5.13.37-5.72.71a7.42,7.42,0,0,0-.76,4.36c.1,1.71.59,3.08,1.23,3.5s2.59.88,5.36.88,5.06-.5,5.71-1A5.1,5.1,0,0,0,41,36.64c.1-2.61-.5-4.66-.84-5A17.16,17.16,0,0,0,34.54,31Z"/><path class="cls-6" d="M34,42.38c-1.43,0-5-.13-6.75-1.29-2.35-1.53-2.43-5.5-2.4-6.69,0-1,.25-4.47,2-5.51s5.44-1.06,7-1.06S39.6,27.94,41,29c1.68,1.19,1.88,5,1.9,6.16,0,1.65-.15,4.59-1.66,5.74C39.43,42.27,35.25,42.38,34,42.38Zm-.11-12c-3.08,0-5.12.37-5.72.72-.32.27-.89,2-.76,4.35.11,1.71.59,3.08,1.24,3.51s2.58.87,5.35.87,5.07-.5,5.71-1A5.09,5.09,0,0,0,40.37,36c.11-2.6-.5-4.66-.84-5S37.06,30.38,33.9,30.38Z"/><path class="cls-5" d="M11.11,37.33C8.52,39.92,5.42,41,4.18,39.78S4,35.43,6.62,32.84s5.7-3.69,6.94-2.44S13.7,34.74,11.11,37.33Z"/><path class="cls-7" d="M27.89,30.73c-.64.65-1.42.92-1.73.61s0-1.09.61-1.73,1.42-.92,1.73-.62S28.54,30.08,27.89,30.73Z"/><path class="cls-7" d="M41.14,40.19c-.65.65-1.42.93-1.73.62s0-1.09.61-1.74,1.42-.92,1.73-.61S41.79,39.55,41.14,40.19Z"/><path class="cls-7" d="M27.13,32.69a.87.87,0,1,1-.87-.86A.87.87,0,0,1,27.13,32.69Z"/><path class="cls-7" d="M42.49,37.17a.87.87,0,1,1-.87-.87A.86.86,0,0,1,42.49,37.17Z"/></g></g></g></svg>