<?xml version="1.0" encoding="utf-8"?>
<!-- Generator: Adobe Illustrator 25.2.3, SVG Export Plug-In . SVG Version: 6.00 Build 0)  -->
<svg version="1.1" id="_18" xmlns="http://www.w3.org/2000/svg" xmlns:xlink="http://www.w3.org/1999/xlink" x="0px" y="0px"
	 viewBox="0 0 1024 1024" style="enable-background:new 0 0 1024 1024;" xml:space="preserve">
<style type="text/css">
	.st0{fill:#FCF0AA;}
	.st1{fill:#ACD8F8;}
	.st2{fill:#FEA8D8;}
	.st3{fill:#D8EDAB;}
	.st4{fill:#F7D7A8;}
	.st5{fill:#83769C;}
	.st6{fill:#FFFFFF;}
</style>
<g>
	<g>
		<path class="st0" d="M517.9,607.3c-2.5,17.9-2.5,36-1.8,54c1.5,38.8,0,77.6,1.2,116.4c0.2,8.5-2.9,16.5-1.4,24.9
			c0.5,2.7-1.3,3.1-3.6,3.4c-11.4,1.5-22.6-2.2-33.9-1.2c-2.7,0.2-3.3-1.7-3.3-3.9c0-8.5-1.4-17.3,0.2-25.4
			c4-20.6-1.2-41.1,0.9-61.5c2.2-22,2.4-44,1.6-66c-0.7-18.8-0.3-37.6-0.8-56.4c-0.1-4.1,1.1-5.6,5.3-5.6c9.2,0.1,18.2,2.3,27.5,2.4
			c8.1,0.1,8,1.3,8.1,9.5C517.9,601,517.9,604.2,517.9,607.3z"/>
		<path class="st1" d="M471,697.7c0,13.5,0.1,23.8,0,34.2c0,3.9,0.5,7.7-1.6,11.6c-1.4,2.6,0.3,6.2,0.3,9.3
			c0.3,16.3,0.2,32.6,0.2,49c0,2.4-1,3.2-3.3,3.2c-10.7,0-21.3,0-32,0.1c-2.5,0-3.6-0.7-3.6-3.4c0.1-10.5-1.7-21.3,0.4-31.4
			c2.7-12.9-0.8-25.4,0.7-38c2.7-23.6,0.8-47.3,2.2-70.9c1.2-19.5,0.1-39,0.7-58.5c0.3-8.3,0.1-8.2,8.1-10.9
			c8.2-2.7,16.4-3.9,25.1-3.9c4.3,0,6.2,1.2,5.7,5.7c-2,16.2-2.3,32.6-1.9,48.9C472.5,662,469.4,681.4,471,697.7z"/>
		<path class="st2" d="M427,690c0,11.9-0.4,20.9,0.1,29.9c0.3,5.1-2.6,9.3-2.2,14.5c1.4,21.6,0.8,43.2,1.2,64.9
			c0.1,4.8-1.4,5.8-5.9,5.8c-8.6-0.1-17.3,0.3-25.9,0.8c-3.9,0.2-5.3-1.2-5.2-5.1c0.1-15.7-0.6-31.3,0.1-47
			c1.6-34,0.7-67.9,0.8-101.9c0-7.3-1.1-14.6-0.8-21.9c0.1-1.8,0.1-3.5,1.6-5c9.6-10,19.3-19.8,32.4-25.5c5.3-2.3,6.9-1.6,6.8,4.2
			c-0.2,14.3-2.7,28.5-2,42.9C428.7,662,425.5,677.4,427,690z"/>
		<path class="st3" d="M522.1,740.9c0-5.3-0.8-10.8,0.1-16c4-21.1,1.7-42.3,1.4-63.4c-0.4-21.5,0.1-42.9-0.7-64.3
			c-0.2-4.9,1.9-5.8,5.8-5.2c8.7,1.4,17.2,3.9,25,8c2.2,1.2,7.2-0.5,6.2,5c-0.5,2.8,0.8,5.9-1.4,8.6c-0.9,1.1-0.6,3.2-0.5,4.8
			c0.3,22.3,2.4,44.7,0.4,66.8c-2.1,23.1-1.1,46-1.1,68.9c0,15.6,0.2,31.2,0.7,46.9c0.1,3.7-0.9,5-4.7,4.9c-8.6-0.2-17.3-0.2-26,0
			c-3.2,0.1-4.4-0.9-4.3-4.2c0.2-6.3,0-12.7,0-19c0-14,0-27.9,0-41.9C522.7,740.9,522.4,740.9,522.1,740.9z"/>
		<path class="st4" d="M579.2,807.8c-3.8,0-7.7-0.2-11.5,0.1s-4.8-1.2-4.7-4.8c0.1-16.8-0.5-33.6,0.1-50.4
			c1.3-34.1,1.2-68.2,0.7-102.3c-0.2-12.8-0.4-25.6-0.8-38.4c-0.1-4.5,1.7-5.5,5.5-5c3.7,0.5,6.9,2.3,9.9,4.2
			c6.5,4.1,12.6,8.7,19,13c4.4,3,6.1,8.1,3.7,12.8c-1,2-1,3.7-0.9,5.7c0.4,7.5,2.1,15.1-1.2,22.5c-0.7,1.6-0.2,3.6-0.2,5.4
			c0,11,1,22.1-0.3,32.9c-1.1,9.2-2,18.3-1.5,27.5c1,20.6,0.5,41.2,1,61.8c0.1,4.6-2.7,8.4-2.4,12.9c0.1,1.8-1.9,2-3.5,2
			C587.8,807.8,583.5,807.8,579.2,807.8L579.2,807.8z"/>
	</g>
</g>
<g>
	<path class="st5" d="M708,537c0,4.2-0.9,8.9-1.6,13.3c-6.7,42.2-27,76.9-58.1,105.6c-10.5,9.6-21.8,18.1-34,25.4
		c-2.5,1.5-3.2,3.5-3.2,6.2c0,8.3-0.2,16.7-0.1,25c0.2,19.2-1.1,38.3-1.6,57.4c-0.3,12.8-0.6,25.6-0.4,38.4c0.1,3.1-0.3,6-2,8.6
		c-1.6,2.5-3.7,3.8-6.7,3.5c-3.2-0.3-5.2-2.2-5.9-5.3c-0.4-1.9-0.5-4-0.5-6c0.3-30.8,0.3-61.6,1.1-92.3c0.7-26.1,0.6-52.2,3.7-78.2
		c0.6-4.6-0.7-7.7-4.7-10.5c-6.6-4.8-13.2-9.5-20.4-13.5c-3.5-2-4.9-1.6-4.8,2.9c0.2,13.2,0.4,26.3,0.1,39.5
		c-0.5,19.1,0.6,38.3-0.2,57.4c-1.2,25.7-0.2,51.3-0.7,76.9c-0.1,4.6,1.2,9.3-0.1,13.9c-1.1,3.8-2.1,7.9-7,7.7
		c-5.1-0.2-6.2-4.7-6.7-8.6c-0.5-4.9-0.5-10-0.1-15c1.9-23.1,0.5-46.3,0.9-69.4c0.4-21.7-0.1-43.3,0-65c0.1-14.6,0.6-29.3,1.3-43.9
		c0.1-3.3-0.8-4.8-3.7-6c-6.8-2.7-13.8-4.8-20.9-6.7c-2.6-0.7-3.3,0.1-3.2,2.6c1,16.1,1.1,32.4,0.3,48.5
		c-1.1,19.8,0.3,39.6-1.3,59.4c-0.3,3.3,0.4,6.6,0.5,10c0.3,28.8-1.6,57.6-0.8,86.4c0,1.2,0,2.3-0.2,3.5c-0.6,3.4-2.7,5.5-5.9,5.9
		s-5.4-1.6-6.6-4.4c-1.1-2.5-1.7-5.2-1.2-7.8c1.2-6.8,0.6-13.6,0.8-20.4c0.3-18.8,1.4-37.7,0.7-56.4c-1.2-35.8-0.5-71.6-0.6-107.5
		c0-6,0.6-12,0.9-17.9c0.2-3.8-1.2-5.9-5.3-6.1c-7.1-0.4-14.2-1.4-21.4-1.8c-7.1-0.4-7.8,0.2-7.2,7.1c1.4,16.3,0.6,32.6,0.8,49
		c0.2,24,0.5,48-0.2,72c-0.8,28.8-1.6,57.6-1.9,86.4c0,1.2-0.2,2.3-0.5,3.5c-0.8,3.4-2.9,5.3-6.4,5c-3.3-0.2-5.2-2.4-5.3-5.6
		c-0.4-12.6-1.4-25.3-0.1-37.9c0.2-1.8,0.3-3.7,0.3-5.5c0.1-26.8-0.2-53.7,0.2-80.5c0.4-27.3,1.3-54.6,2-81.9c0-1.8,0.4-3.7,0.9-5.4
		c1.2-4.3-0.9-5.5-4.7-5c-8.1,1.1-16.1,2.5-24,4.8c-2.9,0.9-3.5,2.8-3.3,5.3c0.2,3.8,0.9,7.6,0.9,11.4c-0.3,30.3-0.2,60.6-1.1,90.9
		c-0.9,31.1-2.8,62.2-2.9,93.3c0,3.3-0.7,6.6-0.9,9.9c-0.3,3.8-1.8,6.7-5.9,6.7c-4.1,0.1-6.5-2.7-6.8-6.6c-0.4-5.5-0.6-11,0-16.5
		c0.7-6.8,0.7-13.6,0.7-20.5c0.3-33.5,0.3-66.9,1.1-100.4c0.5-19.3,1.7-38.6,2-57.9c0-1.3,0.4-2.6,0.4-4c0.1-1.7,1.8-3.8,0-5.1
		c-1.5-1.1-3,0.9-4.4,1.6c-10.1,5.4-18.7,12.6-25.8,21.7c-3,3.9-2.6,8.2-2.2,12.4c1.7,16.3,0.6,32.6,0.8,48.9
		c0.2,13.5,0.8,27-0.1,40.5c-1.1,16.3-0.4,32.6-1.2,48.9c-0.4,9.1,0.7,18.3-0.6,27.4c-0.6,4.7-3.8,8.5-7.5,8.5
		c-3.8,0-7.3-3.7-7.3-8.6c0-17-0.4-34,0.4-51s0.3-34,0.5-51c0-5.2-0.5-10.4,0.5-15.5c0.6-3.1-1.3-4.4-3.6-5.8
		c-12.7-7.8-24.4-16.8-34.9-27.4c-23.6-23.9-39-52.3-44.7-85.4c-5.6-32.4-0.9-63.5,13-93.4c9.5-20.6,22.8-38.3,38.9-54
		c2.6-2.5,3.2-4.5,1.9-8.2c-5.2-15.7-7.8-31.9-10.4-48.2c-2.5-15.1-4-30.3-5.5-45.6c-0.8-8.3-1.2-16.6-1.3-24.9
		c-0.2-18-0.9-36,0.2-54c1.4-24.6,4.8-49.1,16.8-71.3c3.8-7,9-12.9,16.4-16.3c12.2-5.6,22.1,0.1,31,7.7
		c12.2,10.4,19.9,24.1,26.5,38.4c11.7,25.5,20.3,52,26.8,79.4c6,25.5,10.7,51.2,13.6,77.2c0.5,4,2.2,5.3,6.3,4.6
		c26.8-4.6,53.7-4.6,80.4,0.8c2.9,0.6,4.2,0.3,4.4-3.2c1.2-17.8,3.7-35.4,7.7-52.8c5.8-25.2,12.8-49.9,22.4-73.9
		c8.1-20.2,17.7-39.5,30.5-57.1c9.1-12.4,19.6-23.1,35.2-27.2c2.7,0,5.3,0,8,0c7.2,1.7,12.9,5.7,17.5,11.5
		c6.4,8.2,10,17.7,12.2,27.6c6.2,27.8,5.9,55.8,2.7,83.9c-2,17.4-4.6,34.7-8.6,51.7c-3,12.6-6.3,25.2-9.9,37.6
		c-4.8,16.4-12.6,31.9-16.7,48.6c-0.7,2.9-0.3,4.6,1.7,6.6c4.5,4.4,9,8.9,13,13.8c19.3,23.8,31.6,50.7,35.5,81.3
		c0.5,4.1,1.6,8,1.6,12.3C708,527.7,708,532.3,708,537z"/>
	<path class="st6" d="M368.4,168.9c-2.7,0-3.4,1.8-4.5,3.2c-5.4,6.8-8.3,14.8-10.8,22.9c-6.1,20.6-7.7,41.9-8.1,63.2
		c-0.3,16-0.5,31.9,0.8,47.9c1.3,17.1,3,34.2,5.7,51.1c3,18.4,6.6,36.7,9.9,55c1.6,8.7,0.5,15.8-6.7,22.9
		c-24.3,23.8-39.6,52.6-45.5,86.4c-4.1,23.6-1.5,46.4,6.3,68.8c7.1,20.5,19.1,38,34,53.6c7.9,8.3,16.8,15.7,26.5,21.9
		c1.5,1,3.3,2.8,3.8-0.7c0.7-5.4,1.3-10.9,1-16.4c-0.1-1.7-0.5-2.6-2.5-2.8c-5.1-0.7-6.6-3.3-4.6-7.9c9.1-20.3,22-37,42.4-47.3
		c22.9-11.5,47-15.9,72.5-15.8c35.1,0.2,68,8,98.3,25.8c11.6,6.8,22.9,14.3,31.4,25.2c2.4,3.1,4.1,6.3,2.9,10.1
		c-1.1,3.5-4.2,4.5-7.7,4.2c-2.5-0.2-2.6,1.4-2.6,3.2c0,5,0,10,0.1,15c0,1.3-0.4,2.9,0.9,3.7c1.6,0.9,2.8-0.5,4-1.4
		c4.9-3.7,9.9-7.3,14.6-11.4c24.4-21,42.6-45.9,52-77.2c7-23.3,8.4-46.7,3.6-70.4c-4.6-22.8-14.6-43.2-29.5-61
		c-6.5-7.8-12.4-16.7-22.5-20.8c-3.1-1.3-3.5-4-1.6-7.1c3.2-5.2,6.9-10.2,9.3-15.9C649,380,655,362.7,660,345.1
		c5.2-18.4,9.1-37.1,12.1-56c2.5-15.8,3.9-31.6,4.6-47.6c0.9-20.5-0.1-40.6-6-60.3c-1.8-6.2-4.2-12.6-10.3-16.4
		c-1.2,1.5-0.5,2.6-0.3,3.7c1.4,8.7,2.5,17.5,2.8,26.3c1.2,33.3-2.3,66.2-8.7,98.8c-5.7,29.2-14.6,57.4-26.6,84.6
		c-3,6.8-5.7,13.8-12.4,18.4c-2.7,1.9-4.5,2.5-7.4,0.3c-6.9-5.2-7.1-5.4-1.9-12.5c0.7-0.9,1.3-1.9,1.9-2.9
		c7.2-12.1,12.3-25.1,16.1-38.6c5.8-20.2,11.8-40.2,15.2-61c3.3-20.2,6.4-40.5,7.3-60.9c0.7-16.6,1.3-33.3-0.3-49.9
		c-0.2-1.6,0.7-4.2-1.5-4.8c-1.8-0.4-3.2,1.5-4.6,2.6c-11.8,9.3-19.6,21.7-26.9,34.4c-9.5,16.5-16.3,34.3-22.6,52.2
		c-3.7,10.5-7.4,21.1-9.3,32c-3.8,21.8-4.9,43.9-7.3,65.9c-0.8,7.3-1.2,14.6-2.4,21.8c-1.2,7.1-4.8,8.8-11.4,6.2
		c-1.7-0.7-3.5-1.2-5.3-1.5c-13.6-2.4-27.2-4.8-41.1-5c-16.9-0.2-33.6,0.9-50.1,4.6c-5.1,1.2-8.3-0.5-10.6-5.2
		c-1.1-2.4-2-4.9-2.7-7.5c-2.7-10.7-4-21.5-5.5-32.4c-3.1-21.6-7.5-43-13.1-64c-6-22.4-13-44.4-23.3-65.2
		c-5.7-11.5-12.1-22.6-21.1-32c-2.9-3.1-4.5-2.4-6,1.1c-2.6,6.1-4.3,12.5-6.2,18.9c-4.5,15.5-6.1,31.5-6,47.4
		c0.1,22.3,1.5,44.5,4.4,66.7c4,31,12,61,20,91c1.1,4.2-2,9.8-7.7,11.9c-4.8,1.8-4.8-3-6.2-5.4c-2.3-3.9-3.9-8.1-5.1-12.5
		c-2.9-10.9-5.7-21.9-8.6-32.8c-8.7-33.7-12.5-68.1-13.2-102.8c-0.2-9.8,0.3-19.6,1.1-29.4c1.3-14.8,3.5-29.4,8.3-43.5
		C364.2,178.8,366.4,174,368.4,168.9z"/>
	<path class="st5" d="M540.6,478.8c14.6-1.5,28,12.8,30.1,27.5c3.3,23.2-13.8,43.9-36.6,43.7c-16.6-0.2-28.5-13.6-30-28.7
		c-1.9-18.9,7.2-33.2,24.5-41C532.3,478.7,536.1,479.1,540.6,478.8z M535.5,537c0.5-0.1,2.4-0.1,4.1-0.6c6.1-2,6.8-3.4,4.3-9.2
		c-3.6-8.3-1.6-15.5,4.1-22.1c4.1-4.7,3.4-7.4-2.4-10.1c-3-1.4-6.2-1.9-9.7-1.4c-10.4,1.7-19.1,12.9-18.3,25.8
		C518.2,530.1,525,536.9,535.5,537z"/>
	<path class="st5" d="M493.1,522.2c-0.1,20.9-16.5,36.8-35.3,33.5c-21.9-3.9-32.3-22.6-29.6-41.3c2.7-18.6,17-30,34.8-28.4
		C479.6,487.6,493.2,503.8,493.1,522.2z M477,522.6c0.2-6.8-2.1-12.1-6.5-16.5c-7-7-15.7-7.6-22.3-1.9c-2.6,2.2-2.8,3.8-0.2,6.4
		c6.7,6.7,7.7,14.1,3.6,22.2c-2.3,4.6-1.6,6.2,3.5,7.7C466.4,543.8,477.1,534.9,477,522.6z"/>
	<path class="st5" d="M482,456.3c2-5.2-1.6-6.5-6.4-6.9c-16.5-1.1-31.7,2.9-45.7,11.4c-3.7,2.2-7.2,4.8-10.6,7.4
		c-1.9,1.4-3.8,2.5-5.8,0.8c-2.1-1.7-2-4.3-0.9-6.4c1.2-2.2,2.7-4.3,4.6-5.9c19.8-16.1,42.1-23.7,67.7-18.8c4.1,0.8,7.1,0,10.6-2.4
		c6.7-4.7,14.5-7.4,22.7-8.1c21.4-1.7,41.6,2.4,60.8,11.9c1.7,0.8,3.2,1.8,3.9,3.7c0.6,1.6,1.3,3.1,0,4.7c-1.2,1.5-2.6,0.9-4.1,0.7
		c-15.1-2.2-29.9-6.2-45.1-8c-9.8-1.1-18.8,1.1-27.9,3.9c-2.6,0.8-3.5,2.2-1.7,4.8c2.8,4.1,3,8.9,1.4,13.4
		c-2.4,6.8-7.8,9.7-14.6,8.3C485.3,469.8,481.8,464.4,482,456.3z"/>
	<path class="st5" d="M615.3,543.3c13,0.6,29.4,13.3,33.6,25.7c1.2,3.5,2.5,6.9,3.5,10.4c0.9,3.1,1.3,6.7-2.4,8.2s-5.5-1.5-6.9-4.1
		c-4.7-9.1-10-17.6-18.6-23.6c-3.8-2.6-8-4.1-11.8-6.4c-2.4-1.5-5.2-3-3.9-6.6C609.9,543.6,612.9,543.4,615.3,543.3z"/>
	<path class="st5" d="M376.4,541.9c2,0.1,3.2,0,4.3,0.2c2,0.4,4.2,1.1,4.6,3.3c0.4,2.6-2,3-3.8,3.8c-7.1,3.2-14.3,6.4-21.3,9.8
		c-6.4,3.1-11.7,7.6-16.5,12.8c-2.3,2.5-5.1,3.4-8,1.1c-2.7-2.2-1.3-4.8-0.1-7.2c6.3-12.6,18.3-17.3,30.5-21.4
		C369.7,543,373.3,541.2,376.4,541.9z"/>
</g>
</svg>
