<?xml version="1.0" standalone="no"?><!DOCTYPE svg PUBLIC "-//W3C//DTD SVG 1.1//EN" "http://www.w3.org/Graphics/SVG/1.1/DTD/svg11.dtd"><svg t="1649681098443" class="icon" viewBox="0 0 1024 1024" version="1.1" xmlns="http://www.w3.org/2000/svg" p-id="110021" xmlns:xlink="http://www.w3.org/1999/xlink" width="200" height="200"><defs><style type="text/css">@font-face { font-family: "feedback-iconfont"; src: url("//at.alicdn.com/t/font_1031158_u69w8yhxdu.woff2?t=1630033759944") format("woff2"), url("//at.alicdn.com/t/font_1031158_u69w8yhxdu.woff?t=1630033759944") format("woff"), url("//at.alicdn.com/t/font_1031158_u69w8yhxdu.ttf?t=1630033759944") format("truetype"); }
</style></defs><path d="M432.4 231a62.2 81.6 0 1 0 124.4 0 62.2 81.6 0 1 0-124.4 0Z" fill="#E3EFA7" p-id="110022"></path><path d="M494.6 315.1c-35.7 0-64.7-37.7-64.7-84.1s29-84.1 64.7-84.1 64.7 37.7 64.7 84.1-29 84.1-64.7 84.1z m0-163.2c-32.9 0-59.7 35.5-59.7 79.1s26.8 79.1 59.7 79.1c32.9 0 59.7-35.5 59.7-79.1s-26.8-79.1-59.7-79.1z" fill="" p-id="110023"></path><path d="M550.602429 238.715646a67.9 81.6 26.849 1 0 121.160746 61.332811 67.9 81.6 26.849 1 0-121.160746-61.332811Z" fill="#E3EFA7" p-id="110024"></path><path d="M600.8 350.9c-9.8 0-19-2.2-27.5-6.5-34.6-17.5-45.8-65.5-24.8-106.8 15.3-30.2 44.1-49.7 73.3-49.7 9.8 0 19 2.2 27.5 6.5 16.9 8.5 28.7 24.4 33.4 44.7 4.6 20.1 1.6 42.2-8.5 62.2-15.4 30.1-44.2 49.6-73.4 49.6z m20.9-158c-27.4 0-54.4 18.4-68.8 47-19.7 38.9-9.5 83.8 22.6 100.1 7.8 3.9 16.3 5.9 25.3 5.9 27.4 0 54.4-18.4 68.8-47 9.6-18.9 12.5-39.8 8.1-58.8-4.3-18.8-15.2-33.5-30.7-41.3-7.8-3.9-16.3-5.9-25.3-5.9z" fill="" p-id="110025"></path><path d="M658.302947 305.328083a49.9 81.6 48.166 1 0 66.564077 74.359018 49.9 81.6 48.166 1 0-66.564077-74.359018Z" fill="#E3EFA7" p-id="110026"></path><path d="M660.2 410.9c-13.2 0-24-4.3-31.2-12.3-9.5-10.6-11.7-26.5-6.3-44.6 5.3-17.7 17.4-35.7 34-50.5 20.5-18.4 45.4-29.4 66.4-29.4 13.2 0 24 4.3 31.2 12.3 19.3 21.5 6.9 64.2-27.7 95.2-20.6 18.3-45.4 29.3-66.4 29.3zM723 279.1c-19.9 0-43.4 10.5-63.1 28.1-15.9 14.2-27.4 31.4-32.5 48.2-4.9 16.4-3.1 30.6 5.2 39.9 6.3 7 15.8 10.7 27.5 10.7 19.9 0 43.4-10.5 63.1-28.1 32.5-29.1 44.7-68.6 27.3-88.1-6.2-7.1-15.7-10.7-27.5-10.7z" fill="" p-id="110027"></path><path d="M737.371254 369.888876a49.9 81.6 79.788 1 0 17.693629 98.219019 49.9 81.6 79.788 1 0-17.693629-98.219019Z" fill="#E3EFA7" p-id="110028"></path><path d="M732 472.8c-36.8 0-64.4-15.6-68.5-38.8-5.1-28.5 27.8-58.3 73.5-66.5 7.9-1.4 15.8-2.1 23.5-2.1 36.8 0 64.4 15.6 68.5 38.8 5.1 28.5-27.8 58.3-73.5 66.5-7.8 1.4-15.7 2.1-23.5 2.1z m28.5-102.5c-7.4 0-15.1 0.7-22.6 2.1-42.9 7.7-74.1 35-69.4 60.7 3.7 20.4 29.8 34.7 63.6 34.7 7.4 0 15.1-0.7 22.6-2.1 42.9-7.7 74.1-35 69.4-60.7-3.7-20.4-29.9-34.7-63.6-34.7z" fill="" p-id="110029"></path><path d="M750.15722 465.036133a49.901497 81.602448 86.262 1 0 6.50657 99.590673 49.901497 81.602448 86.262 1 0-6.50657-99.590673Z" fill="#E3EFA7" p-id="110030"></path><path d="M747.9 567.4c-42.9 0-76.7-20.3-78.4-47.1-1.9-28.9 34.2-54.8 80.5-57.8 3-0.2 6-0.3 8.9-0.3 42.9 0 76.7 20.3 78.4 47.1 1.9 28.9-34.2 54.8-80.5 57.8-2.9 0.2-5.9 0.3-8.9 0.3z m11-100.2c-2.8 0-5.7 0.1-8.6 0.3-43.5 2.8-77.5 26.4-75.8 52.5 0.8 11.5 8.6 22.2 22 30 13.7 8 31.9 12.4 51.5 12.4 2.8 0 5.7-0.1 8.6-0.3 43.5-2.8 77.5-26.4 75.8-52.5-0.8-11.5-8.6-22.2-22-30.1-13.7-7.9-32-12.3-51.5-12.3z" fill="" p-id="110031"></path><path d="M764.20908 555.519701a70.400704 43.100431 0.262 1 0-0.394175 86.199961 70.400704 43.100431 0.262 1 0 0.394175-86.199961Z" fill="#E3EFA7" p-id="110032"></path><path d="M764.3 644.2h-0.5c-19.2-0.1-37.4-4.8-51-13.2-14-8.7-21.7-20.3-21.7-32.7 0.1-12.3 7.8-23.8 21.8-32.4 13.6-8.3 31.6-12.9 50.7-12.9h0.5c40.2 0.2 72.8 20.8 72.6 45.9-0.1 12.3-7.8 23.8-21.8 32.4-13.4 8.3-31.4 12.9-50.6 12.9z m-0.6-86.1c-37.1 0-67.4 18.1-67.5 40.3 0 10.6 6.8 20.7 19.3 28.4 12.9 8 30.1 12.4 48.4 12.5h0.5c37.1 0 67.4-18.1 67.5-40.3 0.1-22.4-30.3-40.7-67.7-40.9h-0.5z" fill="" p-id="110033"></path><path d="M758.70906 646.323029a53.8 70.4 73.388 1 0 30.761664 103.109069 53.8 70.4 73.388 1 0-30.761664-103.109069Z" fill="#E3EFA7" p-id="110034"></path><path d="M764 755.8c-29.5 0-53-14.5-59.7-37-8.9-29.8 15.2-63.3 53.7-74.8 8.7-2.6 17.5-3.9 26.3-3.9 29.5 0 53 14.5 59.7 37 8.9 29.8-15.2 63.3-53.7 74.8-8.7 2.5-17.6 3.9-26.3 3.9zM784.3 645c-8.3 0-16.6 1.2-24.8 3.7-35.9 10.7-58.4 41.5-50.4 68.6 6.1 20.3 27.6 33.5 54.9 33.5 8.3 0 16.6-1.2 24.8-3.7 35.9-10.7 58.4-41.5 50.4-68.6-6.1-20.3-27.6-33.5-54.9-33.5z" fill="" p-id="110035"></path><path d="M819.694192 737.258802a31.3 41.5 60.856 1 0 30.486591 54.674746 31.3 41.5 60.856 1 0-30.486591-54.674746Z" fill="#E3EFA7" p-id="110036"></path><path d="M825.6 801.1c-13 0-23.9-5.6-29.1-15.1-9.1-16.3 0.8-39.1 22-50.9 8.2-4.6 17.1-7 25.7-7 13 0 23.9 5.6 29.1 15.1 4.5 8 4.6 17.8 0.3 27.5-4.2 9.5-12.1 17.8-22.2 23.5-8.2 4.5-17.1 6.9-25.8 6.9z m18.6-67.9c-7.8 0-15.8 2.2-23.3 6.3-18.8 10.5-27.8 30.3-20 44.1 4.4 7.9 13.5 12.5 24.8 12.5 7.8 0 15.8-2.2 23.3-6.3 9.2-5.1 16.3-12.6 20.1-21.1 3.6-8.2 3.6-16.4-0.1-23-4.5-8-13.5-12.5-24.8-12.5z" fill="" p-id="110037"></path><path d="M188.5 673.1l-12.1 39.6c-0.8 2.7 1.2 5.3 3.9 5.3h58.4l-50.2-44.9z" fill="#90C380" p-id="110038"></path><path d="M245.3 720.5h-64.9c-2.1 0-4.1-1-5.3-2.7-1.3-1.7-1.6-3.8-1-5.9l13.2-43.4 58 52z m-55.6-43l-10.9 35.9c-0.2 0.5-0.1 1 0.2 1.4 0.3 0.4 0.8 0.7 1.3 0.7h51.8l-42.4-38z" fill="" p-id="110039"></path><path d="M407.77 800.14l4.444 2.293-26.599 51.545-4.443-2.293z" fill="" p-id="110040"></path><path d="M870.4 776.6c-25.1-21.3-44-46.5-93.1-70.9-9.4-4.6-13.4-15.9-8.9-25.4 21.3-44.6 28.6-97.6 28.6-154.5 0-158.9-141.6-287.7-316.3-287.7S164.3 367 164.3 525.9s52.6 287.7 316.3 287.7c7.5 0 14.9-0.1 22.1-0.3l355.3-2.8c17.8 0 26-22.3 12.4-33.9z" fill="#90C380" p-id="110041"></path><path d="M480.6 816.1c-123.5 0-208.2-27.8-258.9-85.1-40.9-46.1-59.9-111.3-59.9-205.1 0-77.6 33.2-150.5 93.5-205.3 60.2-54.8 140.2-84.9 225.4-84.9s165.2 30.2 225.4 84.9c60.3 54.8 93.5 127.7 93.5 205.3 0 63.9-9.4 114.8-28.8 155.5-3.9 8.1-0.4 18 7.7 22.1 37.2 18.5 57.6 37.7 75.6 54.7 6.1 5.8 11.9 11.2 18.1 16.5 7 6 9.5 15.4 6.3 24.1-3.2 8.7-11.2 14.3-20.4 14.3l-355.5 2.8c-7.5 0.1-14.9 0.2-22 0.2z m0-575.5c-173.1 0-313.8 127.9-313.8 285.2 0 141 37.3 285.2 313.8 285.2 7.2 0 14.6-0.1 22-0.3l3.6-0.1v0.1l351.7-2.7c8.6 0 13.8-5.7 15.8-11 1.9-5.3 1.7-13-4.9-18.5-6.3-5.3-12.1-10.8-18.3-16.7-18.6-17.6-37.8-35.7-74.4-53.9-10.6-5.3-15.1-18.1-10-28.7 19.1-40 28.4-90.2 28.4-153.4-0.1-157.2-140.9-285.2-313.9-285.2z" fill="" p-id="110042"></path><path d="M337.8 443a22.8 34.6 0 1 0 45.6 0 22.8 34.6 0 1 0-45.6 0Z" fill="" p-id="110043"></path><path d="M569.6 441.8a22.8 34.6 0 1 0 45.6 0 22.8 34.6 0 1 0-45.6 0Z" fill="" p-id="110044"></path><path d="M238.7 549.1a60.9 23.2 0 1 0 121.8 0 60.9 23.2 0 1 0-121.8 0Z" fill="#BCD9A1" p-id="110045"></path><path d="M592.4 549.1a60.9 23.2 0 1 0 121.8 0 60.9 23.2 0 1 0-121.8 0Z" fill="#BCD9A1" p-id="110046"></path><path d="M679.9 721.2c-1.9 0-3.8-0.7-5.3-2l-44.4-39.5 3.3-3.7 44.4 39.5c1.4 1.2 2.9 0.7 3.3 0.5 0.4-0.2 1.8-1 1.7-2.9l-2.8-46.6 5-0.3 2.8 46.6c0.2 3.3-1.5 6.2-4.5 7.7-1.1 0.4-2.3 0.7-3.5 0.7z" fill="" p-id="110047"></path><path d="M589.9 813.6h5v39.2h-5z" fill="" p-id="110048"></path><path d="M421.7 558.4c-29.2 24.1 1.2 74.5 34.8 22.1-2.4 27.7 57.9 44 52.4-11.7l122.9 109 44.4 39.5c3.7 3.3 9.4 0.5 9.1-4.4l-2.8-46.6" fill="#90C380" p-id="110049"></path><path d="M484.9 608.4c-5.9 0-12.1-1.7-17.7-5.1-6.6-4-11-9.6-12.6-15.8-13.1 17.7-24.4 19.1-30.2 18.2-7.5-1.1-13.6-7.1-15.9-15.7-3.3-11.9 1.3-25.1 11.6-33.6l3.2 3.9c-10.7 8.9-12.1 20.9-10 28.4 1.9 6.7 6.3 11.2 11.9 12 8.9 1.3 19.5-6.6 29.2-21.7l5.5-8.5-0.9 10.1c-0.6 7 3.5 13.8 10.9 18.3 8.6 5.3 19.2 5.8 26.4 1.3 8.2-5.1 11.7-16 10.1-31.4l5-0.5c2.2 22-5.6 31.8-12.5 36.1-4 2.8-8.9 4-14 4z" fill="" p-id="110050"></path><path d="M354.1 848.6a15.1 12.4 0 1 0 30.2 0 15.1 12.4 0 1 0-30.2 0Z" fill="#90C380" p-id="110051"></path><path d="M369.2 863.5c-9.7 0-17.6-6.7-17.6-14.9s7.9-14.9 17.6-14.9 17.6 6.7 17.6 14.9-7.9 14.9-17.6 14.9z m0-24.7c-7 0-12.6 4.4-12.6 9.9s5.7 9.9 12.6 9.9 12.6-4.4 12.6-9.9-5.7-9.9-12.6-9.9z" fill="" p-id="110052"></path><path d="M562.2 850a15.1 12.4 0 1 0 30.2 0 15.1 12.4 0 1 0-30.2 0Z" fill="#90C380" p-id="110053"></path><path d="M577.3 864.9c-9.7 0-17.6-6.7-17.6-14.9s7.9-14.9 17.6-14.9 17.6 6.7 17.6 14.9-7.9 14.9-17.6 14.9z m0-24.8c-7 0-12.6 4.4-12.6 9.9s5.7 9.9 12.6 9.9 12.6-4.4 12.6-9.9-5.7-9.9-12.6-9.9z" fill="" p-id="110054"></path></svg>