<?xml version="1.0" standalone="no"?><!DOCTYPE svg PUBLIC "-//W3C//DTD SVG 1.1//EN" "http://www.w3.org/Graphics/SVG/1.1/DTD/svg11.dtd"><svg t="1649679162988" class="icon" viewBox="0 0 1024 1024" version="1.1" xmlns="http://www.w3.org/2000/svg" p-id="6371" xmlns:xlink="http://www.w3.org/1999/xlink" width="200" height="200"><defs><style type="text/css">@font-face { font-family: "feedback-iconfont"; src: url("//at.alicdn.com/t/font_1031158_u69w8yhxdu.woff2?t=1630033759944") format("woff2"), url("//at.alicdn.com/t/font_1031158_u69w8yhxdu.woff?t=1630033759944") format("woff"), url("//at.alicdn.com/t/font_1031158_u69w8yhxdu.ttf?t=1630033759944") format("truetype"); }
</style></defs><path d="M727.86147 895.15551V750.411206a120.258591 120.258591 0 0 1 18.641782-64.315246l17.261798-27.273681a120.264591 120.264591 0 0 0 18.641781-64.315246V286.496643c0-149.956243-121.564575-271.520818-271.520818-271.520818S239.365195 136.5404 239.365195 286.496643v189.709776c0 9.575888-9.595888 16.18181-18.541783 12.763851l-21.101752-8.063906c-37.435561-14.305832-79.405069 4.25795-94.004899 41.581513-13.995836 35.777581 2.145975 76.281106 36.913568 92.624915l30.551642 14.361831a124.106546 124.106546 0 0 1 55.797346 52.239388l0.353996 0.639993a124.100546 124.100546 0 0 1 15.507818 60.073296v152.73221h483.020339z" fill="#EE6161" p-id="6372"></path><path d="M782.398831 286.504643v307.99439a120.174592 120.174592 0 0 1-18.629781 64.315247l-17.271798 27.27568a120.266591 120.266591 0 0 0-18.629782 64.315246v144.762304h-39.933532v-144.762304a120.276591 120.276591 0 0 1 18.629782-64.315246l17.271798-27.27568a120.164592 120.164592 0 0 0 18.629781-64.315247V286.504643c0-143.264321-110.9167-260.590946-251.547052-270.794827 6.589923-0.499994 13.257845-0.737991 19.967766-0.737991 149.954243 0 271.512818 121.560575 271.512818 271.532818z" fill="#E94444" p-id="6373"></path><path d="M763.799049 965.060691c0 23.959719-19.185775 43.739487-43.145494 43.949485l-0.521994 0.002c-17.385796 0-32.983613-7.64191-43.649489-19.741769a4.935942 4.935942 0 0 0-7.423913 0c-10.665875 12.101858-26.263692 19.741769-43.649488 19.741769-17.399796 0-32.999613-7.64191-43.665488-19.743769a4.935942 4.935942 0 0 0-7.423913 0c-10.665875 12.101858-26.265692 19.743769-43.649489 19.743769-17.399796 0-32.999613-7.64191-43.665488-19.741769a4.935942 4.935942 0 0 0-7.423913 0c-10.665875 12.101858-26.265692 19.741769-43.665488 19.741769-17.385796 0-32.983613-7.64191-43.649489-19.743769a4.935942 4.935942 0 0 0-7.423913 0c-10.665875 12.101858-26.265692 19.743769-43.665488 19.743769-17.385796 0-32.983613-7.64191-43.649489-19.741769a4.935942 4.935942 0 0 0-7.423913 0c-10.665875 12.101858-26.263692 19.741769-43.649488 19.741769l-0.521994-0.002c-23.959719-0.209998-43.145494-19.989766-43.145494-43.949485V851.130026c0-23.959719 19.185775-43.739487 43.145494-43.949485l0.521994-0.002c17.385796 0 32.983613 7.64191 43.649488 19.743769a4.935942 4.935942 0 0 0 7.423913 0c10.665875-12.101858 26.263692-19.741769 43.649489-19.741769 17.399796 0 32.999613 7.64191 43.665488 19.743768a4.935942 4.935942 0 0 0 7.423913 0c10.665875-12.101858 26.265692-19.743769 43.649489-19.743768 17.399796 0 32.999613 7.64191 43.665488 19.743768a4.935942 4.935942 0 0 0 7.423913 0c10.665875-12.101858 26.265692-19.743769 43.665488-19.743768 17.385796 0 32.983613 7.64191 43.649489 19.743768a4.935942 4.935942 0 0 0 7.423913 0c10.665875-12.101858 26.265692-19.743769 43.665488-19.743768 17.385796 0 32.983613 7.64191 43.649488 19.741769a4.935942 4.935942 0 0 0 7.423913 0c10.665875-12.101858 26.263692-19.743769 43.649489-19.743769l0.521994 0.002c23.959719 0.209998 43.145494 19.989766 43.145494 43.949485z" fill="#F3F0F3" p-id="6374"></path><path d="M763.791049 851.136026v113.932665c0 23.959719-19.167775 43.727488-43.129494 43.947485h-0.519994c-7.965907 0-15.533818-1.597981-22.463737-4.491948 14.47583-7.167916 24.379714-22.22374 24.379714-39.455537v-113.932665a44.075483 44.075483 0 0 0-24.379714-39.475538 58.03332 58.03332 0 0 1 22.463737-4.491947c0.159998 0 0.339996 0 0.519994 0.02 23.959719 0.199998 43.129495 19.987766 43.129494 43.947485z" fill="#E2DEE2" p-id="6375"></path><path d="M526.51183 339.64402l27.639676 56.003344a16.18381 16.18381 0 0 0 12.183857 8.851896l61.803276 8.979895c13.271844 1.927977 18.571782 18.239786 8.967895 27.599676l-44.721476 43.593489a16.17981 16.17981 0 0 0-4.653945 14.321832l10.557876 61.555279c2.267973 13.217845-11.607864 23.299727-23.477725 17.0578l-55.279352-29.061659a16.18381 16.18381 0 0 0-15.059824 0l-55.279352 29.061659c-11.871861 6.241927-25.745698-3.839955-23.477725-17.0578l10.557876-61.555279a16.17981 16.17981 0 0 0-4.653945-14.321832l-44.721476-43.593489c-9.603887-9.36189-4.30395-25.671699 8.967895-27.599676l61.803276-8.979895a16.18381 16.18381 0 0 0 12.183857-8.851896l27.639676-56.003344c5.93393-12.025859 23.083729-12.025859 29.01966 0z" fill="#FEE97D" p-id="6376"></path><path d="M592.389058 484.67032a16.20181 16.20181 0 0 0-4.651946 14.335832l10.541877 61.539279c2.275973 13.217845-11.599864 23.301727-23.461725 17.0718l-29.731652-15.633817c6.269927-2.855967 10.661875-9.603887 9.303891-17.491795l-10.541876-61.559278a16.111811 16.111811 0 0 1 4.651945-14.315833l44.705476-43.587489c4.631946-4.511947 5.789932-10.641875 4.27395-15.993812l30.649641 4.451947c13.277844 1.915978 18.589782 18.229786 8.985895 27.593677z" fill="#FEDF30" p-id="6377"></path><path d="M124.876537 75.701113c-5.015941 19.195775-19.071777 53.201377-56.837334 64.299246-2.57397 0.755991-2.57397 4.433948 0 5.18994 37.765557 11.09987 51.821393 45.103471 56.837334 64.299246 0.705992 2.699968 4.539947 2.699968 5.245938 0 5.015941-19.195775 19.071777-53.199377 56.837334-64.299246 2.57397-0.755991 2.57397-4.433948 0-5.18994-37.765557-11.09987-51.821393-45.103471-56.837334-64.299246-0.705992-2.701968-4.539947-2.701968-5.245938 0z" fill="#FEE45A" p-id="6378"></path><path d="M186.967809 145.184299c-37.777557 11.10187-51.835393 45.105471-56.847334 64.293246-0.697992 2.715968-4.531947 2.715968-5.251938 0-2.795967-10.681875-8.385902-25.977696-19.327774-39.335539 6.109928-17.711792 19.047777-41.391515 45.963462-52.693382 8.5259 9.623887 20.007766 18.009789 35.461584 22.543735 2.57797 0.759991 2.57797 4.433948 0.002 5.19194z" fill="#FED402" p-id="6379"></path><path d="M893.877525 656.790303c-5.015941 19.195775-19.071777 53.201377-56.837334 64.299247-2.57397 0.755991-2.57397 4.433948 0 5.189939 37.765557 11.09987 51.821393 45.103471 56.837334 64.299246 0.705992 2.699968 4.539947 2.699968 5.245938 0 5.015941-19.195775 19.071777-53.199377 56.837334-64.299246 2.57397-0.755991 2.57397-4.433948 0-5.189939-37.765557-11.09987-51.821393-45.103471-56.837334-64.299247-0.705992-2.701968-4.539947-2.701968-5.245938 0z" fill="#FEE45A" p-id="6380"></path><path d="M955.968797 726.273489c-37.777557 11.10187-51.835393 45.105471-56.847334 64.293247-0.697992 2.715968-4.531947 2.715968-5.251938 0-2.795967-10.681875-8.385902-25.977696-19.327774-39.335539 6.109928-17.711792 19.047777-41.391515 45.963462-52.693383 8.5259 9.623887 20.007766 18.009789 35.461584 22.543736 2.57797 0.759991 2.57797 4.433948 0.002 5.191939z" fill="#FED402" p-id="6381"></path><path d="M215.87547 688.963926l0.351996 0.635993a110.818701 110.818701 0 0 1 3.209962 6.271926 14.975825 14.975825 0 1 0 27.087683-12.78185 141.67834 141.67834 0 0 0-4.089952-7.989906l-0.351996-0.637993c-14.255833-25.769698-35.87758-46.013461-62.529267-58.543314l-30.551642-14.361831c-27.535677-12.943848-40.423526-45.279469-29.337656-73.615138 11.559865-29.547654 45.073472-44.37348 74.713124-33.047613l21.101753 8.063906a28.639664 28.639664 0 0 0 38.861544-26.751687V286.496643c0-141.460342 115.086651-256.544994 256.546994-256.544994 123.846549 0 229.957305 88.254966 252.309043 209.851541a14.977824 14.977824 0 0 0 29.457655-5.413937C767.687004 98.574845 649.186392 0 510.884013 0c-157.974149 0-286.496643 128.522494-286.496643 286.496643v187.805799l-19.321773-7.383914c-44.941473-17.169799-95.766878 5.307938-113.294672 50.113413-16.809803 42.969496 2.731968 92.004922 44.487478 111.632692l30.551642 14.361832c20.913755 9.831885 37.879556 25.715699 49.065425 45.937461z" p-id="6382"></path><path d="M647.562411 451.806705c8.5539-8.337902 11.573864-20.575759 7.883908-31.937625-3.691957-11.361867-13.327844-19.487772-25.151705-21.205752l-61.805276-8.981895a1.199986 1.199986 0 0 1-0.905989-0.659992l-27.639676-56.005344c-5.287938-10.713874-15.993813-17.367796-27.939673-17.367796s-22.651735 6.653922-27.939673 17.367796l-27.637676 56.003344a1.211986 1.211986 0 0 1-0.909989 0.661992l-61.805276 8.979895c-11.821861 1.71798-21.459749 9.843885-25.151705 21.205752s-0.669992 23.599723 7.883908 31.937625l44.721475 43.59349a1.203986 1.203986 0 0 1 0.345996 1.067987l-10.557876 61.553279c-2.019976 11.773862 2.729968 23.451725 12.393855 30.471643 9.663887 7.023918 22.239739 7.929907 32.813615 2.373972l55.279353-29.06166a1.197986 1.197986 0 0 1 1.121986 0l55.279353 29.06166a31.167635 31.167635 0 0 0 14.527829 3.611957 31.039636 31.039636 0 0 0 18.285786-5.985929c9.663887-7.021918 14.413831-18.697781 12.393855-30.471643l-10.555876-61.557279a1.201986 1.201986 0 0 1 0.345995-1.065987z m-65.629231 22.145741a31.149635 31.149635 0 0 0-8.961895 27.577677l10.557877 61.555278c0.049999 0.293997 0.125999 0.737991-0.479995 1.177987-0.603993 0.439995-1.005988 0.231997-1.269985 0.091998l-55.279352-29.061659a31.153635 31.153635 0 0 0-28.99766 0l-55.277352 29.061659c-0.263997 0.137998-0.663992 0.347996-1.269985-0.091998s-0.529994-0.88399-0.479995-1.179987l10.555876-61.553278a31.155635 31.155635 0 0 0-8.959895-27.579677l-44.721475-43.593489c-0.213997-0.207998-0.537994-0.523994-0.305997-1.235986 0.231997-0.713992 0.677992-0.777991 0.973989-0.82199l61.801276-8.979895a31.157635 31.157635 0 0 0 23.461725-17.0438l27.639676-56.005344c0.131998-0.267997 0.331996-0.671992 1.081987-0.671992s0.949989 0.403995 1.081987 0.671992l27.639676 56.005344a31.147635 31.147635 0 0 0 23.457725 17.0418l61.803276 8.979895c0.295997 0.042 0.741991 0.107999 0.973989 0.82199s-0.091999 1.027988-0.303997 1.235986zM110.386706 213.269501c2.031976 7.783909 9.067894 13.219845 17.1118 13.219845s15.079823-5.435936 17.111799-13.215845c4.23195-16.19381 15.909814-44.705476 46.573455-53.717371 7.587911-2.229974 12.683851-9.047894 12.681851-16.965801 0-7.915907-5.09994-14.731827-12.683851-16.957801-30.663641-9.011894-42.341504-37.52556-46.571455-53.715371a17.693793 17.693793 0 0 0-17.111799-13.217845 17.691793 17.691793 0 0 0-17.1118 13.217845c-4.23195 16.19381-15.909814 44.703476-46.567454 53.715371-7.587911 2.227974-12.685851 9.041894-12.687851 16.959801 0 7.917907 5.09594 14.735827 12.683851 16.965801 30.663641 9.009894 42.341504 37.52356 46.571454 53.711371z m17.1138-103.962782c6.669922 11.93986 16.25581 24.039718 29.985648 33.28761-13.731839 9.247892-23.315727 21.34575-29.985648 33.28761-6.669922-11.94186-16.25381-24.041718-29.985649-33.28761 13.731839-9.247892 23.315727-21.34575 29.985649-33.28761z" p-id="6383"></path><path d="M782.406831 291.382585a14.975825 14.975825 0 0 0-14.975824 14.975825v288.146623a105.136768 105.136768 0 0 1-16.321809 56.30734l-17.261798 27.273681a135.052417 135.052417 0 0 0-20.963754 72.325152v42.163506a73.201142 73.201142 0 0 0-40.11353 17.0518 73.157143 73.157143 0 0 0-47.361445-17.425796 73.193142 73.193142 0 0 0-47.377445 17.427796 73.163143 73.163143 0 0 0-47.361445-17.427796 73.193142 73.193142 0 0 0-47.377445 17.427796 73.193142 73.193142 0 0 0-47.377444-17.427796 73.159143 73.159143 0 0 0-47.361445 17.427796 73.193142 73.193142 0 0 0-47.377445-17.427796 73.171143 73.171143 0 0 0-47.361445 17.425796 73.207142 73.207142 0 0 0-34.001602-16.18381v-35.989578a14.975825 14.975825 0 0 0-29.951649 0v37.151564c-24.247716 7.207916-42.051507 29.88165-42.051507 56.523338v113.932665c0 32.209623 26.013695 58.643313 58.03732 58.925309l0.605993 0.002a73.167143 73.167143 0 0 0 47.361445-17.427796A73.167143 73.167143 0 0 0 341.176002 1023.988a73.197142 73.197142 0 0 0 47.377445-17.427796A73.167143 73.167143 0 0 0 435.914892 1023.988a73.197142 73.197142 0 0 0 47.377444-17.427796A73.197142 73.197142 0 0 0 530.669781 1023.988a73.167143 73.167143 0 0 0 47.361445-17.427796A73.197142 73.197142 0 0 0 625.408671 1023.988a73.167143 73.167143 0 0 0 47.361445-17.427796A73.163143 73.163143 0 0 0 720.131561 1023.988l0.653992-0.002c31.975625-0.279997 57.98932-26.713687 57.989321-58.925309v-113.932665c0-24.341715-14.859826-45.375468-35.939579-54.325364V750.411206a105.152768 105.152768 0 0 1 16.319809-56.30734l17.261797-27.27368a135.046417 135.046417 0 0 0 20.963755-72.323153V306.35841a14.973825 14.973825 0 0 0-14.973825-14.975825z m-33.581606 559.745441v113.932665c0 15.839814-12.695851 28.837662-28.253669 28.97566l-0.437995 0.002a43.237493 43.237493 0 0 1-32.41562-14.669828c-3.783956-4.29395-9.231892-6.757921-14.945825-6.757921s-11.159869 2.461971-14.945825 6.757921a43.243493 43.243493 0 0 1-32.41562 14.669828 43.255493 43.255493 0 0 1-32.43162-14.669828c-3.783956-4.29395-9.231892-6.757921-14.945825-6.757921s-11.161869 2.461971-14.945825 6.757921a43.243493 43.243493 0 0 1-32.41562 14.669828 43.255493 43.255493 0 0 1-32.43162-14.669828c-3.783956-4.29395-9.231892-6.757921-14.945825-6.757921s-11.161869 2.461971-14.945824 6.757921a43.261493 43.261493 0 0 1-32.43162 14.669828 43.237493 43.237493 0 0 1-32.415621-14.669828c-3.783956-4.29395-9.231892-6.757921-14.945824-6.757921s-11.161869 2.461971-14.945825 6.757921a43.261493 43.261493 0 0 1-32.43162 14.669828 43.237493 43.237493 0 0 1-32.41562-14.669828c-3.783956-4.29395-9.231892-6.757921-14.945825-6.757921s-11.161869 2.461971-14.945825 6.757921a43.243493 43.243493 0 0 1-32.41562 14.669828h-0.389996c-15.605817-0.137998-28.301668-13.135846-28.301668-28.97566V851.130026c0-15.839814 12.695851-28.837662 28.253669-28.975661l0.437995-0.002a43.237493 43.237493 0 0 1 32.41562 14.669828c3.783956 4.29395 9.231892 6.757921 14.945825 6.757921s11.159869-2.461971 14.945825-6.757921a43.243493 43.243493 0 0 1 32.41562-14.669828 43.255493 43.255493 0 0 1 32.43162 14.669828c3.783956 4.29395 9.231892 6.757921 14.945825 6.757921s11.161869-2.461971 14.945824-6.757921a43.243493 43.243493 0 0 1 32.415621-14.669828 43.255493 43.255493 0 0 1 32.43162 14.669828c3.783956 4.29395 9.231892 6.757921 14.945824 6.757921s11.161869-2.461971 14.945825-6.757921a43.261493 43.261493 0 0 1 32.43162-14.669828 43.237493 43.237493 0 0 1 32.41562 14.669828c3.783956 4.29395 9.231892 6.757921 14.945825 6.757921s11.161869-2.461971 14.945825-6.757921a43.261493 43.261493 0 0 1 32.43162-14.669828 43.237493 43.237493 0 0 1 32.41562 14.669828c3.783956 4.29395 9.231892 6.757921 14.945825 6.757921s11.161869-2.461971 14.945825-6.757921a43.243493 43.243493 0 0 1 32.41562-14.669828h0.389995c15.605817 0.137998 28.301668 13.135846 28.301669 28.975661zM960.182748 706.721718c-30.661641-9.011894-42.339504-37.52356-46.571454-53.71937a17.691793 17.691793 0 0 0-17.1118-13.211846h-0.002a17.693793 17.693793 0 0 0-17.109799 13.217846c-4.23195 16.19381-15.909814 44.703476-46.571455 53.71537-7.585911 2.229974-12.681851 9.045894-12.681851 16.961801s5.09794 14.731827 12.683851 16.963802c30.661641 9.011894 42.341504 37.52356 46.571455 53.71337a17.693793 17.693793 0 0 0 17.109799 13.219845h0.002a17.693793 17.693793 0 0 0 17.1118-13.215845c4.23195-16.19381 15.909814-44.705476 46.571454-53.71737 7.585911-2.229974 12.681851-9.045894 12.681851-16.963802s-5.09794-14.735827-12.683851-16.963801z m-63.683254 50.249411c-6.669922-11.94186-16.25381-24.041718-29.985648-33.28961 13.731839-9.245892 23.315727-21.34575 29.985648-33.28761 6.669922 11.94186 16.25381 24.039718 29.985649 33.28761-13.729839 9.247892-23.313727 21.34775-29.985649 33.28961z" p-id="6384"></path></svg>