<?xml version="1.0" encoding="utf-8"?>
<!-- Generator: Adobe Illustrator 25.2.3, SVG Export Plug-In . SVG Version: 6.00 Build 0)  -->
<svg version="1.1" id="_10" xmlns="http://www.w3.org/2000/svg" xmlns:xlink="http://www.w3.org/1999/xlink" x="0px" y="0px"
	 viewBox="0 0 1024 1024" style="enable-background:new 0 0 1024 1024;" xml:space="preserve">
<style type="text/css">
	.st0{fill:#FCF0AA;}
	.st1{fill:#ACD8F7;}
	.st2{fill:#C9E3EC;}
	.st3{fill:#FBF0AB;}
	.st4{fill:#ABD7F8;}
	.st5{fill:#BDDDE6;}
	.st6{fill:#83769C;}
</style>
<g>
	<path class="st0" d="M814.8,413c1,8.2-4.9,13.7-7.9,20.4c-3.7,8.1-10.9,13.5-16.8,19.9c-9.5,10.3-21.3,17.3-33.5,23.7
		c-6.6,3.5-13.2,7.6-20.2,9.7c-8.2,2.5-15.3,7.4-24.1,8.8c-6.1,1-12.4,4.3-18.5,4.9c-6.2,0.6-11.5,5.4-18,3.2
		c-6.4,4.8-14.6,0.3-21.3,4c-1.1,0.6-2.6,0.5-3.9,0.5c-23.6,0-47.3,0.3-70.9-0.2c-5.5-0.1-11.2-2.2-16.9-1.9
		c0.1-3.5,2.9-5.9,3.2-9.4c0.9-9.7,2.3-19.4,2.8-29.2c1.1-22.3-4.1-43.2-15.5-62.4c-13.4-22.4-31.5-39.6-55.4-50.5
		c-10.2-4.6-20.8-6.4-31.8-7.2c-1.1-14,2.1-27.8,2.4-41.8c0.2-10.5,1.9-21.4,4.1-31.8c1.3-6-0.3-12.7,3.9-18.4
		c2-2.7-0.1-7.5,1.5-11.1c2.7,0,5.3,0,8,0c1,7.2,4.8,13.5,7.7,19.9c3.5,7.7,6.2,15.8,8.9,23.7c3.2,9.3,9.1,17.7,10.2,27.8
		c0.2,1.5,0.9,3.4,1.4,5c1,3.1,3.7,6,6.6,4.1c5.4-3.6,11.3-5.6,17.2-7.8c5.7-2.1,11.3-4.5,17.3-6.1c4.4-1.2,9.3-0.2,13-2
		c7.4-3.5,15.3-2.2,22.6-3.2c17.9-2.3,36.3,1,54.3-2.6c0,8.4-0.1,16.9-0.1,25.3c0,1.6-0.6,3.4,1.1,4.6c0,1.7,0,3.3,0.1,5
		c-0.7,6.2,2,11.9,2.9,17.8c0.3,1.6,0.4,3.7,2.6,4.5c0,0.6,0.1,1.2,0.1,1.7c-0.9,5.1,2.4,9,4.2,13.1c1.7,3.9,2.5,8.6,6.9,10.9
		c0,0.3,0.1,0.6,0.2,0.9c-0.2,1.3,0.5,1.9,1.7,2.2c0,0.3,0.1,0.6,0.2,0.9c-0.1,1.3,0.6,1.9,1.8,2.1c0.4,0.6,0.8,1.3,1.2,1.9
		c-0.1,1.9,1.1,2.8,2.8,3.1c0.4,0.6,0.8,1.3,1.2,1.9c1.8,4.2,4.7,7.2,9,8.9c0.4,0.8,1,1.1,1.8,1.2c1.1,3.5,4,4.7,7.2,5.8
		c0.3,0.1,0.6,0.2,0.9,0.2c0.2,2,2,2.6,3.4,3.4c13.1,7.4,27.2,11.5,42.1,12.4c22.8,1.4,44.3-3.9,65.1-13
		C805.7,416,809.7,412.7,814.8,413z"/>
	<path class="st1" d="M667.9,779.9c-0.4-2.9-2.7-2-4.3-1.9c-2.9,0-5.6-0.1-7.8-2.2c-0.1-1.9,0.6-3.5,1.7-5.1
		c8.9-14.1,20-26.3,34.8-34.1c18.6-9.8,37.5-10.1,54.4,6.4c7.3,7.2,12.5,15.8,18.2,24.1c-3.2,5-5.9,10-13.6,9c-6.4-0.9-13-1-19.4,0
		c-11.3,1.8-22.6,1.9-33.9,1.9c-1.5,0-2.6,0.6-3.1,2C685.9,779.9,676.9,779.9,667.9,779.9z"/>
	<path class="st2" d="M815.9,386.1c0.3,0,0.7,0,1,0c0,8.3,0,16.7,0,25c-1.3,0-1.9,0.7-2.1,1.9c-5.1-0.2-9.1,3-13.4,4.9
		c-20.8,9.1-42.4,14.4-65.1,13c-14.9-0.9-29-5-42.1-12.4c-1.3-0.7-3.2-1.3-3.4-3.4c6.9,3,13.7,6.5,20.8,8.8
		c17.1,5.5,34.6,6.6,52.4,3.2c16.2-3.1,31.6-8.3,46.4-15.4c3.8-1.8,5.9-4.1,5.5-8.8C815.5,397.4,815.9,391.7,815.9,386.1z"/>
	<path class="st3" d="M764.9,767.1c-5.8-8.3-10.9-17-18.2-24.1c-16.9-16.5-35.9-16.2-54.4-6.4c-14.8,7.8-25.8,20-34.8,34.1
		c-1,1.6-1.7,3.2-1.7,5.1c-10.7-0.4-21.4-1.9-32.1-1.9c-2.9,0-5.9,1.3-8.8,0c-2.7-14.9-9.2-27.6-21.4-36.9
		c-11.4-8.7-24-13-38.5-12.1c-7.1,0.5-10.9,5.2-15.6,9.3c-12.9,11-20.2,24.4-19.2,41.6c-2.3,0.4-4.3-0.8-6.1-1.8
		c-6.9-4.3-14.8-6.8-19.2-15.1c-2.9-5.4-8.8-9.1-10.6-15.8c-1.2-4.5-2.9-8.8-3.6-13.6c-0.9-5.7-2-11.2-1.8-17
		c0.4-10.7,2.3-20.9,5.6-31.1c3.7-11.7,7.8-23.2,13.7-34c5.5-10,7.6-20.5,9-31.6c1.9-14.5,1.7-29.3,4.4-43.5
		c3.8-20.6,0.9-41,2.3-61.4c0.1-1.9-0.8-4.4,1.6-5.3c2.3-0.8,4.7-0.8,7.1,0.7c3.5,2.1,7.3,3.9,11.4,3.7c3-0.2,4.9,3,7.9,2.2
		c0.4,13.5-1.8,26.8-2.2,40.3c-0.3,9.3-1.1,18.5-2,27.8c-0.6,5.8-1,11.6-2.6,17.2c-4.6,15.8-8.8,31.6-11.5,47.9
		c-2.9,17.3-3.2,34.4,3.2,51c3.5,9,8.3,16.7,18.4,19.3c3.3,0.8,6.4,0.1,8.7-2.5c2.3-2.6,0.3-4.9-0.8-7.2c-0.6-1.4-1.5-2.6-2.4-3.7
		c-1.8-2.3-2.1-4.6-0.8-7.4c1.6-3.3,2.7-6.7,3.1-10.5c0.9-7.9,2.1-15.8,3.1-23.7c2.5-20.6,9.4-40.3,13.8-60.6
		c1.1-4.9,3.9-6.4,8.1-7.1c7-1.2,14-2.8,21-3.7c4.1-0.5,8.4-0.6,12.5-0.1c5.2,0.7,9.6,3.4,11.1,8.8c1.3,4.4,2.1,9,2.2,13.7
		c0.8,27.6-1.5,55.2-1,82.9c0.1,5.8,0,11.7,0.1,17.5c0,2.1-0.5,3.7-2,5.4c-4.6,4.8-3.5,9.4,2.4,12.6c6.5,3.6,13.9,1.6,20.6,3.8
		c0.7,0.2,1.9-0.6,2.7-1.1c3.9-2.6,5.7-6.5,6.1-10.9c0.9-11.6,1.9-23.2,2-34.8c0.3-29.8,0.2-59.6,0-89.5c0-3.9,1.1-6.1,5.1-7.2
		c10.2-2.9,20.3-4.6,30.9-2.5c3.1,0.6,4.6,1.7,5,4.9c1.2,10,2.6,20,4.2,30c2.7,16.5,3.9,33.2,5.8,49.8c0.9,7.7,1.1,15.8,4.5,22.8
		c2.3,4.7,3.2,8.2,1,13.2c-1.3,3-2.2,7.7,2,9.8c3.7,1.9,7.3,0.7,10.3-2.6c5.1-5.6,9-11.9,12.4-18.6c2-3.9,3.6-8.2,3.8-12.8
		c1.3-26.4-2-52.3-7.7-78.1c-2.9-13.1-7.2-25.8-7.7-39.5c-0.2-5.4-0.3-10.9-1-16.4c-2-15.1-2.7-30.4-5.8-45.3c1.1-3.8,5-2.4,7.1-3
		c4.9-1.3,8.9-4.9,14.2-5.1c3.7-0.2,4.9,1,4.8,4.8c-0.3,18-2.8,35.9-2.4,54c0.2,8.6,1.6,17.1,2.8,25.4c0.9,6.4,2.8,13.1,5.6,19.5
		c2.2,5,3.2,11.2,4.9,16.8c1.6,5.3,3.1,10.5,4.8,15.8c3.8,11.9,8.6,23.4,12.5,35.3c1.6,4.8,2.9,9.8,5,14.2c2.3,5,2.6,10.5,3.1,15.2
		c0.8,7.6,3.2,15.3,2.5,22.9c-1.2,12.5-2.3,25-9.9,35.9C771.2,760.5,768.3,764,764.9,767.1z"/>
	<path class="st1" d="M718.8,505.1c3,15,3.8,30.2,5.8,45.3c0.7,5.4,0.8,11,1,16.4c0.4,13.7,4.8,26.4,7.7,39.5
		c5.7,25.7,8.9,51.7,7.7,78.1c-0.2,4.6-1.8,8.9-3.8,12.8c-3.4,6.6-7.3,13-12.4,18.6c-3,3.3-6.6,4.5-10.3,2.6c-4.2-2.1-3.3-6.8-2-9.8
		c2.3-5,1.3-8.4-1-13.2c-3.4-6.9-3.6-15-4.5-22.8c-1.9-16.6-3.2-33.3-5.8-49.8c-1.6-10-3-20-4.2-30c-0.4-3.3-1.9-4.3-5-4.9
		c-10.6-2.1-20.8-0.4-30.9,2.5c-4,1.1-5.1,3.3-5.1,7.2c0.1,29.8,0.2,59.6,0,89.5c-0.1,11.6-1.1,23.2-2,34.8
		c-0.4,4.3-2.2,8.3-6.1,10.9c-0.8,0.5-2,1.3-2.7,1.1c-6.7-2.2-14.1-0.2-20.6-3.8c-5.9-3.3-7.1-7.8-2.4-12.6c1.5-1.6,2.1-3.2,2-5.4
		c-0.1-5.8,0-11.7-0.1-17.5c-0.5-27.6,1.8-55.2,1-82.9c-0.1-4.7-1-9.3-2.2-13.7c-1.6-5.4-5.9-8.1-11.1-8.8
		c-4.1-0.6-8.4-0.5-12.5,0.1c-7.1,0.9-14,2.5-21,3.7c-4.2,0.7-7.1,2.2-8.1,7.1c-4.4,20.2-11.3,39.9-13.8,60.6
		c-1,7.9-2.2,15.8-3.1,23.7c-0.4,3.7-1.6,7.2-3.1,10.5c-1.3,2.8-1.1,5.1,0.8,7.4c0.9,1.2,1.8,2.3,2.4,3.7c1.1,2.4,3.2,4.7,0.8,7.2
		c-2.3,2.5-5.4,3.3-8.7,2.5c-10.2-2.6-15-10.3-18.4-19.3c-6.4-16.7-6.1-33.7-3.2-51c2.7-16.2,6.9-32.1,11.5-47.9
		c1.6-5.5,2.1-11.4,2.6-17.2c0.9-9.2,1.7-18.5,2-27.8c0.4-13.5,2.6-26.8,2.2-40.3c5.2,1.8,10.9,1.1,16.1,3.4
		c0.3,0.1,0.6,0.4,0.9,0.4c9.3-1,17.9,5.5,27.6,2.5c3.1-1,5.3,3.1,9.1,2.7c6.1-0.6,12.3-0.2,18.4-0.2c6.7,0,13.3,0,20,0
		c2.3,0,4.6,0.2,6.4-1.9c1.1-1.3,2.7-0.8,4.2-0.7c5.6,0.4,11.5,2.4,16.7-1.9c0.6-0.5,1.9-0.4,2.9-0.4c10.8-0.1,21-3.2,31.5-5.6
		c4-0.9,8.1-2.5,12.4-2.6C711.9,507.8,714.7,503.8,718.8,505.1z"/>
	<path class="st4" d="M466.1,347.2c11,0.8,21.6,2.5,31.8,7.2c23.9,10.9,42.1,28.1,55.4,50.5c11.4,19.2,16.7,40.1,15.5,62.4
		c-0.5,9.8-1.9,19.5-2.8,29.2c-0.3,3.4-3.2,5.9-3.2,9.4c-4.8-2.8-10.7-1.2-15.8-4.2c-3.2-1.9-8.2-0.9-12.3-2.5
		c-7.8-3.1-16.2-4.4-24.1-7.9c-8.2-3.6-16.2-7.6-24.5-11.2c-6.4-2.8-12.2-6.8-17.5-11.6c-3.1-2.8-7-4.8-10-8
		c-7.6-8.3-14.4-17-18.3-27.7c-3.6-9.9-5.3-20.6-2.8-30.4c2.2-8.5,3.7-17.4,9.3-25.3c5.2-7.4,10.2-14.8,16.9-20.9
		C466.6,353.4,465.8,350.2,466.1,347.2z M489.9,459.5c-0.1-3.1-3.7-2.3-5.4-4c-0.7-0.6-1.6,0.4-1.3,1.4c0.8,2.7,3.4,3.5,5.5,4.7
		C489.5,462,489.9,460.8,489.9,459.5z"/>
	<path class="st1" d="M520.1,775.8c-0.9-17.3,6.4-30.7,19.2-41.6c4.7-4,8.5-8.8,15.6-9.3c14.5-0.9,27.1,3.4,38.5,12.1
		c12.2,9.4,18.7,22,21.4,36.9c-3.5,0-7,0.2-10.5,0c-26.3-1.4-52.5,3.1-78.8,2.1C523.8,775.8,522,775.8,520.1,775.8z"/>
	<path class="st4" d="M815.9,386.1c0,5.7-0.4,11.3,0.1,17c0.4,4.7-1.7,7-5.5,8.8c-14.8,7.1-30.2,12.3-46.4,15.4
		c-17.8,3.4-35.3,2.3-52.4-3.2c-7.1-2.3-13.9-5.8-20.8-8.8c-0.3-0.1-0.6-0.1-0.9-0.2c-1.4-3.2-4-4.8-7.2-5.8
		c-0.8-0.1-1.5-0.4-1.8-1.2c-1.9-4-4.9-7-9-8.9c-0.4-0.6-0.8-1.3-1.2-1.9c0.1-1.9-0.9-2.9-2.8-3.1c-0.4-0.6-0.8-1.3-1.2-1.9
		c0.1-1.3-0.5-2-1.8-2.1c-0.1-0.3-0.2-0.6-0.2-0.9c0.1-1.3-0.4-2-1.7-2.2c-0.1-0.3-0.2-0.6-0.2-0.9c-2.6-5.8-4.9-11.7-8-17.3
		c-1.2-2.2,0.2-5.6-3.1-6.8c0-0.6-0.1-1.2-0.1-1.8c-0.4-5.6-2-10.9-3.4-16.2c-0.6-2,1-4.9-2.1-6.1c0-1.7,0-3.3-0.1-5
		c1.7-7.9,0.6-15.8,0.7-23.7c0-4.1,1.2-5.4,5.3-5.3c17.6,0.2,35.2,0,52.8,0c0.3,0.1,0.6,0.2,0.9,0.3c0.3,0.5,0.5,1.3,0.9,1.4
		c1,0.2,1-0.8,1.2-1.5c0,0,0,0,0,0c1.5-0.2,3.6,0.7,4-2c5.6-0.7,7.1-5.4,8.6-9.6c2.5-7.2,3.7-14.9,6.8-21.8
		c2.4-5.2,4.1-10.6,6.6-15.7c1.3-2.6,5.2-3,6.4-0.6c1.1,2.3,2.5,4.5,2.7,7.3c0.8,8.6,2,17.1,3.4,25.6c0.9,5.1,1.8,10.3,2.7,15.4
		c1.5,8.6,1.6,18.1,9.9,24.2c4.2,3.1,9.6,3,13.7,6.2c0.6,0.5,1.8,0.3,2.3,0.9c7,7.7,17,11.7,23.8,19.6c6.6,7.6,11.4,16.3,15.7,25.3
		C815.5,381,814.2,383.9,815.9,386.1z"/>
	<path class="st2" d="M705,304c-17.6,0-35.2,0.2-52.8,0c-4.2,0-5.3,1.2-5.3,5.3c-0.1,7.9,1.1,15.9-0.7,23.7c-1.7-1.2-1.1-3-1.1-4.6
		c0-8.4,0-16.9,0.1-25.3c2.2-0.7,4.5-1,6.8-1c16,0.1,32.1,0,48.1,0.1C701.8,302.2,704.2,301.1,705,304z"/>
	<path class="st2" d="M651.9,362c3.3,1.2,1.9,4.6,3.1,6.8c3,5.5,5.3,11.5,8,17.3c-4.4-2.3-5.2-7.1-6.9-10.9
		C654.2,371,650.9,367.1,651.9,362z"/>
	<path class="st2" d="M646.2,338c3.1,1.1,1.5,4.1,2.1,6.1c1.5,5.3,3,10.7,3.4,16.2c-2.1-0.7-2.3-2.9-2.6-4.5
		C648.2,349.9,645.5,344.2,646.2,338z"/>
	<path class="st2" d="M672,399c4.1,1.9,7,4.9,9,8.9C676.7,406.2,673.8,403.2,672,399z"/>
	<path class="st2" d="M682.8,409.1c3.2,0.9,5.8,2.6,7.2,5.8C686.9,413.9,683.9,412.6,682.8,409.1z"/>
	<path class="st2" d="M668,394c1.9,0.2,2.9,1.2,2.8,3.1C669.1,396.8,668,396,668,394z"/>
	<path class="st2" d="M663.1,387c1.3,0.1,1.8,0.9,1.7,2.2C663.6,388.9,663,388.3,663.1,387z"/>
	<path class="st2" d="M665.1,390c1.3,0.1,1.9,0.8,1.8,2.1C665.6,391.9,665,391.3,665.1,390z"/>
	<path class="st2" d="M711.9,302.1c-0.4,2.6-2.5,1.7-4,2C708.3,301.4,710.4,302.3,711.9,302.1z"/>
	<path class="st2" d="M707.9,304.1c-0.1,0.7-0.1,1.7-1.2,1.5c-0.4-0.1-0.6-0.9-0.9-1.4C706.5,304.2,707.2,304.1,707.9,304.1z"/>
	<path class="st5" d="M489.9,459.5c0,1.3-0.4,2.5-1.2,2c-2.1-1.1-4.7-1.9-5.5-4.7c-0.3-0.9,0.6-2,1.3-1.4
		C486.2,457.2,489.8,456.4,489.9,459.5z"/>
</g>
<g>
	<path class="st6" d="M669,796c-6.2-2.3-12.9-3.4-17.6-8.8c-1.3-1.5-3.4-1-5.2-1.1c-5.9-0.3-12,0.9-17.8-1.5
		c-0.8-0.3-2.1-0.2-2.9,0.2c-9.2,5.8-20,5.5-30,6.9c-22.9,3.3-46.2,2.2-69.3,2.4c-7.8,0-14.2-1.7-17.4-9.7c-0.5-1.3-1.6-2-3.1-2.3
		c-15-3.2-25.1-12.9-32.9-25.4c-3-4.8-5.3-10.1-6.4-15.6c-0.8-4.2-3.1-6.6-6.2-9.2c-12.7-10.3-25.4-20.4-34.4-34.5
		c-12.2-19.1-18.9-39.8-20-62.5c-1.3-27.7,1.4-55.2,3.7-82.7c1.4-16.3,2.5-32.6,0.7-48.9c-2.4-22.2-12.6-40.9-27-57.4
		c-9.6-11-20.7-20.3-35-24.8c-8-2.5-16.1-2.1-24.1-0.4c-4.5,1-9,2.3-13.6,3.3c-2.6,0.5-5.7,1.4-7.1-1.7c-1.4-3.3-1.1-6.6,1.9-9.1
		c4.7-3.9,10.4-5.9,16.1-7.8c20.7-6.9,39.5-2.2,56.5,10.3c28.2,20.8,46,48.4,50.7,83.4c2.2,16.5,1.8,33.2,0.1,49.8
		c-1.3,12.4-2.2,24.8-2.9,37.3c-0.8,13.7-0.7,27.3-1,40.9c-0.6,30,11,55,31.3,76.4c2.1,2.2,4,6.4,6.8,5.7c2.2-0.6,1.6-5.3,2.1-8.2
		c3.2-18.2,9.6-35.4,17.9-51.7c7.4-14.6,10.3-30.1,11.9-46.1c2.2-21,4.8-42,6.4-63c0.7-9.9,1.3-19.9,2-29.8c0.2-3.2-2-4-4.1-4.8
		c-12.8-5.1-24.5-12.1-35.4-20.3c-14.7-11-26.9-24.3-34-41.7c-11.2-27.7-5.3-52.9,12.1-76c4.1-5.4,8.1-11,13.6-15.3
		c2.1-1.6,2.3-3.9,2.3-6.3c0.1-22,2.8-43.8,5.9-65.5c1.8-12.7,2.6-25.5,6.6-37.7c3.7-11.3,13.7-13.6,22-5.1
		c9.1,9.3,13.6,21.3,18.3,33c4.7,11.7,9.4,23.5,12.8,35.7c0.9,3.4,2.3,4.3,5.7,2.6c16.8-8.4,35-11.4,53.3-14.3
		c30.1-4.6,60.4-3.9,90.7-3.6c9.9,0.1,19.9,1.4,29.8,2.6c4.7,0.6,6.6-0.3,7.7-5.5c3.6-16.6,9.1-32.7,16.2-48.2c2-4.3,5-7.8,9.3-10.1
		c2.7,0,5.3,0,8,0c8.2,4,11.3,11.4,13.2,19.6c4.5,20,8.1,40.2,7.8,60.8c0,3.1,0.6,5.1,3.9,6.6c25.7,11.2,45.9,28.6,58.5,54
		c5.1,10.4,8.3,21.6,7.3,33.3c-1.9,23.4-12.3,43-28.8,59.4c-12.7,12.7-27.2,23-43.1,31.2c-3.2,1.6-4.6,3.2-4,7.2
		c0.8,6.5,1.3,13.1,0.9,19.9c-1.1,17.6-1.1,35.2,2.1,52.7c4,21.7,12.1,42.2,18.7,63.1c7.7,24.5,18.4,48.2,20.1,74.4
		c1.2,17.6-1.3,34.2-8.8,50c-3.4,7.2-7.8,14-15.7,17.4c-0.9,0.4-1.8,1.5-2.2,2.5c-3,7.7-9.8,9.9-16.7,9.4
		c-8.1-0.6-15.9,0.8-23.8,1.8c-7.7,1-15.6,0.4-23.2,2.8C696.3,796,682.7,796,669,796z M737.2,264.4c-4.1,11.8-8.2,23.5-12.1,35.3
		c-2.5,7.4-12.3,13.2-19.6,11c-3-0.9-5.8-1-8.8-0.7c-3.5,0.4-6.9,0.8-10.4,1c-18.4,0.7-36.9-0.4-55.3,0.8c-15.2,1-30.6,0.3-45.8,2.2
		c-17.7,2.2-35.2,5.4-51.4,13.4c-3.4,1.7-7,3.2-10.7,4.2c-5.9,1.6-11.6-1.1-12.4-6.2c-1.2-8.1-4.7-15.2-7.6-22.6
		c-5.8-14.7-11.5-29.4-17.4-44c-0.6-1.4-1-3.8-2.9-3.5c-1.8,0.3-1.4,2.7-1.7,4.3c-3,18.7-5.8,37.5-7.6,56.4
		c-1.2,11.7-1.4,23.5-2.7,35.3c-0.6,5.6-1.6,10.2-5.3,14.4c-4,4.5-8.2,8.7-11.4,13.8c-14.2,22.3-15.6,45.7-0.1,68.2
		c10.5,15.2,25.2,25.5,41.4,33.8c30.4,15.7,63.2,23.2,97,25.1c27.4,1.6,54.9,1.1,82.1-4c27.7-5.1,54.3-13,79.3-26.3
		c20.3-10.9,38.4-24.1,50.7-43.9c8.4-13.5,12.1-28.1,7.5-43.9c-7.6-25.8-26.7-40.9-49.7-52c-5-2.4-9.7-5.1-11.3-10.5
		c-3.2-10.8-6.1-21.8-7.6-33C741.8,283.5,740.3,274.1,737.2,264.4z M646,687.8c0.1-26-0.3-52,0.9-77.9c0.3-6.4,2-12.5,2.5-18.8
		c0.2-2.4,1.7-4.5,4.4-4.8c2.6-0.3,4.5,1.1,5.4,3.6c0.7,2,1.6,4.1,1.9,6.2c2.3,16.2,3.3,32.5,3.8,48.7c0.5,16.7,0.2,33.3,0.1,50
		c-0.1,26,0.8,52-1.7,77.9c-0.3,2.7,0.7,4.2,3.4,4.5c2.1,0.3,4.3,0.7,6.4,0.7c10.6,0.3,21.2,0.1,31.8-0.8
		c15.6-1.4,31.2-2.7,46.9-2.1c0.3,0,0.7,0,1-0.1c2.6-0.3,3.5-1.5,2.5-4.1c-2-5-4.2-9.8-7.3-14.2c-6-8.7-14.2-13.2-25-12.8
		c-9.9,0.4-17.7,5.3-25.2,10.9c-3.1,2.3-6.4,3.3-9.5,0.4c-3.1-2.9-2.2-6.2-0.3-9.5c4.2-7.5,10.7-12.4,18.4-15.5
		c4.7-1.9,4.5-4.1,3.4-7.9c-4.1-14.2-7.9-28.5-10.7-43c-2.9-14.7-4.3-29.6-5.7-44.6c-1.3-14.3-1.5-28.6-1.1-42.9
		c0.1-3.4,0.1-7.7,4.6-8.4c4.3-0.7,6,2.9,7.3,6.2c2.7,6.8,3.7,14.1,5.1,21.3c2.2,11.3,2.7,22.8,4.4,34.2
		c3.8,25.3,7.7,50.7,10.4,76.1c0.3,3.3,1.6,4.8,5,4.8c2.7-0.1,5.3,0.2,7.9,0.9c13.8,4,23.4,12.8,29.7,25.6c0.8,1.7,1.1,4.6,3.3,4.5
		c2.4,0,2.9-2.9,3.9-4.7c0.2-0.3,0.2-0.6,0.4-0.9c8.6-20.6,6.9-41.4,0.8-62.1c-7.7-26.2-18.2-51.5-26.1-77.6
		c-5.6-18.4-9.5-37-9.8-56.4c-0.2-14.4,2.3-28.5,2.1-42.9c-0.1-7.4,0-7.4-7.1-4.8c-7,2.5-14,5.2-21.2,7.2
		c-33.4,9.2-67.3,14-102.1,13.4c-29.2-0.5-57.7-4.5-85.6-13c-5.2-1.6-6.2-1.1-6,4.2c0.8,28.7-0.6,57.3-4.1,85.7
		c-1.5,12.2-2.3,24.5-6.5,36.3c-3.8,10.9-9.7,20.8-13.8,31.6c-7,18.7-12.6,37.5-8.7,57.9c2.7,14.1,10.2,25.1,20.1,34.9
		c2,2,3.1,1.3,3.7-1.2c1.5-6.4,4.3-12.3,7.5-17.9c4.4-7.8,10.1-14.8,18.7-18c3.9-1.5,5.1-3.5,5.6-7c2.5-20.2,5.5-40.2,9.5-60.2
		c3.8-18.9,7.4-37.9,11.5-56.8c1-4.5,1.5-9.2,3.7-13.4c1.9-3.6,4.5-6.6,8.9-5.8c4.2,0.8,5.6,4.2,5.8,8.3c0.2,4.2-0.5,8.3-1,12.4
		c-2.4,22.5-6.8,44.8-10.6,67.1c-2.8,16-7.5,31.7-11.3,47.6c-1.4,5.7-1,6.1,4.7,7.2c6.2,1.2,12.5,2.5,17.3,7.2c3.1,3.1,4.2,8,2,10.9
		c-2.7,3.4-6.1,3.5-9.9,1.8c-7.5-3.4-15.3-4.3-23.4-3.8c-5.4,0.3-9.8,2-13.2,6.7c-4.5,6.3-7.1,13.1-8.7,20.5c-0.6,2.7,0.8,4,3.2,3.6
		c10.3-1.8,20.6-0.7,30.9-1.3c15.2-0.9,30.6-0.8,45.9-0.8c3.4,0,4.8-0.2,4.5-4.2c-0.7-11.6-0.7-23.3-1.1-34.9
		c-1.4-39.8,0.9-79.6,3.9-119.2c0.4-5.8-0.1-11.7,1.7-17.3c1.1-3.3,2.6-6.5,6.8-5.9c3.9,0.5,5.7,3.4,6.1,6.9
		c0.6,4.4,1.2,8.9,1.2,13.4c-0.1,22.1,0.1,44.3-0.9,66.4c-0.8,17-0.2,34-0.2,51c0,11.8,0,23.7,0,35.5c0,2.3-0.5,4.9,2.8,5.5
		c3.9,0.7,7.9,1.3,11.8,2.2c3.9,0.9,4.6-0.9,4.3-4.3c-1.2-11.6-2-23.2-1.9-34.9C646.1,717.8,646,702.8,646,687.8z"/>
	<path class="st6" d="M353,651.5c1.3,11.3-3.4,20.4-8.6,29.1c-2.2,3.7-1.6,5.2,2.1,7.2c17.8,9.7,33.2,22.8,49,35.3
		c5.1,4,10,8.2,15.1,12.3c2.2,1.8,4,3.9,5.4,6.4c2.1,3.7,2.6,7.3-0.3,10.7c-2.9,3.4-6.8,4.2-10.9,2.7c-9.5-3.4-19-7-28.5-10.6
		c-20.3-7.8-40.6-15.7-60.9-23.6c-3.6-1.4-6-0.9-8.1,2.9c-5.8,10.5-15.5,15.3-26.7,18.3c-13.4,3.6-25.5,1.2-37.4-5.5
		c-12.6-7.1-18.6-18.4-15.9-32.8c0.8-4.1,0.3-6-4-7.8c-10.9-4.6-20.3-11.6-26.4-22.1c-5-8.5-7.1-17.7-3.2-27.3
		c4.5-11.3,13.9-15.6,25.2-16.7c5.7-0.6,11.3,0.2,16.8,1.8c5.5,1.5,6.4,0.8,7.3-4.7c1.3-8.1,5.2-14.8,10.2-21.3
		c9.6-12.4,25.3-9.6,33.7,4.3c1.3,2.1,2.5,4.4,3.3,6.7c1.4,3.9,3.6,4,6.9,2.2c8.2-4.5,16.8-7.2,26.3-5c13.3,2.9,21.9,11.2,27,23.5
		C352.3,642.2,353.7,647,353,651.5z M374.3,728.3c-0.4-2-1.7-2.6-2.7-3.3c-9.6-7.2-19.5-14-28.8-21.6c-12.4-10.1-18-13.6-12.2-31.4
		c2.1-6.3,3.9-12.7,3.4-19.5c-0.9-12.5-9.8-20.6-21-18.2c-5.7,1.2-10.5,4.7-14.8,8.9c-7.1,6.9-16.5,4-19.5-5.3
		c-1.9-6-3.3-12.2-6.6-17.7c-2.7-4.4-4.6-4.5-7.3-0.2c-4.3,6.8-7.6,13.9-6,22.5c1.1,6.2-3.7,10.8-9,8.7c-4.8-2-9.7-2.3-14.6-2.9
		c-6.7-0.8-13.5-2.1-20.3,0.2c-5.3,1.8-7.4,5.4-6,10.7c3.6,13.5,14.1,19.9,25.7,25.2c2.1,1,4.4,0.4,6.1-1c3.8-3.2,5.6-0.9,7.2,2.4
		c1.6,3.2,1.1,6.2-0.6,9c-2.3,3.9-3.6,8.3-4.5,12.6c-0.9,4.2-0.7,8.6,2.7,12.1c7.6,7.7,16.7,11.3,27.6,9.4
		c10.2-1.8,19.1-5.7,24.6-15.2c4.5-7.9,7.6-9.2,16.4-6.2c16.9,5.7,33.7,11.4,50.3,18C367.3,726.7,370.4,728.2,374.3,728.3z"/>
	<path class="st6" d="M630.2,431.6c-0.2,5-0.7,9.9-3,14.5c-2.3,4.7,1.1,17.5,4.7,21.4c4.5,4.9,9.3,9.7,10.4,16.6
		c0.4,2.7,0.6,5.6-2.1,7.2c-2.5,1.4-5.1,0.7-7.5-0.9c-3-1.9-5.3-4.6-7.7-7.1c-1.9-1.9-3.4-1.8-4.8,0.4c-2,3.2-4.1,6.5-6.1,9.7
		c-1.6,2.4-3.6,4-6.7,3c-3.2-1-3.8-3.7-3.4-6.4c1.1-7.6,3.9-14.7,7.7-21.4c4.3-7.6,3.2-16.8-2.6-23.2c-4.2-4.5-7.7-9.6-10.6-15
		c-2.2-4-1.4-7.3,2.1-9.5c5-3.2,10.5-5.8,16.5-6.8c7-1.1,11,2,12.3,9.1C629.8,425.9,629.9,428.8,630.2,431.6z"/>
	<path class="st6" d="M670.1,384.8c-0.6,8-1.5,16.9-8.2,23.9c-9.1,9.4-22,7.7-26.8-4.4c-5.9-15-6.7-30.2,3.8-44.1
		c9.2-12.3,19.9-11.4,27,2.2C669.4,369,669.9,376.3,670.1,384.8z M654,382.8c0.1-4.3,0-8.6-1.6-12.8c-0.4-0.9-0.8-2-2-1.9
		c-1,0.1-1.3,1-1.5,1.8c-2.6,8.4-3.7,16.8-0.9,25.4c0.3,1,0.3,2.6,1.9,2.5c1.4-0.1,1.7-1.4,2.2-2.4C654.2,391.4,654,387.1,654,382.8
		z"/>
	<path class="st6" d="M599.1,392.8c0.1,5.8-0.3,10.9-2.3,15.8c-3.6,8.9-11.2,15-17.9,14.3c-7.2-0.8-14.4-8.7-16.7-17.4
		c-2.9-11.1-2.5-22,0.1-33c0.9-3.9,2.7-7.3,7.3-8.6c7.9-2.3,15.5-4.5,21.8,3.3C597.7,374.9,599.4,383.8,599.1,392.8z M584.2,392.8
		c0.2-4.9-0.2-9.7-3.1-13.9c-1.1-1.5-2.4-2.9-4.5-2.5c-2.4,0.5-2.4,2.4-2.5,4.3c0,3.2-0.3,6.4,0.1,9.5c0.5,3.8,1.3,7.5,2.3,11.2
		c0.6,2,1.6,4.7,3.9,4.5c2-0.1,2.7-2.8,3.1-4.7C584.1,398.5,584,395.6,584.2,392.8z"/>
	<path class="st6" d="M718.7,400c-2.4,0.1-4-0.7-5-2.4c-1.1-1.9-1-3.8,0.2-5.7c1.7-2.9,4.4-4.4,7.3-5.7c7.6-3.4,15.7-5.3,23.8-6.9
		c6-1.2,12-2.2,18.1-3.2c1.5-0.2,3-0.6,4.4-0.4c2,0.3,3.9,1.1,4.4,3.4c0.4,2.2-1,3.4-2.6,4.4c-4.7,2.9-10.1,4.2-15.2,6
		c-11,3.7-22.4,6-33.3,10.1C719.9,399.8,719.1,399.9,718.7,400z"/>
	<path class="st6" d="M750.5,454.1c-9.7-1.8-20.9-3.5-31.3-8.3c-1.6-0.7-3-2.1-4.3-3.4c-2-1.9-2.6-4.3-1.4-6.8
		c1.3-2.7,3.6-3.8,6.6-3.4c11.9,1.6,23.4,4.8,34.4,9.8c3.4,1.6,5.8,4.4,4.8,8.4C758.4,453.8,755.1,454.1,750.5,454.1z"/>
	<path class="st6" d="M732.1,421c-4.5,0-7.7,0.1-10.8-1c-2.5-0.9-4.3-2.3-4.4-5.3c-0.1-3.1,1.5-5.1,4.2-6.1c4.6-1.7,9.5-2.5,14.2-2
		c8.5,0.7,17-0.2,25.4,1.3c3.2,0.6,6.5,1.3,6.4,4.9c0,3.3-3,4.7-6.2,5.3C751,419.8,740.8,420.1,732.1,421z"/>
	<path class="st6" d="M500.9,397c9.6-0.4,18.9,0.9,28,3.9c2.7,0.9,5.2,2.4,4.8,5.5c-0.4,3.4-3.5,4.3-6.4,4.4
		c-7.8,0.5-15.6-1.9-23.4-0.8c-4.9,0.7-9.6,0.9-14.2-1c-0.5-0.2-1-0.1-1.5-0.3c-2.5-1.5-6.2-2.5-5.7-6.1c0.4-3.5,3.7-5.2,6.9-5.5
		C493.2,396.7,497,397,500.9,397z"/>
	<path class="st6" d="M512.3,466c-3.3-0.1-5.7,0-6.8-2.8c-1-2.5,0.2-4.5,1.9-6.2c6.3-6.5,14.5-9.9,22.4-13.5c3.1-1.4,6-3.5,9.7-3.5
		c3.1,0,6.2,0.2,7.6,3.4c1.6,3.6-1.1,6.1-3.5,8c-5.5,4.3-11.7,7.5-18.3,10C520.9,463.1,516.5,465.7,512.3,466z"/>
	<path class="st6" d="M532.9,424c0.2,3.7-1.5,5.3-3.9,6.5c-6.7,3.4-14,5.3-21.3,6.4c-2.9,0.5-5.8,0.5-8.7,1.7
		c-3.3,1.3-6.3,0.5-8-2.9c-1.6-3.4,0.3-5.8,2.9-7.5c5.8-3.8,12.3-6.1,19-7c4.6-0.6,8.9-2.6,13.7-2.2
		C530.3,419.3,532.4,421,532.9,424z"/>
</g>
</svg>
