<?xml version="1.0" encoding="iso-8859-1"?>
<!-- Generator: Adobe Illustrator 23.0.0, SVG Export Plug-In . SVG Version: 6.00 Build 0)  -->
<svg version="1.1" id="&#x56FE;&#x5C42;_1" xmlns="http://www.w3.org/2000/svg" xmlns:xlink="http://www.w3.org/1999/xlink" x="0px"
	 y="0px" viewBox="0 0 1040 720" style="enable-background:new 0 0 1040 720;" xml:space="preserve">
<g>
	<path style="fill:#F0F0FF;" d="M7.576,455.782C-5.62,374.537,38.709,160.529,274.365,44.649
		c64.085-31.513,227.666,44.369,315.805,9.703C759.642-5.193,813.244,6.936,813.244,6.936s146.534,38.879,192.864,126.042
		c65.075,122.427,24.562,342.506-261.287,483.591c-171.266,94.602-335.808,94.602-408.887,94.602s-108.712-47.945-102.883-67.794
		c5.828-19.848,50.617-20.364,50.617-51.296c0-30.932-15.657-25.697-47.713-27.759C203.898,562.26,31.184,601.134,7.576,455.782z"/>
	<path style="fill:#C7D0FF;" d="M7.576,455.782C-5.62,374.537,53.414,175.234,289.07,59.354
		c64.085-31.513,212.961,44.068,301.1,9.403c169.472-59.545,208.87-47.616,208.87-47.616s144.933,24.674,191.264,111.837
		c65.075,122.427,5.355,342.506-280.493,483.591c-171.265,94.602-300.796,94.602-373.876,94.602s-84.288-47.945-78.459-67.794
		c5.828-19.848,42.816-20.364,42.816-51.296c0-30.932-32.28-39.181-64.337-41.243C203.898,548.776,31.184,601.134,7.576,455.782z"/>
	<g>
		<defs>
			<path id="SVGID_1_" d="M25.459,471.187c-9.414-81.769,27.955-280.547,263.61-396.428c64.085-31.513,212.961,28.663,301.1-6.002
				c142.047-45.015,186.706-39.131,186.706-39.131s135.695,5.376,182.026,92.54c65.075,122.427,17.966,353.319-267.883,494.404
				c-171.265,94.602-282.005,94.602-355.084,94.602s-84.288-47.945-78.459-67.794c5.828-19.848,42.816-20.364,42.816-51.296
				c0-30.932-32.28-39.181-64.337-41.243C203.898,548.776,38.013,580.224,25.459,471.187z"/>
		</defs>
		<clipPath id="SVGID_2_">
			<use xlink:href="#SVGID_1_"  style="overflow:visible;"/>
		</clipPath>
		<linearGradient id="SVGID_3_" gradientUnits="userSpaceOnUse" x1="24.1641" y1="368.7097" x2="984.7012" y2="368.7097">
			<stop  offset="0" style="stop-color:#1D0B3F"/>
			<stop  offset="0.5025" style="stop-color:#140B48"/>
			<stop  offset="1" style="stop-color:#06033A"/>
		</linearGradient>
		<path style="clip-path:url(#SVGID_2_);fill:url(#SVGID_3_);" d="M25.459,471.187c-9.414-81.769,27.955-280.547,263.61-396.428
			c64.085-31.513,212.961,28.663,301.1-6.002C759.642,9.212,776.875,29.626,776.875,29.626s135.695,5.376,182.026,92.54
			c65.075,122.427,17.966,353.319-267.883,494.404c-171.265,94.602-282.005,94.602-355.084,94.602s-84.288-47.945-78.459-67.794
			c5.828-19.848,42.816-20.364,42.816-51.296c0-30.932-32.28-39.181-64.337-41.243C203.898,548.776,38.013,580.224,25.459,471.187z"
			/>
		<path style="opacity:0.3;clip-path:url(#SVGID_2_);fill:#2F1A7C;" d="M85.202,108.37c0,0,160.453,140.247,321.907,78.626
			S681.2,57.353,1057.125,108.37c4.201,55.218,8.603,123.241,8.603,123.241s-188.063,53.018-361.72,21.207
			S460.527,387.463,296.872,376.459S73.198,227.41,61.794,204.002S85.202,108.37,85.202,108.37z"/>
		<path style="opacity:0.3;clip-path:url(#SVGID_2_);fill:#2F1A7C;" d="M187.836,647.95c0,0,130.243,38.413,221.474,12.804
			s295.498-95.632,407.936-89.23c112.438,6.402,126.642-68.023,126.642-68.023s-95.632-79.426-215.272-62.021
			S585.768,545.716,538.953,554.319s-149.45-46.415-255.285-31.611s-165.855,51.017-165.855,51.017L187.836,647.95z"/>
		<g style="clip-path:url(#SVGID_2_);">
			
				<ellipse transform="matrix(0.8388 -0.5445 0.5445 0.8388 -149.1392 532.2029)" style="opacity:0.3;fill:#58569F;" cx="824.048" cy="517.921" rx="87.46" ry="33.3"/>
			
				<ellipse transform="matrix(0.8388 -0.5445 0.5445 0.8388 -149.1392 532.2029)" style="opacity:0.4;fill:#6B6D9B;" cx="824.048" cy="517.921" rx="75.289" ry="28.666"/>
			
				<ellipse transform="matrix(0.8388 -0.5445 0.5445 0.8388 -149.1392 532.2029)" style="opacity:0.5;fill:#1C1C9B;" cx="824.048" cy="517.921" rx="64.508" ry="24.561"/>
			
				<ellipse transform="matrix(0.8388 -0.5445 0.5445 0.8388 -149.1392 532.2029)" style="opacity:0.6;fill:#31399B;" cx="824.048" cy="517.921" rx="52.337" ry="19.927"/>
			
				<ellipse transform="matrix(0.8388 -0.5445 0.5445 0.8388 -149.1392 532.2029)" style="fill:#292D82;" cx="824.048" cy="517.921" rx="40.513" ry="15.425"/>
			<g style="opacity:0.6;">
				
					<radialGradient id="SVGID_4_" cx="2900.271" cy="4116.9878" r="41.5071" gradientTransform="matrix(1.3872 -0.9005 0.3598 0.5542 -4672.2993 847.6919)" gradientUnits="userSpaceOnUse">
					<stop  offset="0.6656" style="stop-color:#00FFFF"/>
					<stop  offset="0.9948" style="stop-color:#00DEB8"/>
				</radialGradient>
				<path style="fill:url(#SVGID_4_);" d="M837.133,544.392c-16.18,10.503-31.333,17.08-43.82,19.017
					c-7.126,1.106-13.251,0.664-17.714-1.278c-4.043-1.759-6.574-4.724-7.125-8.346c-0.631-4.146,0.278-8.841,2.703-13.953
					c2.218-4.678,5.644-9.601,10.184-14.634c7.738-8.578,18.252-16.899,28.849-22.829c11.496-6.433,20.633-10.004,27.934-10.916
					c7.806-0.975,13.268,1.118,16.696,6.4c1.913,2.947,0.127,7.756-5.028,13.541c-5.726,6.426-14.937,13.251-23.466,17.388
					c-6.017,2.918-10.927,3.922-14.199,2.902c-2.422-0.755-3.085-2.35-3.112-2.417c-0.138-0.345,0.418-1.033,1.24-1.533
					c0.822-0.501,1.6-0.629,1.74-0.285l0,0c0.006,0.014,0.617,1.45,2.766,2.101c2.784,0.843,6.754,0.029,11.801-2.419
					c7.594-3.683,15.809-9.775,20.928-15.52c4.511-5.063,6.073-9.272,4.398-11.853c-6.233-9.602-19.416-8.321-41.488,4.031
					c-9.802,5.485-19.561,13.219-26.776,21.218c-6.353,7.044-13.619,17.461-12.154,27.089c0.522,3.43,2.931,6.243,6.782,7.919
					c4.249,1.849,10.065,2.272,16.821,1.223c11.745-1.823,26.033-8.032,41.321-17.956c19.134-12.421,34.988-26.232,44.642-38.887
					c9.339-12.243,12.241-22.438,8.172-28.706c-0.199-0.307,0.296-0.982,1.107-1.508c0.81-0.526,1.629-0.704,1.828-0.397
					c4.27,6.577,1.227,17.27-8.567,30.11C873.52,517.1,857.02,531.482,837.133,544.392z"/>
			</g>
			<g style="opacity:0.6;">
				
					<radialGradient id="SVGID_5_" cx="-7381.6851" cy="-4764.8481" r="41.5072" gradientTransform="matrix(-1.3872 0.9005 -0.3598 -0.5542 -11139.3789 4525.4487)" gradientUnits="userSpaceOnUse">
					<stop  offset="0.6656" style="stop-color:#00FFFF"/>
					<stop  offset="0.9948" style="stop-color:#00DEB8"/>
				</radialGradient>
				<path style="fill:url(#SVGID_5_);" d="M843.409,530.217c-2.062,1.339-4.148,2.601-6.237,3.77
					c-11.496,6.433-20.633,10.004-27.934,10.916c-7.807,0.975-13.268-1.118-16.696-6.4c-1.913-2.947-0.127-7.755,5.028-13.541
					c5.726-6.426,14.937-13.251,23.466-17.388c6.017-2.918,10.927-3.922,14.199-2.902c2.422,0.755,3.086,2.35,3.113,2.417
					c0.138,0.345-0.419,1.031-1.24,1.533c-0.822,0.501-1.6,0.629-1.74,0.285l0,0c-0.006-0.014-0.617-1.45-2.766-2.1
					c-2.784-0.843-6.754-0.029-11.801,2.419c-7.594,3.683-15.809,9.775-20.928,15.52c-4.511,5.063-6.073,9.272-4.398,11.853
					c6.233,9.602,19.416,8.321,41.488-4.031c9.801-5.485,19.561-13.219,26.776-21.218c6.353-7.044,13.619-17.461,12.154-27.089
					c-0.522-3.43-2.931-6.243-6.782-7.919c-4.249-1.849-10.065-2.272-16.821-1.223c-11.745,1.822-26.033,8.032-41.321,17.956
					c-19.134,12.421-34.988,26.232-44.642,38.887c-9.339,12.243-12.241,22.438-8.172,28.706c0.199,0.307-0.296,0.982-1.107,1.508
					c-0.81,0.526-1.629,0.704-1.828,0.397c-4.27-6.577-1.227-17.27,8.567-30.11c10.073-13.206,26.573-27.589,46.46-40.499
					c16.18-10.503,31.333-17.08,43.82-19.017c7.126-1.106,13.251-0.664,17.714,1.278c4.043,1.759,6.574,4.723,7.125,8.346
					c0.631,4.146-0.278,8.841-2.703,13.953c-2.218,4.678-5.644,9.601-10.184,14.634
					C859.808,518.045,851.805,524.766,843.409,530.217z"/>
			</g>
			
				<radialGradient id="SVGID_6_" cx="2613.5938" cy="4110.5449" r="14.684" gradientTransform="matrix(1.4644 -0.9506 0.3598 0.5542 -4482.2168 724.2958)" gradientUnits="userSpaceOnUse">
				<stop  offset="0.6656" style="stop-color:#ACFFF4"/>
				<stop  offset="0.999" style="stop-color:#9FFFF4;stop-opacity:0"/>
			</radialGradient>
			<path style="fill:url(#SVGID_6_);" d="M845.486,504.004c2.927,4.508-4.299,14.394-16.14,22.08
				c-11.84,7.686-23.811,10.263-26.738,5.755c-2.927-4.508,4.299-14.394,16.14-22.08S842.56,499.495,845.486,504.004z"/>
		</g>
		<g style="opacity:0.3;clip-path:url(#SVGID_2_);">
			<circle style="fill:#FFFFFF;" cx="352.291" cy="161.188" r="1.601"/>
			<circle style="fill:#FFFFFF;" cx="694.004" cy="577.526" r="1.601"/>
			<circle style="fill:#FFFFFF;" cx="573.164" cy="527.51" r="1.601"/>
			<circle style="fill:#FFFFFF;" cx="172.831" cy="660.154" r="1.601"/>
			<circle style="fill:#FFFFFF;" cx="313.678" cy="451.484" r="1.601"/>
			<circle style="fill:#FFFFFF;" cx="477.932" cy="268.624" r="1.601"/>
			<circle style="fill:#FFFFFF;" cx="495.538" cy="134.779" r="1.601"/>
			<circle style="fill:#FFFFFF;" cx="398.506" cy="183.595" r="1.601"/>
			<circle style="fill:#FFFFFF;" cx="589.77" cy="605.136" r="1.601"/>
			<circle style="fill:#FFFFFF;" cx="550.156" cy="564.122" r="1.601"/>
			<circle style="fill:#FFFFFF;" cx="476.332" cy="192.798" r="1.601"/>
			<circle style="fill:#FFFFFF;" cx="733.217" cy="174.192" r="1.601"/>
			<circle style="fill:#FFFFFF;" cx="323.481" cy="382.261" r="1.601"/>
			<circle style="fill:#FFFFFF;" cx="385.902" cy="313.238" r="1.601"/>
			<circle style="fill:#FFFFFF;" cx="660.393" cy="431.478" r="1.601"/>
			<circle style="fill:#FFFFFF;" cx="622.581" cy="521.508" r="1.601"/>
		</g>
		<g style="opacity:0.3;clip-path:url(#SVGID_2_);">
			<circle style="fill:#FFFFFF;" cx="574.565" cy="-24.674" r="1.601"/>
			<circle style="fill:#FFFFFF;" cx="916.278" cy="391.665" r="1.601"/>
			<circle style="fill:#FFFFFF;" cx="795.438" cy="341.648" r="1.601"/>
			<circle style="fill:#FFFFFF;" cx="395.105" cy="474.292" r="1.601"/>
			<circle style="fill:#FFFFFF;" cx="535.952" cy="265.623" r="1.601"/>
			<circle style="fill:#FFFFFF;" cx="700.206" cy="82.762" r="1.601"/>
			<circle style="fill:#FFFFFF;" cx="717.812" cy="-51.083" r="1.601"/>
			<circle style="fill:#FFFFFF;" cx="620.78" cy="-2.267" r="1.601"/>
			<circle style="fill:#FFFFFF;" cx="812.044" cy="419.274" r="1.601"/>
			<circle style="fill:#FFFFFF;" cx="772.431" cy="378.26" r="1.601"/>
			<circle style="fill:#FFFFFF;" cx="698.606" cy="6.936" r="1.601"/>
			<circle style="fill:#FFFFFF;" cx="955.492" cy="-11.67" r="1.601"/>
			<circle style="fill:#FFFFFF;" cx="545.755" cy="196.4" r="1.601"/>
			<circle style="fill:#FFFFFF;" cx="608.176" cy="127.377" r="1.601"/>
			<circle style="fill:#FFFFFF;" cx="882.667" cy="245.616" r="1.601"/>
			<circle style="fill:#FFFFFF;" cx="844.855" cy="335.646" r="1.601"/>
		</g>
		<g style="opacity:0.3;clip-path:url(#SVGID_2_);">
			<circle style="fill:#FFFFFF;" cx="94.005" cy="281.428" r="1.601"/>
			<circle style="fill:#FFFFFF;" cx="435.718" cy="697.766" r="1.601"/>
			<circle style="fill:#FFFFFF;" cx="314.878" cy="647.75" r="1.601"/>
			<circle style="fill:#FFFFFF;" cx="-85.455" cy="780.394" r="1.601"/>
			<circle style="fill:#FFFFFF;" cx="55.392" cy="571.724" r="1.601"/>
			<circle style="fill:#FFFFFF;" cx="219.646" cy="388.864" r="1.601"/>
			<circle style="fill:#FFFFFF;" cx="237.252" cy="255.019" r="1.601"/>
			<circle style="fill:#FFFFFF;" cx="140.22" cy="303.835" r="1.601"/>
			<circle style="fill:#FFFFFF;" cx="331.484" cy="725.376" r="1.601"/>
			<circle style="fill:#FFFFFF;" cx="291.87" cy="684.362" r="1.601"/>
			<circle style="fill:#FFFFFF;" cx="218.046" cy="313.038" r="1.601"/>
			<circle style="fill:#FFFFFF;" cx="474.931" cy="294.432" r="1.601"/>
			<circle style="fill:#FFFFFF;" cx="417.312" cy="388.263" r="1.601"/>
			<path style="fill:#FFFFFF;" d="M481.534,350.851c-0.884,0-1.601,0.717-1.601,1.601c0,0.884,0.717,1.601,1.601,1.601"/>
			<circle style="fill:#FFFFFF;" cx="774.631" cy="293.632" r="1.601"/>
			<circle style="fill:#FFFFFF;" cx="688.603" cy="282.428" r="1.601"/>
			<circle style="fill:#FFFFFF;" cx="474.931" cy="408.07" r="1.601"/>
			<circle style="fill:#FFFFFF;" cx="65.195" cy="502.501" r="1.601"/>
			<circle style="fill:#FFFFFF;" cx="127.616" cy="433.478" r="1.601"/>
			<circle style="fill:#FFFFFF;" cx="402.107" cy="551.718" r="1.601"/>
			<circle style="fill:#FFFFFF;" cx="364.295" cy="641.748" r="1.601"/>
		</g>
		<g style="clip-path:url(#SVGID_2_);">
			<circle style="fill:#FFFFFF;" cx="293.071" cy="335.646" r="1.601"/>
			<circle style="fill:#FFFFFF;" cx="193.238" cy="435.879" r="1.601"/>
			<circle style="fill:#FFFFFF;" cx="82.001" cy="587.13" r="1.601"/>
			<circle style="fill:#FFFFFF;" cx="31.184" cy="682.561" r="1.601"/>
			<circle style="fill:#FFFFFF;" cx="206.842" cy="668.157" r="1.601"/>
			<circle style="fill:#FFFFFF;" cx="572.564" cy="686.163" r="1.601"/>
			<circle style="fill:#FFFFFF;" cx="644.588" cy="587.13" r="1.601"/>
			<circle style="fill:#FFFFFF;" cx="895.071" cy="670.758" r="1.601"/>
			<circle style="fill:#FFFFFF;" cx="773.031" cy="486.496" r="1.601"/>
			<circle style="fill:#FFFFFF;" cx="653.591" cy="351.451" r="1.601"/>
			<circle style="fill:#FFFFFF;" cx="793.037" cy="227.21" r="1.601"/>
			<circle style="fill:#FFFFFF;" cx="271.064" cy="143.182" r="1.601"/>
			<circle style="fill:#FFFFFF;" cx="403.508" cy="227.21" r="1.601"/>
			<circle style="fill:#FFFFFF;" cx="642.587" cy="161.188" r="1.601"/>
			<circle style="fill:#FFFFFF;" cx="729.416" cy="143.182" r="1.601"/>
			<circle style="fill:#FFFFFF;" cx="259.46" cy="598.133" r="1.601"/>
			<circle style="fill:#FFFFFF;" cx="374.298" cy="511.705" r="1.601"/>
			<circle style="fill:#FFFFFF;" cx="509.543" cy="570.524" r="1.601"/>
			<circle style="fill:#FFFFFF;" cx="573.164" cy="219.207" r="1.601"/>
			
				<linearGradient id="SVGID_7_" gradientUnits="userSpaceOnUse" x1="3769.3613" y1="287.4298" x2="3780.5649" y2="287.4298" gradientTransform="matrix(-1 0 0 1 3966 0)">
				<stop  offset="0" style="stop-color:#00D4EF"/>
				<stop  offset="1" style="stop-color:#00F0F3"/>
			</linearGradient>
			<circle style="opacity:0.5;fill:url(#SVGID_7_);" cx="191.037" cy="287.43" r="5.602"/>
			<circle style="fill:#1673C8;" cx="145.822" cy="488.897" r="4.001"/>
			<circle style="fill:#1673C8;" cx="534.551" cy="623.542" r="4.001"/>
			<circle style="fill:#5D4641;" cx="739.019" cy="544.916" r="5.802"/>
			<circle style="fill:#504B85;" cx="619.58" cy="318.84" r="4.001"/>
			<circle style="fill:#582B73;" cx="775.031" cy="179.394" r="8.403"/>
		</g>
		<g style="clip-path:url(#SVGID_2_);">
			<radialGradient id="SVGID_8_" cx="896.6719" cy="305.6359" r="15.4083" gradientUnits="userSpaceOnUse">
				<stop  offset="0" style="stop-color:#FFFFFF"/>
				<stop  offset="1" style="stop-color:#FFFFFF;stop-opacity:0"/>
			</radialGradient>
			<polygon style="fill:url(#SVGID_8_);" points="900.934,307.307 912.056,305.555 900.934,303.803 898.456,303.804 
				898.456,301.326 896.704,290.203 894.952,301.326 895.001,303.852 892.475,303.803 881.288,305.555 892.475,307.307 
				895.001,307.258 894.952,309.785 896.704,321.068 898.456,309.785 898.431,307.282 			"/>
			<radialGradient id="SVGID_9_" cx="690.6033" cy="405.8693" r="11.5857" gradientUnits="userSpaceOnUse">
				<stop  offset="0" style="stop-color:#FFFFFF"/>
				<stop  offset="1" style="stop-color:#FFFFFF;stop-opacity:0"/>
			</radialGradient>
			<polygon style="opacity:0.4;fill:url(#SVGID_9_);" points="693.808,407.126 702.171,405.809 693.808,404.491 691.945,404.492 
				691.945,402.628 690.628,394.265 689.31,402.628 689.347,404.528 687.447,404.491 679.036,405.809 687.447,407.126 
				689.347,407.089 689.31,408.989 690.628,417.473 691.945,408.989 691.926,407.107 			"/>
			<radialGradient id="SVGID_10_" cx="422.9141" cy="148.3835" r="12.3847" gradientUnits="userSpaceOnUse">
				<stop  offset="0" style="stop-color:#FFFFFF"/>
				<stop  offset="1" style="stop-color:#FFFFFF;stop-opacity:0"/>
			</radialGradient>
			<polygon style="fill:url(#SVGID_10_);" points="426.34,149.727 435.279,148.319 426.34,146.911 424.348,146.911 424.348,144.919 
				422.94,135.979 421.532,144.919 421.571,146.95 419.541,146.911 410.549,148.319 419.541,149.727 421.571,149.688 
				421.532,151.718 422.94,160.788 424.348,151.718 424.328,149.707 			"/>
			<radialGradient id="SVGID_11_" cx="631.5836" cy="616.9396" r="8.9889" gradientUnits="userSpaceOnUse">
				<stop  offset="0" style="stop-color:#FFFFFF"/>
				<stop  offset="1" style="stop-color:#FFFFFF;stop-opacity:0"/>
			</radialGradient>
			<polygon style="fill:url(#SVGID_11_);" points="634.07,617.914 640.558,616.893 634.07,615.87 632.624,615.871 632.624,614.425 
				631.602,607.937 630.58,614.425 630.609,615.899 629.135,615.87 622.609,616.893 629.135,617.914 630.609,617.886 630.58,619.36 
				631.602,625.943 632.624,619.36 632.61,617.9 			"/>
			<radialGradient id="SVGID_12_" cx="98.406" cy="457.8866" r="7.7904" gradientUnits="userSpaceOnUse">
				<stop  offset="0" style="stop-color:#FFFFFF"/>
				<stop  offset="1" style="stop-color:#FFFFFF;stop-opacity:0"/>
			</radialGradient>
			<polygon style="fill:url(#SVGID_12_);" points="100.561,458.732 106.184,457.846 100.561,456.96 99.308,456.96 99.308,455.707 
				98.422,450.084 97.537,455.707 97.561,456.985 96.284,456.96 90.628,457.846 96.284,458.732 97.561,458.707 97.537,459.984 
				98.422,465.689 99.308,459.984 99.296,458.719 			"/>
		</g>
		<g style="clip-path:url(#SVGID_2_);">
			<g>
				
					<radialGradient id="SVGID_13_" cx="-1093.6394" cy="-2810.8484" r="7.3184" gradientTransform="matrix(0.7071 0.7071 -0.7071 0.7071 -423.5967 2864.6528)" gradientUnits="userSpaceOnUse">
					<stop  offset="0" style="stop-color:#FFFFFF"/>
					<stop  offset="1" style="stop-color:#FFFFFF;stop-opacity:0"/>
				</radialGradient>
				<circle style="fill:url(#SVGID_13_);" cx="790.653" cy="103.763" r="7.318"/>
				
					<linearGradient id="SVGID_14_" gradientUnits="userSpaceOnUse" x1="-1093.6394" y1="-2810.8484" x2="-1093.6394" y2="-2984.1313" gradientTransform="matrix(0.7071 0.7071 -0.7071 0.7071 -423.5967 2864.6528)">
					<stop  offset="0" style="stop-color:#FFFFFF"/>
					<stop  offset="1" style="stop-color:#FFFFFF;stop-opacity:0"/>
				</linearGradient>
				<polygon style="opacity:0.5;fill:url(#SVGID_14_);" points="788.802,101.911 792.505,105.615 913.183,-18.767 				"/>
				
					<linearGradient id="SVGID_15_" gradientUnits="userSpaceOnUse" x1="-1093.6394" y1="-2811.4775" x2="-1093.6394" y2="-2888.4819" gradientTransform="matrix(0.7071 0.7071 -0.7071 0.7071 -423.5967 2864.6528)">
					<stop  offset="0" style="stop-color:#FFFFFF"/>
					<stop  offset="1" style="stop-color:#FFFFFF;stop-opacity:0"/>
				</linearGradient>
				<polygon style="fill:url(#SVGID_15_);" points="790.275,102.495 791.921,104.141 845.549,48.868 				"/>
				<circle style="fill:#FFFFFF;" cx="790.653" cy="103.763" r="2.619"/>
			</g>
			<g>
				
					<radialGradient id="SVGID_16_" cx="-1059.2626" cy="-2334.24" r="9.4395" gradientTransform="matrix(0.7071 0.7071 -0.7071 0.7071 -423.5967 2864.6528)" gradientUnits="userSpaceOnUse">
					<stop  offset="0" style="stop-color:#FFFFFF"/>
					<stop  offset="1" style="stop-color:#FFFFFF;stop-opacity:0"/>
				</radialGradient>
				<circle style="fill:url(#SVGID_16_);" cx="477.949" cy="465.084" r="9.439"/>
				
					<linearGradient id="SVGID_17_" gradientUnits="userSpaceOnUse" x1="-1059.2626" y1="-2334.24" x2="-1059.2626" y2="-2557.7454" gradientTransform="matrix(0.7071 0.7071 -0.7071 0.7071 -423.5967 2864.6528)">
					<stop  offset="0" style="stop-color:#FFFFFF"/>
					<stop  offset="1" style="stop-color:#FFFFFF;stop-opacity:0"/>
				</linearGradient>
				<polygon style="opacity:0.5;fill:url(#SVGID_17_);" points="475.56,462.696 480.337,467.473 635.991,307.042 				"/>
				
					<linearGradient id="SVGID_18_" gradientUnits="userSpaceOnUse" x1="-1059.2626" y1="-2335.0518" x2="-1059.2626" y2="-2434.374" gradientTransform="matrix(0.7071 0.7071 -0.7071 0.7071 -423.5967 2864.6528)">
					<stop  offset="0" style="stop-color:#FFFFFF"/>
					<stop  offset="1" style="stop-color:#FFFFFF;stop-opacity:0"/>
				</linearGradient>
				<polygon style="fill:url(#SVGID_18_);" points="477.461,463.449 479.584,465.572 548.754,394.279 				"/>
				<circle style="fill:#FFFFFF;" cx="477.949" cy="465.084" r="3.378"/>
			</g>
			<g>
				
					<radialGradient id="SVGID_19_" cx="-1316.4281" cy="-2081.9695" r="4.7387" gradientTransform="matrix(0.7071 0.7071 -0.7071 0.7071 -423.5967 2864.6528)" gradientUnits="userSpaceOnUse">
					<stop  offset="0" style="stop-color:#FFFFFF"/>
					<stop  offset="1" style="stop-color:#FFFFFF;stop-opacity:0"/>
				</radialGradient>
				<circle style="fill:url(#SVGID_19_);" cx="117.723" cy="461.623" r="4.739"/>
				
					<linearGradient id="SVGID_20_" gradientUnits="userSpaceOnUse" x1="-1316.4281" y1="-2081.9695" x2="-1316.4281" y2="-2194.1714" gradientTransform="matrix(0.7071 0.7071 -0.7071 0.7071 -423.5967 2864.6528)">
					<stop  offset="0" style="stop-color:#FFFFFF"/>
					<stop  offset="1" style="stop-color:#FFFFFF;stop-opacity:0"/>
				</linearGradient>
				<polygon style="opacity:0.5;fill:url(#SVGID_20_);" points="116.524,460.424 118.922,462.822 197.062,382.284 				"/>
				
					<linearGradient id="SVGID_21_" gradientUnits="userSpaceOnUse" x1="-1316.4281" y1="-2082.377" x2="-1316.4281" y2="-2132.2378" gradientTransform="matrix(0.7071 0.7071 -0.7071 0.7071 -423.5967 2864.6528)">
					<stop  offset="0" style="stop-color:#FFFFFF"/>
					<stop  offset="1" style="stop-color:#FFFFFF;stop-opacity:0"/>
				</linearGradient>
				<polygon style="fill:url(#SVGID_21_);" points="117.478,460.802 118.544,461.868 153.268,426.078 				"/>
				<circle style="fill:#FFFFFF;" cx="117.723" cy="461.623" r="1.696"/>
			</g>
			<g style="opacity:0.5;">
				
					<radialGradient id="SVGID_22_" cx="-851.8698" cy="-2477.6714" r="7.3184" gradientTransform="matrix(0.7071 0.7071 -0.3294 0.3294 464.9848 1976.071)" gradientUnits="userSpaceOnUse">
					<stop  offset="0" style="stop-color:#FFFFFF"/>
					<stop  offset="1" style="stop-color:#FFFFFF;stop-opacity:0"/>
				</radialGradient>
				<path style="fill:url(#SVGID_22_);" d="M683.827,562.853c-1.331,1.331-4.727,0.093-7.585-2.765
					c-2.858-2.858-4.096-6.254-2.765-7.585c1.331-1.331,4.727-0.094,7.585,2.765C683.921,558.125,685.159,561.522,683.827,562.853z"
					/>
				
					<linearGradient id="SVGID_23_" gradientUnits="userSpaceOnUse" x1="-851.8698" y1="-2477.6714" x2="-851.8698" y2="-2650.9543" gradientTransform="matrix(0.7071 0.7071 -0.3294 0.3294 464.9848 1976.071)">
					<stop  offset="0" style="stop-color:#FFFFFF"/>
					<stop  offset="1" style="stop-color:#FFFFFF;stop-opacity:0"/>
				</linearGradient>
				<polygon style="opacity:0.5;fill:url(#SVGID_23_);" points="676.801,555.826 680.504,559.53 735.724,500.606 				"/>
				
					<linearGradient id="SVGID_24_" gradientUnits="userSpaceOnUse" x1="-851.8698" y1="-2478.3005" x2="-851.8698" y2="-2555.3049" gradientTransform="matrix(0.7071 0.7071 -0.3294 0.3294 464.9848 1976.071)">
					<stop  offset="0" style="stop-color:#FFFFFF"/>
					<stop  offset="1" style="stop-color:#FFFFFF;stop-opacity:0"/>
				</linearGradient>
				<polygon style="fill:url(#SVGID_24_);" points="678.037,556.648 679.683,558.294 704.221,532.109 				"/>
				
					<ellipse transform="matrix(0.7071 -0.7071 0.7071 0.7071 -195.5651 643.22)" style="fill:#FFFFFF;" cx="678.652" cy="557.678" rx="1.22" ry="2.619"/>
			</g>
		</g>
		
			<linearGradient id="SVGID_25_" gradientUnits="userSpaceOnUse" x1="1322.2404" y1="5814.9019" x2="1428.2758" y2="5814.9019" gradientTransform="matrix(-0.7071 -0.7071 0.7071 -0.7071 -3077.5083 5440.4634)">
			<stop  offset="0" style="stop-color:#401D61"/>
			<stop  offset="1" style="stop-color:#090B3D"/>
		</linearGradient>
		<circle style="clip-path:url(#SVGID_2_);fill:url(#SVGID_25_);" cx="61.794" cy="356.253" r="53.018"/>
		
			<linearGradient id="SVGID_26_" gradientUnits="userSpaceOnUse" x1="708.0457" y1="6363.2339" x2="762.4637" y2="6363.2339" gradientTransform="matrix(-0.7071 -0.7071 0.7071 -0.7071 -3077.5083 5440.4634)">
			<stop  offset="0" style="stop-color:#401D61"/>
			<stop  offset="1" style="stop-color:#090B3D"/>
		</linearGradient>
		<circle style="clip-path:url(#SVGID_2_);fill:url(#SVGID_26_);" cx="902.074" cy="421.074" r="27.209"/>
		
			<linearGradient id="SVGID_27_" gradientUnits="userSpaceOnUse" x1="776.7993" y1="5945.3359" x2="831.2174" y2="5945.3359" gradientTransform="matrix(-0.7071 -0.7071 0.7071 -0.7071 -3077.5083 5440.4634)">
			<stop  offset="0" style="stop-color:#401D61"/>
			<stop  offset="1" style="stop-color:#090B3D"/>
		</linearGradient>
		<circle style="clip-path:url(#SVGID_2_);fill:url(#SVGID_27_);" cx="557.959" cy="667.957" r="27.209"/>
		<g style="clip-path:url(#SVGID_2_);">
			
				<radialGradient id="SVGID_28_" cx="1975.1232" cy="617.4924" r="207.3354" gradientTransform="matrix(-1 0 0 1 2295.3369 0)" gradientUnits="userSpaceOnUse">
				<stop  offset="0" style="stop-color:#3BE3FF"/>
				<stop  offset="0.3492" style="stop-color:#37B6FF;stop-opacity:0.6508"/>
				<stop  offset="0.7854" style="stop-color:#3283FF;stop-opacity:0.2146"/>
				<stop  offset="1" style="stop-color:#306FFF;stop-opacity:0"/>
			</radialGradient>
			<circle style="fill:url(#SVGID_28_);" cx="320.214" cy="617.492" r="207.335"/>
			<circle style="opacity:0.1;fill:#3BE3FF;" cx="320.214" cy="617.492" r="161.206"/>
			<circle style="opacity:0.4;fill:#3BE3FF;" cx="320.214" cy="617.492" r="139.799"/>
			<g>
				<defs>
					<circle id="SVGID_29_" cx="320.214" cy="617.492" r="126.566"/>
				</defs>
				<clipPath id="SVGID_30_">
					<use xlink:href="#SVGID_29_"  style="overflow:visible;"/>
				</clipPath>
				<circle style="clip-path:url(#SVGID_30_);fill:#3BE3FF;" cx="320.214" cy="617.492" r="126.566"/>
				<path style="clip-path:url(#SVGID_30_);fill:#00BCFF;" d="M278.945,497.81c12.935-4.459,26.819-6.883,41.269-6.883
					c21.381,0,41.523,5.303,59.184,14.663c-1.008,5.56-2.592,11.07-4.808,15.992c-9.518,21.151,14.806,32.52,22.209,39.923
					c7.403,7.403,3.173,21.151,28.554,28.025c6.486,1.757,12.936,2.614,18.947,2.919c1.625,8.096,2.479,16.469,2.479,25.044
					c0,37.843-16.61,71.805-42.935,94.998l-66.004-30.954l-37.014-88.834L278.945,497.81z"/>
				<path style="clip-path:url(#SVGID_30_);fill:#306FFF;" d="M279.688,737.431l-53.42-106.392l4.091-102.678
					c20.275-20.438,47.473-33.996,77.786-36.863c-0.207,3.233-0.68,6.897-1.503,11.049c-5.817,29.347,19.565,40.187,6.874,53.671
					c-12.691,13.484,4.23,48.647,13.748,48.647s17.978,6.081,14.806,21.151c-3.173,15.07,44.153,52.349,56.844,49.441
					c7.099-1.627,18.085,5.764,26.389,12.592c-22.726,33.783-61.312,56.01-105.089,56.01
					C306.04,744.058,292.411,741.728,279.688,737.431z"/>
				<path style="clip-path:url(#SVGID_30_);fill:#4344F2;" d="M256.62,508.042c11.566,14.434,4.61,53.135-7.35,65.096
					c-14.806,14.806,13.748,71.649,23.266,71.649s49.441,24.059,47.59,50.498c-1.191,17.011,41.289,23.843,71.736,26.552
					c-20.372,14.015-45.052,22.221-71.649,22.221c-69.9,0-126.566-56.665-126.566-126.566
					C193.648,570.774,218.961,529.97,256.62,508.042z"/>
				<g style="clip-path:url(#SVGID_30_);">
					<ellipse style="fill:#0079FA;" cx="344.45" cy="609.677" rx="18.507" ry="21.561"/>
					<path style="fill:#009CFE;" d="M325.942,609.677c0-6.048,2.139-11.514,5.582-15.43c2.715-1.822,5.865-2.865,9.224-2.865
						c10.221,0,18.507,9.653,18.507,21.561c0,6.048-2.139,11.514-5.582,15.43c-2.715,1.822-5.865,2.865-9.224,2.865
						C334.228,631.238,325.942,621.585,325.942,609.677z"/>
				</g>
				<g style="clip-path:url(#SVGID_30_);">
					
						<ellipse transform="matrix(0.4069 -0.9135 0.9135 0.4069 -393.3222 763.2303)" style="fill:#0079FA;" cx="391.114" cy="684.519" rx="21.561" ry="14.674"/>
					<path style="fill:#009CFE;" d="M377.711,678.547c2.461-5.525,6.234-9.828,10.322-12.293c2.708-0.788,5.413-0.724,7.846,0.359
						c7.403,3.298,9.475,14.789,4.63,25.666c-2.461,5.525-6.234,9.828-10.322,12.293c-2.708,0.788-5.413,0.724-7.846-0.359
						C374.938,700.916,372.865,689.425,377.711,678.547z"/>
				</g>
				<g style="clip-path:url(#SVGID_30_);">
					
						<ellipse transform="matrix(0.0069 -1 1 0.0069 -436.4082 994.9338)" style="fill:#0079FA;" cx="282.726" cy="717.19" rx="26.936" ry="29.495"/>
					<path style="fill:#009CFE;" d="M253.232,716.985c0.052-7.556,3.508-14.36,9.03-19.214c4.343-2.246,9.372-3.514,14.724-3.477
						c16.289,0.113,29.41,12.264,29.307,27.14c-0.052,7.556-3.508,14.36-9.03,19.214c-4.343,2.246-9.371,3.514-14.724,3.476
						C266.25,744.012,253.129,731.861,253.232,716.985z"/>
				</g>
				<g style="clip-path:url(#SVGID_30_);">
					<ellipse style="fill:#0079FA;" cx="363.75" cy="533.024" rx="8.989" ry="10.472"/>
					<path style="fill:#009CFE;" d="M354.761,533.024c0-2.938,1.039-5.593,2.711-7.494c1.319-0.885,2.849-1.391,4.48-1.391
						c4.965,0,8.989,4.689,8.989,10.472c0,2.938-1.039,5.593-2.711,7.494c-1.319,0.885-2.849,1.391-4.48,1.391
						C358.785,543.497,354.761,538.808,354.761,533.024z"/>
				</g>
				<g style="clip-path:url(#SVGID_30_);">
					
						<ellipse transform="matrix(0.9835 -0.1808 0.1808 0.9835 -99.4632 87.974)" style="fill:#0079FA;" cx="432.755" cy="589.486" rx="4.495" ry="12.206"/>
					<path style="fill:#009CFE;" d="M428.335,590.299c-0.619-3.368-0.668-6.505-0.246-8.836c0.462-1.134,1.108-1.852,1.91-2
						c2.441-0.449,5.409,4.562,6.628,11.192c0.619,3.368,0.668,6.505,0.246,8.836c-0.462,1.134-1.108,1.852-1.91,2
						C432.521,601.939,429.554,596.929,428.335,590.299z"/>
				</g>
				<g style="clip-path:url(#SVGID_30_);">
					
						<ellipse transform="matrix(0.5135 -0.8581 0.8581 0.5135 -365.441 470.6377)" style="fill:#0079FA;" cx="232.349" cy="557.612" rx="21.561" ry="9.518"/>
					<path style="fill:#009CFE;" d="M224.182,552.724c3.106-5.19,6.857-9.315,10.387-11.765c2.134-0.846,4.059-0.909,5.541-0.022
						c4.511,2.699,3.21,13.171-2.905,23.389c-3.106,5.19-6.857,9.315-10.387,11.766c-2.134,0.846-4.059,0.909-5.541,0.022
						C216.766,573.414,218.067,562.942,224.182,552.724z"/>
				</g>
				<g style="clip-path:url(#SVGID_30_);">
					
						<ellipse transform="matrix(0.157 -0.9876 0.9876 0.157 -258.2039 733.9318)" style="fill:#0079FA;" cx="300.826" cy="518.218" rx="9.528" ry="18.296"/>
					<path style="fill:#009CFE;" d="M282.757,515.345c0.42-2.64,2.887-4.693,6.521-5.867c2.777-0.374,5.925-0.34,9.204,0.182
						c9.979,1.587,17.399,7.086,16.572,12.283c-0.42,2.64-2.887,4.693-6.521,5.867c-2.777,0.374-5.925,0.34-9.204-0.182
						C289.35,526.041,281.931,520.542,282.757,515.345z"/>
				</g>
			</g>
		</g>
		<g style="clip-path:url(#SVGID_2_);">
			
				<radialGradient id="SVGID_31_" cx="166.3325" cy="207.623" r="129.4431" gradientTransform="matrix(0.9921 0.1251 -0.1251 0.9921 103.3969 -88.8172)" gradientUnits="userSpaceOnUse">
				<stop  offset="0" style="stop-color:#F759FF"/>
				<stop  offset="1" style="stop-color:#F759FF;stop-opacity:0"/>
			</radialGradient>
			<circle style="fill:url(#SVGID_31_);" cx="242.454" cy="137.98" r="129.443"/>
			<circle style="opacity:0.1;fill:#F759FF;" cx="242.454" cy="137.98" r="108.636"/>
			<circle style="opacity:0.4;fill:#F759FF;" cx="242.454" cy="137.98" r="100.033"/>
			<circle style="fill:#F759FF;" cx="242.454" cy="137.98" r="93.831"/>
			<path style="fill:#E845FB;" d="M335.548,149.716c0.465-3.685,0.708-7.347,0.742-10.974c-10.382-1.31-21.56-4.924-26.341-13.958
				c-6.829-12.903-34.563-10.413-35.394-23.894c-0.927-15.039-18.068-21.435-14.403-27.999c4.928-8.828,5.129-18.263,3.68-26.282
				c-3.148-0.733-6.364-1.311-9.641-1.724c-51.415-6.482-98.349,29.943-104.831,81.358s29.943,98.349,81.358,104.831
				S329.067,201.131,335.548,149.716z"/>
			<path style="fill:#E039F4;" d="M330.286,171.048c-10.925-1.02-27.694-4.999-35.495-19.316
				c-9.031-16.575-37.374-15.113-55.009-21.348c-22.662-8.012-39.188-42.649-30.978-64.743c2.108-5.673,2.85-11.224,2.816-16.302
				c-32.586,11.363-57.651,40.345-62.26,76.906c-6.482,51.415,29.943,98.349,81.358,104.831
				C274.678,236.616,315.361,210.79,330.286,171.048z"/>
			<path style="fill:#E845FB;" d="M313.943,198.77c-10.976-7.035-27.697-13.865-47.547-9.174
				c-19.423,4.59-40.477-20.614-55.063-25.494c-10.114-3.383-17.25-19.92-13.617-31.763c4.489-14.632-5.723-31.045-13.227-42.703
				c-3.399-6.177-4.335-14.434-4.298-21.853c-16.443,14.573-27.867,34.948-30.831,58.46c-6.482,51.415,29.943,98.349,81.358,104.831
				C263.318,235.184,294.116,222.043,313.943,198.77z"/>
			<path style="fill:#A809DB;" d="M259.891,230.202c-10.238-4.471-20.139-11.123-24.231-20.82
				c-7.051-16.711-33.783-15.015-48.078-18.429c-16.886-4.033-34.454-37.011-29.878-58.747c2.274-10.804-0.382-20.477-3.206-26.961
				c-2.465,6.641-4.214,13.668-5.138,21c-6.482,51.415,29.943,98.349,81.358,104.831
				C240.699,232.333,250.51,231.973,259.891,230.202z"/>
			<g>
				
					<ellipse transform="matrix(0.1251 -0.9921 0.9921 0.1251 80.2497 379.9431)" style="fill:#F952FF;" cx="255.55" cy="144.471" rx="25.208" ry="27.009"/>
				
					<ellipse transform="matrix(0.1251 -0.9921 0.9921 0.1251 80.2497 379.9431)" style="fill:#C00CD2;" cx="255.55" cy="144.471" rx="23.652" ry="25.342"/>
				<path style="fill:#D72BEA;" d="M278.484,142.5c0.393-3.114,0.116-6.168-0.722-9.036c-3.804-6.552-10.795-11.394-19.254-12.46
					c-13.886-1.751-26.467,7.337-28.101,20.297c-0.393,3.114-0.116,6.168,0.722,9.036c3.804,6.552,10.795,11.394,19.254,12.46
					C264.268,164.547,276.85,155.46,278.484,142.5z"/>
			</g>
			<g>
				
					<ellipse transform="matrix(0.9941 -0.1088 0.1088 0.9941 -14.3314 19.0273)" style="fill:#F952FF;" cx="167.142" cy="140.803" rx="13.633" ry="18.461"/>
				
					<ellipse transform="matrix(0.9941 -0.1088 0.1088 0.9941 -14.3314 19.0273)" style="fill:#C00CD2;" cx="167.142" cy="140.803" rx="12.791" ry="17.321"/>
				<path style="fill:#D72BEA;" d="M171.409,155.811c1.687-0.185,3.249-0.807,4.634-1.777c2.897-3.476,4.448-8.831,3.814-14.624
					c-1.041-9.509-7.578-16.595-14.601-15.826c-1.687,0.185-3.249,0.807-4.634,1.777c-2.897,3.475-4.448,8.831-3.814,14.624
					C157.85,149.495,164.387,156.58,171.409,155.811z"/>
			</g>
			<g>
				
					<ellipse transform="matrix(0.7035 -0.7107 0.7107 0.7035 0.5655 159.8729)" style="fill:#F952FF;" cx="191.896" cy="79.259" rx="18.461" ry="8.155"/>
				
					<ellipse transform="matrix(0.7035 -0.7107 0.7107 0.7035 0.5655 159.8729)" style="fill:#C00CD2;" cx="191.896" cy="79.259" rx="17.321" ry="7.651"/>
				<path style="fill:#D72BEA;" d="M182.182,91.289c0.722,0.714,1.726,1.077,2.928,1.123c3.594-0.86,8.124-3.629,12.224-7.771
					c6.73-6.798,9.751-14.72,6.748-17.692c-0.722-0.714-1.726-1.077-2.928-1.123c-3.594,0.86-8.124,3.629-12.223,7.771
					C182.201,80.395,179.179,88.316,182.182,91.289z"/>
			</g>
			<g>
				
					<ellipse transform="matrix(0.6239 -0.7815 0.7815 0.6239 52.3508 241.5541)" style="fill:#F952FF;" cx="277.143" cy="66.386" rx="9.613" ry="12.241"/>
				
					<ellipse transform="matrix(0.6239 -0.7815 0.7815 0.6239 52.3508 241.5541)" style="fill:#C00CD2;" cx="277.143" cy="66.386" rx="9.019" ry="11.485"/>
				<path style="fill:#D72BEA;" d="M268.024,61.459c-0.747,0.935-1.227,2.014-1.458,3.167c0.194,3.094,1.93,6.398,4.95,8.809
					c4.957,3.958,11.495,4.01,14.603,0.117c0.747-0.935,1.227-2.014,1.457-3.167c-0.194-3.094-1.93-6.398-4.95-8.809
					C277.67,57.619,271.132,57.566,268.024,61.459z"/>
			</g>
			<g>
				
					<ellipse transform="matrix(0.4362 -0.8999 0.8999 0.4362 26.4267 379.0602)" style="fill:#F952FF;" cx="315.698" cy="168.442" rx="18.171" ry="9.613"/>
				
					<ellipse transform="matrix(0.4362 -0.8999 0.8999 0.4362 26.4267 379.0602)" style="fill:#C00CD2;" cx="315.698" cy="168.442" rx="17.05" ry="9.019"/>
				<path style="fill:#D72BEA;" d="M320.648,154.013c-1.077-0.522-2.298-0.623-3.587-0.358c-3.415,1.779-6.977,5.692-9.479,10.853
					c-4.107,8.473-3.803,17.104,0.68,19.276c1.077,0.522,2.298,0.623,3.587,0.358c3.415-1.779,6.977-5.692,9.479-10.853
					C325.434,164.816,325.13,156.186,320.648,154.013z"/>
			</g>
			<g>
				
					<ellipse transform="matrix(0.9892 -0.1464 0.1464 0.9892 -29.5656 38.609)" style="fill:#F952FF;" cx="247.476" cy="220.135" rx="13.893" ry="5.316"/>
				
					<ellipse transform="matrix(0.9892 -0.1464 0.1464 0.9892 -29.5656 38.609)" style="fill:#C00CD2;" cx="247.476" cy="220.135" rx="13.035" ry="4.988"/>
			</g>
			<g>
				
					<ellipse transform="matrix(0.9892 -0.1464 0.1464 0.9892 -25.6083 29.8143)" style="fill:#F952FF;" cx="189.715" cy="188.856" rx="9.439" ry="8.396"/>
				
					<ellipse transform="matrix(0.9892 -0.1464 0.1464 0.9892 -25.6083 29.8143)" style="fill:#C00CD2;" cx="189.715" cy="188.856" rx="8.857" ry="7.878"/>
			</g>
		</g>
	</g>
	<g>
		<radialGradient id="SVGID_32_" cx="919.2794" cy="132.9784" r="104.0347" gradientUnits="userSpaceOnUse">
			<stop  offset="0" style="stop-color:#FFBD63"/>
			<stop  offset="1" style="stop-color:#FFBD63;stop-opacity:0"/>
		</radialGradient>
		<circle style="fill:url(#SVGID_32_);" cx="919.279" cy="132.978" r="104.035"/>
		<circle style="opacity:0.1;fill:#FFBD63;" cx="919.279" cy="132.978" r="86.829"/>
		<circle style="opacity:0.3;fill:#FFBD63;" cx="919.279" cy="132.978" r="78.626"/>
		<circle style="fill:#FFBD63;" cx="919.279" cy="132.978" r="71.024"/>
		<path style="fill:#FF933B;" d="M919.279,61.955c-11.283,0-21.952,2.632-31.426,7.314c-0.899,3.71-0.583,9.041,3.372,16.651
			c8.528,16.409-2.823,25.637-6.14,35.457c-3.603,10.666-17.356,9.776-22.823,28.579c-1.613,5.547-5.46,8.301-8.838,9.67
			c0.409,1.01,0.841,2.008,1.294,2.994c1.07,1.981,2.251,4.244,3.527,6.7c12.394,20.77,35.089,34.682,61.033,34.682
			c39.225,0,71.024-31.798,71.024-71.024S958.505,61.955,919.279,61.955z"/>
		<path style="fill:#FF563D;" d="M919.279,61.955c-1.235,0-2.463,0.032-3.682,0.094c5.924,5.667,11.371,13.161,6.176,19.966
			c-10.719,14.04,6.214,37.618-2.294,46.562c-10.401,10.934-19.607,43.615-35.978,45.869c-6.631,0.913-11.614,4.211-15.242,7.94
			c12.911,13.329,30.998,21.616,51.02,21.616c39.225,0,71.024-31.798,71.024-71.024S958.505,61.955,919.279,61.955z"/>
		<path style="fill:#FF0042;" d="M990.303,132.978c0-20.004-8.271-38.075-21.578-50.984c-6.544,5.027-14.634,12.206-14.634,16.972
			c0,8.003,7.803,20.607,7.803,22.808c0,2.201-19.607,14.805-19.607,26.009c0,11.204,3.401,21.807,2.801,26.609
			s-28.81,13.204-29.81,24.408c-0.153,1.713-0.16,3.421-0.064,5.086c1.346,0.076,2.701,0.116,4.065,0.116
			C958.505,204.002,990.303,172.204,990.303,132.978z"/>
	</g>
	<g>
		<g>
			<path style="fill:#AEC3E5;" d="M630.359,332.452c0,0,14.754-11.891,19.378-15.415c-1.186-1.089-1.855-3.117-4.002-4.276
				c-10.012-5.404-28.233-11.061-33.764-12.24c-6.716-1.431-12.001,10.79-12.001,10.79L630.359,332.452z"/>
			<path style="fill:#718DB5;" d="M642.873,311.312c0,0,7.415,2.312,8.846,8.918s10.35,47.345,6.166,62.759
				c-5.946,5.175-13.323,12.442-18.828,10.019c-0.22-13.873-8.698-64.191-8.698-64.191S627.861,318.579,642.873,311.312z"/>
			<path style="fill:#465F89;" d="M638.529,329.196l5.844-3.896c1.055-0.703,2.488-0.27,2.979,0.899
				c1.49,3.547,4.186,10.618,4.489,15.974c0.044,0.778-0.362,1.515-1.049,1.885c-1.668,0.9-4.128,1.917-5.933,2.625
				c-1.184,0.464-2.494-0.267-2.723-1.517c-0.549-2.992-1.791-8.327-4.303-13.409C637.387,330.853,637.689,329.756,638.529,329.196z
				"/>
			<circle style="fill:#465F89;" cx="651.866" cy="352.473" r="0.891"/>
			<circle style="fill:#465F89;" cx="652.757" cy="356.779" r="0.891"/>
			<circle style="fill:#465F89;" cx="653.648" cy="361.084" r="0.891"/>
			<path style="fill:#465F89;" d="M643.7,371.329c0,0,10.541-3.712,12.026-6.236c0,2.227,0,3.118,0,3.118s-7.275,6.236-12.026,6.681
				"/>
			<path style="fill:#465F89;" d="M643.7,376.822c0,0,10.541-3.712,12.026-6.236c0,2.227,0,3.118,0,3.118s-7.275,6.236-12.026,6.681
				"/>
			<path style="fill:#465F89;" d="M643.7,382.315c0,0,10.541-3.712,12.026-6.236c0,2.227,0,3.118,0,3.118s-7.275,6.236-12.026,6.681
				"/>
		</g>
		<path style="fill:#B3CBF2;" d="M572.445,483.074c0,0,5.946,2.863,6.056,5.946c0.11,3.083-2.643,27.306-5.175,31.38
			c-2.532,4.074-12.221,4.734-14.313,3.854c-2.092-0.881-5.946-10.019-5.836-16.295s2.092-14.974,2.092-14.974L572.445,483.074z"/>
		<path style="fill:#B3CBF2;" d="M599.2,495.296c0,0,9.799,0.881,9.909,6.166c0.11,5.285-2.202,29.067-4.955,33.251
			c-2.753,4.184-9.029,6.826-12.662,6.716s-9.359-4.734-10.35-15.635c-0.991-10.9-2.753-23.122,3.303-25.764
			S599.2,495.296,599.2,495.296z"/>
		<g>
			<path style="fill:#2E3192;" d="M593.947,515.788c-4.032,0-7.102-1.854-7.294-1.972c-0.282-0.174-0.369-0.544-0.195-0.826
				c0.174-0.282,0.544-0.369,0.826-0.195c0.091,0.056,6.584,3.939,12.767,0.004c0.28-0.178,0.651-0.095,0.829,0.184
				c0.178,0.28,0.096,0.651-0.184,0.829C598.367,515.294,596.028,515.788,593.947,515.788z"/>
		</g>
		<g>
			<path style="fill:#2E3192;" d="M593.947,519.389c-4.032,0-7.102-1.854-7.294-1.972c-0.282-0.174-0.369-0.544-0.195-0.826
				c0.174-0.282,0.544-0.369,0.826-0.195c0.091,0.056,6.584,3.939,12.767,0.004c0.28-0.178,0.651-0.095,0.829,0.184
				c0.178,0.28,0.096,0.651-0.184,0.829C598.367,518.895,596.028,519.389,593.947,519.389z"/>
		</g>
		<g>
			<path style="fill:#2E3192;" d="M593.947,522.99c-4.032,0-7.102-1.854-7.294-1.972c-0.282-0.174-0.369-0.544-0.195-0.826
				c0.174-0.282,0.544-0.369,0.826-0.195c0.091,0.056,6.584,3.939,12.767,0.004c0.28-0.178,0.651-0.095,0.829,0.184
				c0.178,0.28,0.096,0.651-0.184,0.829C598.367,522.496,596.028,522.99,593.947,522.99z"/>
		</g>
		<g>
			<path style="fill:#2E3192;" d="M560.61,500.278c-3.536,0-4.88-1.939-4.951-2.045c-0.184-0.276-0.109-0.648,0.166-0.832
				c0.275-0.183,0.645-0.11,0.829,0.162c0.081,0.116,1.896,2.594,7.334,0.963c0.319-0.096,0.652,0.085,0.747,0.402
				c0.095,0.318-0.085,0.652-0.402,0.747C562.887,500.109,561.653,500.278,560.61,500.278z"/>
		</g>
		<g>
			<path style="fill:#2E3192;" d="M560.41,503.479c-3.536,0-4.88-1.939-4.951-2.045c-0.184-0.276-0.109-0.648,0.166-0.832
				c0.275-0.183,0.645-0.11,0.829,0.162c0.081,0.116,1.896,2.594,7.334,0.963c0.319-0.096,0.652,0.085,0.747,0.402
				c0.095,0.317-0.085,0.652-0.402,0.747C562.686,503.31,561.453,503.479,560.41,503.479z"/>
		</g>
		<g>
			<path style="fill:#2E3192;" d="M560.21,506.48c-3.536,0-4.88-1.939-4.951-2.045c-0.184-0.276-0.109-0.648,0.166-0.832
				c0.275-0.183,0.645-0.11,0.829,0.162c0.081,0.116,1.896,2.594,7.334,0.963c0.319-0.096,0.652,0.085,0.747,0.402
				c0.095,0.317-0.085,0.652-0.402,0.747C562.486,506.311,561.253,506.48,560.21,506.48z"/>
		</g>
		<path style="fill:#EEF3FF;" d="M547.011,400.166l-14.314,45.583c0,0-6.386,7.157,4.734,23.452s17.837,25.324,17.837,25.324
			s7.487,5.505,22.131-4.955c-6.386-19.268-12.552-37.325-12.552-37.325l8.478-16.777l-0.55,24.595l4.624,19.268l6.166,25.214
			c0,0,4.294,5.175,10.79,4.624c6.496-0.551,14.093-10.46,14.093-10.46l1.982-40.628l10.24-49.106l-14.534-4.955L547.011,400.166z"
			/>
		<path style="fill:#CCD8ED;" d="M602.871,502.28c2.584-1.454,4.368-2.771,5.592-3.859l1.868-38.298l-11.32,5.039
			c0,0,5.642,1.782,5.79,6.83c0.148,5.048,0.891,21.38,0.891,21.38S606.88,498.716,602.871,502.28z"/>
		<path style="fill:#CCD8ED;" d="M617.736,408.645l-21.976,2.864c0,0,10.823,1.095,11.862,6.44s-0.742,32.515-0.742,32.515
			s-2.524,9.651-10.393,13.362c6.428-1.175,10.893-2.414,13.83-3.404l0.114-2.342l6.256-30.003L617.736,408.645z"/>
		<path style="fill:#CCD8ED;" d="M572.434,491.59c2.438-1.011,3.896-1.904,4.769-2.611c-6.12-18.456-11.982-35.639-12.338-36.683
			l-3.667,0.754l-8.024,1.571c0,0,5.898,0.445,8.867,5.642s10.393,22.865,10.393,22.865S574.81,489.363,572.434,491.59z"/>
		<g>
			<polygon style="fill:#CCD8ED;" points="573.254,438.653 573.254,438.653 573.254,438.652 			"/>
			<path style="fill:#CCD8ED;" d="M566.347,441.258c-4.9,12.62-17.277,10.835-17.277,10.835l5.844,2.528l9.995-2.499l8.368-16.561
				l0.047-6.032C573.325,429.529,571.247,428.638,566.347,441.258z"/>
		</g>
		<path style="fill:#C8D4E8;" d="M518.307,394.968c0,0-11.5,13.322-12.808,17.957c-1.308,4.635-2.081,15.51,6.74,18.196
			c8.821,2.686,14.396-2.664,14.695-3.522c0.299-0.857-0.465-7.008-7.253-8.955c-2.591-0.679-1.682-4.576,0.67-4.914
			c2.353-0.338,3.996,3.461,6.05,1.548c2.054-1.913,4.928-6.736,4.38-8.002C530.234,406.009,518.307,394.968,518.307,394.968z"/>
		<path style="fill:#DAE4F2;" d="M529.835,410.516c0,0-6.826,3.303-9.139,2.312c-2.312-0.991-5.285,0.881-4.184,3.744
			c1.101,2.863,6.402,4.656,7.991,4.915C526.091,421.746,530.107,413.308,529.835,410.516z"/>
		<path style="fill:#DAE4F7;" d="M637.076,412.388c0,0-0.44,8.698-6.496,16.295c-6.056,7.597-19.709,16.295-26.095,10.9
			c-6.386-5.395,8.258-13.212,9.359-18.167c-3.303,3.193-7.047,4.074-8.368,2.532c-1.321-1.541-0.991-8.368,9.579-13.983
			C622.542,410.626,637.076,412.388,637.076,412.388z"/>
		<path style="fill:#C8D4E8;" d="M561.985,311.312c0,0-18.277,8.258-20.7,19.048s-4.184,32.921-4.184,32.921l-20.149,25.214
			c0,0-4.624,15.745,15.745,24.333c5.725-7.487,20.589-19.819,20.589-19.819L561.985,311.312z"/>
		<path style="fill:#B5503C;" d="M537.275,361.222c0,0-2.64,1.263-1.132,3.258c1.475,2.007,6.573,5.958,13.62,5.408
			c7.047-0.551,0-2.312,0-2.312S541.743,367.531,537.275,361.222z"/>
		<path style="fill:#EEF3FF;" d="M561.985,311.312c0,0-13.102,11.561-14.424,37.766c-1.321,26.205,0,51.088,0,51.088
			s10.13,11.671,35.784,10.79s28.517-3.193,28.517-3.193s2.092,7.047,12.001,7.047c11.671,0.11,14.754-2.092,14.754-2.092
			s4.404-29.838,2.863-53.731c-1.541-23.893-10.9-37.545-18.167-42.83c-7.267-5.285-14.864-6.937-14.864-6.937L561.985,311.312z"/>
		<path style="opacity:0.5;fill:#B5BAC6;" d="M550.765,330.854c0,0,32.803,9.594,65.414,2.791l0.4,2.001
			c0,0-13.204,5.202-39.413,3.201c-21.407-1-27.281-4.992-27.281-4.992S550.772,330.863,550.765,330.854z"/>
		<path style="fill:#CCD8ED;" d="M616.687,344.449c0,0-2.403,46.689-11.431,51.863s-28.538,8.81-37.831,8.754
			c5.416,4.513,12.694,5.936,12.694,5.936l30.862,0.505c0,0,8.038-36.555,8.038-53.511
			C619.019,350.399,616.687,344.449,616.687,344.449z"/>
		<path style="fill:#97A5BF;" d="M555.724,366.489c0,0,35.312,7.57,53.852,3.368c0,7.202-1.814,27.409-1.814,27.409
			s-28.818,5.202-53.405-7.402C554.358,387.663,555.724,366.489,555.724,366.489z"/>
		<path style="fill:#BAC9E2;" d="M555.714,367.689c0,0,35.056,7.57,53.462,3.368c0,7.202-1.801,26.209-1.801,26.209
			s-28.61,5.202-53.018-7.402C554.358,387.663,555.714,367.689,555.714,367.689z"/>
		<path style="fill:#D1DEF2;" d="M556.679,368.257c0,0,33.758,7.289,51.482,3.243c0,6.936-1.734,25.238-1.734,25.238
			s-27.55,5.009-51.055-7.128C555.373,387.491,556.679,368.257,556.679,368.257z"/>
		<path style="fill:#97A5BF;" d="M592.07,374.459h6.003c0.276,0,0.499,0.224,0.499,0.499v0.802c0,0.276-0.224,0.499-0.499,0.499
			h-6.003c-0.276,0-0.499-0.224-0.499-0.499v-0.802C591.57,374.682,591.794,374.459,592.07,374.459z"/>
		<path style="fill:#97A5BF;" d="M561.137,381.36c0,0,5.836,1.954,10.31,2.779c4.474,0.825,12.354,0.885,12.354,0.885
			c1.041,0.168,1.85,0.526,1.806,0.798l-0.128,0.791c-0.044,0.272-0.924,0.357-1.965,0.188c0,0-9.126-0.362-12.091-0.843
			c-2.966-0.48-10.572-2.822-10.572-2.822c-1.041-0.168-1.85-0.526-1.806-0.798l0.128-0.791
			C559.216,381.276,560.096,381.192,561.137,381.36z"/>
		<path style="fill:#97A5BF;" d="M561.085,385.168c0,0,5.836,1.954,10.31,2.779s12.354,0.885,12.354,0.885
			c1.041,0.168,1.85,0.526,1.806,0.798l-0.128,0.791c-0.044,0.272-0.924,0.357-1.965,0.188c0,0-9.126-0.362-12.091-0.843
			c-2.966-0.48-10.572-2.822-10.572-2.822c-1.041-0.168-1.85-0.526-1.806-0.798l0.128-0.791
			C559.164,385.084,560.044,384.999,561.085,385.168z"/>
		<path style="fill:#97A5BF;" d="M600.873,374.459h6.003c0.276,0,0.499,0.224,0.499,0.499v0.802c0,0.276-0.224,0.499-0.499,0.499
			h-6.003c-0.276,0-0.499-0.224-0.499-0.499v-0.802C600.373,374.682,600.597,374.459,600.873,374.459z"/>
		<path style="fill:#B5BAC6;" d="M557.906,316.157c0,0-0.17,22.805-1.21,32.456c-1.039,9.651-9.709,29.365-9.709,29.365l0.093,7.275
			c0,0,14.219-16.745,16.149-34.562c1.93-17.816-1.188-39.345-1.188-39.345S559.858,313.247,557.906,316.157z"/>
		<path style="fill:#B5BAC6;" d="M621.343,314.813c0,0-7.93-0.052-8.821,19.843s-0.508,38.008,3.383,51.222
			c-0.563,3.118-1.335,7.611-1.335,7.611s-12.59-10.135-9.917-59.873c1.633-20.637,12.232-21.295,12.232-21.295
			S620.365,314.123,621.343,314.813z"/>
		<path style="fill:#DB6445;" d="M560.667,306.454c0,0-3.967,1.885-1.545,5.189c2.422,3.303,18.057,9.359,29.948,8.478
			c12.635-0.936,19.709-5.725,21.47-7.707s1.982-5.065-0.881-5.946c-2.863-0.881-18.387,4.184-18.387,4.184L560.667,306.454z"/>
		<circle style="fill:#FFFFFF;" cx="584.971" cy="282.499" r="33.658"/>
		<linearGradient id="SVGID_33_" gradientUnits="userSpaceOnUse" x1="555.1381" y1="286.5624" x2="614.8049" y2="286.5624">
			<stop  offset="0" style="stop-color:#1D0B3F"/>
			<stop  offset="0.5025" style="stop-color:#140B48"/>
			<stop  offset="1" style="stop-color:#06033A"/>
		</linearGradient>
		<ellipse style="fill:url(#SVGID_33_);" cx="584.971" cy="286.562" rx="29.833" ry="29.594"/>
		<g>
			<path style="fill:#FFFFFF;" d="M607.026,283.286c-0.712,0-1.34-0.513-1.462-1.239c-0.978-5.81-3.762-10.347-8.273-13.485
				c-3.364-2.339-6.41-2.968-6.44-2.974c-0.804-0.161-1.326-0.943-1.165-1.747c0.161-0.804,0.943-1.326,1.747-1.165
				c0.149,0.03,3.688,0.76,7.553,3.448c3.57,2.483,8.117,7.175,9.506,15.43c0.136,0.809-0.409,1.574-1.218,1.711
				C607.191,283.279,607.108,283.286,607.026,283.286z"/>
		</g>
		<circle style="fill:#FFFFFF;" cx="606.657" cy="289.744" r="1.559"/>
		<path style="fill:#A9BFEA;" d="M557.29,275.417c0,0,8.166-18.41,27.616-18.41s27.71,18.41,27.71,18.41l1.249-0.581
			c0,0-8.025-19.166-29.256-19.166c-21.231,0-28.895,19.747-28.895,19.747H557.29z"/>
		<g>
			<path style="fill:#C7E1F2;" d="M553.634,276.96l-2.773,0.338c-0.608,0.074-1.08,0.566-1.127,1.177
				c-0.176,2.317-0.38,8.124,1.282,14.012c0.137,0.484,0.546,0.843,1.043,0.92l1.108,0.171c0.764,0.117,1.458-0.46,1.481-1.232
				l0.426-14.069C555.099,277.489,554.416,276.865,553.634,276.96z"/>
			<path style="fill:#9EA8B7;" d="M558.531,276.044c0,0-4.118,10.7-1.176,18.229c0,1.849-2.5,1.981-3.088,0.925
				s-3.235-10.568,0.588-19.154C555.884,273.931,559.119,274.195,558.531,276.044z"/>
			<path style="fill:#E5F0F9;" d="M557.828,276.263c0,0-3.61,10.444-1.031,17.794c0,1.805-2.192,1.934-2.708,0.903
				c-0.516-1.032-2.837-10.315,0.516-18.696C555.508,274.2,558.344,274.458,557.828,276.263z"/>
		</g>
		<g>
			<path style="fill:#C7E1F2;" d="M616.607,276.96l2.773,0.338c0.608,0.074,1.08,0.566,1.127,1.177
				c0.176,2.317,0.38,8.124-1.282,14.012c-0.137,0.484-0.546,0.843-1.043,0.92l-1.108,0.171c-0.764,0.117-1.458-0.46-1.481-1.232
				l-0.426-14.069C615.141,277.489,615.825,276.865,616.607,276.96z"/>
			<path style="fill:#9EA8B7;" d="M611.709,276.044c0,0,4.117,10.7,1.176,18.229c0,1.849,2.5,1.981,3.088,0.925
				c0.588-1.057,3.235-10.568-0.588-19.154C614.356,273.931,611.121,274.195,611.709,276.044z"/>
			<path style="fill:#E5F0F9;" d="M612.412,276.263c0,0,3.61,10.444,1.032,17.794c0,1.805,2.192,1.934,2.708,0.903
				c0.516-1.032,2.837-10.315-0.516-18.696C614.733,274.2,611.896,274.458,612.412,276.263z"/>
		</g>
		<path style="fill:#DB6445;" d="M547.391,396.278c0,0-3.023,3.227-0.38,6.861s14.314,9.359,27.636,10.46s35.54-1.648,39.185-2.641
			c0,0-1.263-1.328-1.781-2.702c-0.377-0.546-0.519-0.713-0.519-0.713l0.33-1.541c0,0-21.14,2.092-36.334,0.551
			C560.333,405.011,547.391,396.278,547.391,396.278z"/>
		<path style="fill:#DB6445;" d="M618.328,371.868c0,0,6.306,4.406,12.141,4.296c5.836-0.11,10.343-3.083,11.337-5.835
			c0.778-0.441,0.988-2.61,0-2.737c-0.988-0.126-6.163,6.04-11.448,4.939s-11.756-3.919-11.756-3.919L618.328,371.868z"/>
		<g>
			<path style="fill:#B5BAC6;" d="M611.863,408.204c-0.057,0-0.114-0.006-0.171-0.019c-0.415-0.094-0.675-0.507-0.581-0.922
				c0.065-0.285,6.475-28.781,6.367-49.262c0-8.772-1.956-24.524-1.976-24.682c-0.053-0.422,0.247-0.808,0.669-0.86
				c0.423-0.053,0.807,0.247,0.86,0.669c0.02,0.159,1.988,16.005,1.988,24.869c0.057,10.799-1.688,23.715-3.162,32.647
				c-1.596,9.669-3.227,16.888-3.243,16.96C612.532,407.961,612.215,408.204,611.863,408.204z"/>
		</g>
		<path style="fill:#DB6445;" d="M625.074,409.965c-4.404-0.991-11.781-5.395-11.781-5.395l-1.431,3.193
			c0,0,0.889,2.991,4.248,5.076c0,0,2.468,1.531,5.185,1.799c0.365,0.062,1.645,0.172,2.568,0.172
			c11.671,0.11,14.754-2.092,14.754-2.092s0.17-1.153,0.432-3.186C637.415,409.848,629.479,410.956,625.074,409.965z"/>
		<path style="fill:#B5503C;" d="M521.913,398.644l-2.909-12.717l-2.052,2.568c0,0-4.624,15.745,15.745,24.333
			c0.684-0.895,1.5-1.859,2.404-2.863C533.266,408.974,523.571,403.067,521.913,398.644z"/>
		<path style="fill:#B24F3B;" d="M610.098,406.16c-0.043,1.17-0.038,3.989,0.907,5.348c1.302-0.211,2.277-0.401,2.827-0.551
			c0,0-1.199-1.323-1.782-2.702c-0.078-0.163-0.188-0.493-0.188-0.493l0.881-1.982C612.743,405.781,611.227,406.064,610.098,406.16z
			"/>
		<path style="fill:#DB6445;" d="M572.591,457.504c0,0,16.699,11.037,37.509,0.026c2.422-1.982,1.899,5.002,0.069,5.914
			c-1.968,1.306-14.052,5.977-23.301,5.096c-9.249-0.881-14.313-5.615-14.313-5.615S569.765,459.24,572.591,457.504z"/>
		<path style="fill:#DB6445;" d="M582.905,501.902l0.661,2.642c0.037,0.041,0.074,0.084,0.111,0.127
			c0.712,0.791,4.791,4.996,10.679,4.497c6.496-0.551,14.093-10.46,14.093-10.46l0.166-3.413
			C596.998,506.857,592.566,506.694,582.905,501.902z"/>
		<path style="fill:#DB6445;" d="M576.638,487.276c0,0,1.422,0.533,0.761,2.294c-1.431,0.991-8.383,6.396-15.808,6.396
			c-3.901,0-5.112-0.67-6.323-1.441c-1.211-0.771-1.722-1.108-1.577-2.15s4.329,0.499,7.632,0.279
			C564.627,492.433,571.583,490.708,576.638,487.276z"/>
		<path style="fill:#DB6445;" d="M532.697,445.749c0,0,8.618,9.686,32.496,5.558c1.731-0.327,1.187,2.366,0.311,2.863
			c-0.872,0.443-15.74,5.121-27.301,2.259c-6.056-1.762-7.353-4.485-7.353-4.485S529.174,447.291,532.697,445.749z"/>
		<path style="fill:#EF4D3C;" d="M633.307,334.656c0,0-5.196,3.415-9.948,2.969c0.742,4.9,1.485,8.463,1.485,8.463
			s8.314-1.188,10.69-4.009C635.386,341.635,633.307,334.656,633.307,334.656z"/>
	</g>
</g>
</svg>
