<svg xmlns="http://www.w3.org/2000/svg" viewBox="0 0 466.27 583.67"><defs><style>.cls-1{fill:#d6d6d6;}.cls-2{fill:#23221d;}.cls-3{fill:#33322d;}.cls-4{fill:#2d2c28;}.cls-5{fill:#fff;}.cls-6{fill:#e55151;}.cls-7{fill:#191815;}.cls-8{fill:#ed6b6b;}.cls-9{fill:#d33737;}.cls-10{opacity:0.1;}</style></defs><g id="图层_2" data-name="图层 2"><g id="无脸男"><ellipse class="cls-1" cx="76.45" cy="563.2" rx="76.45" ry="20.48"/><path class="cls-2" d="M278.77,579.27c-6.53,0-13.09-.58-19.43-1.15-6.19-.55-12.59-1.11-18.81-1.11h-1.65c-8.67.14-17.51.62-26.06,1.08-10.33.56-21,1.14-31.57,1.14-1.57,0-3.13,0-4.69,0-14.25-.24-33.76-.58-46.67-12.07C106,545.86,119,508.76,130.55,476c3.83-10.91,7.46-21.21,9.72-30.63,5-21,5.35-43.57,5.66-65.43.16-11.78.34-24,1.24-35.71,2.43-31.39,6.35-64.24,24.9-90.67A116.62,116.62,0,0,1,267.41,204h0a115.92,115.92,0,0,1,63.64,18.92c40.11,26.22,49.2,66.94,55.63,109.89,1,7,2.1,17,3.22,27.6,1.84,17.52,3.93,37.37,6.48,48.34,13.9,59.73,30.33,91.26,64.52,149a13.25,13.25,0,0,1-11.4,20h-.1c-3.79,0-7.59-.25-11.27-.5s-7.24-.48-10.8-.48c-11.55,0-23.23.54-34.53,1s-23.11,1-34.71,1H358c-6,0-12-.51-17.88-1-5.69-.48-11.58-1-17.3-1h-.11c-7.29,0-14.77.61-22,1.21-6.55.54-13.33,1.1-20.05,1.21Z"/><path d="M267.41,207.5a113.12,113.12,0,0,1,61.73,18.35c39.06,25.54,47.83,65.74,54.08,107.47,2.75,18.42,5.6,58.34,9.75,76.22,14.13,60.74,31.5,93.55,64.92,149.94a9.75,9.75,0,0,1-8.39,14.7h-.09c-7.36,0-14.72-1-22.08-1h-.1c-23.05,0-46.1,2.06-69.15,2.09H358c-11.72,0-23.45-2-35.18-2h-.12c-14,0-28.08,2.18-42.12,2.42l-1.77,0c-12.75,0-25.5-2.27-38.24-2.27l-1.71,0c-19.2.32-38.39,2.22-57.57,2.22-1.54,0-3.09,0-4.63,0-14.89-.25-32.74-.8-44.41-11.18-29.52-26.28,2.25-79.88,11.46-118.3,7.85-32.73,4.41-68.22,7-101.68,2.37-30.6,6.16-63.13,24.27-88.93a113.76,113.76,0,0,1,92.48-48.11m0-7a120.75,120.75,0,0,0-98.2,51.09c-19.07,27.15-23.06,60.54-25.53,92.41-.91,11.87-1.09,24.1-1.25,35.93-.31,21.67-.63,44.08-5.57,64.66-2.21,9.25-5.81,19.47-9.61,30.28-11.88,33.77-25.34,72,.31,94.87,13.88,12.36,34.14,12.71,48.94,13,1.54,0,3.14,0,4.75,0,10.65,0,21.39-.58,31.77-1.14,8.51-.46,17.32-.94,25.92-1.08l1.59,0c6.06,0,12.1.54,18.5,1.11s13.06,1.16,19.74,1.16l1.9,0c6.83-.12,13.67-.68,20.28-1.22,7.49-.62,14.57-1.2,21.71-1.2h.12c5.58,0,11.13.46,17,.95s12,1,18.17,1h.14c11.67,0,23.46-.54,34.87-1,11.25-.5,22.89-1,34.27-1h.09c3.45,0,6.91.23,10.57.48s7.59.5,11.51.5h.1a16.75,16.75,0,0,0,14.4-25.27c-34-57.36-50.34-88.7-64.12-147.95-2.5-10.76-4.58-30.5-6.41-47.92-1.13-10.65-2.19-20.7-3.24-27.75-2.88-19.23-6.66-41.42-15.21-61.51-9.27-21.78-23-38.39-42-50.79a119.48,119.48,0,0,0-65.56-19.49Z"/><path class="cls-3" d="M150.66,344.54c2.37-30.6,6.16-63.13,24.27-88.93,21-29.92,55.93-47.11,92.48-47.11,21.84,0,43.45,5.39,61.73,17.35,39.06,25.54,46.83,65.74,53.08,107.47,2.75,18.42,4.6,58.34,8.75,76.22,14.13,60.74,33.5,93.55,66.92,149.94h0C424.47,503.09,407.1,465.05,393,404.32c-4.15-17.88-7-57.81-9.75-76.22-6.25-41.73-15-81.94-54.08-107.48a113,113,0,0,0-154.21,29.76c-18.11,25.81-21.9,58.33-24.27,88.93"/><path class="cls-4" d="M168.72,414.78l-14.9,10.37-6.15-3.58c2.52-25.46,1.05-51.82,3-77,2-26.16,5.09-53.73,17.25-77.3C147.59,356.21,168.72,414.78,168.72,414.78Z"/><path class="cls-5" d="M344.76,318c0,54.6-28.26,85.8-78.85,85.8S187,372.63,187,318s28.31-88.27,78.89-88.27S344.76,263.42,344.76,318Z"/><path class="cls-2" d="M234.12,299.75c0,6.63-5,8.57-11.12,8.57s-11.12-1.94-11.12-8.57,5-8.2,11.12-8.2S234.12,293.13,234.12,299.75Z"/><path class="cls-2" d="M231,313.57c0,1.18-3.57,1.53-8,1.53s-8-.35-8-1.53,3.57-1.46,8-1.46S231,312.39,231,313.57Z"/><path class="cls-6" d="M232.75,284.22a1.74,1.74,0,0,1-2.46,1.7,13.33,13.33,0,0,0-12.44-.1,1.76,1.76,0,0,1-2.46-2c1.8-11.25,8.12-20.64,16.68-25.55a1.78,1.78,0,0,1,2.5,2.15C232.73,267.51,232.69,275.58,232.75,284.22Z"/><path class="cls-6" d="M232.84,324c0-2.11-1.71-3.49-3.23-2.61a13.17,13.17,0,0,1-13.29.1c-1.62-.91-3.42.94-3.09,3.14,2.12,14.28,9,26.22,18.18,32.75,1.73,1.22,3.83-.79,3.33-3.21C232.86,345.13,232.79,334.91,232.84,324Z"/><path class="cls-2" d="M297.67,299.75c0,6.63,5,8.57,11.11,8.57s11.12-1.94,11.12-8.57-5-8.2-11.12-8.2S297.67,293.13,297.67,299.75Z"/><path class="cls-2" d="M300.8,313.57c0,1.18,3.57,1.53,8,1.53s8-.35,8-1.53-3.57-1.46-8-1.46S300.8,312.39,300.8,313.57Z"/><path class="cls-6" d="M299,284.22a1.73,1.73,0,0,0,2.46,1.7,13.31,13.31,0,0,1,12.43-.1,1.76,1.76,0,0,0,2.46-2c-1.79-11.25-8.12-20.64-16.68-25.55a1.77,1.77,0,0,0-2.49,2.15C299.05,267.51,299.09,275.58,299,284.22Z"/><path class="cls-6" d="M298.94,324c0-2.11,1.72-3.49,3.24-2.61a13.15,13.15,0,0,0,13.28.1c1.63-.91,3.42.94,3.1,3.14-2.13,14.28-8.95,26.22-18.19,32.75-1.73,1.22-3.83-.79-3.32-3.21C298.92,345.13,299,334.91,298.94,324Z"/><path class="cls-2" d="M280.53,371.58c0,6.92-7.63,7.55-14.9,7.55s-14.38-.74-14.38-7.55c0-6.31,7.11-7,14.38-7S280.53,365.38,280.53,371.58Z"/><path class="cls-6" d="M272.59,384.24c0,1.27-3.49,2.17-6.82,2.17s-6.58-.92-6.58-2.17,3.26-.49,6.58-.49S272.59,383.1,272.59,384.24Z"/><path class="cls-7" d="M134.16,522.14c2.74-18,17.49-44.4,17.49-44.4l-16.74-3.56c-11.7,33.35-25.53,70-2.7,90.34a40.68,40.68,0,0,0,27.14,10H163C127.49,568.17,131.35,540.46,134.16,522.14Z"/><path d="M319,518.61a11.34,11.34,0,0,1-10.06-16.3c10.41-21.25,28-60.65,28.95-85.83a3.5,3.5,0,1,1,7,.26c-1,26.48-19,66.91-29.66,88.65a4.31,4.31,0,0,0,5.2,6c46-15.44,54.34-61.27,54.41-61.73a3.5,3.5,0,0,1,6.91,1.17c-.35,2.05-9.06,50.39-59.09,67.19A11.38,11.38,0,0,1,319,518.61Z"/><path class="cls-2" d="M148.75,475.83s-45.44.86-80.46-36.6a7.8,7.8,0,0,1,5.94-13.1c23.9.66,67.62.31,91.53-9.52"/><path d="M148.35,479.34c-5.24,0-48.43-1.15-82.62-37.72a11.3,11.3,0,0,1,8.59-19c23.65.66,66.8.33,90.11-9.26a3.5,3.5,0,1,1,2.66,6.48c-24.5,10.07-68.75,10.44-93,9.78H74a4.24,4.24,0,0,0-3.9,2.55,4.17,4.17,0,0,0,.76,4.67c33.48,35.82,77.4,35.48,77.83,35.49h.06a3.5,3.5,0,0,1,.07,7Z"/><path class="cls-4" d="M341.59,413.35s11.42-1,10.47,20.62-29.25,63-40.16,76.38l3.68-16.75,9.52-19,11.42-32,2.53-25.22.8-3.33Z"/><path class="cls-7" d="M379.86,447.08s7.62,6.34,3.39,20.93-21.68,42.34-61.75,50.11l14-10.78,14.8-9.09,9.31-11.42,9.3-11.84,5.07-13.14Z"/><path d="M319,518.61a11.34,11.34,0,0,1-10.06-16.3c10.41-21.25,28-60.65,28.95-85.83a3.5,3.5,0,1,1,7,.26c-1,26.48-19,66.91-29.66,88.65a4.31,4.31,0,0,0,5.2,6c46-15.44,54.34-61.27,54.41-61.73a3.5,3.5,0,0,1,6.91,1.17c-.35,2.05-9.06,50.39-59.09,67.19A11.38,11.38,0,0,1,319,518.61Z"/><path class="cls-7" d="M152.21,476.39l-3.15-1.68-1.39-.52-6.19,1.23c-13.58-1.37-43.81-7.27-69.6-32.51,35.47,21.57,72.31,16.48,77.5,21.08a11.06,11.06,0,0,1,2.06,2.43h0C154.25,471,152.21,476.39,152.21,476.39Z"/><path class="cls-4" d="M161.86,430.17c-.34.17-.7.32-1.07.47-10.11,4-68.21,9.2-93-1.38a7.65,7.65,0,0,1,6.47-3.13c23.91.66,67.62.31,91.54-9.52l3-1.83S172.14,425.33,161.86,430.17Z"/><path class="cls-7" d="M168.72,414.78l-14.82,7.93-6.23-1.14c2.52-25.46,1.05-51.82,3-77,2-26.16,5.09-53.73,17.25-77.3C147.59,356.21,168.72,414.78,168.72,414.78Z"/><path d="M148.35,479.34c-5.24,0-48.43-1.15-82.62-37.72a11.3,11.3,0,0,1,8.59-19c23.65.66,66.8.33,90.11-9.26a3.5,3.5,0,1,1,2.66,6.48c-24.5,10.07-68.75,10.44-93,9.78H74a4.24,4.24,0,0,0-3.9,2.55,4.17,4.17,0,0,0,.76,4.67c33.48,35.82,77.4,35.48,77.83,35.49h.06a3.5,3.5,0,0,1,.07,7Z"/><path d="M84.46,525.82A1.49,1.49,0,0,1,83,524.6c-1.53-8-2.83-16.2-3.89-24.29-6.56-50.12-.92-101.22,5.47-144.59,7.62-51.77,5.91-113.94-5.08-184.78a1.5,1.5,0,1,1,3-.46c11,71.14,12.74,133.61,5.08,185.68-6.36,43.17-12,94-5.47,143.76,1.05,8,2.35,16.15,3.86,24.13a1.5,1.5,0,0,1-1.19,1.75A1.32,1.32,0,0,1,84.46,525.82Z"/><path class="cls-6" d="M168.74,84.37c0,58.42-22.84,130.74-84.37,130.74S0,145.33,0,84.37a84.37,84.37,0,0,1,168.74,0Z"/><path class="cls-8" d="M2.63,90.47A84.37,84.37,0,0,1,87,6.1c29,0,54.51,12.59,69.7,34.82A84.38,84.38,0,0,0,0,84.37c0,34.54,7.34,71.91,24.89,97.82C9.24,156.53,2.63,123.23,2.63,90.47Z"/><path class="cls-9" d="M84.37,205.5C24.6,205.5,1.35,141.67.06,82,0,82.81,0,83.59,0,84.37c0,61,22.84,130.74,84.37,130.74s84.37-72.32,84.37-130.74c0-.81,0-1.62-.06-2.43C167.36,139.37,144.09,205.5,84.37,205.5Z"/><g class="cls-10"><path class="cls-5" d="M50.37,88.67a203.66,203.66,0,0,1-2.28,20.78,9.93,9.93,0,0,1-2.74.18,8.5,8.5,0,0,1-2.91-.36,145.32,145.32,0,0,1,2.55-21c.91,0,1.82-.09,2.92-.09A15.39,15.39,0,0,1,50.37,88.67Zm9.56-9.56c.19,4.1.46,8.2.64,12.3,2.55.36,5,.82,7.38,1.18a16.49,16.49,0,0,1-1,5.47,47.44,47.44,0,0,1-6.2-.46c.19,7.48.37,15.22.37,23.24a9.1,9.1,0,0,1-3,.36,11.55,11.55,0,0,1-3-.18C54.38,106.08,54,92.14,54,79.29a14.61,14.61,0,0,1,3-.46A11.14,11.14,0,0,1,59.93,79.11Zm16.68,23a114.31,114.31,0,0,1-.82,13.12,9.07,9.07,0,0,1-3,.37,4.36,4.36,0,0,1-2.73-.64,76.81,76.81,0,0,1,.82-13.12,27.09,27.09,0,0,1,3-.19A9.64,9.64,0,0,1,76.61,102.07Zm3.65-32.72c-.19-1.36-.37-2.82-.46-4.28a36.82,36.82,0,0,1,6.47-.54c.27,1.63.55,3.28.73,4.92,4.74.09,9.48.18,14.21.18.28-2,.64-3.83,1-5.65,1,0,2.09-.09,3.37-.09a11.87,11.87,0,0,1,2.82.45c-.09,1.82-.27,3.65-.45,5.29,2.46,0,4.92.09,7.29.09v2.55a10.76,10.76,0,0,1-.37,3h-7.65c-.18,1.36-.46,2.64-.64,3.83a11.36,11.36,0,0,1-3.19.27,8.06,8.06,0,0,1-3.19-.46c.09-1.27.18-2.55.28-3.64-4.56,0-8.84,0-12.67-.09.18,1.55.27,3,.45,4.28a33.93,33.93,0,0,1-6,.55,44.13,44.13,0,0,1-1.09-4.83H71.42a9,9,0,0,1-.28-3,7.9,7.9,0,0,1,.46-2.83Zm33.62,13.31c.18,2.55.27,5.19.27,8a49.34,49.34,0,0,1-.45,6.65,62.14,62.14,0,0,1-9.39.46c-11.48,0-21.32-.19-29.52-.73a71.7,71.7,0,0,1-.37-8.2,57.87,57.87,0,0,1,.37-6.29q8.47-.27,20.5-.28C102.67,82.29,108.87,82.48,113.88,82.66Zm4.56,18.86c.27,2.74.63,6.29,1,10.76a21.1,21.1,0,0,1-6,.81c-.55-2.55-1-4.73-1.28-6.65-13.31,0-23.88-.09-31.53-.27a18.39,18.39,0,0,1-.46-4.47c5.11-.27,10-.45,14.58-.45C102,101.25,109.87,101.34,118.44,101.52ZM80.26,93.23H108V86.76h-5.74a31.33,31.33,0,0,1-.64,4.74,10.33,10.33,0,0,1-2.64.27,3.32,3.32,0,0,1-2.37-.64,29.71,29.71,0,0,1,.27-4.37H91.1a28.77,28.77,0,0,1-.64,4.74,10.33,10.33,0,0,1-2.64.27,3.33,3.33,0,0,1-2.37-.64,31.48,31.48,0,0,1,.27-4.37H80.26ZM94,117a7.93,7.93,0,0,1,.28,2.28,15.38,15.38,0,0,1-.18,2.19,19.66,19.66,0,0,1-4.56.36c-1.28,0-2.37,0-3.28-.09v2.19h3.1a29.85,29.85,0,0,1,4.55.27,7.71,7.71,0,0,1,.28,2.19,11.66,11.66,0,0,1-.19,2.09,29.08,29.08,0,0,1-4.92.37c-1.09,0-2-.09-2.73-.09,0,.73.09,1.46.09,2.09a47.67,47.67,0,0,0,6.65.46q6.57,0,9-.82c0-2.1-.1-7.56-.28-16.49-4.74-.28-9.38-.64-13.76-1.19a18.5,18.5,0,0,1,.46-4.55c6.47.18,12.66.54,18.68,1.09a39.19,39.19,0,0,1,1,9.84,156.89,156.89,0,0,1-.55,15.76q-3.56,1.38-13.67,1.37a80.19,80.19,0,0,1-12.75-.82c-.46-3.83-.82-8.56-1-14.21a63.08,63.08,0,0,1,.82-9.57h5.19v5.1c1,0,2.19-.09,3.55-.09A26.32,26.32,0,0,1,94,117Z"/></g><path d="M74,225.47a6,6,0,0,1-5.44-3.16,5.55,5.55,0,0,1-.62-4.23c1.39-5.12,8.39-4.14,12.15-3.61l1.13.15c1.89.23,3.57.49,5.11.82a17.84,17.84,0,0,0,1.59-.94c.42-.27.78-.5,1-.6,1.12-.55,2.14-1,3.13-1.44a33.32,33.32,0,0,1,5.11-1.77c.52-.13,5.22-1.22,8,.67a4.33,4.33,0,0,1,1.89,3.06,5.54,5.54,0,0,1-1.54,4.73c-2.17,2.25-6,3-8.62,2.74a32.29,32.29,0,0,1-10.34-3.14c-.18.16-.34.32-.43.41l-.3.29c-2.35,2-5.52,4.51-9.22,5.62A9,9,0,0,1,74,225.47ZM75.13,217c-2,0-3.9.39-4.29,1.84a2.61,2.61,0,0,0,.32,1.93c.91,1.57,2.45,2,4.58,1.39a21.61,21.61,0,0,0,7.28-4.3c-.68-.1-1.39-.2-2.14-.29l-1.19-.16A34.76,34.76,0,0,0,75.13,217Zm14.63-.14a25.55,25.55,0,0,0,7.42,2c2,.19,4.83-.44,6.17-1.83a2.55,2.55,0,0,0,.72-2.25,1.32,1.32,0,0,0-.59-1c-1.16-.78-3.7-.71-5.61-.24a31.14,31.14,0,0,0-4.66,1.62c-.93.39-1.9.84-3,1.37A5.18,5.18,0,0,0,89.76,216.89Z"/><path d="M77.47,238.5A1.51,1.51,0,0,1,76.36,236c8.21-9.1,7.81-18,7.81-18.05a1.5,1.5,0,0,1,1.41-1.58,1.53,1.53,0,0,1,1.58,1.42c0,.41.46,10.2-8.57,20.22A1.51,1.51,0,0,1,77.47,238.5Z"/><path d="M112.61,234.85h-.17c-21.55-2.45-27.09-14.52-27.31-15a1.5,1.5,0,0,1,2.74-1.22c.07.15,5.23,11,24.91,13.27a1.5,1.5,0,0,1-.17,3Z"/><path d="M80.24,218.62a1.5,1.5,0,0,1-.8-2.77,15.68,15.68,0,0,1,12.1-1.34,1.5,1.5,0,1,1-.83,2.88,12.79,12.79,0,0,0-9.68,1A1.42,1.42,0,0,1,80.24,218.62Z"/><path class="cls-9" d="M95.52,218.28c.12,2-3.88.23-8.86.52s-9.07,2.54-9.18.52,3.82-3.88,8.81-4.17S95.41,216.26,95.52,218.28Z"/></g></g></svg>