<?xml version="1.0" standalone="no"?><!DOCTYPE svg PUBLIC "-//W3C//DTD SVG 1.1//EN" "http://www.w3.org/Graphics/SVG/1.1/DTD/svg11.dtd"><svg t="1649679155669" class="icon" viewBox="0 0 1024 1024" version="1.1" xmlns="http://www.w3.org/2000/svg" p-id="6075" xmlns:xlink="http://www.w3.org/1999/xlink" width="200" height="200"><defs><style type="text/css">@font-face { font-family: "feedback-iconfont"; src: url("//at.alicdn.com/t/font_1031158_u69w8yhxdu.woff2?t=1630033759944") format("woff2"), url("//at.alicdn.com/t/font_1031158_u69w8yhxdu.woff?t=1630033759944") format("woff"), url("//at.alicdn.com/t/font_1031158_u69w8yhxdu.ttf?t=1630033759944") format("truetype"); }
</style></defs><path d="M902.977236 1009.038029H121.022764c-16.775967 0-30.373941-13.599973-30.373941-30.37394V331.487353h842.704354v647.176736c-0.002 16.775967-13.599973 30.373941-30.375941 30.37394z" fill="#F3F0F3" p-id="6076"></path><path d="M933.351177 331.487353H90.648823V123.661758c0-16.775967 13.599973-30.373941 30.373941-30.37394h781.954472c16.775967 0 30.373941 13.599973 30.373941 30.37394z" fill="#EE6161" p-id="6077"></path><path d="M933.341177 331.487353v647.172736c0 16.775967-13.583973 30.377941-30.359941 30.37794h-39.893922c16.775967 0 30.359941-13.603973 30.359941-30.37794V331.487353z" fill="#E2DEE2" p-id="6078"></path><path d="M933.341177 123.661758v207.825595h-39.893922V123.661758c0-16.775967-13.583973-30.377941-30.359941-30.37794h39.893922c16.775967 0 30.359941 13.603973 30.359941 30.37794z" fill="#E94444" p-id="6079"></path><path d="M275.748461 171.617665c-17.655966 0-31.967938-14.311972-31.967937-31.967938v-92.719819c0-17.655966 14.311972-31.967938 31.967937-31.967937s31.967938 14.311972 31.967938 31.967937v92.719819c0.002 17.653966-14.311972 31.967938-31.967938 31.967938zM736.095562 171.617665c-17.655966 0-31.967938-14.311972-31.967937-31.967938v-92.719819c0-17.655966 14.311972-31.967938 31.967937-31.967937s31.967938 14.311972 31.967938 31.967937v92.719819c0.002 17.653966-14.311972 31.967938-31.967938 31.967938z" fill="#FEE97D" p-id="6080"></path><path d="M307.712399 46.927908V139.639727c0 17.673965-14.301972 31.973938-31.953938 31.973938-5.465989 0-10.611979-1.375997-15.11997-3.789993a31.943938 31.943938 0 0 0 16.853967-28.185945V46.927908c0-8.815983-3.589993-16.815967-9.373982-22.599956a32.115937 32.115937 0 0 0-7.479985-5.583989 31.933938 31.933938 0 0 1 15.11997-3.789992c8.835983 0 16.815967 3.569993 22.599956 9.375981a31.867938 31.867938 0 0 1 9.353982 22.597956zM768.0635 46.927908V139.639727c0 17.673965-14.301972 31.973938-31.973938 31.973938-5.465989 0-10.611979-1.375997-15.11997-3.789993a31.945938 31.945938 0 0 0 16.855967-28.185945V46.927908c0-8.815983-3.569993-16.815967-9.355982-22.599956a31.673938 31.673938 0 0 0-7.499985-5.583989 31.933938 31.933938 0 0 1 15.11997-3.789992c8.835983 0 16.835967 3.569993 22.619956 9.375981a31.859938 31.859938 0 0 1 9.353982 22.597956z" fill="#FEDF30" p-id="6081"></path><path d="M668.251695 908.156226c-78.107847 0-144.639718-57.563888-155.463697-135.115736-2.663995-19.093963 10.653979-36.731928 29.745942-39.395923 19.095963-2.673995 36.731928 10.653979 39.395923 29.745942 6.085988 43.609915 44.031914 75.813852 88.125828 74.933854 45.433911-0.915998 82.863838-37.131927 85.217834-82.451839 1.255998-24.191953-7.207986-47.155908-23.831954-64.665874-16.635968-17.521966-39.079924-27.171947-63.199876-27.171947-33.019936 0-46.609909 5.00599-63.573876 12.641975a102.963799 102.963799 0 0 0-3.591993 1.687997 34.819932 34.819932 0 0 1-36.505929-2.817994c-10.675979-7.771985-16.003969-20.925959-13.843973-33.953934l29.703942-179.28765a34.905932 34.905932 0 0 1 34.437933-29.201943h149.943707c19.277962 0 34.905932 15.627969 34.905932 34.905932s-15.627969 34.905932-34.905932 34.905932h-120.345765l-15.555969 93.891816c11.363978-1.695997 24.141953-2.587995 39.331923-2.587995 42.825916 0 84.313835 17.829965 113.829778 48.915905 29.935942 31.531938 45.179912 72.851858 42.921916 116.353773-4.239992 81.69584-71.67986 146.983713-153.5317 148.629709-1.069998 0.026-2.141996 0.038-3.209994 0.038zM440.782139 908.156226H237.412536a34.903932 34.903932 0 0 1-28.037945-55.697891c0.621999-0.843998 17.355966-23.637954 141.491724-201.003607 19.109963-27.305947 31.429939-51.825899 36.639928-72.913858l1.423997-11.141978c-1.057998-36.141929-30.78994-65.217873-67.183868-65.217873-32.051937 0-59.787883 22.771956-65.949872 54.143894-3.715993 18.917963-22.063957 31.239939-40.97992 27.523947-18.917963-3.713993-31.239939-22.061957-27.525946-40.97992 12.575975-64.027875 69.121865-110.501784 134.453738-110.501784 75.555852 0 137.025732 61.46788 137.025732 137.025732 0 1.479997-0.094 2.957994-0.281999 4.425991l-1.973997 15.43797a35.011932 35.011932 0 0 1-0.619998 3.459993c-6.999986 30.187941-23.093955 63.417876-47.835907 98.769807-49.315904 70.461862-81.77784 116.669772-103.061799 146.857714h135.779735c19.277962 0 34.905932 15.627969 34.905932 34.905931s-15.621969 34.905932-34.899932 34.905932z" fill="#918291" p-id="6082"></path><path d="M759.825516 468.003086c0-19.267962-15.617969-34.905932-34.905932-34.905932h39.893922c19.287962 0 34.905932 15.637969 34.905932 34.905932 0 19.287962-15.617969 34.905932-34.905932 34.905932H724.919584c19.287962 0.002 34.905932-15.617969 34.905932-34.905932zM824.991389 759.486517c-4.227992 81.70184-71.66786 146.987713-153.5297 148.643709-1.077998 0.02-2.133996 0.02-3.211994 0.02-6.741987 0-13.403974-0.437999-19.945961-1.275997 74.141855-9.493981 132.86574-71.329861 136.795733-147.387712 2.253996-43.483915-12.985975-84.813834-42.925917-116.349773-25.77195-27.147947-60.697881-44.201914-97.679809-48.051906 7.259986-0.557999 15.11997-0.857998 23.755954-0.857999 42.825916 0 84.315835 17.831965 113.815778 48.909905 29.939942 31.535938 45.179912 72.865858 42.925916 116.349773z" fill="#7A6D79" p-id="6083"></path><path d="M408.064203 691.486649c-49.307904 70.451862-81.78184 116.669772-103.065799 146.847714h-14.543971c-10.653979 0-16.893967-11.993977-10.763979-20.70596a60549.23174 60549.23174 0 0 0 88.477827-126.141754c24.733952-35.345931 40.83192-68.577866 47.831906-98.775807 0.259999-1.137998 0.477999-2.293996 0.617999-3.449993l1.973996-15.43797c0.2-1.475997 0.279999-2.951994 0.28-4.427991 0-68.755866-50.903901-125.863754-117.007772-135.577735a136.383734 136.383734 0 0 1 19.885962-1.455997c75.557852 0 137.013732 61.47588 137.013732 137.033732 0 1.475997-0.08 2.951994-0.279999 4.427991l-1.973997 15.43797c-0.14 1.155998-0.359999 2.313995-0.617998 3.449993-6.997986 30.199941-23.093955 63.429876-47.827907 98.775807zM475.684071 873.242294c0 19.287962-15.617969 34.905932-34.905932 34.905932h-39.893922c19.287962 0 34.905932-15.617969 34.905932-34.905932 0-19.267962-15.617969-34.905932-34.905932-34.905931h39.893922c19.285962-0.002 34.905932 15.637969 34.905932 34.905931z" fill="#7A6D79" p-id="6084"></path><path d="M933.353177 401.893215a14.959971 14.959971 0 0 0 14.959971-14.959971V123.661758c0-24.997951-20.33596-45.333911-45.333912-45.333911h-119.953765v-31.399939C783.025471 21.051959 761.971512 0 736.095562 0s-46.929908 21.051959-46.929908 46.927908v31.399939H322.67837v-31.399939C322.67837 21.051959 301.626411 0 275.750461 0S228.820553 21.051959 228.820553 46.927908v31.399939h-107.799789c-24.997951 0-45.333911 20.33596-45.333912 45.333911v855.002331C75.688852 1003.66004 96.024812 1023.998 121.020764 1023.998h781.958472c24.997951 0 45.333911-20.33796 45.333912-45.333911V456.135109c0-8.261984-6.695987-14.959971-14.959971-14.959971s-14.959971 6.697987-14.959971 14.959971v522.52898c0 8.497983-6.915986 15.41397-15.41397 15.413969H121.020764c-8.497983 0-15.41397-6.915986-15.41397-15.413969V346.447323h812.784412v40.485921a14.961971 14.961971 0 0 0 14.961971 14.959971zM719.085596 46.927908c0-9.377982 7.629985-17.007967 17.009966-17.007966s17.009967 7.629985 17.009967 17.007966v92.719819c0 9.377982-7.629985 17.007967-17.009967 17.007967-9.377982 0-17.009967-7.629985-17.009966-17.007967z m-460.345101 0c0-9.377982 7.629985-17.007967 17.009966-17.007966s17.009967 7.629985 17.009967 17.007966v92.719819c0 9.377982-7.629985 17.007967-17.009967 17.007967s-17.009967-7.629985-17.009966-17.007967z m-153.133701 269.599474V123.661758c0-8.499983 6.915986-15.41397 15.41397-15.413969h107.797789v31.399938c0 25.875949 21.053959 46.927908 46.929908 46.927909s46.929908-21.051959 46.929909-46.927909v-31.399938h366.487284v31.399938c0 25.875949 21.053959 46.927908 46.929908 46.927909s46.929908-21.051959 46.929909-46.927909v-31.399938h119.953765c8.497983 0 15.41397 6.915986 15.41397 15.413969v192.863624H105.606794z" p-id="6085"></path><path d="M669.757692 823.368392c-36.603929 0.695999-67.969867-25.945949-73.011858-62.045879-1.839996-13.193974-8.707983-24.877951-19.333962-32.905936-10.633979-8.031984-23.761954-11.435978-36.945928-9.589981-13.191974 1.841996-24.875951 8.709983-32.901935 19.339962-8.027984 10.629979-11.431978 23.749954-9.591982 36.941928a171.599665 171.599665 0 0 0 57.509888 105.871793 172.073664 172.073664 0 0 0 116.281773 42.101918c89.657825-1.801996 163.525681-73.317857 168.169672-162.811682 2.471995-47.639907-14.223972-92.893819-47.013909-127.429751-32.327937-34.047934-77.771848-53.575895-124.679756-53.575895-7.553985 0-14.645971 0.212-21.363958 0.643998l10.27398-62.025878h107.659789c27.495946 0 49.865903-22.369956 49.865903-49.867903s-22.369956-49.867903-49.865903-49.867903h-149.945707a49.699903 49.699903 0 0 0-49.195904 41.715919l-29.703942 179.28765c-3.105994 18.753963 4.477991 37.333927 19.791962 48.487905 19.471962 14.181972 39.845922 8.723983 60.247882 0.397999 16.937967-6.911987 33.977934-9.039982 52.235898-9.039982 19.975961 0 38.567925 7.995984 52.349898 22.511956 13.771973 14.505972 20.781959 33.535935 19.739961 53.589895-1.943996 37.523927-32.943936 67.511868-70.571862 68.269867z m72.533858-142.459722c-19.487962-20.52596-45.787911-31.831938-74.049855-31.831938-26.075949 0-50.703901 4.177992-74.029856 15.997969-6.713987 3.465993-14.699971 2.845994-20.835959-1.619997-6.113988-4.451991-9.137982-11.889977-7.891984-19.413962l29.703942-179.28765a19.879961 19.879961 0 0 1 19.677961-16.687967h149.945707c10.997979 0 19.945961 8.947983 19.945961 19.945961s-8.947983 19.945961-19.945961 19.945961h-120.345765a14.961971 14.961971 0 0 0-14.759971 12.513976l-15.55597 93.891816a14.959971 14.959971 0 0 0 16.967967 17.241966c10.929979-1.631997 23.071955-2.425995 37.121928-2.425995 38.741924 0 76.275851 16.129968 102.979799 44.257914 27.081947 28.525944 40.87392 65.913871 38.829924 105.277794-1.475997 28.465944-11.761977 56.10989-29.125943 78.701846-26.707948 34.751932-68.807866 55.775891-112.67578 55.775891-70.457862 0-130.923744-52.543897-140.647725-122.223761-2.331995-16.709967 18.331964-28.833944 31.773937-18.681963a19.829961 19.829961 0 0 1 7.737985 13.165974c7.037986 50.417902 50.335902 87.847828 101.177803 87.843828 0.685999 0 1.377997-0.006 2.065996-0.02 53.235896-1.073998 97.09781-43.519915 99.853805-96.631811 1.473997-28.321945-8.441984-55.221892-27.917946-75.735852zM338.608339 642.876744c-123.723758 176.775655-140.621725 199.81161-141.251724 200.671608-11.287978 15.22197-13.005975 35.195931-4.485992 52.123899 8.521983 16.927967 25.58795 27.443946 44.541913 27.443946h203.369603c27.497946 0 49.865903-22.369956 49.865903-49.867903 0-27.495946-22.369956-49.865903-49.865903-49.865902h-106.949791a54808.100953 54808.100953 0 0 0 62.145879-88.557827 14.957971 14.957971 0 0 0-3.669993-20.83596 14.959971 14.959971 0 0 0-20.83396 3.667993 47432.467358 47432.467358 0 0 1-78.697846 112.063781 14.959971 14.959971 0 0 0 12.225976 23.581954h135.779735c10.997979 0 19.945961 8.947983 19.945961 19.945961s-8.947983 19.945961-19.945961 19.945961H237.412536c-7.581985 0-14.339972-4.241992-17.815965-10.975978-8.033984-15.56397 13.423974-37.073928 22.171957-49.431904a14888.590921 14888.590921 0 0 0 19.047963-26.973947c9.307982-13.205974 18.603964-26.419948 27.891945-39.639922 12.793975-18.209964 85.079834-122.035762 87.22783-125.511755 11.673977-18.893963 22.329956-39.807922 26.227949-61.847879 1.657997-9.377982 1.757997-19.033963-0.476-28.325945a81.185841 81.185841 0 0 0-5.163989-14.909971 83.463837 83.463837 0 0 0-17.959965-25.235951c-15.18197-14.607971-35.71193-23.121955-56.817889-23.121955-39.181923 0-73.091857 27.849946-80.629843 66.221871a19.807961 19.807961 0 0 1-8.449983 12.711975 19.815961 19.815961 0 0 1-14.965971 3.013994c-10.793979-2.119996-17.849965-12.623975-15.729969-23.417954 11.201978-57.031889 61.57388-98.425808 119.775766-98.425808 37.249927 0 73.041857 17.521966 96.039812 46.801909 13.709973 17.455966 22.899955 41.02592 25.70995 62.861877 4.755991 37.005928-14.537972 73.139857-33.181935 103.759797a14.959971 14.959971 0 1 0 25.55595 15.55797c9.243982-15.17997 17.513966-31.001939 24.145953-47.503907 7.409986-18.435964 13.713973-39.415923 13.713973-59.415884 0-83.803836-68.179867-151.985703-151.985703-151.985703-72.463858 0-135.183736 51.551899-149.135709 122.57976-5.29799 26.981947 12.341976 53.245896 39.321923 58.543886 13.067974 2.569995 26.355949-0.108 37.411927-7.535985 11.057978-7.425985 18.563964-18.713963 21.129959-31.783938 4.787991-24.375952 26.351949-42.067918 51.2719-42.067918 27.613946 0 50.793901 22.149957 52.185898 49.599903l-1.153998 9.021982c-4.88199 19.123963-16.373968 41.697919-34.167933 67.119869z" p-id="6086"></path></svg>