<?xml version="1.0" encoding="utf-8"?>
<!-- Generator: Adobe Illustrator 25.2.3, SVG Export Plug-In . SVG Version: 6.00 Build 0)  -->
<svg version="1.1" id="_6" xmlns="http://www.w3.org/2000/svg" xmlns:xlink="http://www.w3.org/1999/xlink" x="0px" y="0px"
	 viewBox="0 0 1024 1024" style="enable-background:new 0 0 1024 1024;" xml:space="preserve">
<style type="text/css">
	.st0{fill:#FEFDFD;}
	.st1{fill:#D8D4E0;}
	.st2{fill:#FCF0AA;}
	.st3{fill:#887B9F;}
	.st4{fill:#FCF1AD;}
	.st5{fill:#FCF1AC;}
	.st6{fill:#83769C;}
</style>
<g>
	<path class="st0" d="M389.2,594c1.2-0.1,2.5,0,3.8-0.3c10.8-2.5,21.9-3.8,32.7-6.1c24.3-5.2,49.1-7.8,72.9-15.3
		c9.9-3.1,20.5-3.1,30.2-7.3c7.5-3.3,15.9-3.8,23.8-6.2c8.6-2.6,17.4-5.8,26.4-7c4.8-0.7,8.9-4,13.4-4.5c8.3-1.1,15.3-5.5,23.5-6.9
		c3.6-0.6,7.8-2.2,11.5-3.7c4.6-1.9,9.5-2.9,13.8-5.1c5.3-2.7,11-4.3,16.5-6c5-1.5,10.1-3.4,14.6-5.5c11.9-5.6,24.4-9.7,35.9-16.1
		c7.4-4.2,15.8-6.6,22.6-11.9c2.2-1.7,3-3.3,2.6-6.2c-2-15.4-6.4-30.3-10.4-45.2c-2.9-10.7-7.7-20.4-16-28.7
		c-7.9-7.9-13.5-17.9-21.1-26.2c-8-8.7-17-16.3-26.1-23.8c-10.1-8.3-21.9-13.7-33.4-19.8c-8.4-4.5-17.4-7.8-26.3-10.8
		c-9.6-3.2-19.3-6.8-29.5-8.1c-8.4-1-16.7-3.7-25-4c-10.6-0.3-21.1-1.2-31.8-0.5c-10.5,0.6-21,1-31.4,2.4c-9,1.2-18.3,2.2-26.7,5.4
		c-10.1,3.9-20.5,6.7-30.4,10.8c-6,2.5-12,5.2-17.7,8.4c-5.6,3.1-11.1,6.1-16.5,9.6c-7,4.5-14.7,8.3-20.8,13.9
		c-5.4,4.9-11.3,9-16.6,14c-7.5,7.2-14.8,14.5-21.1,22.6c-9.5,12.4-17.7,25.7-24.7,39.9c-4.7,9.7-8.7,19.6-11.3,29.7
		c-3.2,12.3-6.4,24.8-6,37.9c0.2,7.4-0.2,15,0.4,22.4c0.1,1.8,1.1,3.4,0.7,5.4c-1.6,9.1,0.9,18,3.9,26.2c2.8,7.7,3.8,15.9,7.4,23.2
		c1.9,3.8,2.5,9.7,7.6,9.9c4.5,0.1,9.1,2,13.8-0.4c1.9-1,4.6-1.1,6.8-0.9c10.6,1.1,20.8-2.2,31.3-2.3
		C371.5,596.9,379.9,592.5,389.2,594z M729.9,552.1c-0.3-2.8,0.1-6-2.6-7.7c-2.8-1.7-4.9,0.6-7,2.2c-0.6,0.5-1.5,0.9-2.3,1
		c-8.3,1.6-15.1,6.8-23,9.3c-4.2,1.3-8.1,4-12.3,4.6c-6.2,1-11.4,4.2-17.2,6.1c-3.8,1.2-7.8,2.3-11.6,3.8
		c-7.4,2.8-14.5,6.5-22.6,7.5c-1.3,0.2-2.9,0.2-3.8,1c-6.2,5.2-14.5,5.5-21.5,7.2c-10.3,2.6-20.1,7.8-30.9,8
		c-5.6,0.1-9.6,4.1-14.9,4.8c-5.2,0.7-10.4,2.3-15.6,2.7c-6.3,0.5-11.3,4.3-17.3,5.3c-14.3,2.5-28.6,5.2-43,7.9
		c-13.4,2.4-26.8,4.4-40,7.3c-8.4,1.9-16.9,2.2-25.4,2.8c-9.7,0.7-19,3.7-29,3.8c-8.9,0.1-18.3,1.1-27.3,2.7
		c-7.3,1.3-14.7,0.5-22.1,1c-2.6,0.2-5.6-1.3-7.2,1.3c-1.6,2.5,0.3,5,1.9,7.2c5.9,8.3,13.9,14.6,21.6,20.9
		c12.4,10.3,26.1,19.1,40.5,26.4c14.9,7.6,31.1,12.3,47.3,16.6c12.4,3.3,25,5.3,37.9,5.9c3.4,0.2,6.7,0.8,10.3,0.6
		c3.8-0.2,7.9-0.5,11.7,0c6.6,0.9,13.1,0.1,19.5-0.6c11.8-1.3,23.5-4.3,35.3-5.9c9.7-1.3,18.6-4.9,27.8-7.5
		c4.2-1.2,8.7-2.3,12.5-4.3c6.1-3.2,12.6-5.7,18.7-9c9.5-5.2,18.9-10.4,28.1-16.2c9.1-5.8,16.9-13.2,24.9-20.2
		c6.8-5.9,13.2-12.4,18.8-19.5c4.2-5.4,7.3-11.4,11.5-16.8c4.3-5.4,8.7-11.1,11.8-17.3c5.8-11.9,10.7-24.2,15.1-36.7
		C729.4,556.4,730.3,554.4,729.9,552.1z M195.1,448.9c0.1,1.8-0.4,3.9,1.8,4.8c2,0.8,3.4-0.5,4.8-1.7c4-3.2,8.5-5.3,13.2-7.2
		c3-1.2,4.9-0.3,5.9,2.5c2.7,7.1,7.9,12.7,10.6,19.8c1,2.7,3.6,3.2,6.3,2.8c1.5-0.2,2.6-1.4,2-2.8c-2.6-7-0.2-14.4-1.7-21.5
		c-1.5-6.8,3.5-11.4,10.3-10.4c6.7,1,13.4,1.7,20.2-0.1c1.5-0.4,3-0.4,3.4-2.3c0.3-1.7,0.2-3.4-1.3-4.5c-3.7-2.8-6.4-6.7-9.8-9.7
		c-4.3-3.7-5.9-7.4-4.3-13.2c1-3.6,2.4-7.5,0.9-11.7c-1.4-4.1-2.9-4.8-6.2-2.2c-5.7,4.5-12.2,7.9-17.9,12.3c-6.5,5-9.7,4.1-15.1-2.2
		c-3-3.5-6.4-6.6-9.9-9.5c-2.4-2-6-0.8-5.7,1.8c1,7.6,1.2,15.6,4.7,22.7c2.1,4.2,2.7,8.4,2.8,12.8c0,1-0.2,1.9-1.2,2.5
		c-5.1,2.9-8.3,7.8-12.2,12C195.4,445.4,194.9,447,195.1,448.9z M725.9,262.8c0-4.9-2.7-6.7-6.6-4.8c-2.1,1-4.2,2.1-6,3.5
		c-3.1,2.5-5,1.6-7.4-1.3c-4.8-5.9-10-11.5-15.1-17.2c-1.1-1.2-2.4-1-3.7-0.8c-1.3,0.2-2.3,1.3-2,2.5c2,6-0.7,12.1,1.2,18.1
		c2.5,8.1,4.1,16.2-5.7,21c-0.3,0.1-0.5,0.5-0.7,0.7c-2.2,1.9-2.7,4.3-1.6,6.8c1.2,2.7,3.4,0.8,5.2,0.8c3.5,0,7.9-1.7,9,3.5
		c1.4,6.5,5.3,12.3,5.4,19.2c0,1.4,0.3,3.4,2.1,3.5c1.5,0.2,3.4-0.3,4.4-1.8c3.2-4.8,6.7-9.5,9.3-14.6c3.1-5.9,6.6-7.7,12.7-6.6
		c2.5,0.5,5.2,1.2,7.9,0.9c4.8-0.6,6.2-3.8,3.4-7.8c-0.8-1.1-1.8-2-2.5-3.1C731.1,278.2,721.8,272.9,725.9,262.8z"/>
	<path class="st1" d="M814.4,459c0.8,0,1.7,0,2.5,0.1c0,2.7,0,5.3,0,8c-0.6,0-1.1,0.1-1.7,0.1C814.9,464.4,814.7,461.7,814.4,459z"
		/>
	<path class="st2" d="M389.2,594c-9.3-1.5-17.7,2.9-26.6,3c-10.5,0.1-20.7,3.3-31.3,2.3c-2.2-0.2-4.9-0.1-6.8,0.9
		c-4.6,2.4-9.3,0.5-13.8,0.4c-5.1-0.2-5.8-6.1-7.6-9.9c-3.6-7.3-4.6-15.5-7.4-23.2c-3-8.2-5.5-17-3.9-26.2c0.3-1.9-0.6-3.6-0.7-5.4
		c-0.6-7.5-0.2-15-0.4-22.4c-0.4-13.1,2.8-25.6,6-37.9c2.6-10.1,6.6-20.1,11.3-29.7c7-14.2,15.1-27.5,24.7-39.9
		c6.3-8.1,13.6-15.5,21.1-22.6c5.3-5.1,11.2-9.1,16.6-14c6.1-5.6,13.8-9.4,20.8-13.9c5.4-3.4,10.9-6.5,16.5-9.6
		c5.7-3.2,11.7-5.8,17.7-8.4c9.9-4.2,20.4-6.9,30.4-10.8c8.4-3.2,17.7-4.2,26.7-5.4c10.4-1.4,20.9-1.7,31.4-2.4
		c10.6-0.6,21.2,0.2,31.8,0.5c8.4,0.3,16.7,3,25,4c10.3,1.2,19.9,4.9,29.5,8.1c8.9,3,17.9,6.3,26.3,10.8
		c11.4,6.1,23.3,11.6,33.4,19.8c9.1,7.4,18.1,15,26.1,23.8c7.6,8.3,13.2,18.3,21.1,26.2c8.3,8.3,13.1,18,16,28.7
		c4,14.9,8.4,29.7,10.4,45.2c0.4,3-0.4,4.5-2.6,6.2c-6.8,5.3-15.2,7.7-22.6,11.9c-11.5,6.4-24,10.5-35.9,16.1
		c-4.4,2.1-9.6,3.9-14.6,5.5c-5.5,1.7-11.2,3.3-16.5,6c-4.3,2.2-9.3,3.2-13.8,5.1c-3.7,1.5-7.8,3-11.5,3.7
		c-8.2,1.4-15.2,5.8-23.5,6.9c-4.5,0.6-8.5,3.9-13.4,4.5c-9.1,1.3-17.8,4.4-26.4,7c-7.9,2.4-16.4,2.9-23.8,6.2
		c-9.8,4.2-20.4,4.2-30.2,7.3c-23.8,7.6-48.7,10.1-72.9,15.3c-10.8,2.3-21.9,3.6-32.7,6.1C391.7,594,390.4,594,389.2,594z"/>
	<path class="st2" d="M729.9,552.1c0.3,2.3-0.6,4.3-1.3,6.3c-4.4,12.5-9.3,24.8-15.1,36.7c-3,6.2-7.4,11.8-11.8,17.3
		c-4.2,5.4-7.3,11.4-11.5,16.8c-5.6,7.2-12,13.6-18.8,19.5c-8.1,7-15.8,14.4-24.9,20.2c-9.1,5.8-18.6,11-28.1,16.2
		c-6.1,3.3-12.6,5.8-18.7,9c-3.8,2-8.3,3.1-12.5,4.3c-9.2,2.6-18.2,6.2-27.8,7.5c-11.8,1.5-23.4,4.6-35.3,5.9
		c-6.4,0.7-12.9,1.5-19.5,0.6c-3.8-0.5-7.9-0.2-11.7,0c-3.6,0.2-6.8-0.4-10.3-0.6c-12.8-0.6-25.5-2.6-37.9-5.9
		c-16.2-4.3-32.4-9-47.3-16.6c-14.3-7.3-28.1-16.1-40.5-26.4c-7.6-6.3-15.7-12.6-21.6-20.9c-1.6-2.2-3.5-4.7-1.9-7.2
		c1.6-2.6,4.6-1.1,7.2-1.3c7.4-0.5,14.8,0.3,22.1-1c9-1.6,18.4-2.6,27.3-2.7c10-0.1,19.3-3.2,29-3.8c8.5-0.6,16.9-0.9,25.4-2.8
		c13.2-3,26.7-4.9,40-7.3c14.3-2.6,28.6-5.4,43-7.9c6-1,11.1-4.8,17.3-5.3c5.2-0.4,10.4-2,15.6-2.7c5.3-0.7,9.2-4.8,14.9-4.8
		c10.8-0.1,20.6-5.4,30.9-8c7-1.7,15.3-2,21.5-7.2c0.9-0.8,2.5-0.8,3.8-1c8-1,15.2-4.7,22.6-7.5c3.8-1.5,7.8-2.6,11.6-3.8
		c5.8-1.8,11-5,17.2-6.1c4.1-0.7,8-3.3,12.3-4.6c7.9-2.5,14.7-7.7,23-9.3c0.8-0.2,1.6-0.5,2.3-1c2.1-1.7,4.3-3.9,7-2.2
		C730.1,546.1,729.7,549.3,729.9,552.1z"/>
	<path class="st3" d="M814.4,459c0.3,2.7,0.5,5.4,0.8,8.2c-1.2,1.1-1,2.6-1,4c-2.8,1.9-4.3,4.7-5.3,7.9c-1.3,1.4-2.1,3.2-3.9,4
		c-1.4,0-2,0.6-2,2c-0.2,0.2-0.2,0.4-0.3,0.7c-1.5,0.8-3.5,1.1-3.8,3.3c-0.9,1.5-3.6,0.7-4,2.9c-2.6,0.2-4.3,1.5-5.1,3.9
		c-0.6,0.4-1.1,0.9-1.7,1.3c-1.2-0.1-2,0.4-2.3,1.5c0,0-0.1,0.1-0.1,0.1c-1.5,0.7-3.5,0.9-3.8,3.1c0,0,0,0,0,0
		c-1.9,1.2-4.7,0.6-5.9,3.1c-0.6,0.4-1.2,0.9-1.8,1.3c-1.9,1.4-4.8,1.4-6.1,3.7c-0.6,0.4-1.3,0.9-1.9,1.3c-1.4-0.2-2.8-0.5-3.3,1.4
		c0,0-0.1,0.1,0,0.1c-1.8,1.3-4.6,0.8-5.8,3.2c-6.4,4.8-13.3,8.4-21,11.2c-6,2.2-11.8,5.4-17.9,7.7c-4.8,1.8-9.5,4.2-14.2,6.2
		c-4.2,1.8-8.8,2.7-13,5.3c-3.7,2.2-8.3,3.7-12.6,5c-2.8,0.9-5.6,2.4-8.1,2.9c-5.8,1-10.5,4.4-16.1,5.6c-6.6,1.4-13,4.3-19.4,6.6
		c-0.8,0.3-1.5,0.9-2.2,1c-8.8,0.8-16.7,4.8-25,7.2c-8.6,2.5-17.6,3.7-25.9,7.7c-4.9,2.4-11,2.2-16.5,3.6
		c-9.5,2.4-18.7,6.1-28.6,7.1c-4.1,0.4-8.3,1.1-12.2,2.4c-26.9,8.6-54.9,12.3-82.7,16.5c-13.5,2-27,5.2-40.6,5.5
		c-7.7,0.2-15.2,3.2-22.5,2.4c-8.5-0.9-16.6,3.3-25,1c-0.5-0.1-1-0.1-1.5,0c-6.7,2.6-13.7,1.3-20.5,1.6c-6.8,0.3-13.8,0.5-20.6,0.8
		c-6.8,0.3-13.3-0.6-19.9-0.8c-9-0.3-18-1.5-26.9-2.7c-8.4-1.2-16.9-2.4-25.1-5.2c-7.3-2.5-15.3-4-19.9-11.1
		c-3.7-5.7-5.7-11.7-2.5-18.8c2.2-5,4.5-9.5,9.1-12.5c3.8-2.6,5.4-1.8,6.3,2.5c0.6,2.7,0.7,5.1-0.3,7.8c-2.1,5.7,2.7,14.4,8,17.4
		c10.3,5.8,21.7,7.4,33,9.2c6.4,1,13.2-0.4,19.4,1.1c4.7,1.1,9.2-1.6,13.6,0.9c0.4,0.2,1,0.3,1.5,0.2c10.1-2.9,20.6-0.5,30.8-2
		c10.2-1.5,20.5-2.5,30.6-3.1c14.7-0.8,28.7-5.8,43.1-6.1c17.3-0.4,33.6-5.4,50.5-7.6c5.1-0.7,9-4.2,14.4-4.7
		c10.5-1,21.2-2.8,31.3-5.7c10.5-3,21.3-4.9,31.6-8.1c6.9-2.1,14.5-2.5,20.8-5.6c7.4-3.7,16.3-2.5,23-7.8c0.2-0.2,0.6-0.3,1-0.3
		c9-0.2,17-4.4,25.2-7.2c5.6-1.9,12.1-2.1,17.3-6c3.1-2.3,7.7-2.9,11.4-4c5.4-1.5,10.3-4.1,15.7-5.6c5-1.4,10-3.9,14.9-5.7
		c4.6-1.6,8.6-4.8,13.6-5.3c3.6-0.4,6.8-2.6,9.8-4.2c5.5-2.8,11.4-4.8,16.8-8.1c4.7-2.8,10.3-4.5,15.4-7c8.2-4,16.4-8,23.7-13.9
		c5.5-4.5,12.1-7.7,17.4-12.9c6.2-6,11.7-11.9,13.3-20.8c0.7-3.6-1.6-9.9-5.3-12.7c-0.8-0.6-1.6-1.2-2.5-1.7
		c-3.4-1.7-3.7-5.1-2.8-7.7c0.8-2.3,4.2-1.9,6.7-1.8c4.9,0.2,9.4,2.5,14.2,3.3c3.4,3.2,8.3,2.5,12.1,4.9c1.2,0.8,2.3,1.8,3.9,1.6
		c1.3,0.9,2.5,1.9,3.8,2.8c0,0.3,0.1,0.5,0.3,0.7c0,1.3,0.7,2,2,1.9c0.2,0.2,0.4,0.3,0.7,0.3c0.4,1.2,1.2,2.2,2.3,2.7
		C814.1,455.7,814.3,457.3,814.4,459z"/>
	<path class="st4" d="M195.1,448.9c-0.2-1.9,0.3-3.5,1.6-5c3.8-4.2,7.1-9.1,12.2-12c1-0.6,1.3-1.5,1.2-2.5c0-4.5-0.7-8.6-2.8-12.8
		c-3.5-7-3.7-15-4.7-22.7c-0.3-2.6,3.2-3.9,5.7-1.8c3.5,2.9,6.9,6.1,9.9,9.5c5.4,6.3,8.6,7.3,15.1,2.2c5.7-4.5,12.2-7.9,17.9-12.3
		c3.4-2.6,4.8-1.8,6.2,2.2c1.5,4.1,0.1,8.1-0.9,11.7c-1.6,5.8,0,9.5,4.3,13.2c3.4,3,6.1,6.9,9.8,9.7c1.5,1.1,1.7,2.8,1.3,4.5
		c-0.4,1.9-1.9,1.9-3.4,2.3c-6.7,1.8-13.5,1.2-20.2,0.1c-6.9-1-11.8,3.5-10.3,10.4c1.6,7.1-0.9,14.5,1.7,21.5c0.5,1.4-0.5,2.6-2,2.8
		c-2.7,0.4-5.3-0.1-6.3-2.8c-2.6-7.1-7.9-12.7-10.6-19.8c-1-2.7-2.9-3.7-5.9-2.5c-4.7,1.9-9.3,4-13.2,7.2c-1.5,1.2-2.8,2.5-4.8,1.7
		C194.6,452.8,195.2,450.7,195.1,448.9z"/>
	<path class="st5" d="M725.9,262.8c-4.1,10.1,5.2,15.4,9.5,22.7c0.7,1.1,1.7,2,2.5,3.1c2.8,4,1.4,7.2-3.4,7.8
		c-2.7,0.3-5.4-0.4-7.9-0.9c-6.1-1.1-9.6,0.7-12.7,6.6c-2.6,5.1-6.1,9.8-9.3,14.6c-1,1.5-2.9,2-4.4,1.8c-1.8-0.2-2-2.1-2.1-3.5
		c-0.1-6.9-4-12.7-5.4-19.2c-1.1-5.2-5.6-3.5-9-3.5c-1.8,0-4.1,1.9-5.2-0.8c-1.1-2.5-0.6-4.9,1.6-6.8c0.3-0.2,0.4-0.6,0.7-0.7
		c9.8-4.9,8.2-13,5.7-21c-1.9-6,0.9-12.2-1.2-18.1c-0.4-1.1,0.6-2.2,2-2.5c1.3-0.2,2.6-0.5,3.7,0.8c5,5.7,10.3,11.3,15.1,17.2
		c2.4,2.9,4.3,3.8,7.4,1.3c1.8-1.4,3.9-2.5,6-3.5C723.2,256.1,725.9,257.8,725.9,262.8z"/>
	<path class="st1" d="M801,443.9c-3.7-2.4-8.7-1.7-12.1-4.9C793.3,439.8,798.5,438.6,801,443.9z"/>
	<path class="st1" d="M808.9,479c1-3.2,2.5-6,5.3-7.9C813.9,474.7,812,477.2,808.9,479z"/>
	<path class="st1" d="M767.9,510c1.4-2.4,4.2-2.3,6.1-3.7C773.9,510.5,770.7,509.9,767.9,510z"/>
	<path class="st1" d="M789.7,495.8c0.8-2.5,2.6-3.8,5.1-3.9C794.1,494.5,792.3,495.6,789.7,495.8z"/>
	<path class="st1" d="M756.9,516c1.2-2.4,4-1.9,5.8-3.2C762.6,517.2,759.2,515.6,756.9,516z"/>
	<path class="st1" d="M808.7,448.3c-1.3-0.9-2.5-1.9-3.8-2.8C807.3,444.2,807.9,444.6,808.7,448.3z"/>
	<path class="st1" d="M775.9,505c1.1-2.6,4-2,5.9-3.1C781.1,505.3,778.1,504.5,775.9,505z"/>
	<path class="st1" d="M798.9,489c0.3-2.2,2.3-2.4,3.8-3.3C803,488.7,801,488.9,798.9,489z"/>
	<path class="st1" d="M781.8,501.8c0.4-2.2,2.3-2.3,3.8-3.1C785.9,501.8,784,502,781.8,501.8z"/>
	<path class="st1" d="M814,454c-1.2-0.6-1.9-1.5-2.3-2.7C813.4,451.4,815.5,451.1,814,454z"/>
	<path class="st1" d="M762.7,512.7c0.5-1.9,1.9-1.6,3.3-1.4C765.5,513.1,764.1,513,762.7,512.7z"/>
	<path class="st1" d="M811,450.9c-1.3,0-2-0.6-2-1.9C810.2,449,810.9,449.6,811,450.9z"/>
	<path class="st1" d="M802.9,485c0-1.3,0.6-2,2-2C804.9,484.3,804.2,485,802.9,485z"/>
	<path class="st1" d="M785.7,498.7c0.4-1.1,1.1-1.6,2.3-1.5C787.8,498.5,787,499,785.7,498.7z"/>
</g>
<g>
	<path class="st6" d="M505.5,726c-36,0.4-70.5-6.5-103.3-21.4c-25.6-11.6-48.5-27.1-68.2-47.2c-3.8-3.9-7.9-7.8-10.8-12.4
		c-3.2-5.2-7.8-5.6-12.9-5.7c-27-0.2-53.9-1.7-79.6-11.2c-7.2-2.7-13.9-6.5-19.7-11.6c-10.4-9.1-13-22.8-6.9-36
		c5.5-11.9,14.6-20.5,24.7-28.4c14.2-11.2,29.6-20.4,45.7-28.4c3.8-1.9,5.4-4.1,5.5-8.4c0.6-29.9,9.5-57.5,23.4-83.8
		c10.9-20.5,25-38.6,41.7-54.5c16.3-15.5,34.5-28.6,54.6-39.2c13.5-7.1,27.2-13.6,41.8-17.4c23.6-6.3,47.4-11.9,72-13.1
		c31-1.5,61.2,2.4,90.6,12c28.1,9.2,53.8,22.9,76.3,42.4c14.8,12.8,28.7,26.7,38.6,43.6c5.6,9.5,11.6,13,22.7,13.1
		c18.1,0.1,36.2,2.6,53.6,8.1c10.5,3.4,20.7,7.5,28.5,15.8c8.4,8.9,10.5,21.7,5.4,32.9c-6.6,14.4-17.8,24.7-30.2,34
		c-15.1,11.3-31.4,20.6-48.2,29.1c-2.5,1.2-3.6,3.1-4.1,5.8c-4.8,23.2-12.9,45.2-25.2,65.4c-16.8,27.7-38.6,50.7-65.1,69.4
		c-26.9,19-56.4,32.1-88.2,40c-15.5,3.9-31.3,6.4-47.4,6.8C515.8,726.1,510.7,726,505.5,726z M295,524.3c0.7,9.8,1.2,20.6,3,31.3
		c2.3,13,6.7,25.4,11.6,37.6c1,2.5,2.3,4.9,5.7,4.7c11.1-0.7,22.3-1,33.3-2.2c17.3-1.9,34.6-4.3,51.9-6.6c19.5-2.6,38.8-6.1,58-10.3
		c11-2.4,22.1-4.9,33.1-7.4c9.6-2.1,19.1-4.3,28.6-6.7c15.5-3.9,30.9-8.1,46.2-12.5c22.8-6.4,45.3-13.5,67.6-21.3
		c14.8-5.1,29.3-10.9,43.8-16.7c16.7-6.7,32.8-14.6,48.8-22.9c3.6-1.9,4.4-4.2,3.5-8.1c-2.6-12.2-5.6-24.3-9.6-36.1
		c-2.9-8.6-6-17.2-11.2-24.4c-10.9-15.2-22-30.4-36.1-43.1c-15.4-13.8-32.4-25.1-51-33.8c-25.4-11.7-52.1-19.2-80.2-21
		c-30.4-2-60.4-0.8-89.7,9c-17.3,5.8-34.1,12.4-50,21.2c-15,8.4-29,18.4-41.7,30c-16.6,15.1-30.5,32.4-41.6,52.1
		C304,463.9,296.2,492.6,295,524.3z M506.8,709.9c6.6-0.6,13.2-1.3,19.8-1.8c28.3-1.9,55-9.4,80.7-21c24-10.8,45.6-25.3,64.6-43.6
		c14-13.5,25.8-28.7,35.6-45.5c8-13.8,14.2-28.2,18.3-43.6c0.3-1.1,1.1-2.4,0.1-3.3c-1.3-1.2-2.5,0.2-3.6,0.7
		c-25.6,10.8-51.5,20.6-78,29.3c-35.9,11.8-72.4,21.3-109.2,30c-22.3,5.3-44.9,9.2-67.5,13.3c-23.2,4.2-46.6,7.5-70,10.3
		c-17.5,2.1-35.1,2.8-52.7,4.2c-1.4,0.1-3.3-0.5-3.9,1.3c-0.5,1.4,1.1,2.3,2,3.2c9.3,10.1,19.8,18.8,31.1,26.6
		c18.4,12.9,38.5,22.5,60,29c11.8,3.6,23.7,6.7,36,8.1C482.3,708.6,494.5,709.7,506.8,709.9z M360.3,617.4c0,0.1,0,0.2,0,0.3
		c8.6-0.7,17.3-0.8,25.8-2.1c16.4-2.5,33-3.6,49.5-6.4c18.9-3.2,37.8-5.8,56.5-9.8c22.1-4.7,44.3-9.3,66.2-14.9
		c30-7.6,59.7-16.4,89.1-26.1c16.4-5.4,32.7-11.3,48.8-17.9c15.2-6.2,30.4-12.6,45.3-19.7c15.9-7.6,31-16.9,45.4-27.1
		c8-5.6,15.8-11.7,21.3-20.1c6.8-10.2,4.4-18.8-7-23.7c-5.7-2.5-11.4-4.7-17.4-6.1c-1.4-0.3-3.1-1.5-4.2-0.2
		c-1.2,1.4,0.5,2.8,1.2,3.9c6.1,9.7,4.6,19.3-1.9,27.5c-11.5,14.4-26.5,25.1-42.6,33.3c-13.9,7-28.1,13.7-42.5,19.8
		c-26.1,11-52.6,20.8-79.6,29.5c-18.5,6-37.1,11.6-56,16.6c-17.5,4.6-35,9.5-52.7,13.5c-14.9,3.3-29.7,7.4-44.8,10.1
		c-20.1,3.6-40.2,7.6-60.5,10.1c-21.8,2.7-43.6,6-65.5,6.9c-17.9,0.8-35.8,1.4-53.7,0.3c-10.5-0.6-20.9-2-30.9-5.1
		c-12.3-3.9-23.1-9.6-22.2-25.3c0.1-1-0.1-2.2-1.2-2.5c-1.1-0.3-1.7,0.7-2.4,1.4c-5.1,6-4.2,15,2,19.8c6.8,5.3,14.9,7.3,22.9,9.4
		c13.1,3.4,26.6,4.4,39.9,6.1c14.4,1.8,28.9,1.1,43.3,0.3C341.7,618.7,351,618,360.3,617.4z M283.7,597c1.5,0.1,3,0.1,4.5,0.2
		c4.9,0.3,5.5-0.5,3.9-5.3c-1-3-2.3-5.9-3.3-8.9c-2.6-8.3-4.8-16.6-6.5-25.1c-0.4-2-0.7-4.5-3.7-2.8c-11.3,6.7-22.4,13.9-30.9,24.2
		c-4,4.9-3.4,7.5,2.1,10.8c1.7,1,3.6,1.8,5.5,2.4C264.4,595.6,274,596.6,283.7,597z M764,460.5c0-3.7-2-5.4-4.9-6.6
		c-4.5-1.9-9.1-2.9-14-3.4c-3.2-0.4-4,0.6-3,3.5c2.2,6.5,3.7,13.1,4.8,19.8c0.5,2.7,1.8,3,3.8,1.8c5.1-3.2,9.3-7.5,12.6-12.6
		C763.8,462.2,763.8,461.1,764,460.5z"/>
	<path class="st6" d="M248.8,454.1c1.1,6.8,1.4,13.8,1.2,20.8c-0.1,2.5-0.2,5-0.7,7.4c-0.7,4.3-2.8,7.4-7.4,8.4
		c-4.6,1-7.8-1.4-10.2-4.8c-5.3-7.7-9.8-15.8-14-24.2c-3.1-6.3-3.7-6.4-9.6-2.7c-5.9,3.6-11.5,7.9-18.2,10.2c-3.7,1.3-7.4,1.4-10-2
		c-2.8-3.6-1.8-7.4,0.5-10.7c6.1-8.8,12.3-17.4,20.3-24.6c3-2.7,3.2-5.1,2.2-8.8c-3.5-12.3-7.7-24.4-10.3-37c-0.7-3.6-0.4-6.9,2.5-9
		c3.2-2.3,6.7-1.3,9.8,0.7c6.5,4.2,11.4,10.2,16.7,15.6c5,5.1,5.6,5.4,11.5,0.9c7.7-5.9,15.8-11.1,24-16.1
		c6.8-4.1,13.7-0.2,13.7,7.9c0.1,6.6-1.9,12.8-4.3,18.9c-1.6,4.2-0.9,6.8,2.7,9.8c6.3,5.1,12.4,10.6,16.9,17.6
		c4.7,7.3,1.2,14.4-7.5,14.6c-8.8,0.2-17.6,1.5-26.4,0.7C246.4,446.9,249.9,451.6,248.8,454.1z M206.5,397.1
		c2.8,10,5.1,18.6,7.6,27.3c1.7,6,2.8,11.6-5.1,14.1c-0.4,0.1-0.8,0.6-1.1,1c-1.2,1.7-4.1,3.7-2.8,5.3c1.7,2.2,3.7-0.8,5.3-1.8
		c6.2-4.2,11.9-3.1,15.6,3.4c1.9,3.5,4.3,6.7,5.4,10.7c0.5,1.7,1.5,4.4,3.2,3.8c2.3-0.7,1.3-3.4,0.9-5.3c-0.8-3.8-1.5-7.5-1.5-11.4
		c0-7.7,3.6-11.7,11.4-12.1c5-0.2,10,0,15,0c1.4,0,3.3,0.7,4.1-0.9c0.6-1.4-1.1-2.2-2-3.1c-6.9-7.4-13-15-8.1-26.1
		c0.4-0.9,0.3-2.1-0.5-2.8c-1.3-1.1-2.5-0.2-3.6,0.5c-5,3.3-10,6.6-15,9.9c-7.4,4.9-10.5,4.5-17-1.8
		C214.7,404.4,211.1,401.3,206.5,397.1z"/>
	<path class="st6" d="M743.6,308.9c-3.6-1-8.8-2.3-13.8-3.8c-6.4-1.9-7-1.5-9.5,4.8c-2.9,7.4-7.3,13.9-13.1,19.2
		c-6.6,6.1-14.9,3.4-17.2-5.3c-1.4-5.1-2.8-10.2-3.6-15.5c-0.8-5.3-1.8-5.6-6.4-3.1c-3.1,1.7-6.2,3.2-9.4,4.6
		c-3.6,1.5-7.4,1.9-10.1-1.3c-2.7-3.2-1.9-6.9,0.3-10.2c5.4-7.9,11.6-15,19-21.1c1.8-1.5,3.1-2.9,2.5-5.4
		c-2.3-9.9-1.7-20.2-3.5-30.1c-0.7-4.1,0.2-7.5,3.6-9.6c3.6-2.3,7.4-1.4,10.6,1.4c5.7,4.9,10.3,10.8,14.7,16.9c2.4,3.3,4,3,7.2,0.9
		c6.1-4,12.5-7.6,18.9-11c3.4-1.8,7.1-2.4,10.2,0.6c3.1,3.1,3.4,6.9,1,10.5c-2.6,3.9-5.2,7.7-8.3,11.2c-2.2,2.5-2.3,4.1-0.1,6.7
		c6.5,7.9,13.7,15.5,18.3,24.7C759.1,302.3,754.6,308.9,743.6,308.9z M721.3,263.8c-1.3,0.8-2.1,1.4-2.9,1.8
		c-6.9,3.7-10.4,3.1-15.7-2.6c-3.1-3.3-6-6.7-9.1-9.9c-0.6-0.7-1.4-1.7-2.5-1.1c-1.1,0.6-0.5,1.8-0.4,2.7c0.7,5.8,1.4,11.5,2,17.3
		c0.5,4.7,1.6,9.7-4,12.7c-2.3,1.2-2.2,2.8,0.8,3.3c5.3,0.9,7.9,4.4,8.8,9.5c0.7,3.6,1.7,7.1,2.6,10.7c0.3,1.2,0,2.9,1.8,3.1
		c1.6,0.2,2.3-1.2,3-2.3c1.7-2.7,3.1-5.6,5-8c3.6-4.6,6.9-9.7,14.2-9c3,0.3,7.8,2.2,8.7-0.1c1.1-2.8-2.9-5.8-4.9-8.6
		C724.5,277.5,720,272.1,721.3,263.8z"/>
	<path class="st6" d="M462,549c-16.8-1.1-32.9-4.5-47-14.4c-3.9-2.7-7-6.1-9.6-10c-1.9-2.8-2-5.7,0.5-8.2c2.5-2.4,4.5-0.4,6.6,1.1
		c28,20.3,58.2,20.7,89.1,8.4c13.5-5.3,23.8-15.6,33.9-25.9c1.7-1.8,3.5-3.6,5.6-4.9c2.5-1.6,5.4-1.8,7.9,0.4c2.3,2,2.5,4.6,1.5,7.3
		c-0.7,1.7-1.4,3.6-2.7,4.7c-11.9,10.1-22.1,22.2-36.3,29.4c-11.4,5.8-23.4,9.3-36,11C471,548.5,466.5,549.5,462,549z"/>
	<path class="st6" d="M412.9,461.2c0.2-8.9,1.3-16.3,3.2-23.6c0.5-1.9,1.3-3.9,2.5-5.4c4.2-5.1,9.4-9,16.3-8.1
		c6.5,0.9,10.8,5.6,12.7,11.5c5.3,16.2,4.3,31.9-6.4,45.8c-3.7,4.9-8.8,8.4-15.5,6.6c-6.8-1.8-9.8-6.9-10.8-13.5
		C414.2,469.7,412.4,464.9,412.9,461.2z M427,454.9c0.1,4.5,0.1,8.6,1,12.7c0.2,1,0.2,2.2,1.3,2.4c1.1,0.2,1.8-0.7,2.2-1.6
		c3.2-7.4,5.4-15,4-23.1c-0.3-1.9-0.6-4.5-3-4.7c-2.7-0.2-4,2.1-4.8,4.3C426.5,448.3,427.2,451.8,427,454.9z"/>
	<path class="st6" d="M490,439.2c-0.3-6-0.1-11.7,1.9-17.1c2.5-6.6,7.1-11.3,13.7-13.6c7-2.5,15,2.3,17.4,10.3
		c3.9,13.3,4.3,26.6-1.2,39.6c-3,7.2-8.1,10.8-15.2,10.7c-6.1-0.2-11.2-4.4-13.9-11.1C490.3,451.8,489.5,445.4,490,439.2z
		 M504.1,436.5c-0.2,4.3,0.2,9,1.9,13.6c0.3,0.8,0.6,1.7,1.5,1.7c0.5,0,1.2-0.6,1.4-1.1c2.6-7.6,4.8-15.2,1.5-23.1
		c-0.5-1.4-1-3.1-2.9-2.8c-2,0.3-3.2,1.7-3.3,3.8C503.9,430.9,504.1,433.4,504.1,436.5z"/>
	<path class="st6" d="M388.1,496.5c0.3,22.9-10.1,40.3-24.1,56c-1.6,1.8-3.6,3.2-6.1,1.6c-2.3-1.5-2.6-3.5-2.1-6.1
		c1.5-8.7,6.5-16,10.1-23.8c7.1-15.3,6.9-30.9,2.6-46.7c-1.1-3.9-3.7-7.4-6.7-10.4c-2.1-2.1-3.5-4.7-1.9-7.7c1.7-3.2,5-3.8,8.3-3.2
		c4.3,0.7,7.4,3.4,10,6.8C385.8,473.2,387.6,485,388.1,496.5z"/>
	<path class="st6" d="M559.1,451.3c1-8.9,2.3-19.6,9.4-28.3c2.3-2.8,4.8-5.8,9.3-4c3.6,1.5,5.2,4.1,3.3,7.5
		c-5.5,9.7-6.2,20.4-5.4,31c0.7,8.7,3.9,17.2,9,24.6c3.7,5.4,7.6,10.5,11.3,15.9c1.2,1.7,2.7,3.8,1,5.9c-1.8,2.2-4.3,2.3-6.9,1.5
		c-4.4-1.3-7.8-4.4-11.2-7.3C565,486.3,559.4,470.8,559.1,451.3z"/>
	<path class="st6" d="M321.9,540.1c-5.9,0-10.9-8.4-8.1-13.6c0.1-0.1,0.1-0.3,0.2-0.4c1.6-2.3,3.7-3.3,6.5-2.1
		c3.9,1.6,7.3,8.2,6.4,12.6C326.5,539.1,325.1,540.1,321.9,540.1z"/>
	<path class="st6" d="M612,478.2c0,2.7-0.7,5.1-4,5.2c-4,0.2-10-6.8-9.7-11.2c0.3-3.4,2.4-5,5.7-5
		C608.1,467.1,612.1,472.7,612,478.2z"/>
	<path class="st6" d="M324.9,487.7c-0.4,2.5-0.9,5.7-4.8,5.8c-3.2,0.1-8-5.3-8-9.1c0-3.6,1.1-6.7,5.3-7.2
		C321.5,476.7,324.7,481.1,324.9,487.7z"/>
	<path class="st6" d="M341,479.1c0.3,3.5-1.6,5.6-5.4,5.8c-3.9,0.2-7.6-4-7.6-8.3c0.1-3.9,2-6.3,6-6.5
		C337.9,469.9,340.9,473.8,341,479.1z"/>
	<path class="st6" d="M606,415.4c0.4-3,1.6-5.5,5.5-5.3c3.7,0.1,8.3,5.9,8,10.1c-0.2,3-2.1,4.4-4.9,4.5
		C611,424.8,605.9,419.3,606,415.4z"/>
	<path class="st6" d="M601,429.7c-0.2,2.6-0.7,5.7-4.7,5.9c-3.4,0.2-7.3-4.7-7.3-8.8c0-3.6,1.5-6.2,5.4-6.5
		C598.1,419.9,601.1,424.1,601,429.7z"/>
	<path class="st6" d="M314.1,513c0,3-0.1,5.9-4.2,6c-3.7,0.1-7.9-4.7-7.6-8.9c0.2-3.3,1.9-5.7,5.5-5.9
		C311.9,503.9,314.2,507.2,314.1,513z"/>
	<path class="st6" d="M357.9,472.6c0,3.2-1.6,5-4.7,5.1c-3.6,0.1-7.9-4.4-7.8-8.3c0.1-3.8,2.4-5.7,5.9-6
		C354.6,463.3,357.8,467.8,357.9,472.6z"/>
	<path class="st6" d="M356,499.7c-0.2,2.5-1.3,4.8-4.7,4.9c-3.4,0.2-8-3.9-7.8-7.1c0.2-3.2,2-5.3,5.4-5.3
		C352.6,492.2,356,495.6,356,499.7z"/>
	<path class="st6" d="M640.1,466.8c-3.4,0.1-8.6-4.6-8.5-7.6c0.1-3.1,1.9-4.9,5-5c2.9-0.1,7.8,5,7.8,8
		C644.5,465.2,642.4,466.3,640.1,466.8z"/>
	<path class="st6" d="M633.3,428.1c4.2-0.1,6.7,3.1,6.7,8.1c0,2.6-0.6,4.7-3.8,4.7c-3.4,0-7.9-4.1-7.8-7.3
		C628.6,430.3,630.4,428.4,633.3,428.1z"/>
	<path class="st6" d="M643,410.8c0.2,2.6-0.8,4.2-3.9,4.2c-3.8,0.1-7-2.6-7.1-6.1c-0.1-2.9,0.8-5.4,4.2-5.6
		C639.7,403.1,642.9,406.7,643,410.8z"/>
	<path class="st6" d="M595.3,459.6c0.1,2.4-1,3.2-3.1,3c-3.6-0.2-8.1-4-8.1-7.1c0.1-2.8,1.5-4.8,4.4-5.1
		C591.8,450.2,595.4,455.4,595.3,459.6z"/>
	<path class="st6" d="M341.9,523c-0.3,2.2-1.1,4.3-4.1,4.4c-2.8,0.1-6.8-4.2-6.6-7.1c0.2-2.8,1.6-4.7,4.6-5
		C338.7,515.1,342,519.1,341.9,523z"/>
	<path class="st6" d="M360.1,513.2c-0.2,3.1-1.2,5.1-4.4,5.2c-3.3,0.1-6.7-3.2-6.4-6.3c0.3-3.1,2.2-5,5.2-4.9
		C358.4,507.3,359.8,510,360.1,513.2z"/>
	<path class="st6" d="M620.3,469.8c-3.7-0.4-5.9-2.3-6.1-6c-0.2-3.1,1.7-4.9,4.8-5.2c2.4-0.2,6.6,4.4,6.6,7.2
		C625.5,469.3,622.5,469.2,620.3,469.8z"/>
	<path class="st6" d="M627.6,478.3c3.2,0,6.2,3.6,6,7c-0.1,2.5-1.3,4.3-4,3.9c-3.5-0.5-6.4-2.1-6.5-6.2
		C623,479.9,625,478.6,627.6,478.3z"/>
	<path class="st6" d="M618.6,440.5c-0.5,2.6-1.3,4.8-4.2,5.1c-2.8,0.3-7.1-3.8-7-6.7c0.1-3,2.4-4.1,4.7-4.1
		C615.9,434.7,617.4,437.6,618.6,440.5z"/>
	<path class="st6" d="M334,504.7c0,3.8-1.9,5.2-5,5.2c-3.2,0-5-1.7-4.9-4.9c0.1-3.1,1.6-5.7,5-5.6
		C332.5,499.5,333.8,502.1,334,504.7z"/>
</g>
</svg>
