<?xml version="1.0" encoding="utf-8"?>
<!-- Generator: Adobe Illustrator 23.1.0, SVG Export Plug-In . SVG Version: 6.00 Build 0)  -->
<svg version="1.1" id="图层_1" xmlns="http://www.w3.org/2000/svg" xmlns:xlink="http://www.w3.org/1999/xlink" x="0px" y="0px"
	 viewBox="0 0 750 1334" style="enable-background:new 0 0 750 1334;" xml:space="preserve">
<style type="text/css">
	.st0{fill:none;stroke:#B9DEC8;stroke-width:9.9995;stroke-miterlimit:9.9995;}
	.st1{fill:#ED7965;stroke:#FBEDB7;stroke-miterlimit:10;}
	.st2{fill:#BBE3F9;stroke:#335BA9;stroke-miterlimit:10;}
	.st3{fill:#BBE3F9;stroke:#58BDAB;stroke-miterlimit:10;}
	.st4{fill:none;stroke:#A691C3;stroke-width:6;stroke-miterlimit:10;}
	.st5{fill:none;stroke:#B9DEC8;stroke-width:10;stroke-miterlimit:10;}
</style>
<g id="图层_6">
	
		<ellipse transform="matrix(0.9719 -0.2352 0.2352 0.9719 -101.4286 105.7084)" class="st0" cx="392.4" cy="478" rx="282.1" ry="74.6"/>
</g>
<g id="图层_7">
	<path class="st1" d="M219.9,417l13.3,5.9c0,0-24.4,79.9,18.1,141.4l-10.6,5.2C240.7,569.5,189.1,510.5,219.9,417z"/>
	<path class="st1" d="M552.6,512.2l-13.8-4.5c0,0,16.2-81.9-32.4-138.8l10-6.3C516.3,362.6,573.7,416,552.6,512.2z"/>
	<path class="st1" d="M389.1,321.6l-0.6,14.5c0,0-83.2,6.6-124.8,68.8l-8.8-7.9C254.9,397,290.7,327.4,389.1,321.6z"/>
	<path class="st1" d="M435.5,644.4l-0.4-14.5c0,0,82.6-12.1,120-76.9l9.3,7.3C564.4,560.3,533.2,632.1,435.5,644.4z"/>
	<path class="st1" d="M484.9,577.2l-4.5-12c0,0,40.6,2.2,41.3-45.7l7.1,7.4C528.7,526.8,533.5,581.4,484.9,577.2z"/>
	<path class="st1" d="M466.2,290.9l-8.4,9.7c0,0-17.4-36.7-59.8-14.6l3.1-9.8C401.1,276.2,446.8,246.1,466.2,290.9z"/>
	<path class="st1" d="M293.9,610.6l10-8c0,0,10.6,39.2,56.3,24.9l-4.8,9.1C355.4,636.5,305,658.1,293.9,610.6z"/>
	<path class="st1" d="M262.4,335.3l7.4,11.3c0,0-41,5.4-30.2,54l-8.9-6.1C230.8,394.5,212.9,340.1,262.4,335.3z"/>
	<path class="st1" d="M581.3,411.2l-14.4,1.7c0,0-19.5-81.2-87.4-112.6l6.5-9.9C486,290.4,560.3,315,581.3,411.2z"/>
	<path class="st1" d="M253.9,544.6c3.3,4.6,66.1,121.8,216,62.8c0,0-5.9-15-5.2-19.6c0.6-4.6-117.8,55-198.3-48.4L253.9,544.6z"/>
	<path class="st1" d="M504.6,344.1c-4.2-3.8-90.1-105.2-224.4-16.3c0,0,8.9,13.5,9.2,18.1c0.3,4.6,103.7-78.4,204.1,5.9L504.6,344.1
		z"/>
</g>
<g id="图层_4">
	<polygon class="st2" points="400,403.4 369.4,424.9 366.1,387.7 	"/>
	<polygon class="st2" points="369.3,423.7 338.8,445.2 335.5,408 	"/>
	<polygon class="st2" points="404.1,440.1 373.5,461.6 370.2,424.4 	"/>
	<polygon class="st2" points="383.2,470.1 352.6,491.6 349.3,454.5 	"/>
	<polygon class="st2" points="416.4,457.7 385.8,479.1 382.5,442 	"/>
	<polygon class="st2" points="438.5,455.4 408,476.9 404.7,439.7 	"/>
	<polygon class="st2" points="441.8,495.9 411.3,517.4 407.9,480.2 	"/>
	<polygon class="st2" points="412.9,488.9 382.4,510.3 379,473.2 	"/>
	<polygon class="st2" points="376.4,500.3 345.8,521.8 342.5,484.6 	"/>
	<polygon class="st2" points="343.5,484.6 313,506.1 309.6,468.9 	"/>
	<polygon class="st2" points="341.1,444.4 310.5,465.9 307.2,428.7 	"/>
	<polygon class="st2" points="338.9,407.6 308.4,429.1 305.1,391.9 	"/>
	<polygon class="st2" points="308.7,430.6 278.1,452.1 274.8,414.9 	"/>
	<polygon class="st2" points="324.5,502.2 294,523.7 290.7,486.5 	"/>
	<polygon class="st3" points="391.9,515.5 361.4,537 358.1,499.8 	"/>
	<polygon class="st2" points="407.5,536.7 377,558.1 373.6,521 	"/>
	<polygon class="st2" points="437.3,537.6 406.8,559.1 403.4,521.9 	"/>
	<polygon class="st2" points="447.3,533 411.3,523.3 437.7,496.9 	"/>
	<polygon class="st2" points="487.3,495 456.8,516.5 453.4,479.3 	"/>
	<polygon class="st2" points="505.7,473.7 475.2,495.2 471.9,458 	"/>
	<polygon class="st2" points="432.7,381.9 402.2,403.4 398.9,366.2 	"/>
	<polygon class="st2" points="366.3,386.5 335.8,408 332.4,370.8 	"/>
	<polygon class="st2" points="367,443.6 335.7,464.7 333.1,427.9 	"/>
	<polygon class="st2" points="362.2,536.7 331.7,558.1 328.3,521 	"/>
	<polygon class="st2" points="333.1,515.4 309.4,544.1 296.4,509.1 	"/>
	<polygon class="st2" points="334.4,539.2 303.9,560.7 300.5,523.5 	"/>
	<polygon class="st2" points="370.9,557.4 340.4,578.9 337.1,541.7 	"/>
	<polygon class="st2" points="351.3,512.6 320.8,534.1 317.5,496.9 	"/>
	<polygon class="st2" points="389.1,557.5 351.8,557.5 370.5,525.2 	"/>
	<polygon class="st2" points="419.5,562.7 382.2,562.7 400.9,530.3 	"/>
	<polygon class="st2" points="386.6,497.8 349.2,497.8 367.9,465.5 	"/>
	<polygon class="st2" points="420.7,529.3 383.3,529.3 402,497 	"/>
	<polygon class="st2" points="422.6,485 385.3,485 403.9,452.7 	"/>
	<polygon class="st2" points="434.5,450.5 397.1,450.5 415.8,418.1 	"/>
	<polygon class="st2" points="439,412.4 401.7,412.4 420.3,380 	"/>
	<polygon class="st2" points="409.6,397.1 372.3,397.1 390.9,364.8 	"/>
	<polygon class="st2" points="386.6,391.7 349.2,391.7 367.9,359.4 	"/>
	<polygon class="st2" points="338.3,400 300.9,400 319.6,367.7 	"/>
	<polygon class="st2" points="312.9,421.5 275.5,421.5 294.2,389.1 	"/>
	<polygon class="st2" points="307.3,465.2 270,465.2 288.7,432.9 	"/>
	<polygon class="st2" points="300,502.7 262.7,502.7 281.3,470.4 	"/>
	<polygon class="st2" points="307.3,527.6 270,527.6 288.7,495.3 	"/>
	<polygon class="st2" points="502.2,448.7 464.9,448.7 483.6,416.4 	"/>
	<polygon class="st2" points="478.7,465.5 441.4,465.5 460.1,433.2 	"/>
	<polygon class="st2" points="470.5,426.9 433.1,426.9 451.8,394.5 	"/>
	<polygon class="st2" points="480,405.4 442.7,405.4 461.4,373.1 	"/>
	<polygon class="st2" points="457.7,394.6 420.3,394.6 439,362.3 	"/>
	<polygon class="st2" points="473.9,530.7 436.5,530.7 455.2,498.4 	"/>
	<polygon class="st2" points="304,447.3 304,484.6 271.7,465.9 	"/>
	<polygon class="st2" points="465.4,434.2 434.9,455.6 431.5,418.5 	"/>
	<polygon class="st2" points="460.8,398.3 433.1,419.4 432.2,381 	"/>
	<polygon class="st2" points="483,415.5 466.3,435.7 462.9,398.5 	"/>
	<polygon class="st2" points="490.4,452.1 470.8,472.6 467.5,435.4 	"/>
	<polygon class="st2" points="461.3,473.2 441.6,493.7 438.3,456.5 	"/>
	<polygon class="st2" points="454.6,477 424.1,498.4 420.7,461.3 	"/>
	<polygon class="st2" points="464,541.7 433.5,563.1 430.1,526 	"/>
	<polygon class="st2" points="493.2,509 462.6,530.4 459.3,493.3 	"/>
	<polygon class="st2" points="444.4,550.3 418.5,577.2 408.1,541.4 	"/>
	<polygon class="st2" points="404.1,558.2 378.3,585.2 367.9,549.3 	"/>
	<polygon class="st2" points="372.1,516.3 346.3,543.2 335.9,507.4 	"/>
	<polygon class="st2" points="357.2,490.3 331.3,517.2 320.9,481.4 	"/>
	<polygon class="st2" points="358.4,462 332.6,489 322.2,453.1 	"/>
	<polygon class="st2" points="331.1,459.4 305.3,486.4 294.8,450.5 	"/>
	<polygon class="st2" points="416.8,363.9 391,390.8 380.6,355 	"/>
	<polygon class="st2" points="379.8,448.3 354,475.3 343.6,439.4 	"/>
	<polygon class="st2" points="302.9,434.8 277.1,461.7 266.7,425.9 	"/>
	<polygon class="st2" points="393.8,469.9 368,496.8 357.6,461 	"/>
	<polygon class="st2" points="461.5,554.9 429.2,573.6 429.2,536.2 	"/>
	<polygon class="st2" points="402.8,456.4 377,483.4 366.6,447.5 	"/>
	<polygon class="st2" points="412.1,484.3 386.3,511.3 375.8,475.5 	"/>
	<polygon class="st2" points="396.8,491.1 371,518 360.6,482.2 	"/>
	<polygon class="st2" points="432.6,488.9 396.8,478.3 423.9,452.6 	"/>
	<polygon class="st2" points="414.1,584.2 378.3,573.6 405.3,547.9 	"/>
	<polygon class="st2" points="340.4,569.7 304.6,559.2 331.6,533.4 	"/>
	<polygon class="st2" points="419.8,519 385.4,504.6 415.1,482 	"/>
	<polygon class="st2" points="450.9,535 415,524.5 442.1,498.7 	"/>
	<polygon class="st2" points="475.5,505.4 439.7,494.9 466.7,469.2 	"/>
	<polygon class="st2" points="406.3,456.4 370.5,445.9 397.5,420.1 	"/>
	<polygon class="st2" points="383.6,448.5 353.1,437.5 383.6,416 	"/>
	<polygon class="st2" points="338.5,440.8 304.6,425.1 335.2,403.6 	"/>
	<polygon class="st2" points="449.6,424.3 420,447 415.2,410 	"/>
	<polygon class="st2" points="470.8,465.2 433.5,468.2 449.6,434.5 	"/>
	<polygon class="st2" points="509.9,476.4 472.6,479.3 488.7,445.6 	"/>
	<polygon class="st2" points="371,418.5 333.8,421.5 349.9,387.8 	"/>
	<polygon class="st2" points="377.9,380.1 347,400.9 344.3,363.7 	"/>
	<polygon class="st2" points="398.9,373.6 368,394.5 365.4,357.3 	"/>
	<polygon class="st2" points="437.3,370.9 406.4,391.8 403.8,354.5 	"/>
	<polygon class="st2" points="507.9,407.6 477,428.5 474.4,391.2 	"/>
	<polygon class="st2" points="506.4,431 475.5,451.9 472.9,414.7 	"/>
	<polygon class="st2" points="503.7,487 482.6,517.8 466.5,484.1 	"/>
	<polygon class="st2" points="327.1,437 306,467.8 289.9,434.1 	"/>
	<polygon class="st2" points="299.9,463.1 278.8,493.8 262.7,460.1 	"/>
	<polygon class="st2" points="304.2,442.9 283.1,473.7 267,440 	"/>
	<polygon class="st2" points="476.5,521.5 455.3,552.2 439.3,518.5 	"/>
	<polygon class="st2" points="495.7,524.5 464.8,545.3 462.1,508.1 	"/>
	<polygon class="st2" points="361.2,363.6 340,394.4 324,360.7 	"/>
	<polygon class="st2" points="303.4,505.5 282.2,536.2 266.2,502.5 	"/>
	<polygon class="st2" points="433.1,419.4 402.6,440.9 399.3,403.7 	"/>
	<polygon class="st2" points="414.8,421.4 384.3,442.9 380.9,405.7 	"/>
	<polygon class="st2" points="398.5,436.8 368,458.3 364.6,421.1 	"/>
	<polygon class="st2" points="409.2,453.1 378.7,474.5 375.3,437.4 	"/>
	<polygon class="st2" points="424,455.5 393.5,477 390.1,439.8 	"/>
</g>
<g id="图层_8">
	<path class="st4" d="M400.8,405.4"/>
	<path class="st4" d="M531.8,380.8"/>
	<path class="st5" d="M242,447.6c0,0-272.3,110.5-46.5,147.2c131.6,21.4,536.6-74.5,468.4-189.5"/>
</g>
</svg>
