<svg viewBox="0 0 600 600" xmlns="http://www.w3.org/2000/svg"><defs><style>.cls-1{fill:#010101;}.cls-2{fill:#947eff;}.cls-3{fill:#9176f5;}.cls-4{fill:#ff008d;}.cls-5{fill:#dfff80;}.cls-6{fill:none;}</style></defs><g id="图层_2"><g id="图层_1-2"><path d="M550.15,355.64a57,57,0,0,0-9.15-12.1c-10.63-11.07-23-19.86-35.89-28.05-24.92-15.85-51.29-29-78.27-40.88-2.67-1.17-4.26-2.36-4.62-5.21a35.09,35.09,0,0,0-1-3.68,140.13,140.13,0,0,0-40.4-69.8c-26.92-25.49-59.08-39-96.18-39.41-36.1-.37-67.67,12-94.16,36.68-2.88,2.67-5.51,3.72-9.32,2.92-8.07-1.68-16.18-3.14-24.29-4.57a504.85,504.85,0,0,0-72.75-7.81c-10.29-.35-28.66.65-37.85,3-5.56,1.41-11,3.13-15.84,6.26-9.37,6-12.21,15.22-8.15,25.6a43,43,0,0,0,6.83,11.36,105.39,105.39,0,0,0,15.54,15.35,283.54,283.54,0,0,0,35.27,24.17,580.39,580.39,0,0,0,62.59,32c4,1.76,5.44,4.13,6,8.46,6.34,46.19,29.14,82.22,69.22,106,42.15,25,86.32,27.16,131.07,6.58,17.84-8.21,32.82-20.36,45.28-35.54,2.23-2.71,4.27-3.72,8.06-2.94,10.55,2.17,21.22,3.72,31.87,5.35,23.24,3.54,46.57,5.69,70.12,5.06A128.16,128.16,0,0,0,525.9,392a62.81,62.81,0,0,0,13.55-4.28C553.71,381.2,557.59,369.27,550.15,355.64ZM151.49,274.3c-1.84,1.54-3.3.48-4.67,0-17.35-6.14-33.93-13.85-49.25-24.13A96.23,96.23,0,0,1,80.13,235.6a31.85,31.85,0,0,1-7-11.15c-1.43-4.15-.34-7.5,2.75-10.26a24.42,24.42,0,0,1,10.12-5,92,92,0,0,1,28.21-2.86,227.3,227.3,0,0,1,50.51,7.85c1.72.47,3.75.44,5.46,2.49A144.53,144.53,0,0,0,151.49,274.3Zm357,90.82a59.38,59.38,0,0,1-16.55,4.13c-9.14,1-18.29,1.89-27.52,1.57a474.9,474.9,0,0,1-47.35-4.05c-2.4-.32-5-.4-7.27-2.16.5-1.14.9-2.34,1.51-3.43a135.81,135.81,0,0,0,17.12-56.86c.27-3.7,1.39-4.46,4.84-3.12,22.5,8.7,44.42,18.58,64.34,32.39,5.76,4,11.18,8.4,15.48,14C519.5,355.86,518.15,361.05,508.49,365.12Z" class="cls-1"></path><path d="M65.81,236.24A72.24,72.24,0,0,1,42.09,217.3a38.66,38.66,0,0,1-5.12-8c-2.71-5.7-1.46-9.75,3.89-12.87a33.55,33.55,0,0,1,7.85-3.26,71.86,71.86,0,0,1,15.82-2.91,353.31,353.31,0,0,1,55,1.38c18.57,2,36.95,5.07,55.32,8.29a15.3,15.3,0,0,1,3.59,1.06c.46.2,1,1.1.91,1.43a4.48,4.48,0,0,1-1.57,2.21c-1.52.94-3,0-4.54-.41A293.12,293.12,0,0,0,138.93,197c-15.7-2.16-31.42-3.89-47.25-1-5.94,1.09-11.74,2.5-17.14,5.29-12.82,6.64-16.63,16.8-11.17,30C64.07,233,65,234.58,65.81,236.24Z" class="cls-2"></path><path d="M515.34,375.11c2.26-1.66,4.65-3.18,6.75-5,6.44-5.65,8.09-12.42,5.26-20.58a35.29,35.29,0,0,0-8.2-12.64,117.45,117.45,0,0,0-24.63-19.24c-16.27-9.89-33.49-17.82-51.16-24.84-4.12-1.64-8.21-3.33-12.3-5a3.94,3.94,0,0,1-2.6-3.6c-.1-1.29,1.08-2.75,2.17-2.45a23.24,23.24,0,0,1,3.54,1.25c24.39,11.37,48.42,23.41,71,38.13a212.28,212.28,0,0,1,24.34,18.16c5.24,4.61,10.17,9.55,13.6,15.73,4.53,8.17,3.07,12.62-5.55,16.49C530.55,374.64,523,375.53,515.34,375.11Z" class="cls-3"></path><path d="M417.05,291.65c0,26.16-6.18,47.79-18.19,67.84-1.69,2.84-3.51,3.6-6.91,3.26-14.92-1.46-29.25-5.58-43.64-9.25a1246.38,1246.38,0,0,1-172.09-57.2c-3.21-1.34-6.34-2.9-9.59-4.16-2.81-1.08-3.66-3-3.67-5.88a121.16,121.16,0,0,1,7.59-42.81,124,124,0,0,1,17.73-32.4,45.57,45.57,0,0,1,4.16-5.1,12,12,0,0,1,4-2.65,5,5,0,0,0,2.65-2.57c2-5.44,6.62-8.44,10.83-11.69,26.52-20.51,56.44-29,89.92-25.91,54.13,5,107.29,47.86,116.39,114.19C417,283,416.89,288.7,417.05,291.65Z" class="cls-4"></path><path d="M386.29,375.92c-2.85,4.53-6.93,8.09-10.93,11.59a124.23,124.23,0,0,1-64.73,29.79c-50.7,7.61-105.77-18.16-132.5-68.58a122.69,122.69,0,0,1-13.42-40.43c-.45-3.17.55-3.91,3.68-2.66,10.6,4.23,21.14,8.61,31.78,12.75a1227.51,1227.51,0,0,0,180,54.71,40,40,0,0,1,4.57,1.23C385.26,374.5,385.6,375.17,386.29,375.92Z" class="cls-4"></path><path d="M302.15,175.14s109.21,66.76,70.91,162l26.39-16.56S412.39,223.27,302.15,175.14Z" class="cls-5"></path><rect height="600" width="600" class="cls-6"></rect></g></g></svg>