<svg xml:space="preserve" style="enable-background:new 0 0 250 250;" viewBox="0 0 250 250" y="0px" x="0px" xmlns:xlink="http://www.w3.org/1999/xlink" xmlns="http://www.w3.org/2000/svg" id="图层_1" version="1.1">
<style type="text/css">
	.st0{fill:#FFFFFF;stroke:#000000;stroke-width:3;stroke-linecap:round;stroke-linejoin:round;stroke-miterlimit:10;}
	.st1{fill:#B3A2EA;}
	.st2{fill:#FFFFFF;}
</style>
<g>
	<circle r="100" cy="126" cx="125.6" class="st0"></circle>
	<g>
		<g>
			<g>
				<g>
					<g>
						<circle r="55.7" cy="126.6" cx="125.6" class="st1"></circle>
					</g>
				</g>
			</g>
		</g>
		<g>
			<g>
				<g>
					<g>
						<path d="M189.4,126.5c-2.6-2.4-5.4-4.7-8.5-7c0.1,1,0.2,2,0.3,3.1c2.4,1.8,4.6,3.7,6.7,5.6
							c11.9,10.8,17.1,21.2,14.2,28.5c-2.9,7.3-13.7,11.4-29.8,11.2c-16.7-0.2-37.2-4.8-57.8-12.9c-20.6-8.1-38.8-18.7-51.1-30
							c-11.9-10.8-17.1-21.2-14.2-28.5c2.8-7.1,13.3-11.2,28.8-11.2c0.4,0,0.7,0,1.1,0c2.8,0,5.7,0.2,8.7,0.5c0.8-0.7,1.5-1.4,2.3-2
							c-3.8-0.4-7.5-0.6-11-0.7c-17.3-0.2-28.7,4.3-32,12.6c-3.3,8.3,2,19.3,14.8,31c12.6,11.4,31,22.2,51.8,30.4
							c20.8,8.2,41.7,12.8,58.6,13c0.4,0,0.8,0,1.1,0c16.7,0,27.6-4.5,30.8-12.6C207.5,149.1,202.2,138.1,189.4,126.5z" class="st2"></path>
					</g>
				</g>
			</g>
			<g>
				<g>
					<g>
						<path d="M173.4,170.2c-0.4,0-0.8,0-1.1,0c-17-0.2-37.8-4.8-58.7-13c-20.9-8.2-39.3-19-51.8-30.4
							C48.8,115.1,43.6,104,46.9,95.6c3.3-8.4,14.7-12.9,32.1-12.7c3.5,0,7.2,0.3,11,0.7l0.3,0L90,83.8c-0.8,0.6-1.5,1.3-2.3,2l0,0
							l-0.1,0c-3-0.3-5.9-0.4-8.7-0.5c-16-0.2-26.9,3.9-29.7,11.1c-2.8,7.2,2.3,17.6,14.2,28.4c12.4,11.2,30.5,21.9,51.1,29.9
							c20.6,8.1,41.1,12.7,57.8,12.9c16,0.2,26.9-3.9,29.7-11.1c2.8-7.2-2.3-17.6-14.2-28.4c-2-1.8-4.3-3.7-6.7-5.6l0,0l0-0.1
							c-0.1-1-0.2-2.1-0.3-3.1l0-0.3l0.2,0.2c3.1,2.3,6,4.7,8.5,7c12.9,11.7,18.2,22.8,14.9,31.1
							C201.1,165.7,190.1,170.2,173.4,170.2z M77.8,83.2c-16.7,0-27.6,4.4-30.7,12.5c-3.3,8.3,2,19.2,14.8,30.9
							c12.6,11.4,30.9,22.2,51.8,30.4c20.8,8.2,41.6,12.8,58.6,13c17.3,0.2,28.6-4.3,31.8-12.5c3.3-8.3-2-19.2-14.8-30.9
							c-2.5-2.3-5.3-4.5-8.3-6.8c0.1,0.9,0.2,1.8,0.3,2.7c2.4,1.8,4.6,3.7,6.6,5.6c12,10.9,17.2,21.3,14.3,28.6
							c-2.8,7.2-13.3,11.3-28.9,11.3c-0.4,0-0.7,0-1.1,0c-16.7-0.2-37.3-4.8-57.9-12.9c-20.6-8.1-38.8-18.8-51.2-30
							c-12-10.9-17.2-21.3-14.3-28.6c2.8-7.2,13.3-11.3,28.9-11.3c0.4,0,0.7,0,1.1,0c2.7,0,5.6,0.2,8.7,0.5c0.7-0.6,1.4-1.2,2-1.8
							c-3.7-0.4-7.3-0.6-10.7-0.7C78.6,83.2,78.2,83.2,77.8,83.2z"></path>
					</g>
				</g>
			</g>
		</g>
		<g>
			<g>
				<g>
					<g>
						<circle r="12.3" cy="119.8" cx="163" class="st2"></circle>
					</g>
				</g>
			</g>
			<g>
				<g>
					<g>
						<path d="M163,132.2c-6.9,0-12.4-5.6-12.4-12.4s5.6-12.4,12.4-12.4c6.9,0,12.4,5.6,12.4,12.4S169.9,132.2,163,132.2z
							 M163,107.6c-6.7,0-12.2,5.5-12.2,12.2c0,6.7,5.5,12.2,12.2,12.2s12.2-5.5,12.2-12.2C175.2,113.1,169.7,107.6,163,107.6z"></path>
					</g>
				</g>
			</g>
		</g>
		<g>
			<g>
				<g>
					<g>
						<circle r="6.8" cy="76.6" cx="96.7" class="st2"></circle>
					</g>
				</g>
			</g>
			<g>
				<g>
					<g>
						<path d="M96.7,83.5c-3.8,0-6.9-3.1-6.9-6.9c0-3.8,3.1-6.9,6.9-6.9s6.9,3.1,6.9,6.9C103.6,80.4,100.5,83.5,96.7,83.5z M96.7,70
							c-3.7,0-6.7,3-6.7,6.7s3,6.7,6.7,6.7s6.7-3,6.7-6.7S100.4,70,96.7,70z"></path>
					</g>
				</g>
			</g>
		</g>
		<g>
			<g>
				<g>
					<g>
						<circle r="9.8" cy="156.4" cx="119.3" class="st2"></circle>
					</g>
				</g>
			</g>
			<g>
				<g>
					<g>
						<path d="M119.3,166.4c-5.5,0-9.9-4.4-9.9-9.9c0-5.5,4.4-9.9,9.9-9.9s9.9,4.4,9.9,9.9C129.2,161.9,124.8,166.4,119.3,166.4z
							 M119.3,146.8c-5.3,0-9.7,4.3-9.7,9.7c0,5.3,4.3,9.7,9.7,9.7c5.3,0,9.7-4.3,9.7-9.7C129,151.1,124.7,146.8,119.3,146.8z"></path>
					</g>
				</g>
			</g>
		</g>
	</g>
</g>
</svg>
