<svg xmlns="http://www.w3.org/2000/svg" xmlns:xlink="http://www.w3.org/1999/xlink" viewBox="0 0 782.63 768.68"><defs><style>.cls-1{fill:none;}.cls-2{clip-path:url(#clip-path);}.cls-3{fill:#e5e52e;}.cls-4{fill:#e4e42e;}.cls-5{fill:#e4e32f;}.cls-6{fill:#e3e22f;}.cls-7{fill:#e2e12f;}.cls-8{fill:#e2e030;}.cls-9{fill:#e1df30;}.cls-10{fill:#e0de30;}.cls-11{fill:#e0dd31;}.cls-12{fill:#dfdc31;}.cls-13{fill:#dedb31;}.cls-14{fill:#deda32;}.cls-15{fill:#ddd932;}.cls-16{fill:#dcd832;}.cls-17{fill:#dcd733;}.cls-18{fill:#dbd633;}.cls-19{fill:#dad533;}.cls-20{fill:#dad434;}.cls-21{fill:#d9d334;}.cls-22{fill:#d8d135;}.cls-23{fill:#d8d035;}.cls-24{fill:#d7cf35;}.cls-25{fill:#d7ce36;}.cls-26{fill:#d6cd36;}.cls-27{fill:#d5cc36;}.cls-28{fill:#d5cb37;}.cls-29{fill:#d4ca37;}.cls-30{fill:#d3c937;}.cls-31{fill:#d3c838;}.cls-32{fill:#d2c738;}.cls-33{fill:#d1c638;}.cls-34{fill:#d1c539;}.cls-35{fill:#d0c439;}.cls-36{fill:#cfc339;}.cls-37{fill:#cfc23a;}.cls-38{fill:#cec13a;}.cls-39{fill:#cdc03a;}.cls-40{fill:#cdbf3b;}.cls-41{fill:#ccbe3b;}.cls-42{fill:#1a1b23;}.cls-43{fill:#fff;}.cls-44{clip-path:url(#clip-path-2);}.cls-45{fill:#fefefe;}.cls-46{fill:#fdfdfd;}.cls-47{fill:#fcfcfc;}.cls-48{fill:#fbfbfb;}.cls-49{fill:#fafafa;}.cls-50{fill:#f9f9f9;}.cls-51{fill:#f8f8f8;}.cls-52{fill:#f7f7f7;}.cls-53{fill:#f6f6f6;}.cls-54{fill:#f5f5f5;}.cls-55{fill:#f4f4f4;}.cls-56{fill:#f2f2f2;}.cls-57{fill:#f1f1f1;}.cls-58{fill:#f0f0f0;}.cls-59{fill:#efefef;}.cls-60{fill:#eee;}.cls-61{fill:#ededed;}.cls-62{fill:#ececec;}.cls-63{fill:#ebebeb;}.cls-64{fill:#eaeaea;}.cls-65{fill:#e9e9e9;}.cls-66{fill:#e8e8e8;}.cls-67{fill:#e7e7e7;}.cls-68{fill:#e6e6e6;}.cls-69{opacity:0.5;}.cls-70{fill:#969693;}.cls-71{fill:#afafaa;}.cls-72{fill:#db3a3a;}.cls-73{fill:#9b9b9b;}.cls-74{clip-path:url(#clip-path-3);}</style><clipPath id="clip-path"><path class="cls-1" d="M613.87,427.68c0,132.82-107.68,240.5-240.5,240.5s-240.5-107.68-240.5-240.5c0-110.48,74.5-203.56,176-231.75a242.1,242.1,0,0,1,129,0C539.37,224.12,613.87,317.2,613.87,427.68Z"/></clipPath><clipPath id="clip-path-2"><path class="cls-1" d="M373.37,651.18A223.53,223.53,0,0,1,196.26,291.32a223.45,223.45,0,0,1,354.21,0,223.52,223.52,0,0,1-177.1,359.86Z"/></clipPath><clipPath id="clip-path-3"><path class="cls-1" d="M227.55,749.36h0a13.77,13.77,0,0,0,5.5,5.49h0a13.86,13.86,0,0,0-5.5,5.5h0a13.77,13.77,0,0,0-5.49-5.5h0A13.69,13.69,0,0,0,227.55,749.36Z"/></clipPath></defs><g id="图层_2" data-name="图层 2"><g id="图层_2-2" data-name="图层 2"><g class="cls-2"><path class="cls-3" d="M132.87,187.18v0Z"/><rect class="cls-3" x="132.87" y="187.18" width="12.33" height="481"/><rect class="cls-4" x="145.2" y="187.18" width="12.33" height="481"/><rect class="cls-5" x="157.53" y="187.18" width="12.33" height="481"/><rect class="cls-6" x="169.87" y="187.18" width="12.33" height="481"/><rect class="cls-7" x="182.2" y="187.18" width="12.33" height="481"/><rect class="cls-8" x="194.53" y="187.18" width="12.33" height="481"/><rect class="cls-9" x="206.87" y="187.18" width="12.33" height="481"/><rect class="cls-10" x="219.2" y="187.18" width="12.33" height="481"/><rect class="cls-11" x="231.53" y="187.18" width="12.33" height="481"/><rect class="cls-12" x="243.87" y="187.18" width="12.33" height="481"/><rect class="cls-13" x="256.2" y="187.18" width="12.33" height="481"/><rect class="cls-14" x="268.53" y="187.18" width="12.33" height="481"/><rect class="cls-15" x="280.87" y="187.18" width="12.33" height="481"/><rect class="cls-16" x="293.2" y="187.18" width="12.33" height="481"/><rect class="cls-17" x="305.53" y="187.18" width="12.33" height="481"/><rect class="cls-18" x="317.87" y="187.18" width="12.33" height="481"/><rect class="cls-19" x="330.2" y="187.18" width="12.33" height="481"/><rect class="cls-20" x="342.53" y="187.18" width="12.33" height="481"/><rect class="cls-21" x="354.87" y="187.18" width="12.33" height="481"/><rect class="cls-22" x="367.2" y="187.18" width="12.33" height="481"/><rect class="cls-23" x="379.53" y="187.18" width="12.33" height="481"/><rect class="cls-24" x="391.87" y="187.18" width="12.33" height="481"/><rect class="cls-25" x="404.2" y="187.18" width="12.33" height="481"/><rect class="cls-26" x="416.53" y="187.18" width="12.33" height="481"/><rect class="cls-27" x="428.87" y="187.18" width="12.33" height="481"/><rect class="cls-28" x="441.2" y="187.18" width="12.33" height="481"/><rect class="cls-29" x="453.53" y="187.18" width="12.33" height="481"/><rect class="cls-30" x="465.87" y="187.18" width="12.33" height="481"/><rect class="cls-31" x="478.2" y="187.18" width="12.33" height="481"/><rect class="cls-32" x="490.53" y="187.18" width="12.33" height="481"/><rect class="cls-33" x="502.87" y="187.18" width="12.33" height="481"/><rect class="cls-34" x="515.2" y="187.18" width="12.33" height="481"/><rect class="cls-35" x="527.53" y="187.18" width="12.33" height="481"/><rect class="cls-36" x="539.87" y="187.18" width="12.33" height="481"/><rect class="cls-37" x="552.2" y="187.18" width="12.33" height="481"/><rect class="cls-38" x="564.53" y="187.18" width="12.33" height="481"/><rect class="cls-39" x="576.87" y="187.18" width="12.33" height="481"/><rect class="cls-40" x="589.2" y="187.18" width="12.33" height="481"/><rect class="cls-41" x="601.53" y="187.18" width="12.33" height="481"/><path class="cls-41" d="M613.87,668.18v0Z"/></g><path class="cls-42" d="M373.37,677.18A249.51,249.51,0,0,1,175.68,275.45a249.4,249.4,0,0,1,395.37,0A249.51,249.51,0,0,1,373.37,677.18Zm0-481a230.9,230.9,0,0,0-183.44,90.26A231.5,231.5,0,1,0,604.87,427.68,229.24,229.24,0,0,0,556.8,286.44a230.9,230.9,0,0,0-183.43-90.26Z"/><path class="cls-43" d="M613.87,427.68c0,132.82-107.68,240.5-240.5,240.5s-240.5-107.68-240.5-240.5c0-110.48,74.5-203.56,176-231.75a242.1,242.1,0,0,1,129,0C539.37,224.12,613.87,317.2,613.87,427.68Z"/><path class="cls-42" d="M373.37,677.18A249.51,249.51,0,0,1,175.68,275.45a249.4,249.4,0,0,1,395.37,0A249.51,249.51,0,0,1,373.37,677.18Zm0-481a230.9,230.9,0,0,0-183.44,90.26A231.5,231.5,0,1,0,604.87,427.68,229.24,229.24,0,0,0,556.8,286.44a230.9,230.9,0,0,0-183.43-90.26Z"/><g class="cls-44"><polygon class="cls-43" points="596.87 361.45 386.3 204.18 596.87 204.18 596.87 361.45"/><polygon class="cls-43" points="596.87 380.5 360.79 204.18 386.3 204.18 596.87 361.45 596.87 380.5"/><polygon class="cls-45" points="596.87 399.55 335.28 204.18 360.79 204.18 596.87 380.5 596.87 399.55"/><polygon class="cls-46" points="596.87 418.61 309.77 204.18 335.28 204.18 596.87 399.55 596.87 418.61"/><polygon class="cls-47" points="596.87 437.66 284.26 204.18 309.77 204.18 596.87 418.61 596.87 437.66"/><polygon class="cls-48" points="596.87 456.71 258.75 204.18 284.26 204.18 596.87 437.66 596.87 456.71"/><polygon class="cls-49" points="596.87 475.76 249.07 216 257.9 204.18 258.75 204.18 596.87 456.71 596.87 475.76"/><polygon class="cls-50" points="596.87 494.82 239.94 228.23 249.07 216 596.87 475.76 596.87 494.82"/><polygon class="cls-51" points="596.87 513.87 230.8 240.46 239.94 228.23 596.87 494.82 596.87 513.87"/><polygon class="cls-52" points="596.87 515.71 588.61 526.76 221.67 252.69 230.8 240.46 596.87 513.87 596.87 515.71"/><rect class="cls-53" x="392.94" y="166.84" width="15.27" height="458" transform="translate(-156.28 479.91) rotate(-53.24)"/><rect class="cls-54" x="383.81" y="179.07" width="15.27" height="458" transform="translate(-169.75 477.5) rotate(-53.24)"/><rect class="cls-55" x="374.67" y="191.3" width="15.27" height="458" transform="translate(-183.21 475.09) rotate(-53.24)"/><rect class="cls-56" x="365.54" y="203.53" width="15.27" height="458" transform="translate(-196.68 472.68) rotate(-53.24)"/><rect class="cls-57" x="356.4" y="215.76" width="15.27" height="458" transform="translate(-210.15 470.28) rotate(-53.24)"/><rect class="cls-58" x="347.27" y="227.99" width="15.27" height="458" transform="translate(-223.62 467.87) rotate(-53.24)"/><rect class="cls-59" x="338.13" y="240.22" width="15.27" height="458" transform="translate(-237.08 465.46) rotate(-53.24)"/><polygon class="cls-60" points="524.67 612.37 515.53 624.61 149.87 351.49 149.87 348.83 157.72 338.31 524.67 612.37"/><polygon class="cls-61" points="515.53 624.61 506.4 636.84 149.87 370.54 149.87 351.49 515.53 624.61"/><polygon class="cls-62" points="506.4 636.84 497.27 649.07 149.87 389.6 149.87 370.54 506.4 636.84"/><polygon class="cls-63" points="497.27 649.07 495.69 651.18 474.58 651.18 149.87 408.65 149.87 389.6 497.27 649.07"/><polygon class="cls-64" points="449.07 651.18 149.87 427.7 149.87 408.65 474.58 651.18 449.07 651.18"/><polygon class="cls-65" points="423.56 651.18 149.87 446.76 149.87 427.7 449.07 651.18 423.56 651.18"/><polygon class="cls-66" points="398.05 651.18 149.87 465.81 149.87 446.76 423.56 651.18 398.05 651.18"/><polygon class="cls-67" points="372.54 651.18 149.87 484.86 149.87 465.81 398.05 651.18 372.54 651.18"/><polygon class="cls-68" points="347.03 651.18 149.87 503.92 149.87 484.86 372.54 651.18 347.03 651.18"/><polygon class="cls-68" points="149.87 503.92 347.03 651.18 149.87 651.18 149.87 503.92"/></g><g class="cls-69"><path class="cls-42" d="M218.85,371.37a2.52,2.52,0,0,1-2.34-3.39c12.24-32.26,38.05-52.3,67.36-52.3A63.21,63.21,0,0,1,304.15,319a2.5,2.5,0,0,1-1.61,4.74,58,58,0,0,0-18.67-3.07c-27.18,0-51.2,18.8-62.69,49.07A2.5,2.5,0,0,1,218.85,371.37Z"/></g><path class="cls-42" d="M287.94,475.89c-11.9,0-23.58-5.56-33.37-16-10.61-11.34-17.79-27.25-20.23-44.81s.14-34.82,7.25-48.62c7.54-14.61,19.23-23.7,32.92-25.61s27.42,3.66,38.65,15.67c10.61,11.34,17.79,27.25,20.23,44.81s-.14,34.82-7.25,48.62c-7.53,14.61-19.22,23.71-32.92,25.61A39,39,0,0,1,287.94,475.89Zm-8.16-121.43a23.44,23.44,0,0,0-3.34.23c-19.66,2.73-32.33,28.95-28.23,58.44,2,14.72,7.93,27.92,16.58,37.17,8,8.59,17.44,12.63,26.5,11.36s17-7.7,22.4-18.15c5.81-11.26,7.88-25.56,5.83-40.29h0C315.66,375.41,298.24,354.46,279.78,354.46Z"/><ellipse class="cls-70" cx="293.84" cy="407.3" rx="29.5" ry="43" transform="translate(-53.24 44.3) rotate(-7.91)"/><path class="cls-42" d="M296.88,453.59c-7.85,0-15.6-3.81-22.11-10.95-7.1-7.79-11.94-18.73-13.62-30.8-3.52-25.4,8.27-48.1,26.29-50.6s35.56,16.12,39.09,41.52h0c3.52,25.39-8.27,48.09-26.29,50.59A23.73,23.73,0,0,1,296.88,453.59ZM290.79,368a17.55,17.55,0,0,0-2.39.16c-14.19,2-23.31,21.13-20.31,42.7,1.48,10.69,5.69,20.29,11.86,27.05,5.83,6.4,12.69,9.42,19.32,8.5,14.2-2,23.32-21.13,20.32-42.7C316.76,383.36,304.14,368,290.79,368Z"/><g class="cls-69"><path class="cls-42" d="M526.28,371.37a2.5,2.5,0,0,1-2.33-1.62c-11.49-30.27-35.51-49.07-62.69-49.07a58,58,0,0,0-18.67,3.07A2.5,2.5,0,0,1,441,319a63.21,63.21,0,0,1,20.28-3.33c29.31,0,55.12,20,67.36,52.3a2.52,2.52,0,0,1-2.34,3.39Z"/></g><path class="cls-42" d="M457.19,475.89a39,39,0,0,1-5.28-.36c-13.7-1.9-25.39-11-32.92-25.61-7.11-13.8-9.69-31.07-7.25-48.62l6.93,1-6.93-1c2.44-17.56,9.62-33.47,20.23-44.81,11.23-12,24.95-17.56,38.65-15.67s25.38,11,32.92,25.61c7.11,13.8,9.69,31.07,7.25,48.62s-9.62,33.47-20.23,44.81C480.77,470.32,469.09,475.89,457.19,475.89Zm8.16-121.43c-18.47,0-35.88,21-39.74,48.76h0c-2.05,14.73,0,29,5.83,40.29,5.38,10.45,13.34,16.89,22.39,18.15s18.47-2.77,26.5-11.36c8.66-9.25,14.55-22.45,16.59-37.17s0-29-5.83-40.29c-5.38-10.45-13.34-16.89-22.4-18.15A23.44,23.44,0,0,0,465.35,354.46Z"/><ellipse class="cls-70" cx="451.29" cy="407.3" rx="43" ry="29.5" transform="translate(-14.22 798.26) rotate(-82.09)"/><path class="cls-42" d="M448.25,453.59a23.73,23.73,0,0,1-3.36-.24c-9-1.24-16.64-7.37-21.57-17.24-4.72-9.44-6.39-21.28-4.72-33.35h0c1.68-12.07,6.52-23,13.63-30.81,7.43-8.15,16.47-12,25.46-10.71s16.64,7.37,21.58,17.25c4.71,9.43,6.38,21.28,4.71,33.35s-6.52,23-13.62,30.8C463.84,449.78,456.1,453.59,448.25,453.59ZM454.37,368c-5.88,0-11.82,3-17,8.66-6.17,6.76-10.38,16.37-11.86,27.05h0c-1.49,10.68-.05,21.07,4,29.26,3.87,7.75,9.65,12.52,16.28,13.44s13.49-2.1,19.32-8.5c6.17-6.76,10.38-16.36,11.86-27.05s0-21.07-4-29.26c-3.87-7.74-9.65-12.52-16.28-13.44A16.77,16.77,0,0,0,454.37,368Z"/><g class="cls-69"><path class="cls-42" d="M372.67,535.18c-16.48,0-32.15-6.32-41.91-16.9a2.5,2.5,0,1,1,3.68-3.39c8.83,9.57,23.12,15.29,38.23,15.29s29.2-5.64,38-15.09a2.5,2.5,0,1,1,3.65,3.42C404.44,529.1,389.25,535.18,372.67,535.18Z"/></g><path class="cls-42" d="M249.54,591.08c-9,0-18.42-4.27-25.17-12.31a34.06,34.06,0,0,1-8.23-22.27,25.39,25.39,0,0,1,30.2-25.37,34,34,0,0,1,20.52,12h0c11.26,13.4,10.89,32.32-.82,42.16A25.38,25.38,0,0,1,249.54,591.08Zm-7.86-56.32a21.34,21.34,0,0,0-13.91,4.92,22,22,0,0,0-7.63,16.88,30,30,0,0,0,7.29,19.64c9.84,11.72,26,14.4,36,6s10.18-24.81.34-36.53a30,30,0,0,0-18.09-10.57A25.24,25.24,0,0,0,241.68,534.76Z"/><path class="cls-42" d="M243.17,588.38a20.46,20.46,0,0,1-4.4-.49A28.13,28.13,0,0,1,217.88,563c-.26-5.68,1.7-10.57,5.51-13.78a14.9,14.9,0,0,1,7-3.26c7.4-1.35,16,2.31,21.88,9.33s8,16.11,5.41,23.17a14.89,14.89,0,0,1-4.42,6.37A15.5,15.5,0,0,1,243.17,588.38Zm-9.57-38.69a13.29,13.29,0,0,0-2.45.22A11,11,0,0,0,226,552.3c-2.83,2.38-4.29,6.12-4.08,10.53A24.1,24.1,0,0,0,239.64,584c4.31,1,8.25.18,11.08-2.2a11,11,0,0,0,3.25-4.7c2.12-5.73.27-13.27-4.72-19.21h0C244.93,552.72,239,549.69,233.6,549.69Z"/><ellipse class="cls-70" cx="243.32" cy="562.86" rx="9.75" ry="19.48" transform="translate(-305.02 288.37) rotate(-40.03)"/><path class="cls-42" d="M253.08,580c-6.59,0-13.68-3.56-18.76-9.61-5.89-7-8-16.11-5.41-23.16l.4-1.07,1.12-.21c7.4-1.35,16,2.31,21.88,9.33h0c5.9,7,8,16.11,5.41,23.17l-.39,1.06-1.12.21A17.11,17.11,0,0,1,253.08,580Zm-20.77-30.27c-1.52,5.57.4,12.53,5.07,18.09s11.21,8.65,17,8.12c1.51-5.57-.41-12.53-5.08-18.09h0C244.58,552.31,238.05,549.22,232.31,549.75Z"/><path class="cls-42" d="M510.93,542.14a24.59,24.59,0,0,1-9.28-1.8,25.93,25.93,0,0,1-14.72-16.15,35.09,35.09,0,0,1,16.84-41.39,25.92,25.92,0,0,1,21.81-1.28c14.17,5.76,20.34,23.65,13.74,39.86C534.12,534.15,522.54,542.14,510.93,542.14Zm5.32-58.44a23.52,23.52,0,0,0-10.67,2.66,30,30,0,0,0-14,15.62h0a30,30,0,0,0-.9,20.93,22,22,0,0,0,12.44,13.72c12.13,4.93,26.69-2.58,32.45-16.75s.59-29.72-11.54-34.66A20.62,20.62,0,0,0,516.25,483.7Z"/><path class="cls-42" d="M519.2,537.12a14.62,14.62,0,0,1-5.55-1.08,14.84,14.84,0,0,1-6.17-4.71c-4.65-5.9-5.42-15.21-2-23.7h0c3.45-8.49,10.5-14.61,18-15.6a15,15,0,0,1,7.71.94c9.32,3.79,13,16.54,8.14,28.41C535.42,531,527.15,537.12,519.2,537.12Zm-10-28c-2.92,7.18-2.36,14.92,1.42,19.72a10.93,10.93,0,0,0,4.53,3.48c7.28,3,16.46-2.63,20.45-12.46s1.34-20.24-5.94-23.2A11,11,0,0,0,524,496c-6.06.8-11.86,5.95-14.79,13.14Z"/><ellipse class="cls-70" cx="516.39" cy="512.06" rx="19.48" ry="9.75" transform="translate(-152.51 797.41) rotate(-67.86)"/><path class="cls-42" d="M508.19,532.23l-.71-.89c-4.65-5.91-5.42-15.22-2-23.71h0c3.45-8.49,10.5-14.61,18-15.6l1.13-.15.71.9c4.65,5.91,5.42,15.21,2,23.7s-10.51,14.62-18,15.6Zm1-23.09c-2.73,6.72-2.42,13.94.73,18.77,5.64-1.26,10.9-6.21,13.63-12.93s2.43-14-.73-18.78c-5.63,1.26-10.89,6.21-13.63,12.94Z"/><g class="cls-69"><path class="cls-42" d="M372.87,626.68c-14.86,0-26.5-7.25-26.5-16.5s11.64-16.5,26.5-16.5,26.5,7.24,26.5,16.5S387.72,626.68,372.87,626.68Zm0-28c-11.66,0-21.5,5.26-21.5,11.5s9.84,11.5,21.5,11.5,21.5-5.27,21.5-11.5S384.52,598.68,372.87,598.68Z"/></g><g class="cls-69"><path class="cls-42" d="M389.37,278.51c-12.62,0-22.5-6.22-22.5-14.17s9.88-14.16,22.5-14.16,22.5,6.22,22.5,14.16S402,278.51,389.37,278.51Zm0-23.33c-8.28,0-17.5,3.76-17.5,9.16s9.22,9.17,17.5,9.17,17.5-3.76,17.5-9.17S397.64,255.18,389.37,255.18Z"/></g><g class="cls-69"><path class="cls-42" d="M175.23,426a11,11,0,0,1-1.51-.11h0c-4.62-.64-8.46-4.14-10.81-9.85a39.63,39.63,0,0,1,5-36.11c3.81-4.85,8.46-7.18,13.08-6.53s8.46,4.14,10.81,9.85a39.62,39.62,0,0,1-5,36.11C183.4,423.72,179.35,426,175.23,426Zm4.29-47.7c-2.55,0-5.24,1.65-7.66,4.72a34.65,34.65,0,0,0-4.32,31.12c1.64,4,4.08,6.41,6.87,6.8h0c2.78.38,5.79-1.27,8.46-4.67a34.73,34.73,0,0,0,4.32-31.12c-1.64-4-4.08-6.41-6.87-6.8A5.29,5.29,0,0,0,179.52,378.33Z"/></g><path class="cls-43" d="M561,608.56l-18.25-9.92c1.23-1.22,2.46-2.45,3.66-3.7A241.86,241.86,0,0,0,608,481.59c.39-1.68.76-3.38,1.11-5.08l18.25,9.91a12,12,0,0,1,5.8,13.79A271.06,271.06,0,0,1,575.7,605.92,12,12,0,0,1,561,608.56Z"/><path class="cls-42" d="M566.71,619a21,21,0,0,1-10-2.56l-28.89-15.7,8.61-8.52c1.18-1.17,2.36-2.35,3.51-3.55a233,233,0,0,0,59.3-109.13c.38-1.64.73-3.27,1.07-4.9l2.47-11.85,28.89,15.7a20.88,20.88,0,0,1,10.16,24.12,280.28,280.28,0,0,1-59.34,109.23A21,21,0,0,1,566.71,619Zm-9.3-22.66,7.87,4.28A3,3,0,0,0,569,600a262.14,262.14,0,0,0,55.52-102.19,3,3,0,0,0-1.43-3.45l-7.87-4.27a251.44,251.44,0,0,1-57.76,106.31Z"/><rect class="cls-71" x="613.05" y="495.04" width="5" height="28" transform="translate(1356.7 211.2) rotate(118.52)"/><rect class="cls-71" x="605.06" y="505.14" width="10" height="28" transform="translate(1357.47 230.95) rotate(118.52)"/><rect class="cls-71" x="569.12" y="575.87" width="5" height="28" transform="translate(1362.84 369.22) rotate(118.52)"/><rect class="cls-71" x="572.99" y="566.25" width="10" height="28" transform="translate(1363.79 349.4) rotate(118.52)"/><path class="cls-42" d="M566.71,619a21,21,0,0,1-10-2.56l-28.89-15.7,8.61-8.52c1.18-1.17,2.36-2.35,3.51-3.55a233,233,0,0,0,59.3-109.13c.38-1.64.73-3.27,1.07-4.9l2.47-11.85,28.89,15.7a20.88,20.88,0,0,1,10.16,24.12,280.28,280.28,0,0,1-59.34,109.23A21,21,0,0,1,566.71,619Zm-9.3-22.66,7.87,4.28A3,3,0,0,0,569,600a262.14,262.14,0,0,0,55.52-102.19,3,3,0,0,0-1.43-3.45l-7.87-4.27a251.44,251.44,0,0,1-57.76,106.31Z"/><g class="cls-69"><path class="cls-72" d="M622.62,412.81a477.7,477.7,0,0,1,66.76,37,285.72,285.72,0,0,1,30.78,23.67,165.7,165.7,0,0,1,14.07,14.1c2.23,2.52,4.4,5.15,6.45,7.93a89.39,89.39,0,0,1,5.85,8.75,61,61,0,0,1,8,21.18,44.77,44.77,0,0,1,.28,12.59,40.67,40.67,0,0,1-3.68,12.58A45.23,45.23,0,0,1,744,561.33a56.07,56.07,0,0,1-9,8.09A88,88,0,0,1,715.45,580c-13.29,5.27-26.66,8-39.89,9.92-6.63.93-13.23,1.61-19.81,2.13-3.3.26-6.58.46-9.86.63s-6.57.27-9.83.33c-6.55.16-13.08.16-19.59.06l-4.88-.09-4.86-.17-9.74-.36c-12.94-.73-25.86-1.72-38.68-3.15-3.21-.35-6.43-.66-9.63-1.06L539.09,587c-6.42-.74-12.76-1.8-19.14-2.72s-12.69-2.08-19.05-3.12L482,577.62A1200.5,1200.5,0,0,1,333.39,538a1169.9,1169.9,0,0,1-142.48-57.92c-11.57-5.61-23-11.54-34.34-17.66-2.85-1.49-5.65-3.12-8.47-4.67L139.67,453l-8.36-4.92c-2.78-1.63-5.57-3.26-8.31-5L114.73,438c-2.76-1.68-5.46-3.5-8.19-5.24-5.47-3.47-10.85-7.12-16.2-10.8s-10.62-7.53-15.85-11.46-10.38-8-15.46-12.16A281.48,281.48,0,0,1,29.88,371,177.81,177.81,0,0,1,16.8,355l-1.53-2.14-1.48-2.22c-1-1.46-1.93-3-2.85-4.55s-1.79-3.18-2.68-4.77L7,338.85c-.42-.83-.82-1.67-1.19-2.55a71.86,71.86,0,0,1-3.92-10.92A53.53,53.53,0,0,1,0,313.14a44.87,44.87,0,0,1,1.39-13.05A41.55,41.55,0,0,1,6.82,288a46.74,46.74,0,0,1,8.29-9.47,57.32,57.32,0,0,1,9.52-6.75,88.34,88.34,0,0,1,19.86-8.1,147.51,147.51,0,0,1,19.85-4c6.58-.88,13.12-1.47,19.63-1.73a332.13,332.13,0,0,1,38.69.74,518.14,518.14,0,0,1,75.44,11.52c-25.33-1-50.59-1.46-75.55-.07a368.74,368.74,0,0,0-37,3.82c-12.08,2-24,4.6-34.72,8.87a70.25,70.25,0,0,0-14.52,7.58,28.55,28.55,0,0,0-9.15,9.91,18.36,18.36,0,0,0-1.77,11.13,37.16,37.16,0,0,0,4.68,13,85.75,85.75,0,0,0,9.29,13.22,147.37,147.37,0,0,0,11.83,12.52,288.09,288.09,0,0,0,27.66,22.69q7.32,5.36,14.94,10.42c5.08,3.38,10.22,6.69,15.46,9.87l7.85,4.8c2.6,1.63,5.3,3.12,7.94,4.69s5.28,3.13,8,4.61l8.08,4.48c21.61,11.87,43.87,22.76,66.43,33.05A1456.78,1456.78,0,0,0,346.43,499c47.21,15.79,95.12,29.53,143.53,40.5,24.21,5.46,48.55,10.16,73,13.92s48.94,6.47,73.28,7.33a353.31,353.31,0,0,0,36.14-.42c5.93-.44,11.79-1.08,17.51-2a125.4,125.4,0,0,0,16.56-3.71,62.77,62.77,0,0,0,14.31-6.13,27.63,27.63,0,0,0,9.36-8.72,19.23,19.23,0,0,0,2.71-11.62,41.87,41.87,0,0,0-4-14.52,70.13,70.13,0,0,0-3.91-7.46c-1.45-2.47-3.06-4.91-4.76-7.32a169.33,169.33,0,0,0-11.26-14.05,307,307,0,0,0-26.4-26C663.68,442.4,643.36,427.38,622.62,412.81Z"/></g><g class="cls-69"><path class="cls-42" d="M558.93,420a9,9,0,0,1-2.11-.25c-3.62-.84-6.43-3.73-7.94-8.13a25.32,25.32,0,0,1-.36-13.69c2.47-10.58,10-17.57,17.09-15.91s10.77,11.25,8.3,21.83C571.69,413.42,565.37,420,558.93,420Zm4.55-33.23c-4,0-8.46,5.29-10.09,12.29a20.25,20.25,0,0,0,.23,10.95c.53,1.56,1.81,4.29,4.33,4.87,4.23,1,9.32-4.58,11.09-12.17s-.32-14.83-4.56-15.82A4.21,4.21,0,0,0,563.48,386.81Z"/></g><path class="cls-3" d="M253.46,186.62l19.42,22.89A242.14,242.14,0,0,0,174.51,293l-19.42-22.89a272.85,272.85,0,0,1,98.37-83.45Z"/><path class="cls-42" d="M175.31,307.81l-31.65-37.3,4.14-5.72a282.2,282.2,0,0,1,101.63-86.23l6.32-3.15,31.65,37.3-10.75,5A233.19,233.19,0,0,0,182,298Zm-8.72-38.1,7.32,8.63a251.32,251.32,0,0,1,84.63-71.82l-7.31-8.62a264.31,264.31,0,0,0-84.64,71.81Z"/><path class="cls-43" d="M250.24,193.64c1.19,1.41-.42,5-4.16,10.08-6.3,8.51-18.67,21.09-33.87,34s-29.62,23.05-39,27.88c-5.59,2.87-9.43,3.87-10.62,2.46-3.22-3.79,13.8-23.52,38-44.06S247,189.85,250.24,193.64Z"/><path class="cls-42" d="M164.31,270.67a4.05,4.05,0,0,1-3.29-1.34c-1.64-1.93-2.13-5.76,8.73-18.35a279.84,279.84,0,0,1,29.52-28.53c11.79-10,23.5-18.7,33-24.48,14.19-8.66,17.89-7.56,19.53-5.63h0c1.93,2.28.68,6.16-4.07,12.57-6.64,9-19.42,21.79-34.18,34.32s-29.51,23-39.43,28.13C169.76,269.58,166.57,270.67,164.31,270.67Zm-.18-4c.61,0,2.71-.08,8.13-2.86,9.66-4.95,24.11-15.28,38.66-27.62s27.09-24.92,33.55-33.65c3.63-4.89,4.1-6.94,4.15-7.55-3.67-.71-21.89,9.42-46.76,30.52S164,262.92,164.13,266.66Z"/><ellipse class="cls-70" cx="209.63" cy="234.65" rx="47.81" ry="4" transform="translate(-102.03 191.35) rotate(-40.31)"/><path class="cls-42" d="M166.47,271.27l5.09-6.88c6.64-9,19.42-21.79,34.18-34.31s29.51-23.05,39.43-28.14l7.61-3.91-5.09,6.88c-6.64,9-19.42,21.79-34.18,34.32s-29.51,23-39.43,28.13Zm70.63-59.93A326.07,326.07,0,0,0,182.15,258a297.53,297.53,0,0,0,28.77-21.78A296.89,296.89,0,0,0,237.1,211.34Z"/><path class="cls-43" d="M225.26,269.69c-12,9.55-22.91,17-30.55,20.89-5.59,2.87-9.43,3.87-10.62,2.46l-21.35-25.16c1.19,1.41,5,.41,10.62-2.46,9.42-4.83,23.85-15,39-27.88s27.57-25.47,33.87-34c3.74-5.05,5.35-8.67,4.16-10.08l21.35,25.16c1.19,1.41-.42,5-4.16,10.08-5.11,6.9-14.22,16.48-25.59,26.74"/><path class="cls-42" d="M225.26,269.69c-5,4.63-10.19,9-15.63,13.17-2.74,2.05-5.5,4.07-8.4,5.92a70.3,70.3,0,0,1-9.07,5.16,20.35,20.35,0,0,1-5.38,1.75,6.51,6.51,0,0,1-1.83,0,5.61,5.61,0,0,1-1.13-.3,4.07,4.07,0,0,1-1.22-.83l-.13-.14-.06-.07-.11-.12-.21-.24-.42-.48-.83-1-3.35-3.83-3.3-3.88c-4.37-5.19-8.69-10.43-12.75-15.89h0l2.59-2.19c0-.06-.09,0,0,0a1.26,1.26,0,0,0,.42.05,6.78,6.78,0,0,0,1.41-.21,20.55,20.55,0,0,0,3.21-1.13,60,60,0,0,0,6.4-3.33c4.21-2.43,8.3-5.14,12.31-8q12-8.52,23.31-18.12c7.55-6.34,14.84-13,21.79-19.94,3.47-3.47,6.83-7.06,9.95-10.81a61,61,0,0,0,4.37-5.76,21.81,21.81,0,0,0,1.69-3,7.11,7.11,0,0,0,.46-1.43,1.64,1.64,0,0,0,0-.52c0-.15,0-.14,0-.17h0l1.11-2.78,1,1c4.78,4.85,9.28,9.93,13.73,15.06l3.31,3.86,3.25,3.92.82,1,.4.49.21.24.1.12.05.07.12.16a3.81,3.81,0,0,1,.6,1.3,4.3,4.3,0,0,1,.12,1.14,6.93,6.93,0,0,1-.31,1.79,20.16,20.16,0,0,1-2.58,5,70.68,70.68,0,0,1-6.54,8.13c-2.29,2.55-4.73,5-7.19,7.33A200.14,200.14,0,0,1,242,255.46c4.69-4.94,9.32-9.89,13.78-15,2.25-2.52,4.41-5.11,6.51-7.72a82.11,82.11,0,0,0,5.79-8.07,16.92,16.92,0,0,0,1.92-4.08,2.51,2.51,0,0,0,.1-.72c0-.1,0-.1,0-.12s0,.08.06.17l-1.58-1.84-3.33-3.85L262,210.37c-4.34-5.23-8.62-10.49-12.61-16l2.1-1.79v0a3.11,3.11,0,0,1,.67,1.52,4.55,4.55,0,0,1,0,1.33,9.33,9.33,0,0,1-.57,2.13,24.85,24.85,0,0,1-1.8,3.53,64.86,64.86,0,0,1-4.38,6.23c-3.12,3.95-6.47,7.67-9.91,11.28-6.91,7.21-14.25,13.95-21.81,20.45s-15.42,12.62-23.63,18.3c-4.12,2.84-8.32,5.56-12.72,8a66.2,66.2,0,0,1-6.87,3.35,24.06,24.06,0,0,1-3.82,1.23,9.36,9.36,0,0,1-2.27.24A4.78,4.78,0,0,1,163,270a3.49,3.49,0,0,1-1.54-1l2.59-2.19h0c4.72,4.89,9.19,10,13.6,15.16l3.29,3.89,3.24,3.93,1.54,1.86c-.09-.07-.14-.11-.18-.1s0,0,.09,0a2.47,2.47,0,0,0,.71,0,17,17,0,0,0,4.32-1.21,82.36,82.36,0,0,0,8.91-4.37c2.92-1.64,5.83-3.35,8.69-5.14C214,277.28,219.63,273.52,225.26,269.69Z"/><rect class="cls-71" x="182.43" y="260.55" width="7" height="33" transform="translate(-135.09 186.08) rotate(-40.31)"/><rect class="cls-71" x="192.93" y="253.61" width="7" height="33" transform="translate(-128.1 191.23) rotate(-40.31)"/><rect class="cls-71" x="246.31" y="208.32" width="7" height="33" transform="translate(-86.13 215.01) rotate(-40.31)"/><rect class="cls-71" x="253.52" y="198.27" width="7" height="33" transform="translate(-77.91 217.28) rotate(-40.31)"/><path class="cls-42" d="M225.26,269.69c-5,4.63-10.19,9-15.63,13.17-2.74,2.05-5.5,4.07-8.4,5.92a70.3,70.3,0,0,1-9.07,5.16,20.35,20.35,0,0,1-5.38,1.75,6.51,6.51,0,0,1-1.83,0,5.61,5.61,0,0,1-1.13-.3,4.07,4.07,0,0,1-1.22-.83l-.13-.14-.06-.07-.11-.12-.21-.24-.42-.48-.83-1-3.35-3.83-3.3-3.88c-4.37-5.19-8.69-10.43-12.75-15.89h0l2.59-2.19c0-.06-.09,0,0,0a1.26,1.26,0,0,0,.42.05,6.78,6.78,0,0,0,1.41-.21,20.55,20.55,0,0,0,3.21-1.13,60,60,0,0,0,6.4-3.33c4.21-2.43,8.3-5.14,12.31-8q12-8.52,23.31-18.12c7.55-6.34,14.84-13,21.79-19.94,3.47-3.47,6.83-7.06,9.95-10.81a61,61,0,0,0,4.37-5.76,21.81,21.81,0,0,0,1.69-3,7.11,7.11,0,0,0,.46-1.43,1.64,1.64,0,0,0,0-.52c0-.15,0-.14,0-.17h0l1.11-2.78,1,1c4.78,4.85,9.28,9.93,13.73,15.06l3.31,3.86,3.25,3.92.82,1,.4.49.21.24.1.12.05.07.12.16a3.81,3.81,0,0,1,.6,1.3,4.3,4.3,0,0,1,.12,1.14,6.93,6.93,0,0,1-.31,1.79,20.16,20.16,0,0,1-2.58,5,70.68,70.68,0,0,1-6.54,8.13c-2.29,2.55-4.73,5-7.19,7.33A200.14,200.14,0,0,1,242,255.46c4.69-4.94,9.32-9.89,13.78-15,2.25-2.52,4.41-5.11,6.51-7.72a82.11,82.11,0,0,0,5.79-8.07,16.92,16.92,0,0,0,1.92-4.08,2.51,2.51,0,0,0,.1-.72c0-.1,0-.1,0-.12s0,.08.06.17l-1.58-1.84-3.33-3.85L262,210.37c-4.34-5.23-8.62-10.49-12.61-16l2.1-1.79v0a3.11,3.11,0,0,1,.67,1.52,4.55,4.55,0,0,1,0,1.33,9.33,9.33,0,0,1-.57,2.13,24.85,24.85,0,0,1-1.8,3.53,64.86,64.86,0,0,1-4.38,6.23c-3.12,3.95-6.47,7.67-9.91,11.28-6.91,7.21-14.25,13.95-21.81,20.45s-15.42,12.62-23.63,18.3c-4.12,2.84-8.32,5.56-12.72,8a66.2,66.2,0,0,1-6.87,3.35,24.06,24.06,0,0,1-3.82,1.23,9.36,9.36,0,0,1-2.27.24A4.78,4.78,0,0,1,163,270a3.49,3.49,0,0,1-1.54-1l2.59-2.19h0c4.72,4.89,9.19,10,13.6,15.16l3.29,3.89,3.24,3.93,1.54,1.86c-.09-.07-.14-.11-.18-.1s0,0,.09,0a2.47,2.47,0,0,0,.71,0,17,17,0,0,0,4.32-1.21,82.36,82.36,0,0,0,8.91-4.37c2.92-1.64,5.83-3.35,8.69-5.14C214,277.28,219.63,273.52,225.26,269.69Z"/><path class="cls-3" d="M381.2,696.83l-8-28.93A242,242,0,0,0,497.5,633.45l8,28.93A273.08,273.08,0,0,1,381.2,696.83Z"/><path class="cls-42" d="M374.41,706l-13.06-47.14H373.3a233.27,233.27,0,0,0,119.56-33.16l10.15-6.1,13.06,47.14-6.16,3.45a281.76,281.76,0,0,1-128.44,35.59Zm10.53-29.41,3,10.9a264.24,264.24,0,0,0,107-29.64l-3-10.9a251.32,251.32,0,0,1-107,29.64Z"/><path class="cls-43" d="M387.07,691.81c-.49-1.79,2.49-4.4,8-7.41,9.29-5.08,25.8-11.3,45-16.62s36.56-8.48,47.14-8.91c6.28-.26,10.18.45,10.67,2.23,1.33,4.79-22.4,15.54-53,24S388.4,696.59,387.07,691.81Z"/><path class="cls-42" d="M395.4,696.09c-8,0-9.75-1.91-10.26-3.75-.8-2.88,2-5.87,9-9.7,9.79-5.34,26.77-11.62,45.43-16.79s36.46-8.53,47.6-9c8-.33,11.88.81,12.68,3.69.68,2.44-.49,6.13-15.63,13-10.1,4.58-23.87,9.37-38.77,13.5s-29.17,7.11-40.19,8.38A88.66,88.66,0,0,1,395.4,696.09Zm-6.29-4.85c.79.43,4.3,1.66,17.22,0a284.29,284.29,0,0,0,38-8.07,283.29,283.29,0,0,0,36.75-12.65c11.92-5.25,14.3-8.11,14.75-8.88-.57-.32-2.56-1-8.55-.8-10.85.44-28.3,3.74-46.69,8.84S405.56,681,396,686.15C390.78,689,389.44,690.68,389.11,691.24Z"/><ellipse class="cls-70" cx="441.15" cy="671.63" rx="47.81" ry="4" transform="translate(-163.32 142.18) rotate(-15.49)"/><path class="cls-42" d="M386.61,686.75l7.5-4.11c9.79-5.34,26.77-11.62,45.43-16.79s36.46-8.53,47.6-9l8.55-.35-7.51,4.1c-9.78,5.35-26.77,11.62-45.43,16.8s-36.46,8.52-47.6,9ZM475.87,662a326.71,326.71,0,0,0-69.45,19.24A325.14,325.14,0,0,0,475.87,662Z"/><path class="cls-43" d="M441.67,633.27c14.87-3.64,27.92-5.79,36.5-6.14,6.28-.25,10.18.45,10.67,2.23l8.81,31.81c-.49-1.79-4.39-2.49-10.67-2.24-10.58.43-27.94,3.59-47.14,8.92s-35.72,11.54-45,16.62c-5.51,3-8.5,5.62-8,7.4L378,660.07c-.5-1.78,2.48-4.39,8-7.41,7.54-4.11,19.83-9,34.45-13.52"/><path class="cls-42" d="M441.67,633.27a204.28,204.28,0,0,1,19.72-5.39c3.34-.71,6.7-1.38,10.1-1.85a69.81,69.81,0,0,1,10.4-.87,20.36,20.36,0,0,1,5.62.66,7.1,7.1,0,0,1,1.67.76,4.9,4.9,0,0,1,.9.75,3.9,3.9,0,0,1,.75,1.26l.07.18,0,.09,0,.15.09.31.18.61.36,1.22L493,636l1.36,4.9c1.78,6.55,3.51,13.11,4.9,19.77h0l-3.27.91c0,.06.06.08,0,0a2,2,0,0,0-.37-.21,6.48,6.48,0,0,0-1.36-.41,20.44,20.44,0,0,0-3.4-.32,60.49,60.49,0,0,0-7.2.33c-4.84.45-9.7,1.19-14.52,2.08-9.67,1.78-19.27,4-28.76,6.66s-18.92,5.54-28.15,8.94c-4.61,1.7-9.17,3.54-13.57,5.63a61.66,61.66,0,0,0-6.39,3.4,20.56,20.56,0,0,0-2.8,2,6.4,6.4,0,0,0-1,1.1,2.17,2.17,0,0,0-.25.46c-.06.13,0,.14,0,.16h0l-2.18,2-.48-1.31c-2.31-6.4-4.26-12.91-6.14-19.43l-1.38-4.9L376.67,663l-.33-1.23-.16-.62-.09-.31,0-.15,0-.09,0-.18a4.09,4.09,0,0,1,0-1.44,4.35,4.35,0,0,1,.38-1.09,7.17,7.17,0,0,1,1-1.49,20.43,20.43,0,0,1,4.46-3.47,69.8,69.8,0,0,1,9.34-4.62c3.15-1.36,6.38-2.52,9.6-3.64a198.94,198.94,0,0,1,19.68-5.53c-6.33,2.52-12.61,5.07-18.79,7.8-3.1,1.35-6.15,2.79-9.15,4.28a82.17,82.17,0,0,0-8.64,4.89,17.08,17.08,0,0,0-3.46,2.89,2.68,2.68,0,0,0-.39.62c-.05.08,0,.1,0,.11s0-.08,0-.18l.67,2.33,1.41,4.9,1.34,4.91c1.74,6.56,3.41,13.14,4.73,19.81l-2.66.74v0a3,3,0,0,1,0-1.66,4.38,4.38,0,0,1,.55-1.21,8.93,8.93,0,0,1,1.42-1.69,24.21,24.21,0,0,1,3.11-2.45,66.2,66.2,0,0,1,6.59-3.82c4.49-2.27,9.09-4.24,13.74-6.07,9.29-3.64,18.79-6.68,28.37-9.4s19.29-5,29.14-6.69c4.92-.85,9.88-1.56,14.91-2a64.61,64.61,0,0,1,7.64-.15,24.39,24.39,0,0,1,4,.48,9.89,9.89,0,0,1,2.16.74,4.65,4.65,0,0,1,1.18.8,3.56,3.56,0,0,1,1,1.56l-3.27.91h0c-2.23-6.43-4.14-12.94-6-19.47l-1.35-4.91-1.29-4.93-.62-2.34c.05.11.08.16.12.18s0,0-.07-.07a2.74,2.74,0,0,0-.63-.32,17,17,0,0,0-4.43-.71,80.57,80.57,0,0,0-9.92.22c-3.34.26-6.7.59-10.05,1C455.09,631.11,448.39,632.16,441.67,633.27Z"/><rect class="cls-71" x="476.96" y="626.6" width="7" height="33" transform="matrix(-0.96, 0.27, -0.27, -0.96, 1115.18, 1134.57)"/><rect class="cls-71" x="464.51" y="628.49" width="7" height="33" transform="matrix(-0.96, 0.27, -0.27, -0.96, 1091.25, 1141.6)"/><rect class="cls-71" x="397.05" y="647.18" width="7" height="33" transform="matrix(-0.96, 0.27, -0.27, -0.96, 963.77, 1196.32)"/><rect class="cls-71" x="386.29" y="653.28" width="7" height="33" transform="matrix(-0.96, 0.27, -0.27, -0.96, 944.26, 1211.16)"/><path class="cls-42" d="M441.67,633.27a204.28,204.28,0,0,1,19.72-5.39c3.34-.71,6.7-1.38,10.1-1.85a69.81,69.81,0,0,1,10.4-.87,20.36,20.36,0,0,1,5.62.66,7.1,7.1,0,0,1,1.67.76,4.9,4.9,0,0,1,.9.75,3.9,3.9,0,0,1,.75,1.26l.07.18,0,.09,0,.15.09.31.18.61.36,1.22L493,636l1.36,4.9c1.78,6.55,3.51,13.11,4.9,19.77h0l-3.27.91c0,.06.06.08,0,0a2,2,0,0,0-.37-.21,6.48,6.48,0,0,0-1.36-.41,20.44,20.44,0,0,0-3.4-.32,60.49,60.49,0,0,0-7.2.33c-4.84.45-9.7,1.19-14.52,2.08-9.67,1.78-19.27,4-28.76,6.66s-18.92,5.54-28.15,8.94c-4.61,1.7-9.17,3.54-13.57,5.63a61.66,61.66,0,0,0-6.39,3.4,20.56,20.56,0,0,0-2.8,2,6.4,6.4,0,0,0-1,1.1,2.17,2.17,0,0,0-.25.46c-.06.13,0,.14,0,.16h0l-2.18,2-.48-1.31c-2.31-6.4-4.26-12.91-6.14-19.43l-1.38-4.9L376.67,663l-.33-1.23-.16-.62-.09-.31,0-.15,0-.09,0-.18a4.09,4.09,0,0,1,0-1.44,4.35,4.35,0,0,1,.38-1.09,7.17,7.17,0,0,1,1-1.49,20.43,20.43,0,0,1,4.46-3.47,69.8,69.8,0,0,1,9.34-4.62c3.15-1.36,6.38-2.52,9.6-3.64a198.94,198.94,0,0,1,19.68-5.53c-6.33,2.52-12.61,5.07-18.79,7.8-3.1,1.35-6.15,2.79-9.15,4.28a82.17,82.17,0,0,0-8.64,4.89,17.08,17.08,0,0,0-3.46,2.89,2.68,2.68,0,0,0-.39.62c-.05.08,0,.1,0,.11s0-.08,0-.18l.67,2.33,1.41,4.9,1.34,4.91c1.74,6.56,3.41,13.14,4.73,19.81l-2.66.74v0a3,3,0,0,1,0-1.66,4.38,4.38,0,0,1,.55-1.21,8.93,8.93,0,0,1,1.42-1.69,24.21,24.21,0,0,1,3.11-2.45,66.2,66.2,0,0,1,6.59-3.82c4.49-2.27,9.09-4.24,13.74-6.07,9.29-3.64,18.79-6.68,28.37-9.4s19.29-5,29.14-6.69c4.92-.85,9.88-1.56,14.91-2a64.61,64.61,0,0,1,7.64-.15,24.39,24.39,0,0,1,4,.48,9.89,9.89,0,0,1,2.16.74,4.65,4.65,0,0,1,1.18.8,3.56,3.56,0,0,1,1,1.56l-3.27.91h0c-2.23-6.43-4.14-12.94-6-19.47l-1.35-4.91-1.29-4.93-.62-2.34c.05.11.08.16.12.18s0,0-.07-.07a2.74,2.74,0,0,0-.63-.32,17,17,0,0,0-4.43-.71,80.57,80.57,0,0,0-9.92.22c-3.34.26-6.7.59-10.05,1C455.09,631.11,448.39,632.16,441.67,633.27Z"/><path class="cls-43" d="M127.49,513.87,144.56,502q.8,2.48,1.65,4.94a242.23,242.23,0,0,0,73.53,106q2,1.66,4,3.29l-17.07,11.83a12,12,0,0,1-14.92-1,271.15,271.15,0,0,1-68.56-98.84A12,12,0,0,1,127.49,513.87Z"/><path class="cls-42" d="M199.9,639.24a21,21,0,0,1-14.17-5.54,279.86,279.86,0,0,1-70.85-102.14,20.88,20.88,0,0,1,7.48-25.08h0l27-18.74,3.74,11.51c.51,1.58,1,3.17,1.59,4.73A233,233,0,0,0,225.49,606q1.94,1.62,3.89,3.16l9.48,7.54-27,18.74A20.88,20.88,0,0,1,199.9,639.24Zm-67.28-118a3,3,0,0,0-1,3.58,262.06,262.06,0,0,0,66.28,95.56,3,3,0,0,0,3.73.28l7.36-5.11a251.31,251.31,0,0,1-69-99.42Z"/><rect class="cls-71" x="189.33" y="593.38" width="5" height="28" transform="translate(-197.91 1111.18) rotate(-124.75)"/><rect class="cls-71" x="180.27" y="583.93" width="10" height="28" transform="translate(-200.43 1090.95) rotate(-124.75)"/><rect class="cls-71" x="136.89" y="517.78" width="5" height="28" transform="translate(-218.11 949.41) rotate(-124.75)"/><rect class="cls-71" x="140.12" y="527.8" width="10" height="28" transform="translate(-217.35 969.85) rotate(-124.75)"/><path class="cls-42" d="M199.9,639.24a21,21,0,0,1-14.17-5.54,279.86,279.86,0,0,1-70.85-102.14,20.88,20.88,0,0,1,7.48-25.08h0l27-18.74,3.74,11.51c.51,1.58,1,3.17,1.59,4.73A233,233,0,0,0,225.49,606q1.94,1.62,3.89,3.16l9.48,7.54-27,18.74A20.88,20.88,0,0,1,199.9,639.24Zm-67.28-118a3,3,0,0,0-1,3.58,262.06,262.06,0,0,0,66.28,95.56,3,3,0,0,0,3.73.28l7.36-5.11a251.31,251.31,0,0,1-69-99.42Z"/><path class="cls-73" d="M399.7,226l116.53,51.23S459,236.18,399.7,226Z"/><path class="cls-43" d="M542.09,282.58l0,0a3.49,3.49,0,0,1-4.61,1.74l-47.14-21.12.12-.23a37.5,37.5,0,1,0-67-33.56,34.47,34.47,0,0,0-1.29,3.26L375,211.58a3.48,3.48,0,0,1-1.77-4.59v0a92.5,92.5,0,0,1,168.84,75.63Z"/><path class="cls-42" d="M538.89,288.15a7,7,0,0,1-2.86-.61l-50.65-22.69,2-3.57a34,34,0,1,0-60.76-30.41c-.45,1-.84,2-1.16,2.95l-1.23,3.65-50.67-22.7a7,7,0,0,1-3.54-9.21,96,96,0,0,1,175.28,78.36l-.05.13A7,7,0,0,1,538.89,288.15Zm3.23-5.55,0,0Zm-47-21.07,43.8,19.62a89,89,0,1,0-162.44-72.76L420.25,228a41,41,0,1,1,74.84,33.52Z"/><path class="cls-43" d="M541.6,171.15c-21.79,48.64-58.45,79.55-81.88,69.06s-24.78-58.44-3-107.08c17.64-39.39,60.4-60.27,76-66.79a6,6,0,0,1,8,3.6C546.35,86,559.24,131.76,541.6,171.15Z"/><path class="cls-42" d="M469.62,251.27A32.88,32.88,0,0,1,456,248.42c-14.67-6.57-23.11-23.33-23.77-47.2-.6-21.55,5.16-47,16.24-71.77C467.27,87.58,511.26,65.56,529.3,58a15.06,15.06,0,0,1,20,9c6.39,18.47,19.25,66,.5,107.83h0c-11.08,24.73-26.26,46-42.74,59.9C494.13,245.65,481.25,251.27,469.62,251.27ZM533.31,75.9c-15.18,6.74-52.91,26.4-68.37,60.91-10,22.31-15.21,45-14.68,63.91.45,16.34,5.24,27.74,13.13,31.27,16.19,7.25,48.92-17.46,70-64.52C548.85,133,538.4,91.71,533.31,75.9Z"/><path class="cls-43" d="M456.73,133.13c-.52,1.15-1,2.3-1.51,3.45a31.47,31.47,0,0,0,16.24,40.95l27.2,12.18A31.47,31.47,0,0,0,540,174.57c.53-1.13,1.06-2.27,1.57-3.42,0-.1.09-.21.14-.31a31.48,31.48,0,0,0-16.08-41.35l-27.24-12.2a31.47,31.47,0,0,0-41.56,15.54Z"/><path class="cls-42" d="M511.5,196a34.84,34.84,0,0,1-14.27-3.05L470,180.73a35.13,35.13,0,0,1-18-45.52q.75-1.76,1.53-3.51l.15-.33a35,35,0,0,1,46.17-17.28l27.24,12.21a35,35,0,0,1,17.85,46l-.14.31c-.53,1.18-1.06,2.34-1.6,3.49A35,35,0,0,1,511.5,196Zm-26-77.95a27.84,27.84,0,0,0-25.42,16.26l-.13.29c-.51,1.13-1,2.26-1.48,3.4a28.08,28.08,0,0,0,14.45,36.38l27.2,12.18a28.09,28.09,0,0,0,36.77-13.44c.52-1.11,1-2.23,1.55-3.37l.13-.29a28,28,0,0,0-14.31-36.74L497,120.48A28.21,28.21,0,0,0,485.47,118Z"/><g class="cls-69"><path class="cls-42" d="M501.74,169.24a22.51,22.51,0,0,1-20.5-31.71,1.5,1.5,0,0,1,2.73,1.23,19.5,19.5,0,0,0,35.6,15.94,1.5,1.5,0,1,1,2.73,1.23,22.63,22.63,0,0,1-20.56,13.31Z"/></g><circle class="cls-43" cx="501.77" cy="146.73" r="11"/><path class="cls-42" d="M501.75,159.23a12.5,12.5,0,1,1,11.43-7.39h0A12.52,12.52,0,0,1,501.75,159.23Zm0-22a9.5,9.5,0,1,0,8.67,13.39h0a9.52,9.52,0,0,0-8.67-13.39Z"/><g class="cls-69"><path class="cls-42" d="M417,214.92a1.5,1.5,0,0,1-1.4-1l-5.23-13.7a2.83,2.83,0,0,0-3.65-1.64l-13.71,5.23A1.5,1.5,0,0,1,392,201l13.71-5.22a5.83,5.83,0,0,1,7.52,3.37l5.23,13.71a1.49,1.49,0,0,1-.87,1.93A1.39,1.39,0,0,1,417,214.92Z"/></g><g class="cls-69"><path class="cls-42" d="M532.94,266.84a1.51,1.51,0,0,1-1.4-1l-5.22-13.7a2.83,2.83,0,0,0-3.66-1.64L509,255.75a1.5,1.5,0,1,1-1.06-2.8l13.7-5.22a5.82,5.82,0,0,1,7.53,3.37l5.22,13.7a1.5,1.5,0,0,1-.86,1.94A1.47,1.47,0,0,1,532.94,266.84Z"/></g><path class="cls-43" d="M758,415.18l.95,1.73a8.12,8.12,0,0,0,3.23,3.24l1.74.94-1.74,1a8.12,8.12,0,0,0-3.23,3.24L758,427l-1-1.73a8.15,8.15,0,0,0-3.24-3.24l-1.73-1,1.73-.94a8.15,8.15,0,0,0,3.24-3.24Z"/><polygon class="cls-42" points="757.95 445.76 749.23 429.82 733.27 421.09 749.23 412.37 757.95 396.42 766.67 412.37 782.63 421.09 766.67 429.82 757.95 445.76"/><path class="cls-43" d="M140,697.18l1,1.73a8.12,8.12,0,0,0,3.23,3.24l1.74.94-1.74.95a8.12,8.12,0,0,0-3.23,3.24L140,709l-.95-1.73a8.15,8.15,0,0,0-3.24-3.24l-1.73-.95,1.73-.94a8.15,8.15,0,0,0,3.24-3.24Z"/><path class="cls-42" d="M140,717.35l-4.46-8.15a4.1,4.1,0,0,0-1.65-1.65l-8.15-4.46,8.16-4.45a4.13,4.13,0,0,0,1.64-1.65l4.46-8.15,4.46,8.15a4.07,4.07,0,0,0,1.64,1.65l8.15,4.45-8.15,4.46a4.07,4.07,0,0,0-1.64,1.65Z"/><path class="cls-43" d="M716,431.18l.95,1.73a8.12,8.12,0,0,0,3.23,3.24l1.74.94-1.74,1a8.12,8.12,0,0,0-3.23,3.24L716,443l-1-1.73a8.15,8.15,0,0,0-3.24-3.24l-1.73-1,1.73-.94a8.15,8.15,0,0,0,3.24-3.24Z"/><path class="cls-42" d="M716,451.35l-4.46-8.15a4.1,4.1,0,0,0-1.65-1.65l-8.15-4.46,8.15-4.45a4.1,4.1,0,0,0,1.65-1.65l4.46-8.15,4.46,8.15a4.13,4.13,0,0,0,1.64,1.65l8.15,4.45-8.15,4.46a4.13,4.13,0,0,0-1.64,1.65Z"/><path class="cls-43" d="M33,425.18l.95,1.73a8.12,8.12,0,0,0,3.23,3.24l1.74.94-1.74,1a8.12,8.12,0,0,0-3.23,3.24L33,437l-1-1.73A8.15,8.15,0,0,0,28.76,432l-1.73-1,1.73-.94A8.15,8.15,0,0,0,32,426.91Z"/><path class="cls-42" d="M33,447.43l-5.34-9.75a3.17,3.17,0,0,0-1.24-1.25l-9.76-5.34,9.76-5.33a3.17,3.17,0,0,0,1.24-1.25L33,414.76l5.33,9.75a3.13,3.13,0,0,0,1.25,1.25l9.76,5.33-9.76,5.34a3.13,3.13,0,0,0-1.25,1.25Z"/><path class="cls-42" d="M588,49a50.56,50.56,0,0,1-10.85-1.51c-9-2-20.27-6-31.85-11.09S523.2,25.58,515.66,20.34c-9.75-6.77-13.22-11.77-11.26-16.22s8-5.25,19.57-2.61c9,2,20.27,6,31.85,11.09s22.11,10.81,29.66,16c9.74,6.77,13.21,11.78,11.25,16.22h0C595.51,47.64,592.72,49,588,49ZM513.13,8c3.71,4,15.37,12.26,35.41,21.11S582.56,41,588,41c-3.71-4-15.37-12.26-35.41-21.1S518.57,8,513.13,8Z"/><g class="cls-74"><polygon class="cls-43" points="227.55 749.36 222.06 750.15 222.06 749.36 227.55 749.36"/><polygon class="cls-43" points="230.59 749.36 222.06 750.6 222.06 750.15 227.55 749.36 230.59 749.36"/><polygon class="cls-45" points="233.05 749.44 222.06 751.03 222.06 750.6 230.59 749.36 233.05 749.36 233.05 749.44"/><polygon class="cls-46" points="233.05 749.88 222.06 751.47 222.06 751.03 233.05 749.44 233.05 749.88"/><polygon class="cls-47" points="233.05 750.32 222.06 751.91 222.06 751.47 233.05 749.88 233.05 750.32"/><polygon class="cls-48" points="233.05 750.76 222.06 752.35 222.06 751.91 233.05 750.32 233.05 750.76"/><polygon class="cls-49" points="233.05 751.2 222.06 752.79 222.06 752.35 233.05 750.76 233.05 751.2"/><polygon class="cls-50" points="233.05 751.64 222.06 753.23 222.06 752.79 233.05 751.2 233.05 751.64"/><polygon class="cls-51" points="233.05 752.08 222.06 753.67 222.06 753.23 233.05 751.64 233.05 752.08"/><polygon class="cls-52" points="233.05 752.52 222.06 754.11 222.06 753.67 233.05 752.08 233.05 752.52"/><polygon class="cls-53" points="233.05 752.96 222.06 754.55 222.06 754.11 233.05 752.52 233.05 752.96"/><polygon class="cls-54" points="233.05 753.4 222.06 754.99 222.06 754.55 233.05 752.96 233.05 753.4"/><polygon class="cls-55" points="233.05 753.84 222.06 755.43 222.06 754.99 233.05 753.4 233.05 753.84"/><polygon class="cls-56" points="233.05 754.28 222.06 755.87 222.06 755.43 233.05 753.84 233.05 754.28"/><polygon class="cls-57" points="233.05 754.72 222.06 756.31 222.06 755.87 233.05 754.28 233.05 754.72"/><polygon class="cls-58" points="233.05 755.16 222.06 756.75 222.06 756.31 233.05 754.72 233.05 755.16"/><polygon class="cls-59" points="233.05 755.6 222.06 757.19 222.06 756.75 233.05 755.16 233.05 755.6"/><polygon class="cls-60" points="233.05 756.04 222.06 757.63 222.06 757.19 233.05 755.6 233.05 756.04"/><polygon class="cls-61" points="233.05 756.48 222.06 758.07 222.06 757.63 233.05 756.04 233.05 756.48"/><polygon class="cls-62" points="233.05 756.91 222.06 758.51 222.06 758.07 233.05 756.48 233.05 756.91"/><polygon class="cls-63" points="233.05 757.35 222.06 758.95 222.06 758.51 233.05 756.91 233.05 757.35"/><polygon class="cls-64" points="233.05 757.79 222.06 759.39 222.06 758.95 233.05 757.35 233.05 757.79"/><polygon class="cls-65" points="233.05 758.23 222.06 759.83 222.06 759.39 233.05 757.79 233.05 758.23"/><polygon class="cls-66" points="233.05 758.67 222.06 760.27 222.06 759.83 233.05 758.23 233.05 758.67"/><polygon class="cls-67" points="233.05 759.11 224.52 760.35 222.06 760.35 222.06 760.27 233.05 758.67 233.05 759.11"/><polygon class="cls-68" points="233.05 759.55 227.55 760.35 224.52 760.35 233.05 759.11 233.05 759.55"/><polygon class="cls-68" points="227.55 760.35 233.05 759.55 233.05 760.35 227.55 760.35"/></g><path class="cls-42" d="M227.55,768.68,224,762.27a9.85,9.85,0,0,0-3.9-3.91l-6.42-3.51,6.42-3.51a9.76,9.76,0,0,0,3.9-3.9l3.51-6.42,3.51,6.42a9.85,9.85,0,0,0,3.91,3.9l6.41,3.51L235,758.36a9.94,9.94,0,0,0-3.91,3.91Z"/></g></g></svg>