<?xml version="1.0" encoding="utf-8"?>
<!-- Generator: Adobe Illustrator 16.0.0, SVG Export Plug-In . SVG Version: 6.00 Build 0)  -->
<!DOCTYPE svg PUBLIC "-//W3C//DTD SVG 1.1//EN" "http://www.w3.org/Graphics/SVG/1.1/DTD/svg11.dtd">
<svg version="1.1" id="Moon_Crescent" xmlns="http://www.w3.org/2000/svg" xmlns:xlink="http://www.w3.org/1999/xlink" x="0px"
	 y="0px" width="512px" height="512px" viewBox="0 0 512 512" enable-background="new 0 0 512 512" xml:space="preserve">
<circle id="Background" fill="#323653" cx="256" cy="256" r="256"/>
<path id="Shadow" opacity="0.15" d="M512,256c0-12.324-0.89-24.438-2.573-36.298l-248.271-99.815l-85.353,82.869l13.616,167.821
	l187.49,111.114C457.318,438.523,512,353.651,512,256z"/>
<g id="Star_1_">
	<g>
		<circle fill="#E3DFF0" cx="228.159" cy="30.495" r="5.416"/>
		<polygon fill="#E3DFF0" points="239.947,25.753 227.728,29.421 216.372,35.234 228.59,31.566 		"/>
		<polygon fill="#E3DFF0" points="223.418,18.705 227.086,30.925 232.9,42.28 229.231,30.062 		"/>
	</g>
	<g>
		<circle fill="#E3DFF0" cx="377.677" cy="429.989" r="5.415"/>
		<polygon fill="#E3DFF0" points="389.464,425.249 377.246,428.917 365.889,434.73 378.108,431.062 		"/>
		<polygon fill="#E3DFF0" points="372.936,418.201 376.604,430.42 382.417,441.775 378.75,429.558 		"/>
	</g>
	<g>
		<circle fill="#E3DFF0" cx="32.039" cy="335.942" r="5.415"/>
		<polygon fill="#E3DFF0" points="43.827,331.202 31.609,334.87 20.252,340.683 32.471,337.016 		"/>
		<polygon fill="#E3DFF0" points="27.299,324.154 30.967,336.375 36.78,347.729 33.112,335.511 		"/>
	</g>
	<g id="Star">
		<circle fill="#E3DFF0" cx="421.409" cy="91.69" r="8.078"/>
		<polygon fill="#E3DFF0" points="438.994,84.617 420.764,90.089 403.826,98.76 422.052,93.289 		"/>
		<polygon fill="#E3DFF0" points="414.338,74.103 419.808,92.332 428.481,109.271 423.008,91.045 		"/>
	</g>
</g>
<g id="Crescent">
	<path fill="#FCC59C" d="M386.363,306.285c-0.169-0.949-0.466-1.826-0.837-2.66c-2.304-0.367-4.762,0.007-7.378,1.135
		c-14.398,6.51-29.314,9.763-44.746,9.763c-19.364,0-37.22-4.663-53.58-13.989c-16.358-9.311-29.3-21.959-38.851-37.929
		c-9.557-15.954-14.333-33.382-14.333-52.29c0-14.694,2.973-28.635,8.936-41.87c5.946-13.218,14.554-24.808,25.812-34.753
		c3.329-3.061,4.664-6.5,4.019-10.318c-2.096-2.47-5.003-3.638-8.753-3.471c-18.114,0.714-35.277,4.754-51.496,12.144
		c-16.213,7.393-30.145,17.115-41.807,29.181c-11.657,12.049-20.896,26.337-27.705,42.828
		c-6.794,16.478-10.197,33.775-10.197,51.869c0,18.448,3.604,36.059,10.838,52.846c7.212,16.787,16.915,31.276,29.118,43.451
		c12.191,12.173,26.68,21.865,43.503,29.086c16.803,7.208,34.436,10.809,52.907,10.809c26.509,0,50.979-7.174,73.414-21.538
		c22.437-14.365,39.212-33.561,50.343-57.552C386.516,310.898,386.783,308.646,386.363,306.285z"/>
	<g>
		<path fill="#F89F67" d="M253.446,361.591c-7.876-2.55-15.469-0.896-16.958,3.696c-1.488,4.588,3.691,10.374,11.568,12.924
			c7.877,2.549,15.47,0.896,16.959-3.694C266.503,369.927,261.323,364.141,253.446,361.591z"/>
		<path fill="#F6863C" d="M253.446,361.591c-7.876-2.55-15.469-0.896-16.958,3.696c-1.488,4.588,3.691,10.374,11.568,12.924
			c7.877,2.549,15.47,0.896,16.959-3.694C266.503,369.927,261.323,364.141,253.446,361.591z M250.277,377.432
			c-6.289-2.035-10.379-6.8-9.134-10.64c1.248-3.841,7.355-5.304,13.645-3.269c6.292,2.036,10.381,6.799,9.137,10.641
			C262.677,378.004,256.568,379.468,250.277,377.432z"/>
		<ellipse fill="#F89F67" cx="358.195" cy="326.225" rx="7.495" ry="7.487"/>
		<path fill="#F6863C" d="M358.195,318.738c-4.14,0-7.495,3.353-7.495,7.487s3.355,7.487,7.495,7.487
			c4.139,0,7.496-3.353,7.496-7.487S362.333,318.738,358.195,318.738z M359.133,332.493c-3.306,0-5.988-2.807-5.988-6.268
			c0-3.458,2.683-6.265,5.988-6.265c3.305,0,5.985,2.807,5.985,6.265C365.119,329.686,362.438,332.493,359.133,332.493z"/>
		<path fill="#F89F67" d="M162.325,195.296c-6.228-2.83-14.057,0.977-17.487,8.501c-3.43,7.528-1.163,15.925,5.064,18.757
			c6.228,2.831,14.057-0.976,17.487-8.502C170.819,206.524,168.552,198.127,162.325,195.296z"/>
		<path fill="#F6863C" d="M162.325,195.296c-6.228-2.83-14.057,0.977-17.487,8.501c-3.43,7.528-1.163,15.925,5.064,18.757
			c6.228,2.831,14.057-0.976,17.487-8.502C170.819,206.524,168.552,198.127,162.325,195.296z M152.325,220.972
			c-4.974-2.262-6.678-9.201-3.808-15.5s9.229-9.572,14.203-7.311c4.973,2.261,6.677,9.201,3.808,15.5
			C163.657,219.958,157.298,223.233,152.325,220.972z"/>
		<path fill="#F89F67" d="M208.325,240.882c-6.228-2.83-14.057,0.977-17.487,8.501c-3.43,7.528-1.163,15.925,5.064,18.757
			c6.228,2.831,14.057-0.976,17.487-8.502C216.819,252.11,214.552,243.713,208.325,240.882z"/>
		<path fill="#F6863C" d="M208.325,240.882c-6.228-2.83-14.057,0.977-17.487,8.501c-3.43,7.528-1.163,15.925,5.064,18.757
			c6.228,2.831,14.057-0.976,17.487-8.502C216.819,252.11,214.552,243.713,208.325,240.882z M198.325,266.557
			c-4.974-2.262-6.678-9.201-3.808-15.5s9.229-9.572,14.203-7.311c4.973,2.261,6.677,9.201,3.808,15.5
			C209.657,265.544,203.298,268.819,198.325,266.557z"/>
		<path fill="#F89F67" d="M171.228,328.458c6.504-14.271,2.206-30.188-9.6-35.558c-9.426-4.283-20.785-0.54-28.292,8.403
			c0.907,2.506,1.883,4.996,2.948,7.466c5.56,12.94,12.606,24.511,21.13,34.713C163.097,340.489,168.118,335.284,171.228,328.458z"
			/>
		<path fill="#F6863C" d="M171.228,328.458c6.504-14.271,2.206-30.188-9.6-35.558c-9.426-4.283-20.785-0.54-28.292,8.403
			c0.907,2.506,1.883,4.996,2.948,7.466c0.14,0.326,0.288,0.646,0.43,0.971c5.884-10.314,16.907-15.39,25.665-11.408
			c9.427,4.288,12.658,17.443,7.219,29.384c-3.052,6.694-8.183,11.585-13.764,13.836c0.521,0.648,1.048,1.292,1.581,1.931
			C163.097,340.489,168.118,335.284,171.228,328.458z"/>
	</g>
	<path opacity="0.1" d="M385.569,313.025c0.947-2.127,1.214-4.379,0.794-6.74c-0.169-0.949-0.466-1.826-0.837-2.66
		c-2.304-0.367-4.762,0.007-7.378,1.135c-14.398,6.51-29.314,9.763-44.746,9.763c-19.364,0-37.22-4.663-53.58-13.989
		c-16.358-9.311-29.3-21.959-38.851-37.929c-9.557-15.954-14.333-33.382-14.333-52.29c0-14.694,2.973-28.635,8.936-41.87
		c5.946-13.218,14.554-24.808,25.812-34.753c3.329-3.061,4.664-6.5,4.019-10.318c-0.236-0.278-0.486-0.535-0.743-0.78
		c-7.012,4.883-13.45,10.354-19.313,16.42c-11.657,12.049-20.896,26.337-27.705,42.828c-6.794,16.478-10.197,33.775-10.197,51.869
		c0,18.448,3.604,36.058,10.838,52.845c7.212,16.787,16.915,31.277,29.118,43.451c12.19,12.174,26.68,21.865,43.503,29.086
		c14.582,6.256,29.791,9.79,45.629,10.615C358.308,355.439,374.658,336.542,385.569,313.025z"/>
</g>
</svg>
