<?xml version="1.0" standalone="no"?><!DOCTYPE svg PUBLIC "-//W3C//DTD SVG 1.1//EN" "http://www.w3.org/Graphics/SVG/1.1/DTD/svg11.dtd"><svg t="1649680294415" class="icon" viewBox="0 0 1024 1024" version="1.1" xmlns="http://www.w3.org/2000/svg" p-id="1386" xmlns:xlink="http://www.w3.org/1999/xlink" width="200" height="200"><defs><style type="text/css">@font-face { font-family: "feedback-iconfont"; src: url("//at.alicdn.com/t/font_1031158_u69w8yhxdu.woff2?t=1630033759944") format("woff2"), url("//at.alicdn.com/t/font_1031158_u69w8yhxdu.woff?t=1630033759944") format("woff"), url("//at.alicdn.com/t/font_1031158_u69w8yhxdu.ttf?t=1630033759944") format("truetype"); }
</style></defs><path d="M512 512m-470.032787 0a470.032787 470.032787 0 1 0 940.065574 0 470.032787 470.032787 0 1 0-940.065574 0Z" fill="#DEBF80" p-id="1387"></path><path d="M90.229508 476.667803a401.12682 390.635016 0 1 0 802.25364 0 401.12682 390.635016 0 1 0-802.25364 0Z" fill="#EDD598" p-id="1388"></path><path d="M512 62.95082c119.946492 0 232.708197 46.709508 317.523934 131.521049C914.339672 279.287607 961.04918 392.053508 961.04918 512c0 119.942295-46.709508 232.708197-131.525246 317.523934S631.942295 961.04918 512 961.04918c-247.606557 0-449.04918-201.442623-449.04918-449.04918S264.393443 62.95082 512 62.95082zM20.983607 512c0 270.747279 220.269115 491.016393 491.016393 491.016393 131.155934 0 254.459803-51.074098 347.194754-143.821639C951.938098 766.455607 1003.016393 643.155934 1003.016393 512s-51.074098-254.459803-143.821639-347.198951C766.459803 72.057705 643.155934 20.983607 512 20.983607 241.252721 20.983607 20.983607 241.252721 20.983607 512z" fill="#6E6E96" p-id="1389"></path><path d="M535.081967 283.278689m-86.032787 0a86.032787 86.032787 0 1 0 172.065574 0 86.032787 86.032787 0 1 0-172.065574 0Z" fill="#DEBF80" p-id="1390"></path><path d="M368.85823 667.731934m-105.371279 0a105.371279 105.371279 0 1 0 210.742557 0 105.371279 105.371279 0 1 0-210.742557 0Z" fill="#DEBF80" p-id="1391"></path><path d="M790.947672 549.770492m-41.312524 0a41.312525 41.312525 0 1 0 82.625049 0 41.312525 41.312525 0 1 0-82.625049 0Z" fill="#DEBF80" p-id="1392"></path><path d="M665.180328 736.52459m-58.754098 0a58.754098 58.754098 0 1 0 117.508196 0 58.754098 58.754098 0 1 0-117.508196 0Z" fill="#DEBF80" p-id="1393"></path><path d="M665.180328 698.754098c20.828328 0 37.770492 16.942164 37.770492 37.770492a37.543869 37.543869 0 0 1-11.066754 26.707935c-7.13023 7.126033-16.61482 11.062557-26.703738 11.062557s-19.573508-3.936525-26.703738-11.062557c-7.13023-7.134426-11.066754-16.619016-11.066754-26.707935s3.936525-19.573508 11.066754-26.707934a37.539672 37.539672 0 0 1 26.703738-11.062558z m-79.737705 37.770492c0 21.298361 8.296918 41.329311 23.350557 56.387148s35.080393 23.350557 56.387148 23.350557 41.329311-8.296918 56.387147-23.350557 23.350557-35.080393 23.350558-56.387148c0-43.969049-35.768656-79.737705-79.737705-79.737705-21.298361 0-41.329311 8.296918-56.387148 23.350558s-23.350557 35.088787-23.350557 56.387147z" fill="#6E6E96" p-id="1394"></path><path d="M283.278689 371.409836m-60.852459 0a60.852459 60.852459 0 1 0 121.704918 0 60.852459 60.852459 0 1 0-121.704918 0Z" fill="#DEBF80" p-id="1395"></path><path d="M283.278689 331.540984c21.982426 0 39.868852 17.886426 39.868852 39.868852S305.261115 411.278689 283.278689 411.278689 243.409836 393.392262 243.409836 371.409836s17.886426-39.868852 39.868853-39.868852zM201.442623 371.409836c0 45.123148 36.712918 81.836066 81.836066 81.836066S365.114754 416.532984 365.114754 371.409836 328.401836 289.57377 283.278689 289.57377 201.442623 326.286689 201.442623 371.409836z" fill="#6E6E96" p-id="1396"></path><path d="M522.73941 250.145574c26.271475-18.977574 58.317639-18.238951 81.601049 2.375344a67.760262 67.760262 0 0 0-7.361049-13.085377c-21.982426-30.42623-64.461639-37.275279-94.896262-15.288656-30.42623 21.982426-37.266885 64.470033-15.288656 94.892066a68.091803 68.091803 0 0 0 10.114098 11.104524c-12.258623-28.588066-0.440656-61.020328 25.83082-79.997901zM350.019148 624.501508c35.793836-20.270164 71.600262-14.130361 98.094163 15.129181a85.982426 85.982426 0 0 0-7.453377-17.542296c-23.468066-41.45941-76.103344-56.043016-117.56695-32.57495-41.45941 23.468066-56.043016 76.107541-32.574951 117.56695a86.695869 86.695869 0 0 0 11.196852 15.427148c-11.452852-37.783082 12.514623-77.752656 48.304263-98.006033z" fill="#BDA56C" p-id="1397"></path><path d="M535.081967 218.229508c35.869377 0 65.04918 29.179803 65.049181 65.049181S570.951344 348.327869 535.081967 348.327869 470.032787 319.148066 470.032787 283.278689 499.21259 218.229508 535.081967 218.229508zM428.065574 283.278689c0 59.010098 48.006295 107.016393 107.016393 107.016393S642.098361 342.288787 642.098361 283.278689 594.092066 176.262295 535.081967 176.262295 428.065574 224.26859 428.065574 283.278689zM368.85823 583.344262C415.387279 583.344262 453.245902 621.202885 453.245902 667.727738c0 46.533246-37.858623 84.383475-84.387672 84.383475s-84.387672-37.858623-84.387673-84.383475S322.32918 583.344262 368.85823 583.344262z m-126.354886 84.383476c0 69.673967 56.680918 126.350689 126.354886 126.350688S495.213115 737.401705 495.213115 667.727738C495.213115 598.05377 438.532197 541.377049 368.85823 541.377049s-126.354885 56.680918-126.354886 126.350689z" fill="#6E6E96" p-id="1398"></path><path d="M501.697049 852.328918m-41.312524 0a41.312525 41.312525 0 1 0 82.625049 0 41.312525 41.312525 0 1 0-82.625049 0Z" fill="#DEBF80" p-id="1399"></path><path d="M716.640525 460.405508m-20.370886 0a20.370885 20.370885 0 1 0 40.741771 0 20.370885 20.370885 0 1 0-40.741771 0Z" fill="#DEBF80" p-id="1400"></path><path d="M195.764459 525.454689m-20.370885 0a20.370885 20.370885 0 1 0 40.74177 0 20.370885 20.370885 0 1 0-40.74177 0Z" fill="#DEBF80" p-id="1401"></path><path d="M359.432393 262.295082m-20.370885 0a20.370885 20.370885 0 1 0 40.741771 0 20.370885 20.370885 0 1 0-40.741771 0Z" fill="#DEBF80" p-id="1402"></path><path d="M488.783738 457.442623m-41.312525 0a41.312525 41.312525 0 1 0 82.625049 0 41.312525 41.312525 0 1 0-82.625049 0Z" fill="#DEBF80" p-id="1403"></path><path d="M782.575213 227.563016m-41.312524 0a41.312525 41.312525 0 1 0 82.625049 0 41.312525 41.312525 0 1 0-82.625049 0Z" fill="#DEBF80" p-id="1404"></path></svg>