<?xml version="1.0" standalone="no"?><!DOCTYPE svg PUBLIC "-//W3C//DTD SVG 1.1//EN" "http://www.w3.org/Graphics/SVG/1.1/DTD/svg11.dtd"><svg t="1649680315747" class="icon" viewBox="0 0 1024 1024" version="1.1" xmlns="http://www.w3.org/2000/svg" p-id="1994" xmlns:xlink="http://www.w3.org/1999/xlink" width="200" height="200"><defs><style type="text/css">@font-face { font-family: "feedback-iconfont"; src: url("//at.alicdn.com/t/font_1031158_u69w8yhxdu.woff2?t=1630033759944") format("woff2"), url("//at.alicdn.com/t/font_1031158_u69w8yhxdu.woff?t=1630033759944") format("woff"), url("//at.alicdn.com/t/font_1031158_u69w8yhxdu.ttf?t=1630033759944") format("truetype"); }
</style></defs><path d="M810.476364 428.095704c0 46.691317-38.201986 84.893303-84.893303 84.893303H298.416939c-46.691317 0-84.893303-38.201986-84.893303-84.893303V127.339955c0-46.691317 38.201986-84.893303 84.893303-84.893303h427.166122c46.691317 0 84.893303 38.201986 84.893303 84.893303v300.755749zM125.735471 985.280164v-148.312845c0-102.860971 95.504966-187.028436 212.233258-187.028436h348.062542c116.728292 0 212.233258 84.163221 212.233258 187.028436v148.312845H125.735471z" fill="#E2E2F0" p-id="1995"></path><path d="M406.6559 512.989007h210.6882v136.949876H406.6559z" fill="#F0F0FF" p-id="1996"></path><path d="M406.6559 534.208088h210.6882a21.223326 21.223326 0 0 1-21.223326-21.223326v136.949877a21.223326 21.223326 0 0 1 21.223326-21.223326H406.6559a21.223326 21.223326 0 0 1 21.223326 21.223326v-136.949877a21.223326 21.223326 0 0 1-21.223326 21.223326z m0 136.954121h210.6882a21.223326 21.223326 0 0 0 21.223326-21.223326v-136.949876a21.223326 21.223326 0 0 0-21.223326-21.223326H406.6559a21.223326 21.223326 0 0 0-21.223326 21.223326v136.949876a21.223326 21.223326 0 0 0 21.223326 21.223326z" fill="#6E6E96" p-id="1997"></path><path d="M741.581204 389.600836c0 36.869162-30.162591 67.031752-67.031752 67.031752H337.25987c-36.869162 0-67.031752-30.162591-67.031752-67.031752V152.124554c0-36.864917 30.162591-67.031752 67.031752-67.031752h337.289582c36.869162 0 67.031752 30.162591 67.031752 67.031752v237.476282z" fill="#F0F0FF" p-id="1998"></path><path d="M373.314055 221.758286m-67.914642 0a67.914642 67.914642 0 1 0 135.829285 0 67.914642 67.914642 0 1 0-135.829285 0Z" fill="#BCBCD9" p-id="1999"></path><path d="M373.314055 175.06697c25.743894 0 46.691317 20.947423 46.691317 46.691316s-20.947423 46.691317-46.691317 46.691317-46.691317-20.947423-46.691316-46.691317 20.947423-46.691317 46.691316-46.691316z m-89.137968 46.691316c0 49.153222 39.984746 89.137968 89.137968 89.137968s89.137968-39.984746 89.137969-89.137968-39.984746-89.137968-89.137969-89.137968-89.137968 39.98899-89.137968 89.137968z" fill="#6E6E96" p-id="2000"></path><path d="M650.61803 226.002951m-67.914643 0a67.914642 67.914642 0 1 0 135.829285 0 67.914642 67.914642 0 1 0-135.829285 0Z" fill="#BCBCD9" p-id="2001"></path><path d="M650.61803 179.311635c25.743894 0 46.691317 20.947423 46.691317 46.691316s-20.947423 46.691317-46.691317 46.691317-46.691317-20.947423-46.691317-46.691317 20.947423-46.691317 46.691317-46.691316z m-89.137968 46.691316c0 49.153222 39.98899 89.137968 89.137968 89.137969s89.137968-39.984746 89.137968-89.137969-39.98899-89.137968-89.137968-89.137968-89.137968 39.98899-89.137968 89.137968zM415.760707 366.076901h191.009932v42.446652h-191.009932zM84.676825 247.226277h128.846811v42.446652H84.676825zM810.476364 247.226277h123.133492v42.446652h-123.133492z" fill="#6E6E96" p-id="2002"></path><path d="M183.038451 913.120857v-88.153206c0-72.919103 79.791216-132.569382 177.308152-132.569382h290.789276c97.525427 0 177.303908 59.658769 177.303908 132.569382v88.153206H183.038451z" fill="#F0F0FF" p-id="2003"></path><path d="M146.958797 985.280164v-148.312845c0-91.425843 85.687055-165.80511 191.009932-165.80511h348.062542c105.318632 0 191.009932 74.379267 191.009932 165.80511v148.312845a21.223326 21.223326 0 0 1 21.223326-21.223325H125.735471a21.223326 21.223326 0 0 1 21.223326 21.223325z m772.529058 0v-148.312845c0-114.830926-104.728623-208.251762-233.456584-208.251761H337.968729c-128.72796 0-233.456583 93.42508-233.456584 208.251761v148.312845a21.223326 21.223326 0 0 0 21.223326 21.223326h772.529058a21.223326 21.223326 0 0 0 21.223326-21.223326z" fill="#6E6E96" p-id="2004"></path><path d="M373.314055 816.011408h288.637231v165.54194h-288.637231z" fill="#96D8FF" p-id="2005"></path><path d="M373.314055 837.234733h288.637231l-21.223326-21.223325v165.54194l21.223326-21.223325h-288.637231l21.223326 21.223325v-165.54194l-21.223326 21.223325z m0 165.541941h309.860557v-207.988592h-331.083882v207.988592h21.223325zM789.253038 428.095704c0 35.107625-28.562352 63.669977-63.669977 63.669977H298.416939c-35.107625 0-63.669977-28.562352-63.669977-63.669977V127.339955c0-35.107625 28.562352-63.669977 63.669977-63.669978h427.166122c35.107625 0 63.669977 28.562352 63.669977 63.669978v300.755749z m42.446652-300.755749c0-58.512709-47.60392-106.116629-106.116629-106.116629H298.416939c-58.512709 0-106.116629 47.60392-106.116629 106.116629v300.755749c0 58.512709 47.60392 106.116629 106.116629 106.116629h427.166122c58.512709 0 106.116629-47.59543 106.116629-106.116629V127.339955z" fill="#6E6E96" p-id="2006"></path><path d="M394.537381 837.234733h246.190579v37.684138h-246.190579z" fill="#6E6E96" opacity=".15" p-id="2007"></path><path d="M674.549452 85.097047H337.25987c-36.869162 0-67.031752 30.162591-67.031752 67.031752v29.712656c0-36.864917 30.162591-67.031752 67.031752-67.031752h337.289582c36.869162 0 67.031752 30.162591 67.031752 67.031752v-29.712656c0-36.869162-30.166835-67.031752-67.031752-67.031752z" fill="#FFFFFF" opacity=".54" p-id="2008"></path><path d="M426.37237 874.918871H495.021339v36.079653H426.37237z" fill="#FFFFFF" opacity=".4" p-id="2009"></path></svg>