<?xml version="1.0" standalone="no"?><!DOCTYPE svg PUBLIC "-//W3C//DTD SVG 1.1//EN" "http://www.w3.org/Graphics/SVG/1.1/DTD/svg11.dtd"><svg t="1649679254065" class="icon" viewBox="0 0 1024 1024" version="1.1" xmlns="http://www.w3.org/2000/svg" p-id="9599" xmlns:xlink="http://www.w3.org/1999/xlink" width="200" height="200"><defs><style type="text/css">@font-face { font-family: "feedback-iconfont"; src: url("//at.alicdn.com/t/font_1031158_u69w8yhxdu.woff2?t=1630033759944") format("woff2"), url("//at.alicdn.com/t/font_1031158_u69w8yhxdu.woff?t=1630033759944") format("woff"), url("//at.alicdn.com/t/font_1031158_u69w8yhxdu.ttf?t=1630033759944") format("truetype"); }
</style></defs><path d="M545.214962 864.092997c-5.017843 0-10.015687-0.091997-14.999531-0.275991-21.289335-0.785975-37.76882-15.561514-36.81085-33.000969 0.95997-17.439455 18.987407-30.915034 40.282741-30.155058 59.51614 2.219931 122.682166-12.47561 173.314584-40.252742 52.608356-28.863098 87.649261-69.553826 98.668917-114.570419 7.805756-31.891003-0.843974-79.251523-32.246992-104.212744-10.369676-8.243742-28.7851-14.293553-49.262461-16.185494-16.95947-1.569951-38.650792 0.715978-61.618074 3.131902-20.725352 2.179932-42.136683 4.46586-63.890004 4.343864-21.309334-0.085997-38.500797-14.307553-38.3948-31.765007 0.103997-17.403456 17.359458-31.455017 38.580794-31.455017 0.353989-0.002 0.697978 0.004 1.049967 0.002 16.373488 0 34.092935-1.861942 52.832349-3.83388 26.495172-2.785913 53.888316-5.669823 80.087498-3.245899 21.993313 2.031937 63.494016 9.103716 94.355051 33.634949 53.966314 42.896659 65.91194 114.054436 54.172307 162.014937-15.05553 61.514078-61.718071 116.446361-131.391894 154.671167-59.806131 32.808975-133.629824 51.152401-204.729602 51.154401z" fill="#F79595" p-id="9600"></path><path d="M881.336458 658.25543c-15.059529 61.516078-61.716071 116.450361-131.391894 154.689165-59.802131 32.792975-133.625824 51.144402-204.735602 51.144402-5.005844 0-10.013687-0.079998-14.999531-0.279991-9.733696-0.357989-18.451423-3.629887-24.97322-8.755726h0.417987c71.091778 0 144.915471-18.331427 204.735602-51.144402 69.675823-38.238805 116.330365-93.173088 131.391894-154.669167 11.729633-47.972501-0.219993-119.124277-54.176307-162.028936-13.743571-10.911659-29.621074-18.371426-44.920596-23.457267 23.099278 3.111903 57.766195 11.269648 84.47536 32.492984 53.976313 42.904659 65.903941 114.056436 54.176307 162.008938z" fill="#F47C7C" p-id="9601"></path><path d="M187.566139 957.148089l22.05731 36.872848a30.71504 30.71504 0 0 0 26.359177 14.947533h363.678635a30.71504 30.71504 0 0 0 26.359176-14.947533l22.057311-36.872848c6.383801-10.671667-1.303959-24.227243-13.739571-24.227243H201.305709c-12.435611-0.002-20.123371 13.555576-13.73957 24.227243z" fill="#6ED5A1" p-id="9602"></path><path d="M648.075748 957.142089l-22.061311 36.882848a30.699041 30.699041 0 0 1-26.349177 14.939533h-44.660604a30.695041 30.695041 0 0 0 26.349177-14.939533l22.06131-36.882848c6.383801-10.671667-1.29596-24.215243-13.74357-24.215243h44.660604c12.445611 0 20.125371 13.543577 13.743571 24.215243z" fill="#46CC8D" p-id="9603"></path><path d="M681.226712 359.316771H154.415175a13.995563 13.995563 0 0 0-13.981564 13.235587c-3.763882 69.939814-13.789569 399.34552 118.756289 560.366488h317.262086c132.545858-161.020968 122.520171-490.428674 118.756289-560.366488a13.995563 13.995563 0 0 0-13.981563-13.235587z" fill="#EE6161" p-id="9604"></path><path d="M576.445986 932.926846h-39.894753c132.547858-161.032968 122.534171-490.438674 118.764288-560.372488a14.005562 14.005562 0 0 0-13.983563-13.245586h39.894754a14.007562 14.007562 0 0 1 13.983563 13.245586c3.769882 69.933815 13.783569 399.339521-118.764289 560.372488z" fill="#E94444" p-id="9605"></path><path d="M449.715946 696.154245h-63.788006l-13.501578 131.685885a8.789725 8.789725 0 0 0 8.697728 10.043686h73.395706a8.787725 8.787725 0 0 0 8.697728-10.043686z" fill="#E49280" p-id="9606"></path><path d="M454.521796 837.879816h-34.810912a8.783726 8.783726 0 0 0 8.703728-10.037686l-13.505578-131.687885h34.810912l13.487579 131.687885c0.781976 5.305834-3.327896 10.037686-8.685729 10.037686z" fill="#DD7F66" p-id="9607"></path><path d="M344.901222 589.635574c-33.214962 30.973032-67.655886 71.733758-72.821724 103.482766-2.061936 12.673604 4.673854 25.187213 16.257491 30.72304 5.147839 2.459923 11.611637 5.339833 19.251399 8.33374 71.657761 28.085122 151.499266 27.717134 222.917034-0.97397a289.118965 289.118965 0 0 0 16.801475-7.36177c11.575638-5.533827 18.305428-18.009437 16.259492-30.675041-5.295835-32.776976-40.206744-71.99175-74.531671-103.528765z" fill="#46CC8D" p-id="9608"></path><path d="M547.308897 723.83738a289.064967 289.064967 0 0 1-16.803475 7.36977c-4.375863 1.755945-8.767726 3.399894-13.209587 4.961845 7.67776-7.287772 11.711634-18.691416 10.069685-30.241055-5.237836-36.780851-39.578763-80.751477-73.6097-116.294366h35.282898c34.324927 31.543014 69.233836 70.761789 74.519671 103.540764 2.051936 12.653605-4.667854 25.131215-16.249492 30.663042z" fill="#00C27A" p-id="9609"></path><path d="M530.451423 575.292022c-6.451798-42.068685-76.607606-98.060936-102.822786-117.672323a16.367489 16.367489 0 0 0-19.615387 0c-26.215181 19.611387-96.370988 75.603637-102.822787 117.672323-1.483954 9.673698 3.789882 19.121402 12.619605 23.341271 3.325896 1.58995 7.36177 3.405894 12.045624 5.309834a233.698697 233.698697 0 0 0 175.926502 0c4.683854-1.903941 8.719728-3.719884 12.045624-5.309834 8.833724-4.221868 14.107559-13.667573 12.623605-23.341271z" fill="#6ED5A1" p-id="9610"></path><path d="M517.831818 598.627293a220.019124 220.019124 0 0 1-12.053624 5.319834 213.097341 213.097341 0 0 1-9.25571 3.529889c4.115871-4.863848 6.149808-11.321646 5.139839-17.877441-6.603794-43.042655-78.359551-100.304865-105.168713-120.378238a14.319553 14.319553 0 0 0-1.93594-1.235962 583.725759 583.725759 0 0 1 13.45358-10.361676 16.349489 16.349489 0 0 1 19.619387 0c26.207181 19.601387 96.366989 75.593638 102.824786 117.662323 1.481954 9.675698-3.789882 19.127402-12.623605 23.341271z" fill="#46CC8D" p-id="9611"></path><path d="M603.311147 359.316771c1.475954-24.071248-5.543827-48.192494-17.345458-69.225836-19.181401-34.186932-55.848255-67.133902-88.63923-88.01525-8.113746-5.165839-69.403831-44.122621-72.819725-20.829349-1.865942 12.759601-5.639824 25.189213-12.449611 36.068873-24.087247 38.492797-72.96172 30.41105-110.332552 43.362645-45.12059 15.637511-63.000031 55.160276-69.587825 98.636917h371.174401z" fill="#F3F0F3" p-id="9612"></path><path d="M603.313146 359.308772h-43.304646c1.475954-24.055248-5.545827-48.192494-17.353458-69.215837-19.169401-34.188932-60.420112-58.106184-93.213087-78.989532-3.2119-2.053936-14.801537-9.415706-27.807131-16.097497a110.972532 110.972532 0 0 0 2.87191-13.76357c3.411893-23.277273 64.707978 15.67951 72.825724 20.845349 32.772976 20.865348 69.45583 53.816318 88.625231 88.00525 11.811631 21.025343 18.831412 45.160589 17.355457 69.215837z" fill="#E2DEE2" p-id="9613"></path><path d="M529.747445 608.96097c11.403644-8.061748 17.663448-22.045311 15.531515-35.940877v-0.004c-6.953783-45.328583-71.065779-99.280897-108.664604-127.410018-11.069654-8.279741-26.523171-8.271742-37.586826 0-87.591263 65.529952-105.676698 107.954626-108.662604 127.410018-2.095935 13.655573 3.921877 27.385144 14.953533 35.506891-21.723321 24.265242-43.550639 54.578294-48.044499 82.189431-3.101903 19.071404 7.013781 38.260804 24.595232 46.664542a307.642386 307.642386 0 0 0 20.247367 8.765726 318.548045 318.548045 0 0 0 61.834068 17.28946l-6.4238 62.648042a23.769257 23.769257 0 0 0 5.611825 18.589419 23.771257 23.771257 0 0 0 17.985438 8.217743h73.395706c6.903784 0 13.459579-2.993906 17.979438-8.213743a23.779257 23.779257 0 0 0 5.617825-18.591419l-6.423799-62.648042a318.950033 318.950033 0 0 0 64.403987-18.309428 306.090435 306.090435 0 0 0 17.679447-7.747758c17.559451-8.393738 27.675135-27.555139 24.601232-46.602544-3.773882-23.36127-20.107372-50.788413-48.630481-81.813443z m-209.729446-31.395019c2.965907-19.325396 29.999063-57.826193 96.98097-107.934627a1.359958 1.359958 0 0 1 1.643948 0c66.979907 50.104434 94.015062 88.609231 96.98297 107.932627 0.459986 3.015906-1.29196 6.115809-4.261867 7.535765a205.627574 205.627574 0 0 1-11.229649 4.949845c-53.076341 21.583326-111.544514 21.581326-164.620856 0.002a208.475485 208.475485 0 0 1-11.233649-4.951845c-2.969907-1.421956-4.725852-4.519859-4.261867-7.533765z m67.993876 245.316334l5.713821-55.734258c8.01575 0.613981 16.049498 0.939971 24.081248 0.93997 8.041749 0 16.081497-0.32399 24.107246-0.93997l5.713822 55.734258z m152.831224-112.578482a276.075373 276.075373 0 0 1-15.927503 6.979782c-68.219868 27.405144-143.455517 27.733133-211.849379 0.927971a275.297397 275.297397 0 0 1-18.25543-7.901753c-5.643824-2.697916-8.901722-8.775726-7.923752-14.779538 3.029905-18.611418 20.197369-45.272585 47.150526-73.94569 27.20715 9.767695 55.494266 14.665542 83.787382 14.665542 27.979126 0 55.956251-4.781851 82.88341-14.333552 28.189119 29.207087 45.018593 54.850286 48.054498 73.643699 0.96397 5.987813-2.293928 12.053623-7.919752 14.743539z" p-id="9614"></path><path d="M836.49586 484.506859c-33.90894-26.955158-78.655542-34.644917-102.308803-36.826849-7.35577-0.681979-14.747539-0.935971-22.147308-0.937971 0.025999-33.228962-1.015968-59.422143-1.853942-74.993656-0.825974-15.381519-13.547577-27.431143-28.959095-27.431143h-63.03803c-1.427955-20.553358-7.913753-41.556701-19.139402-61.564076-18.415425-32.816974-53.43033-67.705884-93.665073-93.327084-60.308115-38.4008-76.553608-30.963032-82.675417-28.163119-7.105778 3.249898-11.859629 9.743696-13.043592 17.815443-1.745945 11.935627-5.219837 22.123309-10.323677 30.283053-11.991625 19.165401-32.472985 23.719259-60.102122 28.059124a15.003531 15.003531 0 0 0 4.655854 29.639073c27.043155-4.247867 60.702103-9.533702 80.877473-41.782694 6.4058-10.23568 10.959658-22.291303 13.573576-35.902878 8.189744 1.887941 25.563201 9.211712 50.924408 25.359208 27.989125 17.823443 64.65398 48.906472 83.615387 82.701415 8.661729 15.437518 13.825568 31.405019 15.231524 46.884535h-337.789444c6.511797-26.815162 17.93344-45.962564 34.674917-58.256179a15.001531 15.001531 0 0 0-17.757445-24.179245c-24.223243 17.787444-39.850755 44.856598-47.626512 82.435424h-65.197963c-15.415518 0-28.133121 12.049623-28.959095 27.429143-2.025937 37.640824-5.265835 137.219712 8.349739 248.656229 15.585513 127.542014 47.67051 227.404894 95.475017 297.518703H201.309709c-11.311647 0-21.395331 5.875816-26.973157 15.713509-5.579826 9.839693-5.44583 21.509328 0.361989 31.217024l22.05731 36.870848c8.207744 13.723571 23.241274 22.249305 39.232774 22.249305h363.676635c15.9915 0 31.023031-8.523734 39.234774-22.247305l22.057311-36.872848c5.807819-9.707697 5.941814-21.375332 0.361989-31.217024-5.577826-9.837693-15.663511-15.713509-26.975157-15.713509h-27.973126c10.009687-14.681541 19.321396-30.687041 27.945127-47.958501 43.790632-8.805725 86.159308-23.743258 122.85216-43.874629 73.403706-40.270742 122.676166-98.604919 138.747665-164.256867 12.829599-52.458361-0.285991-130.323927-59.420143-177.326459zM634.336177 947.920377c0.233993 0 0.589982 0 0.877973 0.511984 0.289991 0.511984 0.109997 0.813975-0.012 1.013969l-22.057311 36.872848a15.791507 15.791507 0 0 1-13.487578 7.647761H235.980626a15.789507 15.789507 0 0 1-13.485579-7.647761l-22.057311-36.872848c-0.121996-0.199994-0.301991-0.503984-0.011999-1.013969 0.289991-0.511984 0.64198-0.511984 0.875972-0.511984z m-65.075966-30.001062H266.383676c-124.264117-158.547045-114.486422-477.873066-111.020531-543.603012h524.915596c3.467892 65.727946 13.245586 385.053967-111.01853 543.603012z m297.504703-263.221774c-14.045561 57.382207-58.096184 108.910597-124.036124 145.087466-28.099122 15.415518-59.808131 27.543139-92.913097 35.936877 5.261836-12.835599 10.191682-26.277179 14.803538-40.284741 17.363457-6.053811 34.054936-13.351583 49.59845-21.879317 14.603544-8.01175 28.135121-17.023468 40.218743-26.787163 6.445799-5.205837 7.449767-14.651542 2.24193-21.09534s-14.647542-7.451767-21.095341-2.24193c-10.703666 8.64573-22.747289 16.661479-35.796881 23.821255-7.791757 4.273866-15.921502 8.185744-24.271242 11.793632 11.337646-41.774695 20.133371-88.023249 26.319178-138.649667 3.399894-27.817131 5.74782-54.894285 7.327771-80.455486 4.879848-0.073998 9.451705 0.041999 13.619574 0.427986 20.827349 1.92594 34.994906 7.975751 41.308709 12.993594 25.555201 20.313365 33.800944 61.156089 27.011156 88.905222-2.785913 11.385644-7.36977 22.641292-13.621574 33.460954a14.999531 14.999531 0 0 0 25.973188 15.013531c7.67776-13.281585 13.327584-27.19115 16.789475-41.338708 9.135715-37.328833-0.805975-90.371176-37.484828-119.524265-12.747602-10.133683-33.60295-17.197463-57.214212-19.379394-4.689853-0.433986-9.665698-0.579982-14.835537-0.545983 0.477985-11.50764 0.813975-22.613293 1.025968-33.210962 6.659792-0.006 13.247586 0.213993 19.695385 0.807974 20.327365 1.877941 58.582169 8.32974 86.3993 30.441049 48.800475 38.786788 59.576138 103.236774 48.936471 146.703416z" p-id="9615"></path><path d="M271.67351 30.001062H733.573076c15.487516 0 28.087122 12.599606 28.087122 28.087123s-12.599606 28.087122-28.087122 28.087122H408.119246c-48.362489 0-87.711259 39.34477-87.711259 87.707259 0 8.285741 6.71579 14.999531 15.001531 14.999531s14.999531-6.71379 14.999532-14.999531c0-31.819006 25.887191-57.706197 57.710196-57.706197h325.45583c32.030999 0 58.088185-26.057186 58.088185-58.088184S765.604075 0 733.575076 0H271.67351a14.999531 14.999531 0 1 0 0 30.001062z" p-id="9616"></path></svg>