<?xml version="1.0" standalone="no"?><!DOCTYPE svg PUBLIC "-//W3C//DTD SVG 1.1//EN" "http://www.w3.org/Graphics/SVG/1.1/DTD/svg11.dtd"><svg t="1649679172287" class="icon" viewBox="0 0 1024 1024" version="1.1" xmlns="http://www.w3.org/2000/svg" p-id="6683" xmlns:xlink="http://www.w3.org/1999/xlink" width="200" height="200"><defs><style type="text/css">@font-face { font-family: "feedback-iconfont"; src: url("//at.alicdn.com/t/font_1031158_u69w8yhxdu.woff2?t=1630033759944") format("woff2"), url("//at.alicdn.com/t/font_1031158_u69w8yhxdu.woff?t=1630033759944") format("woff"), url("//at.alicdn.com/t/font_1031158_u69w8yhxdu.ttf?t=1630033759944") format("truetype"); }
</style></defs><path d="M822.188058 395.629727l-598.473689 598.471689c-19.936389 19.936389-52.267021 19.936389-72.20141 0-19.936389-19.936389-19.936389-52.267021 0-72.20341l598.471689-598.471689c47.156921-47.156921 47.142921-123.89042-0.014-171.047341s-123.876419-47.156921-171.033341 0l-47.070919 47.07092c-19.934389 19.934389-52.267021 19.934389-72.20141 0-19.95039-19.95039-19.95039-52.281021-0.014-72.217411l47.070919-47.070919c86.971699-86.971699 228.496463-86.969699 315.466161 0 86.983699 86.985699 86.969699 228.496463 0 315.468161z" fill="#EE6161" p-id="6684"></path><path d="M822.192058 395.627727L223.710369 994.111416c-17.372339 17.370339-44.186863 19.608383-63.973249 6.66813a50.652989 50.652989 0 0 0 8.20616-6.66813L766.424969 395.627727c86.975699-86.975699 86.975699-228.478462 0-315.474162-36.398711-36.398711-82.343608-57.545124-129.844536-63.455239 66.009289-8.266161 135.034637 12.878252 185.609625 63.455239 86.977699 86.995699 86.957698 228.500463 0.002 315.474162z" fill="#E94444" p-id="6685"></path><path d="M564.391023 166.92726l-32.524635 32.524636c-19.934389 19.934389-52.267021 19.934389-72.20141 0-19.95039-19.95039-19.95039-52.281021-0.014-72.217411l32.524635-32.524635zM743.024512 330.386453l6.960136-6.960136c20.866408-20.866408 32.500635-47.522928 34.900682-74.857462l100.807969 17.082333a222.264341 222.264341 0 0 1-28.236552 84.119643zM794.727522 423.090263l-76.015485 76.013485-123.494412-20.908408 76.027485-76.029485zM646.904635 570.911151l-76.013485 76.015484-123.496412-20.910408 76.029485-76.029485zM499.097748 718.720038l-76.015485 76.013484-123.494412-20.908408 76.027485-76.029485zM351.274861 866.540925l-75.999485 75.999484-123.496412-20.908408 76.015485-76.015485zM683.331346 118.494314c-29.494576-4.644091-60.385179 1.652032-86.081681 18.848368l-12.198238-107.894107a223.74437 223.74437 0 0 1 86.575691-14.372281zM855.492709 122.702397l-76.479494 76.479493c-5.746112-17.126334-15.432301-33.192648-29.042567-46.802914a120.270349 120.270349 0 0 0-27.502537-20.612402l73.825442-73.825442a222.674349 222.674349 0 0 1 25.894505 22.222434 221.964335 221.964335 0 0 1 33.304651 42.538831z" fill="#F3F0F3" p-id="6686"></path><path d="M885.687299 265.645188c-0.220004 1.776035-0.460009 3.554069-0.718014 5.332105-2.414047 16.538323-6.908135 33.140647-12.998254 48.67495a231.474521 231.474521 0 0 1-11.74023 25.180492 169.871318 169.871318 0 0 1-2.776054 4.932096l-50.994996-8.646169a222.802352 222.802352 0 0 0 24.418477-84.757655zM794.719522 423.082263l-76.013485 76.013485-47.680931-8.066158 76.033485-76.033485zM646.904635 570.917151l-76.013485 76.013484-47.700931-8.068157 76.033485-76.033485zM499.091748 718.710037l-76.013485 76.033485-47.680931-8.086158 76.013485-76.013484zM351.278861 866.542925l-75.993484 75.993484-47.700932-8.066158 76.013485-76.013484zM672.663138 24.246474a224.228379 224.228379 0 0 0-36.080705-7.548148c1.718034-0.200004 3.434067-0.400008 5.152101-0.580011 5.878115-0.614012 11.608227-1.00002 17.470341-1.098022h9.904194c0.680013 0 1.338026 0.02 2.016039 0.040001 0.160003 0 0.340007 0 0.50001 0.020001zM855.496709 122.704397l-37.676736 37.656735c-10.182199-27.674541-26.076509-53.731049-47.62093-76.333491l26.09651-26.09651c1.138022 0.838016 2.256044 1.676033 3.376066 2.53605a256.137003 256.137003 0 0 1 15.114295 12.618246c0.778015 0.698014 1.55803 1.418028 2.316045 2.156043 5.61611 5.464107 11.048216 10.876212 16.178316 16.816328a224.464384 224.464384 0 0 1 20.4804 27.810543c0.578011 0.938018 1.158023 1.896037 1.736034 2.836056z" fill="#E2DEE2" p-id="6687"></path><path d="M832.778265 69.573359c-36.520713-36.520713-82.835618-59.737167-133.938616-67.137311-49.370964-7.14814-100.779968 1.55603-144.734827 24.518478-7.330143 3.828075-10.168199 12.876251-6.338123 20.206395s12.880252 10.170199 20.206394 6.338124c1.478029-0.772015 2.982058-1.490029 4.478088-2.226044l8.942174 79.085545a136.238661 136.238661 0 0 0-13.044254 11.430223l-3.956078 3.956078-51.036997-51.036997 3.332066-3.332065a14.976293 14.976293 0 0 0-21.178414-21.178414L449.062771 116.642278c-12.472244 12.470244-19.338378 29.052567-19.336378 46.692912 0.002 17.638344 6.874134 34.224668 19.350378 46.700912 12.470244 12.470244 29.050567 19.336378 46.688912 19.336378s34.220668-6.868134 46.688912-19.336378l47.070919-47.072919c41.310807-41.314807 108.53612-41.316807 149.854927 0 19.98039 19.98039 30.984605 46.59291 30.988605 74.937463s-10.998215 54.955073-30.976605 74.933464L140.920752 911.309799c-25.744503 25.744503-25.744503 67.635321 0 93.379824 12.874251 12.874251 29.780582 19.310377 46.690912 19.308377 16.90633-0.002 33.818661-6.438126 46.690912-19.308377L832.776265 406.215934c92.813813-92.811813 92.813813-243.828762 0.002-336.642575zM521.276181 188.861689a35.8367 35.8367 0 0 1-25.510498 10.564206c-9.640188 0-18.698365-3.752073-25.512498-10.564206a35.868701 35.868701 0 0 1-10.578207-25.528499 35.8267 35.8267 0 0 1 10.564206-25.510498l21.936429-21.934429 51.036997 51.036997z m143.612805-86.803696c-0.580011-0.002-1.158023 0.014-1.738034 0.020001a139.606727 139.606727 0 0 0-10.586207 0.500009 135.400645 135.400645 0 0 0-27.17453 5.168101c-1.676033 0.50201-3.340065 1.04202-4.998098 1.610032a135.16864 135.16864 0 0 0-8.480166 3.222063c-0.760015 0.318006-1.53203 0.602012-2.286044 0.936018l-8.340163-73.773441a211.630133 211.630133 0 0 1 56.967113-9.656188l8.144159 71.957405c-0.50201-0.01-1.00402 0.018-1.50803 0.016z m54.551066 11.558226a135.558648 135.558648 0 0 0-22.456439-7.646149l-8.448165-74.641458c2.006039 0.230004 4.012078 0.460009 6.012117 0.748014 28.124549 4.07408 54.587066 13.640266 78.30153 28.13055z m49.656969 37.566734c-6.64813-8.028157-14.652286-15.696307-22.868446-21.860427l-0.078002-0.060001 51.351003-51.351003c0.198004 0.166003 0.400008 0.324006 0.598012 0.490009 1.738034 1.458028 3.442067 2.962058 5.1381 4.482088a209.978101 209.978101 0 0 1 27.13653 29.418574 206.560034 206.560034 0 0 1 6.004118 8.340163l-52.427024 52.425024c-0.820016-1.51603-1.680033-3.028059-2.576051-4.532088a139.010715 139.010715 0 0 0-12.27824-17.352339zM270.153276 926.486095l-87.271704-14.776288 50.034977-50.034977 87.261704 14.786288z m-57.027113 57.027114c-14.068275 14.068275-36.960722 14.066275-51.026997 0-12.406242-12.404242-13.856271-31.662618-4.382086-45.688892l86.457689 14.638286z m133.028598-133.028598l-87.263705-14.786289 45.818895-45.818895 87.273705 14.776289z m71.805402-71.805402l-87.271704-14.776289 50.050977-50.050978 87.263705 14.786289z m76.015485-76.017485l-87.263704-14.786289 45.804894-45.804895 87.273705 14.776289z m147.808887-147.806887l-16.348319-2.770054a14.984293 14.984293 0 0 0-17.266338 12.262239 14.984293 14.984293 0 0 0 8.17016 15.950312l-50.572988 50.572988-87.271704-14.776289 50.050977-50.050977 21.348417 3.61607a14.974292 14.974292 0 1 0 5.004098-29.528577l-0.380008-0.064001 45.818895-45.818895 87.273705 14.776289z m71.805402-71.805402l-87.271704-14.776289 50.050977-50.050978 87.261705 14.786289z m98.007915-98.007915l-21.99243 21.99243-87.263704-14.786289 45.804894-45.804895 84.281646 14.278279a209.020082 209.020082 0 0 1-20.830406 24.320475z m56.827109-106.368077a206.632036 206.632036 0 0 1-8.442164 30.358593 201.765941 201.765941 0 0 1-10.562207 24.190472l-76.7995-13.010254 0.098002-0.136003a134.290623 134.290623 0 0 0 24.722483-54.191058l71.129389 12.052235-0.146003 0.736015z m-68.13533-42.680834a137.068677 137.068677 0 0 0-4.366086-32.542635l55.959093-55.959093c15.218297 31.622618 21.978429 66.323295 20.298397 100.683966z" p-id="6688"></path></svg>