<?xml version="1.0" standalone="no"?><!DOCTYPE svg PUBLIC "-//W3C//DTD SVG 1.1//EN" "http://www.w3.org/Graphics/SVG/1.1/DTD/svg11.dtd"><svg t="1649679192879" class="icon" viewBox="0 0 1024 1024" version="1.1" xmlns="http://www.w3.org/2000/svg" p-id="7465" xmlns:xlink="http://www.w3.org/1999/xlink" width="200" height="200"><defs><style type="text/css">@font-face { font-family: "feedback-iconfont"; src: url("//at.alicdn.com/t/font_1031158_u69w8yhxdu.woff2?t=1630033759944") format("woff2"), url("//at.alicdn.com/t/font_1031158_u69w8yhxdu.woff?t=1630033759944") format("woff"), url("//at.alicdn.com/t/font_1031158_u69w8yhxdu.ttf?t=1630033759944") format("truetype"); }
</style></defs><path d="M512 1009.064c-20.1 0-36.394-16.294-36.394-36.394V645.696h72.79v326.974c-0.002 20.1-16.296 36.394-36.396 36.394z" fill="#F3F0F3" p-id="7466"></path><path d="M548.404 645.69v326.978c0 20.094-16.31 36.404-36.404 36.404-6.632 0-12.844-1.772-18.202-4.88 10.894-6.292 18.202-18.062 18.202-31.524V645.69z" fill="#E2DEE2" p-id="7467"></path><path d="M512 301.342m-286.396 0a286.396 286.396 0 1 0 572.792 0 286.396 286.396 0 1 0-572.792 0Z" fill="#6ED5A1" p-id="7468"></path><path d="M798.094 314.396c-7.21 158.018-141.142 280.254-299.142 273.046a287.52 287.52 0 0 1-65.482-10.608c8.354 1.108 16.84 1.878 25.438 2.272 158.018 7.21 291.95-115.046 299.16-273.046C764.244 170.758 675.5 53.102 550.656 17.544c145.402 19.638 254.252 147.506 247.438 296.852z" fill="#46CC8D" p-id="7469"></path><path d="M511.666 676.382c-9.002 41.906-30.048 85.844-46.016 125.704-7.94 19.824-22.652 42.216-47.48 38.564-7.162-1.054-13.888-4.054-20.272-7.464-29.636-15.83-43.222-39.58-27.294-70.816 10.498-20.586 19.31-44.606 32.932-63.21z" fill="#EE6161" p-id="7470"></path><path d="M511.664 676.39c-9 41.896-30.05 85.838-46.006 125.688-7.94 19.824-22.668 42.232-47.494 38.568-7.16-1.042-13.892-4.054-20.27-7.456a103 103 0 0 1-4.036-2.27c16.81-4.444 27.522-21.98 33.9-37.88 13.686-34.198 31.13-71.408 41.468-107.724z" fill="#E94444" p-id="7471"></path><path d="M512.334 676.382c9.002 41.906 30.048 85.844 46.016 125.704 7.94 19.824 22.652 42.216 47.48 38.564 7.162-1.054 13.888-4.054 20.272-7.464 29.636-15.83 43.222-39.58 27.294-70.816-10.498-20.586-19.31-44.606-32.932-63.21z" fill="#EE6161" p-id="7472"></path><path d="M626.102 833.188c-6.378 3.402-13.11 6.416-20.27 7.456a33.596 33.596 0 0 1-8.48 0.224c23.616-17.034 32.766-40.614 17.944-70.44-8.424-16.922-24.062-54.17-37.488-80.26l42.658 8.982c13.612 18.614 22.426 42.64 32.934 63.226 15.92 31.222 2.344 54.988-27.298 70.812z" fill="#E94444" p-id="7473"></path><path d="M412.39 536.234c-34.442-9.288-69.158-2.964-88.04 21.674-28.076 36.638-28.116 106.366 0.002 143.058 18.88 24.638 53.596 30.962 88.038 21.672 39.236-10.582 61.248-33.602 84.078-58.722V594.956c-22.832-25.12-44.844-48.142-84.078-58.722z" fill="#EE6161" p-id="7474"></path><path d="M496.472 594.958v68.952c-7.364 8.09-14.634 15.974-22.446 23.3H452.92c-19.024 0-34.57-15.564-34.57-34.588v-46.378c0-19.024 15.546-34.57 34.57-34.57h21.124c7.794 7.312 15.064 15.196 22.428 23.284z" fill="#E94444" p-id="7475"></path><path d="M611.61 536.234c34.442-9.288 69.158-2.964 88.04 21.674 28.076 36.638 28.116 106.366-0.002 143.058-18.88 24.638-53.596 30.962-88.038 21.672-39.236-10.582-61.248-33.602-84.078-58.722V594.956c22.83-25.12 44.842-48.142 84.078-58.722z" fill="#EE6161" p-id="7476"></path><path d="M699.648 700.974c-18.874 24.64-53.592 30.962-88.032 21.664-11.194-3.03-20.976-7.048-29.79-11.864 31.688 6.304 62.538-0.856 79.924-23.56 28.116-36.69 28.08-106.424 0-143.058a60.348 60.348 0 0 0-11.734-11.604c20.084 1.822 37.898 10.06 49.632 25.364 28.08 36.634 28.118 106.368 0 143.058z" fill="#E94444" p-id="7477"></path><path d="M535.19 687.204h-46.382c-19.016 0-34.576-15.56-34.576-34.576v-46.382c0-19.016 15.56-34.576 34.576-34.576h46.382c19.016 0 34.576 15.56 34.576 34.576v46.382c0 19.016-15.558 34.576-34.576 34.576z" fill="#EE6161" p-id="7478"></path><path d="M569.758 606.246v46.378c0 19.024-15.546 34.588-34.57 34.588h-37.192c19.024 0 34.57-15.564 34.57-34.588v-46.378c0-19.024-15.546-34.57-34.57-34.57h37.192c19.024 0.002 34.57 15.548 34.57 34.57z" fill="#E94444" p-id="7479"></path><path d="M813.018 315.078c3.67-80.406-24.192-157.426-78.452-216.874C680.306 38.754 606.142 3.992 525.738 0.322c-65.502-2.99-128.716 14.842-182.818 51.572a14.934 14.934 0 0 0-3.968 20.746 14.934 14.934 0 0 0 20.746 3.968c48.726-33.078 105.662-49.148 164.678-46.446 72.434 3.306 139.246 34.622 188.126 88.176 25.052 27.448 43.84 59.06 55.776 93.104 6.752 80.332-23.422 157.454-82.936 211.772-37.688 34.4-85.856 53.04-136.546 53.036-3.144 0-6.308-0.072-9.47-0.216-54.134-2.47-104.066-25.874-140.598-65.9-28.688-31.432-43.418-72.154-41.478-114.662 1.94-42.512 20.32-81.72 51.75-110.408 50.69-46.266 129.57-42.664 175.836 8.024 35.902 39.336 33.108 100.546-6.228 136.45-14.654 13.374-33.628 20.234-53.462 19.338-19.82-0.904-38.102-9.474-51.478-24.13-10.162-11.132-15.382-25.558-14.694-40.616 0.688-15.06 7.198-28.95 18.334-39.112a14.934 14.934 0 0 0 0.962-21.1 14.934 14.934 0 0 0-21.1-0.964c-17.028 15.542-26.984 36.786-28.036 59.816s6.93 45.09 22.47 62.116c18.754 20.548 44.388 32.566 72.18 33.834 27.788 1.274 54.412-8.362 74.96-27.118 51.502-47.006 55.16-127.148 8.154-178.648-57.37-62.858-155.182-67.32-218.038-9.952-37.324 34.064-59.148 80.628-61.452 131.11-2.304 50.48 15.188 98.836 49.256 136.16 41.91 45.92 99.194 72.77 161.298 75.604 3.632 0.166 7.254 0.248 10.864 0.248 58.15 0 113.416-21.384 156.652-60.844 34.82-31.78 60.622-70.56 76.228-113.174-7.354 65.3-37.718 125.022-86.708 169.736a274.632 274.632 0 0 1-24.114 19.6c-18.732-5.644-40.566-5.726-63.166 0.37-27.918 7.528-47.98 20.856-64.396 35.6a49.564 49.564 0 0 0-8.134-0.68h-46.382c-2.77 0-5.484 0.24-8.13 0.68-16.416-14.744-36.48-28.07-64.4-35.6-22.626-6.102-44.486-6.014-63.232-0.348a273.826 273.826 0 0 1-41.548-37.124c-48.882-53.556-73.98-122.942-70.674-195.378 2.87-62.894 27.686-123.182 69.876-169.756a14.94 14.94 0 0 0-22.14-20.056c-46.84 51.708-74.39 118.634-77.578 188.45-3.67 80.406 24.192 157.426 78.452 216.876a304.512 304.512 0 0 0 34.55 32.392 74.588 74.588 0 0 0-11.488 11.954c-32.33 42.19-32.33 119.036 0.002 161.224 12.374 16.148 30.772 26.404 52.228 30.066-2.486 5.376-4.906 10.528-7.424 15.468-18.556 36.386-6.322 69.474 33.562 90.774 6.458 3.45 15.15 7.598 25.134 9.066 2.21 0.324 4.686 0.542 7.364 0.542 10.658 0 24.494-3.434 37.31-17.096v133.798C460.67 1000.974 483.696 1024 512 1024s51.33-23.026 51.33-51.33V938.34a14.936 14.936 0 1 0-29.872 0v34.33c0 11.832-9.626 21.458-21.458 21.458s-21.458-9.626-21.458-21.458v-191.7l0.558-1.328c7.206-17.154 14.51-34.616 20.89-52.184 6.382 17.572 13.706 35.034 20.914 52.188l0.558 1.328v88.102a14.936 14.936 0 1 0 29.872 0v-30.2c12.816 13.662 26.652 17.094 37.308 17.094 2.678 0 5.154-0.218 7.364-0.542 9.982-1.468 18.674-5.616 25.132-9.066 39.884-21.302 52.118-54.388 33.564-90.774-2.52-4.942-4.938-10.092-7.426-15.47 21.456-3.662 39.856-13.918 52.23-30.064 32.33-42.188 32.332-119.034 0.002-161.226a74.614 74.614 0 0 0-11.52-11.98 306.568 306.568 0 0 0 15.154-12.938c59.446-54.262 94.208-128.426 97.876-208.832zM336.206 691.88c-24.15-31.512-24.15-93.372-0.002-124.886 9.948-12.982 26.76-19.908 46.588-19.908 8.148 0 16.806 1.17 25.706 3.57 17.684 4.77 31.414 12.296 43.88 22.102-8.116 8.822-13.082 20.584-13.082 33.488v46.384c0 12.91 4.972 24.678 13.094 33.5-12.468 9.804-26.202 17.32-43.89 22.09-30.556 8.236-58.258 1.978-72.294-16.34z m127.352 76.192c-3.95 9.402-8.034 19.126-11.774 28.458-10.618 26.512-22.966 30.596-31.438 29.344-5.426-0.8-11.086-3.554-15.41-5.862-33.08-17.668-27.842-37.486-21.024-50.856 3.38-6.628 6.592-13.6 9.7-20.344 1.236-2.684 2.506-5.378 3.77-8.072a134.6 134.6 0 0 0 18.896-3.682c27.918-7.528 47.988-20.852 64.404-35.598 2.646 0.44 5.358 0.678 8.128 0.678h0.322c-7.096 21.888-16.43 44.166-25.574 65.934z m25.25-95.804c-10.83 0-19.64-8.81-19.64-19.64v-46.384c0-10.828 8.81-19.638 19.64-19.638h46.382c10.83 0 19.64 8.81 19.64 19.638v46.384c0 10.83-8.81 19.64-19.64 19.64z m130.254 147.744c-4.324 2.308-9.982 5.062-15.408 5.862-8.474 1.236-20.82-2.832-31.44-29.344-3.738-9.332-7.822-19.052-11.772-28.454-9.146-21.77-18.464-44.046-25.556-65.936h0.306c2.768 0 5.482-0.24 8.128-0.678 16.416 14.744 36.484 28.07 64.402 35.598a134.41 134.41 0 0 0 18.92 3.684 1302.616 1302.616 0 0 1 3.742 8.062c3.108 6.746 6.324 13.722 9.704 20.35 6.818 13.37 12.056 33.186-21.026 50.856z m68.73-128.13c-14.038 18.316-41.74 24.572-72.294 16.336-17.684-4.768-31.412-12.296-43.878-22.102 8.116-8.822 13.08-20.584 13.08-33.488v-46.384c0-12.904-4.966-24.666-13.082-33.488 12.466-9.806 26.194-17.332 43.878-22.102 30.556-8.238 58.258-1.98 72.296 16.338 24.15 31.516 24.15 93.376 0 124.89z" p-id="7480"></path></svg>