<?xml version="1.0" encoding="utf-8"?>
<!-- Generator: Adobe Illustrator 24.0.0, SVG Export Plug-In . SVG Version: 6.00 Build 0)  -->
<svg version="1.1" id="图层_1" xmlns="http://www.w3.org/2000/svg" xmlns:xlink="http://www.w3.org/1999/xlink" x="0px" y="0px"
	 viewBox="0 0 1024 1024" style="enable-background:new 0 0 1024 1024;" xml:space="preserve">
<style type="text/css">
	.st0{fill:#EF8349;}
	.st1{fill:#E56F22;}
	.st2{fill:url(#SVGID_1_);}
	.st3{fill:#EF8744;}
	.st4{fill:#FBE0B8;}
	.st5{fill:#FFFFFF;}
	.st6{opacity:0.1;}
	.st7{fill:#040000;}
	.st8{fill:#E75F37;}
	.st9{clip-path:url(#SVGID_3_);fill:#FFFFFF;}
	.st10{opacity:0.2;fill:#FFFFFF;}
</style>
<g>
	<g>
		<g>
			<path class="st0" d="M430.4,954h-54c-5.8,0-10.6-4.8-10.6-10.6V830.3c0-5.8,4.8-10.6,10.6-10.6h54c5.8,0,10.6,4.8,10.6,10.6
				v113.1C441,949.2,436.2,954,430.4,954z"/>
			<path class="st0" d="M634.9,954h-54c-5.8,0-10.6-4.8-10.6-10.6V830.3c0-5.8,4.8-10.6,10.6-10.6h54c5.8,0,10.6,4.8,10.6,10.6
				v113.1C645.4,949.2,640.7,954,634.9,954z"/>
		</g>
	</g>
	
		<ellipse transform="matrix(0.2229 -0.9748 0.9748 0.2229 -493.2397 679.7365)" class="st1" cx="179.7" cy="649.2" rx="161" ry="76.4"/>
	
		<linearGradient id="SVGID_1_" gradientUnits="userSpaceOnUse" x1="769.5587" y1="199.9775" x2="200.985" y2="836.7729" gradientTransform="matrix(0.9985 -5.468113e-02 5.468113e-02 0.9985 -6.782 102.2453)">
		<stop  offset="0" style="stop-color:#F5B445"/>
		<stop  offset="1" style="stop-color:#F29F6C"/>
	</linearGradient>
	<path class="st2" d="M701.4,860.2c-61.3,3.1-123.3-7.6-184.6-4.5c-59.6,3-118.4,19.6-178,22.6C75.6,891.5,155.2,517,211.6,377.5
		c44-108.9,119.7-187.7,229.6-190.5c166.8-4.4,285,127.2,349.1,264c47.1,100.5,126.7,314.8-2.8,387.7
		C761.6,853.2,731,858.8,701.4,860.2z"/>
	<path class="st3" d="M790.3,451c-64.1-136.8-182.3-268.4-349.1-264c-49.3,1.3-91.7,17.9-127.5,45.7c14.4-3.4,29.5-5.5,45.3-5.9
		c166.8-4.4,285,127.2,349.1,264c43,91.9,113.2,278.9,26,366c18.7-3.2,37-8.8,53.3-18.1C917,765.7,837.4,551.4,790.3,451z"/>
	
		<ellipse transform="matrix(0.8002 -0.5997 0.5997 0.8002 -220.6728 614.0072)" class="st1" cx="811.3" cy="638.2" rx="74.4" ry="165.3"/>
	<path class="st4" d="M395.2,543.5c-90.5,2.9-153.9,51.2-191.6,117.3c-13.1,23-27.9,56.5-38.1,92.8
		c20.1,75.9,70.5,129.8,173.2,124.7c59.6-3,118.4-19.6,178-22.6c61.3-3.1,123.3,7.6,184.6,4.5c9.7-0.5,19.6-1.4,29.4-3
		c6-54.5-27.9-120.2-51.7-158.4C628.2,617.1,532.6,539.1,395.2,543.5z"/>
	<path class="st3" d="M452.7,115.5c-8.7,37.8-23,86.6-17.2,87.7c8.8,1.7,50.6-46.3,64.2-78.7c6.4-15.2,14.5-48.8-11.3-54
		C464.2,65.6,456,100.8,452.7,115.5z"/>
	<path class="st3" d="M422.7,130.4c1.3,5.4,2.1,10.6,2.6,14.5c2.1,17.1,5.8,33.1,13.3,48.8c2.2,4.5-42.5-31.6-54.1-53.3
		c-5.4-10.2-6.5-31.1,8.4-35.7C411,99.1,419,115.5,422.7,130.4z"/>
	
		<ellipse transform="matrix(0.9979 -6.534556e-02 6.534556e-02 0.9979 -30.1193 27.3545)" class="st3" cx="403.1" cy="474.1" rx="109.8" ry="186.4"/>
	
		<ellipse transform="matrix(0.9979 -6.409442e-02 6.409442e-02 0.9979 -29.5588 26.8117)" class="st5" cx="403.1" cy="474.1" rx="92" ry="171.1"/>
	<g class="st6">
		<path class="st7" d="M454.7,340.9c14.1,28.5,23.7,64.8,26.1,104.7c5.7,94.3-30.9,172.8-81.6,175.3c-22.6,1.1-44.3-13.1-61.8-37.5
			c19.2,38.8,46.8,63,76.1,61.5c50.8-2.5,87.3-81,81.6-175.3C491.9,417.3,476.4,371.2,454.7,340.9z"/>
	</g>
	<g>
		<circle class="st7" cx="374" cy="378.8" r="30.1"/>
		<circle class="st5" cx="365" cy="379.2" r="9"/>
	</g>
	<g>
		<ellipse transform="matrix(0.756 -0.6546 0.6546 0.756 -253.2135 526.7909)" class="st8" cx="580" cy="603" rx="30.1" ry="22.6"/>
		
			<ellipse transform="matrix(0.3531 -0.9356 0.9356 0.3531 -116.1841 959.1355)" class="st8" cx="635.5" cy="563.6" rx="21.6" ry="17.8"/>
		
			<ellipse transform="matrix(0.5221 -0.8529 0.8529 0.5221 -225.464 830.667)" class="st8" cx="628.5" cy="616.5" rx="18.4" ry="16.2"/>
		
			<ellipse transform="matrix(0.6734 -0.7393 0.7393 0.6734 -297.2398 645.9417)" class="st8" cx="582.4" cy="659.4" rx="20.2" ry="15.3"/>
	</g>
	<g>
		
			<ellipse transform="matrix(0.5747 -0.8184 0.8184 0.5747 -386.2601 472.6511)" class="st8" cx="261.6" cy="607.9" rx="22.3" ry="30.4"/>
		
			<ellipse transform="matrix(0.8759 -0.4826 0.4826 0.8759 -252.073 168.6455)" class="st8" cx="201.7" cy="574.2" rx="17.6" ry="21.7"/>
		
			<ellipse transform="matrix(0.7749 -0.6321 0.6321 0.7749 -347.3743 276.8574)" class="st8" cx="215" cy="626.2" rx="16.1" ry="18.5"/>
		
			<ellipse transform="matrix(0.6614 -0.75 0.75 0.6614 -408.1211 424.3344)" class="st8" cx="265.9" cy="664.2" rx="15.1" ry="20.4"/>
	</g>
	<path class="st1" d="M419.5,788.2L419.5,788.2c-59.8,0-108.2-43.8-108.2-79.5v-9c0-5.6,5-10.2,11.1-10.2h194.2
		c6.2,0,11.1,4.5,11.1,10.2v9C527.8,744.3,479.3,788.2,419.5,788.2z"/>
	<path class="st3" d="M419.5,781.3L419.5,781.3c-54.8,0-99.2-37.8-99.2-68.4v-7.8c0-4.8,4.6-8.8,10.2-8.8h178
		c5.6,0,10.2,3.9,10.2,8.8v7.8C518.8,743.6,474.3,781.3,419.5,781.3z"/>
	<g>
		<defs>
			<path id="SVGID_2_" d="M419.5,781.3L419.5,781.3c-54.8,0-99.2-37.8-99.2-68.4v-7.8c0-4.8,4.6-8.8,10.2-8.8h178
				c5.6,0,10.2,3.9,10.2,8.8v7.8C518.8,743.6,474.3,781.3,419.5,781.3z"/>
		</defs>
		<clipPath id="SVGID_3_">
			<use xlink:href="#SVGID_2_"  style="overflow:visible;"/>
		</clipPath>
		<ellipse class="st9" cx="463.1" cy="704.6" rx="43.6" ry="32.9"/>
		<ellipse class="st9" cx="391" cy="701.9" rx="22.6" ry="17"/>
	</g>
	<path class="st10" d="M409.2,870c-11.1,0.9-22.6,1.3-34.7,1c-263.4-6.7-183.5-361.4-127.1-500.9c36.1-89.3,93.5-158.3,173.6-181.8
		c-99,11.5-168,87.1-209.3,189.1c-56.4,139.5-136,514,127.1,500.9C362.3,877.2,385.7,873.8,409.2,870L409.2,870z"/>
</g>
</svg>
