<svg id="图层_1" data-name="图层 1" xmlns="http://www.w3.org/2000/svg" viewBox="0 0 600 600"><defs><style>.cls-1{fill:#7e310d;}.cls-2{fill:#77565a;}.cls-3{fill:#fefefe;}.cls-4{fill:#d1bfb0;}.cls-5{fill:#43394e;}.cls-6{fill:#6e5e74;}.cls-7{fill:#705d6f;}.cls-8{fill:#73687c;}.cls-9{fill:#746a7d;}.cls-10{fill:#746a7e;}.cls-11{fill:#736779;}.cls-12{fill:#72677b;}.cls-13{fill:#746779;}.cls-14{fill:#746676;}.cls-15{fill:#716678;}.cls-16{fill:#72677a;}.cls-17{fill:#73677a;}.cls-18{fill:#716578;}.cls-19{fill:#73687b;}.cls-20{fill:#74687a;}.cls-21{fill:#71677c;}.cls-22{fill:#756b7f;}.cls-23{fill:#633a2c;}.cls-24{fill:#d3620e;}.cls-25{fill:#d8ae62;}.cls-26{fill:#7d4143;}.cls-27{fill:#d5a17d;}.cls-28{fill:#d4a07b;}.cls-29{fill:#f4ceb4;}.cls-30{fill:#d4a17d;}.cls-31{fill:#f3cbb0;}.cls-32{fill:#d5a07b;}.cls-33{fill:#efbe9c;}.cls-34{fill:#e1935a;}.cls-35{fill:#d46411;}.cls-36{fill:#d46412;}.cls-37{fill:#d46513;}.cls-38{fill:#d46715;}</style></defs><path class="cls-1" d="M188.64,162.32c56.52.08,113,0,169.56.38,11.83.08,23.65,1.81,35.49,2.72,5.1.39,10.78,1.66,10.55-6.67a4.58,4.58,0,0,1,1.76-3.48c9.12-5.37,19.26-4.45,29.1-3.79,6.62.44,8,6.53,8.95,12,.65,3.79,2.32,5.61,6.27,5.91,9.67.75,19.32,2.56,29,2.61,28,.12,41,16.62,46.27,40.19a672,672,0,0,1,15.31,105.67c1.13,18.28,3.89,36.46,4.41,54.85s-4.86,35.15-13.68,51c-7.58,13.61-21.68,15.89-34.82,19.77a20.39,20.39,0,0,1-3.2.44c-.44,3.2,2.32,4.16,3.73,5.91,8,9.92,10.32,21.08,5.18,32.64-5.3,11.9-15.47,17.4-28.51,18-12.39.59-22.74-3.23-31.31-12.32-10.42-11.05-12.58-24-5-37.13,2.88-5,2.92-7.43-3.35-7.34-27.56.37-55.11-.37-82.69.69-37.79,1.46-75.63,1.53-113.47-.3-24.25-1.17-48.42-3.21-74-4.62,9.81,10,14.9,20.91,12.3,34.21a31.78,31.78,0,0,1-12,19.64c-15.39,11.81-35.94,9.58-49.74-5.31-12.91-13.92-11.12-32.14,5.13-50.62-7.83-2.78-16.1-1.73-24-3.47-6.6-1.47-13-3.34-19.48-5.35-9.86-3.08-13.77-10.4-16.55-19.27-5.35-17.09-6.09-34.71-4.36-52.2,1.84-18.6.12-37.25,2.58-55.82,4.89-36.9,7.68-74.09,15.22-110.61,2.64-12.82,9-22.57,23.61-24,5.64-.54,9.71-2.51,11.47-9.17,2.05-7.78,9.89-7.4,16.22-7.92,12.09-1,12.2-.78,14-12.81,1.1-7.49,1.44-14.75-1.63-22.23-3.67-8.91,1.59-16,10.26-15.31,3.41.29,6.59,1.41,7.92,4.75,1.44,3.62,2,8.06-1.26,10.59-4.58,3.56-5.2,7.92-4.65,12.88.72,6.61-3.6,15.19.78,19.28s12.92,1,19.63,1.29,14-.95,16.95,7.56C188.17,157.54,187.5,160.21,188.64,162.32Z"/><path class="cls-2" d="M188.64,162.32c-2.81-1.6-2-4.31-2.08-6.75C189.39,157.16,189.4,159.62,188.64,162.32Z"/><path class="cls-3" d="M103.83,175.71a118.61,118.61,0,0,1,28.11-3.07c79.19-.22,158.41-.79,237.56,1.85,30.13,1,60.37,2.77,90.34,7.07,11.43,1.64,23.21-.05,34.49,3.8,4.54,1.54,8.62,3,10.46,7.89a42,42,0,0,1,2.73,6.61c7.36,15.86,8.91,33.18,12.53,50,4.33,20,5.68,40.38,6.83,60.82.67,12.09,1.48,24.2,2.29,36.3.88,13.11-.95,25.93-3.65,38.6-2.75,13-11.85,20.45-24.22,23.48a84.8,84.8,0,0,1-20.08,2.22c-90.32-.06-180.65.3-271-.33-19.13-.14-38.32-1.09-57.48-1.55-13.31-.32-20.59-6.86-23.65-20-1.35-5.8-2.59-11.76-2.54-17.58.16-17.05-2.28-34-2-51,.37-27.61-3.68-54.88-7.18-82.19-1.73-13.42-3.85-26.7-8.24-39.58-2-5.93-4.25-11.67-7.74-16.86C99.06,178.7,100,176.68,103.83,175.71Z"/><path class="cls-4" d="M103.83,175.71c-.82,1.18-3,1.86-1.49,3.9,13.81,18.34,16.26,40.18,19.15,61.9a853.71,853.71,0,0,1,7.12,94.42c.36,16.9.12,34.05,3.57,50.85,2.86,13.93,8.24,18.94,22.38,19.32,21.33.57,42.67,1.29,64,1.33q131.37.26,262.75,0c9.89,0,20-.07,28.91-6,7-4.65,10.61-10.95,12.35-19.06,4-18.72,3.35-37.66,2.83-56.53-.83-30.49-1.78-61-9.32-90.85-3.12-12.3-6.52-24.53-9.79-36.79a.94.94,0,0,1,1.55,0c6.82,10.45,8.25,22.43,10.08,34.4,1.69,11.08,4.24,22,6.41,33,1.3,2.81-.07,6,1.21,8.81,3.05,35.77,9.27,71.29,8.16,107.38-.45,14.91-6,28.18-14.92,39.51-6.89,8.72-18.12,10.05-28.66,11-28.63,2.45-57.29.17-85.93.27-26.49.09-53,.94-79.44,2-44,1.77-88-.86-131.92-4.35-30.69-2.44-61.66-1.68-92.12-6.34-30.18-4.62-29.74-5.09-33.38-35.05-3.44-28.35-.83-57.25,1.85-85.81q4.65-49.62,11.77-99c.51-3.47,1.51-6.86,2.05-10.33C84.88,181.86,91.87,176,103.83,175.71Z"/><path class="cls-5" d="M165.39,467.88a12.9,12.9,0,0,1-2.68,9.76c-3.16.23-3.93,2.24-3.7,5-2.94,3.56-6.88,5.29-11.29,6.16-2.6-2.88-4.51-.93-6.42.93-5.37-.82-10.76-1.61-14.72-5.93-.43-2.63-1.8-4.32-4.61-4.57a27.07,27.07,0,0,1-4.67-11.55c2.17-1.95,2.21-4.2.9-6.62a10.79,10.79,0,0,1,3.4-7.89c2.73-.7,5.17-1.69,5-5.2,3.92-2.72,7.85-5.42,13-4.54,1.93,2.53,4,2.91,6.23.37a14.73,14.73,0,0,1,9.83,4.61c.7,2.72,2,4.84,5.19,4.83a17.41,17.41,0,0,1,4.09,8.31C162.28,463.86,163.27,465.91,165.39,467.88Z"/><path class="cls-5" d="M486.87,456.13c2.51,1.56,4.42,3.56,4.91,6.62-1.73,2.7-1.08,4.84,1.56,6.49,1.94,3.2.08,5.77-1.37,8.42-2.29,1-4.18,2.29-3.45,5.27-2.86,3.81-7,5.16-11.43,5.82-2.35-2.46-4.48-.41-6.68.3-2.85-.17-5.88.39-8.23-1.92-1.51-2.47-3.43-4-6.53-3a15.06,15.06,0,0,1-7.88-8.14c1.23-3.09-.49-4.92-2.78-6.5-.63-4-.81-8,1.58-11.64,2-1.27,5.16-1.57,4.43-5.18a12.31,12.31,0,0,1,8.2-4.38c2.53,1.34,4.63.58,6.5-1.33a21.29,21.29,0,0,1,14.88,4.34C479.59,457,484.29,455.15,486.87,456.13Z"/><path class="cls-6" d="M175.17,161.91H119.78C124.33,158.65,163,157.3,175.17,161.91Z"/><path class="cls-7" d="M413.09,164.23c6.55-3.61,12-3.41,17.42-3,2.35.19,3.07,2.06,3,4-.12,2.29-2.09,2-3.62,2A45.78,45.78,0,0,1,413.09,164.23Z"/><path class="cls-8" d="M486.87,456.13a8.35,8.35,0,0,1-2.09,1.17c-3.27.75-6.67,6.33-9.6,1.64-2.47-4,3.63-4.94,5.4-7.63A8.85,8.85,0,0,1,486.87,456.13Z"/><path class="cls-9" d="M493.34,469.24a6,6,0,0,1-1.57.07c-2.73-.57-7.44,1.91-7.48-3,0-4.4,4.59-3.08,7.49-3.6C493.55,464.61,493.5,466.91,493.34,469.24Z"/><path class="cls-10" d="M145.82,443.79c-.42,2.8,1.75,7.51-3.27,7.29-4.69-.21-2.53-4.83-3-7.66Z"/><path class="cls-11" d="M445,469.5c2.44,0,5.38-3.47,7.17.13,1.92,3.84-1.91,4.9-4.38,6.37A8.72,8.72,0,0,1,445,469.5Z"/><path class="cls-12" d="M165.39,467.88c-2.68-.72-7.41,1.72-7.37-3.23,0-3.85,4-3.18,6.91-3.11C165.08,463.65,165.24,465.77,165.39,467.88Z"/><path class="cls-13" d="M122,479.22c2.26-1.48,4.48-5.16,7.31-2.31,3.11,3.13-1.14,4.79-2.7,6.88A8.46,8.46,0,0,1,122,479.22Z"/><path class="cls-14" d="M118.2,461.05c2.55.45,6.26.12,5.75,3.92-.48,3.53-4,2.66-6.65,2.7C116.84,465.36,116.61,463.08,118.2,461.05Z"/><path class="cls-10" d="M141.3,489.72c-.05-2.88-.53-6.55,3.34-6.83,4.06-.29,2.62,3.59,3.07,5.9Z"/><path class="cls-15" d="M160.84,453.23c-2.33,1.86-5.13,2.59-7.2.37s.83-3.62,2-5.2A10.69,10.69,0,0,1,160.84,453.23Z"/><path class="cls-16" d="M488.52,482.93c-2.34-1.1-4.18-2.86-2.63-5.4,1.71-2.79,4-.81,6.08.13A8.13,8.13,0,0,1,488.52,482.93Z"/><path class="cls-17" d="M159,482.63c-1.7-1.35-4-2.87-2.49-5.21,1.76-2.73,4.16-1.45,6.19.22A8.26,8.26,0,0,1,159,482.63Z"/><path class="cls-11" d="M451,452.68c2.06.93,4.08,2.15,2.6,4.73-2,3.41-4.64.84-7,.45A11.75,11.75,0,0,1,451,452.68Z"/><path class="cls-18" d="M126.56,448c1.87,1.81,3.28,3.86,1.23,6.27-2.48,2.91-4.2-.24-6.19-1.07A11.21,11.21,0,0,1,126.56,448Z"/><path class="cls-19" d="M455.65,484.14c1.22-1.79,2.48-3.89,5.05-2.7s1.59,3.62,1.48,5.69A8.81,8.81,0,0,1,455.65,484.14Z"/><path class="cls-20" d="M465.7,447c-.06,1.82,0,3.88-2.37,4.22-2.1.3-3.27-1.19-4.13-2.89C461.21,447.1,463.29,446.24,465.7,447Z"/><path class="cls-21" d="M470.41,489.05c2-4.84,4.24-4.91,6.68-.3C474.88,489.26,472.72,490.76,470.41,489.05Z"/><path class="cls-4" d="M507.85,198.26H506.3a5.63,5.63,0,0,1-1.51-5A5.27,5.27,0,0,1,507.85,198.26Z"/><path class="cls-4" d="M525.55,274.51c-2-2.71-1.21-5.82-1.21-8.81C526.07,268.45,525.6,271.51,525.55,274.51Z"/><path class="cls-1" d="M428.66,404.56c-74.85-3.76-149.76-.83-224.63-2-10-.16-20-.6-30-1.2-12.09-.73-18-6.9-18.18-19.13-.8-51.9-6.67-103.57-6.94-155.49a36.87,36.87,0,0,0-.79-5.59c-1.3-8.05,2.45-13.92,10.68-15a351.83,351.83,0,0,1,52.52-2.88c22.73.43,45.33-2.62,68-2.6q50.67,0,101.32,1.51c25.1.74,50.15,2.72,75.24,3.9,22.67,1.06,26,2.44,33.6,25.89,5.49,16.84,5.92,34.59,7.11,52.05,2.14,31.53,3.38,63.12,4.86,94.69.88,18.74-4.54,23.94-23.41,24.49C461.61,403.64,445.16,404.73,428.66,404.56Z"/><path class="cls-1" d="M110.54,347.41c-.48,10.42,1.6,30.65,1.62,50.92,0,3.79,0,7.56-1.25,11.22-1.14,3.34-2.77,6.16-6.85,5.27-3.73-.81-3.83-3.95-3.82-7.08,0-27.83-.07-55.67.07-83.5.21-40.82-2.54-81.52-4.68-122.24a26.92,26.92,0,0,0-3.76-12.27c-1.49-2.57-2-5.35,1-7.11s5.72-.65,7.7,2.12a28.94,28.94,0,0,1,5.08,15.18C108.76,245.74,111.65,291.57,110.54,347.41Z"/><path class="cls-10" d="M146,465.28c-.05,3-1.06,5.4-4.5,5.55s-5.19-1.66-5-4.92,2-5.85,5.52-5.8C144.89,460.15,145.92,462.56,146,465.28Z"/><path class="cls-22" d="M466.29,462.82c4.7-.08,7.18,1.82,7.15,5.63,0,3.32-2.31,5.5-5.68,5.57-4.05.09-6.69-2.09-6.66-6.31C461.13,464,463.86,462.89,466.29,462.82Z"/><path class="cls-23" d="M167.13,370.42c-1.65-39.57-6.5-78.93-6.95-118.6-.11-9.6-.42-19.41-1.5-29-.57-5.16,1.54-6.85,5.78-7.64a15.29,15.29,0,0,1,4-.55c15.86,1.38,31.52-2.19,47.6-.68,15.36,1.44,31.11-1.69,46.7-2.16,22.93-.69,45.88-1.38,68.8.42a89.92,89.92,0,0,0,10.48.59c36.47-1.41,72.73,3.43,109.15,3.52,5.33,0,10.65,1.48,16,2.21a11.33,11.33,0,0,1,9.92,8.28c3.59,10.79,6.8,21.64,6.48,33.19a9.25,9.25,0,0,1-6.28,3.22c-20.16,1.32-38.51,9.31-57.26,15.74-5.61,1.92-11.46,2.84-17,4.9-10.06.56-19.72-2.4-29.59-3.55-5.58-.65-7.68-5.4-8.22-10.67-.47-4.56.15-9.2-.86-13.72-2.6-11.66-9.31-15.28-20.27-10.55a228.37,228.37,0,0,0-23.87,12,23.41,23.41,0,0,1-17,3,130.1,130.1,0,0,0-47.46,0c-7.73,1.37-13.51-.72-19.06-6-7-6.64-14-13.59-25.22-12.11-8.4,1.1-11.25,3.72-11.8,12.24s1,16.69,1.86,25c.65,5.92-1,10.59-5.39,14.46-6.11,5.38-11,11.83-15.78,18.36-7.91,10.82-7.57,21,.31,32,2.94,4.12,7.31,7.28,8.75,12.46C186.48,365.43,175.6,372.1,167.13,370.42Z"/><path class="cls-24" d="M188.2,357.46c-1.59-1.47-3.2-2.9-4.74-4.41-16.19-15.83-16.79-31.44-1.8-48.32,4.48-5,8.45-10.55,13.87-14.74,2.76-2.13,3.67-4.79,3-8.55-1.74-9.57-2.09-19.3-2.46-29-.28-7.37,3.48-11.58,9.72-13,8.52-1.89,17.7-2.76,24.25,4.71,9.88,11.25,20.6,15.1,36.06,11.56,12.86-2.94,26.95-2.1,40.15,1.88,3.86,1.16,6.74-.11,9.91-1.82,8.57-4.61,17.1-9.35,25.91-13.45,14.22-6.62,24.6-.52,26.29,15.1.68,6.3-2,14.08,2.27,18.54,4.1,4.24,11.94,1.28,18,3,4.38,1.25,9,1.6,13.54,2.34,38.69.24,81.4,47.42,64.95,94.88-2.42,7-5.12,13.81-12.93,16.65h-19.4c-.39-3,2-4.16,3.8-5.55,5-3.82,8.4-8.79,11.19-14.29,7.74-18.35,3.15-35.78-7.65-50.36-16.29-22-40.87-29.17-68.9-32.18,6,5.05,11,8.29,15.24,12.37,12.7,12.19,14.08,29,3.35,40.24a5.49,5.49,0,0,1-2.43,1.33c.14-.06.62-.13.73-.16,1.85-.77,3.18-2.3,5.13-2.7,10.4-2.68,20.83-5.18,31.22-7.85,4.52-1.15,8.56-1.42,11.57,2.93,1.5,9.32-2,14.66-11.27,15.64-6.05.65-11.27,4.06-16.65,5.08-12.42,2.35-24.28,9.72-38,4.69-6.79-2.5-13.6-3.86-19.53-8.81-4.35-3.61-11,.55-16.5-1.44-6.38-2.29-10.59.86-14.21,6.07-3,4.3-7.83,6.62-10.63,11.77-4.2,7.74-2.17,14.36,0,21.5l-14.66.14c-2.88-1.4-5.55-3-6.64-6.3-.2-.49-.24-1.05-.47-1.52-1.3-2.71,1.88-7.39-2.08-8.28-3.79-.84-7.8,1.16-10.06,5.05-3.3,3.1-.17,7.83-2.8,11.09l-16.82.07c-2-2-1.86-4.45-1.65-6.93-1.45-4.54-5.85-5.11-9.31-6.94-4.56-2.42-8.74-5.46-6.44-11.32s7.39-5.41,12.42-4.24a23,23,0,0,1,6,2.34c3.95,2.26,7.36,2.25,11.14-.66a31.06,31.06,0,0,1,16.58-6c10-.81,17.08-6,22.92-13.47,6.15-7.87,14.43-11.36,24.07-11,6.44.26,12.87.56,19.31.5a40.82,40.82,0,0,1,9.73,3.6c6.72,3.68,9.48,3,15.49-3.41,4.4-4.7,5.62-9.67,1.53-15.08-3.21-4.26-6.47-8.54-11.54-10.85-4.6-3.18-9.78-5.64-13.08-10.45-4.09-7.58-.42-15.26.47-22.66a68.79,68.79,0,0,0-.41-16.63c-.48-4.16-3-5.43-6.86-3.38-15.39,6.06-29.47,14.48-43.09,23.76-16.28,11.08-33.69,11.9-51.7,5.05-6.93-2.65-12.94-7-16.84-13.38-4.06-6.69-10.41-10.82-16.15-15.65-2.31-2-5.33-3.05-8.29-1.44-3.24,1.76-2.81,5.15-2.29,8,.92,5.07.49,10.34,1.72,15.25,2.53,10.14-.63,17.88-8.18,24.57-5.26,4.66-9,10.73-13.8,15.85-6.08,7.29-6.08,14.54,0,21.6a66.21,66.21,0,0,0,20.3,15.67c4.41,2.25,8.42,5,8.39,10.81.85,5.37-4.41,11.29,1.47,16.21,1.83,3.45,7.44,4.83,5.73,10.25l-16.08.09c-7.22-2.42-9.72-8.13-9.34-15,.32-5.55-1.59-9.05-6.44-11.44C190.52,363.5,188.89,360.75,188.2,357.46Z"/><path class="cls-25" d="M452.34,374.9c-3.74,8.06-9.2,14.43-17.59,17.92-25.85,1-51.64-.92-77.46-1.61-15.33-.4-30.69-.1-46-.11-1.31-2.49-3.68-3.85-5.72-5.6-3.3-2.81-4.67-6.11-.63-9.47a10.18,10.18,0,0,0,3.68-7.74c.29-4.38,2.42-7.68,6.76-9.17,2.39-.81,4.71-1.95,5.46-4.43,2.6-8.69,9.18-8.13,15.67-6.47,4,1,7.63,2.2,11.66.13a5.62,5.62,0,0,1,7.78,2.27c3.34,5.53,8.15,7.45,14.33,7.05a6.75,6.75,0,0,1,3.85,1.06c5.62,3.69,11,4.08,16.07-.87.37-.36,1-.8,1.42-.69,12.67,3.52,21.66-8.5,33.75-7.91,7.41.36,11.46-3.82,11.47-11.46,4.74-1.72,7.7,1.13,10.14,4.37,5.16,6.87,7.58,14.52,6.18,23.26C452.62,368.53,451.84,371.69,452.34,374.9Z"/><path class="cls-26" d="M454.15,392.82c17.71-23.78,16.82-48.64,3-73.41-8.52-15.29-22.85-24.7-38.43-32-5.33-2.48-11.05-4.12-16.59-6.15,21.55-6.72,42.22-16.16,64.57-20.43,5.65-1.08,11.24-.71,16.87-.89,3,9.38,1.8,19.23,2.86,28.83,1.73,15.73,1.82,31.68,1.94,47.55.1,14.54,2.52,28.95,1.81,43.54-.5,10.17-1.47,11.55-11.91,11.56C470.2,391.46,462.29,394.14,454.15,392.82Z"/><path class="cls-26" d="M188.2,357.46c1.51,1.1,2.87,2.54,4.55,3.25,8.05,3.42,13,8,10.51,18.05-1.15,4.66,2.9,8.94,6.07,12.66-10,0-19.92.07-29.88,0-10.48-.05-12.13-1.71-12.35-12.15-.07-3,0-5.92,0-8.89C174.55,366.75,182,363.15,188.2,357.46Z"/><path class="cls-27" d="M225.41,391.33c-1.48-3.94-5.47-5.19-8.24-7.75,6.37-3.85,36.09-2.94,42.18,1.29q-.81,3.24-1.64,6.48Z"/><path class="cls-28" d="M292.42,384.75l4.16,6.49-22.05,0c-1.27-4.31-3.66-8.56-.71-13.1C279,383.4,286.09,382.93,292.42,384.75Z"/><path class="cls-29" d="M259.35,384.87c-14.07,0-28.17.92-42.18-1.29-7.69-5.56-2.94-11.95-1.21-18.13,2-7.23-.91-12.47-6.69-16.63-7-5-14-10.13-19.05-17.28-3.4-4.82-6.85-9.84-3.54-16.21a105.74,105.74,0,0,1,17.19-19.24c5-4.24,5.94-9,4.94-15.07-1.17-7.17-1.8-14.45-2.27-21.7-.23-3.53-1.81-8,2.89-10a11.28,11.28,0,0,1,12.21,1.72c5.67,5,12.38,9.51,16.13,15.75,12.27,20.46,47.4,22.82,65.11,9.42,13.52-10.24,28.69-17.87,44.22-24.66,6.14-1.19,7,3.29,8.1,7.51,2.46,9.15-.16,18.16-1.19,27.11-.53,4.59.19,7.81,3.26,10.82l12.52,8.66c6.06,6,6.11,12.76,1.93,19.64-4.08,6.7-8.56,13.18-18.13,11.2-6.6.37-13.07.77-19.83,0-8.59-1-16.07,2.12-22.09,10.26-5,6.82-11.67,13.46-22.11,13.83-8,.28-16.1,2.37-22,8.71-2.31,2.48-4,1.6-6.22.14a36.07,36.07,0,0,0-11.76-5.16c-3.11-.75-6.2-.4-7.35,3.1-1.21,3.66,1.39,5.1,4.33,6.48C251.82,376.33,259.43,376.21,259.35,384.87Z"/><path class="cls-29" d="M452.34,374.9c-2.6-7.08-.14-14.83-3.28-22-2.76-6.28-5.68-12.1-12.26-15.13-1.47-1.73-3.76-3.55-5.53-2.4-8.15,5.3-18.79,1.74-26.58,7.79-3.17,2.45-6.65,1.4-10.08,1.34-2.16.4-4.84,2.19-5.3-2,10.18-14.08,8.8-26.69-4.34-38.51a74.59,74.59,0,0,0-15.17-10.76c-1.7-.89-3.32-2.14-2.65-4.44.76-2.57,2.82-1.84,4.69-1.69,22.43,1.87,43.48,7.17,61.62,21.68C453.47,324.84,461.2,350.53,452.34,374.9Z"/><path class="cls-30" d="M186.68,315.33c1.18,11.16,8.57,18.25,16.46,25,2.45,2.09,5.21,3.83,7.87,5.68,9.23,6.42,9.86,8.85,5,19.47.21-4.65-2.86-6.52-6.58-8C201,354,194.1,348.48,188,341.9,179.61,333,179.2,325.38,186.68,315.33Z"/><path class="cls-30" d="M353.59,336.52c13.59-4,20.35-16.86,16.2-30.84a41.09,41.09,0,0,1,4,2.59c16.82,13.75,15.69,25.45-3.27,35.84-2.69,1.48-4.54,1.19-6.15-1.16C361.76,339.14,357.6,338,353.59,336.52Z"/><path class="cls-31" d="M292.42,384.75q-16.35,6.69-18.6-6.57c4.93-7.18,12.74-6.47,21.44-8.32C292.16,375.39,291.24,380,292.42,384.75Z"/><path class="cls-32" d="M357.27,297c-4.93-2.07-6.48-5.59-5.65-10.94,1.39-9,2.85-18,.53-27.09-.82-3.21-1.2-6.4-5-7.41,7.2-2.05,10.2,0,11.19,8.29,1.1,9.12-1.07,18.08-2.06,27.07C355.84,290.55,355.76,293.78,357.27,297Z"/><path class="cls-33" d="M389.31,342.55c1.38,1.69,3.41,1.65,5.3,2L388,346.34a2,2,0,0,1-2.53-.39Z"/><path class="cls-34" d="M385.49,346l2.53.39c-1.64,1.12-3.18,3-5.32,1.72C382.33,347.83,384.13,346.2,385.49,346Z"/><path class="cls-35" d="M317.73,295.92c3,.14,6.8.37,7,5.16.24,4.52-3.55,5.13-6.74,5.26-8.68.38-16.12,4.18-23.59,8-3,1.53-6.21,3.25-8.48-.5-2.1-3.49.14-6,3.07-8.06C295.2,301.38,310.31,296,317.73,295.92Z"/><path class="cls-36" d="M223.83,298.62c6.42.69,13,1.92,18.93,5.55,3,1.81,6.92,3.52,4.44,8s-6.41,3-9.79.88c-4.5-2.82-9.53-3.71-14.61-4.36-3.82-.48-8.5-.36-8.2-5.57C214.92,297.74,219.84,298.87,223.83,298.62Z"/><path class="cls-37" d="M344.93,267.57a5.16,5.16,0,0,1-2.94,4.59c-4.58,2.31-9.23,4.45-13.89,6.6a4.51,4.51,0,0,1-5.84-1.26c-1.71-2.22-1.58-4.89.5-6.59a35.86,35.86,0,0,1,16.64-7.78C342.49,262.59,344.52,264.34,344.93,267.57Z"/><path class="cls-38" d="M264.85,331.57c-5.15-.19-9.05-2.65-9.29-7.41-.36-7.37,6.43-5.79,10.69-6.71,3.93-.84,7.26,1.08,7.17,5.44C273.31,328.18,269.88,331,264.85,331.57Z"/><path class="cls-37" d="M223.94,261.61c3.54,1.84,7.68,4.06,8.2,9.24.34,3.35-2.22,5.29-5.21,4.42-4.58-1.35-8.2-4.48-8.58-9.6C218.15,263,220.29,261.38,223.94,261.61Z"/></svg>