<svg id="图层_1" data-name="图层 1" xmlns="http://www.w3.org/2000/svg" viewBox="0 0 600 600"><defs><style>.cls-1{fill:#7e310d;}.cls-2{fill:#fefefe;}.cls-3{fill:#d1bfb0;}.cls-4{fill:#6e617a;}.cls-5{fill:#fcfbfa;}.cls-6{fill:#d1beaf;}.cls-7{fill:#ede4df;}.cls-8{fill:#f3ece9;}.cls-9{fill:#f4eeeb;}.cls-10{fill:#7e310e;}.cls-11{fill:#f0e8e4;}.cls-12{fill:#f7f3f1;}.cls-13{fill:#f4ceb4;}.cls-14{fill:#d3620e;}.cls-15{fill:#633a2c;}.cls-16{fill:#7d4143;}.cls-17{fill:#d4a27e;}.cls-18{fill:#81423f;}.cls-19{fill:#673928;}.cls-20{fill:#d36310;}.cls-21{fill:#d46311;}.cls-22{fill:#d46412;}.cls-23{fill:#d46513;}.cls-24{fill:#efc1a2;}.cls-25{fill:#e2965e;}.cls-26{fill:#fdfdfd;}.cls-27{fill:#f8f5f6;}</style></defs><path class="cls-1" d="M137.07,383.6c3.53-28.94,6.94-56.68,10.25-84.44.45-3.72.56-8.19,3.32-10.26,8.91-6.68,4.72-13,1.36-20.58-30-67.59-3.08-138.85,61.67-177.11,73-43.1,163.66-37,230.47,14.86,35.21,27.33,57.06,63.67,57.57,108.76.57,50.69-19.19,91.68-67.64,114.32-6.17,2.88-8,6.21-7.94,12.87.09,27.48,3.78,54.54,8.55,81.47,2.42,13.65,13.54,21.26,23.44,28.88,14.39,11.07,27.13,23.72,39.4,36.93,7.7,8.3,12,17.71,7.21,29.24-3.94,9.58-10.47,14.7-21.38,14.87-29.77.47-58.1-7.51-86.67-14a82.14,82.14,0,0,0-18.76-2.5c-36.74.18-73.49-.22-110.21.54C245.22,517.9,224,526.6,202,530c-18.75,2.9-37.22,7.83-56.43,7.35a87,87,0,0,1-17.85-2.08c-19.73-4.62-25.74-23.38-12.58-39,6.13-7.29,14.18-12.11,21.56-17.8,5.82-4.48,5.9-6.89-.55-12.28-23.56-19.68-42.57-42.67-42.84-75.65-.17-20.16,12.34-27.17,29.38-16.87C127.18,376.4,131.38,379.65,137.07,383.6Z"/><path class="cls-2" d="M404.08,458.83c9.2-7.44,14-17.49,16.95-29.94,6.14,17.82,20.07,27.35,32.92,37.87,4.88,4,10.3,7.42,14.14,12.6,4.05,5.86,8.15,11.72,3.78,19.22-4.27,7.32-11.21,8.47-18.93,8.75-15.77.56-30.22-4.92-44.79-9.46a143.66,143.66,0,0,0-46.23-6.74c-30,.61-60-.34-90,2.15-8.45.71-16.41,3.05-24.18,6-31.28,11.79-63.9,17.81-96.76,22.66-7.78,1.15-15.77-.73-23.68-.73-7.37-2.49-7.09-7.51-4.24-13.21,3.07-6.15,8.52-9.79,14.27-13.05,11.78-6.54,21-17.21,34.74-20.7,3.84-1,5-5,6.29-8.43,3.81-10.26,6.74-20.78,9.69-31.31,1.4-5,2.86-10.6,10-10.4,3.26,1.48,4.63,4.23,5.09,7.58-2,12.22,4.07,21.87,10.31,31.36,3.9,5.93,9.46,5.18,15.15,3,1.33,0-.34-.22,1-.13,25.2,1.72,31.42-2.58,35.06-27.78,1.57-10.84,4.95-22,2-32.88-1.53-.57-2.55-.55-2.63,0-2.17,13.41-10.83,18.35-23.53,19.34-6.55.51-12.83,3.42-19.4,4.58-5.35.95-10.47.33-13.27-4.54-4.75-8.29-10.29-16.48-9.3-26.84,1.82-13.27,6.27-25.89,9.56-38.79s9.56-15.47,21.49-9.07c24.06,12.9,49.77,18.18,76.92,18.67a347.61,347.61,0,0,0,94.94-11.29c9.12-2.39,11.48-.47,11.76,8.62.08,2.31-.39,4.69.7,6.9,1.1,9.24,2.11,18.48,3.32,27.71,1.12,8.46-5.32,14.15-12.91,11.3a53.21,53.21,0,0,0-14.57-3.1c-5.74-.46-12.3.05-11.91-9.17.14-3.19-3-5.16-6.45-4.81-4.78.48-5.47,4-5.56,8-.3,13.15,3.51,25.57,6.49,38.15C372.11,456,388.58,469.65,404.08,458.83Z"/><path class="cls-2" d="M191.43,306.6c-1.92-3.84-2.93-8-5.9-11.45-56.26-65-31-145.8,25.41-186,73.43-52.35,188.55-39.85,246,28.55,28.64,34.11,39.25,72.88,25.18,116.59-2.89.42-3.81-1.63-4.69-3.72-2-8,.63-15.89.93-23.82,1.64-42-17.63-73.15-50.4-96.69-59.71-42.9-145.88-42.86-205.86-.24-30.82,21.89-50.37,51.47-49.94,89.91.46,41.6,18.37,76.16,63,91A264,264,0,0,0,344.53,323c28.49-2.68,55.94-8.42,82.12-20.1,7.37-3.29,14-7.76,21-11.64,4-2.25,7.94-5.13,13.05-4,1.58.81,2.65,1.87,2,3.84-19.63,22.81-46.47,32.55-74.19,40.09-45.65,12.41-91.71,15.08-138.07,3.52a124.12,124.12,0,0,1-40.64-18.43C203.48,313.32,196.28,312.19,191.43,306.6Z"/><path class="cls-3" d="M191.43,306.6c8.34-1.05,13.49,4,18.3,9.64-3.7.13-7.65-.08-8.49,4.9-.71,4.26,1.77,6.88,4.93,9.08,19.7,13.76,42.19,19.61,65.54,22.57,44.6,5.66,88.43,1.51,131.35-11.66,7.33-2.24,10.08-1.45,9.53,6.83s3.06,16.41,1.27,24.82c-3.38-13.36-3.22-12.6-16.82-9.66-48.27,10.43-96.72,16-145.22,1.23a112,112,0,0,1-27.34-12.24c-6.45-4.07-9.57-3.65-11.49,4.67-3.29,14.28-7.8,28.28-11.79,42.4-2.74.94-4.95-1.7-8.28-1-.91,5.07,2,9.28,3.51,13.79,1.47,4.22,4.53,8.36,1,13-3.85,1.43-3.79,5.21-4.72,8.25-1.45,4.77-2.59,9.64-3.78,14.49-4.3,17.51-9.52,33.91-31.15,37.37-7.46,1.19-12.67,8.51-20.45,9.91,17.43-12.74,25.08-30.92,29.49-51.31,8.35-38.62,18.69-76.82,23.77-116.13C191.5,320.5,191.42,313.57,191.43,306.6Z"/><path class="cls-3" d="M127.31,521.19c18.32-3.37,37.23-2.24,55.29-7.5,23.19-6.75,47.08-10.91,69.5-20.57,16.91-7.28,35.5-4.47,53.32-5.86,15.91-1.24,32.05.49,48-.67,24.52-1.78,47.62,3.48,70.47,11.27,9.17,3.13,18.56,5.36,28.33,5.52,15.6.25,19.29-4.07,16.34-19.07a45.06,45.06,0,0,1-.44-4.95c8.23,5.89,14.28,13.9,20.91,21.35,3.73,4.19,4.89,8.84,2.56,13.86C489,520,484,520.33,478.7,520.05c-24.12-1.29-47.67-6.12-70.94-12.16-13.69-3.55-27.32-5.92-41.5-5.19-35.71,1.84-71.52-1.31-107.18,2.05-26.33,2.48-51.44,11.48-77.55,15.2C163.53,522.52,145.55,528.29,127.31,521.19Z"/><path class="cls-4" d="M158.64,413.15c-7.45-8.43-9.7-17.63-8.27-28.7,3.51-27,6.11-54.17,9.09-81.26.4-3.63.28-8,4.39-9.34s4.86,3.6,7.26,5.54c11.95,9.57,8,22.34,6.13,34.19-4.15,26-10.48,51.5-16.7,77C160.33,411.46,159.42,412.13,158.64,413.15Z"/><path class="cls-3" d="M153.16,440.76c-1.61,5.55-1.19,14.07-6.58,15.31s-10-5.74-13.87-10.21c-10.47-12.13-20.36-24.73-25.28-40.38-.2-.63-.31-1.3-.47-2-1.72-7.17-4.83-16.63,1.5-20.54,5.94-3.66,12,4.24,17.06,8.84C134.47,408.29,140.3,426.51,153.16,440.76Z"/><path class="cls-5" d="M153.16,440.76c-3.72,2.24-5.61-.62-7.32-2.93-10.22-13.79-18-28.68-20.32-46C136.76,403,144.82,416.27,152,430.2A13.33,13.33,0,0,1,153.16,440.76Z"/><path class="cls-6" d="M404.08,458.83c-7.12,8.87-15.24,10.41-24.22,4.58-8.65-5.61-11.51-14.1-7.59-22.58C380,451.84,388.07,462.38,404.08,458.83Z"/><path class="cls-7" d="M480.09,249.93l2,4.35a89.38,89.38,0,0,1-19.5,36.78l-2.41-2.64c-1.36-2.29-.65-4.53.45-6.57,4.66-8.72,9.13-17.53,13.05-26.62C474.88,252.55,476.41,249.8,480.09,249.93Z"/><path class="cls-8" d="M386.92,437.46c3.67-1.4,6.58,1,9.65,1.79,1.77.48,6.28.46,3.69,4.76-1.61,2.67-3.93,3.31-6.71,1.4C390.59,443.39,387.74,441.32,386.92,437.46Z"/><path class="cls-9" d="M382.38,423.6c7-3.16,13.62-2.64,19.18,3.25Z"/><path class="cls-10" d="M197.44,424.91c-2.59-6.36-5.34-12.66-7.73-19.1-1.74-4.71-6-10.56.08-14.14,6.88-4,8.13,4.07,11.41,7.51,1.77,8.57,6.66,15.9,9.52,24,1.1,3.12,2.81,3.66,6.1,2.86,11.92-2.92,23.53-7.36,36-7.88,3.82-.17,4.91-2.58,5-6.05a51,51,0,0,1,1-9.89c.81-3.53,3.12-6,7.16-5.53s6.13,3,6,6.76c-.74,17.28-.47,34.81-7,51.21-6.17,15.58-14.86,18.63-37.29,14.35-7.78.11-13-4-16.92-10.26-5.13-8.16-9-16.82-10.74-26.38Z"/><path class="cls-6" d="M200,432.4c7.67,13.39,13.1,28.46,27.66,36.64-6.84,4.17-13.3,2.65-17.3-3.47C203.91,455.66,198.35,445.05,200,432.4Z"/><path class="cls-1" d="M480.09,249.93c-5.69,13.31-10.19,27.24-19.87,38.49-50,34.06-105.84,43.28-165,38.89-26.52-2-52.28-7-76.21-18.91-35.75-17.81-57.11-61.64-50.69-101.26,7.27-44.87,33.87-75.19,73.18-94C300.47,85,360,86.09,417.25,118.23,469.58,147.61,489.3,190.89,480.09,249.93Z"/><path class="cls-11" d="M256.07,433.68l-33,8.73c-1.4.37-2.71.13-3.3-1.31-.91-2.23,1-3.15,2.4-3.45,11.14-2.32,21.79-7.48,33.44-6.87Z"/><path class="cls-12" d="M252.5,448.89C246.66,459,241.82,460,230,454.19,237,450.4,244,448.83,252.5,448.89Z"/><path class="cls-13" d="M380,308.09c-45.92,9.52-91.5,10.4-136.45-5.25-9.31-5.27-11.27-14.13-12-23.82-2-28.34,6.58-54,19.54-78.56a6.37,6.37,0,0,1,1.93-2.55c2.23-1,4-.14,5.7,1.31,2.18,2.61,3.82,7.23,8.29,4.23s12.38-2.56,12-10.73c-.13-3.16-.09-5.88,2.91-7.72,2.71-1.35,5.46-2.79,8.5-2.77,21.58.17,43.27-2.61,64.66,2.28,4.58,1.61,6.56,5.23,7.28,9.76s3.42,6.87,7.79,7.73c2.42-2.68-1-6.83,2.48-9.09,10.69-1.32,17.44,3.45,24.34,17.14,3.44,13.18,6.8,26.37,9.8,39.66,3.44,15.21-.14,29-7,42.4C395.53,300.43,387,303.25,380,308.09Z"/><path class="cls-14" d="M357.62,188.32c-18.14-2.81-36.43-2.48-54.68-2.12-7.61.15-15.19,1.37-22.78,2.1-1.45,2-2.85,4-5.43,4.62-2.75.36-5.54.59-8.08,1.9-4.16,1.82-8.43,3.21-13,3.14l-.29-.14c-1.62,2.51-2.78,5.43-5.52,7-12.46,7.13-18.48,18.59-22.26,31.9-4.27,15.07-9.2,30-9.09,45.9,0,2.39-.6,4.64-2.76,6.12-7.17-2.42-11-8.2-14.29-14.42-1.95-2.21-1-5.87-3.83-7.64-13.15-17.62-16.55-37.27-12.2-58.54,2.64-11.64,10.1-20,18.95-27.26,9.42-7.73,18.42-8,28.17-.41,4.35,3.39,7.79,4.89,13.39,2.22,29.77-14.2,61.52-16.09,93.8-14.13,14.55,3.35,29.85,2.52,44,7.95,2.75,1.05,5-.86,7.42-2.12,11.86-6.25,20-5.18,30,4a93,93,0,0,1,13.95,15.68c9.51,13.75,18,28.12,26.13,42.69A34.42,34.42,0,0,1,464,252.81c-3.32,8.74-6.49,17.56-13.9,23.92-5.49,3-10.66,2.24-15.91-2.32.66,6.45-.54,11.45-3.72,15.9-4.73,2.13-9,5.28-14.32,6-5.18-7.36-2.18-16.06-3.9-24-4.52-21.11-8.34-42.37-18.34-61.83-5.79-7.34-10.38-16.3-21.75-16.1C365.94,195.63,362.3,190.72,357.62,188.32Z"/><path class="cls-15" d="M337.8,172.39c-19.7-.18-39.37-.17-58.9,3.28C265.59,178,253,182.08,241.39,189c-3.86,2.31-6.22,3.13-9.8-1.38-9.73-12.25-18.08-12.61-29.25-1.46-6.83,6.82-12.69,14.6-19,21.95.1-20.17,9.76-36.58,22.4-50.79,29.64-33.32,68.16-47.75,112-49.41,24.25-.91,47.91,1.77,70.3,11.9-1.28,5.07-5.6,6.22-9.74,7.59-6.07,1.36-11.85-1.48-17.87-1.25-3.66.13-7.35-.19-11,.22-3.34.37-7.34.72-7.14,5.22.19,4,4,3.76,7,4.09,2.65.29,5.34.11,8,.31,4.09.31,8,.95,10.14,5.19C366.47,156.83,350.54,173.57,337.8,172.39Z"/><path class="cls-16" d="M377.76,124.19l10.34-4.35c36.48,13.63,63.85,36.76,77.17,74.37,7,19.65,6.32,39.22-1.29,58.6q-15.69-26.1-31.4-52.18a91.16,91.16,0,0,0-17.48-20.44c-9-8.09-16.08-8.36-25.54-.84-2.21,1.75-4.27,3.59-7.09,2.34-14.23-6.33-29.79-6.17-44.67-9.31,3.73-.12,7.05-.68,9.51-4.17,6.28-8.89,13.89-16.85,18.94-26.63,3.1-3.71,7-2.68,10.91-1.87,2.89.61,5.56,2,8.5,2.48,2.71.45,5.5.85,6.73-2.29s-1-4.68-3.27-6.32C385.15,130.69,378.44,131.06,377.76,124.19Z"/><path class="cls-17" d="M213.68,288.74c-3.89-25.81,5.69-49,15.27-71.77,4.1-9.77,13.79-15.85,24.36-19.15,1.1,4.89-1,9-2.87,13.32-8.52,19.91-15.77,40-14.89,62.34.41,10.6,2.69,20.29,8,29.36C232.57,300.29,222.46,295.91,213.68,288.74Z"/><path class="cls-17" d="M393.89,210.48c6.05,3.87,7.62,10.59,10,16.57,6.82,17.27,12.07,35,13.93,53.61.55,5.48-1.31,10.45-1.67,15.69-11.33,6.14-23.73,9-36.15,11.74,1.06-1.68,1.76-3.86,3.25-5,22.39-16.67,23.32-39.24,17.67-63.63C398.65,229.8,396.23,220.15,393.89,210.48Z"/><path class="cls-18" d="M430.45,290.31V267.67c6.76,3.82,11.82,9.75,19.63,9.06C444.46,282.6,437.43,286.42,430.45,290.31Z"/><path class="cls-19" d="M195.56,266.68c1.41-.77,3.05-2.43,4.17-2.13,2.3.61.38,2.58.32,3.95-.08,1.94-.42,3.88-.65,5.82C196.33,272.66,195.51,269.89,195.56,266.68Z"/><path class="cls-20" d="M273.89,242.71c-7.47-.65-10.55-5-10.43-12,.11-7.14,3.23-12.58,10.87-12.68s11.45,5.42,11.2,12.39C285.28,237.25,281.45,242.18,273.89,242.71Z"/><path class="cls-21" d="M320.28,254c5,.5,10.93-1.24,11.76,6.22.48,4.36-8.16,12.95-12.64,12-6-1.22-12.82-4.79-12.81-10.78C306.62,253.61,314.71,254.56,320.28,254Z"/><path class="cls-22" d="M353.82,227.88c.36-6.15,1.57-11.77,9.28-11.66,6.85.1,10.52,4.36,10.28,10.92-.23,6.21-3.48,11.08-10.37,11.19C356.36,238.43,353.8,234,353.82,227.88Z"/><path class="cls-23" d="M273.72,190.2l6.44-1.9c7.06,7.53,6.68,9.74-2.23,14.24-3.82,1.92-7.52,4.08-11.23,6.21s-6.09.26-8.9-1.83c-3.44-2.56-.85-4.47.21-6.64.8-4.78,4.83-5.92,8.45-7.51C268.73,191.5,271.55,191.76,273.72,190.2Z"/><path class="cls-23" d="M357.62,188.32c5.27,1,11.5-.32,14.52,6.06,2.16,3.38,7.19,5.68,4.2,11-1.54,2.75-4.42,3.91-6.78,2.44-4.87-3-11.38-4.75-12.05-12.06C357.29,193.29,360.25,190.85,357.62,188.32Z"/><path class="cls-24" d="M267.36,193.79c-3.82,1.15-6.42,4.05-9.35,6.49L253.6,198c3.15-3.76,7.71-4.67,12.06-6C267.71,191.2,268,192,267.36,193.79Z"/><path class="cls-25" d="M267.36,193.79l-1.7-1.84c2.33-2.22,5.18-2,8.06-1.75C272.24,192.54,269.7,193,267.36,193.79Z"/><path class="cls-26" d="M377.76,124.19c4,1.55,7.95,3,11.87,4.67,5.59,2.36,10.35,5.89,7.86,12.68s-8.33,6.56-14.13,4.56c-5.6-1.93-11-4.43-17.11-4.52-6.07-2.66-12.44-1.21-18.67-1.22-5.91,0-11.07-1.16-11.49-8-.44-7.25,4.88-9.57,11-10.31C357.43,120.75,367.59,122.7,377.76,124.19Z"/><path class="cls-27" d="M409.86,143.41c4.87.29,8.16,2.69,8.31,7.83.16,5.51-2.93,8.81-8.47,8.72-5-.1-7.85-3.23-7.89-8.3S404.68,143.84,409.86,143.41Z"/></svg>