<svg id="图层_1" data-name="图层 1" xmlns="http://www.w3.org/2000/svg" viewBox="0 0 600 600"><defs><style>.cls-1{fill:#7e310d;}.cls-2{fill:#fefefe;}.cls-3{fill:#f2c863;}.cls-4{fill:#6e627a;}.cls-5{fill:#633a2c;}.cls-6{fill:#7d4143;}.cls-7{fill:#d1bfb0;}.cls-8{fill:#d3620e;}.cls-9{fill:#d0a847;}.cls-10{fill:#d1bfaf;}.cls-11{fill:#c0934c;}.cls-12{fill:#fdfdfd;}.cls-13{fill:#d1beaf;}.cls-14{fill:#fdfcfc;}.cls-15{fill:#f8f6f4;}.cls-16{fill:#6e6179;}.cls-17{fill:#b3653f;}.cls-18{fill:#bf914b;}.cls-19{fill:#fbfbfb;}.cls-20{fill:#fcfafa;}.cls-21{fill:#61526d;}.cls-22{fill:#d0bcad;}.cls-23{fill:#f4f0ed;}.cls-24{fill:#62526c;}.cls-25{fill:#b0643d;}.cls-26{fill:#6e5e74;}.cls-27{fill:#efe8e3;}.cls-28{fill:#eee6e1;}.cls-29{fill:#e7dad3;}.cls-30{fill:#e2d4cb;}.cls-31{fill:#efe8e4;}.cls-32{fill:#ede5e0;}.cls-33{fill:#d46511;}.cls-34{fill:#d87527;}.cls-35{fill:#d97e33;}.cls-36{fill:#e0903f;}.cls-37{fill:#dd9347;}.cls-38{fill:#61536f;}.cls-39{fill:#625570;}.cls-40{fill:#fdfcfa;}.cls-41{fill:#f0c462;}.cls-42{fill:#f48f40;}.cls-43{fill:#f4cdb3;}.cls-44{fill:#d4a17d;}.cls-45{fill:#d36310;}</style></defs><path class="cls-1" d="M99,293c-4.39-13.4-5.41-27.17-4.93-41.11.07-2-.39-4.15.33-5.84,8.51-19.94,6.53-41.81,11.66-62.4,9.57-38.37,27.83-71.82,56.51-99C194.91,54.06,233.32,36.23,278.15,33c63.06-4.56,115.44,18,158.68,62.92a192.65,192.65,0,0,1,40.47,63.5c1.8,4.57,3.91,7.36,9.31,7.11,4.81-.23,8.11,3,10.61,6.66,6.9,10.19,9.35,21.89,11,33.81.56,4-2.78,7.21-2.38,11.36.31,3.24.95,4.36,4.29,3,3.6-1.52,7.35-2.83,11.39-2.22,9.06,1.38,14.14,9.65,12.74,21-1,7.8-2.39,15.58-6.11,22.56-4.62,8.65-4.71,19.87-11.57,26.62-7.9,7.77-11.4,18.29-19.12,25.79-3.8,3.7-4,7.62-3.17,12.43,5.09,29,5.21,57.94-1.12,86.8-7.85,35.76-28.49,61.88-60,79.95a199.82,199.82,0,0,1-35.43,16.52c-5,1.69-7.24,4.32-7,10,.4,11.31.1,22.64-.11,34-.19,9.67-3.63,13.09-13.15,12.93a126,126,0,0,1-16.22-1.35c-6.48-1-10.66-6.11-11-13.49-.3-7.61-.24-15.24-.1-22.86.07-4-1-5.19-5.34-4.4A397.16,397.16,0,0,1,271,532.2c-5.14,0-6.25,2.58-6.78,6.62-.94,7.14-2.45,14.14-5.71,20.65-1.08,2.16-2.16,4.47-4.62,5.26-10,3.19-19.77,2.55-29-2.36-3.4-1.8-4.38-5.47-3.95-9.08.67-5.6,1.21-11.32,2.86-16.67,2-6.35-.25-8.46-6.28-9.26a198.69,198.69,0,0,1-53.94-14.87c-17.3-7.62-34.74-15.47-46.65-31.21-7.79-10.29-12.78-21.67-12.39-35,.41-14.23,8.92-22.48,22.93-20.89,5.39.61,6.45-1,5.87-5.67-1.12-9.26-1.85-18.58-3.14-27.82s-8-14.74-15.54-19c-7.35-4.18-13.46-10.39-21.7-13.11a6.58,6.58,0,0,1-4-4.09C85.73,346.09,77.49,340.11,72.2,332a40.48,40.48,0,0,1-6.61-18.91C64.28,298,75.85,289,92.33,292,94.4,292.39,96.28,293.91,99,293Z"/><path class="cls-2" d="M442.65,337.72c17.87-17.07,33.3-36,44.44-58.22,2.94-5.86,4.15-1.35,6,.58.95,3.17-.17,6-1.51,8.76a114.85,114.85,0,0,1-12.89,20.35c-5.49,7.13-7,14.63-6.05,23.75,2.61,26.18,3.83,52.49-.44,78.64-5.22,31.94-20.25,58-47.42,76.35-24.12,14.56-50.67,22.52-78,28-53.16,10.58-106.13,10.53-158.65-4.22-4-1.11-8-2-11.56-4.23-17.5-10.94-21.28-28-20.84-46.9a5,5,0,0,1,.86-3.11c6.1-7,3.34-14.77,2.07-22.33-3.2-19.07-5.23-38.29-6.92-57.53-.51-5.72-2.55-9.88-7.35-13-7.86-5.05-16.07-9.54-23.65-15.05-2.47-1.79-5.11-3.4-5.85-6.68q3.06-8.47,6.12-16.91c.57,0,1.17-.11,1.35.11,15.55,17.73,33.92,32,54,44.25,4.4,4.39,4.23,10.45,5,15.84,1.48,10.21,7.43,16.44,16,20.68,14,6.89,29.11,10.17,44.27,12.91A191.82,191.82,0,0,0,285,422.46c37.08-1.83,73.33-7.77,108-21.78,12.14-4.91,24-10.56,34.59-18,9.22-6.45,12.71-16.67,12.69-27.94C440.29,349,438.81,343,442.65,337.72Z"/><path class="cls-3" d="M449.66,292.05c-14.38,21-33.78,36.57-56.39,47.27-75.23,35.61-149.52,33.83-222.13-8.08a62.54,62.54,0,0,1-5.27-3.78c-4.42-7.19-4.25-15.55-4.8-23.36-1.1-15.86-4.3-31.4-6-47.15a155.24,155.24,0,0,1,11-77.22,122.92,122.92,0,0,1,27.23-40.15,24.7,24.7,0,0,0,6-9.19c1.06-3.07,3.56-4.83,6-6.6,25.34-18,53.59-27.67,84.46-30.89a136.16,136.16,0,0,1,34.84,1.15c2.26.44,4.45,1.33,6.81,1.32,2.42,1,4.9.43,7.37.27a14.82,14.82,0,0,1,9.58,4c2,4.22,6.3,4.73,10,6.28,2.24,1.6,4.82,1.79,7.45,1.82,4.1,2.17,10,2.72,8.9,9.67-2.78,1.54-5.5.55-8.22-.19-20.32-5.6-41.74,6.37-51.25,20.55a71.37,71.37,0,0,0-10.57,25.07,23.92,23.92,0,0,1-.4,2.58c-.93,2.81-.74,6.9-4.22,7.48s-4.74-3.21-6.33-5.72c-7.87-12.43-17.68-22.55-32-27.46a56.88,56.88,0,0,0-67.27,24.76c-2.55,4.28-5.21,8.52-6.89,13.31-3.66,10.44-3.76,10.4-15.45,12.16,4.3,2.23,8.95,2.78,10.08,7.37,1.25,5.05-1.91,7.65-6.33,10,10.26,7.11,8.38,19,12.27,28.51,1.32,3.21-.82,6.29-3,8.85-15.45,17.76-10.23,42,3,57.07,23.35,26.48,53.93,36.94,87.62,41.12,11,1.37,22.05,2.19,33.08,0a22.58,22.58,0,0,0,14.41-9.37c3.69-5.2,3.16-10.65-1.19-15.39-5.07-5.53-11.58-7.65-18.76-7.69-19.2-.1-37.3-5.81-55.48-10.91-8.08-2.27-14.77-7.38-20.3-13.72-2.83-3.24-4.66-7.09-2.65-11.4s6-4.65,10-4.7c10.26-.13,20.35,1.86,30.45,3,9.92,1.14,19.64.06,29.21-.9,28.66-2.87,56.53-9.49,83.05-21.22,14.26-6.31,27-15,39-24.67,5.66-4.57,9-10.61,7.87-18.33-.58-4-1.85-7.78-5.54-9.88-4.83-2.73-6.18-6.86-6.11-12a152.19,152.19,0,0,0-.65-17.59c-.59-5.9,1.86-10.59,7.9-12.72,4.13.57,5.56,4,7,7.07a183.94,183.94,0,0,1,14.68,47.81c2.74,15.82,6.44,31.56,7.23,47.58C449.6,269.17,453,280.59,449.66,292.05Z"/><path class="cls-4" d="M442.65,337.72c.07,4.13-.07,8.27.27,12.37,1.3,15.83-3.68,28.43-17.5,37.35s-28.74,15.34-44.17,20.66c-36.77,12.68-74.72,17.92-113.5,17.16a187.15,187.15,0,0,1-61.27-11.48c-25.82-9.52-27.69-15.89-30.21-43.44,18.33,9.16,37.11,17.23,57.27,21.39,78,16.13,147.46-1.28,208-53.35A8,8,0,0,1,442.65,337.72Z"/><path class="cls-5" d="M137,301.07c-4.84-2.74-7.23-6.63-7.68-12.44-1.07-14-2.62-28-6.54-41.65-3-10.32-1.92-21.3-.82-31.76,3.06-29.15,12.31-56.42,28.9-80.75,26-38.09,61.51-62.41,106.65-72.44,1.68,3.37-.46,5.89-2.07,8.37-6.6,10.15-12.69,20.61-19.23,30.81-3.54,3.76-8.42,5.29-12.79,7.66-44.35,24.08-74.19,59.56-85.26,109.48-3.17,14.28-3,28.82-1.37,43.39,1.28,11.21,1.78,22.5,2.63,33.76C139.57,297.67,139.39,299.92,137,301.07Z"/><path class="cls-6" d="M235.31,99.75c4.66-10.68,11.78-19.93,17.46-30,1.48-2.62,3.14-5.14,4.72-7.7,56.18-10.75,106.33,3,149.57,39.52,36.43,30.79,57.67,70.62,63.66,118.36,1.67,13.23,1.39,25.92-4.19,38.2-4.74-2-4.59-6.44-5.17-10.42-2.53-17.18-5.47-34.29-9.7-51.13-4.71-18.78-14.05-35.25-24.86-51.28-7.91-11.74-19.34-19-29.39-28.11-15.59-19.58-37.06-29.34-60.33-36-13-3.74-13.59-3.5-20.67,6.72a9,9,0,0,1-4.92,1.53c-13.05,0-26.09,0-39,2.21-2.84.49-5.52-.79-8-2.33a21.42,21.42,0,0,0-11.85-3.74c6,7.46,5.46,9.56-3.81,12.46C244.52,99.31,240.29,103.06,235.31,99.75Z"/><path class="cls-7" d="M114.85,342.89c11.52,7.27,23.14,14.38,34.5,21.9,3.54,2.34,4.79,6.29,5.1,10.76,1.59,22.72,4.58,45.28,8.3,67.74.83,5,1.81,9.9-3.23,13.58-2,1.44-1.55,4-1.5,6.09.3,14.06,3.63,27.05,13.37,37.8,1.88,2.08,3.44,4.45,5.14,6.69-19.58-6.86-38.51-15-52.22-31.39-7-8.34-11.14-18.12-10.85-29.32.14-5.26,1.41-10.34,7-12.09,5.42-1.69,10.8-.8,14.79,3.83,1.57,1.81,3.16,3.14,5.56,2.13,2.67-1.12,3-3.52,2.65-6-2.09-13.74-2.25-27.67-4.46-41.42-1.69-10.57-6.29-18.8-15.44-24.41-1.67-1-3.25-2.18-4.9-3.22C104.44,356.61,104.44,356.62,114.85,342.89Z"/><path class="cls-7" d="M330.61,45.07c29,5.38,54.68,18.26,77.47,36.59,41.26,33.16,65.74,76.29,74,128.54.82,5.15,2.77,8.18,8.41,7.34,5.21-.77,7.3.47,6.11,6.51-7,35.38-21.94,66.63-47,92.82-3.41-2.14-1.83-5.17-1.43-8,12-14.22,21.65-29.74,27.6-47.58,8.11-24.32,5.14-48.4-2.23-71.86C449.69,113.35,399,65.16,319.91,52.07c-91.38-15.13-173.39,40.72-199.5,126.09-4.34,14.21-6.61,28.79-7.88,43.56-.16,1.9.25,3.92-1.37,6.07-2.83-3.86-1.29-8-1-11.65,2.25-26.71,8.85-52.23,21.84-75.87,2.41-1,2.54-3.6,3.72-5.46,3.06-4.29,5.22-9.17,8.6-13.26,3.44-4.5,6.68-9.16,10.46-13.41a176.43,176.43,0,0,1,32.54-30.6,181.51,181.51,0,0,1,73.14-32.17c9.65-1.92,19.5-3.77,29.51-3.06,8.08,0,16.16-.27,24.19.73,3.32.92,6.91.33,10.13,1.81l-.23,0C326.22,46.09,328.4,45.79,330.61,45.07Z"/><path class="cls-2" d="M448.22,308.89c2.62,2.27.76,5.35,1.43,8-16.17,19.3-36.1,33.83-58.16,45.56-38.23,20.33-79.16,28.84-122.19,25.82-31.54-2.22-61.59-10.44-89-27-4-4.57-8.56-9-3.87-15.69,19.19,9.35,38.86,17.41,59.89,21.59,63.09,12.56,122.85,4.83,178.11-29.64C427.11,329.67,438.06,319.72,448.22,308.89Z"/><path class="cls-8" d="M235.31,99.75l20.26-7c-.82-2.89-3.2-2.46-4.84-3.08-2.59-1-4.25-2.43-3.43-5.33.76-2.66,3-3,5.27-2.4,3.36.87,7.33,1.1,9.87,3.1,5.58,4.41,11.32,4.33,17.68,3,11.83-2.5,23.86-.91,35.79-1.44a19.87,19.87,0,0,1,10,7.68,2.26,2.26,0,0,1-.44,1.74,172.21,172.21,0,0,0-65.63,5.26c-21.47,6.09-41.52,15.09-58.67,29.74-11.86,12.95-24.41,25.28-34,40.2-13.58,21.11-21.54,44.17-22.86,69.11a190.59,190.59,0,0,0,1.5,32.41c1.38,11.63,1.71,23.36,3.33,35,.27,1.92.4,4-1.71,5.18-3.8-3.64-8.32-6.64-10.43-11.77-1.21-16.87-2.24-33.77-3.67-50.63-1.85-21.78,2.79-42.38,11.35-62.12,16.14-37.2,43.2-64.2,79-82.76C227.49,103.56,231.42,101.69,235.31,99.75Z"/><path class="cls-7" d="M424.73,487.93c8.45-9.58,18.24-17.94,25.53-28.62,11.55-16.91,18-35.52,20.23-55.79,2.7-24.77,1.68-49.45-1.23-74.11-.66-5.52-.41-11.11,2.89-15.71,7.72-10.75,15-21.74,20.89-33.62,3.82,1.46,5.85,5.06,8.87,7.47,2,1.61,1,3.34.26,5.24-2.87,7-7.43,12.79-12.35,18.3-4.41,5-5.57,10.1-4.44,16.74,5.37,31.62,6,63.3-3.57,94.25C472.51,452.15,453.5,474.43,424.73,487.93Z"/><path class="cls-9" d="M147.41,312.84c-3.51-17.92-4.44-36.17-5.64-54.28-3-45.25,12.94-83.75,44.87-115.69,4.4-4.4,8.9-8.89,14.51-11.91-3,8.94-10.6,14.64-16,21.83-15.83,21.11-24.17,44.64-27.23,70.66-2.24,19.07.57,37.52,3.17,56.24,2.2,15.83,4.67,31.71,4.78,47.77A85.8,85.8,0,0,1,147.41,312.84Z"/><path class="cls-8" d="M398.92,115.61c33,23.41,51.85,55.5,58.65,95.12,2.72,15.84,6,31.59,9,47.37-1.81,7.47-3.91,14.81-8.78,21-3.34-1.84-2.69-5.08-2.85-8.07-1.9-34.33-8.13-67.7-22.24-99.28-2.94-6.57-7.13-12.46-11-18.47-1.32-2-2.68-3.94-2.94-6.41-1.61-11-2-11.39-14.1-13.19-3.75-1.9-7.17-4.1-7.89-8.74C396.66,121.65,395.88,118.17,398.92,115.61Z"/><path class="cls-9" d="M420.5,145.4c.6,1.6.85,3.48,1.86,4.75,15.93,19.92,23,43.47,28.1,67.87,3.39,16.12,6.56,32.27,7.24,48.78.17,4.1,0,8.2.05,12.3a43.49,43.49,0,0,1-8.09,12.95c-3.68-19.21-2.85-38.89-6.51-58.13-4.68-24.54-7.95-49.39-19.4-72.07-1.07-2.11-1.77-4.5-4-5.78-2.28-.06-4.46-.8-6.81-.7-3.31.13-5.17-1.49-4-5.15C412.51,148,416.16,145.87,420.5,145.4Z"/><path class="cls-10" d="M176.48,345.6c.08,5.53,2.41,10.5,3.87,15.69C157.05,349,138,331.82,122.12,311c-.78-1-2.72-2.35-.31-3.58,1.82-.92,3.53-2.73,5.93-1.6a3.2,3.2,0,0,1,1,.89C142,322.89,159,334.52,176.48,345.6Z"/><path class="cls-11" d="M112.6,297.09c-3.93-3.18-5.71-7.62-6.92-12.29-3.6-13.8-5-27.76-2.22-41.89.47-2.45,1-6.12,3.59-6.39,3.16-.32,3.93,3.51,5.09,5.93a35.32,35.32,0,0,1,1.77,6.22c.77,13.56,3.23,26.91,5,40.36C119.79,296.37,118.58,297.7,112.6,297.09Z"/><path class="cls-12" d="M358.47,545.66l-.15-5.35c2.87-9.39,11.07-12.21,19-15.31a3.73,3.73,0,0,1,4.23.92,83,83,0,0,1,0,20.66C375.39,551.32,363,550.83,358.47,545.66Z"/><path class="cls-13" d="M516,229c6.4-1.91,9-.18,9.19,6.85.37,11.6-4.33,21.77-9.61,32.51l-10.94-10.47c1.91-5.39,5.73-9.72,8.17-14.8C514.9,238.66,518,234.39,516,229Z"/><path class="cls-14" d="M516,229c4.09-.11,6.14.71,3.73,5.49-3.12,6.16-5.84,12.53-9.67,18.31-1.37,2.07-2.29,4.81-5.42,5.09-6-5.61-5.46-18.19,1.18-23.35A29.11,29.11,0,0,1,516,229Z"/><path class="cls-13" d="M92.53,319.21c-.91,5.77-2.2,11.42-5.44,16.83-6-5.72-10.13-12.27-11.87-20.06-1.07-4.86-1.52-10,3.27-13.58C84.75,306.68,89,312.63,92.53,319.21Z"/><path class="cls-15" d="M288.7,43.46c-35.79,1.64-68.26,13-97.68,33.31-1.24.85-2.59,1.54-3.88,2.3-1.39.26-2-.27-1.6-1.68C212.1,56.91,242,45.06,275.48,42.18,279.94,42.1,284.62,39.7,288.7,43.46Z"/><path class="cls-16" d="M100.54,324.36c.58-5.77,1.13-11.55,1.73-17.32.16-1.5.32-3.4,1.79-3.9,2.2-.74,2.51,1.74,3.65,2.87,9.58,9.49,5.08,19.25.64,29C101.38,336,99.46,333.34,100.54,324.36Z"/><path class="cls-7" d="M381.55,525.92c-9.15,2.53-16.58,7.83-23.23,14.39-1.1-16.87-1.1-16.87,14.55-21.23l.63-.19C382.27,516.41,382.27,516.41,381.55,525.92Z"/><path class="cls-4" d="M358.47,545.66c7.62,2.23,15.39.54,23.08.92.48,14.95.25,11.94-11.38,12C359.58,558.57,358,556.68,358.47,545.66Z"/><path class="cls-16" d="M253.33,547.75c-1.62,9.88-4.12,12.58-19.09,9.41-6-1.27-6.37-3.26-3.29-15.33a4.69,4.69,0,0,1,1.86.57c3.28,1.89,7,1.28,10.52,1.91S250.6,544.86,253.33,547.75Z"/><path class="cls-17" d="M112.6,297.09c7.11-.66,5.31-5.47,4.2-9.56a115.51,115.51,0,0,1-4.34-29.32,28.77,28.77,0,0,1,1.45-9.54c6.14,15.32,7.2,31.42,6.16,47.56C119.67,302.44,115.33,298.27,112.6,297.09Z"/><path class="cls-18" d="M487.14,187.55c-1-3.07-2-6.14-2.95-9.23-.38-1.21-1-2.66.54-3.44,1.26-.66,2.52.05,3.6.85a13.82,13.82,0,0,1,4.14,5.74c3.85,8.53,7.24,17.19,6.7,26.82-4.41,1.68-6.25-.59-7.11-4.54C490.84,198.22,490.27,192.49,487.14,187.55Z"/><path class="cls-19" d="M253.33,547.75a82.26,82.26,0,0,1-19.15-2.13c-1.46-.34-3.15-.34-2.87-2.58,3.94-8.15,11.52-9,19.14-9.08,3.71,0,6.09,2.12,4.56,6.43Z"/><path class="cls-20" d="M92.53,319.21c-6.31-4.24-11.24-9.64-14-16.81a24.38,24.38,0,0,1,4.69-2.09c8-1.78,11.54,1.19,10.86,9.26C93.76,312.8,93.05,316,92.53,319.21Z"/><path class="cls-21" d="M100.54,324.36c-.08,5.52,2.78,8.89,7.81,10.67a70.18,70.18,0,0,1-7.57,14.27c-2.5,3.81-4.42,2.6-6.06-.57-1.1-2.12-1.92-4.38-.61-6.79C97.13,336.4,98.32,330.19,100.54,324.36Z"/><path class="cls-22" d="M255,540.39c0-4.1-2.78-4.27-5.76-3.94A37.52,37.52,0,0,0,231.31,543c-.11-.41-.23-.81-.36-1.21,2.19-11.65,2.19-11.65,14.25-10.76,1.28.09,2.57.17,3.85.2C257.11,531.51,257.46,532,255,540.39Z"/><path class="cls-23" d="M185.54,77.39l1.6,1.68c-11,9.41-22.22,18.69-31.62,29.84-1.2.16-1.89-.14-1.38-1.53A136.52,136.52,0,0,1,185.54,77.39Z"/><path class="cls-24" d="M503.17,268.4c2.86,2.6,5.71,5.21,8.59,7.79,2.07,1.87,1.54,3.85.16,5.74-2,2.75-3.33.26-4.6-.85-2.76-2.39-5.37-4.95-8-7.44C499.25,270.91,500.12,268.84,503.17,268.4Z"/><path class="cls-25" d="M487.14,187.55c4.68,4.1,5.41,10,6.82,15.49.72,2.86,1.48,5.47,5.21,5.25-4.88,2.54-8.1,1.81-9-4.26C489.28,198.51,488.15,193,487.14,187.55Z"/><path class="cls-26" d="M503.17,268.4c-1,1.94-1.73,4.14-3.89,5.24-2.15-2.49-7.38-2.8-5.76-7.94,1.05-3.34,2.52-5.78,5.81-1.63C500.53,265.58,501.89,267,503.17,268.4Z"/><path class="cls-27" d="M288.7,43.46c-4.23-2.26-8.85-.41-13.22-1.28a136.52,136.52,0,0,1,39.45.34l.5.51-.43.57Z"/><path class="cls-28" d="M154.14,107.38l1.38,1.53-10.33,13.2c-1.24.27-1.88,0-1.4-1.44C146.86,115.94,150,111.24,154.14,107.38Z"/><path class="cls-29" d="M143.79,120.67l1.4,1.44-9.09,13.3a1.28,1.28,0,0,1-.28-2C137.72,128.71,140.81,124.72,143.79,120.67Z"/><path class="cls-30" d="M135.82,133.43c.09.66.19,1.31.28,2-1.14,1.81-.38,5.21-4.08,4.87Q133.92,136.85,135.82,133.43Z"/><path class="cls-31" d="M324.31,44.85c-3.15-.08-6.45.93-9.31-1.25l0,0c2.22-1.14,4.48-.89,6.76-.16C322.84,43.45,323.89,43.55,324.31,44.85Z"/><path class="cls-32" d="M330.61,45.07c-2.25,1.84-4.41,1.41-6.52-.24Z"/><path class="cls-7" d="M321.72,43.49l-6.76.16c0-.37,0-.75,0-1.13A8.88,8.88,0,0,1,321.72,43.49Z"/><path class="cls-8" d="M409.15,150.72c.67,2.42,1.5,3.71,4.47,2.1s5.37-.3,6.09,3.25c-5.21,5.25-5.79,11.28-4.24,18.36,1,4.78.35,10,.26,15a4.83,4.83,0,0,0,2.95,5.07c9.26,5,11.83,16.22,6.37,25.85-4.84,8.53-13.15,13.37-20.77,18.49-30.85,20.75-65.81,30-102.16,35a190.45,190.45,0,0,1-61-1.19,30.72,30.72,0,0,0-6.51-.12c-3,.1-6.61-.64-8.16,2.67-1.76,3.78,1,6.59,3.32,9.2,7.36,8.32,16.84,12.88,27.49,15.2,16.11,3.51,31.93,8.18,48.73,8.3,12.35.09,22.11,8.58,22.86,17.63.74,8.82-8.1,18.31-20.44,20.23-20.76,3.24-41.17,0-61.26-5.37-24.12-6.4-44.88-18.25-61.64-37.17-16.4-18.52-17.24-43.05-1.1-61.58,1.84-2.1,2.23-3.74,1.29-6.34a133,133,0,0,1-4.31-14.35c-1.09-4.54-.88-9.61-7.59-10-2.14-.14-3.05-2.35-2.56-4.56a3.4,3.4,0,0,1,4.42-2.77c3.12.67,4.38-.33,4.59-3.53s-.92-4.77-4.07-5.47c-3.54-.79-9.39-.2-8.25-5.8,1-5,6.23-2.73,9.48-2,4.13,1,4.78-1.3,5.67-4.22,4.21-13.87,11.35-26,22.76-35.06,30.46-24.2,70.56-15.94,90.36,18.37,1.08,1.87,2.07,3.8,3.71,6.82,1.26-5.89,1.95-10.87,3.38-15.62,7.22-23.81,21.76-39.73,47.42-43.59,8.49-1.28,16.37,1,24.31,3.32,3.37-1.34,5.42,1,7.09,3.06a19.87,19.87,0,0,0,11.8,7.2c6.34,3.18,8.76,9.13,10.87,15.31C405.66,145.42,409.84,146.82,409.15,150.72Z"/><path class="cls-2" d="M393.39,128.77c-5,.82-8.69-1.25-11.5-5.32a24.12,24.12,0,0,0-6.84-6.7c-2.92-3.31-6.75-5.35-10.5-7.5-2.26.22-4-1.14-5.84-2-3.64-2-8-2.72-11-6-2.8-1.93-6-2.76-9.22-3.7-2,.68-3.85,0-5.71-.58-2.43-.8-5.21-.51-7.33-2.33-4.19-1.5-8.15-3.28-9.52-8.1.92-8,4-11.74,11-10.31,27.93,5.77,53.93,15.45,72,39.37.76,3.09,1,6.15-.49,9.12C397.87,127.48,396.69,129.44,393.39,128.77Z"/><path class="cls-33" d="M227.14,125c-.14.49-.11,1.39-.52,1.67-4.59,3.09-8.87,7-14.27,8.37-2.86.74-4.16-1.83-3.38-4.73,1-3.77,10.28-9.71,14.17-9.19A4.43,4.43,0,0,1,227.14,125Z"/><path class="cls-34" d="M347.69,101.26a45.29,45.29,0,0,1,11.7,5.21c.26,1.2-.07,1.8-1.41,1.4C354.26,106.12,348.89,106.93,347.69,101.26Z"/><path class="cls-35" d="M325.43,94.65c2.76-.35,5.2.91,7.77,1.52.19,1.08,0,1.76-1.31,1.18-2.21-.15-4.54.26-6.44-1.39C325.45,95.53,325.44,95.09,325.43,94.65Z"/><path class="cls-36" d="M358,107.87l1.41-1.4,5.16,2.78C361.86,111.16,360,109.17,358,107.87Z"/><path class="cls-37" d="M331.89,97.35l1.31-1.18,5.27,1.38C336.22,99.09,334,98.79,331.89,97.35Z"/><path class="cls-38" d="M402.77,383.09c-2.46,2.74-1.13,5.73-1.66,8.38-.46,2.31-1.55,4.19-4,4.57s-3.41-1.46-3.73-3.54c-.46-2.93-2.75-4.21-4.78-5.85s-3.43-3.67-2.45-6.22,3.37-2.37,5.57-1.71a3.62,3.62,0,0,0,4.5-1.67c3-5.29,6.12-4.87,9.25.06,2.43-4.37,4.64-8.29,6.82-12.22,2.84-5.13,6.21-3.94,9.23-.44a39,39,0,0,1,4.74,7.74c3.87,7.57,3.4,7.79-4.66,9.13-3.51.58-7.69,1.43-10.11,5-1.38,2-2.92,4-5.76,3.32C402.35,388.88,403.55,385.59,402.77,383.09Z"/><path class="cls-38" d="M297,411.75c-1.44-.49-7.16,2.49-7.41-2.61-.27-5.5,5.47-3.08,8.68-3.43,4.47-.49,8.85-1.94,13.44-1.39,1.95.23,4.16.08,4.23,2.82.06,2.39-1.58,3.47-3.73,3.61C307.74,411,303.41,412.88,297,411.75Z"/><path class="cls-38" d="M359.78,395.26c1.93,0,3.73.34,4.31,2.32.71,2.45-.95,3.55-3,4.18-5.15,1.6-10.3,3.22-15.49,4.7-2.55.73-4.95.37-5.51-2.73s1.36-4.07,4.07-4.65C349.46,398,354.66,396.53,359.78,395.26Z"/><path class="cls-39" d="M326.07,408c-1.84-.42-3.15-1.44-2.78-3.57a2.62,2.62,0,0,1,3.32-2.28,3,3,0,0,1,2.51,3.28C329.11,407.35,328,408.11,326.07,408Z"/><path class="cls-40" d="M409.15,150.72c-2.61-1.85-5.61-3.29-6.74-6.63,0-4.13-3.21-9,2.81-11.7,10.67-2.44,16.3,2.34,15.28,13C417.87,149.62,414.21,151.67,409.15,150.72Z"/><path class="cls-41" d="M405.22,132.39c-3.34,3.33-2.92,7.55-2.81,11.7-1.26-6.14-3.73-11.56-9-15.32l5-4C399.26,128.56,403.65,129.22,405.22,132.39Z"/><path class="cls-42" d="M274.47,267.11c-12.25.54-24.13-3-36.31-3.26-1.72,0-3.45-.63-5.16-.58-6.05.2-11.9,1.16-15,7.23-2.75,5.33-.68,12.45,3.9,17.95,8.47,10.19,19.46,16.11,32,18.83,15.67,3.37,30.9,9.18,47.37,8.46,3.78-.17,7.65,1.46,11.45,2.42a8.9,8.9,0,0,1,6.95,7.81c.43,3.49-2.22,6-5,7.84a30,30,0,0,1-18.08,4.69c-30.09-1.32-59.37-6.43-84.87-23.87C199.1,306,188,295.57,183.21,280.19,176,257,195.45,235.71,219.5,238.69c16.36,2,32.06,7.84,48.78,7.57,11.14-.17,20.18-2.74,24-14.68,1.27-4,4.25-7,7.26-9.93,7.51-7.26,17.05-8.35,23.52-.32,7.48,9.27,15.3,8.74,25.12,5.92,19.55-5.62,38.49-12.54,55.91-23.14,4.41-2.68,9.1-3.89,12.48,0,3.63,4.17,2.53,9.6-.92,13.79-4.46,5.4-10.3,9.32-16.05,13.23-24.23,16.45-51.47,25.06-79.85,30.77A265.86,265.86,0,0,1,274.47,267.11Z"/><path class="cls-43" d="M206.42,159.81c18.55-22,51.87-23.11,72.3-2.18,13.89,14.23,19.22,31.7,18,51.37a6.68,6.68,0,0,1-2.62,4.94,44.9,44.9,0,0,0-12.38,18.17c-1.29,3.45-3.52,4.66-6.78,4.94-9.82.86-19.71.8-29.15-1.93-9.92-2.87-20-3.88-30.14-4.83a11.44,11.44,0,0,1-7.08-6.23C199.3,202.92,197.64,181.55,206.42,159.81Z"/><path class="cls-43" d="M397.24,197.68c-17.59,11.25-37.15,17.65-57.07,23.15-1.49.41-3.29,1.11-4.3-.2-4.88-6.32-12-9.81-18.05-14.59-5.22-4.11-5.92-10.4-7.14-16.3-4.82-23.33,4.28-48.25,21.95-60.21,11.57-7.83,24-9.58,37.18-4.75C392,140,399.4,162.31,400.05,187.88A15.09,15.09,0,0,1,397.24,197.68Z"/><path class="cls-44" d="M206.42,159.81c.86,4.62-.81,8.94-1.49,13.41-3.08,20.25-.94,39.58,10.77,57.07-5.64.1-11.35-.24-16.69,2.09-3.19,1.39-4.65.06-6-2.81C183.44,208.85,189.81,175.34,206.42,159.81Z"/><path class="cls-44" d="M397.24,197.68c.77-17.17-1.17-33.77-9.51-49.25a65.09,65.09,0,0,0-12.92-17c-2-1.9-4.47-3.57-5-6.63,22.06,8.25,32.22,25.66,36.52,47.55.33,1.7.33,3.45.59,5.17C408.72,189.42,407.62,191.74,397.24,197.68Z"/><path class="cls-45" d="M263.46,180.72c5.49,3.42,12.54,5.66,19,9.07,2.3,1.21,2,4.5.68,6.52-3.78,5.62-8.3,10.61-14.46,13.79-2.3,1.19-4.69,1.56-6.32-1s0-4.47,2-6c3-2.35,8.2-4.09,7.7-7.86-.4-3.06-6-3.32-9.05-5.37-2.44-1.66-5.82-2.76-4.74-6.77C258.85,181.1,260.57,180.58,263.46,180.72Z"/><path class="cls-45" d="M336.32,181c2.87,2.53,6.31,2.27,9.24,3.43,2.26.9,3.86,2.22,3.27,4.8s-2.58,3.46-5,3.15a35.69,35.69,0,0,1-15.75-5.55c-3.71-2.53-4.15-6-.91-9.33,3.45-3.57,7.07-7,10.7-10.37,1.82-1.7,4-3.11,6.22-.79,2,2.11,1.16,4.42-.53,6.4C341.24,175.51,338.81,178.2,336.32,181Z"/></svg>