<svg id="图层_1" data-name="图层 1" xmlns="http://www.w3.org/2000/svg" viewBox="0 0 600 600"><defs><style>.cls-1{fill:#7e310d;}.cls-2{fill:#fefefe;}.cls-3{fill:#6d607a;}.cls-4{fill:#d1bfb0;}.cls-5{fill:#d0beaf;}.cls-6{fill:#fbfbfb;}.cls-7{fill:#6f6179;}.cls-8{fill:#6f6078;}.cls-9{fill:#cfbbab;}.cls-10{fill:#f6f5f5;}.cls-11{fill:#6d6079;}.cls-12{fill:#d1beaf;}.cls-13{fill:#ef93b3;}.cls-14{fill:#d3620e;}.cls-15{fill:#643b2c;}.cls-16{fill:#d4a17c;}.cls-17{fill:#dc75a0;}.cls-18{fill:#7e4142;}.cls-19{fill:#fdfcfc;}.cls-20{fill:#7e4141;}.cls-21{fill:#fcfbfb;}.cls-22{fill:#6e6078;}.cls-23{fill:#cfbcad;}.cls-24{fill:#6e5f76;}.cls-25{fill:#7f4141;}.cls-26{fill:#573558;}.cls-27{fill:#62526c;}.cls-28{fill:#62516a;}.cls-29{fill:#625470;}.cls-30{fill:#625570;}.cls-31{fill:#61536f;}.cls-32{fill:#fefefd;}.cls-33{fill:#d3620f;}.cls-34{fill:#dc76a0;}.cls-35{fill:#c76288;}.cls-36{fill:#c6628a;}.cls-37{fill:#c76289;}.cls-38{fill:#f4cdb3;}.cls-39{fill:#fefdfc;}.cls-40{fill:#d46310;}</style></defs><path class="cls-1" d="M570,329.26c.4,43.4-16.13,84.23-49.27,118.16-22.47,23-50.63,36.15-81.25,44.56-5.41,1.49-10.78,3.26-16.29,4.23-4.51.8-4.34,2.64-2.63,5.94,3.51,6.8,7.42,13.74.32,20.7-5.38,5.26-17.84,6.52-26.27,2.32-7.89-3.93-15.46-8.63-21.54-15-4.06-4.26-7.91-5.64-13.92-5.24-30.2,2-60.43,2.18-90.6-.95-1.94-.2-3.93.07-5.85-.2-4.43-.61-6.66.76-7.29,5.61a98.44,98.44,0,0,1-3.82,16.37c-2.69,8.67-7.17,11.68-16.21,11.87a37.89,37.89,0,0,1-14.4-2.11c-7.13-2.7-11-7.38-10.95-15.46,0-7.72,3.51-17.42-1.36-22.64-4.42-4.73-13.93-4.57-21.11-6.86-31.88-10.17-63.83-20-91.53-40-33-23.75-56.16-54-63.75-94.7-5.79-31.07-.52-60.7,12.71-89.1C64.65,224.61,96.17,193,133.66,166.46c24.08-17.06,51.57-27.72,76.7-42.68,22.74-13.54,44-29.06,59.55-51.11,4-5.7,10.31-7.23,16.52-8.5C302,61,317.25,62.29,332.71,66c15.07,3.6,22.69,15.44,31.54,25.9A270,270,0,0,0,385,114.53a88.94,88.94,0,0,0,39.11,21.88c75.71,19.88,133.12,84.85,144.36,162.37C569.76,307.57,569.49,316.31,570,329.26Z"/><path class="cls-2" d="M127.89,456.74l-2.66-1.2C92.62,432.7,78.62,399,71.09,361.79a191.61,191.61,0,0,1,4.17-93.24c10.49-35.57,30.67-65,58.76-89.07,18.72-15.14,40.12-25.66,61.5-36.31,31.1-15.49,58.9-35.36,80.6-62.95a14.16,14.16,0,0,1,8.53-5.33c18.51-3.58,36.88-4.09,54.23,4.82,10.35,5.31,15.75,15.67,22.93,24.13,11.29,13.29,23.49,25.4,38.65,34.31,6.84,4,14.62,5.12,22,7.58,4.15,1.38,8.21,3,12.31,4.5,6,2.67,11.68,5.85,17.42,9,3,1.6,5.71,3.73,1.59,7.14a8,8,0,0,1-5.75,0c-25-9-50.71-16.54-71.71-34-12.22-10.18-24.48-20.39-32.72-34.24-4.1-6.9-10-10.4-17.32-12.22-11-2.75-22.18-3.32-33.44-2.72-6.52.34-11.63,3.41-15.48,8.58-23.81,32-56.08,52.36-92.4,67.23-14.7,6-28.73,13.13-41.52,22.91-12.16,9.3-16.85,21.38-18,35.92C123.06,245.9,132.51,270,150,291.48a33,33,0,0,1,2.33,2.83c1.33,2.08,2.73,4.3,1.28,6.79-1.57,2.7-4.37,2.81-7.12,2.62a21.51,21.51,0,0,1-5-1.19c-1.53-.47-3-1.55-5.39-.46,5.76,5.39,12.76,5.43,19.28,6.43,9.17,1.4,10.83,2.61,11,12,.15,8.41,4.32,16,4.49,24.35-1.68,4.81-5.56,7.4-10,9-5.86,2.09-6.57,6.05-4.42,11,1.73,3.95,3.07,8.27,7,10.87,4.16,4.51,8.88.93,13.35.92,8,.27,13.46-5,19-9.52,6.39-5.16,12.71-10.46,18.12-16.77,2.68-3.12,5.92-5.93,10.73-4.57a101.54,101.54,0,0,0,46.93,24c24.45,5.36,49.05,5.68,73.44-1,10.64-2.93,19.23-9.11,26.84-16.86,4.65-1.59,7.23,1.68,9.81,4.46,7.22,7.78,14.68,15.25,23.84,20.81,3.45,2.09,6.85,3.63,10.8,1.47,3-.86,6.19-1.24,8.19-4.09,5.14-6.13,5.05-7.11-1.1-11.13-4.21-2.76-9.11-4.93-9.24-11.1.46-3.35,2.66-5.68,4.86-7.94a49.88,49.88,0,0,0,9.6-14.51c3.9-8.67,4.69-8.95,14.51-8.12,3.6.3,7.13,1.68,10.81.79a1.45,1.45,0,0,0,.94-1c-6.11-8.06-6-9.05,3.23-15.3,12.18-8.24,22.48-18.5,32.27-29.35,2.42-2.68,4.43-5.94,8.69-5.93,5.48,2,5.28,7.14,6,11.53,8,47.1.79,92.46-15.74,136.77a203.14,203.14,0,0,1-23.72,45.92c-2.74,3.91-5.72,7.31-10.83,7.87-7.66-.61-14.41-4.37-21.73-6.25-25.83-6.65-52.12-10.14-78.58-12.81-23.29-2.34-46.64-3.36-70-4.67-18.56-1-37.11-1.49-55.59-.78-28.69,1.11-57.5,1.88-85.76,8A38.29,38.29,0,0,1,127.89,456.74Z"/><path class="cls-3" d="M127.89,456.74c16.6-5.09,33.74-7.3,50.92-8.7C253.56,442,328,445.32,402.06,456.8c18.29,2.84,36.53,6.39,53.44,14.52,1.23.94,1.22,2.2.93,3.53C438.54,484,419,487.17,399.54,490.43c-34.05,5.71-68.45,6.78-102.87,5.74-54.11-1.64-106.58-11.65-156.63-32.88C135.82,461.5,131.32,460.08,127.89,456.74Z"/><path class="cls-4" d="M456.43,474.85c-1.3-.91-.87-2.29-.93-3.53,8.83-6.75,13.65-16.56,18.51-26a277.61,277.61,0,0,0,29.69-98.89c2.45-23,2.09-45.73-2.7-68.35-.47-2.21.27-5.18-3.05-6-2-4.47,1.51-7.33,3.35-10.47,5.83-9.94,10.65-20.23,13.29-31.5,1.88-8.08.24-14.76-6.32-20.31-16.14-13.66-30.91-29.06-50.1-38.79-2.31-1.17-4.9-2.52-4.61-5.9.84-4.86-3.51-5.42-6.18-7-4.25-2.57-9.17-4-12.64-7.9,9.29,1,16.83,6.42,24.56,10.73,59.1,33,93.38,82.72,100.34,150.64,6.8,66.35-29.93,131.34-90,159A61,61,0,0,1,456.43,474.85Z"/><path class="cls-4" d="M134,179.48c-10.63,12.7-21.25,25.38-30.91,38.89-20.51,28.7-30.54,60.72-32.28,95.76-1.54,31.06,3.53,60.78,16.39,89.08a144,144,0,0,0,28.62,42.23c3.22,3.26,7.29,5.78,9.39,10.1A148.08,148.08,0,0,1,63.92,405C33,361,33.54,314.66,55.79,267.59c17.1-36.19,44.39-63.88,76.19-87.45A7,7,0,0,1,134,179.48Z"/><path class="cls-5" d="M219.31,512.62c-.57-15-.57-15,13.68-12.48,1.19.21,2.38.47,3.59.62,11.3,1.45,11.3,1.45,7.84,13.6a27.91,27.91,0,0,0-16.29-.47C225.18,514.68,221.91,515.34,219.31,512.62Z"/><path class="cls-6" d="M219.31,512.62c6.44-1.1,12.65-3.37,19.37-3.05,3.46.16,5.62,1,5.74,4.79-.26,2.28-.34,4.62-1.93,6.5a19.86,19.86,0,0,1-23.17-4.19C219.32,515.32,219.31,514,219.31,512.62Z"/><path class="cls-7" d="M219.32,516.67a112.62,112.62,0,0,0,23.17,4.2c-.53,7.44-5.6,8.14-11.36,7.42C221.24,527.05,219.22,525,219.32,516.67Z"/><path class="cls-8" d="M412,506.82c1.13,2.93,4.71,5.62,2.06,9-2.48,3.17-6.5,2.81-10.09,2.33a25.38,25.38,0,0,1-11.69-5.21C397.59,507,404.84,507.12,412,506.82Z"/><path class="cls-9" d="M386.48,509.32a15.53,15.53,0,0,1-6.25-6c8.72-1.26,17-2.54,25.28-3.6,2.67-.34,3.86,1.59,4.33,4-4.44,5.45-11,4.78-16.95,5.66C390.87,509.68,388.63,509.32,386.48,509.32Z"/><path class="cls-10" d="M386.48,509.32c7.22-4.22,15.64-3.46,23.36-5.6.7,1,1.41,2.06,2.11,3.1-5.91,4.18-13.08,4.3-19.72,6.12Z"/><path class="cls-1" d="M453.56,165.16c22.35,11,40.3,27.61,58.39,44.23,6.74,6.19,7.88,12.75,5.89,20.94-3.73,15.34-10.87,29-19.89,41.8-12.78,17.07-28.71,30.76-47.38,43a58.59,58.59,0,0,1,5.84,1.42c2.6,1,3.91,2.9,3.39,5.69a4.5,4.5,0,0,1-5.3,3.9c-5.3-.58-10.6-1.31-15.83-2.33-3-.59-4.79-.54-5.9,3-3.16,10.21-9.45,18.49-17.15,25.77-.61,4.08-3.15,6.75-7.19,8.31a49.57,49.57,0,0,0,13.72,8.18c3,1.29,5.81,3,4,7.09-1.09,5.4-5.46,4.06-9,4.4-12.64-.54-20.12-9.76-28.47-17.29a50.86,50.86,0,0,1-8.51-10.95c-1.78-2.84-4.14-4-7.42-3.22-10.29,4.16-21.28,5.26-32.07,6.24-36.77,3.37-73.28,1.93-109.08-8.31a62,62,0,0,1-8.08-3.27c-4.76-1.82-7.76.63-10.45,4.2-6.87,9.13-14.26,17.76-23.89,24.17-4,2.7-8.08,5.36-12.88,6.55-4.95.81-10.26,6.66-14.6-1-2.24-4.51.62-6.82,3.95-8.66,5.29-2.93,10.25-6.38,15.56-9.5-6.87-.91-11.27-6.33-11.69-14.23-3.95-9.54-7-19.28-5.85-29.78.51-4.72-2.73-3.6-5.18-3.68-8.13-.25-16-1.52-23.18-5.62-3-1.7-5.67-3.87-3.52-7.5,1.91-3.21,5.09-2.1,7.78-.63,4.13,2.27,8.37,3.84,13.29,3.15.43-3.83-2.78-5.17-4.53-7.2-23-26.8-31.38-57.14-23.35-91.92,3.67-15.89,16.57-22.9,28.24-30.89,11.47-7.86,24.56-12.9,37.39-18.24,30.67-12.75,58.84-29.89,78.63-56.7,11.83-16,25.78-18,42.62-16.35,4.35.42,8.65,1.44,12.95,2.27,9.37,1.82,16.35,6.09,22,14.64,18.16,27.28,43.84,45.33,74.44,56.58C432,157.41,442.8,161.27,453.56,165.16Z"/><path class="cls-11" d="M222.16,341.09a285,285,0,0,0,95.78,13c19-.71,37.73-3.84,56.39-7.33,2.5,2.56.51,4.16-1.26,5.81-5.91,10.94-16.06,16.36-27.33,19.15-36.49,9-72,6.11-105.88-10.78a44.78,44.78,0,0,1-16.62-14C221.19,345.3,219.94,343.52,222.16,341.09Z"/><path class="cls-4" d="M169.51,345.34c3.85,5.55,7.75,11.07,13.61,15.33a51.5,51.5,0,0,1-16.4,10.85c-3.08,1.27-4.93,2.85-5,6.21a27.4,27.4,0,0,1-7-9.27c-5.13-10.36-4.13-12.84,6.19-17.68C163.93,349.34,166.64,347.17,169.51,345.34Z"/><path class="cls-12" d="M222.16,341.09l1.08,5.85c-5.15,1.33-7.37,6.08-10.8,9.39-8.06,7.79-16.47,15.1-26.41,20.44-3,1.63-6.15,3-9.74,2,14.33-9.86,27.38-21.06,36.8-35.89C215.72,338.74,218.55,338.71,222.16,341.09Z"/><path class="cls-12" d="M373.07,352.56l1.26-5.82c2.48-1.25,4.52-2.38,6.53,1.23,8.34,15,21,25.34,36.28,32.68-5.31,3.56-9.8.44-14.05-2.11-9.66-5.79-17.48-13.79-25.11-22C376.53,355,375.58,352.83,373.07,352.56Z"/><path class="cls-4" d="M426.16,376.25c-.78-2.95-3-3.94-5.69-4.89a39.28,39.28,0,0,1-15.83-9.87l11-8.82c1.53,4.19,5.15,6.11,8.74,8.08C434.14,366.13,434.47,369,426.16,376.25Z"/><path class="cls-13" d="M479.09,278.05c-11.17,13.6-25.51,23.23-40.35,32.27-3.05,1.87-5.88,1.78-9,.3-6.16-2.93-12.23-6.15-18.62-8.49-18.77-6.89-34,3.42-33.54,23.4.2,8.23-2.67,10.79-10.07,12.28-39.49,8-78.9,8.77-118.36.06a142,142,0,0,1-22.88-7.59c-3.2-1.31-4.81-2.84-3.52-6.56,1.67-4.84.48-9.7-.82-14.41-3-10.88-10.49-15.39-21.6-13.17-7.41,1.49-14.48,4.21-22,5.6a11.59,11.59,0,0,1-10.65-2.88A105.83,105.83,0,0,1,140.4,264c2.82-2,5.57-.84,8.37.11,37.77,12.77,74.87,10.59,111.29-5.18a68.93,68.93,0,0,0,21.5-15c14.25-14.36,12.71-32.15-3.76-43.75a78.12,78.12,0,0,0-33.07-13.07c-2.42-.39-4.8-.88-7.16-1.48s-5.34-1.13-5.26-4.11c.08-2.67,2.73-3.82,5.11-4.64,5.55-1.94,11.47-2.22,17.12-3.83,4.19-1.2,7.21-3,7.11-7.85-.27-14.05,4.69-25.42,16.42-33.76,4.21-3,5.62-9.37,11.74-10.35,6.58,1.46,3.21,6.18,3.23,10,3.38-3.42,3.48-9.07,8.14-11.38a6.16,6.16,0,0,1,2-.35c6.43,1.71,5,7.11,5.45,11.35,1.31-3.78.61-8.49,3.92-11.91a5.27,5.27,0,0,1,4.1-.76c6.56,2.76,4.55,10,7.74,14.76.05-3.74-1.93-7.68,1.61-10.71,2.09-.53,3.43.55,4.57,2.09A125.08,125.08,0,0,0,355.1,161c4.48,4.67,8.33,10.26,14.79,12.71,3.09,2.74,7.66,4.59,6.23,10.13-1.95,2.63-4.9,2.82-7.8,3.34-17,3-33.05,8.19-46.7,19.36-15.25,12.48-15.06,31.47.4,43.64,13.22,10.43,28.43,15.62,44.84,18.11,26.9,4.07,53.38,3.21,79.24-6.15A119.47,119.47,0,0,0,460,255.73c2.62-1.35,5.15-2.86,8.28-2.31C476.81,259.46,479,268.28,479.09,278.05Z"/><path class="cls-14" d="M468.37,254.31c-42.14,24.73-86,25-130.87,8.91a59.1,59.1,0,0,1-19.18-11.87c-15.35-13.67-15.3-32.8.13-46.37,14.47-12.74,32.17-17.85,50.63-21,2.39-.41,4.9-.16,7.07-1.54,6.47-2.3,11.22-.2,16.54,7.31-.72,4.82-4.86,5.32-8.27,5.6-9,.74-17.82,2.52-26.68,4.07-12.65,2.21-23.14,8.93-32.28,17.39-7,6.53-6.49,15.51.16,22.89,5.87,6.52,13.6,10.18,21.6,13.22a119.9,119.9,0,0,0,24.72,6.3c25.62,5.37,50.17.94,74.2-8.1,8.12-3.06,15.43-7.42,20.49-14.68,4.84-6.94,4.14-11.85-2.41-17.11-2.8-2.26-4.75-5.7-8.62-6.55-8.27-4-14.62-9.7-16.3-19.29-5.29-7.11-9.55-7.75-16.32-2.33-1.69,1.37-3.15,3.05-5.36,3.66-3.44.79-6.84,1.43-9.52-1.77-1.28-2.61.28-4.69,1.37-6.83,2.91-5.69,1.13-10.43-3.19-14.41a54.82,54.82,0,0,0-14.63-9.56c-6.09-2.77-12-3.82-17.86.75a7.72,7.72,0,0,1-4.78,1.61c-13.37-5.86-22.73-16.48-31.58-27.46-3-3.72-6.48-7.34-8.2-12-.67-1.24-1.42-2.4-3-2.69-3.67,1.93-6-.87-8.61-2.5l-4.47.08c-3.26,3.55-6.92-.13-10.33.58l-1.64.43c-3,2.9-6.47,2.19-10,1.26-6,3-7.54,10.45-12.82,13.59-12.1,7.2-13.27,18.69-13.44,30.66-.09,6.16-2.93,8.45-8.63,9.52-7.51,1.41-15.24,2.24-24.27,5.75,12.63,2.08,23.37,3.69,33.48,7.91,6.57,2.75,12.8,6,18.07,10.88,13.85,12.83,14.74,29.21,2.25,43.43a72.18,72.18,0,0,1-28.11,19.29c-39,15.49-78.15,17.31-117.37.68a60.73,60.73,0,0,1-6-17c3.17-1.24,5.69.37,8.15,2,12.84,8.29,27.09,11.49,42.15,12.92,14.69,1.39,29.06.06,43.46-2.29,3.19-.52,5.91-2.27,8.91-3.26,13.84-3.69,26.86-9,37-19.54,10.41-10.76,9.35-22.06-3.58-29.68C251.64,196,230.72,193.29,209.15,195c-10,.77-19.88,2.11-29.39,5.48a4.15,4.15,0,0,1-2.14.39c-13.89-3.45-22.66,6.23-32.68,12.68-4.65.79-6.47,7.38-12.18,6a25.93,25.93,0,0,1,3-14.79c2.7-6.55,8.5-9.85,14.17-13,7.08-4,13.58-8.23,16.23-16.44,11.34-7.29,24.17-11.33,36.42-16.59,13-5.59,24.85-13.3,37.16-20.14,5.42-2.87,11-4.81,17.33-4.62,5.57.17,9.42-3.64,12.55-7.77,5.07-6.7,10.74-12.6,18.49-16.19a8.38,8.38,0,0,0,4.68-5.33c.43-1.39,1-2.75,1.52-4.1,1.78-4.55,4.17-8.9,10-7.5s5.26,6.21,4.77,10.75c1.36-1.1,1.56-2.91,2.51-4.28,2-2.86,4.49-4.52,8.05-3.73,3.39.76,4.84,3.46,4.84,6.51,0,4.62,2.23,6.93,6.3,8.57,4.61,1.86,8.08,5.49,11.13,9.29,5.05,6.3,10.8,11.91,16.44,17.64,2.37,4.9,7.65,6.4,11.41,9.69,1.56,1.37,3.09.52,4.49-.7,1.79-1.57,3.51-3.48,6.33-2.46,20.83,14.18,44.94,20.89,68,30.07,10,4,18.91,10.06,27.17,17,.9,2,1.74,4.35.74,6.31-3.43,6.72.28,10.8,4.78,14.93a190,190,0,0,1,17.21,18.66c2.55,3,4.57,6.21,5,10.22-1.51,3.87-2.63,7.94-5.43,11.2-5.73-.62-7-6.15-10.19-9.5-2.81-3-4.18-3.74-6.74.34C478.06,248.31,475,253.6,468.37,254.31Z"/><path class="cls-15" d="M357.08,140.08c-6.07-4.59-10.83-10.46-15.85-16.08-4.84-5.42-9.17-11.48-17.26-12.53-3.42-.45-3-2.86-2.5-5.54.55-3.12,2.22-7.44-2.85-8.28-4.65-.77-5.08,3.53-6.13,6.7a32.71,32.71,0,0,1-1.53,4.86c-1,1.81-2.86,1.59-4.54,1.21-1.92-.44-1.93-1.93-1.53-3.44s1-3.27,1.49-4.89c1-3,1.48-6.06-2.38-7.16-3.63-1-5.85,1.63-6.28,4.57-1.23,8.37-5.9,13.13-13.58,16.21-5.3,2.13-8.2,7.44-11.64,11.84-5,6.43-10.83,10.81-19.78,9.84-4.25-.46-8.67.71-13,1.14,10-8.79,20.12-17.52,30.06-26.4a59.8,59.8,0,0,0,12.15-15.41c3-5.34,7.36-7.94,13.65-8.07a114.69,114.69,0,0,1,23.21,1.9c8.53,1.57,16.3,4.18,21.05,12.61,8.16,14.46,21,24.71,33.29,35.38C367.69,144.06,365.75,144.25,357.08,140.08Z"/><path class="cls-16" d="M132.76,219.51c3.48-2.42,6-6.06,10.06-7.75,2.63,1.76,2.34,4.5,2.6,7.18.93,9.39,4.28,16.9,13.36,21.89,14.44,7.94,30.14,10.68,45.94,13.54,8.21,1.48,16.47,1.38,24.75,1.45,3.33,0,7-.44,9,3.3-29,8.74-57.94,9.49-86.68-1.43-6.5-2.47-11.8-6.79-17.39-10.67C132.77,237.91,129.76,228.89,132.76,219.51Z"/><path class="cls-17" d="M468.37,254.31c4.85-5.39,10.67-10,13.25-17.19,1.26-3.53,2.85-2.27,4.54-.16,4.13,5.1,8.66,9.9,11.82,15.73-4.88,9.5-10.78,18.25-18.89,25.36Z"/><path class="cls-18" d="M503.41,241.48c-9.93-11.4-19.53-23.09-30.64-33.41-1.49-1.38-2.8-2.91-1.27-5,2.49-3.5,2.51-7.87,4.17-11.66,2.56,1.82,5.6,3,7.39,5.85,3.9,9.08,13.21,13.14,19.06,20.43,2.25,2.81,5.34,5,5.84,8.88C507.57,231.85,505.47,236.65,503.41,241.48Z"/><path class="cls-19" d="M192.49,329.49a11.6,11.6,0,0,1-1.31-1.69c-8.28-15.84-5.28-21,12.59-22.27,4.69-.32,7.53,1.23,8.08,6.1C208.49,322.08,200.51,329.44,192.49,329.49Z"/><path class="cls-20" d="M166.12,175.26c1.58,7.14-.94,11.49-7.76,14.9-8,4-15.13,9.63-22.64,14.56-.05-9.69,7.21-14.33,13.59-19.48C154.41,181.12,159.79,177.36,166.12,175.26Z"/><path class="cls-5" d="M192.49,329.49c8.22-4,12.57-12.27,19.36-17.86,2.3,7.21-2.67,23.29-8.29,27.74-1.75,1.39-2.63.32-3.67-.45C196.57,336.47,193.32,333.91,192.49,329.49Z"/><path class="cls-21" d="M392.18,313.09c4.95-5.5,10.67-2.88,16.05-1.18,2.88.91,1.44,3.67.87,5.65-1.77,6.21-5.69,11.13-9.82,15.91-5.62-1.52-9.16-6.78-8.79-13.45A15.91,15.91,0,0,1,392.18,313.09Z"/><path class="cls-22" d="M405.41,341.07c4.64-6.16,9.82-12,12.39-19.46.66-1.95,1.07-4.58,4.35-3,2.65,1.26,2.42,3.28,1.63,5.5A48.86,48.86,0,0,1,407,347.18C404.34,345.67,403.76,343.65,405.41,341.07Z"/><path class="cls-23" d="M392.18,313.09c.67,7.38,1.31,14.78,7.1,20.38-2.74,3.41-6.61,8.63-9.86,7.31-3.93-1.59-2.8-8-2.81-12.45C386.6,322.62,388,317.3,392.18,313.09Z"/><path class="cls-24" d="M178.48,340.8a40.42,40.42,0,0,1-6-22.91c.07-2.11.13-5,2.77-5.17,2.36-.13,2.45,2.75,2.61,4.53.58,6.48,4.26,11.84,6.17,17.83C185.46,340.17,182.84,341.33,178.48,340.8Z"/><path class="cls-25" d="M357.08,140.08c5.43.4,10.74-.5,16-1.54,2.86,1.42,5.72,2.84,7.4,5.76-4.2,1.41-4.67,9-8,8.07C366.28,150.5,361.32,145.36,357.08,140.08Z"/><path class="cls-26" d="M508,226.52c-7.66-7.09-15.36-14.13-23-21.29-2.29-2.16-2.7-5-1.94-8a262,262,0,0,1,22.71,20.46C508.36,220.28,510.38,222.78,508,226.52Z"/><path class="cls-27" d="M178.48,340.8c2.06-1.7,5-2.6,5.55-5.72,2.77,3.59,4.68,7.87,8.78,10.37,1.63,1,3.36,2.32,1.68,4.63s-3.61,3.29-6.22,1.9C183.61,349.51,180.6,345.53,178.48,340.8Z"/><path class="cls-28" d="M405.41,341.07c.51,2,1,4.07,1.54,6.11-2.18,3.11-5,5.23-8.91,5.42-1.21.07-2.49-.15-3.08-1.41-.7-1.5.6-2.11,1.49-2.84Z"/><path class="cls-29" d="M321.43,370.29c-3.29-.05-7.09-.21-6.61-4.65a8.75,8.75,0,0,1,9-8c5.06.15,2.45,5.7,3.39,8.58C328.56,370.29,324.37,370.22,321.43,370.29Z"/><path class="cls-30" d="M286.67,359.48c3.75.35,5.7,2.09,5.72,5.63,0,2.76-1.08,5-4.12,4.9-3.25-.06-6.76-1-7-4.84C281,361.75,284.16,360.52,286.67,359.48Z"/><path class="cls-31" d="M295.41,370.66c.7-9,3.87-11.22,9.71-7,3.82,2.76,3.17-3.06,5.8-2.06.85,3.12-1.51,5.29-2.75,7.75-.83,1.66-2.58,1.85-3.39.15C300.93,361.51,298.35,366.37,295.41,370.66Z"/><path class="cls-31" d="M278.28,358.55c-2.67,2.52-7,0-7.14,4s4.52,2.49,7.24,4.73c-4.05,2.57-7.07,1-9.69-1.44-2-1.8-2.41-4.36-.53-6.5C271,356.15,274.27,356.61,278.28,358.55Z"/><path class="cls-32" d="M369,163.63c8-8,13.23-9,23.51-4.37a67.26,67.26,0,0,1,15.4,9.8c8.19,6.83,8.33,14.69.49,22.35-5.44,6.94-11.34,6.53-16.71-1.16-5.09-2.79-9.49-6.94-15.53-7.81q-3.56-3.75-7.1-7.49C365,171.2,364.71,167.43,369,163.63Z"/><path class="cls-33" d="M323.49,290.47c-.31,8.46-6.48,19.21-16.06,28.16-2.05,1.91-5,3.05-7.68,4s-5.47.17-6.75-2.71c-1.39-3.12.42-5.19,3.11-6.4,10.95-4.91,15.21-14.66,17.84-25.26,1.82-7.35-1.47-10.68-9-9.74-6,.76-11.9,2.63-18,2.53-3.59,0-4.5,1.9-4.13,5.23.33,2.93-.69,5.55-4.16,5.65-3,.08-3.92-2.48-4.62-4.87-2.15-7.26.82-13.25,8-14.57a181.48,181.48,0,0,1,25.28-3.22C319.24,268.81,323.55,273.51,323.49,290.47Z"/><path class="cls-34" d="M369,163.63c-.46,3.78-.89,7.55.06,11.32-1.76,1.48-3.31.45-4.59-.62-15-12.58-26.07-28.23-34.82-45.61-.5-1-.29-2.39-.41-3.6C342,138.44,354.3,152.27,369,163.63Z"/><path class="cls-35" d="M302.86,120.59c3.36-1.72,6.86-.83,10.33-.58q-.82,7.59-1.63,15.17c-.22,2-.65,4.2-3.05,4.26-3.28.1-2.48-2.77-2.93-4.78C304.52,130,308.33,124.39,302.86,120.59Z"/><path class="cls-36" d="M317.66,119.93c3,.38,6,.64,8.61,2.5A22.77,22.77,0,0,0,328,133c.91,2.3,2,5.09-1.17,6.14-2.85.94-4.46-1.72-5.17-4C320.11,130.2,319,125,317.66,119.93Z"/><path class="cls-37" d="M291.25,122.28c3.13-1.94,6.63-1,10-1.26-2,4.42-3.87,8.89-6,13.25-1,2.14-2.94,3.58-5.35,2.35-2.68-1.38-1.54-3.58-.63-5.65C290.46,128.21,293.11,125.76,291.25,122.28Z"/><path class="cls-38" d="M238.5,259.12c-22.46.48-44.53-1.89-66.06-8.69a81.1,81.1,0,0,1-19.59-9.51c-8.45-5.47-10.33-14.13-10.56-23.4a48.93,48.93,0,0,1,.53-5.76c6.88-6.31,15-10.71,23.16-15,1-.53,2.87-1.19,3.32-.75,5.08,5,9.93,1.12,14.91-.09,25.64-6.23,51.08-6.15,76.2,2.68a52.3,52.3,0,0,1,14.76,7.91c11.29,8.71,12.54,20.24,3,30.84C267.52,249.12,253.7,255.44,238.5,259.12Z"/><path class="cls-38" d="M391.68,190.25c5.37,3.27,10.87,4.68,16.71,1.16,3.1,2.47,6.63,1.5,10.07,1.26,2.48,1.53,2,4.27,2.57,6.53,1.36,5.15,4.69,8,9.93,7.91s7.61-3.58,8.09-8.56c.26-2.64.26-5.42,2.94-7.07.14,10,7.59,14.36,14.78,18.88,5.6,7.51,5.78,14,.42,22.07-10.59,15.94-27,23.33-44.47,27.28A123.66,123.66,0,0,1,371.51,262c-14.21-1.8-27.76-5.68-39.93-13.42-19.37-12.32-19.51-28.31-.36-40.76,14.27-9.27,30.4-13,47-14.93C382.8,192.39,387.56,192.9,391.68,190.25Z"/><path class="cls-16" d="M371.51,262c22.21-1.32,44.25-3.26,64.21-14.62A68.79,68.79,0,0,0,447.66,239c8.58-7.72,13.16-16.87,9.11-28.68,3.59,2.51,7.34,4.82,10.73,7.57,6.31,5.13,7.32,11.6,3,18.72-4.6,7.63-11.76,12.35-19.6,15.93-20.19,9.23-41.55,12.23-63.54,10.86C382.1,263.11,376.62,264.46,371.51,262Z"/><path class="cls-39" d="M442,191.48c0,1.22-.06,2.45.08,3.65.72,6-.18,11.45-6.23,14.28a12.14,12.14,0,0,1-13.12-1.65c-5.08-3.94-6-9.16-4.26-15.09C425.35,182.13,434.52,181.66,442,191.48Z"/><path class="cls-40" d="M254.36,204.89c6-.14,11.18,4.38,11.46,10,.3,5.77-4.81,11.1-10.94,11.42s-10.87-3.79-11.11-9.91A11,11,0,0,1,254.36,204.89Z"/><path class="cls-40" d="M365.87,212.93c-.66,4.83-4,7.78-9.59,7.92-6,.16-11.09-4.86-10.81-10.31.27-5.28,4.79-9.13,10.41-8.86A10.7,10.7,0,0,1,365.87,212.93Z"/></svg>