<?xml version="1.0" standalone="no"?><!DOCTYPE svg PUBLIC "-//W3C//DTD SVG 1.1//EN" "http://www.w3.org/Graphics/SVG/1.1/DTD/svg11.dtd"><svg t="1649679246994" class="icon" viewBox="0 0 1024 1024" version="1.1" xmlns="http://www.w3.org/2000/svg" p-id="9284" xmlns:xlink="http://www.w3.org/1999/xlink" width="200" height="200"><defs><style type="text/css">@font-face { font-family: "feedback-iconfont"; src: url("//at.alicdn.com/t/font_1031158_u69w8yhxdu.woff2?t=1630033759944") format("woff2"), url("//at.alicdn.com/t/font_1031158_u69w8yhxdu.woff?t=1630033759944") format("woff"), url("//at.alicdn.com/t/font_1031158_u69w8yhxdu.ttf?t=1630033759944") format("truetype"); }
</style></defs><path d="M136.468 119.298c-5.026 19.236-19.112 53.31-56.954 64.432-2.58 0.758-2.58 4.442 0 5.2 37.842 11.122 51.928 45.196 56.954 64.432 0.708 2.706 4.55 2.706 5.256 0 5.026-19.236 19.112-53.31 56.954-64.432 2.58-0.758 2.58-4.442 0-5.2-37.842-11.122-51.928-45.196-56.954-64.432-0.706-2.706-4.548-2.706-5.256 0z" fill="#FEE45A" p-id="9285"></path><path d="M198.686 188.924c-37.856 11.124-51.942 45.198-56.964 64.426-0.7 2.722-4.542 2.722-5.262 0-2.802-10.704-8.404-26.03-19.368-39.416 6.122-17.748 19.088-41.476 46.058-52.802 8.544 9.644 20.048 18.048 35.534 22.59 2.584 0.762 2.584 4.442 0.002 5.202z" fill="#FED402" p-id="9286"></path><path d="M882.274 770.644c-5.026 19.236-19.112 53.31-56.954 64.432-2.58 0.758-2.58 4.442 0 5.2 37.842 11.122 51.928 45.196 56.954 64.432 0.708 2.706 4.55 2.706 5.256 0 5.026-19.236 19.112-53.31 56.954-64.432 2.58-0.758 2.58-4.442 0-5.2-37.842-11.122-51.928-45.196-56.954-64.432-0.706-2.706-4.548-2.706-5.256 0z" fill="#FEE45A" p-id="9287"></path><path d="M944.494 840.27c-37.856 11.124-51.942 45.198-56.964 64.426-0.7 2.722-4.542 2.722-5.262 0-2.802-10.704-8.404-26.03-19.368-39.416 6.122-17.748 19.088-41.476 46.058-52.802 8.544 9.644 20.048 18.048 35.534 22.59 2.582 0.76 2.582 4.442 0.002 5.202z" fill="#FED402" p-id="9288"></path><path d="M708.048 283.762H263.246l-45.41 58.316a16.432 16.432 0 0 0-3.468 10.098v510.418c0 3.658 1.22 7.212 3.468 10.098l45.41 58.316h444.802l45.41-58.316a16.432 16.432 0 0 0 3.468-10.098V352.176c0-3.658-1.22-7.212-3.468-10.098z" fill="#6ED5A1" p-id="9289"></path><path d="M756.918 352.178v510.41a16.46 16.46 0 0 1-3.462 10.104l-45.418 58.324h-40.216l45.418-58.324a16.476 16.476 0 0 0 3.462-10.104V352.178a16.46 16.46 0 0 0-3.462-10.104l-45.418-58.304h40.216l45.418 58.304a16.46 16.46 0 0 1 3.462 10.104z" fill="#46CC8D" p-id="9290"></path><path d="M638.94 358.036H332.352a19.36 19.36 0 0 0-15.276 7.466l-27.418 35.21a12.03 12.03 0 0 0-2.538 7.39v398.564c0 2.678 0.894 5.278 2.538 7.39l27.418 35.21a19.36 19.36 0 0 0 15.276 7.466H638.94a19.36 19.36 0 0 0 15.276-7.466l27.418-35.21a12.03 12.03 0 0 0 2.538-7.39V408.102a12.03 12.03 0 0 0-2.538-7.39l-27.418-35.21a19.356 19.356 0 0 0-15.276-7.466z" fill="#D8ECFE" p-id="9291"></path><path d="M684.168 408.1v398.564c0 2.68-0.88 5.282-2.542 7.382l-27.412 35.214a19.31 19.31 0 0 1-15.266 7.464h-40.016a19.31 19.31 0 0 0 15.266-7.464l27.412-35.214a11.884 11.884 0 0 0 2.542-7.382V408.1a11.88 11.88 0 0 0-2.542-7.384L614.2 365.502a19.37 19.37 0 0 0-15.266-7.464h40.016a19.364 19.364 0 0 1 15.266 7.464l27.412 35.214a11.892 11.892 0 0 1 2.54 7.384z" fill="#C4E2FF" p-id="9292"></path><path d="M621.776 155.892h-272.26l-71.384 53.102a36.12 36.12 0 0 0-14.564 28.984v45.784h444.156v-45.784c0-11.42-5.4-22.168-14.564-28.984z" fill="#EE6161" p-id="9293"></path><path d="M707.724 237.98v45.78h-40.016v-45.78a36.144 36.144 0 0 0-14.566-28.992l-71.39-53.102h40.016l71.39 53.102a36.144 36.144 0 0 1 14.566 28.992z" fill="#E94444" p-id="9294"></path><path d="M621.776 155.892h-272.26V98.428a10.716 10.716 0 0 1 10.716-10.716h250.83a10.716 10.716 0 0 1 10.716 10.716v57.464z" fill="#6ED5A1" p-id="9295"></path><path d="M621.776 98.424v57.464H581.76V98.424a10.708 10.708 0 0 0-10.724-10.704h40.036a10.69 10.69 0 0 1 10.704 10.704z" fill="#46CC8D" p-id="9296"></path><path d="M723.686 1008.994H247.608a13.192 13.192 0 0 1-13.192-13.192v-51.608a13.192 13.192 0 0 1 13.192-13.192h476.078a13.192 13.192 0 0 1 13.192 13.192v51.608a13.192 13.192 0 0 1-13.192 13.192z" fill="#EE6161" p-id="9297"></path><path d="M736.878 944.192v51.602a13.19 13.19 0 0 1-13.186 13.206h-40.016a13.188 13.188 0 0 0 13.186-13.206v-51.602a13.184 13.184 0 0 0-13.186-13.186h40.016a13.184 13.184 0 0 1 13.186 13.186z" fill="#E94444" p-id="9298"></path><path d="M565.036 633.574c-15.942-52.074-45.702-86.702-63.91-104.102a22.364 22.364 0 0 0-30.96 0c-18.208 17.398-47.968 52.028-63.91 104.102 0 0-19.55 60.324 17.378 109.45h124.02c36.932-49.126 17.382-109.45 17.382-109.45z" fill="#FEE97D" p-id="9299"></path><path d="M547.66 743.028h-40.356c36.916-49.12 17.368-109.446 17.368-109.446-14.646-47.8-40.896-80.914-59.204-99.46 1.64-1.66 3.202-3.222 4.702-4.642a22.342 22.342 0 0 1 30.952 0c18.208 17.388 47.98 52.022 63.906 104.102 0 0 19.568 60.326-17.368 109.446z" fill="#FEDF30" p-id="9300"></path><path d="M519.784 695.96c-6.854-22.392-19.652-37.282-27.482-44.764a9.616 9.616 0 0 0-13.312 0c-7.83 7.482-20.626 22.372-27.482 44.764 0 0-8.406 25.94 7.474 47.064h53.33c15.88-21.124 7.472-47.064 7.472-47.064z" fill="#F3F0F3" p-id="9301"></path><path d="M512.304 743.028h-29.172c15.866-21.128 7.464-47.06 7.464-47.06-4.822-15.806-12.626-27.872-19.528-36.236a94.996 94.996 0 0 1 7.924-8.544 9.62 9.62 0 0 1 13.306 0c7.844 7.484 20.628 22.37 27.492 44.778-0.002 0.002 8.4 25.934-7.486 47.062z" fill="#E2DEE2" p-id="9302"></path><path d="M584.2 856.732h-197.106V770.52c0-15.184 12.308-27.492 27.492-27.492h142.122c15.184 0 27.492 12.308 27.492 27.492z" fill="#918291" p-id="9303"></path><path d="M584.208 770.528v86.196h-40.016v-86.196c0-15.186-12.326-27.492-27.492-27.492h40.016c15.166 0.002 27.492 12.306 27.492 27.492z" fill="#7A6D79" p-id="9304"></path><path d="M666.056 356.28a34.15 34.15 0 0 0-27.114-13.252H332.352a34.15 34.15 0 0 0-27.116 13.254l-27.416 35.21a27.15 27.15 0 0 0-5.706 16.61v26.19a15.006 15.006 0 1 0 30.012 0v-25.166l26.788-34.404a4.334 4.334 0 0 1 3.438-1.68H638.94c1.352 0 2.604 0.614 3.436 1.678l26.79 34.406v396.516l-26.788 34.402a4.334 4.334 0 0 1-3.438 1.68h-39.736V770.52c0-17.894-11.132-33.21-26.822-39.466 23.178-48.474 8.188-98.146 6.974-101.962-17.21-56.138-49.904-93.308-67.866-110.468a37.362 37.362 0 0 0-51.694 0c-17.962 17.166-50.656 54.336-67.862 110.468-1.21 3.81-16.206 53.484 6.974 101.962-15.69 6.256-26.824 21.57-26.824 39.466v71.208h-39.736a4.338 4.338 0 0 1-3.436-1.678l-26.79-34.404v-302.24a15.006 15.006 0 1 0-30.012 0v303.262c0 5.988 2.026 11.888 5.704 16.608l27.42 35.212a34.15 34.15 0 0 0 27.114 13.252H638.94a34.15 34.15 0 0 0 27.116-13.254l27.416-35.208a27.15 27.15 0 0 0 5.706-16.61V408.104c0-5.988-2.026-11.888-5.704-16.608zM420.532 638.202l0.074-0.234c15.204-49.662 44.07-82.494 59.926-97.644a7.388 7.388 0 0 1 10.226 0c15.854 15.146 44.722 47.976 59.928 97.644l0.06 0.188c0.16 0.508 15.03 48.914-10.944 89.864h-4.516c4.068-18.3-0.458-34.194-1.154-36.454-7.964-26.014-23.13-43.256-31.46-51.214a24.596 24.596 0 0 0-34.05-0.002c-8.332 7.96-23.5 25.204-31.464 51.22-0.7 2.272-5.218 18.158-1.152 36.45h-4.516c-25.972-40.952-11.104-89.356-10.958-89.818z m83.31 89.818h-36.392c-5.902-13.166-1.686-27.364-1.666-27.432l0.074-0.234c4.912-16.052 13.454-27.614 19.79-34.516 6.332 6.9 14.874 18.462 19.788 34.516l0.04 0.124c0.048 0.162 4.27 14.374-1.634 27.542z m65.352 113.706H402.1V770.52a12.5 12.5 0 0 1 12.486-12.486h142.122a12.5 12.5 0 0 1 12.486 12.486zM215.62 186.33c0-7.932-5.108-14.764-12.71-16.998-30.728-9.032-42.428-37.602-46.668-53.83a17.728 17.728 0 0 0-17.148-13.242 17.728 17.728 0 0 0-17.146 13.242l-0.002 0.002c-4.238 16.228-15.938 44.798-46.666 53.828-7.6 2.234-12.708 9.064-12.708 16.998 0 7.93 5.108 14.762 12.708 16.996 30.728 9.03 42.428 37.602 46.668 53.832a17.73 17.73 0 0 0 17.146 13.238 17.734 17.734 0 0 0 17.15-13.242c4.238-16.228 15.938-44.798 46.668-53.828 7.602-2.234 12.708-9.064 12.708-16.996z m-76.524 33.354c-6.682-11.964-16.286-24.09-30.046-33.356 13.762-9.266 23.364-21.388 30.048-33.354 6.682 11.966 16.286 24.088 30.046 33.356-13.762 9.266-23.364 21.388-30.048 33.354zM948.716 820.678c-30.724-9.032-42.426-37.604-46.668-53.832-2.038-7.794-9.09-13.238-17.146-13.238s-15.108 5.444-17.146 13.238v0.002c-4.242 16.228-15.944 44.8-46.67 53.83-7.6 2.234-12.708 9.064-12.708 16.996s5.108 14.764 12.708 16.998c30.726 9.03 42.428 37.604 46.67 53.83 2.036 7.796 9.088 13.242 17.146 13.242s15.11-5.446 17.146-13.242c4.242-16.228 15.944-44.8 46.67-53.83 7.6-2.234 12.708-9.064 12.708-16.998 0-7.932-5.108-14.762-12.71-16.996z m-63.814 50.354c-6.684-11.966-16.288-24.09-30.048-33.358 13.76-9.266 23.364-21.39 30.048-33.356 6.684 11.966 16.288 24.092 30.048 33.358-13.76 9.264-23.362 21.39-30.048 33.356z" p-id="9305"></path><path d="M722.73 278.192V237.98c0-16.088-7.706-31.426-20.614-41.024l-65.334-48.602V98.428c0-14.184-11.538-25.722-25.722-25.722h-66.18v-13.47C544.88 26.574 518.31 0 485.648 0s-59.236 26.574-59.236 59.236v13.47h-66.18c-14.184 0-25.724 11.538-25.724 25.722v49.926l-65.332 48.6c-12.91 9.602-20.616 24.938-20.616 41.026v40.214L206 332.854a31.568 31.568 0 0 0-6.638 19.322v510.418c0 6.968 2.356 13.83 6.634 19.318l28.918 37.138c-9.182 4.654-15.504 14.166-15.504 25.144v51.608c0 15.548 12.65 28.198 28.2 28.198H559.14a15.006 15.006 0 1 0 0-30.012H249.422v-47.978h472.45v47.978h-93.344a15.006 15.006 0 1 0 0 30.012h95.16c15.548 0 28.198-12.65 28.198-28.198v-51.608c0-10.98-6.322-20.49-15.506-25.144l28.922-37.138a31.602 31.602 0 0 0 6.634-19.316v-510.42a31.6 31.6 0 0 0-6.634-19.318zM456.424 59.236c0-16.114 13.108-29.224 29.224-29.224 16.112 0 29.22 13.108 29.22 29.224v13.47h-58.444z m-91.902 43.482h242.25v38.168H364.522z m-85.948 135.26c0-6.646 3.184-12.978 8.516-16.944l67.396-50.136h262.324l67.396 50.138a21.206 21.206 0 0 1 8.514 16.942v30.776H278.574zM741.92 862.594a1.448 1.448 0 0 1-0.3 0.878l-40.902 52.526H270.576l-40.902-52.53a1.412 1.412 0 0 1-0.298-0.874V352.176a1.44 1.44 0 0 1 0.302-0.88l40.902-52.528h430.136l40.902 52.528a1.43 1.43 0 0 1 0.302 0.88z" p-id="9306"></path></svg>