<?xml version="1.0" standalone="no"?><!DOCTYPE svg PUBLIC "-//W3C//DTD SVG 1.1//EN" "http://www.w3.org/Graphics/SVG/1.1/DTD/svg11.dtd"><svg t="1649680454226" class="icon" viewBox="0 0 1236 1024" version="1.1" xmlns="http://www.w3.org/2000/svg" p-id="2292" xmlns:xlink="http://www.w3.org/1999/xlink" width="241.40625" height="200"><defs><style type="text/css">@font-face { font-family: "feedback-iconfont"; src: url("//at.alicdn.com/t/font_1031158_u69w8yhxdu.woff2?t=1630033759944") format("woff2"), url("//at.alicdn.com/t/font_1031158_u69w8yhxdu.woff?t=1630033759944") format("woff"), url("//at.alicdn.com/t/font_1031158_u69w8yhxdu.ttf?t=1630033759944") format("truetype"); }
</style></defs><path d="M347.476499 725.452934c132.480414 57.67314 156.066834 248.597044 156.066835 248.597043l92.775543-1.104003s71.843638-200.982601 25.166372-348.315542" fill="#E3B8B8" p-id="2293"></path><path d="M342.672858 736.488062c124.590469 54.24337 148.726438 237.664956 148.952145 239.264534a12.050811 12.050811 0 0 0 12.060624 10.338379l92.770637-1.10891a12.040998 12.040998 0 0 0 11.010594-7.49741c2.997983-7.36493 72.937828-206.728326 25.490213-356.490074a12.036091 12.036091 0 1 0-22.953458 7.266796c44.842167 141.557776-24.140875 338.423671-24.842531 340.141009a12.031184 12.031184 0 0 1 11.010594-7.49741l-92.775543 1.10891a12.036091 12.036091 0 0 1 12.065531 10.343286c-1.00587-7.060715-26.108455-198.269206-163.181523-257.944273a12.036091 12.036091 0 1 0-9.607283 22.075163z" fill="#6E6E96" p-id="2294"></path><path d="M882.898546 692.219977c10.951714 101.023676 59.503333 98.329907 79.998543 140.699106 30.131934 62.290328 12.546386 133.069216 12.546386 133.069216l108.550526-1.300271s67.069436-196.1348 36.530247-317.511392c0 0-20.877932-89.193665-104.733127-120.311843" fill="#E3B8B8" p-id="2295"></path><path d="M870.936055 693.520247c7.737838 71.39713 34.484161 95.587072 55.990148 115.027346 10.323659 9.332509 19.22438 17.389281 25.127119 29.60692 27.551019 56.966578 12.291238 123.138091 12.134224 123.555159a12.031184 12.031184 0 0 0 11.398223 16.319624l108.550526-1.30027c4.906682-0.068694 9.293256-3.09121 11.069474-7.664238 2.791902-7.153942 68.11456-201.139615 37.001289-324.837068-0.868483-3.699638-23.326366-95.670486-112.225631-128.653202a12.021371 12.021371 0 0 0-15.465861 7.099969 12.031184 12.031184 0 0 0 7.095062 15.470768c76.902427 28.527449 97.000196 110.92536 97.191557 111.754589 29.278171 116.371777-35.362457 308.708805-36.024859 310.391797a12.055718 12.055718 0 0 1 11.069474-7.664237l-108.550526 1.30027a12.045904 12.045904 0 0 1 11.403129 16.319625c0.785069-2.090247 19.06246-76.382319-12.963453-142.597993-7.953732-16.452105-19.499154-26.883711-30.65695-36.976755-20.37745-18.434404-41.45165-37.496864-48.203244-99.772472a12.031184 12.031184 0 0 0-13.267668-10.672033 12.070438 12.070438 0 0 0-10.672033 13.292201z" fill="#6E6E96" p-id="2296"></path><path d="M1184.767436 586.431913c124.629723 236.251832-184.39311 254.79909-411.861981 254.799089-227.459057 0-411.857074-49.15514-411.857073-254.799089 0-205.653763 124.119428-372.373004 282.090054-372.373004 227.468871 0 510.034874 312.48695 541.629 372.373004z" fill="#FFCFCF" p-id="2297"></path><path d="M699.506399 330.945888s2.536755-83.016153 140.846307-13.939884 320.671295 225.550358 350.582429 312.825511c0 0-158.260121-338.340257-498.837826-399.0261l7.40909 100.140473z" fill="#EBBFBF" p-id="2298"></path><path d="M755.786042 290.102667s-24.59229 2.791902-43.213149 22.732657c-18.920166 20.269503-31.692259 57.864501-6.265832 81.235027 0 0 94.335868 149.30052 75.121301 303.414495h104.247366s-4.651535-72.241079 54.738944-72.241079c72.481507 0 74.120338 62.609262 74.120338 62.609263s4.494521 75.459862 42.933468 97.932466c38.429133 22.472604 43.664563 219.529859 43.664563 219.529859h-46.456465s14.209751-125.630686-29.248732-175.330468c0 0-227.979166 13.831937-290.146826 10.475766 0 0 33.905173-199.162222-41.211222-234.480519 0 0 7.595544-178.578691-76.279279-232.346113 0 0 68.742615-63.021424 48.321005-157.75964 0.009813-0.009813 89.67452 21.810201 89.67452 74.228286z" fill="#EBBFBF" p-id="2299"></path><path d="M1174.119936 592.045157c30.544095 57.898848 35.31339 105.017715 14.185217 140.061237-51.893069 86.048482-249.259446 97.078703-415.399698 97.078704-276.511157 0-399.816076-74.871061-399.816076-242.758092 0-198.686274 121.145979-360.332006 270.053964-360.332006 220.314928 0.004907 499.554201 306.397757 530.976593 365.950157zM643.13353 202.027725c-80.03289 0-154.575203 40.435966-209.902949 113.854649-54.31697 72.084065-84.23301 168.166712-84.23301 270.554445 0 239.181121 241.923956 266.840087 423.898071 266.840087 183.195879 0 378.246302-12.914387 436.022483-108.722259 25.789521-42.771547 21.245933-97.853959-13.503189-163.731072-33.748159-63.978227-318.168888-378.800757-552.281406-378.79585z" fill="#6E6E96" p-id="2300"></path><path d="M447.837773 757.940075c131.778758 59.248185 153.382879 250.451769 153.382879 250.45177h92.770637s64.311881-200.099399 19.396114-347.986795" fill="#FFCFCF" p-id="2301"></path><path d="M41.505623 419.21219s100.297487 151.832368 210.187537 154.030561c109.885143 2.18838 253.950234-144.786372 170.070505-214.475977-111.91651-92.991437-167.366923 134.472527-318.89017 24.754211 0.004907-0.004907-135.321383-111.769309-61.367872 35.691205z" fill="#F0F0FF" p-id="2302"></path><path d="M383.442478 337.977163c-88.369343-22.173296-147.33294 142.014097-280.568983 45.543822 0 0-73.781777-60.931177-82.594178-33.424318 38.409507 40.799061 105.778251 114.786919 177.239167 116.209857 71.706251 1.427844 157.955907-69.915312 185.923994-128.329361z" fill="#FCFCFC" p-id="2303"></path><path d="M31.461645 425.846024c4.239373 6.422847 105.110942 157.141398 219.995994 159.432818 75.955437 1.516165 173.377608-65.793699 200.462493-138.496006 14.425645-38.723534 6.44738-73.271482-22.457883-97.284784-59.719227-49.621275-108.246312-16.599305-151.057112 12.526759-48.96378 33.321277-95.209258 64.787829-168.46602 11.74169l0.608428 0.471042c-26.201682-21.638468-73.330362-55.420973-94.561575-38.512547-14.931033 11.903611-10.519926 38.488014 14.759299 88.884544l0.318935 0.642776 0.397441 0.593708z m64.356041-32.575462c86.956218 62.962543 147.494861 21.766041 196.139706-11.339342 42.64888-29.023024 76.343065-51.947042 122.117502-13.91535 21.025132 17.472695 26.162428 41.142529 15.279408 70.36182-23.58642 63.291291-111.460188 124.134148-177.420715 122.819157-102.382827-2.04118-199.41737-147.161207-200.383986-148.628304l0.716376 1.24139C27.59518 364.615539 31.579405 354.0858 31.756046 353.663825a3.071583 3.071583 0 0 1-1.619205 1.373871c7.801624-1.923419 38.821668 16.084104 65.077323 37.766732l0.294401 0.240427 0.309121 0.225707z" fill="#6E6E96" p-id="2304"></path><path d="M498.116543 24.54813s177.886849 38.026786 163.912619 247.816881c-8.282479 124.438362-133.903352 170.502293-176.979113 101.234663-10.407073-16.721972-75.83277-73.850471-62.118594-73.678737 54.645717 0.682029 160.590795-137.779631 57.594633-234.735667 0.009813-0.004907-67.893759-64.836896 17.590455-40.63714z" fill="#F0F0FF" p-id="2305"></path><path d="M586.402473 226.713242c10.151925-125.017351-68.090026-174.452172-119.404107-199.289796-44.385845-3.851745 13.537536 37.756918 13.537536 37.756918 102.991255 96.956036-2.953823 235.417696-57.59954 234.735667-9.425736-0.112854 18.557071 26.859177 40.342739 49.15514 52.344484 2.315954 116.641645-42.511493 123.123372-122.357929z" fill="#FCFCFC" p-id="2306"></path><path d="M495.599415 36.324167L495.574882 36.31926c6.844821 1.491631 167.523937 38.743161 154.442723 235.250869-4.592654 68.968322-46.9226 109.899863-86.828645 119.880054-28.650116 7.158849-54.037289-1.889073-67.918292-24.209569-4.558308-7.325676-15.171461-18.287204-32.104421-35.460591-11.260835-11.412942-28.277208-28.664836-30.637322-33.551891 0.500482 1.030403 1.364058 4.867429-1.128537 8.787867-2.355207 3.699638-6.118632 4.975376-8.625947 4.945936 34.925762 0.431788 80.288038-41.196502 101.131623-92.814797 24.111435-59.6996 11.304995-119.016479-35.131843-162.735015l-2.865503 19.533501 5.569085-2.782089 0.946989-6.152979 0.94699-6.152979-4.519054-4.371854c-12.492412-12.094971-21.545241-25.028985-21.859269-29.072091 0.107947 1.388591-1.290457 3.645665-2.580914 4.17068 0.240427-0.10304 6.187326-2.320861 30.416521 4.543588l0.377815 0.107947 0.392534 0.08832z m-23.326366 37.629344c53.149179 50.033436 41.176875 106.79884 29.312518 136.184959-18.105657 44.832353-56.377776 78.02115-78.506912 77.746376-5.853672-0.0736-10.833954 3.037236-12.9978 8.115652-4.641721 10.907554 3.621131 19.935849 35.941445 52.702672 11.87417 12.040998 25.338106 25.68648 28.802224 31.260471 19.386301 31.177057 55.48476 44.533046 94.208294 34.852162 48.384791-12.090064 99.610551-60.582803 105.007902-141.646096 14.494339-217.66532-171.527789-259.985452-173.411956-260.3878l0.765443 0.19136C478.759683 6.560234 454.417633 2.109873 445.462939 17.664055c-7.443437 12.9242 1.521071 31.805113 26.643283 56.127536l-3.478838-10.44142 6.516074-8.930161-15.426608 7.713304 12.556199 11.820197z" fill="#6E6E96" p-id="2307"></path><path d="M690.389784 540.608409c6.295273 161.743865-44.169951 308.468377-172.042991 334.984087-127.877946 26.500989-204.574293-102.137493-291.020216-238.98976-92.324129-146.174963 44.174858-308.478191 172.047898-334.974273 127.882853-26.51571 284.646436 75.008448 291.015309 238.979946z" fill="#EBBFBF" p-id="2308"></path><path d="M678.3586 541.079451c6.987115 179.545308-53.742888 300.190805-162.450428 322.717382-115.900736 24.023115-187.641333-89.7334-270.706552-221.448372l-7.688771-12.178385c-41.64301-65.935993-29.955294-127.882853-12.816253-168.245219 30.647136-72.177292 103.48683-133.250763 177.13122-148.515451 60.759443-12.595453 129.565845 5.32375 184.054548 47.94319 56.858631 44.488886 89.70396 108.310098 92.476236 179.726855zM396.935854 289.837706c-80.911186 16.766132-160.855756 83.658928-194.407648 162.676135-19.386301 45.656676-32.585275 115.763348 14.621913 190.516648l7.678957 12.163665c84.18885 133.501004 163.711445 259.592918 295.961245 232.184192 121.214672-25.127119 189.113338-154.938298 181.630647-347.250791-3.051956-78.605046-39.170042-148.834385-101.710611-197.744192-59.994001-46.917693-136.170239-66.564048-203.774503-52.545657z" fill="#6E6E96" p-id="2309"></path><path d="M609.449158 501.703328c-0.839043 25.68648-102.721388 18.066403-204.957014 39.248549-102.240533 21.187053-94.276988 167.857591-163.392511 58.428769-73.816124-116.862445 35.323204-246.634371 137.563737-267.821423 102.240533-21.196866 225.692652 39.032655 230.785788 170.144105z" fill="#FFCFCF" p-id="2310"></path><path d="M470.712724 493.99493m-18.061496 0a18.061496 18.061496 0 1 0 36.122993 0 18.061496 18.061496 0 1 0-36.122993 0Z" fill="#6E6E96" p-id="2311"></path><path d="M340.886825 543.228578m-18.061496 0a18.061496 18.061496 0 1 0 36.122993 0 18.061496 18.061496 0 1 0-36.122993 0Z" fill="#6E6E96" p-id="2312"></path><path d="M593.340521 908.094358s-0.196267-50.617332 57.575006-42.045358c57.766367 8.571973 4.808548 130.311661 4.808549 130.31166l26.952404 7.894852s57.040178-178.701358 34.307521-240.324378c0 0-89.070998 84.208476-140.983694 105.199262l17.340214 38.963962z" fill="#EBBFBF" p-id="2313"></path><path d="M442.896744 768.92123c123.923161 55.715374 146.174963 239.426455 146.381044 241.021126a12.050811 12.050811 0 0 0 11.937957 10.48558h92.78045a12.070438 12.070438 0 0 0 11.309902-7.889945c2.679048-7.325676 65.165644-205.609603 19.612008-355.631405a12.060624 12.060624 0 0 0-15.02426-8.022425 12.060624 12.060624 0 0 0-8.032238 15.029167c43.193522 142.190738-18.542351 338.634658-19.18022 340.342184a12.031184 12.031184 0 0 1 11.314808-7.894852H601.215745c6.049939 0 11.162702 4.489614 11.937958 10.495393-0.91755-7.080342-24.037835-198.578327-160.384715-259.887319a12.050811 12.050811 0 0 0-15.922183 6.035219 12.045904 12.045904 0 0 0 6.049939 15.917277z" fill="#6E6E96" p-id="2314"></path><path d="M727.849165 655.476187a149.781375 238.557972 73.209 1 0-456.774052 137.82993 149.781375 238.557972 73.209 1 0 456.774052-137.82993Z" fill="#F0F0FF" p-id="2315"></path><path d="M440.727991 591.839076c108.084391-27.762007 212.31213-3.439584 232.7779 54.33169 20.480491 57.756554-50.533918 127.102691-158.623215 154.869604-108.084391 27.762007-212.307223 3.429771-232.782808-54.326783-20.475584-57.776181 50.543731-127.107597 158.628123-154.874511z" fill="#FFFFFF" p-id="2316"></path><path d="M414.487055 679.732471a26.005415 26.005415 0 1 1-0.770349 51.996109 26.005415 26.005415 0 0 1 0.770349-51.996109z" fill="#6E6E96" p-id="2317"></path><path d="M521.982645 663.295086m-26.000508 0a26.000508 26.000508 0 1 0 52.001015 0 26.000508 26.000508 0 1 0-52.001015 0Z" fill="#6E6E96" p-id="2318"></path><path d="M459.721757 592.638865c119.570934-36.083739 234.696413-6.28546 256.639095 66.421755 7.217729 23.905355 3.429771 50.695838-10.936994 77.476508-27.914114 52.059896-90.027801 96.852996-166.120626 119.816268-76.097731 22.968178-152.61253 19.999636-204.677333-7.919385-26.78067-14.366765-44.74894-34.592108-51.961762-58.502369-21.942682-72.707214 57.486686-161.213944 177.05762-197.292777z m-200.114119 204.250452c9.101895 30.156468 31.103457 55.313026 63.639665 72.766094 57.565193 30.87775 140.939534 34.518508 223.013604 9.749577 82.083883-24.764024 149.516414-73.924071 180.394164-131.489264 17.453068-32.536208 21.859268-65.666125 12.767186-95.817686-25.779707-85.41552-154.364216-122.431529-286.648362-82.515671-132.29396 39.920765-218.941058 141.886523-193.166257 227.30695z" fill="#6E6E96" p-id="2319"></path><path d="M968.902868 692.269043c9.739764 116.572951 58.335542 114.144143 78.310645 163.250217 29.381212 72.206732 11.241208 149.791188 11.241208 149.791188h108.560339s69.130243-221.374772 40.028712-361.68625" fill="#FFCFCF" p-id="2320"></path><path d="M1008.02875 671.793459s19.244007 86.666724 44.945207 112.372832c25.711014 25.706107 73.860284 130.488301 43.345629 221.993013l-33.703999-1.599578s14.445272-143.333995-36.917875-178.652292c-51.382774-35.31339-57.790901-145.640135-57.790901-145.640135l40.121939-8.47384z" fill="#EBBFBF" p-id="2321"></path><path d="M956.90603 693.270006c6.795755 81.293907 31.88362 108.084391 54.022569 131.724785 10.318752 11.000781 19.214567 20.509931 25.136932 35.06315 27.369472 67.250983 11.162702 140.87084 11.000781 141.361508a12.060624 12.060624 0 0 0 1.589765 10.902648 12.045904 12.045904 0 0 0 9.798644 5.029349h108.560339c5.112763 0 9.666164-3.218783 11.349156-8.051865 2.875316-8.164719 69.900592-226.163693 40.470313-368.114004a12.036091 12.036091 0 0 0-14.234285-9.337416 12.036091 12.036091 0 0 0-9.347229 14.229378c28.071128 135.345916-38.919802 353.315451-39.596924 355.243777a12.031184 12.031184 0 0 1 11.368783-8.042052h-108.56034c3.886092 0 7.531757 1.879259 9.798644 5.029349 2.257074 3.169717 2.850782 7.227543 1.589765 10.902647 0.799789-2.340487 19.248913-82.707032-11.481636-158.220867-7.605357-18.694458-18.910352-30.769803-29.85716-42.447706-20.40689-21.785668-41.515436-44.312245-47.604628-117.259887a12.031184 12.031184 0 0 0-12.997801-10.990967 12.021371 12.021371 0 0 0-11.005688 12.978173z" fill="#6E6E96" p-id="2322"></path><path d="M365.341728 170.983148m-34.346774 0a34.346774 34.346774 0 1 0 68.693548 0 34.346774 34.346774 0 1 0-68.693548 0Z" fill="#6E6E96" opacity=".41" p-id="2323"></path><path d="M149.44772 175.88983m-29.440092 0a29.440092 29.440092 0 1 0 58.880184 0 29.440092 29.440092 0 1 0-58.880184 0Z" fill="#6E6E96" opacity=".2" p-id="2324"></path></svg>