<?xml version="1.0" standalone="no"?><!DOCTYPE svg PUBLIC "-//W3C//DTD SVG 1.1//EN" "http://www.w3.org/Graphics/SVG/1.1/DTD/svg11.dtd"><svg t="1649681782874" class="icon" viewBox="0 0 1024 1024" version="1.1" xmlns="http://www.w3.org/2000/svg" p-id="155831" xmlns:xlink="http://www.w3.org/1999/xlink" width="200" height="200"><defs><style type="text/css">@font-face { font-family: "feedback-iconfont"; src: url("//at.alicdn.com/t/font_1031158_u69w8yhxdu.woff2?t=1630033759944") format("woff2"), url("//at.alicdn.com/t/font_1031158_u69w8yhxdu.woff?t=1630033759944") format("woff"), url("//at.alicdn.com/t/font_1031158_u69w8yhxdu.ttf?t=1630033759944") format("truetype"); }
</style></defs><path d="M535.234715 715.373515c83.525916 68.82982 193.290031 22.737517 258.23866-49.094095 5.081907-5.614619 10.831818-10.654247 16.903048-15.457115 27.498105-1.29373 57.372276 1.809531 81.868589 15.457115 0 0-43.910719 33.163459-60.602373 69.557014 0 0 49.237843 10.028522 87.905996-14.324044 0 0-4.853602 58.175572-46.058481 108.470385a423.278024 423.278024 0 0 1-41.839059 10.451309c-253.917771 50.032683-326.983923-94.273177-326.983923-94.273177l30.567543-30.787392z" fill="#D45136" p-id="155832"></path><path d="M831.642639 735.836434c16.691654-36.393556 60.602373-69.557014 60.602373-69.557014-24.496313-13.647583-54.370484-16.750844-81.868589-15.457115 71.679408-56.602803 204.671473-58.742108 204.671473-58.742107s62.293524 175.406116-141.557742 237.902577c41.213334-50.294812 46.05848-108.470384 46.058481-108.470385-38.668153 24.352565-87.905996 14.324044-87.905996 14.324044z" fill="#D8D8D8" p-id="155833"></path><path d="M690.769814 666.245597c0 162.155952 0 295.410145-293.60907 293.600614h-5.369403c-293.600614 20.133145-293.600614-131.444662-293.600614-293.600614v-4.785956c0-162.147497 131.444662-293.592159 293.600614-293.592158h5.369403c162.147497 0 293.60907 131.444662 293.60907 293.592158v4.785956z" fill="#E76541" p-id="155834"></path><path d="M556.26417 169.343342S632.560418 62.352714 779.715867 62.352714c0 0 14.806021 138.758887-79.221939 246.03701" fill="#E76541" p-id="155835"></path><path d="M557.625546 200.604256s59.139528-82.94247 173.216075-82.94247c0 0 11.474455 107.565619-61.422581 190.719483" fill="#E49788" p-id="155836"></path><path d="M224.308265 169.343342S148.012016 62.352714 0.848112 62.352714c0 0-14.806021 138.758887 79.230394 246.03701" fill="#E76541" p-id="155837"></path><path d="M222.946889 200.604256s-59.139528-82.94247-173.216076-82.94247c0 0-11.474455 107.565619 61.422581 190.719483" fill="#E49788" p-id="155838"></path><path d="M394.463359 109.755658s-309.641176 0-385.252509 390.892495c0 0 289.237446-58.454612 385.260964 91.432045 78.00431-134.277339 385.244052-91.432044 385.244053-91.432045C704.104534 109.755658 394.463359 109.755658 394.463359 109.755658z" fill="#E76541" p-id="155839"></path><path d="M176.972966 194.609128s45.255184 20.158512 111.869597 117.374291c70.757731 103.278553 54.649524 229.150874 54.649524 229.150874s-85.851248-61.980661-334.281237-40.477684c0-0.008456 16.793123-194.076416 167.762116-306.047481zM613.534977 194.609128s-45.263639 20.158512-111.869597 117.374291c-70.757731 103.278553-54.65798 229.150874-54.65798 229.150874s85.851248-61.980661 334.289693-40.477684c-0.008456-0.008456-16.793123-194.076416-167.762116-306.047481z" fill="#D8D8D8" p-id="155840"></path><path d="M556.255714 357.170956m-32.402441 0a32.402441 32.402441 0 1 0 64.804882 0 32.402441 32.402441 0 1 0-64.804882 0Z" fill="#434849" p-id="155841"></path><path d="M569.861018 350.922156m-12.235472 0a12.235473 12.235473 0 1 0 24.470945 0 12.235473 12.235473 0 1 0-24.470945 0Z" fill="#FFFFFF" p-id="155842"></path><path d="M234.235318 357.170956m-32.402441 0a32.402441 32.402441 0 1 0 64.804882 0 32.402441 32.402441 0 1 0-64.804882 0Z" fill="#434849" p-id="155843"></path><path d="M246.479246 350.922156m-12.235473 0a12.235473 12.235473 0 1 0 24.470946 0 12.235473 12.235473 0 1 0-24.470946 0Z" fill="#FFFFFF" p-id="155844"></path><path d="M445.434631 541.134293a50.962816 50.962816 0 0 1-101.925633 0" fill="#434849" p-id="155845"></path></svg>