<?xml version="1.0" standalone="no"?><!DOCTYPE svg PUBLIC "-//W3C//DTD SVG 1.1//EN" "http://www.w3.org/Graphics/SVG/1.1/DTD/svg11.dtd"><svg t="1649680444784" class="icon" viewBox="0 0 1024 1024" version="1.1" xmlns="http://www.w3.org/2000/svg" p-id="1917" xmlns:xlink="http://www.w3.org/1999/xlink" width="200" height="200"><defs><style type="text/css">@font-face { font-family: "feedback-iconfont"; src: url("//at.alicdn.com/t/font_1031158_u69w8yhxdu.woff2?t=1630033759944") format("woff2"), url("//at.alicdn.com/t/font_1031158_u69w8yhxdu.woff?t=1630033759944") format("woff"), url("//at.alicdn.com/t/font_1031158_u69w8yhxdu.ttf?t=1630033759944") format("truetype"); }
</style></defs><path d="M887.399034 739.691181c-33.049859 62.563137-77.449114 114.69437-174.751587 92.246171l27.496416-70.262781s28.680666 17.525277 81.838517-56.439799c0 0 39.476333-93.123244 77.622912-31.384635-0.004042 0.004042 12.335596 20.710221-12.206258 65.841044z" fill="#D4A5A5" p-id="1918"></path><path d="M745.636679 795.868262s30.693486 22.686665 72.061385-18.685275c41.367899-41.363857 76.45483-95.564495 64.672961-110.001832 0 0 51.440083 44.609429-43.320092 139.357479 0 0-87.743598 45.227825-117.382172 26.526382-29.634532-18.705485-2.780764 2.780764-2.780763 2.780764l26.748681-39.977518z" fill="#C29797" p-id="1919"></path><path d="M879.052701 735.277527c-30.661151 58.040355-71.7825 108.801415-164.287347 87.468755a9.41337 9.41337 0 0 1 6.656857 12.630648l27.500458-70.262781a9.433579 9.433579 0 0 1-13.709811 4.619786c3.694212 2.25937 37.786858 19.808898 94.420664-58.990179 0.412264-0.573937 0.75986-1.180208 1.026619-1.826897 7.436926-17.456566 24.840949-45.59563 39.920932-46.739462 6.790237-0.51331 13.847232 5.088636 20.989106 16.640122a9.441662 9.441662 0 0 0 6.567937 4.36111c-2.97477-0.464808-5.399855-2.049196-6.790236-4.728915 0.105087 0.17784 8.815182 18.006252-12.295179 56.827813z m28.575579-66.382646c-11.143263-18.04667-24.097256-26.631469-38.48609-25.524014-31.315924 2.39275-53.428653 52.478828-55.841612 58.18586 0.266759-0.638606 0.614355-1.257002 1.026619-1.822855-45.862389 63.808014-69.446336 53.776248-69.672677 53.654994 0 0.004042 0.141463 0.072753 0.420348 0.238467a9.43762 9.43762 0 0 0-13.713852 4.611702l-27.496417 70.262781a9.43762 9.43762 0 0 0 6.660899 12.630648c105.228457 24.275096 152.679276-35.438568 185.219868-97.039755 27.116486-49.851653 13.35009-74.931068 9.514415-77.79671a9.433579 9.433579 0 1 0 2.368499 2.598882z" fill="#6E6E96" p-id="1920"></path><path d="M698.137358 678.178913c-62.110455-89.659415-81.721305-109.698696-113.13019-157.905333-22.767501-34.957593-28.17544-42.725947-5.185639-54.099593 55.922448-27.674256-90.14039-50.098203-90.14039-50.098203-46.84859-46.836465-213.326597 91.264012-158.487353 87.901228 38.70839-2.368499 60.441189 30.204427 51.023777 39.613755-1.487385 1.47526-2.546339 3.395118-3.326408 5.622154-5.533234 4.425779-11.171556 10.189397-16.898797 17.537403 0 0-48.117718 75.868768 0 160.989232 48.105592 85.13259 38.853895 225.779406 38.853895 225.779406l62.922859 9.251697s41.763996-67.300136 8.641384-158.600524c45.733051 54.94433 135.404591 191.638258 170.863368 196.710726 53.885377 7.69156 129.956235-29.565821 129.956235-144.320818 0-86.098582-25.859484-107.358489-75.092741-178.38113z" fill="#D4A5A5" p-id="1921"></path><path d="M670.39035 657.230225s73.067795 91.757113 63.735262 187.689413c-9.348701 95.940383-38.360794 75.614134-38.360795 75.614133s42.232846 37.697938 25.798857 59.657078c0 0 93.765891-64.584041 46.876883-176.020714-46.880925-111.428589-98.050207-146.93991-98.050207-146.93991zM371.316808 722.460956s-38.348669-102.779122 36.727904-143.544792c75.088699-40.757586 157.432442-87.812309 262.345638 78.314061l-122.794152-183.9952-169.109223 37.706021s8.613092 23.822413-16.506742 55.809278c-25.123875 31.970697-32.722473 113.655625 9.336575 155.710632z" fill="#BA9191" p-id="1922"></path><path d="M477.737598 813.470334s22.83217 83.564369 3.649752 121.747324L433.786984 911.427579s45.049986-27.876346 8.584799-124.431084c0 0-6.026335-19.214753 2.538255-26.441504 3.952888-3.330449 11.013925-11.478733 23.199975 0.7154l31.10575 31.101708c15.015315 15.007231-47.757997-118.13799-16.373362-165.984906 0 0 62.498469 192.806341 51.775553 259.298114" fill="#C29797" p-id="1923"></path><path d="M706.960624 672.063658c-31.465471-45.401623-52.159525-73.144589-68.787521-95.423032-16.090435-21.595377-28.814045-38.639679-44.185039-62.227667l-0.776027-1.200417c-8.940478-13.73002-18.192175-27.932931-17.444441-31.550349-0.008084 0.008084-0.008084 0.028293-0.016167 0.036377 0.040418-0.08892 0.921532-2.000695 8.815182-5.913165 13.810856-6.830655 20.055449-15.298241 18.527645-25.152167-3.674003-23.701159-62.817771-37.633269-111.796394-45.151031a10.751208 10.751208 0 0 1 5.957624 3.015188c-21.227573-21.235656-62.81373-15.633711-114.063847 15.375035-22.848337 13.81894-80.496637 55.000916-72.934416 79.231552 1.192333 3.811424 5.674698 12.561938 21.591336 11.591904 19.784647-1.224668 31.518014 8.394834 35.640658 12.586188 4.846127 4.926963 6.272885 9.243614 6.179923 10.460198a3.209195 3.209195 0 0 1 0.96195-1.729894c-2.522088 2.518046-4.482364 5.763617-5.856579 9.635669a10.791626 10.791626 0 0 1 3.423411-4.813793c-6.337554 5.052259-12.618523 11.551486-18.67315 19.323882a13.095456 13.095456 0 0 0-0.598188 0.832612c-2.105782 3.330449-50.975276 82.331618-0.274843 172.039534 45.955351 81.300957 37.588809 218.415233 37.495848 219.801572a10.726957 10.726957 0 0 0 9.142569 11.308978l62.922858 9.247655a10.71079 10.71079 0 0 0 10.674413-4.951214c1.814772-2.938394 44.12037-72.83337 9.603335-167.912848a10.722915 10.722915 0 0 1-18.325555 10.512741c12.598314 15.124443 28.862547 36.950204 46.096814 60.061258 61.33847 82.222489 103.611734 136.427169 131.504247 140.408349 32.572926 4.648079 67.368847-5.88083 93.054533-28.183523 22.419906-19.43301 49.144337-57.215826 49.144336-126.759165 0-76.972181-20.261581-105.16783-57.029903-156.345196a1810.656983 1810.656983 0 0 1-19.974612-28.155231z m55.538476 184.496385c0 48.631027-14.421169 86.874609-41.72762 110.559601-21.078026 18.281095-49.479807 26.942688-75.981938 23.155515-21.142695-3.015188-79.033503-80.630017-117.329629-132.005432-17.412106-23.329313-33.850137-45.393539-46.808172-60.946414a10.722915 10.722915 0 0 0-18.321513 10.516783c30.992579 85.419559-7.279295 148.66172-7.67135 149.296283a10.759291 10.759291 0 0 1 10.670371-4.967381l-62.918816-9.231488a10.698664 10.698664 0 0 1 9.138527 11.321103c0.388014-5.884872 8.90006-144.854337-40.22811-231.773407-44.435631-78.637406-0.723484-149.280116-0.274843-149.98339a10.589536 10.589536 0 0 1-0.602229 0.860905c5.019925-6.450725 10.10856-11.741451 15.132527-15.74284 1.572263-1.261044 2.764596-2.93031 3.431494-4.817835 0.436515-1.236793 0.788152-1.604598 0.792195-1.604597 6.03846-6.018251 6.988285-15.484164 2.566547-25.31384-7.921943-17.59803-31.716063-34.440241-61.83157-32.589094-2.081531 0.13338-2.885851-0.084878-2.897976-0.084878 1.782437 0.501184 3.617418 3.350658 3.314282 5.189681 1.936026-11.842496 56.678266-60.57861 106.578421-76.648836 14.708137-4.74104 34.383656-8.245287 44.564969 1.940067 1.616723 1.612681 3.698254 2.675677 5.957624 3.01923 45.421832 6.988285 89.392655 20.107992 94.105403 28.078437-0.432473-0.723484-0.408223-2.299788 0.04446-3.003063-0.004042 0.016167-1.236793 1.887524-7.133791 4.801667-8.390792 4.142853-17.327229 9.700338-20.002905 19.441094-3.451704 12.63469 4.454072 24.764154 20.176703 48.917995l0.771985 1.192333c15.746882 24.17405 28.636206 41.468944 44.961066 63.35129 16.522909 22.145063 37.099751 49.726357 68.342922 94.828887 7.251003 10.452114 14.122075 20.002905 20.176703 28.44624 35.289021 49.075626 53.004263 73.734693 53.004263 143.795384z" fill="#6E6E96" p-id="1924"></path><path d="M671.429095 906.112602s15.172945-151.462692-21.906597-226.737314c0 0 35.55578 137.611418-47.192143 250.260634 0.012125 0.004042 42.835075-26.74464 69.09874-23.52332z" fill="#BA9191" p-id="1925"></path><path d="M505.116802 602.819413c55.473807-55.485933 152.974328 22.189523 152.974328 150.816003 0 120.312482-44.427547 161.0054-44.427547 161.0054 0 96.239477-62.918817 90.690075-62.918817 90.690075l-22.201648-66.621112c22.201648-138.787584-22.917048-235.621207-22.917048-235.621207s-29.125264-71.657204-0.509268-100.269159z" fill="#D4A5A5" p-id="1926"></path><path d="M544.706306 834.313935s-0.101045 35.656825 35.660867 35.656825 93.782058-222.841012-40.333197-274.095172c0 0 124.277495-3.346617 118.049071 157.767912-6.236509 161.134737-55.740566 175.996463-55.740567 175.996463s-25.330007-24.614607-65.465155-12.307303l7.828981-83.018725z" fill="#C29797" p-id="1927"></path><path d="M512.695191 610.401844c19.703811-19.707853 41.565948-16.5027 56.427674-10.355111 38.874104 16.094477 78.229183 74.025703 78.229183 153.600809 0 113.012978-40.599956 152.768196-41.004137 153.156209l-3.346616 3.164736c-0.072753 0.068711-0.072753 4.680413-0.072753 4.680413 0 32.083868-7.166125 55.029208-21.328618 68.237835-13.681518 12.743819-29.351606 11.80612-30.018504 11.745492l9.328492 7.307588-22.20569-66.61707 0.420348 5.092677c22.468408-140.420474-21.890429-237.779532-23.790079-241.849632l0.214216 0.485017c-7.323755-18.103256-22.136979-69.357416-2.853516-88.648963z m-16.79371 97.225678l-0.008084-0.012125c0.440557 0.937699 43.425179 95.827213 22.044018 229.404907l-0.416306 2.606966 0.836654 2.493795 22.209732 66.61707 2.227036 6.664941 7.00041 0.618396c1.018535 0.084878 25.208753 1.984527 45.999811-17.044302 18.976286-17.367647 28.591746-45.733051 28.591746-84.32827l-3.479996 7.913859c1.956235-1.790521 47.895418-45.316745 47.895418-168.915217 0-93.119202-47.410401-155.160946-91.474186-173.409707-29.109097-12.064795-58.197985-6.592188-79.793363 15.011273-32.706306 32.690139-5.108845 103.87041-1.851148 111.889355l0.097004 0.254634 0.121254 0.234425z" fill="#6E6E96" p-id="1928"></path><path d="M471.359626 939.041207c8.128075 21.255865-10.391487 45.239951-41.371941 53.594367-30.984496 8.330165-62.910733 7.226752-71.042849-14.037197-8.119991-21.255865 10.638037-54.649278 41.602324-62.979444 30.988538-8.334207 62.676308 2.162367 70.812466 23.422274z" fill="#D4A5A5" p-id="1929"></path><path d="M461.344027 942.860716c1.980486 5.197764 1.527803 10.674413-1.345922 16.32486-5.274559 10.347027-17.537403 18.976286-32.799267 23.082762-24.990495 6.721526-52.68496 6.992327-58.238404-7.501594-2.324039-6.086962-1.159999-14.716221 3.104109-23.082763 6.398181-12.54577 18.09113-22.165272 31.267422-25.701853 25.325965-6.822571 51.900849 0.921532 58.012062 16.878588z m-63.581673-37.596893c-18.952035 5.100761-35.701285 18.80653-44.803435 36.671319-7.085288 13.895734-8.556506 28.644289-4.033724 40.49891 9.356784 24.456977 40.696959 32.152578 83.847295 20.560675 21.344785-5.759576 38.227415-18.176008 46.335281-34.072437 5.581736-10.961382 6.398181-22.92109 2.275538-33.712716-10.217689-26.651678-46.941552-39.807762-83.620955-29.945751z" fill="#6E6E96" p-id="1930"></path><path d="M612.738009 944.230888c8.216995 25.637185 2.643342 46.024061-31.03704 56.831855-33.672298 10.7795-82.703464 7.905775-90.908333-17.739493-8.233162-25.629101 12.412391-55.186839 46.080647-65.99059 33.692507-10.799709 67.663898 1.228709 75.864726 26.898228z" fill="#D4A5A5" p-id="1931"></path><path d="M508.649342 948.600082s-9.785216 27.904639 35.968044 20.738514c45.777511-7.141874 47.499321-39.698633 47.499321-39.698633s59.560075 41.626575-10.415738 71.410654c-69.967729 29.796204-107.297862-15.152736-73.051627-52.450535z" fill="#C29797" p-id="1932"></path><path d="M602.52032 947.50071c6.204174 19.384509 4.486406 34.161357-24.093215 43.344344-30.200385 9.65992-71.855253 6.584104-77.428905-10.791626-3.031356-9.457829-0.181881-18.216426 2.744387-23.899208 6.527519-12.703401 20.132243-23.385898 36.40456-28.611955 16.284442-5.213932 33.575294-4.433863 46.254444 2.097698 5.690865 2.93031 13.095456 8.402918 16.118729 17.860747z m-68.912817-40.377656c-21.890429 7.02062-39.730967 21.308409-48.92608 39.2217-6.757902 13.135874-8.208911 27.443873-4.09435 40.25236 11.009883 34.387698 67.7124 36.416685 104.399886 24.667151 35.903376-11.515109 49.023083-35.822539 37.984906-70.303199-4.122644-12.848906-6.822571-24.226594-19.962487-30.988538-17.901165-9.215321-47.487196-9.870094-69.401875-2.849474z" fill="#6E6E96" p-id="1933"></path><path d="M381.259655 939.016957s-19.695728 34.626164 21.7813 28.902965c41.472986-5.719158 41.472986-40.284695 41.472986-40.284695s40.713126-8.221036 7.153999 44.205248c-26.752723 33.078152-129.054912 25.802899-70.408285-32.823518zM417.813761 273.016009C358.447693 361.365878 285.687076 383.256307 236.352774 350.101361c-49.334302-33.150905-56.565095-108.789289 2.800973-197.135116 59.366068-88.353911 185.236035-158.992579 220.553348-135.259087 35.313272 23.729452 17.476775 166.958982-41.893334 255.308851z" fill="#C29797" p-id="1934"></path><path d="M401.104929 274.167924c-36.723862 44.492216-77.792668 70.986264-115.636111 74.603682-22.04806 2.109823-42.204553-3.791215-58.294989-17.076636-44.985317-37.136127-35.535571-110.143295 23.515236-181.687328C301.999811 87.836559 393.514415 39.17724 443.543907 34.39174c12.016294-1.143832 21.134611 0.286968 25.685687 4.041807 4.547033 3.758881 7.687518 12.436642 8.835391 24.452935 4.789542 50.033534-25.645268 149.106318-76.960056 211.281442z m80.989738-251.319587c-8.968771-7.400549-22.581578-10.2864-40.47466-8.576715-55.106003 5.270517-151.248476 55.902239-206.520193 122.874988-77.085352 93.385961-65.986548 172.827686-20.7951 210.129528 20.310082 16.765417 45.583504 24.238719 73.083963 21.611544 43.223089-4.130727 89.142063-33.20749 129.301462-81.858726 55.2798-66.968708 86.76548-170.964413 81.499005-226.074458-1.717768-17.880956-7.129748-30.705611-16.094477-38.106161z" fill="#6E6E96" p-id="1935"></path><path d="M318.652057 89.049102S218.96896 238.329218 247.730462 350.74805l121.775616-52.139316-50.854021-209.559632z" fill="#B08989" p-id="1936"></path><path d="M738.005747 252.241119c-15.411412 146.143674-56.880356 201.083962-223.544286 226.858568-129.422716 20.010989-244.391929 57.482585-278.411823-13.895734-56.581262-122.361679 69.074489-88.62067 42.746156-170.010546-20.112034-199.018599 109.100508-287.958571 245.778269-285.016136 136.689886 2.942436 228.103445 102.924627 213.431684 242.063848z" fill="#D4A5A5" p-id="1937"></path><path d="M541.735577 226.539266l57.846349 223.253276s-235.301904 76.61246-317.973034 54.883703c0 0-64.858884-33.652089-58.715337-77.736083L324.799646 381.384951s-17.270643 25.071332-22.290568 46.840506c-3.775048 16.389529 42.483438-23.846664 61.960908 1.936026 6.616439 8.758597-0.084878 26.740598-0.084878 26.740598s115.401686-9.672045 126.912754-51.419874c26.376835-95.669582 15.864094-144.36932 50.437715-178.942941" fill="#BA9191" p-id="1938"></path><path d="M223.964634 393.453788s0.214216 36.166093 30.507563 40.389781c30.297389 4.227731 91.898576-45.08232 80.217752-119.68196-24.828823-158.539897 113.716252-361.57201 298.794657-239.840854 0 0 86.559348-6.883198-57.163282-59.066974-65.94613-23.947709-183.101961-5.860621-240.532003 69.167451-96.906375 126.601535-1.099372 229.740377-111.824687 309.032556z" fill="#DBB1B1" p-id="1939"></path><path d="M727.953772 251.182166c-14.60305 138.545076-49.289842 192.301115-215.036282 217.930215-22.896839 3.540623-45.243993 7.606682-66.859578 11.535319-98.430137 17.909249-176.174303 32.055575-200.889956-19.792731-28.284569-61.164672-8.309956-76.398244 14.813224-94.044776 18.798446-14.336291 42.188386-32.180871 28.426032-74.724936l0.440557 2.093656C280.26297 209.203953 299.481765 138.573368 344.430705 89.91809c42.940162-46.480786 106.837096-71.212605 179.933184-69.6363 64.090941 1.378256 119.803214 25.305756 156.858505 67.380972 36.837033 41.832707 53.44482 99.905396 46.731378 163.519404zM524.796362 0.076794C445.835612-1.624807 376.506489 25.410843 329.585146 76.204238c-48.990748 53.028514-70.028356 129.099372-60.845369 220.003662l0.109129 1.075121 0.331428 1.022578c9.356784 28.931258-2.897976 38.288042-21.453914 52.442451-24.941994 19.028829-55.991159 42.705737-20.851684 118.695759 31.412927 65.909754 120.102308 49.770817 222.800593 31.089583 21.482207-3.908428 43.69598-7.950235 66.330102-11.45044 163.369857-25.261297 215.420253-78.148347 232.052291-235.782879 7.307588-69.30083-11.042218-132.870378-51.674508-178.999527C655.548833 27.936973 594.606461 1.580347 524.796362 0.076794z" fill="#6E6E96" p-id="1940"></path><path d="M751.606429 315.814708c-11.167514 105.850895-65.250939 159.231046-124.370457 152.994538-59.10335-6.232467-100.863305-69.713095-89.699833-175.568032 11.171556-105.854937 89.400739-227.15362 131.706338-222.695507 42.325808 4.470239 93.531466 139.418106 82.363952 245.269001z" fill="#BA9191" p-id="1941"></path><path d="M722.970223 271.714547c-8.904102 84.441441-53.808583 126.831918-103.130759 121.630112-49.306009-5.197764-84.37273-56.023493-75.47267-140.464934 8.904102-84.445483 73.678108-180.955761 108.975212-177.233257 35.321355 3.726546 78.532319 111.626638 69.628217 196.068079z" fill="#D4A5A5" p-id="1942"></path><path d="M741.558496 314.755755c-9.728631 92.250213-55.243424 150.124854-113.255487 144.001516-58.012062-6.119296-90.443525-72.20689-80.718936-164.457104 4.96334-46.990053 24.675234-102.50832 52.749629-148.512172 28.506868-46.703085 55.154504-66.528151 67.849821-65.190313 32.888187 3.467871 84.239351 131.112192 73.374973 234.158073z m-71.253024-254.253939c-35.268812-3.726546-72.74445 51.039944-87.210079 74.75727-29.56178 48.428937-50.348795 107.09173-55.599103 156.919132-12.711484 120.425653 40.414033 180.531371 98.688812 186.683003 58.278822 6.147589 122.769901-41.557864 135.477344-161.983517 11.29281-107.188733-39.920932-250.951783-91.356974-256.375888z" fill="#6E6E96" p-id="1943"></path><path d="M400.175313 215.561717a32.407212 24.044712 90 1 0 48.089425 0 32.407212 24.044712 90 1 0-48.089425 0Z" fill="#6E6E96" p-id="1944"></path><path d="M677.987044 1003.341039a43.809151 51.015694 62.277 1 0-40.759808-77.56033 43.809151 51.015694 62.277 1 0 40.759808 77.56033Z" fill="#D4A5A5" p-id="1945"></path><path d="M410.255581 871.926995v72.158388s46.294862 21.259907 46.294863-85.819697l-46.294863 13.661309zM544.617386 832.769964l-3.128359 114.003221 47.091099-9.162777s36.22672-74.773438 33.195364-159.825192-77.158104 54.984748-77.158104 54.984748z" fill="#D4A5A5" p-id="1946"></path><path d="M704.280906 947.217784c6.078878 19.618933-8.673719 42.111592-32.851811 50.154789-18.551896 6.147589-35.442609 6.822571-45.179324 1.814771-4.704664-2.417001-7.776438-6.151631-9.417411-11.430231-6.155673-19.926111 8.778806-53.218479 33.082194-61.281885 13.220752-4.389403 27.039692-3.678045 37.968739 1.931984 5.74745 2.950519 13.249045 8.60905 16.397613 18.810572z m-61.100004-41.105182c-36.166093 11.992043-55.991159 58.404118-46.832422 87.990148 3.330449 10.775459 10.278316 19.125833 20.091824 24.170009 15.197196 7.816856 37.128043 7.622849 61.742651-0.549686 35.192017-11.692949 56.096246-46.169566 46.585873-76.867094-4.183271-13.499637-13.806814-24.711611-27.084152-31.53014-16.009599-8.225078-35.879125-9.397202-54.503774-3.213237z" fill="#6E6E96" p-id="1947"></path><path d="M624.810888 947.630048s-9.736714 38.514383 26.542549 26.538508c36.291389-11.971834 39.128738-48.5704 25.758439-49.471723-13.386466-0.921532 57.527045-9.498247 33.510625 45.979601-24.012378 55.481891-134.7094 53.828792-85.811613-23.046386z" fill="#BA9191" p-id="1948"></path><path d="M624.810888 947.630048s45.033819-51.549212 49.524266-96.461776l36.816824 67.748776c0-0.004042-53.727746 93.822476-86.34109 28.713z" fill="#D4A5A5" p-id="1949"></path><path d="M717.2834 911.896429s-13.30563 20.601093-43.772774 51.068237l18.669108 21.474123s40.567621-12.844864 53.319524-49.006916l-28.215858-23.535444z" fill="#BA9191" p-id="1950"></path><path d="M453.135116 901.674698l-8.641384 26.510215s-2.421043 20.936563-15.399286 29.49711c0 0 29.456693 5.193723 32.682055-3.787173 3.225362-8.976854 11.11497-54.992832 11.11497-54.992832l-19.756355 2.77268z" fill="#C29797" p-id="1951"></path><path d="M470.716979 296.462534c0 13.063122-18.273011 10.650163-40.818214 10.650163s-40.818213 2.421043-40.818213-10.650163 18.273011-23.660741 40.818213-23.66074c22.545202-0.004042 40.818213 10.589536 40.818214 23.66074z" fill="#FFFFFF" opacity=".21" p-id="1952"></path><path d="M138.132811 767.341185m-42.438978 0a42.438978 42.438978 0 1 0 84.877956 0 42.438978 42.438978 0 1 0-84.877956 0Z" fill="#00A33D" opacity=".44" p-id="1953"></path><path d="M809.072847 508.665509m-22.229941 0a22.229941 22.229941 0 1 0 44.459882 0 22.229941 22.229941 0 1 0-44.459882 0Z" fill="#00A0C6" opacity=".44" p-id="1954"></path><path d="M891.9299 252.010736m-36.376267 0a36.376267 36.376267 0 1 0 72.752534 0 36.376267 36.376267 0 1 0-72.752534 0Z" fill="#FFBF00" opacity=".33" p-id="1955"></path></svg>