<?xml version="1.0" standalone="no"?><!DOCTYPE svg PUBLIC "-//W3C//DTD SVG 1.1//EN" "http://www.w3.org/Graphics/SVG/1.1/DTD/svg11.dtd"><svg t="1649681379029" class="icon" viewBox="0 0 1024 1024" version="1.1" xmlns="http://www.w3.org/2000/svg" p-id="126916" xmlns:xlink="http://www.w3.org/1999/xlink" width="200" height="200"><defs><style type="text/css">@font-face { font-family: "feedback-iconfont"; src: url("//at.alicdn.com/t/font_1031158_u69w8yhxdu.woff2?t=1630033759944") format("woff2"), url("//at.alicdn.com/t/font_1031158_u69w8yhxdu.woff?t=1630033759944") format("woff"), url("//at.alicdn.com/t/font_1031158_u69w8yhxdu.ttf?t=1630033759944") format("truetype"); }
</style></defs><path d="M928.2 552.6c0 1-5.3 1.9-5.3 2.8 0 1 6.2 2 6.1 3 0 1 2.3 2 2.3 3s-11.2 1.6-11.3 2.5c0 1 2.4 2 2.4 2.9 0 1-3.3 1.7-3.4 2.7-0.1 1 6.2 2.2 6.1 3.2-0.1 1-3.1 1.7-3.2 2.6-0.1 1-2.6 1.7-2.7 2.6-0.1 1 3.7 2.2 3.6 3.2-0.1 1 2.8 2.2 2.7 3.1-0.1 1 3.8 2.3 3.6 3.3-0.1 1-9.8 0.8-9.9 1.8-0.1 1 1.7 2.1 1.5 3-0.1 1 4 2.5 3.9 3.4-0.1 1-6 1.1-6.2 2-0.1 1 2.5 2.3 2.3 3.2-0.1 0.9 10.4 3.6 10.3 4.6-0.2 0.9-8.5 0.5-8.6 1.5-0.2 0.9 6.3 3.1 6.2 4.1-0.2 0.9-11.7-0.2-11.8 0.7-0.2 0.9 1.3 2.2 1.1 3.1-0.2 0.9-1.7 1.6-1.9 2.5-0.2 0.9 4.1 2.8 3.9 3.8-0.2 0.9-0.4 1.9-0.6 2.8-0.2 0.9-3.7 1.1-3.9 2-0.2 0.9-0.8 1.7-1.1 2.7-0.2 0.9 2.9 2.7 2.7 3.6-0.2 0.9 0.3 2.1 0.1 3-0.3 0.9 3.9 3.1 3.6 4-0.3 0.9-10.1-0.9-10.4 0-0.3 0.9 1.5 2.4 1.3 3.3-0.3 0.9 2.4 2.7 2.1 3.7-0.3 0.9-3.2 1-3.5 1.9-0.3 0.9 1.9 2.6 1.6 3.5-0.3 0.9 1.7 2.6 1.4 3.5-0.3 0.9-4.4 0.5-4.7 1.4-0.3 0.9-1 1.7-1.3 2.6-0.3 0.9 8.1 5 7.7 5.9-0.3 0.9-8.1-0.9-8.4 0-0.3 0.9-4.7 0.3-5 1.1s-0.7 1.8-1 2.7c-0.4 0.9 5.4 4.2 5 5.1-0.4 0.9-4 0.4-4.3 1.3s-1.9 1.2-2.3 2.1c-0.4 0.9 2.6 3.2 2.2 4.1s-2.4 1-2.8 1.9c-0.4 0.9 4.9 4.4 4.5 5.2-0.4 0.9 1 2.6 0.5 3.5-0.4 0.9-13.9-4.5-14.3-3.6-0.4 0.9 5.9 5 5.4 5.8-0.4 0.9 1.7 3 1.3 3.9-0.4 0.9-10.1-3-10.6-2.2-0.4 0.9-1.8 1.1-2.3 2-0.4 0.9 12.9 9 12.5 9.9-0.5 0.8-10.7-3.6-11.1-2.7-0.5 0.8-2.1 1-2.6 1.8s9.5 7.6 9 8.4c-0.5 0.8-6.9-1.7-7.4-0.9-0.5 0.8-4.7-0.5-5.2 0.3s-3.8-0.1-4.3 0.7c-0.5 0.8 10.4 8.6 9.9 9.4-0.5 0.8 0.6 2.7 0.1 3.5-0.5 0.8-8.3-2.9-8.8-2.1-0.5 0.8 0.9 2.9 0.4 3.7-0.5 0.8-8.5-3.3-9.1-2.5-0.5 0.8 1.9 3.5 1.4 4.3-0.5 0.8-4.4-0.7-5 0-0.5 0.8 8.6 8.2 8 9-0.5 0.8-7.3-2.8-7.8-2-0.6 0.8-0.1 2.3-0.7 3-0.6 0.8 5.6 6.4 5 7.2-0.6 0.8-2.4 0.7-2.9 1.5-0.6 0.8-10.5-5.5-11.1-4.7-0.6 0.8-1.8 1-2.3 1.8-0.6 0.8 1.8 3.7 1.2 4.5-0.6 0.8-2.5 0.4-3.1 1.2-0.6 0.8 8.1 9 7.5 9.7-0.6 0.7-6.7-3-7.4-2.3-0.6 0.7 2.9 4.9 2.3 5.6-0.6 0.7-4.7-1.5-5.3-0.7-0.6 0.7-1.8 1-2.4 1.7-0.6 0.7 2.3 4.5 1.6 5.2-0.6 0.7-9.8-6.1-10.5-5.4-0.6 0.7 4.7 6.8 4.1 7.5-0.6 0.7-1.4 1.4-2 2.1-0.6 0.7-3.4-0.5-4 0.2-0.7 0.7 2.7 5.2 2.1 5.9-0.7 0.7 0.7 3.4 0.1 4.1-0.7 0.7-1 1.7-1.7 2.4s-5.8-3-6.5-2.3c-0.7 0.7 2.1 4.8 1.4 5.5-0.7 0.7-9.1-6.5-9.8-5.8-0.7 0.7-1.5 1.2-2.2 1.8-0.7 0.7 3 5.9 2.3 6.6-0.7 0.7-1 1.7-1.7 2.4s0.5 3.4-0.2 4.1c-0.7 0.7-7.4-5.2-8.1-4.6-0.7 0.6-1.7 0.9-2.4 1.6-0.7 0.6-2.3 0.3-3 0.9-0.7 0.6-0.2 2.6-0.9 3.3-0.7 0.6 4.3 7.9 3.6 8.5-0.7 0.6-7.4-5.8-8.1-5.1-0.7 0.6 0.5 3.6-0.2 4.2-0.7 0.6-4.5-2.5-5.3-1.9-0.7 0.6 5.7 10 4.9 10.6-0.7 0.6-1.6 1.1-2.4 1.7-0.8 0.6-7.6-6.6-8.4-6-0.8 0.6 5.5 10.2 4.8 10.8-0.8 0.6-6.8-5.8-7.6-5.2-0.8 0.6-3.7-1.8-4.5-1.2-0.8 0.6 3.7 8.2 3 8.8-0.8 0.6-0.9 2-1.7 2.6-0.8 0.6-1.1 1.8-1.9 2.3-0.8 0.6-5.4-4.2-6.1-3.7-0.8 0.6-3.5-1.7-4.3-1.2-0.8 0.5 0.2 3.6-0.6 4.2l-2.4 1.5c-0.8 0.5-1.2 1.6-2 2.1s-2.4-0.1-3.2 0.4c-0.8 0.5 3.6 9 2.8 9.5-0.8 0.5-1.9 0.7-2.7 1.2-0.8 0.5-0.2 3.3-1 3.8s-2.4-0.1-3.2 0.4c-0.8 0.5-6.5-6.9-7.3-6.4-0.8 0.5 1.6 6.4 0.8 6.8-0.8 0.5-4.8-4.3-5.6-3.8-0.8 0.5-1.6 1-2.5 1.5-0.8 0.5-3.2-1.8-4.1-1.4-0.8 0.5 2.1 7.5 1.3 8s-1.8 0.7-2.7 1.1c-0.8 0.5-3.3-2-4.1-1.5-0.8 0.5-1.8 0.6-2.7 1-0.8 0.5 0.8 5.6-0.1 6-0.8 0.4-1.1 2.1-2 2.5-0.9 0.4-6.2-7.8-7-7.4-0.9 0.4 1.1 6.4 0.2 6.8-0.9 0.4-1 2.3-1.9 2.7-0.9 0.4-5.3-6.5-6.2-6.1-0.9 0.4 2.5 9.6 1.6 10-0.9 0.4-5.2-6.5-6.1-6.1-0.9 0.4 3.4 11.8 2.5 12.2-0.9 0.4-2.5-0.8-3.4-0.4-0.9 0.4-5.8-8.1-6.6-7.7-0.9 0.4-1.1 2.2-2 2.6-0.9 0.4-3.9-4.2-4.8-3.8-0.9 0.4 4.1 14.5 3.2 14.9-0.9 0.4-2.1 0-3 0.4-0.9 0.4-2.2-0.3-3.1 0.1-0.9 0.4-1.7 0.9-2.6 1.3-0.9 0.4-2.4-0.7-3.3-0.4-0.9 0.4-1.3 2-2.2 2.4-0.9 0.3-3.1-2.8-4-2.4-0.9 0.3-0.7 3.6-1.6 4-0.9 0.3-1 2.8-1.9 3.2-0.9 0.3-1.5 1.5-2.5 1.8-0.9 0.3-3.2-3.1-4.1-2.8-0.9 0.3-2.4-1-3.3-0.7-0.9 0.3-1 3.2-1.9 3.5-0.9 0.3-1.9 0.6-2.8 0.9-0.9 0.3-4.8-8.4-5.7-8.1-0.9 0.3 0.2 6.8-0.8 7.1-0.9 0.3-3.6-5-4.5-4.8-0.9 0.3-2.2-0.8-3.1-0.5-0.9 0.3-1 3.4-1.9 3.6-0.9 0.3-3.3-4.6-4.2-4.3-0.9 0.3-0.7 4.3-1.7 4.6-0.9 0.3-0.2 6.5-1.1 6.8-0.9 0.3-1.8 0.6-2.8 0.9-0.9 0.2-2.5-1.8-3.4-1.6-0.9 0.2-0.2 6.9-1.2 7.1-0.9 0.2-4.4-9.6-5.3-9.3-0.9 0.2 0 8-1 8.2-0.9 0.2-1.6 1.8-2.5 2-0.9 0.2-1.4 2.7-2.3 2.9-0.9 0.2-2.8-3.3-3.7-3.1-0.9 0.2-3.2-5.6-4.1-5.4-0.9 0.2-0.1 8.7-1.1 8.8-0.9 0.2-3.5-7.6-4.5-7.4-0.9 0.2-0.3 8.6-1.2 8.8-0.9 0.2-1.8 0.8-2.8 0.9-0.9 0.2-3.4-7.7-4.3-7.5-0.9 0.2-2.9-5.5-3.9-5.3-0.9 0.2-1.2 4.2-2.1 4.3-0.9 0.2-1 5.9-1.9 6-0.9 0.2-2.8-5.1-3.7-5-0.9 0.1-0.9 6.5-1.9 6.6-0.9 0.1-3.1-7.8-4-7.7-1 0.1-2.2-2.4-3.2-2.3-1 0.1 0 14.1-1 14.2-1 0.1-1.6 2.8-2.6 2.9-1 0.1-2 0.3-2.9 0.4-1 0.1-3.3-11.2-4.2-11.1-1 0.1-0.8 10.6-1.7 10.7-1 0.1-3.2-12.1-4.2-12-1 0.1-1.6 3.1-2.6 3.2-1 0.1-1.2 7.8-2.2 7.9-1 0.1-2.3-3.8-3.2-3.7-1 0.1-1.8 1.4-2.8 1.4-1 0.1-2.3-5.7-3.3-5.6-1 0.1-1.2 10.1-2.2 10.2-1 0.1-2.3-5.6-3.3-5.6-1 0.1-1.6 6.9-2.5 6.9-1 0.1-2.1-3.5-3.1-3.4-1 0-2.3-8-3.2-8-1 0-1.6 9-2.5 9-1 0-2.1-5.8-3.1-5.8s-2-3.9-3-3.9-1.8 6.4-2.7 6.4c-1 0-2-7.1-3-7-1 0-1.8 11-2.8 11-1 0-2-7.7-2.9-7.7-1 0-1.9-5.8-2.8-5.8-1 0-1.9 5.1-2.9 5.1s-2 5.5-3 5.5-2 2-2.9 1.9c-1 0-1.8-5.4-2.8-5.5-1 0-1.8-3.4-2.8-3.4-1 0-2.3 9.4-3.2 9.3-1 0-1.5-9.1-2.5-9.1s-2 1-2.9 1c-1-0.1-1.8-1.9-2.8-2-1-0.1-2.6 11-3.6 10.9-1-0.1-1.2-10.6-2.2-10.7-1-0.1-2.6 9.5-3.6 9.4-1-0.1-1.8-2.1-2.7-2.2-1-0.1-1.9-0.5-2.9-0.6-1-0.1-1.7-2.7-2.6-2.8-1-0.1-1-9.3-1.9-9.4-1-0.1-2 1.1-3 1-1-0.1-3 9.8-4 9.7-1-0.1-2.3 2.7-3.2 2.6-1-0.1-2-0.1-2.9-0.2-1-0.1-1-7.6-1.9-7.7-1-0.1-2.3 2.6-3.2 2.5-1-0.1-2.3 2.6-3.3 2.4-1-0.1-0.7-8.6-1.6-8.7-1-0.1-3 7-4 6.9-1-0.1-0.3-10.2-1.3-10.3-0.9-0.2-1.7-1.4-2.6-1.6-0.9-0.2-4.5 14.9-5.5 14.7-0.9-0.2 0.2-12-0.8-12.2-0.9-0.2-3.3 7.2-4.2 7-0.9-0.2-0.4-8.3-1.3-8.5-0.9-0.2-1.5-2.4-2.4-2.5-0.9-0.2-3.9 9.7-4.9 9.5-0.9-0.2-1.7-1.4-2.6-1.6-0.9-0.2-1.5-2.4-2.4-2.6-0.9-0.2-2.2 1-3.1 0.8-0.9-0.2-3.1 4.9-4.1 4.7-0.9-0.2 0.9-12-0.1-12.3-0.9-0.2-3.7 7.1-4.6 6.9-0.9-0.2-0.8-4.8-1.7-5-0.9-0.2-2.2 1-3.2 0.8-0.9-0.2-0.3-6.5-1.2-6.7-0.9-0.2-5.4 12.7-6.4 12.5-0.9-0.3 1.4-12.4 0.5-12.7-0.9-0.3-3 3.5-3.9 3.2-0.9-0.3-1.1-3-2-3.3-0.9-0.3-4.6 8.8-5.6 8.6-0.9-0.3-0.1-6.2-1.1-6.5-0.9-0.3 0.5-8-0.4-8.3-0.9-0.3-5.6 11.1-6.5 10.8-0.9-0.3 1.8-11.8 0.9-12.1-0.9-0.3-1.6-1.2-2.5-1.5-0.9-0.3-1.7-0.7-2.7-1-0.9-0.3-2.9 2.5-3.8 2.2-0.9-0.3-3.4 3.9-4.3 3.6-0.9-0.3-2.6 1.4-3.5 1.1-0.9-0.3 0.8-7.7-0.1-8-0.9-0.3-3.3 3.5-4.2 3.1-0.9-0.3-3 2.4-3.9 2-0.9-0.3-0.1-5.1-1-5.5-0.9-0.4-4.4 5.9-5.3 5.6-0.9-0.4-1-2.7-1.9-3-0.9-0.4 2.8-11.9 2-12.3-0.9-0.4-5.9 9-6.7 8.7-0.9-0.4-1.9-0.4-2.8-0.8-0.9-0.4-3.7 3.6-4.6 3.2-0.9-0.4-1.9-0.5-2.8-0.9-0.9-0.4 0-4.7-0.9-5.1-0.9-0.4 2.5-10.1 1.7-10.5-0.9-0.4-1.5-1.3-2.4-1.7-0.9-0.4-5.1 6.2-5.9 5.8-0.9-0.4-1.7-1-2.5-1.4-0.9-0.4-0.8-2.7-1.6-3.2-0.9-0.4-0.5-3.3-1.3-3.7-0.9-0.4-5.3 6.2-6.2 5.7-0.9-0.4-3.5 2.6-4.4 2.1-0.9-0.4 4.4-12.6 3.6-13.1-0.8-0.4-7.8 10.4-8.6 10-0.8-0.5 2.9-9.4 2-9.8-0.8-0.5-5.1 5.2-5.9 4.7-0.8-0.5 3.4-10 2.5-10.4-0.8-0.5-3.6 2.5-4.4 2-0.8-0.5 1-5.5 0.1-6-0.8-0.5-2.3 0.2-3.1-0.3-0.8-0.5-8.4 10.3-9.2 9.9-0.8-0.5-0.6-2.8-1.4-3.3-0.8-0.5 4.9-11.7 4.1-12.2-0.8-0.5-1.8-0.7-2.6-1.2s-1.2-1.6-2-2.1-1.4-1.2-2.3-1.7c-0.8-0.5-9.4 10.8-10.2 10.3-0.8-0.5-2.3-0.1-3.1-0.6-0.8-0.5 6.2-12.7 5.4-13.2-0.8-0.5-8.7 9.4-9.5 8.8-0.8-0.5-1.9-0.7-2.7-1.2-0.8-0.6 0.9-4.7 0.1-5.2-0.8-0.6 3.5-8.2 2.7-8.8-0.8-0.6-2.5 0.2-3.3-0.3-0.8-0.6-5.8 4.7-6.6 4.1-0.8-0.6 1.6-5.3 0.8-5.9-0.8-0.6-6.3 5.1-7.1 4.5-0.8-0.6-1-2-1.7-2.5-0.8-0.6 0.9-4.3 0.1-4.9-0.8-0.6-0.2-2.9-0.9-3.5-0.8-0.6-1.8-0.8-2.6-1.4-0.7-0.6-1.2-1.5-1.9-2.2-0.7-0.6 0.6-3.8-0.1-4.4-0.7-0.6-4.4 2.3-5.1 1.7-0.7-0.6 2.9-6.4 2.2-7-0.7-0.6-7.4 5.7-8.1 5-0.7-0.6 1.3-4.3 0.5-5-0.7-0.6-1.7-1-2.4-1.6-0.7-0.6-4.4 2-5.1 1.4-0.7-0.6 1.4-4.3 0.7-5-0.7-0.7-6.3 3.9-7 3.3-0.7-0.7 0.5-3.4-0.2-4-0.7-0.7-3 0.3-3.7-0.3-0.7-0.7 5-8 4.4-8.6-0.7-0.7-7.8 5.2-8.5 4.5-0.7-0.7 3.1-5.8 2.4-6.5-0.7-0.7-3.2 0.5-3.9-0.2-0.7-0.7-3.5 0.7-4.1 0-0.7-0.7 3.9-6.4 3.3-7.1-0.7-0.7-3.8 0.9-4.4 0.2-0.7-0.7-1.5-1.3-2.1-2-0.6-0.7 0.7-3.2 0-3.9-0.6-0.7-6 2.8-6.6 2.1-0.6-0.7 0.3-2.8-0.4-3.5-0.6-0.7-5.1 1.9-5.8 1.2-0.6-0.7-0.7-2-1.3-2.8-0.6-0.7 6.7-8.2 6.1-8.9-0.6-0.7 0.9-3.2 0.3-3.9-0.6-0.7-7.2 3.5-7.9 2.7-0.6-0.7-6.4 2.6-7 1.9-0.6-0.8 11.3-11.4 10.7-12.1-0.6-0.8-4.8 1.4-5.4 0.6-0.6-0.8 2.3-4.1 1.7-4.9-0.6-0.8-9 4.4-9.6 3.6-0.6-0.8 3.5-4.9 2.9-5.7-0.6-0.8-1.3-1.4-1.9-2.1-0.6-0.8-9.8 4.6-10.3 3.8-0.6-0.8 1.1-3.2 0.6-4-0.5-0.8 7.7-7.7 7.2-8.5-0.5-0.8-9.1 3.9-9.6 3.1-0.5-0.8-4.2 0.4-4.7-0.4s1.6-3.4 1.1-4.2c-0.5-0.8-0.8-1.8-1.3-2.6s4.8-5.3 4.3-6.1c-0.5-0.8-9.5 3.6-10 2.8-0.5-0.8-1.8-1.2-2.3-2.1-0.5-0.8 12.3-9.6 11.9-10.4-0.5-0.8-5 0.7-5.5-0.1-0.5-0.8-1.2-1.5-1.7-2.3-0.5-0.8-5.8 1-6.2 0.2-0.5-0.8 8.2-6.7 7.8-7.6-0.5-0.8-3.6-0.2-4-1-0.5-0.8 0.6-2.4 0.1-3.3-0.4-0.9-11.5 3.8-11.9 3-0.4-0.9 9.9-7.2 9.4-8-0.4-0.9-9.9 2.8-10.3 1.9-0.4-0.9-4.3-0.1-4.7-1-0.4-0.9 9.6-6.7 9.2-7.6-0.4-0.9-8.1 1.7-8.5 0.8l-1.2-2.7c-0.4-0.9 4.9-4.3 4.5-5.2-0.4-0.9-6.9 0.9-7.3 0-0.4-0.9 9.1-5.9 8.7-6.8-0.4-0.9-0.6-1.8-1-2.6-0.4-0.9-9.3 1.7-9.7 0.8-0.4-0.9-2.6-1.1-3-2-0.3-0.9 10.6-6.1 10.3-7-0.3-0.9-0.3-1.9-0.6-2.8-0.3-0.9-15.3 3.5-15.6 2.6-0.3-0.9 12.3-6.4 12-7.3-0.3-0.9-6.6 0.3-6.9-0.6-0.3-0.9-2-1.4-2.3-2.3-0.3-0.9 5.3-3.7 5-4.6-0.3-0.9 2.7-2.8 2.4-3.7-0.3-0.9-3-1-3.2-2-0.3-0.9-9.6 0.8-9.9-0.1-0.3-0.9-2.3-1.4-2.6-2.3-0.3-0.9 4.4-3.2 4.1-4.2-0.3-0.9-1.1-1.7-1.4-2.6-0.2-0.9-4-1-4.2-1.9-0.2-0.9 3.3-2.8 3-3.7-0.2-0.9 2.6-2.6 2.4-3.5-0.2-0.9 4.6-3 4.4-3.9-0.2-0.9 0.1-1.9-0.1-2.9-0.2-0.9-2.1-1.5-2.2-2.4-0.2-0.9 1.8-2.3 1.6-3.2-0.2-0.9-1.4-1.6-1.5-2.6-0.2-0.9-6.3-0.8-6.4-1.7-0.2-0.9-5.5-1-5.6-2-0.2-0.9 7.9-3.2 7.8-4.2-0.1-0.9 3.5-2.4 3.4-3.4-0.1-0.9-14 0.1-14.2-0.9-0.1-1 6.8-2.9 6.6-3.8-0.1-1 1.3-2.1 1.2-3-0.1-1-2.6-1.6-2.7-2.6-0.1-1 5.2-2.5 5.1-3.4-0.1-1-6.8-1.3-6.9-2.2-0.1-1 2-2.1 1.9-3.1-0.1-1-4.3-1.6-4.3-2.6-0.1-1 7.5-2.4 7.4-3.4-0.1-1-7.7-1.5-7.8-2.4-0.1-1 0.4-2 0.3-2.9 0-1 10.6-2.3 10.6-3.3s-7.1-1.7-7.2-2.6c0-1-4.3-1.8-4.4-2.8 0-1 0.1-2 0-2.9 0-1-2.5-2-2.5-2.9 0-1 1.8-2 1.8-2.9 0-1 0.1-2 0.1-2.9 0-1-4.3-2.1-4.3-3 0-1 15.2-1.5 15.3-2.4 0-1-8.6-2.3-8.5-3.2 0-1-0.3-2-0.3-2.9 0.1-1 2.3-1.8 2.4-2.8 0.1-1-5.2-2.3-5.1-3.3 0.1-1 10.4-1.1 10.5-2.1 0.1-1-4.5-2.3-4.4-3.3 0.1-1 6.2-1.3 6.3-2.3 0.1-1-7.3-2.7-7.2-3.6 0.1-1 9.1-0.9 9.2-1.8 0.1-1-0.2-1.9 0-2.8 0.1-1-11.9-3.5-11.8-4.5 0.1-1 6.6-1 6.7-2 0.1-1 2-1.6 2.2-2.6 0.1-1-4.9-2.7-4.7-3.7 0.2-1 4.8-1.1 5-2.1 0.2-0.9-3-2.5-2.8-3.4 0.2-0.9 2.9-1.4 3.1-2.4 0.2-0.9-8.9-3.8-8.7-4.7 0.2-0.9 0.3-2 0.5-2.9 0.2-0.9 7.4-0.4 7.7-1.3 0.2-0.9 0.8-1.8 1-2.7 0.2-0.9 7.7-0.1 7.9-1.1 0.2-0.9-8-3.9-7.7-4.9 0.2-0.9-2.4-2.6-2.2-3.6 0.2-0.9 11.2 1 11.4 0.1 0.3-0.9-3.6-2.9-3.3-3.9 0.3-0.9-8.3-4.4-8-5.3 0.3-0.9 7.9 0.3 8.2-0.6 0.3-0.9-8.1-4.5-7.8-5.4 0.3-0.9 1.6-1.6 1.9-2.5 0.3-0.9 8.4 0.7 8.7-0.2 0.3-0.9-2.7-2.9-2.4-3.9 0.3-0.9-1.9-2.7-1.6-3.6 0.3-0.9 4.2-0.6 4.5-1.5 0.3-0.9 6.8 0.5 7.2-0.4 0.3-0.9-5.9-4.2-5.5-5.1 0.3-0.9-1.2-2.6-0.9-3.5 0.4-0.9 8.9 1.5 9.3 0.6 0.4-0.9-3.3-3.4-2.9-4.3 0.4-0.9-7.4-5.2-7-6.1 0.4-0.9 14.7 4.2 15.1 3.3 0.4-0.9-2.1-3-1.7-3.8 0.4-0.9-0.9-2.5-0.5-3.4 0.4-0.9 4-0.3 4.4-1.1 0.4-0.9-8.2-6-7.8-6.8 0.4-0.9-2.5-3.4-2.1-4.3 0.4-0.9 7.5 1.5 8 0.6 0.4-0.9 4.9 0.3 5.4-0.5 0.4-0.9 2.1-1 2.6-1.9 0.4-0.9-10-7.4-9.5-8.2 0.4-0.9 6.9 1.5 7.4 0.6 0.5-0.8 7 1.6 7.4 0.8 0.5-0.8-5.2-5.1-4.8-5.9 0.5-0.8 1.9-1.1 2.4-2 0.5-0.8 1.2-1.5 1.7-2.4 0.5-0.8-1-2.8-0.5-3.6 0.5-0.8-5.3-5.5-4.8-6.3 0.5-0.8 13.2 5.8 13.8 5 0.5-0.8-5.8-5.9-5.3-6.7 0.5-0.8-2.8-4.1-2.3-4.9 0.5-0.8 9.8 4 10.3 3.2l1.5-2.4c0.5-0.8 0.2-2.1 0.8-2.9 0.5-0.8 4.2 0.6 4.7-0.2s1.3-1.4 1.9-2.1c0.6-0.8-4-5.2-3.5-6 0.6-0.8 0.9-1.7 1.4-2.5 0.6-0.8 7.3 3 7.9 2.2 0.6-0.8-9.2-9.2-8.6-10 0.6-0.8 0.2-2.3 0.8-3.1 0.6-0.8 3.5 0.2 4.1-0.5 0.6-0.8 4.2 0.8 4.8 0.1 0.6-0.8-2.8-4.7-2.2-5.4 0.6-0.8 0.1 0.3 0.8-0.4-0.3-0.8 6.3-1.3 6.1-2.1-0.2-0.8-7.3-0.2-7.4-1.1-0.2-1.4 12.2-3.6 12-5-0.2-1.4-1.2-1.3-1.5-2.7-0.2-1.4 0.4-1.5 0.2-3-0.2-1.4-4.6-0.7-4.9-2.1-0.2-1.4-2.9-1-3.2-2.4-0.2-1.4 0.4-1.6 0.2-3s-9.3 0.1-9.5-1.3c-0.2-1.4 15.7-4.2 15.4-5.6-0.2-1.4-14.9 1.1-15.1-0.3-0.2-1.4 4.5-2.3 4.3-3.7-0.2-1.4 9.6-3.1 9.4-4.6-0.2-1.4-14.4 1-14.7-0.4-0.2-1.4 12-3.6 11.8-5-0.2-1.4-13.4 0.8-13.6-0.6-0.2-1.4 4.8-2.3 4.6-3.7-0.2-1.4 5-2.3 4.8-3.8-0.2-1.4-2.2-1.1-2.5-2.5-0.2-1.4 5.7-2.5 5.4-3.9-0.2-1.4-7.3-0.2-7.6-1.6-0.2-1.4 7.5-2.8 7.3-4.2-0.2-1.4-11.7 0.6-11.9-0.9-0.2-1.4 6.7-2.6 6.5-4.1-0.2-1.4 0.1-1.5-0.1-2.9s-9.8 0.2-10.1-1.2c-0.2-1.4 3.2-2 3-3.5-0.2-1.4 1.7-1.8 1.4-3.2-0.2-1.4-5.4-0.5-5.7-2-0.2-1.4-0.3-1.4-0.5-2.9-0.2-1.4-1-1.3-1.2-2.7-0.2-1.4-1.5-1.2-1.8-2.6-0.2-1.4 0.2-1.5-0.1-2.9-0.2-1.4-0.6-1.4-0.8-2.8-0.2-1.4-0.1-1.5-0.4-2.9-0.2-1.4 0.6-1.6 0.4-3-0.2-1.4 9.7-3.2 9.5-4.6-0.2-1.4 3.7-2.1 3.4-3.6-0.2-1.4-12.5 0.7-12.7-0.7-0.2-1.4 5.4-2.4 5.1-3.8-0.2-1.4 4.8-2.3 4.6-3.7-0.2-1.4-0.3-1.4-0.5-2.9-0.2-1.4-4.8-0.6-5.1-2.1-0.2-1.4-5.9-0.5-6.1-1.9-0.2-1.4 5-2.4 4.8-3.8-0.2-1.4-6.8-0.3-7.1-1.7-0.2-1.4-2.4-1.1-2.6-2.5-0.2-1.4 7.8-2.8 7.6-4.3-0.2-1 0.6-1.9 0.5-2.8-0.1-1-7.5-2-7.5-2.9 0-1 10.2-1.2 10.3-2.1 0.1-1-10.3-4-10.1-5 0.2-0.9 0.7-2.5 1-3.4 0.3-0.9 7.2 0.6 7.6-0.3 0.4-0.9 2.2-0.8 2.7-1.6s-5.3-6.3-4.7-7c0.6-0.8 11 7 11.7 6.3 0.7-0.7-8.4-11.7-7.7-12.3s6.9 5.3 7.7 4.8c0.8-0.5 1.1-1.8 1.9-2.2 0.8-0.5 4.4 5.5 5.3 5.2 0.9-0.4-1.1-7.5-0.2-7.8 0.9-0.3 1.4-2.6 2.4-2.7 0.9-0.2 1.6-6 2.6-6.1 0.9-0.1 2.7-0.2 3.7-0.2 0.9 0 1.7 8.8 2.6 8.9 0.9 0.1 1.4 1.8 2.4 2.1 0.9 0.2 3.7-5.7 4.6-5.4 1.4 0.5 2.2-2.1 3.6-1.7 1.4 0.5-1.2 8.2 0.1 8.6 1.4 0.5-0.3 5.3 1.1 5.8 1.4 0.5 4.7-9.5 6.1-9.1 1.4 0.5-0.3 5.3 1.1 5.8 1.4 0.5 1.3 0.6 2.7 1.1 1.4 0.5 3.2-5 4.6-4.6 1.4 0.5-0.3 5.4 1.1 5.9 1.4 0.5-0.7 6.6 0.7 7 1.4 0.5 2.1-1.8 3.5-1.4 1.4 0.5 3.1-4.8 4.5-4.3s0.9 1.9 2.2 2.3c1.4 0.5 0.8 2 2.2 2.5 1.4 0.5-0.5 5.9 0.9 6.3 1.4 0.5 4.9-10.1 6.3-9.7 1.4 0.5 2.6-3.3 4-2.8s1.5 0.1 2.9 0.5c1.4 0.5-1.6 9.2-0.2 9.6 1.4 0.5 1.7-0.6 3.1-0.2 1.4 0.5-0.9 7.3 0.4 7.7 1.4 0.5 3.3-5.2 4.6-4.8 1.4 0.5 1.5 0.2 2.8 0.6 1.4 0.5 1.8-0.8 3.2-0.4 1.4 0.5 2-1.5 3.4-1s3.2-5 4.6-4.6c1.4 0.5-0.3 5.5 1 6 1.4 0.5 2.6-3.1 3.9-2.7 1.4 0.5 2.1-1.6 3.4-1.2 1.4 0.5-2.6 12.1-1.2 12.6 1.4 0.5 1.6-0.3 3 0.1 1.4 0.5 0.8 2.2 2.1 2.7 1.4 0.5 2.7-3.6 4.1-3.2 1.4 0.5 3.9-7 5.2-6.6 1.4 0.5-2.9 13.1-1.5 13.5 1.4 0.5 0.9 1.9 2.3 2.3 1.4 0.5 1.7-0.5 3 0 1.4 0.5 1.9-1.1 3.3-0.7 1.4 0.5 0.5 3 1.9 3.5s5.2-11.1 6.6-10.6c1.4 0.5 1.1 1.2 2.5 1.6 1.4 0.5 0.6 2.7 2 3.1 1.4 0.5 0.7 2.5 2 3s1.2 0.8 2.6 1.3c1.4 0.5 1.5 0.2 2.8 0.6 1.4 0.5 1.7-0.7 3.1-0.2 1.4 0.5 0.1 4.4 1.4 4.8 1.4 0.5 3-4.5 4.4-4 1.4 0.5 1.2 1.1 2.5 1.6s-0.5 6.2 0.8 6.6c0.8 0.3 1.1 0.7 1.9 1.1 0.8 0.4 5.4-7.2 6.2-6.8 0.8 0.4-0.9 5-0.2 5.5s0.2 2.3 0.9 2.8c0.7 0.6 3.2 0 3.8 0.7 0.9-0.4 4.8 4.7 5.7 4.3 0.9-0.4 1.8-0.6 2.6-1 0.9-0.4 0.4-4 1.3-4.4 0.9-0.4-2.4-11.2-1.6-11.6 0.9-0.4 2.3 0.6 3.2 0.2 0.9-0.3 6.8 12.4 7.7 12 0.9-0.3 0.6-3.7 1.5-4.1 0.9-0.3-0.4-6.5 0.5-6.8 0.9-0.3 3.2 3.3 4.1 2.9 0.9-0.3 2.8 2.3 3.7 1.9 0.9-0.3-0.4-6.7 0.5-7.1 0.9-0.3 2.4 1.1 3.3 0.8 0.9-0.3 0.9-3.4 1.8-3.7 0.9-0.3 4.5 7.5 5.4 7.3 0.9-0.3 0-6.1 0.9-6.4 0.9-0.3 2.9 2.9 3.8 2.6 0.9-0.3 2 0.2 2.9-0.1 0.9-0.3-1.8-12.5-0.9-12.8 0.9-0.3 2 0 3-0.2 0.9-0.3 3.1 3.8 4 3.5 0.9-0.3 1.6-1.6 2.5-1.8 0.9-0.3 0.8-4.2 1.8-4.5 0.9-0.2 2.5 1.8 3.4 1.5 0.9-0.2 3.7 6.6 4.6 6.4 0.9-0.2-0.4-9.5 0.5-9.7 0.9-0.2 2.8 3.4 3.8 3.2 0.9-0.2 2.5 2.1 3.4 1.9 0.9-0.2 0.2-7.5 1.2-7.7 0.9-0.2 3.7 7.4 4.6 7.2 0.9-0.2 1.3-2.9 2.2-3.1 0.9-0.2 1.2-3.5 2.2-3.7 0.9-0.2 3.4 6.8 4.3 6.6 0.9-0.2 1.5-2.3 2.4-2.5 0.9-0.2 2 0.3 2.9 0.2 0.9-0.2 2.9 5.3 3.9 5.1 0.9-0.2-0.5-13.1 0.5-13.3 0.9-0.2 3 5.8 3.9 5.6 0.9-0.2 0.5-8.6 1.4-8.7 0.9-0.2 4.2 13.6 5.1 13.5 0.9-0.2 0.7-7.9 1.6-8.1 0.9-0.1 1.5-2.8 2.5-3 0.9-0.1 2.7 4.9 3.6 4.8 0.9-0.1 2.2 2.1 3.2 2 0.9-0.1 1.8-0.4 2.8-0.6 0.9-0.1 1.6-2.7 2.5-2.8 0.9-0.1 2.2 2.5 3.2 2.3 0.9-0.1 2.3 4 3.3 3.9 0.9-0.1 1.1-7.3 2-7.4 0.9-0.1 1.2-6.7 2.2-6.8 0.9-0.1 1.9-1 2.8-1 0.9-0.1 2.9 10.9 3.9 10.8 0.9-0.1 1.5-4.3 2.5-4.4 0.9-0.1 1.3-8 2.2-8.1 1-0.1 2.8 11.2 3.7 11.1 1-0.1 1.3-9 2.3-9 1-0.1 2.6 11.9 3.6 11.9 1-0.1 1.4-8.6 2.4-8.6 1-0.1 2 0.7 2.9 0.7 1 0 2.2 7.8 3.2 7.8s1.6-7.1 2.6-7.2c1 0 1.9-1.9 2.8-1.9 1 0 2.1 8.4 3.1 8.3 1 0 1.7-8 2.7-8.1 1 0 1.9-2.5 2.8-2.5 1 0 2 10.9 3 10.9s1.9-11.1 2.8-11.1c1 0 1.9-0.4 2.9-0.4s1.9 5.1 2.8 5.1c1 0 1.8 5.6 2.8 5.6 1 0 2.1-10.2 3.1-10.2s1.6 11.1 2.6 11.2c1 0 2.3-11.6 3.2-11.5 1 0 1.7 5.9 2.7 6 1 0 1.8 2.2 2.8 2.3 1 0 2.5-11.4 3.5-11.4 1 0.1 1.3 10.5 2.3 10.6 1 0.1 2.3-5.8 3.2-5.7 1 0.1 1.2 9.8 2.2 9.9 1 0.1 2.5-7.6 3.4-7.5 1 0.1 1.6 4.3 2.5 4.4 1 0.1 2.4-5.2 3.3-5.2 1 0.1 2.2-2.9 3.2-2.8 1 0.1 0.7 12.5 1.7 12.6 1 0.1 2.5-5.3 3.4-5.2 1 0.1 1.8 1.1 2.7 1.2 1 0.1 2.7-6.7 3.7-6.6 1 0.1 0.4 12.7 1.3 12.8 0.9 0.1 2.9-7.5 3.8-7.4 0.9 0.1 2.2-2.2 3.2-2.1 0.9 0.1 2.4-3.5 3.4-3.3 0.9 0.1 0.6 9.5 1.5 9.6 0.9 0.1 1.7 1.1 2.7 1.3 0.9 0.1 2.6-4.3 3.6-4.2 0.9 0.2 1.1 4.8 2.1 4.9 0.9 0.2 1.5 2.1 2.5 2.3 0.9 0.2 2-0.4 2.9-0.2 0.9 0.2 1.9 0.1 2.8 0.3 0.9 0.2 2.4-2.3 3.3-2.1 0.9 0.2 3.7-8.6 4.6-8.4 0.9 0.2 0.3 8.3 1.2 8.5 0.9 0.2 2.7-3.4 3.6-3.2 0.9 0.2-0.5 11.3 0.4 11.5 0.9 0.2 4.9-13 5.8-12.8 0.9 0.2 1.3 3 2.2 3.2 0.9 0.2 0.5 6 1.5 6.3 0.9 0.2 0.9 4.5 1.8 4.7 0.9 0.2 4.2-9.1 5.2-8.9 0.9 0.2 2.5-2 3.4-1.7 0.9 0.2-1.5 13.3-0.6 13.6 0.9 0.2 5.7-13.9 6.6-13.6 0.9 0.3-0.1 7.6 0.8 7.8 0.9 0.3 2.3-1.2 3.3-0.9 0.9 0.3 1.3 2.4 2.2 2.6 0.9 0.3 1.3 2.3 2.2 2.6 0.9 0.3 1.3 2.1 2.3 2.4 0.9 0.3 3.1-3.4 4-3.1 0.9 0.3 2.4-1.2 3.3-0.9 0.9 0.3 2.1-0.2 3 0.1 0.9 0.3 1.9 0.4 2.8 0.7 0.9 0.3 2.4-0.9 3.3-0.6 0.9 0.3-1.8 10.9-0.9 11.3 0.9 0.3 5.4-9.6 6.3-9.2 0.9 0.3-2.6 12.9-1.7 13.2 0.9 0.3 3.9-5.2 4.8-4.9 0.9 0.3 3.3 2.7 4.2 3 0.4-0.8-0.2-4.9 0.3-5.6 0.5-0.7-3.9-5.9-3.3-6.5 0.6-0.7 4 0.8 4.7 0.2 0.6-0.6 4.4 2.4 5.2 1.9 0.7-0.5 2.6 1.2 3.4 0.7 0.7-0.5-1.2-5.5-0.4-5.9 1.3-0.6 3.5 3.9 4.8 3.2 1.3-0.6-1.5-6.2-0.2-6.9 1.3-0.6 2.3 1.5 3.6 0.9 1.3-0.6 4.3 5.4 5.6 4.8 1.3-0.6 1-1.2 2.3-1.8 1.3-0.6-2.1-7.6-0.9-8.2 1.3-0.6 0.7-1.8 2-2.4 1.3-0.6 0.3-2.6 1.6-3.2 1.3-0.6 1.9 0.7 3.2 0 1.3-0.6 1.5-0.2 2.8-0.9 1.3-0.6 6.3 9.5 7.6 8.8 1.3-0.6-5.8-15-4.5-15.6 1.3-0.6 7 10.9 8.3 10.3 1.3-0.6 0.7-1.9 1.9-2.6 1.3-0.6-0.6-4.4 0.7-5.1 1.3-0.6-0.9-5.2 0.3-5.8 1.3-0.6 3.8 4.4 5.1 3.8 1.3-0.6-2.2-7.6-0.9-8.3 1.3-0.6 7.8 12.6 9.1 11.9 1.3-0.6-4.1-11.6-2.9-12.3 1.3-0.6 5.1 7.1 6.4 6.5 1.3-0.6 2.6 2.1 3.9 1.4 1.3-0.6-3.6-10.5-2.3-11.1 1.3-0.6 5.9 8.7 7.2 8.1 1.3-0.6-2-7.4-0.8-8 1.3-0.6 4.2 5.2 5.5 4.6 1.3-0.6-3.8-10.9-2.5-11.6 1.3-0.6 2.1 1 3.4 0.4 1.3-0.6 6.4 9.7 7.7 9.1 1.3-0.6 2.1 1 3.4 0.4 1.3-0.6-2.5-8.3-1.2-8.9 1.3-0.6-1.1-5.5 0.2-6.2 1.3-0.6 0.6-2 1.9-2.6 1.3-0.6 1-1.2 2.3-1.8 1.3-0.6 3 2.8 4.3 2.1 1.3-0.6 5.2 7.3 6.5 6.6 1.3-0.6-4.5-12.3-3.2-12.9 1.3-0.6 6.8 10.5 8.1 9.8 1.3-0.6 1.4-0.3 2.7-1 1.3-0.6-4.2-11.7-2.9-12.3 1.3-0.6 4.4 5.6 5.6 4.9 1.3-0.6 2.6 2.1 3.9 1.5 1.3-0.6 0.4-2.5 1.6-3.2 1.3-0.6-2.2-7.6-0.9-8.3 1.3-0.6 7.1 11.1 8.4 10.5 1.3-0.6 2.6 2 3.9 1.4 1.3-0.6-4.3-11.9-3-12.5 1.3-0.6 5.9 8.7 7.2 8.1 1.3-0.6-3-9.4-1.7-10 0.9-0.4 5.6 8.5 6.5 8.2 0.9-0.3-2.6-14.4-1.7-14.7 0.9-0.2 4.8 12.7 5.7 12.6 0.9-0.1 1-5.4 2-5.4 0.9 0 2-3.1 3-3.1 0.9 0.1 2.4-1.1 3.3-1 0.9 0.1-0.9 12.1 0 12.3 0.9 0.2 2.8-4.3 3.7-4 0.9 0.3 2-0.5 2.8 0 0.8 0.4 3.9-3 4.7-2.5 0.8 0.5 2.7 0 3.5 0.6 0.7 0.6 0.4 2.9 1.1 3.5 0.7 0.7-0.1 2.9 0.5 3.6 0.6 0.7 5.5-1.5 6-0.7s-7.3 6.7-6.9 7.5c0.4 0.8-0.9 1.9-0.5 2.8 0.4 0.9 0.9 1 1.2 1.9 0.3 0.9 0.9 1.1 1.1 2.1 0.2 0.9 2.9 1.1 3 2.1 0.1 0.9-0.4 1.6-0.4 2.6 0 0.9 1.1 1.7 0.9 2.7-0.2 1.4-0.8 1.3-1 2.8-0.2 1.4-4.3 0.9-4.4 2.4-0.2 1.4 7.7 2.4 7.5 3.8-0.2 1.4-4 1-4.2 2.4-0.2 1.4 1.6 1.6 1.4 3.1-0.2 1.4-4 1-4.2 2.4-0.2 1.4 8.8 2.5 8.6 3.9-0.2 1.4-2.6 1.1-2.8 2.6-0.2 1.4 3.7 1.9 3.5 3.3-0.2 1.4-1.8 1.2-2 2.7-0.2 1.4-9.6 0.3-9.8 1.7-0.2 1.4 1.9 1.7 1.7 3.1-0.2 1.4-0.7 1.4-0.9 2.8-0.2 1.4 0.1 1.5-0.1 2.9s10.9 2.8 10.7 4.2c-0.2 1.4-1.4 1.3-1.6 2.7-0.2 1.4 1.3 1.6 1.1 3-0.2 1.4-13.6-0.2-13.7 1.2-0.2 1.4 6.5 2.2 6.3 3.7-0.2 1.4-4.5 0.9-4.7 2.3-0.2 1.4 7.1 2.3 7 3.7-0.2 1.4-6.4 0.7-6.6 2.1-0.2 1.4 2.9 1.8 2.7 3.2-0.2 1.4-2.5 1.1-2.6 2.6-0.2 1.4-3.8 1-4 2.4-0.2 1.4 4.7 2 4.6 3.5-0.2 1.4-4.8 0.9-5 2.3-0.2 1.4 0.4 1.5 0.2 2.9s-0.6 1.4-0.8 2.8c-0.2 1.4 4 1.9 3.9 3.4-0.2 1.4-2.5 1.1-2.7 2.6-0.2 1.4-3 1.1-3.2 2.5-0.2 1.4-1.9 1.2-2.1 2.6-0.2 1.4 5.7 2.1 5.5 3.6-0.2 1.4 4.3 2 4.1 3.4-0.2 1.4-4.6 0.9-4.8 2.3-0.2 1.4 7 2.3 6.8 3.7-0.2 1.4-10 0.2-10.2 1.7-0.2 1.4 1.1 1.6 0.9 3-0.2 1.4-3.2 1.1-3.4 2.5-0.2 1.4-1.5 1.3-1.7 2.7-0.2 1.4 8.9 2.5 8.7 4-0.2 1.4-0.8 1.4-0.9 2.8-0.2 1.4-3.6 1-3.7 2.4-0.2 1.4 6.8 2.3 6.7 3.7-0.2 1.4-4.4 0.9-4.6 2.3-0.2 1.4-0.1 1.4-0.3 2.9-0.2 1.4 6.4 2.2 6.2 3.7-0.2 1.4-12.4-0.1-12.5 1.4-0.1 1.1 3.8 2.5 3.5 3.5-0.3 1.1-6-0.1-6.4 0.9-0.4 1-2.1 5.2-2.6 6.2 0.7 0.7 4.1 5.2 4.8 5.9 0.7 0.7 1 1.7 1.6 2.4 0.6 0.7 4.4-1.5 5.1-0.7 0.6 0.7 0.5 2.1 1.1 2.9 0.6 0.7-0.9 3.3-0.3 4 0.6 0.7 8.7-5 9.3-4.2 0.6 0.7-5 6.7-4.4 7.5 0.6 0.7 9.2-5.1 9.8-4.4 0.6 0.7-7.9 8.9-7.3 9.7 0.6 0.7 3.9-0.7 4.5 0 0.6 0.8 2.3 0.6 2.9 1.3 0.6 0.8 5.5-1.8 6-1 0.6 0.8 1.7 1.2 2.3 1.9 0.6 0.8-3.9 5.4-3.4 6.2 0.6 0.8 1.4 1.3 2 2.1 0.6 0.8 7.7-3.2 8.3-2.4 0.6 0.8-3.5 4.9-2.9 5.7 0.6 0.8-1.4 3.3-0.9 4.1 0.6 0.8 1.6 1.2 2.2 2 0.5 0.8 4.3-0.6 4.9 0.2 0.5 0.8-7.2 7.1-6.7 7.9 0.5 0.8 13-6.2 13.5-5.4 0.5 0.8-8.1 7.5-7.6 8.3 0.5 0.8 6.7-2 7.2-1.2s-4.2 4.9-3.7 5.7c0.5 0.8-2.4 3.7-1.9 4.5 0.5 0.8 2.8 0.5 3.3 1.3s-1.4 3-0.9 3.8c0.5 0.8 8.7-2.8 9.1-2 0.5 0.8 7.5-2 8-1.2s-9.7 7.6-9.3 8.4c0.5 0.8-0.4 2.4 0 3.2 0.5 0.8 6.4-1.3 6.9-0.4 0.4 0.9-6.3 5.4-5.8 6.3 0.4 0.9 8.5-2.2 8.9-1.3 0.4 0.9 1.5 1.4 2 2.3 0.4 0.9-3.1 3.6-2.6 4.5 0.4 0.9-2.7 3.4-2.3 4.3 0.4 0.9 10-2.6 10.4-1.7 0.4 0.9 4.1 0.3 4.5 1.2 0.4 0.9-13.2 8-12.8 8.9 0.4 0.9 6.3-0.7 6.7 0.2 0.4 0.9-4.4 3.9-4 4.8 0.4 0.9 4.3 0.2 4.7 1.1 0.4 0.9 1 1.6 1.4 2.5 0.4 0.9 8.2-1.2 8.6-0.3 0.3 0.9 3.3 0.9 3.6 1.8 0.3 0.9-4.1 3.7-3.8 4.6 0.3 0.9-3.8 3.5-3.5 4.4 0.3 0.9 5.3 0.2 5.6 1.1 0.3 0.9 1.3 1.6 1.6 2.5 0.3 0.9-7.4 4.5-7.1 5.4 0.3 0.9 10.9-1.5 11.2-0.6 0.3 0.9-11.6 5.7-11.3 6.6 0.3 0.9 2.1 1.3 2.4 2.2 0.3 0.9-2.3 2.6-2.1 3.6 0.3 0.9 6.3 0.2 6.5 1.1 0.3 0.9 6.2 0.3 6.4 1.2 0.3 0.9 4.6 0.8 4.8 1.8 0.2 0.9-9.9 4.5-9.7 5.5 0.2 0.9 4.1 1 4.3 1.9 0.2 0.9-4.6 3.1-4.4 4 0.2 0.9-1.4 2.2-1.2 3.2 0.2 0.9 12.3-0.7 12.5 0.2 0.2 0.9 0.3 2 0.5 2.9 0.2 0.9-8 3.6-7.8 4.5 0.2 0.9-3.7 2.6-3.6 3.6 0.2 0.9 0.6 1.8 0.8 2.7 0.2 0.9 3.1 1.4 3.3 2.3 0.2 0.9 3.1 1.4 3.3 2.4 0.1 1-4 2.5-3.9 3.5 0.1 1 2.6 1.5 2.8 2.5 0.1 1-3.3 2.3-3.2 3.3 0.1 1-1 2-0.9 3 0.1 1-0.2 1.9-0.1 2.8 0.1 1 1.9 1.7 2 2.6 0.1 1 14.1 0.6 14.2 1.5 0.1 1-3.5 2.3-3.4 3.2 0.1 1-8 2.5-7.9 3.5 0.1 1-2 2-2 3 0.1 1-1.8 2-1.7 2.9 0.1 1 0.6 1.8 0.7 2.8 0 1 1 1.8 1 2.8 0 1 14.4 1.5 14.4 2.4 0 1 0.5 2 0.5 2.9 0 1-0.4 2-0.4 3-0.1-0.1-6.7 0.9-6.7 1.9z" fill="#FEE2BD" p-id="126917"></path><path d="M537.6 930.6c-3 0-5.2-1.2-6.8-2.6-0.7 0.1-1.3 0.2-1.6 0.2-3.2 0.1-5.6-1.1-7.3-2.7-2.5 3-5.9 3.4-7.5 3.4h-0.1c-3.6 0-6-1.5-7.6-3.4-1.5 1.2-3.9 2.5-7.2 2.5-1.4 0-2.7-0.3-3.7-0.8-2.2 1.1-4.2 1.2-5.2 1.2-0.9 0-2.9-0.3-4.9-1.5-2.6 2.2-5.5 2.3-7.1 2.2-0.8-0.1-2.6-0.3-4.3-1.3-0.6 0.1-1.2 0-1.6 0-3.1-0.2-5.3-1.7-6.7-3-2-0.4-3.6-1.2-4.8-2.2-1.7 1.7-4.8 4.1-9.3 3.5-0.3 0-0.5 0-0.8-0.1-0.6 0-1.3-0.1-2.2-0.2-2.6-0.3-4.5-1.4-5.9-2.8-0.8 0.1-1.7 0.1-2.7 0-1.9-0.3-3.3-0.9-4.5-1.7-0.4 0-0.8-0.1-1.2-0.1-0.2 0-0.4-0.1-0.6-0.1-3 3.2-6.6 3.3-8.9 2.9-1.9-0.3-5.7-1.6-7.6-6-0.5-0.2-1.1-0.5-1.6-0.9-2.1 0.5-3.8 0.3-4.7 0.1-1.3-0.3-2.3-0.7-3.2-1.2-2.1 1.9-5.2 3.3-9.2 2.4-1.8-0.4-5.5-1.8-7.1-6.2l-0.6-0.3c-3.5 3.5-7.4 3.3-9.8 2.6-1.5-0.4-4-1.5-5.8-4.1-2.4 0.6-4.5 0.2-5.5-0.1-2.4-0.7-4.1-2-5.2-3.6-1.2 0-2.2-0.3-2.9-0.5-2-0.6-6.2-2.7-7-8.5-0.1 0-0.2 0-0.3 0.1-1.8 0.9-5.2 2-9 0.6-1.6-0.6-2.8-1.4-3.7-2.3-1.2 0.1-2.5 0-4-0.4-2 0.8-4.4 0.9-7.1-0.2-2.8-1.1-4.4-3-5.4-4.7-2.3 1.2-5.2 1.9-8.6 0.5h-0.2c-0.7-0.2-1.8-0.5-3.1-1-5.8-2.6-6.3-8.4-6.4-11-0.5-0.2-0.9-0.3-1.4-0.6-0.8-0.4-1.5-0.8-2-1.1l-0.6-0.3c-0.4-0.2-0.9-0.5-1.2-0.7-0.1 0-0.2 0.1-0.4 0.1-2.1 1.5-6.8 4.3-12.2 1.5-0.8-0.4-1.9-1.1-2.9-2.3-0.9-0.2-1.7-0.6-2.2-0.9-1.1-0.6-3.7-2.3-4.8-5.7-1.1-0.8-2.6-2.1-3.6-4.3-4.5 2.4-8.3 0.8-10-0.2-3.4-2.1-4.6-5.2-5.1-7.1-0.4-0.6-0.6-1.4-0.9-2.2-2.3 0.8-4.4 0.7-6.1 0.1-1.4-0.1-3.6-0.5-5.8-1.9-1.2-0.8-2.6-2.1-3.6-4-0.8-0.3-2.1-0.8-3.5-1.7-3.6-2.5-4.4-6.1-4.5-8.9-0.6-0.2-1.3-0.5-1.9-1-2.2 0.3-4.7-0.2-7.2-2-1.9-1.4-2.9-3.1-3.5-4.2-2.4-2.9-2.5-6.3-2.3-8.6-1-0.9-1.7-1.8-2.1-2.3-1.4-0.2-2.8-0.8-4.2-1.8-3.4 0-5.7-1.7-6.6-2.5-1-0.9-1.8-1.9-2.3-2.9-1.2-0.2-2.5-0.7-3.7-1.6-2.5 0.2-5.1-0.4-7.7-2.7-1.1-1-1.8-2.1-2.3-3.2-0.6-0.4-1.1-0.8-1.7-1.3-0.5-0.4-1.2-1.3-1.9-2.5-1.1-0.6-2-1.3-2.4-1.8-1.5-1.5-2.3-3.1-2.7-4.7-1.1-0.5-2.1-1.2-3.1-2.2-2.4-2.5-3-5.1-2.8-7.5-2.1 0-4.3-0.6-6.3-2.4-2.4-0.1-5.1-1-7.3-3.5-1.5-1.7-2.1-3.5-2.5-4.5-0.4-0.8-0.9-1.8-1.1-3.1-2.2-0.3-4.5-1.3-6.5-3.7-1.7-2.1-3.6-6-0.9-11.1-0.9-0.7-1.5-1.5-1.9-1.9-5.6 0.6-8.6-2.9-9.5-4.2-1.5-2.1-1.9-4.2-1.9-6.1-1.7-0.7-3.4-1.9-4.8-3.9-1.5-2.3-1.9-4.6-1.7-6.6-1.3-0.6-2.3-1.5-3.1-2.2-0.9-0.7-2.4-1.9-3.6-3.8-1.3-2.2-2.7-6.1 0.1-10.5-0.7-0.7-1.3-1.4-1.8-2.4-0.4-0.7-1-2.1-1.2-3.9-4.1-0.8-6.2-3.7-7-5.3-0.3-0.6-0.7-1.5-0.9-2.5-1.8-0.9-3.5-2.3-4.7-4.8-0.8-1.6-1.8-4.8-0.1-8.6v-0.1c-0.2-0.4-0.3-0.7-0.5-1.1-0.3-0.7-0.5-1.3-0.7-2-0.9-0.9-1.6-1.9-2.2-3.3-0.4-0.9-1.1-3.1-0.7-5.7-1.6-1-3.3-2.6-4.3-5.3-0.2-0.4-0.3-0.9-0.5-1.6-3.3-1.3-4.9-3.9-5.6-5.9-0.9-2.5-1.5-6.8 2.6-10.8-0.5-1.5-0.6-2.9-0.4-4.2-1.2-0.6-2.2-1.4-3-2.1-1.5-1-4-3-5-6.6-0.6-2.1-0.5-4 0-5.6-0.6-0.9-1.2-2.1-1.5-3.4-1.4-5.6 2-9.4 4-11.2 0.7-1.3 1.5-2.3 2.1-3 0.4-0.8 0.9-1.5 1.4-2.1 0-0.2-0.1-0.4-0.1-0.6-0.5-0.2-1-0.5-1.5-0.7-2.6-0.5-9.4-2-10.5-9.1-0.2-1-0.2-1.9-0.1-2.8-2-1.9-2.7-4.2-2.9-5.9-0.7-5.2 2.1-8.4 5.1-10.3v-0.3c-0.9-1.2-1.5-2.8-1.7-4.7-1.3-1.4-2.2-3.4-2.4-5.9-0.1-1.1 0-2.1 0.2-3.1-0.3-0.9-0.5-1.8-0.5-2.9-0.1-1.7 0.2-3.1 0.3-3.9 0-0.8 0.2-1.8 0.5-2.9-0.7-1.2-1.3-2.6-1.4-4.4-1.3-1.6-2.5-3.8-2.5-6.8 0-0.7 0.1-1.4 0.2-2.1-1.5-1.7-2.7-4-2.6-7.1 0.1-2.5 1-6.3 5.4-8.6-1.1-1.6-1.9-3.7-1.7-6.4 0.1-1.5 0.8-5.8 5.4-8.2-0.2-1-0.3-2.1-0.1-3.4 0-0.3 0.1-0.6 0.2-1-3-3-3-6.6-2.8-8.4 0.5-3.3 2.1-5.4 4.1-6.8 0-0.5 0.1-1.1 0.2-1.7 0.2-0.9 0.4-1.8 0.7-2.5-5-3.8-4.4-8.8-4.1-10.4 0.1-0.3 0.1-0.6 0.2-1 0.1-0.7 0.2-1.4 0.4-2 1-4.6 4-6.7 7.1-7.7-0.7-1.7-1-3.9-0.3-6.3 0.1-0.6 0.4-1.3 0.8-2.1-1.5-3.2-1-6.1-0.6-7.3l0.3-0.9c-0.6-2.4-0.1-4.5 0.2-5.4 0.7-2.3 2-3.9 2.9-4.8 0.9-1.5 2-2.6 3.3-3.4 0.1-0.8 0.3-1.6 0.5-2.4 1-2.9 2.9-4.6 4.8-5.7-0.2-1.5-0.1-3.3 0.7-5.2l0.3-0.6c-2.6-4.2-1.4-8.1-0.8-9.4 1-2.3 3.2-5.6 8.3-6.1-1.4-2.4-2.9-6.2-0.8-10.6 1.3-2.7 3.3-4.2 5.3-5-0.1-2.3 0.6-4.2 1.2-5.3 2.6-4.9 7.1-5.6 10.6-5.4 0.1-0.2 0.3-0.4 0.4-0.6-2.5-3-5.3-7.8-1.9-13.3 0.9-1.5 2.5-3.4 5.1-4.3 0.3-0.8 0.7-1.7 1.2-2.5 1-1.6 5.1-6.7 13.4-3.8 0.1 0 0.2 0.1 0.3 0.1 0.1-0.1 0.2-0.2 0.3-0.4-0.2-2.1 0.1-4.3 1.7-6.6 0-0.1 0.1-0.1 0.1-0.2-1.5-3.1-1.2-5.8-0.5-7.8 0.2-1.4 0.7-3.7 2.3-5.9 1.2-1.6 2.7-2.6 4.1-3.3-0.1-2.3 0.6-6.2 4.8-9l-0.1-0.1c-4.3-0.3-10.1-1.9-11.3-8.9-0.2-1.2-0.3-3.2 0.4-5.3-0.1-0.2-0.1-0.5-0.1-0.7-0.3-1.5-0.3-3.3 0.3-5.1-0.9-1.5-1.2-2.8-1.4-3.6-0.1-0.4-0.1-0.9-0.1-1.5-1.1-1.6-1.5-3.3-1.7-4.1-0.6-3.4 0.1-8.2 6.2-11.7-0.3-0.5-0.6-1.1-0.8-1.7-4.1-2.3-5-6.2-5.2-7.3-0.1-0.7-0.2-1.4-0.2-2.1-2.7-2.3-3.4-5.3-3.5-6.1-0.2-1.2-0.3-2.9 0.2-4.7-0.8-1.3-1.3-2.7-1.5-4-0.1-0.6-0.2-1-0.2-1.3v-0.1c-0.2-0.4-0.4-0.7-0.6-1.2-1.4-1.6-2.3-3.5-2.7-5.7-0.2-1.2-0.3-2.3-0.2-3.1-0.3-0.7-0.5-1.6-0.7-2.6-0.2-1-0.2-1.7-0.3-2.3 0-0.2 0-0.3-0.1-0.6-0.4-2.3-0.1-4.2 0.3-5.6 0.1-1.1 0.4-2.5 1.1-3.8-0.5-1-0.7-1.9-0.8-2.5-0.4-2.3-0.2-5.2 1.8-7.9-2.5-1.8-3.5-4.3-3.9-6.5 0-0.2-0.1-0.3-0.1-0.5l-0.1-0.1c-3.2-2.2-4.4-5.1-4.8-7.4-0.5-3 0.1-5.4 1.4-7.3-0.6-1.3-1-2.9-0.9-4.8 0-0.7 0.2-2.1 0.7-3.5-0.8-2.4-0.5-4.6-0.2-5.6 0.3-1.3 0.9-3.2 1.3-4.4 1.1-3 2.9-4.7 4.9-5.6 0-1.9 0.6-4 2.2-6 0.4-0.5 1.1-1.3 2.1-2 0.6-2.7 2.2-4.5 3.3-5.4 5.2-4.4 10.5-2.1 14 0.3 0.1 0 0.2 0 0.2-0.1 0.3-0.4 0.6-0.9 1-1.4 0.8-3.1 2.8-9.5 10-10.1 2.1-0.2 3.7-0.3 4.7-0.3 1.5 0 5.7 0.5 8.4 4.7 3.2-1.4 6.1-0.9 7.8-0.3 3.1 1 4.9 2.9 5.9 5 0.6 0.1 1.1 0.3 1.4 0.3 1.1 0.4 2.3 1 3.4 1.9 1.8-0.3 3.5 0 4.9 0.5 2.5 0.8 5.4 2.7 6.7 6.7 1.1 0 2.1 0.3 3 0.6 1.4 0.5 2.6 1.2 3.7 2.1 4.2-4.4 8.5-4.3 11.1-3.6 1 0.1 2.1 0.2 3.6 0.7 6.4 2.1 7.3 7.8 7.1 12l0.2 0.2c0.1 0 0.2 0.1 0.4 0.1h0.1c0.4-0.1 0.8-0.2 1.2-0.2 4.5-6.2 9.5-6.2 13-5 1 0.3 2.1 0.9 3.1 1.6 2-0.3 3.8 0 5.3 0.5 1.3 0.4 4.7 1.9 6.2 5.8 2.5-0.9 5-0.8 7-0.1 1.6 0.5 6.3 2.7 7 8.9 3.6-2.2 7.2-1.4 8.5-0.9 1.9 0.6 3.2 1.5 4.2 2.3 1.8 1 3.8 2.6 5 5.4 0.3 0.3 0.6 0.7 0.8 1.1 1.4-0.1 3.1-0.1 5 0.6 0.3 0.1 0.5 0.2 0.8 0.3 1.8-0.3 3.5 0 5 0.5 1.8 0.6 3.1 1.4 4 2.2 0.2 0.1 0.4 0.2 0.7 0.4 3.3-1.2 6.2-0.4 7.6 0.3 1.5-2.2 3.5-3.3 4.8-3.8 2.7-1.1 5.2-0.8 6.7-0.5 1.8-0.1 3.9 0.4 6 1.9 0.1 0 0.2-0.1 0.3-0.1 2-0.7 3.8-0.8 5.4-0.5 0.9-0.7 1.9-1.3 3.2-1.7l0.9-0.3c1-1.1 2.4-2.1 4.3-2.7 2-0.7 3.7-0.7 5.2-0.4 0.6-6.4 5.1-8.5 7.2-9.2 1.8-0.5 3.3-0.6 4.2-0.5 1-0.2 1.9-0.2 2.8-0.1 1.1-1.1 2.5-1.9 4.4-2.5 1.9-0.5 3.6-0.4 5.1-0.1 1.4-1.1 2.9-1.5 3.6-1.7 1.4-0.3 2.7-0.4 3.8-0.3 1.1-1.1 2.7-1.9 4.7-2.4 3-0.7 5.4-0.2 7.3 1 0.6-0.2 1.2-0.4 1.9-0.6 3-0.6 5.3 0 7.2 1.1 1.8-3.4 4.8-4.6 6.6-5 1.3-1.5 3.2-2.7 5.9-3.2 2.2-0.4 5.6-0.3 8.6 2.6 0.3-0.1 0.5-0.1 0.8-0.2 4.7-0.7 7.8 1.6 9.7 4 0.8-0.3 1.6-0.5 2.5-0.6 0.6-0.1 1.3-0.1 1.9-0.1 1-3 3-6.5 7.4-7.7 1-0.5 2.5-1.2 4.6-1.3 0.8-0.1 2.1-0.1 3.5 0.2 1.3-1 3.1-1.8 5.3-1.9 1.5-0.1 4.4 0 7 2 1.9 0 4.9 0.6 7.3 3.4 1.2 0.1 2.1 0.4 2.8 0.7 0.5 0.1 0.9 0.1 1.4 0.3 1.4-0.8 3.2-1.6 5.4-1.6 0.8 0 1.5 0 2.2 0.1 1.5-1.2 3.7-2.3 6.6-2.4 0.7 0 1.6 0 2.6 0.3 0.9-0.3 1.8-0.4 2.5-0.5 0.8-0.2 2.1-0.4 3.7-0.5 1.9 0 3.5 0.5 4.8 1.2 1.7-0.7 3.2-0.8 4-0.7 0.5 0 1.2 0.1 2 0.2 1.5-0.6 3-0.6 3.9-0.6 0.4 0 0.7 0 1.1 0.1 2.8-3.1 6.2-3.3 8-3.2 1.5 0.1 5.9 0.7 8.5 5.5 1 0.4 2.1 0.9 3.1 1.8 1.7-1.8 4.7-4 9-3.5 1.4 0.1 4 0.7 6.1 2.8 1.5-0.7 3.3-1.1 5.6-0.8 1.1 0.1 2.9 0.5 4.6 1.7 1.8-1.2 4.3-2.1 7.3-1.7 1.6 0.2 6.2 1.4 8.2 6.8 2.9 0.6 4.9 2.1 6.2 3.8 0.1-0.2 0.2-0.3 0.2-0.5 3.8-7.5 10-6.9 11.9-6.5 3.1 0.6 5.1 2.2 6.4 4.1 1.9-0.5 3.6-0.3 4.9 0 3.3 0.7 5.3 2.8 6.6 4.5 1.9-1 4.6-1.8 7.8-1 0.1 0 0.2 0 0.3 0.1 2.2-0.8 4.4-0.5 5.9-0.1 5 1.4 6.8 5.1 7.4 8.5 1.2 0.8 2.1 1.8 2.7 2.7h0.2c1.4-0.6 3.5-1.3 6.1-1 1.1-0.1 2.9-0.2 4.8 0.4 1.6-0.4 3.9-0.7 6.5 0.2 0.7 0.2 1.7 0.7 2.7 1.4 2.9-1.2 5.8-0.9 7.5-0.6 0.6-0.1 1.2-0.1 1.7 0 0.8-0.9 1.9-1.6 3.1-2.2l0.6-0.3c1-1.4 2.3-2.5 4-3.4 1.4-0.7 3.8-1.5 6.7-1 0.3-0.4 0.6-0.8 1-1.2 0.3-0.5 0.6-1 0.9-1.4 1.2-3.6 3.6-5.5 5.6-6.5 1.2-0.6 2.5-1 3.7-1.1 1-3.8 3.8-5.7 5.3-6.5 1.2-0.6 4.3-1.8 7.9-0.5 0.9-1 1.9-1.7 2.9-2.3 1.1-2.3 2.9-3.9 4.8-4.8 1.4-0.7 4.1-1.6 7.2-0.7 1.2-0.5 2.7-0.7 4.2-0.6 1.2-1.2 2.4-1.9 2.9-2.2 0.6-0.3 2.2-1 4.3-1 1.3-3.7 4.3-5.4 5.2-5.9 1.9-1 4.8-1.7 8.4-0.7h0.2c0.4-0.9 1-1.7 1.6-2.3 0.9-1.8 2.2-3.2 3.9-4.2 0.8-0.8 1.9-1.7 3.5-2.5 1-0.5 2.3-1 3.9-1.1 1.3-1.7 2.9-2.7 3.7-3.1 0.8-0.4 2.6-1.1 4.7-1.1 1.2-1.3 2.5-2.1 3.2-2.4 2-1 4-1.4 6-1.1 1.1-1.9 2.7-3.2 4.3-4 1.3-0.6 4.7-1.9 8.6-0.2 0.3-0.2 0.5-0.3 0.7-0.4 0.5-0.3 2-0.9 4-1 0.4-0.3 0.7-0.5 1-0.6 1.2-5.2 5.2-6.9 7.2-7.4 2.2-0.6 7.1-1.1 10.9 4 0.1 0 0.2 0 0.3-0.1 1.4-0.6 3.9-1.5 6.9-1 1.5 0.2 5.6 1.3 7.6 5.8 2-0.4 3.6-0.2 4.9 0.2 1.7 0.1 4.4 0.5 6.9 2.4 1.7 1.3 2.7 3 3.3 4.4 2.2 0.5 4.5 1.6 6.3 4.2 0.8 1.2 4.5 7.3-2 14-0.3 0.4-0.7 0.7-1.1 1.1 1.8 2 2.4 4.3 2.6 6.1 0.1 0.8 0 1.6 0 2.3 0.4 1.3 0.7 3 0.5 4.9 0 0.4-0.1 0.8-0.2 1.1 2 2.5 2.5 5.4 2.2 7.8-0.1 1-0.4 2.2-1 3.5 1.9 1.9 3.1 4.5 2.7 8.3 0 0.1 0 0.2-0.1 0.4 0.9 2.1 0.9 4.1 0.8 5.5-0.3 2.8-1.6 5.2-3.6 7.1l-0.6 0.9c4.4 3.5 4.1 8.3 3.9 9.4-0.1 0.8-0.3 1.6-0.5 2.3 0.2 1.1 0.2 2.2 0.1 3.4-0.2 1.5-1.1 5.4-5.2 7.7 0.2 1 0.2 2.1 0.1 3.2-0.4 3.2-1.8 5.6-4.3 7.3-0.3 1.1-0.9 2.2-1.7 3.3 0.2 1.1 0.2 2.2 0 3.2-0.2 1.8-0.9 4-2.5 5.8 1 2.1 1 4.2 0.8 5.6-0.2 1.6-0.7 3.5-2.1 5.3 3 2.6 3.8 5.7 3.8 8 1.6 2.1 2.3 4.6 1.9 7.5-0.1 1.1-1 6-6.3 8.3 0.7 1.5 1 3.3 0.7 5.5 0 0.4-0.1 0.8-0.2 1.2 1.8 2.1 2.6 4.7 2.2 7.8-0.1 0.5-0.2 1.1-0.3 1.7 1.4 2 2 4.4 1.7 7.1-0.2 2-1.7 8.4-10.6 9.3-0.1 0.2-0.3 0.4-0.4 0.6 0.6 0.4 1.1 0.8 1.7 1.4 5.6-1.4 9.1 1.5 10.4 2.9 3.1 0.6 5 2.6 5.7 3.5 1 1.2 2.6 3.7 2.3 7 1.1 0.5 2.2 1.1 3.2 2.2 0.8 0.6 2.1 1.5 3.3 3 0.5 0.7 0.9 1.4 1.2 2.1 2.1 0.5 4.1 1.6 5.8 4 2.6 3.5 2.3 7 1.2 9.8 0.2 0.2 0.4 0.3 0.6 0.5 4.6-0.1 7.2 2.6 8.5 4.6 1 1.6 2.7 5.2 0.8 9.6 0.7 2 0.6 3.9 0.2 5.6 3.9-0.8 9.7-1.1 13 4.8 1.1 2 3 7-1.8 12.3 0.1 0.3 0.2 0.6 0.3 1 0.6 0.5 1.1 1.1 1.6 1.8 0.8 0.7 2 2 2.9 3.8 0.4 0.8 0.6 1.5 0.8 2.2 2.6 0.3 7.2 1.4 9.4 6.3 1.1 2.5 2.1 7-2.3 11.6 1.2 0.3 2.2 0.8 3 1.3 2.1 0.6 6 2.3 7.7 6.7 1.6 4.1 0.2 7.5-1.5 9.9 0.4 0.6 0.8 1.3 1.2 2.2 2.9 1.6 4 4.2 4.5 5.7 0.6 1.8 1.2 5.5-1.6 9.2 2.8 0.7 7.1 2.5 8.5 7.8 0.4 1.4 1 5.5-2.2 9.2 2.6 1.9 3.5 4.5 3.8 6 0.2 0.8 0.3 1.5 0.4 2.1 0 0.3 0.1 0.6 0.1 0.9 1.2 5.9-2.3 9.4-5.8 11.4 0.9 1.2 1.5 2.7 1.8 4.5 0.4 2.6-0.1 4.7-1 6.4 0.2 1.4 0 2.7-0.3 3.8 0.3 0 0.7 0 1 0.1 9.2 0.8 11 6.3 11.3 9.6 0.5 5.7-3.4 9-5.5 10.4-0.4 0.5-0.8 0.9-1.3 1.3 6.1 1.9 7.5 6.1 7.8 9v0.1c0.2 0.8 0.5 2 0.5 3.6s-0.2 2.9-0.4 3.7c-0.2 3.6-1.9 5.9-4 7.5 0.4 1.1 0.7 2.4 0.6 3.9-0.1 2.1-0.8 6.7-6.3 9.1 0.1 0.8 0.2 1.6 0.1 2.6-0.1 1.9-0.7 3.4-1.4 4.7 2.2 1.5 6.2 4.8 5.5 10.6-0.1 1.4-0.9 5-4.5 7.3 6.7 3.4 6.6 8.9 6.3 11.2-0.4 2.3-1.3 3.9-2.4 5.2 0 0.2-0.1 0.4-0.1 0.5-0.4 2.2-2 6.9-8.5 8.2 0 0.7-0.1 1.5-0.3 2.2-0.1 0.4-0.2 0.7-0.2 1.1-0.1 0.6-0.3 1.2-0.4 1.8-0.4 1.8-1.2 3.3-2.2 4.4 0 0.2 0 0.3 0.1 0.5 2.2 2.1 4.8 5.8 3.3 10.9-0.4 1.5-2 5.5-6.9 7 0 0.1-0.1 0.2-0.1 0.3-0.2 0.7-0.5 1.3-0.7 1.8 0.7 1.9 1.2 4.5 0.2 7.4 0 0.1 0 0.1-0.1 0.2 3.4 4.2 2.2 8.6 1.7 10-1.7 4.7-5.4 6.2-8.8 6.6-0.1 0.8-0.3 1.7-0.7 2.6-0.9 2.2-2.3 3.7-3.7 4.7 0 0.1 0 0.3-0.1 0.4 1 1.5 1.7 3.3 1.8 5.3 0.5 1.8 1.1 4.9-0.5 8.3-1 2.1-3.1 4.9-7.4 5.6-0.1 0.2-0.2 0.5-0.3 0.7-0.1 0.2-0.2 0.4-0.4 0.7 2 3.8 1 7.2-0.1 9.2-0.6 1-1.6 2.6-3.5 3.8-0.2 1.7-0.8 3.1-1.3 3.9-1.5 2.6-3.5 4-5.6 4.7v0.6c0.3 1.8 0.5 5-1.5 8.1-3 4.8-7.5 5.2-11.3 4.5-0.2 0.1-0.3 0.2-0.5 0.3 0.9 3.7-0.6 6.6-1.6 8-0.5 0.7-1 1.3-1.6 1.9 0.2 2.1-0.3 4.3-2 6.6-1.9 2.5-4.2 3.6-5.8 4.1-0.9 0.6-2 1.1-3.4 1.3 1.1 4.3-0.8 7.4-2 8.8-1.6 2-3.4 3-5.2 3.5-1.3 1.6-2.8 2.5-4.2 3-0.4 1.1-1 2.3-2 3.4-1.1 1.3-3.7 3.6-7.7 3.5l-0.1 0.1c0 0.4 0 0.8-0.1 1.2 0.4 2.2 0.6 6-2.2 9.3-0.4 0.7-1.1 1.9-2.3 3.1-1.5 1.6-3.2 2.4-4.8 2.8-0.1 0.2-0.3 0.3-0.4 0.5-1.3 1.3-4.2 3.5-8.5 2.9-0.3 2-1.1 4.4-3.3 6.4-0.9 0.9-3.6 2.9-7.5 2.7-0.2 4-2.6 6.5-3.5 7.3-0.8 0.7-2.7 2-5.4 2.4-0.6 2.8-2.4 4.6-3.5 5.5-0.8 0.6-1.5 1.1-2.1 1.5-0.1 0.1-0.3 0.2-0.4 0.3-0.1 0.1-0.2 0.1-0.3 0.2-0.8 2.3-2.4 3.9-3.4 4.6-2.8 2.2-5.5 2.5-8 2-0.4 0.7-1 1.4-1.7 2.1-0.6 0.9-1.6 2.3-3.3 3.5-4.6 3.3-9 1.8-12 0-0.1 0.1-0.2 0.1-0.3 0.2 2.3 7.3-1.4 11.2-3.3 12.6-0.7 1.9-1.9 4-4.4 5.5-2.6 1.6-5.1 1.8-6.7 1.7-1.3 0.3-2.9 0.3-4.6-0.2-2.3 1-4.4 1-6.3 0.5-0.8 1.2-1.9 2.3-3.5 3.2-1.1 0.6-2.1 1-2.8 1.2-0.1 0-0.1 0.1-0.2 0.1-0.8 0.4-1.6 0.7-2.3 0.9-0.4 0.9-1 1.8-1.8 2.6-0.8 1.3-2.2 3.2-4.7 4.5-1 0.5-3.6 1.6-6.8 0.9-0.6 0.5-1.3 0.9-2 1.3-0.1 0.1-0.3 0.1-0.4 0.2-0.7 1.1-1.5 1.9-2.2 2.5-0.8 4.6-4 6.7-5.7 7.4-3.3 1.5-6.3 1-8.1 0.5h-0.5c-1.2 2.9-3.6 4.4-5.3 5.2-1.9 0.8-3.7 1-4.8 1-1.1 0.3-2.1 0.3-3 0.3-0.4 0.2-0.7 0.3-1.2 0.5-1.1 0.4-2.1 0.7-3.1 0.7-0.7 0.5-1.5 1-2.5 1.3-0.9 0.3-1.7 0.5-2.6 0.6-0.8 1.1-1.8 2.3-3.3 3.2-0.9 0.8-2.3 2-4.4 2.8-3.2 1.2-6 0.6-8.1-0.5-0.4 0.2-0.8 0.4-1.3 0.5-0.6 0.2-1.1 0.4-1.7 0.6-0.4 0.1-0.7 0.2-1.1 0.4-1.2 0.4-4.4 1.2-7.9-0.6-3.3 0.6-6-0.5-8-2-0.1 0-0.2 0.1-0.4 0.1-0.9 2.9-2.8 5.9-7.1 7.1-0.2 0-0.3 0.1-0.5 0.2-1 2.7-3 5.3-7 6.3-0.9 0.2-2.9 0.6-5.2-0.1-1.2 1.6-3.2 3.3-6.2 4-2.5 0.6-4.6 0.2-6.4-0.6-0.8 0.4-1.7 0.7-2.7 0.9-0.9 0.2-1.8 0.3-2.6 0.2-0.8 0.4-1.6 0.8-2.6 1h-0.1c-0.7 0.3-1.9 0.8-3.4 1.1-4.5 0.8-7.5-1-9.6-3.4-0.9 0.4-1.8 0.7-2.9 0.9-0.6 0.1-1.1 0.1-1.6 0.1-1.1 0.7-2.5 1.3-4.1 1.5-0.5 0.1-1 0.1-1.5 0.1-0.4 0.6-0.9 1.2-1.4 1.7-1.2 1.8-3.7 4.8-8.1 5.4-0.4 0-0.8 0.1-1.1 0.2-0.6 0.1-1.2 0.2-1.8 0.2-1.1 0.1-2.9 0.2-4.9-0.6-0.5 0.1-0.9 0.2-1.2 0.2-1.4 0.2-4 0.1-6.5-1.5-0.8 0.3-1.7 0.5-2.6 0.5-2 0.2-3.7-0.2-5.1-0.8-2.4 2.6-5.4 3-6.7 3.1h-1.2c-1.3 0.8-2.8 1.3-4.7 1.4h-0.2z m-82.4-7.1c0.5 0.1 1.1 0.1 1.6 0-0.7 0.1-1.2 0-1.6 0z m0 0z m7.6-1.6c0.4 0.1 0.8 0.2 1.3 0.2-0.3 0-0.8-0.1-1.3-0.2z m143.3-1.5z m-7.3-6.5z m-141.4-10.3z m0 0z m8.7-1.4h0.3-0.3z m65.4-3.1c3.2 0 5.4 1.2 7 2.9 2.4-2.4 5.3-2.9 6.5-3 2.5-0.2 4.5 0.4 6.1 1.4 1.4-1.9 3.8-4.2 7.7-4.6 1.3-0.1 3.7-0.1 6.1 1.3 0.6 0 1.3-0.1 2.1 0 1.8-4.8 5.6-6.1 8-6.5 4.5-0.6 7.6 1.6 9.3 3.2 1.3-2.2 3.5-4.5 7.3-5.1 4.7-0.8 7.9 1.4 9.9 3.8 0.6-0.3 1.3-0.5 2.1-0.6 0.8-0.2 1.6-0.2 2.3-0.2 0.9-0.5 1.9-0.9 3.1-1.2 2.7-0.6 4.8-0.1 6.6 0.8 1.1-2.4 3.1-4.5 6.7-5.4 1.2-0.3 4.2-0.8 7.3 1 0.5-2.6 2-7.6 7.7-9.3 2.7-0.8 5-0.4 6.9 0.5 1.6-0.3 3.1-0.3 4.2-0.1 0.8-0.6 1.8-1.1 3-1.5 5.2-1.7 8.7 0.6 11.2 3.5 2.5-0.6 4.7-0.2 6.2 0.3 1-2 2.7-4.2 5.8-5.4 2.6-1 5-0.8 6.9-0.2 0.9-0.3 1.8-0.4 2.6-0.5-0.1-0.5-0.3-1-0.4-1.5-2.2-9.1 2.5-12.7 5.5-13.9 3.6-1.6 6.8-0.8 9.2 0.5 0.3-0.1 0.7-0.1 1-0.1 1.2-1.7 2.8-2.6 3.8-3.1 0 0 0.1 0 0.1-0.1 1.4-2.2 3.3-3.4 4.2-3.8 1.7-0.8 3.2-1.1 4.6-1.1 0.8-0.8 1.8-1.6 3-2.2 1.1-0.6 4.3-1.9 8-0.5 0.3-0.2 0.6-0.3 0.9-0.5 1.2-0.7 2.3-1 3-1.2 0.4-2.7 1.7-5.4 5-7.3 3.1-1.8 6-1.6 8.3-0.9 0.2-0.1 0.4-0.1 0.6-0.2 0.6-0.7 1.4-1.3 2.3-1.9 2.4-1.5 4.7-1.8 6.7-1.4 0.3-2.5 1.5-5 4.5-6.9 1.2-0.8 2.5-1.3 3.6-1.5 0.5-2.2 1.6-4.7 4.3-6.5 2.4-1.7 4.8-2 6.8-1.9 0.5-3.8 3-6 4-6.8 1.7-1.3 3.4-1.8 5-2 0.7-1.1 1.5-1.8 2.2-2.3 0.5-0.4 1.3-0.9 2.4-1.4 0.8-2.4 2.3-3.9 3.2-4.7 1.8-1.5 3.7-2.2 5.5-2.3 0.4-0.3 1-0.8 1.8-1.2 0.5-1.6 1.4-3.6 3.3-5.2 1.9-1.7 4-2.4 5.5-2.7 0.2-0.1 0.3-0.2 0.4-0.2 0.8-0.6 2.1-1.4 3.8-1.8 0.2-2 1.1-4 3-5.9 0.7-0.7 1.4-1.2 1.9-1.6l0.3-0.3c1.6-1.5 5.5-4.3 11.3-1.9-0.1-2.3 0.4-4.8 2.5-7.2-1.5-5.2 1.1-8.7 2.1-9.9 1.5-1.7 5.5-5 12-2.5l0.3-0.9c-1.8-4.5-0.1-7.9 1.1-9.7 0.1-1.9 0.6-4 2.2-6 1.3-1.7 2.8-2.6 3.7-3.2 1.4-1.3 3.6-2.5 6.7-2.5 0-0.1 0-0.1 0.1-0.2-1.8-4.4 0-7.9 1-9.5 0.8-1.2 1.7-2.1 2.7-2.7 0.2-0.5 0.5-1 0.8-1.5 0.7-1 2.6-3.4 6-4.3-0.7-3.1 0.3-5.7 1.3-7.3 1.8-2.9 4.2-4.2 6.5-4.8 0.2-1.5 0.8-2.7 1.2-3.5 0.2-0.3 0.3-0.5 0.5-0.8-1.2-3.3-0.3-6.2 0.6-7.9 1.2-2.4 3-3.7 4.1-4.5 0.2-0.2 0.5-0.5 0.8-0.7 0.1-1.3 0.4-2.6 1.1-4.1 1.1-2.3 3.6-5.5 8.9-5.7-0.1-1.5 0-3.2 0.8-5 0.3-0.8 0.7-1.4 1.1-2-0.5-1.8-0.5-3.9 0.4-6.3 0.2-0.5 0.4-1 0.6-1.4l0.4-1.1c1.2-3 3.2-4.6 5.2-5.6 0.1-0.4 0.2-0.8 0.4-1.2 0.5-1.3 1-2.3 1.4-2.9l0.1-0.1c0.3-0.8 0.7-1.6 1.2-2.2-0.4-1.6-0.4-3.5 0.2-5.6 0.1-0.4 0.3-0.9 0.5-1.3-0.8-1.8-1.4-4.4-0.5-7.4 0.3-1.1 1.3-3.6 3.8-5.4-0.3-1.4-0.4-3.1 0.1-4.9 0.4-1.4 0.9-2.6 1.2-3.2 0.2-0.7 0.5-1.3 0.8-1.9-0.6-1.6-0.9-3.6-0.4-5.8 0.2-0.8 0.4-1.4 0.7-2.1-0.1-1-0.1-2.2 0.1-3.4 0.3-1.4 1.1-4 3.5-5.9-1.2-1.8-2.3-4.4-1.9-7.7 0.2-1.4 0.6-2.6 1.2-3.6-0.4-1.3-0.6-2.8-0.4-4.6 0.1-0.9 0.4-2.6 1.6-4.4-1.1-1.7-1.9-3.8-1.7-6.6 0.1-1.1 0.4-2.2 0.7-3.1-0.7-1.4-1.1-3.1-1-5.1 0.1-1.6 0.5-2.9 1-4 0-0.4-0.1-0.9 0-1.4 0.1-1.5 0.5-4.4 2.9-6.7-0.1-0.5-0.1-0.9-0.1-1.4 0-2.4 0.8-4.3 1.8-5.8-2.5-1.6-3.6-3.8-4-5.7-0.4-0.9-1-2.1-1.2-3.8-0.3-0.8-0.7-2.2-0.8-3.8-0.2-3.6 1.3-6.2 2.5-7.7 0.1-0.3 0.3-0.6 0.4-0.9-0.3-0.3-0.5-0.7-0.7-1-1.2-1.3-3-3.5-3.3-6.8-0.2-1.5 0-2.7 0-3.4-0.1-2.4 0.5-4.3 1-5.5 0.1-0.6 0.3-1.2 0.5-1.7 0-0.2-0.1-0.4-0.1-0.6-0.1-0.9-0.2-1.8-0.1-2.6-1.1-1.2-2-2.8-2.5-4.8v-0.1c-0.2-0.7-0.6-1.7-0.8-2.9-0.5-2.5 0-4.6 0.8-6.3-1.5-1.6-2.1-3.4-2.3-4.6-0.8-3.5 0.3-6.3 1.2-8 0.1-0.2 0.1-0.4 0.2-0.6 0-0.1 0-0.2-0.1-0.3-0.1-0.5-0.3-1.2-0.3-2-3-0.8-6.4-2.6-7.7-7.2-0.6-2-0.5-3.7-0.2-5.3 0-0.1-0.1-0.2-0.1-0.3-0.4-1.3-0.8-3.6 0-6.1-0.9-2.9-0.5-5.3 0.5-7.3-0.2-0.4-0.4-0.8-0.5-1.2-0.7-1.8-0.8-3.5-0.5-5-1-0.6-1.9-1.3-2.7-2.3-2.6-0.6-5.9-2.2-7.5-6.2-0.2-0.6-0.4-1.2-0.6-1.7-0.8-0.8-1.5-1.8-2.1-3.1-0.6-1.5-1.2-3.6-0.7-6-0.7-0.8-1.1-1.6-1.3-2.1-0.8-1.7-1.1-3.3-1-4.7-1.8-0.8-3.5-2.2-4.8-4.6-1.1-2.2-1.4-4.1-1.1-5.9-0.6-1.1-0.9-2.2-1-3.2-3.9-0.9-5.9-3.7-6.6-4.8-0.7-1.2-1.1-2.4-1.3-3.5-0.4-0.4-0.7-0.9-1.1-1.5-1.6-2.6-1.7-5.2-1.3-7.3-3.1-0.7-5-2.7-6-4.3-0.9-1.3-3-5.4-0.5-10.3-0.9-1.4-1.3-2.9-1.5-4.2-0.8-0.5-1.5-1.2-2.3-2.1l-0.1-0.1c-0.5-0.5-1.3-1.3-2.1-2.3-1.1-1.4-1.7-2.9-1.9-4.2h-0.1c-2.6 0.3-7 0.2-10.2-3.8-0.8-0.9-1.9-2.6-2.2-4.9-0.1-0.1-0.1-0.2-0.2-0.2-2.6-0.7-4.2-2.3-4.8-3.1-0.9-1.1-1.6-2.2-2-3.3-1.3-0.5-2.6-1.4-3.8-2.7-1-1.1-1.6-2.2-2-2.8-0.5-0.6-1.1-1.4-2.3-2.9-0.7-0.9-1.7-2.1-2.1-2.5l-4.7-5 3.2-6.2c0.3-0.7 1.8-4.3 2.1-5.1 0.7-1.8 1.6-3.2 2.8-4.2 0.6-1.9 2-4.4 5.1-6-0.9-1.7-1.2-3.6-1-5.8-2.6-1.9-4.6-4.9-4-9.5 0.3-2.4 1.2-4.4 2.8-6.2 0.4-0.7 0.8-1.4 1.4-2.2 0.1-0.9 0.6-3.1 2.3-5.1-3.5-3-4.1-6.5-3.7-9.3 0.2-2 1.1-4.7 3.6-7l0.6-0.9c-0.2-1.2-0.2-2.3-0.1-3.2 0.1-1 0.3-1.9 0.6-2.6-0.1-0.9-0.1-1.9 0-3.1 0.1-0.7 0.3-1.5 0.5-2.3-0.2-1.2-0.2-2.4-0.1-3.4 0.2-1.9 1.1-4.7 3.8-7 0-0.4 0-0.9 0.1-1.2 0-0.3 0.1-0.6 0.1-0.9-0.5-1.2-0.7-2.5-0.6-4-1.4-2-1.9-4.3-1.5-7 0.2-1.3 0.9-4.5 3.8-6.8-0.5-1.8-0.5-3.3-0.4-4.1-0.1-0.9-0.1-1.8 0.1-3.1-1-2.2-1-4.2-0.8-5.8 0.1-1 0.8-4.6 4.1-7.1-1.3-1.8-2-4.1-1.7-7.1 0.1-1.2 0.5-2.7 1.4-4.2-1.7-2.4-2.2-5.1-1.9-7.4 0.2-1.7 0.9-4.2 3.1-6.3-0.2-0.3-0.3-0.6-0.4-1-0.3-0.4-0.5-0.9-0.8-1.5-0.5-0.6-1-1.5-1.4-2.6-0.8-1.9-1-3.8-0.7-5.8-2.3 1.3-4.8 1.6-7.5 0.8-1.2-0.3-2.7-0.9-4.1-2.1-0.7 0.4-1.4 0.8-2.1 1-0.6 0.2-1.5 0.5-2.6 0.6l-0.9 0.6c-1.3 2.8-3.7 4.2-4.7 4.7-2.1 1-6.1 2.2-10.8-0.6-0.4-0.1-0.9-0.2-1.3-0.4-0.3 0.2-0.7 0.4-1 0.5-0.5 0.2-1.1 0.5-1.7 0.7-1.3 3.2-3.9 4.7-5 5.3-1.3 0.6-2.2 0.9-3.1 1.2-0.4 0.2-0.8 0.3-1.3 0.5-1.2 1.3-2.5 2.1-3.2 2.4-3.2 1.6-5.9 1.4-8.2 0.5 0.2 3.7-0.8 7.9-5.7 10.3-1.9 0.9-4.8 1.7-8.4 0.7-0.5 0-1-0.1-1.6-0.2-0.9 0.7-1.6 1.1-2 1.3-0.4 0.2-0.7 0.3-1.1 0.5-1 1.3-2.3 2.3-3.6 2.9-0.3 0.2-1 0.4-1.8 0.7-1.2 1.4-2.6 2.1-3.1 2.4-0.9 0.4-2.1 0.9-3.6 1.1-1.3 1.8-3 2.8-3.8 3.3-1.8 0.9-5.8 2.2-10-0.5-0.4 0.6-0.8 1.1-1.2 1.6-0.9 1.7-2.1 3-3.6 4-1 3.6-3.7 5.4-5.3 6.2-1.1 0.5-5.9 2.5-10.8-1-0.7 2.8-2.4 4.9-4.3 6.2-0.8 0.8-1.9 1.7-3.5 2.5-2.7 1.3-5.3 1.5-7.9 0.6-0.4 0.2-0.7 0.4-1.1 0.6-0.5 0.2-1 0.5-1.6 0.6-0.6 0.6-1.3 1.1-2.1 1.6-1.7 1-3.5 1.6-5.4 1.6-0.2 1.4-0.6 2.9-1.4 4.3l-4.3 7.3-7-2.6c-2.4 1.8-5.7 3.1-9.8 1.6-1.3-0.5-3.6-1.6-5.2-4.2-2.1-0.9-5.3-3-6.1-8-2.1 1.3-5 2.1-8.4 1.1-3.1-0.9-4.9-2.9-5.9-4.3-0.1-0.1-0.3-0.2-0.4-0.4-3.7 4.8-8.1 4.5-10.8 3.9-1.2-0.3-3-1-4.6-2.6-1.4 0.1-2.6-0.1-3.2-0.3-1.8-0.4-3.1-1.2-4.2-2.1-2.5 1.4-5.1 1.2-6.8 0.9-1.9-0.4-5.8-1.8-7.4-6.6-1.5 0.5-3.2 0.8-5.2 0.4h-0.3c-0.3 0-0.7 0-1.1-0.1-1 0.2-2.6 0.3-4.4 0-2.6-0.5-4.5-1.7-5.7-2.9-0.7 0-1.4 0-2.2-0.1-2.1-0.3-3.6-1.1-4.6-1.7-0.1 0-0.3-0.1-0.4-0.2-1.9 2.5-4.8 4.4-9.3 3.9-1.4-0.2-3.9-0.8-6-2.9-1.4 0.6-3 0.9-4.9 0.7-1.6-0.2-4.6-0.8-6.8-3.6-1.7 1.4-4 2.4-7 2.1-1.3-0.1-4.8-0.7-7.3-3.9-1.5 0.5-2.8 0.5-3.7 0.5h-0.6c-2.7 3.1-6.1 3.4-7.8 3.4-1 0-2.6-0.2-4.3-1.1-0.5 0.1-0.9 0.1-1.2 0.1-1.9 0-3.5-0.5-4.9-1.3-2.3 1.8-4.8 2.1-6.2 2.2-1.1 0-2.9-0.2-4.7-1.1-1.5 0.6-2.9 0.7-3.6 0.7-1.4 0-2.6-0.2-3.7-0.5-1.3 0.7-2.8 1.2-4.6 1.2-1.7 0.1-3.2-0.2-4.4-0.7-1.1 0.5-2.4 0.8-3.8 0.9-1.7 0.1-5-0.1-7.7-2.9-0.5-0.1-1-0.1-1.5-0.3-1.3 0.9-2.8 1.5-4.8 1.6-0.8 0.1-1.9 0.1-3.2-0.2-1.4 2.3-3.7 4.2-7.5 4.7-4.2 0.5-7-1.4-8.9-3.4-0.1 0-0.2 0-0.3 0.1-0.6 0.1-1.4 0.3-2.4 0.5-1.4 0.2-2.6 0.1-3.8-0.1-1.3 2.1-3.4 3.8-6.8 4.4-1.3 0.2-3.1 0.3-5-0.4-1.9 2.2-4.3 3-5.7 3.2-4.1 0.8-7-0.8-9.1-2.8-2.5 0.5-4.5 0.2-6.2-0.6-0.7 0.3-1.4 0.6-2.3 0.8-1.7 0.4-3.2 0.4-4.5 0.1l-1.2 0.3c-0.5 0.1-1 0.2-1.4 0.2-1.1 2-3 3.6-6.1 4.4-4.3 1.1-7.5-0.5-9.7-2.6-0.3 0.2-0.7 0.4-1.1 0.5-0.3 7-5 9.3-7.2 9.9-0.9 0.3-1.8 0.4-2.5 0.5-1.1 1.4-2.7 2.6-4.9 3.4-2.6 0.8-4.8 0.7-6.6 0-1 1.1-2.3 2-4.1 2.7-1.4 0.5-2.6 0.6-3.8 0.6-1 2-2.7 4.1-5.7 5.3-1.5 0.6-3.7 1.1-6.2 0.4-1 1.3-2.3 2.4-4.2 3.2-0.6 0.2-1.2 0.5-1.8 0.7-0.3 0.1-0.5 0.2-0.8 0.3-4.7 2-8.6 0.1-11.2-2l-0.8 0.3-2.4-2.5c-1.3-0.2-2.8-0.7-4.3-1.6-1.7 0.3-3.5 0.1-5.6-0.8-0.9-0.4-1.6-0.8-2.1-1.1-1.7-0.7-3.1-1.8-4.1-3.2-0.9-0.1-1.8-0.3-2.6-0.6-1.7-0.6-4.2-1.9-5.9-4.8-0.4-0.1-0.9-0.2-1.5-0.4-1.4-0.5-2.5-1-3.3-1.5-0.3-0.1-0.6-0.2-0.9-0.4-4.5 5.4-9.9 4.2-11.6 3.6-1-0.4-2.4-1-3.8-2.2-1.2 0.1-2.7-0.1-4.4-0.6-2.5-0.8-4.4-2.3-5.9-4.5-0.4-0.3-0.7-0.7-1.1-1.1-1.2 0-2.3-0.3-3.1-0.6-1.3-0.4-2.8-1.2-4.2-2.5l-0.9-0.3c-1.6-0.6-6.4-2.7-7-9.1-0.2-0.1-0.3-0.1-0.5-0.2-1.4 0.6-2.8 0.8-4 0.8-0.8 0.2-1.6 0.3-2.4 0.4-2.7 3-6.6 5.3-11.7 3.6-3.5-1.2-5.7-3.5-6.7-7-4.2 3.3-8.7 2.1-9.8 1.8-2.3-0.8-4.8-2.3-6.2-5.5-3 1-5.6 0.6-7.1 0-3.7-1.2-6-3.8-6.9-7.6-4 2.8-8.2 1.7-9.2 1.4-2.6-0.9-5.4-2.7-6.7-6.8-0.6 0-1.1-0.1-1.7-0.3-0.6-0.1-1.2-0.3-1.7-0.6-0.8 2.3-2.4 4.5-5.6 5.9-0.9 0.4-1.8 0.6-2.6 0.8-0.4 0.6-0.8 1.1-1.2 1.5-1.1 1.2-2.9 2.6-5.5 3 0.1 0.9 0 1.8 0 2.5-0.4 2.7-1.4 4.6-2.9 6-0.1 0.5-0.2 1-0.3 1.3 0 0.4-0.1 0.8-0.1 1.2 1 1.2 1.7 2.8 2.1 4.5 4.4 1.9 6 5.2 6.5 8.1 0.1 0.6 0.2 0.9 0.2 1.1 0.1 0.4 0.2 0.9 0.3 1.7 0.1 0.9 0.2 1.8 0.1 2.8 2.1 2 2.7 4.5 2.9 5.6 0.5 2.6 0.3 7.4-5.2 11.3-1.1 1.6-2.9 3.1-5.6 4.3l-1.5 0.6c0 0.2 0.1 0.5 0.1 0.7 0.1 0.5 0.1 0.9 0.2 1.3 0.5 0.8 0.9 1.6 1.2 2.5 0.2 0.3 0.4 0.7 0.6 1.1 5.1 1.7 6.8 5.3 7.3 8.3 0 0.1 0 0.2 0.1 0.4 4.4 2.2 5.4 6.5 5.6 7.5 0 0.2 0.1 0.3 0.1 0.5 4.3 2.2 5.3 6.4 5.5 7.4 0.3 1.6 0.2 3.1-0.1 4.3 0.1 0.5 0.3 1 0.4 1.5 0.4 2.5 0.2 5.6-2.2 8.4 2.4 2 3.2 4.6 3.5 5.9 2.1 2 2.8 4.5 2.9 5.6 0.1 0.6 0.3 2.3-0.2 4.4 1.1 1.6 1.5 3.2 1.7 4.2 0.3 1.7 0.4 4.9-1.9 7.9 2.6 2 3.6 4.7 3.9 6.5 0.1 0.8 0.2 1.6 0.2 2.2 0.5 0.9 0.9 2.1 1.1 3.4 0.3 1.7 0.7 7-4.8 10.6-0.3 0.9-0.6 1.8-1.1 2.6-0.9 1.4-2 2.5-3.1 3.2-0.1 1.8-0.7 3.7-2.2 5.6-0.3 0.4-0.6 0.8-1 1.1 3.9 5.8 1.5 10.4 0.1 12.2-1.3 1.8-2.8 2.9-4.4 3.5-0.3 0.8-0.7 1.7-1.3 2.6-0.8 1.1-1.6 1.9-2 2.4l-0.1 0.1c-1.7 2.3-3.8 3.4-5.8 3.8-0.2 0.4-0.5 0.8-0.7 1.2-0.2 0.4-0.6 0.9-1.1 1.4 0.3 2 0 4.3-1.5 6.7-1.2 1.9-3.5 4.4-7.6 4.7 1.5 2.7 2.3 6.1 0.1 10-1.2 2.1-2.7 3.5-4.3 4.2-0.2 1-0.6 1.8-0.9 2.3-1.4 2.6-3.4 4.1-4.8 4.8-0.2 0.2-0.3 0.3-0.5 0.4 1 3.3 0 6.1-0.5 7.2-0.4 0.8-0.8 1.5-1.3 2.1 0.3 1.8 0.2 3.8-0.7 6-0.7 1.6-2 3.7-4.5 4.9-0.1 0.6-0.3 1.2-0.6 1.9s-0.9 2-2.1 3.3c0.1 1.4-0.1 2.9-0.7 4.5-1.4 3.9-4.3 5.6-7.1 6.3 0 0.9-0.2 1.8-0.5 2.7-0.5 1.7-1.3 2.9-2.3 3.9 0.1 0.9 0 2-0.2 3.1 2 2.1 4.3 5.6 3 10.5-0.2 0.8-0.6 1.9-1.4 3.1 0.4 1.4 0.4 3.1 0 5-1.2 5.1-5 7-8.4 7.7 0.3 1.3 0.4 2.8 0.1 4.6-0.1 0.5-0.2 0.9-0.3 1.3 0.3 1.3 0.4 2.7 0.1 4.3-0.1 0.5-0.2 1.1-0.4 1.5 0.3 1.2 0.4 2.5 0.1 4v0.2c2.9 2.7 3.2 5.9 3.1 7.9 0.1 0.7 0.2 1.9 0 3.4-0.1 0.9-0.5 3-2 5v0.3c-0.2 2.1-0.9 3.7-1.8 5v0.4c-0.1 1.1-0.5 3.6-2.4 5.8 2.1 1.7 3.6 4.2 3.5 8-0.1 3.3-1.7 8.9-11 10.2 0.1 0.2 0.2 0.4 0.2 0.6 0.1 0.1 0.2 0.2 0.3 0.2 0.1 0 0.2 0 0.3 0.1 3.3 0.8 11 2.6 11.3 10.7 0.1 1.7-0.3 5.1-3.2 7.8 0 0.2 0 0.4 0.1 0.6 0.1 2-0.2 3.6-0.9 4.9 1.4 1.4 2.4 3.3 2.6 5.9 0.2 2.4-0.3 4.4-1.2 6 3.6 1.9 4.7 5.1 5 7.3 0.4 2.6-0.2 4.7-1.1 6.4 0.5 0.6 0.9 1.2 1.2 2 0.8 1 1.8 2.7 2.3 5 0.3 1.3 0.2 2.6 0.1 3.7 0.2 0.5 0.4 1.1 0.5 1.8 0.4 1.7 0.3 3.1 0.2 4 0.7 5.8-3.6 9.2-5.9 10.8 0.4 0.6 0.8 1.5 1.2 2.5 1.9 0.3 3.7 0.9 5.3 2.1 2 0.9 5.2 2.8 6.5 6.9 0.9 2.9 0.5 5.3-0.4 7.3 0.8 0.9 1.5 2 2.1 3.4 2 1.4 3.1 3.3 3.7 4.8 0.5 1.4 0.7 2.7 0.8 3.4 0.3 1.1 0.6 2.7 0.3 4.5 0.9 1.1 1.4 2.1 1.7 2.7 0.2 0.6 0.4 1.2 0.6 1.7 0.1 0.3 0.2 0.6 0.3 0.8 0.7 1.6 1.6 5.1-0.5 8.9 1.6 0.9 3.1 2.3 4.1 4.6 0.2 0.4 0.4 1 0.6 1.7 3 1.3 4.5 3.7 5 4.7 0.3 0.7 0.7 1.6 0.9 2.8 0.7 0.8 1.2 1.5 1.5 2.1 0 0.1 0.1 0.2 0.1 0.3 1.4 0.8 2.7 2.1 3.7 3.9 0.5 0.9 1.4 2.9 1.2 5.5 1.6 0.8 3 2 4.2 4 1.2 2 2.4 5.5 0.3 9.6 1.2 1.9 1.6 3.8 1.6 5.5 4.9 0.1 7.5 3.2 8.3 4.4 0.9 1.3 2.3 4 1.7 7.4 0.2 0.3 0.5 0.5 0.6 0.8l0.2 0.2 0.1 0.1c4.8-0.1 7.5 2.9 8.4 4 0.5 0.6 0.8 1.2 1.1 1.8 0.9 0.6 1.7 1.3 2.5 2.3 1 1.3 2.1 3.2 2.2 5.6 0.6 0.5 1.2 1.1 1.8 1.8 3 3.7 2.5 7.8 2 10 0 0.7 0 1.5-0.2 2.4 1.9 0.3 3.9 1.3 5.6 3.2 0.8 0.8 1.3 1.7 1.7 2.6 1.6 0.4 3.2 1.3 4.7 2.9 1.7 1.8 2.5 3.8 2.8 5.6 0.2 0.1 0.5 0.3 0.7 0.5 2.4-0.1 4.8 0.6 7.2 2.9 2.5 2.4 3.2 5 3.1 7.4 1.1 0.4 2.2 1.1 3.3 2.1 0.6 0.5 1 1.1 1.4 1.6 0.8 0.3 1.6 0.8 2.4 1.5h0.1c5.3-1.9 9.1 0.8 10.3 1.8 2.1 1.8 3 3.8 3.4 5.7 2.2 2.1 3 4.6 3.2 6.8 0.2 0.2 0.5 0.3 0.7 0.5 1.6 1.2 2.5 2.7 3.1 4.1 1.9-0.1 3.8 0.4 5.8 1.8 0.7 0 1.5 0.1 2.2 0.2 1.7 0 4.4 0.2 7 2.1 0.8 0.6 2.5 2 3.5 4.5 2.6 0 4.6 1 5.7 1.8 0.6 0.4 1.3 1 2 1.7 2.4-0.1 4.4 0.8 5.7 1.7 0.9 0.6 1.6 1.2 2.1 1.6 0.1 0.1 0.2 0.1 0.2 0.2 1.1 0.7 1.9 1.5 2.5 2.2 0.5 0.2 1.2 0.5 1.8 1 1.1 0.7 2.8 2 3.8 4.3 1.5 0 3.5 0.3 5.6 1.5 1.7 1 2.9 2.3 3.7 3.6 0.2 0.1 0.3 0.2 0.5 0.3 0.9 0.5 2.8 1.8 4.1 4.3 2.5-0.2 4.5 0.6 5.6 1.2 1.4 0.7 3.1 2 4.3 4.2 0.8 0.2 1.7 0.5 2.5 0.9 1.2 0.6 2.2 1.4 3 2.2 2.3-1 5.1-1.3 8.3 0.2 1.6 0.7 2.7 1.6 3.3 2.2 1.5 0.9 3.7 2.8 4.6 6.2 4.4-3.4 8.8-2.1 10.3-1.5 2.1 0.9 6.4 3.5 6.2 10.1 2.1-0.9 4.7-1.4 7.8-0.2 1.2 0.5 2.2 1.1 3.1 1.7 2.1-1.1 5-1.8 8.4-0.7 0.6 0.2 1.2 0.4 1.7 0.7l0.9 0.3c1.7 0.6 3 1.4 3.7 2 0.2 0.1 0.3 0.2 0.5 0.2 1.5-0.1 2.9 0.2 3.7 0.5 3.6 1.1 5.5 3.5 6.4 6.1 0.2 0 0.3 0.1 0.4 0.1h0.1c1.6-0.5 3.5-0.6 5.7 0 0.1 0 0.2 0.1 0.4 0.1 2.1-0.6 4-0.3 5.4 0 2.8 0.7 4.6 2.2 5.7 4 1.4-0.3 3-0.4 4.8 0.1 1.7 0.4 4.9 1.6 6.7 5.3 3.7-4.7 8.5-4.2 10.1-3.8 2.8 0.6 4.7 2.1 6 3.5 2.8-2.3 5.8-2.3 7.9-2 2.7 0.5 4.5 1.8 5.6 2.6 1.1 0.6 2.2 1.4 3.2 2.6 2.4 0.6 4.1 1.9 5.3 3.5 0.5 0 1 0 1.5 0.1 0.7 0.1 1.4 0.2 2 0.4 1.8-2.8 4.1-4 6-4.5 1.4-0.7 3.7-1.7 6.7-1.4 1.6 0.2 6.3 1.1 8.5 6.5 2.1-1 4.1-1 5-0.9 0.4 0 1 0.1 1.7 0.3 1.6-0.5 3-0.6 3.9-0.5 1.6 0.1 3 0.5 4.1 1.1h1.4c0.4 0 1.1 0.1 1.9 0.3 1.1-0.4 2.3-0.5 3.7-0.5 2 0.1 3.7 0.7 5 1.5 1.6-2.5 4.3-5.1 8.9-5.1h0.1c3 0 5.2 1.1 6.8 2.6 0.6-0.1 1.1-0.1 1.6-0.1 1.6 0 2.9 0.3 4.1 0.7 0.5-0.1 1-0.1 1.5-0.1 2.1 0 3.9 0.5 5.3 1.3 1.3-0.5 2.4-0.6 3.1-0.6-0.3-0.8-0.1-0.9 0.1-0.9z m109.5 2.4z m37.1-0.6c-0.1 0-0.1 0 0 0-0.1 0-0.1 0 0 0z m-172.5-0.4h0z m165.7-0.4z m0.1 0s-0.1 0 0 0c-0.1 0 0 0 0 0z m8.7-2.4z m-330.9-0.6h0.1-0.1z m111.9-3.3z m-0.2 0h0z m0 0z m-107.4-0.2s0.1 0 0 0c0.1 0 0 0 0 0z m224.6-0.5z m-249.5-1c0.1 0 0.1 0.1 0.2 0.1-0.1 0-0.1-0.1-0.2-0.1z m107.9-1c0.1 0 0.3 0 0.4 0.1-0.1-0.1-0.3-0.1-0.4-0.1z m-14.1-0.6z m288.3-4.2c-0.2 0.1-0.5 0.2-0.9 0.3l0.9-0.3z m-400.1-2.6c0.5 0.4 1.2 0.8 1.8 1.1-0.4-0.2-1-0.5-1.8-1.1zM293.8 875.8z m75.1-0.9z m-20.7-0.4z m-27.4-7.8c0.1 0 0.1 0 0 0 0.1 0 0.1 0 0 0z m419.7-0.6c-0.1 0.1-0.1 0.1 0 0-0.1 0.1-0.1 0.1 0 0zM264.1 861c0.1 0.1 0.2 0.1 0.3 0.2-0.1 0-0.2-0.1-0.3-0.2z m496.9-0.9c-0.2 0.1-0.4 0.2-0.7 0.4 0.2-0.2 0.5-0.3 0.7-0.4z m-438.5-3.9c0.1 0 0.1 0 0 0 0.1 0 0.1 0 0 0z m-78.7-7.2z m542.5-10.1z m-501.1-1.4s0.1 0 0.1 0.1c0-0.1 0-0.1-0.1-0.1z m503.1-1.5c-0.1 0.1-0.2 0.2-0.3 0.2 0.1 0 0.2-0.1 0.3-0.2z m-513.8-7.2z m-48.8-0.5z m0 0z m570-32.7c-0.4 0.3-0.7 0.6-1 1 0.4-0.5 0.8-0.8 1-1z m46.5-1.4z m0-4.2s0 0.1 0 0c0 0.1 0 0 0 0z m-679.1-12.9c0 0.1 0.1 0.1 0.1 0.2 0-0.1 0-0.1-0.1-0.2z m21.6-21.6c0.2 0.3 0.5 0.7 0.8 1.2-0.2-0.4-0.5-0.8-0.8-1.2z m-42.9-9.6c0.2 0.5 0.5 1.1 0.9 1.6-0.2-0.3-0.5-0.9-0.9-1.6z m-1.6-3.9c0.1 0.2 0.3 0.4 0.4 0.5-0.1-0.1-0.3-0.3-0.4-0.5z m705.1-1.9c0 0.1 0 0.1 0 0 0 0.1 0 0.1 0 0z m-676.5-4s0.1 0 0 0c0.1 0 0 0 0 0z m-39.4-5c0 0.1 0.1 0.1 0.1 0.2 0-0.1 0-0.2-0.1-0.2z m27.4-0.3z m735.5-0.3z m0 0z m0 0z m-15.7-39.1c-0.1 0.1-0.2 0.3-0.2 0.4 0-0.1 0.1-0.2 0.2-0.4z m-770.5-15.8l0.6 1.2c-0.3-0.5-0.5-0.9-0.6-1.2z m0 0z m809.9-6.7s0 0.1-0.1 0.1c0 0 0.1 0 0.1-0.1z m-13.6-20.1v0z m-808.5-4c0.1 0.3 0.2 0.7 0.4 1-0.2-0.4-0.4-0.7-0.4-1z m0 0zM902 640z m-779.1-0.8z m803.9-1.3v0z m-813.5-7.5z m-20.6-0.9c0 0.1 0 0.1 0 0 0 0.1 0 0.1 0 0z m813-5.8s0 0.1 0 0c0 0.1 0 0 0 0z m-791.2-2.2v0.2c0.1-0.1 0-0.2 0-0.2z m4.4-3.9s0 0.1 0 0c0 0.1 0 0 0 0z m-21.8-6.8z m0-0.2v0zM88.6 594z m0 0z m822.4-2.9z m24.6-5.9z m-22.6-5c0 0.1 0 0.1 0 0 0 0.1 0 0.1 0 0z m0 0z m19-4.2c0 0.1 0 0.1 0 0 0 0.1 0 0.1 0 0z m12.8-26.4z m-14.5-8.8v0z m-21-1.8z m21-6.8v0z m2-3.1v0z m-2.9-8.9v0z m-21.7-3z m-792.5-2.7z m793.3-0.2s0 0.1 0 0c0 0.1 0 0 0 0z m0 0z m1.1-11.2z m19.7-3.3z m-0.5-8.9c0 0.1 0 0.1 0 0 0 0.1 0 0.1 0 0z m-23.6-6.7v0zM94 472.6s-0.1 0 0 0c-0.1 0 0 0 0 0z m809.9-2.2zM94.3 450.7z m28.2-2.7z m0 0z m799.1-4.5z m-817.9-2.3z m815.8-3.3v0z m-814.1-2.5z m814.2-4z m-0.8-1.6c0.4 0.7 0.7 1.2 0.8 1.6-0.3-0.6-0.5-1.1-0.8-1.6z m-776-15.6z m0 0z m766.7-3.2c0.4 0.6 0.7 1.1 0.8 1.5-0.2-0.6-0.5-1-0.8-1.5z m-795.9-1.4c-0.2 0.5-0.4 0.9-0.5 1.4 0.2-0.5 0.4-1 0.5-1.4z m778.7-24c0.6 0.7 1.1 1.4 1.3 1.8-0.3-0.7-0.8-1.3-1.3-1.8z m-724.8-8.1z m685.4-11.8c0 0.1 0 0.1 0 0 0 0.1 0 0.1 0 0z m21.6-8.4z m0 0z m-31.2-1.7z m0 0z m-693-8.2z m24.8-7.8c0.1 0.1 0 0 0 0z m649.2-0.6z m-663.1-9.3z m689.5-63.9s0 0.1 0 0c0 0.1 0 0 0 0z m-714-20.6v0.1c0.1 0 0.1-0.1 0-0.1z m698-1.7s0 0.1 0 0c0 0.1 0 0 0 0zM166 237.3c0.1 0.4 0.2 1.2 0.1 2.3 0-0.7 0-1.5-0.1-2.3z m174.8 1.1c-0.1 0-0.1 0-0.2 0.1 0.1-0.1 0.2-0.1 0.2-0.1z m-29.3-1.9z m338.4-14.7h0z m3.3-0.9z m0 0z m-520.6-4.4z m464.6-2.7zM391 212.6z m209.5-0.9c0.5 0.1 1 0.1 1.4 0.2-0.6-0.1-1.1-0.1-1.4-0.2z m-19.6-2.2z m284-2.7c0 0.2-0.1 0.5-0.1 0.8 0-0.3 0.1-0.6 0.1-0.8z m-403.8-1.9c-0.1 0-0.1 0 0 0z m-184.4-0.2z m21.5-0.8z m-83.9-3.1z m159.7-6.2s-0.1 0 0 0c-0.1 0 0 0 0 0z m255.6-1.9c0.6 0.1 1.2 0.2 1.5 0.3l-1.5-0.3z m69.1-0.1z m-106.3-0.8h0z m178.1-3.2c-0.2 0.1-0.6 0.3-1 0.4 0.3-0.1 0.7-0.2 1-0.4z m-328.8-0.9c-0.1 0-0.1 0 0 0-0.1 0-0.1 0 0 0z m46.3-6.2c-0.1 0-0.1 0 0 0-0.1 0-0.1 0 0 0z m14.5-1.1c-0.6 0-1.1 0.1-1.6 0.2 0.7-0.1 1.3-0.2 1.6-0.2z m-277-2.3c1.1 0.1 1.9 0.3 2.3 0.5-0.8-0.3-1.5-0.4-2.3-0.5z m285.8-0.4z m-303.7-2z m565.3-1.8z m65.6-4.1zM163 167.2c-0.7 0.2-1.3 0.5-1.8 0.8 0.7-0.5 1.4-0.7 1.8-0.8z m695.9 0z m0 0z m-692.6-3z m0.1 0z m588.6-3c-0.3 0.1-0.7 0.2-1 0.4 0.3-0.1 0.6-0.2 1-0.4z m77.2-1.6z m24-2.1z m-1.4-12.9z m-11.8-3.4s0 0.1 0 0c0 0.1 0 0 0 0z m-13.8-8.3z" p-id="126918"></path><path d="M260.4 254.2l-45.8 40.6c-6.4 5.7-16.6 2.3-18.3-6.1l-12.3-60c-1.7-8.4 6.3-15.5 14.4-12.8l58.1 19.3c8.2 2.8 10.3 13.3 3.9 19zM811.8 224l-7.7 60.7c-1.1 8.5-11 12.6-17.8 7.5l-48.7-37.1c-6.8-5.2-5.5-15.8 2.4-19.1l56.4-23.7c8-3.2 16.5 3.2 15.4 11.7z" fill="#FFFFFF" p-id="126919"></path><path d="M319.4 541.3m-29.3 0a29.3 29.3 0 1 0 58.6 0 29.3 29.3 0 1 0-58.6 0Z" p-id="126920"></path><path d="M683.7 541.3m-29.3 0a29.3 29.3 0 1 0 58.6 0 29.3 29.3 0 1 0-58.6 0Z" p-id="126921"></path><path d="M570.4 570.2c1 5.1-0.2 10.6-3.9 14.7-6.2 7-17 7.7-24 1.4l-36.8-32.6-31 35c-2.5 2.9-5.8 4.7-9.3 5.4-5.1 1-10.6-0.2-14.7-3.9-7-6.2-7.7-17-1.4-24l42.4-47.9c2.5-2.9 5.8-4.7 9.3-5.4 5.1-1 10.6 0.2 14.7 3.9 0.7 0.7 1.4 1.4 2 2.1l47.3 42c2.9 2.6 4.7 5.8 5.4 9.3z" p-id="126922"></path><path d="M177.4 551.9l-71.5-7.3 3.5-34.2c0-0.2 0.2-0.3 0.4-0.3l71.2 7.3c9.5 1 16.5 9.5 15.5 19s-9.5 16.5-19.1 15.5zM192.4 639.8l-69.1 19.9-9.5-33c-0.1-0.2 0.1-0.4 0.2-0.4l68.8-19.8c9.2-2.6 18.8 2.7 21.5 11.9 2.6 9.2-2.7 18.8-11.9 21.4zM846.1 550.7l71.5-7.3-3.5-34.2c0-0.2-0.2-0.3-0.4-0.3l-71.2 7.3c-9.5 1-16.5 9.5-15.5 19 1.1 9.5 9.6 16.4 19.1 15.5zM831.2 638.6l69.1 19.9 9.5-33c0.1-0.2-0.1-0.4-0.2-0.4l-68.8-19.8c-9.2-2.6-18.8 2.7-21.5 11.9-2.7 9.1 2.6 18.8 11.9 21.4zM433.9 299l-25.8-86.7-39.8 11.9c-0.2 0.1-0.3 0.3-0.2 0.4l25.7 86.3c2.7 9.2 12.4 14.4 21.6 11.7l6.9-2.1c9.1-2.6 14.4-12.3 11.6-21.5zM626.2 311.4l23.6-89-40.1-10.6c-0.2 0-0.4 0.1-0.4 0.3l-23.5 88.7c-2.5 9.3 3.1 18.8 12.3 21.2l7 1.8c9.1 2.4 18.6-3.1 21.1-12.4zM531.3 293.9v-92.1h-41.5c-0.2 0-0.4 0.2-0.4 0.4v91.7c0 9.6 7.8 17.3 17.3 17.3h7.2c9.7 0 17.4-7.7 17.4-17.3z" fill="#D3B68E" p-id="126923"></path></svg>