<?xml version="1.0" encoding="utf-8"?>
<!-- Generator: Adobe Illustrator 25.2.3, SVG Export Plug-In . SVG Version: 6.00 Build 0)  -->
<svg version="1.1" id="_14" xmlns="http://www.w3.org/2000/svg" xmlns:xlink="http://www.w3.org/1999/xlink" x="0px" y="0px"
	 viewBox="0 0 1024 1024" style="enable-background:new 0 0 1024 1024;" xml:space="preserve">
<style type="text/css">
	.st0{fill:#AFD4DA;}
	.st1{fill:#FBF0AA;}
	.st2{fill:#E2EFF2;}
	.st3{fill:#FDFEFD;}
	.st4{fill:#FEFEFD;}
	.st5{fill:#F1E1A9;}
	.st6{fill:#F5E99E;}
	.st7{fill:#F5EA9E;}
	.st8{fill:#F5EB9C;}
	.st9{fill:#F5DEA9;}
	.st10{fill:#F2B2D0;}
	.st11{fill:#F2B3D0;}
</style>
<g>
	<path class="st0" d="M278.1,572c0-11.3,0-22.7,0-34c0.5-0.3,1.5-0.7,1.5-1c-0.3-4.8,1.9-8.9,3.5-13.1c1.7-4.4,1.8-9.2,4.5-13.4
		c3.5-5.5,5.7-11.8,8.8-17.6c1.8-3.4,4.3-9,6.7-9.1c8.8-0.3,5.8-3.9,3.3-8c-0.2-0.3-0.1-0.7-0.1-1c-1.8-7.1-3.5-14.2-5.3-21.2
		c-0.5-1.9-2.7-2.8-2.7-5.2c0-9.1-3.5-17.6-5.6-26.1c-2.4-9.5-4.8-19.2-6.7-28.7c-1.6-8-3.8-16.4-2.9-24.9c0.3-3.1,0-6.4,3.2-7.8
		c3.7-1.6,8.1-2,11.5,0.1c8.5,5.1,18,8.2,26.2,14.3c5.7,4.2,12.8,6.6,17.2,12.7c1.5,2,5.8,1.2,7-1.2c0.4-0.9,0.6-1.9,1.5-2.5
		c6.5-3.6,13.4-6.5,19.5-11.1c5.7-4.4,13.4-5,19.7-8.4c4.8-2.5,10.2-3.7,14.7-6.3c5.1-2.9,10.7-3.8,15.8-6.1c7-3.1,14.8-4.5,22-7.6
		c3.1-1.3,6.4-2.6,9.5-3.3c5.1-1.1,9.8-2.8,14.5-4.8c3.2-1.4,7.1-1.4,10.2,0c2.7,1.2,1.3,4.5,1.5,6.9c0.2,1.9-1.1,3.1-2.3,4.2
		c-2.8,2.8-5.7,5.6-8.5,8.4c-0.9,0.9-2.5,1.6-1.1,3.2c1,1.2,2,3.1,4,1.9c4.4-2.6,9.2-4.1,14-5.7c5.7-1.9,10.3-6.1,16.5-7.3
		c2.8-0.6,6.4-0.3,8.8-2.5c4.6-4.1,10.8-4.5,16.2-6.5c4.3-1.6,8.6-3.9,13.3-4.4c5-0.6,9.1-4.7,14.5-3.9c2.2,0.3,5-1,6.2,1.9
		c1.2,2.9-0.9,4.8-2.5,7c-4.3,5.6-11.3,8-15.7,13.4c-1.2,1.4-2.9,2.5-0.9,4.6c1.6,1.7,3.2,3,5.6,1.5c1.1-0.7,2.2-1.7,3.4-2
		c10.3-3.1,21-5.1,31.4-7.6c6.9-1.7,14.6-1.7,21.9-2.6c4.9-0.6,10-0.1,15-0.1c1.5,0,3.3,0.4,4.3-0.8c2-2.4,4.7-2.1,7.3-2.1
		c2,0,4,0,6,0c2.2-0.1,3.1-1,1.8-3.2c-2.4-3.9-0.7-6.7,2.2-9.6c9.7-9.6,19.3-19.3,29-28.9c1.5-1.5,3.5-2.4,5.2-3.5
		c4.4-2.8,8.3-6.4,12.5-9.8c5.3,0,10.7,0,16,0c-0.1,1.7,0.2,3.2,0.6,4.9c1.6,6.7,4.1,13.5,4.2,20.4c0.5,25.3,0,50.6,0.3,75.8
		c0.1,7.2-4.6,13.4-3.3,20.7c0,0.1-0.1,0.3-0.2,0.4c-2.9,3.9,0.2,5.1,2.9,6.6c4.6,2.7,9.5,5,13.4,8.7c5,4.7,9.7,9.6,14.5,14.4
		c3.8,3.8,6,8.4,6.9,13.8c0.6,3.6,1.1,8.8,4.9,9.6c3.9,0.8,4.7,3.3,6.5,5.6c1.7,2.1,0.8,4.6,1.9,6.6c3.7,6.6,5,13.7,4.6,21.3
		c-0.1,1.8-0.5,3.9,0.8,5.3c4.1,4.6,1.8,8.2-1.7,11.6c-1.5,1.4-2.8,2.8-1.1,4.6c2.4,2.3,2.1,5.1,1.9,7.9c-3.3,0.8-5.9,2.9-8.9,4.3
		c-35.2,16.1-72.1,22.6-110.7,18.6c-31.1-3.2-59.4-13.6-84.5-32.5c-23.7-17.8-42.6-39.5-55.2-66.4c-0.4-1-0.4-2.7-2-2.4
		c-1.3,0.2-1.4,1.7-1.8,2.8c-2.4,6.8-2.9,13.9-4.4,20.9c-2.8,13.9-7.4,27.3-11.2,41c-2.3,8.4-6.1,16.4-9.1,24.6
		c-0.2,0.6-0.3,1.3-0.5,1.9c-12.2,27.4-26.4,53.7-45.2,77.2c-10.7,13.4-22.5,25.8-35.7,36.9c-7.4,6.2-15,12-22.6,18
		c-2.7,0.1-5.4,0-7.9-1.1l0,0c-1.5-2.1-3.6-3-6.1-3.1c-0.6,0-1.2,0-1.8,0c-1.2-4.2-5.2-3.7-8.1-4.9l0,0c-1.1-5-6.2-4.8-9.4-6.8
		c-4.5-2.7-9.5-4.5-14.1-7c-11-6.1-17.3-16.8-24.3-26.7c-4.6-6.5-8.2-13.6-10.7-21.1c-2.4-7.2-3.9-14.9-2.9-22.8
		C281.2,575.9,281.9,572.9,278.1,572z"/>
	<path class="st1" d="M366.1,671.9c7.5-6,15.2-11.8,22.6-18c13.1-11.1,24.9-23.5,35.7-36.9c18.8-23.5,33-49.8,45.2-77.2
		c0.3-0.6,0.4-1.3,0.5-1.9c1.3-0.3,2.6-0.7,3.9-1c0.2,1.2,0.8,1.9,2,2c1.4,7.7,4.3,10.7,11,11c2.4,4.6,6.5,5.1,11,5
		c2,0,4.7-0.7,4.9,2.7c0.1,2.8,0.4,5.8-0.3,8.4c-3.3,12-9.5,22.8-16.4,32.9c-5.2,7.6-14,11.3-20.9,17.2c-3.6,3.1-7.7,6.5-12.4,8.7
		c-1.4,0.7-3.3,2.1-3.2,4.9c9.1-4,16.2-10.3,24.2-15.1c5.2-3.1,9.3-7.4,13.7-11.4c2.6-2.4,6.5-1.6,7.5,1c3.6,9.6,6.4,19.4,12.9,27.9
		c3,3.9,7,5.9,10,9.2c3.3,3.5,7.9,3.5,12.2,1.2c5-2.7,9-6.2,11.3-11.4c3.5-7.9,8.2-15.9,6.4-24.9c-1.2-5.9-2.2-12-4-17.7
		c-1.7-5.8-1.1-7.4,4.7-7.4c6.3,0,12.8-0.7,19,0.2c9.2,1.3,17.3-3.6,26.2-3.7c4-0.1,8.6-1.8,12.3-4.5c0.7-0.5,1.6-0.7,1.4-1.7
		c-0.2-1-1.1-1.2-1.9-1.2c-1.2,0-2.4,0-3.4,0.4c-9,3.9-18.9,3.2-28.3,4.1c-15.8,1.6-31.9,0-47.2-4.8c-4.3-1.4-8.8-2.4-12.8-4.9
		c-3.7-2.4-2.6-5.7-2.8-8.9c-0.1-1.8,0.4-3.3,2.4-3.8c7.7-2.1,13.8-6.7,19.2-12.3c7.1-7.4,6.7-16.1-0.1-23.8c-6.2-7-15.7-5-22.9-8.8
		c-0.6-0.3-2.1,0.2-2.7,0.8c-2.2,2.1-4.8,1.7-7.4,2.2c-4,0.8-8.8,0.8-10.5,5.9c-0.7,0.7-1.3,1.3-2,2c-3.9-2.3-4.8,3.2-8,3
		c0.1-1-0.1-2.1,0.3-3c4.6-10.8,6.8-22.4,10.1-33.5c2.5-8.5,4.1-17.1,5.7-25.8c0.2-1.3,0.4-2.8,2-3c1.2-0.1,1.5,1.1,1.9,2
		c5.2,10.8,11.9,20.7,19.4,30c11.5,14.4,24.9,26.8,40.2,37c11.6,7.8,24.1,14,37.3,18.7c17.2,6.1,34.7,10.2,53,10.5
		c13.8,0.3,27.6,0.3,41.3-1.9c15.9-2.6,31.5-6.4,46.5-12.6c7-2.9,13.7-6.7,21.2-8.4c0.4,2.1-0.5,4-1.1,6c-1.4,2.6-0.9,5.3-0.9,8
		c-0.4,0.6-0.8,1.3-1.2,1.9c-3.1,1.9-0.9,5.7-2.9,8c-2.2,1.4-2.1,4-3.1,6c-0.9,0.9-0.8,2-0.8,3.1c-1.7,1.3-3.3,2.7-5,4
		c-0.7,0-1.3,0.1-2,0.1c-3,1.4-3.5,4.2-3.8,7c-0.4,2.9-0.3,5.9-0.5,8.8c-0.3,0.3-0.5,0.5-0.8,0.8c-1.6,0.5-2.8,1.5-3,3.3
		c0,0.6,0,1.2,0,1.7c-3.1,1.7-5.7,3.8-7,7.2l0,0c-5.7,3.6-10.4,8.3-14,14l0,0c-3.3,1.3-5.6,3.8-7.1,7c-0.3,0.3-0.6,0.6-0.9,0.9
		c-4.1,3.3-9,5.6-12.3,10c-0.3,0.3-0.5,0.6-0.8,0.8c-2.5,0.8-5.1,2.4-6.7,3.8c-3.9,3.4-10,3.9-12.1,9.5c-1,0.4-2,0.7-3,1.1
		c-4.7,1.6-9.3,3.4-12,7.9c-0.7,0-1.3,0-2,0c-2.2,2.3-6.5,1.4-8,5c-1,0-2,0.1-3,0.1c-4,1.6-7.1,5.3-11.9,5c-1.7-0.1-2.4,1.5-3.1,2.8
		c-0.7,0-1.3,0.1-2,0.1c-1.9,0.7-4.4,0.9-5.7,2.3c-3.2,3.3-8.9,1.1-11.3,5.7c-1.3,0-2.7,0-4,0c-2.7,0.8-5.1,2.5-8.2,2.2
		c-1.6-0.2-2.5,1.2-2.8,2.8c-1.7,0.1-3.3,0.1-5,0.2c-2.1-0.1-3,1.4-4,2.9c-0.7,0-1.3,0-2,0c-3.8-1.2-13.2,1.8-15.9,5.1
		c-1.8,0-3.6-0.3-5.3-0.1c-2.3,0.3-5.3-1.4-6.8,1.9c-3.9,0.5-8.3-1.3-11.7,0.9c-3.3,2.1-6.4,2.1-9.8,2.1c-3,0-5.9,0-8.9,0
		c-2.1,0-3.6,0.5-3.5,3c-28,0-56,0-84,0c-0.4-2.9-2.6-3-4.9-3c-4.1-0.1-9.2,1.2-12.2-0.7c-4.9-3.1-10.3-2.5-15.3-3.8
		c-5.3-1.4-10.8-3.1-16.4-4.1c-7.9-1.4-15.7-4.8-23.1-8.5C366.2,673.2,366.1,672.6,366.1,671.9z M676.1,562
		C676.1,562,676.1,562,676.1,562c-5.3,0-10.6,0-16,0c-1.1,0-2.6-0.1-2.7,1.5c0,1.3,1.2,1.5,2.2,1.4c7.1-0.4,13.8,3.1,21.1,2.2
		c4.1-0.5,8.9-1.6,12.3,0.5c4.5,2.7,8.9,2,13.4,2.4c6.6,0.5,13.5-1.6,19.8,2.6c1.8,1.2,5.2,0.3,7.8,0.2c1.5-0.1,2.2-1.4,2.4-2.8
		c0.1-1-0.4-1.8-1.3-1.7c-4.2,0.4-7.6-2.6-11.3-3c-11.6-1-23.3,0.7-34.8-3.1C685.1,560.9,680.4,562,676.1,562z"/>
	<path class="st2" d="M342.2,662.8c-8.8-4.2-17.9-8-26.4-12.6c-11-6-17.1-16.8-23.6-26.9c-4.8-7.4-9-15.3-11.1-24
		c-0.4-1.5-1.4-2.2-2.9-2.3c0-0.7,0-1.3,0-2c1.4-1.7,1.3-3.3,0-5c0-6,0-12,0-18c3.8,0.9,3.1,4,2.7,6.5c-1.1,7.9,0.5,15.6,2.9,22.8
		c2.4,7.4,6.1,14.6,10.7,21.1c7,9.9,13.2,20.5,24.3,26.7c4.6,2.6,9.6,4.3,14.1,7C336,658,341,657.8,342.2,662.8z"/>
	<path class="st3" d="M555.9,687.9c0.2,3.5-2.5,1.8-3.9,1.9c-3.1,0.2-6.3-0.1-7.1,4.1c-7.7,0-15.3,0-23,0c-0.1-2.5,1.4-3,3.5-3
		c3,0.1,5.9,0,8.9,0c3.4,0,6.6,0,9.8-2.1C547.6,686.6,552,688.4,555.9,687.9z"/>
	<path class="st4" d="M278.1,590c1.3,1.7,1.4,3.3,0,5C278.1,593.3,278.1,591.6,278.1,590z"/>
	<path class="st5" d="M757.9,527.2c0,1.3,0,2.5,0,3.8c-7.5,1.7-14.2,5.6-21.2,8.4c-15,6.1-30.6,10-46.5,12.6
		c-13.7,2.3-27.5,2.2-41.3,1.9c-18.3-0.3-35.9-4.4-53-10.5c-13.2-4.7-25.7-10.9-37.3-18.7c-15.3-10.2-28.6-22.7-40.2-37
		c-7.5-9.3-14.2-19.2-19.4-30c-0.4-0.9-0.7-2.1-1.9-2c-1.7,0.2-1.8,1.8-2,3c-1.6,8.7-3.2,17.3-5.7,25.8
		c-3.3,11.2-5.5,22.7-10.1,33.5c-0.4,0.9-0.2,2-0.3,3c-0.8,1.9-1.6,3.8-2.3,5.7c-0.7,1.7-1.3,3.5,1.3,4.2
		c-1.9,8.5,3.1,13.6,9.1,18.2c0,0.3,0,0.6,0,0.9c-6.7-0.3-9.6-3.3-11-11c-0.2-2.1,0.6-4.4-1-6.7c-1.3,1.7-0.9,3.2-1,4.6
		c-1.3,0.3-2.6,0.7-3.9,1c3.1-8.2,6.8-16.2,9.1-24.6c3.8-13.6,8.4-27,11.2-41c1.4-6.9,2-14.1,4.4-20.9c0.4-1.1,0.5-2.6,1.8-2.8
		c1.6-0.2,1.5,1.5,2,2.4c12.6,27,31.4,48.7,55.2,66.4c25.2,18.8,53.5,29.2,84.5,32.5c38.6,4,75.5-2.5,110.7-18.6
		C752,530.1,754.6,528,757.9,527.2z"/>
	<path class="st2" d="M350.3,667.8c-2.8-1.5-7-0.7-8.1-4.9C345.1,664.1,349.1,663.6,350.3,667.8z"/>
	<path class="st2" d="M366.3,673.8c-2.9-0.6-6.9,2-8.1-3c2.5,1.1,5.2,1.2,7.9,1.1C366.1,672.6,366.2,673.2,366.3,673.8z"/>
	<path class="st2" d="M358.2,670.8c-2.7,0.4-5.2,0.1-6.1-3.1C354.6,667.8,356.7,668.7,358.2,670.8z"/>
	<path class="st6" d="M487,550c0-0.3,0-0.6,0-0.9c2.5,0,5-0.1,7.5-0.1c8.7-0.2,17.6,1.5,25.4-4.1c1.6,0,3.5,0.4,4.1-1.8
		c1.7-1.7,3.4-3.4,5-5.1c2.3-0.6,1.8-2.5,1.9-4.1c2.8-7.8-1.6-18.6-8.7-18.5c-9.9,0.1-20.3-3.7-29.7,2.4c-0.3,0.2-1,0-1.5,0
		c-0.2-1.1-1-1.6-2.1-1.7c1.7-5.1,6.5-5.1,10.5-5.9c2.6-0.5,5.3-0.2,7.4-2.2c0.6-0.6,2.1-1.1,2.7-0.8c7.3,3.9,16.7,1.8,22.9,8.8
		c6.8,7.7,7.1,16.4,0.1,23.8c-5.4,5.7-11.5,10.3-19.2,12.3c-2,0.6-2.5,2-2.4,3.8c0.2,3.2-0.9,6.5,2.8,8.9c4,2.6,8.5,3.6,12.8,4.9
		c15.4,4.9,31.4,6.4,47.2,4.8c9.4-0.9,19.2-0.2,28.3-4.1c1-0.4,2.3-0.4,3.4-0.4c0.8,0,1.8,0.2,1.9,1.2c0.2,1-0.8,1.2-1.4,1.7
		c-3.7,2.7-8.3,4.4-12.3,4.5c-9,0.1-17,5-26.2,3.7c-6.2-0.9-12.6-0.2-19-0.2c-5.8,0-6.5,1.7-4.7,7.4c1.8,5.8,2.7,11.8,4,17.7
		c1.8,9-2.9,16.9-6.4,24.9c-2.3,5.2-6.3,8.7-11.3,11.4c-4.3,2.3-8.9,2.3-12.2-1.2c-3.1-3.3-7.1-5.3-10-9.2
		c-6.5-8.5-9.3-18.3-12.9-27.9c-1-2.6-4.8-3.4-7.5-1c-4.4,4-8.5,8.4-13.7,11.4c-8,4.8-15.1,11.1-24.2,15.1c0-2.8,1.8-4.3,3.2-4.9
		c4.7-2.2,8.8-5.6,12.4-8.7c6.9-5.8,15.7-9.6,20.9-17.2c7-10.2,13.1-20.9,16.4-32.9c0.7-2.6,0.4-5.6,0.3-8.4
		c-0.1-3.3-2.8-2.7-4.9-2.7C493.5,555.1,489.4,554.6,487,550z M540,601.6c0-6.5-0.1-13,0-19.5c0.1-2.9-1-4.3-4.1-4.2
		c-1.8,0.1-4,0.7-5.3-0.7c-2.9-3.2-6.4-2.2-9.8-2.2c-3.9,0.1-6.2,3.8-4,6.9c3.3,4.6,1.3,10.7,4.9,15.2c0.7,0.9,0.1,2.9,0.1,4.4
		c0,0.9-0.3,1.8-1.3,1.9c-1,0.1-1.3-0.7-1.6-1.5c-2.7-7.9-5.5-15.7-7.9-23.6c-0.7-2.4-1.7-3.4-4.1-3.4c-2.3,0-4,0.8-3.9,3.4
		c0,2.2-0.7,4.1-1.7,6.1c-2.1,4.2-3.9,8.4-3.6,13.5c0.2,3.5,2.2,5.8,3.1,8.7c2.1,7.1,5.1,13.8,8.5,20.3c2,3.7,5,7.7,9.2,8.6
		c12.7,2.7,20.7-4.1,21.3-16.6C540.3,613.2,540,607.4,540,601.6z"/>
	<path class="st7" d="M676.1,562c4.3,0,9-1.1,12.9,0.2c11.5,3.8,23.2,2,34.8,3.1c3.7,0.3,7.1,3.3,11.3,3c0.9-0.1,1.5,0.8,1.3,1.7
		c-0.2,1.4-0.9,2.7-2.4,2.8c-2.6,0.2-6,1.1-7.8-0.2c-6.4-4.2-13.2-2-19.8-2.6c-4.5-0.4-8.9,0.4-13.4-2.4c-3.4-2.1-8.2-1-12.3-0.5
		c-7.3,0.9-14-2.6-21.1-2.2c-1,0.1-2.3-0.1-2.2-1.4c0-1.6,1.5-1.5,2.7-1.5C665.5,562,670.8,562,676.1,562
		C676.1,562,676.1,562,676.1,562z"/>
	<path class="st3" d="M690.8,629.6c0.2,1.8-0.1,3.7-1.6,4.4c-5.9,2.7-10.3,8.3-17.3,8.9c2.1-5.5,8.3-6.1,12.1-9.5
		C685.7,632,688.3,630.4,690.8,629.6z"/>
	<path class="st3" d="M627,665c-0.5,6.6-7,5.1-10.5,7.6c-1.2,0.9-4.2,1.6-6.5,0.3c2.3-4.6,8.1-2.3,11.3-5.7
		C622.5,665.9,625,665.7,627,665z"/>
	<path class="st3" d="M740.9,568.1c1.6,4.3-1,8.4-0.6,12.7c0.1,1.7-1.5,3.2-3.7,3.1c0.1-2.9,0.1-5.9,0.5-8.8
		C737.4,572.3,737.9,569.4,740.9,568.1z"/>
	<path class="st8" d="M478,531c-2.5-0.8-1.9-2.5-1.3-4.2c0.8-1.9,1.6-3.8,2.3-5.7c3.1,0.2,4.1-5.3,8-3c0,0.3,0,0.6,0,1
		C482.4,521.8,480.3,526.4,478,531z"/>
	<path class="st3" d="M643.9,657.1c0.1,5-4.4,5.8-7.4,7.4c-1.9,1-5,1.6-7.6,0.4c0.7-1.3,1.3-2.9,3.1-2.8
		C636.9,662.4,640,658.7,643.9,657.1z"/>
	<path class="st3" d="M725.9,596.9c-1.4,4.4-9,12-14,14C715.5,605.2,720.2,600.5,725.9,596.9z"/>
	<path class="st3" d="M584,680.9c-4.9,1.2-8.4,6.4-14.1,5.5c-0.6-0.1-1.2-0.3-1.8-0.4C570.8,682.7,580.2,679.7,584,680.9z"/>
	<path class="st3" d="M703.9,618.8c-2,6.5-6.1,9.9-12.3,10C694.8,624.4,699.8,622.1,703.9,618.8z"/>
	<path class="st3" d="M668.9,644c-1,3.9-8.1,8.7-12,7.9C659.7,647.3,664.2,645.5,668.9,644z"/>
	<path class="st3" d="M606,672.9c-1.8,5.1-5.4,6.7-11,4.9c0.3-1.6,1.2-2.9,2.8-2.8C600.8,675.5,603.3,673.7,606,672.9z"/>
	<path class="st3" d="M654.9,652c-1,5.1-2.6,6.1-8,5C648.4,653.4,652.7,654.3,654.9,652z"/>
	<path class="st3" d="M732.8,589.7c-0.4,4.2-2.9,6.5-7,7.2C727.1,593.5,729.7,591.4,732.8,589.7z"/>
	<path class="st3" d="M711.9,610.9c-0.7,4.1-3,6.4-7.1,7C706.2,614.6,708.5,612.2,711.9,610.9z"/>
	<path class="st3" d="M747.9,564c0.8,4.2-0.6,5.3-5,4C744.6,566.6,746.2,565.3,747.9,564z"/>
	<path class="st8" d="M474,536.9c0.1-1.4-0.3-2.9,1-4.6c1.5,2.3,0.8,4.6,1,6.7C474.8,538.8,474.2,538.1,474,536.9z"/>
	<path class="st3" d="M751.9,554.9c-0.5,2.3,1.6,5.9-3.1,6C749.8,558.9,749.7,556.3,751.9,554.9z"/>
	<path class="st3" d="M590,678c0,2.8-0.4,5-4,2.9C587,679.5,587.9,678,590,678z"/>
	<path class="st9" d="M487,518.9c0-0.3,0-0.6,0-1c0.7-0.7,1.3-1.3,2-2c1.1,0.1,1.8,0.6,2.1,1.8C489.7,518.1,488.4,518.5,487,518.9z"
		/>
	<path class="st3" d="M735.8,584.6c0.1,2.1-1,3.1-3,3.3C733,586.1,734.2,585.2,735.8,584.6z"/>
	<path class="st3" d="M756,545c1.2,1.6-0.1,1.7-1.2,1.9C755.1,546.3,755.6,545.6,756,545z"/>
	<path class="st10" d="M487,518.9c1.4-0.4,2.7-0.8,4.1-1.2c0.5,0,1.1,0.2,1.5,0c9.4-6.1,19.8-2.3,29.7-2.4
		c7.1-0.1,11.5,10.7,8.7,18.5c-2.2,0.6-1.8,2.5-1.9,4.1c-1.7,1.7-3.4,3.4-5,5.1c-1.6,0-3.5-0.4-4.1,1.8c-7.8,5.6-16.8,3.9-25.4,4.1
		c-2.5,0.1-5,0.1-7.5,0.1c-6-4.6-10.9-9.7-9.1-18.2C480.3,526.4,482.4,521.8,487,518.9z"/>
	<path class="st11" d="M540,601.6c0,5.8,0.2,11.7,0,17.5c-0.6,12.5-8.7,19.3-21.3,16.6c-4.2-0.9-7.3-4.9-9.2-8.6
		c-3.5-6.4-6.5-13.2-8.5-20.3c-0.8-2.9-2.9-5.2-3.1-8.7c-0.3-5.1,1.5-9.3,3.6-13.5c1-2,1.7-3.9,1.7-6.1c-0.1-2.6,1.6-3.4,3.9-3.4
		c2.3,0,3.3,1,4.1,3.4c2.4,7.9,5.3,15.7,7.9,23.6c0.3,0.8,0.6,1.7,1.6,1.5c0.9-0.1,1.3-1,1.3-1.9c0-1.5,0.6-3.5-0.1-4.4
		c-3.6-4.5-1.6-10.6-4.9-15.2c-2.2-3.1,0-6.8,4-6.9c3.4-0.1,6.9-1,9.8,2.2c1.3,1.4,3.5,0.7,5.3,0.7c3.1-0.1,4.1,1.2,4.1,4.2
		C539.9,588.6,540,595.1,540,601.6z"/>
	<path class="st5" d="M519.9,544.9c0.7-2.2,2.5-1.8,4.1-1.8C523.4,545.4,521.5,544.9,519.9,544.9z"/>
	<path class="st9" d="M529.1,538c0.1-1.6-0.4-3.5,1.9-4.1C530.9,535.5,531.4,537.4,529.1,538z"/>
</g>
<g>
	<path d="M464,705c-4.1-1.6-8.6-1.3-12.8-1.4c-8.9-0.2-17.5-2.2-26.2-3.3c-6.7-0.8-13.3-2.4-19.9-4.2c-7-1.9-14-3.8-20.9-5.9
		c-12.6-3.7-24.5-8.8-36.1-14.7c-9.4-4.8-18.6-10.1-26.7-17c-2.2-1.8-4-0.9-5.8,0.4c-8,5.6-16,11.3-24,17
		c-6.3,4.5-12.7,8.9-19.6,12.6c-2.3,1.3-4.9,2.9-6.7,0.5c-2.1-2.6-1.1-5.6,1.4-8c6-5.7,12.8-10.7,19.3-15.8c6.4-5,12.8-10,19.4-14.8
		c2.8-2.1,2.2-3.6,0.1-5.5c-6.7-6.2-12.3-13.5-17.4-21.1c-1.6-2.4-3.4-2.7-6-1.4c-10.3,5.2-20.6,10.3-30.9,15.4
		c-3.1,1.6-5.2,4.5-8.4,6c-3.1,1.5-4.4-0.3-5.9-1.8c-1.8-1.9-1.2-3.8,0.5-5.7c6.2-7.1,14.6-10.7,22.5-15.2c5.6-3.2,11.4-6,17-9.1
		c2.2-1.2,3.2-2.1,1.8-5.4c-2.5-5.8-5.3-11.7-6.1-18.2c-0.2-1.7-0.8-2.2-2.7-1.7c-8.8,2.3-17.5,4.7-26.1,7.6
		c-4.4,1.5-9,2.3-13.4,3.6c-5.6,1.7-11.4,3.2-16.7,5.8c-2.6,1.3-4,1.9-5.8-0.4c-1.8-2.3-1.7-4.5,0.5-6.6c4.2-3.8,9.5-5.7,14.7-7.7
		c7-2.7,14.1-5,21.2-7.3c6.6-2.1,13.1-4.3,19.8-5.9c4.4-1,5.9-2.7,5.7-7.5c-0.5-9.9,0-19.7,2.2-29.6c3.9-17.9,11.5-33.7,21.7-48.6
		c0.1-0.1,0.1-0.3,0.3-0.4c2.4-2,3.8-6.6,8.3-3.8c5,3.1,0.9,6.2-0.6,8.8c-6.2,10.6-11.7,21.5-15.7,33.3c-4.2,12.5-5.3,25.1-5.1,38.1
		c0.1,3.7,0.6,4.9,5,3c6.6-2.9,13.8-4.4,20.8-6.5c7-2.1,14.1-4.3,21.1-6.5c7.1-2.2,14.1-4.5,21.2-6.6c1.4-0.4,3-0.1,4.5,0
		c2.2,0.2,3.8,1.2,4,3.6c0.2,2.3-0.9,3.8-2.9,4.7c-9.9,4.3-20.2,7.7-30.3,11.4c-9.1,3.3-18.6,5.7-27.6,9.5c-2.7,1.1-5.7,1-8.5,2.5
		c-4.4,2.4-5.6,4.2-3.9,9.2c1.5,4.2,3.4,8.2,5,12.3c0.8,2,1.9,1.9,3.5,1.1c14.2-7.4,29.1-13.2,43.8-19.5c5.2-2.2,10.9-3.6,16.3-5.2
		c2.5-0.8,4.1,0.8,5.4,2.6c1.3,1.9,0.3,3.5-1.1,4.8c-4,3.9-9.2,6.1-14.2,7.9c-11.2,4.2-21.5,10-32.3,14.8c-3.3,1.5-6.6,2.9-10,4.2
		c-2.8,1.1-4.3,1.9-2,5.3c4.9,7.3,11,13.3,17.1,19.4c1.6,1.6,3.1,2.1,5.2,0.6c9.4-6.8,18.8-13.5,28.3-20.2c2.4-1.7,5.2-3,7.7-0.6
		c2.8,2.6,1.5,5.6-0.4,8.1c-3.1,4-7,7.1-10.9,10.2c-4.4,3.5-8.9,7-13.7,9.9c-3.6,2.2-2.5,3.7,0,5.3c5.7,3.7,11.4,7.3,17.3,10.6
		c10.9,6.1,22.4,11,34.3,15c7.3,2.5,14.8,4.4,22.3,6.5c6.1,1.7,12.3,2.4,18.4,3.9c8.2,1.9,16.7,3.1,25.1,3.5
		c22.6,0.9,45.3,1.7,67.9-0.7c13.4-1.4,26.9-3.2,40.2-6.3c9-2.1,18-4.2,27-6.5c10.5-2.7,20.8-6.5,30.8-10.5
		c16-6.5,31.7-13.8,46.7-22.5c24.6-14.4,46.4-32.2,64.8-53.9c2.8-3.3,5.3-6.8,7.9-10.3c1.6-2.1,1.5-3.6-1.7-3.9
		c-8.9-0.8-17.9-1.9-26.8-2.8c-13-1.2-26.2-1.6-39.2-4.1c-2.9-0.6-6-0.7-8.9-0.8c-3.5-0.1-4.5-2.1-4.6-5.2c-0.1-3.2,1.8-3.9,4.5-3.8
		c13.5,0.3,27-0.7,40.4,2c1.5,0.3,3,0.5,4.5,0.5c10.5,0.3,20.9,1,31.3,2.4c12.2,1.7,9.1,0.4,14.1-9.4c3.6-6.9,4.6-14.7,7.2-22
		c0.3-0.9,0.5-1.9,0.6-2.9c0.6-6.1,0.1-7.1-6-6c-21.8,3.7-43.9,1.4-65.8,3.9c-2.7,0.3-5.4-0.2-7.8-1.5c-1.9-1-4.1-2.5-3.5-4.8
		c0.5-2,2.5-3.8,4.8-3.9c8.4,0,16.3-3,24.7-3c17-0.1,33.8-3.2,50.8-3c4,0,5.4-1.8,4.3-5.7c-2.1-7-1.2-14.6-4-21.4
		c-2-4.9-3.6-9.9-5.7-14.7c-1-2.3-3.3-1.5-4.8-0.8c-17.1,7.4-35,12.8-52.7,18.6c-4.1,1.3-8.3,2.1-12.3,4.1c-3.5,1.7-6.3,0-8-3
		c-2-3.5,0.9-5.4,3.4-6.6c6.7-3.2,13.5-6.3,20.4-9c11.3-4.5,22.8-8.6,34.2-12.8c2.5-0.9,5-1.6,7.5-2.5c4.1-1.5,3.2-3.4,1.4-5.8
		c-7.1-9.5-15.6-17.7-24.7-25.2c-2.6-2.1-5.3-4-8-5.9c-5.6-4.1-5.2-5.1-4-12c1-6.1,2.9-12.2,3.1-18.5c0.5-25.3,1-50.7-0.3-76
		c-0.3-6.5-1-13.5-4.3-19.7c-1.6-3.1-3.6-3.8-6.9-2.8c-8.6,2.7-14.7,9.1-21,14.7c-10.5,9.2-20.2,19.3-30.3,29
		c-1.4,1.4-2.2,2.2-0.2,3.9c2.1,1.7,2.1,4.1,1.1,6.4c-1.1,2.4-3.4,2.2-5.6,2c-3.9-0.3-7.6,0.5-11.5,1.5c-4.1,1.1-9.1,0.6-13.7,0.9
		c-10.9,0.6-21.7,2.9-32.5,4.5c-9.4,1.4-18.2,4.7-27.5,6.2c-1.6,0.2-3,1.2-4.6,1.8c-3.7,1.4-6.8,0.6-9.3-2.5
		c-2.5-3.2-0.7-5.5,1.3-7.9c4.3-5.2,10-8.8,14.7-13.5c1.1-1.1,2.2-2.3,4-4.2c-6.2-0.6-10.4,2.5-15,3.6c-6.8,1.7-13.3,4.4-19.9,6.8
		c-8.2,3-16.3,5.9-24.4,9.1c-9.3,3.7-18.5,7.7-27.8,11.4c-3.1,1.2-5.3-0.6-6.8-2.8c-1.7-2.5-1.8-5.5,0.4-7.9
		c3.6-3.9,7.4-7.7,11.1-11.5c1.6-1.6,3.8-2.8,4.7-5.5c-3.5,0-6.7,1.3-9.3,2.3c-9.4,3.5-19,6.1-28.5,9.3c-8.7,3-17.4,5.8-26,9
		c-11.2,4.2-22.2,8.9-33.1,14c-9.1,4.3-18.2,8.6-26.5,14.3c-0.7,0.5-2,0.8-2,1.3c-0.4,4.8-3.4,4.7-7.1,4.5c-3.5-0.2-5.7-1.2-8.4-4
		c-3.6-3.8-8.8-6.3-13.5-9c-9.6-5.4-19.4-10.5-29.2-15.6c-4.6-2.3-8.6,0.1-8.5,5.4c0.2,8.8,2.1,17.4,4.1,25.9
		c1.2,5.1,1.9,10.3,3.2,15.4c1.8,7,3.6,14,5,21c1.6,8.1,4.3,15.8,6.1,23.8c1.6,7.3,4.4,14.4,6.7,21.6c1.2,3.8,1.6,8.1,5.8,10.4
		c1.1,0.6,1,3.2-0.3,4c-2.3,1.6-5.3,1.8-7.4-0.1c-2.1-1.8-4.4-4.1-5.1-6.6c-1.8-6.8-4.2-13.4-6.3-20.1c-2.4-7.5-4.4-15.1-6.6-22.5
		c-1.4-4.8-2.6-9.8-3.8-14.8c-1.4-5.7-1.7-11.7-4.2-17.2c-1.7-3.9-1.7-8.4-2.7-12.5c-2.7-11.7-4.8-23.8-3.3-36
		c1-8.1,11.5-12.7,19.9-9c15.9,6.9,31.5,14.4,45.2,25.2c2.6,2.1,4.6,2.4,8.1,0.3c15.3-9.5,31.5-17.4,48.3-24.2
		c10.4-4.2,21-8.3,31.6-11.9c9.4-3.2,18.8-6.6,28.6-8.9c7-1.7,13.6-4.8,20.5-6.7c4.2-1.1,8.5-3,13-1c4,1.7,5.3,5.2,2.6,8.6
		c-2.6,3.3-5.5,6.3-8.2,9.4c-0.7,0.7-1.6,1.6-1,2.6c0.7,1.1,2.1,1,3.2,0.4c9.6-5.4,20.3-8.5,30.6-12.2c9.2-3.3,18.5-6.6,28.1-9
		c7-1.7,13.7-4.5,20.5-6.9c2.4-0.9,5-1,7.4-0.5c4,0.8,5.8,5.5,3.7,9c-3.2,5.3-8,8.8-12.6,12.7c-2.2,1.9-4.4,3.9-6.3,6.5
		c4.8-1.4,9.6-1.9,14.3-2.8c10.9-2.1,21.9-4.1,33-4.4c15.9-0.5,15.8-0.3,26.7-11.4c10-10.2,20.1-20.3,30.5-30.1
		c6.1-5.8,12.8-11,20.2-15.2c8.7-5,20.6-0.8,24,8.7c3.5,9.9,5.5,20,5.4,30.6c-0.1,15.5,0,31-0.1,46.5c-0.1,12.5-2,24.7-4.6,36.8
		c-0.6,2.9-0.6,5.4,2.3,7.4c14.4,10.1,27.2,21.8,37.2,36.5c0.9,1.3,2,2.5,4.2,1.6c13.7-6,27.5-12.1,41.4-17.8
		c6.5-2.7,12.7-6.4,19.9-7c1.8-0.2,3.9-0.4,4.7,1.9c0.7,1.9,0,3.4-1.5,4.9c-6.4,5.9-14.4,9.3-22,13c-11.4,5.6-23,10.7-34.6,16
		c-2.6,1.2-2.8,3.4-1.8,5.4c6.4,12.8,8.9,26.5,10.2,40.6c0.2,2.5,1.3,2.9,3.6,2.8c8-0.3,16-0.4,24-0.6c2.2,0,4.2-0.2,6.2-1.5
		c3.1-2,5.5-0.6,6.7,2.5c1.3,3.3-0.9,5-3.7,5.8c-10.2,3.1-20.5,5.5-31.2,5.3c-4.2-0.1-5.8,1.8-6.9,5.5c-1.6,5.6-1.4,11.4-3.4,17
		c-2.3,6.3-4.4,12.7-7.1,18.9c-1.4,3.3-0.7,4.5,2.5,4.3c12.9-0.6,25.5,2.6,38.3,2.9c2.3,0.1,4.9-0.6,5.3,2.9c0.4,3.1-1.7,4.6-4,5.6
		c-1.3,0.6-2.9,0.5-4.4,0.5c-13.2,0-26.3,0.4-39.4-2.2c-3.5-0.7-5.9,0.4-7.8,3.6c-12.7,20.6-29.2,38-48.1,52.9
		c-16.2,12.8-33.8,23.6-52.5,32.8c-13.3,6.6-27,12.4-40.9,17.3c-10.1,3.5-20.4,6.4-30.8,9.1c-10.4,2.7-21,5-31.5,6.6
		c-9.3,1.5-18.6,4.1-28.2,3.5c-2.9-0.2-5.7,0-8.1,1.8C494,705,479,705,464,705z"/>
	<path d="M492.6,606.6c-11.4,11.5-25.9,18.4-38.8,27.5c-3,2.1-6.7,3.3-10.1,4.9c-2.3,1.1-3.4-0.8-4.6-1.9c-1.5-1.4-0.3-2.6,0.8-3.8
		c6.4-6.9,14-12.3,21.6-17.6c14-9.7,26.7-20.3,33.7-36.3c2.2-5,4.1-10,5.8-15.2c1.4-4.3,0.2-5.6-4.3-5.7
		c-10.2-0.3-18.5-4.6-23.2-13.6c-3-5.8-2.6-12.5,0.4-18.7c6.3-12.9,30-23.9,46-19.4c7.7,2.1,14.5,4.6,18.7,11.7
		c6.3,10.8,2.9,18.2-4.1,26.7c-4.5,5.5-10.6,8.8-17.5,10.8c-1.5,0.4-3,1-3.3,2.7c-0.3,1.9,0.9,3.2,2.5,3.9
		c9.5,3.8,18.9,7.4,29.3,8.4c7.9,0.8,15.8,2.4,23.8,1.6c10.9-1.1,21.9-1.1,32.5-4.1c3.9-1.1,8.2,0.6,11.8-2.5c0.9-0.8,2.7,1,3.5,2.3
		c0.9,1.4-0.1,2.3-0.9,3.5c-2.6,3.7-6.6,5.8-10.5,7c-4.4,1.3-8.8,2.7-13.3,3.6c-13.8,3-27.8,2.4-41.7,2.4c-3,0-2.8,1.1-2.2,3.7
		c3.1,12.8,5.1,25.8,0.5,38.7c-3,8.4-7.3,16.2-16.2,19.7c-5.2,2-10.7,2.3-15.8-0.9c-11.3-7.2-17.8-17.9-21.3-30.6
		C495.1,612.5,493.8,609.7,492.6,606.6z M508.5,580.3c-1.9,4.3-3.2,8-5.2,11.3c-2.1,3.4-1.7,6.6-0.4,10c1.5,3.8,3.1,7.6,4.6,11.4
		c3,7.2,6.3,14.2,12.5,19.4c4.4,3.7,7.2,4.1,11.3,0.2c3.8-3.6,6.1-8.3,6.7-13.5c1.3-11.1,0.1-22.2-0.4-33.3
		c-0.1-1.6-0.2-3.3-2.2-3.3c-4.3-0.1-7.7-2.7-11.9-3.4c-2.8-0.5-3.2,0.5-2.4,2.3c3.4,8.3,3.9,17.3,6.8,25.7c0.5,1.5,0.5,3.3,0.5,4.9
		c0,1.8-0.7,3.3-2.5,3.9c-1.7,0.6-2.8-0.3-3.9-1.5c-3.9-4.2-5.7-9.5-7.6-14.7C512.4,593.4,510.6,587.2,508.5,580.3z M499.3,547
		c11.8,0.7,20-2.8,26.6-10.1c4-4.5,4.6-9.5,1-13.3c-2.2-2.3-5-4.1-8.5-4.7c-5.3-0.8-10.6-0.6-15.8,0.1c-7.8,1-14,5-18.4,11.3
		c-4.1,5.9-2.5,10.2,3.6,14.5C492.1,548,496.8,546.6,499.3,547z"/>
	<path d="M509.2,446.9c0-11.7,4.7-17.8,14-18.3c8.4-0.4,14,6.4,15.7,14c1.3,5.6,1.5,11.4,0.5,17.4c-0.8,4.8-3.3,8.3-6.6,11.3
		c-6.2,5.6-13.7,1.6-17.7-4.4C509.1,457.9,508.8,457.7,509.2,446.9z"/>
	<path d="M453.4,463.9c-0.1-13.7,7.6-20.9,18.5-19.7c4,0.5,6.4,3.2,8.2,5.9c6.4,9.3,8.8,17.9,3.1,28.3c-5.8,10.5-15.9,12-24,1.6
		C455.2,474.7,453.2,468.6,453.4,463.9z"/>
	<path d="M520.7,381.1c13.2,1,21,7.3,26,17.5c1.7,3.4,3.6,6.7,2.8,10.8c-0.3,1.9-0.5,3.7-2.7,4.3c-2,0.6-3.7-0.2-4.8-1.7
		c-3-3.9-5.9-8-8.9-11.9c-5.3-7-10.9-8.4-19-4.9c-2.7,1.1-5.9,2-7.4-1.3c-1.7-3.9,0.2-7.5,3.7-9.2
		C514.1,382.9,517.7,380.3,520.7,381.1z"/>
	<path d="M427.6,430.4c-0.7-9.8,9.4-21.7,19.3-25.3c5.2-1.9,10.4-3.3,15.9-2.8c2.3,0.2,4.4,0.8,4.9,3.4c0.5,2.4-1.5,3-3.2,3.8
		c-5.7,3-11.4,6-17.2,9c-6,3.1-8.6,8.8-9.7,14.8c-0.7,3.7-0.6,7.3-5.5,7c-4.8-0.3-4.7-4.3-4.8-7.9
		C427.5,431.7,427.6,431,427.6,430.4z"/>
</g>
</svg>
