<svg id="图层_1" data-name="图层 1" xmlns="http://www.w3.org/2000/svg" viewBox="0 0 496.67 648.71"><defs><style>.cls-1,.cls-5{fill:#3f1f1f;}.cls-1,.cls-2,.cls-3,.cls-4{stroke:#402020;stroke-miterlimit:10;}.cls-2{fill:#eeb883;}.cls-3{fill:#efefef;}.cls-4{fill:#e47a56;}.cls-6{fill:none;stroke:#3f1f1f;stroke-linecap:round;stroke-linejoin:round;stroke-width:2.99px;}</style></defs><title>支付宝红包封面大赛-源文件</title><path class="cls-1" d="M434.56,261.5a7.65,7.65,0,0,0-3.82-4.86c-6-3.62-13.76,5.74-22.69,16.57-5.5,6.67-11.18,13.56-15.81,16.2-11,6.26-35.37-5-35.61-5.1l-.1,0c-6.12-23.68-24.79-51.21-77.74-55.59-47.26-3.91-82.39,4-104.39,23.58-17.87,15.9-21,34.26-21.52,39.47-1.93-.36-3.45-.6-4.33-.73l-9.74-21.11a1.5,1.5,0,0,0-2.44-.41l-18.23,19.07c-29.45,10-44.84,34.15-40.2,63.2A44.6,44.6,0,0,0,86,371c8.42,11.68,20.67,18.24,29.47,21.68a159.84,159.84,0,0,0,56.69,10.82,119.45,119.45,0,0,0,15.86-1,51.68,51.68,0,0,0,18.1-5.72c-5.1,9.53-14.75,31.61-1.5,42.42a1.5,1.5,0,0,0,1.81.06,14.92,14.92,0,0,0,3.82-4c.42,1.14.88,2.57,1.23,3.85a1.5,1.5,0,0,0,1.15,1.06,16.41,16.41,0,0,0,3,.3,6.25,6.25,0,0,0,4.42-1.36,3.17,3.17,0,0,0,.93-2.17c.25.22.5.46.73.69a1.49,1.49,0,0,0,2.56-.84c.23-1.89,6.22-45.43,59.76-54.69-2.76,4.14-6.65,11.15-4.3,14.94,1.07,1.74,2.36,2.62,3.82,2.62h0a4.63,4.63,0,0,0,3.21-1.62c1.33.75,3.17,1.49,4.53.81a4.85,4.85,0,0,1,.86-.23c1.2-.27,3.37-.74,3.87-3.33a12.67,12.67,0,0,1,2.45,1.68,1.5,1.5,0,0,0,1.88.06c5.67-4.31,9.09-7.63,10.24-9.91,3.86.28,5.61-.16,6.44-.68a4.84,4.84,0,0,1,1.32,2.51,2,2,0,0,0,.73,1.78,2.78,2.78,0,0,0,1.95.53,22.2,22.2,0,0,0,6.86-1.58l.23-.1c13.61-7.51,32.94-48.47,31.09-86.86,6.82,4,26.8,14.15,42,6.18,14.65-7.67,20.51-19.87,24-27.15.36-.75.69-1.45,1-2.08a48.2,48.2,0,0,1,3.17-5.08C432.4,270.17,435.48,265.66,434.56,261.5Z"/><path class="cls-2" d="M176.45,254.46c21.37-19,55.72-26.63,102.09-22.79,29.61,2.45,66.81,14.26,75.87,56.6a85.33,85.33,0,0,1,1.51,10.17l-66.31-.82h0a1.49,1.49,0,0,0-1.29.75c-11.91,20.84-57.46,40.59-65.64,44-.78-2.18-1.61-4.31-2.45-6.41a93.44,93.44,0,0,1-4.8-14.45s0-.07-7.57-35.33a1.51,1.51,0,0,0-1.19-1.16,1.54,1.54,0,0,0-1.53.66c-3.18,4.94-12.9,17.91-19.51,18.61a3.87,3.87,0,0,1-3.39-1.2c-5.64-5.64-18.09-9-26.39-10.77C156.27,288,159.13,269.82,176.45,254.46Z"/><path class="cls-2" d="M119.43,291.28a1.5,1.5,0,0,0,.61-.38l17-17.75L146.18,293a1.5,1.5,0,0,0,1.16.86c.25,0,24.81,3.39,32.77,11.34a6.83,6.83,0,0,0,5.81,2.06c7.21-.77,15.88-11.7,19.72-17.06,1.89,8.79,6.79,31.66,6.84,31.91a95.63,95.63,0,0,0,5,14.95c2.58,6.53,5.25,13.29,5.73,20.87.09,1.35.12,2.67.1,4-50.69-.74-66.61-42.71-66.76-43.14a1.5,1.5,0,0,0-2.67-.29c-10.2,16-62.89,10.41-72,9.3C86.34,311,99.4,298,119.43,291.28Z"/><path class="cls-3" d="M187.6,399.51c-21.66,2.91-48.23-.69-71.07-9.63-8.43-3.3-20.14-9.55-28.14-20.64a41.73,41.73,0,0,1-7.5-17.94,57.38,57.38,0,0,1,.26-20.59c8.29,1.05,59.28,6.82,73.57-8.51a74.06,74.06,0,0,0,13.81,20c9.76,10.15,27.15,22.29,54.6,22.72C221.69,383.91,208.82,396.66,187.6,399.51Z"/><path class="cls-3" d="M326.8,386.84a26.34,26.34,0,0,1-5.5,1.38c-.35-2.11-2.27-4.59-3.78-5a1.94,1.94,0,0,0-2.2.72,15.75,15.75,0,0,1-4.46.18c-1.09-9.54,5.1-18.46,5.17-18.55a1.5,1.5,0,0,0,.23-1.2,1.47,1.47,0,0,0-.73-1c-23.11-12.75-16.14-46.79-16.07-47.14a1.49,1.49,0,1,0-2.92-.62c-.08.36-7.23,35.2,16.17,49.57-1.92,3.2-6.16,11.51-4.64,20.42h0c-.37,1.26-4.53,5.11-8.58,8.27-1.59-1.21-3.49-2.21-4.92-1.62a2.36,2.36,0,0,0-1.42,2.15c-.06.8-.24.94-1.62,1.24a5.67,5.67,0,0,0-1.44.44,7.24,7.24,0,0,1-2.78-1.31,1.5,1.5,0,0,0-1.18-.24,1.45,1.45,0,0,0-1,.7c-.3.49-1.09,1.38-1.62,1.38h0c-.34,0-.82-.45-1.28-1.2-1.51-2.43,2.73-9.94,6.22-14.49a1.5,1.5,0,0,0,.1-1.66,1.46,1.46,0,0,0-1.49-.72c-51.08,7.14-63,44.78-65.29,55.17-1.71-1.15-2.57-.7-2.91-.53-1,.51-1.28,1.61-.94,3.25.06.27.05.44,0,.52-.48.49-2.24.57-3.84.37-2-6.91-3.11-6.87-4-6.85-.42,0-1.44.21-1.77,1.77a8.31,8.31,0,0,1-2.7,3.82c-13-12.53,5.43-41.91,5.63-42.21a1.56,1.56,0,0,0,.21-.58c10.31-8,15.69-20.35,14.73-35.52a51.1,51.1,0,0,0-2.53-12.54c8-3.28,53.57-22.79,66.82-44.6l65.7.82C358.35,338.56,339.64,379.59,326.8,386.84Z"/><path class="cls-2" d="M427,272.85a50.22,50.22,0,0,0-3.37,5.42c-.33.65-.67,1.36-1,2.12-3.34,7-8.94,18.59-22.7,25.81-15.39,8.05-37.39-5-40.87-7.18a91.63,91.63,0,0,0-1.61-11.12c6.35,2.68,25.91,10.06,36.34,4.1,5.1-2.91,11-10,16.63-16.89,7-8.53,15-18.21,18.85-15.91a4.69,4.69,0,0,1,2.45,2.95C432.28,265,429.46,269.19,427,272.85Z"/><path class="cls-4" d="M188.42,245.84s48.92,29.6,47.66,46.83-24.38-5.05-24.38-5.05L180,251.41Z"/><path class="cls-4" d="M220.53,234.18s48.75,28.37,47.49,45.6-24.38-5-24.38-5l-33.41-38.25Z"/><path class="cls-4" d="M258,230.71s47.45,27.07,46.19,44.31-24.37-5-24.37-5l-33.28-39.05Z"/><path class="cls-4" d="M301.47,235.33s46,25.26,44.72,42.49-24.38-5.05-24.38-5.05l-33.69-40.06Z"/><circle class="cls-5" cx="113.8" cy="350.33" r="5.05"/><circle class="cls-5" cx="168.63" cy="363.85" r="5.05"/><path class="cls-6" d="M123.19,367.56s7.63,18.38,15.48-.73c0,0,3,22.4,13,8.78"/></svg>