<?xml version="1.0" standalone="no"?><!DOCTYPE svg PUBLIC "-//W3C//DTD SVG 1.1//EN" "http://www.w3.org/Graphics/SVG/1.1/DTD/svg11.dtd"><svg t="1649681471629" class="icon" viewBox="0 0 1027 1024" version="1.1" xmlns="http://www.w3.org/2000/svg" p-id="133083" xmlns:xlink="http://www.w3.org/1999/xlink" width="200.5859375" height="200"><defs><style type="text/css">@font-face { font-family: "feedback-iconfont"; src: url("//at.alicdn.com/t/font_1031158_u69w8yhxdu.woff2?t=1630033759944") format("woff2"), url("//at.alicdn.com/t/font_1031158_u69w8yhxdu.woff?t=1630033759944") format("woff"), url("//at.alicdn.com/t/font_1031158_u69w8yhxdu.ttf?t=1630033759944") format("truetype"); }
</style></defs><path d="M989.690488 1.764529a6.819996 6.819996 0 0 0-5.800997 2.316999L862.894553 177.573438a39.40398 39.40398 0 0 1-32.204983 17.116991H559.97971a39.03198 39.03198 0 0 1-31.044984-15.669992L391.967797 0.87253A3.511998 3.511998 0 0 0 389.649798 0.00053a5.794997 5.794997 0 0 0-2.612998 0.583L360.619813 951.997037a40.379979 40.379979 0 0 1-39.747979 39.74898h-0.288a322.911833 322.911833 0 0 1-129.696933-28.727985c-0.288 0-0.583-0.288-0.870999-0.288a132.259932 132.259932 0 0 1-79.791959-121.281938c-1.453999-41.489979 11.602994-83.584957 22.047989-117.222939 2.317999-7.831996 4.642998-15.086992 6.384996-21.471989a577.739701 577.739701 0 0 0 23.501988-175.541909c-2.029999-84.139956-59.479969-156.099919-143.042926-179.602907a19.71599 19.71599 0 0 0-5.513997-0.869999c-8.996995 0-12.769993 11.602994-13.344993 16.245991-1.741999 12.769993 5.801997 14.799992 9.832995 15.957992C56.511971 392.000327 90.457953 417.532314 110.770943 455.250294c43.232978 79.791959 12.186994 187.145903-10.443995 265.504863-1.741999 6.089997-3.511998 11.898994-5.225997 17.699991C76.240961 805.184113 75.953961 850.13709 93.646952 905.000062c29.303985 90.236953 140.724927 114.026941 229.219881 118.381938a36.207981 36.207981 0 0 1 6.089997 0.583h660.375658a36.319981 36.319981 0 0 0 26.985986-11.898994 39.29198 39.29198 0 0 0 10.732994-27.561986L997.234484 6.694527c-0.288-4.641998-7.255996-4.915997-7.543996-4.915998zM552.436714 520.270261a113.738941 113.738941 0 1 1 113.724941-113.752941 113.920941 113.920941 0 0 1-113.724941 113.752941z m299.725845 0A113.738941 113.738941 0 1 1 965.8995 406.53232a113.920941 113.920941 0 0 1-113.737941 113.738941z m0 0" fill="#d4237a" p-id="133084"></path><path d="M552.429714 363.286342a43.231978 43.231978 0 1 0 43.231978 43.231978 43.337978 43.337978 0 0 0-43.231978-43.231978z m0 0h299.724845a43.231978 43.231978 0 1 0 43.232978 43.231978 43.337978 43.337978 0 0 0-43.232978-43.231978z m0 0" fill="#d4237a" p-id="133085"></path></svg>