<?xml version="1.0" standalone="no"?><!DOCTYPE svg PUBLIC "-//W3C//DTD SVG 1.1//EN" "http://www.w3.org/Graphics/SVG/1.1/DTD/svg11.dtd"><svg t="1649680054736" class="icon" viewBox="0 0 1024 1024" version="1.1" xmlns="http://www.w3.org/2000/svg" p-id="1968" xmlns:xlink="http://www.w3.org/1999/xlink" width="200" height="200"><defs><style type="text/css">@font-face { font-family: "feedback-iconfont"; src: url("//at.alicdn.com/t/font_1031158_u69w8yhxdu.woff2?t=1630033759944") format("woff2"), url("//at.alicdn.com/t/font_1031158_u69w8yhxdu.woff?t=1630033759944") format("woff"), url("//at.alicdn.com/t/font_1031158_u69w8yhxdu.ttf?t=1630033759944") format("truetype"); }
</style></defs><path d="M986.808 869.312c0 54.272-44.412 98.688-98.692 98.688H142.688C88.412 968 44 923.584 44 869.312V324.092c0-54.276 44.412-98.688 98.688-98.688h745.428c54.28 0 98.692 44.412 98.692 98.688v545.22z" fill="#6E6E96" opacity=".3" p-id="1969"></path><path d="M710.864 821.328c0 21.712-17.76 39.472-39.472 39.472H186.952c-21.712 0-39.476-17.76-39.476-39.472V372.308c0-21.712 17.764-39.476 39.476-39.476h484.432c21.712 0 39.476 17.764 39.476 39.476l0.004 449.02z" fill="#FFBD6A" p-id="1970"></path><path d="M623.536 737.976c0 15.288-13.036 27.796-28.964 27.796H238.976c-15.936 0-28.976-12.508-28.976-27.796v-316.2c0-15.288 13.036-27.8 28.976-27.8h355.584c15.928 0 28.972 12.508 28.972 27.8v316.2h0.004z" fill="#FFDF7F" p-id="1971"></path><path d="M623.536 737.976c0 15.288-13.036 27.796-28.964 27.796H238.976c-15.936 0-28.976-12.508-28.976-27.796v-316.2c0-15.288 13.036-27.8 28.976-27.8h355.584c15.928 0 28.972 12.508 28.972 27.8v316.2h0.004z" fill="#FFDF7F" p-id="1972"></path><path d="M671.392 890.8H186.952c-38.308 0-69.476-31.164-69.476-69.472V372.308c0-38.312 31.168-69.476 69.476-69.476h484.432c38.308 0 69.476 31.168 69.476 69.476v449.02c0.004 18.508-7.236 35.944-20.38 49.084-13.14 13.152-30.572 20.388-49.088 20.388zM186.952 362.832c-5.136 0-9.476 4.34-9.476 9.476v449.02c0 5.132 4.336 9.472 9.476 9.472h484.44c5.132 0 9.472-4.34 9.472-9.472l-0.004-449.02c0-5.136-4.34-9.476-9.476-9.476H186.952z" fill="#6E6E96" p-id="1973"></path><path d="M847.208 393.524m-59.692 0a59.692 59.692 0 1 0 119.384 0 59.692 59.692 0 1 0-119.384 0Z" fill="#FFFFFF" p-id="1974"></path><path d="M847.208 587.876m-59.692 0a59.692 59.692 0 1 0 119.384 0 59.692 59.692 0 1 0-119.384 0Z" fill="#FFFFFF" p-id="1975"></path><path d="M888.116 195.404h-317.136L187.616 38.24a29.992 29.992 0 0 0-39.136 16.38 30 30 0 0 0 16.38 39.136L412.8 195.404H142.688C71.728 195.404 14 253.132 14 324.092v545.22c0 70.952 57.728 128.688 128.688 128.688h745.428c70.96 0 128.692-57.736 128.692-128.688V324.092c0-70.96-57.728-128.688-128.692-128.688z m68.692 673.908c0 37.876-30.812 68.688-68.692 68.688H142.688c-37.876 0-68.688-30.812-68.688-68.688V324.092c0-37.876 30.812-68.688 68.688-68.688h422.204l0.164 0.008 0.104-0.008h322.956c37.88 0 68.692 30.812 68.692 68.688v545.22z" fill="#6E6E96" p-id="1976"></path><path d="M862.116 896.408H116.688c-54.276 0-98.688-44.416-98.688-98.688v59.48c0 54.272 44.412 98.692 98.688 98.692h745.428c54.28 0 98.692-44.416 98.692-98.692v-59.48c0 54.268-44.408 98.688-98.692 98.688z" fill="#6E6E96" opacity=".3" p-id="1977"></path><path d="M366 526h-108a30 30 0 0 1 0-60h108a30 30 0 0 1 0 60z" fill="#78FFF5" opacity=".3" p-id="1978"></path><path d="M366 479.216h-108a30 30 0 0 1 0-60h108a30 30 0 0 1 0 60z" fill="#FFFFFF" p-id="1979"></path></svg>