<?xml version="1.0" standalone="no"?><!DOCTYPE svg PUBLIC "-//W3C//DTD SVG 1.1//EN" "http://www.w3.org/Graphics/SVG/1.1/DTD/svg11.dtd"><svg t="1649680100284" class="icon" viewBox="0 0 1024 1024" version="1.1" xmlns="http://www.w3.org/2000/svg" p-id="2689" xmlns:xlink="http://www.w3.org/1999/xlink" width="200" height="200"><defs><style type="text/css">@font-face { font-family: "feedback-iconfont"; src: url("//at.alicdn.com/t/font_1031158_u69w8yhxdu.woff2?t=1630033759944") format("woff2"), url("//at.alicdn.com/t/font_1031158_u69w8yhxdu.woff?t=1630033759944") format("woff"), url("//at.alicdn.com/t/font_1031158_u69w8yhxdu.ttf?t=1630033759944") format("truetype"); }
</style></defs><path d="M36 736h636v132H36z" fill="#FFFF80" p-id="2690"></path><path d="M36 113.036h945.928v610.348H36z" fill="#67C7C1" p-id="2691"></path><path d="M366.192 412m-216 0a216 216 0 1 0 432 0 216 216 0 1 0-432 0Z" fill="#FFFF00" p-id="2692"></path><path d="M740 562h140v60h-140zM740 442h140v60h-140z" fill="#6E6E96" p-id="2693"></path><path d="M368.776 413.14m-60.96 0a60.96 60.96 0 1 0 121.92 0 60.96 60.96 0 1 0-121.92 0Z" fill="#FFFFFF" p-id="2694"></path><path d="M607.904 457.508c0.344-1.392 0.612-2.796 0.752-4.22a246.48 246.48 0 0 0 3.536-41.288c0-73.824-32.732-140.104-84.392-185.232a30.416 30.416 0 0 0-5.108-4.428C480.132 187.164 425.588 166 366.192 166a244.848 244.848 0 0 0-81.384 13.896 30 30 0 0 0-2.748 0.932C201.548 210.22 140.624 280.56 124.48 366.5a30.132 30.132 0 0 0-0.756 4.216 246.44 246.44 0 0 0-3.532 41.288c0 73.876 32.78 140.196 84.5 185.328 1.528 1.652 3.232 3.132 5.084 4.404C252.32 636.868 306.832 658 366.192 658a244.748 244.748 0 0 0 81.44-13.916c0.556-0.16 1.092-0.364 1.64-0.56 81.024-29.156 142.412-99.708 158.632-186.016z m-168.26 125.344c-37.88-17.388-58.192-43.508-61.484-79.236a90.248 90.248 0 0 0 31.336-9.176c24.944 15.484 51.084 23.204 77.66 23.204 11.588 0 23.26-1.476 34.952-4.416-19.936 30.604-48.6 55.012-82.464 69.624z m-184.68-21.86c-3.96-42.536 9.288-73.64 40.272-94.412a91.608 91.608 0 0 0 22.488 21.796c-1.096 43.44 12.664 80.544 40.052 109.408a184.944 184.944 0 0 1-102.812-36.792z m222.452-297.988c3.868 41.5-8.62 72.108-38.02 92.888a91.584 91.584 0 0 0-24.772-21.264c0.756-42.936-13.112-79.76-40.236-108.42a185.012 185.012 0 0 1 103.028 36.796z m-108.64 119.176c17.072 0 30.96 13.888 30.96 30.96 0 17.072-13.888 30.96-30.96 30.96-1.976 0-3.9-0.204-5.772-0.56a29.904 29.904 0 0 0-8.232-2.824c-10.048-5.124-16.956-15.544-16.956-27.576 0-17.072 13.888-30.96 30.96-30.96zM552.192 412c0 7.412-0.484 14.708-1.332 21.896-35.188 25.36-67.228 30.488-98.72 15.588a90.4 90.4 0 0 0 7.576-35.512c36.244-20.764 60.396-50.728 71.436-87.744a184.768 184.768 0 0 1 21.04 85.772zM292.724 241.156c38.868 17.844 59.184 44.892 61.668 82.172a90.276 90.276 0 0 0-28.436 9.588c-0.108-0.068-0.204-0.148-0.312-0.216-37.4-23.164-77.064-29.932-116.204-20.636 19.964-31.2 48.948-56.088 83.284-70.908zM180.192 412c0-7.376 0.48-14.64 1.32-21.796 35.3-25.028 69.224-28.864 103.172-11.696a90.328 90.328 0 0 0-6.644 28.56c-39.276 20.824-65.3 51.788-76.868 90.596A184.832 184.832 0 0 1 180.192 412z" fill="#6E6E96" p-id="2695"></path><path d="M932 66H96C46.372 66 6 106.372 6 156v836h60v-226H932c49.624 0 90-40.376 90-90V156c0-49.628-40.376-90-90-90z m30 610c0 16.544-13.452 30-30 30H66V156c0-16.544 13.456-30 30-30h836c16.548 0 30 13.456 30 30v520z" fill="#6E6E96" p-id="2696"></path><path d="M672 706H36a30 30 0 0 0-30 30v132a30 30 0 0 0 30 30h636c16.572 0 30-13.428 30-30v-132c0-16.572-13.428-30-30-30z m-234 60v72h-156v-72h156z m-372 0h156v72h-156v-72z m576 72h-144v-72h144v72z" fill="#6E6E96" p-id="2697"></path><path d="M36 654h945.928v60H36z" fill="#6E6E96" opacity=".15" p-id="2698"></path></svg>