<?xml version="1.0" standalone="no"?><!DOCTYPE svg PUBLIC "-//W3C//DTD SVG 1.1//EN" "http://www.w3.org/Graphics/SVG/1.1/DTD/svg11.dtd"><svg t="1649682844024" class="icon" viewBox="0 0 1024 1024" version="1.1" xmlns="http://www.w3.org/2000/svg" p-id="42025" xmlns:xlink="http://www.w3.org/1999/xlink" width="200" height="200"><defs><style type="text/css">@font-face { font-family: "feedback-iconfont"; src: url("//at.alicdn.com/t/font_1031158_u69w8yhxdu.woff2?t=1630033759944") format("woff2"), url("//at.alicdn.com/t/font_1031158_u69w8yhxdu.woff?t=1630033759944") format("woff"), url("//at.alicdn.com/t/font_1031158_u69w8yhxdu.ttf?t=1630033759944") format("truetype"); }
</style></defs><path d="M688 96H336c-8.84 0-16 7.16-16 16v16h384v-16c0-8.84-7.16-16-16-16zM283.58 951.15c2.71 5.42 8.25 8.85 14.31 8.85h428.22c6.06 0 11.6-3.42 14.31-8.85 8.81-17.62 15.48-36.14 20.1-55.15H263.48c4.62 19.01 11.29 37.54 20.1 55.15z" fill="#E6E6E6" p-id="42026"></path><path d="M768 253.07c0-9.93-1.62-19.71-4.6-29.07H260.6c-2.98 9.36-4.6 19.14-4.6 29.07v581.27c0 20.85 2.59 41.54 7.48 61.67h497.04c4.89-20.13 7.48-40.81 7.48-61.67V253.07z" fill="#517EDB" p-id="42027"></path><path d="M751.88 199.81L704 128H320l-47.88 71.81c-5.01 7.51-8.82 15.68-11.53 24.19h502.8c-2.69-8.51-6.51-16.68-11.51-24.19z" fill="#6591F0" p-id="42028"></path><path d="M512 336c97.05 0 176 78.95 176 176s-78.95 176-176 176-176-78.95-176-176 78.95-176 176-176m0-16c-106.04 0-192 85.96-192 192s85.96 192 192 192 192-85.96 192-192-85.96-192-192-192z" fill="#F3F3F3" p-id="42029"></path><path d="M649.36 430.18c0-10.31-0.45-20.2-1.27-29.75C615.81 361.1 566.84 336 512 336c-97.2 0-176 78.8-176 176 0 31.62 8.45 61.23 23.06 86.88 33.47-0.36 65.1-1.04 92.33-1.04 159.55 0 197.97-85.84 197.97-167.66z" fill="#FFFFFF" p-id="42030"></path><path d="M612.97 367.98C584.37 347.89 549.6 336 512 336c-97.2 0-176 78.8-176 176 0 30.61 7.84 59.38 21.58 84.46 126.93-11.97 229.95-105.97 255.39-228.48z" fill="#DF7867" p-id="42031"></path></svg>