<?xml version="1.0" standalone="no"?><!DOCTYPE svg PUBLIC "-//W3C//DTD SVG 1.1//EN" "http://www.w3.org/Graphics/SVG/1.1/DTD/svg11.dtd"><svg t="1649682667319" class="icon" viewBox="0 0 1024 1024" version="1.1" xmlns="http://www.w3.org/2000/svg" p-id="28330" xmlns:xlink="http://www.w3.org/1999/xlink" width="200" height="200"><defs><style type="text/css">@font-face { font-family: "feedback-iconfont"; src: url("//at.alicdn.com/t/font_1031158_u69w8yhxdu.woff2?t=1630033759944") format("woff2"), url("//at.alicdn.com/t/font_1031158_u69w8yhxdu.woff?t=1630033759944") format("woff"), url("//at.alicdn.com/t/font_1031158_u69w8yhxdu.ttf?t=1630033759944") format("truetype"); }
</style></defs><path d="M556.8 825.7c-4.8 37.1-33.1 66.6-69.9 73.1-25.4 4.5-59 8.1-101.5 8.1-41.7 0-74.6-3.5-99.5-7.9-36.7-6.5-64.9-36.1-69.7-73.1L189.5 620c-2.3-17.9 13.9-32.7 31.5-28.7 32.1 7.2 86.1 15.4 165.5 15.4s133.4-8.2 165.5-15.4c17.6-4 33.8 10.8 31.5 28.7l-26.7 205.7z" fill="#C6A07D" p-id="28331"></path><path d="M385.4 917c-37.1 0-71.1-2.7-101.2-8-41.2-7.3-72.4-40.1-77.8-81.7l-26.7-205.9c-1.5-11.7 2.8-23.3 11.4-31.2 8.7-7.9 20.7-11.1 32.2-8.5 30.9 6.9 84.3 15.2 163.3 15.2 79 0 132.4-8.3 163.3-15.2 11.5-2.6 23.5 0.6 32.2 8.5 8.7 7.9 12.9 19.6 11.4 31.2L566.7 827c-5.4 41.5-36.8 74.4-78 81.7-30.9 5.5-65.7 8.3-103.3 8.3zM215.2 600.8c-3.9 0-7.7 1.5-10.7 4.2-3.9 3.6-5.8 8.6-5.1 13.9l26.7 205.9c4.3 32.9 29 58.8 61.5 64.6 28.9 5.1 61.8 7.7 97.7 7.7 36.5 0 70.1-2.7 99.8-8 32.6-5.8 57.4-31.8 61.7-64.6l9.9 1.3-9.9-1.3 26.7-205.6c0.7-5.3-1.2-10.3-5.1-13.9-3.9-3.6-9.1-5-14.3-3.8-31.9 7.2-86.9 15.7-167.7 15.7-80.8 0-135.8-8.5-167.7-15.7-1.1-0.3-2.3-0.4-3.5-0.4z" fill="#543630" p-id="28332"></path><path d="M616.5 529.2c0 18.6-103 28.4-230 28.4s-230-9.9-230-28.4 85.1-59.9 225.4-59.9 234.6 41.3 234.6 59.9z" fill="#916C53" p-id="28333"></path><path d="M386.5 567.6c-64.6 0-122.7-2.6-163.8-7.3-21.9-2.5-39.1-5.6-51.1-9.3-6.9-2.1-25.2-7.6-25.2-21.8 0-22.2 46.8-39.9 67-46.4 46.4-15.2 106.3-23.5 168.4-23.5 62.4 0 123.8 8.3 172.8 23.5 20.2 6.2 37.5 13.4 49.9 20.7 14.7 8.7 21.8 17.1 21.8 25.8 0 14.2-18.3 19.8-25.2 21.8-11.9 3.6-29.1 6.7-51.1 9.3-40.8 4.6-98.9 7.2-163.5 7.2zM167.7 528c4.8 2.7 20.2 8.7 66.8 13.4 39.9 4 92.5 6.2 151.9 6.2s112-2.1 151.9-6.2c45.9-4.6 61.5-10.5 66.6-13.3-5.6-5.7-24.6-17.3-62.1-28.2-46.2-13.4-103.3-20.8-161-20.8-73.8 0-126.2 11.4-157.1 20.9-34.9 10.9-52.2 22.5-57 28z m438.9 2.3z" fill="#543630" p-id="28334"></path><path d="M610.9 623.9c-1.1 11.4-5.4 18.8-23.6 21.9-34.7 5.8-109.6 14.5-200.9 14.5s-165.9-10-200.9-14.5c-17.4-2.2-22.5-10.4-23.6-21.9l-10-88.9c-0.7-7.6 6.1-13.9 14.3-13.1 34.4 3.3 121.1 12.5 220.2 12.5s185.8-9.2 220.2-12.5c8.1-0.8 15 5.5 14.3 13.1l-10 88.9z" fill="#C6A07D" p-id="28335"></path><path d="M386.5 670.2c-88.9 0-163-9.6-198.6-14.2l-3.5-0.5c-19.9-2.6-30.5-12.6-32.3-30.7l-9.9-88.9v-0.1c-0.6-6.4 1.7-12.7 6.3-17.4 4.9-4.9 11.8-7.4 18.9-6.7 2.5 0.2 5.4 0.5 8.5 0.8 38.8 3.8 119.5 11.6 210.7 11.6 91.3 0 172-7.8 210.7-11.6 3.1-0.3 5.9-0.6 8.5-0.8 7.1-0.7 14 1.8 18.9 6.7 4.6 4.6 6.9 11 6.3 17.4v0.1l-9.9 88.9c-1.8 18-11.3 27.2-31.9 30.7-42.5 7.2-117.9 14.7-202.7 14.7zM162 533.9l9.9 88.8v0.1c0.7 6.7 2.1 11.3 14.9 12.9l3.5 0.5c35.2 4.5 108.4 14 196.1 14 108 0 184.9-12 199.2-14.4 14.3-2.4 14.7-6.6 15.3-13v-0.1l9.9-88.8c0-0.2 0-0.7-0.5-1.2-0.7-0.7-1.7-1-2.8-0.9-2.5 0.2-5.4 0.5-8.4 0.8-39.1 3.8-120.4 11.7-212.7 11.7-92.2 0-173.6-7.9-212.7-11.7-3.1-0.3-5.9-0.6-8.4-0.8-1.1-0.1-2.1 0.2-2.8 0.9-0.5 0.6-0.5 1-0.5 1.2z" fill="#543630" p-id="28336"></path><path d="M415.4 224.4s19.3-99.1 105.2-97.4c85.9 1.7 110.9 137 63.5 172.4C536.7 334.8 473 340 473 340l-57.6-115.6z" fill="#92DD98" p-id="28337"></path><path d="M473.1 349.9c-3.8 0-7.2-2.1-8.9-5.5l-57.7-115.5c-1-2-1.3-4.2-0.9-6.4 0.2-1.1 5.4-26.9 21.8-52.8 22.3-35.3 54.7-53.5 93.5-52.7 21.7 0.4 41.8 8.7 58 24 14 13.2 25 31.3 31.8 52.4 12.7 39.5 9.7 91.4-20.5 114-49.1 36.7-113.5 42.3-116.2 42.5h-0.9zM426 223.2l52.9 106c17-2.4 63.5-11.1 99.3-37.8 19.7-14.7 25.5-54.2 13.4-91.8-12.4-38.5-39-61.9-71.2-62.5-31.9-0.7-57.5 14-76.2 43.4-11.2 17.7-16.4 35.6-18.2 42.7z" fill="#543630" p-id="28338"></path><path d="M493.5 498.4s-165.9 11.3-222.1 0c-12.8-2.6-143.3-266.6 90.4-291.2 226.7-23.7 149.8 265.6 131.7 291.2z" fill="#55B765" p-id="28339"></path><path d="M354.5 513.5c-33.7 0-65.5-1.3-85.1-5.2-3.8-0.8-8.3-2.9-17.8-20.1-6-10.8-12.2-24.6-17.5-38.9-10.4-27.9-22.4-70.3-20.4-113.6 2.6-56.4 30.3-126.1 147-138.4 36.2-3.8 67.2 0 92.4 11.2 22.8 10.2 40.9 26.5 53.8 48.5 26.5 45.2 26.1 105.4 21.1 147.9-5.7 48.5-19 88.9-26.3 99.3-1.7 2.5-4.5 4-7.5 4.2-4.5 0.3-75.4 5.1-139.7 5.1z m139-15.1z m-217.8-9.3c50.6 9.1 183.3 1.5 211.7-0.3 5.8-12.5 16.1-46.8 20.7-86.2 4.6-39.5 5.2-95-18.5-135.4-23.2-39.5-65.9-56.3-126.8-49.9-65.5 6.9-106.6 33.9-122.1 80.2-7.6 22.7-13 62.3 4.5 121.8 10.9 36.9 25.4 63.4 30.5 69.8z m1 1.1z" fill="#543630" p-id="28340"></path><path d="M261.8 289.7l-49.3-43.8" fill="#FFEA80" p-id="28341"></path><path d="M261.8 299.7c-2.4 0-4.7-0.8-6.6-2.5l-49.3-43.8c-4.1-3.7-4.5-10-0.8-14.1s10-4.5 14.1-0.8l49.3 43.8c4.1 3.7 4.5 10 0.8 14.1-2 2.2-4.7 3.3-7.5 3.3z" fill="#543630" p-id="28342"></path><path d="M261.8 382.9l-59.6-10.4" fill="#FFEA80" p-id="28343"></path><path d="M261.8 392.9c-0.6 0-1.1 0-1.7-0.1l-59.7-10.3c-5.4-0.9-9.1-6.1-8.1-11.6 0.9-5.4 6.1-9.1 11.6-8.1l59.7 10.3c5.4 0.9 9.1 6.1 8.1 11.6-0.9 4.8-5.1 8.2-9.9 8.2z" fill="#543630" p-id="28344"></path><path d="M386.5 402.1l14.8-47.4" fill="#FFEA80" p-id="28345"></path><path d="M386.5 412.2c-1 0-2-0.1-3-0.5-5.3-1.6-8.2-7.3-6.6-12.5l14.8-47.5c1.6-5.3 7.3-8.2 12.5-6.6 5.3 1.6 8.2 7.3 6.6 12.5L396 405.1c-1.3 4.3-5.3 7.1-9.5 7.1z" fill="#543630" p-id="28346"></path><path d="M333.3 267.4l12.9 25.8" fill="#FFEA80" p-id="28347"></path><path d="M346.2 303.2c-3.7 0-7.2-2-9-5.5l-12.9-25.9c-2.5-4.9-0.5-10.9 4.5-13.4 4.9-2.5 10.9-0.5 13.4 4.5l12.9 25.9c2.5 4.9 0.5 10.9-4.5 13.4-1.4 0.7-2.9 1-4.4 1z" fill="#543630" p-id="28348"></path><path d="M386.5 233.5l-14.4-67.6" fill="#FFEA80" p-id="28349"></path><path d="M386.5 243.5c-4.6 0-8.8-3.2-9.8-7.9L362.3 168c-1.1-5.4 2.3-10.7 7.7-11.9 5.4-1.1 10.7 2.3 11.9 7.7l14.4 67.5c1.1 5.4-2.3 10.7-7.7 11.9-0.7 0.2-1.4 0.3-2.1 0.3z" fill="#543630" p-id="28350"></path><path d="M471.1 261.3l40.5-38.8" fill="#FFEA80" p-id="28351"></path><path d="M471.1 271.3c-2.6 0-5.3-1-7.2-3.1-3.8-4-3.7-10.3 0.3-14.1l40.6-38.8c4-3.8 10.3-3.7 14.1 0.3 3.8 4 3.7 10.3-0.3 14.1L478 268.5c-2 1.9-4.4 2.8-6.9 2.8z" fill="#543630" p-id="28352"></path><path d="M471.1 402.1l20.3-24.4" fill="#FFEA80" p-id="28353"></path><path d="M471.1 412.1c-2.3 0-4.5-0.8-6.4-2.3-4.2-3.5-4.8-9.8-1.3-14.1l20.3-24.4c3.5-4.2 9.8-4.8 14.1-1.3 4.2 3.5 4.8 9.8 1.3 14.1l-20.3 24.4c-2 2.4-4.9 3.6-7.7 3.6z" fill="#543630" p-id="28354"></path><path d="M330.3 456.6l-31-14.1" fill="#FFEA80" p-id="28355"></path><path d="M330.3 466.6c-1.4 0-2.8-0.3-4.1-0.9l-31-14.1c-5-2.3-7.2-8.2-5-13.2s8.2-7.2 13.2-5l31 14.1c5 2.3 7.2 8.2 5 13.2-1.6 3.7-5.3 5.9-9.1 5.9z" fill="#543630" p-id="28356"></path><path d="M558.9 261.3l72.3 13" fill="#FFEA80" p-id="28357"></path><path d="M631.2 284.3c-0.6 0-1.2-0.1-1.8-0.2l-72.3-12.9c-5.4-1-9.1-6.2-8.1-11.6 1-5.4 6.2-9.1 11.6-8.1l72.3 12.9c5.4 1 9.1 6.2 8.1 11.6-0.8 4.9-5 8.3-9.8 8.3z" fill="#543630" p-id="28358"></path><path d="M565.4 169.2l24.8-39" fill="#FFEA80" p-id="28359"></path><path d="M565.4 179.2c-1.8 0-3.7-0.5-5.4-1.6-4.7-3-6-9.1-3.1-13.8l24.8-38.9c3-4.7 9.1-6 13.8-3.1 4.7 3 6 9.1 3.1 13.8l-24.8 38.9c-1.9 3-5.1 4.7-8.4 4.7z" fill="#543630" p-id="28360"></path><path d="M476.9 158.2L450.1 127" fill="#FFEA80" p-id="28361"></path><path d="M476.9 168.2c-2.8 0-5.6-1.2-7.6-3.5l-26.9-31.2c-3.6-4.2-3.1-10.5 1.1-14.1 4.2-3.6 10.5-3.1 14.1 1.1l26.9 31.2c3.6 4.2 3.1 10.5-1.1 14.1-1.9 1.6-4.2 2.4-6.5 2.4z" fill="#543630" p-id="28362"></path><path d="M192 552m-8 0a8 8 0 1 0 16 0 8 8 0 1 0-16 0Z" fill="#C6A07D" p-id="28363"></path><path d="M246 578m-8 0a8 8 0 1 0 16 0 8 8 0 1 0-16 0Z" fill="#C6A07D" p-id="28364"></path><path d="M291 625m-8 0a8 8 0 1 0 16 0 8 8 0 1 0-16 0Z" fill="#C6A07D" p-id="28365"></path><path d="M238 685m-8 0a8 8 0 1 0 16 0 8 8 0 1 0-16 0Z" fill="#C6A07D" p-id="28366"></path><path d="M283 741m-8 0a8 8 0 1 0 16 0 8 8 0 1 0-16 0Z" fill="#C6A07D" p-id="28367"></path><path d="M344 693m-8 0a8 8 0 1 0 16 0 8 8 0 1 0-16 0Z" fill="#C6A07D" p-id="28368"></path><path d="M232 800m-8 0a8 8 0 1 0 16 0 8 8 0 1 0-16 0Z" fill="#C6A07D" p-id="28369"></path><path d="M323 808m-8 0a8 8 0 1 0 16 0 8 8 0 1 0-16 0Z" fill="#C6A07D" p-id="28370"></path><path d="M280 860m-8 0a8 8 0 1 0 16 0 8 8 0 1 0-16 0Z" fill="#C6A07D" p-id="28371"></path><path d="M364 879m-8 0a8 8 0 1 0 16 0 8 8 0 1 0-16 0Z" fill="#C6A07D" p-id="28372"></path><path d="M417 827m-8 0a8 8 0 1 0 16 0 8 8 0 1 0-16 0Z" fill="#C6A07D" p-id="28373"></path><path d="M378 757m-8 0a8 8 0 1 0 16 0 8 8 0 1 0-16 0Z" fill="#C6A07D" p-id="28374"></path><path d="M442 706m-8 0a8 8 0 1 0 16 0 8 8 0 1 0-16 0Z" fill="#C6A07D" p-id="28375"></path><path d="M501 674m-8 0a8 8 0 1 0 16 0 8 8 0 1 0-16 0Z" fill="#C6A07D" p-id="28376"></path><path d="M466 776m-8 0a8 8 0 1 0 16 0 8 8 0 1 0-16 0Z" fill="#C6A07D" p-id="28377"></path><path d="M491 855m-8 0a8 8 0 1 0 16 0 8 8 0 1 0-16 0Z" fill="#C6A07D" p-id="28378"></path><path d="M532 800m-8 0a8 8 0 1 0 16 0 8 8 0 1 0-16 0Z" fill="#C6A07D" p-id="28379"></path><path d="M323 555m-8 0a8 8 0 1 0 16 0 8 8 0 1 0-16 0Z" fill="#C6A07D" p-id="28380"></path><path d="M372 598m-8 0a8 8 0 1 0 16 0 8 8 0 1 0-16 0Z" fill="#C6A07D" p-id="28381"></path><path d="M425 635m-8 0a8 8 0 1 0 16 0 8 8 0 1 0-16 0Z" fill="#C6A07D" p-id="28382"></path><path d="M450 563m-8 0a8 8 0 1 0 16 0 8 8 0 1 0-16 0Z" fill="#C6A07D" p-id="28383"></path><path d="M494 606m-8 0a8 8 0 1 0 16 0 8 8 0 1 0-16 0Z" fill="#C6A07D" p-id="28384"></path><path d="M537 560m-8 0a8 8 0 1 0 16 0 8 8 0 1 0-16 0Z" fill="#C6A07D" p-id="28385"></path><path d="M573 620m-8 0a8 8 0 1 0 16 0 8 8 0 1 0-16 0Z" fill="#C6A07D" p-id="28386"></path><path d="M184 617m-8 0a8 8 0 1 0 16 0 8 8 0 1 0-16 0Z" fill="#C6A07D" p-id="28387"></path><path d="M805.9 890.4c-2.5 18.9-16.5 34.3-35.1 38.4-18.7 4.2-46 8.1-83.2 8.1-36.7 0-63.5-3.8-81.8-8-18.5-4.2-32.4-19.5-34.9-38.4l-20-153.7c-1.6-12.5 9.7-22.8 22-20 22.4 5 60.1 10.8 115.4 10.8s93-5.7 115.4-10.8c12.3-2.8 23.6 7.5 22 20l-19.8 153.6z" fill="#C6A07D" p-id="28388"></path><path d="M687.7 947c-31.6 0-59.9-2.8-84-8.2-22.5-5.1-39.6-23.9-42.6-46.9l-20-153.7c-1.2-9.1 2.2-18.2 8.9-24.4 6.8-6.2 16.2-8.7 25.2-6.7 21.4 4.8 58.4 10.5 113.2 10.5s91.8-5.7 113.2-10.5c9-2 18.4 0.5 25.2 6.7 6.8 6.2 10.1 15.3 8.9 24.4l-19.9 153.5c-3 23-20.2 41.8-42.8 46.9-24.7 5.6-53.4 8.4-85.3 8.4zM569 726.4c-2 0-3.9 0.7-5.5 2.1-2 1.8-2.9 4.4-2.6 7.1l20 153.7c1.9 14.7 12.8 26.7 27.2 29.9 22.6 5.1 49.4 7.7 79.5 7.7 30.5 0 57.7-2.7 81-7.9 14.5-3.3 25.5-15.3 27.4-30l19.9-153.5c0.3-2.7-0.6-5.2-2.6-7.1-2-1.8-4.7-2.5-7.3-1.9-22.4 5-61 11-117.6 11s-95.2-6-117.6-11c-0.6 0-1.2-0.1-1.8-0.1z" fill="#543630" p-id="28389"></path><path d="M848.9 673.5c0 13-71.8 19.8-160.4 19.8S528 686.4 528 673.5c0-13 59.4-41.8 157.2-41.8s163.7 28.8 163.7 41.8z" fill="#916C53" p-id="28390"></path><path d="M688.4 703.3c-45.2 0-85.9-1.8-114.6-5.1-34.5-4-55.8-9.5-55.8-24.7 0-8.8 8.5-22.1 48.8-35.3 32.7-10.7 74.8-16.5 118.4-16.5 43.8 0 86.9 5.9 121.4 16.5 14.3 4.4 26.6 9.5 35.4 14.7 11.4 6.7 16.7 13.3 16.7 20.6 0 15.2-21.4 20.7-55.8 24.7-28.6 3.3-69.3 5.1-114.5 5.1z m-147-31.5c5.8 2 18.1 5 43.4 7.5 27.5 2.7 63.3 4.1 103.6 4.1s76.1-1.4 103.6-4.1c24.6-2.4 36.9-5.3 42.9-7.3-6.2-4.2-19.1-10.5-40.4-16.5-22.3-6.3-59.4-13.8-109.4-13.8-82.7-0.1-130.2 20.3-143.7 30.1z m298 3.9z" fill="#543630" p-id="28391"></path><path d="M845 739.5c-0.8 8-3.8 13.1-16.5 15.2-24.2 4.1-76.5 10.1-140.1 10.1s-115.7-7-140.1-10.1c-12.2-1.6-15.7-7.3-16.5-15.2l-6.9-62c-0.5-5.3 4.3-9.7 9.9-9.1 24 2.3 84.5 7.3 153.6 7.3s129.6-5 153.6-7.3c5.7-0.5 10.5 3.9 9.9 9.1l-6.9 62z" fill="#C6A07D" p-id="28392"></path><path d="M688.4 774.9c-62.2 0-114-6.7-138.9-9.9l-2.4-0.3c-15.3-2-23.7-10.1-25.1-24.1l-6.9-62v-0.1c-0.5-5.4 1.4-10.7 5.2-14.5 4.1-4.1 9.7-6.1 15.6-5.5 22.9 2.2 83.6 7.3 152.6 7.3s129.7-5.1 152.6-7.3c5.8-0.6 11.5 1.5 15.6 5.5 3.9 3.9 5.8 9.2 5.2 14.5v0.1l-6.9 62c-1.4 13.8-9.3 21.5-24.8 24.1-29.6 4.9-82.4 10.2-141.8 10.2z m-153.3-96.5l6.7 60v0.1c0.3 3.5 0.5 5.4 7.8 6.3l2.5 0.3c24.5 3.2 75.4 9.7 136.4 9.7 75.1 0 128.5-8.3 138.5-10 7.7-1.3 7.8-2.6 8.2-6.4v-0.1l6.7-60c-24 2.3-84.6 7.2-153.3 7.2-68.9 0.2-129.5-4.8-153.5-7.1z" fill="#543630" p-id="28393"></path><path d="M685.3 643.3v-90.9" fill="#FFEA80" p-id="28394"></path><path d="M685.3 653.3c-5.5 0-10-4.5-10-10v-90.8c0-5.5 4.5-10 10-10s10 4.5 10 10v90.8c0 5.5-4.5 10-10 10z" fill="#543630" p-id="28395"></path><path d="M685.4 560.2s37.7-88.4 106.4-70.9c40.8 10.4 38.8 49 17.6 69.9-20.1 19.8-70.8 29.9-124 1z" fill="#55B765" p-id="28396"></path><path d="M752.5 588.2c-22.1 0-47-5.7-71.9-19.2-4.5-2.5-6.4-8-4.4-12.7 0.4-1 10.3-23.9 29.2-44.8 26.2-29 56.9-40 88.8-31.9 20.2 5.1 33.8 17.2 38.4 33.9 4.8 17.6-1.6 38.4-16.2 52.8-13.4 13.2-36.5 21.9-63.9 21.9z m-53.8-32.4c46.8 21.7 88.2 11.5 103.6-3.7 9.4-9.3 13.8-22.7 10.9-33.3-2.6-9.6-10.9-16.4-24-19.7-24.5-6.2-47.6 2.4-68.7 25.6-10.2 11.1-17.5 23.2-21.8 31.1z" fill="#543630" p-id="28397"></path><path d="M686.9 560.2s-37.7-88.4-106.4-70.9c-40.8 10.4-38.8 49-17.6 69.9 20 19.8 70.8 29.9 124 1z" fill="#55B765" p-id="28398"></path><path d="M619.7 588.2c-27.4 0-50.5-8.7-63.9-21.9-14.6-14.4-21-35.2-16.2-52.8 4.5-16.7 18.2-28.8 38.4-33.9 31.9-8.1 62.6 2.9 88.8 31.9 18.9 20.9 28.8 43.8 29.2 44.8 2 4.7 0.1 10.2-4.4 12.7-24.8 13.5-49.7 19.2-71.9 19.2zM598.3 497c-5 0-10.1 0.7-15.2 2-13.1 3.3-21.4 10.2-24 19.7-2.9 10.6 1.5 24 10.9 33.3 15.4 15.2 56.9 25.4 103.6 3.7-4.2-7.8-11.6-20-21.8-31.2-16.8-18.3-34.7-27.5-53.5-27.5z" fill="#543630" p-id="28399"></path><path d="M565 724m-8 0a8 8 0 1 0 16 0 8 8 0 1 0-16 0Z" fill="#C6A07D" p-id="28400"></path><path d="M615 701m-8 0a8 8 0 1 0 16 0 8 8 0 1 0-16 0Z" fill="#C6A07D" p-id="28401"></path><path d="M662 735m-8 0a8 8 0 1 0 16 0 8 8 0 1 0-16 0Z" fill="#C6A07D" p-id="28402"></path><path d="M717 706m-8 0a8 8 0 1 0 16 0 8 8 0 1 0-16 0Z" fill="#C6A07D" p-id="28403"></path><path d="M770 735m-8 0a8 8 0 1 0 16 0 8 8 0 1 0-16 0Z" fill="#C6A07D" p-id="28404"></path><path d="M599 795m-8 0a8 8 0 1 0 16 0 8 8 0 1 0-16 0Z" fill="#C6A07D" p-id="28405"></path><path d="M654 827m-8 0a8 8 0 1 0 16 0 8 8 0 1 0-16 0Z" fill="#C6A07D" p-id="28406"></path><path d="M607 860m-8 0a8 8 0 1 0 16 0 8 8 0 1 0-16 0Z" fill="#C6A07D" p-id="28407"></path><path d="M639 899m-8 0a8 8 0 1 0 16 0 8 8 0 1 0-16 0Z" fill="#C6A07D" p-id="28408"></path><path d="M695 868m-8 0a8 8 0 1 0 16 0 8 8 0 1 0-16 0Z" fill="#C6A07D" p-id="28409"></path><path d="M746 904m-8 0a8 8 0 1 0 16 0 8 8 0 1 0-16 0Z" fill="#C6A07D" p-id="28410"></path><path d="M742 830m-8 0a8 8 0 1 0 16 0 8 8 0 1 0-16 0Z" fill="#C6A07D" p-id="28411"></path><path d="M787 863m-8 0a8 8 0 1 0 16 0 8 8 0 1 0-16 0Z" fill="#C6A07D" p-id="28412"></path><path d="M787 792m-8 0a8 8 0 1 0 16 0 8 8 0 1 0-16 0Z" fill="#C6A07D" p-id="28413"></path><path d="M698 792m-8 0a8 8 0 1 0 16 0 8 8 0 1 0-16 0Z" fill="#C6A07D" p-id="28414"></path><path d="M817 701m-8 0a8 8 0 1 0 16 0 8 8 0 1 0-16 0Z" fill="#C6A07D" p-id="28415"></path></svg>