<?xml version="1.0" standalone="no"?><!DOCTYPE svg PUBLIC "-//W3C//DTD SVG 1.1//EN" "http://www.w3.org/Graphics/SVG/1.1/DTD/svg11.dtd"><svg t="1649679200231" class="icon" viewBox="0 0 1024 1024" version="1.1" xmlns="http://www.w3.org/2000/svg" p-id="7763" xmlns:xlink="http://www.w3.org/1999/xlink" width="200" height="200"><defs><style type="text/css">@font-face { font-family: "feedback-iconfont"; src: url("//at.alicdn.com/t/font_1031158_u69w8yhxdu.woff2?t=1630033759944") format("woff2"), url("//at.alicdn.com/t/font_1031158_u69w8yhxdu.woff?t=1630033759944") format("woff"), url("//at.alicdn.com/t/font_1031158_u69w8yhxdu.ttf?t=1630033759944") format("truetype"); }
</style></defs><path d="M118.487724 14.970337h787.024552v993.927561H118.487724z" fill="#F3F0F3" p-id="7764"></path><path d="M775.754693 14.970337h36.569937v993.947559h-36.569937z" fill="#E2DEE2" p-id="7765"></path><path d="M512 14.978336H118.487724l93.177647 88.610154h600.669258l93.175647-88.610154zM512 1008.907897H118.487724l93.177647-88.610154h600.669258l93.175647 88.610154z" fill="#F0BDB1" p-id="7766"></path><path d="M905.512276 649.833795V14.980335L812.334629 103.58849v816.711252l93.177647 88.608155z" fill="#E49280" p-id="7767"></path><path d="M905.516275 14.990334v993.925562l-39.945561-37.987779V52.956116z" fill="#DD7F66" p-id="7768"></path><path d="M118.487724 649.833795V14.980335L211.665371 103.58849v816.711252L118.487724 1008.907897z" fill="#E49280" p-id="7769"></path><path d="M657.057882 369.490945c-14.728363-13.14054-46.810799-51.682257-24.399289-124.538163 1.215865-3.951561-1.25586-8.0991-5.30341-8.939006-19.963782-4.145539-73.935785-19.227864-109.747806-65.796689a7.065215 7.065215 0 0 0-11.218754 0c-35.812021 46.566826-89.782024 61.64915-109.747805 65.796689-4.04755 0.839907-6.519276 4.989446-5.303411 8.939006 22.41151 72.853905-9.670925 111.397622-24.399289 124.538163-3.221642 2.873681-3.14965 7.937118 0.175981 10.690812 56.277747 46.588823 51.666259 102.900566 48.526608 120.514609a7.047217 7.047217 0 0 0 4.305521 7.769137l89.400067 36.185979c1.699811 0.687924 3.6016 0.687924 5.301411 0l89.400066-36.185979a7.047217 7.047217 0 0 0 4.305522-7.769137c-3.139651-17.614043-7.751139-73.925786 48.526608-120.514609 3.32763-2.753694 3.399622-7.817131 0.17798-10.690812z" fill="#6ED5A1" p-id="7770"></path><path d="M632.656593 244.958782c-22.40551 72.851905 9.680924 111.391623 24.401289 124.540162a7.041218 7.041218 0 0 1-0.169981 10.684813c-56.283746 46.590823-51.676258 102.896567-48.528608 120.50261a7.049217 7.049217 0 0 1-4.309521 7.777136l-28.848794 11.676703c1.059882-1.425842 1.549828-3.261638 1.219864-5.119432-2.987668-16.73814-8.409066-92.229752 45.09099-136.516831 3.157649-2.61171 3.227641-7.423175 0.171981-10.158871-14.014443-12.486613-39.483613-36.793912-18.171981-106.042217 1.151872-3.751583-1.197867-7.697145-5.051439-8.495056-18.951894-3.945562-73.269859-22.335518-107.318075-66.51061a158.226419 158.226419 0 0 0 15.256304-17.082102 7.071214 7.071214 0 0 1 11.220754 0c35.804022 46.568826 89.774025 61.65315 109.739806 65.792689 4.041551 0.855905 6.517276 4.995445 5.297411 8.951006z" fill="#46CC8D" p-id="7771"></path><path d="M580.230419 522.035995m-83.166759 0a83.166759 83.166759 0 1 0 166.333518 0 83.166759 83.166759 0 1 0-166.333518 0Z" fill="#EE6161" p-id="7772"></path><path d="M663.399178 522.041994c0 45.918898-37.231863 83.152761-83.168759 83.152761a82.844795 82.844795 0 0 1-51.012332-17.476058c5.485391 1.141873 11.15676 1.737807 16.982113 1.737807 45.936896 0 83.168759-37.249861 83.168759-83.168759 0-26.689034-12.570603-50.450394-32.122431-65.676703 37.775803 7.851128 66.15265 41.319409 66.15265 81.430952z" fill="#E94444" p-id="7773"></path><path d="M443.767582 522.035995m-83.16676 0a83.166759 83.166759 0 1 0 166.333519 0 83.166759 83.166759 0 1 0-166.333519 0Z" fill="#EE6161" p-id="7774"></path><path d="M526.93634 522.041994c0 45.918898-37.231863 83.152761-83.168758 83.152761a82.844795 82.844795 0 0 1-51.012332-17.476058c5.485391 1.141873 11.15676 1.737807 16.982113 1.737807 45.936896 0 83.168759-37.249861 83.168759-83.168759 0-26.689034-12.570603-50.450394-32.122431-65.676703 37.775803 7.851128 66.15265 41.319409 66.152649 81.430952z" fill="#E94444" p-id="7775"></path><path d="M511.998 614.389733m-83.166759 0a83.166759 83.166759 0 1 0 166.333518 0 83.166759 83.166759 0 1 0-166.333518 0Z" fill="#EE6161" p-id="7776"></path><path d="M595.166759 614.395732c0 45.918898-37.231863 83.152761-83.168759 83.152761a82.844795 82.844795 0 0 1-51.012332-17.476058c5.485391 1.141873 11.15676 1.737807 16.982113 1.737807 45.936896 0 83.168759-37.249861 83.168759-83.168759 0-26.689034-12.570603-50.450394-32.12243-65.676702 37.775803 7.851128 66.15265 41.319409 66.152649 81.430951z" fill="#E94444" p-id="7777"></path><path d="M103.505389 14.978336v993.927561c0.019998 1.315854 0.253972 5.733363 3.591601 9.654927 4.313521 5.065437 10.404844 5.303411 11.384735 5.325409 133.269192 0.255972 772.656148 0 787.030551 0 6.871237 0 10.53083-4.41151 10.530829-4.41151s4.443506-3.707588 4.443507-10.566826c0-13.908455 0.327964-775.347849 0-993.927562 0.015998-3.837574-1.741806-7.875125-4.361516-10.520831-1.61782-1.633818-5.021442-4.263526-10.61482-4.459504h-117.516943a14.978336 14.978336 0 1 0 0 29.956671h80.029108L806.347294 88.608154H217.650706L155.975559 29.958671h562.147538c8.273081 0 14.978336-6.705255 14.978336-14.978336s-6.705255-14.978336-14.978336-14.978335H118.487724c-1.025886 0.009999-6.335296 0.165982-10.606821 4.481502-4.203533 4.243528-4.365515 9.442951-4.375514 10.494834z m123.138318 103.58849h570.710586v786.752581H226.643707zM133.46606 49.894456l63.218976 60.11932v803.858681L133.46606 973.991777z m22.509499 944.033105l61.675147-58.649483H806.347294l61.675147 58.649483z m734.558381-19.935784l-63.220975-60.11932V110.013776l63.220975-60.11932z" p-id="7778"></path><path d="M369.035885 738.897899h-0.147983a14.978336 14.978336 0 0 0-14.834352 15.124319l0.53594 55.455838-44.143095-63.920897a14.978336 14.978336 0 1 0-27.306966 8.511054v102.370625a14.978336 14.978336 0 1 0 29.958672 0v-54.319964l41.913343 60.695256c4.313521 6.237307 11.550717 8.875014 18.429952 6.733252 6.999222-2.185757 11.524719-8.689035 11.524719-16.708144l-0.957893-99.104988a14.976336 14.976336 0 0 0-14.972337-14.836351zM725.880235 841.372512h-0.08599c-7.115209 0.037996-14.614376 0.067992-20.849684 0.079991V753.876234c0-8.273081-6.705255-14.978336-14.978335-14.978335s-14.978336 6.705255-14.978336 14.978335v102.476614a14.976336 14.976336 0 0 0 12.462615 14.766359c1.059882 0.17998 1.793801 0.305966 13.366515 0.305966 5.517387 0 13.4985-0.029997 25.147206-0.093989a14.978336 14.978336 0 0 0-0.083991-29.958672zM626.665259 769.792466a14.978336 14.978336 0 0 0 14.978336-14.980336 14.978336 14.978336 0 0 0-14.978336-14.978335h-42.821242a14.978336 14.978336 0 0 0-14.978336 14.978335v101.624708a14.978336 14.978336 0 0 0 14.978336 14.978336h42.821242c8.273081 0 14.978336-6.705255 14.978336-14.978336s-6.705255-14.978336-14.978336-14.978335h-27.842906v-20.853683h24.685257c8.273081 0 14.978336-6.705255 14.978336-14.978336s-6.705255-14.978336-14.978336-14.978336h-24.685257V769.794466h27.842906zM474.942118 738.897899c-36.53594 0-66.260638 29.724697-66.260638 66.260637s29.724697 66.260638 66.260638 66.260638 66.260638-29.724697 66.260637-66.260638-29.724697-66.260638-66.260637-66.260637z m0 102.560604c-20.017776 0-36.301966-16.284191-36.301967-36.301967s16.284191-36.301966 36.301967-36.301966 36.301966 16.284191 36.301966 36.301966-16.284191 36.301966-36.301966 36.301967zM630.764804 437.93534c6.565271-15.136318 17.560049-31.224531 35.666037-46.214865a21.973558 21.973558 0 0 0 7.969114-16.542162 22.025553 22.025553 0 0 0-7.371181-16.868126c-37.939784-33.850239-26.663037-87.470281-20.055771-108.949894a22.029552 22.029552 0 0 0-2.087768-17.652039 22.067548 22.067548 0 0 0-14.484391-10.364848c-19.52983-4.055549-68.458393-18.047995-100.920786-60.261304a21.903566 21.903566 0 0 0-17.482058-8.617043c-6.899233 0-13.270525 3.139651-17.484057 8.617043-32.462393 42.21331-81.390956 56.205755-100.920786 60.263304a22.067548 22.067548 0 0 0-14.484391 10.362848 22.035552 22.035552 0 0 0-2.089768 17.646039c6.609266 21.483613 17.886013 75.105655-20.053772 108.955894a22.037551 22.037551 0 0 0-7.371181 16.868126 21.981558 21.981558 0 0 0 7.967115 16.540162c18.109988 14.992334 29.098767 31.082546 35.664037 46.218864-28.502833 17.19209-47.60671 48.452616-47.60671 84.096656 0 4.85746 0.35596 9.732919 1.061882 14.48839a14.978336 14.978336 0 0 0 29.634707-4.397511 68.764359 68.764359 0 0 1-0.739917-10.090879c0-37.595823 30.588601-68.184424 68.184423-68.184424 35.650039 0 64.97678 27.504944 67.924453 62.403066-43.841129 0.135985-81.010999 29.15876-93.42162 69.000334a67.13654 67.13654 0 0 1-13.068547-6.979225 14.978336 14.978336 0 0 0-16.974114 24.687257 97.493167 97.493167 0 0 0 25.655149 12.572603c0.619931 53.590045 44.383068 96.999222 98.115098 96.999222 53.746028 0 97.517165-43.427175 98.117098-97.035218 39.545606-12.672592 68.260415-49.76847 68.260415-93.465615 0.007999-35.64204-19.097878-66.904566-47.60271-84.096655zM497.021664 235.34785v51.740251l-17.568048-17.362071a14.978336 14.978336 0 1 0-21.05966 21.305633l38.627708 38.177757v41.531386l-17.568048-17.364071a14.978336 14.978336 0 0 0-21.05966 21.305633l38.627708 38.179758v26.805021a97.459171 97.459171 0 0 0-53.254082-15.778247c-7.83313 0-15.442284 0.947895-22.749473 2.689701-7.319187-17.146095-19.08388-35.174092-37.70581-52.168203 17.378069-18.53994 42.435285-58.697478 24.697256-125.652038 24.805244-6.273303 69.996222-22.475503 103.990445-61.735141 33.992223 39.259638 79.183202 55.461837 103.988446 61.735141-17.736029 66.950561 7.319187 107.112098 24.699255 125.652038-18.623931 16.996112-30.386624 35.024108-37.70581 52.170203a97.983113 97.983113 0 0 0-22.751472-2.691701 97.359182 97.359182 0 0 0-53.250084 15.798245v-26.825019l38.625709-38.179758a14.978336 14.978336 0 1 0-21.05966-21.305633l-17.566049 17.362071v-41.529386l38.625709-38.177757a14.978336 14.978336 0 1 0-21.05966-21.305633l-17.566049 17.362071v-51.738251c0-8.273081-6.705255-14.978336-14.978335-14.978336s-14.980335 6.703255-14.980336 14.976336z m14.976336 447.228307c-37.595823 0-68.184424-30.588601-68.184424-68.186424 0-37.595823 30.588601-68.184424 68.184424-68.184424 37.597822 0 68.186424 30.588601 68.186424 68.184424 0 37.597822-30.588601 68.186424-68.186424 68.186424z m93.717587-97.365182c-9.502944-30.456616-33.48028-54.573936-63.838907-64.298855-0.185979-16.318187-4.353516-31.694478-11.60671-45.186979 12.460615-13.434507 30.234641-21.875569 49.958449-21.87557 37.597822 0 68.186424 30.588601 68.186423 68.184424 0.002 28.582824-17.704033 53.056105-42.699255 63.17698z" p-id="7779"></path></svg>