<?xml version="1.0" standalone="no"?><!DOCTYPE svg PUBLIC "-//W3C//DTD SVG 1.1//EN" "http://www.w3.org/Graphics/SVG/1.1/DTD/svg11.dtd"><svg t="1649679889028" class="icon" viewBox="0 0 1024 1024" version="1.1" xmlns="http://www.w3.org/2000/svg" p-id="1796" xmlns:xlink="http://www.w3.org/1999/xlink" width="200" height="200"><defs><style type="text/css">@font-face { font-family: "feedback-iconfont"; src: url("//at.alicdn.com/t/font_1031158_u69w8yhxdu.woff2?t=1630033759944") format("woff2"), url("//at.alicdn.com/t/font_1031158_u69w8yhxdu.woff?t=1630033759944") format("woff"), url("//at.alicdn.com/t/font_1031158_u69w8yhxdu.ttf?t=1630033759944") format("truetype"); }
</style></defs><path d="M20.48 193.9456h57.7536v57.7536H20.48zM78.2336 193.9456h57.7536v57.7536H78.2336zM136.192 193.9456h57.7536v57.7536H136.192zM193.9456 193.9456h57.7536v57.7536H193.9456z" fill="#553A49" p-id="1797"></path><path d="M251.6992 193.9456h57.7536v57.7536h-57.7536zM309.6576 193.9456h57.7536v57.7536h-57.7536zM367.4112 193.9456h57.7536v57.7536h-57.7536zM425.1648 193.9456h57.7536v57.7536h-57.7536zM483.1232 193.9456h57.7536v57.7536h-57.7536zM540.8768 193.9456h57.7536v57.7536h-57.7536zM598.8352 193.9456h57.7536v57.7536h-57.7536zM656.5888 193.9456h57.7536v57.7536h-57.7536zM714.3424 193.9456h57.7536v57.7536h-57.7536zM772.3008 193.9456h57.7536v57.7536h-57.7536zM830.0544 193.9456h57.7536v57.7536h-57.7536zM830.0544 136.192h57.7536v57.7536h-57.7536zM772.3008 136.192h57.7536v57.7536h-57.7536zM714.3424 136.192h57.7536v57.7536h-57.7536zM656.5888 136.192h57.7536v57.7536h-57.7536zM887.808 193.9456h57.7536v57.7536h-57.7536zM945.7664 193.9456H1003.52v57.7536h-57.7536z" fill="#553A49" p-id="1798"></path><path d="M945.7664 251.6992H1003.52v57.7536h-57.7536zM945.7664 309.6576H1003.52v57.7536h-57.7536zM945.7664 367.4112H1003.52v57.7536h-57.7536zM945.7664 425.1648H1003.52v57.7536h-57.7536zM945.7664 483.1232H1003.52v57.7536h-57.7536zM945.7664 540.8768H1003.52v57.7536h-57.7536zM945.7664 598.8352H1003.52v57.7536h-57.7536zM945.7664 656.5888H1003.52v57.7536h-57.7536zM945.7664 714.3424H1003.52v57.7536h-57.7536zM945.7664 772.3008H1003.52v57.7536h-57.7536zM945.7664 830.0544H1003.52v57.7536h-57.7536zM20.48 251.6992h57.7536v57.7536H20.48z" fill="#553A49" p-id="1799"></path><path d="M78.2336 251.6992h57.7536v57.7536H78.2336z" fill="#E7F1F3" p-id="1800"></path><path d="M78.2336 309.6576h57.7536v57.7536H78.2336z" fill="#C3D2DB" p-id="1801"></path><path d="M136.192 309.6576h57.7536v57.7536H136.192zM193.9456 309.6576h57.7536v57.7536H193.9456z" fill="#553A49" p-id="1802"></path><path d="M251.6992 309.6576h57.7536v57.7536h-57.7536z" fill="#553A49" p-id="1803"></path><path d="M309.6576 309.6576h57.7536v57.7536h-57.7536zM367.4112 309.6576h57.7536v57.7536h-57.7536zM425.1648 309.6576h57.7536v57.7536h-57.7536zM483.1232 598.8352h57.7536v57.7536h-57.7536zM483.1232 656.5888h57.7536v57.7536h-57.7536zM540.8768 714.3424h57.7536v57.7536h-57.7536zM598.8352 714.3424h57.7536v57.7536h-57.7536zM656.5888 714.3424h57.7536v57.7536h-57.7536zM714.3424 714.3424h57.7536v57.7536h-57.7536zM772.3008 656.5888h57.7536v57.7536h-57.7536zM772.3008 598.8352h57.7536v57.7536h-57.7536z" fill="#C3D2DB" p-id="1804"></path><path d="M830.0544 425.1648h57.7536v57.7536h-57.7536zM887.808 425.1648h57.7536v57.7536h-57.7536zM887.808 483.1232h57.7536v57.7536h-57.7536zM887.808 540.8768h57.7536v57.7536h-57.7536zM887.808 598.8352h57.7536v57.7536h-57.7536zM887.808 656.5888h57.7536v57.7536h-57.7536zM887.808 714.3424h57.7536v57.7536h-57.7536zM887.808 772.3008h57.7536v57.7536h-57.7536zM830.0544 772.3008h57.7536v57.7536h-57.7536zM78.2336 425.1648h57.7536v57.7536H78.2336zM136.192 425.1648h57.7536v57.7536H136.192zM193.9456 425.1648h57.7536v57.7536H193.9456z" fill="#CA8E38" p-id="1805"></path><path d="M251.6992 425.1648h57.7536v57.7536h-57.7536zM309.6576 425.1648h57.7536v57.7536h-57.7536zM367.4112 425.1648h57.7536v57.7536h-57.7536zM367.4112 483.1232h57.7536v57.7536h-57.7536zM367.4112 540.8768h57.7536v57.7536h-57.7536zM367.4112 598.8352h57.7536v57.7536h-57.7536zM367.4112 656.5888h57.7536v57.7536h-57.7536zM367.4112 714.3424h57.7536v57.7536h-57.7536zM425.1648 714.3424h57.7536v57.7536h-57.7536zM425.1648 772.3008h57.7536v57.7536h-57.7536zM367.4112 772.3008h57.7536v57.7536h-57.7536zM309.6576 772.3008h57.7536v57.7536h-57.7536zM251.6992 772.3008h57.7536v57.7536h-57.7536z" fill="#CA8E38" p-id="1806"></path><path d="M193.9456 772.3008h57.7536v57.7536H193.9456zM136.192 772.3008h57.7536v57.7536H136.192zM78.2336 772.3008h57.7536v57.7536H78.2336zM78.2336 714.3424h57.7536v57.7536H78.2336zM78.2336 656.5888h57.7536v57.7536H78.2336zM78.2336 598.8352h57.7536v57.7536H78.2336zM78.2336 540.8768h57.7536v57.7536H78.2336zM78.2336 483.1232h57.7536v57.7536H78.2336zM136.192 483.1232h57.7536v57.7536H136.192zM193.9456 483.1232h57.7536v57.7536H193.9456z" fill="#CA8E38" p-id="1807"></path><path d="M251.6992 483.1232h57.7536v57.7536h-57.7536zM309.6576 483.1232h57.7536v57.7536h-57.7536zM309.6576 540.8768h57.7536v57.7536h-57.7536zM309.6576 598.8352h57.7536v57.7536h-57.7536zM309.6576 656.5888h57.7536v57.7536h-57.7536zM309.6576 714.3424h57.7536v57.7536h-57.7536zM251.6992 714.3424h57.7536v57.7536h-57.7536z" fill="#CA8E38" p-id="1808"></path><path d="M193.9456 714.3424h57.7536v57.7536H193.9456z" fill="#CA8E38" p-id="1809"></path><path d="M136.192 714.3424h57.7536v57.7536H136.192z" fill="#553A49" p-id="1810"></path><path d="M136.192 656.5888h57.7536v57.7536H136.192zM136.192 598.8352h57.7536v57.7536H136.192zM136.192 540.8768h57.7536v57.7536H136.192zM193.9456 540.8768h57.7536v57.7536H193.9456z" fill="#CA8E38" p-id="1811"></path><path d="M251.6992 540.8768h57.7536v57.7536h-57.7536zM251.6992 598.8352h57.7536v57.7536h-57.7536zM251.6992 656.5888h57.7536v57.7536h-57.7536z" fill="#CA8E38" p-id="1812"></path><path d="M193.9456 656.5888h57.7536v57.7536H193.9456zM193.9456 598.8352h57.7536v57.7536H193.9456zM483.1232 772.3008h57.7536v57.7536h-57.7536zM425.1648 425.1648h57.7536v57.7536h-57.7536zM830.0544 714.3424h57.7536v57.7536h-57.7536zM772.3008 772.3008h57.7536v57.7536h-57.7536z" fill="#CA8E38" p-id="1813"></path><path d="M483.1232 309.6576h57.7536v57.7536h-57.7536zM540.8768 309.6576h57.7536v57.7536h-57.7536zM598.8352 309.6576h57.7536v57.7536h-57.7536zM656.5888 309.6576h57.7536v57.7536h-57.7536zM714.3424 309.6576h57.7536v57.7536h-57.7536zM772.3008 309.6576h57.7536v57.7536h-57.7536zM830.0544 309.6576h57.7536v57.7536h-57.7536zM887.808 309.6576h57.7536v57.7536h-57.7536z" fill="#C3D2DB" p-id="1814"></path><path d="M136.192 251.6992h57.7536v57.7536H136.192zM193.9456 251.6992h57.7536v57.7536H193.9456z" fill="#E7F1F3" p-id="1815"></path><path d="M251.6992 251.6992h57.7536v57.7536h-57.7536zM309.6576 251.6992h57.7536v57.7536h-57.7536zM367.4112 251.6992h57.7536v57.7536h-57.7536zM425.1648 251.6992h57.7536v57.7536h-57.7536zM483.1232 251.6992h57.7536v57.7536h-57.7536zM540.8768 251.6992h57.7536v57.7536h-57.7536zM540.8768 425.1648h57.7536v57.7536h-57.7536zM483.1232 483.1232h57.7536v57.7536h-57.7536zM483.1232 540.8768h57.7536v57.7536h-57.7536zM598.8352 425.1648h57.7536v57.7536h-57.7536zM656.5888 425.1648h57.7536v57.7536h-57.7536zM714.3424 425.1648h57.7536v57.7536h-57.7536zM772.3008 483.1232h57.7536v57.7536h-57.7536zM772.3008 540.8768h57.7536v57.7536h-57.7536zM598.8352 251.6992h57.7536v57.7536h-57.7536zM656.5888 251.6992h57.7536v57.7536h-57.7536zM714.3424 251.6992h57.7536v57.7536h-57.7536zM772.3008 251.6992h57.7536v57.7536h-57.7536zM830.0544 251.6992h57.7536v57.7536h-57.7536zM887.808 251.6992h57.7536v57.7536h-57.7536z" fill="#E7F1F3" p-id="1816"></path><path d="M20.48 309.6576h57.7536v57.7536H20.48zM20.48 367.4112h57.7536v57.7536H20.48zM78.2336 367.4112h57.7536v57.7536H78.2336zM136.192 367.4112h57.7536v57.7536H136.192zM193.9456 367.4112h57.7536v57.7536H193.9456z" fill="#553A49" p-id="1817"></path><path d="M251.6992 367.4112h57.7536v57.7536h-57.7536zM309.6576 367.4112h57.7536v57.7536h-57.7536zM367.4112 367.4112h57.7536v57.7536h-57.7536zM425.1648 367.4112h57.7536v57.7536h-57.7536zM483.1232 367.4112h57.7536v57.7536h-57.7536zM540.8768 367.4112h57.7536v57.7536h-57.7536zM598.8352 367.4112h57.7536v57.7536h-57.7536zM656.5888 367.4112h57.7536v57.7536h-57.7536zM714.3424 367.4112h57.7536v57.7536h-57.7536zM772.3008 367.4112h57.7536v57.7536h-57.7536zM772.3008 425.1648h57.7536v57.7536h-57.7536zM483.1232 425.1648h57.7536v57.7536h-57.7536zM540.8768 483.1232h57.7536v57.7536h-57.7536zM598.8352 483.1232h57.7536v57.7536h-57.7536zM656.5888 483.1232h57.7536v57.7536h-57.7536zM714.3424 483.1232h57.7536v57.7536h-57.7536zM714.3424 540.8768h57.7536v57.7536h-57.7536zM714.3424 598.8352h57.7536v57.7536h-57.7536zM714.3424 656.5888h57.7536v57.7536h-57.7536zM656.5888 656.5888h57.7536v57.7536h-57.7536zM598.8352 656.5888h57.7536v57.7536h-57.7536zM540.8768 656.5888h57.7536v57.7536h-57.7536zM540.8768 598.8352h57.7536v57.7536h-57.7536zM540.8768 540.8768h57.7536v57.7536h-57.7536z" fill="#553A49" p-id="1818"></path><path d="M598.8352 540.8768h57.7536v57.7536h-57.7536z" fill="#FFFFFF" p-id="1819"></path><path d="M656.5888 540.8768h57.7536v57.7536h-57.7536zM656.5888 598.8352h57.7536v57.7536h-57.7536zM598.8352 598.8352h57.7536v57.7536h-57.7536zM830.0544 483.1232h57.7536v57.7536h-57.7536zM830.0544 540.8768h57.7536v57.7536h-57.7536zM830.0544 598.8352h57.7536v57.7536h-57.7536zM830.0544 656.5888h57.7536v57.7536h-57.7536zM425.1648 483.1232h57.7536v57.7536h-57.7536zM425.1648 540.8768h57.7536v57.7536h-57.7536zM425.1648 598.8352h57.7536v57.7536h-57.7536zM425.1648 656.5888h57.7536v57.7536h-57.7536zM772.3008 714.3424h57.7536v57.7536h-57.7536zM714.3424 772.3008h57.7536v57.7536h-57.7536zM656.5888 772.3008h57.7536v57.7536h-57.7536zM598.8352 772.3008h57.7536v57.7536h-57.7536zM540.8768 772.3008h57.7536v57.7536h-57.7536zM483.1232 714.3424h57.7536v57.7536h-57.7536zM830.0544 367.4112h57.7536v57.7536h-57.7536zM887.808 367.4112h57.7536v57.7536h-57.7536zM20.48 425.1648h57.7536v57.7536H20.48zM20.48 483.1232h57.7536v57.7536H20.48zM20.48 540.8768h57.7536v57.7536H20.48zM20.48 598.8352h57.7536v57.7536H20.48zM20.48 656.5888h57.7536v57.7536H20.48zM20.48 714.3424h57.7536v57.7536H20.48zM20.48 772.3008h57.7536v57.7536H20.48zM20.48 830.0544h57.7536v57.7536H20.48zM78.2336 830.0544h57.7536v57.7536H78.2336zM136.192 830.0544h57.7536v57.7536H136.192zM193.9456 830.0544h57.7536v57.7536H193.9456z" fill="#553A49" p-id="1820"></path><path d="M251.6992 830.0544h57.7536v57.7536h-57.7536zM309.6576 830.0544h57.7536v57.7536h-57.7536zM367.4112 830.0544h57.7536v57.7536h-57.7536zM425.1648 830.0544h57.7536v57.7536h-57.7536zM483.1232 830.0544h57.7536v57.7536h-57.7536zM540.8768 830.0544h57.7536v57.7536h-57.7536zM598.8352 830.0544h57.7536v57.7536h-57.7536zM656.5888 830.0544h57.7536v57.7536h-57.7536zM714.3424 830.0544h57.7536v57.7536h-57.7536zM772.3008 830.0544h57.7536v57.7536h-57.7536zM830.0544 830.0544h57.7536v57.7536h-57.7536zM887.808 830.0544h57.7536v57.7536h-57.7536z" fill="#553A49" p-id="1821"></path></svg>