<svg xml:space="preserve" style="enable-background:new 0 0 1200 1200;" viewBox="0 0 1200 1200" y="0px" x="0px" xmlns:xlink="http://www.w3.org/1999/xlink" xmlns="http://www.w3.org/2000/svg" id="图层_1" version="1.1">
<style type="text/css">
	.st0{fill:#F4D12C;}
	.st1{fill:#22286E;}
	.st2{fill:#F9FCFD;}
	.st3{fill:#73C0D7;}
	.st4{fill:#1E7CB9;}
	.st5{fill:#DE5C3B;}
	.st6{fill:#E58456;}
	.st7{fill:#9AA2CC;}
</style>
<g>
	<g>
		<g>
			<path d="M384.9,615.9c-1.9,0.7-3.9,0.7-5.8,0.1l-110.9-37.4l-45.3,51.2c-1,1.1-2.1,1.9-3.4,2.4
				c-1.4,0.5-3,0.7-4.6,0.4c-3-0.5-5.5-2.6-6.6-5.4l-33-83.9l-83.9,26.8c-3.4,1.1-7.2,0-9.4-2.9c-2.2-2.8-2.5-6.7-0.7-9.8l51.3-87.1
				l-88.8-59.6c-2.7-1.8-4.1-4.9-3.8-8.1c0.3-3.2,2.4-5.9,5.3-7.1l84.5-35l-21.8-128.4c-0.6-3.3,0.8-6.6,3.5-8.5
				c0.6-0.4,1.3-0.8,2-1c2.3-0.9,5-0.7,7.2,0.5L238.6,288l70.2-97.4c1-1.4,2.4-2.5,4-3c1.5-0.6,3.2-0.7,4.9-0.4
				c3.4,0.7,6,3.4,6.7,6.8l20.2,102l111.5-14.2c3.2-0.4,6.4,1,8.3,3.7c1.8,2.7,2,6.2,0.4,9.1l-46.7,83.9l87.4,51.1
				c2.9,1.7,4.6,4.9,4.3,8.3c-0.3,3.3-2.5,6.2-5.6,7.3c0,0-100,36.5-100,36.5l-13.6,127c-0.3,2.6-1.7,5-3.9,6.4
				C386,615.4,385.5,615.7,384.9,615.9z" class="st0"></path>
		</g>
		<g>
			<path d="M116.6,230.9l124.5,68.4l74.7-103.6l21.7,110L457,290.4l-50.8,91.3l94.7,55.3L396,475.4l-14.1,132.4
				l-116.3-39.2l-49.1,55.6l-35.9-91.5L88.8,562l55.5-94.1l-95.6-64.2l90.9-37.7L116.6,230.9 M315.8,195.6L315.8,195.6 M110.5,214.6
				c-1.4,0.5-2.7,1.2-3.9,2.1c-5.4,3.9-8.2,10.5-7,17l20.6,121.5L42,387.7c-5.9,2.4-10,7.9-10.6,14.3c-0.6,6.4,2.3,12.6,7.6,16.1
				l82,55.1l-47.2,80c-3.7,6.2-3.1,14,1.4,19.6c4.5,5.6,12,7.9,18.8,5.7l76.2-24.3l30,76.4c2.2,5.6,7.2,9.7,13.1,10.7
				c3.1,0.6,6.3,0.2,9.1-0.9c2.6-1,5-2.6,6.9-4.7l41.5-46.9l105.4,35.5c3.8,1.3,7.9,1.2,11.7-0.2c1.1-0.4,2.2-1,3.2-1.6
				c4.4-2.8,7.3-7.5,7.9-12.8l13-121.6l94.8-34.7c0.1,0,0.1,0,0.2-0.1c6.2-2.3,10.6-8,11.2-14.7c0.6-6.7-2.7-13.1-8.5-16.5
				l-80.1-46.8l42.6-76.4c3.2-5.7,2.9-12.7-0.8-18.1s-10.1-8.3-16.6-7.5l-103.5,13.1L332.9,193c-0.2-1.2-0.5-2.3-0.9-3.4
				c-3.4-9-13.4-13.5-22.3-10.1l0,0c-3.4,1.3-6.2,3.5-8.1,6.3l-65.5,91l-111-61C120.5,213.2,115.2,212.9,110.5,214.6L110.5,214.6z" class="st1"></path>
		</g>
	</g>
	<g>
		<g>
			<path d="M331.7,524.9c-1.9,0.7-3.9,0.7-5.8,0.1l-56.7-19.1l-22.4,25.4c-1,1.1-2.1,1.9-3.4,2.4
				c-1.4,0.5-3,0.7-4.6,0.4c-3-0.5-5.5-2.6-6.6-5.4L216,487.4l-41.2,13.2c-3.4,1.1-7.2,0-9.4-2.9c-2.2-2.8-2.5-6.7-0.7-9.8
				l25.5-43.2l-44.3-29.7c-2.7-1.8-4.1-4.9-3.8-8.1c0.3-3.2,2.4-5.9,5.3-7.1l42.2-17.5l-11.1-65.4c-0.6-3.3,0.8-6.6,3.5-8.5
				c0.6-0.4,1.3-0.8,2-1c2.3-0.9,5-0.7,7.2,0.5l59.8,32.8l35.4-49.1c1-1.4,2.4-2.5,4-3c1.5-0.6,3.2-0.7,4.9-0.4
				c3.4,0.7,6,3.4,6.7,6.8l10,50.8l55.8-7.1c3.2-0.4,6.4,1,8.3,3.7c1.8,2.7,2,6.2,0.4,9.1l-23,41.3l43.3,25.3
				c2.9,1.7,4.6,4.9,4.3,8.3c-0.3,3.3-2.5,6.2-5.6,7.3c0,0-51.1,18.7-51.1,18.7l-7,65.3c-0.3,2.6-1.7,5-3.9,6.4
				C332.8,524.4,332.3,524.7,331.7,524.9z" class="st2"></path>
		</g>
		<g>
			<path d="M187,315.4l66.5,36.5l39.9-55.4l11.6,58.7l63.9-8.1L341.7,396l50.6,29.6l-56.1,20.5l-7.6,70.7l-62.1-20.9
				l-26.2,29.7l-19.2-48.9l-49,15.6l29.6-50.3l-51-34.3l48.6-20.1L187,315.4 M293.4,296.6L293.4,296.6 M180.9,299.2
				c-1.4,0.5-2.7,1.2-3.9,2.1c-5.4,3.9-8.2,10.5-7,17l9.9,58.6l-35.8,14.8c-5.9,2.4-10,7.9-10.6,14.3c-0.6,6.4,2.3,12.6,7.6,16.1
				l37.5,25.2l-21.3,36.2c-3.7,6.2-3.1,14,1.4,19.6c4.5,5.6,12,7.9,18.8,5.7l33.5-10.7l13.3,33.7c2.2,5.6,7.2,9.7,13.1,10.7
				c3.1,0.6,6.3,0.2,9.1-0.9c2.6-1,5-2.6,6.9-4.7l18.6-21.1l51.2,17.3c3.8,1.3,7.9,1.2,11.7-0.2c1.1-0.4,2.2-1,3.2-1.6
				c4.4-2.8,7.3-7.5,7.9-12.8l6.4-60l45.9-16.8c0.1,0,0.1,0,0.2-0.1c6.2-2.3,10.6-8,11.2-14.7c0.6-6.7-2.7-13.1-8.5-16.5l-35.9-21
				l18.9-33.9c3.2-5.7,2.9-12.7-0.8-18.1s-10.1-8.3-16.6-7.5l-47.8,6.1l-8.3-42.2c-0.2-1.2-0.5-2.3-0.9-3.4
				c-3.4-9-13.4-13.5-22.3-10.1l0,0c0,0,0,0,0,0c0,0,0,0,0,0c0,0,0,0,0,0c0,0,0,0,0,0c0,0,0,0,0,0s0,0,0,0c-3.4,1.3-6.1,3.5-8,6.3
				l-30.8,42.7l-53-29.2C190.9,297.7,185.6,297.4,180.9,299.2L180.9,299.2z" class="st1"></path>
		</g>
	</g>
	<g>
		<g>
			<path d="M454.5,420.3c-4.6,1.7-9.5,2.6-14.5,2.6l-77.2,0.2c-22.8,0.1-41.4-18.4-41.4-41.2
				c-0.1-17.1,10.7-32.7,26.7-38.8c4.6-1.7,9.5-2.6,14.5-2.7l77.2-0.2c11,0,21.4,4.2,29.3,12c7.8,7.8,12.2,18.2,12.2,29.2
				C481.3,398.6,470.6,414.2,454.5,420.3z" class="st2"></path>
		</g>
		<g>
			<path d="M351.2,351.2c3.6-1.3,7.4-2.1,11.4-2.1l77.2-0.2c18,0,32.7,14.5,32.7,32.6l0,0c0,14-8.8,26-21.1,30.7
				c-3.6,1.3-7.4,2.1-11.4,2.1l-77.2,0.2c-18,0-32.7-14.5-32.7-32.6C330.1,367.9,338.8,355.9,351.2,351.2 M345.1,335
				C345.1,335,345.1,335,345.1,335c-19.4,7.3-32.4,26.2-32.4,46.9c0,13.4,5.3,25.9,14.7,35.3c9.5,9.4,22,14.6,35.4,14.5l77.2-0.2
				c6,0,11.9-1.1,17.5-3.2c19.4-7.3,32.4-26.2,32.4-46.9c0-13.4-5.3-25.9-14.7-35.3c-9.5-9.4-22-14.6-35.4-14.5l-77.2,0.2
				C356.6,331.8,350.7,332.9,345.1,335L345.1,335z" class="st1"></path>
		</g>
	</g>
	<g>
		<g>
			<path d="M974.2,433.9c-1,0.4-2,0.6-3,0.6L622,435.4c-2.7,0-5.3-1.3-7-3.5c-1.6-2.2-2.2-5-1.4-7.7l27.5-93.3
				c4.4-15,16.1-27.4,31.2-33.1c6-2.3,12.4-3.4,18.9-3.5l214.5-0.6c24.2-0.1,45.1,15.7,50.8,38.4l23.1,91.4c0.7,2.6,0.1,5.3-1.6,7.4
				C977,432.4,975.7,433.3,974.2,433.9z" class="st2"></path>
		</g>
		<g>
			<path d="M675.4,306c4.9-1.9,10.3-2.9,15.8-2.9l214.5-0.6c20.1-0.1,37.7,13.1,42.4,31.8l23.1,91.4L622,426.7
				l27.5-93.3C653.2,320.6,663,310.7,675.4,306 M669.2,289.8C669.2,289.8,669.2,289.8,669.2,289.8c-17.6,6.7-31.2,21.1-36.4,38.7
				l-27.5,93.3c-1.5,5.3-0.5,10.9,2.8,15.3c3.3,4.4,8.4,7,13.9,6.9l349.2-0.9c2.1,0,4.2-0.4,6.1-1.1c3-1.1,5.6-3,7.6-5.6
				c3.3-4.2,4.4-9.7,3.1-14.9l-23.1-91.4c-6.7-26.5-31.1-45-59.3-44.9l-214.5,0.6C683.6,285.8,676.2,287.1,669.2,289.8L669.2,289.8z" class="st1"></path>
		</g>
	</g>
	<g>
		<path d="M948.1,334.3c-4.7-18.7-22.3-31.9-42.4-31.8l-46.3,0.1c20.1-0.1,37.7,13.1,42.4,31.8l23.1,91.4l46.3-0.1
			L948.1,334.3z" class="st3"></path>
	</g>
	<g>
		<g>
			<path d="M1044.2,990.7c-10.8,4.1-22.3,6.2-34,6.2l-682.6,1.8c-53.5,0.1-97.1-43.2-97.2-96.7L229.3,481
				c-0.1-40.2,25.1-76.8,62.7-91c10.8-4.1,22.3-6.2,34-6.2l682.6-1.8c53.5-0.1,97.1,43.2,97.2,96.7l1.1,421.1
				C1107.1,939.9,1081.9,976.5,1044.2,990.7z" class="st4"></path>
		</g>
		<g>
			<g>
				<path d="M295.1,398.1c9.6-3.6,20-5.6,30.9-5.7l682.6-1.8c48.8-0.1,88.4,39.3,88.5,88.1l1.1,421.1
					c0.1,37.9-23.7,70.3-57.1,82.9c-9.6,3.6-20,5.6-30.9,5.7l-682.6,1.8c-48.8,0.1-88.4-39.3-88.5-88.1L238,480.9
					C237.9,443.1,261.7,410.7,295.1,398.1 M289,381.8C289,381.8,289,381.8,289,381.8c-41,15.5-68.5,55.3-68.4,99.2l1.1,421.1
					c0.2,58.2,47.7,105.5,105.9,105.4l682.6-1.8c12.7,0,25.2-2.3,37-6.8c41-15.5,68.5-55.3,68.4-99.1l-1.1-421.1
					c-0.2-58.2-47.7-105.5-105.9-105.4L326,375.1C313.3,375.1,300.8,377.4,289,381.8L289,381.8z" class="st1"></path>
			</g>
		</g>
	</g>
	<g>
		<path d="M278.7,940.9l-1.2-444.3c-0.1-42.4,34.1-76.8,76.5-76.9l705.8-1.9c7.6,0,8-0.9,14.9,1.1
			c-14-18.5-29.3-28.5-54.4-28.4l-705.8,1.9c-42.4,0.1-76.6,34.5-76.5,76.9l1.2,444.3c0.1,34.8,23.4,64.1,55.1,73.4
			C284.6,974.2,278.7,958.3,278.7,940.9z" class="st3"></path>
	</g>
	<g>
		<g>
			<path d="M1043.7,992.8c-10.8,4.1-22.3,6.2-34,6.2l-682,1.8c-53.5,0.1-97.1-43.2-97.2-96.7l-0.9-325.3
				c0-2.3,0.9-4.5,2.5-6.1c0.9-0.9,1.9-1.6,3.1-2c1-0.4,2-0.6,3-0.6l858.6-2.3c4.8,0,8.7,3.9,8.7,8.6l0.9,325.3
				C1106.5,942,1081.3,978.6,1043.7,992.8z" class="st3"></path>
		</g>
		<g>
			<path d="M238.3,578.8l858.6-2.3l0.9,325.3c0.1,37.9-23.7,70.2-57.1,82.9c-9.6,3.6-20,5.6-30.9,5.7l-682,1.8
				c-48.8,0.1-88.4-39.3-88.5-88L238.3,578.8 M232.2,562.6c-6.6,2.5-11.2,8.8-11.2,16.3l0.9,325.3c0.2,58.2,47.7,105.5,105.9,105.3
				l682-1.8c12.7,0,25.2-2.3,37-6.8c41-15.5,68.5-55.3,68.3-99.1l-0.9-325.3c0-4.6-1.9-9-5.1-12.2c-3.3-3.2-7.7-5.1-12.3-5
				l-858.6,2.3C236.1,561.5,234,561.9,232.2,562.6L232.2,562.6z" class="st1"></path>
		</g>
	</g>
	<g>
		<path d="M1058.4,576.6l0.8,296.6c0.1,42.4-34.1,76.8-76.5,76.9L277.5,952c-11.6,0-22.6-2.6-32.5-7.2
			c11.5,27.9,39,47.5,71.1,47.4l705.2-1.9c42.4-0.1,76.6-34.5,76.5-76.9l-0.9-336.9L1058.4,576.6z" class="st4"></path>
	</g>
	<g>
		<g>
			<path d="M881.4,913.1c-26.7,10.1-54.7,15.2-83.5,15.3c-63.7,0.2-123.6-24.5-168.7-69.4
				c-45.1-44.9-70.1-104.7-70.3-168.4c-0.3-98.9,61.7-188.8,154.2-223.7c26.7-10.1,54.7-15.2,83.5-15.3
				c63.7-0.2,123.6,24.5,168.7,69.4c45.1,44.9,70.1,104.7,70.3,168.4C1035.9,788.3,973.9,878.2,881.4,913.1z" class="st5"></path>
		</g>
		<g>
			<path d="M716.2,475c25-9.4,52.1-14.6,80.4-14.7c126.9-0.3,230,102.2,230.3,229.1c0.3,98.5-61.6,182.8-148.6,215.6
				c-25,9.4-52.1,14.6-80.4,14.7C671,920,567.9,817.5,567.6,690.6C567.3,592.1,629.1,507.9,716.2,475 M710.1,458.8l6.1,16.2
				L710.1,458.8C710.1,458.8,710.1,458.8,710.1,458.8c-46.6,17.6-86.4,48.5-115.2,89.4c-29.4,41.9-44.9,91.1-44.7,142.4
				c0.2,66,26,128,72.8,174.5c46.8,46.5,108.9,72.1,174.9,71.9c29.8-0.1,58.9-5.4,86.5-15.8c46.6-17.6,86.4-48.5,115.1-89.4
				c29.4-41.9,44.9-91.1,44.7-142.4c-0.4-136.2-111.5-246.7-247.7-246.4C766.8,443,737.7,448.4,710.1,458.8L710.1,458.8z" class="st1"></path>
		</g>
	</g>
	<g>
		<g>
			<path d="M870.2,883.4c-23.1,8.7-47.5,13.2-72.4,13.2c-55.2,0.1-107.2-21.2-146.3-60.1c-39.1-38.9-60.8-90.8-60.9-146
				c-0.2-85.8,53.5-163.7,133.7-194c23.1-8.7,47.5-13.2,72.4-13.2c55.2-0.1,107.2,21.2,146.3,60.1c39.1,38.9,60.8,90.8,60.9,146
				C1004.2,775.2,950.4,853.2,870.2,883.4z" class="st2"></path>
		</g>
		<g>
			<path d="M727.4,504.7c21.6-8.1,44.9-12.6,69.3-12.7c109.4-0.3,198.2,88.1,198.5,197.5
				c0.2,84.9-53.1,157.5-128.1,185.9c-21.6,8.1-44.9,12.6-69.3,12.7c-109.4,0.3-198.2-88.1-198.5-197.5
				C599,605.6,652.3,533,727.4,504.7 M721.3,488.4C721.3,488.4,721.3,488.4,721.3,488.4C637.7,520,581.7,601.2,581.9,690.6
				c0.3,118.7,97.2,215.1,215.9,214.8c26-0.1,51.3-4.7,75.4-13.8c83.6-31.5,139.6-112.8,139.3-202.1
				c-0.2-57.5-22.7-111.5-63.5-152.1c-40.8-40.6-94.9-62.8-152.4-62.7C770.7,474.7,745.4,479.4,721.3,488.4L721.3,488.4z" class="st1"></path>
		</g>
	</g>
	<g>
		<g>
			<path d="M491.6,544.6c-3.4,1.3-6.9,1.9-10.6,1.9c-8.1,0-15.6-3.1-21.3-8.8c-5.7-5.7-8.9-13.2-8.9-21.3
				c0-12.5,7.8-23.9,19.5-28.3c3.4-1.3,6.9-1.9,10.6-1.9c8.1,0,15.6,3.1,21.3,8.8c5.7,5.7,8.9,13.2,8.9,21.3
				C511.1,528.8,503.3,540.2,491.6,544.6z" class="st6"></path>
		</g>
		<g>
			<path d="M473.4,496.3c2.3-0.9,4.9-1.4,7.5-1.4c11.9,0,21.5,9.6,21.5,21.4c0,9.2-5.8,17.1-13.9,20.2
				c-2.3,0.9-4.9,1.4-7.5,1.4c-11.9,0-21.5-9.6-21.5-21.4C459.4,507.2,465.2,499.4,473.4,496.3 M467.2,480.1
				C467.2,480.1,467.2,480.1,467.2,480.1c-15.1,5.7-25.2,20.3-25.1,36.4c0.1,21.4,17.5,38.8,38.9,38.7c4.7,0,9.2-0.9,13.6-2.5
				c15.1-5.7,25.2-20.3,25.1-36.4c-0.1-21.4-17.5-38.8-38.9-38.7C476.2,477.6,471.6,478.4,467.2,480.1L467.2,480.1z" class="st1"></path>
		</g>
	</g>
	<g>
		<g>
			<path d="M1033.8,502.1c-3.3,1.2-6.7,1.9-10.2,1.9l-22.8,0.1c-16,0-29.1-13-29.2-29l-0.1-22.8
				c0-12.1,7.5-23.1,18.8-27.3c3.3-1.2,6.7-1.9,10.2-1.9l22.8-0.1c16,0,29.1,13,29.2,29l0.1,22.8
				C1052.7,486.8,1045.1,497.8,1033.8,502.1z" class="st2"></path>
		</g>
		<g>
			<path d="M993.4,432.9c2.2-0.8,4.6-1.3,7.2-1.3l22.8-0.1c11.3,0,20.5,9.1,20.5,20.4l0.1,22.8
				c0,8.8-5.5,16.3-13.2,19.2c-2.2,0.8-4.6,1.3-7.2,1.3l-22.8,0.1c-11.3,0-20.5-9.1-20.5-20.4l-0.1-22.8
				C980.2,443.4,985.7,435.9,993.4,432.9 M987.3,416.7C987.3,416.7,987.3,416.7,987.3,416.7c-14.7,5.5-24.5,19.8-24.4,35.5l0.1,22.8
				c0.1,20.8,17.1,37.7,37.9,37.7l22.8-0.1c4.5,0,9-0.8,13.2-2.4c14.7-5.5,24.5-19.8,24.4-35.5l-0.1-22.8
				c-0.1-20.8-17.1-37.7-37.9-37.7l-22.8,0.1C996,414.3,991.6,415.1,987.3,416.7L987.3,416.7z" class="st1"></path>
		</g>
	</g>
	<g>
		<g>
			<path d="M863,864.3c-20.8,7.9-42.8,11.9-65.2,11.9C748,876.3,701.2,857.1,666,822c-35.3-35.1-54.8-81.8-54.9-131.5
				c-0.2-77.3,48.2-147.5,120.5-174.8c20.8-7.9,42.8-11.9,65.2-11.9c102.7-0.3,186.4,83,186.7,185.7
				C983.7,766.8,935.3,837,863,864.3z" class="st4"></path>
		</g>
		<g>
			<path d="M734.6,523.8c19.3-7.3,40.3-11.3,62.2-11.4c98-0.3,177.7,79,178,177c0.2,76.2-47.6,141.2-114.9,166.6
				c-19.3,7.3-40.3,11.3-62.2,11.4c-98,0.3-177.7-79-178-177C619.5,614.3,667.3,549.2,734.6,523.8 M728.5,507.6
				C728.5,507.6,728.5,507.6,728.5,507.6c-75.6,28.5-126.3,102-126.1,182.9c0.1,52,20.5,100.9,57.4,137.6
				c36.9,36.7,85.9,56.8,137.9,56.7c23.5-0.1,46.5-4.3,68.2-12.5c75.6-28.5,126.3-102,126.1-182.9
				c-0.3-107.4-87.9-194.6-195.4-194.3C773.3,495.2,750.3,499.4,728.5,507.6L728.5,507.6z" class="st1"></path>
		</g>
	</g>
	<g>
		<circle r="128.3" cy="690" cx="797.3" class="st3"></circle>
		<path d="M845.5,818.2c-14.9,5.6-31,8.7-47.9,8.8c-75.5,0.2-137.2-61.1-137.4-136.6c-0.2-75.5,61.1-137.2,136.6-137.4
			c75.5-0.2,137.2,61.1,137.4,136.6l0,0C934.4,748.3,897.4,798.6,845.5,818.2z M755.2,578c-45.4,17.1-77.7,61.1-77.5,112.3
			c0.2,66,54,119.5,120,119.3c66-0.2,119.5-54,119.3-120c-0.2-66-54-119.5-120-119.3C782.3,570.4,768.2,573.1,755.2,578z" class="st1"></path>
	</g>
	<g>
		<g>
			<path d="M342.2,923.6l-103.3,0.3L237.8,514l103.3-0.3c48.4-0.1,87.7,39,87.8,87.3l0.6,234.7
				C429.7,884.1,390.6,923.4,342.2,923.6z" class="st4"></path>
		</g>
	</g>
	<g>
		<g>
			<path d="M814.3,735.1c-5.4,2-11.1,3.1-16.9,3.1c-26.6,0.1-48.3-21.5-48.3-48.1c-0.1-20,12.5-38.2,31.2-45.3
				c5.4-2,11.1-3.1,16.9-3.1c26.6-0.1,48.3,21.5,48.3,48.1C845.5,709.9,833,728.1,814.3,735.1z" class="st4"></path>
		</g>
		<g>
			<path d="M783.3,653c4.3-1.6,9-2.5,13.8-2.5c21.8-0.1,39.6,17.6,39.6,39.4c0,17-10.6,31.5-25.6,37.1
				c-4.3,1.6-9,2.5-13.8,2.5c-21.8,0.1-39.6-17.6-39.6-39.4C757.7,673.1,768.3,658.6,783.3,653 M777.2,636.8
				C777.2,636.8,777.2,636.8,777.2,636.8c-22.1,8.3-36.9,29.8-36.8,53.4c0,15.2,6,29.5,16.8,40.2c10.8,10.7,25.1,16.6,40.3,16.6
				c6.9,0,13.6-1.2,19.9-3.6c22.1-8.3,36.9-29.8,36.8-53.4c-0.1-31.4-25.7-56.8-57-56.7C790.3,633.1,783.6,634.4,777.2,636.8
				L777.2,636.8z" class="st1"></path>
		</g>
	</g>
	<g>
		
			<ellipse ry="61.8" rx="67.1" cy="607.8" cx="738.6" class="st2" transform="matrix(0.8223 -0.5691 0.5691 0.8223 -214.6157 528.3422)"></ellipse>
	</g>
	<g>
		<g>
			<path d="M591.8,897.1c-2.1,0.8-4.2,1.2-6.5,1.2l-115,0.3c-4.9,0-9.6-1.9-13.1-5.4s-5.4-8.1-5.4-13.1
				c0-7.7,4.8-14.6,12-17.3c2.1-0.8,4.2-1.2,6.5-1.2l115-0.3c10.2,0,18.5,8.2,18.5,18.4C603.8,887.4,599,894.4,591.8,897.1z" class="st6"></path>
		</g>
		<g>
			<path d="M466.8,870.9c1.1-0.4,2.2-0.6,3.4-0.6l115-0.3c5.4,0,9.8,4.4,9.8,9.8c0,4.2-2.6,7.8-6.3,9.2
				c-1.1,0.4-2.2,0.6-3.4,0.6l-115,0.3c-5.4,0-9.8-4.4-9.8-9.8C460.4,875.9,463.1,872.3,466.8,870.9 M460.7,854.7
				C460.7,854.7,460.7,854.7,460.7,854.7c-10.5,4-17.6,14.2-17.6,25.5c0,15,12.3,27.1,27.2,27.1l115-0.3c3.3,0,6.5-0.6,9.5-1.7
				c10.5-4,17.6-14.2,17.6-25.5c0-7.3-2.9-14.1-8-19.2c-5.1-5.1-12-7.9-19.2-7.9l-115,0.3C466.9,853,463.7,853.6,460.7,854.7
				L460.7,854.7z" class="st1"></path>
		</g>
	</g>
	<g>
		<g>
			<path d="M591.9,935.6c-2.1,0.8-4.2,1.2-6.5,1.2l-115,0.3c-4.9,0-9.6-1.9-13.1-5.4c-3.5-3.5-5.4-8.1-5.4-13.1
				c0-7.7,4.8-14.6,12-17.3c2.1-0.8,4.2-1.2,6.5-1.2l115-0.3c10.2,0,18.5,8.2,18.5,18.4C603.9,925.9,599.1,932.9,591.9,935.6z" class="st6"></path>
		</g>
		<g>
			<path d="M466.9,909.4c1.1-0.4,2.2-0.6,3.4-0.6l115-0.3c5.4,0,9.8,4.4,9.8,9.8c0,4.2-2.6,7.8-6.3,9.2
				c-1.1,0.4-2.2,0.6-3.4,0.6l-115,0.3c-5.4,0-9.8-4.4-9.8-9.8C460.5,914.4,463.2,910.8,466.9,909.4 M460.8,893.2
				C460.8,893.2,460.8,893.2,460.8,893.2c-10.5,4-17.6,14.2-17.6,25.5c0,15,12.3,27.1,27.2,27.1l115-0.3c3.3,0,6.5-0.6,9.5-1.7
				c10.5-4,17.6-14.2,17.6-25.5c0-15-12.3-27.1-27.2-27.1l-115,0.3C467,891.5,463.8,892.1,460.8,893.2L460.8,893.2z" class="st1"></path>
		</g>
	</g>
	<g>
		<g>
			<path d="M348.9,898.7c-10.8,4.1-22.1,6.1-33.7,6.2l-76.3,0.2c-4.8,0-8.7-3.9-8.7-8.6l-1.1-409.9
				c0-3.7,2.3-6.9,5.6-8.1c0.9-0.4,2-0.6,3-0.6l76.3-0.2c25.7-0.1,49.9,9.9,68.1,28c18.2,18.1,28.3,42.3,28.4,68l0.6,234.7
				C411.3,848.3,386.2,884.6,348.9,898.7z" class="st7"></path>
		</g>
		<g>
			<path d="M237.7,486.6l76.3-0.2c48.4-0.1,87.7,39,87.8,87.3l0.6,234.7c0.1,37.6-23.5,69.7-56.7,82.2
				c-9.5,3.6-19.9,5.6-30.7,5.6l-76.3,0.2L237.7,486.6 M231.6,470.3c-2.3,0.9-4.4,2.2-6.2,4c-3.2,3.3-5.1,7.7-5,12.3l1.1,409.9
				c0,4.6,1.9,9,5.1,12.2c3.3,3.2,7.7,5.1,12.3,5l76.3-0.2c12.6,0,25-2.3,36.7-6.7c40.7-15.4,68-54.9,67.9-98.5l-0.6-234.7
				c-0.1-28-11.1-54.3-30.9-74.1C368.4,479.8,342,468.9,314,469l-76.3,0.2C235.6,469.2,233.5,469.6,231.6,470.3L231.6,470.3z" class="st1"></path>
		</g>
	</g>
	<g>
		<path d="M264.8,519.1l87.8-0.2c15.9,0,30.6,4.8,42.8,13.1c-11.8-26.9-38.6-45.7-69.9-45.6l-87.8,0.2l1.1,409.9l27-0.1
			L264.8,519.1z" class="st2"></path>
	</g>
</g>
</svg>
