<svg xml:space="preserve" style="enable-background:new 0 0 500 500;" viewBox="0 0 500 500" y="0px" x="0px" xmlns:xlink="http://www.w3.org/1999/xlink" xmlns="http://www.w3.org/2000/svg" id="图层_1" version="1.1">
<style type="text/css">
	.st0{fill:#FFFFFF;}
	.st1{fill:#FFB3C5;}
	.st2{fill:none;stroke:#FF557E;stroke-width:8.5318;stroke-linecap:round;stroke-linejoin:round;stroke-miterlimit:10;}
	.st3{fill:#FF557E;}
	.st4{fill:none;stroke:#FF557E;stroke-width:4.2659;stroke-linecap:round;stroke-linejoin:round;stroke-miterlimit:10;}
	.st5{fill:none;stroke:#FF557E;stroke-width:8.0809;stroke-linecap:round;stroke-linejoin:round;stroke-miterlimit:10;}
</style>
<g>
	<path d="M413.18,376.25c-32.33-8.29-34.46-2.98-34.46-2.98s4.47,8.73-17.22,8.29c-21.7-0.42-30.43-10.41-35.32-9.57
		c-4.89,0.86-112.31,0.42-112.31,0.42s-44.88,15.97-73.59,11.06c-28.71-4.89-82.97-7.87-82.53-38.07
		c-0.65-21.48,24.88-30.84,24.88-30.84s-2.3-16.57,5.13-32.75c5.13-11.21,14.93-22.23,33.38-27.45
		c45.09-12.76,84.23-6.17,84.23-6.17s-5.96-10.85-1.07-16.6c4.89-5.73,31.06,2.14,36.58,4.26c5.54,2.12,37.86-15.95,63.39-9.57
		c17.44,4.47,25.31,7.45,25.31,7.45s39.79-25.96,57.23-11.06c4.24,5.52-15.95,26.37-19.58,29.14c-1.7,1.31-0.48,7.06,1.72,13.26
		c2.47,6.95,6.15,14.48,8.29,16.95c4.03,4.68,15.09,25.1,4.45,42.75c-10.62,17.67,30.2,25.96,39.35,28.29
		c9.15,2.35,24.47-2.33,28.94,3.4C454.45,362.21,454.88,387.52,413.18,376.25z" class="st0"></path>
	<g>
		<path d="M385.49,230.26c-0.57,1.04-1.23,2.12-1.99,3.24c-5.16,7.69-13.92,16.51-16.24,18.28
			c-0.02,0.02-0.02,0.03-0.03,0.03c-1.7,1.31,5.58,17.52,7.78,23.72c-24.9,11.67-40.98-1.82-61.47-29.57
			c-6.83-9.25,2.46,22.07-16.34,39.43c-8.65,7.98-20.75,9.34-32.42,12.97c-15.19,4.73-33.07,2.17-48.92,3.57
			c-42.44,3.73-93.65-15.59-129.41,22.87c-0.57,0.62-2.83-19.23-2.59-30.5c0.09-3.91,1.19-7.75,3.31-11.05
			c5.7-8.85,19.02-24.65,33.97-28.88c40.74-11.53,76.62-7.27,83.16-6.32c0,0,0.02,0.01,0.03,0c0.68,0.09,1.04,0.15,1.04,0.15
			s-3.48-6.34-2.92-11.89c0.15-1.72,0.69-3.36,1.85-4.71c4.89-5.73,31.06,2.14,36.58,4.26c5.54,2.12,37.86-15.95,63.39-9.57
			c17.44,4.47,25.31,7.45,25.31,7.45s39.79-25.96,57.23-11.06C388.02,224.23,387.27,227.01,385.49,230.26z" class="st1"></path>
	</g>
	<g>
		<path d="M278.99,272.73c2.24,3.99,9.29,1.65,13.1-0.88c0.59-0.39,1.16-0.84,1.54-1.45c0.37-0.6,0.53-1.38,0.25-2.03
			c-0.49-1.15-1.99-1.42-3.24-1.4c-3.18,0.04-6.35,0.83-9.17,2.29C281.46,269.25,277.74,270.49,278.99,272.73z" class="st0"></path>
	</g>
	<g>
		<path d="M346.6,264.79c-0.03-0.66,0.47-1.25,1.07-1.51c0.6-0.27,1.28-0.28,1.94-0.26c2.32,0.07,4.63,0.46,6.85,1.14
			c0.82,0.25,1.66,0.56,2.3,1.13c0.64,0.57,1.07,1.46,0.87,2.3c-0.18,0.75-0.82,1.32-1.53,1.61s-1.5,0.33-2.27,0.34
			c-1.54,0.02-3.08-0.08-4.6-0.3c-1.17-0.17-2.37-0.41-3.33-1.09c-0.97-0.68-1.65-1.88-1.39-3.03" class="st0"></path>
	</g>
	<path d="M383.5,233.5c-5.16,7.69-13.92,16.51-16.24,18.28l-11.54-11.17c0,0,13.62-14.82,25.15-9.35
		C382.18,231.89,383.02,232.64,383.5,233.5z" class="st0"></path>
	<path d="M232.63,249.71c0,0,4.06,18.92-6.67,16.18c0.68,0.09-20.59-17.69-20.59-17.69s-3.48-6.34-2.92-11.89
		c2.81-0.72,6.56-0.65,11.39,1.35C227.26,243.2,232.63,249.71,232.63,249.71z" class="st0"></path>
	<line y2="293.46" x2="306.94" y1="296.81" x1="293.88" class="st2"></line>
	<line y2="290.46" x2="352.3" y1="287.81" x1="339.59" class="st2"></line>
	<ellipse ry="3.45" rx="4.47" cy="305.6" cx="327.44" class="st3"></ellipse>
	<path d="M327.44,305.6c0,0,6.83,20.4-15.77,14.75" class="st4"></path>
	<path d="M347.93,319.52c-0.82-0.33-17.84,4.27-20.39-13.48" class="st4"></path>
	<g>
		<path d="M368.89,251.18c0,0,35.02-26.27,11.14-32.64s-50.15,14.33-50.15,14.33s-44.58-19.9-85.17,3.98
			c0,0-24.68-8.76-37.41-6.37c-12.74,2.39,6.37,33.43,21.49,35.82" class="st2"></path>
		<path d="M354.56,242.42c0,0,14.33,10.35,16.72,25.47c2.39,15.12,31.04,39.8,2.39,66.86" class="st2"></path>
		<path d="M383.22,333.17c0,0-7.16,10.35,38.21,21.49c15.92,0,24.68-3.18,29.45,2.39c4.78,5.57,1.59,31.04-32.64,18.31
			c-19.9-5.57-56.52-5.57-56.52-5.57" class="st2"></path>
		<path d="M286.14,329.74c32.26,8.21,71.53,21.97,91.5,43.22c6.37,10.35-31.04,11.94-43.78,3.18
			c-5.09-3.5-27.96-4.2-57.4-4.24" class="st0"></path>
		<path d="M235.16,319.64c0,0,105.07,13.53,142.48,53.33c6.37,10.35-31.04,11.94-43.78,3.18
			c-12.74-8.76-136.91,0-196.61-7.16c-15.74-1.89-28.5-8.92-37.69-18.73" class="st2"></path>
		<path d="M185.12,379.74c-37.38,5.61-86.37,3.21-114.75-13.42c-36.15-21.19,12.46-51.93,12.46-51.93l8.25,27.54
			c4.23,19.02,57.05,3.42,97.93-0.86c20.72-2.17,38.36-1.41,45.06,8.22C243.55,362.95,219.15,374.66,185.12,379.74z" class="st1"></path>
		<g>
			<path d="M185.12,379.74c-0.06-0.11-0.11-0.21-0.15-0.32c-2.38-5.63-1.28-12.08,0.41-17.95
				c1.69-5.87,3.96-11.72,3.85-17.83c-0.01-0.86-0.09-1.72-0.23-2.57c20.72-2.17,38.36-1.41,45.06,8.22
				C243.55,362.95,219.15,374.66,185.12,379.74z" class="st0"></path>
		</g>
		<path d="M82.84,314.39c0,0-48.61,30.74-12.46,51.93c54.19,31.76,183.59,11.62,163.69-17.03
			c-19.9-28.66-136.62,21.29-142.98-7.37" class="st2"></path>
		<path d="M99.15,347.26c-25.66-27.38-23.08-73.37,19.72-92.28c0,0,54.99-18.93,89.22-4.6" class="st2"></path>
	</g>
	<path d="M395.64,236.33c3.2,1.47,16.16,5.52,19.36,6.99c-5.59,2.35-13.15,4.47-19.2,4.86
		c7.13,2.66,14.32,5.19,21.55,7.57" class="st5"></path>
	<path d="M409.76,171.85c11.07,3.31,22.82,5.21,34.38,5.57c-9.99,5.91-20.68,11.3-31.96,16.11
		c9.21,1.58,18.43,3.17,27.64,4.75" class="st5"></path>
	<polyline points="402.59,113.25 443.63,105.7 414.38,135.89 442.21,130.7" class="st5"></polyline>
</g>
</svg>
