<?xml version="1.0" standalone="no"?><!DOCTYPE svg PUBLIC "-//W3C//DTD SVG 1.1//EN" "http://www.w3.org/Graphics/SVG/1.1/DTD/svg11.dtd"><svg t="1649679148862" class="icon" viewBox="0 0 1024 1024" version="1.1" xmlns="http://www.w3.org/2000/svg" p-id="5767" xmlns:xlink="http://www.w3.org/1999/xlink" width="200" height="200"><defs><style type="text/css">@font-face { font-family: "feedback-iconfont"; src: url("//at.alicdn.com/t/font_1031158_u69w8yhxdu.woff2?t=1630033759944") format("woff2"), url("//at.alicdn.com/t/font_1031158_u69w8yhxdu.woff?t=1630033759944") format("woff"), url("//at.alicdn.com/t/font_1031158_u69w8yhxdu.ttf?t=1630033759944") format("truetype"); }
</style></defs><path d="M599.594 14.952c-24.47-0.87-44.58 18.708-44.58 42.984 0-23.754-19.258-43.012-43.012-43.012-23.756 0-43.012 19.256-43.012 43.012 0-23.754-19.258-43.012-43.012-43.012s-43.012 19.258-43.012 43.012v68.754a284.84 284.84 0 0 0 41.63 148.264l16.662 27.332h141.488l16.662-27.332a284.844 284.844 0 0 0 41.63-148.264V58.966c-0.002-23.322-18.138-43.186-41.444-44.014z" fill="#6ED5A1" p-id="5768"></path><path d="M641.044 58.966v67.726c0 52.306-14.404 103.598-41.642 148.264l-16.652 27.336h-38.2l16.672-27.336a284.92 284.92 0 0 0 41.622-148.264V58.966c0-17.05-9.69-32.25-24.014-39.512 6.208-3.124 13.29-4.756 20.772-4.496 23.298 0.814 41.442 20.69 41.442 44.008z" fill="#46CC8D" p-id="5769"></path><path d="M791.664 520.246c-53.594-63.102-121.16-107.886-197.102-134.55H429.436c-75.942 26.662-143.506 71.448-197.102 134.55-98.43 115.894-110.828 288.754 7.348 397.966 73.356 67.792 178.226 88.148 272.318 90.866 94.092-2.716 198.962-23.074 272.318-90.866 118.176-109.212 105.778-282.072 7.346-397.966z" fill="#6ED5A1" p-id="5770"></path><path d="M784.314 918.206c-73.356 67.804-178.226 88.158-272.314 90.864-57.718-1.652-119.474-9.968-175.54-31.774 44.706 12.256 91.42 17.448 135.748 18.722 94.088-2.726 198.958-23.078 272.314-90.864 118.18-109.208 105.786-282.082 7.342-397.976-45.64-53.738-101.428-94.206-163.922-121.484h6.626c75.942 26.66 143.508 71.446 197.088 134.556 98.444 115.892 110.838 288.746-7.342 397.956z" fill="#46CC8D" p-id="5771"></path><path d="M603.1 385.696h-182.2a13.272 13.272 0 0 1-13.27-13.27v-56.87a13.272 13.272 0 0 1 13.27-13.27h182.198a13.272 13.272 0 0 1 13.27 13.27v56.87a13.268 13.268 0 0 1-13.268 13.27z" fill="#F3F0F3" p-id="5772"></path><path d="M616.374 315.562v56.862a13.28 13.28 0 0 1-13.27 13.27h-39.792a13.28 13.28 0 0 0 13.27-13.27v-56.862a13.266 13.266 0 0 0-13.27-13.27h39.792a13.268 13.268 0 0 1 13.27 13.27z" fill="#E2DEE2" p-id="5773"></path><path d="M512 455.73h-77.114v271.296c0 8.764 9.712 14.044 17.066 9.276l54.034-35.018a11.056 11.056 0 0 1 12.024 0l54.034 35.018c7.354 4.766 17.068-0.512 17.068-9.276V455.73z" fill="#EE6161" p-id="5774"></path><path d="M589.116 455.728v271.298c0 8.754-9.71 14.046-17.07 9.272l-22.72-14.724V455.728z" fill="#E94444" p-id="5775"></path><path d="M405.426 335.556c-36.85-9.938-73.992-3.172-94.196 23.19-30.038 39.2-30.082 113.802 0.002 153.058 20.2 26.36 57.342 33.126 94.194 23.188 41.978-11.32 65.53-35.95 89.956-62.828V398.386c-24.428-26.878-47.978-51.508-89.956-62.83z" fill="#EE6161" p-id="5776"></path><path d="M495.386 398.388v73.774c-7.878 8.654-15.658 17.09-24.014 24.93h-22.582c-20.354 0-36.986-16.652-36.986-37.006v-49.62c0-20.354 16.632-36.986 36.986-36.986h22.602c8.336 7.818 16.116 16.252 23.994 24.908z" fill="#E94444" p-id="5777"></path><path d="M618.574 335.556c36.85-9.938 73.992-3.172 94.196 23.19 30.038 39.2 30.082 113.802-0.002 153.058-20.2 26.36-57.342 33.126-94.194 23.188-41.978-11.32-65.53-35.95-89.956-62.828V398.386c24.426-26.878 47.978-51.508 89.956-62.83z" fill="#EE6161" p-id="5778"></path><path d="M712.768 511.814c-20.194 26.362-57.34 33.126-94.186 23.178-11.978-3.242-22.442-7.54-31.874-12.694 33.902 6.744 66.91-0.916 85.512-25.208 30.082-39.254 30.042-113.864 0-153.058a64.428 64.428 0 0 0-12.554-12.414c21.488 1.95 40.548 10.764 53.102 27.138 30.042 39.194 30.082 113.804 0 153.058z" fill="#E94444" p-id="5779"></path><path d="M536.812 497.08h-49.624c-20.346 0-36.994-16.648-36.994-36.994v-49.624c0-20.346 16.648-36.994 36.994-36.994h49.624c20.346 0 36.994 16.648 36.994 36.994v49.624c0 20.348-16.648 36.994-36.994 36.994z" fill="#EE6161" p-id="5780"></path><path d="M573.796 410.464v49.62c0 20.354-16.632 37.006-36.986 37.006h-39.792c20.354 0 36.986-16.652 36.986-37.006v-49.62c0-20.354-16.632-36.986-36.986-36.986h39.792c20.352 0 36.986 16.634 36.986 36.986z" fill="#E94444" p-id="5781"></path><path d="M803.038 510.586a463.928 463.928 0 0 0-54.026-53.908c4.78-38.192-3.338-79.522-24.398-107.008-19.958-26.042-54.746-37.654-93.322-31.982v-2.132c0-13.542-9.6-24.876-22.35-27.576l3.206-5.26c24.68-40.484 39.554-86.876 43.014-134.164a14.92 14.92 0 1 0-29.764-2.176c-3.114 42.578-16.508 84.354-38.73 120.806l-12.3 20.178h-124.73l-12.3-20.178a269.844 269.844 0 0 1-39.45-140.498V57.936c0-15.49 12.602-28.09 28.092-28.09s28.09 12.6 28.09 28.09a14.922 14.922 0 0 0 29.844 0c0-15.49 12.602-28.09 28.09-28.09s28.09 12.6 28.09 28.09c0 8.242 6.68 14.922 14.922 14.922s14.922-6.68 14.922-14.922a27.86 27.86 0 0 1 8.586-20.214c5.534-5.34 12.836-8.114 20.542-7.856 14.916 0.53 27.052 13.586 27.052 29.104v18.518a14.922 14.922 0 0 0 29.844 0v-18.518c0-31.398-25.048-57.834-55.836-58.928-15.866-0.57-30.912 5.19-42.326 16.208-0.972 0.938-1.906 1.902-2.804 2.894-10.61-11.748-25.952-19.14-42.992-19.14-17.048 0-32.402 7.402-43.012 19.162C458.38 7.406 443.028 0.004 425.98 0.004c-31.946 0-57.934 25.99-57.934 57.934v68.752c0 55.064 15.15 109.018 43.812 156.032l3.206 5.26c-12.75 2.698-22.35 14.034-22.35 27.576v2.132c-38.576-5.674-73.366 5.942-93.322 31.982-21.056 27.478-29.174 68.792-24.404 106.974a464.812 464.812 0 0 0-54.02 53.942C169.328 571.38 140.526 646.32 139.86 721.602c-0.706 79.748 31.148 153.464 89.696 207.568 64.244 59.37 159.128 91.274 282.014 94.822a15.306 15.306 0 0 0 0.86 0c122.888-3.548 217.77-35.452 282.014-94.822 58.546-54.104 90.402-127.822 89.696-207.568-0.664-75.282-29.468-150.222-81.102-211.016z m-180.58-160.622c33.112-8.932 63.18-2.086 78.466 17.858 26.086 34.044 26.084 100.866-0.002 134.906-15.284 19.946-45.35 26.788-78.464 17.858-19.53-5.268-34.578-13.622-48.252-24.542 8.982-9.338 14.522-22.008 14.522-35.956v-49.624c0-13.944-5.536-26.612-14.514-35.95 13.674-10.922 28.716-19.284 48.244-24.55z m-199.906-32.756h178.896v8.104c-23.156 8.352-40.77 20.656-55.602 34.038a51.94 51.94 0 0 0-9.034-0.804h-49.624c-3.084 0-6.1 0.286-9.036 0.804-14.832-13.382-32.444-25.688-55.598-34.038v-8.104z m136.332 93.256v49.624c0 12.17-9.902 22.072-22.072 22.072h-49.624c-12.17 0-22.07-9.902-22.07-22.072v-49.624c0-12.17 9.902-22.072 22.07-22.072h49.624c12.17 0 22.072 9.9 22.072 22.072z m-235.81-42.64c10.85-14.16 29.144-21.714 50.692-21.714 8.808 0 18.164 1.264 27.774 3.854 19.53 5.268 34.572 13.63 48.246 24.55-8.978 9.336-14.514 22.004-14.514 35.948v49.624c0 13.946 5.538 26.616 14.518 35.952-13.674 10.92-28.718 19.28-48.248 24.548-33.112 8.93-63.18 2.088-78.464-17.858-26.09-34.04-26.09-100.862-0.004-134.904z m451.116 539.43c-58.722 54.268-146.928 83.504-262.19 86.898-115.262-3.394-203.468-32.628-262.19-86.898-53.046-49.022-80.748-113.128-80.108-185.386 0.606-68.31 26.888-136.482 74.006-191.962a434.946 434.946 0 0 1 39.014-40.328c4.142 11.54 9.682 22.192 16.666 31.306 16.636 21.71 43.574 33.394 74.43 33.392 11.404 0 23.346-1.596 35.492-4.872a169.144 169.144 0 0 0 10.654-3.252v45.24c0 8.242 6.68 14.922 14.922 14.922s14.922-6.68 14.922-14.922V532.34c10.666-6.358 19.96-13.572 28.348-21.14 2.936 0.518 5.95 0.802 9.03 0.802h49.624a51.94 51.94 0 0 0 9.034-0.804c8.388 7.568 17.682 14.78 28.346 21.14v187.57l-48.064-31.15a26.018 26.018 0 0 0-28.256 0l-48.064 31.15v-59.256a14.922 14.922 0 0 0-29.844 0v66.372c0 9.528 5.2 18.274 13.572 22.822a25.95 25.95 0 0 0 26.532-1.024L512 715.168l51.932 33.656a25.96 25.96 0 0 0 26.532 1.024 25.954 25.954 0 0 0 13.572-22.822v-180.878a168.168 168.168 0 0 0 10.652 3.252c12.152 3.276 24.088 4.874 35.492 4.872 30.852 0 57.794-11.684 74.43-33.392 6.984-9.112 12.52-19.764 16.664-31.302a435.448 435.448 0 0 1 39.018 40.324c47.12 55.48 73.402 123.652 74.006 191.962 0.64 72.262-27.062 136.366-80.108 185.39z" p-id="5782"></path></svg>