<?xml version="1.0" standalone="no"?><!DOCTYPE svg PUBLIC "-//W3C//DTD SVG 1.1//EN" "http://www.w3.org/Graphics/SVG/1.1/DTD/svg11.dtd"><svg t="1649681286650" class="icon" viewBox="0 0 1024 1024" version="1.1" xmlns="http://www.w3.org/2000/svg" p-id="123089" xmlns:xlink="http://www.w3.org/1999/xlink" width="200" height="200"><defs><style type="text/css">@font-face { font-family: "feedback-iconfont"; src: url("//at.alicdn.com/t/font_1031158_u69w8yhxdu.woff2?t=1630033759944") format("woff2"), url("//at.alicdn.com/t/font_1031158_u69w8yhxdu.woff?t=1630033759944") format("woff"), url("//at.alicdn.com/t/font_1031158_u69w8yhxdu.ttf?t=1630033759944") format("truetype"); }
</style></defs><path d="M173.81046 184.809796s-12.819987-75.910035 115.912884-155.242473c0 0 30.857738-32.56894 153.867901 25.780237 0 0 76.6394 54.337671 60.284799 148.678191 0 0-14.643399 164.864477 1.262362 173.616854 0 0 26.088815 12.595567 156.953675-26.734022 0 0 29.707586 1.823412-2.019779 39.273484 2.805249-3.422404 37.898912 15.989919 31.530997 27.463387a6.620387 6.620387 0 0 1-4.460346-2.805249 515.604745 515.604745 0 0 0-46.230501 34.280141c-7.938854 6.704545-16.831493 13.773772-21.908994 22.918884-3.366299 5.891023-2.805249 8.415747-9.145111 13.857929a171.372654 171.372654 0 0 1-30.044216 21.263787c-14.278717 7.630277-30.857738 12.146728-46.763499 9.537846a1472.419034 1472.419034 0 0 1 69.76654 141.945593c7.630277 18.26217 14.895872 37.393968 14.390927 57.199025 49.03575 26.397392 109.404706 33.242199 161.385968 12.988302a160.993233 160.993233 0 0 0 83.568364-74.95625c18.542695-35.879133 21.600416-81.660795 23.732406-121.298961l21.656521 0.673259s11.417363 167.080624-24.994767 217.911734c0 0-74.254938 149.267293-250.396516 121.747801l-22.750568-7.826644-17.364491 38.403857 14.390927 46.482974c-0.532997 10.126948-7.630277 23.059146-10.856313 32.765307-4.095663 12.371148-7.994959 24.91061-12.791935 37.029285-0.953785-1.570939-2.328357-4.656713-3.730981-6.64844a254.492179 254.492179 0 0 0-19.636742-24.770347l-18.458538 25.24724c0-4.993343-15.905761-18.37438-19.328165-22.441991 0.476892 0.589102-14.362874 16.691231-16.410706 17.81333-9.313426 5.245815-13.212722 0.617155-19.636742-6.564282-13.661562-15.064187-25.555817-32.596992-24.966715-53.636359 0.280525-10.659946 2.468619-21.179629 2.973564-31.839575a100.624277 100.624277 0 0 0-24.630085-70.131222 148.481823 148.481823 0 0 1-72.936471 0.78547l-33.662987 47.408706a162.704435 162.704435 0 0 1 35.318084 30.857738 13.63351 13.63351 0 0 1 4.011506 7.630277c0.869627 13.577405-71.113059 33.522724-82.782895 36.804865a227.589842 227.589842 0 0 1-48.643016 8.556009 155.410788 155.410788 0 0 1-22.862778-0.392735c-4.600608-0.44884-18.402433-5.610498-22.105361-4.095663 0 0-33.943511 13.773772-53.496096 9.425636l-0.56105-19.215955-23.956826 6.53623-2.160041-25.24724-26.649865 5.245816 17.140071-34.083774 132.379695-43.761883s-100.09128-108.731447 1.206257-153.475166c0 0-38.684382-159.113717-33.662987-182.116758l-70.608114-68.672493-36.187711-35.205873c-9.818371-9.565899-27.800016-21.796784-33.129989-33.859354 4.684766-3.450456 9.958634-6.255705 15.008081-9.257321l4.039559-42.611731 88.814179 28.809906s-91.058379-145.28384 0.33663-192.047339z" fill="#FF8601" p-id="123090"></path><path d="M207.557604 610.029422a8.415747 8.415747 0 0 1-8.415746-7.097279c-4.656713-29.511218-6.395967-52.317892-5.161658-67.887023-52.261787-51.728789-134.792209-132.519957-143.067693-138.270718a8.415747 8.415747 0 0 1-3.815139-4.96529 17.476701 17.476701 0 0 1 3.254089-15.681342 19.356217 19.356217 0 0 1 14.026244-6.339862c2.805249-13.128565 4.348136-25.752185 3.618771-29.539271a9.930581 9.930581 0 0 1-0.785469-10.716051c2.300304-4.123716 6.98507-7.574172 25.24724-4.909185a8.584062 8.584062 0 0 1 2.496671 0.757417l54.141304 26.621812-23.956826-55.235351c-3.057721-6.031285-34.504561-72.599841 30.689423-127.722981-1.037942-14.278717 0.953785-55.375613 47.689231-103.625894 2.608881-2.945511 33.522724-37.113443 73.637783-55.656138a8.421357 8.421357 0 0 1 7.069227 15.288607c-37.75865 17.448648-67.915075 51.308002-68.223653 51.644631l-0.280524 0.308578C165.422766 128.929239 172.688361 169.240665 173.024991 170.951867a8.612114 8.612114 0 0 1-3.001617 8.415747c-61.715475 49.03575-31.166315 107.441032-29.819795 109.909651l0.308577 0.645207 33.662987 76.611347a8.415747 8.415747 0 0 1-11.417363 10.940471l-73.637784-36.159658c-1.346519-0.168315-2.805249-0.308577-4.06761-0.392735 0.44884 7.069227-0.589102 19.019587-5.610498 39.610114a8.415747 8.415747 0 0 1-9.145112 6.395968 22.918883 22.918883 0 0 0-5.329972 0c23.367723 20.366107 106.150618 102.026902 143.740952 139.252554a8.415747 8.415747 0 0 1 2.412514 7.013122c-1.739254 14.026244-0.168315 36.664603 4.684766 67.325974a8.415747 8.415747 0 0 1-7.013122 9.622003 10.070843 10.070843 0 0 1-1.23431-0.11221z m-156.392625-213.198915h0.168315z m17.645016-55.740295zM259.314446 891.22757a8.415747 8.415747 0 0 1-5.386078-1.963674c-3.422404-2.805249-83.203682-70.32759-75.741719-131.117333 2.805249-22.694463 16.831493-41.181054 42.078733-55.067035-3.169931-12.73583-10.379421-42.527573-16.382654-74.479358a8.415747 8.415747 0 0 1 16.522916-3.113826c7.854697 41.601841 17.70112 79.472701 17.813331 79.865435a8.415747 8.415747 0 0 1-4.460346 9.678109c-23.507986 11.529573-36.468235 26.705969-38.824645 45.108402-6.283757 51.756842 69.149385 115.576254 69.906803 116.221461a8.415747 8.415747 0 0 1-5.386078 14.867819z" fill="#231815" p-id="123091"></path><path d="M143.569877 979.92954a36.692655 36.692655 0 0 1-13.521299-2.047832 16.242391 16.242391 0 0 1-10.239159-11.220995 11.220996 11.220996 0 0 1-0.308577-1.402625c-13.352985 3.618771-16.466811 1.374572-18.542695 0s-6.059338-4.320083-4.937238-20.478316c-10.379421 1.879517-20.310002 1.1221-24.153193-6.816755-1.823412-3.787086-6.08739-12.679725 27.491439-41.489631a8.415747 8.415747 0 0 1 2.440566-1.486782c40.535846-15.625236 109.657179-41.938471 117.399666-42.443416a8.443799 8.443799 0 0 1 1.402625 16.831494c-6.844807 1.290414-62.10821 21.852889-111.368381 40.844423a168.875983 168.875983 0 0 0-18.14996 18.262171 78.378654 78.378654 0 0 0 12.118675-2.805249 8.415747 8.415747 0 0 1 8.107169 1.570939 8.415747 8.415747 0 0 1 2.805249 7.742487 122.757691 122.757691 0 0 0-1.486782 14.811714 155.691313 155.691313 0 0 0 16.298496-5.217763 8.415747 8.415747 0 0 1 9.565899 13.128565 14.362874 14.362874 0 0 0-2.356409 4.600608h0.280525c5.610498 2.300304 24.46177-0.364682 38.768539-4.151768a7.798592 7.798592 0 0 1 2.131989-0.280525c119.110868-0.44884 162.395858-30.21253 170.895762-37.1976 0.813522-10.519683-12.427253-18.879325-12.567515-18.963483a8.415747 8.415747 0 1 1 8.724324-14.390927c1.065995 0.645207 26.004657 16.102129 19.636743 39.834535a8.415747 8.415747 0 0 1-1.963675 3.534613c-1.627044 1.795359-41.461579 43.28499-183.715749 43.986303a157.093937 157.093937 0 0 1-34.757034 5.245815z m212.441498-54.786511z m-135.493521-55.68419zM569.855498 1014.602416c-4.123716 0-10.211106-3.169931-19.49648-19.636742a35.570556 35.570556 0 0 1-15.569131 14.362874 14.447032 14.447032 0 0 1-11.838151-0.532997c-5.133605-2.468619-9.369531-7.966907-12.595567-13.773772-4.628661 6.98507-10.940471 13.829877-18.739063 15.961866-5.610498 1.514834-16.831493 1.627044-26.649864-14.980029-2.805249-4.796976-5.273868-9.734214-7.574172-14.531189-0.729365-1.542887-1.486782-3.085774-2.244199-4.628661a60.340903 60.340903 0 0 0-3.169931-5.358025 49.48459 49.48459 0 0 1-6.143495-12.17478 75.74172 75.74172 0 0 1-2.468619-35.149769 8.477462 8.477462 0 1 1 16.831493 2.019779v0.476893c0 0.757417-0.196367 1.879517-0.252473 2.664986a9.846424 9.846424 0 0 1-0.196367 2.019779v0.364683a55.038983 55.038983 0 0 0 2.468619 22.694463 35.514451 35.514451 0 0 0 4.235926 8.023012 76.976029 76.976029 0 0 1 4.039558 6.900912l2.328357 4.796976c2.216147 4.656713 4.348136 9.032901 6.816755 13.156617 3.197984 5.30192 6.42402 7.770539 7.826644 7.377805 5.610498-1.458729 12.791935-14.026244 15.989919-22.441991a8.415747 8.415747 0 0 1 15.905761 0.476892c2.805249 8.752377 7.546119 18.14996 10.463578 20.562474 4.796976-2.805249 10.407473-13.07246 12.819987-19.889214a8.415747 8.415747 0 0 1 15.569132-0.67326 170.110292 170.110292 0 0 0 11.220995 20.814947 321.902309 321.902309 0 0 0 12.230885-35.542504 8.415747 8.415747 0 0 1 2.272252-3.759033c14.026244-13.493247-4.712818-47.184286-12.455305-57.92839a8.415747 8.415747 0 0 1 13.661562-9.818371c1.542887 2.103937 36.468235 51.308002 12.118675 78.182287-13.352985 45.921924-19.889215 48.110018-23.45188 49.288223a11.024628 11.024628 0 0 1-3.955401 0.673259z m-3.702929-15.456921zM660.717509 871.422513a326.250445 326.250445 0 0 1-38.516067-2.328356 8.471852 8.471852 0 0 1 1.991727-16.831494c75.012355 8.948744 138.607347-8.415747 189.101827-51.420212a216.200531 216.200531 0 0 0 53.916883-68.111443 8.415747 8.415747 0 0 1 1.486782-2.300304c19.889215-21.656521 23.872668-129.293921 21.740679-201.332712l-6.367915-0.196367-3.506561 21.432101c-4.207873 56.104978-19.019587 100.680382-44.014355 132.21138a8.415747 8.415747 0 1 1-13.18467-10.463578c22.918883-28.922116 36.468235-70.411747 40.451689-123.430951a3.226036 3.226036 0 0 1 0-0.729365l4.740871-29.090431a8.415747 8.415747 0 0 1 8.415746-7.069227l21.656522 0.67326a8.415747 8.415747 0 0 1 8.135222 8.107169c0.701312 18.795168 5.891023 183.126647-24.938663 220.099827a232.41487 232.41487 0 0 1-57.227077 72.403474c-32.204257 27.940279-85.560091 58.377229-163.88264 58.377229z" fill="#231815" p-id="123092"></path><path d="M734.411397 734.834945a8.421357 8.421357 0 0 1-0.589102-16.831493 106.599458 106.599458 0 0 0 70.467852-32.23231 8.421357 8.421357 0 1 1 12.006465 11.810098 123.234583 123.234583 0 0 1-81.352218 37.225653zM700.860621 739.126976a226.299427 226.299427 0 0 1-72.010739-11.922308 8.426968 8.426968 0 0 1 5.891022-15.793551 212.217078 212.217078 0 0 0 76.050298 10.631893 8.429773 8.429773 0 1 1 0.925732 16.831493c-3.674876 0.168315-7.3217 0.252472-10.856313 0.252473zM605.229686 738.341506a9.593951 9.593951 0 0 1-1.963674-0.22442 8.415747 8.415747 0 0 1-6.227653-10.155001c8.135222-34.336246-51.27995-155.018053-74.872092-198.583568a8.415747 8.415747 0 1 1 14.783661-8.023012c9.004849 16.607073 87.551818 163.714325 76.471085 210.393666a8.415747 8.415747 0 0 1-8.191327 6.592335zM514.844567 513.220283a8.415747 8.415747 0 0 1-0.33663-16.831493c58.517492-2.328357 80.398433-22.441991 85.952826-29.062378 1.065995-6.452072 8.948744-18.318275 38.796592-44.322933a8.752377 8.752377 0 0 1 4.039558-1.935622c3.871243-1.767307 16.214339-12.455305 26.565707-22.441991-3.085774-3.450456-12.84804-9.257321-22.105361-12.960249a8.415747 8.415747 0 0 1-3.843191-12.567515l12.230885-17.841383c2.160042-4.263978 1.963674-6.227653 1.79536-6.53623a7.125332 7.125332 0 0 0-3.843191-1.542887c-85.588143 33.270252-172.915541 38.852697-176.73068 39.077117a8.429773 8.429773 0 1 1-1.00989-16.831494c0.869627 0 89.767964-5.75076 173.336329-38.684382a8.415747 8.415747 0 0 1 3.226036-0.561049c1.374572 0 13.773772 0.476892 19.38427 9.930581 3.759034 6.339862 3.226036 14.194559-1.570939 23.367723-0.168315 0.280525-0.33663 0.56105-0.532998 0.841575l-6.676492 10.070843c9.425636 4.684766 20.814947 12.006465 23.395776 20.842999a14.026244 14.026244 0 0 1-2.13199 12.315043 11.866203 11.866203 0 0 1-0.953784 1.122099c-20.842999 20.310002-30.268635 26.36934-34.869244 28.220804-13.437142 11.83815-28.276909 26.677917-31.278525 32.148152a8.584062 8.584062 0 0 1-1.094047 4.740871c-0.841575 1.486782-21.488206 36.243816-101.353642 39.441799z m101.578062-47.997808z" fill="#231815" p-id="123093"></path><path d="M499.247383 381.626058a8.415747 8.415747 0 0 1-7.798592-5.245815l-2.496671-6.08739c-3.759034-5.105553-6.003233-22.021204-4.376188-109.404707 0.925732-50.129798 2.805249-100.287648 2.805248-100.792592a119.02671 119.02671 0 0 0-50.859162-105.196833 2.805249 2.805249 0 0 1-0.476892-0.33663 217.743418 217.743418 0 0 0-48.053913-27.098704 8.426968 8.426968 0 0 1 6.171547-15.681342 236.875216 236.875216 0 0 1 51.61658 28.866011 135.886256 135.886256 0 0 1 58.461386 120.092705c-3.366299 87.411555-4.909186 186.128263-1.262362 199.789826a8.836534 8.836534 0 0 1 0.869627 1.598991l3.169932 7.77054a8.415747 8.415747 0 0 1-7.77054 11.61373z m1.374572-23.283566z m0 0zM356.937107 18.71101a10.884366 10.884366 0 0 1-1.346519 0 134.427527 134.427527 0 0 0-31.755417-1.374572 8.440994 8.440994 0 0 1-1.290415-16.831493 154.288689 154.288689 0 0 1 35.710818 1.542887 8.443799 8.443799 0 0 1-1.318467 16.831493zM612.551386 432.429115a8.415747 8.415747 0 0 1-6.452073-13.801824c13.549352-16.298496 13.605457-22.189519 13.493247-23.115251-2.636934-2.131989-15.933814-1.711202-29.062378 2.075884a8.415747 8.415747 0 0 1-4.684766-16.158233c8.836534-2.552776 38.3197-9.762266 47.885599 4.881133 8.415747 12.763882-4.404241 30.857738-14.699504 43.088623a8.415747 8.415747 0 0 1-6.480125 3.029668zM115.068549 413.99863a8.415747 8.415747 0 0 1-3.085774-0.589102c-6.003233-2.356409-24.293455-9.565899-24.040983-24.01293 0.252472-15.484974 22.217571-24.517875 28.922116-26.93039a8.415747 8.415747 0 1 1 5.610498 15.849656c-8.948744 3.226036-17.224228 8.976796-17.757226 11.445416 0 0 1.542887 3.338246 13.381037 7.994959a8.415747 8.415747 0 0 1-3.085773 16.242391zM661.222454 843.426129q-11.978413 0-24.742295-1.122099a8.44941 8.44941 0 0 1 1.486782-16.831493c77.733447 6.900912 143.26406-19.49648 194.76843-78.546969a300.638523 300.638523 0 0 0 54.477933-91.086431 8.418552 8.418552 0 1 1 15.989919 5.273867 312.925513 312.925513 0 0 1-57.81618 97.173822c-34.841191 39.778429-94.256362 85.139304-184.164589 85.139303zM559.560234 913.136564a8.415747 8.415747 0 0 1-3.702928-15.989919c42.078733-20.478317 47.885598-86.962715 41.601841-124.048105a34.224036 34.224036 0 0 0-22.918884-28.220804c-19.440375-6.76065-43.116675-1.935622-59.527381 3.310194a8.424162 8.424162 0 0 1-5.133605-16.046024c18.879325-6.031285 46.370764-11.473468 70.131222-3.141879 18.514643 6.452072 30.577213 21.123524 33.999616 41.293264 7.349752 43.565515 0 117.315508-50.83111 141.973646a8.415747 8.415747 0 0 1-3.618771 0.869627zM265.177416 330.430266c-103.177054 0-137.457195-42.864203-139.308659-45.416979a8.424162 8.424162 0 0 1 13.381037-10.239159c0.308577 0.420787 16.102129 19.777005 58.629702 30.857738 40.030902 10.463578 112.37827 15.569131 229.665726-19.636742a8.247432 8.247432 0 0 1 3.955401-0.196368 65.586719 65.586719 0 0 0 5.610497-15.204449 8.415747 8.415747 0 1 1 16.270444 4.320084c-4.937238 18.458538-10.407473 27.014547-18.346328 28.613538a11.697888 11.697888 0 0 1-6.059337-0.364682c-67.887023 20.169739-121.719749 27.267019-163.798483 27.267019z m171.120182-41.798208l0.252473 0.33663z" fill="#231815" p-id="123094"></path><path d="M280.578233 381.99074c-3.618771 0-7.20949-0.168315-10.800208-0.476892-68.139495-5.834918-107.356875-64.913459-108.98392-67.325973a8.415747 8.415747 0 0 1 14.026245-9.173164c0.504945 0.78547 36.692655 54.814563 96.472509 59.864011 45.248664 3.815138 92.769581-20.758842 141.272334-72.936471a8.415747 8.415747 0 1 1 12.343095 11.445416c-48.502753 52.121524-97.005506 78.603074-144.330055 78.603073z" fill="#231815" p-id="123095"></path><path d="M304.619216 415.260992a252.4724 252.4724 0 0 1-42.499521-3.702928 330.009479 330.009479 0 0 1-99.838808-34.532614 8.421357 8.421357 0 0 1 8.415747-14.587294 317.722489 317.722489 0 0 0 94.705202 32.512834c69.76654 11.72594 126.039832-6.059338 167.248939-52.878941a8.443799 8.443799 0 1 1 12.62362 11.220995c-36.047448 40.928581-84.129414 61.967948-140.655179 61.967948zM457.224755 899.699422a8.415747 8.415747 0 0 1-7.377805-12.455305c3.282141-5.97518-8.584062-26.116867-22.441991-42.078733-22.722516 8.135222-43.930198 3.450456-58.349176 0.252472a76.807714 76.807714 0 0 0-10.828261-1.935622c-4.965291 2.973564-17.645015 22.778621-27.547544 43.116676a8.424162 8.424162 0 0 1-15.148344-7.377805c16.438758-33.662987 30.044216-51.420212 40.451689-52.458154a56.862395 56.862395 0 0 1 16.831493 2.216147c14.278717 3.169931 33.662987 7.490015 53.580254-1.514835a8.415747 8.415747 0 0 1 9.678108 1.963674c9.537846 10.323316 39.778429 45.585294 28.585487 66.007507a8.415747 8.415747 0 0 1-7.43391 4.263978z" fill="#231815" p-id="123096"></path><path d="M392.171033 850.270937a99.53023 99.53023 0 0 1-38.488014-7.490015c-39.273484-16.438758-124.216421-100.371805-133.137112-138.102402a8.415747 8.415747 0 1 1 16.354601-3.871244c7.742487 32.625045 88.505602 111.92943 123.262636 126.432567 29.202641 12.202833 58.741912 2.805249 65.137879 0.504945 36.86097-35.037559 41.657946-120.962332 13.857929-248.769471a1508.859217 1508.859217 0 0 0-55.936663-189.634824 8.415747 8.415747 0 0 1 15.709394-6.003233c5.610498 14.895872 138.102403 365.972769 36.468236 457.984933a8.191327 8.191327 0 0 1-2.384462 1.514834 113.38816 113.38816 0 0 1-40.844424 7.43391z m37.64644-15.260554zM202.844786 540.290935a8.415747 8.415747 0 0 1-8.415746-7.658329c-0.981837-10.996576-8.836534-108.142344 16.438758-133.501795a22.834726 22.834726 0 0 1 18.514643-7.013122 8.443799 8.443799 0 0 1-1.430677 16.831493 5.919075 5.919075 0 0 0-5.161658 2.103937c-14.895872 14.951977-15.008082 81.632743-11.613731 120.14881a8.415747 8.415747 0 0 1-7.630277 9.117058z" fill="#231815" p-id="123097"></path><path d="M395.930539 223.6121a42.920308 68.812755 15.81 1 0 37.49582-132.4192 42.920308 68.812755 15.81 1 0-37.49582 132.4192Z" fill="#231815" p-id="123098"></path><path d="M380.184916 158.857128a16.102129 34.588719 30 1 0 34.588718-59.909418 16.102129 34.588719 30 1 0-34.588718 59.909418Z" fill="#FFFFFF" p-id="123099"></path><path d="M378.172841 185.875791c5.133605 18.290223 15.793551 30.857738 28.052489 30.857738s23.031093-12.62362 28.052489-30.857738a81.352218 81.352218 0 0 1-56.301345 0z" fill="#3C8146" p-id="123100"></path><path d="M172.772971 178.13201a21.824836 55.936663 28.35 1 0 53.123763-98.455607 21.824836 55.936663 28.35 1 0-53.123763 98.455607Z" fill="#231815" p-id="123101"></path><path d="M183.76972 124.861473a8.668219 26.565707 37.58 1 0 32.40318-42.106783 8.668219 26.565707 37.58 1 0-32.40318 42.106783Z" fill="#FFFFFF" p-id="123102"></path><path d="M173.69825 144.133688c-3.169931 15.008082-2.019779 26.649864 3.730981 28.922116s14.531189-5.610498 22.441991-18.5988a26.004657 26.004657 0 0 1-14.643399-1.290415 25.499712 25.499712 0 0 1-11.529573-9.032901z" fill="#3C8146" p-id="123103"></path><path d="M227.585322 281.23323a11.669835 6.592335 71.8 1 0 12.525067-4.118033 11.669835 6.592335 71.8 1 0-12.525067 4.118033Z" p-id="123104"></path><path d="M297.224297 288.924438a6.592335 11.669835 28.35 1 0 11.082992-20.540388 6.592335 11.669835 28.35 1 0-11.082992 20.540388Z" p-id="123105"></path><path d="M419.914945 301.900885c-149.9125 157.093937-246.861902 10.996576-246.861902 10.996575s26.172972 16.298496 118.942553 9.173164 127.919349-20.169739 127.919349-20.169739z" fill="#FB4432" p-id="123106"></path><path d="M304.254533 340.949949c-30.156425 0-57.59176 7.069227-78.210339 18.795168 32.45673 17.476701 78.715284 25.611922 135.437417-9.201216a170.86771 170.86771 0 0 0-57.227078-9.593952z" fill="#DC7E71" p-id="123107"></path><path d="M237.04077 346.897077l-14.026244 11.136838 12.118675 6.620387 1.907569-17.757225zM219.11523 343.951566l11.697888-20.95521-19.7209-0.981837 8.023012 21.937047zM334.046277 346.448237l0.196367 18.570748 12.651672-6.171548-12.848039-12.3992zM339.348197 339.294852l8.163274-23.059145-18.879325 2.328356 10.716051 20.730789z" fill="#FFFFFF" p-id="123108"></path><path d="M387.317953 398.401446s120.26102 319.153165 46.679341 422.751007c-4.179821 5.86297-13.381037 9.650056-19.889214 11.613731-20.590527 6.1996-42.527573-0.504945-60.761691-10.519684-24.714243-13.577405-45.529189-33.186094-64.941512-53.299729-18.739063-19.636742-38.908802-39.890639-49.091855-65.502561-8.163274-20.562474-7.518067-43.84604-8.864587-65.642824-2.805249-45.501137-4.684766-91.226694-2.973564-136.84004a389.929595 389.929595 0 0 1 5.470236-57.70397c2.103937-11.220996 4.712818-25.668027 13.296879-34.083774 0-0.196367 84.746569 14.615347 141.075967-10.772156z" fill="#F2DF83" p-id="123109"></path><path d="M246.241986 408.977235s-11.557625-10.042791-23.56409-2.188094c0 0-7.09728 9.537846-11.024628 29.595375-8.948744 45.725557-15.008082 138.102403 20.057529 240.045147 0 0.084157-11.417363-235.388434 14.531189-267.452428z" fill="#FFFAFF" p-id="123110"></path><path d="M507.719235 983.828836c0 14.755609-7.910802 32.148152-17.673068 32.148152s-17.673068-17.392543-17.673068-32.148152 7.910802-17.252281 17.673068-17.252281 17.673068 2.496672 17.673068 17.252281z" fill="#EDFEFE" p-id="123111"></path><path d="M490.046167 1021.587486c-13.717667 0-23.283566-19.889215-23.283566-37.75865 0-22.862778 17.532806-22.862778 23.283566-22.862778s23.283566 0 23.283566 22.862778c0 17.869435-9.565899 37.75865-23.283566 37.75865z m0-49.400433c-8.415747 0-12.06257 1.627044-12.06257 11.641783 0 13.156617 7.013122 26.537654 12.06257 26.537654s12.06257-13.381037 12.06257-26.537654c0-10.014739-3.534614-11.641783-12.06257-11.641783z" p-id="123112"></path><path d="M166.993705 984.053256c-13.128565 6.732597-32.204257 7.630277-36.664602-1.037942s7.377805-23.676301 20.506369-30.436951 18.963482-0.841575 23.423828 7.854697 5.97518 16.943703-7.265595 23.620196z" fill="#EDFEFE" p-id="123113"></path><path d="M145.757971 995.077884c-9.060954 0-16.831493-2.805249-20.310001-9.425636-6.283757-12.202833 7.041175-29.819796 22.946935-37.98307 20.338054-10.435526 28.333014 5.161658 30.857738 10.295263s10.631893 20.702737-9.706161 31.166315a54.057146 54.057146 0 0 1-23.788511 5.947128z m15.120292-39.722324a16.831493 16.831493 0 0 0-7.377805 2.300304c-11.697888 6.031285-20.366107 18.37438-18.065802 22.862778s17.392543 4.628661 29.118483-1.374572c8.920691-4.572556 8.724324-8.415747 4.825028-16.046023-2.552776-4.993343-4.740871-7.742487-8.499904-7.742487z" p-id="123114"></path><path d="M144.243137 960.966058c-12.034518 8.556009-30.857738 12.146728-36.468235 4.17982s3.955401-24.489823 15.989918-33.017779 18.654905-3.534614 24.293456 4.432293 8.219379 15.877709-3.815139 24.405666z" fill="#EDFEFE" p-id="123115"></path><path d="M119.108107 975.188669c-7.181437 0-12.707777-2.356409-15.877709-6.816754-3.899296-5.610498-3.562666-13.352985 0.953785-22.105362a55.038983 55.038983 0 0 1 16.354601-18.71101c7.09728-5.049448 13.465195-6.592335 19.440375-4.768923a25.668027 25.668027 0 0 1 12.707777 10.547736c3.310194 4.684766 13.465195 18.991535-5.18971 32.204257a54.870668 54.870668 0 0 1-23.087199 9.257322 39.273484 39.273484 0 0 1-5.30192 0.392734z m16.017971-41.882365a15.008082 15.008082 0 0 0-8.079117 3.394351 43.537463 43.537463 0 0 0-12.904144 14.727556c-2.356409 4.544503-3.029669 8.668219-1.767307 10.463579s5.386078 2.496672 10.463578 1.795359a43.425253 43.425253 0 0 0 18.14996-7.293647c8.191327-5.806865 7.461962-9.622004 2.524724-16.579021a14.839767 14.839767 0 0 0-6.816754-6.255705 4.740871 4.740871 0 0 0-1.57094-0.252472z" p-id="123116"></path><path d="M124.269765 930.753527c-13.128565 6.732597-32.204257 7.630277-36.664603-1.065994s7.377805-23.648248 20.506369-30.408898 18.963482-0.841575 23.423829 7.854697 5.86297 16.915651-7.265595 23.620195z" fill="#EDFEFE" p-id="123117"></path><path d="M102.921821 941.72205c-9.060954 0-16.831493-2.805249-20.310002-9.397584-6.283757-12.202833 7.041175-29.819796 22.946936-37.983069 20.338054-10.435526 28.333014 5.161658 30.857738 10.295263s10.631893 20.702737-9.706161 31.166315a54.113251 54.113251 0 0 1-23.788511 5.919075z m15.120291-39.694271a16.831493 16.831493 0 0 0-7.377804 2.300304c-11.697888 6.031285-20.394159 18.37438-18.065803 22.862778s17.392543 4.628661 29.090431-1.374572c8.920691-4.572556 8.752377-8.415747 4.853081-16.074076-2.552776-4.965291-4.768923-7.714434-8.499905-7.714434z" p-id="123118"></path><path d="M581.805858 983.828836c0 14.755609-6.255705 32.148152-14.026245 32.148152s-14.026244-17.392543-14.026244-32.148152 6.227653-17.252281 14.026244-17.252281 14.026244 2.496672 14.026245 17.252281z" fill="#EDFEFE" p-id="123119"></path><path d="M567.835718 1021.587486c-12.763882 0-19.636742-21.937046-19.636742-37.75865 0-15.372764 6.395967-22.862778 19.636742-22.862778s19.636742 7.490015 19.636743 22.862778c-0.056105 15.821604-6.844807 37.75865-19.636743 37.75865z m0-49.400433c-4.656713 0-8.415747 0-8.415746 11.641783 0 13.829877 5.610498 25.80829 8.415746 26.537654 2.664986-0.729365 8.275484-12.707777 8.275485-26.537654 0.084157-11.641783-3.590719-11.641783-8.275485-11.641783z" p-id="123120"></path><path d="M548.507554 983.099471c0 16.214339-7.938854 35.290031-17.729173 35.290031s-17.729173-19.075692-17.729173-35.290031 7.938854-18.93543 17.729173-18.93543 17.729173 2.749144 17.729173 18.93543z" fill="#EDFEFE" p-id="123121"></path><path d="M530.806433 1024c-15.036134 0-23.339671-24.181245-23.339671-40.900529 0-24.545928 17.560858-24.545928 23.339671-24.545927s23.339671 0 23.339671 24.545927c-0.028052 16.719283-8.303537 40.900529-23.339671 40.900529z m0-54.225461c-7.546119 0-12.118675 0.89768-12.118675 13.324932 0 15.288606 7.546119 29.679533 12.118675 29.679533s12.118675-14.390927 12.118675-29.679533c-0.028052-12.427253-4.572556-13.324932-12.118675-13.324932zM361.257191 128.648714a5.610498 5.610498 0 0 1-2.188094-0.44884 5.610498 5.610498 0 0 1-2.973564-7.349752c0.981837-2.328357 24.46177-56.637975 65.222036-51.588527a5.652577 5.652577 0 0 1-1.374572 11.220995c-32.372572-3.983453-53.299729 44.322932-53.524148 44.883983a5.610498 5.610498 0 0 1-5.161658 3.282141z" p-id="123122"></path><path d="M836.774929 379.690436l2.973564 7.574172 15.316659 39.273485L902.249438 347.766704l33.382462 90.918116 28.922116-45.473084s28.922116 72.066844 0 104.635783c-12.146728 13.689615-26.088815 25.892447-43.902145 31.587103-33.999616 10.856313-91.619429-17.673068-105.084624-50.746952-4.516451-11.220996-2.805249-24.994768-0.701312-36.468236a186.773471 186.773471 0 0 1 7.88275-28.781854c2.075884-5.666603 15.793551-29.258746 14.026244-33.747144z" fill="#E56412" p-id="123123"></path><path d="M854.700469 427.07109l2.047832 5.217763 10.603841 26.986494 32.737254-54.197408 23.227461 62.613155 20.05753-31.306578s20.05753 49.5968 0 72.038792c-8.415747 9.425636-18.093855 17.81333-30.465003 21.740679-23.564091 7.461962-63.510835-12.17478-72.936471-34.925349-3.113826-7.658329-1.851464-17.224228-0.476893-25.078925a128.760924 128.760924 0 0 1 5.610498-19.805057c1.318467-3.955401 10.800208-20.197792 9.593951-23.283566z" fill="#F4F97F" p-id="123124"></path></svg>