<svg viewBox="0 0 200 200" xmlns:xlink="http://www.w3.org/1999/xlink" xmlns="http://www.w3.org/2000/svg" id="图层_1"><defs><style>.cls-1{fill:none;}.cls-2{clip-path:url(#clip-path);}.cls-3{fill:#fff;}.cls-4{fill:#290d06;}.cls-5{clip-path:url(#clip-path-2);}.cls-6{fill:#b3dadf;}.cls-7{fill:#a989bd;}.cls-8{fill:#dbb4d3;}.cls-9{fill:#5e74ab;}.cls-10{fill:#3d5c97;}.cls-11{fill:#a68685;}.cls-12{fill:#c089ba;}.cls-13{clip-path:url(#clip-path-3);}.cls-14{fill:#fbfaeb;}.cls-15{fill:#290e06;}</style><clipPath id="clip-path"><rect height="200" width="200" class="cls-1"></rect></clipPath><clipPath id="clip-path-2"><circle r="81.49" cy="100" cx="100" class="cls-1"></circle></clipPath><clipPath id="clip-path-3"><path d="M109.73,79.22c-.84-1.73-3.23-2.81-6-2.52a7.15,7.15,0,0,0-4.86,2.45h-.2c-2.65.28-4.69,2-4.57,3.86s2.37,3.12,5,2.84a6.79,6.79,0,0,0,1.66-.39,7.44,7.44,0,0,0,5.37,1.26c3.47-.37,6.16-2.46,6-4.68A3.52,3.52,0,0,0,109.73,79.22Z" class="cls-1"></path></clipPath></defs><title>画板 3 副本 6</title><g class="cls-2"><circle r="86.75" cy="100" cx="100" class="cls-3"></circle><path d="M100,182a82,82,0,1,1,82-82A82.08,82.08,0,0,1,100,182Z" class="cls-3"></path><path d="M100,18.51A81.49,81.49,0,1,1,18.51,100,81.49,81.49,0,0,1,100,18.51m0-1A82.49,82.49,0,1,0,182.49,100,82.58,82.58,0,0,0,100,17.51Z" class="cls-4"></path><g class="cls-5"><rect height="34.27" width="125.12" y="69.66" x="37.83" class="cls-6"></rect><path d="M162.76,69.85v33.89H38V69.85H162.76m.38-.38H37.64v34.64h125.5V69.47Z" class="cls-4"></path><path d="M78.76,116.18c-9.46,0-17.15-5.23-17.19-11.66A12,12,0,0,1,54,100.86,11.36,11.36,0,0,1,49,102,10.78,10.78,0,1,1,60,89.64a16,16,0,0,1,3.7-.43c4.19,0,8,1.57,10,4.1a24.71,24.71,0,0,1,5.09-.52c9.48,0,17.19,5.25,17.19,11.7S88.23,116.18,78.76,116.18Z" class="cls-7"></path><path d="M49,80.66a10.84,10.84,0,0,1,10.87,9.21,15.75,15.75,0,0,1,3.85-.48c4.31,0,8,1.68,9.87,4.12A24.51,24.51,0,0,1,78.76,93c9.39,0,17,5.16,17,11.51S88.14,116,78.76,116s-17-5.15-17-11.51c0,0,0-.08,0-.12A11.86,11.86,0,0,1,54,100.63a11.24,11.24,0,0,1-5.06,1.2,10.59,10.59,0,1,1,0-21.17m0-.38a11,11,0,1,0,0,21.92,11.54,11.54,0,0,0,5-1.11,12.25,12.25,0,0,0,7.44,3.59c.16,6.46,7.89,11.68,17.37,11.68S96.13,111,96.13,104.48,88.34,92.59,78.76,92.59a25,25,0,0,0-5,.5c-2-2.52-5.84-4.08-10-4.08a16.15,16.15,0,0,0-3.54.39A11.26,11.26,0,0,0,49,80.28Z" class="cls-4"></path><path d="M72.32,95.16c-5.66-4.51-13.58-2.22-13.58-2.22-7-11.47-17.41-2.85-17.41-2.85l-1,7.6A10.82,10.82,0,0,0,42,99.37l44.31-1.44A17.07,17.07,0,0,0,72.32,95.16Z" class="cls-8"></path><path d="M124.82,107.92c-7.52,0-13.64-4.51-13.64-10.06s6.12-10.06,13.64-10.06a18,18,0,0,1,4.67.61c2.59-4.76,9.2-8,16.5-8,9.73,0,17.65,5.54,17.65,12.35s-7.92,12.35-17.65,12.35a23.38,23.38,0,0,1-9.6-2C133.89,106.15,129.58,107.92,124.82,107.92Z" class="cls-7"></path><path d="M146,80.66c9.65,0,17.47,5.44,17.47,12.16S155.64,105,146,105a23.11,23.11,0,0,1-9.65-2c-2.35,2.86-6.63,4.78-11.52,4.78-7.43,0-13.45-4.42-13.45-9.87s6-9.87,13.45-9.87a17.8,17.8,0,0,1,4.77.64c2.45-4.66,8.87-8,16.41-8m0-.38c-7.31,0-13.92,3.17-16.6,7.92a18.21,18.21,0,0,0-4.58-.58c-7.62,0-13.83,4.6-13.83,10.24s6.2,10.24,13.83,10.24c4.75,0,9.07-1.75,11.63-4.7a23.61,23.61,0,0,0,9.55,1.94c9.84,0,17.84-5.62,17.84-12.54s-8-12.54-17.84-12.54Z" class="cls-4"></path><path d="M160.06,92s-15.57-8.39-27,1.18c0,0-16-5-13.83,8.63s44.63,2.14,45,1.94S160.06,92,160.06,92Z" class="cls-8"></path><rect height="34.27" width="125.12" y="96.99" x="37.83" class="cls-9"></rect><path d="M162.76,97.18v33.89H38V97.18H162.76m.38-.38H37.64v34.64h125.5V96.8Z" class="cls-4"></path><path d="M38,105.85c3.84-2.33,10.59-5.59,13.95-2.13,4.84,5,21.66.34,25.21-.86s9.3-.86,17.23,3.44,39.66-.34,42-2.93c1.84-2,18.17,1.61,26.37,4.08V97.18H38Z" class="cls-10"></path><path d="M34.25,132.78a.19.19,0,0,1-.19-.19V67.41a.19.19,0,0,1,.19-.19H165.75a.19.19,0,0,1,.19.19v65.18a.19.19,0,0,1-.19.19ZM156.68,128V72H43.32v56Z" class="cls-11"></path><path d="M165.75,67.41v65.18H34.25V67.41H165.75M43.14,128.19H156.86V71.81H43.14v56.37M165.75,67H34.25a.38.38,0,0,0-.38.38v65.18a.38.38,0,0,0,.38.38H165.75a.38.38,0,0,0,.38-.38V67.41a.38.38,0,0,0-.38-.38ZM43.51,72.19h113v55.62h-113V72.19Z" class="cls-4"></path><path d="M105.14,87a7.25,7.25,0,0,1-4.37-1.29,6.94,6.94,0,0,1-1.61.37,7,7,0,0,1-.75,0c-2.48,0-4.36-1.29-4.48-3.06-.13-1.95,2-3.77,4.74-4.06h.13a7.4,7.4,0,0,1,4.94-2.46,8.52,8.52,0,0,1,.9,0c2.38,0,4.42,1,5.22,2.61a3.66,3.66,0,0,1,2.51,3c.15,2.31-2.62,4.5-6.18,4.88a10.11,10.11,0,0,1-1.06.06Z" class="cls-12"></path><path d="M104.64,76.66c2.36,0,4.34,1,5.09,2.57a3.52,3.52,0,0,1,2.46,2.84c.15,2.22-2.54,4.31-6,4.68a9.85,9.85,0,0,1-1,.06,7,7,0,0,1-4.34-1.31,6.79,6.79,0,0,1-1.66.39,6.9,6.9,0,0,1-.73,0c-2.32,0-4.18-1.2-4.29-2.88C94,81.18,96,79.45,98.7,79.17h.2a7.15,7.15,0,0,1,4.86-2.45,8.38,8.38,0,0,1,.88,0m0-.38a8.8,8.8,0,0,0-.92,0,7.62,7.62,0,0,0-5,2.46h-.06c-2.84.3-5,2.21-4.91,4.26.13,1.87,2.09,3.24,4.67,3.24a7.31,7.31,0,0,0,.77,0,7.17,7.17,0,0,0,1.55-.34,7.52,7.52,0,0,0,4.41,1.27,10.27,10.27,0,0,0,1.08-.06c3.66-.39,6.51-2.66,6.35-5.08A3.82,3.82,0,0,0,110,78.93c-.86-1.61-2.94-2.65-5.36-2.65Z" class="cls-4"></path><g class="cls-13"><path d="M95.27,78.9s-.91,6.88,5.31,5.62a14,14,0,0,0,11.88.16c6.48-2.88-6.54,7.68-6.63,7.68s-17.51-7.16-17.51-7.16Z" class="cls-8"></path></g><path d="M82.16,85.4H80.34a.19.19,0,1,1,0-.38h1.82a.19.19,0,1,1,0,.38Z" class="cls-14"></path><path d="M81.25,87.14a.19.19,0,0,1-.19-.19V84a.19.19,0,0,1,.38,0v3A.19.19,0,0,1,81.25,87.14Z" class="cls-14"></path><path d="M122.83,78.08H121a.19.19,0,1,1,0-.38h1.82a.19.19,0,1,1,0,.38Z" class="cls-14"></path><path d="M121.92,79.83a.19.19,0,0,1-.19-.19v-3a.19.19,0,1,1,.38,0v3A.19.19,0,0,1,121.92,79.83Z" class="cls-14"></path><path d="M108.3,91.43h-1.82a.19.19,0,0,1,0-.38h1.82a.19.19,0,0,1,0,.38Z" class="cls-14"></path><path d="M107.39,93.17a.19.19,0,0,1-.19-.19V90a.19.19,0,0,1,.38,0v3A.19.19,0,0,1,107.39,93.17Z" class="cls-14"></path><path d="M133.46,80.49h-1.82a.19.19,0,1,1,0-.38h1.82a.19.19,0,1,1,0,.38Z" class="cls-14"></path><path d="M132.55,82.23a.19.19,0,0,1-.19-.19v-3a.19.19,0,1,1,.38,0v3A.19.19,0,0,1,132.55,82.23Z" class="cls-14"></path><path d="M132.17,112.12H114.95a.19.19,0,0,1,0-.38h17.23a.19.19,0,0,1,0,.38Z" class="cls-15"></path><path d="M111.43,121.17H87.66a.19.19,0,1,1,0-.38h23.77a.19.19,0,0,1,0,.38Z" class="cls-15"></path><path d="M124.3,121.17h-7.22a.19.19,0,0,1,0-.38h7.22a.19.19,0,1,1,0,.38Z" class="cls-15"></path><path d="M88.28,110.85H67.83a.19.19,0,0,1,0-.38H88.28a.19.19,0,1,1,0,.38Z" class="cls-15"></path><path d="M103.37,110.85H94.7a.19.19,0,1,1,0-.38h8.68a.19.19,0,1,1,0,.38Z" class="cls-15"></path></g></g></svg>