<?xml version="1.0" standalone="no"?><!DOCTYPE svg PUBLIC "-//W3C//DTD SVG 1.1//EN" "http://www.w3.org/Graphics/SVG/1.1/DTD/svg11.dtd"><svg t="1649680116850" class="icon" viewBox="0 0 1024 1024" version="1.1" xmlns="http://www.w3.org/2000/svg" p-id="2838" xmlns:xlink="http://www.w3.org/1999/xlink" width="200" height="200"><defs><style type="text/css">@font-face { font-family: "feedback-iconfont"; src: url("//at.alicdn.com/t/font_1031158_u69w8yhxdu.woff2?t=1630033759944") format("woff2"), url("//at.alicdn.com/t/font_1031158_u69w8yhxdu.woff?t=1630033759944") format("woff"), url("//at.alicdn.com/t/font_1031158_u69w8yhxdu.ttf?t=1630033759944") format("truetype"); }
</style></defs><path d="M924 116H104c-33 0-60 27-60 60v158.484h940V176c0-33-27-60-60-60z" fill="#92EAFF" p-id="2839"></path><path d="M924 86H104C54.372 86 14 126.372 14 176v736h60V364.484h880V912h60V176c0-49.628-40.376-90-90-90zM74 304.484V176c0-14.472 10.3-26.584 23.96-29.388 1.952-0.4 3.972-0.612 6.04-0.612h820c2.072 0 4.088 0.212 6.04 0.612 13.66 2.804 23.96 14.916 23.96 29.388v128.484h-880z" fill="#6E6E96" p-id="2840"></path><path d="M132 202h136v60H132z" fill="#6E6E96" p-id="2841"></path><path d="M44 358V912h88V418h852v-60z" fill="#6E6E96" opacity=".2" p-id="2842"></path></svg>