<?xml version="1.0" standalone="no"?><!DOCTYPE svg PUBLIC "-//W3C//DTD SVG 1.1//EN" "http://www.w3.org/Graphics/SVG/1.1/DTD/svg11.dtd"><svg t="1649680448123" class="icon" viewBox="0 0 1138 1024" version="1.1" xmlns="http://www.w3.org/2000/svg" p-id="2101" xmlns:xlink="http://www.w3.org/1999/xlink" width="222.265625" height="200"><defs><style type="text/css">@font-face { font-family: "feedback-iconfont"; src: url("//at.alicdn.com/t/font_1031158_u69w8yhxdu.woff2?t=1630033759944") format("woff2"), url("//at.alicdn.com/t/font_1031158_u69w8yhxdu.woff?t=1630033759944") format("woff"), url("//at.alicdn.com/t/font_1031158_u69w8yhxdu.ttf?t=1630033759944") format("truetype"); }
</style></defs><path d="M809.793133 778.618895c162.358996-19.326935 281.523566 61.415796 162.358996 83.108552 0 0-39.627497 29.964029 29.95948 29.96403 97.603753 0 263.825407-215.503519-256.090993-238.693112" fill="#FFA6CC" p-id="2102"></path><path d="M872.605673 726.011232s-62.425819-17.479775-110.265444-6.419564l47.452904 59.031777c162.358996-19.326935 281.523566 61.415796 162.358996 83.108552 45.423758 0 119.642283-22.402502 67.639724-74.405062-52.002559-52.007109-167.18618-61.315703-167.18618-61.315703z" fill="#F28CB7" p-id="2103"></path><path d="M811.089785 789.469823c113.445653-13.503377 195.585128 23.872041 198.410464 42.657567 0.686998 4.572403-9.208502 13.371437-39.309021 18.853772l-2.561456 0.473164-2.079193 1.565081c-3.325798 2.520509-19.713656 15.873747-14.608943 31.092344 5.500533 16.401507 30.232459 18.512547 51.160873 18.512547 51.006185 0 114.41473-49.336461 115.702282-106.907798 1.141963-51.142674-45.582996-139.101159-371.301912-153.632758l-0.978176 21.833795c327.547878 14.613493 351.033198 104.196204 350.428094 131.3076-0.982726 44.063411-53.70868 85.538068-93.850288 85.538068-26.042226 0-30.782967-4.381318-30.964953-4.567854 0.464065 0.459515 0.814388 1.651525 0.668799 2.283927 0.39582-1.778915 4.199332-5.969148 6.924576-8.034691l-4.631549 2.038245c51.133575-9.313144 59.227412-28.853913 57.00263-43.608445-5.859956-38.981446-106.471031-74.937371-222.61463-61.110969l2.602403 21.706405z" fill="#6E6E96" p-id="2104"></path><path d="M395.456032 405.324234s-84.32331-65.442241-28.267008-196.872681C425.383664 71.993744 320.600554 18.271415 243.492998 40.305396 146.594441 67.985498 183.196417 165.457311 190.057297 180.348333c14.37691 31.183337 68.845383 44.968792 77.143954 21.174095 11.597071-33.203384-25.678254 3.603327-34.845809-26.993104-9.827255-32.766617 1.865359-57.821568 47.862373-58.840691 17.898344-0.39127 42.270847 24.572688 18.935665 119.837919-27.607308 112.681311-86.529893 273.215895 59.090922 340.164071 0-0.009099 46.156252-16.010237 37.21163-170.366389z" fill="#FFA6CC" p-id="2105"></path><path d="M309.71323 277.938437c48.085306-164.656572 34.058719-164.365394 9.290396-189.133717-24.768323-24.772873-118.027156-34.713869-118.027156 54.168195 0 52.016208 19.281439 66.584204 35.264377 69.737116 1.965451 0.345774 3.889955 0.586906 5.778063 0.714295 8.662544 0.418568 15.250444-1.965451 15.250444-1.965451 4.708893-1.910855 8.262174-5.15021 9.931897-9.936447 11.597071-33.203384-25.678254 3.603327-34.845809-26.993104-9.827255-32.766617 1.865359-57.821568 47.862373-58.840691 17.898344-0.39127 42.270847 24.572688 18.935665 119.837919-27.607308 112.681311-86.529893 273.215895 59.090922 340.164071 0 0 30.3462-10.537001 37.061491-96.821212-62.566859 40.51468-121.393901-78.326864-85.592663-200.930974z" fill="#F28CB7" p-id="2106"></path><path d="M402.153124 396.693538l0.031848 0.022748c-3.16201-2.493211-76.80273-62.393972-24.94576-183.978958 35.209782-82.553494 10.004692-129.401294-8.152982-149.979384-29.381673-33.298927-81.056657-46.542973-128.591455-32.962252-31.961328 9.131158-53.922514 26.292458-65.264804 51.006185-21.25144 46.306391 3.83081 101.780337 4.909078 104.11431 11.915547 25.846591 44.422834 40.628421 67.712518 39.509206 14.827326-0.714296 25.646406-7.757162 29.672852-19.308737 2.802588-8.021042 4.913628-17.143101-0.66425-23.976683-5.700718-6.974621-14.38146-5.796261-20.71913-4.931826-10.627995 1.44679-11.669866 0.673349-13.312291-4.822635-2.89813-9.654368-4.972773-23.044004 1.574181-32.047771 7.288548-10.02289 23.630909-12.452406 36.056017-12.725386 3.071017-0.068245 6.078339 1.615128 8.685292 4.863582 5.586977 6.960972 16.706334 30.778418-0.600554 101.443662l-8.439611 33.007749c-28.094121 107.722187-66.575105 255.244757 73.581574 319.686073l9.608872 4.413166 4.731642-9.458733-5.982797 5.368593c8.96737-3.316699 53.235516-27.611858 44.33184-181.244615l-0.286628-4.959124-3.935452-3.03917z m-39.345418 169.060638c-123.51404-56.779697-90.601834-182.973484-61.565934-294.303547l8.521504-33.326224c17.971138-73.36774 7.970996-105.929623-3.580579-120.324732-6.920026-8.626146-16.22862-13.257695-26.210564-13.034762-25.264235 0.559608-43.180778 7.866354-53.258264 21.724603-9.344992 12.857326-11.014715 30.555484-4.831734 51.179072 7.274899 24.272411 28.24426 21.419777 37.197982 20.200469 1.687922-0.232032 3.994597-0.545959 4.781687-0.477714-2.443165-0.200185-5.359494-3.289401-5.382242-5.700718 0 0.068245-0.00455 1.646975-1.606028 6.228478-1.296652 3.707969-6.879079 4.522357-10.091135 4.677046-15.905595 0.764342-39.299922-10.541551-46.806853-26.824767-0.222933-0.482263-21.997583-48.576669-4.895429-85.851994 8.557901-18.653586 25.855691-31.80664 51.402004-39.108836 38.981446-11.137556 82.653586-0.277529 106.198052 26.410748 25.837492 29.277031 27.375275 73.172105 4.440464 126.93993-58.681453 137.595223 30.714722 209.093055 31.624653 209.798252l-4.208431-8.002844c8.125684 140.202175-29.982228 159.41082-30.373498 159.592806a1.97455 1.97455 0 0 1 0.291178-0.113741l-4.058292 1.496836-1.938154 3.867207 14.349613-5.045568z" fill="#6E6E96" p-id="2107"></path><path d="M280.231464 806.958698c-160.420843 13.539774-139.733561-218.306106-92.794768-325.982797 35.819436-82.144025-43.967868-56.529466-43.967868-56.529466-109.683088 49.764129-21.742802 148.332409-21.742803 207.291391 0 25.964882-30.928556 7.725315-30.928556 7.725315C-19.363333 573.747921-35.796687 297.365465 199.033767 297.365465c176.56302 0 140.607095 166.699367 65.71977 241.600341-41.652094 41.642994 60.383024 86.780124 93.486315 27.443521 18.235018-32.684723 39.786735-96.134215 28.271558-185.93531-30.87396-240.785953 131.284851-324.590602 160.32985-339.245041-26.711026 17.234094 223.383522-104.391839 359.58655 103.45006 166.776711 254.507713-142.618042 325.841757-116.1254 434.469325 73.608872 301.910571-355.460013 205.280444-488.824056 191.74522" fill="#F28CB7" p-id="2108"></path><path d="M274.87652 528.010237s-0.00455 0 0 0c0 0.00455 0 0 0 0z m146.944764-83.063056s-17.975688 169.529253-129.924504 148.109476c-76.447857-14.631691-35.146087-55.109974 9.399587-133.241202-2.315775 21.342433-10.618895 44.441032-26.419847 68.194782C342.520793 448.996374 367.439255 297.365465 199.038317 297.365465c-234.830454 0-218.3971 276.387005-108.231748 342.097676 0 0 8.366816 4.922727 16.396957 6.005545-3.107415-8.585199-4.253928-13.735409-2.306675-13.73541 0 0-152.877515-174.802303 18.021184-267.283144 34.158811-18.485249 68.181133-22.661833 97.262529-16.315064 0 0 79.778204 24.80472 22.953011 131.903604-56.829743 107.094334-35.309874 255.490439 148.45525 164.902254-0.00455 0.00455 68.75439-66.802588 30.232459-199.993745z" fill="#FFA6CC" p-id="2109"></path><path d="M279.316983 796.066823c-38.562878 3.257553-67.876306-8.721689-87.134997-35.582853-46.524774-64.905381-26.829317-201.49513 5.2776-275.14495 13.030213-29.882135 13.58527-50.80145 1.692472-63.954503-17.907443-19.809199-54.864292-8.680742-59.018128-7.347693l-0.600554 0.191085-0.573257 0.26388c-87.048553 39.491007-61.443094 110.169901-42.74856 161.776641 7.502381 20.710031 14.590744 40.273548 14.590744 55.464846 0 2.666098-0.482263 3.571479-0.486813 3.576029a1.765266 1.765266 0 0 1 0.782541-0.641501c-2.197483 0.718846-9.517879-1.57873-14.772731-4.645198l-0.300277-0.168337a27.206938 27.206938 0 0 0-0.336674-0.172887l0.709746 0.386721c-56.988981-33.985925-86.902964-128.864434-65.3194-207.173101 11.792706-42.803156 49.295514-114.605815 167.955072-114.605815 57.207365 0 95.13784 18.567143 109.687638 53.685932 21.265089 51.33831-10.273121 127.827113-51.697733 169.256274-16.292315 16.292315-13.830952 31.961328-10.910073 39.864079 6.769887 18.312362 29.645553 32.516386 55.628635 34.540982 28.285207 2.188384 52.976185-10.486955 66.047344-33.90858 13.266795-23.785597 42.712163-90.155968 29.56821-192.646051-12.989266-101.34357-12.061136-247.332907 149.456174-325.668871l4.959124-2.434065-10.846378-18.940215c-9.085661 5.864506-7.629772 12.343215-5.950949 15.682662 4.508708 8.96737 13.316841 5.66887 19.144949 3.489585 79.841899-29.900334 245.813322-49.131727 343.180493 99.450914 101.621099 155.074998 21.001209 235.867776-50.13265 307.156323-42.125258 42.2208-78.504301 78.677188-67.475937 123.91441 15.637165 64.13649 8.44871 113.395607-21.360631 146.421554-75.519727 83.672709-278.261463 55.751475-399.400583 39.067889-21.970285-3.03007-40.942347-5.641572-56.342931-7.206654l-2.206582 21.742802c15.009313 1.528684 33.799389 4.112888 55.564939 7.111112 125.424895 17.270491 335.341437 46.18355 418.609227-46.069809 34.950451-38.726665 43.826829-94.660127 26.369802-166.239852-8.116585-33.312576 24.245113-65.747068 61.716073-103.304472 69.327646-69.482335 164.2835-164.647473 52.939788-334.572546-51.242767-78.190375-138.969219-128.66425-226.268003-132.772588-68.012796-3.198408-128.868984 18.626288-147.381531 25.555414-1.674273 0.627852 0.52776-0.159238 0 0 3.899055-1.169261-10.896424 2.861733 0.454965 14.208573 3.976399 3.976399 12.652591 3.007322 9.37229 5.40954 0.022748-0.013649 0.25933-0.191086 1.019123-0.677899l-10.846378-18.940214-4.654298 2.279377C364.063411 117.754176 361.770385 273.411531 375.678681 381.861662c12.315917 96.043222-14.763631 157.327078-26.979456 179.220019-12.684439 22.734627-35.878581 23.498969-45.26452 22.761925-17.206796-1.333049-33.035047-10.072937-36.820359-20.32331-0.732494-1.9791-2.957276-8.007393 5.864505-16.829175 47.411957-47.421056 81.484325-132.604251 56.429374-193.078268-12.698088-30.646478-45.532949-67.180209-129.874458-67.180209C101.784887 286.437193 32.894007 334.058435 10.009241 417.094192c-23.981233 87.007606 10.455108 193.141963 75.196702 231.750338 3.744366 2.206583 22.889315 12.698088 36.561029 4.88178 4.972773-2.838985 10.891875-8.958271 10.891875-21.993034 0-19.031208-7.720765-40.341793-15.896495-62.908082-19.245042-53.117225-37.420914-103.281723 31.224283-134.428663l-1.173811 0.454965c10.987417-3.480486 30.08232-5.509632 36.133362 1.210209 5.204806 5.778062 3.193858 20.559892-5.523281 40.546527-32.884908 75.437833-56.584062 221.873036-3.007322 296.610223 24.058577 33.562807 59.969005 48.576669 106.730361 44.632117l-1.828961-21.783749z" fill="#6E6E96" p-id="2110"></path><path d="M731.511765 632.693254c0 58.831592 91.812042 145.925642 91.812042 145.925641 172.017914 172.022464-66.142888 250.626857-125.629629 226.126964-32.86216-13.521575 0-27.0568 0-27.056799 139.888249-19.631762 94.655577-120.470321-23.198692-146.885619-112.098955-25.118646-88.904813-135.288548-88.904813-135.288548s-3.867207-57.980806 61.848013-85.046705c65.71067-27.0568 84.073079-1.428592 84.073079 22.225066z" fill="#FFA6CC" p-id="2111"></path><path d="M595.126192 160.591495a23.517168 32.621028 74.835 1 0-12.304165-45.396434 23.517168 32.621028 74.835 1 0 12.304165 45.396434Z" fill="#C71870" p-id="2112"></path><path d="M720.047282 268.027341a12.516102 17.356935 74.846 1 0-6.543776-24.16175 12.516102 17.356935 74.846 1 0 6.543776 24.16175Z" fill="#C71870" p-id="2113"></path><path d="M893.920808 284.535438c0 131.29395-117.895216 161.640151-218.483543 237.728584-89.109547 67.394043 13.658065 181.31286-117.98166 242.478425-15.104855 7.020118-176.512974 9.199403-219.657354-61.165565-18.280515-29.813891 87.062202-14.076633 87.062203-187.582285 0-90.069524-18.294164-175.216322-6.637947-231.45461 26.478993-127.772517 114.696808-237.269069 235.362763-237.269069 120.656856-0.00455 240.335537 105.96602 240.335538 237.26452z" fill="#FFA6CC" p-id="2114"></path><path d="M536.568138 297.447359a37.07969 25.805644 90 1 0 51.611289 0 37.07969 25.805644 90 1 0-51.611289 0Z" fill="#6E6E96" p-id="2115"></path><path d="M767.631478 977.68906c46.797754-19.631762 94.660127-120.470321-23.198692-146.885619-112.094405-25.118646-88.900263-135.288548-88.900263-135.288548s-3.862657-57.980806 61.848013-85.046705a254.507713 254.507713 0 0 1 5.14111-2.033696c-11.055662-11.128457-33.64925-15.027511-75.08296 2.033696-65.71067 27.065899-61.848013 85.046705-61.848013 85.046705s-23.194142 110.169901 88.904813 135.288548c117.849719 26.415298 163.086941 127.253857 23.198692 146.885619 0 0-32.86216 13.544324 0 27.056799 14.77728 6.087439 40.573825 5.80081 68.372219-0.682448-30.136916-13.289543 1.565081-26.374351 1.565081-26.374351z" fill="#F28CB7" p-id="2116"></path><path d="M462.176726 664.859316s-55.173669-14.267719-118.404777 21.63816c-111.885121 63.513187-80.842824 217.459871 46.674912 263.00192 101.061491 36.087865 237.878723-62.589607 191.699723-178.487524-12.088434-30.35075-36.724817-78.822777-77.840051-92.480842 0 0-63.763418-31.874884-113.855122 18.221369 0 0-22.766475 25.041302 40.987844 25.041303s88.80927 111.575745 38.708467 132.071941c-50.096254 20.491647-77.426033-79.70086 25.045852-79.70086" fill="#FFA6CC" p-id="2117"></path><path d="M464.49705 662.948461c23.048553 1.428592 39.804934 11.205801 39.804933 11.205801 41.115234 27.748347 65.751617 66.50231 77.840052 96.85306 46.179 115.902467-90.638231 214.575389-191.699723 178.487524-84.273264-30.095969-127.126466-101.962323-113.650388-169.274472 0 0.068245-8.830881 47.744082 22.680032 84.58264 31.547309 36.856757 77.767257 104.601123 179.775076 50.187247 149.387929-90.174166 3.357646-294.435487-89.387076-201.681666 0 0-6.155684-50.360134 74.637094-50.360134z" fill="#F28CB7" p-id="2118"></path><path d="M396.234023 728.759224s-69.94185 43.713087-41.529253 104.915049c27.761996 59.796119 147.92749 64.186536 141.903746-32.934954 1.05097 23.530817-7.029217 45.200825-26.465344 53.149072-45.405559 18.580792-72.102936-62.007251-0.39582-77.248596-22.743726-58.504016-73.513329-47.880572-73.513329-47.880571z m99.810336 65.000924l-0.009099-0.009099 0.036397 0.304826c-0.018199-0.095543-0.018199-0.195635-0.027298-0.295727zM661.792849 765.515888s-33.822137-46.502026 111.562095-21.437975l-118.727802-42.771309c0-0.00455-10.327717 34.9732 7.165707 64.209284zM541.108694 510.475866s-51.038032 108.536575-18.103078 181.467548c30.277955 67.025521 89.496268 26.328855 89.496268 26.328854s14.144878-187.846165-71.39319-207.796402zM976.415156 696.693254s-20.696382 37.693894 15.960191 59.413947l-66.129239-21.406128 50.169048-38.007819z" fill="#F28CB7" p-id="2119"></path><path d="M732.881211 137.076562m-32.903106 0a32.903107 32.903107 0 1 0 65.806213 0 32.903107 32.903107 0 1 0-65.806213 0Z" fill="#F28CB7" p-id="2120"></path><path d="M580.235729 113.800526m-12.92557 0a12.92557 12.92557 0 1 0 25.85114 0 12.92557 12.92557 0 1 0-25.85114 0Z" fill="#F28CB7" p-id="2121"></path><path d="M643.571479 207.587119m-14.103931 0a14.103931 14.103931 0 1 0 28.207863 0 14.103931 14.103931 0 1 0-28.207863 0Z" fill="#F28CB7" p-id="2122"></path><path d="M862.291604 213.460724m-52.880642 0a52.880643 52.880643 0 1 0 105.761285 0 52.880643 52.880643 0 1 0-105.761285 0Z" fill="#F28CB7" p-id="2123"></path><path d="M439.091775 179.20182a25.359778 23.144096 0 1 0 50.719556 0 25.359778 23.144096 0 1 0-50.719556 0Z" fill="#F28CB7" p-id="2124"></path><path d="M645.855406 319.713372a39.268074 27.325229 90 1 0 54.650459 0 39.268074 27.325229 90 1 0-54.650459 0Z" fill="#6E6E96" p-id="2125"></path><path d="M720.588043 632.693254c0 62.80799 91.325229 150.161371 95.219734 153.851141 39.204379 39.213478 79.018412 96.939504 44.891448 148.132224-35.223431 52.835146-128.13194 72.612497-158.842113 59.969006-6.824483-2.807137-8.303121-4.790787-8.31222-4.813536 0.555058 0.777991 0.641501 2.593303 0.154689 3.412242 0.79619-1.355797 4.854482-4.062842 8.189379-5.464136l-0.732495 0.282078-1.942702 0.454966c84.737328-11.892799 95.429018-51.32921 96.093268-67.730717 1.724319-42.552925-48.076207-84.878368-118.422976-100.638374-99.987773-22.416151-81.425179-118.331983-80.597142-122.403924l0.232032-1.091917 0.00455-1.132864v-0.363973l-0.027298-0.363972c-0.104642-1.997299-2.129239-50.642212 55.105424-74.218526 37.944125-15.623516 54.209142-10.860027 60.524063-6.624298 6.99282 4.677046 8.462359 12.779982 8.462359 18.74458z m-77.312291-32.32985c-57.726025 23.776498-70.105637 73.10841-68.586053 95.874884l0.209284-2.975474c-0.25933 1.205659-24.01308 121.039028 97.207934 148.209568 64.850786 14.527049 102.462785 51.283714 101.357219 78.422407-0.932679 23.084951-29.104144 40.209853-77.289543 46.97519l-1.369446 0.191086-1.269354 0.52321c-5.022819 2.065543-21.37883 9.913699-21.37428 24.140471 0 14.335964 16.083031 20.955712 21.37428 23.134997 41.379114 17.033909 145.124902-7.725315 185.348404-68.058293 23.371579-35.059643 34.04052-94.032274-47.830525-175.912419-24.795621-23.544466-88.613635-93.845738-88.613635-138.195777 0-15.960191-6.442312-29.072297-18.153124-36.911353-17.657212-11.829104-44.909647-10.282221-81.011161 4.581503z" fill="#6E6E96" p-id="2126"></path><path d="M620.381887 670.378048s297.642994 183.614985 382.685149-40.587474c0 0 27.061349-59.90986-19.326935-154.615483-46.374636-94.705623 38.653871-143.027511 67.648823-94.705623 28.994953 48.326438 29.95493-70.542404-52.189095-92.77202-82.144025-22.225066-108.240847 112.108054-82.144025 204.880074 26.096822 92.77202-136.248525 110.160802-180.707755 3.858107-44.459231-106.293595-170.079761-48.317338-184.579513 16.433355-14.490652 64.750693 2.884481 118.850643 68.613351 157.509064z" fill="#FFA6CC" p-id="2127"></path><path d="M1063.732139 349.82299c-10.132082-19.049406-25.118646-31.997725-47.129878-31.997725-140.243122 0-55.305609 202.896424-52.998934 222.027724 29.213336 242.605815-309.567641 123.77792-346.720125 40.723964-74.314068-89.614559-2.047345-129.424042-5.605175-126.612355-5.973697 8.462359-57.443947 49.709533-59.495842 58.895287-14.499751 64.755243 2.879932 118.859743 68.608801 157.518163 0 0 297.642994 183.614985 382.68515-40.587474 0 0 27.061349-59.90986-19.326936-154.615483-46.374636-94.705623 38.65842-143.027511 67.648824-94.705623 16.378759 27.307031 23.790147 1.219308 12.334115-30.646478z" fill="#F28CB7" p-id="2128"></path><path d="M614.640222 679.682093c6.920026 4.267577 170.862302 104.050615 293.730291 62.275681 48.631265-16.537997 83.936589-52.971636 104.924148-108.290894l-0.26388 0.627852c1.19201-2.6388 28.621881-65.728869-19.472524-163.924077-23.36248-47.707685-10.568849-82.175873 11.21035-94.014076 10.919173-5.94185 27.238786-6.956423 37.252577 9.736262 7.925499 13.216748 16.410606 18.671785 25.200541 16.219521 4.88178-1.360347 13.05751-6.369517 12.989265-24.622734-0.13194-33.003199-24.468046-86.015782-78.153977-100.542831-25.819293-6.98827-49.104429-0.946328-67.334897 17.466127-41.292671 41.706689-46.756807 134.906377-28.180565 200.917324 10.964669 38.990545-18.071231 53.726879-31.069595 58.249236-37.793986 13.171252-103.663894-0.900832-129.032772-61.565935-18.935665-45.269069-55.187318-68.986422-99.455463-65.087367-49.054383 4.326722-96.552783 41.711239-105.870477 83.340584-16.537997 73.859103 8.266724 130.825336 73.526978 169.215327z m-52.202744-164.42454c7.147508-31.911282 47.548447-62.917182 86.457098-66.347622 34.663823-3.057368 62.134641 15.323239 77.371437 51.747779 28.917609 69.14111 103.700291 92.130518 156.398948 73.772659 38.635672-13.45788 55.842468-45.956067 44.914196-84.814673-18.61264-66.151987-8.230326-148.409753 22.670932-179.620388 12.725386-12.852776 27.802943-16.692685 46.097107-11.74721 31.752044 8.594299 47.311865 33.207933 53.763275 47.12078 8.935523 19.27234 8.994668 35.382669 7.511481 38.544679 0.222933-0.477714 1.387645-1.992749 3.703419-2.6479 2.329423-0.6597 4.131087 0.040947 4.586053 0.336675-0.018199-0.013649-1.869908-1.273903-5.159309-6.751689-14.331414-23.88569-41.652094-31.165138-66.438615-17.693609-30.632829 16.656288-50.087154 62.193787-20.396105 122.827042 43.239923 88.28151 19.408829 144.806426 19.163148 145.361485l-0.113741 0.25478-0.122841 0.318476c-18.558044 48.926992-49.35011 81.011161-91.516315 95.342575-113.21817 38.499182-273.611715-59.191014-275.213194-60.182839-58.130945-34.195209-78.304116-80.49705-63.676974-145.821zM464.911068 658.653586c-2.429516-0.636952-60.223786-19.317836-126.53956 18.335111-51.028933 28.967655-78.604393 79.532523-73.759011 135.2567 5.655221 65.141963 53.608587 123.059074 122.158243 147.53622 56.966233 20.346058 128.759792 1.360347 174.593019-46.165352 40.191654-41.665743 51.4657-95.124191 30.928556-146.653586-14.809128-37.184332-41.497405-84.505296-84.546243-98.813962l1.437691 0.600554c-0.705197-0.354873-71.438686-34.768465-126.466766 20.264165l-0.186536 0.181986-0.177436 0.195635c-4.995521 5.491434-9.326793 15.295941-5.100164 24.850217 5.573328 12.602545 22.784673 18.47615 54.172745 18.47615 28.712874 0 47.466553 28.876662 52.739603 55.705978 4.340371 22.061278 0.404919 47.725883-18.171323 55.323808-10.928272 4.463212-18.121277 0.473164-22.234165-3.653373-7.315846-7.361342-9.458733-19.627213-5.213905-29.845739 6.651596-15.992038 27.293382-25.159593 56.629559-25.159593v-21.861093c-54.827895 0-71.980095 27.015853-76.811829 38.626573-7.661619 18.426104-3.68977 39.98237 9.89095 53.640435 12.083884 12.152129 29.281581 15.318689 46.015213 8.471458 26.438046-10.809981 38.740314-42.125258 31.338025-79.764556-6.947324-35.328073-33.12604-73.349541-74.186678-73.349541-29.509064 0-34.272553-5.637023-34.313499-5.691619 0.181986 0.232032 0.336674 0.78709 0.295727 1.073719 0.063695-0.473164 0.677899-1.624227 1.228407-2.274828l-0.473164 0.500462c44.017914-44.013365 100.674771-16.451553 101.238928-16.169474l0.700647 0.350323 0.741594 0.241132c35.073292 11.656217 58.044501 53.285562 71.138409 86.16137 17.211346 43.203526 7.607024 88.181418-26.356153 123.400299-40.068814 41.547451-102.371792 58.303832-151.517168 40.755811-60.524063-21.615412-102.813109-72.18483-107.735835-128.837136-4.144736-47.680387 18.74003-89.368878 62.780692-114.369233 58.281083-33.089642 109.796829-20.682733 110.306391-20.550793l5.455036-16.788228z" fill="#6E6E96" p-id="2129"></path><path d="M655.855548 599.88114m-36.788512 0a36.788512 36.788512 0 1 0 73.577025 0 36.788512 36.788512 0 1 0-73.577025 0Z" fill="#F28CB7" p-id="2130"></path><path d="M782.986564 672.379896m-24.044928 0a24.044928 24.044928 0 1 0 48.089856 0 24.044928 24.044928 0 1 0-48.089856 0Z" fill="#F28CB7" p-id="2131"></path><path d="M879.157176 619.922372m-13.112106 0a13.112106 13.112106 0 1 0 26.224213 0 13.112106 13.112106 0 1 0-26.224213 0Z" fill="#F28CB7" p-id="2132"></path><path d="M731.630056 590.413308m-7.65252 0a7.65252 7.65252 0 1 0 15.30504 0 7.65252 7.65252 0 1 0-15.30504 0Z" fill="#F28CB7" p-id="2133"></path><path d="M258.424966 670.191512m-29.509064 0a29.509064 29.509064 0 1 0 59.018128 0 29.509064 29.509064 0 1 0-59.018128 0Z" fill="#FFA6CC" p-id="2134"></path><path d="M1002.09796 765.825265m-16.392408 0a16.392408 16.392408 0 1 0 32.784816 0 16.392408 16.392408 0 1 0-32.784816 0Z" fill="#F28CB7" p-id="2135"></path><path d="M769.874458 803.523708m-19.672709 0a19.672709 19.672709 0 1 0 39.345418 0 19.672709 19.672709 0 1 0-39.345418 0Z" fill="#F28CB7" p-id="2136"></path><path d="M1070.411033 778.386863m-7.65252 0a7.65252 7.65252 0 1 0 15.30504 0 7.65252 7.65252 0 1 0-15.30504 0Z" fill="#F28CB7" p-id="2137"></path><path d="M364.841402 818.137201m-32.102367 0a32.102367 32.102367 0 1 0 64.204734 0 32.102367 32.102367 0 1 0-64.204734 0Z" fill="#FFA6CC" p-id="2138"></path><path d="M495.675837 907.442383m-20.869268 0a20.869269 20.869269 0 1 0 41.738537 0 20.869269 20.869269 0 1 0-41.738537 0Z" fill="#F28CB7" p-id="2139"></path><path d="M283.925784 378.044501m-10.200327 0a10.200327 10.200327 0 1 0 20.400654 0 10.200327 10.200327 0 1 0-20.400654 0Z" fill="#F28CB7" p-id="2140"></path><path d="M160.493638 348.89486m-30.600981 0a30.600981 30.600981 0 1 0 61.201962 0 30.600981 30.600981 0 1 0-61.201962 0Z" fill="#FFA6CC" p-id="2141"></path><path d="M867.960475 682.307244m-31.783892 0a31.783891 31.783891 0 1 0 63.567783 0 31.783891 31.783891 0 1 0-63.567783 0Z" fill="#FFA6CC" p-id="2142"></path><path d="M961.642426 571.996303m-27.111396 0a27.111395 27.111395 0 1 0 54.222791 0 27.111395 27.111395 0 1 0-54.222791 0Z" fill="#FFA6CC" p-id="2143"></path><path d="M667.161442 772.404066m-25.250587 0a25.250586 25.250586 0 1 0 50.501173 0 25.250586 25.250586 0 1 0-50.501173 0Z" fill="#FFA6CC" p-id="2144"></path></svg>