<?xml version="1.0" standalone="no"?><!DOCTYPE svg PUBLIC "-//W3C//DTD SVG 1.1//EN" "http://www.w3.org/Graphics/SVG/1.1/DTD/svg11.dtd"><svg t="1649679187169" class="icon" viewBox="0 0 1024 1024" version="1.1" xmlns="http://www.w3.org/2000/svg" p-id="7314" xmlns:xlink="http://www.w3.org/1999/xlink" width="200" height="200"><defs><style type="text/css">@font-face { font-family: "feedback-iconfont"; src: url("//at.alicdn.com/t/font_1031158_u69w8yhxdu.woff2?t=1630033759944") format("woff2"), url("//at.alicdn.com/t/font_1031158_u69w8yhxdu.woff?t=1630033759944") format("woff"), url("//at.alicdn.com/t/font_1031158_u69w8yhxdu.ttf?t=1630033759944") format("truetype"); }
</style></defs><path d="M26.154 872.898c16.78 18.018 45.002 18.396 62.262 1.136-16.89 16.89-16.89 44.276 0 61.166s44.276 16.892 61.166 0c-16.89 16.89-16.89 44.276 0 61.166 16.89 16.89 44.276 16.89 61.168 0l24.514-24.514c37.192-37.192 47.746-68.228 60.142-119.344l7.586-31.282-100.604-100.604-31.282 7.586c-51.116 12.396-82.152 22.95-119.344 60.142L27.98 812.132c-16.582 16.584-17.81 43.604-1.826 60.766z" fill="#6ED5A1" p-id="7315"></path><path d="M302.996 821.234l-7.582 31.268c-12.412 51.122-22.966 82.17-60.14 119.342l-24.524 24.524c-8.46 8.46-19.514 12.67-30.59 12.67s-22.128-4.21-30.57-12.67c-4.628-4.65-8.002-10.056-10.076-15.844 3.932 1.098 7.962 1.636 12.012 1.636a44.9 44.9 0 0 0 31.846-13.19l25.52-25.52c38.73-38.73 49.724-71.056 62.634-124.292l5.746-23.646z" fill="#46CC8D" p-id="7316"></path><path d="M872.898 26.154c18.018 16.78 18.396 45.002 1.136 62.262 16.89-16.89 44.276-16.89 61.166 0s16.892 44.276 0 61.166c16.89-16.89 44.276-16.89 61.166 0 16.89 16.89 16.89 44.276 0 61.168l-24.514 24.514c-37.192 37.192-68.228 47.746-119.344 60.142l-31.282 7.586-100.604-100.604 7.586-31.282c12.396-51.116 22.95-82.152 60.142-119.344l23.782-23.782c16.584-16.582 43.602-17.81 60.766-1.826z" fill="#6ED5A1" p-id="7317"></path><path d="M1009.036 180.162a43.092 43.092 0 0 1-12.67 30.59l-24.524 24.524c-37.174 37.174-68.222 47.73-119.344 60.14l-31.268 7.582-26.518-26.518 27.596-6.684c51.122-12.412 82.15-22.966 119.342-60.14l24.524-24.524a43.168 43.168 0 0 0 12.67-30.588c0-5.608-1.078-11.214-3.272-16.482a43.064 43.064 0 0 1 20.792 11.534c8.462 8.436 12.672 19.492 12.672 30.566z" fill="#46CC8D" p-id="7318"></path><path d="M357.546 766.432l-100.116-100.116c-48.492-48.492-48.492-127.114 0-175.608l233.278-233.278c48.492-48.492 127.114-48.492 175.608 0l100.116 100.116c48.492 48.492 48.492 127.114 0 175.608L533.154 766.432c-48.492 48.494-127.114 48.494-175.608 0z" fill="#6ED5A1" p-id="7319"></path><path d="M766.44 533.162L533.162 766.44c-48.508 48.488-127.126 48.488-175.612 0l-2.814-2.814c47.59 24.044 107.152 16.182 146.92-23.586l238.446-238.446c39.688-39.688 47.59-99.13 23.704-146.68l2.634 2.634c48.488 48.49 48.488 127.106 0 175.614z" fill="#46CC8D" p-id="7320"></path><path d="M362.504 385.634L578.32 721.266l-45.174 45.174c-14.01 14.01-30.528 23.97-48.136 29.878L276.344 471.794zM538.844 227.552L747.526 552.06l-86.176 86.176-215.814-335.632 45.174-45.174c14.008-14.01 30.528-23.97 48.134-29.878z" fill="#EE6161" p-id="7321"></path><path d="M578.318 721.266s-49.626 49.426-50.542 50.244a123.344 123.344 0 0 1-23.486 16.442 123.37 123.37 0 0 1-19.274 8.362l-19.794-30.788a126.864 126.864 0 0 0 36.436-25.48l54.014-54.014zM747.524 552.058l-86.18 86.18-22.648-35.238 86.18-86.18z" fill="#E94444" p-id="7322"></path><path d="M358.18 804.99l-31.18 31.18c-10.218 10.218-26.782 10.218-37 0l-110.536-110.536c-10.218-10.218-10.218-26.782 0-37l31.18-31.18c10.218-10.218 26.782-10.218 37 0l110.536 110.536c10.218 10.218 10.218 26.782 0 37z" fill="#FEE45A" p-id="7323"></path><path d="M358.188 804.992L327 836.178c-10.216 10.216-26.778 10.216-36.994 0l-20.094-20.094c8.8 1.916 18.358-0.538 25.182-7.382l32.624-32.624c10.136-10.136 10.656-26.28 1.536-37.014l28.932 28.932c10.218 10.218 10.218 26.778 0.002 36.996z" fill="#FED402" p-id="7324"></path><path d="M808.25 362.902l31.18-31.18c10.218-10.218 10.218-26.782 0-37l-110.536-110.536c-10.218-10.218-26.782-10.218-37 0l-31.18 31.18c-10.218 10.218-10.218 26.782 0 37l110.536 110.536c10.218 10.216 26.782 10.216 37 0z" fill="#FEE45A" p-id="7325"></path><path d="M839.43 331.73l-31.188 31.168c-10.216 10.216-26.778 10.216-36.994 0l-24.184-24.184c10.416 6.326 24.184 4.988 33.182-4.01l32.266-32.266c7.642-7.642 9.758-18.736 6.346-28.274l20.572 20.552c10.218 10.216 10.218 26.798 0 37.014z" fill="#FED402" p-id="7326"></path><path d="M1006.948 139.002c-10.994-10.996-25.614-17.052-41.166-17.052-1.024 0-2.042 0.026-3.056 0.078 0.82-15.9-4.828-32.074-16.946-44.194-12.118-12.116-28.288-17.762-44.192-16.944 0.07-1.356 0.092-2.722 0.068-4.094-0.282-15.938-6.874-30.708-18.56-41.592C860.442-5.898 823.86-4.912 801.55 17.4l-23.78 23.78c-39.492 39.492-51.16 73.956-62.706 120.69-12.028-1.364-24.546 2.528-33.752 11.734l-31.18 31.18a40.8 40.8 0 0 0-9.8 15.834c-52.032-25.758-116.934-17.04-160.204 26.23l-233.28 233.278c-42.142 42.142-51.528 104.806-28.198 156.112a40.812 40.812 0 0 0-18.588 10.634l-31.18 31.18c-10.3 10.3-13.946 24.742-11.016 38.008-44.72 11.244-78.332 23.352-116.686 61.708L17.4 801.55c-22.31 22.31-23.296 58.892-2.198 81.546 10.884 11.684 25.654 18.276 41.592 18.56a58.06 58.06 0 0 0 4.094-0.068c-0.82 15.9 4.828 32.074 16.946 44.192s28.284 17.778 44.194 16.946a59.7 59.7 0 0 0-0.078 3.056c0 15.55 6.056 30.17 17.052 41.166C149.996 1017.944 164.616 1024 180.166 1024s30.17-6.056 41.166-17.052l24.514-24.514c40.334-40.334 51.644-75.426 63.444-123.694 10.268-0.196 20.476-4.172 28.292-11.99l31.18-31.18a40.94 40.94 0 0 0 9.53-14.994c20.31 11.206 43.22 17.19 67.058 17.19 37.164 0 72.106-14.474 98.384-40.754l233.278-233.278c26.28-26.28 40.754-61.22 40.754-98.386 0-21.92-5.072-43.048-14.594-62.1a40.918 40.918 0 0 0 15.658-9.768l31.18-31.18c9.206-9.206 13.098-21.724 11.734-33.754 28.236-6.996 49.05-13.422 69.134-23.896a14.966 14.966 0 1 0-13.842-26.538c-18.706 9.756-39.12 15.728-68.056 22.746l-1.81 0.438-104.858-104.858 0.438-1.81c12.212-50.35 21.734-77.842 56.182-112.29l23.78-23.78c11.05-11.046 28.986-11.704 39.984-1.46 5.688 5.298 8.896 12.478 9.034 20.222a28.064 28.064 0 0 1-8.28 20.508 14.92 14.92 0 0 0-4.384 10.582 14.966 14.966 0 0 0 25.548 10.582c11.032-11.028 28.976-11.028 40.004 0 11.028 11.03 11.028 28.974 0 40.002a14.92 14.92 0 0 0-4.384 10.582 14.966 14.966 0 0 0 25.548 10.582c5.342-5.342 12.446-8.284 20.002-8.284s14.658 2.942 20.002 8.286 8.286 12.446 8.286 20.002-2.942 14.658-8.286 20.002l-18.02 18.022a14.966 14.966 0 0 0 21.164 21.164l18.02-18.022c10.996-10.994 17.052-25.614 17.052-41.166s-6.058-30.166-17.054-41.16z m-726.084 709.98c-12.212 50.35-21.734 77.842-56.182 112.29l-24.514 24.514c-5.344 5.344-12.446 8.286-20.002 8.286s-14.658-2.942-20.002-8.286c-5.342-5.344-8.284-12.446-8.284-20.002s2.942-14.658 8.284-20.002c2.922-2.922 4.384-6.752 4.384-10.582s-1.46-7.66-4.384-10.582a14.964 14.964 0 0 0-21.164 0c-11.03 11.028-28.974 11.028-40.004 0-11.028-11.03-11.028-28.974 0-40.004 2.922-2.922 4.384-6.752 4.384-10.582s-1.462-7.66-4.384-10.582a14.966 14.966 0 0 0-21.164 0c-5.476 5.478-12.706 8.476-20.51 8.28-7.742-0.138-14.924-3.344-20.22-9.032-10.242-10.998-9.588-28.936 1.46-39.984l23.78-23.78c34.446-34.446 61.938-43.97 112.29-56.182l0.632-0.154 104.152 104.152c0.524 0.524 1.084 0.982 1.628 1.472z m66.734-54.576c0 0.002 0 0.002 0 0l-31.18 31.18a11.214 11.214 0 0 1-15.836 0l-110.536-110.536a11.21 11.21 0 0 1 0-15.836l31.18-31.18c2.184-2.182 5.05-3.274 7.918-3.274s5.734 1.092 7.918 3.274l110.536 110.538a11.118 11.118 0 0 1 3.28 7.918 11.116 11.116 0 0 1-3.28 7.916z m174.974-38.556c-8.234 8.234-18.242 15.43-28.416 20.5a107.71 107.71 0 0 1-3.196 1.546l-119.714-186.182a14.966 14.966 0 0 0-25.176 16.188l114.974 178.812a110.676 110.676 0 0 1-15.694 1.124c-29.17 0-56.596-11.36-77.222-31.986l-100.116-100.116c-42.58-42.58-42.58-111.864 0-154.444l5.786-5.786 35.078 54.554a14.968 14.968 0 0 0 25.176-16.188l-38.594-60.024 64.502-64.502 199.25 309.868-36.638 36.636z m58.294-58.294l-199.25-309.87 61.374-61.374 199.25 309.87z m83.03-83.032l-199.25-309.87 16.474-16.474c11.906-11.906 23.124-24.73 37.252-34.12l0.058-0.038a108.26 108.26 0 0 1 14.486-8.02l195.496 304.006z m91.954-91.952l-5.778 5.778-187.232-291.152a110.242 110.242 0 0 1 15.672-1.12c25.38 0 50.752 8.804 71.142 26.342 0.166 0.172 0.308 0.358 0.478 0.528l110.536 110.536c0.232 0.232 0.486 0.43 0.724 0.656 17.094 19.806 26.444 44.782 26.444 71.21 0 29.17-11.358 56.596-31.986 77.222z m72.996-217.268a11.21 11.21 0 0 1 0 15.836l-31.18 31.18a11.116 11.116 0 0 1-7.916 3.28c-2.61 0-5.052-0.932-7.046-2.562-1.838-2.066-109.904-110.126-112.014-111.994-3.698-4.394-3.53-10.96 0.604-15.096l31.18-31.178c2.184-2.184 5.05-3.274 7.918-3.274s5.734 1.092 7.918 3.274z" p-id="7327"></path></svg>