<?xml version="1.0" encoding="utf-8"?>
<!-- Generator: Adobe Illustrator 24.0.0, SVG Export Plug-In . SVG Version: 6.00 Build 0)  -->
<svg version="1.1" id="图层_1" xmlns="http://www.w3.org/2000/svg" xmlns:xlink="http://www.w3.org/1999/xlink" x="0px" y="0px"
	 viewBox="0 0 1024 1024" style="enable-background:new 0 0 1024 1024;" xml:space="preserve">
<style type="text/css">
	.st0{fill:#E25448;}
	.st1{fill:#CB3D3B;}
	.st2{fill:#BC2A28;}
	.st3{fill:url(#SVGID_1_);}
	.st4{fill:#DA4B41;}
	.st5{opacity:0.2;}
	.st6{fill:#FFFFFF;}
	.st7{opacity:0.2;fill:#FFFFFF;}
	.st8{fill:#FADFDD;}
	.st9{fill:url(#SVGID_2_);}
	.st10{opacity:0.1;fill:#040000;}
	.st11{fill:#040000;}
	.st12{opacity:0.8;fill:#CB3D3B;}
	.st13{fill:url(#SVGID_3_);}
	.st14{fill:url(#SVGID_4_);}
	.st15{fill:#E55A4F;}
	.st16{clip-path:url(#SVGID_6_);}
</style>
<g>
	<g>
		<g>
			<g>
				<path class="st0" d="M355.8,155.8c0-35.8,19.3-67.1,48.1-84c0.5-0.3,0.3-1-0.2-1c-4.7-0.6-9.6-0.9-14.6-0.7
					c-43.8,1.5-80,36.8-82.6,80.5c-3,49.8,36.5,91.1,85.7,91.1c4.5,0,8.8-0.3,13.1-1C375.7,223.9,355.8,192.2,355.8,155.8z"/>
			</g>
			<path class="st1" d="M355.8,155.8c0-2.3,0.1-4.5,0.2-6.7c0.1-0.7,0.2-1.5,0.2-2.2c0.1-1.5,0.3-2.9,0.5-4.4
				c0.1-0.9,0.3-1.7,0.4-2.6c0.2-1.3,0.4-2.6,0.7-3.8c0.2-0.9,0.4-1.8,0.6-2.7c0.3-1.2,0.5-2.4,0.9-3.6c0.3-0.9,0.6-1.8,0.8-2.7
				c0.4-1.1,0.7-2.3,1.1-3.4c0.3-0.9,0.7-1.8,1-2.7c0.4-1.1,0.8-2.2,1.3-3.2c0.4-0.9,0.8-1.8,1.2-2.7c0.5-1,0.9-2.1,1.4-3.1
				c0.4-0.9,0.9-1.7,1.4-2.6c0.5-1,1.1-2,1.6-2.9c0.5-0.9,1.1-1.7,1.6-2.5c0.6-0.9,1.2-1.9,1.8-2.8c0.6-0.8,1.2-1.6,1.7-2.4
				c0.6-0.9,1.3-1.8,2-2.7c0.6-0.8,1.3-1.5,1.9-2.3c0.7-0.8,1.4-1.7,2.1-2.5c0.7-0.7,1.4-1.5,2-2.2c0.8-0.8,1.5-1.6,2.3-2.4
				c0.7-0.7,1.5-1.4,2.2-2.1c0.8-0.7,1.6-1.5,2.4-2.2c0.8-0.7,1.5-1.3,2.3-1.9c0.8-0.7,1.7-1.4,2.6-2.1c0.8-0.6,1.6-1.2,2.4-1.8
				c0.9-0.6,1.8-1.3,2.7-1.9c0.8-0.6,1.7-1.1,2.6-1.6c0.7-0.4,1.4-0.9,2.1-1.3c0.2-0.1,0.2-0.2,0.3-0.4
				c-57.1,22.4-65.8,66.3-65.8,120.8c0,5.7-14.1,11.4-13.4,16.9c1,1.2,2,2.4,3,3.6c0,0,0,0.1,0.1,0.1c1,1.1,2,2.2,3.1,3.3
				c0.1,0.1,0.1,0.1,0.2,0.2c1,1,2.1,2,3.2,3c0.1,0.1,0.2,0.2,0.3,0.2c1.1,1,2.2,1.9,3.4,2.9c0.1,0.1,0.1,0.1,0.2,0.2
				c4.9,3.9,10.2,7.4,15.9,10.2c0.1,0,0.1,0.1,0.2,0.1c1.3,0.6,2.6,1.2,4,1.8c0.3,0.1,0.7,0.3,1,0.4c1.1,0.4,2.2,0.9,3.3,1.3
				c0.5,0.2,0.9,0.3,1.4,0.5c1,0.3,2,0.7,3,1c0.5,0.2,1.1,0.3,1.6,0.5c1,0.3,1.9,0.5,2.9,0.8c0.6,0.1,1.1,0.3,1.7,0.4
				c1,0.2,1.9,0.4,2.9,0.6c0.6,0.1,1.2,0.2,1.8,0.3c1,0.2,2,0.3,3,0.4c0.6,0.1,1.2,0.2,1.8,0.2c1.1,0.1,2.2,0.2,3.2,0.3
				c0.5,0,1,0.1,1.5,0.1c1.6,0.1,3.2,0.1,4.8,0.1c4.5,0,8.8-0.3,13.1-1C375.7,223.9,355.8,192.2,355.8,155.8z"/>
		</g>
		<g>
			<g>
				<path class="st0" d="M646.7,155.8c0-35.8-19.3-67.1-48.1-84c-0.5-0.3-0.3-1,0.2-1c4.7-0.6,9.6-0.9,14.6-0.7
					c43.8,1.5,80,36.8,82.6,80.5c3,49.8-36.5,91.1-85.7,91.1c-4.5,0-8.8-0.3-13.1-1C626.8,223.9,646.7,192.2,646.7,155.8z"/>
			</g>
			<path class="st1" d="M646.7,155.8c0-2.3-0.1-4.5-0.2-6.7c-0.1-0.7-0.2-1.5-0.2-2.2c-0.1-1.5-0.3-2.9-0.5-4.4
				c-0.1-0.9-0.3-1.7-0.4-2.6c-0.2-1.3-0.4-2.6-0.7-3.8c-0.2-0.9-0.4-1.8-0.6-2.7c-0.3-1.2-0.5-2.4-0.9-3.6
				c-0.3-0.9-0.6-1.8-0.8-2.7c-0.4-1.1-0.7-2.3-1.1-3.4c-0.3-0.9-0.7-1.8-1-2.7c-0.4-1.1-0.8-2.2-1.3-3.2c-0.4-0.9-0.8-1.8-1.2-2.7
				c-0.5-1-0.9-2.1-1.4-3.1c-0.4-0.9-0.9-1.7-1.4-2.6c-0.5-1-1.1-2-1.6-2.9c-0.5-0.9-1.1-1.7-1.6-2.5c-0.6-0.9-1.2-1.9-1.8-2.8
				c-0.6-0.8-1.2-1.6-1.7-2.4c-0.6-0.9-1.3-1.8-2-2.7c-0.6-0.8-1.3-1.5-1.9-2.3c-0.7-0.8-1.4-1.7-2.1-2.5c-0.7-0.7-1.4-1.5-2-2.2
				c-0.8-0.8-1.5-1.6-2.3-2.4c-0.7-0.7-1.5-1.4-2.2-2.1c-0.8-0.7-1.6-1.5-2.4-2.2c-0.8-0.7-1.5-1.3-2.3-1.9
				c-0.8-0.7-1.7-1.4-2.6-2.1c-0.8-0.6-1.6-1.2-2.4-1.8c-0.9-0.6-1.8-1.3-2.7-1.9c-0.8-0.6-1.7-1.1-2.6-1.6
				c-0.7-0.4-1.4-0.9-2.1-1.3c-0.2-0.1-0.2-0.2-0.3-0.4c57.1,22.4,65.8,66.3,65.8,120.8c0,5.7,14.1,11.4,13.4,16.9
				c-1,1.2-2,2.4-3,3.6c0,0,0,0.1-0.1,0.1c-1,1.1-2,2.2-3.1,3.3c-0.1,0.1-0.1,0.1-0.2,0.2c-1,1-2.1,2-3.2,3
				c-0.1,0.1-0.2,0.2-0.3,0.2c-1.1,1-2.2,1.9-3.4,2.9c-0.1,0.1-0.1,0.1-0.2,0.2c-4.9,3.9-10.2,7.4-15.9,10.2c-0.1,0-0.1,0.1-0.2,0.1
				c-1.3,0.6-2.6,1.2-4,1.8c-0.3,0.1-0.7,0.3-1,0.4c-1.1,0.4-2.2,0.9-3.3,1.3c-0.5,0.2-0.9,0.3-1.4,0.5c-1,0.3-2,0.7-3,1
				c-0.5,0.2-1.1,0.3-1.6,0.5c-1,0.3-1.9,0.5-2.9,0.8c-0.6,0.1-1.1,0.3-1.7,0.4c-1,0.2-1.9,0.4-2.9,0.6c-0.6,0.1-1.2,0.2-1.8,0.3
				c-1,0.2-2,0.3-3,0.4c-0.6,0.1-1.2,0.2-1.8,0.2c-1.1,0.1-2.2,0.2-3.2,0.3c-0.5,0-1,0.1-1.5,0.1c-1.6,0.1-3.2,0.1-4.8,0.1
				c-4.5,0-8.8-0.3-13.1-1C626.8,223.9,646.7,192.2,646.7,155.8z"/>
		</g>
	</g>
	<path class="st2" d="M76.6,678.7L76.6,678.7c-14.8-14.8-14.8-38.7,0-53.5l112.1-112.1c14.8-14.8,38.7-14.8,53.5,0h0
		c14.8,14.8,14.8,38.7,0,53.5L130.1,678.7C115.3,693.5,91.4,693.5,76.6,678.7z"/>
	<linearGradient id="SVGID_1_" gradientUnits="userSpaceOnUse" x1="307.1883" y1="872.0432" x2="827.5577" y2="79.4804">
		<stop  offset="0" style="stop-color:#E95A4D"/>
		<stop  offset="1" style="stop-color:#E35A4F"/>
	</linearGradient>
	<path class="st3" d="M667.5,161.5c-110.8,17-221.6,17-332.5,0c-70.4-11.7-136.3,29-143.5,101.6c-16.8,182-18,372.6-3.6,554.6
		c2.9,36.6,3.6,74.7,14.5,109.9c6.1,19.7,25.2,29.7,45.2,25c29.5-6.9,58.9,4.9,88.4,0.4c22.9-3.6,40.5-22.7,39.4-43.9
		c-0.9-15.8-1.7-22.9-2.4-38.7c85.5-7.3,171-7.3,256.5,0c-0.7,15.8-1.5,22.9-2.4,38.7c-1.1,21.1,16.5,40.3,39.4,43.9
		c29.5,4.5,58.9-7.3,88.4-0.4c16.9,4,35.4-2.5,43-18.7c2.9-6.1,4.3-12.7,5.7-19.2c6.9-32.1,6.1-64.7,11.1-97
		c14.3-182,13.1-372.6-3.6-554.6C803.8,190.5,737.9,149.7,667.5,161.5z"/>
	<g>
		<path class="st4" d="M811,263.1c-7.2-72.5-73.1-113.3-143.5-101.6c-2.1,0.3-4.3,0.6-6.4,0.9c48.2,10.2,86.2,46.6,91.5,100.7
			c16.8,182,18,372.6,3.6,554.6c-5,32.3-4.2,64.9-11.1,97c-1.4,6.6-2.8,13.2-5.7,19.2c-3.8,8.2-10.5,13.9-18.3,17
			c11.2-0.9,22.5-1,33.7,1.7c16.9,4,35.4-2.5,43-18.7c2.9-6.1,4.3-12.7,5.7-19.2c6.9-32.1,6.1-64.7,11.1-97
			C829,635.7,827.8,445,811,263.1z"/>
	</g>
	<g class="st5">
		<path class="st6" d="M287.4,951.4c16.2,1.6,32.4,4,48.6,1.5c0,0,0.1,0,0.1,0C319.9,951.4,303.6,948.9,287.4,951.4z"/>
		<path class="st6" d="M236.2,927.6c-10.9-35.2-11.6-73.4-14.5-109.9c-14.3-182-13.1-372.7,3.6-554.6c5.8-58.3,49.5-96,103-102.5
			c-67.9-8.1-129.8,32.3-136.8,102.5c-16.8,182-18,372.6-3.6,554.6c2.9,36.6,3.6,74.7,14.5,109.9c6.1,19.7,25.2,29.7,45.2,25
			c3.2-0.8,6.4-1.3,9.7-1.6C247.5,947,239.7,938.9,236.2,927.6z"/>
	</g>
	<path class="st7" d="M473.1,570.6c-111.6,2.1-213.8,26.2-294.4,65c1.3,61.2,4.3,122.1,9.1,182c2.9,36.6,3.6,74.7,14.5,109.9
		c6.1,19.7,25.2,29.7,45.2,25c29.5-6.9,58.9,4.9,88.4,0.4c22.9-3.6,40.5-22.7,39.4-43.9c-0.9-15.8-1.7-22.9-2.4-38.7
		c85.5-7.3,171-7.3,256.5,0c-0.7,15.8-1.5,22.9-2.4,38.7c-1.1,21.1,16.5,40.3,39.4,43.9c29.5,4.5,58.9-7.3,88.4-0.4
		c16.9,4,35.4-2.5,43-18.7c2.9-6.1,4.3-12.7,5.7-19.2c6.9-32.1,6.1-64.7,11.1-97c4.3-54.5,7.2-109.8,8.7-165.4
		C735.3,599.7,610.7,568.1,473.1,570.6z"/>
	<path class="st8" d="M739,412.6c-9.5-77.7-72.3-159.3-141.8-168c-80.3-10.7-163.5-10-243.8,0c-69.4,8.7-132.3,90.2-141.8,168
		c-9.6,78.1,46.1,118,126.2,103.9c45.6-7.9,91.5-12.4,137.5-13.3c46,0.9,91.9,5.4,137.5,13.3C692.9,530.5,748.6,490.6,739,412.6z"/>
	<g>
		<linearGradient id="SVGID_2_" gradientUnits="userSpaceOnUse" x1="548.1973" y1="420.0577" x2="679.7133" y2="420.0577">
			<stop  offset="0" style="stop-color:#E95A4D"/>
			<stop  offset="1" style="stop-color:#E35A4F"/>
		</linearGradient>
		<circle class="st9" cx="614" cy="420.1" r="65.8"/>
		<circle class="st6" cx="614" cy="420.1" r="55"/>
		<path class="st10" d="M651.2,379.6c5.9,8.9,9.4,19.6,9.4,31.1c0,31-25.1,56.1-56.1,56.1c-11.5,0-22.2-3.5-31.1-9.4
			c10.1,10.9,24.5,17.8,40.5,17.8c30.4,0,55-24.6,55-55C669,404,662.2,389.6,651.2,379.6z"/>
		<g>
			<circle class="st11" cx="614" cy="420.1" r="20.2"/>
			<circle class="st6" cx="604.2" cy="428.2" r="4"/>
		</g>
	</g>
	<path class="st12" d="M450.7,800.4c-42.8,0-84.7-10.8-121.4-31.3c-14.1-8.1-24.9-25.7-28.2-38.2l-23.1-94.6
		c-2.2-8.7-0.4-17.8,5-24.9c6.1-8,16.1-12.6,27.4-12.7h280.4c11.5,0.1,21.5,4.8,27.5,12.7c5.4,7.1,7.2,16.2,4.9,25l-23,94.2
		c-3.3,12.7-14.2,30.2-28,38.2C535.5,789.5,493.5,800.4,450.7,800.4z"/>
	<g>
		<linearGradient id="SVGID_3_" gradientUnits="userSpaceOnUse" x1="230.9677" y1="423.5367" x2="355.5258" y2="423.5367">
			<stop  offset="0" style="stop-color:#E95A4D"/>
			<stop  offset="1" style="stop-color:#E35A4F"/>
		</linearGradient>
		<circle class="st13" cx="293.2" cy="423.5" r="62.3"/>
		<circle class="st6" cx="293.2" cy="423.5" r="52.1"/>
		<path class="st10" d="M328.5,385.2c5.6,8.4,8.9,18.5,8.9,29.4c0,29.3-23.8,53.1-53.1,53.1c-10.9,0-21-3.3-29.4-8.9
			c9.5,10.3,23.2,16.8,38.4,16.8c28.8,0,52.1-23.3,52.1-52.1C345.4,408.4,338.9,394.7,328.5,385.2z"/>
		<g>
			<circle class="st11" cx="293.2" cy="423.5" r="19.2"/>
			<circle class="st6" cx="284" cy="431.2" r="3.8"/>
		</g>
	</g>
	<g>
		<linearGradient id="SVGID_4_" gradientUnits="userSpaceOnUse" x1="384.9681" y1="339.4153" x2="516.4841" y2="339.4153">
			<stop  offset="0" style="stop-color:#E95A4D"/>
			<stop  offset="1" style="stop-color:#E35A4F"/>
		</linearGradient>
		<circle class="st14" cx="450.7" cy="339.4" r="65.8"/>
		<circle class="st6" cx="450.7" cy="339.4" r="55"/>
		<path class="st10" d="M488,298.9c5.9,8.9,9.4,19.6,9.4,31.1c0,31-25.1,56.1-56.1,56.1c-11.5,0-22.2-3.5-31.1-9.4
			c10.1,10.9,24.5,17.8,40.5,17.8c30.4,0,55-24.6,55-55C505.8,323.4,498.9,309,488,298.9z"/>
		<g>
			<circle class="st11" cx="450.7" cy="339.4" r="20.2"/>
			<circle class="st6" cx="441" cy="347.5" r="4"/>
		</g>
	</g>
	<path class="st15" d="M564.6,755.6c-70,39.2-157.7,39.2-227.7,0c-9-5.2-18.2-18.5-20.8-28.6c-7.7-31.5-15.4-63-23.1-94.4
		c-2.6-10.1,5.3-18.4,17.6-18.6c93.4,0,186.8,0,280.2,0c12.3,0.1,20.2,8.5,17.6,18.6c-7.7,31.5-15.4,63-23.1,94.4
		C582.8,737.1,573.6,750.4,564.6,755.6z"/>
	<path class="st15" d="M564.6,755.6c-70,39.2-157.7,39.2-227.7,0c-9-5.2-18.2-18.5-20.8-28.6c-7.7-31.5-15.4-63-23.1-94.4
		c-2.6-10.1,5.3-18.4,17.6-18.6c93.4,0,186.8,0,280.2,0c12.3,0.1,20.2,8.5,17.6,18.6c-7.7,31.5-15.4,63-23.1,94.4
		C582.8,737.1,573.6,750.4,564.6,755.6z"/>
	<g>
		<defs>
			<path id="SVGID_5_" d="M564.6,755.6c-70,39.2-157.7,39.2-227.7,0c-9-5.2-18.2-18.5-20.8-28.6c-7.7-31.5-15.4-63-23.1-94.4
				c-2.6-10.1,5.3-18.4,17.6-18.6c93.4,0,186.8,0,280.2,0c12.3,0.1,20.2,8.5,17.6,18.6c-7.7,31.5-15.4,63-23.1,94.4
				C582.8,737.1,573.6,750.4,564.6,755.6z"/>
		</defs>
		<clipPath id="SVGID_6_">
			<use xlink:href="#SVGID_5_"  style="overflow:visible;"/>
		</clipPath>
		<g class="st16">
			<path class="st6" d="M436.5,849.7h-52.4c-5.7,0-10.4-4.7-10.4-10.4V720.5c0-5.7,4.7-10.4,10.4-10.4h52.4
				c5.7,0,10.4,4.7,10.4,10.4v118.7C446.9,844.9,442.2,849.7,436.5,849.7z"/>
			<path class="st6" d="M519.3,875.8h-42.8c-4.7,0-8.5-3.8-8.5-8.5V744.7c0-4.7,3.8-8.5,8.5-8.5h42.8c4.7,0,8.5,3.8,8.5,8.5v122.6
				C527.8,872,524,875.8,519.3,875.8z"/>
		</g>
	</g>
	<path class="st2" d="M947.4,694.1L947.4,694.1c14.8-14.8,14.8-38.7,0-53.5L835.3,528.5c-14.8-14.8-38.7-14.8-53.5,0l0,0
		c-14.8,14.8-14.8,38.7,0,53.5l112.1,112.1C908.7,708.9,932.6,708.9,947.4,694.1z"/>
</g>
</svg>
