<?xml version="1.0" standalone="no"?><!DOCTYPE svg PUBLIC "-//W3C//DTD SVG 1.1//EN" "http://www.w3.org/Graphics/SVG/1.1/DTD/svg11.dtd"><svg t="1649680439639" class="icon" viewBox="0 0 1053 1024" version="1.1" xmlns="http://www.w3.org/2000/svg" p-id="1744" xmlns:xlink="http://www.w3.org/1999/xlink" width="205.6640625" height="200"><defs><style type="text/css">@font-face { font-family: "feedback-iconfont"; src: url("//at.alicdn.com/t/font_1031158_u69w8yhxdu.woff2?t=1630033759944") format("woff2"), url("//at.alicdn.com/t/font_1031158_u69w8yhxdu.woff?t=1630033759944") format("woff"), url("//at.alicdn.com/t/font_1031158_u69w8yhxdu.ttf?t=1630033759944") format("truetype"); }
</style></defs><path d="M269.607627 217.955289c6.231102 38.98604-43.105398 108.598614-104.908268 88.776545-69.325177-22.225375-133.468875-11.500049-139.704142-50.486089-6.231102-38.990205 52.964368-80.654453 117.137223-90.69669 64.17702-10.042237 121.244086 13.420195 127.475187 52.406234z" fill="#E8AC89" p-id="1745"></path><path d="M248.427711 268.203963c-1.703557-12.266441 11.625004-19.097328-5.660473-29.980931-119.636328-75.360515-195.117634 10.996063-195.117633 10.996063 12.074843 39.415053 66.467866 29.24786 124.955257 56.408968 30.872279 14.344863 58.295793-6.885035 75.822849-37.4241z" fill="#F7CDAF" p-id="1746"></path><path d="M454.399792 816.886662c0.870522 56.842146-32.134327 103.425466-73.715271 104.050242-41.580944 0.620611-75.997787-44.958901-76.868309-101.796883-0.866356-56.837981 32.505027-59.53285 74.085971-60.157625 41.580944-0.616446 75.622921 1.06212 76.497609 57.904266z" fill="#E8AC89" p-id="1747"></path><path d="M444.432527 817.032443c0.4665 30.355797-9.663207 59.095506-27.09863 76.876639-10.81696 11.029384-23.537405 16.964759-36.803488 17.164687-13.257753 0.199928-26.1573-5.35225-37.303309-16.052585-17.972731-17.256321-28.981289-45.675312-29.447789-76.035274-0.71641-46.970681 21.542286-49.498942 64.272819-50.140379 41.909993-0.620611 65.659822 1.31203 66.380397 48.186912z m-66.684455-67.913182c-37.848947 0.578959-84.952914 1.287039-83.90329 70.174872 0.549803 36.003775 13.491003 68.762878 35.499789 89.892812 15.019622 14.428167 32.825746 21.896326 51.489896 21.617259 18.66415-0.279067 36.232859-8.284534 50.806807-23.158374 21.346523-21.775536 33.275585-54.91367 32.721617-90.91328-1.053789-68.883668-50.50275-68.150597-86.614819-67.613289z" fill="#6E6E96" p-id="1748"></path><path d="M641.370343 818.790147c1.920146 56.817155 37.174189 101.755231 78.738472 100.384888 41.560118-1.378673 73.698611-48.561778 71.778465-105.374768-1.924311-56.81299-36.36198-61.823696-77.917933-60.449188-41.568449 1.382838-74.514985 8.626078-72.599004 65.439068z" fill="#E8AC89" p-id="1749"></path><path d="M631.403078 819.123361c2.103413 62.152745 42.047444 111.464254 89.043116 109.910644 46.983177-1.557776 83.507598-53.401712 81.40835-115.566952-0.82887-24.382936-7.309883-41.855846-19.809573-53.422538-18.106017-16.7565-44.80479-17.327129-68.413003-16.552406-40.968664 1.366177-84.49058 8.451141-82.22889 75.631252z m82.903648-55.904982c24.328789-0.803879 42.842992 0.791383 54.122287 11.229312 8.44281 7.818034 12.862061 20.792555 13.491003 39.68579 1.732713 51.285803-26.144805 93.983014-62.144415 95.182584-36.00794 1.19124-66.709446-39.565-68.446324-90.854967-1.520289-45.150499 19.093163-53.784908 62.977449-55.242719z" fill="#6E6E96" p-id="1750"></path><path d="M1033.538251 507.443298c0-43.85513-23.312486-82.441313-58.620676-104.929094a149.571443 149.571443 0 0 0 11.945723-58.612346c0-85.511047-71.915916-154.840389-160.638313-154.840389-12.616316 0-24.874426 1.449481-36.653542 4.098532-24.986886-57.508574-83.91162-97.906609-152.645342-97.906609-55.221893 0-104.083564 26.094823-134.139469 66.172139-22.92929-22.321174-54.734568-36.157886-89.896977-36.157886-69.866649 0-126.513032 54.592952-126.513032 121.943835 0 1.357847 0.058312 2.694868 0.104129 4.044385-81.616609 64.497738-132.827438 157.322834-132.827438 260.49839 0 131.277993 39.723276 216.805701 104.945755 270.732224 27.431844 57.829293 88.285054 98.073216 159.005565 98.073216 28.577267 0 55.521786-6.605968 79.329927-18.255963 10.471251 0.745566 21.071621 1.282874 31.788618 1.641079 26.877876 16.910611 58.966386 26.765416 93.458201 26.765416 53.647457 0 101.513651-23.77482 132.914907-60.99066a398.403176 398.403176 0 0 0 45.03804-21.354854 130.045101 130.045101 0 0 0 52.631154 11.05854c69.870814 0 126.513032-54.597117 126.513033-121.935504 0-27.840031-9.696528-53.48918-25.986529-74.010999 47.124793-18.939052 80.246266-63.752172 80.246266-116.033452z" fill="#E4E4F2" p-id="1751"></path><path d="M1033.538251 507.443298c0-43.85513-23.312486-82.441313-58.620676-104.929094a149.571443 149.571443 0 0 0 11.945723-58.612346c0-20.480167-4.165175-40.014838-11.662491-57.912596a150.554424 150.554424 0 0 1-8.259542 25.774104c35.312356 22.487781-13.261918 69.116918 10.208844 106.307767 56.396473 89.372165-6.29358 143.761023-53.410042 162.691745-15.007126 14.85718-27.144447 14.640591 4.731639 74.010999 31.930233 59.470372 6.072825 82.695389-63.797989 82.695389-13.361882 0-50.069571-6.431031-66.101331-13.511829-40.235593-6.918356-64.926751 35.974618-80.591975 42.251538-31.401256 37.20751-50.115388 33.758745-103.75868 33.758745-34.491816 0-66.576161-9.85897-93.458202-26.769581-5.539683-5.47304-21.317367-12.004035-31.792783-1.641079-23.808142 11.64583-50.756825 18.255963-79.329927 18.255963-70.72051 0-131.569555-40.235593-159.005565-98.069051-48.070287-39.744102-82.262211-96.690378-96.931958-176.420162 0.71641 129.241222 40.28141 213.744297 104.908269 267.175165 27.436009 57.829293 88.285054 98.073216 159.005564 98.073216 28.573102 0 55.521786-6.605968 79.329928-18.255963 10.475416 0.745566 21.071621 1.282874 31.792782 1.641079 26.882041 16.910611 58.966386 26.765416 93.458202 26.765416 53.647457 0 101.513651-23.77482 132.914907-60.990661a397.999154 397.999154 0 0 0 45.033874-21.354853 130.078422 130.078422 0 0 0 52.63532 11.05854c69.870814 0 126.513032-54.597117 126.513032-121.935505 0-27.840031-9.696528-53.48918-25.990693-74.010999 47.112297-18.951547 80.23377-63.764668 80.23377-116.045947z" fill="#6E6E96" opacity=".15" p-id="1752"></path><path d="M974.917575 402.510039c4.090202-1.503628 10.271322 12.316423 14.136605 10.446259a132.285965 132.285965 0 0 0-14.136605-10.446259 149.421496 149.421496 0 0 0 11.945723-58.612346c0-85.511047-71.915916-154.840389-160.629983-154.840389-12.616316 0-24.878592 1.449481-36.661872 4.098532-24.986886-57.508574-83.91162-97.906609-152.645342-97.906609-55.221893 0-104.091894 26.094823-134.139469 66.172139-22.92929-22.321174-54.730403-36.162051-89.892811-36.162051-69.866649 0-126.513032 54.592952-126.513033 121.943835 0 1.357847 0.066643 2.694868 0.10413 4.044385-26.294751 20.775894-49.407309 44.504897-68.696236 70.566399 0.074973 113.280271 37.778139 187.112167 99.655983 233.670495 26.049006 49.982103 83.832482 84.769646 150.991767 84.769647 27.136117 0 52.726953-5.710455 75.335525-15.777684 9.942273 0.633107 37.649019-202.606619 47.824542-202.302561 5.918714 3.390453 141.186945-113.792587 110.901955 24.245485-15.948456 72.703134-96.615405-12.378901-96.615404 82.753701 0 58.978881 14.274056 115.267059 56.829651 119.848753 124.859458 13.457681 126.192314-79.921382 168.981159-71.17035 14.869676-5.418893-13.620123 6.868374 0 0 15.223715 6.118642 32.142657 9.550747 49.982102 9.550747 66.359572 0 120.14448-47.174775 120.14448-105.383098 0.012496-24.045557-11.433406-61.761218-26.902867-79.50903z" fill="#FFFFFF" opacity=".68" p-id="1753"></path><path d="M678.802772 439.530116c-27.877518 28.214897-72.415737-11.670821-134.618463-30.247502-118.016075-35.229052-70.378966-112.805441-42.501448-141.036999 27.877518-28.235723 97.011096-6.131138 143.469461 38.798607 46.46253 44.93391 61.536299 104.254336 33.65045 132.485894z" fill="#E8AC89" p-id="1754"></path><path d="M536.753636 396.599655c64.789301 24.133025 111.405942 75.543783 140.916209 41.218574-16.260844-99.71846-112.159839-127.841723-112.159839-127.841723s-32.567505 23.562396-39.090169 82.474635c3.311314 1.420325 6.739254 2.811493 10.333799 4.148514z" fill="#F7CDAF" p-id="1755"></path><path d="M1043.509681 507.443298c0-45.696137-23.624874-88.026813-63.198204-113.226123l3.794475 12.116495a158.830627 158.830627 0 0 0 12.728775-62.435977c0-90.817481-76.53926-164.703524-170.609742-164.703524a177.394813 177.394813 0 0 0-38.865251 4.344278l11.366764 5.72295c-27.411018-63.102405-90.925775-103.875305-161.804562-103.875305-56.063259 0-109.202564 26.228108-142.144936 70.162377l14.998796-1.149588c-25.828252-25.145163-60.236764-38.994371-96.890306-38.994371-75.256386 0-136.480297 59.128828-136.480297 131.811135 0 1.266213 0.041652 2.457453 0.083304 3.615373l0.024991 0.753896 3.740327-8.034623c-86.793921 68.587941-136.576096 166.348768-136.576095 268.212294 0 125.134359 36.511926 218.767499 108.52364 278.304513l-2.632391-3.382122c29.893463 63.019101 95.849012 103.737854 168.0315 103.737854 29.418633 0 57.596043-6.485178 83.745013-19.272265l-5.131496 0.995476c10.379617 0.737236 21.200742 1.295369 32.175979 1.65774l-5.019037-1.541115c29.435293 18.526699 63.602226 28.314861 98.806287 28.314862 54.722072 0 105.953728-23.516579 140.570499-64.53106l-3.9111 2.823989a408.778627 408.778627 0 0 0 46.166803-21.904657l-8.938466 0.412352a139.454232 139.454232 0 0 0 56.696365 11.908236c75.260551 0 136.484462-59.124662 136.484462-131.798639 0-29.235365-9.721519-56.929615-28.119098-80.100485l-4.090202 15.232045c52.527025-21.117438 86.473203-70.249845 86.473203-125.176011z m-98.060721 122.131268c15.606912 19.663792 23.862289 43.142885 23.862289 67.917348 0 61.79454-52.285445 112.068205-116.541603 112.068204-16.902281 0-33.242264-3.432104-48.565943-10.200514l-4.573362-2.02011-4.373434 2.424132a387.457095 387.457095 0 0 1-43.896782 20.817546l-2.311672 0.928834-1.595262 1.895155c-30.818132 36.511926-76.472617 57.450262-125.267645 57.450262-31.405421 0-61.869513-8.726042-88.110117-25.232632l-2.295012-1.44115-2.719859-0.095799c-10.716996-0.349875-21.284045-0.899678-31.409587-1.611923l-2.703198-0.191598-2.428298 1.18291c-23.379129 11.429241-48.582604 17.235495-74.910676 17.235495-64.485243 0-123.359995-36.266181-149.983795-92.404413l-0.937164-1.978458-1.695227-1.403664c-68.20891-56.383977-101.36787-142.465654-101.367869-263.155771 0-95.828187 47.049819-187.966028 129.082945-252.792815l3.9111-3.094725-0.170772-4.939898-0.029157-0.791384c-0.033321-1.032963-0.070808-2.003449-0.070808-2.932283 0-61.80287 52.281279-112.0807 116.541603-112.0807 31.388761 0 60.832384 11.833263 82.903648 33.325567l8.167909 7.955485 6.826722-9.105074c29.197878-38.944388 76.351827-62.194397 126.134002-62.194396 62.902476 0 119.223976 36.091243 143.486121 91.937913l3.277993 7.547297 8.092935-1.820181a157.147896 157.147896 0 0 1 34.441834-3.852787c83.078585 0 150.671049 65.035046 150.671049 144.977254 0 18.90573-3.756988 37.336631-11.166835 54.79288l-3.244671 7.634766 7.039146 4.481729c33.842049 21.554782 54.047314 57.679347 54.047314 96.63623 0 46.858221-29.060428 88.822362-74.02766 106.903388l-12.266441 4.931567 8.176239 10.296313z" fill="#6E6E96" p-id="1756"></path><path d="M715.697895 862.078813c1.707722 50.448602 33.009014 90.350981 69.916631 89.13475 36.899287-1.228727 65.434903-43.122059 63.735511-93.566497-1.707722-50.444437-32.288438-54.892844-69.191891-53.676613-36.903453 1.241222-66.163809 7.663922-64.460251 58.10836z" fill="#E8AC89" p-id="1757"></path><path d="M706.846897 862.36621c1.874329 55.196902 37.336631 98.977059 79.059191 97.602551 41.726725-1.387003 74.148449-47.416355 72.286616-102.613257-2.190882-64.647685-51.714816-63.014936-78.330285-62.136084-36.382806 1.216231-75.027301 7.501481-73.015522 67.14679z m73.606977-49.636393c39.602486-1.3037 58.691484 5.123166 60.041001 45.212977 1.53695 45.533696-23.216687 83.449286-55.184407 84.50724-31.963555 1.057955-59.232957-35.129088-60.769906-80.666949-1.349517-40.077316 16.956428-47.749569 55.913312-49.053268z" fill="#6E6E96" p-id="1758"></path><path d="M403.309752 876.090462c1.711887 50.448602 33.013179 90.350981 69.920797 89.13475 36.899287-1.228727 65.430738-43.122059 63.735511-93.558166-1.707722-50.448602-32.284273-54.901175-69.18356-53.684943-36.907618 1.237057-66.176304 7.668088-64.472748 58.108359z" fill="#E8AC89" p-id="1759"></path><path d="M394.467085 876.38619c1.874329 55.188572 37.336631 98.972894 79.059191 97.594221 41.72256-1.387003 74.144284-47.416355 72.286617-102.604927-2.190882-64.656015-51.718981-63.014936-78.330286-62.144414-36.386971 1.216231-75.031467 7.505646-73.015522 67.15512z m73.602812-49.640559c39.602486-1.3037 58.687319 5.127331 60.045166 45.212978 1.53695 45.542026-23.220852 83.449286-55.188572 84.51557-31.963555 1.053789-59.224627-35.141583-60.774072-80.675279-1.349517-40.081481 16.956428-47.753734 55.917478-49.053269zM671.667827 432.632586c-13.241092 13.403534-33.471348 5.202304-68.09645-10.45459-16.677362-7.538967-35.578927-16.090072-56.513097-22.337835-39.036022-11.649995-61.723732-28.685562-67.430022-50.627705-6.76841-26.003189 11.491718-56.150727 29.185383-74.073476 6.147799-6.222772 15.381992-9.454948 27.440174-9.588233 30.576551-0.34571 71.536885 19.163971 101.934334 48.553447 27.215255 26.323907 44.325795 59.607823 44.642348 86.8564 0.149946 13.174449-3.707006 24.12886-11.16267 31.671992z m-19.547167-132.64417c-34.450164-33.317237-80.025512-54.580456-116.095929-54.163939-17.289642 0.195763-31.634506 5.568839-41.468485 15.531938-7.71807 7.809704-45.625329 49.003287-34.23774 92.779279 7.568123 29.081253 34.812535 50.810973 80.983502 64.593537 19.634636 5.864567 37.886434 14.115779 53.984836 21.396505 35.924636 16.244183 66.955192 30.276659 90.642543 6.30191 11.229312-11.366763 17.052227-27.169438 16.831473-45.691972-0.379031-32.784094-19.313918-70.445609-50.6402-100.747258zM259.761153 219.500569c2.636556 16.489929-8.08044 44.913085-30.576551 63.939605-13.145293 11.116853-34.47099 22.554424-61.411344 13.911686-25.249292-8.092935-49.423969-11.883245-70.753831-15.227881-38.952719-6.110312-59.407894-10.10055-62.173571-27.419348-1.374508-8.601087 1.524454-17.856106 8.613582-27.510983 17.976896-24.47457 58.258306-45.333767 100.230777-51.902248 37.594872-5.881227 74.785721 0.416518 97.061078 16.435781 10.771143 7.747226 17.34379 17.35212 19.00986 27.773388zM140.574664 155.802545C92.995867 163.249878 48.545117 186.716475 27.33188 215.58947c-10.167193 13.845042-14.38235 28.431486-12.183138 42.193225 5.160652 32.284273 39.265107 37.632358 78.746803 43.821809 20.609287 3.232176 43.96759 6.893365 67.729915 14.515635 27.865022 8.934301 56.45895 2.653217 80.512837-17.689499 25.736618-21.767206 41.430998-56.259022 37.31164-82.016465-2.507435-15.698545-11.837428-29.756012-26.97784-40.647945-26.790407-19.268101-68.621262-26.732095-111.897433-19.963685z" fill="#6E6E96" p-id="1760"></path><path d="M461.205688 213.773454c126.371416 56.533923 141.032833 215.71026 101.921838 380.134717-47.995314 201.740262-224.686213 220.341935-355.730956 175.399694-226.714653-77.73883-158.872279-214.943868-101.917672-380.113891 76.031109-220.500212 229.351209-231.950278 355.72679-175.42052z" fill="#E8AC89" p-id="1761"></path><path d="M426.064105 209.445836c89.034786 38.182161 108.427842 140.066513 89.7387 254.158993-3.036413 18.555856-96.894471 5.064853-101.813543 24.045557-4.694152 18.106017 79.204972 16.098402 72.253294 81.53747-56.979597 120.62764-183.709219 131.652859-279.587387 100.638964-148.167778-47.916176-141.332726-129.811851-107.190785-230.125932 6.555986-19.255605 57.591878-28.135759 65.255801-48.640916 2.561583-6.855878-38.344603-24.820279-35.791351-31.801113 66.651134-182.326381 193.618171-194.201295 297.135271-149.813023z" fill="#F7CDAF" opacity=".64" p-id="1762"></path><path d="M227.914223 584.045036a22.92929 22.687709 0 1 0 45.85858 0 22.92929 22.687709 0 1 0-45.85858 0Z" fill="#6E6E96" p-id="1763"></path><path d="M208.046338 373.133058a39.456705 27.910839 90 1 0 55.821678 0 39.456705 27.910839 90 1 0-55.821678 0Z" fill="#6E6E96" p-id="1764"></path><path d="M335.646481 377.077479a39.456705 27.910839 90 1 0 55.821678 0 39.456705 27.910839 90 1 0-55.821678 0Z" fill="#6E6E96" p-id="1765"></path><path d="M457.098825 222.757736c150.158732 67.180111 117.378803 280.35378 96.319677 368.888745-18.031044 75.810354-55.596759 129.720217-111.639191 160.238456-62.569262 34.058638-146.809931 37.015912-231.121409 8.101266-72.544857-24.874426-117.624549-57.04624-137.800657-98.343953-30.788975-63.027432-2.657382-142.557287 29.914289-234.636816l12.145651-34.629267c32.280108-93.620644 80.637792-154.798737 143.719371-181.834889 72.236634-30.959747 147.797078-10.442094 198.462269 12.216458zM96.044776 386.007614l-12.091504 34.479321c-32.621652 92.229475-63.431454 179.33995-29.043767 249.739742 22.600241 46.258436 71.411929 81.720738 149.225733 108.40285 89.630406 30.738993 179.752302 27.286063 247.257297-9.463278 61.194754-33.321402 102.055123-91.525561 121.439849-172.996388 46.904038-197.179395 7.713905-339.832482-107.519833-391.384856-54.334711-24.303797-135.668088-46.175133-214.602324-12.349744-68.454655 29.339494-120.494354 94.466174-154.665451 193.572353z" fill="#6E6E96" p-id="1766"></path><path d="M460.789171 955.053854s41.147766-4.186001 31.880251-80.625297c-5.314764-43.792652-35.545605-47.087306-35.545606-47.087305s85.381927-23.778985 69.312681 68.59627c-16.065081 92.362761-45.587843 59.116332-65.647326 59.116332zM768.208259 807.860727s42.488953 5.260616 42.488952 57.812632-25.386743 76.78084-25.386743 76.78084 62.565097-4.952393 62.565097-75.031466c0-70.070743-39.023527-59.562006-79.667306-59.562006z" fill="#6E6E96" opacity=".15" p-id="1767"></path><path d="M454.22902 554.147408c-0.891347 11.466727-16.485764 19.609645-34.833361 18.185155s-32.500862-20.205265-31.609515-31.671992c0.891347-11.466727 16.485764-11.279295 34.833361-9.854805s32.496697 11.870749 31.609515 23.341642z" fill="#FFFFFF" opacity=".3" p-id="1768"></path><path d="M112.883267 471.934696a33.321402 20.825876 4.439 1 0 66.442895 5.157999 33.321402 20.825876 4.439 1 0-66.442895-5.157999Z" fill="#FFFFFF" opacity=".3" p-id="1769"></path></svg>