<?xml version="1.0" standalone="no"?><!DOCTYPE svg PUBLIC "-//W3C//DTD SVG 1.1//EN" "http://www.w3.org/Graphics/SVG/1.1/DTD/svg11.dtd"><svg t="1649681413591" class="icon" viewBox="0 0 1024 1024" version="1.1" xmlns="http://www.w3.org/2000/svg" p-id="128992" xmlns:xlink="http://www.w3.org/1999/xlink" width="200" height="200"><defs><style type="text/css">@font-face { font-family: "feedback-iconfont"; src: url("//at.alicdn.com/t/font_1031158_u69w8yhxdu.woff2?t=1630033759944") format("woff2"), url("//at.alicdn.com/t/font_1031158_u69w8yhxdu.woff?t=1630033759944") format("woff"), url("//at.alicdn.com/t/font_1031158_u69w8yhxdu.ttf?t=1630033759944") format("truetype"); }
</style></defs><path d="M511.33 512.67m-448.47 0a448.47 448.47 0 1 0 896.94 0 448.47 448.47 0 1 0-896.94 0Z" fill="#253D6D" p-id="128993"></path><path d="M246.28 483.31s3.25-81.77 11.86-140.08c8.61-58.3 32.87-156.91 32.87-156.91l93.75 162.65-138.48 134.34z" fill="#B7ADA7" p-id="128994"></path><path d="M266.49 464.14s1.85-46.56 6.75-79.76 18.72-89.34 18.72-89.34l53.38 92.61-78.85 76.49z" fill="#DBD0C8" p-id="128995"></path><path d="M774.93 483.31s-3.25-81.77-11.86-140.08-32.87-156.91-32.87-156.91l-93.75 162.65 138.48 134.34z" fill="#B7ADA7" p-id="128996"></path><path d="M755.72 464.14s-1.85-46.56-6.75-79.76-18.72-89.34-18.72-89.34l-53.38 92.61 78.85 76.49z" fill="#DBD0C8" p-id="128997"></path><path d="M840.93 653.75c32.87 4.7 46.31-1.33 35.22-5.79-15.07-6.05-22.7-3.87-36.39-18.63-14.87-16.02-40.79-77.33-40.79-77.33l-0.02-0.01C774.1 438.93 686.9 335.36 549.29 319.57c-0.44-4.26 0.35-9.57 2.5-16.3 5.36-16.71-3.18-9.64-18.52 6.78-3.13 3.35-5.54 5.82-7.37 7.64-2.29-0.11-4.59-0.19-6.9-0.25 0.33-4.15 2.26-11.5 8.4-24.48 12.95-27.39-3.78-15.55-16.96-0.26-5.98 6.94-24.1 18.51-37.54 26.6-138.73 14.95-216.41 108.27-251.99 232.69l-0.02 0.01s-25.92 61.31-40.79 77.34c-13.7 14.76-21.32 12.57-36.39 18.63-11.09 4.46 2.35 10.48 35.22 5.79 32.87-4.7 9.12 17.75 4.3 22.3-7.67 7.25-21.48 19.08-31.3 24.65-16.15 9.15-1.77 11.57 1.17 11.74 10.25 0.6 46.48-8.74 41.09 0-15.75 25.51-34.7 79.95-34.78 80.2 82.16 103.28 208.92 169.49 351.15 169.49 141.51 0 268.23-66.22 350.43-168.59l-0.52-0.89s-19-54.64-34.79-80.21c-5.4-8.74 30.83 0.6 41.09 0 2.94-0.17 17.32-2.59 1.17-11.74-9.82-5.57-23.63-17.4-31.3-24.65-4.83-4.56-28.58-27 4.29-22.31z" fill="#DBD0C8" p-id="128998"></path><path d="M876.15 647.97c-15.07-6.05-22.7-3.87-36.39-18.63-14.87-16.03-40.79-77.34-40.79-77.34l-0.02-0.01C774.1 438.93 686.9 335.36 549.29 319.57c-0.44-4.26 0.35-9.57 2.5-16.3 5.36-16.71-3.18-9.64-18.52 6.78-3.13 3.35-5.54 5.82-7.37 7.64-2.29-0.1-4.59-0.19-6.9-0.25 0.33-4.15 2.26-11.5 8.4-24.48 12.95-27.39-3.78-15.55-16.96-0.26-5.98 6.94-24.1 18.51-37.54 26.6-138.73 14.95-216.41 108.27-251.99 232.69l-0.02 0.01s-25.92 61.31-40.79 77.34c-13.7 14.76-21.32 12.58-36.39 18.63-11.09 4.46 2.35 10.48 35.22 5.79 32.87-4.7 9.12 17.75 4.3 22.3-7.67 7.25-21.48 19.08-31.3 24.65-16.15 9.15-1.77 11.57 1.17 11.74 10.25 0.6 46.48-8.74 41.09 0-15.75 25.51-34.7 79.95-34.78 80.2 8.08 10.16 16.6 19.95 25.52 29.37 21.91-20.57 146.06-89.32 196.43-117.94 50.38-28.63 15.26-58.7 63.39-89.89s55.17-29.85 65.84-29.85c10.89 0 17.64-1.34 65.77 29.85s17.32 54.48 67.7 83.1c50.34 28.6 170.13 104.08 192.08 124.68 8.67-9.13 16.97-18.61 24.85-28.42l-0.52-0.89s-19-54.64-34.79-80.21c-5.4-8.74 30.83 0.6 41.09 0 2.94-0.17 17.32-2.59 1.17-11.74-9.82-5.57-23.63-17.4-31.3-24.65-4.82-4.56-28.57-27 4.3-22.3 32.86 4.69 46.31-1.34 35.21-5.79z" fill="#B7ADA7" p-id="128999"></path><path d="M280.2 553.19c9.09-6.55 16.04-10.57 14.95-14.48-1.09-3.91-16.66-3.24-47.86 9.08-10.92 4.31-22.4 11.37-32.84 18.85-5.71 12.66-14.39 31.12-22.58 45.38 4.09-2.5 8.61-5.39 13.59-8.74 36.85-24.84 73.72-49.36 74.74-50.09zM262.23 521.33c9.29-6.26 16.04-10.57 14.95-14.48-1.04-3.74-15.33-3.28-43.83 7.52-4.16 10.98-7.94 22.28-11.35 33.85 18.67-12.48 34.38-22.94 40.23-26.89zM739.3 553.19c-9.09-6.55-16.04-10.57-14.95-14.48 1.09-3.91 16.66-3.24 47.86 9.08 10.92 4.31 22.92 11.73 33.36 19.21 5.71 12.66 14.23 30.76 22.42 45.02-4.09-2.5-8.97-5.39-13.95-8.74-36.85-24.84-73.72-49.36-74.74-50.09zM759.27 521.33c-9.29-6.26-16.04-10.57-14.95-14.48 1.04-3.74 15.33-3.28 43.83 7.52 5.19 13.48 7.28 22.21 9.95 33.85-18.66-12.48-32.98-22.94-38.83-26.89zM511.49 499.64c9.02 0 16.34-50.19 16.34-112.11 0-26.44-1.34-50.73-3.57-69.89-1.75-0.07-3.5-0.14-5.25-0.19 0.33-4.15 2.26-11.5 8.4-24.48 12.95-27.39-3.78-15.55-16.96-0.26-1.38 1.6-3.4 3.44-5.86 5.43-2.01 1.99-3.52 3.22-4.21 3.25-2.29 19.29-5.23 59.33-5.23 86.14 0 61.91 7.31 112.11 16.34 112.11z" fill="#877B74" p-id="129000"></path><path d="M378.23 562.61m-51.57 0a51.57 51.57 0 1 0 103.14 0 51.57 51.57 0 1 0-103.14 0Z" fill="#FFFFFF" p-id="129001"></path><path d="M378.23 562.61m-35.75 0a35.75 35.75 0 1 0 71.5 0 35.75 35.75 0 1 0-71.5 0Z" fill="#C5C535" p-id="129002"></path><path d="M390.52 548.87m-12.29 0a12.29 12.29 0 1 0 24.58 0 12.29 12.29 0 1 0-24.58 0Z" fill="#FFFFFF" p-id="129003"></path><path d="M644.05 562.61m-51.57 0a51.57 51.57 0 1 0 103.14 0 51.57 51.57 0 1 0-103.14 0Z" fill="#FFFFFF" p-id="129004"></path><path d="M644.05 562.61m-35.75 0a35.75 35.75 0 1 0 71.5 0 35.75 35.75 0 1 0-71.5 0Z" fill="#C5C535" p-id="129005"></path><path d="M658.44 548.87m-12.29 0a12.29 12.29 0 1 0 24.58 0 12.29 12.29 0 1 0-24.58 0Z" fill="#FFFFFF" p-id="129006"></path><path d="M482.62 635.06c0.01-8.26 55.69-6.98 55.86-0.01 0.32 13.04-18.55 31.5-28.31 31.54-9.71 0.05-27.56-17.25-27.55-31.53z" fill="#371E19" p-id="129007"></path><path d="M479.89 726.93l-2.23-2.01 31.01-34.4v-26.17h3v27.32z" fill="#371E19" p-id="129008"></path><path d="M540.83 726.93l-32.17-35.26 0.39-27.34 3 0.05-0.38 26.15 31.38 34.38z" fill="#371E19" p-id="129009"></path><path d="M430.15 351.14c0 61.92 7.31 112.11 16.34 112.11s16.34-50.19 16.34-112.11c0-10.8-0.22-21.25-0.64-31.13a333.845 333.845 0 0 0-31.62 6.05c-0.27 8.06-0.42 16.46-0.42 25.08z" fill="#877B74" p-id="129010"></path><path d="M560.15 352.28c0 61.92 7.31 112.11 16.34 112.11s16.34-50.19 16.34-112.11c0-8.87-0.15-17.51-0.44-25.79a332.253 332.253 0 0 0-31.56-6.23c-0.45 10.15-0.68 20.89-0.68 32.02z" fill="#877B74" p-id="129011"></path></svg>