<?xml version="1.0" standalone="no"?><!DOCTYPE svg PUBLIC "-//W3C//DTD SVG 1.1//EN" "http://www.w3.org/Graphics/SVG/1.1/DTD/svg11.dtd"><svg t="1649681345764" class="icon" viewBox="0 0 1024 1024" version="1.1" xmlns="http://www.w3.org/2000/svg" p-id="126316" xmlns:xlink="http://www.w3.org/1999/xlink" width="200" height="200"><defs><style type="text/css">@font-face { font-family: "feedback-iconfont"; src: url("//at.alicdn.com/t/font_1031158_u69w8yhxdu.woff2?t=1630033759944") format("woff2"), url("//at.alicdn.com/t/font_1031158_u69w8yhxdu.woff?t=1630033759944") format("woff"), url("//at.alicdn.com/t/font_1031158_u69w8yhxdu.ttf?t=1630033759944") format("truetype"); }
</style></defs><path d="M889.568 383.619s62.139-255.188-1.094-291.361c-60.847-34.821-242.323 141.115-242.323 141.115s-10.194-4.586-11.158-1.926c-8.496 23.605-18.064 118.006-18.064 118.006 0 10.324-8.38 18.701-18.682 18.701-10.324 0-18.701-8.377-18.701-18.701l1.686-130.93c1.63 0.098-14.454 0.951-19.534 0.476-12.866-1.519-4.745 0.497-17.948-0.069 0.158 0.031 0.417 0.039 0.557 0.069-2.404 24.657-8.559 129.323-8.559 129.323 0 10.324-8.356 18.682-18.681 18.682s-18.682-8.357-18.999-20.747l-15.991-125.809-0.109-0.495c-7.236-2.305-30.137 3.652-30.137 3.652 10.602 21.62-3.257 125.848-3.257 125.848 0 10.324-8.377 18.682-18.682 18.682-10.323 0-18.7-8.357-18.264-10.621l-16.757-120.787-6.293-6.252c-61.267-47.746-205.677-172.721-268.829-130.95-63.132 41.749 18.384 302.241 18.384 302.241-40.043 56.242-60.73 120.486-60.73 190.867 0 206.787 198.729 374.407 443.872 374.407 245.125 0 443.854-167.62 443.854-374.407-0.001-77.408-27.854-149.317-75.561-209.014z m-700.712-40.618s-41.135-131.467-9.271-152.55c31.864-21.064 136.748 68.254 136.748 68.254l-127.477 84.296z m428.25 389.783c-2.145 0-4.3-0.107-6.473-0.349-33.343-3.611-61.881-35.339-84.891-94.341-23.031 59.002-51.559 90.729-84.912 94.341-54.099 5.857-99.354-64.561-101.25-67.568l8.587-5.431c0.437 0.677 43.706 68.027 91.592 62.896 30.949-3.374 57.891-36.171 80.086-97.468l0.238-0.666c-13.539-7.553-29.562-37.084-22.216-46.833 8.438-11.236 49.076-12.13 56.165 0 6.216 10.602-9.212 39.903-22.572 47.052l0.157 0.447c22.206 61.313 49.157 94.113 80.117 97.468 48.135 5.321 91.145-62.219 91.572-62.896l8.596 5.431c-1.825 2.889-43.535 67.917-94.796 67.917z m221.479-400.087l-125.272-87.533s107.146-86.617 138.455-64.719c31.329 21.877-13.183 152.252-13.183 152.252z" fill="#595758" p-id="126317"></path><path d="M387.049 514.056c0 41.77-33.849 75.618-75.64 75.618-41.77 0-75.66-33.849-75.66-75.618 0-41.792 33.891-75.661 75.66-75.661 41.791 0 75.64 33.869 75.64 75.661z" fill="#D77552" p-id="126318"></path><path d="M306.884 471.59c0 18.363-14.87 33.232-33.215 33.232-18.344 0-33.214-14.869-33.214-33.232 0-18.346 14.87-33.195 33.214-33.195 18.345 0 33.215 14.849 33.215 33.195z" fill="#FFFFFF" p-id="126319"></path><path d="M816.549 514.056c0 41.77-33.868 75.618-75.659 75.618-41.77 0-75.641-33.849-75.641-75.618 0-41.792 33.871-75.661 75.641-75.661 41.791 0 75.659 33.869 75.659 75.661z" fill="#D77552" p-id="126320"></path><path d="M736.383 471.59c0 18.363-14.89 33.232-33.233 33.232-18.324 0-33.216-14.869-33.216-33.232 0-18.346 14.892-33.195 33.216-33.195 18.343 0 33.233 14.849 33.233 33.195z" fill="#FFFFFF" p-id="126321"></path></svg>