<svg xmlns="http://www.w3.org/2000/svg" viewBox="0 0 68.58 66.12"><defs><style>.cls-1{isolation:isolate;}.cls-2,.cls-3,.cls-4,.cls-5,.cls-9{fill:#3c3c3c;}.cls-3,.cls-8{opacity:0.2;}.cls-3,.cls-4,.cls-8{mix-blend-mode:multiply;}.cls-4{opacity:0.1;}.cls-5{opacity:0.4;}.cls-5,.cls-9{mix-blend-mode:screen;}.cls-6{fill:#333;}.cls-7,.cls-8{fill:#7f5d99;}.cls-9{opacity:0.8;}.cls-10{fill:#f7b22f;}.cls-11{fill:#ec8123;}.cls-12{fill:#bb97c5;}</style></defs><title>资源 13</title><g class="cls-1"><g id="图层_2" data-name="图层 2"><g id="Layer_1" data-name="Layer 1"><path class="cls-2" d="M54.8,59.74c1.47,2.1,7.07,6.47,9.17,5s-.1-8.22-1.57-10.32a4.64,4.64,0,1,0-7.6,5.32Z"/><path class="cls-2" d="M13.48,59.74c-1.47,2.1-7.07,6.47-9.16,5s.09-8.22,1.56-10.32a4.64,4.64,0,1,1,7.6,5.32Z"/><path class="cls-2" d="M68.58,35.26c0-7.7-5.95-18.17-16.55-21.44a37.51,37.51,0,0,0-17.74-.72,37.55,37.55,0,0,0-17.75.72C5.94,17.09,0,27.56,0,35.26-.27,55.68,18.87,61.79,29.6,63.2A46.13,46.13,0,0,0,40.51,63C51.42,61.2,68.83,54.74,68.58,35.26Z"/><path class="cls-3" d="M40.75,58.23a49.31,49.31,0,0,1-11.34.23C20.29,57.29,5.31,53,.33,40.17,2.9,56.79,19.78,62.06,29.6,63.36a46.73,46.73,0,0,0,10.91-.23c10-1.63,25.29-7.17,27.74-23C63.55,52.25,49.93,56.79,40.75,58.23Z"/><path class="cls-4" d="M59.48,18.07s2.1,1.31,2.1,2.45-3.5,10-27.52,10-28.14-8.67-26.39-11S59.48,18.07,59.48,18.07Z"/><path class="cls-2" d="M61.38,16.94c0,5.78-12.2,10.47-27.24,10.47S6.9,22.72,6.9,16.94a6.61,6.61,0,0,1,1.53-4.4c3.9-3.95,14.07-6.07,25.71-6.07,9.18,0,18.44,1.5,23.38,4.18A6.62,6.62,0,0,1,61.38,16.94Z"/><path class="cls-5" d="M15.62,29.33c4.87,1.48,14.16,2.9,26.14,2.18C52.21,30.88,42.85,42,28.42,41.58,11.72,41.13,7.28,26.79,15.62,29.33Z"/><path class="cls-6" d="M64.83,13.05c0,6.53-13.74,11.83-30.69,11.83S3.45,19.58,3.45,13.05a7.5,7.5,0,0,1,1.72-5c4.4-4.46,15.85-6.86,29-6.86,10.35,0,20.78,1.7,26.34,4.72A7.46,7.46,0,0,1,64.83,13.05Z"/><path class="cls-2" d="M64.32,11.22c0,6.19-13.53,11.21-30.22,11.21s-30.21-5-30.21-11.21S17.41,0,34.1,0,64.32,5,64.32,11.22Z"/><path class="cls-3" d="M60.56,10.83c0,5-11.85,9.06-26.46,9.06S7.65,15.83,7.65,10.83,19.5,1.77,34.1,1.77,60.56,5.82,60.56,10.83Z"/><path class="cls-7" d="M34.1,19.89c11.06,0,20.53-2.33,24.48-5.62C56.13,10.4,46.1,7.5,34.1,7.5s-22,2.9-24.47,6.77C13.58,17.56,23.05,19.89,34.1,19.89Z"/><path class="cls-8" d="M12.21,15.91c4.76,2.4,12.79,4,21.89,4s17.14-1.58,21.9-4c-4.28-2.64-12.48-4.42-21.9-4.42S16.49,13.27,12.21,15.91Z"/><path class="cls-9" d="M28.36,21.3a111.66,111.66,0,0,0,20.69-.48c1.63-.26-.12.36-2.89.95A72.4,72.4,0,0,1,29,23c-12.28-.64-18.28-4.45-19.19-5-.23-.15,3.83,1.38,6.41,1.87A101,101,0,0,0,28.36,21.3Z"/><path class="cls-9" d="M41.83,3a124.16,124.16,0,0,0-13.92-.77c-.76,0-2.75,0-1.22-.17A69.27,69.27,0,0,1,41.35,1.8c10.58.94,15,3.78,15.73,4.34.21.14-2.54-.92-4.77-1.41C48.4,3.88,45,3.38,41.83,3Z"/><path class="cls-10" d="M19.85,60.71c.36,2.85,2.86,4.08,5.72,3.72s5-2.15,4.64-5-3.57-9.73-6.43-9.37S19.5,57.85,19.85,60.71Z"/><path class="cls-11" d="M21.61,61.18c.24,1.92,1.91,2.73,3.83,2.5s3.34-1.44,3.1-3.36-2.38-6.51-4.3-6.28S21.37,59.27,21.61,61.18Z"/><path class="cls-10" d="M40.39,61.1c0,3.28-2.66,5-5.94,5s-5.94-1.74-5.94-5,2.66-11.5,5.94-11.5S40.39,57.82,40.39,61.1Z"/><path class="cls-11" d="M38.52,61.62c0,2.26-1.82,3.45-4.07,3.45s-4.07-1.19-4.07-3.45,1.82-7.88,4.07-7.88S38.52,59.38,38.52,61.62Z"/><path class="cls-10" d="M13.69,60.46c.38,2,2.16,2.68,4.12,2.31s3.33-1.72,3-3.68-2.91-6.54-4.86-6.16S13.31,58.51,13.69,60.46Z"/><path class="cls-11" d="M14.92,60.71c.25,1.31,1.45,1.79,2.75,1.54s2.24-1.15,2-2.46-1.95-4.38-3.26-4.13S14.66,59.4,14.92,60.71Z"/><path class="cls-10" d="M49,60.71c-.35,2.85-2.86,4.08-5.71,3.72s-5-2.15-4.64-5,3.56-9.73,6.42-9.37S49.4,57.85,49,60.71Z"/><path class="cls-11" d="M47.29,61.18c-.24,1.92-1.92,2.73-3.83,2.5s-3.34-1.44-3.1-3.36,2.38-6.51,4.3-6.28S47.53,59.27,47.29,61.18Z"/><path class="cls-10" d="M55.21,59.65c-.38,2-2.16,2.68-4.12,2.3s-3.34-1.71-3-3.67S51,51.74,53,52.12,55.59,57.7,55.21,59.65Z"/><path class="cls-11" d="M54,59.9c-.26,1.31-1.45,1.79-2.76,1.54a2.12,2.12,0,0,1-2-2.46c.26-1.31,1.95-4.38,3.26-4.13S54.24,58.59,54,59.9Z"/><path class="cls-12" d="M32.77,9a1.38,1.38,0,1,0,0,2.75,1.38,1.38,0,0,0,0-2.75"/><path class="cls-12" d="M44.68,15.58A1.38,1.38,0,1,0,46.05,17a1.38,1.38,0,0,0-1.37-1.37"/><path class="cls-12" d="M35.72,16.16a1.37,1.37,0,1,0,1.38,1.37,1.37,1.37,0,0,0-1.38-1.37"/><path class="cls-12" d="M22.13,11.74a1.38,1.38,0,1,0,1.38,1.37,1.37,1.37,0,0,0-1.38-1.37"/><path class="cls-12" d="M40.24,8.42A3.58,3.58,0,1,0,43.82,12a3.58,3.58,0,0,0-3.58-3.58"/><path class="cls-12" d="M28.29,12.6a2.47,2.47,0,1,0,2.47,2.47,2.47,2.47,0,0,0-2.47-2.47"/><path class="cls-12" d="M51.25,11a2.47,2.47,0,1,0,2.47,2.46A2.46,2.46,0,0,0,51.25,11"/><path class="cls-12" d="M16.06,11.23a2.47,2.47,0,1,0,2.47,2.46,2.46,2.46,0,0,0-2.47-2.46"/></g></g></g></svg>