<?xml version="1.0" standalone="no"?><!DOCTYPE svg PUBLIC "-//W3C//DTD SVG 1.1//EN" "http://www.w3.org/Graphics/SVG/1.1/DTD/svg11.dtd"><svg t="1649680827056" class="icon" viewBox="0 0 1024 1024" version="1.1" xmlns="http://www.w3.org/2000/svg" p-id="96035" xmlns:xlink="http://www.w3.org/1999/xlink" width="200" height="200"><defs><style type="text/css">@font-face { font-family: "feedback-iconfont"; src: url("//at.alicdn.com/t/font_1031158_u69w8yhxdu.woff2?t=1630033759944") format("woff2"), url("//at.alicdn.com/t/font_1031158_u69w8yhxdu.woff?t=1630033759944") format("woff"), url("//at.alicdn.com/t/font_1031158_u69w8yhxdu.ttf?t=1630033759944") format("truetype"); }
</style></defs><path d="M181.7 607.8l80.2 81c21.8 22 51.5 34.4 82.4 34.4h330.4c31 0 60.6-12.4 82.4-34.4l80.2-81H181.7z" fill="#FFEEAD" p-id="96036"></path><path d="M674.8 737.4H344.3c-34.5 0-68.3-14.1-92.6-38.6l-80.2-81c-4.1-4.1-5.3-10.2-3-15.6 2.2-5.3 7.4-8.8 13.2-8.8h655.7c5.8 0 11 3.5 13.2 8.8 2.2 5.3 1 11.5-3 15.6l-80.2 81c-24.3 24.6-58 38.6-92.6 38.6zM216 622.1l56 56.6c19 19.2 45.3 30.1 72.2 30.1h330.5c27 0 53.3-11 72.2-30.1l56-56.6H216z" fill="#8A278E" p-id="96037"></path><path d="M529.3 825.5h-39.4l-15.8-102.4H545zM280.8 781.3L246.5 762l36.4-97h6.3c23.6 0 45.2 13.5 55.6 34.7l-64 81.6zM738.3 781.3l34.3-19.3-36.4-97H730c-23.6 0-45.2 13.5-55.6 34.7l63.9 81.6z" fill="#E1F3FC" p-id="96038"></path><path d="M529.3 839.8h-39.4c-7.1 0-13.1-5.2-14.1-12.1L460 725.3c-0.6-4.1 0.6-8.3 3.3-11.5 2.7-3.2 6.7-5 10.9-5H545c4.2 0 8.1 1.8 10.9 5 2.7 3.2 3.9 7.4 3.3 11.5l-15.8 102.4c-1.1 7-7.1 12.1-14.1 12.1z m-27.1-28.6H517l11.3-73.8h-37.5l11.4 73.8zM280.8 795.6c-2.4 0-4.8-0.6-7-1.8l-34.3-19.3c-6.2-3.5-8.9-10.9-6.4-17.5l36.4-97c2.1-5.6 7.4-9.3 13.4-9.3h6.3c28.9 0 55.7 16.8 68.4 42.7 2.4 4.9 1.8 10.8-1.6 15.1l-63.9 81.6c-2.8 3.6-7 5.5-11.3 5.5z m-16.6-40.1l12.9 7.3 50.2-64.2c-8.2-11-20.9-18.1-34.6-19.2l-28.5 76.1zM738.3 795.6c-4.3 0-8.5-1.9-11.3-5.5l-63.9-81.6c-3.4-4.3-4-10.2-1.6-15.1 12.7-26 39.5-42.7 68.4-42.7h6.3c6 0 11.3 3.7 13.4 9.3l36.4 97c2.5 6.6-0.2 14-6.4 17.5l-34.3 19.3c-2.2 1.2-4.6 1.8-7 1.8z m-46.5-97l50.2 64.2 12.9-7.3-28.5-76.1c-13.8 1.1-26.5 8.2-34.6 19.2z" fill="#8A278E" p-id="96039"></path><path d="M915.2 603.6l-169.8 15.7c-156.9 14.5-314.7 14.5-471.6-0.1l-169.1-15.7c-34.3-3.2-60.5-31.9-60.6-66.3-0.1-36.9 29.8-66.9 66.7-66.9H909c36.7 0 66.5 29.6 66.7 66.2 0.3 34.8-26 63.9-60.5 67.1z" fill="#F39BC2" p-id="96040"></path><path d="M509.9 644.4c-79.3 0-158.7-3.7-237.4-11l-169.1-15.7c-41.8-3.9-73.5-38.5-73.6-80.5-0.1-21.7 8.4-42.1 23.7-57.5 15.3-15.4 35.7-23.8 57.4-23.8H909c44.3 0 80.6 36 81.1 80.3v0.2c0.2 20.4-7.3 39.9-20.9 55-13.7 15.1-32.4 24.5-52.6 26.3l-169.8 15.7c-78.7 7.4-157.8 11-236.9 11zM110.8 484.6c-14 0-27.2 5.5-37.1 15.4-9.9 9.9-15.3 23.1-15.3 37.2 0.1 27.2 20.5 49.6 47.6 52.1L275.1 605c155.6 14.4 313.3 14.5 468.9 0.1l169.8-15.7 1.3 14.2-1.3-14.2c27.3-2.5 47.8-25.1 47.6-52.5v-0.2c-0.2-28.7-23.7-52-52.4-52H110.8z" fill="#8A278E" p-id="96041"></path><path d="M509.6 193.5c-171.4 0-310.3 138.9-310.3 310.3v15.8c206.1 25.4 414.5 25.4 620.5 0v-15.8c0-171.4-138.9-310.3-310.2-310.3z" fill="#E1F3FC" p-id="96042"></path><path d="M509.6 193.5c-17.6 0-34.8 1.5-51.6 4.3 146.8 24.6 258.7 152.2 258.7 306v15.8c-86 10.5-172.3 16.7-258.7 18.4 120.8 2.5 241.7-3.7 361.8-18.5v-15.8c0-171.3-138.9-310.2-310.2-310.2z" fill="#CADBE4" p-id="96043"></path><path d="M509.6 552.9c-104.2 0-208.5-6.4-312-19.1-7.2-0.9-12.6-7-12.6-14.2v-15.8c0-179 145.6-324.6 324.6-324.6 179 0 324.6 145.6 324.6 324.6v15.8c0 7.2-5.4 13.3-12.6 14.2-103.5 12.7-207.8 19.1-312 19.1z m-296-46.1c196.5 23.2 395.5 23.2 591.9 0v-3.1c0-163.2-132.8-296-296-296s-296 132.8-296 296v3.1z" fill="#8A278E" p-id="96044"></path></svg>