<?xml version="1.0" standalone="no"?><!DOCTYPE svg PUBLIC "-//W3C//DTD SVG 1.1//EN" "http://www.w3.org/Graphics/SVG/1.1/DTD/svg11.dtd"><svg t="1649680835946" class="icon" viewBox="0 0 1024 1024" version="1.1" xmlns="http://www.w3.org/2000/svg" p-id="96178" xmlns:xlink="http://www.w3.org/1999/xlink" width="200" height="200"><defs><style type="text/css">@font-face { font-family: "feedback-iconfont"; src: url("//at.alicdn.com/t/font_1031158_u69w8yhxdu.woff2?t=1630033759944") format("woff2"), url("//at.alicdn.com/t/font_1031158_u69w8yhxdu.woff?t=1630033759944") format("woff"), url("//at.alicdn.com/t/font_1031158_u69w8yhxdu.ttf?t=1630033759944") format("truetype"); }
</style></defs><path d="M986.4 591.6c0 10.6-3.6 20.4-9.8 29.4 1.7-6.8 2.6-13.6 2.6-20.6 0-5.4-1.5-10.6-4.5-15.4v-0.1c-0.1-0.8-0.3-1.5-0.5-2.3-0.1-0.5-0.2-0.9-0.4-1.4-0.2-0.5-0.3-1-0.5-1.5-1.5-4.2-3.7-8.4-6.7-12.5-0.4-0.7-0.9-1.3-1.5-1.9-1-1.3-2.1-2.6-3.3-3.9-0.6-0.7-1.2-1.3-1.9-2-0.9-0.9-1.7-1.7-2.6-2.5-1.8-1.7-3.7-3.4-5.8-5.1-1-0.9-2.1-1.7-3.2-2.5-1.1-0.9-2.2-1.7-3.4-2.5-1.2-0.9-2.4-1.7-3.6-2.4-1.2-0.9-2.5-1.7-3.7-2.4-1.2-0.8-2.5-1.6-3.8-2.4-2.7-1.6-5.4-3.2-8.4-4.7-1.2-0.7-2.4-1.3-3.7-1.9-3.3-1.7-6.6-3.4-10.2-4.9-1.6-0.8-3.3-1.5-5-2.2-9-3.9-18.7-7.7-29.2-11.3-1.3-0.5-2.6-0.9-3.8-1.3 0 0 0.1 0 0.1 0.1-25.5-8.6-55.1-16.2-88-22.7-1.3-4.1-2.8-8.2-4.4-12.3 22 4.2 42.8 9 62.2 14.2 65.2 17.7 143 49.2 143 99z" fill="#8A278E" p-id="96179"></path><path d="M979.2 600.4c0 6.9-0.9 13.8-2.6 20.6-5.2 7.6-12.4 14.6-20.9 21.1 5.1-8.4 8.6-17 10.5-25.8 6-8 9.1-16.2 9.1-24.7 0-1 0-2.1-0.1-3.2v-0.2c-0.1-1-0.3-2-0.5-3v-0.2c3 4.8 4.5 10 4.5 15.4z" fill="#8A278E" p-id="96180"></path><path d="M975.3 591.6c0-1 0-2.1-0.1-3.2 0 1.1 0.1 2.1 0.1 3.2z" fill="#00445D" p-id="96181"></path><path d="M975.1 588.4c0.1 1 0.1 2.1 0.1 3.2 0 8.5-3.1 16.7-9.1 24.7 1.2-5.2 1.8-10.5 1.8-15.9 0-3.8-1.4-7.6-4-11.1-0.8-8.3-5.9-16.7-15-25 12.4 6.3 20.8 13.1 25.7 20.6V585.2c0.2 1 0.3 2 0.5 3v0.2z" fill="#8A278E" p-id="96182"></path><path d="M975.1 588.2c-0.1-1-0.3-2-0.5-3 0.3 1 0.4 2 0.5 3zM974.6 584.9c-0.1-0.8-0.3-1.5-0.5-2.3 0.2 0.8 0.4 1.5 0.5 2.3z" fill="#00445D" p-id="96183"></path><path d="M974.1 582.6c0.2 0.8 0.4 1.5 0.5 2.3-4.8-7.5-13.3-14.4-25.7-20.6-11-10.1-27.9-19.9-49.9-29.2-6.1-7.5-14.7-14.7-25.6-21.6 1.2 0.4 2.5 0.8 3.7 1.2 10.5 3.6 20.3 7.4 29.2 11.3 1.7 0.7 3.4 1.5 5 2.2 3.6 1.6 6.9 3.2 10.2 4.9 1.2 0.6 2.5 1.2 3.7 1.9 2.9 1.5 5.7 3.1 8.4 4.7 1.3 0.8 2.6 1.6 3.8 2.4 1.3 0.8 2.6 1.6 3.7 2.4l3.6 2.4c1.1 0.8 2.3 1.7 3.4 2.5s2.2 1.7 3.2 2.5c2.1 1.7 4 3.4 5.8 5.1 0.9 0.9 1.8 1.7 2.6 2.5 0.7 0.7 1.3 1.3 1.9 2 1.2 1.3 2.3 2.6 3.3 3.9 0.5 0.6 1 1.3 1.5 1.9 3 4.1 5.3 8.2 6.7 12.5 0.2 0.5 0.4 1 0.5 1.5 0.3 0.4 0.4 0.8 0.5 1.3z" fill="#8A278E" p-id="96184"></path><path d="M974.1 582.6zM973.7 581.2c-0.1-0.5-0.3-1-0.5-1.5 0.2 0.4 0.3 1 0.5 1.5z" fill="#00445D" p-id="96185"></path><path d="M968 600.4c0 5.4-0.6 10.7-1.8 15.9-4.6 6.3-11.1 12.4-19.1 18.3 4.3-7.5 7.2-15.2 8.7-22.9 5.5-6.7 8.4-13.5 8.4-20.2 0-0.8 0-1.5-0.1-2.3 2.5 3.6 3.9 7.4 3.9 11.2z" fill="#8A278E" p-id="96186"></path><path d="M966.5 567.2c-0.5-0.7-0.9-1.3-1.5-1.9 0.5 0.6 1.1 1.2 1.5 1.9z" fill="#00445D" p-id="96187"></path><path d="M964 589.3c0.1 0.8 0.1 1.5 0.1 2.3 0 6.7-2.8 13.5-8.4 20.2 0.7-3.7 1.1-7.5 1.1-11.3 0-4.9-8.4-13.4-32-22.2-5-1.9-10.5-3.7-16.5-5.5 1.1-3.5 1.7-7 1.7-10.6v-0.6c27.3 7.9 46.2 17.1 54 27.7z" fill="#D573A4" p-id="96188"></path><path d="M961.7 561.4c-0.6-0.7-1.2-1.3-1.9-2 0.7 0.7 1.3 1.3 1.9 2zM959.8 559.4c-0.8-0.9-1.7-1.7-2.6-2.5 0.9 0.8 1.7 1.6 2.6 2.5z" fill="#00445D" p-id="96189"></path><path d="M956.8 600.4c0 3.8-0.4 7.6-1.1 11.3C917 659.2 746.7 705 515 705c-150.6 0-275.3-19.4-354.7-46 79.1 17.4 179.8 27.8 289.4 27.8 241 0 438.8-50.2 458.6-114.1 6 1.8 11.5 3.6 16.5 5.5 23.6 8.8 32 17.3 32 22.2z" fill="#D573A4" p-id="96190"></path><path d="M966.2 616.3c-1.9 8.8-5.4 17.4-10.5 25.8-8.2 6.3-17.8 12.1-28.2 17.4 8.2-8.1 14.7-16.4 19.5-24.9 8.1-5.9 14.6-12 19.2-18.3z" fill="#8A278E" p-id="96191"></path><path d="M955.7 642.1c8.5-6.5 15.7-13.5 20.9-21.1-11.2 45.1-59.3 86.3-138.2 117.5-42.5 16.9-91.8 30-145.5 39.1 2-4 3.6-8.1 4.9-12.3 128.1-22.7 225-68.1 257.9-123.2z" fill="#8A278E" p-id="96192"></path><path d="M951.4 551.8c-1-0.8-2.1-1.7-3.2-2.5 1.1 0.9 2.1 1.7 3.2 2.5z" fill="#00445D" p-id="96193"></path><path d="M949 564.3c9.1 8.3 14.3 16.7 15 25-7.8-10.6-26.7-19.8-54-27.8 0-4.1-0.9-8.2-2.4-12.2 9.3 2.5 17.7 5.2 25.1 8 6 2.2 11.4 4.6 16.3 7z" fill="#D573A4" p-id="96194"></path><path d="M955.7 611.7c-1.4 7.7-4.4 15.3-8.7 22.9-64.8 47.6-233.8 81.5-432 81.5-5.9 0-11.8 0-17.8-0.1-5.9 0-11.7-0.1-17.6-0.3-11.7-0.2-23.3-0.6-34.8-1-5-0.2-10-0.5-15-0.7-12.1-0.6-24-1.3-35.7-2.2-10.3-0.8-20.4-1.6-30.4-2.5-9.6-0.9-19.1-1.9-28.4-3-3.3-0.4-6.5-0.8-9.8-1.2-6.1-0.7-12.1-1.5-18-2.3-8.1-1.1-16.1-2.3-23.9-3.6-3.8-0.6-7.5-1.2-11.3-1.8-2.5-0.4-5-0.9-7.4-1.3-13.8-2.4-27.2-5-39.9-7.8l-2.7-0.6c-2.8-0.7-5.6-1.3-8.4-1.9l-1.5-0.3c-2.3-0.6-4.5-1.1-6.8-1.7-2.7-0.7-5.4-1.3-8.1-2-2.7-0.7-5.3-1.4-7.9-2.1-2.4-0.7-4.7-1.3-7.1-1.9-0.2 0-0.5-0.1-0.7-0.2-2.5-0.7-5-1.5-7.5-2.2-7.4-2.2-14.5-4.5-21.4-6.9l-2.7-0.9c-3.4-1.2-6.7-2.4-9.9-3.6-0.2 0-0.4-0.1-0.6-0.2-2.1-0.8-4.3-1.7-6.3-2.5-2.1-0.9-4.1-1.7-6.1-2.5-1.8-0.8-3.6-1.5-5.3-2.3-5.8-2.6-11.2-5.2-16.3-7.9-0.9-0.5-1.9-1-2.8-1.5-0.5-0.3-1-0.6-1.5-0.8-1.1-0.6-2.1-1.2-3.1-1.8-2.4-1.3-4.6-2.7-6.8-4.1 20.5 6.9 43.5 13.1 68.8 18.7 79.4 26.6 204.1 46 354.7 46 231.7-0.1 402-45.9 440.7-93.4z" fill="#8A278E" p-id="96195"></path><path d="M948.2 549.4c-1.1-0.8-2.2-1.7-3.4-2.5 1.2 0.8 2.3 1.6 3.4 2.5zM944.8 546.9l-3.6-2.4c1.3 0.7 2.4 1.5 3.6 2.4z" fill="#00445D" p-id="96196"></path><path d="M927.5 659.5c10.4-5.3 19.9-11.1 28.2-17.4-32.9 55.1-129.8 100.5-257.9 123.1 0.1-0.2 0.2-0.4 0.2-0.7l0.7-2.3c0.8-2.8 0.5-5.7-0.8-8.2 48.6-8.7 93.3-21 132.2-36.3 42.8-16.9 75.8-36.9 97.4-58.2z" fill="#8A278E" p-id="96197"></path><path d="M941.2 544.5c-1.2-0.8-2.5-1.6-3.7-2.4 1.3 0.7 2.5 1.5 3.7 2.4zM937.5 542.1c-1.2-0.8-2.6-1.6-3.8-2.4 1.3 0.7 2.6 1.6 3.8 2.4z" fill="#00445D" p-id="96198"></path><path d="M949 564.3c-4.8-2.4-10.2-4.8-16.3-7-7.4-2.8-15.8-5.4-25.1-8-1.8-4.8-4.7-9.6-8.5-14.2 22 9.2 38.8 19.1 49.9 29.2z" fill="#D573A4" p-id="96199"></path><path d="M925.2 535c2.9 1.5 5.7 3.1 8.4 4.7-2.7-1.6-5.5-3.2-8.4-4.7z" fill="#00445D" p-id="96200"></path><path d="M947.1 634.6c-4.8 8.4-11.3 16.7-19.5 24.9-25.6 13.1-56 23.4-84.2 30.9-87.8 23.8-204.4 36.9-328.4 36.9-123.9 0-240.5-13.1-328.4-36.9-33.9-9.2-71.2-22.1-99.2-39.4-7.6-8.9-13.2-17.9-16.8-27 5.6 5.6 12.6 11.1 20.9 16.3 2.2 1.4 4.5 2.8 6.8 4.1 1 0.6 2.1 1.2 3.1 1.8 0.5 0.2 0.9 0.5 1.5 0.8 0.9 0.5 1.8 1 2.8 1.5 5.1 2.7 10.5 5.3 16.3 7.9 1.7 0.8 3.5 1.5 5.3 2.3 2 0.9 4 1.7 6.1 2.5 2 0.9 4.2 1.7 6.3 2.5 0.2 0.1 0.4 0.2 0.6 0.2 3.2 1.2 6.5 2.4 9.9 3.6 0.9 0.3 1.8 0.7 2.7 0.9 6.8 2.4 13.9 4.7 21.4 6.9 2.5 0.8 5 1.5 7.5 2.2 0.2 0.1 0.4 0.1 0.7 0.2 2.3 0.7 4.7 1.3 7.1 1.9 2.6 0.8 5.3 1.4 7.9 2.1 2.7 0.7 5.3 1.4 8.1 2 2.2 0.6 4.5 1.1 6.8 1.7l1.5 0.3c2.8 0.7 5.6 1.3 8.4 1.9l2.7 0.6c12.7 2.8 26.1 5.4 39.9 7.8 2.5 0.5 4.9 0.9 7.4 1.3 3.7 0.6 7.5 1.2 11.3 1.8 7.8 1.3 15.8 2.5 23.9 3.6 5.9 0.8 11.9 1.6 18 2.3 3.2 0.4 6.5 0.8 9.8 1.2 9.3 1.1 18.8 2.1 28.4 3 9.9 0.9 20.1 1.8 30.4 2.5 11.7 0.9 23.6 1.6 35.7 2.2 5 0.2 9.9 0.5 15 0.7 11.5 0.5 23.1 0.8 34.8 1 5.8 0.1 11.7 0.2 17.6 0.3 5.9 0 11.8 0.1 17.8 0.1 198.3 0.1 367.3-33.8 432.1-81.4z" fill="#8A278E" p-id="96201"></path><path d="M927.5 659.5c-21.6 21.4-54.7 41.4-97.4 58.2C791.3 733 746.6 745.3 698 754c-0.3-0.6-0.6-1.1-1-1.6-2.1-2.8-5.4-4.5-9-4.5H342c-3.6 0-7 1.7-9 4.6-0.6 0.9-1.1 1.8-1.4 2.7-51.3-8.8-98.3-21.4-139-37.5-48.3-19.1-84.2-42.1-105.2-66.6 28 17.2 65.3 30.2 99.2 39.4 87.9 23.8 204.5 36.9 328.4 36.9 123.9 0 240.5-13.1 328.4-36.9 28.1-7.7 58.6-17.9 84.1-31z" fill="#AAE0F9" p-id="96202"></path><path d="M925.2 535c-1.2-0.7-2.5-1.3-3.7-1.9 1.3 0.6 2.5 1.2 3.7 1.9zM911.3 528.2c-1.6-0.8-3.3-1.5-5-2.2 1.8 0.7 3.4 1.4 5 2.2z" fill="#00445D" p-id="96203"></path><path d="M909.9 561.5v0.6c0 3.6-0.6 7.1-1.7 10.6-21.9-6.5-50.3-12.3-84.6-17.3-8.2-1.2-16.7-2.3-25.4-3.4-0.4-3.8-0.8-7.6-1.4-11.4 45.1 5.4 83.9 12.4 113.1 20.9z" fill="#F39BC2" p-id="96204"></path><path d="M907.6 549.3c1.5 4 2.3 8.1 2.4 12.2-29.2-8.5-68-15.5-113-20.9-0.5-3.9-1.1-7.7-1.8-11.5 11 1.3 21.6 2.7 31.8 4.2 31.7 4.6 58.7 10 80.6 16z" fill="#F39BC2" p-id="96205"></path><path d="M899 535c3.8 4.6 6.7 9.4 8.5 14.2-21.8-6-48.8-11.3-80.6-16-10.2-1.5-20.8-2.9-31.8-4.2-1.5-8.8-3.5-17.5-5.9-26.1C833.5 512 870.6 523 899 535zM823.7 555.4c34.3 5 62.7 10.8 84.6 17.3-19.8 63.9-217.6 114.1-458.6 114.1-109.7 0-210.4-10.4-289.4-27.8-54.9-18.3-88.2-40.2-93.6-61.4 2.5-5 11.6-12.1 31.2-19.4 23.4-8.8 57.4-16.4 101.2-22.8 10.5-1.5 21.4-2.9 32.8-4.3-0.9 9.1-1.3 18.4-1.3 27.7 0 4.1 0.1 8.5 0.3 13.3 0.2 4.9 3.6 9 8.2 10.3 90.2 24.8 183.1 37.2 275.9 37.2 92.8 0 185.7-12.4 276-37.2 4.6-1.3 8-5.4 8.2-10.3 0.3-6.1 0.4-11.3 0.3-16.2-0.1-8-0.5-16-1.2-23.9 8.7 1.1 17.2 2.2 25.4 3.4z" fill="#F39BC2" p-id="96206"></path><path d="M873.4 513.4c10.8 7 19.5 14.2 25.6 21.6-28.5-12-65.6-23-109.8-32.1-1.2-4.1-2.4-8.2-3.7-12.3 32.9 6.6 62.5 14.2 87.9 22.8z" fill="#8A278E" p-id="96207"></path><path d="M877.1 514.6c-1.2-0.4-2.5-0.9-3.7-1.2 0 0-0.1 0-0.1-0.1 1.3 0.4 2.6 0.9 3.8 1.3z" fill="#00445D" p-id="96208"></path><path d="M788 591.5c0.2-4.5 0.3-9 0.3-13.5v-2c-0.1-8.6-0.6-17.1-1.5-25.4 3.8 0.5 7.7 0.9 11.4 1.4 0.7 7.9 1.1 15.9 1.2 23.9 0 4.9 0 10-0.3 16.2-0.2 4.8-3.6 9-8.2 10.3-90.3 24.8-183.1 37.2-276 37.2-92.8 0-185.6-12.4-275.9-37.2-4.6-1.2-8.1-5.4-8.2-10.3-0.2-4.8-0.3-9.1-0.3-13.3 0-9.3 0.4-18.5 1.3-27.7 3.7-0.4 7.5-0.9 11.3-1.3-1 9.5-1.5 19.2-1.5 28.9 0 4.3 0.1 8.5 0.3 12.7 84.3 23.2 170.8 35.4 257.5 36.7 39 0.6 78-1 116.9-4.9 1.3-0.1 2.6-0.2 3.8-0.4 9.9-1 19.8-2.1 29.7-3.5 7.3-1 14.6-2 21.9-3.2 15.3-2.3 30.6-5.1 45.9-8.1 23.7-4.6 47.1-10.1 70.4-16.5z" fill="#8A278E" p-id="96209"></path><path d="M796.9 540.6c0.6 3.8 1 7.6 1.4 11.4-3.7-0.5-7.6-0.9-11.4-1.4-0.4-3.8-0.9-7.6-1.4-11.4 3.8 0.4 7.6 0.9 11.4 1.4z" fill="#8A278E" p-id="96210"></path><path d="M795.1 529.1c0.7 3.8 1.3 7.6 1.8 11.5-3.8-0.5-7.6-0.9-11.5-1.4-0.6-3.8-1.2-7.7-1.9-11.5 3.9 0.5 7.8 1 11.6 1.4z" fill="#8A278E" p-id="96211"></path><path d="M789.2 503c2.4 8.6 4.4 17.3 5.9 26.1-3.8-0.4-7.7-0.9-11.6-1.3-1.8-9.3-4-18.3-6.7-27.2 4.2 0.7 8.4 1.5 12.4 2.4zM788.3 576v2c0 4.5-0.1 9-0.3 13.5-23.3 6.4-46.7 11.9-70.2 16.7-15.3 3.1-30.6 5.8-45.9 8.1-7.3 1.1-14.6 2.2-21.9 3.2-9.9 1.3-19.8 2.5-29.7 3.5-1.3 0.1-2.6 0.3-3.8 0.4-38.8 3.8-77.9 5.5-116.9 4.9-5.2-0.1-10.3-0.2-15.5-0.4 40.7-1.2 81.4-4.8 121.8-10.9 21.2-3.2 42.3-7 63.3-11.6 36.3-5.5 72.3-13 108-22.5v-6.8c-0.1-9-0.7-18-1.7-26.8 3.8 0.4 7.6 0.9 11.3 1.3 1 8.4 1.4 16.8 1.5 25.4z" fill="#8A278E" p-id="96212"></path><path d="M785.5 490.7c1.3 4.1 2.6 8.1 3.7 12.3-4.1-0.9-8.2-1.7-12.5-2.5-1.2-4.1-2.6-8.2-4-12.2 4.4 0.8 8.6 1.6 12.8 2.4zM785.4 539.2c0.6 3.8 1 7.6 1.4 11.4-3.7-0.4-7.5-0.9-11.3-1.3-0.4-3.8-0.9-7.6-1.6-11.4 4 0.5 7.7 0.9 11.5 1.3z" fill="#8A278E" p-id="96213"></path><path d="M783.5 527.8c0.8 3.8 1.4 7.6 1.9 11.5-3.8-0.4-7.6-0.9-11.5-1.3-0.6-3.8-1.3-7.6-2.1-11.4 4 0.3 7.9 0.7 11.7 1.2zM781.1 478.4c1.6 4.1 3 8.1 4.4 12.3-4.2-0.8-8.4-1.6-12.7-2.4-1.5-4.1-3-8.2-4.6-12.2 4.3 0.7 8.7 1.5 12.9 2.3z" fill="#8A278E" p-id="96214"></path><path d="M716.4 378.4c28.8 29 50.7 63 64.7 100-4.3-0.8-8.6-1.6-13-2.4-39.5-96.4-132.8-165.9-242-170.4v-11.2c71.8 2.9 139.1 32.6 190.3 84zM776.8 500.5c2.7 8.9 5 18 6.7 27.2-3.8-0.4-7.7-0.9-11.7-1.2-1.9-9.6-4.5-19-7.5-28.3 4.2 0.8 8.3 1.5 12.5 2.3z" fill="#8A278E" p-id="96215"></path><path d="M777.2 576.1v6.8c-35.6 9.5-71.7 17-108 22.5 19.1-4.1 38.1-8.8 56.9-13.9 0.2-5.1 0.4-10.3 0.3-15.5-0.1-10.6-0.8-21.1-2.1-31.4 17.8 1.4 34.9 3 51.2 4.7 1 8.9 1.6 17.8 1.7 26.8z" fill="#60B6DE" p-id="96216"></path><path d="M774 537.9c0.6 3.8 1.1 7.6 1.6 11.4-16.3-1.8-33.4-3.3-51.2-4.7-0.5-3.8-1-7.6-1.7-11.3 17.6 1.4 34.8 2.9 51.3 4.6z" fill="#60B6DE" p-id="96217"></path><path d="M772.8 488.3c1.4 4 2.8 8.1 4 12.2-4.1-0.8-8.2-1.6-12.5-2.3-1.3-4.1-2.7-8.2-4.4-12.2 4.4 0.8 8.7 1.5 12.9 2.3z" fill="#8A278E" p-id="96218"></path><path d="M771.8 526.5c0.8 3.8 1.5 7.6 2.1 11.4-16.4-1.7-33.6-3.3-51.3-4.6-0.6-3.8-1.3-7.6-2.2-11.4 17.9 1.4 35.1 2.9 51.4 4.6z" fill="#60B6DE" p-id="96219"></path><path d="M768.1 476.1c1.7 4 3.2 8.1 4.6 12.2-4.2-0.8-8.5-1.5-12.8-2.3-1.5-4.1-3.2-8.2-5-12.2 4.5 0.8 8.9 1.5 13.2 2.3z" fill="#8A278E" p-id="96220"></path><path d="M764.3 498.2c3.1 9.2 5.6 18.7 7.5 28.3-16.4-1.8-33.6-3.3-51.4-4.6-2.3-10.8-5.3-21.4-8.9-31.7 18.5 2.3 36.1 5 52.8 8z" fill="#60B6DE" p-id="96221"></path><path d="M768.1 476.1c-4.4-0.8-8.8-1.5-13.2-2.2-38.7-87.2-123.7-150.3-223-156.7-3.3-1-6.7-2-10.1-2.9 2.6-2 4.3-5.1 4.3-8.6 109.3 4.4 202.5 73.9 242 170.4z" fill="#8A278E" p-id="96222"></path><path d="M760 486c1.6 4 3 8.1 4.4 12.2-16.7-3-34.3-5.7-52.7-8.1-1.4-4-2.8-8-4.4-11.9 18.2 2.3 35.8 4.9 52.7 7.8z" fill="#60B6DE" p-id="96223"></path><path d="M754.9 473.8c1.8 4 3.5 8.1 5 12.2-16.9-2.9-34.5-5.5-52.8-7.8-1.6-4-3.3-8-5.1-11.9 18.2 2.2 35.9 4.7 52.9 7.5z" fill="#60B6DE" p-id="96224"></path><path d="M726.5 576c0.1 5.2-0.1 10.4-0.3 15.5-18.9 5.2-37.8 9.9-56.9 13.9-138.4 21.2-280.2 13.7-416.3-22.5v-4.1c0-10.1 0.6-20.2 1.7-30.2 73.8-7.6 162.7-11.7 256.8-11.7 76.1 0 148.8 2.7 212.9 7.8 1.3 10.2 2 20.7 2.1 31.3z" fill="#AAE0F9" p-id="96225"></path><path d="M722.6 533.3c0.7 3.7 1.2 7.5 1.7 11.3-64.1-5.1-136.8-7.8-212.9-7.8-94.1 0-183.1 4.1-256.8 11.7 0.4-3.8 0.9-7.6 1.6-11.4 137.4-13.8 320.4-15.1 466.4-3.8z" fill="#AAE0F9" p-id="96226"></path><path d="M720.4 521.9c0.9 3.8 1.6 7.6 2.2 11.4-146-11.3-329-10-466.5 3.9 0.6-3.8 1.3-7.7 2-11.5 73.4-7.3 160.9-11.3 253.2-11.3 74.5 0.1 145.9 2.6 209.1 7.5z" fill="#AAE0F9" p-id="96227"></path><path d="M711.6 490.1c3.6 10.3 6.6 20.9 8.9 31.7-63.3-4.8-134.6-7.4-209-7.4-92.3 0-179.9 3.9-253.2 11.3 1.9-9.3 4.3-18.5 7.2-27.5 69.6-12.4 154.4-20.2 249.6-20.2 72.1 0.1 138.4 4.6 196.5 12.1z" fill="#AAE0F9" p-id="96228"></path><path d="M707.2 478.3c1.6 3.9 3 7.9 4.4 11.9-58.1-7.6-124.4-12-196.6-12-95.2 0-180 7.8-249.6 20.2 1.3-4.1 2.7-8.1 4.3-12.2 71-12.2 155.2-19.2 245.4-19.2 68.5-0.1 133.6 4 192.1 11.3z" fill="#AAE0F9" p-id="96229"></path><path d="M532 317.2c99.2 6.4 184.3 69.5 223 156.7-17.1-2.8-34.7-5.3-52.9-7.5-32.4-71.1-94.5-126.3-170.1-149.2z" fill="#60B6DE" p-id="96230"></path><path d="M702.1 466.3c1.8 3.9 3.5 7.9 5.1 11.9-58.5-7.2-123.6-11.3-192.2-11.3-90.2 0-174.4 7-245.4 19.2 1.5-4.1 3.2-8.1 5-12.2 71.8-11.8 154.4-18.2 240.4-18.2 65.5 0.1 128.9 3.7 187.1 10.6z" fill="#AAE0F9" p-id="96231"></path><path d="M702.1 466.3c-58.2-6.9-121.6-10.6-187.1-10.6-86 0-168.6 6.3-240.4 18.2 13.2-30.3 32.2-58 56.4-81.9 49.2-48.5 113.9-75.2 182.8-75.5h5.1c4.4 0 8.7 0.2 13 0.5 75.7 23.1 137.8 78.3 170.2 149.3z" fill="#AAE0F9" p-id="96232"></path><path d="M698 754c1.3 2.5 1.6 5.4 0.8 8.2l-0.7 2.3c0 0.2-0.1 0.4-0.2 0.7-4.2 0.8-8.3 1.5-12.6 2.2 0.8-2 1.5-4 2.1-6.1l0.7-2.3H667c10.4-1.5 20.8-3.2 31-5z" fill="#8A278E" p-id="96233"></path><path d="M697 752.4c0.4 0.5 0.7 1 1 1.6-10.2 1.8-20.6 3.5-31.1 5h-311c-8.2-1.2-16.3-2.5-24.3-3.8 0.3-0.9 0.8-1.8 1.4-2.7 2.1-2.9 5.5-4.6 9-4.6h346c3.6 0 6.9 1.6 9 4.5z" fill="#AAE0F9" p-id="96234"></path><path d="M697.8 765.2c-1.2 4.2-2.9 8.3-4.9 12.3-4.6 0.8-9.3 1.5-13.9 2.2 2.5-4 4.5-8.1 6.2-12.4 4.3-0.6 8.4-1.3 12.6-2.1z" fill="#8A278E" p-id="96235"></path><path d="M679 779.7c4.6-0.7 9.3-1.5 13.9-2.2-10.8 22.4-31.9 42.3-60.6 57-33 16.8-74.6 26.1-117.2 26.1-82.5 0-152.8-33.1-177.3-81.8 4.6 0.8 9.3 1.5 14 2.1 25.8 40.7 90 68.5 163.2 68.5 74.1 0.1 138.8-28.3 164-69.7zM688 759l-0.7 2.3c-0.6 2-1.3 4.1-2.1 6.1-6 1-12 1.9-18.2 2.8H511.4v-0.4c54 0 106.4-3.7 155.5-10.8H688z" fill="#8A278E" p-id="96236"></path><path d="M671.9 616.3c15.3-2.4 30.6-5.1 45.9-8.1-15.3 3.1-30.6 5.8-45.9 8.1z" fill="#00445D" p-id="96237"></path><path d="M685.2 767.4c-1.7 4.3-3.7 8.4-6.2 12.4-5 0.8-10 1.5-15.1 2.2 3-3.8 5.6-7.7 7.8-11.7H667c6.2-1 12.2-1.9 18.2-2.9z" fill="#8A278E" p-id="96238"></path><path d="M667 770.2h4.6c-2.1 4-4.7 8-7.8 11.7-48.4 6.7-99.8 10.2-152.5 10.2-49.7 0-98.3-3.1-144.3-9-3.3-4-6.1-8.1-8.4-12.5 47.7 6.7 99.1 10.3 152.7 10.3 54.8 0 107.2-3.8 155.7-10.7z" fill="#8A278E" p-id="96239"></path><path d="M663.9 781.9c5.1-0.7 10.1-1.4 15.1-2.2-25.2 41.4-90 69.7-163.9 69.7-73.2 0-137.5-27.8-163.2-68.5 5 0.8 10.1 1.5 15.3 2.1 26.8 33.1 83.8 55.2 148 55.2 39.1 0 77.2-8.4 107-23.7 17.7-9 31.9-20.2 41.7-32.6z" fill="#8A278E" p-id="96240"></path><path d="M511.4 770.2H667c-48.6 7-100.9 10.8-155.6 10.8-53.5 0-104.9-3.6-152.7-10.3-0.1-0.1-0.1-0.3-0.2-0.4h152.9z" fill="#8A278E" p-id="96241"></path><path d="M355.9 759h311c-49.1 7.1-101.6 10.8-155.5 10.8S405 766.1 355.9 759z" fill="#AAE0F9" p-id="96242"></path><path d="M663.9 781.9c-9.8 12.4-24 23.5-41.8 32.7-29.8 15.3-67.9 23.7-107 23.7-64.1 0-121.2-22.2-148-55.2 46 5.9 94.5 9 144.3 9 52.7 0 104.1-3.5 152.5-10.2z" fill="#F39BC2" p-id="96243"></path><path d="M620.3 623c9.9-1 19.8-2.2 29.7-3.5-9.9 1.3-19.8 2.5-29.7 3.5z" fill="#00445D" p-id="96244"></path><path d="M669.2 605.4c-21 4.5-42.1 8.4-63.3 11.6-40.4 6.1-81.1 9.7-121.8 10.9 5.2 0.2 10.3 0.3 15.5 0.4-86.7-1.3-173.2-13.5-257.5-36.7-0.2-4.2-0.3-8.5-0.3-12.7 0-9.8 0.5-19.4 1.5-28.9 3.7-0.4 7.5-0.8 11.4-1.2-1.1 9.9-1.7 20-1.7 30.2v4.1c136 36 277.8 43.6 416.2 22.3zM515 159.6c24.3 0 44.1 19.8 44.1 44.1 0 20.4-14 37.7-32.9 42.6v-1.5c0-3.6-1.7-6.8-4.4-8.9 14.9-3.1 26.1-16.3 26.1-32.2 0-18.1-14.7-32.9-32.9-32.9-18.1 0-32.9 14.7-32.9 32.9 0 15.9 11.2 29.1 26.1 32.3-2.7 2-4.4 5.2-4.4 8.9v1.5c-18.9-4.9-32.9-22.2-32.9-42.6 0.1-24.4 19.9-44.2 44.1-44.2z" fill="#8A278E" p-id="96245"></path><path d="M515 170.8c18.2 0 32.9 14.7 32.9 32.9 0 15.9-11.2 29.1-26.1 32.2-1.8-1.4-4.2-2.3-6.8-2.3-2.5 0-4.9 0.9-6.7 2.3-14.9-3.1-26.1-16.4-26.1-32.3-0.1-18.1 14.7-32.8 32.8-32.8z m21.8 32.9c0-12-9.8-21.7-21.7-21.7-11.9 0-21.7 9.7-21.7 21.7s9.8 21.7 21.7 21.7c11.9 0 21.7-9.8 21.7-21.7z" fill="#8A278E" p-id="96246"></path><path d="M499.6 628.3c39 0.6 78.1-1.1 116.9-4.9-38.9 3.8-77.9 5.5-116.9 4.9z" fill="#00445D" p-id="96247"></path><path d="M515 182c12 0 21.7 9.7 21.7 21.7s-9.8 21.7-21.7 21.7c-11.9 0-21.7-9.8-21.7-21.7S503.1 182 515 182z" fill="#FFE296" p-id="96248"></path><path d="M521.9 314.3c3.4 0.9 6.8 1.8 10.1 2.9-4.3-0.3-8.6-0.5-13-0.5h-2.8c2.1-0.4 4.1-1.2 5.7-2.4zM526.2 294.5v11.2c-2.3-0.1-4.6-0.1-7-0.2H508c-1.4 0-2.7 0.1-4.1 0.1v-11.2c3.7-0.2 7.4-0.2 11.1-0.2h4.3c2.3 0.2 4.6 0.2 6.9 0.3z" fill="#8A278E" p-id="96249"></path><path d="M526.2 246.3v48.2c-2.3-0.1-4.6-0.1-6.9-0.2H515c-3.7 0-7.4 0-11.1 0.2v-48.2c3.6 0.9 7.3 1.4 11.1 1.4 3.9 0 7.6-0.5 11.2-1.4z" fill="#8A278E" p-id="96250"></path><path d="M526.2 244.8v1.5c-3.6 0.9-7.3 1.4-11.2 1.4-3.8 0-7.6-0.5-11.1-1.4v-1.5c0-3.6 1.7-6.9 4.4-8.9 2.2 0.4 4.4 0.7 6.7 0.7s4.6-0.2 6.8-0.7c2.7 2.1 4.4 5.3 4.4 8.9zM519.2 305.5c2.4 0 4.7 0.1 7 0.2 0 3.5-1.7 6.6-4.3 8.6-5.5-1.4-11.2-2.7-16.9-3.8-0.7-1.4-1.1-3-1.1-4.7 1.4 0 2.7-0.1 4.1-0.1 3.7-0.2 7.4-0.2 11.2-0.2z" fill="#8A278E" p-id="96251"></path><path d="M521.8 235.9c-2.2 0.5-4.5 0.7-6.8 0.7s-4.5-0.2-6.7-0.7c1.8-1.5 4.2-2.3 6.7-2.3 2.6 0 4.9 0.8 6.8 2.3zM521.9 314.3c-1.6 1.3-3.6 2.1-5.7 2.3h-2.3c-3.9-0.4-7.2-2.8-8.9-6.2 5.7 1.2 11.3 2.4 16.9 3.9z" fill="#8A278E" p-id="96252"></path><path d="M515.9 316.6h-1.8 1.8z" fill="#00445D" p-id="96253"></path><path d="M511.4 769.8v0.4H358.5c0.1 0.1 0.1 0.3 0.2 0.4-4.5-0.7-8.9-1.3-13.3-1.9-0.8-1.7-1.4-3.5-2-5.3L342 759h13.9c49.1 7.1 101.6 10.8 155.5 10.8z" fill="#8A278E" p-id="96254"></path><path d="M508 305.5c-1.4 0-2.7 0.1-4.1 0.1 1.3 0 2.7 0 4.1-0.1z" fill="#00445D" p-id="96255"></path><path d="M505 310.4c1.7 3.4 5 5.7 8.9 6.2-69 0.3-133.7 27-182.8 75.5-24.3 23.9-43.2 51.6-56.4 81.9-4.4 0.7-8.7 1.4-13 2.2 36.9-90.9 121.2-157.5 222.3-168.9 7.1 0.7 14.1 1.8 21 3.1z" fill="#8A278E" p-id="96256"></path><path d="M503.9 305.7c0 1.7 0.4 3.3 1.1 4.7-6.9-1.3-13.9-2.4-21-3.2 3.6-0.4 7.2-0.8 10.8-1 3-0.2 6.1-0.4 9.1-0.5z" fill="#8A278E" p-id="96257"></path><path d="M503.9 305.5v0.2c-3.1 0.1-6.1 0.3-9.1 0.5-3.6 0.2-7.2 0.6-10.8 1-101.1 11.4-185.5 78-222.3 168.9-4.4 0.8-8.7 1.6-13 2.4 14.3-38.1 36.9-72.9 66.7-102.4 51-50.3 117.5-78.9 188.5-81.6v11z" fill="#8A278E" p-id="96258"></path><path d="M503.9 305.7c-3 0.1-6.1 0.3-9.1 0.5 3-0.2 6-0.4 9.1-0.5zM479.7 715.8zM429.9 714c5 0.2 9.9 0.5 15 0.7-5-0.2-10-0.5-15-0.7zM363.8 709.3c10 0.9 20.1 1.8 30.4 2.5-10.3-0.8-20.4-1.6-30.4-2.5z" fill="#00445D" p-id="96259"></path><path d="M358.7 770.6c2.3 4.3 5.1 8.5 8.4 12.5l-15.3-2.1c-2.5-4-4.7-8.1-6.4-12.3 4.5 0.6 8.9 1.2 13.3 1.9zM355.9 759H342l1.5 4.4c0.6 1.8 1.2 3.6 2 5.3-4.3-0.7-8.5-1.4-12.7-2.1l-1.3-4c-0.8-2.4-0.8-5 0.1-7.4 8 1.3 16.1 2.6 24.3 3.8z" fill="#8A278E" p-id="96260"></path><path d="M345.5 768.7c1.7 4.2 3.9 8.3 6.4 12.3-4.7-0.7-9.4-1.4-14-2.1-2-3.9-3.6-7.8-5-11.9l-0.1-0.3c4.2 0.6 8.4 1.3 12.7 2z" fill="#8A278E" p-id="96261"></path><path d="M337.9 778.8c-56.7-9.1-108.8-22.7-153.4-40.4-90.8-35.9-140.8-84.9-140.8-138 0-1.3 0.1-2.6 0.3-3.8 1.3 12.4 7.5 23.6 17.1 33.7C87 691.9 191.7 742.9 332.8 766.6l0.1 0.3c1.3 4.1 3 8 5 11.9z" fill="#8A278E" p-id="96262"></path><path d="M325.6 705.1c3.2 0.4 6.5 0.8 9.8 1.2-3.3-0.4-6.5-0.8-9.8-1.2z" fill="#00445D" p-id="96263"></path><path d="M331.5 762.6l1.3 4C191.7 742.9 87 691.9 61.1 630.3c7.2 7.5 16.1 14.4 26.3 20.7 21 24.6 56.9 47.6 105.2 66.6 40.6 16.1 87.7 28.7 139 37.5-0.9 2.4-0.9 5-0.1 7.5z" fill="#8A278E" p-id="96264"></path><path d="M325.6 705.1c-6.1-0.7-12.1-1.5-18-2.3 5.9 0.8 11.9 1.6 18 2.3zM272.4 697.4c3.7 0.6 7.5 1.2 11.3 1.8-3.8-0.5-7.6-1.2-11.3-1.8z" fill="#00445D" p-id="96265"></path><path d="M274.6 473.9c-1.8 4-3.5 8.1-5 12.2-4.3 0.7-8.5 1.5-12.6 2.2 1.4-4.1 2.9-8.2 4.6-12.2 4.3-0.7 8.7-1.5 13-2.2z" fill="#8A278E" p-id="96266"></path><path d="M269.6 486.1c-1.5 4-2.9 8.1-4.3 12.2-4.2 0.7-8.2 1.5-12.3 2.3 1.2-4.1 2.5-8.2 4-12.2 4.2-0.8 8.4-1.6 12.6-2.3z" fill="#8A278E" p-id="96267"></path><path d="M265 696.1c-13.9-2.4-27.2-5-39.9-7.8 12.7 2.8 26 5.4 39.9 7.8z" fill="#00445D" p-id="96268"></path><path d="M265.4 498.3c-2.9 9-5.3 18.1-7.2 27.5-3.9 0.4-7.8 0.8-11.6 1.2 1.7-9 3.8-17.8 6.4-26.4 4.1-0.8 8.2-1.6 12.4-2.3zM261.6 476.1c-1.7 4-3.2 8.1-4.6 12.2-4.3 0.8-8.5 1.6-12.6 2.4 1.3-4.1 2.7-8.2 4.3-12.3 4.2-0.7 8.6-1.5 12.9-2.3z" fill="#8A278E" p-id="96269"></path><path d="M258.2 525.8c-0.8 3.8-1.5 7.6-2 11.5-3.9 0.4-7.7 0.8-11.5 1.2 0.6-3.8 1.2-7.7 2-11.5 3.7-0.4 7.6-0.9 11.5-1.2z" fill="#8A278E" p-id="96270"></path><path d="M256.1 537.2c-0.6 3.7-1.1 7.6-1.6 11.4l-11.4 1.2c0.4-3.8 0.9-7.6 1.4-11.4 3.9-0.4 7.8-0.8 11.6-1.2zM257 488.3c-1.5 4-2.7 8.1-4 12.2-4.2 0.8-8.3 1.6-12.3 2.4 1.1-4.1 2.3-8.2 3.6-12.2 4.3-0.8 8.5-1.6 12.7-2.4zM240.8 503c4-0.8 8.1-1.6 12.3-2.4-2.6 8.6-4.7 17.4-6.4 26.4-3.9 0.4-7.8 0.9-11.6 1.3 1.4-8.6 3.3-17 5.7-25.3z" fill="#8A278E" p-id="96271"></path><path d="M248.7 478.5c-1.6 4.1-3 8.1-4.3 12.3-97.2 19.1-165.6 48.4-184.4 82-9.6 7.2-14.9 15.1-16.1 23.8-0.2-1.7-0.3-3.3-0.3-5 0-49.7 77.8-81.2 143-98.9 19.4-5.3 40.2-10 62.1-14.2zM246.6 526.9c-0.8 3.8-1.4 7.6-2 11.5-3.8 0.4-7.7 0.9-11.4 1.3 0.5-3.8 1.1-7.6 1.8-11.4 3.9-0.5 7.7-0.9 11.6-1.4z" fill="#8A278E" p-id="96272"></path><path d="M244.6 538.4c-0.5 3.8-1 7.6-1.4 11.4-3.8 0.4-7.6 0.9-11.3 1.3 0.3-3.8 0.8-7.6 1.3-11.4 3.8-0.4 7.6-0.9 11.4-1.3zM244.4 490.8a131 131 0 0 0-3.6 12.2c-70.7 14.5-123.1 33.9-151.3 54.6-12.4 4.6-22.1 9.7-29.5 15.2 18.8-33.7 87.2-62.9 184.4-82z" fill="#8A278E" p-id="96273"></path><path d="M240.8 503c-2.3 8.3-4.2 16.7-5.7 25.3-13.6 1.5-26.7 3.2-39.1 5-45.3 6.6-80.9 14.7-105.8 24-0.2 0.1-0.5 0.2-0.7 0.3 28.1-20.7 80.6-40.1 151.3-54.6z" fill="#F39BC2" p-id="96274"></path><path d="M235 528.3c-0.7 3.8-1.3 7.6-1.8 11.4-78.1 9.1-138.6 22.6-164.6 40.5 3.6-7.6 10.6-15.2 20.8-22.6 0.2-0.1 0.4-0.2 0.7-0.3 24.9-9.3 60.4-17.3 105.8-24 12.4-1.8 25.5-3.5 39.1-5z" fill="#F39BC2" p-id="96275"></path><path d="M233.2 539.7c-0.5 3.8-1 7.6-1.3 11.4-11.4 1.4-22.3 2.8-32.8 4.3-43.8 6.3-77.8 14-101.2 22.8-19.6 7.3-28.7 14.4-31.2 19.4-0.5-2-0.8-4-0.8-6.1 0-3.8 0.9-7.6 2.7-11.4 26.1-17.8 86.6-31.3 164.6-40.4z" fill="#F39BC2" p-id="96276"></path><path d="M213.8 685.7c2.8 0.7 5.6 1.3 8.4 1.9-2.8-0.5-5.6-1.2-8.4-1.9zM205.6 683.7c2.3 0.6 4.5 1.1 6.8 1.7-2.3-0.5-4.6-1.1-6.8-1.7zM197.5 681.7c2.7 0.7 5.4 1.4 8.1 2-2.8-0.6-5.4-1.3-8.1-2zM189.6 679.6c2.6 0.7 5.3 1.4 7.9 2.1-2.6-0.7-5.3-1.3-7.9-2.1zM182.5 677.7c2.3 0.7 4.7 1.3 7.1 1.9-2.4-0.6-4.7-1.3-7.1-1.9zM174.3 675.3c2.5 0.7 5 1.5 7.5 2.2-2.5-0.7-5-1.4-7.5-2.2zM153 668.4c6.8 2.4 14 4.6 21.4 6.9-7.5-2.2-14.6-4.5-21.4-6.9zM140.3 663.9c3.2 1.2 6.5 2.4 9.9 3.6-3.4-1.2-6.6-2.4-9.9-3.6zM133.4 661.2c2 0.8 4.2 1.7 6.3 2.5-2.1-0.9-4.2-1.7-6.3-2.5zM122 656.4c1.7 0.8 3.5 1.5 5.3 2.3-1.8-0.8-3.5-1.5-5.3-2.3zM103 647.1c0.9 0.5 1.8 1 2.8 1.5-1-0.5-1.9-1.1-2.8-1.5zM98.4 644.5c1 0.6 2 1.2 3.1 1.8-1.1-0.6-2.1-1.2-3.1-1.8z" fill="#00445D" p-id="96277"></path><path d="M160.3 659c-25.3-5.5-48.3-11.8-68.8-18.7-8.3-5.3-15.3-10.7-20.9-16.3-3.1-7.8-4.6-15.7-4.6-23.6 0-0.9 0.2-1.8 0.8-2.8 5.3 21.2 38.7 43.1 93.5 61.4z" fill="#8A278E" p-id="96278"></path><path d="M70.6 624c3.6 9.1 9.2 18.2 16.8 27-10.2-6.3-19.2-13.2-26.3-20.7-4.2-9.7-6.3-19.7-6.3-29.9 0-1.2 0.1-2.4 0.5-3.6 1.3 9.4 6.6 18.5 15.3 27.2z" fill="#8A278E" p-id="96279"></path><path d="M89.5 557.5c-10.2 7.4-17.2 15.1-20.8 22.6-7.5 5.2-12.2 10.8-13.4 16.7-0.3-1.8-0.5-3.5-0.5-5.3 0-6.4 1.8-12.6 5.2-18.8 7.3-5.5 17.1-10.5 29.5-15.2z" fill="#8A278E" p-id="96280"></path><path d="M68.7 580.2c-1.8 3.8-2.7 7.6-2.7 11.4 0 2 0.3 4 0.8 6.1-0.6 1-0.8 1.9-0.8 2.8 0 7.9 1.6 15.8 4.6 23.6-8.7-8.7-14-17.8-15.3-27.1 1.2-6.1 5.8-11.6 13.4-16.8z" fill="#8A278E" p-id="96281"></path><path d="M43.9 596.6c1.1-8.8 6.5-16.7 16.1-23.8-3.5 6.2-5.2 12.4-5.2 18.8 0 1.8 0.1 3.6 0.5 5.3-0.3 1.2-0.5 2.4-0.5 3.6 0 10.2 2.1 20.2 6.3 29.9-9.6-10.2-15.8-21.4-17.2-33.8z" fill="#8A278E" p-id="96282"></path></svg>