<?xml version="1.0" standalone="no"?><!DOCTYPE svg PUBLIC "-//W3C//DTD SVG 1.1//EN" "http://www.w3.org/Graphics/SVG/1.1/DTD/svg11.dtd"><svg t="1649680382839" class="icon" viewBox="0 0 1024 1024" version="1.1" xmlns="http://www.w3.org/2000/svg" p-id="1798" xmlns:xlink="http://www.w3.org/1999/xlink" width="200" height="200"><defs><style type="text/css">@font-face { font-family: "feedback-iconfont"; src: url("//at.alicdn.com/t/font_1031158_u69w8yhxdu.woff2?t=1630033759944") format("woff2"), url("//at.alicdn.com/t/font_1031158_u69w8yhxdu.woff?t=1630033759944") format("woff"), url("//at.alicdn.com/t/font_1031158_u69w8yhxdu.ttf?t=1630033759944") format("truetype"); }
</style></defs><path d="M242.190444 379.978634C276.270505 474.814843 375.461992 526.098257 463.765281 494.4136s132.400493-134.360368 97.993786-228.652167c-34.080061-94.836208-133.271548-146.010741-221.574838-114.217201S207.892619 285.142426 242.190444 379.978634z" fill="#9648EB" p-id="1799"></path><path d="M549.564284 361.686461c29.833664 82.968072 116.830369 127.609685 194.354342 99.84478s116.285959-117.701425 87.105587-200.669497c-29.724782-82.968072-116.830369-127.609685-194.354341-99.844779s-116.939251 117.592543-87.105588 200.560614z" fill="#926BFF" p-id="1800"></path><path d="M620.990866 540.252915a149.386082 149.386082 0 0 0 280.915519-100.824717 149.386082 149.386082 0 0 0-280.915519 100.824717z" fill="#926BFF" p-id="1801"></path><path d="M621.644158 591.754093c43.552794 38.761986 116.394841 15.679006 152.434778-37.564284s29.942546-127.718567-13.936894-166.371672c-24.825092-21.776397-57.816334-28.418198-91.896395-30.922483-61.409439-12.194782-119.770182 23.409627-134.46925 95.380618s23.954036 140.131113 85.363475 152.434778z" fill="#8134F2" p-id="1802"></path><path d="M290.534044 933.207995a140.566641 140.566641 0 0 0 181.179622 81.661488 140.457759 140.457759 0 0 0 87.758879-178.239807 140.566641 140.566641 0 0 0-181.179621-81.661488 140.566641 140.566641 0 0 0-87.75888 178.239807z" fill="#6F52E8" p-id="1803"></path><path d="M556.314968 817.466446c-30.813601-44.423849-23.518509 58.142979-99.409252 112.692854s-150.801548 10.888198-119.770182 55.529812 101.042481 48.996893 156.898939 10.234906S586.910805 861.890296 556.314968 817.466446z" fill="#702AD6" p-id="1804"></path><path d="M484.343976 754.53266c29.398136 81.77037 122.165586 123.363288 206.87577 92.76745s130.658381-121.730058 100.824717-203.500428-122.274468-123.363288-206.87577-92.767451-130.658381 121.621176-100.824717 203.500429z" fill="#7E51FF" p-id="1805"></path><path d="M799.55732 671.455706c-7.077329-55.747576-28.853726 51.392296-128.589623 88.847699s-173.340119-21.776397-154.394654 31.466893 102.240183 81.661488 175.082231 55.529812a165.936144 165.936144 0 0 0 107.902046-175.844404z" fill="#702AD6" p-id="1806"></path><path d="M208.437028 725.352288a147.535088 147.535088 0 0 0 190.107945 85.799003 145.030803 145.030803 0 1 0-97.993786-272.858252 147.426206 147.426206 0 0 0-92.114159 187.059249z" fill="#9648EB" p-id="1807"></path><path d="M474.544597 751.375082c18.292173-44.750495-65.32919 30.378074-156.790057-5.661863S199.18206 627.467384 200.053116 675.810985A154.939063 154.939063 0 0 0 294.998206 815.615453c66.200246 27.002732 161.254218-19.163229 179.546391-64.240371z" fill="#874DE2" p-id="1808"></path><path d="M615.764531 561.92043a154.068007 154.068007 0 0 0 289.843841-103.982295 154.068007 154.068007 0 0 0-289.952723 103.982295z" fill="#926BFF" p-id="1809"></path><path d="M887.533963 582.825771c14.154658-56.074222-58.469625 21.014223-147.317324-3.484224s-112.366208-121.947822-126.411984-65.32919 35.931055 122.709996 100.062543 141.546579 159.620989-16.223416 174.211175-72.297637z" fill="#7B5DE8" p-id="1810"></path><path d="M118.827156 520.980804a158.205523 158.205523 0 0 0 204.044838 91.787512 158.314405 158.314405 0 0 0 98.973723-200.669496 158.314405 158.314405 0 0 0-204.044838-91.787513A158.205523 158.205523 0 0 0 118.827156 520.980804z" fill="#926BFF" p-id="1811"></path><path d="M122.529143 525.989375c15.461242 58.905153 107.139872 113.563909 176.388814 95.380618s134.142604-75.455215 118.572481-134.360368-90.916457 31.249129-160.056517 49.432421-150.474902-69.357824-134.904778-10.452671z" fill="#8134F2" p-id="1812"></path><path d="M319.496652 496.809003a172.686827 172.686827 0 0 0 222.554776 100.498072 172.904591 172.904591 0 0 0 107.793164-219.288316 172.795709 172.795709 0 0 0-222.663658-100.498072 172.686827 172.686827 0 0 0-107.684282 219.288316z" fill="#A788FF" p-id="1813"></path><path d="M602.698693 309.205345c32.664595 97.993786-8.928323 163.322976-66.418011 200.34285s-126.303101 40.939626-206.875769 11.650373c53.352172 91.025339 166.8072 113.346145 259.57465 51.06565s89.500991-198.056329 13.71913-263.058873z" fill="#926BFF" p-id="1814"></path><path d="M495.01441 91.223613q-51.718942-66.744656-150.148256-77.306209a2.395404 2.395404 0 0 0-2.613167 2.068758q-14.372422 97.993786 37.237638 164.738442t150.148256 77.197326a2.395404 2.395404 0 0 0 2.613168-1.959875q14.590186-98.21155-37.237639-164.738442z" fill="#8CCA01" p-id="1815"></path><path d="M535.300745 270.770004a13.828012 13.828012 0 0 1-7.295093 0.871056c-69.248942-7.403975-122.92776-35.059999-159.620989-82.423662s-50.085713-106.377698-39.850806-175.299994A16.223416 16.223416 0 0 1 346.28162 0.089392C415.639444 7.602249 469.20938 35.258273 505.902609 82.621936S556.314968 188.999634 545.426769 257.92193a15.461242 15.461242 0 0 1-10.888198 12.848074zM354.447769 29.160882c-6.206273 56.945278 5.552981 103.873413 35.931055 142.962045s72.842047 62.389377 129.460679 70.555526c6.315155-56.945278-5.552981-103.873413-35.822173-142.962045s-72.842047-62.389377-129.569561-70.555526z" fill="#8CCA01" p-id="1816"></path><path d="M535.300745 270.770004h-1.524348c-7.512857 1.415466-15.89677-5.552981-18.727701-15.679005a254.892725 254.892725 0 0 0-27.98267-69.031178 675.068301 675.068301 0 0 0-56.50975-70.011116 23.191863 23.191863 0 0 1-3.593106-26.131676c4.573043-6.968447 13.610248-6.641801 20.143168 0.762174a700.002275 700.002275 0 0 1 60.756147 76.217389A299.316574 299.316574 0 0 1 542.486956 250.517955a16.550062 16.550062 0 0 1-7.186211 20.687577z" fill="#7CB500" p-id="1817"></path><path d="M394.080811 424.075838c-10.888198-7.730621 1.850994-46.601489 10.888199-60.647265a28.200434 28.200434 0 0 1 37.782048-11.54149 28.091552 28.091552 0 0 1 3.048696 39.306396c-9.254969 14.154658-40.504098 40.61298-51.718943 32.882359z m-10.888198 44.423849a9.037205 9.037205 0 0 1-11.432608-5.552981 9.037205 9.037205 0 0 1 5.335217-11.54149 9.037205 9.037205 0 0 1 6.532919 16.876708zM164.884235 437.794968c-8.275031-5.661863 1.415466-34.188943 8.492795-44.423849a20.687577 20.687577 0 0 1 27.656024-8.601677 20.578695 20.578695 0 0 1 2.177639 29.07149c-6.968447 9.908261-30.051428 29.398136-38.326458 23.954036z m-7.295093 32.664595a6.641801 6.641801 0 0 1-8.383913-4.028633 6.532919 6.532919 0 1 1 12.303664-4.464162 6.750683 6.750683 0 0 1-3.919751 8.166149zM257.542803 715.335145c-9.037205-4.028633-4.573043-33.971179 0-45.294905a20.469813 20.469813 0 0 1 26.567204-13.065838 20.687577 20.687577 0 0 1 7.186211 27.98267c-5.444099 11.105962-24.825092 34.406707-33.753415 30.378073z m-1.524348 32.664596a6.424037 6.424037 0 0 1-8.928322-2.504286 6.641801 6.641801 0 0 1 2.286521-8.928323 6.532919 6.532919 0 0 1 8.928323 2.504286 6.641801 6.641801 0 0 1-2.286522 9.36385z m297.247817-14.26354c-9.037205-4.028633-4.464161-33.862297 0.653292-45.186024a20.578695 20.578695 0 0 1 25.696148-13.17472 20.796459 20.796459 0 0 1 7.186211 27.98267c-5.117453 10.888198-24.389564 34.624471-33.535651 30.378074z m-1.63323 32.664595a6.315155 6.315155 0 0 1-8.819441-2.395404 6.641801 6.641801 0 0 1 2.286522-9.037204 6.532919 6.532919 0 0 1 8.928323 2.504285 6.315155 6.315155 0 0 1-2.395404 9.908261zM355.972117 911.213835c-9.037205-4.028633-4.464161-33.862297 0.653292-45.186024A20.578695 20.578695 0 0 1 382.103793 852.853091a20.796459 20.796459 0 0 1 7.186211 27.98267c-5.226335 10.888198-24.389564 34.624471-33.535651 30.378074z m-1.524348 33.317887a6.424037 6.424037 0 0 1-8.928323-2.395404 6.750683 6.750683 0 0 1 2.286522-9.037205 6.641801 6.641801 0 0 1 6.641801 10.888199zM726.061981 484.940867c-9.037205-4.028633-4.464161-33.971179 0.653292-45.294905a18.509937 18.509937 0 1 1 32.664595 14.916832c-4.899689 11.432608-24.1718 34.515589-33.317887 30.378073z m-1.524348 32.664595a6.315155 6.315155 0 0 1-8.819441-2.504285 6.641801 6.641801 0 0 1 2.286522-8.928323 6.532919 6.532919 0 0 1 6.532919 10.888198zM315.576901 249.10249c-9.037205-4.028633-4.464161-33.971179 0.653292-45.294906a20.578695 20.578695 0 0 1 25.696148-13.17472 21.014223 21.014223 0 0 1 7.512857 28.091552c-5.552981 11.323726-24.71621 34.515589-33.862297 30.378074z m-1.524348 33.317887a6.532919 6.532919 0 0 1-8.928323-2.504286 6.750683 6.750683 0 0 1 2.286522-9.037205 6.641801 6.641801 0 0 1 6.641801 11.541491z" fill="#FFFFFF" p-id="1818"></path><path d="M574.607141 259.337396a20.034285 20.034285 0 0 1-31.79354-24.498446 103.546767 103.546767 0 0 0 19.70764-51.392297c1.524348-13.17472-2.504286-39.415278-29.942546-90.698692a20.034285 20.034285 0 0 1 35.277763-19.054348c26.567204 49.323539 37.782048 87.105587 34.624471 114.543848a145.901859 145.901859 0 0 1-27.43826 70.882171z" fill="#99520B" p-id="1819"></path><path d="M663.563722 289.606588Q606.40068 301.692488 549.782048 263.039384a1.63323 1.63323 0 0 1 0-2.17764 145.030803 145.030803 0 0 1 93.638507-69.902234q56.727514-12.0859 113.346145 26.89385a1.63323 1.63323 0 0 1 0 2.17764q-36.475465 57.925216-93.638506 69.902234z" fill="#8CCA01" p-id="1820"></path><path d="M704.61223 294.070749a180.090802 180.090802 0 0 1-19.707639 5.552981 158.205523 158.205523 0 0 1-124.343226-28.744844A15.243478 15.243478 0 0 1 556.314968 249.429136a152.434778 152.434778 0 0 1 227.018936-47.472545 15.35236 15.35236 0 0 1 4.35528 21.123104A164.302914 164.302914 0 0 1 704.61223 294.070749z m-118.136953-39.959688a122.818878 122.818878 0 0 0 170.835833-35.713291 122.709996 122.709996 0 0 0-170.835833 35.713291z" fill="#8CCA01" p-id="1821"></path></svg>