<?xml version="1.0" standalone="no"?><!DOCTYPE svg PUBLIC "-//W3C//DTD SVG 1.1//EN" "http://www.w3.org/Graphics/SVG/1.1/DTD/svg11.dtd"><svg t="1649681418089" class="icon" viewBox="0 0 1024 1024" version="1.1" xmlns="http://www.w3.org/2000/svg" p-id="129151" xmlns:xlink="http://www.w3.org/1999/xlink" width="200" height="200"><defs><style type="text/css">@font-face { font-family: "feedback-iconfont"; src: url("//at.alicdn.com/t/font_1031158_u69w8yhxdu.woff2?t=1630033759944") format("woff2"), url("//at.alicdn.com/t/font_1031158_u69w8yhxdu.woff?t=1630033759944") format("woff"), url("//at.alicdn.com/t/font_1031158_u69w8yhxdu.ttf?t=1630033759944") format("truetype"); }
</style></defs><path d="M511.28 513.22m-448.47 0a448.47 448.47 0 1 0 896.94 0 448.47 448.47 0 1 0-896.94 0Z" fill="#2161AD" p-id="129152"></path><path d="M785.8 482.87s-3.25-81.77-11.86-140.08c-8.61-58.3-32.87-156.91-32.87-156.91l-93.75 162.65L785.8 482.87z" fill="#A497A1" p-id="129153"></path><path d="M765.59 463.7s-1.85-46.56-6.75-79.76-18.72-89.34-18.72-89.34l-53.38 92.61 78.85 76.49z" fill="#695968" p-id="129154"></path><path d="M237.15 482.87s3.25-81.77 11.86-140.08c8.61-58.3 32.87-156.91 32.87-156.91l93.75 162.65-138.48 134.34z" fill="#A497A1" p-id="129155"></path><path d="M257.37 463.7s1.85-46.56 6.75-79.76 18.72-89.34 18.72-89.34l53.38 92.61-78.85 76.49z" fill="#695968" p-id="129156"></path><path d="M221.99 560.72a289.24 243.85 0 1 0 578.48 0 289.24 243.85 0 1 0-578.48 0Z" fill="#A497A1" p-id="129157"></path><path d="M379.11 562.17m-51.57 0a51.57 51.57 0 1 0 103.14 0 51.57 51.57 0 1 0-103.14 0Z" fill="#FFFFFF" p-id="129158"></path><path d="M379.11 562.17m-35.75 0a35.75 35.75 0 1 0 71.5 0 35.75 35.75 0 1 0-71.5 0Z" fill="#DEA614" p-id="129159"></path><path d="M391.4 548.43m-12.29 0a12.29 12.29 0 1 0 24.58 0 12.29 12.29 0 1 0-24.58 0Z" fill="#FFFFFF" p-id="129160"></path><path d="M644.92 562.17m-51.57 0a51.57 51.57 0 1 0 103.14 0 51.57 51.57 0 1 0-103.14 0Z" fill="#FFFFFF" p-id="129161"></path><path d="M644.92 562.17m-35.75 0a35.75 35.75 0 1 0 71.5 0 35.75 35.75 0 1 0-71.5 0Z" fill="#DEA614" p-id="129162"></path><path d="M659.31 548.43m-12.29 0a12.29 12.29 0 1 0 24.58 0 12.29 12.29 0 1 0-24.58 0Z" fill="#FFFFFF" p-id="129163"></path><path d="M483.49 634.62c0.01-8.26 55.69-6.98 55.86-0.01 0.32 13.04-18.55 31.5-28.31 31.54-9.71 0.05-27.56-17.25-27.55-31.53z" fill="#371E19" p-id="129164"></path><path d="M480.76 726.49l-2.23-2.01 31.01-34.4v-26.17h3v27.32z" fill="#371E19" p-id="129165"></path><path d="M541.7 726.49l-32.17-35.26 0.39-27.34 3 0.04-0.37 26.15 31.37 34.39z" fill="#371E19" p-id="129166"></path></svg>