<?xml version="1.0" encoding="utf-8"?>
<!-- Generator: Adobe Illustrator 24.0.0, SVG Export Plug-In . SVG Version: 6.00 Build 0)  -->
<svg version="1.1" id="图层_1" xmlns="http://www.w3.org/2000/svg" xmlns:xlink="http://www.w3.org/1999/xlink" x="0px" y="0px"
	 viewBox="0 0 1024 1024" style="enable-background:new 0 0 1024 1024;" xml:space="preserve">
<style type="text/css">
	.st0{fill:#558DCA;}
	.st1{fill:url(#SVGID_1_);}
	.st2{fill:#7AA1D4;}
	.st3{fill:#6C97CF;}
	.st4{fill:#FFFFFF;}
	.st5{opacity:0.1;fill:#040000;}
	.st6{fill:#040000;}
	.st7{clip-path:url(#SVGID_3_);}
	.st8{opacity:0.1;fill:#FFFFFF;}
	.st9{opacity:0.8;fill:#387FC1;}
	.st10{fill:#689AD2;}
	.st11{clip-path:url(#SVGID_5_);fill:#FFFFFF;}
</style>
<g>
	<ellipse class="st0" cx="185.9" cy="646.2" rx="67.6" ry="150.2"/>
	<g>
		<path class="st0" d="M410.6,954h-56.8c-6.2,0-11.3-5.1-11.3-11.3V823.5c0-6.2,5.1-11.3,11.3-11.3h56.8c6.2,0,11.3,5.1,11.3,11.3
			v119.2C421.9,948.9,416.8,954,410.6,954z"/>
		<path class="st0" d="M626.6,954h-56.8c-6.2,0-11.3-5.1-11.3-11.3V823.5c0-6.2,5.1-11.3,11.3-11.3h56.8c6.2,0,11.3,5.1,11.3,11.3
			v119.2C637.9,948.9,632.8,954,626.6,954z"/>
	</g>
	<linearGradient id="SVGID_1_" gradientUnits="userSpaceOnUse" x1="234.3908" y1="905.7253" x2="847.382" y2="70.1599">
		<stop  offset="8.880253e-02" style="stop-color:#7AA1D4"/>
		<stop  offset="0.3548" style="stop-color:#89AAD8"/>
		<stop  offset="0.6974" style="stop-color:#99B4DD"/>
	</linearGradient>
	<path class="st1" d="M842,527c-12.5-90.5-68.8-175.1-133.7-240.1c-66.1-64.5-140.7-109.2-218.1-108.7
		c-77.4-0.5-152,44.3-218.1,108.7c-64.9,65-121.2,149.6-133.7,240.1c-27.9,176.9,144.1,352,351.8,354.8
		C697.9,879,869.9,703.9,842,527z"/>
	<path class="st2" d="M842,527c-12.5-90.5-68.8-175.1-133.7-240.1c-59.8-58.4-126.7-100.6-196.2-107.7c36.2,20.8,71,48.4,103.9,80.6
		c72.1,72.2,134.7,166.3,148.6,266.9c21.9,139.3-67.6,277.5-203.7,347.4C735.2,838.2,866.6,683.3,842,527z"/>
	<g>
		<circle class="st3" cx="445.7" cy="162.1" r="92.1"/>
		<g>
			<circle class="st4" cx="445.7" cy="162.1" r="73.6"/>
			<path class="st5" d="M495.5,108c7.9,11.9,12.6,26.2,12.6,41.5c0,41.4-33.6,75-75,75c-15.4,0-29.6-4.6-41.5-12.6
				c13.5,14.6,32.7,23.8,54.2,23.8c40.7,0,73.6-33,73.6-73.6C519.3,140.7,510.1,121.4,495.5,108z"/>
			<g>
				<circle class="st6" cx="463.8" cy="178.8" r="27.8"/>
				<circle class="st4" cx="486" cy="165.4" r="12.2"/>
				<circle class="st4" cx="450.4" cy="189.9" r="5.6"/>
			</g>
		</g>
	</g>
	<g>
		<circle class="st3" cx="639.8" cy="257.3" r="92.1"/>
		<g>
			<circle class="st4" cx="639.8" cy="257.3" r="73.6"/>
			<path class="st5" d="M689.6,203.1c7.9,11.9,12.6,26.2,12.6,41.5c0,41.4-33.6,75-75,75c-15.4,0-29.6-4.6-41.5-12.6
				c13.5,14.6,32.7,23.8,54.2,23.8c40.7,0,73.6-33,73.6-73.6C713.4,235.9,704.3,216.6,689.6,203.1z"/>
			<g>
				<circle class="st6" cx="638.3" cy="282.9" r="27.8"/>
				<circle class="st4" cx="660.5" cy="269.5" r="12.2"/>
				<circle class="st4" cx="624.9" cy="294" r="5.6"/>
			</g>
		</g>
	</g>
	<g>
		<defs>
			<path id="SVGID_2_" d="M842,527c-12.5-90.5-68.8-175.1-133.7-240.1c-66.1-64.5-140.7-109.2-218.1-108.7
				c-77.4-0.5-152,44.3-218.1,108.7c-64.9,65-121.2,149.6-133.7,240.1c-27.9,176.9,144.1,352,351.8,354.8
				C697.9,879,869.9,703.9,842,527z"/>
		</defs>
		<clipPath id="SVGID_3_">
			<use xlink:href="#SVGID_2_"  style="overflow:visible;"/>
		</clipPath>
		<g class="st7">
			<path class="st3" d="M623.6,682c0,69.4-70.8,131.4-158.1,131.4S307.3,751.4,307.3,682s88.4-67.2,158.1-67.2
				C527.3,614.8,623.6,612.6,623.6,682z"/>
			<circle class="st3" cx="741.8" cy="765.2" r="72.2"/>
			<circle class="st3" cx="253.6" cy="805.1" r="41.5"/>
			<circle class="st3" cx="176.8" cy="627" r="75.2"/>
			<circle class="st3" cx="238.2" cy="436.6" r="13.8"/>
			<circle class="st3" cx="783.2" cy="392.1" r="61.4"/>
			<circle class="st3" cx="678.8" cy="527.2" r="18.4"/>
		</g>
	</g>
	<path class="st8" d="M187.9,496.5c13-94.2,68.4-182.7,134.5-253.2c-17.2,13.1-34,27.8-50.3,43.6c-64.9,65-121.2,149.6-133.7,240.1
		c-27.7,175.8,142,349.8,348,354.7C299.4,835.4,161,666.7,187.9,496.5z"/>
	
		<ellipse transform="matrix(0.983 -0.1834 0.1834 0.983 -108.3081 164.219)" class="st0" cx="833.7" cy="667.7" rx="67.6" ry="150.2"/>
	<g>
		<circle class="st3" cx="263.8" cy="269.6" r="92.1"/>
		<g>
			<circle class="st4" cx="263.8" cy="269.6" r="73.6"/>
			<path class="st5" d="M313.7,215.4c7.9,11.9,12.6,26.2,12.6,41.5c0,41.4-33.6,75-75,75c-15.4,0-29.6-4.6-41.5-12.6
				c13.5,14.6,32.7,23.8,54.2,23.8c40.7,0,73.6-33,73.6-73.6C337.4,248.2,328.3,228.9,313.7,215.4z"/>
			<g>
				<circle class="st6" cx="273" cy="282.7" r="27.8"/>
				<circle class="st4" cx="295.2" cy="269.3" r="12.2"/>
				<circle class="st4" cx="259.7" cy="293.8" r="5.6"/>
			</g>
		</g>
	</g>
	<path class="st9" d="M447,468.9c-64.3,0-121.2-16.4-156.1-55.7c-4.5-5.1-12.9-3.1-14.5,3.6c-2.4,9.9-3.6,20.1-3.6,30.5
		c0,83.1,78,150.4,174.1,150.4s174.1-67.4,174.1-150.4c0-10.5-1.3-20.7-3.6-30.5c-1.6-6.7-9.9-8.7-14.5-3.6
		C568.3,452.5,511.4,468.9,447,468.9z"/>
	<path class="st10" d="M447,585.6c-89.2,0-161.8-62-161.8-138.2c0-6.9,0.6-13.7,1.8-20.5c35.1,35.5,90.2,54.3,160.1,54.3
		s125-18.7,160.1-54.3c1.2,6.8,1.8,13.6,1.8,20.5C608.9,523.6,536.3,585.6,447,585.6z"/>
	<g>
		<defs>
			<path id="SVGID_4_" d="M447,585.6c-89.2,0-161.8-62-161.8-138.2c0-6.9,0.6-13.7,1.8-20.5c35.1,35.5,90.2,54.3,160.1,54.3
				s125-18.7,160.1-54.3c1.2,6.8,1.8,13.6,1.8,20.5C608.9,523.6,536.3,585.6,447,585.6z"/>
		</defs>
		<clipPath id="SVGID_5_">
			<use xlink:href="#SVGID_4_"  style="overflow:visible;"/>
		</clipPath>
		<ellipse class="st11" cx="482.7" cy="485.5" rx="45.7" ry="40.2"/>
		<ellipse class="st11" cx="385.7" cy="479.9" rx="33.2" ry="29.2"/>
	</g>
</g>
</svg>
