<?xml version="1.0" standalone="no"?><!DOCTYPE svg PUBLIC "-//W3C//DTD SVG 1.1//EN" "http://www.w3.org/Graphics/SVG/1.1/DTD/svg11.dtd"><svg t="1649680065721" class="icon" viewBox="0 0 1024 1024" version="1.1" xmlns="http://www.w3.org/2000/svg" p-id="2117" xmlns:xlink="http://www.w3.org/1999/xlink" width="200" height="200"><defs><style type="text/css">@font-face { font-family: "feedback-iconfont"; src: url("//at.alicdn.com/t/font_1031158_u69w8yhxdu.woff2?t=1630033759944") format("woff2"), url("//at.alicdn.com/t/font_1031158_u69w8yhxdu.woff?t=1630033759944") format("woff"), url("//at.alicdn.com/t/font_1031158_u69w8yhxdu.ttf?t=1630033759944") format("truetype"); }
</style></defs><path d="M518.308 930.564l-359.728-210.092 2.072-416.564 361.792-206.496 359.736 210.076-2.072 416.584z" fill="#FFFF8F" p-id="2118"></path><path d="M519.132 765.312l-217.032-126.748 1.248-251.324 218.28-124.584 217.032 126.744-1.244 251.336z" fill="#FFD24A" p-id="2119"></path><path d="M978.968 747.324l-68.768-39.488 1.876-378.012 49.592-28.452a30 30 0 0 0-29.86-52.044l-45.26 25.968-338.632-197.756V40c0-16.568-13.428-30-30-30s-30 13.432-30 30v42.58L153.604 273.384l-59.956-34.428a29.992 29.992 0 0 0-40.956 11.076 30 30 0 0 0 11.076 40.956l66.756 38.332-1.896 380.788-64.852 37.208a29.996 29.996 0 0 0-11.092 40.948 29.992 29.992 0 0 0 40.952 11.1l70.892-40.668 323.38 188.856V988a30 30 0 0 0 30 30 30 30 0 0 0 30-30v-39.788l331.216-189.032 69.964 40.176a29.984 29.984 0 0 0 40.956-11.084 29.988 29.988 0 0 0-11.076-40.948z m-128.6-73.844l-82.88-47.592 1.06-213.724 83.36-47.82-1.54 309.136z m-302.452-360.732l135.46 79.108-135.46 77.716V312.748z m-60.004 152.604l-130.056-74.68 130.056-74.224v148.904z m-26.612 53.904l-128.976 73.996 0.736-147.636 128.24 73.64z m26.612 53.912v139.172l-120.212-70.208 120.212-68.964z m60.004-4.176l126.944 72.896-126.944 72.456v-145.352z m33.92-49.712l126.544-72.596-0.724 144.848-125.82-72.252z m244.696-209.552L743.4 357.42l-195.484-114.16v-96.24l278.616 162.708z m-338.62-158.06v95.684L297.516 356.02 213.944 308.032l273.968-156.364zM190.356 363.676l82.872 47.588-1.076 216.508-83.348 47.816 1.552-311.912z m34.196 360.58l83.132-47.692 180.228 105.252v96.24l-263.36-153.8z m323.364 154.86v-95.688l187.28-106.9 83.584 47.996-270.864 154.592z" fill="#6E6E96" p-id="2120"></path></svg>