<svg xmlns="http://www.w3.org/2000/svg" viewBox="0 0 68.86 68.54"><defs><style>.cls-1{isolation:isolate;}.cls-2,.cls-5,.cls-6{fill:#3c3c3c;}.cls-3{fill:#fff;}.cls-4{fill:#323232;}.cls-5{opacity:0.2;mix-blend-mode:multiply;}.cls-6{opacity:0.4;mix-blend-mode:screen;}.cls-7{fill:#e8503c;}</style></defs><title>资源 12</title><g class="cls-1"><g id="图层_2" data-name="图层 2"><g id="Layer_1" data-name="Layer 1"><path class="cls-2" d="M58,60.41c1.41-1.36,2.47-3.66,1.66-5.72-.18-.46-.3-.77-2.47-3.15,1.89-4.63,4.83-12.29,6.28-16.61,2.9-.72,3.47-1,4-1.58l.18-.2a5.47,5.47,0,0,0,.9-5.27,5.16,5.16,0,0,0-3.46-3.66c-.48-.13-.86-.18-2.95.11-2.42-3.79-6.9-10.54-10-14.88C53.63,5.73,53.68,5,53.47,4.14A5.46,5.46,0,0,0,49.71.34a5.14,5.14,0,0,0-5,.67.86.86,0,0,0-.14.13c-.37.35-.65.69-1.88,3.16-6.46,1.5-19.64,4.86-25.59,6.64-1.93-1.72-2.59-2.08-3.57-2.13a5.16,5.16,0,0,0-3.8,1.56c-1.52,1.46-2.66,4-1.55,6.05a14.27,14.27,0,0,0,2.24,2.63C9,23.16,6.57,30.83,5.36,35.32c-3,.74-3.53,1-4.09,1.59A2.5,2.5,0,0,0,1,37.2a5.64,5.64,0,0,0-.49,5.61A4.71,4.71,0,0,0,4.1,46c.39.05.59.07,3.31-.36,2.71,4.1,7.7,11.26,10.37,14.65-1.12,2.92-1.17,3.54-.91,4.44A5.54,5.54,0,0,0,21,68.31a4.86,4.86,0,0,0,4.71-.88l.14-.15a7.76,7.76,0,0,0,1.25-2.17C31.86,64,43.62,60.84,49.49,59c2.77,2.56,3.41,2.84,4.36,2.93A5.23,5.23,0,0,0,58,60.41Z"/><path class="cls-3" d="M23.72,65.35c.09-.1.58-1.08,1.38-2.72,3.41-.66,19.52-5,25.12-6.82,2.15,2,3.58,3.29,3.91,3.32,1.77.17,3.32-2.25,2.87-3.4a38.53,38.53,0,0,0-3.15-3.6c2-4.73,6.16-15.56,7.38-19.59a18.87,18.87,0,0,0,4.28-1.25c1.17-1.35.1-4-1.1-4.32a25.39,25.39,0,0,0-3.67.44c-2.2-3.54-8.48-13-11.82-17.57C50.1,7,50.78,5.11,50.7,4.8c-.41-1.74-3.2-2.42-4.14-1.62a27.24,27.24,0,0,0-1.91,3.59c-6.18,1.37-23.24,5.72-28.25,7.37a15.49,15.49,0,0,0-3-2.49c-1.62-.08-3.22,2.44-2.7,3.43.09.15,1.2,1.37,3,3.3-1.38,3.69-5,15-6,19.3A21.27,21.27,0,0,0,3.23,39c-1,1.28.12,4,1.22,4.19.18,0,1.77-.22,4.33-.65C11.53,46.82,19.08,57.63,21,59.74a20.81,20.81,0,0,0-1.43,4.17C20.05,65.47,23,66.17,23.72,65.35ZM12.19,41.92l4.21-.74C18,44.05,22.45,51.06,24,52.7c-.6,1.41-1.16,2.73-1.66,3.94C20.1,53.24,15.17,45.94,12.19,41.92Zm17.86-3.2c-.48,1.07-.95,2.14-1.41,3.2-.52-.85-1.12-1.77-1.7-2.63Zm-5.18-4.67c.37-.9.75-1.9,1.06-2.82L28,33.42Zm5.94-5.75c1.44-.35,3-.74,4.4-1.12L33.48,31ZM41,28c.7.89,1.44,1.79,2.11,2.56l-3.56.67C40.08,30.11,40.56,29,41,28Zm1.48,8.41c-.36,1-.71,2-1,2.86L39.34,37ZM37,42.64c-1,.24-2,.51-3,.81.4-.87.8-1.74,1.2-2.63ZM25.32,49.53c-1.38-2.37-3.85-6.43-5.59-8.94l3.68-.66a51.77,51.77,0,0,0,3.76,5.34ZM18.39,35.36c.92-2.45,2.21-6.14,3-8.84l2,2.14a40.36,40.36,0,0,0-2.16,6.11Zm6.74-12.75c3.94-.86,9.88-2.23,13.64-3.27l-1.84,4c-2.38.53-6,1.46-8.74,2.29ZM44,21.33c1.8,2.41,4.32,5.68,6.19,7.9l-3.48.63c-.87-1.23-2.64-3.45-4.19-5.2Zm6.49,13.48c-1.1,2.81-2.62,6.8-3.68,9.88L44,41.79a54.45,54.45,0,0,0,2.18-6.13ZM42.6,48.31c-3.32.8-8.87,2.24-12.34,3.32l2-4.34a53.35,53.35,0,0,0,7.23-2.12ZM16.1,20.94c.87.92,1.83,1.93,2.85,3A116.41,116.41,0,0,0,15,36.06l-4,.86C12.43,32.8,14.91,25.25,16.1,20.94ZM42.9,10.43c-.75,1.59-1.59,3.39-2.49,5.34-3.18.56-13.14,2.94-17.81,4.34-1.36-1.34-2.62-2.56-3.74-3.64C24.31,15.2,36.18,12.3,42.9,10.43ZM57.35,28l-3.64.63c-1.59-2.43-5.56-8-8-11.13.57-1.3,1.1-2.54,1.59-3.7C50,17.81,54.55,24.31,57.35,28ZM51.47,49.58l-2.19-2.3C50.72,43.71,53,37.41,54,34.11c1.37-.29,2.66-.55,3.84-.81C56.12,37.39,53.13,44.89,51.47,49.58ZM26.8,59.05l1.77-3.79A162.69,162.69,0,0,0,45,50.72l2.76,2.72C42.39,54.75,32.06,57.44,26.8,59.05Z"/><path class="cls-4" d="M54.08,59.6c-.26,0-.61-.06-4-3.25-5.58,1.82-20.76,5.9-24.68,6.69A14.2,14.2,0,0,1,24,65.72h0a2.71,2.71,0,0,1-2.45.3,3.34,3.34,0,0,1-2.42-2c-.06-.22-.14-.48,1.34-4.21C18.29,57.31,11.4,47.46,8.55,43a28.94,28.94,0,0,1-4.16.6,2.51,2.51,0,0,1-1.69-1.7,3.38,3.38,0,0,1,.21-3.31c.15-.14.4-.38,4.38-1.33,1.1-4.47,4.46-15,5.85-18.79a31.26,31.26,0,0,1-2.86-3.19c-.48-.89.19-2.34,1.11-3.23a2.8,2.8,0,0,1,2-.89c.24,0,.5,0,3.11,2.43C21.78,11.92,38,7.78,44.32,6.36c1.57-3.2,1.82-3.41,1.93-3.54A2.9,2.9,0,0,1,49,2.59a3.09,3.09,0,0,1,2.19,2.1c.06.23.14.57-1.7,5.08C52.78,14.3,58.72,23.3,61,26.9c3.15-.49,3.39-.43,3.55-.39a3,3,0,0,1,1.77,2.08,3.14,3.14,0,0,1-.47,3.05c-.15.15-.41.4-4.23,1.3C60.3,37.15,56.38,47.33,54.41,52c2.86,3.09,3,3.37,3,3.53a3.24,3.24,0,0,1-1.11,3.14A2.83,2.83,0,0,1,54.08,59.6Zm7-27.52a24.73,24.73,0,0,0,4-1.1,2.21,2.21,0,0,0,.23-2.11,2.09,2.09,0,0,0-1.07-1.43,22.83,22.83,0,0,0-3.5.44l-.31.05-.17-.26c-2.14-3.45-8.45-13-11.8-17.55l-.16-.21.1-.25a32.55,32.55,0,0,0,1.76-4.75,2.17,2.17,0,0,0-1.56-1.42,2.13,2.13,0,0,0-1.79,0A28,28,0,0,0,45.08,7l-.1.21-.23,0C38.48,8.63,21.54,13,16.55,14.59l-.27.09-.2-.19c-2.22-2.05-2.7-2.34-2.71-2.37a2,2,0,0,0-1.33.63c-.75.73-1.12,1.75-.94,2.08.06.09.46.58,2.93,3.22l.2.22-.1.27c-1.34,3.58-4.94,14.87-6,19.25l-.06.28-.29.07A35.7,35.7,0,0,0,3.6,39.26a2.51,2.51,0,0,0,0,2.3c.29.68.69,1.09.9,1.11s.66,0,4.23-.64L9,42l.16.27c2.74,4.3,10.3,15.11,12.2,17.17l.21.22-.12.27a38.53,38.53,0,0,0-1.41,3.86,2.4,2.4,0,0,0,1.75,1.34,2,2,0,0,0,1.53,0c.05-.07.28-.47,1.33-2.64l.1-.22.24,0c3.54-.68,19.62-5,25.06-6.8l.27-.09.21.2a28.77,28.77,0,0,0,3.62,3.19A2,2,0,0,0,55.68,58a2.44,2.44,0,0,0,.88-2.1,34.66,34.66,0,0,0-3.05-3.47l-.21-.22.12-.29c2-4.63,6.12-15.45,7.36-19.54l.08-.26ZM47.87,53.9c-5.38,1.32-15.75,4-20.93,5.6l-1,.31.46-1,1.77-3.79.1-.22.25,0a162.82,162.82,0,0,0,16.35-4.53l.29-.1.21.21c1,1,1.89,1.88,2.75,2.72l.61.59Zm-19,1.79-1.21,2.6c5.16-1.53,13.93-3.82,19.14-5.11l-1.94-1.92C41.16,52.59,31.76,55.15,28.89,55.69ZM51.12,49.9l-2.18-2.29-.21-.22.11-.29c1.44-3.58,3.71-9.85,4.67-13.13l.08-.27.28-.06,3.84-.8.89-.19-.35.83c-1.53,3.7-4.61,11.39-6.34,16.26l-.26.73Zm3.22-15.39c-1,3.28-3.1,9.12-4.5,12.66l1.44,1.52C52.92,44.16,55.5,37.69,57,34ZM46.46,45l-2.79-2.9-.23-.23.14-.3a55.18,55.18,0,0,0,2.15-6.06l.08-.28.29,0,4.29-.85.86-.17-.32.81c-1,2.54-2.58,6.65-3.68,9.85l-.25.73Zm.1-9a58.52,58.52,0,0,1-2,5.62l2,2.11c1-2.76,2.2-6,3.12-8.35ZM42.71,48.78c-3,.71-8.69,2.18-12.31,3.3l-1,.32.45-1,2-4.34.1-.22.24,0a51.84,51.84,0,0,0,7.14-2.09l.29-.12.22.22L42.94,48l.59.6ZM32.59,47.71c-.5,1.08-1,2.13-1.46,3.16,3.29-1,7.72-2.12,10.54-2.82l-2.3-2.33A55,55,0,0,1,32.59,47.71ZM57.43,28.44l-3.65.63-.3.05-.17-.26c-1.52-2.33-5.48-7.94-8-11.09l-.18-.22.11-.27c.57-1.3,1.11-2.54,1.6-3.69l.34-.8.49.72c3.12,4.57,7.4,10.7,10.06,14.17l.48.63Zm-11.2-11c2.44,3.09,6.1,8.26,7.7,10.68l2.58-.44C54,24.27,50.26,19,47.37,14.75,47,15.6,46.63,16.48,46.23,17.4Zm-5,22.16L39,37.31l-.62-.63,4.87-.93-.29.79c-.38,1-.72,2-1,2.83l-.24.76Zm-.9-2.28c.35.35.69.71,1,1.06.14-.43.3-.88.47-1.34ZM37.11,43.1c-1,.26-2.07.54-3,.8l-1,.3L35.08,40l2.83,2.9Zm-2.23-.39,1.21-.33-.72-.73ZM21.9,56.9c-2.24-3.47-7.13-10.7-10.09-14.7l-.46-.61.76-.13,4.21-.74.33-.06.16.3a103.49,103.49,0,0,0,7.5,11.42l.2.23-.12.28c-.6,1.41-1.15,2.73-1.65,3.93l-.35.83ZM16.15,41.71,13,42.26c2.79,3.81,6.9,9.87,9.19,13.37.37-.89.77-1.84,1.2-2.84A110,110,0,0,1,16.15,41.71ZM46.49,30.39l-.17-.25c-.91-1.3-2.7-3.52-4.16-5.17l-.2-.22.12-.28c.51-1.14,1-2.25,1.48-3.34l.33-.74.48.65c.86,1.16,3.85,5.13,6.17,7.89l.53.62Zm-3.42-5.81c1.35,1.53,2.93,3.49,3.84,4.77l2.38-.44c-1.9-2.3-4.09-5.18-5.19-6.65ZM24.91,49.77c-1.25-2.15-3.76-6.3-5.57-8.91l-.42-.6.73-.13,3.68-.66.32-.06.17.27A50.42,50.42,0,0,0,27.53,45l.19.23-.12.27c-.64,1.46-1.26,2.89-1.85,4.26l-.37.86Zm-1.73-9.32-2.64.48c1.55,2.31,3.48,5.46,4.71,7.56.45-1,.9-2.07,1.37-3.14A53.22,53.22,0,0,1,23.18,40.45Zm15.6-8.63,2.15-4.76.48.61c.78,1,1.49,1.84,2.1,2.54l.55.63Zm1.61-1.26,1.87-.35c-.35-.41-.72-.86-1.11-1.34ZM28.24,42.16c-.56-.89-1.14-1.79-1.7-2.6l-.41-.6,4.72-.87-.37.82-1.31,3-.46,1Zm-.51-2.53c.28.41.56.84.83,1.28l.69-1.56ZM29.88,28l.81-.2c1.44-.35,3-.74,4.4-1.12l1-.26-.41.91c-.57,1.27-1.15,2.55-1.72,3.84l-.28.63Zm1.85.52,1.61,1.63c.34-.77.68-1.53,1-2.3C33.5,28.12,32.6,28.35,31.73,28.56ZM24.1,34.68l.33-.81c.38-.93.75-1.92,1.05-2.79l.25-.73L29,33.72Zm1.53-1.27,1.46-.29-1-1C26,32.54,25.8,33,25.63,33.41ZM37,23.84c-2.51.56-6.09,1.5-8.71,2.28l-.27.08-.2-.2L24.79,23l-.61-.62.85-.18c3.9-.85,9.8-2.22,13.62-3.27l1-.27-.43.93c-.6,1.3-1.21,2.65-1.84,4l-.1.21Zm-11-.95,2.24,2.24c2.53-.74,5.85-1.61,8.28-2.16.44-1,.89-2,1.32-2.91C34.4,21,29.62,22.11,26.08,22.89ZM21.39,35.23l-2.9.59-.84.18.3-.81c.87-2.33,2.18-6,3-8.8l.23-.78L24,28.56l-.13.3a39.82,39.82,0,0,0-2.14,6l-.07.29Zm.24-7.8c-.74,2.36-1.73,5.19-2.5,7.3l1.78-.37a42.58,42.58,0,0,1,2-5.61ZM40.5,16.24c-3.31.58-13.23,3-17.77,4.32l-.27.08-.2-.19c-1.35-1.34-2.61-2.56-3.73-3.64l-.63-.61.85-.2c5.7-1.31,17.53-4.22,24-6l1-.28-.44.94C42.58,12.22,41.74,14,40.84,16l-.1.22Zm-20.69.49c.91.87,1.88,1.82,2.92,2.84,4.56-1.34,13.88-3.58,17.36-4.22q1-2.25,1.95-4.19C35.65,12.9,25.58,15.38,19.81,16.73Zm-4.7,19.79-4,.87-.82.18.27-.8c1.31-3.78,3.85-11.46,5.1-16l.22-.81.58.61,2.84,3,.21.22-.12.28a120.36,120.36,0,0,0-3.9,12.06l-.07.29Zm1.22-14.64c-1.22,4.26-3.32,10.65-4.61,14.4l2.9-.62c.72-2.95,2.7-8.85,3.77-11.62Z"/><path class="cls-5" d="M46.35,34a.68.68,0,0,0-.85-.08A24.9,24.9,0,0,0,41,33.06c1.09-1.27,4.29-5.41,3.72-6-.1-.1-.3-.08-.56,0-.53-.5-5.55-5-5.85-4.73s3.21,4.19,4.4,5.49a38.32,38.32,0,0,0-3.79,2.79,3.29,3.29,0,1,0-6.28,0,38.07,38.07,0,0,0-3.78-2.79c1.18-1.3,4.66-5.22,4.39-5.49s-5.32,4.23-5.85,4.73c-.26-.08-.46-.1-.56,0-.57.57,2.63,4.71,3.72,6a24.9,24.9,0,0,0-4.54.83.68.68,0,0,0-.85.08c-.26.27-4.39,4.83-4.12,5.1s4.83-3.86,5.09-4.13l0,0a25.22,25.22,0,0,0,3.65.7,25.36,25.36,0,0,0-3,4.21.63.63,0,0,0-.51.62c0,.36.29,6.18.64,6.18s.65-5.82.65-6.18v0A16.89,16.89,0,0,0,29.73,39a1.31,1.31,0,0,0-.11.52,25.86,25.86,0,0,0,.87,5.29.65.65,0,0,0,.07.81c.26.25,3.89,3.47,4.14,3.21s-3-3.88-3.22-4.13c0,0,0,0,0,0A20.27,20.27,0,0,0,32,41.87,5.6,5.6,0,0,0,33.54,43c.42,1.42,1.25,3,2.2,3s1.78-1.54,2.2-3a5.6,5.6,0,0,0,1.5-1.12A20.27,20.27,0,0,0,40,44.68l0,0c-.26.25-3.47,3.88-3.22,4.13s3.88-3,4.14-3.21a.65.65,0,0,0,.07-.81,25.86,25.86,0,0,0,.87-5.29,1.31,1.31,0,0,0-.11-.52,16.89,16.89,0,0,0,2.18,1.42v0c0,.36.29,6.18.65,6.18s.65-5.82.65-6.18a.64.64,0,0,0-.52-.62,25.36,25.36,0,0,0-3-4.21,25,25,0,0,0,3.65-.7l0,0c.26.27,4.83,4.39,5.1,4.13S46.61,34.24,46.35,34Z"/><path class="cls-2" d="M38,28.68a3.3,3.3,0,1,1-3.3-3.3A3.29,3.29,0,0,1,38,28.68Z"/><path class="cls-2" d="M37.23,40.32c0,1.38-1.11,4.63-2.49,4.63s-2.49-3.25-2.49-4.63a2.49,2.49,0,1,1,5,0Z"/><path class="cls-2" d="M32.1,30.07a1.63,1.63,0,1,1-2.3,2.3c-.64-.64-4.63-5.66-4-6.29S31.46,29.44,32.1,30.07Z"/><path class="cls-2" d="M27.44,27.25a.79.79,0,0,1-1.12-1.12c.31-.31,5.58-5.09,5.89-4.78S27.75,26.94,27.44,27.25Z"/><path class="cls-2" d="M30.56,32a1.41,1.41,0,1,1,0,2.81c-.77,0-6.29-.62-6.29-1.4S29.79,32,30.56,32Z"/><path class="cls-2" d="M24.13,33a.69.69,0,1,1,1,1c-.26.27-4.83,4.39-5.09,4.13S23.87,33.24,24.13,33Z"/><path class="cls-2" d="M28.9,34.47a1.33,1.33,0,0,1,1.88,1.89c-.52.52-4.64,3.79-5.16,3.27S28.38,35,28.9,34.47Z"/><path class="cls-2" d="M25.26,39.45a.65.65,0,1,1,1.29,0c0,.36-.29,6.18-.65,6.18S25.26,39.81,25.26,39.45Z"/><path class="cls-2" d="M28.62,38.52a1.33,1.33,0,1,1,2.66,0c0,.74-.59,6-1.33,6S28.62,39.26,28.62,38.52Z"/><path class="cls-2" d="M29.56,44.62a.66.66,0,0,1,0-.92.64.64,0,0,1,.92,0c.26.25,3.47,3.88,3.22,4.13S29.82,44.87,29.56,44.62Z"/><path class="cls-2" d="M38.92,32a1.41,1.41,0,1,0,0,2.81c.77,0,6.29-.62,6.29-1.4S39.69,32,38.92,32Z"/><path class="cls-2" d="M45.35,33a.69.69,0,0,0-1,1c.26.27,4.83,4.39,5.1,4.13S45.61,33.24,45.35,33Z"/><path class="cls-2" d="M40.58,34.47a1.33,1.33,0,0,0-1.88,1.89c.52.52,4.64,3.79,5.16,3.27S41.1,35,40.58,34.47Z"/><path class="cls-2" d="M44.23,39.45a.65.65,0,0,0-1.3,0c0,.36.29,6.18.65,6.18S44.23,39.81,44.23,39.45Z"/><path class="cls-2" d="M40.86,38.52a1.33,1.33,0,1,0-2.66,0c0,.74.59,6,1.33,6S40.86,39.26,40.86,38.52Z"/><path class="cls-2" d="M39.92,44.62a.66.66,0,0,0,0-.92.64.64,0,0,0-.92,0c-.26.25-3.47,3.88-3.22,4.13S39.66,44.87,39.92,44.62Z"/><path class="cls-2" d="M37.39,30.07a1.62,1.62,0,1,0,2.29,2.3c.64-.64,4.63-5.66,4-6.29S38,29.44,37.39,30.07Z"/><path class="cls-2" d="M42,27.25a.8.8,0,1,0,1.13-1.12c-.31-.31-5.59-5.09-5.9-4.78S41.73,26.94,42,27.25Z"/><path class="cls-2" d="M40.41,35.74c0,3.75-2.54,6.78-5.67,6.78s-5.67-3-5.67-6.78S31.61,29,34.74,29,40.41,32,40.41,35.74Z"/><path class="cls-5" d="M36.62,30a7.06,7.06,0,0,1,.74,3.18c0,3.41-2.3,6.17-5.15,6.17A4.42,4.42,0,0,1,30.37,39a5,5,0,0,0,4.41,3c2.84,0,5.15-2.75,5.15-6.16A6.22,6.22,0,0,0,36.62,30Z"/><path class="cls-6" d="M34.11,33.85c-1,1-2.5,1.24-3.27.46s-.57-2.24.46-3.27,2.51-1.25,3.28-.47S35.15,32.81,34.11,33.85Z"/><path class="cls-7" d="M34.12,27.38a6.66,6.66,0,0,1-1.84.58c-.09-.08.41-.88.95-1S34.22,27.23,34.12,27.38Z"/><path class="cls-7" d="M35.36,27.38A6.66,6.66,0,0,0,37.2,28c.09-.08-.41-.88-1-1S35.26,27.23,35.36,27.38Z"/></g></g></g></svg>