<svg xmlns="http://www.w3.org/2000/svg" viewBox="0 0 89.75 56.84"><defs><style>.cls-1{fill:#3c3c3c;}.cls-2{fill:#323333;}.cls-3{fill:#5c5c5d;}.cls-4{fill:#e8503c;}.cls-5{fill:#f9b332;}</style></defs><title>资源 17</title><g id="图层_2" data-name="图层 2"><g id="Layer_1" data-name="Layer 1"><path class="cls-1" d="M34.65,39.61c4.58,4.58,16.21,4.43,20.64,0S45,56.84,45,56.84,30.08,35,34.65,39.61Z"/><path class="cls-2" d="M51,42.06a6.15,6.15,0,1,1-6.14-6.14A6.14,6.14,0,0,1,51,42.06Z"/><path class="cls-1" d="M43.59,40.71a2.43,2.43,0,1,1-4.85,0c0-1.34,1.08-10.7,2.42-10.7S43.59,39.37,43.59,40.71Z"/><path class="cls-3" d="M42.51,37.57a1.35,1.35,0,1,1-2.69,0c0-.74.6-5.93,1.34-5.93S42.51,36.83,42.51,37.57Z"/><path class="cls-1" d="M46.16,40.71a2.43,2.43,0,1,0,4.85,0C51,39.37,49.93,30,48.59,30S46.16,39.37,46.16,40.71Z"/><path class="cls-3" d="M47.24,37.57a1.35,1.35,0,1,0,2.69,0c0-.74-.6-5.93-1.34-5.93S47.24,36.83,47.24,37.57Z"/><path class="cls-1" d="M51,40.44a6.15,6.15,0,1,1-6.14-6.15A6.14,6.14,0,0,1,51,40.44Z"/><path class="cls-4" d="M46,40.3a12.12,12.12,0,0,1,3.43-1.09c.16.16-.77,1.65-1.78,1.81C46.89,41.15,45.85,40.58,46,40.3Z"/><path class="cls-4" d="M43.71,40.3a12.16,12.16,0,0,0-3.42-1.09c-.17.16.76,1.65,1.78,1.81C42.86,41.15,43.9,40.58,43.71,40.3Z"/><path class="cls-2" d="M44.56,42.59c0,.44-.12.79-.28.79S44,43,44,42.59s.12-.78.28-.78S44.56,42.16,44.56,42.59Z"/><path class="cls-2" d="M45.19,42.59c0,.44.12.79.28.79s.28-.35.28-.79-.12-.78-.28-.78S45.19,42.16,45.19,42.59Z"/><path class="cls-1" d="M45,56.84s-2.81-4.64-16.81-5c0,0-3.24-7.41-15.89-9.89,0,0,.11-9.95-12.27-20.11,0,0,21.67,6.05,24.59,7.62S43.73,48.3,45,56.84Z"/><path class="cls-3" d="M24.46,30c-1-.54-18.73-6-20.84-6.65,0,0,18.72,6.65,18.87,7.29a78.43,78.43,0,0,0-9.3,10.5s9.57-9.85,10.34-9.52S27.62,44.49,28,49.81c0,0-1.26-12.31-3.33-18-.28-.89,9.49,8.27,11.59,11C36.29,42.89,26.08,30.93,24.46,30Z"/><path class="cls-2" d="M45,56.84c-4.5-8.4-16.62-5.5-16.62-5.5s-2.6-8-5.19-9.28-10.53-.49-10.53-.49,1.73-7.62.49-10.11c-1-1.93-8.65-6.69-12-8.71,11.27,9.83,11.17,19.18,11.17,19.18,12.65,2.48,15.89,9.89,15.89,9.89C42.16,52.2,45,56.84,45,56.84Z"/><path class="cls-1" d="M44.78,56.84s2.81-4.64,16.81-5c0,0,3.24-7.41,15.89-9.89,0,0-.1-9.95,12.27-20.11,0,0-21.67,6.05-24.59,7.62S46,48.3,44.78,56.84Z"/><path class="cls-3" d="M65.29,30c1-.54,18.73-6,20.84-6.65,0,0-18.72,6.65-18.86,7.29a78.75,78.75,0,0,1,9.29,10.5S67,31.33,66.23,31.66s-4.1,12.83-4.5,18.15c0,0,1.25-12.31,3.32-18,.28-.89-9.48,8.27-11.59,11C53.46,42.89,63.67,30.93,65.29,30Z"/><path class="cls-2" d="M44.78,56.84c4.5-8.4,16.62-5.5,16.62-5.5s2.6-8,5.19-9.28,10.53-.49,10.53-.49S75.39,34,76.63,31.46c1-1.93,8.66-6.69,12-8.71C77.38,32.58,77.48,41.93,77.48,41.93c-12.65,2.48-15.89,9.89-15.89,9.89C47.59,52.2,44.78,56.84,44.78,56.84Z"/><path class="cls-1" d="M50.59,14.25c1.66,3,7.62,4.68,10.54,3.08s-7.84,7.26-7.84,7.26S48.94,11.23,50.59,14.25Z"/><path class="cls-2" d="M58.59,18a3.27,3.27,0,1,1-2.22-4.06A3.28,3.28,0,0,1,58.59,18Z"/><path class="cls-1" d="M55,16.14a1.29,1.29,0,1,1-2.48-.72c.2-.68,2.15-5.3,2.83-5.1S55.2,15.46,55,16.14Z"/><path class="cls-3" d="M54.91,14.38a.72.72,0,0,1-.89.49.71.71,0,0,1-.48-.89c.11-.38,1.19-2.94,1.57-2.83S55,14,54.91,14.38Z"/><path class="cls-1" d="M56.31,16.53a1.29,1.29,0,1,0,2.48.72c.2-.68,1-5.62.35-5.82S56.51,15.84,56.31,16.53Z"/><path class="cls-3" d="M57.33,15.09a.71.71,0,0,0,1.37.4c.12-.38.58-3.12.2-3.23S57.44,14.71,57.33,15.09Z"/><path class="cls-1" d="M58.83,17.12a3.27,3.27,0,1,1-2.22-4.06A3.27,3.27,0,0,1,58.83,17.12Z"/><path class="cls-5" d="M56.31,16.3a7.22,7.22,0,0,1,1.91-.05c.06.11-.64.73-1.18.66S56.17,16.41,56.31,16.3Z"/><path class="cls-5" d="M55.12,16a6.88,6.88,0,0,0-1.59-1.08c-.11.06.15,1,.64,1.2S55.17,16.12,55.12,16Z"/><path class="cls-2" d="M55.21,17.25c-.06.22-.18.38-.26.36s-.09-.22,0-.44.18-.38.26-.36S55.28,17,55.21,17.25Z"/><path class="cls-2" d="M55.53,17.35c-.06.22-.05.41,0,.44s.19-.14.26-.36,0-.42,0-.44S55.59,17.13,55.53,17.35Z"/><path class="cls-1" d="M53.29,24.59s-.74-2.79-7.83-5.07c0,0-.55-4.27-6.64-7.42,0,0,1.53-5.06-3.27-12.1,0,0,10.17,6.32,11.42,7.56S53.93,20,53.29,24.59Z"/><path class="cls-3" d="M46.82,7.84c-.42-.41-8.67-5.88-9.66-6.5,0,0,8.57,6.19,8.55,6.54a41.44,41.44,0,0,0-6.31,4s6.35-3.61,6.7-3.33.17,7.17-.41,9.94c0,0,1.19-6.47,1-9.66,0-.5,3.61,5.64,4.28,7.36C51,16.17,47.51,8.54,46.82,7.84Z"/><path class="cls-2" d="M53.29,24.59c-1-5-7.66-5.29-7.66-5.29s-.13-4.48-1.27-5.51S39.06,12,39.06,12s2-3.63,1.75-5.09C40.61,5.75,37.39,2.17,36,.64c4.29,6.7,2.85,11.46,2.85,11.46,6.09,3.15,6.64,7.42,6.64,7.42C52.55,21.8,53.29,24.59,53.29,24.59Z"/><path class="cls-1" d="M53.2,24.56s2.13-1.95,9.33-.06c0,0,2.76-3.29,9.59-2.68,0,0,1.43-5.1,9.27-8.44,0,0-12-.14-13.7.23S55.11,20.39,53.2,24.56Z"/><path class="cls-3" d="M67.67,13.93c.58-.13,10.47-.29,11.63-.29,0,0-10.55.61-10.72.92a41.43,41.43,0,0,1,3.19,6.74s-3.42-6.45-3.86-6.4-4,5.94-5,8.6c0,0,2.48-6.11,4.38-8.67.27-.42-6.08,2.8-7.57,3.9C59.71,18.73,66.71,14.14,67.67,13.93Z"/><path class="cls-2" d="M53.2,24.56c3.55-3.62,9.31-.33,9.31-.33s2.52-3.71,4-4S72,21.58,72,21.58s.25-4.15,1.26-5.23c.78-.84,5.42-2.13,7.44-2.66-7.22,3.34-8.57,8.13-8.57,8.13-6.83-.61-9.59,2.68-9.59,2.68C55.33,22.61,53.2,24.56,53.2,24.56Z"/></g></g></svg>