<?xml version="1.0" standalone="no"?><!DOCTYPE svg PUBLIC "-//W3C//DTD SVG 1.1//EN" "http://www.w3.org/Graphics/SVG/1.1/DTD/svg11.dtd"><svg t="1649679231093" class="icon" viewBox="0 0 1024 1024" version="1.1" xmlns="http://www.w3.org/2000/svg" p-id="8971" xmlns:xlink="http://www.w3.org/1999/xlink" width="200" height="200"><defs><style type="text/css">@font-face { font-family: "feedback-iconfont"; src: url("//at.alicdn.com/t/font_1031158_u69w8yhxdu.woff2?t=1630033759944") format("woff2"), url("//at.alicdn.com/t/font_1031158_u69w8yhxdu.woff?t=1630033759944") format("woff"), url("//at.alicdn.com/t/font_1031158_u69w8yhxdu.ttf?t=1630033759944") format("truetype"); }
</style></defs><path d="M605.836 229.178H422.74V128.832c0-15.256 12.368-27.624 27.624-27.624h127.848c15.256 0 27.624 12.368 27.624 27.624z" fill="#918291" p-id="8972"></path><path d="M605.844 128.834v100.342h-41.36V128.834c0-15.248-12.378-27.626-27.626-27.626h41.36c15.248-0.002 27.626 12.378 27.626 27.626z" fill="#7A6D79" p-id="8973"></path><path d="M512 594.686m-414.364 0a414.364 414.364 0 1 0 828.728 0 414.364 414.364 0 1 0-828.728 0Z" fill="#EE6161" p-id="8974"></path><path d="M926.362 594.68c0 228.848-185.514 414.362-414.362 414.362-59.978 0-116.986-12.736-168.452-35.68 41.58 14.032 86.15 21.628 132.472 21.628 228.848 0 414.382-185.514 414.382-414.362 0-168.85-100.998-314.1-245.85-378.662C808.4 257.26 926.362 412.196 926.362 594.68z" fill="#E94444" p-id="8975"></path><path d="M804.95 301.65a64.04 64.04 0 0 1-31.394 8.172c-19.028 0-36.118-8.286-47.886-21.436a5.928 5.928 0 0 0-8.834 0c-11.768 13.15-28.86 21.436-47.906 21.436-19.03 0-36.118-8.286-47.886-21.436a5.928 5.928 0 0 0-8.834 0c-11.768 13.15-28.86 21.436-47.906 21.436-19.03 0-36.118-8.286-47.886-21.436a5.928 5.928 0 0 0-8.834 0c-11.768 13.15-28.858 21.436-47.886 21.436-19.046 0-36.138-8.286-47.906-21.436a5.928 5.928 0 0 0-8.834 0c-11.768 13.15-28.858 21.436-47.886 21.436-19.046 0-36.138-8.286-47.906-21.436a5.928 5.928 0 0 0-8.834 0c-11.768 13.15-28.858 21.436-47.886 21.436a64.04 64.04 0 0 1-31.394-8.172C294.016 226.684 397.606 180.32 512 180.32s217.984 46.364 292.95 121.33z" fill="#F3F0F3" p-id="8976"></path><path d="M804.95 301.65a64.102 64.102 0 0 1-16.744 6.498c-39.328-45.028-88.222-81.446-143.536-106.122 0.08 0.02 0.14 0.04 0.2 0.06 0.618 0.2 1.216 0.418 1.814 0.618 1.416 0.478 2.83 0.976 4.246 1.494 3.31 1.212 6.63 2.382 9.926 3.668a544.436 544.436 0 0 1 18.558 7.674c20.182 8.744 39.512 19.44 58.042 31.432 15.58 10.082 30.098 21.048 44.212 33.128a411.124 411.124 0 0 1 23.282 21.55z" fill="#E2DEE2" p-id="8977"></path><path d="M804.95 887.712a64.04 64.04 0 0 0-31.394-8.172c-19.028 0-36.118 8.286-47.886 21.436a5.928 5.928 0 0 1-8.834 0c-11.768-13.15-28.86-21.436-47.906-21.436-19.03 0-36.118 8.286-47.886 21.436a5.928 5.928 0 0 1-8.834 0c-11.768-13.15-28.86-21.436-47.906-21.436-19.03 0-36.118 8.286-47.886 21.436a5.928 5.928 0 0 1-8.834 0c-11.768-13.15-28.858-21.436-47.886-21.436-19.046 0-36.138 8.286-47.906 21.436a5.928 5.928 0 0 1-8.834 0c-11.768-13.15-28.858-21.436-47.886-21.436-19.046 0-36.138 8.286-47.906 21.436a5.928 5.928 0 0 1-8.834 0c-11.768-13.15-28.858-21.436-47.886-21.436a64.04 64.04 0 0 0-31.394 8.172c74.966 74.966 178.558 121.33 292.95 121.33s217.982-46.364 292.948-121.33z" fill="#F3F0F3" p-id="8978"></path><path d="M804.95 887.712c-1.594 1.594-3.21 3.17-4.824 4.744-8.654 8.44-17.548 16.204-26.948 23.9a401.22 401.22 0 0 1-25.434 19.136c-26.176 18.158-55.188 34.086-85.054 45.286-15.666 5.876-31.462 11.136-47.658 15.348a382.7 382.7 0 0 1-34.802 7.316c-10.932 1.78-21.826 3.192-32.85 4.106-10.13 0.84-19.834 1.296-30.018 1.456a398.96 398.96 0 0 1-49.094-2.252c-9.89-1.078-19.832-2.348-29.6-4.186-4.1-0.772-8.146-1.51-12.194-2.39-5.658-1.228-11.342-2.48-16.968-3.91a409.156 409.156 0 0 1-53.102-17.44 332.306 332.306 0 0 1-9.886-4.166c-0.638-0.26-1.276-0.538-1.894-0.838a7.772 7.772 0 0 1-0.916-0.398c41.54 13.992 86.05 21.568 132.314 21.568 110.826 0 211.486-43.514 285.836-114.374a62.744 62.744 0 0 1 11.7-1.076 64.016 64.016 0 0 1 31.392 8.17z" fill="#E2DEE2" p-id="8979"></path><path d="M922.016 534.584a70.766 70.766 0 0 1-8.252 0.478c-21.066 0-39.966-9.258-52.89-23.922a5.976 5.976 0 0 0-8.994 0c-12.924 14.664-31.826 23.922-52.91 23.922-21.066 0-39.966-9.258-52.89-23.922a5.976 5.976 0 0 0-8.994 0c-12.924 14.664-31.824 23.922-52.89 23.922-21.082 0-39.986-9.258-52.91-23.922a5.976 5.976 0 0 0-8.994 0c-12.924 14.664-31.824 23.922-52.89 23.922-21.084 0-39.986-9.258-52.91-23.922a5.976 5.976 0 0 0-8.994 0c-12.924 14.664-31.826 23.922-52.91 23.922-21.064 0-39.966-9.258-52.89-23.922a5.976 5.976 0 0 0-8.994 0c-12.924 14.664-31.826 23.922-52.91 23.922-21.066 0-39.966-9.258-52.89-23.922a5.976 5.976 0 0 0-8.994 0c-12.924 14.664-31.824 23.922-52.89 23.922-21.082 0-39.986-9.258-52.91-23.922a5.976 5.976 0 0 0-8.994 0c-12.924 14.664-31.824 23.922-52.89 23.922-2.79 0-5.542-0.16-8.252-0.478a410.204 410.204 0 0 1 36.338-119.138 70.958 70.958 0 0 1 24.864 18.17c2.37 2.696 6.56 2.626 8.934-0.068 12.924-14.664 31.826-23.924 52.91-23.924 21.066 0 39.966 9.258 52.89 23.922a5.976 5.976 0 0 0 8.994 0c12.924-14.664 31.824-23.922 52.89-23.922 21.082 0 39.986 9.258 52.91 23.922a5.976 5.976 0 0 0 8.994 0c12.924-14.664 31.824-23.922 52.89-23.922 21.084 0 39.986 9.258 52.91 23.922a5.976 5.976 0 0 0 8.994 0c12.924-14.664 31.826-23.922 52.91-23.922 21.064 0 39.966 9.258 52.89 23.922a5.976 5.976 0 0 0 8.994 0c12.924-14.664 31.826-23.922 52.91-23.922 21.066 0 39.966 9.258 52.89 23.922a5.976 5.976 0 0 0 8.994 0c12.924-14.664 31.824-23.922 52.89-23.922 21.084 0 39.986 9.26 52.91 23.924 2.372 2.692 6.564 2.762 8.934 0.068a70.94 70.94 0 0 1 24.864-18.17 410.204 410.204 0 0 1 36.338 119.138z" fill="#F3F0F3" p-id="8980"></path><path d="M922.016 534.584a70.766 70.766 0 0 1-8.252 0.478 69.96 69.96 0 0 1-26.45-5.142 410.908 410.908 0 0 0-24.558-98.388 70.826 70.826 0 0 1 22.924-16.084c2.24 4.664 4.312 9.274 6.418 14.012 7.612 17.126 13.424 33.966 18.558 51.844 4.164 14.504 7.594 30.13 10.066 44.948 0.45 2.704 0.904 5.56 1.294 8.332z" fill="#E2DEE2" p-id="8981"></path><path d="M922.016 654.798a410.5 410.5 0 0 1-36.338 119.118 70.96 70.96 0 0 1-24.866-18.156c-2.37-2.694-6.558-2.624-8.93 0.066-12.924 14.65-31.826 23.91-52.91 23.91-21.066 0-39.968-9.26-52.892-23.91a5.978 5.978 0 0 0-8.99 0c-12.924 14.65-31.824 23.91-52.89 23.91-21.084 0-39.988-9.26-52.91-23.91a5.978 5.978 0 0 0-8.99 0c-12.924 14.65-31.826 23.91-52.892 23.91-21.084 0-39.988-9.26-52.912-23.91a5.978 5.978 0 0 0-8.99 0c-12.924 14.65-31.828 23.91-52.912 23.91-21.066 0-39.968-9.26-52.892-23.91a5.978 5.978 0 0 0-8.99 0c-12.924 14.65-31.828 23.91-52.91 23.91-21.066 0-39.968-9.26-52.89-23.91a5.978 5.978 0 0 0-8.99 0c-12.924 14.65-31.826 23.91-52.892 23.91-21.084 0-39.986-9.26-52.91-23.91-2.372-2.69-6.562-2.76-8.93-0.066a70.96 70.96 0 0 1-24.866 18.156 410.5 410.5 0 0 1-36.338-119.118 70.766 70.766 0 0 1 8.252-0.478c21.066 0 39.968 9.26 52.892 23.91a5.978 5.978 0 0 0 8.99 0c12.924-14.65 31.828-23.91 52.912-23.91 21.066 0 39.968 9.26 52.892 23.91a5.978 5.978 0 0 0 8.99 0c12.924-14.65 31.824-23.91 52.89-23.91 21.084 0 39.988 9.26 52.91 23.91a5.978 5.978 0 0 0 8.99 0c12.924-14.65 31.826-23.91 52.892-23.91 21.084 0 39.988 9.26 52.912 23.91a5.978 5.978 0 0 0 8.99 0c12.924-14.65 31.828-23.91 52.912-23.91 21.066 0 39.968 9.26 52.892 23.91a5.978 5.978 0 0 0 8.99 0c12.924-14.65 31.828-23.91 52.91-23.91 21.066 0 39.968 9.26 52.89 23.91a5.978 5.978 0 0 0 8.99 0c12.924-14.65 31.826-23.91 52.892-23.91 21.084 0 39.988 9.26 52.912 23.91a5.978 5.978 0 0 0 8.99 0c12.924-14.65 31.824-23.91 52.892-23.91 2.786 0 5.538 0.158 8.248 0.478z" fill="#F3F0F3" p-id="8982"></path><path d="M922.016 654.798c-0.358 2.512-0.758 5.022-1.156 7.534-0.796 5.01-1.72 10-2.738 14.976a422.084 422.084 0 0 1-20.126 68.304 368.266 368.266 0 0 1-6.2 14.99 423.61 423.61 0 0 1-6.12 13.314 71.036 71.036 0 0 1-24.876-18.158c-2.352-2.69-6.558-2.612-8.93 0.06-0.16 0.18-0.32 0.358-0.478 0.518a410.518 410.518 0 0 0 31.094-94.7 70.046 70.046 0 0 1 31.274-7.316c2.794 0 5.546 0.158 8.256 0.478z" fill="#E2DEE2" p-id="8983"></path><path d="M512 594.686m-214.826 0a214.826 214.826 0 1 0 429.652 0 214.826 214.826 0 1 0-429.652 0Z" fill="#6ED5A1" p-id="8984"></path><path d="M726.834 594.68c0 118.66-96.196 214.834-214.834 214.834-59.578 0-113.496-24.258-152.406-63.446 34.144 22.942 75.266 36.298 119.496 36.298 118.64 0 214.814-96.176 214.814-214.834 0-59.06-23.82-112.54-62.41-151.368 57.488 38.53 95.34 104.108 95.34 178.516z" fill="#46CC8D" p-id="8985"></path><path d="M89.864 862.776c-5.008 19.164-19.04 53.108-56.74 64.188-2.57 0.756-2.57 4.426 0 5.18 37.7 11.08 51.732 45.026 56.74 64.188 0.704 2.696 4.532 2.696 5.236 0 5.008-19.164 19.04-53.108 56.74-64.188 2.57-0.756 2.57-4.426 0-5.18-37.7-11.08-51.732-45.026-56.74-64.188-0.704-2.696-4.532-2.696-5.236 0zM928.9 193.038c-5.008 19.164-19.04 53.108-56.74 64.188-2.57 0.756-2.57 4.426 0 5.18 37.7 11.08 51.732 45.026 56.74 64.188 0.704 2.696 4.532 2.696 5.236 0 5.008-19.164 19.04-53.108 56.74-64.188 2.57-0.756 2.57-4.426 0-5.18-37.7-11.08-51.732-45.026-56.74-64.188-0.704-2.696-4.532-2.696-5.236 0z" fill="#FEE45A" p-id="8986"></path><path d="M990.884 262.402c-37.712 11.082-51.746 45.028-56.748 64.184-0.698 2.712-4.524 2.712-5.242 0-2.79-10.664-8.372-25.932-19.294-39.268 6.1-17.68 19.016-41.32 45.886-52.602 8.512 9.608 19.972 17.98 35.4 22.504 2.568 0.758 2.568 4.426-0.002 5.182zM151.84 932.14c-37.712 11.082-51.746 45.028-56.748 64.184-0.698 2.712-4.524 2.712-5.242 0-2.79-10.664-8.372-25.932-19.294-39.268 6.1-17.68 19.016-41.32 45.886-52.602 8.512 9.608 19.972 17.98 35.4 22.504 2.568 0.756 2.568 4.424-0.002 5.182z" fill="#FED402" p-id="8987"></path><path d="M526.486 471.492l27.592 55.908a16.15 16.15 0 0 0 12.162 8.836l61.698 8.966c13.25 1.926 18.54 18.208 8.952 27.554l-44.644 43.518a16.154 16.154 0 0 0-4.646 14.298l10.54 61.448c2.264 13.196-11.588 23.26-23.438 17.028l-55.184-29.012a16.154 16.154 0 0 0-15.034 0l-55.184 29.012c-11.85 6.23-25.702-3.832-23.438-17.028l10.54-61.448a16.154 16.154 0 0 0-4.646-14.298l-44.644-43.518c-9.588-9.346-4.296-25.628 8.952-27.554l61.698-8.966a16.152 16.152 0 0 0 12.162-8.836l27.592-55.908c5.924-12.006 23.044-12.006 28.97 0z" fill="#FEE97D" p-id="8988"></path><path d="M592.25 616.268a16.174 16.174 0 0 0-4.644 14.312l10.524 61.432c2.272 13.196-11.58 23.262-23.42 17.042l-29.68-15.608c6.258-2.85 10.644-9.588 9.288-17.462l-10.524-61.452a16.092 16.092 0 0 1 4.644-14.292l44.63-43.514c4.624-4.504 5.78-10.624 4.266-15.966l30.596 4.444c13.256 1.914 18.558 18.198 8.97 27.546z" fill="#FEDF30" p-id="8989"></path><path d="M995.09 242.884c-30.608-8.996-42.266-37.46-46.492-53.626-2.028-7.768-9.054-13.192-17.08-13.192s-15.052 5.426-17.082 13.192c-4.226 16.166-15.884 44.63-46.494 53.626-7.572 2.226-12.66 9.03-12.66 16.934 0 7.9 5.088 14.706 12.662 16.93 30.606 8.996 42.266 37.46 46.492 53.626a17.658 17.658 0 0 0 34.162 0c4.226-16.166 15.886-44.63 46.494-53.626 7.572-2.224 12.66-9.03 12.66-16.93 0-7.902-5.088-14.708-12.662-16.934z m-63.572 50.164c-6.658-11.918-16.228-24-29.934-33.232 13.706-9.23 23.276-21.312 29.934-33.23 6.66 11.92 16.226 24 29.934 33.232-13.706 9.228-23.276 21.31-29.934 33.23zM156.056 912.622c-30.61-8.998-42.266-37.46-46.49-53.626-2.03-7.768-9.054-13.192-17.082-13.192s-15.052 5.424-17.082 13.192c-4.224 16.166-15.88 44.628-46.492 53.626-7.572 2.226-12.66 9.03-12.66 16.934s5.088 14.708 12.662 16.934c30.61 8.998 42.268 37.46 46.492 53.626 2.03 7.768 9.054 13.192 17.082 13.192s15.052-5.424 17.082-13.192c4.224-16.166 15.882-44.628 46.492-53.626 7.572-2.226 12.66-9.03 12.66-16.934s-5.092-14.708-12.664-16.934z m-63.574 50.164c-6.658-11.92-16.226-24-29.934-33.232 13.708-9.23 23.276-21.31 29.934-33.23 6.66 11.92 16.226 24 29.936 33.23-13.71 9.232-23.276 21.312-29.936 33.232zM815.5 291.186c-40.102-40.218-87.876-72.266-140.354-93.824-4.766-1.958-54.36-17.31-54.36-18.136V128.832c0-23.066-18.45-41.864-41.362-42.514v-18.896C579.424 30.246 549.178 0 512 0s-67.422 30.246-67.422 67.422v19.276c-20.74 2.838-36.786 20.626-36.786 42.134V178.04a424.804 424.804 0 0 0-108.456 43.5c-35.866 20.518-67.328 45.096-95.994 74.802a436.23 436.23 0 0 0-43.706 53.108c-26.076 37.342-46.272 78.8-59.234 122.476-11.808 39.788-17.714 81.264-17.714 122.76 0 114.674 44.656 222.486 125.744 303.57C289.516 979.344 397.326 1024 512 1024s222.484-44.656 303.572-125.744c81.088-81.086 125.744-188.896 125.744-303.57 0-38.104-4.972-76.198-14.938-112.982-19.494-71.944-58.436-137.926-110.878-190.518z m56.544 152.302a56.024 56.024 0 0 1 6.848-6.56 395.71 395.71 0 0 1 25.358 82.36 55.672 55.672 0 0 1-32.162-18.036 20.964 20.964 0 0 0-15.714-7.102 20.96 20.96 0 0 0-15.708 7.104 55.608 55.608 0 0 1-41.694 18.858 55.596 55.596 0 0 1-41.674-18.856 20.95 20.95 0 0 0-15.712-7.106 20.96 20.96 0 0 0-15.712 7.104c-0.856 0.972-1.752 1.896-2.668 2.798a229.452 229.452 0 0 0-54.222-77.318 55.196 55.196 0 0 1 15.216-2.162 55.594 55.594 0 0 1 41.674 18.856c3.98 4.516 9.706 7.106 15.712 7.106s11.734-2.59 15.71-7.104a55.596 55.596 0 0 1 41.676-18.858 55.62 55.62 0 0 1 41.696 18.858 20.994 20.994 0 0 0 15.746 7.12h0.008a20.82 20.82 0 0 0 15.622-7.062zM474.476 67.422c0-20.69 16.834-37.524 37.524-37.524s37.524 16.834 37.524 37.524v18.834h-75.048z m-36.788 61.41a12.69 12.69 0 0 1 12.676-12.676h127.848a12.69 12.69 0 0 1 12.674 12.676v43.756A434.02 434.02 0 0 0 512 165.368a434.492 434.492 0 0 0-74.31 6.37V128.832zM512 195.268c98.166 0 190.916 35.168 263.862 99.55-14.722 0.73-29.178-5.368-39.052-16.402-3.956-4.418-9.626-6.954-15.558-6.954s-11.602 2.534-15.556 6.954a49.412 49.412 0 0 1-36.766 16.456 49.384 49.384 0 0 1-36.746-16.456c-3.956-4.418-9.626-6.954-15.558-6.954s-11.602 2.534-15.556 6.956a49.406 49.406 0 0 1-36.766 16.454 49.388 49.388 0 0 1-36.746-16.456 20.908 20.908 0 0 0-15.556-6.954 20.9 20.9 0 0 0-15.558 6.954 49.384 49.384 0 0 1-36.746 16.456 49.408 49.408 0 0 1-36.766-16.456c-3.956-4.418-9.626-6.954-15.556-6.954s-11.602 2.534-15.556 6.954a49.388 49.388 0 0 1-36.748 16.456 49.408 49.408 0 0 1-36.766-16.456 20.908 20.908 0 0 0-15.556-6.954 20.9 20.9 0 0 0-15.558 6.954c-9.874 11.036-24.336 17.132-39.052 16.402 72.942-64.38 165.692-99.55 263.86-99.55z m-289.352 124.436a79.422 79.422 0 0 0 27.796 5.068c19.318 0 37.92-7.106 52.304-19.752a79.34 79.34 0 0 0 52.322 19.752 79.312 79.312 0 0 0 52.304-19.752 79.34 79.34 0 0 0 52.324 19.752c19.318 0 37.92-7.106 52.304-19.752a79.306 79.306 0 0 0 52.302 19.752 79.336 79.336 0 0 0 52.324-19.752 79.308 79.308 0 0 0 52.304 19.752 79.344 79.344 0 0 0 52.324-19.752 79.312 79.312 0 0 0 52.304 19.752c9.516 0 18.942-1.756 27.796-5.068a401.744 401.744 0 0 1 64.422 89.776 86.81 86.81 0 0 0-9.394 7.372 85.486 85.486 0 0 0-57.41-22.178 85.47 85.47 0 0 0-57.386 22.174 85.458 85.458 0 0 0-57.386-22.174 85.314 85.314 0 0 0-41.602 10.85 230.042 230.042 0 0 0-58.196-28.972c-7.826-2.608-16.296 1.646-18.896 9.482s1.644 16.296 9.482 18.896c81.878 27.164 136.89 103.42 136.89 189.754 0 110.214-89.664 199.878-199.876 199.878s-199.876-89.664-199.876-199.878c0-109.476 89.05-199.138 198.508-199.872a14.952 14.952 0 0 0 14.85-15.048 14.948 14.948 0 0 0-14.948-14.85h-0.102c-46.766 0.312-91.34 14.534-128.992 40.64a85.332 85.332 0 0 0-41.636-10.878 85.454 85.454 0 0 0-57.386 22.174 85.472 85.472 0 0 0-57.386-22.174 85.492 85.492 0 0 0-57.41 22.178 86.714 86.714 0 0 0-9.398-7.362 401.46 401.46 0 0 1 64.42-89.788z m-77.538 117.226a55.76 55.76 0 0 1 6.85 6.562 20.826 20.826 0 0 0 15.622 7.062h0.006c6.02 0 11.76-2.596 15.744-7.12a55.612 55.612 0 0 1 41.696-18.858 55.586 55.586 0 0 1 41.674 18.86c3.98 4.514 9.706 7.104 15.712 7.104s11.732-2.588 15.712-7.104a55.588 55.588 0 0 1 41.674-18.858c5.252 0 10.416 0.768 15.368 2.2-2.08 1.946-4.14 3.922-6.16 5.954-20.742 20.872-36.98 45.04-48.256 71.304-0.904-0.894-1.78-1.818-2.626-2.778-3.98-4.514-9.706-7.104-15.712-7.104s-11.732 2.59-15.712 7.104a55.588 55.588 0 0 1-41.674 18.858 55.614 55.614 0 0 1-41.696-18.86c-3.978-4.514-9.706-7.104-15.712-7.104s-11.73 2.59-15.712 7.104a55.654 55.654 0 0 1-32.16 18.032 395.904 395.904 0 0 1 25.362-82.358z m-32.526 157.756c0-15.156 0.878-30.108 2.532-44.83a85.474 85.474 0 0 0 52.508-22.018 85.502 85.502 0 0 0 57.406 22.174 85.454 85.454 0 0 0 57.386-22.174 85.4 85.4 0 0 0 7.84 6.298 230.908 230.908 0 0 0-8.03 60.548c0 20.954 2.836 41.254 8.114 60.556-2.744 1.946-5.412 4.016-7.924 6.292a85.5 85.5 0 0 0-57.386-22.164 85.528 85.528 0 0 0-57.406 22.164 85.54 85.54 0 0 0-52.508-22.008 401.89 401.89 0 0 1-2.532-44.838z m39.382 151.2a56.014 56.014 0 0 1-6.87 6.57 395.968 395.968 0 0 1-22.242-67.588l-0.036-0.154c-1.048-4.578-2.688-9.824-2.938-14.488 11.94 0.814 24.328 9.152 32.036 17.89 3.978 4.514 9.704 7.102 15.708 7.102s11.73-2.586 15.706-7.098a55.644 55.644 0 0 1 41.702-18.85c15.92 0 31.112 6.872 41.68 18.85 3.98 4.51 9.704 7.098 15.706 7.098s11.728-2.586 15.706-7.098c0.874-0.992 1.788-1.938 2.724-2.858 12.676 29.438 31.334 55.712 54.436 77.292a55.266 55.266 0 0 1-15.48 2.232 55.626 55.626 0 0 1-41.684-18.856 20.96 20.96 0 0 0-15.702-7.09c-6 0-11.724 2.584-15.706 7.096a55.614 55.614 0 0 1-41.68 18.85 55.656 55.656 0 0 1-41.7-18.848 21.004 21.004 0 0 0-15.756-7.112 20.812 20.812 0 0 0-15.61 7.06z m649.412 123.78a79.438 79.438 0 0 0-27.822-5.078 79.312 79.312 0 0 0-52.304 19.752 79.34 79.34 0 0 0-52.324-19.752c-19.32 0-37.92 7.106-52.304 19.752a79.336 79.336 0 0 0-52.324-19.752 79.306 79.306 0 0 0-52.302 19.752 79.308 79.308 0 0 0-52.304-19.752 79.332 79.332 0 0 0-52.32 19.75 79.592 79.592 0 0 0-8.83-6.744 14.95 14.95 0 0 0-16.446 24.972 49.838 49.838 0 0 1 9.716 8.378c3.956 4.418 9.626 6.954 15.556 6.954s11.602-2.534 15.556-6.954a49.412 49.412 0 0 1 36.768-16.456 49.384 49.384 0 0 1 36.746 16.456c3.956 4.418 9.626 6.954 15.558 6.954s11.602-2.534 15.556-6.954a49.388 49.388 0 0 1 36.746-16.456 49.4 49.4 0 0 1 36.766 16.456 20.908 20.908 0 0 0 15.556 6.954c5.934 0 11.604-2.534 15.558-6.956a49.38 49.38 0 0 1 36.746-16.454 49.404 49.404 0 0 1 36.766 16.456c3.956 4.418 9.626 6.954 15.556 6.954s11.602-2.534 15.558-6.954c9.804-10.958 24.114-17.014 38.742-16.408-70.372 61.944-162.644 99.566-263.548 99.566s-193.174-37.622-263.548-99.564c14.608-0.62 28.934 5.452 38.738 16.408 3.956 4.418 9.626 6.954 15.558 6.954s11.602-2.534 15.556-6.954a49.496 49.496 0 0 1 12.4-10.024 14.948 14.948 0 1 0-14.806-25.974 79.256 79.256 0 0 0-13.156 9.392 79.292 79.292 0 0 0-52.298-19.748c-9.526 0-18.958 1.76-27.82 5.076A401.516 401.516 0 0 1 158.26 779.98c2.896-2.058 6.812-5.15 9.362-7.458a85.544 85.544 0 0 0 57.408 22.166c21.3 0 41.74-7.982 57.386-22.164a85.5 85.5 0 0 0 57.386 22.164 85.372 85.372 0 0 0 41.764-10.944c37.08 25.662 82.028 40.722 130.434 40.722s93.354-15.06 130.432-40.72a85.364 85.364 0 0 0 41.766 10.944 85.5 85.5 0 0 0 57.386-22.164 85.502 85.502 0 0 0 57.386 22.164 85.54 85.54 0 0 0 57.408-22.166 86.848 86.848 0 0 0 9.408 7.38 401.494 401.494 0 0 1-64.408 89.762z m101.866-195.624c-2.32 11.428-4.83 22.574-8.158 33.796a398.348 398.348 0 0 1-16.18 44.618 55.814 55.814 0 0 1-6.868-6.566 20.824 20.824 0 0 0-15.626-7.064 20.992 20.992 0 0 0-15.738 7.11 55.646 55.646 0 0 1-41.7 18.85 55.624 55.624 0 0 1-41.682-18.854 20.96 20.96 0 0 0-15.704-7.092 20.958 20.958 0 0 0-15.706 7.094 55.62 55.62 0 0 1-41.682 18.852 55.3 55.3 0 0 1-15.462-2.248c23.092-21.576 41.744-47.844 54.416-77.272 0.934 0.918 1.852 1.86 2.726 2.85a20.952 20.952 0 0 0 15.708 7.102c6.002 0 11.728-2.586 15.704-7.098a55.628 55.628 0 0 1 41.682-18.85 55.648 55.648 0 0 1 41.698 18.846 20.956 20.956 0 0 0 15.706 7.102c6.002 0 11.726-2.586 15.706-7.098a55.684 55.684 0 0 1 32.16-18.022c-0.158 0.028-0.548 1.718-1 3.944z m5.64-34.516a85.528 85.528 0 0 0-52.508 22.008 85.53 85.53 0 0 0-57.406-22.164 85.5 85.5 0 0 0-57.386 22.164c-2.512-2.276-5.182-4.338-7.926-6.284a229.254 229.254 0 0 0 8.116-60.564c0-20.832-2.82-41.14-8.094-60.536a83.87 83.87 0 0 0 7.904-6.312 85.46 85.46 0 0 0 57.386 22.174 85.48 85.48 0 0 0 57.406-22.174 85.49 85.49 0 0 0 52.508 22.018 401.268 401.268 0 0 1 2.532 44.83c0 15.16-0.878 30.116-2.532 44.84z" p-id="8990"></path><path d="M484.108 464.876l-27.592 55.906a1.202 1.202 0 0 1-0.906 0.66l-61.698 8.966c-11.802 1.714-21.422 9.824-25.108 21.166-3.684 11.342-0.67 23.56 7.87 31.884l44.648 43.52a1.196 1.196 0 0 1 0.344 1.064l-10.538 61.446c-2.016 11.754 2.724 23.41 12.372 30.42a30.992 30.992 0 0 0 18.254 5.974 31.14 31.14 0 0 0 14.502-3.604l55.184-29.012a1.182 1.182 0 0 1 1.12 0l55.186 29.012c10.552 5.55 23.106 4.64 32.754-2.37s14.388-18.664 12.372-30.418l-10.538-61.444a1.2 1.2 0 0 1 0.346-1.07l44.642-43.518c8.542-8.324 11.558-20.542 7.874-31.882-3.684-11.342-13.306-19.454-25.11-21.168l-61.696-8.966a1.196 1.196 0 0 1-0.906-0.66l-27.592-55.906c-5.278-10.694-15.966-17.338-27.892-17.338s-22.614 6.644-27.892 17.338z m28.97 13.232l27.592 55.908a31.1 31.1 0 0 0 23.418 17.014l61.698 8.966c0.294 0.042 0.742 0.108 0.972 0.82 0.232 0.71-0.092 1.024-0.306 1.234l-44.642 43.518a31.1 31.1 0 0 0-8.946 27.53l10.538 61.448c0.05 0.294 0.126 0.738-0.478 1.178-0.608 0.442-1.004 0.232-1.268 0.092l-55.184-29.01a31.07 31.07 0 0 0-28.948-0.002l-55.182 29.012c-0.266 0.136-0.664 0.348-1.27-0.092-0.604-0.44-0.528-0.884-0.478-1.178l10.538-61.446a31.088 31.088 0 0 0-8.944-27.53l-44.646-43.52c-0.214-0.208-0.536-0.524-0.304-1.234 0.23-0.71 0.676-0.776 0.972-0.82l61.698-8.966a31.102 31.102 0 0 0 23.418-17.014l27.592-55.908c0.132-0.268 0.33-0.672 1.08-0.672s0.95 0.404 1.08 0.672z" p-id="8991"></path></svg>