<?xml version="1.0" standalone="no"?><!DOCTYPE svg PUBLIC "-//W3C//DTD SVG 1.1//EN" "http://www.w3.org/Graphics/SVG/1.1/DTD/svg11.dtd"><svg t="1649679228801" class="icon" viewBox="0 0 1024 1024" version="1.1" xmlns="http://www.w3.org/2000/svg" p-id="8824" xmlns:xlink="http://www.w3.org/1999/xlink" width="200" height="200"><defs><style type="text/css">@font-face { font-family: "feedback-iconfont"; src: url("//at.alicdn.com/t/font_1031158_u69w8yhxdu.woff2?t=1630033759944") format("woff2"), url("//at.alicdn.com/t/font_1031158_u69w8yhxdu.woff?t=1630033759944") format("woff"), url("//at.alicdn.com/t/font_1031158_u69w8yhxdu.ttf?t=1630033759944") format("truetype"); }
</style></defs><path d="M254.40724 296.862l-80.54-26.438a13.252 13.252 0 0 0-16.726 8.46L16.38324 707.68c-2.016 6.14 2.456 12.488 8.916 12.658l86.438 2.272a9.66 9.66 0 0 1 5.26 1.726l70.968 49.398c5.304 3.692 12.668 1.23 14.684-4.912l140.756-428.798a13.252 13.252 0 0 0-8.46-16.726z" fill="#6ED5A1" p-id="8825"></path><path d="M343.40724 340.022l-140.754 428.81c-2.018 6.132-9.388 8.59-14.68 4.894l-23.768-16.538c0.68-0.858 1.218-1.858 1.598-2.976l140.754-428.81a13.17 13.17 0 0 0-1.998-12.064l30.38 9.966a13.24 13.24 0 0 1 8.468 16.718z" fill="#46CC8D" p-id="8826"></path><path d="M769.59924 296.862l80.54-26.438a13.252 13.252 0 0 1 16.726 8.46L1007.62324 707.68c2.016 6.14-2.456 12.488-8.916 12.658l-86.438 2.272a9.66 9.66 0 0 0-5.26 1.726l-70.968 49.398c-5.304 3.692-12.668 1.23-14.684-4.912l-140.756-428.798a13.252 13.252 0 0 1 8.46-16.726z" fill="#6ED5A1" p-id="8827"></path><path d="M998.69724 720.336l-28.822 0.758a9.38 9.38 0 0 0-0.46-3.436L828.64324 288.87a13.21 13.21 0 0 0-8.708-8.528l30.2-9.926c6.95-2.278 14.44 1.518 16.738 8.468l140.754 428.79c2.016 6.152-2.458 12.502-8.93 12.662z" fill="#46CC8D" p-id="8828"></path><path d="M512.00324 353.122h-84.768a13.254 13.254 0 0 0-13.254 13.254v451.308c0 6.462 6.228 11.1 12.42 9.246l82.834-24.8a9.66 9.66 0 0 1 5.536 0l82.834 24.8c6.192 1.854 12.42-2.784 12.42-9.246V366.376a13.254 13.254 0 0 0-13.254-13.254z" fill="#EE6161" p-id="8829"></path><path d="M610.03324 366.366v451.322c0 6.452-6.232 11.104-12.424 9.248l-27.584-8.268c0.04-0.32 0.06-0.66 0.06-0.978V366.366a13.25 13.25 0 0 0-13.262-13.242h39.946a13.252 13.252 0 0 1 13.264 13.242z" fill="#E94444" p-id="8830"></path><path d="M610.02524 471.848l-196.044 28.606v-71.696l196.044-28.608zM610.02524 603.078l-196.044 28.606v-71.698l196.044-28.606zM610.02524 734.306l-196.044 28.608v-71.698l196.044-28.606z" fill="#FEE97D" p-id="8831"></path><path d="M610.03324 400.142v71.704l-39.946 5.832v-71.704zM610.03324 531.388v71.684l-39.946 5.832V537.22zM610.03324 662.612v71.686l-39.946 5.832v-71.684z" fill="#FEDF30" p-id="8832"></path><path d="M893.35724 311.558c47.34-25.322 89.978-55.414 125.918-89.16a14.978 14.978 0 0 0 0.666-21.174 14.976 14.976 0 0 0-21.174-0.666c-32.872 30.864-71.742 58.538-114.904 82.08l-2.766-8.424a28.046 28.046 0 0 0-14.084-16.392 28.034 28.034 0 0 0-21.548-1.63l-161.078 52.876c-7.168 2.35-12.988 7.354-16.392 14.084s-3.982 14.384-1.63 21.548l4.044 12.318a797.684 797.684 0 0 1-45.522 7.076c-1.168-14.502-13.32-25.954-28.118-25.954h-169.536c-14.038 0-25.68 10.308-27.842 23.744a812.212 812.212 0 0 1-44.832-7.81l3.078-9.374a28.06 28.06 0 0 0-1.63-21.55 28.042 28.042 0 0 0-16.39-14.084l-161.076-52.874a28.048 28.048 0 0 0-21.552 1.628 28.056 28.056 0 0 0-14.084 16.39l-0.41 1.25c-44.494-25.642-84.03-55.746-116.796-89.286a14.98 14.98 0 0 0-21.432 20.936c35.998 36.848 79.612 69.708 128.698 97.38l-87.346 266.1a14.98 14.98 0 1 0 28.466 9.342l96.75-294.738 157.798 51.798-137.984 420.358-65.1-45.312a24.566 24.566 0 0 0-13.418-4.4l-79.284-2.084 19.528-59.494a14.98 14.98 0 0 0-28.466-9.342L2.15324 703.004a24.406 24.406 0 0 0 3.264 21.87 24.406 24.406 0 0 0 19.49 10.44l84.844 2.232 69.658 48.486a24.448 24.448 0 0 0 14.008 4.436c2.632 0 5.286-0.428 7.878-1.294a24.404 24.404 0 0 0 15.586-15.678l128.266-390.744a842.046 842.046 0 0 0 53.854 9.362v425.572c0 7.86 3.616 15.062 9.922 19.756a24.42 24.42 0 0 0 21.774 3.838L512.00324 816.938l81.308 24.342c2.358 0.708 4.758 1.056 7.136 1.056 5.208 0 10.306-1.672 14.636-4.894a24.412 24.412 0 0 0 9.922-19.756V394.272a828.12 828.12 0 0 0 54.834-8.54l127.286 387.762a24.412 24.412 0 0 0 15.586 15.678c2.592 0.866 5.246 1.294 7.878 1.294 4.938 0 9.8-1.506 14.01-4.438l69.656-48.484 84.844-2.232a24.408 24.408 0 0 0 19.49-10.44 24.416 24.416 0 0 0 3.266-21.866zM595.04524 810.526l-75.98-22.75a24.61 24.61 0 0 0-14.126 0.002l-75.978 22.748v-34.66l166.084-24.234z m0-89.174l-166.084 24.236v-41.418l166.084-24.236z m0-71.696l-166.084 24.234v-29.252l166.084-24.234z m0-59.532l-166.084 24.236v-41.42l166.084-24.236z m0-71.698l-166.084 24.234v-29.252l166.084-24.234z m0-131.228l-27.122 3.956a14.98 14.98 0 0 0 4.326 29.648l22.796-3.326v41.418l-166.084 24.236v-41.418l75.134-10.964a14.986 14.986 0 0 0 12.662-16.988c-1.198-8.188-8.81-13.84-16.988-12.662l-70.808 10.334V368.1h166.084z m316.836 320.438c-4.82 0.126-9.46 1.646-13.432 4.406l-65.092 45.308-137.984-420.356 157.798-51.798 137.986 420.356z" p-id="8833"></path></svg>