<?xml version="1.0" standalone="no"?><!DOCTYPE svg PUBLIC "-//W3C//DTD SVG 1.1//EN" "http://www.w3.org/Graphics/SVG/1.1/DTD/svg11.dtd"><svg t="1649680419778" class="icon" viewBox="0 0 1024 1024" version="1.1" xmlns="http://www.w3.org/2000/svg" p-id="1277" xmlns:xlink="http://www.w3.org/1999/xlink" width="200" height="200"><defs><style type="text/css">@font-face { font-family: "feedback-iconfont"; src: url("//at.alicdn.com/t/font_1031158_u69w8yhxdu.woff2?t=1630033759944") format("woff2"), url("//at.alicdn.com/t/font_1031158_u69w8yhxdu.woff?t=1630033759944") format("woff"), url("//at.alicdn.com/t/font_1031158_u69w8yhxdu.ttf?t=1630033759944") format("truetype"); }
</style></defs><path d="M512.22 935.17C298.36 935.17 125 761.8 125 547.95v-24.5c0-162.12 131.42-293.54 293.54-293.54h210.43c149.38 0 270.48 121.1 270.48 270.48v47.56c-0.01 213.85-173.37 387.22-387.23 387.22z" fill="#FA684A" p-id="1278"></path><path d="M837.31 327.93c12.8 31.45 19.99 65.78 19.99 101.83v47.56c0 213.86-173.36 387.22-387.22 387.22-126.75 0-238.92-61.17-309.56-155.31C221.73 842.46 356 935.17 512.22 935.17c213.86 0 387.22-173.36 387.22-387.22v-47.56c0-65.55-23.34-125.64-62.13-172.46z" fill="#EC5234" p-id="1279"></path><path d="M512.21 957.79c-225.96 0-409.81-183.85-409.81-409.86v-24.48c0-174.35 141.83-316.19 316.14-316.19h210.41c161.63 0 293.12 131.49 293.12 293.12v47.54c0 226.01-183.86 409.87-409.86 409.87z m-93.67-705.28c-149.39 0-270.9 121.55-270.9 270.94v24.48c0 201.04 163.53 364.61 364.57 364.61s364.61-163.57 364.61-364.61v-47.54c0-136.66-111.21-247.88-247.88-247.88h-210.4z" fill="#000000" p-id="1280"></path><path d="M260 587.3c-11.66 0-21.56-8.97-22.49-20.81-3.4-42.11 1.5-83.69 14.54-123.54 3.89-11.89 16.61-18.34 28.54-14.49 11.89 3.89 18.38 16.7 14.49 28.54-11.22 34.15-15.38 69.77-12.5 105.87 1.02 12.46-8.26 23.37-20.72 24.35-0.62 0.03-1.24 0.08-1.86 0.08z" fill="#FFFFFF" p-id="1281"></path><path d="M788.45 186.16v-0.18c-26.29-16.8-67.37-27.75-113.37-27.75-49.66 0-93.48 12.6-119.22 31.77L512.22 88.66l-43.63 101.33c-25.74-19.17-69.56-31.77-119.22-31.77-46.01 0-87.08 10.95-113.37 27.75v0.18c66.27 3.47 120.86 23 140.94 49.29-33.77 15.34-62.44 36.51-83.8 61.34a180.425 180.425 0 0 0-20.63 28.66c-12.6 22.09-20.27 46.19-21.54 71.39 4.02-5.11 8.4-10.22 12.96-14.97 4.93-4.93 10.04-9.68 15.52-14.24 13.88-11.5 30.12-21.73 48.2-31.04 3.65-1.64 7.49-3.47 11.32-5.29 7.49-3.29 15.34-6.57 23.37-9.49h0.18c4.2-1.46 8.4-2.92 12.6-4.2 12.41-4.02 25.56-7.67 39.25-10.59-12.96 28.3-20.63 62.26-20.63 98.95 0 11.58 1.01 22.7 2.47 33.58 1.77 13.41 4.34 26.4 8.05 38.51 2.3 7.56 4.93 14.83 7.92 21.75h0.54c0.43-2.17 0.97-4.52 1.49-6.83 0.62-2.72 1.27-5.48 2-8.34 0.48-1.88 0.91-3.73 1.44-5.64 0.33-1.23 0.76-2.57 1.15-3.85 1.68-5.78 3.52-11.71 5.74-17.91 0.34-0.96 0.69-1.89 1.03-2.86 2.42-6.54 5.3-13.35 8.41-20.24 0.09-0.2 0.2-0.4 0.29-0.6 0.79-1.75 1.63-3.65 2.54-5.56 3.21-6.71 6.87-13.56 10.85-20.47 0.71-1.24 1.37-2.44 2.13-3.73 3.47-6.21 7.67-12.6 12.05-18.99 0.36-0.55 0.73-1.28 1.28-1.83 0.29-0.57 0.76-1.08 1.15-1.62 3.07-4.27 6.15-8.49 9.31-12.45 0.29-0.36 0.59-0.73 0.87-1.09 3.06-3.81 6.17-7.37 9.29-10.9 0.48-0.55 1.01-1.14 1.48-1.69 0.55-0.55 1.1-1.1 1.46-1.64 2.09-2.27 4.19-4.52 6.28-6.63 0.14-0.15 0.28-0.3 0.43-0.44l1.51-1.51c1.46-1.83 3.1-3.47 4.75-4.75 3.75-3.91 7.5-7.3 11.25-10.6 0.45-0.4 0.92-0.87 1.37-1.26 2.54 2.21 5.1 4.68 7.65 7.06 1.7 1.62 3.4 3.03 5.1 4.8 0.94 0.86 1.82 1.83 2.74 2.74 1.96 1.96 3.91 4.01 5.86 6.08 2.67 2.78 5.3 5.69 7.89 8.68 1.96 2.24 3.92 4.52 5.86 6.88 2.22 2.52 4.29 5.24 6.37 8 2.42 3.13 4.82 6.3 7.19 9.62 0.63 0.87 1.25 1.66 1.88 2.55 0.2 0.28 0.38 0.58 0.58 0.86 4.14 6.07 7.99 11.99 11.47 17.9v0.04c21.36 35.97 31.95 70.29 37.24 96.21h0.36c11.68-27.02 18.44-59.33 18.44-93.84 0-36.7-7.67-70.65-20.63-98.95 18.07 3.83 35.42 8.76 51.67 14.79 4.02 1.28 8.03 2.92 12.05 4.56 15.88 6.21 30.49 13.51 43.82 21.54 16.43 10.04 30.67 21.36 42.54 33.78 2.37 2.37 4.75 4.93 6.76 7.48 2.37 2.56 4.38 5.11 6.39 7.67-1.28-25.19-8.76-49.29-21.54-71.2v-0.18c-5.66-10.22-12.6-19.72-20.45-28.85-21.54-24.83-50.21-45.82-83.8-61.16 19.88-26.27 74.46-45.81 140.74-49.27z" fill="#5DA723" p-id="1282"></path><path d="M612.46 522.44c-10.74 0-20.37-7.56-22.53-18.07-6.41-31.42-18.03-61.42-34.51-89.25-3.31-5.57-6.89-11.05-10.74-16.75-4.42-6.1-6.63-9.01-8.88-11.89-2.25-3-3.71-4.99-5.35-6.8l-5.92-6.98c-2.47-2.78-4.77-5.39-7.2-7.91l-5.04-5.21-1.41 1.41c-0.75 0.75-3.05 2.96-3.93 3.62l-3.67 4.29-20.68-10.7 17.01 14.93c-2.52 2.83-5.08 5.74-7.56 8.79-3.67 4.68-6.54 8.57-9.37 12.55-1.06 2.17-1.86 2.74-3.58 4.46-2.61 4.46-6.45 10.25-9.59 15.91-0.04 0.09-2.21 3.89-2.3 3.98-3.67 6.36-7.07 12.73-10.03 18.96-0.04 0-2.3 5.04-2.3 5.04-3.18 6.98-5.88 13.3-8.13 19.4-3.05 8.44-4.68 13.92-6.23 19.26l-11.05 0.66c0.53 1.5 1.1 3 1.68 4.46l7.38 1.86-3.67 15.86c-3.98 19.35-35.44 22.62-43.39 4.6-3.4-7.73-6.32-15.82-8.88-24.26-3.84-12.59-6.76-26.42-8.84-42.15-1.59-11.75-2.65-23.9-2.65-36.54 0-22.62 2.7-44.85 7.91-65.88-3.14 1.02-6.1 2.03-9.1 3.09-0.4 0.13-0.8 0.27-1.24 0.35-7.11 2.65-14.05 5.57-20.68 8.48l-11.05 5.21c-16.66 8.62-31.11 17.89-43.08 27.79-4.86 4.07-9.46 8.31-13.87 12.77-3.89 4.02-7.73 8.53-11.27 13.03-6.1 7.73-16.57 10.56-25.72 7.25-9.23-3.49-15.2-12.5-14.67-22.36 1.41-28.01 9.63-55.45 24.48-81.48 6.85-11.8 14.45-22.31 23.29-32.39 16.26-18.91 36.5-35.92 59.52-50.02-21.96-11.18-56.47-20.77-100.83-23.11-12.02-0.62-21.43-10.56-21.43-22.58 0-7.73 3.93-15.07 10.43-19.26 57.04-36.36 168.96-40.12 234.13-9.32l33.49-77.81c7.16-16.57 34.33-16.61 41.53-0.04l33.54 77.85c65.13-30.75 177.09-27.09 234.13 9.32 6.5 4.2 10.43 11.36 10.43 19.09 0 12.02-9.41 22.14-21.43 22.76-44.41 2.34-78.87 11.93-100.79 23.06 23.02 14.14 43.3 31.06 59.74 49.97 9.54 11.22 17.1 21.87 23.11 32.74 0.27 0.44 0.49 0.93 0.71 1.41 14.27 24.96 22.22 51.83 23.64 79.8 0.53 9.85-5.43 18.91-14.71 22.36-9.19 3.45-19.62 0.44-25.76-7.33-1.55-2.03-3.18-4.11-5.08-6.14-2.74-3.4-4.46-5.21-6.14-6.89-10.96-11.44-23.73-21.56-38.35-30.49-12.64-7.64-26.25-14.32-40.25-19.75-3.89-1.63-7.29-3.05-10.69-4.11-3.18-1.15-6.32-2.3-9.5-3.36 5.26 21.12 7.95 43.35 7.95 65.97 0 36.5-7.03 72.07-20.28 102.82a22.61 22.61 0 0 1-20.75 13.67zM414.38 284.41c6.8 0 13.3 3.05 17.67 8.48 5.35 6.67 6.45 15.82 2.87 23.59-12.15 26.42-18.56 57.4-18.56 89.47 0 3.89 0.13 7.73 0.35 11.53 3.45-7.16 7.25-14.18 11.36-21.3 5.79-10.25 10.34-17.28 15.11-24.21 0.22-0.35 0.57-0.84 1.02-1.41 0.66-1.06 1.46-2.17 2.03-2.87 2.87-4.06 6.19-8.57 9.54-12.81 3.89-4.86 6.85-8.26 9.81-11.58 0.31-0.4 3.27-3.76 3.62-4.11l7.56-8.09c3.05-3.49 5.88-6.32 8.88-8.66 1.86-2.3 6.1-6.14 10.38-9.85 8.48-7.47 22.53-8.66 31.15-1.24l6.05 5.57c4.9 4.51 6.58 6.1 8.35 7.95l8.53 8.7c2.7 2.78 5.61 6.01 8.48 9.32l6.14 7.25c1.9 2.08 4.11 4.99 6.36 7.95 3.09 4.02 5.74 7.47 8.26 11.09 0.22 0.27 2.47 3.36 2.65 3.67 4.46 6.54 8.57 12.86 12.28 19.13 4.95 8.31 9.5 16.83 13.7 25.49 0.18-3.84 0.27-7.69 0.27-11.53 0-31.99-6.41-62.96-18.6-89.52-3.53-7.78-2.43-16.88 2.92-23.55 5.3-6.67 14.01-9.68 22.31-8 19.26 4.02 37.69 9.32 54.88 15.69 3.62 1.15 8.26 3 12.9 4.95 14.67 5.66 29.34 12.77 43.3 20.9-3.36-4.9-7.25-9.94-11.66-15.11-19.31-22.27-45.64-41.4-76.04-55.27a22.64 22.64 0 0 1-12.5-15.07c-1.68-6.67-0.27-13.7 3.89-19.18 12.42-16.44 34.29-30.27 62.43-40.38-47.23-3.23-97.07 7.64-122.7 26.69-5.48 4.15-12.73 5.48-19.35 3.76a22.703 22.703 0 0 1-14.93-12.9l-22.89-53.11-22.84 53.07c-2.74 6.36-8.22 11.13-14.89 12.9-6.76 1.81-13.83 0.44-19.4-3.67-25.67-19.13-75.56-30.13-122.7-26.73 28.15 10.12 50.02 23.95 62.52 40.3 4.2 5.48 5.66 12.59 3.98 19.26a22.6 22.6 0 0 1-12.59 15.07c-30.35 13.79-56.64 32.96-76 55.5-4.42 5.04-8.4 10.12-12.02 15.46 5.96-3.58 12.33-7.07 19-10.52l8.84-4.15c11.66-5.21 20.02-8.7 28.5-11.8 0.62-0.22 1.24-0.44 1.86-0.57 4.02-1.41 8.04-2.78 12.06-4.02 12.73-4.11 26.69-7.95 41.14-11.05 1.59-0.3 3.18-0.48 4.72-0.48z m374.07-98.26h0.44-0.44z" fill="#000000" p-id="1283"></path></svg>