<?xml version="1.0" standalone="no"?><!DOCTYPE svg PUBLIC "-//W3C//DTD SVG 1.1//EN" "http://www.w3.org/Graphics/SVG/1.1/DTD/svg11.dtd"><svg t="1649681058968" class="icon" viewBox="0 0 1024 1024" version="1.1" xmlns="http://www.w3.org/2000/svg" p-id="108232" xmlns:xlink="http://www.w3.org/1999/xlink" width="200" height="200"><defs><style type="text/css">@font-face { font-family: "feedback-iconfont"; src: url("//at.alicdn.com/t/font_1031158_u69w8yhxdu.woff2?t=1630033759944") format("woff2"), url("//at.alicdn.com/t/font_1031158_u69w8yhxdu.woff?t=1630033759944") format("woff"), url("//at.alicdn.com/t/font_1031158_u69w8yhxdu.ttf?t=1630033759944") format("truetype"); }
</style></defs><path d="M677.570995 1006.710827c12.048093-173.363107 45.30019-254.152439 90.488526-302.272905H255.943674c45.204316 48.120466 78.440434 128.909799 90.440591 302.272905h331.18673z" fill="#1A93D6" p-id="108233"></path><path d="M598.147858 1006.710827c6.26373-173.363107 23.568882-254.152439 47.089827-302.272905h-266.448205c23.512956 48.120466 40.810118 128.909799 47.057868 302.272905h172.30051z" fill="#FFFFFF" p-id="108234"></path><path d="M413.527614 840.650079c31.470449 6.351614 64.466884 9.739141 98.477979 9.739141s67.007529-3.403506 98.485967-9.739141c8.604639-66.112711 20.53289-107.138544 34.746125-136.212157h-266.448205c14.205245 29.073614 26.141485 70.091457 34.738134 136.212157z" fill="#D9E7E8" p-id="108235"></path><path d="M677.586973 1018.695004a11.984177 11.984177 0 0 1-11.968198-12.81508c9.699194-139.631643 33.699506-230.655463 76.938417-289.457825H281.453993c43.246901 58.794373 67.231234 149.826183 76.89048 289.457825a11.984177 11.984177 0 0 1-11.129306 12.783122c-6.495424 0.655135-12.327724-4.51404-12.783122-11.129305-10.450202-150.848832-37.342696-241.792758-87.22883-294.890653a11.992167 11.992167 0 0 1 8.740459-20.189343h512.115847a11.984177 11.984177 0 0 1 8.74046 20.181354c-49.878145 53.113873-76.786618 144.065788-87.276767 294.898642a11.984177 11.984177 0 0 1-11.936241 11.161263z" fill="#33363A" p-id="108236"></path><path d="M905.158508 481.060849c0 165.189898-176.023594 299.133051-393.152915 299.133051-217.137311 0-393.152915-133.951143-393.152916-299.133051 0-165.221856 176.015604-363.192472 393.152916-363.192472 217.129321 0 393.152915 197.970617 393.152915 363.192472z" fill="#77D6FC" p-id="108237"></path><path d="M905.158508 481.060849c0 165.189898-176.023594 299.133051-393.152915 299.133051-217.137311 0-393.152915-133.951143-393.152916-299.133051 0-165.221856 176.015604-279.055559 393.152916-279.055559 217.129321 0 393.152915 113.833704 393.152915 279.055559z" fill="#42B1E8" p-id="108238"></path><path d="M595.719065 566.044644c0 11.129306-37.478517 13.126669-83.721462 13.126669s-83.721462-1.997363-83.721461-13.126669c0-11.145285 37.478517-40.242867 83.721461-40.242867s83.721462 29.097582 83.721462 40.242867z" fill="#77D6FC" p-id="108239"></path><path d="M905.158508 481.060849c0 165.189898-176.023594 303.127777-393.152915 303.127777-217.137311 0-393.152915-137.945868-393.152916-303.127777 0-165.237834 50.021955 146.526539 393.152916 146.52654 343.12297 0 393.152915-311.764374 393.152915-146.52654z" fill="#1A93D6" p-id="108240"></path><path d="M302.546145 746.150848a11.984177 11.984177 0 0 1-5.177165-1.17445c-119.290499-57.292356-190.50048-155.946102-190.50048-263.907559 0-169.935632 180.713402-375.17665 405.137093-375.17665s405.137092 205.241018 405.137092 375.17665c0 107.977436-71.21797 206.623193-190.50048 263.89158a11.984177 11.984177 0 0 1-10.378297-21.611466c110.773744-53.177789 176.910423-143.7542 176.910423-242.280114 0-159.077967-170.023516-351.208295-381.168738-351.208295S130.836854 321.982882 130.836854 481.060849c0 98.525915 66.128689 189.102326 176.910423 242.296094a11.984177 11.984177 0 0 1-5.201132 22.793905z" fill="#33363A" p-id="108241"></path><path d="M382.880079 519.538047a64.315084 64.315084 0 0 1-64.339053 64.323074 64.315084 64.315084 0 1 1 0-128.646147 64.331063 64.331063 0 0 1 64.339053 64.323073z" fill="#465652" p-id="108242"></path><path d="M286.559252 498.629653m-26.21339 0a26.21339 26.21339 0 1 0 52.42678 0 26.21339 26.21339 0 1 0-52.42678 0Z" fill="#FFFFFF" p-id="108243"></path><path d="M318.541026 443.230797c-25.885823 0-48.767612 12.982859-62.565394 32.748761a37.846031 37.846031 0 0 0-2.396835 3.723085 75.755978 75.755978 0 0 0-11.345021 39.827415c0 42.080441 34.22681 76.307251 76.30725 76.307251 42.08843 0 76.323229-34.22681 76.32323-76.307251s-34.234799-76.299261-76.32323-76.299261z m0 128.646147a52.394822 52.394822 0 0 1-48.304223-32.229447c5.496743-0.14381 12.183913-1.59789 19.717966-3.163823 2.684456-0.239684 5.273038-0.743019 7.765747-1.517996 6.535371-1.182439 13.526141-2.133184 20.82051-2.133183 19.278546 0 36.527772 6.495424 48.320203 6.815002a52.418791 52.418791 0 0 1-48.320203 32.229447z" fill="#33363A" p-id="108244"></path><path d="M286.551263 498.637642m-14.221224 0a14.221224 14.221224 0 1 0 28.442447 0 14.221224 14.221224 0 1 0-28.442447 0Z" fill="#FFFFFF" p-id="108245"></path><path d="M769.785243 519.538047a64.307095 64.307095 0 0 1-64.323074 64.323074 64.315084 64.315084 0 0 1-64.331062-64.323074 64.315084 64.315084 0 0 1 64.331062-64.323073 64.315084 64.315084 0 0 1 64.323074 64.323073z" fill="#465652" p-id="108246"></path><path d="M673.464417 498.629653m-26.205401 0a26.205401 26.205401 0 1 0 52.410801 0 26.205401 26.205401 0 1 0-52.410801 0Z" fill="#FFFFFF" p-id="108247"></path><path d="M705.462169 443.230797c-25.869844 0-48.743643 12.96688-62.549415 32.716803a38.381325 38.381325 0 0 0-2.444772 3.79499 75.716031 75.716031 0 0 0-11.321053 39.795457c0 42.080441 34.234799 76.307251 76.31524 76.307251s76.307251-34.22681 76.307251-76.307251-34.234799-76.307251-76.307251-76.30725z m0 128.646147a52.410801 52.410801 0 0 1-48.312212-32.229447c5.496743-0.14381 12.183913-1.59789 19.725955-3.163823 2.676466-0.239684 5.257059-0.743019 7.749768-1.510006 6.543361-1.182439 13.534131-2.141173 20.844479-2.141173 19.270557 0 36.519782 6.495424 48.304223 6.815002a52.410801 52.410801 0 0 1-48.312213 32.229447z" fill="#33363A" p-id="108248"></path><path d="M673.464417 498.637642m-14.221224 0a14.221224 14.221224 0 1 0 28.442447 0 14.221224 14.221224 0 1 0-28.442447 0Z" fill="#FFFFFF" p-id="108249"></path><path d="M658.484195 642.311948c0 49.982008-65.585407 90.520485-146.478602 90.520484s-146.462624-40.538477-146.462624-90.520484c0-49.997987 65.569428-46.826175 146.462624-46.826175s146.478602-3.163823 146.478602 46.826175z" fill="#D9E7E8" p-id="108250"></path><path d="M658.484195 642.311948c0 49.982008-65.585407 90.520485-146.478602 90.520484s-146.462624-40.538477-146.462624-90.520484c0-49.997987 65.569428-11.984177 146.462624-11.984178s146.478602-38.00582 146.478602 11.984178z" fill="#FFFFFF" p-id="108251"></path><path d="M512.005593 744.824599c-88.850689 0-158.446801-45.028548-158.446801-102.504662 0-14.56477 4.641871-26.580905 13.797783-35.720837 23.409093-23.361156 70.834476-23.225335 131.011024-23.121473l13.637994 0.023969 13.637993-0.023969c60.128611-0.127831 107.617911-0.239684 131.027004 23.121473 9.155911 9.139932 13.797783 21.148078 13.797782 35.720837 0 57.476114-69.604101 102.504662-158.462779 102.504662z m-26.06958-137.394596c-45.475958 0-86.637611 1.150481-101.65778 16.138691-4.609913 4.593935-6.759076 10.554065-6.759076 18.751243 0 42.567797 61.582692 78.536308 134.478446 78.536307 72.903744 0 134.494425-35.96851 134.494425-78.536307 0-8.189188-2.149162-14.149318-6.759075-18.751243-16.370386-16.338428-63.78778-16.210597-114.04143-16.122713l-13.69392 0.023969-13.69392-0.023969-12.36767-0.015978z" fill="#33363A" p-id="108252"></path><path d="M169.633631 17.265205c-37.57439 0-68.046158 96.656383-68.046158 215.882967a689.489658 689.489658 0 0 0 1.16646 39.699584c-34.826019-37.854021-68.661346-58.25109-83.489768-47.593162-19.23061 13.82974 0.751008 74.493645 44.605108 135.493106 38.061747 52.946095 81.55632 88.682911 104.989381 88.211534 0.255662 0.015979 0.511325 0.063916 0.774977 0.063915 37.58238 0 68.046158-96.656383 68.046157-215.866988 0-119.234573-30.455789-215.890956-68.046157-215.890956z" fill="#FFFFFF" p-id="108253"></path><path d="M23.426669 289.889256c8.908238 21.515593 22.682053 46.123103 40.458583 70.858444 38.061747 52.946095 81.55632 88.682911 104.989381 88.211534 0.255662 0.015979 0.511325 0.063916 0.774976 0.063915 34.011095 0 62.18989-79.175464 67.231234-182.582933-5.041344-103.423449-33.220139-182.590923-67.231234-182.590923-33.923211 0-62.04608 78.783981-67.183297 181.839914 0.111852 2.372867 0.167778 4.80166 0.311589 7.158549l-0.591219-0.623178a674.014091 674.014091 0 0 0 0.591219 67.207266c-31.925848-34.698188-62.964867-54.647848-79.351232-49.542588z" fill="#D9E7E8" p-id="108254"></path><path d="M169.633631 5.281027c-52.538633 0-80.030335 114.632649-80.030335 227.867145 0 3.267686 0.023968 6.55934 0.071905 9.866972-23.712692-21.291888-56.006055-42.847428-77.401806-27.491702-9.827025 7.070665-18.807169 23.824544-5.744415 63.532117 8.804375 26.724715 25.710055 58.211143 47.61713 88.690901 33.451833 46.522576 81.596267 93.180972 114.257145 93.20494 0.43143 0.031958 0.934766 0.055926 1.230376 0.055926 52.538633 0 80.030335-114.62466 80.030335-227.859154S222.180253 5.281027 169.633631 5.281027z m0.375504 431.749956l-0.423441-0.031958a11.049411 11.049411 0 0 0-0.72704-0.023969l-0.487357 0.00799c-14.596728 0-53.401493-25.670107-94.770873-83.234105-20.516911-28.530331-36.256131-57.723787-44.309497-82.187487-8.420882-25.582223-4.921502-35.217502-3.035992-36.575709 5.049333-3.587264 30.016369 5.864257 65.39366 43.55849v17.448961c0 24.224017 19.717966 43.941983 43.941983 43.941983h5.944152c24.224017 0 43.941983-19.717966 43.941983-43.941983v-24.887141a11.984177 11.984177 0 0 0-23.968355 0v24.887141c0 11.017454-8.956175 19.973629-19.973628 19.973629h-5.944152a19.989607 19.989607 0 0 1-19.973629-19.973629v-24.887141c0-1.821595-0.43942-3.531338-1.166459-5.073301a673.750439 673.750439 0 0 1-0.87884-32.876593c0-124.467664 33.196171-203.89879 56.061981-203.89879s56.061981 79.431126 56.06198 203.89879c0 123.780571-32.836645 203.01995-55.686476 203.874822z" fill="#33363A" p-id="108255"></path><path d="M854.369565 17.265205c37.57439 0 68.046158 96.656383 68.046158 215.882967 0 13.558099-0.415451 26.820588-1.16646 39.699584 34.818029-37.854021 68.653356-58.25109 83.481778-47.593162 19.23061 13.82974-0.751008 74.493645-44.605107 135.493106-38.053757 52.946095-81.55632 88.682911-104.981392 88.211534-0.263652 0.015979-0.511325 0.063916-0.782966 0.063915-37.57439 0-68.038168-96.656383-68.038169-215.866988 0.007989-119.234573 30.463778-215.890956 68.046158-215.890956z" fill="#FFFFFF" p-id="108256"></path><path d="M1000.576526 289.889256c-8.908238 21.515593-22.674063 46.123103-40.450592 70.858444-38.053757 52.946095-81.55632 88.682911-104.981392 88.211534-0.263652 0.015979-0.511325 0.063916-0.782966 0.063915-34.003105 0-62.1819-79.175464-67.231234-182.582933 5.049333-103.423449 33.228128-182.590923 67.231234-182.590923 33.923211 0 62.04608 78.783981 67.191286 181.839914-0.111852 2.372867-0.175768 4.80166-0.311588 7.158549 0.191747-0.215715 0.391483-0.423441 0.591219-0.623178 0.359525 9.004112 0.567251 18.176002 0.567251 27.491703 0 13.574078-0.415451 26.836567-1.16646 39.715563 31.925848-34.698188 62.964867-54.647848 79.343242-49.542588z" fill="#D9E7E8" p-id="108257"></path><path d="M1011.721811 215.523442c-21.371783-15.387683-53.689114 6.199814-77.401805 27.491702 0.047937-3.299643 0.071905-6.591297 0.071905-9.866972 0-113.242485-27.483713-227.867144-80.030335-227.867145-52.530643 0-80.022345 114.632649-80.022346 227.867145s27.483713 227.859155 80.022346 227.859154c0.167778 0 0.703072-0.031958 1.094555-0.055926h0.127831c32.660877-0.007989 80.82928-46.674375 114.273124-93.20494 21.907076-30.471768 38.812755-61.966185 47.61713-88.690901 13.062753-39.699584 4.08261-56.461453-5.752405-63.532117z m-17.017531 56.038012c-8.053367 24.47169-23.792586 53.657156-44.309498 82.195476-41.377369 57.563998-80.166156 83.226116-94.762883 83.226116l-0.239684-0.00799a17.872403 17.872403 0 0 0-1.382175 0.055927c-22.841842-0.830903-55.694466-80.070282-55.694466-203.882811 0-124.467664 33.196171-203.89879 56.053991-203.89879 22.857821 0 56.061981 79.431126 56.061981 203.89879 0 10.833696-0.335557 21.859139-0.87085 32.860613a11.816399 11.816399 0 0 0-1.17445 5.089281v24.887141c0 11.017454-8.956175 19.973629-19.973628 19.973629h-5.944152a19.989607 19.989607 0 0 1-19.973629-19.973629v-24.887141a11.984177 11.984177 0 0 0-23.968354 0v24.887141c0 24.224017 19.717966 43.941983 43.941983 43.941983h5.944152c24.224017 0 43.941983-19.717966 43.941983-43.941983v-17.440972c35.377291-37.694232 60.416232-47.145753 65.38567-43.566479 1.885511 1.366196 5.38489 11.001475-3.035991 36.583698z" fill="#33363A" p-id="108258"></path><path d="M512.005593 353.117774m-42.400019 0a42.400019 42.400019 0 1 0 84.800037 0 42.400019 42.400019 0 1 0-84.800037 0Z" fill="#FFFFFF" p-id="108259"></path><path d="M469.605574 353.117774a42.400019 42.400019 0 1 1 84.800037 0" fill="#D9E7E8" p-id="108260"></path><path d="M512.005593 407.50197c-29.984411 0-54.384196-24.399785-54.384196-54.384196s24.399785-54.384196 54.384196-54.384196 54.384196 24.399785 54.384195 54.384196-24.399785 54.384196-54.384195 54.384196z m0-84.792048c-16.769859 0-30.415842 13.645983-30.415842 30.415842s13.645983 30.415842 30.415842 30.415841 30.415842-13.645983 30.415841-30.415841-13.645983-30.415842-30.415841-30.415842z" fill="#33363A" p-id="108261"></path><path d="M554.405611 365.101951a11.984177 11.984177 0 0 1-11.984177-11.984177c0-16.769859-13.645983-30.415842-30.415841-30.415841s-30.415842 13.645983-30.415842 30.415841a11.984177 11.984177 0 0 1-23.968354 0c0-29.984411 24.399785-54.384196 54.384196-54.384196s54.384196 24.399785 54.384195 54.384196a11.984177 11.984177 0 0 1-11.984177 11.984177z" fill="#33363A" p-id="108262"></path></svg>