<?xml version="1.0" encoding="iso-8859-1"?>
<!-- Generator: Adobe Illustrator 23.0.0, SVG Export Plug-In . SVG Version: 6.00 Build 0)  -->
<svg version="1.1" id="&#x56FE;&#x5C42;_1" xmlns="http://www.w3.org/2000/svg" xmlns:xlink="http://www.w3.org/1999/xlink" x="0px"
	 y="0px" viewBox="0 0 1040 720" style="enable-background:new 0 0 1040 720;" xml:space="preserve">
<g>
	<path style="fill:#F0F0FF;" d="M68.126,502.485c0,122.764,144.437,145.121,215.87,145.121s242.66-87.666,329.337-87.666
		s132.763,30.334,207.032,30.334c61.152,0,147.509-11.644,147.509-68.977s-131.325-72.246-131.325-131.325
		s122.726-78.854,122.726-195.107S718.621,55.657,718.621,55.657S342.379,23.945,300.835,23.945S165.59,64.438,165.59,152.898
		s106.959,61.872,106.959,140.327S68.126,379.722,68.126,502.485z"/>
	<path style="fill:#C7D0FF;" d="M84.25,512.614c0,122.764,128.313,134.993,199.746,134.993s242.66-87.666,329.337-87.666
		s132.763,30.334,207.032,30.334c61.152,0,138.91-11.117,138.91-68.449s-158.558-72.774-158.558-131.853
		s147.271-78.1,147.271-194.353S718.621,64.438,718.621,64.438S342.379,23.945,300.835,23.945S189.874,64.438,189.874,152.898
		s93.424,61.872,93.424,140.327S84.25,389.85,84.25,512.614z"/>
	<g>
		<defs>
			<path id="SVGID_1_" d="M99.121,512.614c0,122.764,113.442,134.993,184.875,134.993s242.66-87.666,329.337-87.666
				s132.763,30.334,207.032,30.334c61.152,0,127.622-11.117,127.622-68.449s-158.02-72.774-158.02-131.853
				s130.014-78.1,130.014-194.353S718.621,64.438,718.621,64.438S342.379,36.487,300.835,36.487S189.874,64.438,189.874,152.898
				s107.578,61.872,107.578,140.327S99.121,389.85,99.121,512.614z"/>
		</defs>
		<clipPath id="SVGID_2_">
			<use xlink:href="#SVGID_1_"  style="overflow:visible;"/>
		</clipPath>
		<linearGradient id="SVGID_3_" gradientUnits="userSpaceOnUse" x1="480.2677" y1="41.8415" x2="535.1019" y2="630.461">
			<stop  offset="0" style="stop-color:#1A0151"/>
			<stop  offset="1" style="stop-color:#000D2A"/>
		</linearGradient>
		<path style="clip-path:url(#SVGID_2_);fill:url(#SVGID_3_);" d="M99.121,512.614c0,122.764,113.442,134.993,184.875,134.993
			s242.66-87.666,329.337-87.666s132.763,30.334,207.032,30.334c61.152,0,127.622-11.117,127.622-68.449
			s-158.02-72.774-158.02-131.853s130.014-78.1,130.014-194.353S718.621,64.438,718.621,64.438S342.379,36.487,300.835,36.487
			S189.874,64.438,189.874,152.898s107.578,61.872,107.578,140.327S99.121,389.85,99.121,512.614z"/>
		<path style="clip-path:url(#SVGID_2_);fill:#180B59;" d="M391.512,649.398c0,0,47.478-35.116,87.431-52.136
			c39.953-17.02,215.531-37.266,251.005-58.944c35.474-21.679,50.524-92.985,125.234-104.451
			c74.71-11.466,48.194-74.352,25.262-78.114c-22.933-3.762-62.73-79.368-117.99-59.661
			c-55.259,19.708-23.548,131.504-54.543,152.645c-30.995,21.141-143.687,6.45-184.357,22.395
			c-40.67,15.945-153.631,96.197-167.561,169.212C342.064,713.358,391.512,649.398,391.512,649.398z"/>
		<path style="clip-path:url(#SVGID_2_);fill:#270B72;" d="M115.604,159.212c0,0,135.625,0.537,167.695-30.816
			S331.493,3.879,331.493,3.879l69.515,29.741c0,0,30.457,37.086,20.962,66.469c-9.496,29.382-59.123,15.766-66.648,28.307
			c-7.525,12.541,17.737,76.502-12.004,95.851s-47.119-18.633-98.36-18.633s-79.368,42.82-79.368,42.82L115.604,159.212z"/>
		<g style="opacity:0.3;clip-path:url(#SVGID_2_);">
			<circle style="fill:#FFFFFF;" cx="613.135" cy="100.089" r="1.433"/>
			<circle style="fill:#FFFFFF;" cx="307.127" cy="472.924" r="1.433"/>
			<circle style="fill:#FFFFFF;" cx="415.341" cy="428.133" r="1.433"/>
			<circle style="fill:#FFFFFF;" cx="773.842" cy="546.917" r="1.433"/>
			<circle style="fill:#FFFFFF;" cx="647.713" cy="360.052" r="1.433"/>
			<circle style="fill:#FFFFFF;" cx="500.621" cy="196.299" r="1.433"/>
			<circle style="fill:#FFFFFF;" cx="484.855" cy="76.44" r="1.433"/>
			<circle style="fill:#FFFFFF;" cx="571.748" cy="120.155" r="1.433"/>
			<circle style="fill:#FFFFFF;" cx="400.47" cy="497.648" r="1.433"/>
			<circle style="fill:#FFFFFF;" cx="435.944" cy="460.92" r="1.433"/>
			<circle style="fill:#FFFFFF;" cx="502.055" cy="128.396" r="1.433"/>
			<circle style="fill:#FFFFFF;" cx="272.011" cy="111.734" r="1.433"/>
			<circle style="fill:#FFFFFF;" cx="638.934" cy="298.062" r="1.433"/>
			<circle style="fill:#FFFFFF;" cx="583.036" cy="236.252" r="1.433"/>
			<circle style="fill:#FFFFFF;" cx="337.226" cy="342.136" r="1.433"/>
			<circle style="fill:#FFFFFF;" cx="371.088" cy="422.759" r="1.433"/>
		</g>
		<g style="clip-path:url(#SVGID_2_);">
			<circle style="fill:#FFFFFF;" cx="666.166" cy="256.318" r="1.433"/>
			<circle style="fill:#FFFFFF;" cx="755.568" cy="346.078" r="1.433"/>
			<circle style="fill:#FFFFFF;" cx="855.182" cy="481.523" r="1.433"/>
			<circle style="fill:#FFFFFF;" cx="900.689" cy="566.983" r="1.433"/>
			<circle style="fill:#FFFFFF;" cx="743.385" cy="554.084" r="1.433"/>
			<circle style="fill:#FFFFFF;" cx="415.878" cy="570.208" r="1.433"/>
			<circle style="fill:#FFFFFF;" cx="351.38" cy="481.523" r="1.433"/>
			<circle style="fill:#FFFFFF;" cx="127.07" cy="556.413" r="1.433"/>
			<circle style="fill:#FFFFFF;" cx="236.358" cy="391.405" r="1.433"/>
			<circle style="fill:#FFFFFF;" cx="343.318" cy="270.471" r="1.433"/>
			<circle style="fill:#FFFFFF;" cx="218.442" cy="159.212" r="1.433"/>
			<circle style="fill:#FFFFFF;" cx="685.874" cy="83.964" r="1.433"/>
			<circle style="fill:#FFFFFF;" cx="567.269" cy="159.212" r="1.433"/>
			<circle style="fill:#FFFFFF;" cx="353.172" cy="100.089" r="1.433"/>
			<circle style="fill:#FFFFFF;" cx="275.415" cy="83.964" r="1.433"/>
			<circle style="fill:#FFFFFF;" cx="696.266" cy="491.377" r="1.433"/>
			<circle style="fill:#FFFFFF;" cx="593.427" cy="413.98" r="1.433"/>
			<circle style="fill:#FFFFFF;" cx="472.314" cy="466.653" r="1.433"/>
			<circle style="fill:#FFFFFF;" cx="415.341" cy="152.046" r="1.433"/>
			<linearGradient id="SVGID_4_" gradientUnits="userSpaceOnUse" x1="642.1588" y1="230.1601" x2="652.1919" y2="230.1601">
				<stop  offset="0" style="stop-color:#00D4EF"/>
				<stop  offset="1" style="stop-color:#00F0F3"/>
			</linearGradient>
			<circle style="opacity:0.5;fill:url(#SVGID_4_);" cx="647.175" cy="230.16" r="5.017"/>
			<circle style="fill:#1673C8;" cx="696.266" cy="337.119" r="3.583"/>
			<circle style="fill:#5D4641;" cx="266.816" cy="443.72" r="5.196"/>
			<circle style="fill:#504B85;" cx="373.775" cy="241.268" r="3.583"/>
			<circle style="fill:#582B73;" cx="234.567" cy="116.393" r="7.525"/>
		</g>
		<g style="clip-path:url(#SVGID_2_);">
			<radialGradient id="SVGID_5_" cx="695.7281" cy="422.7586" r="6.4397" gradientUnits="userSpaceOnUse">
				<stop  offset="0" style="stop-color:#FFFFFF"/>
				<stop  offset="1" style="stop-color:#FFFFFF;stop-opacity:0"/>
			</radialGradient>
			<polygon style="fill:url(#SVGID_5_);" points="697.509,423.457 702.158,422.725 697.509,421.993 696.474,421.993 
				696.474,420.957 695.742,416.309 695.009,420.957 695.03,422.013 693.974,421.993 689.299,422.725 693.974,423.457 
				695.03,423.437 695.009,424.492 695.742,429.208 696.474,424.492 696.463,423.447 			"/>
			<radialGradient id="SVGID_6_" cx="846.7611" cy="572.1791" r="6.4397" gradientUnits="userSpaceOnUse">
				<stop  offset="0" style="stop-color:#FFFFFF"/>
				<stop  offset="1" style="stop-color:#FFFFFF;stop-opacity:0"/>
			</radialGradient>
			<polygon style="fill:url(#SVGID_6_);" points="848.542,572.878 853.191,572.145 848.542,571.413 847.507,571.413 
				847.507,570.378 846.775,565.729 846.042,570.378 846.063,571.434 845.007,571.413 840.332,572.145 845.007,572.878 
				846.063,572.857 846.042,573.913 846.775,578.629 847.507,573.913 847.497,572.867 			"/>
			<radialGradient id="SVGID_7_" cx="381.2999" cy="544.7675" r="6.4397" gradientUnits="userSpaceOnUse">
				<stop  offset="0" style="stop-color:#FFFFFF"/>
				<stop  offset="1" style="stop-color:#FFFFFF;stop-opacity:0"/>
			</radialGradient>
			<polygon style="fill:url(#SVGID_7_);" points="383.081,545.466 387.729,544.734 383.081,544.002 382.045,544.002 
				382.046,542.966 381.313,538.318 380.581,542.966 380.602,544.022 379.546,544.002 374.87,544.734 379.546,545.466 
				380.602,545.445 380.581,546.501 381.313,551.217 382.046,546.501 382.035,545.456 			"/>
			<radialGradient id="SVGID_8_" cx="324.5057" cy="254.8844" r="6.4397" gradientUnits="userSpaceOnUse">
				<stop  offset="0" style="stop-color:#FFFFFF"/>
				<stop  offset="1" style="stop-color:#FFFFFF;stop-opacity:0"/>
			</radialGradient>
			<polygon style="fill:url(#SVGID_8_);" points="326.287,255.583 330.935,254.851 326.287,254.118 325.251,254.119 
				325.251,253.083 324.519,248.435 323.787,253.083 323.807,254.139 322.752,254.118 318.076,254.851 322.752,255.583 
				323.807,255.562 323.787,256.618 324.519,261.334 325.251,256.618 325.241,255.573 			"/>
			<radialGradient id="SVGID_9_" cx="242.0915" cy="77.5146" r="6.4397" gradientUnits="userSpaceOnUse">
				<stop  offset="0" style="stop-color:#FFFFFF"/>
				<stop  offset="1" style="stop-color:#FFFFFF;stop-opacity:0"/>
			</radialGradient>
			<polygon style="fill:url(#SVGID_9_);" points="243.873,78.213 248.521,77.481 243.873,76.749 242.837,76.749 242.837,75.713 
				242.105,71.065 241.373,75.713 241.393,76.769 240.337,76.749 235.662,77.481 240.337,78.213 241.393,78.193 241.373,79.249 
				242.105,83.964 242.837,79.249 242.827,78.203 			"/>
			<radialGradient id="SVGID_10_" cx="444.3647" cy="121.9466" r="6.4397" gradientUnits="userSpaceOnUse">
				<stop  offset="0" style="stop-color:#FFFFFF"/>
				<stop  offset="1" style="stop-color:#FFFFFF;stop-opacity:0"/>
			</radialGradient>
			<polygon style="fill:url(#SVGID_10_);" points="446.146,122.645 450.794,121.913 446.146,121.181 445.11,121.181 445.11,120.145 
				444.378,115.497 443.646,120.145 443.666,121.201 442.611,121.181 437.935,121.913 442.611,122.645 443.666,122.625 
				443.646,123.681 444.378,128.396 445.11,123.681 445.1,122.635 			"/>
			<radialGradient id="SVGID_11_" cx="307.1271" cy="403.0508" r="13.7983" gradientUnits="userSpaceOnUse">
				<stop  offset="0" style="stop-color:#FFFFFF"/>
				<stop  offset="1" style="stop-color:#FFFFFF;stop-opacity:0"/>
			</radialGradient>
			<polygon style="fill:url(#SVGID_11_);" points="310.943,404.547 320.904,402.979 310.943,401.41 308.724,401.41 308.725,399.191 
				307.156,389.231 305.587,399.191 305.631,401.453 303.368,401.41 293.35,402.979 303.368,404.547 305.631,404.504 
				305.587,406.766 307.156,416.871 308.725,406.766 308.703,404.525 			"/>
			<radialGradient id="SVGID_12_" cx="850.3444" cy="293.9416" r="13.7983" gradientUnits="userSpaceOnUse">
				<stop  offset="0" style="stop-color:#FFFFFF"/>
				<stop  offset="1" style="stop-color:#FFFFFF;stop-opacity:0"/>
			</radialGradient>
			<polygon style="fill:url(#SVGID_12_);" points="854.161,295.438 864.121,293.869 854.161,292.3 851.942,292.301 851.942,290.082 
				850.373,280.122 848.804,290.082 848.848,292.344 846.586,292.3 836.568,293.869 846.586,295.438 848.848,295.394 
				848.804,297.657 850.373,307.762 851.942,297.657 851.92,295.416 			"/>
			<radialGradient id="SVGID_13_" cx="791.5794" cy="481.5235" r="13.7983" gradientUnits="userSpaceOnUse">
				<stop  offset="0" style="stop-color:#FFFFFF"/>
				<stop  offset="1" style="stop-color:#FFFFFF;stop-opacity:0"/>
			</radialGradient>
			<polygon style="fill:url(#SVGID_13_);" points="795.396,483.02 805.356,481.451 795.396,479.882 793.177,479.883 
				793.177,477.664 791.608,467.704 790.039,477.664 790.083,479.926 787.821,479.882 777.803,481.451 787.821,483.02 
				790.083,482.976 790.039,485.239 791.608,495.343 793.177,485.239 793.155,482.998 			"/>
		</g>
		<g style="clip-path:url(#SVGID_2_);">
			
				<radialGradient id="SVGID_14_" cx="-1476.3661" cy="-3065.1931" r="16.662" gradientTransform="matrix(0.7071 0.7071 -0.7071 0.7071 -493.6736 3371.8335)" gradientUnits="userSpaceOnUse">
				<stop  offset="0" style="stop-color:#FFFFB2"/>
				<stop  offset="0.321" style="stop-color:#FFF18E;stop-opacity:0.679"/>
				<stop  offset="0.7728" style="stop-color:#FFE060;stop-opacity:0.2272"/>
				<stop  offset="1" style="stop-color:#FFD94E;stop-opacity:0"/>
			</radialGradient>
			<circle style="fill:url(#SVGID_14_);" cx="629.797" cy="160.466" r="16.662"/>
			
				<linearGradient id="SVGID_15_" gradientUnits="userSpaceOnUse" x1="-1476.3654" y1="-3058.564" x2="-1476.3654" y2="-3418.3201" gradientTransform="matrix(0.7071 0.7071 -0.7071 0.7071 -493.6736 3371.8335)">
				<stop  offset="0" style="stop-color:#FF8418"/>
				<stop  offset="1" style="stop-color:#FFDF52;stop-opacity:0"/>
			</linearGradient>
			<path style="opacity:0.3;fill:url(#SVGID_15_);" d="M625.211,165.256c-5.802-5.802,12.826-24.429,12.826-24.429L879.597-89.13
				L649.436,152.227C649.436,152.227,631.013,171.057,625.211,165.256z"/>
			
				<linearGradient id="SVGID_16_" gradientUnits="userSpaceOnUse" x1="-1476.3654" y1="-3058.564" x2="-1476.3654" y2="-3316.8806" gradientTransform="matrix(0.7071 0.7071 -0.7071 0.7071 -493.6736 3371.8335)">
				<stop  offset="0" style="stop-color:#FF8418"/>
				<stop  offset="1" style="stop-color:#FFDF52;stop-opacity:0"/>
			</linearGradient>
			<path style="fill:url(#SVGID_16_);" d="M625.184,165.229c-4.254-4.254,9.121-17.629,9.121-17.629L807.842-17.429L642.664,155.959
				C642.664,155.959,629.439,169.483,625.184,165.229z"/>
			
				<linearGradient id="SVGID_17_" gradientUnits="userSpaceOnUse" x1="-1476.3654" y1="-3058.564" x2="-1476.3654" y2="-3199.7144" gradientTransform="matrix(0.7071 0.7071 -0.7071 0.7071 -493.6736 3371.8335)">
				<stop  offset="0" style="stop-color:#FFDF52"/>
				<stop  offset="1" style="stop-color:#FFD94E;stop-opacity:0"/>
			</linearGradient>
			<path style="fill:url(#SVGID_17_);" d="M625.15,165.195c-2.32-2.32,4.988-9.629,4.988-9.629l94.82-90.18l-90.261,94.739
				C634.698,160.125,627.471,167.515,625.15,165.195z"/>
			
				<linearGradient id="SVGID_18_" gradientUnits="userSpaceOnUse" x1="-1476.3654" y1="-3058.564" x2="-1476.3654" y2="-3107.3179" gradientTransform="matrix(0.7071 0.7071 -0.7071 0.7071 -493.6736 3371.8335)">
				<stop  offset="0" style="stop-color:#FFFFB2"/>
				<stop  offset="1" style="stop-color:#FFD94E;stop-opacity:0"/>
			</linearGradient>
			<path style="fill:url(#SVGID_18_);" d="M625.15,165.195c-2.32-2.32,4.988-9.629,4.988-9.629l29.486-24.845l-24.927,29.405
				C634.698,160.125,627.471,167.515,625.15,165.195z"/>
		</g>
		<g style="clip-path:url(#SVGID_2_);">
			
				<radialGradient id="SVGID_19_" cx="-1103.4708" cy="-2922.7288" r="7.2182" gradientTransform="matrix(0.7071 0.7071 -0.7071 0.7071 -493.6736 3371.8335)" gradientUnits="userSpaceOnUse">
				<stop  offset="0" style="stop-color:#FFFFB2"/>
				<stop  offset="0.321" style="stop-color:#FFF18E;stop-opacity:0.679"/>
				<stop  offset="0.7728" style="stop-color:#FFE060;stop-opacity:0.2272"/>
				<stop  offset="1" style="stop-color:#FFD94E;stop-opacity:0"/>
			</radialGradient>
			<circle style="fill:url(#SVGID_19_);" cx="792.736" cy="524.881" r="7.218"/>
			
				<linearGradient id="SVGID_20_" gradientUnits="userSpaceOnUse" x1="-1103.4706" y1="-2919.8569" x2="-1103.4706" y2="-3075.708" gradientTransform="matrix(0.7071 0.7071 -0.7071 0.7071 -493.6736 3371.8335)">
				<stop  offset="0" style="stop-color:#FF8418"/>
				<stop  offset="1" style="stop-color:#FFDF52;stop-opacity:0"/>
			</linearGradient>
			<path style="opacity:0.3;fill:url(#SVGID_20_);" d="M790.749,526.955c-2.513-2.513,5.556-10.583,5.556-10.583l104.647-99.62
				l-99.709,104.559C801.244,521.311,793.263,529.469,790.749,526.955z"/>
			
				<linearGradient id="SVGID_21_" gradientUnits="userSpaceOnUse" x1="-1103.4706" y1="-2919.8569" x2="-1103.4706" y2="-3031.7632" gradientTransform="matrix(0.7071 0.7071 -0.7071 0.7071 -493.6736 3371.8335)">
				<stop  offset="0" style="stop-color:#FF8418"/>
				<stop  offset="1" style="stop-color:#FFDF52;stop-opacity:0"/>
			</linearGradient>
			<path style="fill:url(#SVGID_21_);" d="M790.738,526.944c-1.843-1.843,3.951-7.637,3.951-7.637l75.178-71.492l-71.557,75.114
				C798.31,522.928,792.581,528.787,790.738,526.944z"/>
			
				<linearGradient id="SVGID_22_" gradientUnits="userSpaceOnUse" x1="-1103.4706" y1="-2919.8569" x2="-1103.4706" y2="-2981.0051" gradientTransform="matrix(0.7071 0.7071 -0.7071 0.7071 -493.6736 3371.8335)">
				<stop  offset="0" style="stop-color:#FFDF52"/>
				<stop  offset="1" style="stop-color:#FFD94E;stop-opacity:0"/>
			</linearGradient>
			<path style="fill:url(#SVGID_22_);" d="M790.723,526.929c-1.005-1.005,2.161-4.171,2.161-4.171l41.077-39.067l-39.102,41.042
				C794.859,524.733,791.728,527.934,790.723,526.929z"/>
			
				<linearGradient id="SVGID_23_" gradientUnits="userSpaceOnUse" x1="-1103.4706" y1="-2919.8569" x2="-1103.4706" y2="-2940.9778" gradientTransform="matrix(0.7071 0.7071 -0.7071 0.7071 -493.6736 3371.8335)">
				<stop  offset="0" style="stop-color:#FFFFB2"/>
				<stop  offset="1" style="stop-color:#FFD94E;stop-opacity:0"/>
			</linearGradient>
			<path style="fill:url(#SVGID_23_);" d="M790.723,526.929c-1.005-1.005,2.161-4.171,2.161-4.171l12.774-10.763l-10.799,12.739
				C794.859,524.733,791.728,527.934,790.723,526.929z"/>
		</g>
		<g style="clip-path:url(#SVGID_2_);">
			
				<radialGradient id="SVGID_24_" cx="-1532.6838" cy="-2418.0107" r="7.2182" gradientTransform="matrix(0.7071 0.7071 -0.7071 0.7071 -493.6736 3371.8335)" gradientUnits="userSpaceOnUse">
				<stop  offset="0" style="stop-color:#FFFFB2"/>
				<stop  offset="0.321" style="stop-color:#FFF18E;stop-opacity:0.679"/>
				<stop  offset="0.7728" style="stop-color:#FFE060;stop-opacity:0.2272"/>
				<stop  offset="1" style="stop-color:#FFD94E;stop-opacity:0"/>
			</radialGradient>
			<circle style="fill:url(#SVGID_24_);" cx="132.347" cy="578.271" r="7.218"/>
			
				<linearGradient id="SVGID_25_" gradientUnits="userSpaceOnUse" x1="-1532.6835" y1="-2415.1392" x2="-1532.6835" y2="-2570.99" gradientTransform="matrix(0.7071 0.7071 -0.7071 0.7071 -493.6736 3371.8335)">
				<stop  offset="0" style="stop-color:#FF8418"/>
				<stop  offset="1" style="stop-color:#FFDF52;stop-opacity:0"/>
			</linearGradient>
			<path style="opacity:0.3;fill:url(#SVGID_25_);" d="M130.361,580.345c-2.513-2.513,5.556-10.583,5.556-10.583l104.647-99.62
				l-99.709,104.559C140.855,574.701,132.874,582.859,130.361,580.345z"/>
			
				<linearGradient id="SVGID_26_" gradientUnits="userSpaceOnUse" x1="-1532.6835" y1="-2415.1392" x2="-1532.6835" y2="-2527.0452" gradientTransform="matrix(0.7071 0.7071 -0.7071 0.7071 -493.6736 3371.8335)">
				<stop  offset="0" style="stop-color:#FF8418"/>
				<stop  offset="1" style="stop-color:#FFDF52;stop-opacity:0"/>
			</linearGradient>
			<path style="fill:url(#SVGID_26_);" d="M130.349,580.334c-1.843-1.843,3.951-7.637,3.951-7.637l75.178-71.492l-71.557,75.114
				C137.921,576.318,132.192,582.177,130.349,580.334z"/>
			
				<linearGradient id="SVGID_27_" gradientUnits="userSpaceOnUse" x1="-1532.6835" y1="-2415.1392" x2="-1532.6835" y2="-2476.2871" gradientTransform="matrix(0.7071 0.7071 -0.7071 0.7071 -493.6736 3371.8335)">
				<stop  offset="0" style="stop-color:#FFDF52"/>
				<stop  offset="1" style="stop-color:#FFD94E;stop-opacity:0"/>
			</linearGradient>
			<path style="fill:url(#SVGID_27_);" d="M130.334,580.319c-1.005-1.005,2.161-4.171,2.161-4.171l41.077-39.067l-39.102,41.042
				C134.47,578.123,131.339,581.324,130.334,580.319z"/>
			
				<linearGradient id="SVGID_28_" gradientUnits="userSpaceOnUse" x1="-1532.6835" y1="-2415.1392" x2="-1532.6835" y2="-2436.2598" gradientTransform="matrix(0.7071 0.7071 -0.7071 0.7071 -493.6736 3371.8335)">
				<stop  offset="0" style="stop-color:#FFFFB2"/>
				<stop  offset="1" style="stop-color:#FFD94E;stop-opacity:0"/>
			</linearGradient>
			<path style="fill:url(#SVGID_28_);" d="M130.334,580.319c-1.005-1.005,2.161-4.171,2.161-4.171l12.774-10.763l-10.799,12.739
				C134.47,578.123,131.339,581.324,130.334,580.319z"/>
		</g>
		
			<linearGradient id="SVGID_29_" gradientUnits="userSpaceOnUse" x1="1574.5424" y1="3818.8367" x2="1727.6764" y2="3818.8367" gradientTransform="matrix(0.7071 -0.7071 0.7071 0.7071 -3714.4636 -1063.5084)">
			<stop  offset="0" style="stop-color:#401D61"/>
			<stop  offset="1" style="stop-color:#090B3D"/>
		</linearGradient>
		<circle style="clip-path:url(#SVGID_2_);fill:url(#SVGID_29_);" cx="153.372" cy="469.306" r="76.567"/>
		<g style="clip-path:url(#SVGID_2_);">
			
				<ellipse transform="matrix(0.947 -0.3213 0.3213 0.947 -118.1345 316.798)" style="opacity:0.3;fill:#58569F;" cx="900.689" cy="516.294" rx="100.689" ry="22.268"/>
			
				<ellipse transform="matrix(0.947 -0.3213 0.3213 0.947 -118.1345 316.798)" style="opacity:0.4;fill:#786C9E;" cx="900.689" cy="516.294" rx="86.676" ry="19.169"/>
			
				<ellipse transform="matrix(0.947 -0.3213 0.3213 0.947 -118.1345 316.798)" style="opacity:0.5;fill:#8F72A4;" cx="900.689" cy="516.294" rx="74.265" ry="16.424"/>
			
				<ellipse transform="matrix(0.947 -0.3213 0.3213 0.947 -118.1345 316.798)" style="opacity:0.6;fill:#AF8DA1;" cx="900.689" cy="516.294" rx="60.253" ry="13.325"/>
			
				<ellipse transform="matrix(0.947 -0.3213 0.3213 0.947 -118.1345 316.798)" style="fill:#A981AF;" cx="900.689" cy="516.294" rx="46.641" ry="10.315"/>
			<g style="opacity:0.6;">
				
					<radialGradient id="SVGID_30_" cx="1530.55" cy="5627.2676" r="83.4277" gradientTransform="matrix(0.8971 -0.3044 0.0706 0.2082 -861.1998 -189.2224)" gradientUnits="userSpaceOnUse">
					<stop  offset="0.6656" style="stop-color:#F198BF"/>
					<stop  offset="0.999" style="stop-color:#FFDC80"/>
				</radialGradient>
				<path style="fill:url(#SVGID_30_);" d="M903.242,536.137c-21.03,7.136-39.377,11.43-53.058,12.419
					c-7.807,0.564-13.942,0.029-17.742-1.548c-3.443-1.429-4.827-3.687-3.898-6.36c1.063-3.059,3.942-6.467,8.556-10.128
					c4.221-3.35,9.79-6.839,16.553-10.369c11.527-6.017,25.811-11.749,39.192-15.728c14.516-4.316,25.417-6.616,33.324-7.032
					c8.455-0.445,13.222,1.277,14.575,5.264c0.755,2.225-3.075,5.686-10.784,9.746c-8.562,4.51-20.884,9.192-31.391,11.928
					c-7.413,1.93-12.892,2.496-15.845,1.636c-2.186-0.637-2.211-1.828-2.211-1.878c0-0.258,0.858-0.742,1.912-1.08
					c1.055-0.339,1.911-0.405,1.912-0.149l0,0c0,0.011,0.037,1.083,1.984,1.634c2.523,0.714,6.954,0.255,13.171-1.364
					c9.355-2.436,20.346-6.615,28.001-10.647c6.746-3.553,10.097-6.583,9.435-8.531c-2.46-7.249-16.586-6.766-44.458,1.521
					c-12.377,3.68-25.64,9.008-36.388,14.619c-9.464,4.94-21.265,12.321-23.734,19.425c-0.88,2.531,0.442,4.674,3.722,6.035
					c3.618,1.501,9.442,2.012,16.844,1.477c12.867-0.93,30.171-4.985,50.041-11.728c24.87-8.439,46.931-18.009,62.12-26.947
					c14.694-8.647,21.901-16.015,20.295-20.747c-0.079-0.232,0.712-0.709,1.765-1.066c1.053-0.357,1.971-0.459,2.049-0.228
					c1.685,4.965-5.874,12.694-21.283,21.762C952.054,517.4,929.09,527.367,903.242,536.137z"/>
			</g>
			<g style="opacity:0.6;">
				
					<radialGradient id="SVGID_31_" cx="-6002.7744" cy="-6262.1782" r="83.4278" gradientTransform="matrix(-0.8971 0.3044 -0.0706 -0.2082 -4936.1821 1040.141)" gradientUnits="userSpaceOnUse">
					<stop  offset="0.6656" style="stop-color:#F198BF"/>
					<stop  offset="0.999" style="stop-color:#FFDC80"/>
				</radialGradient>
				<path style="fill:url(#SVGID_31_);" d="M915.575,525.97c-2.681,0.91-5.353,1.762-7.992,2.546
					c-14.516,4.316-25.417,6.616-33.324,7.032c-8.455,0.445-13.222-1.277-14.575-5.265c-0.755-2.225,3.075-5.686,10.784-9.746
					c8.562-4.51,20.884-9.192,31.391-11.928c7.413-1.93,12.892-2.496,15.845-1.636c2.186,0.637,2.211,1.828,2.211,1.878
					c0,0.258-0.859,0.741-1.912,1.08c-1.055,0.339-1.911,0.405-1.912,0.149l0,0c0-0.011-0.037-1.084-1.984-1.634
					c-2.523-0.714-6.954-0.255-13.171,1.364c-9.355,2.436-20.346,6.615-28.001,10.647c-6.746,3.553-10.097,6.583-9.435,8.531
					c2.46,7.249,16.586,6.766,44.457-1.521c12.377-3.68,25.64-9.008,36.388-14.619c9.464-4.941,21.265-12.321,23.734-19.425
					c0.88-2.531-0.442-4.674-3.722-6.035c-3.618-1.501-9.442-2.012-16.844-1.477c-12.867,0.93-30.171,4.985-50.041,11.728
					c-24.87,8.439-46.931,18.009-62.12,26.947c-14.694,8.647-21.901,16.015-20.295,20.747c0.079,0.232-0.712,0.709-1.765,1.066
					c-1.053,0.357-1.971,0.459-2.049,0.228c-1.685-4.965,5.874-12.694,21.283-21.762c15.849-9.327,38.813-19.294,64.661-28.064
					c21.03-7.136,39.377-11.43,53.058-12.419c7.807-0.564,13.942-0.029,17.742,1.548c3.443,1.428,4.827,3.687,3.898,6.36
					c-1.063,3.059-3.942,6.467-8.556,10.129c-4.221,3.35-9.79,6.839-16.553,10.369C937.522,517.619,926.489,522.266,915.575,525.97z
					"/>
			</g>
			
				<radialGradient id="SVGID_32_" cx="1311.9453" cy="5614.3179" r="29.5143" gradientTransform="matrix(0.947 -0.3213 0.0706 0.2082 -738.2803 -230.932)" gradientUnits="userSpaceOnUse">
				<stop  offset="0.6656" style="stop-color:#FFFFF4"/>
				<stop  offset="0.999" style="stop-color:#FFFFF4;stop-opacity:0"/>
			</radialGradient>
			<path style="fill:url(#SVGID_32_);" d="M928.554,506.838c1.155,3.404-10.385,10.396-25.774,15.618
				c-15.39,5.222-28.802,6.696-29.957,3.293c-1.155-3.404,10.385-10.396,25.774-15.618
				C913.987,504.909,927.399,503.435,928.554,506.838z"/>
		</g>
		<g style="clip-path:url(#SVGID_2_);">
			<radialGradient id="SVGID_33_" cx="257.6785" cy="224.2478" r="60.3774" gradientUnits="userSpaceOnUse">
				<stop  offset="0" style="stop-color:#CDB4FD"/>
				<stop  offset="1" style="stop-color:#CCB5FC;stop-opacity:0"/>
			</radialGradient>
			<circle style="fill:url(#SVGID_33_);" cx="257.679" cy="224.248" r="60.377"/>
			<linearGradient id="SVGID_34_" gradientUnits="userSpaceOnUse" x1="232.5085" y1="191.3702" x2="283.8294" y2="258.4066">
				<stop  offset="0" style="stop-color:#D7BEFF"/>
				<stop  offset="1" style="stop-color:#9B8CE9"/>
			</linearGradient>
			<circle style="fill:url(#SVGID_34_);" cx="257.679" cy="224.248" r="42.211"/>
		</g>
		<g style="clip-path:url(#SVGID_2_);">
			<path style="fill:#95A9C6;" d="M427.07,355.951c-0.677-1.697-9.35-18.135-9.35-18.135l9.47-14.86l12.995,14.185L427.07,355.951z"
				/>
			<path style="fill:#AEC3E5;" d="M399.081,355.09c0,0,3.469-16.081,20.515-35.544c17.046-19.462,10.802,5.005,10.802,5.005
				l-9.127,17.711L399.081,355.09z"/>
			<path style="fill:#C8D4E8;" d="M495.938,324.327c0,0-4.131,1.307-10.775-3.117c-4.604-2.249-2.747-5.196-2.747-5.196
				s0.582-2.603,5.733,0.639c-0.649-3.524-12.031-12.905-9.573-17.366c2.458-4.46,10.1-12.425,15.539-9.601
				c5.439,2.824,15.602,20.513,15.195,24.198S495.938,324.327,495.938,324.327z"/>
			<path style="fill:#C8D4E8;" d="M499.932,357.401l-7.954-33.288c0,0,1.72-6.772,6.558-8.743
				c4.837-1.971,12.326-3.296,13.007-1.218s17.377,47.299,17.377,47.299l-10.479,7.92L499.932,357.401z"/>
			<path style="fill:#B5503C;" d="M511.543,314.152c-0.681-2.078-8.17-0.753-13.007,1.218c-4.837,1.971-6.558,8.743-6.558,8.743
				s-0.222,0.256-0.027,1.313c0.195,1.057,0.644,1.521,0.644,1.521s4.104-6.403,6.794-7.627s10.075-3.39,12.878-3.138
				C511.87,315.086,511.615,314.373,511.543,314.152z"/>
			<path style="fill:#ABBCD6;" d="M530.491,369.52l44.969-19.938c0,0,18.909-7.125,26.889-0.396
				c7.979,6.729,12.058,18.001,10.508,34.318s-6.497,47.832-6.497,47.832l-31.12-14.674L530.491,369.52z"/>
			<path style="fill:#B5503C;" d="M578.146,389.895c0,0,15.604-14.055,16.76-43.472c1.922-1.503,7.583,0.552,7.444,2.763
				c-0.139,2.212-1.839,23.657-19.117,43.597C579.031,391.736,578.146,389.895,578.146,389.895z"/>
			<path style="fill:#ABBCD6;" d="M596.479,440.989l28.874-8.413c0,0,6.821-2.531,10.808,3.293s2.498,13.567,2.498,13.567
				l-30.502,11.445L596.479,440.989z"/>
			<path style="fill:#8AA1BC;" d="M566.869,487.257c0,0-1.713,2.397-1.911,6.094c-0.198,3.697-2.234,14.908,0.013,17.569
				c2.247,2.661,9.595,5.994,27.084,5.557c17.489-0.438,34.78-2.742,34.78-2.742l0.236-9.854c0,0,0.634-4.51-10.258-8.801
				s-13.624-4.813-13.624-4.813s-20.06-3.189-21.476-2.928C580.297,487.599,566.869,487.257,566.869,487.257z"/>
			<path style="fill:#B3CBF2;" d="M566.94,484.462c0,0-1.713,2.397-1.911,6.094c-0.198,3.697-2.234,14.908,0.013,17.569
				c2.247,2.661,9.595,5.994,27.084,5.557c17.489-0.438,34.78-2.742,34.78-2.742l0.236-9.854c0,0,0.634-4.51-10.258-8.801
				c-10.892-4.291-13.624-4.813-13.624-4.813s-20.06-3.189-21.476-2.928C580.368,484.803,566.94,484.462,566.94,484.462z"/>
			<path style="fill:#D9E6FF;" d="M480.934,321.988c0,0,20.257,8.112,27.23,16.301c6.973,8.189,29.138,38.539,42.028,41.267
				c12.89,2.728,59.543,19.643,61.115,20.265c1.572,0.621,10.529,7.717,11.646,12.794c1.117,5.077-18.416,78.081-18.416,78.081
				s-9.974,4.204-20.281,2.641c-10.307-1.564-18.106-6.322-18.106-6.322l12.479-52.941c0,0-38.569,8.194-50.806,10.993
				c-12.237,2.799-27.913,0.767-37.886-8.874s-45.444-49.929-54.976-63.112c-5.552-7.678-10.395-31.725-6.855-37.236
				C431.645,330.334,480.934,321.988,480.934,321.988z"/>
			<g>
				<path style="fill:#B1C2DD;" d="M570.122,487.12c9.55-42.821,14.667-52.5,14.667-52.5l-6.267-0.092l-12.177,51.662
					C567.428,486.558,568.679,486.879,570.122,487.12z"/>
				<path style="fill:#B1C2DD;" d="M576.625,434.5l-0.288-0.004l-0.026,0.071C576.42,434.543,576.524,434.521,576.625,434.5z"/>
			</g>
			<path style="fill:#B1C2DD;" d="M583.061,430.157c-8.486,2.105-61.465,3.85-69.366,3.483s-13.116-10.884-13.116-10.884
				l-18.55,5.218c3.3,3.555,6.047,6.42,7.907,8.218c9.973,9.641,25.649,11.673,37.886,8.874
				c12.237-2.799,50.806-10.993,50.806-10.993l-0.151,0.641C579.874,433.649,581.447,432.18,583.061,430.157z"/>
			<path style="fill:#B1C2DD;" d="M475.793,412.563c-5.349-3.57-44.008-57.718-44.008-57.718l-3.252,0.821
				c0.042,0.197,0.086,0.393,0.129,0.59l33.598,49.684c5.835,6.671,11.685,13.225,16.668,18.67l11.078,0.093
				c0,0,21.001-8.199,27.345-21.104C493.735,417.38,481.142,416.133,475.793,412.563z"/>
			<path style="fill:#83A2C6;" d="M427.224,348.778c0,0,26.09-7.453,33.67-8.414c9.708-2.264,20.373-5.684,35.093,5.997
				c11.364,8.292,14.833,40.991,10.177,51.321c-4.656,10.33-32.013,21.663-32.013,21.663l-4.176-4.664
				c0,0,27.991-14.033,29.169-17.529c1.178-3.496,1.685-33.496-7.211-46.143c-8.896-12.648-29.182-5.087-29.182-5.087
				l-33.987,10.783C428.764,356.704,427.401,351.619,427.224,348.778z"/>
			<path style="fill:#DB6445;" d="M579.172,487.69c-4.144-0.627-11.928-3.175-12.397-3.329c0,0-0.568,0.752-0.709,1.212
				s0.083,1.442,0.083,1.442s7.799,4.758,18.106,6.322c10.307,1.564,20.281-2.641,20.281-2.641s0.751-0.867,0.83-1.428
				c0.079-0.561-0.083-1.442-0.083-1.442S583.446,488.337,579.172,487.69z"/>
			<path style="fill:#DB6445;" d="M530.07,367.23c0,0,0.938,25.878-15.491,38.558c-16.429,12.68-24.759,16.694-36.716,17.655
				c0.079,2.024,1.2,4.134,2.105,5.113c2.166,2.343,4.307,1.823,4.307,1.823s17.583-1.663,34.426-16.059
				c16.842-14.395,18.671-37.464,18.671-37.464L530.07,367.23z"/>
			<path style="fill:#DB6445;" d="M430.903,328.284c0,0-2.935-1.099-5.11,0.941c-2.175,2.04-0.117,5.304-0.117,5.304
				s11.976,9.636,30.653,6.198c23.963-4.412,28.305-19.42,28.305-19.42s1.15-1.669-1.386-3.57c-2.536-1.901-4.729-0.951-4.729-0.951
				l-23.31,9.939L430.903,328.284z"/>
			<circle style="fill:#CED9ED;" cx="449.889" cy="297.827" r="37.266"/>
			<path style="fill:#9DAEC6;" d="M486.539,291.08c2.43,13.198-2.417,26.051-11.695,34.43c-1.079,1.077-4.24,3.487-6.263,4.581
				c-9.719,3.611-14.965-20.927-29.422-29.196c-3.726-20.241,6.606-34.372,21.231-37.064
				C469.2,262.21,483.744,275.899,486.539,291.08z"/>
			<path style="fill:#E5EEF9;" d="M486.539,291.08c2.43,13.198-2.417,26.051-11.695,34.43c-1.079,1.077-4.24,3.487-6.263,4.581
				c-9.719,3.611-24.625-12.044-26.185-29.428c-3.726-20.241,8.772-33.495,18.815-35.344
				C471.254,263.471,483.744,275.899,486.539,291.08z"/>
			<linearGradient id="SVGID_35_" gradientUnits="userSpaceOnUse" x1="442.2618" y1="298.0273" x2="487.1612" y2="298.0273">
				<stop  offset="0" style="stop-color:#1A0151"/>
				<stop  offset="1" style="stop-color:#000D2A"/>
			</linearGradient>
			<path style="fill:url(#SVGID_35_);" d="M486.539,291.08c2.43,13.198-2.417,26.051-11.695,34.43
				c-1.079,1.077-4.24,3.487-6.263,4.581c-9.719,3.611-22.789-13.948-25.624-29.349c-3.726-20.241,8.276-33.221,18.319-35.07
				C471.319,263.824,483.744,275.899,486.539,291.08z"/>
			<circle style="fill:#9DAEC6;" cx="442.864" cy="302.218" r="13.616"/>
			<circle style="fill:#CED9ED;" cx="443.474" cy="302.638" r="13.093"/>
			<circle style="fill:#B4C3D8;" cx="443.241" cy="302.478" r="8.969"/>
			<circle style="fill:#E2EAF7;" cx="443.474" cy="302.638" r="8.77"/>
			<path style="fill:#EEF3FF;" d="M546.708,317.895c0,0-2.277-7.232-1.818-9.685c0.459-2.453,1.573-6.301,3.687-6.69
				c2.114-0.389,2.707,6.789,2.707,6.789s2.273-8.434,2.524-11.031s5.06-9.129,11.073-7.139c6.014,1.99,11.906,7.281,10.19,13.791
				c-1.253,6.06-7.17,18.444-12.517,21.068C558.591,322.266,546.708,317.895,546.708,317.895z"/>
			<path style="fill:#EEF3FF;" d="M456.889,354.652c3.604-8.132,17.408-12.313,21.242-10.287s37.231,17.193,37.231,17.193
				s26.494-41.13,28.317-43.105c1.822-1.975,10.155-2.234,14.615,0.224c4.46,2.458,7.001,6.362,6.477,8.463
				s-27.706,58.295-27.706,58.295s-4.003,8.935-9.511,10.677c-5.509,1.743-33.704-1.993-63.053-19.908
				C453.878,369.962,456.889,354.652,456.889,354.652z"/>
			<path style="fill:#DB6445;" d="M558.294,318.677c-4.46-2.458-12.793-2.199-14.615-0.224c-0.162,0.175-0.518,0.66-1.033,1.395
				c0,0,7.492-0.899,11.783,1.112c4.291,2.011,9.678,7.786,9.678,7.786l0,0c0.387-0.872,0.619-1.43,0.663-1.606
				C565.295,325.039,562.755,321.135,558.294,318.677z"/>
			<path style="fill:#DB6445;" d="M513.98,360.929c0,0,9.271,15.051,11.245,35.533c3.108,1.77,5.132-1.889,5.132-1.889
				s-6.106-31.152-14.009-34.544c-0.964,1.596-0.985,1.528-0.985,1.528L513.98,360.929z"/>
			<path style="fill:#ED3D35;" d="M467.859,378.196c1.89,1.778,6.803,3.73,11.204,5.864c2.593-3.727,6.994-13.464,6.401-13.719
				s-11.902-5.278-11.902-5.278S470.643,374.1,467.859,378.196z"/>
			<path style="fill:#DB6445;" d="M576.293,434.571l2.335-0.497l-0.584,2.476c0,0,28.384-6.446,44.828-21.706
				c1.62-1.783-1.066-6.765-2.132-6.472c-1.066,0.293-15.482,10.052-23.055,13.45S576.293,434.571,576.293,434.571z"/>
			<path style="fill:#718DB5;" d="M475.072,424.72l-19.736,17.478l-37.724-44.61c0,0-18.146-24.35-18.97-34.764
				c-0.92-11.622,6.818-18.379,9.892-19.492s13.522-8.683,15.153-2.79s9.712,22.077,9.712,22.077l43.463,59.949L475.072,424.72z"/>
			<path style="fill:#47637F;" d="M421.02,388.399l14.255-10.64c0,0-8.989-14.194-10.616-18.085
				c-1.452-3.471-8.16-1.777-11.443-0.808c-3.283,0.969-5.319,7.72-2.839,13.275S421.02,388.399,421.02,388.399z"/>
			<path style="fill:#5D799B;" d="M421.66,387.917l14.255-10.64c0,0-8.989-14.194-10.616-18.085
				c-1.452-3.471-8.16-1.777-11.443-0.808c-3.283,0.969-5.319,7.72-2.839,13.275C413.496,377.214,421.66,387.917,421.66,387.917z"/>
			
				<rect x="451.22" y="424.991" transform="matrix(0.7351 -0.678 0.678 0.7351 -166.6676 426.8624)" style="fill:#5D799B;" width="23.291" height="3.404"/>
			
				<rect x="447.107" y="420.466" transform="matrix(0.7351 -0.678 0.678 0.7351 -164.6886 422.8752)" style="fill:#5D799B;" width="23.291" height="3.404"/>
			<circle style="fill:#5D799B;" cx="439.665" cy="384.784" r="1.792"/>
			<circle style="fill:#5D799B;" cx="444.422" cy="390.831" r="1.792"/>
			<circle style="fill:#5D799B;" cx="449.002" cy="396.91" r="1.792"/>
			<circle style="fill:#5D799B;" cx="453.582" cy="402.989" r="1.792"/>
		</g>
	</g>
	<g>
		<radialGradient id="SVGID_36_" cx="804.2999" cy="152.0457" r="144.0457" gradientUnits="userSpaceOnUse">
			<stop  offset="0" style="stop-color:#00FFF4"/>
			<stop  offset="0.999" style="stop-color:#00FFF4;stop-opacity:0"/>
		</radialGradient>
		<circle style="fill:url(#SVGID_36_);" cx="804.3" cy="152.046" r="144.046"/>
		<linearGradient id="SVGID_37_" gradientUnits="userSpaceOnUse" x1="685.8742" y1="152.0457" x2="922.7255" y2="152.0457">
			<stop  offset="0" style="stop-color:#00FFF4"/>
			<stop  offset="1" style="stop-color:#00FFF4"/>
		</linearGradient>
		<circle style="opacity:0.05;fill:url(#SVGID_37_);" cx="804.3" cy="152.046" r="118.426"/>
		<linearGradient id="SVGID_38_" gradientUnits="userSpaceOnUse" x1="696.2656" y1="152.0457" x2="912.3342" y2="152.0457">
			<stop  offset="0" style="stop-color:#00FFF4"/>
			<stop  offset="1" style="stop-color:#00FFF4"/>
		</linearGradient>
		<circle style="opacity:0.2;fill:url(#SVGID_38_);" cx="804.3" cy="152.046" r="108.034"/>
		<linearGradient id="SVGID_39_" gradientUnits="userSpaceOnUse" x1="707.9111" y1="152.0457" x2="900.6887" y2="152.0457">
			<stop  offset="0" style="stop-color:#00FFF4"/>
			<stop  offset="1" style="stop-color:#00FFF4"/>
		</linearGradient>
		<circle style="opacity:0.5;fill:url(#SVGID_39_);" cx="804.3" cy="152.046" r="96.389"/>
		<linearGradient id="SVGID_40_" gradientUnits="userSpaceOnUse" x1="804.2999" y1="236.2516" x2="804.2999" y2="67.8399">
			<stop  offset="0" style="stop-color:#0090E6"/>
			<stop  offset="1" style="stop-color:#00CEEA"/>
		</linearGradient>
		<circle style="fill:url(#SVGID_40_);" cx="804.3" cy="152.046" r="84.206"/>
		<linearGradient id="SVGID_41_" gradientUnits="userSpaceOnUse" x1="805.3776" y1="100.0889" x2="805.3776" y2="67.8399">
			<stop  offset="0" style="stop-color:#00FFF4"/>
			<stop  offset="1" style="stop-color:#00FFF4"/>
		</linearGradient>
		<path style="fill:url(#SVGID_41_);" d="M855.211,84.969c-14.139-10.748-31.78-17.13-50.911-17.13
			c-18.171,0-34.997,5.755-48.756,15.543c7.027,7.84,17.845,16.706,30.84,16.706c23.291,0,38.52-13.437,62.706-14.333
			C851.456,85.668,853.48,85.393,855.211,84.969z"/>
		<linearGradient id="SVGID_42_" gradientUnits="userSpaceOnUse" x1="809.2368" y1="159.1409" x2="809.2368" y2="97.6767">
			<stop  offset="0" style="stop-color:#00D4EF"/>
			<stop  offset="1" style="stop-color:#00F0F3"/>
		</linearGradient>
		<path style="fill:url(#SVGID_42_);" d="M880.736,116.671c-4.078,1.853-10.291,4.277-16.059,4.918
			c-9.675,1.075-12.183-9.137-31.174-9.137s-43.357,17.737-62.886,17.199c-12.93-0.356-24.368-19.248-30.621-31.974
			c-3.835,4.531-7.198,9.473-10.017,14.75c3.185,10.387,13.454,38.287,33.472,44.814c24.724,8.062,71.306-12.183,89.939-11.645
			c12.952,0.374,27.461,3.344,35.104,5.121C888.306,138.57,885.547,127.048,880.736,116.671z"/>
		<linearGradient id="SVGID_43_" gradientUnits="userSpaceOnUse" x1="800.7183" y1="225.9006" x2="800.7183" y2="163.7951">
			<stop  offset="0" style="stop-color:#00ACFF"/>
			<stop  offset="0.8242" style="stop-color:#00C4F2"/>
		</linearGradient>
		<path style="fill:url(#SVGID_43_);" d="M880.529,187.863c-8.087,2.999-22.264,6.212-27.139,7.002
			c-6.629,1.075-44.253-11.466-55.182-12.004c-10.929-0.537-40.49,4.3-48.553,3.762c-5.488-0.366-20.025-14.097-28.748-22.829
			c3.744,26.815,20.117,49.584,42.914,62.105c8.563-4.509,17.482-11.743,22.025-14.015c7.525-3.762,27.591-2.329,35.116-0.537
			s18.633-1.792,25.262-2.329c3.357-0.272,11.719,0.328,19.158,0.988C871.54,203.52,876.675,196.052,880.529,187.863z"/>
		<path style="fill:#00ACEC;" d="M793.55,224.248c-8.927,0.446-15.452,3.428-19.752,6.308c9.458,3.677,19.744,5.696,30.502,5.696
			c11.431,0,22.33-2.279,32.268-6.406C824.213,228.369,809.115,223.47,793.55,224.248z"/>
	</g>
	<g>
		<circle style="opacity:0.05;fill:#FFDF50;" cx="248.541" cy="597.262" r="115.738"/>
		<circle style="opacity:0.2;fill:#FFDF50;" cx="248.541" cy="597.262" r="94.776"/>
		<circle style="opacity:0.5;fill:#FFDF50;" cx="248.541" cy="597.262" r="82.952"/>
		<linearGradient id="SVGID_44_" gradientUnits="userSpaceOnUse" x1="248.5413" y1="666.7764" x2="248.5413" y2="527.7471">
			<stop  offset="0" style="stop-color:#FF8418"/>
			<stop  offset="1" style="stop-color:#FFDF52"/>
		</linearGradient>
		<circle style="fill:url(#SVGID_44_);" cx="248.541" cy="597.262" r="69.515"/>
		<path style="fill:#FFDF50;" d="M248.541,527.747c-30.365,0-56.182,19.47-65.65,46.606c8.831,4.685,23.672,11.121,37.701,10.546
			c21.858-0.896,17.02-22.574,24.187-22.216c7.166,0.358,25.799,9.675,41.924,6.45c8.963-1.793,14.66-5.966,20.415-9.319
			C294.763,540.529,273.145,527.747,248.541,527.747z"/>
		<path style="fill:#FFBC35;" d="M318.056,597.262c0-3.198-0.217-6.344-0.635-9.427c-21.882,6.975-53.064,2.949-60.28,4.232
			c-8.062,1.433-8.958,8.062-25.62,11.287c-12.146,2.351-38.857-4.723-52.445-8.731c-0.033,0.876-0.049,1.756-0.049,2.639
			c0,4.72,0.472,9.331,1.368,13.787c16.766,11.577,62.057,24.972,74.417,22.404c9.914-2.06,34.078,4.67,48.287,6.891
			C312.464,628.5,318.056,613.534,318.056,597.262z"/>
		<path style="fill:#FFB67C;" d="M248.541,666.776c12.635,0,24.482-3.371,34.693-9.263c-7.576-3.142-25.385-6.346-31.289-3.816
			c-7.525,3.225-16.125-5.554-30.457-4.121c-6.611,0.661-10.857,2.427-13.515,4.139C219.39,661.934,233.4,666.776,248.541,666.776z"
			/>
	</g>
</g>
</svg>
