<?xml version="1.0" encoding="iso-8859-1"?>
<!-- Generator: Adobe Illustrator 23.0.0, SVG Export Plug-In . SVG Version: 6.00 Build 0)  -->
<svg version="1.1" id="template" xmlns="http://www.w3.org/2000/svg" xmlns:xlink="http://www.w3.org/1999/xlink" x="0px" y="0px"
	 viewBox="0 0 1040 720" style="enable-background:new 0 0 1040 720;" xml:space="preserve">
<g id="XMLID_1_">
	<path style="fill:#F0F0FF;" d="M207.554,709.403c568.65,13.19,728.149,4.665,793.201-116.266
		C1087.459,369.784,990.766,6.986,373.45,6.986C51.007,6.986-165.354,709.403,207.554,709.403z"/>
	<path style="fill:#C7D0FF;" d="M207.554,709.403c568.65,13.19,715.363,3.066,780.415-117.864
		c86.704-223.353-71.521-564.575-607.128-564.575C58.399,26.964-125.598,709.403,207.554,709.403z"/>
	<g>
		<defs>
			<path id="SVGID_1_" d="M207.554,709.403c456.574,0,715.363,3.066,780.415-117.864c77.914-144.84-71.521-564.575-607.128-564.575
				C58.399,26.964-85.842,709.403,207.554,709.403z"/>
		</defs>
		<clipPath id="SVGID_2_">
			<use xlink:href="#SVGID_1_"  style="overflow:visible;"/>
		</clipPath>
		<linearGradient id="SVGID_3_" gradientUnits="userSpaceOnUse" x1="527.8425" y1="26.9636" x2="527.8425" y2="709.41">
			<stop  offset="0" style="stop-color:#160050"/>
			<stop  offset="1" style="stop-color:#110A35"/>
		</linearGradient>
		<path style="clip-path:url(#SVGID_2_);fill:url(#SVGID_3_);" d="M207.554,709.403c456.574,0,715.363,3.066,780.415-117.864
			c77.914-144.84-71.521-564.575-607.128-564.575C58.399,26.964-85.842,709.403,207.554,709.403z"/>
		<path style="opacity:0.5;clip-path:url(#SVGID_2_);fill:#180B59;" d="M79.609,718.795c0,0,85.159-64.843,190.348-49.356
			s229.436,78.832,229.436,78.832l127.573-42.637c0,0-18.549-67.63-111.263-93.421s-126.521-6.964-175.371-11.926
			s-238.359-72.562-311.238-57.624S79.609,718.795,79.609,718.795z"/>
		<path style="opacity:0.5;clip-path:url(#SVGID_2_);fill:#270B72;" d="M183.66,2.591c0,0,246.127,148.236,360.601,131.854
			s203.774,11.188,216.36,25.971s218.358,24.972,218.358,24.972v129.257c0,0-155.228,49.345-231.344-12.186
			s-63.922-0.044-115.872-8.391c-72.12-11.587-69.323,62.93-218.758,18.979s-68.324-119.667-206.172-127.659
			C68.987,177.397,60.596,111.67,60.596,111.67L183.66,2.591z"/>
		<g style="clip-path:url(#SVGID_2_);">
			
				<ellipse transform="matrix(0.947 -0.3213 0.3213 0.947 -43.5411 309.1609)" style="opacity:0.3;fill:#58569F;" cx="914.85" cy="286.491" rx="50.023" ry="33.252"/>
			
				<ellipse transform="matrix(0.947 -0.3213 0.3213 0.947 -43.5411 309.1609)" style="opacity:0.4;fill:#786C9E;" cx="914.85" cy="286.491" rx="43.061" ry="28.625"/>
			
				<ellipse transform="matrix(0.947 -0.3213 0.3213 0.947 -43.5411 309.1609)" style="opacity:0.5;fill:#8F72A4;" cx="914.85" cy="286.491" rx="36.896" ry="24.526"/>
			
				<ellipse transform="matrix(0.947 -0.3213 0.3213 0.947 -43.5411 309.1609)" style="opacity:0.6;fill:#AF8DA1;" cx="914.85" cy="286.491" rx="29.934" ry="19.898"/>
			
				<ellipse transform="matrix(0.947 -0.3213 0.3213 0.947 -43.5411 309.1609)" style="fill:#A981AF;" cx="914.85" cy="286.491" rx="23.172" ry="15.403"/>
			<g style="opacity:0.6;">
				
					<radialGradient id="SVGID_4_" cx="1618.3236" cy="4497.0083" r="41.4474" gradientTransform="matrix(0.8971 -0.3044 0.2123 0.6257 -1486.5374 -2032.1112)" gradientUnits="userSpaceOnUse">
					<stop  offset="0.6656" style="stop-color:#F198BF"/>
					<stop  offset="0.999" style="stop-color:#FFDC80"/>
				</radialGradient>
				<path style="fill:url(#SVGID_4_);" d="M922.399,314.855c-10.448,3.545-20.148,3.953-28.053,1.179
					c-4.511-1.583-8.352-4.187-11.109-7.531c-2.498-3.03-4.013-6.59-4.266-10.025c-0.29-3.931,0.403-7.796,2.06-11.488
					c1.516-3.378,3.798-6.54,6.783-9.398c5.088-4.871,11.916-8.51,18.734-9.985c7.397-1.6,13.236-1.493,17.852,0.327
					c4.935,1.945,8.317,5.785,10.337,11.739c1.127,3.322-0.12,6.973-3.512,10.281c-3.767,3.674-9.737,6.448-15.208,7.066
					c-3.86,0.436-6.974-0.439-9.006-2.53c-1.504-1.548-1.88-3.212-1.895-3.282c-0.078-0.358,0.29-0.771,0.819-0.922
					c0.53-0.151,1.023,0.016,1.102,0.373l0,0c0.003,0.015,0.351,1.518,1.685,2.874c1.729,1.757,4.248,2.462,7.485,2.097
					c4.872-0.55,10.196-3.029,13.564-6.313c2.968-2.895,4.059-6.091,3.072-9c-3.673-10.825-11.998-14.436-26.2-11.365
					c-6.307,1.364-12.644,4.751-17.389,9.293c-4.178,4-9.016,10.683-8.343,19.811c0.24,3.252,1.682,6.633,4.062,9.52
					c2.625,3.184,6.273,5.66,10.549,7.161c7.434,2.609,16.582,2.217,26.454-1.133c12.356-4.193,22.684-10.809,29.082-18.631
					c6.19-7.567,8.278-15.626,5.88-22.693c-0.117-0.346,0.212-0.77,0.735-0.947c0.523-0.178,1.042-0.041,1.16,0.305
					c2.516,7.415,0.327,15.869-6.165,23.804C945.989,303.603,935.24,310.498,922.399,314.855z"/>
			</g>
			<g style="opacity:0.6;">
				
					<radialGradient id="SVGID_5_" cx="-6099.751" cy="-5144.8867" r="41.4474" gradientTransform="matrix(-0.8971 0.3044 -0.2123 -0.6257 -5655.1304 -1078.6205)" gradientUnits="userSpaceOnUse">
					<stop  offset="0.6656" style="stop-color:#F198BF"/>
					<stop  offset="0.999" style="stop-color:#FFDC80"/>
				</radialGradient>
				<path style="fill:url(#SVGID_5_);" d="M926.711,304.458c-1.332,0.452-2.676,0.827-4.02,1.117
					c-7.397,1.6-13.236,1.493-17.852-0.327c-4.935-1.945-8.317-5.785-10.337-11.739c-1.127-3.322,0.12-6.973,3.512-10.281
					c3.767-3.674,9.737-6.448,15.208-7.066c3.86-0.436,6.974,0.439,9.006,2.53c1.504,1.548,1.88,3.212,1.896,3.282
					c0.078,0.358-0.29,0.77-0.819,0.922c-0.53,0.151-1.023-0.016-1.102-0.373l0,0c-0.003-0.015-0.351-1.518-1.686-2.874
					c-1.729-1.757-4.248-2.462-7.485-2.097c-4.871,0.55-10.195,3.029-13.564,6.313c-2.968,2.895-4.059,6.091-3.072,9
					c3.673,10.825,11.998,14.436,26.2,11.365c6.306-1.364,12.644-4.751,17.389-9.293c4.178-3.999,9.016-10.683,8.343-19.811
					c-0.24-3.252-1.682-6.633-4.062-9.52c-2.625-3.184-6.273-5.66-10.549-7.161c-7.434-2.609-16.582-2.217-26.454,1.133
					c-12.356,4.193-22.684,10.809-29.082,18.631c-6.19,7.567-8.278,15.626-5.88,22.693c0.117,0.346-0.212,0.77-0.735,0.947
					c-0.523,0.178-1.042,0.041-1.16-0.305c-2.516-7.415-0.327-15.869,6.165-23.804c6.677-8.162,17.426-15.057,30.267-19.414
					c10.448-3.545,20.148-3.953,28.053-1.179c4.511,1.583,8.352,4.187,11.109,7.531c2.498,3.03,4.013,6.59,4.266,10.025
					c0.29,3.931-0.403,7.796-2.06,11.488c-1.516,3.378-3.798,6.54-6.783,9.398C937.341,299.501,932.133,302.618,926.711,304.458z"/>
			</g>
			
				<radialGradient id="SVGID_6_" cx="1399.1982" cy="4490.5747" r="14.6629" gradientTransform="matrix(0.947 -0.3213 0.2123 0.6257 -1363.6179 -2073.8208)" gradientUnits="userSpaceOnUse">
				<stop  offset="0.6656" style="stop-color:#FFFFF4"/>
				<stop  offset="0.999" style="stop-color:#FFFFF4;stop-opacity:0"/>
			</radialGradient>
			<path style="fill:url(#SVGID_6_);" d="M928.694,281.793c1.725,5.082-3.075,11.306-10.721,13.9s-15.242,0.577-16.966-4.505
				c-1.725-5.082,3.075-11.306,10.721-13.9C919.373,274.694,926.969,276.711,928.694,281.793z"/>
		</g>
		<g style="clip-path:url(#SVGID_2_);">
			<radialGradient id="SVGID_7_" cx="289.3429" cy="659.663" r="15.3862" gradientUnits="userSpaceOnUse">
				<stop  offset="0" style="stop-color:#FFFFFF"/>
				<stop  offset="1" style="stop-color:#FFFFFF;stop-opacity:0"/>
			</radialGradient>
			<polygon style="fill:url(#SVGID_7_);" points="293.599,661.332 304.705,659.582 293.599,657.833 291.124,657.833 
				291.125,655.359 289.375,644.253 287.626,655.359 287.675,657.882 285.152,657.833 273.981,659.582 285.152,661.332 
				287.675,661.283 287.626,663.806 289.375,675.073 291.125,663.806 291.1,661.307 			"/>
			<radialGradient id="SVGID_8_" cx="929.8337" cy="426.9207" r="19.209" gradientUnits="userSpaceOnUse">
				<stop  offset="0" style="stop-color:#FFFFFF"/>
				<stop  offset="1" style="stop-color:#FFFFFF;stop-opacity:0"/>
			</radialGradient>
			<polygon style="fill:url(#SVGID_8_);" points="935.147,429.004 949.013,426.82 935.147,424.636 932.057,424.637 932.058,421.547 
				929.874,407.682 927.69,421.547 927.751,424.697 924.601,424.636 910.655,426.82 924.601,429.004 927.751,428.943 
				927.69,432.093 929.874,446.16 932.058,432.093 932.027,428.973 			"/>
			<radialGradient id="SVGID_9_" cx="221.2184" cy="229.3395" r="19.209" gradientUnits="userSpaceOnUse">
				<stop  offset="0" style="stop-color:#FFFFFF"/>
				<stop  offset="1" style="stop-color:#FFFFFF;stop-opacity:0"/>
			</radialGradient>
			<polygon style="fill:url(#SVGID_9_);" points="226.531,231.423 240.397,229.239 226.531,227.055 223.442,227.055 
				223.443,223.966 221.259,210.1 219.075,223.966 219.135,227.116 215.986,227.055 202.04,229.239 215.986,231.423 
				219.135,231.362 219.075,234.512 221.259,248.579 223.443,234.512 223.412,231.392 			"/>
			<radialGradient id="SVGID_10_" cx="872.4972" cy="360.9937" r="10.7711" gradientUnits="userSpaceOnUse">
				<stop  offset="0" style="stop-color:#FFFFFF"/>
				<stop  offset="1" style="stop-color:#FFFFFF;stop-opacity:0"/>
			</radialGradient>
			<polygon style="fill:url(#SVGID_10_);" points="875.476,362.162 883.251,360.937 875.476,359.713 873.744,359.713 
				873.744,357.981 872.52,350.206 871.295,357.981 871.329,359.747 869.563,359.713 861.743,360.937 869.563,362.162 
				871.329,362.128 871.295,363.894 872.52,371.782 873.744,363.894 873.727,362.145 			"/>
			<radialGradient id="SVGID_11_" cx="88.5653" cy="459.0851" r="6.3829" gradientUnits="userSpaceOnUse">
				<stop  offset="0" style="stop-color:#FFFFFF"/>
				<stop  offset="1" style="stop-color:#FFFFFF;stop-opacity:0"/>
			</radialGradient>
			<polygon style="fill:url(#SVGID_11_);" points="90.331,459.777 94.938,459.052 90.331,458.326 89.304,458.326 89.304,457.3 
				88.579,452.692 87.853,457.3 87.873,458.346 86.827,458.326 82.192,459.052 86.827,459.777 87.873,459.757 87.853,460.804 
				88.579,465.478 89.304,460.804 89.294,459.767 			"/>
		</g>
		<g style="opacity:0.3;clip-path:url(#SVGID_2_);">
			<circle style="fill:#FFFFFF;" cx="283.949" cy="284.079" r="1.598"/>
			<circle style="fill:#FFFFFF;" cx="-57.273" cy="699.819" r="1.598"/>
			<circle style="fill:#FFFFFF;" cx="63.393" cy="649.874" r="1.598"/>
			<circle style="fill:#FFFFFF;" cx="463.15" cy="782.327" r="1.598"/>
			<circle style="fill:#FFFFFF;" cx="322.506" cy="573.958" r="1.598"/>
			<circle style="fill:#FFFFFF;" cx="158.488" cy="391.36" r="1.598"/>
			<circle style="fill:#FFFFFF;" cx="140.907" cy="257.708" r="1.598"/>
			<circle style="fill:#FFFFFF;" cx="237.8" cy="306.454" r="1.598"/>
			<circle style="fill:#FFFFFF;" cx="46.811" cy="727.388" r="1.598"/>
			<circle style="fill:#FFFFFF;" cx="86.368" cy="686.433" r="1.598"/>
			<circle style="fill:#FFFFFF;" cx="160.086" cy="315.644" r="1.598"/>
			<circle style="fill:#FFFFFF;" cx="-96.43" cy="297.065" r="1.598"/>
			<circle style="fill:#FFFFFF;" cx="312.717" cy="504.834" r="1.598"/>
			<circle style="fill:#FFFFFF;" cx="250.386" cy="435.911" r="1.598"/>
			<circle style="fill:#FFFFFF;" cx="-23.71" cy="553.98" r="1.598"/>
			<circle style="fill:#FFFFFF;" cx="14.048" cy="643.88" r="1.598"/>
		</g>
		<g style="opacity:0.3;clip-path:url(#SVGID_2_);">
			<circle style="fill:#FFFFFF;" cx="882.286" cy="93.09" r="1.598"/>
			<circle style="fill:#FFFFFF;" cx="541.064" cy="508.83" r="1.598"/>
			<circle style="fill:#FFFFFF;" cx="661.731" cy="458.885" r="1.598"/>
			<circle style="fill:#FFFFFF;" cx="1061.488" cy="591.339" r="1.598"/>
			<circle style="fill:#FFFFFF;" cx="920.844" cy="382.969" r="1.598"/>
			<circle style="fill:#FFFFFF;" cx="756.825" cy="200.372" r="1.598"/>
			<circle style="fill:#FFFFFF;" cx="739.245" cy="66.72" r="1.598"/>
			<circle style="fill:#FFFFFF;" cx="836.138" cy="115.466" r="1.598"/>
			<circle style="fill:#FFFFFF;" cx="645.149" cy="536.4" r="1.598"/>
			<circle style="fill:#FFFFFF;" cx="684.705" cy="495.445" r="1.598"/>
			<circle style="fill:#FFFFFF;" cx="758.424" cy="124.655" r="1.598"/>
			<circle style="fill:#FFFFFF;" cx="501.908" cy="106.076" r="1.598"/>
			<circle style="fill:#FFFFFF;" cx="911.055" cy="313.846" r="1.598"/>
			<circle style="fill:#FFFFFF;" cx="848.724" cy="244.922" r="1.598"/>
			<circle style="fill:#FFFFFF;" cx="574.627" cy="362.992" r="1.598"/>
			<circle style="fill:#FFFFFF;" cx="612.385" cy="452.892" r="1.598"/>
		</g>
		<g style="clip-path:url(#SVGID_2_);">
			<circle style="fill:#FFFFFF;" cx="692.497" cy="285.677" r="1.598"/>
			<circle style="fill:#FFFFFF;" cx="792.186" cy="385.766" r="1.598"/>
			<circle style="fill:#FFFFFF;" cx="903.263" cy="536.799" r="1.598"/>
			<circle style="fill:#FFFFFF;" cx="954.007" cy="632.094" r="1.598"/>
			<circle style="fill:#FFFFFF;" cx="778.601" cy="617.709" r="1.598"/>
			<circle style="fill:#FFFFFF;" cx="413.406" cy="635.69" r="1.598"/>
			<circle style="fill:#FFFFFF;" cx="341.485" cy="536.799" r="1.598"/>
			<circle style="fill:#FFFFFF;" cx="91.362" cy="620.307" r="1.598"/>
			<circle style="fill:#FFFFFF;" cx="213.227" cy="436.31" r="1.598"/>
			<circle style="fill:#FFFFFF;" cx="332.495" cy="301.46" r="1.598"/>
			<circle style="fill:#FFFFFF;" cx="193.249" cy="177.397" r="1.598"/>
			<circle style="fill:#FFFFFF;" cx="714.472" cy="93.49" r="1.598"/>
			<circle style="fill:#FFFFFF;" cx="582.219" cy="177.397" r="1.598"/>
			<circle style="fill:#FFFFFF;" cx="343.483" cy="111.47" r="1.598"/>
			<circle style="fill:#FFFFFF;" cx="256.779" cy="93.49" r="1.598"/>
			<circle style="fill:#FFFFFF;" cx="726.059" cy="547.787" r="1.598"/>
			<circle style="fill:#FFFFFF;" cx="611.386" cy="461.482" r="1.598"/>
			<circle style="fill:#FFFFFF;" cx="476.336" cy="520.217" r="1.598"/>
			<circle style="fill:#FFFFFF;" cx="412.806" cy="169.406" r="1.598"/>
			<linearGradient id="SVGID_12_" gradientUnits="userSpaceOnUse" x1="665.7262" y1="256.5094" x2="676.9138" y2="256.5094">
				<stop  offset="0" style="stop-color:#00D4EF"/>
				<stop  offset="1" style="stop-color:#00F0F3"/>
			</linearGradient>
			<circle style="opacity:0.5;fill:url(#SVGID_12_);" cx="671.32" cy="256.509" r="5.594"/>
			<circle style="fill:#1673C8;" cx="726.059" cy="375.777" r="3.996"/>
			<circle style="fill:#5D4641;" cx="292.539" cy="193.779" r="5.794"/>
			<circle style="fill:#504B85;" cx="366.458" cy="268.896" r="3.996"/>
			<circle style="fill:#582B73;" cx="138.71" cy="454.89" r="8.391"/>
		</g>
		<g style="clip-path:url(#SVGID_2_);">
			<g>
				
					<linearGradient id="SVGID_13_" gradientUnits="userSpaceOnUse" x1="249.6111" y1="-4317.0151" x2="251.7159" y2="-4454.8667" gradientTransform="matrix(0.7071 0.7071 -0.7071 0.7071 -2506.5273 3066.292)">
					<stop  offset="0" style="stop-color:#30E3E7"/>
					<stop  offset="0.4721" style="stop-color:#32E4E5;stop-opacity:0.3"/>
					<stop  offset="1" style="stop-color:#35E5E3;stop-opacity:0"/>
				</linearGradient>
				<path style="opacity:0.3;fill:url(#SVGID_13_);" d="M736.118,186.907c-5.303,5.303-11.84,7.363-14.602,4.602
					s-0.701-9.299,4.602-14.602s93.802-84.483,93.802-84.483l0.682,0.682C820.602,93.105,740.981,182.044,736.118,186.907z"/>
				
					<linearGradient id="SVGID_14_" gradientUnits="userSpaceOnUse" x1="249.8435" y1="-4320.3389" x2="250.8903" y2="-4388.8975" gradientTransform="matrix(0.7071 0.7071 -0.7071 0.7071 -2506.5273 3066.292)">
					<stop  offset="0" style="stop-color:#30E3E7"/>
					<stop  offset="0.4721" style="stop-color:#32E4E5;stop-opacity:0.3"/>
					<stop  offset="1" style="stop-color:#35E5E3;stop-opacity:0"/>
				</linearGradient>
				<path style="opacity:0.6;fill:url(#SVGID_14_);" d="M731.82,186.378c-2.637,2.637-5.889,3.662-7.262,2.289
					c-1.373-1.373-0.349-4.625,2.289-7.262c2.637-2.637,46.651-42.017,46.651-42.017l0.339,0.339
					C773.837,139.727,734.239,183.959,731.82,186.378z"/>
				
					<linearGradient id="SVGID_15_" gradientUnits="userSpaceOnUse" x1="249.8644" y1="-4664.0566" x2="250.6678" y2="-4716.6733" gradientTransform="matrix(0.7071 0.7071 -0.4371 0.4371 -1490.7374 2050.502)">
					<stop  offset="0" style="stop-color:#30E3E7"/>
					<stop  offset="0.4721" style="stop-color:#32E4E5;stop-opacity:0.3"/>
					<stop  offset="1" style="stop-color:#35E5E3;stop-opacity:0"/>
				</linearGradient>
				<path style="fill:url(#SVGID_15_);" d="M728.666,188.375c-1.251,1.251-3.12,1.411-4.174,0.357
					c-1.054-1.054-0.894-2.923,0.357-4.174c1.251-1.251,22.812-19.255,22.812-19.255l0.26,0.26
					C747.921,165.563,729.813,187.228,728.666,188.375z"/>
			</g>
			<g>
				
					<linearGradient id="SVGID_16_" gradientUnits="userSpaceOnUse" x1="1154.7344" y1="-3896.3625" x2="1160.8137" y2="-4294.5249" gradientTransform="matrix(0.4281 0.4281 -0.7071 0.7071 -2672.5266 2900.2927)">
					<stop  offset="0" style="stop-color:#30E3E7"/>
					<stop  offset="0.4721" style="stop-color:#32E4E5;stop-opacity:0.3"/>
					<stop  offset="1" style="stop-color:#35E5E3;stop-opacity:0"/>
				</linearGradient>
				<path style="opacity:0.3;fill:url(#SVGID_16_);" d="M610.214,624.076c-15.316,15.316-31.647,23.819-36.475,18.99
					s3.674-21.159,18.99-36.475c15.316-15.316,265.62-249.327,265.62-249.327l1.192,1.192
					C859.541,358.457,624.259,610.031,610.214,624.076z"/>
				
					<linearGradient id="SVGID_17_" gradientUnits="userSpaceOnUse" x1="1155.4058" y1="-3905.9629" x2="1158.4292" y2="-4103.9834" gradientTransform="matrix(0.4281 0.4281 -0.7071 0.7071 -2672.5266 2900.2927)">
					<stop  offset="0" style="stop-color:#30E3E7"/>
					<stop  offset="0.4721" style="stop-color:#32E4E5;stop-opacity:0.3"/>
					<stop  offset="1" style="stop-color:#35E5E3;stop-opacity:0"/>
				</linearGradient>
				<path style="opacity:0.6;fill:url(#SVGID_17_);" d="M600.55,625.3c-7.617,7.617-15.739,11.846-18.14,9.445
					c-2.401-2.401,1.827-10.523,9.445-18.141s132.102-123.999,132.102-123.999l0.593,0.593
					C724.55,493.198,607.536,618.315,600.55,625.3z"/>
				
					<linearGradient id="SVGID_18_" gradientUnits="userSpaceOnUse" x1="1155.4663" y1="-3992.1348" x2="1157.7867" y2="-4144.1089" gradientTransform="matrix(0.4281 0.4281 -0.4371 0.4371 -1656.7367 1884.5026)">
					<stop  offset="0" style="stop-color:#30E3E7"/>
					<stop  offset="0.4721" style="stop-color:#32E4E5;stop-opacity:0.3"/>
					<stop  offset="1" style="stop-color:#35E5E3;stop-opacity:0"/>
				</linearGradient>
				<path style="fill:url(#SVGID_18_);" d="M592.099,631.729c-3.614,3.614-8.038,5.05-9.881,3.207
					c-1.843-1.843-0.407-6.267,3.207-9.881c3.614-3.614,63.862-57.643,63.862-57.643l0.455,0.455
					C649.742,567.867,595.413,628.415,592.099,631.729z"/>
			</g>
			<g>
				
					<linearGradient id="SVGID_19_" gradientUnits="userSpaceOnUse" x1="1097.2031" y1="-9319.4785" x2="1099.3202" y2="-9458.1328" gradientTransform="matrix(0.4281 0.4281 -0.3384 0.3384 -3054.1094 3281.8757)">
					<stop  offset="0" style="stop-color:#30E3E7"/>
					<stop  offset="0.4721" style="stop-color:#32E4E5;stop-opacity:0.3"/>
					<stop  offset="1" style="stop-color:#35E5E3;stop-opacity:0"/>
				</linearGradient>
				<path style="opacity:0.3;fill:url(#SVGID_19_);" d="M576.338,597.011c-2.552,2.552-5.985,3.259-7.666,1.577
					s-0.975-5.114,1.577-7.666c2.552-2.552,45.744-40.071,45.744-40.071l0.415,0.415
					C616.409,551.266,578.679,594.67,576.338,597.011z"/>
				
					<linearGradient id="SVGID_20_" gradientUnits="userSpaceOnUse" x1="1097.437" y1="-9322.8223" x2="1098.4899" y2="-9391.7793" gradientTransform="matrix(0.4281 0.4281 -0.3384 0.3384 -3054.1094 3281.8757)">
					<stop  offset="0" style="stop-color:#30E3E7"/>
					<stop  offset="0.4721" style="stop-color:#32E4E5;stop-opacity:0.3"/>
					<stop  offset="1" style="stop-color:#35E5E3;stop-opacity:0"/>
				</linearGradient>
				<path style="opacity:0.6;fill:url(#SVGID_20_);" d="M573.961,596.448c-1.269,1.269-2.976,1.621-3.813,0.784
					c-0.836-0.836-0.485-2.543,0.784-3.813s22.75-19.929,22.75-19.929l0.206,0.206C593.89,573.698,575.125,595.284,573.961,596.448z
					"/>
			</g>
			<g style="opacity:0.3;">
				
					<linearGradient id="SVGID_21_" gradientUnits="userSpaceOnUse" x1="813.4874" y1="-2980.5703" x2="815.6045" y2="-3119.2239" gradientTransform="matrix(0.5404 0.5404 -0.8549 0.8549 -2444.8677 2773.6394)">
					<stop  offset="0" style="stop-color:#30E3E7"/>
					<stop  offset="0.4721" style="stop-color:#32E4E5;stop-opacity:0.3"/>
					<stop  offset="1" style="stop-color:#35E5E3;stop-opacity:0"/>
				</linearGradient>
				<path style="opacity:0.3;fill:url(#SVGID_21_);" d="M557.022,658.88c-6.448,6.448-13.397,9.955-15.52,7.832
					s1.384-9.071,7.832-15.52c6.448-6.448,111.982-104.819,111.982-104.819l0.524,0.524
					C661.841,546.898,562.935,652.967,557.022,658.88z"/>
				
					<linearGradient id="SVGID_22_" gradientUnits="userSpaceOnUse" x1="813.7212" y1="-2983.9133" x2="814.7741" y2="-3052.8708" gradientTransform="matrix(0.5404 0.5404 -0.8549 0.8549 -2444.8677 2773.6394)">
					<stop  offset="0" style="stop-color:#30E3E7"/>
					<stop  offset="0.4721" style="stop-color:#32E4E5;stop-opacity:0.3"/>
					<stop  offset="1" style="stop-color:#35E5E3;stop-opacity:0"/>
				</linearGradient>
				<path style="opacity:0.6;fill:url(#SVGID_22_);" d="M552.875,659.317c-3.207,3.207-6.663,4.951-7.718,3.895
					c-1.056-1.056,0.688-4.511,3.895-7.718c3.207-3.207,55.693-52.13,55.693-52.13l0.261,0.261
					C605.005,603.624,555.815,656.376,552.875,659.317z"/>
			</g>
			<g>
				
					<linearGradient id="SVGID_23_" gradientUnits="userSpaceOnUse" x1="-864.4165" y1="-7163.9424" x2="-862.048" y2="-7319.0684" gradientTransform="matrix(0.6074 0.6074 -0.4312 0.4312 -2401.7661 4053.0642)">
					<stop  offset="0" style="stop-color:#30E3E7"/>
					<stop  offset="0.4721" style="stop-color:#32E4E5;stop-opacity:0.3"/>
					<stop  offset="1" style="stop-color:#35E5E3;stop-opacity:0"/>
				</linearGradient>
				<path style="opacity:0.3;fill:url(#SVGID_23_);" d="M173.062,437.981c-3.639,3.639-8.753,4.425-11.423,1.756
					c-2.669-2.669-1.883-7.784,1.756-11.423c3.639-3.639,65.677-56.669,65.677-56.669l0.659,0.659
					C229.731,372.303,176.399,434.644,173.062,437.981z"/>
			</g>
			<g>
				
					<linearGradient id="SVGID_24_" gradientUnits="userSpaceOnUse" x1="-318.8469" y1="-7395.3433" x2="-317.8227" y2="-7462.4204" gradientTransform="matrix(0.6074 0.6074 -0.4312 0.4312 -2401.7661 4053.0642)">
					<stop  offset="0" style="stop-color:#30E3E7"/>
					<stop  offset="0.4721" style="stop-color:#32E4E5;stop-opacity:0.3"/>
					<stop  offset="1" style="stop-color:#35E5E3;stop-opacity:0"/>
				</linearGradient>
				<path style="opacity:0.3;fill:url(#SVGID_24_);" d="M598.153,670.069c-1.574,1.574-3.785,1.913-4.939,0.759
					s-0.814-3.366,0.759-4.939c1.574-1.573,28.399-24.504,28.399-24.504l0.285,0.285
					C622.657,641.67,599.596,668.626,598.153,670.069z"/>
			</g>
		</g>
		<g style="clip-path:url(#SVGID_2_);">
			<radialGradient id="SVGID_25_" cx="872.4972" cy="637.2878" r="210.2184" gradientUnits="userSpaceOnUse">
				<stop  offset="0" style="stop-color:#2DEEC6"/>
				<stop  offset="1" style="stop-color:#51FEC3;stop-opacity:0"/>
			</radialGradient>
			<circle style="fill:url(#SVGID_25_);" cx="872.497" cy="637.288" r="210.218"/>
			<g>
				<circle style="fill:#2DEEC6;" cx="872.497" cy="637.288" r="147.825"/>
				<path style="fill:#51FEC3;" d="M880.952,489.709c8.308,27.171,23.679,62.772,50.1,80.386
					c23.995,15.997,57.358,23.66,83.828,27.334C998.209,537.756,945.039,493.324,880.952,489.709z"/>
				<path style="fill:#51FEC3;" d="M801.206,507.768c9.159,26.807,30.678,77.154,71.291,110.322
					c45.512,37.168,115.588,52.155,142.991,56.809c2.111-8.049,3.556-16.366,4.283-24.889
					c-28.218-6.147-95.396-23.226-131.915-53.037c-36.747-29.998-58.262-78.745-65.914-98.635
					C814.751,500.954,807.826,504.117,801.206,507.768z"/>
				<path style="fill:#51FEC3;" d="M996.009,718.521c-34-9.679-116.67-35.675-159.261-70.404
					c-45.742-37.298-67.281-93.813-73.003-110.944c-7.566,8.214-14.214,17.286-19.779,27.056
					c11.056,29.245,32.458,71.054,71.444,102.856c48.587,39.633,125.153,63.271,163.127,73.182
					C985.016,733.597,990.871,726.317,996.009,718.521z"/>
				<path style="fill:#51FEC3;" d="M910.114,780.277c13.523-3.548,26.288-8.965,38.006-15.956
					c-37.468-11.053-111.987-35.835-151.689-68.207c-36.098-29.434-57.12-70.834-67.194-95.405
					c-2.978,11.699-4.565,23.954-4.565,36.58c0,7.15,0.518,14.178,1.5,21.057c11.94,19.461,27.863,39.558,48.921,56.736
					C813.571,746.468,869.603,767.825,910.114,780.277z"/>
				<path style="fill:#51FEC3;" d="M852.08,783.702c-14.214-11.885-32.723-26.384-44.856-32.186
					c-10.619-5.079-28.12-10.157-43.429-14.06C786.454,762.032,817.338,778.902,852.08,783.702z"/>
				<path style="opacity:0.5;fill:#00CFC9;" d="M983.846,612.33c0-42.748-18.153-81.251-47.162-108.241
					c-19.413-9.372-41.186-14.626-64.187-14.626c-81.641,0-147.825,66.183-147.825,147.825c0,42.748,18.153,81.251,47.162,108.241
					c19.413,9.372,41.186,14.626,64.187,14.626C917.662,760.155,983.846,693.972,983.846,612.33z"/>
			</g>
			<path style="opacity:0.5;fill:#92FFD8;" d="M1016.167,602.348c0.042,0.173,0.082,0.347,0.123,0.52
				c40.883,5.582,66.425,13.515,66.425,22.317c0,16.897-94.118,30.595-210.218,30.595s-210.218-13.698-210.218-30.595
				c0-8.802,25.541-16.736,66.425-22.317c0.041-0.173,0.082-0.347,0.123-0.52c-64.262,7.726-106.253,20.495-106.253,34.939
				c0,23.581,111.894,42.696,249.923,42.696s249.923-19.116,249.923-42.696C1122.421,622.843,1080.43,610.075,1016.167,602.348z"/>
		</g>
		<g style="clip-path:url(#SVGID_2_);">
			
				<radialGradient id="SVGID_26_" cx="-12493.7637" cy="2360.1934" r="145.7532" gradientTransform="matrix(-0.9627 0.2704 0.2704 0.9627 -12529.7432 1726.1483)" gradientUnits="userSpaceOnUse">
				<stop  offset="0" style="stop-color:#08ACD2"/>
				<stop  offset="1" style="stop-color:#08ACD2;stop-opacity:0"/>
			</radialGradient>
			<circle style="fill:url(#SVGID_26_);" cx="136.805" cy="620.155" r="145.753"/>
			<circle style="fill:#08ACD2;" cx="136.805" cy="620.155" r="109.434"/>
			<g>
				<defs>
					<circle id="SVGID_27_" cx="136.805" cy="620.155" r="109.434"/>
				</defs>
				<clipPath id="SVGID_28_">
					<use xlink:href="#SVGID_27_"  style="overflow:visible;"/>
				</clipPath>
				<g style="clip-path:url(#SVGID_28_);">
					<path style="fill:#11AFCB;" d="M254.087,604.393c0,0-11.537-3.339-29.279-2.742c-17.742,0.597-81.846,24.815-118.832,27.162
						c-36.987,2.347-82.427-7.186-82.427-7.186l0.562,25.427c0,0,58.671,12.396,78.35,10.889s95.107-17.94,114.382-15.678
						s34.497,3.104,34.497,3.104L254.087,604.393z"/>
					<g>
						<path style="fill:#43CFD6;" d="M98.764,658.307c-22.27,0-74.148-10.903-74.701-11.019l-0.185-0.039l-0.573-25.915l0.294,0.062
							c0.454,0.095,45.835,9.499,82.363,7.181c21.257-1.349,52.016-10.082,76.732-17.099c18.537-5.263,34.546-9.808,42.108-10.063
							c17.575-0.592,29.237,2.717,29.353,2.751l0.184,0.053l-2.774,41.402l-0.235-0.013c-0.152-0.008-15.449-0.868-34.512-3.105
							c-12.129-1.422-47.196,4.689-75.373,9.599c-17.004,2.963-31.689,5.523-38.963,6.08
							C101.364,658.266,100.117,658.307,98.764,658.307z M24.346,646.86c3.651,0.764,59.226,12.29,78.098,10.846
							c7.251-0.555,21.926-3.113,38.918-6.074c28.208-4.916,63.314-11.034,75.51-9.603c17.759,2.084,32.246,2.971,34.248,3.089
							l2.717-40.546c-1.552-0.416-12.726-3.23-29.02-2.682c-7.504,0.253-23.487,4.79-41.994,10.045
							c-24.738,7.023-55.524,15.764-76.832,17.117c-4.014,0.255-8.137,0.368-12.292,0.368c-32.135,0-66.382-6.782-69.905-7.498
							L24.346,646.86z"/>
					</g>
				</g>
				<g style="clip-path:url(#SVGID_28_);">
					<path style="fill:#18B2CA;" d="M255.719,628.423c0,0-13.897-5.234-23.276-4.793c-9.379,0.441-105.59,27.463-123.575,28.494
						c-17.985,1.031-75.438-13.535-86.469-11.167c-11.031,2.367,8.754,31.167,8.754,31.167s34.204,14.823,82.284,17.613
						c48.08,2.79,119.644-14.386,136.388-8.123C266.569,687.875,255.719,628.423,255.719,628.423z"/>
					<g>
						<path style="fill:#4AD6DD;" d="M124.856,690.405c-3.924,0-7.746-0.097-11.44-0.312c-24.868-1.443-45.945-6.161-59.247-9.865
							c-14.418-4.015-23.072-7.74-23.158-7.777l-0.094-0.041l-0.058-0.085c-0.603-0.878-14.74-21.594-11.741-29.13
							c0.548-1.379,1.627-2.249,3.207-2.588c5.613-1.204,22.83,1.874,41.057,5.132c17.976,3.214,36.563,6.538,45.467,6.028
							c10.298-0.59,45.777-9.59,77.08-17.531c22.79-5.781,42.471-10.774,46.499-10.963c9.347-0.438,23.279,4.763,23.418,4.816
							l0.189,0.071l0.036,0.199c0.338,1.851,8.168,45.41-0.836,52.944c-1.488,1.245-3.35,1.462-5.535,0.645
							c-8.206-3.069-30.119-0.403-55.492,2.684C171.756,687.364,146.762,690.405,124.856,690.405z M31.389,671.836
							c0.976,0.414,9.418,3.931,22.987,7.708c13.265,3.693,34.283,8.397,59.081,9.836c24.249,1.407,54.221-2.24,80.664-5.457
							c25.466-3.099,47.46-5.775,55.829-2.644c1.953,0.73,3.532,0.559,4.826-0.524c8.388-7.018,1.206-48.79,0.628-52.067
							c-1.697-0.619-14.333-5.106-22.943-4.701c-3.955,0.186-23.604,5.17-46.357,10.942c-31.334,7.948-66.849,16.957-77.215,17.552
							c-8.987,0.514-27.617-2.816-45.634-6.038c-18.155-3.246-35.303-6.313-40.781-5.137c-1.35,0.29-2.231,0.994-2.693,2.154
							C17.015,650.413,30.388,670.358,31.389,671.836z"/>
					</g>
				</g>
				<g style="clip-path:url(#SVGID_28_);">
					<path style="fill:#11AFCB;" d="M205.962,525.44c0,0-63.183,23.593-86.387,24.262s-53.548-12.373-55.748-17.603
						s-23.456,24.497-23.456,24.497s33.613,16.875,67.349,17.268c33.736,0.393,118.371-10.585,124.355-19.21
						C217.644,539.703,205.962,525.44,205.962,525.44z"/>
					<path style="fill:#43CFD6;" d="M109.516,574.113c-0.615,0-1.214-0.003-1.798-0.01c-17.458-0.204-34.868-4.895-46.399-8.794
						c-12.492-4.224-20.97-8.457-21.054-8.499l-0.249-0.125l0.162-0.226c0.751-1.05,18.438-25.71,22.919-25.205
						c0.434,0.048,0.763,0.309,0.95,0.755c1.093,2.599,9.444,7.175,19.858,10.881c12.558,4.47,25.554,6.867,35.664,6.576
						c11.958-0.345,34.784-6.917,51.827-12.37c18.477-5.912,34.325-11.818,34.483-11.877l0.16-0.06l0.108,0.132
						c0.117,0.143,11.841,14.427,26.102,29.2l0.136,0.141l-0.111,0.16c-1.448,2.087-7.286,4.372-17.351,6.791
						c-8.87,2.132-20.829,4.309-34.582,6.295C154.21,571.652,126.139,574.113,109.516,574.113z M40.73,556.507
						c1.489,0.727,9.481,4.543,20.751,8.353c11.496,3.887,28.851,8.564,46.244,8.766c33.437,0.39,117.21-10.434,124.041-18.952
						c-13.481-13.979-24.666-27.48-25.879-28.952c-1.71,0.635-16.848,6.227-34.343,11.825c-17.073,5.463-39.946,12.047-51.96,12.393
						c-10.166,0.294-23.225-2.114-35.837-6.603c-10.698-3.808-18.978-8.391-20.137-11.146c-0.121-0.288-0.301-0.436-0.564-0.466
						C59.593,531.346,45.928,549.262,40.73,556.507z"/>
				</g>
				<g style="clip-path:url(#SVGID_28_);">
					<path style="fill:#11AFCB;" d="M199.428,506.076c0,0-23.087,28.414-74.1,32.873s-61.358-16.758-61.358-16.758l60.949-21.138
						L199.428,506.076z"/>
					<path style="fill:#43CFD6;" d="M111.868,539.801c-6.376,0-12.293-0.452-17.688-1.354c-7.23-1.209-13.546-3.226-18.773-5.994
						c-8.929-4.729-11.545-9.938-11.652-10.157l-0.118-0.241l0.254-0.088l60.994-21.154l75.017,5.058l-0.29,0.357
						c-2.005,2.468-8.342,8.739-17.978,14.816c-11.106,7.004-29.887,15.837-56.286,18.144
						C120.659,539.596,116.159,539.801,111.868,539.801z M64.308,522.326c1.067,1.946,4.608,6.16,11.368,9.73
						c8.148,4.303,23.372,8.952,49.631,6.656c26.304-2.299,45.012-11.097,56.074-18.073c10.45-6.59,16.218-12.827,17.558-14.357
						l-73.988-4.988L64.308,522.326z"/>
				</g>
			</g>
			<path style="opacity:0.5;fill:#0C88B0;" d="M107.214,514.797c6.606-1.855,13.24-3.056,19.836-3.654
				c-42.452,21.534-64.812,72.552-50.82,122.37c15.798,56.248,71.956,89.681,125.5,74.763c-10.35,7.628-22.223,13.554-35.334,17.237
				c-58.188,16.342-118.606-17.58-134.948-75.767C15.104,591.558,49.026,531.14,107.214,514.797z"/>
			<path style="opacity:0.5;fill:#4ACFDD;" d="M27.373,622.598c0.001,0.061,0.005,0.122,0.006,0.182
				c-13.633,8.449-20.897,16.156-19.303,21.833c4.046,14.406,63.597,10.281,133.01-9.214
				c69.413-19.495,122.404-46.978,118.358-61.385c-1.594-5.677-11.809-8.475-27.848-8.59c-0.03-0.053-0.059-0.106-0.09-0.159
				c31.798-0.985,53.376,4.326,56.664,16.032c6.253,22.265-56.02,59.228-139.092,82.559s-155.484,24.196-161.737,1.931
				C-15.946,654.082-0.288,638.313,27.373,622.598z"/>
		</g>
		<g style="clip-path:url(#SVGID_2_);">
			
				<radialGradient id="SVGID_29_" cx="66.9399" cy="844.8455" r="139.2497" gradientTransform="matrix(0.9924 -0.1234 0.1234 0.9924 141.9945 -757.4224)" gradientUnits="userSpaceOnUse">
				<stop  offset="0" style="stop-color:#FFF17E"/>
				<stop  offset="0.9451" style="stop-color:#FFF17E;stop-opacity:0"/>
			</radialGradient>
			<circle style="fill:url(#SVGID_29_);" cx="312.676" cy="72.706" r="137.634"/>
			<linearGradient id="SVGID_30_" gradientUnits="userSpaceOnUse" x1="276.5121" y1="29.875" x2="363.8369" y2="133.2963">
				<stop  offset="0.1588" style="stop-color:#FDF47F"/>
				<stop  offset="1" style="stop-color:#F0731F"/>
			</linearGradient>
			<circle style="fill:url(#SVGID_30_);" cx="312.676" cy="72.706" r="87.083"/>
			<linearGradient id="SVGID_31_" gradientUnits="userSpaceOnUse" x1="176.3834" y1="77.338" x2="444.6927" y2="77.338">
				<stop  offset="0" style="stop-color:#F17723"/>
				<stop  offset="0.9451" style="stop-color:#F7C658"/>
			</linearGradient>
			<path style="opacity:0.4;fill:url(#SVGID_31_);" d="M393.674,40.666c0.761,1.927,0.886,2.069,1.512,4.066
				c25.854,2.48,27.667,12.52,28.459,18.893c1.516,12.19-39.514,30.635-110.49,39.461s-129.614,1.912-131.13-10.278
				c-0.848-6.821,16.177-17.055,43.773-26.293c0.145-2.071,0.363-4.126,0.654-6.161c-31.624,10.092-51.351,22.315-50.004,33.148
				c2.282,18.35,64.166,25.761,138.221,16.552s132.24-31.55,129.958-49.9C443.359,49.948,423.654,43.127,393.674,40.666z"/>
		</g>
	</g>
	<g>
		<path style="fill:#ABBCD6;" d="M469.537,302.712c0,0,2.41-12.423,2.596-18.357c0-2.225-4.635-3.152-7.417-3.894
			c-2.781-0.742-30.78-9.827-30.78-9.827s-6.675-2.41-6.304,9.642c0.371,12.052,20.895,21.854,20.895,21.854L469.537,302.712z"/>
		<path style="fill:#D9E6FF;" d="M431.025,306.546c0,0,2.343-13.845,2.343-15.974c0-2.13-2.769-4.473-9.372-5.964
			c-6.603-1.491-34.292-8.307-34.292-8.307s-10.65,1.491-8.094,18.104c1.065,4.047,24.068,13.419,24.068,13.419L431.025,306.546z"/>
		<path style="fill:#ABBCD6;" d="M435.072,345.737l7.881-43.451c0,0,13.632-5.538,27.05,0c-0.852,10.437-4.686,57.934-4.686,57.934
			l-28.754-6.39L435.072,345.737z"/>
		<path style="fill:#C8D4E8;" d="M626.766,423.905c0,0,22.577,6.177,29.606,13.206c7.029,7.029,2.343,19.382-3.621,20.021
			c-5.325,0.639-16.613-8.946-16.613-8.946c2.982,5.325,4.26,8.094,1.704,10.65c-2.556,2.556-13.343-10.284-15.937-13.555
			c-2.594-3.271-1.742-6.466-1.742-6.466L626.766,423.905z"/>
		<path style="fill:#C8D4E8;" d="M577.778,421.349l41.96,26.837c0,0,11.715-14.271,9.798-24.281
			c-8.946-6.39-25.772-18.104-25.772-18.104L577.778,421.349z"/>
		<path style="fill:#FFFFFF;" d="M569.897,491.424c0,0,0.639,18.956,13.206,27.689c6.39,3.834,14.697-5.538,13.845-9.159
			s-6.603-13.845-6.177-15.762c1.704,3.408,4.686,7.029,7.881,5.751c3.195-1.278,0.852-8.52-2.769-11.502
			c-3.621-2.982-7.455-3.834-8.52-6.39C586.297,479.497,569.897,491.424,569.897,491.424z"/>
		<path style="fill:#FAFCFF;" d="M403.336,307.398l4.047,60.703c0,0,1.917,12.141,18.317,20.66
			c16.4,8.52,34.505,15.336,45.155,17.039c10.65,1.704,46.433,16.188,49.84,20.021c3.408,3.834,47.497,68.371,47.497,68.371
			s15.336-8.094,19.169-12.141c-3.408-9.159-29.393-61.555-29.393-61.555l-5.538-29.18l-65.602-34.505l-21.299-5.325l-28.115-0.639
			l-5.751-46.007C431.664,304.842,414.199,301.008,403.336,307.398z"/>
		<path style="fill:#B1C2DD;" d="M541.857,455.842c10.18,14.742,20.97,30.504,24.844,36.168l3.196-2.716l-24.316-34.403
			L541.857,455.842z"/>
		<path style="fill:#B1C2DD;" d="M547.959,453.724c-7.242-0.639-21.725-28.754-21.725-28.754s-2.343-4.686-4.686-5.112
			c-8.946-1.278-47.71-20.447-47.71-20.447l1.065,7.304c13.656,3.672,42.738,15.67,45.793,19.108
			c1.346,1.515,10.989,15.373,19.808,28.115C544.278,455.96,545.658,454.214,547.959,453.724z"/>
		<path style="fill:#B1C2DD;" d="M425.7,388.761c15.88,8.249,33.357,14.901,44.118,16.862c-0.47-2.339-1.21-5.901-2.372-11.324
			c-31.31-2.982-50.692-22.577-50.692-22.577l-5.224,5.224C414.221,380.712,418.604,385.075,425.7,388.761z"/>
		<path style="fill:#B1C2DD;" d="M405.892,309.528l-2.353,0.915l3.844,57.658c0,0,0.479,3.035,3.008,7.134
			c1.332-1.201,3.122-2.988,5.512-5.643C409.513,370.444,405.892,309.528,405.892,309.528z"/>
		<path style="fill:#DB6445;" d="M480.653,373.213c0,0-5.964,2.982-6.177,18.53c0,7.668,3.621,15.975,3.621,15.975
			s-7.029,1.278-10.65-1.917c-2.343-5.112-3.621-15.336-1.704-22.577c1.917-7.242,7.668-12.567,7.668-12.567L480.653,373.213z"/>
		<path style="fill:#7C8F9B;" d="M487.043,376.621c0,0,3.195,25.985,17.465,40.895c-6.816-2.343-15.974-5.325-16.613-6.603
			s-12.932-30.633-10.62-36.296S487.043,376.621,487.043,376.621z"/>
		<path style="fill:#AEC3E5;" d="M468.072,358.202c0,0-2.967-7.14,1.931-11.826c4.899-4.686,22.79-14.91,25.133-15.548
			s10.011-4.473,22.151,1.704c12.141,6.177,46.214,24.284,46.214,24.284l-8.088,6.387c0,0-26.198,19.808-30.458,19.595
			C520.695,382.585,468.072,358.202,468.072,358.202z"/>
		<path style="fill:#95A9C6;" d="M522.756,394.567c0,0,4.542,3.353,10.08-1.546c5.538-4.899,16.4-12.141,16.4-12.141l8.733-15.975
			l-1.929-3.429l-31.085,21.32L522.756,394.567z"/>
		<path style="fill:#718DB5;" d="M471.822,371.277l-4.238-14.774c-0.581-2.024,1.54-3.761,3.41-2.794l54.028,27.935
			c0.632,0.327,1.087,0.917,1.241,1.612l2.138,9.619c0.426,1.919-1.508,3.509-3.308,2.719l-51.928-22.779
			C472.511,372.527,472.019,371.964,471.822,371.277z"/>
		<path style="fill:#DB6445;" d="M587.362,420.71c0,0-7.668,8.733-26.411,3.195c-18.743-5.538-21.512-25.985-21.299-28.328
			c0.213-2.343,0.852-7.029,4.047-9.585c3.195-2.556,6.603,19.808,6.603,19.808l9.798,7.881l14.271,5.964L587.362,420.71z"/>
		<circle style="fill:#FFFFFF;" cx="577.671" cy="388.868" r="35.037"/>
		<linearGradient id="SVGID_32_" gradientUnits="userSpaceOnUse" x1="597.541" y1="418.051" x2="572.0258" y2="376.545">
			<stop  offset="0" style="stop-color:#160050"/>
			<stop  offset="1" style="stop-color:#110A35"/>
		</linearGradient>
		<path style="fill:url(#SVGID_32_);" d="M612.496,392.169c-0.426,14.271-14.271,31.736-34.824,31.736
			c-15.442,0-25.24-12.78-25.24-27.902c0-10.117,8.733-27.689,34.931-27.689C611.111,368.314,612.709,381.307,612.496,392.169z"/>
		<path style="fill:#EEF6FF;" d="M558.608,382.798c0,0,7.668-13.845,31.31-13.419c23.642,0.426,22.412,24.956,22.412,24.956
			s0.591-4.647,0.378-7.134c-0.213-2.487-0.856-22.043-23.429-22.508c-20.66-0.426-29.393,6.603-34.718,15.336
			C556.052,381.307,558.608,382.798,558.608,382.798z"/>
		<path style="fill:#BBD7FF;" d="M558.182,381.946c0,0,8.094-13.419,31.736-12.993c23.642,0.426,22.412,25.382,22.412,25.382
			s0.591-4.647,0.378-7.134c-0.213-2.487-0.856-23.96-23.429-24.425c-20.66-0.426-30.884,8.52-36.209,17.252
			C554.561,381.307,558.182,381.946,558.182,381.946z"/>
		<path style="fill:#656E7C;" d="M561.803,388.761c0,5.646-4.094,10.224-8.094,10.224c-4,0-7.242-4.577-7.242-10.224
			c0-5.646,3.668-11.076,7.668-11.076S561.803,381.733,561.803,388.761z"/>
		<ellipse style="fill:#9EA8B7;" cx="553.709" cy="388.761" rx="7.242" ry="10.224"/>
		<ellipse style="fill:#D6DEEA;" cx="553.709" cy="388.761" rx="5.733" ry="8.094"/>
		<ellipse style="fill:#ACB6C1;" cx="553.709" cy="388.761" rx="4.979" ry="7.029"/>
		<ellipse style="fill:#E5F0F9;" cx="553.709" cy="388.761" rx="4.375" ry="6.177"/>
		<path style="fill:#DB6445;" d="M438.019,350.862c0,0-11.893,2.542-13.597,8.08c-2.039,6.628-4.378,16.64-11.667,19.609
			c-2.178,0.839-3.638-3.044-2.735-3.935c0.902-0.89,8.012-9.497,9.929-16.952c1.491-7.029,12.196-8.5,17.174-9.149
			c0.157,1.258,0.279,1.99,0.279,1.99l0.013,0.343L438.019,350.862z"/>
		<path style="fill:#DB6445;" d="M568.193,494.193c0,0-3.226-0.935-2.359-3.449c0.868-2.514,14.741-7.547,19.945-12.486
			c1.036,0.56,2.435,2.517,1.583,3.794C586.51,483.33,572.24,493.128,568.193,494.193z"/>
		<path style="fill:#DB6445;" d="M432.17,308.888c0,0-11.442-3.453-28.551,2.747c-0.991-0.38-0.708-3.811-0.282-4.237
			c0.426-0.426,6.177-4.047,13.845-4.047c7.668,0,14.484,1.491,14.484,1.491S433.102,307.396,432.17,308.888z"/>
		<path style="fill:#B5503C;" d="M442.332,305.708c0,0,18.33-3.404,27.367,0.315c0.821-0.018,0.517-3.097,0.304-3.736
			s-5.964-2.982-10.65-2.982s-14.271,1.278-16.4,2.982C442.101,303.351,441.712,305.934,442.332,305.708z"/>
		<path style="fill:#B5503C;" d="M619.737,448.186c0,0-4.397-1.2-4.435-2.836c1.628-1.569,11.102-16.695,11.283-23.543
			c1-1.129,2.95,2.098,2.95,2.098s1.704,7.029-4.899,18.104C620.802,448.186,619.737,448.186,619.737,448.186z"/>
		<path style="fill:#DB6445;" d="M569.434,443.827c0,0-16.811,10.701-29.793,8.809c-1.054,1.941,1.076,4.38,2.993,4.332
			s13.157,1.352,29.262-8.081C573.223,446.848,571.74,444.153,569.434,443.827z"/>
		<path style="fill:#D82E21;" d="M532.836,429.23c0,0,14.484-0.213,19.595-5.325c2.769,7.029,4.473,11.076,4.473,11.076
			s-12.78,5.751-19.595,3.195C537.096,437.75,532.836,429.23,532.836,429.23z"/>
		<path style="fill:#47688E;" d="M511.599,378.799l9.248,3.639c0.567,0.223,0.975,0.727,1.075,1.328l0.628,3.764
			c0.233,1.395-1.214,2.467-2.481,1.838l-9.437-4.683c-0.501-0.249-0.852-0.724-0.941-1.277l-0.439-2.719
			C509.038,379.363,510.349,378.308,511.599,378.799z"/>
		<circle style="fill:#47688E;" cx="504.508" cy="381.733" r="1.065"/>
		<circle style="fill:#47688E;" cx="500.248" cy="379.603" r="1.065"/>
		<circle style="fill:#47688E;" cx="496.201" cy="377.686" r="1.065"/>
		<circle style="fill:#47688E;" cx="492.367" cy="376.195" r="1.065"/>
		<polygon style="fill:#47688E;" points="471.494,357.664 474.689,369.379 477.032,370.657 473.837,359.155 		"/>
		<polygon style="fill:#47688E;" points="474.902,359.155 478.097,370.87 480.44,372.148 477.245,360.646 		"/>
		<polygon style="fill:#47688E;" points="478.31,361.072 481.505,372.787 483.848,374.065 480.653,362.563 		"/>
		<path style="fill:#47688E;" d="M501.442,341.199l9.263-6.004c0.472-0.306,0.372-1.024-0.165-1.189l-0.937-0.288
			c-0.192-0.059-0.401-0.028-0.567,0.085l-8.837,6.009c-0.408,0.277-0.38,0.887,0.051,1.127l0.51,0.283
			C500.975,341.341,501.237,341.332,501.442,341.199z"/>
		<path style="fill:#47688E;" d="M498.372,338.923l7.656-4.9c0.672-0.43,0.472-1.461-0.313-1.608l-0.661-0.124
			c-0.224-0.042-0.457,0.005-0.647,0.13l-7.324,4.827c-0.542,0.357-0.525,1.157,0.032,1.491l0.329,0.197
			C497.731,339.109,498.09,339.104,498.372,338.923z"/>
		<g>
			<circle style="fill:#F8F9FF;" cx="523.229" cy="357.612" r="10.503"/>
			<linearGradient id="SVGID_33_" gradientUnits="userSpaceOnUse" x1="513.0785" y1="357.1132" x2="533.3789" y2="357.1132">
				<stop  offset="0" style="stop-color:#160050"/>
				<stop  offset="1" style="stop-color:#110A35"/>
			</linearGradient>
			<circle style="fill:url(#SVGID_33_);" cx="523.229" cy="357.113" r="10.15"/>
			<circle style="fill:#DB6445;" cx="523.229" cy="356.415" r="9.657"/>
			<circle style="fill:#EF9786;" cx="523.229" cy="356.415" r="3.877"/>
		</g>
	</g>
</g>
</svg>
