<?xml version="1.0" standalone="no"?><!DOCTYPE svg PUBLIC "-//W3C//DTD SVG 1.1//EN" "http://www.w3.org/Graphics/SVG/1.1/DTD/svg11.dtd"><svg t="1649679249571" class="icon" viewBox="0 0 1024 1024" version="1.1" xmlns="http://www.w3.org/2000/svg" p-id="9444" xmlns:xlink="http://www.w3.org/1999/xlink" width="200" height="200"><defs><style type="text/css">@font-face { font-family: "feedback-iconfont"; src: url("//at.alicdn.com/t/font_1031158_u69w8yhxdu.woff2?t=1630033759944") format("woff2"), url("//at.alicdn.com/t/font_1031158_u69w8yhxdu.woff?t=1630033759944") format("woff"), url("//at.alicdn.com/t/font_1031158_u69w8yhxdu.ttf?t=1630033759944") format("truetype"); }
</style></defs><path d="M512 1009.006334c-58.600696 0-106.10764-47.504943-106.10764-106.10764v-40.085108h212.21528v40.085108c-0.002 58.600696-47.506943 106.10764-106.10764 106.10764z" fill="#FED402" p-id="9445"></path><path d="M618.09964 862.811586v40.089108c0 58.600696-47.498943 106.09964-106.09964 106.09964-8.665807 0-17.055621-1.029977-25.117441-2.989934 46.468966-11.277749 80.982198-53.174817 80.982198-103.111706v-40.089108h50.234883z" fill="#FAC600" p-id="9446"></path><path d="M808.583402 675.585751V414.91355c0-163.798356-132.785046-296.583402-296.583402-296.583402-163.798356 0-296.583402 132.785046-296.583402 296.583402v260.672201A91.591962 91.591962 0 0 1 191.007141 737.840366l-9.075798 9.793782a102.243725 102.243725 0 0 0-27.249394 69.496454v34.471233a11.209751 11.209751 0 0 0 11.209751 11.209751h692.2186a11.209751 11.209751 0 0 0 11.209751-11.209751v-34.471233a102.243725 102.243725 0 0 0-27.249394-69.496454l-9.075798-9.793782a91.585963 91.585963 0 0 1-24.411457-62.254615z" fill="#FEE97D" p-id="9447"></path><path d="M869.328051 817.122602v34.483233c0 6.189862-5.035888 11.205751-11.22575 11.205751h-39.347125c6.189862 0 11.22575-5.015888 11.22575-11.205751v-34.483233a102.273725 102.273725 0 0 0-27.255394-69.486454l-9.071798-9.803782a91.501964 91.501964 0 0 1-24.411457-62.238615V414.91155c0-157.174503-122.26928-285.805642-276.90584-295.953416a301.913284 301.913284 0 0 1 19.663563-0.633986c163.806356 0 296.589402 132.801046 296.589402 296.589402v260.682201a91.497965 91.497965 0 0 0 24.411457 62.238615l9.071798 9.803782a102.265725 102.265725 0 0 1 27.255394 69.484454z" fill="#FEDF30" p-id="9448"></path><path d="M511.640008 170.066997c-9.677785 45.052998-32.305281 92.289947-49.470899 135.140993-8.53781 21.311526-24.353458 45.38499-51.044865 41.459078-7.699829-1.133975-14.931668-4.357903-21.793515-8.023821-31.861291-17.017621-46.466966-42.553053-29.343347-76.132307 11.285749-22.131508 20.759538-47.956933 35.403212-67.956488z" fill="#EE6161" p-id="9449"></path><path d="M511.638008 170.076996c-9.675785 45.040998-32.307281 92.281947-49.4609 135.124994-8.53581 21.311526-24.369458 45.40299-51.058864 41.463078-7.697829-1.119975-14.933668-4.357903-21.791515-8.015822-1.479967-0.799982-2.937935-1.599964-4.337903-2.439945 18.073598-4.777894 29.587342-23.629474 36.445189-40.723094 14.713673-36.765182 33.467255-76.768292 44.581008-115.813424z" fill="#E94444" p-id="9450"></path><path d="M512.357992 170.066997c9.677785 45.052998 32.305281 92.289947 49.4709 135.140993 8.53781 21.311526 24.353458 45.38499 51.044864 41.459078 7.699829-1.133975 14.931668-4.357903 21.793515-8.023821 31.861291-17.017621 46.466966-42.553053 29.343347-76.132307-11.285749-22.131508-20.759538-47.956933-35.403212-67.956488z" fill="#EE6161" p-id="9451"></path><path d="M634.669271 338.647246c-6.857847 3.657919-14.093686 6.897847-21.791515 8.015822-3.197929 0.479989-6.217862 0.539988-9.115797 0.239995 25.389435-18.313593 35.225216-43.663029 19.29157-75.728316-9.055799-18.193595-25.869425-58.236704-40.303103-86.28608l45.86098 9.655785c14.633674 20.011555 24.109464 45.84098 35.405212 67.972488 17.113619 33.567253 2.519944 59.116685-29.347347 76.130306z" fill="#E94444" p-id="9452"></path><path d="M404.910382 19.396349c-37.029176-9.985778-74.350346-3.187929-94.649894 23.301481-30.183329 39.389124-30.227328 114.353456 0.002 153.798579 20.297548 26.487411 57.620718 33.28526 94.647894 23.299481 42.181062-11.375747 65.846535-36.125196 90.38999-63.130595v-74.138351c-24.545454-27.005399-48.208928-51.754849-90.38999-63.130595z" fill="#EE6161" p-id="9453"></path><path d="M495.306371 82.530944v74.130351c-7.917824 8.695807-15.73365 17.173618-24.129463 25.049443h-22.691495c-20.451545 0-37.165173-16.733628-37.165173-37.185173v-49.858891c0-20.451545 16.713628-37.165173 37.165173-37.165173h22.711495c8.375814 7.855825 16.19164 16.333637 24.109463 25.029443z" fill="#E94444" p-id="9454"></path><path d="M619.087618 19.396349c37.029176-9.985778 74.350346-3.187929 94.649894 23.301481 30.183329 39.389124 30.227328 114.353456-0.002 153.798579-20.297548 26.487411-57.620718 33.28526-94.647894 23.299481-42.181062-11.375747-65.846535-36.125196-90.389989-63.130595v-74.138351c24.543454-27.005399 48.208928-51.754849 90.389989-63.130595z" fill="#EE6161" p-id="9455"></path><path d="M713.737512 196.504409c-20.291549 26.489411-57.616718 33.287259-94.641894 23.289481-12.035732-3.257928-22.551498-7.577831-32.027288-12.753716 34.067242 6.777849 67.232504-0.91998 85.926089-25.329436 30.227328-39.445123 30.187328-114.413455 0-153.798579a64.840558 64.840558 0 0 0-12.61572-12.475722c21.59152 1.959956 40.743094 10.815759 53.358813 27.269393 30.187328 39.385124 30.227328 114.355456 0 153.798579z" fill="#E94444" p-id="9456"></path><path d="M536.931445 181.700738h-49.86489c-20.445545 0-37.171173-16.727628-37.171173-37.171173V94.664674c0-20.445545 16.727628-37.171173 37.171173-37.171173h49.86489c20.445545 0 37.171173 16.727628 37.171173 37.171173v49.864891c0 20.443545-16.727628 37.171173-37.171173 37.171173z" fill="#EE6161" p-id="9457"></path><path d="M574.092619 94.666674v49.858891c0 20.451545-16.713628 37.185173-37.165174 37.185173h-39.98311c20.451545 0 37.165173-16.733628 37.165173-37.185173v-49.858891c0-20.451545-16.713628-37.165173-37.165173-37.165173h39.98311c20.453545 0 37.165173 16.713628 37.165174 37.165173z" fill="#E94444" p-id="9458"></path><path d="M808.587402 560.204318v88.400033l-6.861847 3.901913a38.413145 38.413145 0 0 1-37.963156 0l-48.706916-27.659384-48.706917 27.659384a38.447145 38.447145 0 0 1-37.981155 0l-48.706916-27.659384-48.706917 27.659384a38.411146 38.411146 0 0 1-37.963155 0l-48.706917-27.659384-48.688916 27.659384a38.447145 38.447145 0 0 1-37.981156 0l-48.688916-27.659384-48.706917 27.659384a38.413145 38.413145 0 0 1-37.963155 0l-6.843848-3.881913v-88.420033l25.833425 14.665673 48.706917-27.659384a38.413145 38.413145 0 0 1 37.963155 0l48.688917 27.659384 48.688917-27.659384a38.447145 38.447145 0 0 1 37.981155 0l48.706916 27.659384 48.706917-27.659384a38.413145 38.413145 0 0 1 37.963155 0l48.706917 27.659384 48.706916-27.659384a38.413145 38.413145 0 0 1 37.963156 0l48.726916 27.659384z" fill="#6ED5A1" p-id="9459"></path><path d="M808.587402 560.206318v88.400033l-6.861847 3.901913a38.431145 38.431145 0 0 1-32.483278 2.575943v-87.882045l13.5117 7.669829z" fill="#46CC8D" p-id="9460"></path><path d="M853.066413 737.440375l-9.075798-9.791782a76.366301 76.366301 0 0 1-20.413546-52.064842v-150.562651c0-8.281816-6.711851-14.993666-14.993667-14.993666s-14.993666 6.711851-14.993666 14.993666v26.455412l-10.835759 6.151863-41.313081-23.451478c-16.279638-9.259794-36.511188-9.257794-52.778826-0.004l-41.303081 23.453478-41.303081-23.453478c-16.283638-9.251794-36.513188-9.251794-52.768826 0l-41.303082 23.453478-41.303081-23.453478c-16.281638-9.245794-36.509188-9.245794-52.792825 0L376.603012 557.624375l-41.275082-23.447478c-16.281638-9.259794-36.509188-9.259794-52.778826-0.004l-41.305081 23.453478-10.833759-6.149863V414.91355c0-76.4183 30.613319-145.808756 80.204216-196.593627 12.229728 10.161774 27.517388 16.763627 44.599008 19.453567-2.883936 6.245861-5.669874 12.213728-8.581809 17.925602-19.647563 38.527143-6.657852 73.580363 35.637207 96.16986 6.863847 3.665918 16.097642 8.07382 26.669407 9.631786 33.341258 4.915891 55.914756-22.669496 67.152506-50.724872l1.019977-2.535943a14.993666 14.993666 0 0 0-8.287815-19.517566 14.989667 14.989667 0 0 0-19.517566 8.287816l-1.053977 2.621941c-9.375791 23.397479-21.13753 34.213239-34.941223 32.201284-5.999867-0.88398-12.191729-3.893913-16.913623-6.415857-36.39119-19.437568-30.58332-41.325081-23.051487-56.096752 3.623919-7.105842 7.075843-14.595675 10.413768-21.837515a1342.510134 1342.510134 0 0 1 4.287904-9.211795 143.262813 143.262813 0 0 0 20.767538-3.999911c30.015332-8.09582 51.566853-22.4815 69.192461-38.385146a52.218838 52.218838 0 0 0 9.059799 0.803982h1.815959c-3.521922 10.985756-7.863825 22.985489-13.181706 36.42919a14.997666 14.997666 0 0 0 8.427812 19.459567c7.697829 3.037932 16.411635-0.725984 19.457567-8.427812A728.941784 728.941784 0 0 0 512 221.895844c7.077843 19.77956 15.331659 39.451122 23.443478 58.760692 4.391902 10.453767 8.54181 20.331548 12.465723 30.12733 17.143619 42.793048 42.217061 51.286859 59.422678 51.286859 12.227728 0.004 23.671473-4.471901 34.397235-10.201773 42.295059-22.591497 55.28477-57.642718 35.637207-96.16986-2.911935-5.709873-5.697873-11.67774-8.579809-17.923602 17.07962-2.68994 32.36928-9.293793 44.599008-19.455567 49.590897 50.78487 80.204216 120.175327 80.204216 196.593627v40.845091c0 8.281816 6.711851 14.993666 14.993666 14.993667s14.993666-6.711851 14.993667-14.993667V414.91355c0-85.680094-34.787226-163.370366-90.949977-219.751112 27.305393-46.370968 24.991444-119.853334-6.985845-161.582405-22.895491-29.879335-65.218549-40.857091-110.457542-28.659362-30.017332 8.09582-51.548853 22.4855-69.172462 38.385146a52.252838 52.252838 0 0 0-9.079798-0.807982h-49.86489c-3.095931 0-6.125864 0.285994-9.075798 0.805982-17.625608-15.899646-39.161129-30.289326-69.178461-38.385146-45.236994-12.201729-87.562052-1.219973-110.455543 28.659362-31.979289 41.731072-34.291237 115.219437-6.981845 161.590405-56.162751 56.382746-90.953977 134.065018-90.953977 219.743112v260.670201A76.374301 76.374301 0 0 1 180.007386 727.644593l-9.077799 9.795782a116.901399 116.901399 0 0 0-31.245304 79.688227V851.603835c0 14.449679 11.755738 26.203417 26.203417 26.203417h225.006994v25.091442C390.898694 969.675209 445.223486 1024 512 1024s121.101306-54.324791 121.101306-121.101306v-25.091442h225.006994c14.449679 0 26.205417-11.755738 26.205417-26.203417v-34.473233a116.905399 116.905399 0 0 0-31.247304-79.690227zM627.601428 325.417541c-4.723895 2.523944-10.917757 5.531877-16.911623 6.417857-13.801693 2.017955-25.569431-8.803804-34.945223-32.201284-4.015911-10.027777-8.405813-20.479544-12.655719-30.589319-10.033777-23.883469-20.275549-48.334925-27.967377-72.350391h1.807959c3.091931 0 6.117864-0.285994 9.065799-0.803982 17.625608 15.901646 39.169129 30.289326 69.188461 38.385146a143.314812 143.314812 0 0 0 20.771537 3.999911 1385.675174 1385.675174 0 0 1 4.281905 9.205796c3.337926 7.243839 6.789849 14.731672 10.413769 21.841514 7.533832 14.771671 13.339703 36.659184-23.049488 56.094752zM574.516609 58.545478c13.739694-10.973756 28.853358-19.379569 48.474922-24.673452 33.27326-8.9778 63.486588-2.097953 78.844246 17.945601 26.211417 34.207239 26.211417 101.351745-0.002 135.556985-15.359658 20.041554-45.566986 26.915401-78.842246 17.9456-19.623563-5.291882-34.743227-13.687696-48.484922-24.663451 9.023799-9.381791 14.589675-22.113508 14.589676-36.127196V94.664674c0.002-14.009688-5.561876-26.737405-14.579676-36.119196z m-109.627561 36.119196c0-12.229728 9.949779-22.177507 22.177507-22.177507h49.86489c12.229728 0 22.177507 9.949779 22.177507 22.177507v49.864891c0 12.227728-9.949779 22.177507-22.177507 22.177506h-49.86489c-12.229728 0-22.177507-9.949779-22.177507-22.177506z m-142.728825-42.845047c10.901757-14.227683 29.283349-21.819515 50.936867-21.819514 8.851803 0 18.251594 1.269972 27.907379 3.873913 19.625563 5.291882 34.745227 13.687696 48.486922 24.661452-9.025799 9.381791-14.591675 22.115508-14.591676 36.129196v49.864891c0 14.007688 5.559876 26.731405 14.575676 36.113196-13.739694 10.975756-28.849358 19.387569-48.470922 24.679451-33.27526 8.9718-63.484588 2.093953-78.842246-17.9456-26.213417-34.205239-26.213417-101.349745-0.002-135.556985z m-91.749959 534.140118l3.431924 1.949956a14.997666 14.997666 0 0 0 14.805671-0.002l48.716916-27.663384a23.499477 23.499477 0 0 1 23.143485 0.004l48.688917 27.659384a14.999666 14.999666 0 0 0 14.81167 0l48.686917-27.659384a23.579475 23.579475 0 0 1 23.173485 0l48.706916 27.659384a14.991666 14.991666 0 0 0 14.807671 0l48.716916-27.663384c7.127841-4.05991 15.999644-4.05191 23.147485 0.004l48.706916 27.659384a14.987667 14.987667 0 0 0 14.805671 0l48.716916-27.663384a23.511477 23.511477 0 0 1 23.149485 0.006l48.726916 27.659384a14.999666 14.999666 0 0 0 14.801671 0l3.433924-1.949956v53.9068a23.525477 23.525477 0 0 1-22.419502-0.399991l-48.706916-27.661384a14.993666 14.993666 0 0 0-14.809671 0l-48.702916 27.659384a23.591475 23.591475 0 0 1-23.175485 0.002l-48.706916-27.661384a14.991666 14.991666 0 0 0-14.807671 0l-48.718916 27.665384c-7.041843 4.003911-16.109642 3.995911-23.145485-0.004l-48.706916-27.661384a14.981667 14.981667 0 0 0-14.809671 0l-48.694917 27.665384c-7.135841 4.05991-16.013644 4.05591-23.163484-0.004l-48.688917-27.661384a14.999666 14.999666 0 0 0-14.809671 0L252.805766 639.472554c-6.881847 3.913913-15.383658 4.04791-22.395502 0.403991z m372.703709 316.938949c0 50.238882-40.875091 91.113973-91.113973 91.113973s-91.113973-40.875091-91.113973-91.113973v-25.091442h182.227946z m251.212412-55.078775H169.673615v-30.689317a87.002065 87.002065 0 0 1 23.251483-59.304681l9.077798-9.795782a106.281636 106.281636 0 0 0 28.405368-72.446388v-4.219906c12.543721 2.573943 25.845425 0.643986 37.211173-5.821871l41.301081-23.455478 41.287081 23.457478c16.295637 9.247794 36.527187 9.247794 52.790826-0.002l41.283081-23.455478 41.293082 23.451478a53.50481 53.50481 0 0 0 26.403412 6.975845c9.235795 0 18.359592-2.413946 26.373414-6.971845l41.305081-23.455478 41.303081 23.457478c16.281638 9.241794 36.505188 9.239794 52.790826-0.002l41.301081-23.455478 41.295081 23.451478c11.381747 6.473856 24.691451 8.403813 37.237172 5.823871v4.219906a106.271636 106.271636 0 0 0 28.407368 72.448388l9.075798 9.791782a87.010064 87.010064 0 0 1 23.253483 59.306681v30.691317z" p-id="9461"></path></svg>