<?xml version="1.0" standalone="no"?><!DOCTYPE svg PUBLIC "-//W3C//DTD SVG 1.1//EN" "http://www.w3.org/Graphics/SVG/1.1/DTD/svg11.dtd"><svg t="1649680094352" class="icon" viewBox="0 0 1026 1024" version="1.1" xmlns="http://www.w3.org/2000/svg" p-id="2540" xmlns:xlink="http://www.w3.org/1999/xlink" width="200.390625" height="200"><defs><style type="text/css">@font-face { font-family: "feedback-iconfont"; src: url("//at.alicdn.com/t/font_1031158_u69w8yhxdu.woff2?t=1630033759944") format("woff2"), url("//at.alicdn.com/t/font_1031158_u69w8yhxdu.woff?t=1630033759944") format("woff"), url("//at.alicdn.com/t/font_1031158_u69w8yhxdu.ttf?t=1630033759944") format("truetype"); }
</style></defs><path d="M610 316h-60V156.444c-0.988-18.444-19.244-18.444-25.248-18.444-4.4 0-12.256 0.54-15.456 4.164-3.652 4.14-3.656 13.064-3.528 14.116l0.188 2.096c0.236 4.312 1.568 42.876-23.316 69.144-13.932 14.708-33.084 22.48-55.388 22.48-58.92 0-83.236-50.392-85.2-84.256L342 164V0h60v162.844c2.24 24.464 18.376 27.156 25.248 27.156 8.28 0 10.768-2.624 11.828-3.744 5.708-6.032 7.096-19.452 6.984-24.156-0.684-7.752-1.736-37.008 18.248-59.644 9.848-11.16 28.332-24.456 60.44-24.456 62.548 0 85.248 46.648 85.248 78l0.004 160z" fill="#B1FBFF" p-id="2541"></path><path d="M996 868c0 55-45 100-100 100H136c-55 0-100-45-100-100v-376c0-55 45-100 100-100h760c55 0 100 45 100 100v376z" fill="#6E6E96" p-id="2542"></path><path d="M996 868c0 55-45 100-100 100H136c-55 0-100-45-100-100v-376c0-55 45-100 100-100h760c55 0 100 45 100 100v376z" fill="#B3B3C6" p-id="2543"></path><path d="M896 998H136c-71.68 0-130-58.316-130-130v-376c0-71.68 58.32-130 130-130h760c71.684 0 130 58.32 130 130v376c0 71.684-58.316 130-130 130z m-760-576c-38.596 0-70 31.404-70 70v376c0 38.592 31.404 70 70 70h760c38.592 0 70-31.408 70-70v-376c0-38.596-31.408-70-70-70H136z" fill="#6E6E96" p-id="2544"></path><path d="M127.764 483.176h58.832v56.632H127.764zM263.816 483.176h58.832v56.632H263.816zM399.868 483.176h58.832v56.632H399.868zM535.92 483.176h58.828v56.632H535.92zM671.968 483.176h58.836v56.632h-58.836zM808.02 483.176h90.816v56.632h-90.816z" fill="#6E6E96" p-id="2545"></path><path d="M330.304 588.084h56.852v60H330.304zM461.776 588.084h56.856v60h-56.856zM593.248 588.084h56.852v60h-56.852zM724.728 588.084h56.852v60h-56.852z" fill="#6E6E96" p-id="2546"></path><path d="M396.04 705.256h56.852v56.632H396.04zM527.516 705.256h56.852v56.632h-56.852zM658.988 705.256h56.852v56.632h-56.852zM127.764 701.8h188.328v60H127.764zM903.96 763.58h-118.832v-60h58.832v-112.144h60z" fill="#6E6E96" p-id="2547"></path><path d="M127.764 589.772h127.92v56.632h-127.92z" fill="#6E6E96" p-id="2548"></path><path d="M326.752 819.064h405.084v60H326.752zM131.32 819.064h127.92v60H131.32zM792.244 819.064h106.592v60h-106.592zM562 316h-60V156.444c-0.988-18.444-19.24-18.444-25.248-18.444-4.4 0-12.26 0.54-15.46 4.164-3.652 4.14-3.656 13.064-3.524 14.116l0.188 2.096c0.232 4.312 1.564 42.876-23.32 69.144-13.932 14.708-33.084 22.48-55.388 22.48-58.92 0-83.236-50.392-85.2-84.26L294 164V0h60v162.844c2.24 24.464 18.376 27.156 25.248 27.156 8.28 0 10.768-2.624 11.828-3.744 5.708-6.028 7.096-19.452 6.984-24.156-0.684-7.752-1.736-37.008 18.248-59.644 9.848-11.16 28.332-24.456 60.44-24.456 62.548 0 85.248 46.648 85.248 78l0.004 160z" fill="#6E6E96" p-id="2549"></path></svg>