<svg xml:space="preserve" style="enable-background:new 0 0 500 500;" viewBox="0 0 500 500" y="0px" x="0px" xmlns:xlink="http://www.w3.org/1999/xlink" xmlns="http://www.w3.org/2000/svg" id="图层_1" version="1.1">
<style type="text/css">
	.st0{fill:#FFE1E8;}
	.st1{fill:#FFFFFF;}
	.st2{fill:#FF557E;}
</style>
<g>
	<g>
		<path d="M336.87,426.16c-4.58,6.11-9.85,10.82-15.44,14.34c-21.12,13.32-46.99,9.79-59,1.15
			c-15.19-10.93-8.81-30.38,5.47-31.9c13.72-0.4,26.7-1.08,38.45-5.18c15.33-5.35,28.58-16.5,38.72-40.39
			c17.93-42.24-0.47-101.68-3.01-105.2c-2.53-3.52-23.64-3.52-37.71-5.35c-2.94-0.39-6-0.64-9-0.83
			c-11.39-0.74-22.02-0.39-22.58-1.28c-0.55-0.88-4.04-2.3-5.58-2.87c-0.43-0.17-0.71-0.27-0.71-0.27l-41.15-7.96
			c0,0-1.96,0.63-5.31,1.36c-4.82,1.05-12.5,2.3-21.37,2.13c-12.04-0.24-15.54-6.31-16.45-8.73c-0.24-0.61-0.3-0.99-0.3-0.99
			s0.11-1.96-2.13-1.79c-1.45,0.12-3.88,1.14-7.99,4.18c-10.41,7.74-26.88-0.84-26.88-4.92c0-4.08,9.99-10.83,13.5-15.62
			c0.85-1.16,2.32-4.19,4.07-8.14c5.44-12.33,13.53-33.52,13.53-33.52s-11.68-4.23-14.49-19.01c-4.92-32.36,20.4-41.8,20.4-41.8
			c8.51-26.04,20.68-28.95,20.68-28.95l3.34,26.44c12.15-3.04,24,6.99,24,6.99s3.35-7.6,12.46-12.46
			c27.04-10.03,13.36,11.85,10.93,15.5c-2.42,3.65-7.89,13.06-1.51,16.4c89.62,12.76,102.39,53.48,106.33,75.36
			c3.96,21.87-6.07,38.89-6.07,38.89s2.12,12.45,7.89,45.26C369.38,342.3,358.74,396.99,336.87,426.16z" class="st0"></path>
	</g>
	<g>
		<path d="M321.42,440.5c-21.12,13.32-46.99,9.79-59,1.15c-15.19-10.93-8.81-30.38,5.47-31.9
			c13.72-0.4,26.7-1.08,38.45-5.18C311.57,414.17,318.25,427.94,321.42,440.5z" class="st1"></path>
	</g>
	<g>
		<path d="M296.19,229.9c0,0-8.36,13.41-1.44,21.98c0.26,0.31,0.45,0.62,0.59,0.92c-11.39-0.74-22.02-0.39-22.58-1.28
			c-0.55-0.88-4.04-2.3-5.58-2.87c1.79-8.76,5.47-18.53,12.73-20.17C297.39,224.52,296.19,229.9,296.19,229.9z" class="st1"></path>
	</g>
	<g>
		<path d="M179.76,232.41c-1.45,0.12-3.88,1.14-7.99,4.18c-10.41,7.74-26.88-0.84-26.88-4.92
			c0-4.08,9.99-10.83,13.5-15.62c0.85-1.16,2.32-4.19,4.07-8.14C168.96,212.88,177.48,221.28,179.76,232.41z" class="st1"></path>
	</g>
	<g>
		<path d="M220.01,241.79c-4.82,1.05-12.5,2.3-21.37,2.13c-12.04-0.24-15.54-6.31-16.45-8.73
			c3.16-3.05,7.3-4.92,11.54-6.1c4.76-1.34,9.97-1.83,14.58-0.02c4.17,1.65,7.44,5.07,9.75,8.92
			C218.79,239.21,219.43,240.49,220.01,241.79z" class="st1"></path>
	</g>
	<g>
		
			<ellipse ry="25.78" rx="21.91" cy="160.78" cx="198.07" class="st1" transform="matrix(0.411 -0.9116 0.9116 0.411 -29.9124 275.2617)"></ellipse>
	</g>
	<g>
		
			<ellipse ry="3.45" rx="2.22" cy="132.84" cx="225.13" class="st1" transform="matrix(0.4187 -0.9081 0.9081 0.4187 10.233 281.6679)"></ellipse>
	</g>
	<g>
		
			<ellipse ry="3.45" rx="2.22" cy="123.89" cx="196.7" class="st1" transform="matrix(0.1651 -0.9863 0.9863 0.1651 42.0326 297.4366)"></ellipse>
	</g>
	<g>
		
			<ellipse ry="4.23" rx="3.44" cy="147.5" cx="202.68" class="st2" transform="matrix(0.3277 -0.9448 0.9448 0.3277 -3.0961 290.6458)"></ellipse>
	</g>
	<g>
		<path d="M195.69,155.5c-2.35,0-4.15-1.02-4.24-1.08c-0.75-0.44-1.01-1.4-0.57-2.16c0.44-0.75,1.4-1.01,2.16-0.57
			c0.01,0.01,1.94,1.07,3.92,0.48c1.33-0.4,2.46-1.48,3.35-3.21c0.4-0.77,1.35-1.08,2.13-0.68c0.77,0.4,1.08,1.35,0.68,2.13
			c-1.31,2.54-3.09,4.16-5.3,4.8C197.07,155.41,196.36,155.5,195.69,155.5z" class="st2"></path>
	</g>
	<g>
		<path d="M205.94,160.08c-0.24,0-0.47-0.05-0.68-0.15l-0.07-0.02c-6.64-2.12-6.19-7.25-5.69-9.35
			c0.2-0.85,1.05-1.37,1.9-1.17c0.85,0.2,1.37,1.05,1.17,1.9c-0.68,2.83,0.46,4.62,3.58,5.61c0.38,0.12,0.95,0.3,1.24,0.98
			c0.35,0.8-0.02,1.73-0.83,2.07C206.36,160.04,206.15,160.08,205.94,160.08z" class="st2"></path>
	</g>
	<g>
		<path d="M215.78,187.18c-4.23,0-8.91-0.34-14.08-1.11c-39.85-5.88-44.33-29.26-44.4-39.04
			c-0.12-15.97,10.15-31.76,22.4-35.1c2.18-6.91,10.16-29.11,23.03-30.65c1.61-0.19,3.09,0.92,3.36,2.52
			c0.31,1.86,2.61,15.86,3.08,24.18c6.38-0.61,14.66-0.12,20.29,4.99c5.43-5.13,18.59-16.06,28.5-12.05
			c2.72,1.1,3.83,2.95,4.29,4.32c1.55,4.61-1.88,10.37-5.51,16.48c-1.95,3.27-6,10.08-4.88,11.53c4.19,5.44,7.95,23.51-0.1,37.21
			C247.04,178.51,237.01,187.18,215.78,187.18z M200.66,88.3c-6.81,3.88-13.03,17.96-15.64,27.06c-0.32,1.13-1.27,1.97-2.43,2.16
			c-10.93,1.78-19.3,17.3-19.21,29.47c0.13,17.36,14.42,29.41,39.21,33.07c21.97,3.24,37.16-1.14,43.94-12.68
			c6.73-11.46,3.37-26.71,0.52-30.42c-3.63-4.72,0.31-11.34,4.48-18.34c2.24-3.77,5.63-9.47,4.97-11.42
			c-0.03-0.09-0.11-0.34-0.81-0.62c-7.01-2.84-20.11,8.66-24.15,12.91c-0.62,0.66-1.5,1-2.41,0.94c-0.9-0.06-1.73-0.52-2.26-1.26
			c-4.1-5.7-12.66-5.75-18.67-4.94c-0.6,0.54-1.42,0.85-2.29,0.77c-0.33-0.03-0.64-0.1-0.92-0.23c-2.01,0.41-3.3,0.81-3.35,0.82
			c-1.6,0.5-3.31-0.39-3.81-1.99c-0.5-1.6,0.38-3.31,1.98-3.81c0.2-0.06,1.43-0.44,3.32-0.85C202.9,103.61,201.59,94.29,200.66,88.3
			z" class="st2"></path>
	</g>
	<g>
		
			<ellipse ry="3.75" rx="5.92" cy="135.55" cx="193.3" class="st2" transform="matrix(0.4603 -0.8877 0.8877 0.4603 -16.0154 244.7466)"></ellipse>
	</g>
	<g>
		
			<ellipse ry="3.75" rx="5.92" cy="145.12" cx="219.81" class="st2" transform="matrix(0.4603 -0.8877 0.8877 0.4603 -10.2053 273.4517)"></ellipse>
	</g>
	<g>
		<path d="M238.14,124.88c-0.73,0-1.46-0.26-2.04-0.79c-1.24-1.13-1.34-3.05-0.21-4.29c0.26-0.29,6.45-7.06,13.71-10.14
			c1.55-0.66,3.33,0.07,3.99,1.61c0.66,1.55-0.07,3.33-1.61,3.99c-6.04,2.56-11.52,8.56-11.58,8.62
			C239.79,124.55,238.96,124.88,238.14,124.88z" class="st2"></path>
	</g>
	<g>
		<path d="M334.28,260.91c-6.95,0-14.65-1.46-22.59-2.97c-13.67-2.59-27.81-5.28-40.81-1.72
			c-1.62,0.44-3.29-0.51-3.74-2.13c-0.44-1.62,0.51-3.29,2.13-3.74c14.35-3.93,29.86-0.98,43.55,1.61
			c14.63,2.78,27.27,5.17,34.84-0.92c5.46-4.39,8.3-13.25,8.68-27.09c0.82-29.28-15.97-52.08-49.9-67.76
			c-25.8-11.92-52.27-15-52.54-15.03c-1.67-0.19-2.87-1.69-2.68-3.36c0.19-1.67,1.71-2.86,3.36-2.68c1.11,0.12,27.6,3.19,54.28,15.5
			c35.92,16.56,54.44,41.98,53.56,73.51c-0.44,15.73-4.02,26.08-10.95,31.66C346.73,259.6,340.85,260.91,334.28,260.91z" class="st2"></path>
	</g>
	<g>
		<path d="M160.17,243.04c-3.02,0-6.23-0.6-9.59-1.95c-5.48-2.19-8.32-5.13-8.44-8.73c-0.2-5.7,6.83-9.91,9.46-11.28
			c1.65-2.23,8.16-11.48,11.69-23.13c4.31-14.22,8.99-23.23,9.19-23.61c0.78-1.49,2.62-2.06,4.1-1.28c1.49,0.78,2.06,2.62,1.28,4.1
			c-0.05,0.09-4.63,8.93-8.76,22.55c-4.39,14.49-12.78,25.2-13.13,25.65c-0.29,0.36-0.65,0.65-1.06,0.85
			c-3.21,1.56-6.76,4.43-6.71,5.94c0.02,0.54,1.02,1.85,4.62,3.3c13.74,5.5,22.39-5.27,25.33-12.49c0.63-1.56,2.41-2.3,3.96-1.67
			c1.56,0.63,2.3,2.41,1.67,3.96C179.93,234.75,171.36,243.03,160.17,243.04z" class="st2"></path>
	</g>
	<g>
		<path d="M288.6,452.4c-21.88,0-31.14-9.11-34.83-14.95c-4.46-7.05-4.85-15.84-0.99-22.4
			c3.14-5.34,8.44-8.19,14.55-7.86c29.5,1.52,51.36-6.51,64.97-23.84c32.65-41.58,8.61-123.67,8.36-124.49
			c-0.48-1.61,0.43-3.3,2.04-3.79c1.61-0.48,3.3,0.43,3.79,2.04c0.26,0.87,6.4,21.6,8.43,48.02c2.75,35.82-3.25,63.4-17.83,81.97
			c-14.91,18.98-38.49,27.79-70.08,26.16c-5.13-0.27-7.84,2.93-8.99,4.87c-2.71,4.61-2.36,10.92,0.89,16.07
			c5.72,9.05,19.18,13.34,36.93,11.78c15.89-1.4,30.2-10.64,41.37-26.74c19.85-28.6,33.46-86.68,12.12-163.93
			c-0.45-1.62,0.5-3.29,2.12-3.74c1.61-0.45,3.29,0.5,3.74,2.12c18.32,66.32,13.35,131.09-12.98,169.02
			c-12.23,17.62-28.08,27.76-45.83,29.32C293.62,452.29,291.03,452.4,288.6,452.4z" class="st2"></path>
	</g>
	<g>
		<path d="M204.15,246.99c-3.04,0-6.01-0.22-8.86-0.69c-13.38-2.17-15.81-7.37-15.49-11.35
			c0.57-7.02,11.34-13.27,19.44-13.27c7.3,0,21.83-12.36,29.28-20.15c1.16-1.21,3.08-1.26,4.3-0.1c1.21,1.16,1.26,3.08,0.1,4.3
			c-2.15,2.25-21.4,22.03-33.68,22.03c-5.79,0-13.14,4.71-13.38,7.68c-0.13,1.55,3.04,3.66,10.4,4.85
			c14.42,2.34,33.13-2.37,45.5-11.46c6.45-4.74,10.4-10.15,11.13-15.25c0.24-1.66,1.79-2.82,3.44-2.58
			c1.66,0.24,2.82,1.78,2.58,3.44c-0.97,6.82-5.66,13.49-13.55,19.28C234.01,242.09,218.35,246.99,204.15,246.99z" class="st2"></path>
	</g>
	<g>
		<path d="M269.77,255.67c-0.76,0-1.53-0.28-2.12-0.85c-3.05-2.9-6.54-11.2,2.08-21.89
			c10.42-12.93,29.92-5.37,30.74-5.05c1.56,0.62,2.32,2.39,1.7,3.95c-0.62,1.56-2.38,2.32-3.94,1.7l0,0
			c-0.16-0.06-16.17-6.22-23.77,3.21c-7.01,8.7-3.05,13.22-2.58,13.71c1.22,1.16,1.25,3.06,0.09,4.28
			C271.37,255.36,270.57,255.67,269.77,255.67z" class="st2"></path>
	</g>
</g>
</svg>
