<?xml version="1.0" standalone="no"?><!DOCTYPE svg PUBLIC "-//W3C//DTD SVG 1.1//EN" "http://www.w3.org/Graphics/SVG/1.1/DTD/svg11.dtd"><svg t="1649679179337" class="icon" viewBox="0 0 1024 1024" version="1.1" xmlns="http://www.w3.org/2000/svg" p-id="6826" xmlns:xlink="http://www.w3.org/1999/xlink" width="200" height="200"><defs><style type="text/css">@font-face { font-family: "feedback-iconfont"; src: url("//at.alicdn.com/t/font_1031158_u69w8yhxdu.woff2?t=1630033759944") format("woff2"), url("//at.alicdn.com/t/font_1031158_u69w8yhxdu.woff?t=1630033759944") format("woff"), url("//at.alicdn.com/t/font_1031158_u69w8yhxdu.ttf?t=1630033759944") format("truetype"); }
</style></defs><path d="M631.512 168.962H392.488V54.85c0-22.022 17.852-39.874 39.874-39.874h159.274c22.022 0 39.874 17.852 39.874 39.874v114.112z" fill="#918291" p-id="6827"></path><path d="M239.692 757.056a272.308 251.964 0 1 0 544.616 0 272.308 251.964 0 1 0-544.616 0Z" fill="#F3F0F3" p-id="6828"></path><path d="M784.314 757.056c0 139.152-121.92 251.968-272.314 251.968-46.924 0-91.07-10.982-129.608-30.31 27.754 8.826 57.546 13.618 88.536 13.618 150.394 0 272.314-112.816 272.314-251.968 0-95.764-57.726-179.046-142.766-221.678 106.964 33.986 183.838 127.872 183.838 238.37z" fill="#E2DEE2" p-id="6829"></path><path d="M698.246 509.902c-4.522-10.822-8.468-17.448-8.468-17.448H334.222s-3.946 6.626-8.468 17.448c-21.74 52.024-4.642 112.906 39.56 144.05 12.66 8.92 28.368 17.746 47.776 25.498 63.738 25.46 134.084 25.46 197.822 0 19.408-7.752 35.116-16.58 47.776-25.498 44.2-31.142 61.298-92.026 39.558-144.05z" fill="#6ED5A1" p-id="6830"></path><path d="M658.68 653.946c-12.66 8.926-28.354 17.75-47.762 25.498-36.8 14.696-75.816 20.906-114.492 18.61 23.9-2.636 47.542-8.546 70.344-17.652 19.628-7.828 35.522-16.752 48.32-25.778 44.706-31.508 61.998-93.088 40.014-145.702-3.454-8.266-6.57-14.096-7.888-16.474h42.55s3.954 6.63 8.486 17.452c21.728 52.016 4.636 112.916-39.572 144.046z" fill="#46CC8D" p-id="6831"></path><path d="M512 795.84m-31.384 0a31.384 31.384 0 1 0 62.768 0 31.384 31.384 0 1 0-62.768 0Z" fill="#918291" p-id="6832"></path><path d="M512 911.724m-31.384 0a31.384 31.384 0 1 0 62.768 0 31.384 31.384 0 1 0-62.768 0Z" fill="#918291" p-id="6833"></path><path d="M543.388 795.834c0 17.332-14.058 31.388-31.388 31.388-12.06 0-22.544-6.808-27.794-16.812 0.898 0.08 1.816 0.12 2.736 0.12 17.352 0 31.388-14.058 31.388-31.388a31.1 31.1 0 0 0-3.594-14.556c16.054 1.376 28.652 14.834 28.652 31.248zM543.388 911.724c0 17.332-14.058 31.388-31.388 31.388a31.336 31.336 0 0 1-27.794-16.832c0.898 0.08 1.816 0.12 2.736 0.12 17.352 0 31.388-14.036 31.388-31.368a31.12 31.12 0 0 0-3.594-14.576c16.054 1.376 28.652 14.854 28.652 31.268z" fill="#7A6D79" p-id="6834"></path><path d="M878.288 613.736l-5.674 34.086 48.588-17.072c15.606-5.484 32.702 2.722 38.186 18.33 5.484 15.604-2.722 32.704-18.33 38.186l-96.47 33.896-0.144 0.05-118.602 41.672c-15.606 5.484-32.702-2.722-38.186-18.33-3.402-9.68-1.536-19.932 4.096-27.632a29.8 29.8 0 0 1 14.234-10.552l102.13-35.884 11.086-66.586a29.82 29.82 0 0 1 5.35-12.748c6.468-8.842 17.568-13.8 29.112-11.878 16.316 2.716 27.34 18.144 24.624 34.462z" fill="#E49280" p-id="6835"></path><path d="M941.058 687.272l-96.462 33.884c-0.06 0.02-0.1 0.04-0.16 0.06l-118.586 41.672c-15.614 5.472-32.706-2.736-38.198-18.33a29.8 29.8 0 0 1-0.14-19.448c7.888 7.468 19.568 10.364 30.51 6.53l118.606-41.672c0.06-0.02 0.1-0.04 0.14-0.06l96.482-33.884a29.92 29.92 0 0 0 18.47-18.77 29.9 29.9 0 0 1 7.668 11.82c5.49 15.614-2.716 32.706-18.33 38.198z" fill="#DD7F66" p-id="6836"></path><path d="M145.712 613.736l5.674 34.086-48.588-17.072c-15.606-5.484-32.702 2.722-38.186 18.33-5.484 15.604 2.722 32.704 18.33 38.186l96.47 33.896 0.144 0.05 118.602 41.672c15.606 5.484 32.702-2.722 38.186-18.33 3.402-9.68 1.536-19.932-4.096-27.632a29.8 29.8 0 0 0-14.234-10.552l-102.13-35.884-11.086-66.586a29.82 29.82 0 0 0-5.35-12.748c-6.468-8.842-17.568-13.8-29.112-11.878-16.316 2.716-27.342 18.144-24.624 34.462z" fill="#E49280" p-id="6837"></path><path d="M512 411.424m-213.802 0a213.802 213.802 0 1 0 427.604 0 213.802 213.802 0 1 0-427.604 0Z" fill="#F3F0F3" p-id="6838"></path><path d="M725.81 411.422c0 118.086-95.724 213.81-213.81 213.81-36.32 0-70.524-9.066-100.476-25.06a213.68 213.68 0 0 0 59.402 8.366c118.086 0 213.81-95.724 213.81-213.81 0-81.766-45.884-152.81-113.334-188.752 89.174 25.74 154.408 107.966 154.408 205.446z" fill="#E2DEE2" p-id="6839"></path><path d="M665.262 271.884H358.738c-13.804 0-24.996-11.192-24.996-24.996V193.958c0-13.806 11.192-24.996 24.996-24.996H665.262c13.804 0 24.996 11.192 24.996 24.996v52.928c0 13.806-11.19 24.998-24.996 24.998z" fill="#918291" p-id="6840"></path><path d="M631.504 54.846V168.96h-39.934V54.846c0-22.024-17.85-39.874-39.874-39.874h39.934c22.024 0 39.874 17.85 39.874 39.874zM690.268 193.958v52.934c0 13.798-11.202 25-25 25h-39.934c13.798 0 25-11.202 25-25V193.958c0-13.798-11.202-24.998-25-24.998h39.934c13.798 0 25 11.202 25 24.998z" fill="#7A6D79" p-id="6841"></path><path d="M455.184 454.546c-10.666 19.146-29.49 42.214-5.748 52.846 13.16 5.894 34.51 4.824 48.536 3.872 31.526-2.138 64.776-15.956 64.772-52.41-0.002-27.536-22.324-49.856-49.86-49.856-25.738 0-44.38 21.636-57.7 45.548z" fill="#EE6161" p-id="6842"></path><path d="M562.736 458.864c0.02 36.44-33.246 50.258-64.774 52.394-14.018 0.958-35.362 2.036-48.52-3.874-8.746-3.914-11.72-9.524-11.442-15.994 8.726 0.34 17.572-0.16 24.58-0.638 31.528-2.136 64.774-15.954 64.774-52.414a49.48 49.48 0 0 0-9.364-29.072c25.138 2.556 44.746 23.802 44.746 49.598z" fill="#E94444" p-id="6843"></path><path d="M512 749.482c-25.562 0-46.358 20.796-46.358 46.358s20.796 46.358 46.358 46.358 46.358-20.796 46.358-46.358-20.796-46.358-46.358-46.358z m0 62.766c-9.048 0-16.408-7.36-16.408-16.408s7.36-16.408 16.408-16.408c9.046 0 16.406 7.36 16.406 16.408s-7.358 16.408-16.406 16.408zM512 865.366c-25.562 0-46.358 20.796-46.358 46.358s20.796 46.358 46.358 46.358 46.358-20.796 46.358-46.358-20.796-46.358-46.358-46.358z m0 62.766c-9.048 0-16.408-7.36-16.408-16.408s7.36-16.408 16.408-16.408c9.046 0 16.406 7.36 16.406 16.408 0.002 9.048-7.358 16.408-16.406 16.408z" p-id="6844"></path><path d="M973.516 644.116c-3.978-11.322-12.128-20.416-22.946-25.61s-23.012-5.864-34.334-1.884l-24.692 8.676 1.516-9.104c4.068-24.434-12.502-47.626-36.94-51.694-16.85-2.81-33.574 4.02-43.658 17.808a45.084 45.084 0 0 0-8.034 19.13l-9.632 57.85-13.54 4.758c-13.438-33.472-33.89-63.794-59.714-89.392a137.588 137.588 0 0 0-5.518-59.8c15.822-31.082 24.752-66.232 24.752-103.434 0-51.596-17.178-99.25-46.102-137.564 6.534-7.118 10.56-16.572 10.56-26.974V193.958c0-22.04-17.932-39.972-39.972-39.972h-18.776V54.85C646.488 24.606 621.882 0 591.638 0h-159.274c-30.244 0-54.85 24.606-54.85 54.85v9.3a14.976 14.976 0 0 0 29.952 0v-9.3c0-13.73 11.17-24.898 24.9-24.898h159.274c13.73 0 24.898 11.17 24.898 24.898v99.138H407.464V133.746a14.976 14.976 0 0 0-29.952 0v20.242h-18.774c-22.04 0-39.972 17.932-39.972 39.972v52.928c0 10.402 4.028 19.858 10.564 26.978-28.926 38.314-46.106 85.964-46.106 137.558 0 37.228 8.944 72.404 24.786 103.502a137.68 137.68 0 0 0-5.52 59.706c-25.84 25.604-46.3 55.936-59.742 89.418l-13.544-4.758-9.632-57.852a45.086 45.086 0 0 0-8.034-19.128c-10.084-13.79-26.816-20.614-43.66-17.81-24.436 4.068-41.006 27.26-36.938 51.694l1.516 9.102-24.692-8.676c-11.324-3.978-23.516-3.308-34.334 1.884s-18.968 14.288-22.944 25.608a44.628 44.628 0 0 0 1.884 34.334 44.632 44.632 0 0 0 25.61 22.946l96.472 33.894 0.144 0.052 50.176 17.63c-0.024 1.36-0.052 2.72-0.052 4.086 0 147.19 128.876 266.94 287.284 266.94s287.282-119.748 287.282-266.94c0-1.366-0.032-2.726-0.054-4.088l34.468-12.11a14.976 14.976 0 0 0 9.164-19.092 14.97 14.97 0 0 0-19.092-9.164l-102.892 36.152c-7.788 2.738-16.356-1.374-19.092-9.166a14.992 14.992 0 0 1 2.054-13.824 14.876 14.876 0 0 1 7.112-5.266l102.13-35.884a14.974 14.974 0 0 0 9.808-11.67l11.086-66.586c1.33-7.988 9.234-13.644 17.23-12.312 8.146 1.358 13.67 9.086 12.314 17.232l-5.676 34.086a14.98 14.98 0 0 0 19.736 16.59l48.588-17.072c3.774-1.326 7.838-1.102 11.444 0.628s6.322 4.762 7.65 8.538a14.88 14.88 0 0 1-0.628 11.444 14.876 14.876 0 0 1-8.538 7.648l-46.216 16.238a14.976 14.976 0 0 0 9.93 28.258l46.214-16.238a44.63 44.63 0 0 0 25.612-22.946c5.186-10.822 5.856-23.016 1.878-34.336z m-624.8-450.158a10.032 10.032 0 0 1 10.02-10.02H665.262a10.032 10.032 0 0 1 10.02 10.02v52.928a10.032 10.032 0 0 1-10.02 10.02H358.738a10.032 10.032 0 0 1-10.02-10.02V193.958z m8.522 92.824c0.502 0.018 0.994 0.076 1.5 0.076H665.262c0.51 0 1.008-0.058 1.514-0.076 27.534 34.122 44.05 77.484 44.05 124.642 0 109.634-89.192 198.826-198.826 198.826s-198.828-89.192-198.828-198.826c0.002-47.16 16.528-90.52 44.066-124.642zM650.062 641.71c-12.996 9.156-28.038 17.176-44.706 23.834-60.2 24.046-126.508 24.048-186.712 0-16.668-6.658-31.71-14.678-44.706-23.834-28.958-20.4-44.352-54.918-42.538-90.012 41.896 53.82 107.27 88.504 180.6 88.504 73.318 0 138.684-34.676 180.582-88.48 1.814 35.084-13.568 69.59-42.52 89.988zM184.552 707.094l-0.174-0.064-96.472-33.894a14.874 14.874 0 0 1-8.532-7.638c-5.6-11.644 6.42-24.848 18.46-20.618l48.588 17.072a14.976 14.976 0 0 0 19.736-16.59l-5.676-34.086c-1.356-8.146 4.168-15.876 12.312-17.232a14.928 14.928 0 0 1 14.566 5.946 14.804 14.804 0 0 1 2.666 6.366l11.086 66.584a14.97 14.97 0 0 0 9.808 11.67l102.132 35.886a14.88 14.88 0 0 1 7.11 5.264 14.992 14.992 0 0 1 2.054 13.826c-2.736 7.79-11.3 11.904-19.092 9.164z m516.47-14.854a44.702 44.702 0 0 0-21.36 15.842 44.936 44.936 0 0 0-6.136 41.438c6.488 18.464 23.882 30.036 42.428 30.036 4.93 0 9.942-0.818 14.852-2.544l38.428-13.502c-3.726 127.704-117.684 230.536-257.234 230.536s-253.508-102.83-257.234-230.534l38.428 13.502a44.76 44.76 0 0 0 14.852 2.542c18.542 0 35.94-11.574 42.426-30.036a44.94 44.94 0 0 0-6.136-41.44 44.71 44.71 0 0 0-21.356-15.84l-51.968-18.26c9.694-23.764 23.406-45.734 40.392-65.184 9.214 22.694 24.576 42.81 45.284 57.398 14.904 10.502 32.012 19.64 50.846 27.164 33.684 13.454 69.074 20.182 104.466 20.182s70.784-6.728 104.466-20.182c18.836-7.524 35.944-16.664 50.846-27.164 20.7-14.584 36.07-34.694 45.296-57.38 16.98 19.448 30.686 41.41 40.376 65.168z" p-id="6845"></path><path d="M411.222 417.3a14.976 14.976 0 0 0 14.976-14.976v-27.672a14.976 14.976 0 0 0-29.952 0v27.672a14.976 14.976 0 0 0 14.976 14.976zM612.778 417.3a14.976 14.976 0 0 0 14.976-14.976v-27.672a14.976 14.976 0 0 0-29.952 0v27.672a14.976 14.976 0 0 0 14.976 14.976zM424.37 501.35c1.874 5.96 6.682 14.218 18.946 19.708 10.182 4.56 22.752 5.926 35.932 5.926 6.502 0 13.154-0.332 19.74-0.78 48.568-3.296 78.738-29.104 78.734-67.352-0.002-35.748-29.088-64.832-64.836-64.832-27.292 0-51.106 17.912-70.782 53.236-1.396 2.506-2.976 5.138-4.648 7.924-8.492 14.15-18.114 30.182-13.086 46.17z m38.766-30.756c1.72-2.868 3.5-5.832 5.132-8.76 13.992-25.122 29.004-37.86 44.616-37.86 19.234 0 34.884 15.648 34.886 34.882 0.002 29.6-31.834 36.18-50.81 37.468-8.456 0.574-30.918 2.096-41.402-2.6-1.584-0.71-2.332-1.284-2.626-1.55-0.302-4.072 6.766-15.85 10.204-21.58z" p-id="6846"></path></svg>