<?xml version="1.0" standalone="no"?><!DOCTYPE svg PUBLIC "-//W3C//DTD SVG 1.1//EN" "http://www.w3.org/Graphics/SVG/1.1/DTD/svg11.dtd"><svg t="1649679219028" class="icon" viewBox="0 0 1024 1024" version="1.1" xmlns="http://www.w3.org/2000/svg" p-id="8361" xmlns:xlink="http://www.w3.org/1999/xlink" width="200" height="200"><defs><style type="text/css">@font-face { font-family: "feedback-iconfont"; src: url("//at.alicdn.com/t/font_1031158_u69w8yhxdu.woff2?t=1630033759944") format("woff2"), url("//at.alicdn.com/t/font_1031158_u69w8yhxdu.woff?t=1630033759944") format("woff"), url("//at.alicdn.com/t/font_1031158_u69w8yhxdu.ttf?t=1630033759944") format("truetype"); }
</style></defs><path d="M873.924224 1009.006322H150.075776a9.847788 9.847788 0 0 1-9.847789-9.847788v-58.980733a9.847788 9.847788 0 0 1 9.847789-9.847789h723.848448a9.847788 9.847788 0 0 1 9.847789 9.847789v58.980733a9.849788 9.849788 0 0 1-9.847789 9.847788z" fill="#EE6161" p-id="8362"></path><path d="M725.153421 693.345104H298.846579s-121.271395 85.234169-127.223266 236.986908h680.753374c-5.949872-151.75274-127.223267-236.986908-127.223266-236.986908z" fill="#EE6161" p-id="8363"></path><path d="M883.772013 940.171801v58.990733a9.849788 9.849788 0 0 1-9.841789 9.841788h-48.39096a9.849788 9.849788 0 0 0 9.841788-9.841788v-58.990733a9.849788 9.849788 0 0 0-9.841788-9.841789h48.39096a9.849788 9.849788 0 0 1 9.841789 9.841789zM852.370687 930.330012h-48.37096c-5.969872-151.75874-127.225267-236.980909-127.225267-236.980908h48.370961c0-0.002 121.277394 85.220169 127.225266 236.980908z" fill="#E94444" p-id="8364"></path><path d="M512 399.629414m-384.657736 0a384.657736 384.657736 0 1 0 769.315472 0 384.657736 384.657736 0 1 0-769.315472 0Z" fill="#D8ECFE" p-id="8365"></path><path d="M549.209201 477.301745h-74.418402l-15.751661 153.6307a10.25178 10.25178 0 0 0 10.147782 11.715748h85.62616a10.25178 10.25178 0 0 0 10.147782-11.715748z" fill="#E49280" p-id="8366"></path><path d="M554.81708 642.644193h-40.613127a10.24778 10.24778 0 0 0 10.153782-11.711748l-15.755662-153.634699h40.613127l15.735662 153.634699c0.90998 6.189867-3.883917 11.711748-10.133782 11.711748z" fill="#DD7F66" p-id="8367"></path><path d="M896.653736 399.635414c0 212.431436-172.2223 384.651736-384.651736 384.651736-46.660998 0-91.380037-8.311821-132.761148-23.523495 30.297349 7.685835 62.012668 11.751748 94.695966 11.751748 212.451436 0 384.673736-172.2223 384.673735-384.651736 0-165.810438-104.911746-307.107402-251.972586-361.150241 166.678419 42.149094 290.015769 193.133851 290.015769 372.921988z" fill="#C4E2FF" p-id="8368"></path><path d="M817.023447 634.010379c-70.324489 91.380037-180.798116 150.276771-305.023447 150.276771-173.516272 0-320.21312-114.901531-368.128091-272.76414 64.616612 29.521366 242.102799 73.662417 284.797881 85.332167 127.119269 34.789253 259.25443 58.048753 388.353657 37.155202z" fill="#F3F0F3" p-id="8369"></path><path d="M817.023447 634.010379c-7.311843 9.469797-14.615686 18.15761-22.733512 26.913421-22.781511 24.573472-48.254963 45.659019-76.474357 63.718632-7.735834 4.949894-15.34767 9.281801-23.421497 13.733704-22.033527 12.147739-45.59502 21.687534-69.616504 29.105375-12.787725 3.947915-25.871444 7.287843-38.995162 9.727791-17.849617 3.321929-36.603214 5.727877-54.872821 6.613858a386.77369 386.77369 0 0 1-110.693622-10.553773c-8.439819-2.057956-16.949636-3.595923-24.879466-6.98185-0.141997-0.059999-0.283994-0.099998-0.42399-0.141997-1.313972-0.423991-2.629943-0.849982-3.943916-1.293972a350.070479 350.070479 0 0 1-6.593858-2.245952 187.751966 187.751966 0 0 1-3.619922-1.293972c-0.505989-0.181996-0.991979-0.343993-1.475969-0.545989 30.27735 7.685835 61.992668 11.751748 94.655967 11.751748 115.91351 0 219.873276-51.272898 290.379761-132.377156a602.899047 602.899047 0 0 0 52.708868-6.129868z" fill="#E2DEE2" p-id="8370"></path><path d="M421.335948 295.11166c-41.297113 38.511173-84.118193 89.190084-90.542055 128.663235-2.563945 15.757661 5.809875 31.315327 20.215566 38.19918 6.399863 3.059934 14.43769 6.637857 23.935486 10.361777 89.096086 34.91925 188.363953 34.46126 277.162045-1.211974a358.3923 358.3923 0 0 0 20.891551-9.153803c14.391691-6.879852 22.759511-22.391519 20.215566-38.137181-6.583859-40.753124-49.990926-89.508077-92.666009-128.721234z" fill="#46CC8D" p-id="8371"></path><path d="M672.996541 461.968075a358.498298 358.498298 0 0 1-20.893551 9.161803 398.859431 398.859431 0 0 1-16.423647 6.167868c9.545795-9.061805 14.561687-23.239501 12.519731-37.599193-6.51386-45.731017-49.208943-100.399843-91.522034-144.592893h43.869058c42.677083 39.217157 86.080151 87.98211 92.654009 128.737234 2.549945 15.735662-5.801875 31.249329-20.203566 38.125181z" fill="#00C27A" p-id="8372"></path><path d="M652.036991 277.276043c-8.021828-52.304876-95.247954-121.921381-127.843253-146.306857a20.345563 20.345563 0 0 0-24.387476 0c-32.5953 24.383476-119.821426 93.99998-127.843253 146.306857-1.84396 12.027742 4.711899 23.773489 15.691662 29.021376 4.133911 1.975958 9.153803 4.233909 14.977679 6.601859a290.589757 290.589757 0 0 0 218.7373 0 275.612079 275.612079 0 0 0 14.977678-6.601859c10.977764-5.247887 17.533623-16.993635 15.689663-29.021376z" fill="#6ED5A1" p-id="8373"></path><path d="M636.347328 306.29142a272.046155 272.046155 0 0 1-14.987678 6.613857 264.190324 264.190324 0 0 1-11.507752 4.389906c5.11789-6.04787 7.645836-14.077698 6.391862-22.227522-8.211824-53.51685-97.427907-124.711321-130.75919-149.670785a17.899615 17.899615 0 0 0-2.405949-1.535967 744.899996 744.899996 0 0 1 16.725641-12.883723 20.327563 20.327563 0 0 1 24.391476 0c32.5833 24.371476 119.817426 93.987981 127.847253 146.292857 1.83996 12.031742-4.711899 23.781489-15.695663 29.021377z" fill="#46CC8D" p-id="8374"></path><path d="M230.502048 331.626875a14.919679 14.919679 0 0 0 10.335778 4.143911 14.927679 14.927679 0 0 0 10.831767-4.6339l6.077869-6.365864 6.07587 6.365864a14.927679 14.927679 0 0 0 10.831767 4.6339 14.971678 14.971678 0 0 0 10.827768-25.311456l-7.037849-7.371842 7.037849-7.371841a14.969678 14.969678 0 0 0-0.49199-21.167545 14.971678 14.971678 0 0 0-21.167545 0.491989l-6.07587 6.365863-6.077869-6.365863a14.967678 14.967678 0 0 0-21.167545-0.491989 14.969678 14.969678 0 0 0-0.49199 21.167545l7.037849 7.371841-7.037849 7.371842a14.969678 14.969678 0 0 0 0.49199 21.167545zM744.954995 454.534235a14.925679 14.925679 0 0 0 10.335778 4.143911 14.925679 14.925679 0 0 0 10.831767-4.633901l6.07587-6.365863 6.077869 6.365863a14.927679 14.927679 0 0 0 10.831768 4.633901 14.919679 14.919679 0 0 0 10.335777-4.143911 14.969678 14.969678 0 0 0 0.49199-21.167546l-7.037849-7.373841 7.037849-7.373842a14.969678 14.969678 0 0 0-0.49199-21.167545 14.969678 14.969678 0 0 0-21.167545 0.491989l-6.077869 6.365864-6.07587-6.365864a14.967678 14.967678 0 0 0-21.167545-0.491989 14.969678 14.969678 0 0 0-0.491989 21.167545l7.037848 7.373842-7.037848 7.373841a14.969678 14.969678 0 0 0 0.491989 21.167546zM674.688505 207.673538a14.927679 14.927679 0 0 0 10.335778 4.139911 14.939679 14.939679 0 0 0 10.833767-4.6339l6.073869-6.363863 6.07387 6.363863a14.933679 14.933679 0 0 0 10.833767 4.6339 14.975678 14.975678 0 0 0 10.829768-25.309456l-7.037849-7.373841 7.037849-7.373842a14.975678 14.975678 0 0 0-21.663535-20.675556l-6.07387 6.363863-6.073869-6.363863a14.975678 14.975678 0 0 0-21.663535 20.675556l7.037849 7.373842-7.037849 7.373841a14.979678 14.979678 0 0 0 0.49399 21.169545zM686.764245 323.163057a15.169674 15.169674 0 1 0 30.339348 0 15.169674 15.169674 0 0 0-30.339348 0zM789.104047 541.044376a15.169674 15.169674 0 1 0 0 30.339348 15.169674 15.169674 0 0 0 0-30.339348zM274.651099 421.324948a15.169674 15.169674 0 1 0 0 30.339348 15.169674 15.169674 0 0 0 0-30.339348zM362.999201 179.130152a15.169674 15.169674 0 1 0-30.339348 0 15.169674 15.169674 0 0 0 30.339348 0z" p-id="8375"></path><path d="M873.924224 915.358334h-7.503839c-6.557859-75.320382-40.111138-133.371135-68.030538-169.570357a371.456019 371.456019 0 0 0-33.02129-37.345197c89.240083-73.352424 146.258858-184.546035 146.258857-308.811366C911.627414 179.274148 732.355266 0 512 0c-116.439498 0-226.845126 50.642912-302.905492 138.943015a14.971678 14.971678 0 0 0 1.573966 21.115546 14.969678 14.969678 0 0 0 21.115546-1.573966C302.150508 76.79435 404.284314 29.945357 512 29.945357c203.843621 0 369.684058 165.840437 369.684058 369.686057 0 82.576226-27.219415 158.910586-73.150429 220.515263-78.714309 11.855745-157.538615 6.833853-230.143055-5.007893l-10.849767-105.829726a392.37757 392.37757 0 0 0 90.146063-24.289478 371.556017 371.556017 0 0 0 21.761532-9.539795c20.373562-9.733791 32.11131-31.953314 28.543387-54.03284-4.709899-29.157374-25.709448-63.714631-62.526656-103.049786 15.307671-8.691813 24.021484-26.099439 21.367541-43.387067-8.443819-55.060817-87.374123-121.389392-133.673129-156.026648-12.457732-9.3178-29.865358-9.3198-42.32709 0.002-16.007656 11.975743-47.00899 36.227222-74.774394 64.104622-35.137245 35.277242-54.952819 66.204578-58.896734 91.918026-2.605944 16.969635 5.741877 34.053268 20.521559 42.897078-27.571408 30.25935-56.022796 68.754523-61.670675 103.467777-3.599923 22.111525 8.137825 44.363047 28.533387 54.110838a377.101898 377.101898 0 0 0 24.929464 10.791768 391.799582 391.799582 0 0 0 86.980131 23.025505l-7.935829 77.398337a2310.51036 2310.51036 0 0 1-15.907658-4.283908c-6.97985-1.907959-17.309628-4.617901-30.391347-8.049827-62.234663-16.327649-189.223935-49.648933-245.880718-73.712416-9.135804-32.12131-14.029699-66.010582-14.029698-101.02183 0-65.522592 17.359627-129.887209 50.202921-186.130001a14.973678 14.973678 0 0 0-25.857444-15.101675c-35.517237 60.822693-54.288834 130.407198-54.288834 201.231676 0 124.26733 57.020775 235.462941 146.262858 308.815365a371.232024 371.232024 0 0 0-33.025291 37.343198c-48.358961 62.704653-64.058624 124.673321-68.022539 169.570357h-7.511838c-13.685706 0-24.819467 11.133761-24.819467 24.819467v58.980733c0 13.685706 11.133761 24.819467 24.819467 24.819466h462.000074a14.971678 14.971678 0 1 0 0-29.943356H155.199666v-48.730953h713.598668v48.730953h-188.275955c-8.269822 0-14.971678 6.701856-14.971678 14.971678s6.701856 14.971678 14.971678 14.971678h193.399845c13.685706 0 24.819467-11.133761 24.819467-24.819466V940.179801c0.002-13.687706-11.131761-24.821467-24.817467-24.821467zM386.762691 279.545994c5.787876-37.733189 66.820564-95.295953 122.011378-136.585065 0.963979-0.721984 2.095955-1.083977 3.225931-1.083977s2.261951 0.361992 3.223931 1.083977c55.190814 41.289113 116.225503 98.851876 122.013378 136.585065v0.002c0.817982 5.335885-2.201953 10.781768-7.349842 13.241716a258.918437 258.918437 0 0 1-14.159696 6.239866c-66.892563 27.195416-140.56698 27.197416-207.457542-0.002a258.744441 258.744441 0 0 1-14.159696-6.237866c-5.143889-2.461947-8.165825-7.90583-7.347842-13.243716z m-6.355864 178.848158a345.552576 345.552576 0 0 1-22.943507-9.927787c-8.475818-4.051913-13.367713-13.215716-11.891744-22.285521 3.935915-24.18348 26.287435-58.746738 61.254684-95.629946 34.109267 12.543731 69.634504 18.835595 105.17374 18.833596 35.145245-0.002 70.29649-6.159868 104.065764-18.429604 36.941206 37.825187 58.352746 70.422487 62.36466 95.265953 1.461969 9.049806-3.427926 18.195609-11.893744 22.239522a342.458642 342.458642 0 0 1-20.01157 8.769812c-85.690159 34.42726-180.198129 34.843251-266.118283 1.163975z m167.326405 151.296749c-24.21948-4.6539-47.590978-9.939786-69.880498-15.461668l8.387819-81.792242c8.573816 0.569988 17.159631 0.869981 25.747447 0.869981 8.595815 0 17.189631-0.303993 25.773447-0.875981z m-378.631865-71.950454c63.908627 23.185502 166.214429 50.024925 225.525155 65.588591 12.997721 3.409927 23.2635 6.103869 30.091353 7.969829 98.481884 26.951421 225.393158 55.064817 355.446364 42.535086-67.414552 71.082473-162.700504 115.481519-268.164239 115.481519-155.040669-0.002-288.073811-95.949939-342.898633-231.575025z m18.523602 377.617887c5.093891-53.636848 25.59945-104.185762 61.076688-150.476767a340.064694 340.064694 0 0 1 34.055268-38.101181c64.940605 45.643019 144.012906 72.478443 229.243075 72.478442 85.218169 0 164.280471-26.829424 229.217075-72.460443 32.393304 31.221329 86.238147 96.067936 95.145956 188.559949z" p-id="8376"></path></svg>