<?xml version="1.0" encoding="utf-8"?>
<!-- Generator: Adobe Illustrator 24.0.0, SVG Export Plug-In . SVG Version: 6.00 Build 0)  -->
<svg version="1.1" id="图层_1" xmlns="http://www.w3.org/2000/svg" xmlns:xlink="http://www.w3.org/1999/xlink" x="0px" y="0px"
	 viewBox="0 0 1024 1024" style="enable-background:new 0 0 1024 1024;" xml:space="preserve">
<style type="text/css">
	.st0{fill:#139890;}
	.st1{fill:url(#SVGID_1_);}
	.st2{opacity:0.2;}
	.st3{opacity:0.9;}
	.st4{fill:#D6ECF0;}
	.st5{fill:#2AACAB;}
	.st6{fill:#FFFFFF;}
	.st7{opacity:0.1;fill:#040000;}
	.st8{fill:#040000;}
	.st9{fill:#1F9793;}
	.st10{clip-path:url(#SVGID_3_);}
	.st11{opacity:0.3;}
</style>
<g>
	<path class="st0" d="M199.3,597.2c105.8-15.1,67.5,139.7,122.5,159c2.2,0.8,3.2,3.4,1.8,5.3c-9.3,13.1-40.9,53.4-78.9,53.4
		c-48.5,0-87.7-54.4-93.7-99.8C144.9,669.7,156.4,603.3,199.3,597.2z"/>
	<g>
		<path class="st0" d="M447.1,954h-54.2c-5.9,0-10.7-4.8-10.7-10.7V816.5c0-5.9,4.8-10.7,10.7-10.7h54.2c5.9,0,10.7,4.8,10.7,10.7
			v126.7C457.8,949.2,453,954,447.1,954z"/>
		<path class="st0" d="M595.3,954h-54.2c-5.9,0-10.7-4.8-10.7-10.7V816.5c0-5.9,4.8-10.7,10.7-10.7h54.2c5.9,0,10.7,4.8,10.7,10.7
			v126.7C606,949.2,601.2,954,595.3,954z"/>
	</g>
	<linearGradient id="SVGID_1_" gradientUnits="userSpaceOnUse" x1="667.3287" y1="182.0016" x2="184.9658" y2="902.614">
		<stop  offset="8.480967e-02" style="stop-color:#67C3C9"/>
		<stop  offset="0.9581" style="stop-color:#11A2A4"/>
	</linearGradient>
	<path class="st1" d="M807.1,515.5c-6.9-28.2-14.7-56.2-23.8-83.7c-24.2-73.1-58.9-145.3-116-198.6c-2-1.9-4.2-3.8-6.3-5.6
		c13-14.7,30.5-37.9,47.9-53.4c29.7-26.4,37.5-39.6,26.6-48.7c-10.9-9.1-33.3-0.1-63.4,45.7c-10.3,15.7-18.5,29.8-24,41.2
		c5-17.9,11.1-40.9,15.7-61.1c8.9-38.8,7.9-62.9-12.7-65.7c-14.1-1.9-29.5,14.9-27.4,69.6c0.6,17.3,2.7,34.3,5.1,48.7
		c-5.8-10.5-12.1-23.3-16.7-38.3c-14-45.3-31.1-43.5-41.2-36.5c-10.1,7-8.9,34.8,18.4,55.8c17.4,13.3,29.7,29.6,38.5,40.4
		c-34.1,26-82,42.2-135.1,42.2c-64.3,0-121-23.8-154.7-60c8.6-17.5,19.3-47.5,32.6-69c20.9-33.8,24.6-48.7,11.5-54.2
		c-13.1-5.5-31.9,9.4-47.6,61.9c-5.4,18-9.2,33.8-11.2,46.4c-0.4-18.6-1.1-42.4-2.4-63c-2.6-39.7-10.4-62.5-31-59.3
		c-14,2.2-24,22.7-6.4,74.5c5.6,16.3,12.4,32.1,18.9,45.2c-8.5-8.4-18.3-18.9-27-31.9c-26.4-39.4-42.2-32.8-49.9-23.2
		c-7.7,9.6,1.4,35.9,33.6,48.2c17.8,6.8,32.6,16.8,43.7,24.4c-22.8,18.3-43.1,40-60.1,64.5c-49.1,70.7-70.5,158.1-70.5,243.5
		c0,203.8,121,368.9,303.9,368.9S861.6,736.3,807.1,515.5z"/>
	<g class="st2">
		<path class="st0" d="M807.1,515.5c-6.9-28.2-14.7-56.2-23.8-83.7c-1.7-5.2-3.5-10.4-5.4-15.6c54.4,252.1-178.9,420.5-389.7,420.5
			c-28.9,0-56.5-3.6-82.6-10.3c47,36.7,104.7,58,170.3,58C658.9,884.4,861.6,736.3,807.1,515.5z"/>
	</g>
	<g class="st3">
		<path class="st4" d="M457.9,612.3c-97.7,0-186.2,31.7-250.4,83C256,808.2,351.7,884.4,476,884.4c106.4,0,219.6-50.2,284.8-135.7
			C698.4,666.9,586,612.3,457.9,612.3z"/>
	</g>
	<g>
		<ellipse class="st5" cx="604.5" cy="449" rx="105.8" ry="136.1"/>
		<ellipse class="st6" cx="604.5" cy="449" rx="91.7" ry="117.9"/>
		<path class="st7" d="M676.6,376.1c2.9,11.5,4.5,23.8,4.5,36.6c0,65.1-41.1,117.9-91.7,117.9c-29.3,0-55.3-17.6-72.1-45
			c12,47.2,46.5,81.3,87.2,81.3c50.7,0,91.7-52.8,91.7-117.9C696.3,421.5,688.9,396.2,676.6,376.1z"/>
		<g>
			<ellipse class="st8" cx="589.4" cy="449" rx="27.2" ry="35"/>
			<circle class="st6" cx="580.3" cy="458.1" r="12.1"/>
		</g>
	</g>
	<g>
		<ellipse class="st5" cx="359.6" cy="449" rx="105.8" ry="136.1"/>
		<ellipse class="st6" cx="359.6" cy="449" rx="91.7" ry="117.9"/>
		<path class="st7" d="M431.7,376.1c2.9,11.5,4.5,23.8,4.5,36.6c0,65.1-41.1,117.9-91.7,117.9c-29.3,0-55.3-17.6-72.1-45
			c12,47.2,46.5,81.3,87.2,81.3c50.7,0,91.7-52.8,91.7-117.9C451.3,421.5,444,396.2,431.7,376.1z"/>
		<g>
			<ellipse class="st8" cx="344.5" cy="449" rx="27.2" ry="35"/>
			<circle class="st6" cx="335.4" cy="458.1" r="12.1"/>
		</g>
	</g>
	<path class="st0" d="M749.7,551.8c105.8-15.1,67.5,139.7,122.5,159c2.2,0.8,3.2,3.4,1.8,5.3c-9.3,13.1-40.9,53.4-78.9,53.4
		c-48.5,0-87.7-54.4-93.7-99.8C695.2,624.4,706.8,557.9,749.7,551.8z"/>
	<path class="st9" d="M616.6,657.5c0,39.6-67.7,110.5-151.2,110.5s-151.2-70.9-151.2-110.5c0-39.6,67.7,16.9,151.2,16.9
		S616.6,617.9,616.6,657.5z"/>
	<path class="st5" d="M601.5,665.3c0,35.7-60.9,99.4-136.1,99.4S329.3,701,329.3,665.3s60.9,15.2,136.1,15.2
		S601.5,629.7,601.5,665.3z"/>
	<g>
		<defs>
			<path id="SVGID_2_" d="M601.5,665.3c0,35.7-60.9,99.4-136.1,99.4S329.3,701,329.3,665.3s60.9,15.2,136.1,15.2
				S601.5,629.7,601.5,665.3z"/>
		</defs>
		<clipPath id="SVGID_3_">
			<use xlink:href="#SVGID_2_"  style="overflow:visible;"/>
		</clipPath>
		<g class="st10">
			<path class="st6" d="M451.2,709.9h-26c-2.8,0-5.1-2.3-5.1-5.1v-39c0-2.8,2.3-5.1,5.1-5.1h26c2.8,0,5.1,2.3,5.1,5.1v39
				C456.3,707.6,454,709.9,451.2,709.9z"/>
			<path class="st6" d="M507.8,727.2h-30.3c-3.3,0-6-2.7-6-6v-54.5c0-3.3,2.7-6,6-6h30.3c3.3,0,6,2.7,6,6v54.5
				C513.8,724.5,511.1,727.2,507.8,727.2z"/>
		</g>
	</g>
	<g class="st11">
		<path class="st6" d="M302.6,207.6c-22.8,18.3-43.1,40-60.1,64.5c-49.1,70.7-70.5,158.1-70.5,243.5
			c0,202.2,119.3,366.4,299.9,368.9C311.2,851.6,208.4,690.2,208.4,496c0-91.3,22.9-184.7,75.3-260.4
			C283.7,235.6,300,211.1,302.6,207.6z"/>
	</g>
</g>
</svg>
