<svg xmlns="http://www.w3.org/2000/svg" xmlns:xlink="http://www.w3.org/1999/xlink" viewBox="0 0 381.4 350.15"><defs><style>.cls-1{fill:#231815;}.cls-2{fill:#c24a26;}.cls-3{fill:url(#未命名的渐变);}.cls-4{fill:#80acdb;}.cls-5{fill:#769dc9;}.cls-6{fill:#a8cae3;}.cls-7{fill:#d1dae7;}.cls-8{fill:#c9d6e6;}.cls-9{fill:url(#未命名的渐变_2);}.cls-10{opacity:0.53;}.cls-11{fill:#fff;}.cls-12,.cls-14{opacity:0.11;}.cls-13{fill:#2976bc;}.cls-14{fill:#4ba2da;isolation:isolate;}.cls-15,.cls-16{fill:#fbfdff;}.cls-15{fill-opacity:0.57;}.cls-16{fill-opacity:0.71;}.cls-17{fill:#cebf93;}.cls-18{fill:#e48f45;}.cls-19{fill:#f4e3bf;}.cls-20{fill:#e6c89c;}.cls-21{fill:#b57122;}.cls-22{fill:#5e3500;}.cls-23{fill:#fdf1e7;}.cls-24{fill:#ded5da;}.cls-25{fill:#faeff5;}.cls-26{fill:#d6733d;}.cls-27{fill:#f2e753;}.cls-28{fill:#eecb4f;}.cls-29{fill:#f0f0f0;}.cls-30{fill:#dbdcdc;}.cls-31{fill:#090909;}.cls-32{fill:none;stroke:#090909;stroke-miterlimit:10;}.cls-33{fill:#dfe0e0;}.cls-34{fill:#ee8031;}.cls-35{fill:#f6d46b;}.cls-36{fill:#f3ddea;}</style><radialGradient id="未命名的渐变" cx="141.27" cy="574.48" r="95.39" gradientTransform="matrix(0.65, 0.76, 0.65, -0.55, -379.36, 297.26)" gradientUnits="userSpaceOnUse"><stop offset="0.12" stop-color="#fff"/><stop offset="0.62" stop-color="#fdfeff"/><stop offset="0.67" stop-color="#fcfdff"/><stop offset="0.74" stop-color="#fafcff"/><stop offset="0.92" stop-color="#eff8fd"/><stop offset="0.93" stop-color="#e5f4fc"/><stop offset="0.94" stop-color="#c9e9f9"/><stop offset="0.96" stop-color="#a7dbf6"/></radialGradient><linearGradient id="未命名的渐变_2" x1="-33.35" y1="393.26" x2="102.46" y2="593.42" gradientTransform="matrix(0.96, 0.28, 0.28, -0.96, -124.62, 563.56)" gradientUnits="userSpaceOnUse"><stop offset="0.06" stop-color="#1e58a6"/><stop offset="0.15" stop-color="#195caa"/><stop offset="0.21" stop-color="#1263af"/><stop offset="0.25" stop-color="#0a69b3"/><stop offset="0.27" stop-color="#036eb7"/><stop offset="0.28" stop-color="#0c73b9"/><stop offset="0.3" stop-color="#2380c0"/><stop offset="0.33" stop-color="#4996cb"/><stop offset="0.35" stop-color="#7eb5da"/><stop offset="0.38" stop-color="#c1dbed"/><stop offset="0.41" stop-color="#fff"/><stop offset="0.62" stop-color="#daf0fb"/><stop offset="0.81" stop-color="#bee4f8"/><stop offset="0.96" stop-color="#a7dbf6"/></linearGradient></defs><g id="图层_2" data-name="图层 2"><g id="图层_1-2" data-name="图层 1"><g id="图层_2-2" data-name="图层 2"><g id="图层_1-2-2" data-name="图层 1-2"><path class="cls-1" d="M195.61,85.29s-3.86-16.46,18.86-12.64S273.23,87.11,293,117l1.16,2.7a4.4,4.4,0,0,0,1.9,2.12l3,1.72a3.25,3.25,0,0,1,1.61,3.42c-.74,3.91-2.56,11.73-5.68,14.81-4.22,4.18-11.68,4.17-11.68,4.17l-69.28-13.88C158.76,119.71,195.61,85.29,195.61,85.29Z"/><path class="cls-2" d="M197.35,88.21s-3.55-15.93,18.09-12.42S271.36,89.33,290,118.15l1.08,2.61a4.21,4.21,0,0,0,1.8,2l2.88,1.64a3.1,3.1,0,0,1,1.5,3.3c-.73,3.79-2.54,11.4-5.54,14.42-4.06,4.08-11.17,4.14-11.17,4.14s-65.45-12.76-66-12.89C161.89,121.9,197.35,88.21,197.35,88.21Z"/><path class="cls-3" d="M170.56,65.22s-16.51,38.26-59.78,69.8-61.42,37.35-61.42,37.35-23-22-32.13-35.88-37-73.28,6.47-116.34,96.62-4.6,105.13,1.16C138.26,27.7,166.11,58.71,170.56,65.22Z"/><path class="cls-1" d="M192.82,97.63c3.22,1,14.17,5,17.1,16.45a1.4,1.4,0,0,0,1.15,1c2.79.37,11,2,13.15,9a1.38,1.38,0,0,0,1.24,1c7,.4,50.21,3.51,80,22.35C316,153.6,324,159.1,325.66,160.29a1.25,1.25,0,0,0,.75.25c2.5.05,15.69.19,26.72-2.4,12.24-2.87,10.82-4.47,17.64-6.26,5.84-1.52,8.69,1.29,9.59,2.57a10.33,10.33,0,0,1,1,4.17c0,1.91-.28,8.16-7.66,12.92-8.38,5.4-19.69,10.15-24.14,12s-3.86.56-3.86.56a52.27,52.27,0,0,1,7.05,27.43c-1.23,32.3-11.73,46-12.85,47.3a1.58,1.58,0,0,0-.15.24c-.82,1.63-9.41,18.12-25.84,24.26,0,0-5.7,2.28-.4,2.38s18.27,1.68,28,12.15c6.47,7,8.12,16.09,8.5,21.38a22.48,22.48,0,0,1-.75,7.48c-1,3.6-2.07,8.15-3.47,10.57-1.67,2.88-4.15,4.47-5.59,4.37a1.35,1.35,0,0,0-1.41.71c-.93,2-3.09,6-6.07,7-3.87,1.29-14.59,1.52-17.73-4.23a1.29,1.29,0,0,0-1.2-.72c-2.76.13-11.52.07-13.71-5.87a24.73,24.73,0,0,1-1.85-7,1.37,1.37,0,0,0-1.42-1.33,1.39,1.39,0,0,0-.68.21c-2.31,1.45-5.29,2.86-7,1.93-3-1.68-7.78-5.41-8.14-8.61-.14-1.32-.22-2.29-.26-3a1.37,1.37,0,0,0-1.37-1.31c-1.41,0-3.58-.25-4.83-1.58a1.26,1.26,0,0,0-.92-.45c-2.34,0-11.49-.23-16.2-2.67C252,312,236.22,305.1,234,298.45l-1.12-2.55a1.36,1.36,0,0,0-1-.82c-5-.88-35.17-6.28-53.92-13.66-19.66-7.74-36.32-14-37.7-14.48l-.18-.09-1.08-.61a1.39,1.39,0,0,0-1.85.47c-1.16,1.89-4.79,5-15.86,2.33-12.64-3.08-22.62-10.75-25.59-13.2a1.39,1.39,0,0,0-1.78,0c-2.5,2.15-9.85,7.82-15.5,6C71.91,259.63,64.08,252,61,249.2a1.38,1.38,0,0,0-1.2-.32c-2.12.42-8.69,1.41-10.94-1.89-2.69-4-4.62-11.84-.31-16l2.23-2.54S46,230,44,224.44s0-11.83,3.13-13.72a13.84,13.84,0,0,1,5.67-2.05,19.23,19.23,0,0,0,4.43-1.48C59,206.25,144.8,153.43,191.37,98A1.35,1.35,0,0,1,192.82,97.63Z"/><path class="cls-4" d="M193.68,102.09c3.09.93,13.62,4.86,16.41,15.81a1.33,1.33,0,0,0,1.12,1c2.66.35,10.54,2,12.63,8.68a1.36,1.36,0,0,0,1.19,1c6.78.37,48.24,3.35,76.86,21.45,10.15,5.83,17.76,11.11,19.39,12.26a1.35,1.35,0,0,0,.73.24c2.39,0,14.47,1.81,25.07-.68,11.73-2.75,13.6-3.11,18.87-5.47,6.09-2.72,10.19-1.2,11.25-.14,2.07,2.1,1.23,4.34.75,5.7-.69,1.94-2.92,5.39-10,9.95-8.07,5.19-20.23,9-24.5,10.79s-2.87,2.5-2.87,2.5a50.45,50.45,0,0,1,6.77,26.37c-1.18,31-10.27,43.56-11.33,44.84-.06.08-.6,1-.64,1.12-.78,1.56-3.68,13.66-23.39,24.67,0,0-11.53,5.92-6.44,6s21.5-2.53,30.8,7.52c6.21,6.7,9.62,13.59,10,18.67.17,2.41.68,5.26,0,7.6-.93,3.46.43,5.32-3.27,10.72-1.8,2.64-6.46,4-7.86,3.85a1.3,1.3,0,0,0-1.36.69c-.88,1.92-.93,6.95-3.79,7.87-3.72,1.25-10,1.88-13-3.64a1.25,1.25,0,0,0-1.15-.69c-2.66.12-11.9,2.88-14-2.8a36.37,36.37,0,0,1-1.53-9.31c0-1-4.58-1.8-5.44-1.27-2.24,1.39-7.19,1.12-8.79.19-2.88-1.62-2.65-4-3-7.12a21.51,21.51,0,0,0-.25-2.87c-1.12-3.39-5.45-2.38-6.14-2.38-1.35,0-3.45-.24-4.64-1.52a1.25,1.25,0,0,0-.88-.44c-2.24,0-11.05-.22-15.59-2.56-5.24-2.71-18.25-8.46-20.38-14.85l-1.06-2.45a1.32,1.32,0,0,0-1-.78c-4.84-.85-35.91-6.88-53.93-14-18.88-7.43-34.9-13.41-36.21-13.91l-.17-.09-3.14-1.39a2.75,2.75,0,0,0-2.51.38c-1.6,1.48-1.76,5.71-12.39,3.12-12.15-3-27-12.17-29.89-14.53a1.32,1.32,0,0,0-1.71,0c-2.4,2.06-8.21,7.19-11.36,7-6.57-.39-15.3-10.73-18.3-13.41a1.3,1.3,0,0,0-1.15-.3c-2,.4-7,1.79-9.12-1.37a11.18,11.18,0,0,1,1.63-14l1.79-3.86s-5.43.13-6.08-2.4c-1.41-5.44,0-11.37,3-13.18a13.17,13.17,0,0,1,5.45-2,18.42,18.42,0,0,0,4.26-1.43c1.67-.9,84.07-51.64,128.81-104.85A1.33,1.33,0,0,1,193.68,102.09Z"/><path class="cls-5" d="M343,333.46c-1.81,2.63-6.47,4-7.87,3.86a1.32,1.32,0,0,0-1.37.67c-.89,1.95-.9,6.95-3.77,7.91-3.72,1.23-10,1.88-13-3.65a1.21,1.21,0,0,0-1.15-.69c-2.65.12-11.89,2.89-14-2.8a36.43,36.43,0,0,1-1.53-9.32c0-1-4.57-1.79-5.44-1.26-2.24,1.4-7.2,1.12-8.79.19-2.86-1.62-2.65-4.05-3-7.12a25.11,25.11,0,0,0-.25-2.86c-1.12-3.41-5.45-2.38-6.14-2.38-1.34,0-3.43-.26-4.64-1.53a1.29,1.29,0,0,0-.88-.44c-2.23,0-11-.22-15.58-2.56-5.25-2.7-18.26-8.45-20.39-14.85l-1.06-2.46a1.34,1.34,0,0,0-1-.77c-4.86-.85-35.92-6.87-53.94-14-18.89-7.42-34.9-13.41-36.2-13.9a.66.66,0,0,1-.19-.09l-3.12-1.38a2.74,2.74,0,0,0-2.52.37c-1.6,1.48-1.76,5.7-12.4,3.12-12.14-3-27-12.16-29.89-14.53a1.34,1.34,0,0,0-1.71,0c-2.39,2.08-8.21,7.2-11.36,7-6.55-.39-15.29-10.73-18.28-13.41a1.44,1.44,0,0,0-1.16-.31c-2,.41-7,1.81-9.12-1.35A11.18,11.18,0,0,1,55,231l1.8-3.86s-5.44.13-6.09-2.39c-1.4-5.45,0-11.39,3-13.19a13.07,13.07,0,0,1,5.44-2,18.93,18.93,0,0,0,4.26-1.44s28.55,12.62,30.1,37c0,0,37.11,14.09,52.31,7.61,16.36-7,16.84-9.34,17-9.85-.19.93-4.19,8.23-9,10.62-5,2.51,85.6,36.68,102.2,25.6a59.47,59.47,0,0,0,9.82-8l.05-.06s0,0,0,.06c-5.75,11.52-10.92,27.66.83,34.08,19.14,10.46,23.64,25.38,42.2,22.08s22.79-6.83,25.37-12.85c1.76-4.12,2.36-12.44,2.57-17.32,5.87,6.49,9.05,13.11,9.42,18,.18,2.42.67,5.27,0,7.61C345.34,326.2,346.7,328.07,343,333.46Z"/><path class="cls-1" d="M295.32,327.43s17.82-2.06,32.36-7.42c0,0,9.09-4.38,10.46-5,0,0-7.82,5.87-12.22,7.77a90.86,90.86,0,0,1-27.38,6.7C295.4,329.58,295.32,327.43,295.32,327.43Z"/><path class="cls-6" d="M291.79,319.32c-7.82-1.51-47.38,1.68-35.12-51.4,1.32-5.69,1.83-10.83,2.76-15.28a63.06,63.06,0,0,0-6.52,4.58l4.89-16.54s-18.56,10.06-19.71,26.12l-2.56,6.84L173,253.11s-6.14.56-.81-9.42S180.53,221,180.53,221s-.56-13.34-6.14-15.26-1.86,9.85-1.86,9.85-1.47,11.27-1.94,9.27-13.18,23.8-26.92,21.6-18.44-3.36-18.44-3.36-1.89,9-7.26,5.59-7.56-20.36-13.37-22.35-10.57-9.26-7.66-9.2,31.85,9.42,31.85,9.42l-.53-18s11.08-14,9.36-14.52-4.64-3.24-12.11-2.24-9,4.25-10.41-4.42,50.39-38.87,50.39-38.87l17.82-8.05s7.36-6.87,6.86,2c0,0,17.13-29,20.51-15.24S217,143.51,217,143.51l3.59-14.14s77.39,8,103.76,39.25c17.94,21.28,21.45,50.85,15.09,68.66S317.43,268.71,313,251.44l-2.65-7.2s-1.73,3.1-3.42,3.4c0,0,3.66,26.38-13.89,38s-16.56,13.62-16.56,13.62,4.36-1.25,17.78-6.08,30.73-8.21,37.22,8.38S299.6,320.83,291.79,319.32Z"/><path class="cls-7" d="M212.54,134.54c-3.29-12.73-19.21,13.92-19.21,13.92.42-8.2-6.47-1.91-6.47-1.91l-16.76,7.31s-48.68,27.52-47.26,35.52a.6.6,0,0,0,0,.24c-3.12.75-4.16.56-5.16-5.53-1.43-8.66,50.39-38.87,50.39-38.87L186,137.17s7.36-6.86,6.85,2c0,0,17.13-29,20.51-15.24s6.35,16.29,6.35,16.29l3.59-14.13s77.39,8,103.76,39.24c17.93,21.28,21.44,50.84,15.08,68.65-4.67,13.13-14.42,24-21,21.86,5.14-2.93,10.62-10.39,13.66-18.93,5.87-16.41,7.65-45.76-9.39-65.51-25.09-29.05-98.11-36.88-98.11-36.88l-8.6,15.09S215.81,147.29,212.54,134.54Z"/><path class="cls-8" d="M111,227.17c5.18,1.76,7.41,15.75,11.93,20-1.12,1-2.6,1.34-4.51.11-5.37-3.45-7.56-20.36-13.37-22.35s-10.58-9.27-7.66-9.2,31.84,9.42,31.84,9.42l-.52-18s5.73-7.26,8.31-11.53c2.51.56,3.91,1.62,4.9,1.91,1.62.47-8.72,13.35-8.72,13.35l.62,16.62s-27.34-8.84-30.09-8.91S105.51,225.28,111,227.17Z"/><path class="cls-8" d="M174.83,243.62c-3,5.55-2.06,7.57-.87,8.29l-.52-.16s-6.15.55-.82-9.43S181,219.59,181,219.59a40.9,40.9,0,0,0-1.4-8.43c2.61,4.17,3,11.55,3,11.55S179.83,234.42,174.83,243.62Z"/><path class="cls-8" d="M251.5,244c-5.45,4.47-12.29,11.9-13,21.45l-2.57,6.84L175.19,252.3h.48l59.08,19.34,2.38-6.29C237.79,255.17,246.27,247.64,251.5,244Z"/><path class="cls-8" d="M257.14,252.43c0,.21-.09.43-.12.64-2.34,1.6-3.7,2.74-3.7,2.74l.33-1.11C254.59,254,255.78,253.26,257.14,252.43Z"/><path class="cls-8" d="M289,283.05c16.47-10.58,12.85-34.94,12.85-34.94,1.59-.26,3.2-3.11,3.2-3.11l2.54,6.66h0c.07,8.38-1.62,24.22-14.19,32.52A141.62,141.62,0,0,0,281,293.12c-5.5,1.8-7.49,2.35-7.49,2.35S272.53,293.63,289,283.05Z"/><path class="cls-8" d="M292.23,317.93c-5.07-1-23.47,0-32.47-13.64,9.05,9.62,24,9,28.37,9.88,7.38,1.45,43.49-.85,37.25-16.21-2.2-5.39-5.64-8.49-9.72-10.09,6.89.56,12.93,3.85,16.21,12.21C338.34,316.67,300,319.43,292.23,317.93Z"/><path class="cls-8" d="M137,195.66a18.75,18.75,0,0,0-6.51-.24c-7,.83-8.43,3.8-9.8-3.91a44.55,44.55,0,0,1,5.25-1.12c7.47-1,10.4,1.74,12.11,2.24C138.53,192.77,138,194,137,195.66Z"/><path class="cls-8" d="M175,217.67s-1.31,10.4-1.77,8.53S160.92,248.09,148,246s-17.42-3.19-17.42-3.19-1.72,8.33-6.79,5.1a5.35,5.35,0,0,1-.83-.66c1.95-1.77,2.73-5.48,2.73-5.48s4.72,1.11,18.44,3.35,26.43-23.61,26.92-21.6S173,214.2,173,214.2s-3.71-11.76,1.86-9.85c2.38.82,3.85,3.75,4.73,6.84a5.82,5.82,0,0,0-2.9-2.59C171.39,206.8,175,217.67,175,217.67Z"/><path class="cls-8" d="M174,251.9l1.19.39A3.15,3.15,0,0,1,174,251.9Z"/><path class="cls-8" d="M251.57,243.9a47.46,47.46,0,0,1,6.64-4.62l-4.54,15.41c-1.67,1.15-2.62,1.92-2.62,1.92l4.48-15.23A39,39,0,0,0,251.57,243.9Z"/><path class="cls-8" d="M259.74,304.28c-6.2-6.57-9.64-17.92-5.09-37.78,1.12-5,1.6-9.47,2.37-13.41.83-.56,1.78-1.18,2.83-1.83-.94,4.45-1.45,9.58-2.76,15.27C252.78,285.19,254.87,296.89,259.74,304.28Z"/><path class="cls-8" d="M307.6,251.66a43.19,43.19,0,0,0-.31-5.45c1.68-.3,3.42-3.39,3.42-3.39l2.66,7.19c1.18,4.59,3.16,7,5.53,7.74-4.74,2.71-9.21,1.56-11.3-6.08Z"/><path class="cls-8" d="M315.64,287.88c-6.76-.55-14.37,1.49-21,3.85-13.41,4.83-17.77,6.08-17.77,6.08s-.43-.85,4.12-4.65c2.38-.79,5.42-1.81,9.24-3.13C298.4,287.2,308.12,285,315.64,287.88Z"/><path class="cls-1" d="M318.39,236.6s.81,6.08.35,9.5a4.42,4.42,0,0,1-.95,2.61s-6-8.07-13.41-12.45-2.48,0-2.48,0,17.75,13.32,15.4,26-13.47,24.36-19.5,29.31a58.9,58.9,0,0,1-13.22,7.88s-3.42,2.47,1.28.77,12.19-5.09,15.56-8.38-1.44,4.86-1.44,4.86.1,1.33,2.29-1.32,3.91-8.13,3.91-8.13l6.55-7s11.18-15.86,8-26.7c-1-4.29-.82-3.64-.82-3.64A21.18,21.18,0,0,0,318.39,236.6Z"/><path class="cls-1" d="M325.41,164.39s16.44,20.25,18.53,26.68,3.72-1.79,3.72-1.79S340.56,171,330,163.58,325.41,164.39,325.41,164.39Z"/><path class="cls-1" d="M176.64,230.8c-4.47,4.52-20.59,18.58-29.78,22.95a14.44,14.44,0,0,1-15.7-1.55s-6.52,5.46-11.21,5.08-17.7-4.64-20.49-12.45-2.38-11.89-6.06-16-10.17-10.2-7-14.76c0,0,2.23-10.49,17.4-6.14,5.54,1.58,9.75,2.76,12.85,3.59a3.87,3.87,0,0,0,4.59-2.56v-.06s0-.11.09-.16a3.77,3.77,0,0,0-.5-3.81,2.39,2.39,0,0,1-.3-2.72c1.23-2.44,11-12.33,14.37-12.78s-.42,1.26-.42,1.26a25.94,25.94,0,0,0-9.23,8.91c-3.1,5.35,1.84,1.93,2.61,1.38l.24-.16c1.24-.74,11.39-6.64,19-4.47,8.09,2.31,8.38,3,8.38,3s.08,1.42-4.86-.49c-4.58-1.78-14.62.65-16,1l-.3.09c-1.31.47-10.75,3.86-7.15,5.54a112,112,0,0,0,11.73,4.11,3.17,3.17,0,0,0,.44.12c.71.12,3.18.61,2.52,1.26s-3.6.49-3.6.49L127,208.72s-4.89-.19-1.32,3.11,16.76,8.46,16.76,8.46,3.07,1.68,2,1.82-14.49-3.91-14.49-3.91l-28.21-7.82s-15.84-5.51-11,12.05c.81,3,2.27,4.21,3.35,4.74a3.84,3.84,0,0,1,2,2.2c.65,1.86,1.89,5.58,4.24,13.08,3.16,10.06,18.57,11.61,23.67,11.85a3.81,3.81,0,0,0,2.8-1l3.84-3.67.33-.32,2.58-.07a8.6,8.6,0,0,0,2.91,1.27c5.86,2.23,15.64-4.14,25-10.11s12.4-16.43,12.92-18.32S176,220.8,176,220.8c1.76,2.31-1.07,7-1.07,7,4-1.07,7.87-8.94,7.87-8.94C185.44,220.5,180.52,226.85,176.64,230.8Z"/><path class="cls-1" d="M60.38,206.74s24.85,3.76,28.08,13.11l-1.85.56s-17.15-12.64-27.38-11.6Z"/><path class="cls-1" d="M56.73,217.18S57.94,242.07,71,250.44s5.37,2.12,5.37,2.12-16.12-8.1-18.27-31.51C58.11,221.05,57.36,216.52,56.73,217.18Z"/><path class="cls-1" d="M224.21,128.18s.36,17.2-1.5,21.44,2.12-1.77,2.12-1.77,5.44-13.26,2.14-19.17S224.21,128.18,224.21,128.18Z"/><path class="cls-1" d="M210,121.73a52.06,52.06,0,0,1-3,13.9,34.87,34.87,0,0,1-2.67,5.83c-2.5,3.91,2.38-1.41,2.38-1.41s7.62-14.61,5.29-21C210.84,115.9,210.18,119.6,210,121.73Z"/><path class="cls-8" d="M341.31,227.18a20.83,20.83,0,0,1-11.42,16.06c-6.15,3-11.22,1.5-12.49-9.56-2.8-24.35-26.63-42-39-49.54a21.19,21.19,0,0,0-14.12-2.91c-11.09,1.59-32.31,2.44-35.16-13.64-1.9-10.62,7.31-20.06,17.32-26.93a21.31,21.31,0,0,1,17.61-3c22.17,6,47,15.65,59.84,30.83C338.76,186.15,343.7,209.53,341.31,227.18Z"/><path class="cls-8" d="M330,163.57s2,.42,5.63,5.21c0,0,26-4.37,35.86-10.65,0,0,5.14-4.32-2.34-2.88,0,0-12.36,5.32-19.9,6.95S330,163.57,330,163.57Z"/><path class="cls-9" d="M163.71,68.49S148.88,102.86,110,131.18,50.81,164.7,50.81,164.7s-17.88-14.61-33.24-39.6C9.75,112.42-7.28,66.66,31.79,28s86.79-4.13,94.43,1C134.66,34.78,159.68,62.64,163.71,68.49Z"/><g class="cls-10"><path class="cls-11" d="M134.74,97s-9.55,20-37.68,35.2-40.23,17.51-40.23,17.51-20.76-8.15-27.38-16.28c-19.63-24.12-30.77-83.1,0-99.89,11.92-6.5,55.92-.36,104.64,37.23C140.25,75.54,131.4,93.31,134.74,97Z"/></g><g class="cls-12"><path class="cls-13" d="M130.41,100s-9.54,20-37.68,35.2S52.5,152.73,52.5,152.73s-20.76-8.16-27.38-16.29c-19.63-24.13-27-75.34.74-96.77S116.5,68,122.57,71.52C129.3,75.39,127.07,96.25,130.41,100Z"/></g><path class="cls-14" d="M132.3,103.74s-9.55,20-37.69,35.21-40.23,17.5-40.23,17.5-23.9-15.71-31.16-23.26C6.29,115.59-.23,70.92,27.54,49.51s68.19,25,74.27,28.49C108.53,81.89,129,100,132.3,103.74Z"/><path class="cls-15" d="M110.81,18.94S90,36.22,62.67,21c-14.78-5.83-23.33-2.23-23.33-2.23S71.35-8.5,110.81,18.94Z"/><path class="cls-16" d="M112.87,21.32A3,3,0,0,0,111,25.08a3.16,3.16,0,0,0,.36.71c2.43,3.73,7.61,10.84,10.93,8.3,4.45-3.38,6.3-7.53,2.65-8.94C122.1,24.08,116.78,20.12,112.87,21.32Z"/><path class="cls-17" d="M146.88,55s-4.81,5.25-2.39,8.06c1.34,1.55-.29,2.17-2,2.41a11.2,11.2,0,0,1-5.86-.85c-1.17-.5-2.23-1.18-2.41-2-.34-1.79,2.68-7,8.71-10.46S146.88,55,146.88,55Z"/><path class="cls-1" d="M144.5,63.58s-7.82,3.42-11.85-.16c-3.59-3.19,2-2.42,2-2.42s-5.92.1-7-1-5.42-2.24-3.23-2.8,8.74-5.79,16.46,0S144.5,63.58,144.5,63.58Z"/><path class="cls-1" d="M146.86,64.26A29.6,29.6,0,0,0,119,61.81c-15.46,6.61-34.17,23.32-34.17,23.32s-8.38,46.42,11.66,40.7,51.57-42.46,51.57-42.46S157.49,73.55,146.86,64.26Z"/><path class="cls-18" d="M143.49,64.5s-10.83-5.75-26.26.87S83.05,88.7,83.05,88.7s-8.68,55.81,11.38,50.08,51.84-51.84,51.84-51.84S156.91,71.19,143.49,64.5Z"/><path class="cls-1" d="M106.87,96.37S87.05,67.31,75.16,65.26c-16.33-2.79-58,11.11-59.69,40.45A41.72,41.72,0,0,0,38,146Z"/><path class="cls-19" d="M105.38,97.91S86,70.81,74.12,68.8C57.78,66,18.6,78.33,16.93,107.67S60.19,164,60.19,164l34.24-25.23L92,133.62A20.1,20.1,0,0,1,90.71,119a31.77,31.77,0,0,1,6.14-11.1Z"/><path class="cls-1" d="M99.57,85.66s15.65-2.38,11.18,8.5-13.31,7.74-13.31,7.74S87,93.1,99.57,85.66Z"/><path class="cls-19" d="M97.15,87.32s14.53-.87,10.69,8-11.26,7-11.26,7S85.49,93.07,97.15,87.32Z"/><path class="cls-20" d="M89.07,120.22S60.7,140,50.37,127.69c-6.08-7.23-10-15.79-12.29-21.61A25.92,25.92,0,0,1,36.92,91.5,32.12,32.12,0,0,1,41,82c4.81-8-8.66.85-8.66.85s-11.83,10.32-13.72,21.6c-1.56,9.44-2.46,33.09,25,46.13S89.07,120.22,89.07,120.22Z"/><path class="cls-21" d="M103.58,93.53a1.75,1.75,0,0,0-.85-2c-1.2-.66-3-1.33-3.6.29-.86,2.47-.86,7.31,1.64,6.06C102.39,97.08,103.21,94.93,103.58,93.53Z"/><path class="cls-18" d="M27.19,108.4a3.13,3.13,0,0,0-.85-3.43c-1.55-1-3.84-1.9-4.92,1-2.44,6.6-2.17,13.14,1.37,10.57C25.09,114.88,26.49,110.93,27.19,108.4Z"/><path class="cls-22" d="M26.58,108.79c.39-1.24.31-2.41-.19-2.86-.86-.77-2.23-1.43-3.17,1.12-1.39,3.91-2.68,11.23-.21,8.87C24.62,114.39,25.89,111,26.58,108.79Z"/><path class="cls-22" d="M103.37,93.43a1.37,1.37,0,0,0-.66-1.57c-.95-.51-2.4-1-2.84.24-.67,1.94-.67,5.74,1.29,4.77C102.44,96.23,103.08,94.54,103.37,93.43Z"/><path class="cls-23" d="M103.82,100.72s5.58-6.15,3.91-9-6-3.78-6-3.78-3.74-.52-4.47,0l-1.43-1.16S84.12,74,82.76,73.68c0,0-2.6-2.1-3-2s8.57,8.83,9.12,9.62c.73,1,7.5,7.87,7.5,7.87s4.47-.49,6,.14c2,.85,4.53,2.29,3.88,5.75A13.93,13.93,0,0,1,103.82,100.72Z"/><path class="cls-1" d="M119.81,69.71c-1.35-1.32-5-2.12-7-1.81-4.11.63-10.7,2.67-10.62,9.3.09,8.43,8.94,7.16,11.12,6.71a6,6,0,0,0,1-.31C116.58,82.7,127.71,77.45,119.81,69.71Z"/><path class="cls-24" d="M113.56,82.41a4.48,4.48,0,0,1-.88.27c-1.62.33-7.33,1.16-9.11-3a7.22,7.22,0,0,1-.56-2.86c-.06-5.78,5.68-7.57,9.25-8.13,1.68-.25,5.38.24,6.53,1.49l.1.11C124.72,77.94,115.5,81.61,113.56,82.41Z"/><path class="cls-25" d="M112.56,80.9a5.73,5.73,0,0,1-.89.28c-1.37.28-5.72.92-8.1-1.46a7.22,7.22,0,0,1-.56-2.86c-.06-5.78,5.68-7.57,9.25-8.13,1.68-.25,5.38.24,6.53,1.49C122.56,76.9,114.35,80.17,112.56,80.9Z"/><ellipse class="cls-1" cx="107.79" cy="73.55" rx="2.33" ry="2.1" transform="translate(-0.2 0.3) rotate(-0.16)"/><path class="cls-26" d="M143.73,62.91s-7.47,3.19-10.76-.22c-2.94-3,1.94-1.9,1.94-1.9s-5.25-.2-6.15-1.28S124,57.68,126,57.34s7.62-4.19,14.6.65C145.88,61.67,143.73,62.91,143.73,62.91Z"/><path class="cls-19" d="M152,53.7s.7,12.13-4.27,14.4c-2.75,1.25-1.52,3.58.13,5.41a11.42,11.42,0,0,0,7,3.66c1.67.21,3.42.1,4.25-1,1.88-2.46,3-13-.49-23.47S152,53.7,152,53.7Z"/><path class="cls-27" d="M159.53,76.93a13.05,13.05,0,0,1-7.48.43c-2.57-.76-7.17-3.08-7.43-6.54s1.21-4.1,1.21-4.1,2.8-.51,2.27,2.13,3.42,5,3.42,5,3.95,2,7.85.44c2.09-.87,1.39,1.26,1.39,1.26S160.62,77.11,159.53,76.93Z"/><path class="cls-17" d="M157.61,51s-1.3-2-1.12-.47,3.59,15.25.82,19.28-5.77,1.93-5.77,1.93-1.06-.06-.91.4,2.83,2.92,6.71,2c0,0,1.68.06,1.91-.55C161.9,66.78,158.76,54.5,157.61,51Z"/><path class="cls-28" d="M160.3,74.67s.41,1,0,1.63-3.51,1-3.51,1-5.91.23-8.16-2a15.94,15.94,0,0,0,4.83,1.43c1.88,0-.45-1.38-.45-1.38l-.8-.73S155,75.87,160.3,74.67Z"/><path class="cls-1" d="M197.61,92.87a12.53,12.53,0,0,0-.35-8.7,25.31,25.31,0,0,0-3.25-5.9c-2.72-3.3-13.66-15.93-20.88-19.55s-8-.62-8.68.32S137.27,97.51,108,121.75c-13.75,11.38-52.85,35.49-61.38,39.12s-5.42,11.57-5.42,11.57,7.16,15.94,17.92,23.12c5,3.36,12.68,5.76,15.91,4.72s40.53-10.5,67.68-32,34.54-35.25,39-41.14C185.54,121.86,193.62,105.11,197.61,92.87Z"/><path class="cls-11" d="M194.59,95.45a17.16,17.16,0,0,0-1.31-14.7,12.62,12.62,0,0,0-1-1.48c-2.49-3-12.52-14.6-19.14-17.93s-7.33-.44-8,.29c-.85,1-27,39.05-53.86,61.27-12.61,10.43-51.08,33.29-58,38.16-4.6,3.21-5.94,6.23-6.25,8.24a5.78,5.78,0,0,0,.56,3.35c1.64,3.36,7.63,14.7,16,20.28,4.58,3.07,14.25,3.35,21.46,1.12,3-.93,35.28-12.54,60.16-32.28s31.67-32.32,35.71-37.71C184.2,119.62,190.71,106.29,194.59,95.45Z"/><path class="cls-29" d="M167.75,59.56a4.12,4.12,0,0,0-1.83-.56c-.73.06-13.31,17.66-14,18.65l-.07.09L126.77,106.1l-.08.08L105.12,126l-.14.1-24.43,16.1L56.7,157.46l-.15.1-7.74,5.75-2.66,3.08-.67,1.26a1.05,1.05,0,0,0,.44,1.42,1,1,0,0,0,.87.06c5.76-2.2,20-8,31-15.14,14.1-9.21,50.19-36.23,56.08-42.63s18.91-19.8,26-32.08,9.6-19.27,9.56-19.39A7.84,7.84,0,0,0,167.75,59.56Z"/><path class="cls-30" d="M141.06,164.9c-15,10.52-36.58,20.89-38.55,21.48-2.79.82-20,1.43-24.33-1.39-7.9-5.14-13.64-15.49-15.21-18.54a4.93,4.93,0,0,1-.56-3.06c.27-1.81,1.48-4.53,5.78-7.38,4.9-3.29,27.26-15.09,42.63-25-1.12,5.82-1.84,11.17-1.06,17.07.35,2.69,2.47,6.31,3.8,8.71a19.25,19.25,0,0,0,5.56,5.67C125.09,166.8,133.66,166.21,141.06,164.9Z"/><path class="cls-29" d="M126.33,174.55C109,183.76,94.17,190.83,92.2,191.41c-2.79.82-15.58,1.85-19.92-1C64.37,185.29,58.64,175,57.06,171.9a5,5,0,0,1-.56-3.07c.27-1.81,1.49-4.53,5.78-7.38,4.89-3.28,26.67-15.71,42-25.59a55.4,55.4,0,0,0-.46,17.71,22,22,0,0,0,2.23,7.79A21.21,21.21,0,0,0,111,167C115.73,171.15,120.39,172.21,126.33,174.55Z"/><path class="cls-31" d="M111.23,129.63c-2.49,2-5,4-7.54,5.94l-3.83,2.88-3.92,2.8L92,144l-4,2.71-4,2.64L80,152q-8.12,5.11-16.61,9.63c-5.64,3-11.43,5.78-17.32,8.28l-.22-.52c5.84-2.57,11.53-5.47,17.14-8.5s11.1-6.31,16.5-9.7l4-2.58,4-2.61c2.65-1.78,5.3-3.55,7.94-5.35l7.85-5.47,7.82-5.53Z"/><polygon class="cls-31" points="133.36 111.35 127.47 116.78 127.4 116.69 132.96 110.96 133.36 111.35"/><path class="cls-32" d="M140.71,103c-2.35,2.68-4.86,5.41-7.55,8.14"/><path class="cls-31" d="M169.15,59.34a113.34,113.34,0,0,1-5.62,11.84q-3.12,5.76-6.71,11.26c-2.39,3.65-4.86,7.26-7.54,10.7-1.29,1.77-2.71,3.42-4.08,5.12-.68.86-1.42,1.68-2.14,2.48l-2.16,2.45-.42-.36c1.36-1.68,2.75-3.35,4.1-5.07s2.68-3.42,4-5.17L150.49,90l1.89-2.67c.63-.88,1.25-1.77,1.85-2.67s1.23-1.79,1.82-2.71q3.55-5.45,6.74-11.15a126.32,126.32,0,0,0,5.82-11.64Z"/><path class="cls-29" d="M194.48,83.17s-6.94,29-18,43,3-.17,3-.17,13.15-22.48,15.14-31.42S194.48,83.17,194.48,83.17Z"/><path class="cls-1" d="M178.35,110.63s-6.19-6.76-11.74-6-15.35,7.41-15.19,16.07a12.55,12.55,0,0,0,7,11.37,12.24,12.24,0,0,0,8.38,1.11c9.15-2,34.46-8.3,49.73-21,0,0,3.14-2.79,3.91-4.44,0,0,5.82,1.33,9.35-3.39a8.25,8.25,0,0,0,1.11-7,10.49,10.49,0,0,0-6.44-7.52,8.07,8.07,0,0,0-10,3.44s-2,3.32-1.11,5.23S196.29,111.62,178.35,110.63Z"/><path class="cls-33" d="M178.5,111.48s-6-6-10.91-5.33-13.09,6.28-12.93,14.06a10.51,10.51,0,0,0,6.07,9.78,15.15,15.15,0,0,0,8.94,1.12c8.2-1.77,26.26-6.25,43.35-18.14,0,0,6.71-5.15,7.41-6.6,0,0,5.36,1.31,8.52-2.93,1.47-2,1-4.77.56-6.7-.71-3-3.29-5-5.8-6a5.68,5.68,0,0,0-4.62-.14,7.33,7.33,0,0,0-4.47,4.84,4.17,4.17,0,0,0-.28,2.79C215.12,100,197.59,113.08,178.5,111.48Z"/><polygon class="cls-1" points="344.06 93.41 343.73 93.73 343.68 93.42 344.06 93.41"/><path class="cls-34" d="M288.5,118.9s1.46,3.09-.62,8.84c-2.19,6-2.8,7.91-2.8,7.91s-23.43-9.68-40-10-20.29-15.82-20.29-15.82,12.58-4.14,7.56-15.47-15.8-5.7-15.8-5.7-5,3.67-4.31,7.58-7.6,4.75-7.6,4.75-7-2-7.49-5.42,1.18-13.46,1.18-13.46,3.35-7.54,17-5.54,37.51,12.34,40.5,14.14C258.63,92.4,278.82,100.84,288.5,118.9Z"/><path class="cls-35" d="M287.76,121.81s-26.92-21.74-45.18-31c-7.64-3.86-13.15-6.14-35.87-9.72-8.77-1.29,2.46-3.69,2.46-3.69A110.73,110.73,0,0,1,240.63,85c16.16,5.49,37.17,18.62,44.57,30.27C288.72,120.83,287.76,121.81,287.76,121.81Z"/><path class="cls-36" d="M296.2,127a2.25,2.25,0,0,0-1-2c-1.16-.72-3-1.77-3.67-1.63s-3.78,9.09-4.79,12.26a1.28,1.28,0,0,0,.69,1.57l3.64,1.64a1.28,1.28,0,0,0,1.67-.56C293.79,136.23,296.05,131.41,296.2,127Z"/><path class="cls-36" d="M275.23,107s-9-9.15-10.46-8.19,1.58,4.47,1.58,4.47S275.31,109.58,275.23,107Z"/><path class="cls-36" d="M257.82,94.77c-1-.27-1.62,1.11-1.4,1.53a15.47,15.47,0,0,0,2.92,2.11S261,95.6,257.82,94.77Z"/><path class="cls-2" d="M257.92,105.8c-1,0-7.62,7.15-6.11,12.06,1.4,4.57,2-.34,2.1-1.06a.41.41,0,0,1,0-.16c.2-.71,1.91-6.5,4-7.43A1.78,1.78,0,0,0,257.92,105.8Z"/><path class="cls-2" d="M264.89,111.1s-5.63,6.57-4.51,9.87,1.93.91,1.93.91a16.21,16.21,0,0,1,1.79-5.37C265.65,113.63,269.61,109.62,264.89,111.1Z"/><path class="cls-2" d="M273.56,116.46s-3.58,3-4.64,6.05,2.2,2.23,2.2,2.23,2.77-6.28,3.23-6.84C274.66,117.53,276.09,115.8,273.56,116.46Z"/><path class="cls-1" d="M257,105.33c-1,0-7.63,7.15-6.12,12.06,1.4,4.57,2-.34,2.1-1.06a.41.41,0,0,1,0-.16c.2-.71,1.91-6.5,4-7.43A1.78,1.78,0,0,0,257,105.33Z"/><path class="cls-1" d="M263.94,110.63s-5.59,6.57-4.51,9.88,1.92.91,1.92.91a16.28,16.28,0,0,1,1.8-5.38C264.68,113.16,268.65,109.15,263.94,110.63Z"/><path class="cls-1" d="M272.6,116S269,119,268,122s2.07,2.83,2.07,2.83,2.9-6.87,3.35-7.44C273.7,117.07,275.13,115.33,272.6,116Z"/><path class="cls-11" d="M253.11,119.7c.2-.32-1.23-.24-1.87-1.55-.26-.51-.45-1-.45-1a3,3,0,0,0,.82,2.23C252.09,119.9,252.9,120,253.11,119.7Z"/><path class="cls-11" d="M261.75,122.59c.2-.31-1.24-.24-1.88-1.55-.26-.52-.44-1-.44-1a3,3,0,0,0,.81,2.24C260.73,122.79,261.54,122.93,261.75,122.59Z"/><path class="cls-11" d="M271.12,124.82c.2-.32-2.11.3-2.76-1-.25-.51-.56-1.19-.56-1.19a2.49,2.49,0,0,0,.68,2.17A3.12,3.12,0,0,0,271.12,124.82Z"/><path class="cls-1" d="M176.69,109.89s-15.65,2-14.38,10.51,5.77,10.91,5.77,10.91l1.36.4s-3.61-6-3.91-7.26-3.43-7.83,3.35-10.4,8.75-3.42,8.75-3.42Z"/><path class="cls-11" d="M216.09,96.88s-10.88,15.33-37.27,15.65l-2.95-1.29-5.65,2.64s-2.51,5.4,10.94,2.49,28.47-9.5,31.65-13.15S219.11,97.46,216.09,96.88Z"/><path class="cls-1" d="M214.33,98.27s3.41-3.31,6.74.73a6.31,6.31,0,0,1,.41,7.82l-1-.48s2.71-9.43-6.3-7.42Z"/><path class="cls-1" d="M218,109.94s.08-4-.48-5.45a5.52,5.52,0,0,0-4.73-3.1c-2.24,0-2,.62-2,.62l1.87.16a6,6,0,0,1,4.07,5.8c-.13,4.5,1.15,2.37,1.15,2.37"/><path class="cls-1" d="M214.12,112.87s1.12-5.48-2.79-7.9-4-1.21-4-1.21l-.46.38s5.39,2,5.78,4.16.74,4.92.74,4.92Z"/><path class="cls-1" d="M182.89,110.81l-.87.07s-8,3.07-7,9.64,3.3,8.89,3.3,8.89l1.84-.45-3.08-8.27s-1.43-6.7,5.85-9.32Z"/><path class="cls-1" d="M189.07,126.14a3.94,3.94,0,0,1-4.26-2.47c-1.08-3-1.75-5.74-.22-9.23s1.84-3.6,1.84-3.6l.51-.17s-1.85,6-1.68,8.12,1.17,5.88,3.6,6.93l.17.56"/><path class="cls-1" d="M200.09,121.47l-1.42.56a9.17,9.17,0,0,1-4.16-4.32c-1.15-2.89-.46-8.43-.46-8.43l1.12-.41s-.46,5.59.15,7.26S200.09,121.47,200.09,121.47Z"/><path class="cls-1" d="M200.24,107.28s-.09,4.38,1.64,6.85,2.24,3.44,3.29,4.18,1.85-.76,1.85-.76-4.62-3-5.24-6.32a16.49,16.49,0,0,1-.5-4.17Z"/><path class="cls-1" d="M204.6,105.15s3.73,11.35,6.14,9.76l.3-.21a46.63,46.63,0,0,1-3.74-5.85c-.64-1.62-2-4.16-2-4.16Z"/><path class="cls-11" d="M215.38,94.74s2.19-3.3,5-3,6.34,2,7.27,5.07c.75,2.58-.46,6.83-1.35,7.06-1.08.28-1.19-4.76-1.19-4.76a21.19,21.19,0,0,0-2.2-3.7c-1.23-1.27-3.84-1.33-5.09-1S215.53,95.41,215.38,94.74Z"/><path class="cls-11" d="M173,108.4a11.59,11.59,0,0,0-7-.89c-3.83.81-8.38,5.29-9.39,7.77s-1.52,5.47-.44,7.55,2.45-3.54,2.45-3.54,4.23-9.75,8.41-9.87C172.65,109.24,174.44,109.12,173,108.4Z"/><path class="cls-17" d="M159.12,65.11s-3,2.66-6.54,1.27c-1-.39-.55.47-.55.47a3.9,3.9,0,0,0,3.53,1.05,4.76,4.76,0,0,0,3.1-1.67Z"/><path class="cls-17" d="M158.77,61.46a5.25,5.25,0,0,1-3.67.56,4.22,4.22,0,0,1-2.47-.94s-1.4,1.37,1.8,1.8,4.83.09,4.64-1S158.77,61.46,158.77,61.46Z"/><path class="cls-17" d="M158,56.79s-.69,1.63-1.68,1.18c-3.76-1.73-3.5-.51-3.5-.51s4.66,2.55,5.08,1.06S158,56.79,158,56.79Z"/><path class="cls-17" d="M154.38,52.45s.81,1.57,1.75,1c3.62-2,.87.25.87.25s-1.86,1.89-2.4.43S154.38,52.45,154.38,52.45Z"/></g></g></g></g></svg>