<?xml version="1.0" standalone="no"?><!DOCTYPE svg PUBLIC "-//W3C//DTD SVG 1.1//EN" "http://www.w3.org/Graphics/SVG/1.1/DTD/svg11.dtd"><svg t="1649680951410" class="icon" viewBox="0 0 1024 1024" version="1.1" xmlns="http://www.w3.org/2000/svg" p-id="99416" xmlns:xlink="http://www.w3.org/1999/xlink" width="200" height="200"><defs><style type="text/css">@font-face { font-family: "feedback-iconfont"; src: url("//at.alicdn.com/t/font_1031158_u69w8yhxdu.woff2?t=1630033759944") format("woff2"), url("//at.alicdn.com/t/font_1031158_u69w8yhxdu.woff?t=1630033759944") format("woff"), url("//at.alicdn.com/t/font_1031158_u69w8yhxdu.ttf?t=1630033759944") format("truetype"); }
</style></defs><path d="M146.6 771.8c-18.8-62.6 49.9-93.6 40.3-178.6-8.4-74.8-63.2-84.2-66.3-148.1-4.9-100.5 127.4-178.9 143-188.2 89.6-53.1 237.1-84.8 312.9-17.8 56.3 49.8 24.7 111.3 86.3 158.1 66.6 50.7 133 1.1 188.8 48.9 61.4 52.6 42.9 165.6 37 201.9C870 761.8 788.4 905.2 685.3 913.4c-78.7 6.3-96.2-72.2-203.7-75.1-81.8-2.2-98.7 42.5-178.7 33.3-57.4-6.8-138.3-40.1-156.3-99.8z" fill="#5653DA" p-id="99417"></path><path d="M158.9 747c-18.8-62.6 49.9-93.6 40.3-178.6-8.4-74.8-63.2-84.2-66.3-148.1-4.9-100.5 127.4-178.9 143-188.2 89.6-53.1 237.1-84.8 312.9-17.8 56.3 49.8 24.7 111.3 86.3 158.1 66.6 50.7 133 1.1 188.8 48.9 61.4 52.6 42.9 165.6 37 201.9C882.3 737 800.7 880.3 697.6 888.5c-78.7 6.3-96.2-72.2-203.7-75.1-81.8-2.2-98.7 42.5-178.7 33.3-57.3-6.6-138.3-39.9-156.3-99.7z" fill="#725CDA" p-id="99418"></path><path d="M486.9 731.7c-31.5-9-64.6 9.4-73.6 40.9s9.4 64.6 40.9 73.6 64.6-9.4 73.6-40.9-9.4-64.6-40.9-73.6z m163.7 5.4c-31.5-9-64.6 9.4-73.6 40.9s9.4 64.6 40.9 73.6 64.6-9.4 73.6-40.9-9.4-64.6-40.9-73.6z m-305.5-87.3c-31.5-9-64.6 9.4-73.6 40.9s9.4 64.6 40.9 73.6 64.6-9.4 73.6-40.9c9-31.4-9.4-64.6-40.9-73.6z m0 0" fill="#313145" p-id="99419"></path><path d="M363.9 497.2c113.9-32 271 12.9 350.9 100.2 79.9 87.3 52.2 184.2-61.6 215.8-113.9 32-271-12.9-350.9-100.2-79.9-87.3-52.4-183.8 61.6-215.8z m0 0" fill="#FCA360" p-id="99420"></path><path d="M330.2 705.5c-77.1-84.5-54.1-177.6 50.3-212.3-5.5 1-11 2.5-16.6 4-113.9 32-141.6 128.9-61.6 215.8 79.9 87.3 236.9 132.2 350.9 100.2 3.9-1 7.9-2.4 11.3-3.5-112.2 23.8-258.4-21.1-334.3-104.2z m0 0" fill="#FD595E" p-id="99421"></path><path d="M353.7 379.2c139.5-36.6 332.8 18.6 432 123.4 99.2 104.7 66.3 219.8-73.2 256.3-139.5 36.6-332.8-18.6-432-123.4-99.2-104.7-66.5-219.3 73.2-256.3z m0 0" fill="#313145" p-id="99422"></path><path d="M737.4 745.9c-139.5 36.6-332.8-18.6-432-123.4-80.1-84.8-74.3-175.6 3.9-227.1C208.5 443 193.2 543.5 280.4 636c99.2 104.7 292.5 159.9 432 123.4 26.9-7.3 49.8-17.3 68.8-29.4-13.1 6-27.5 11.2-43.8 15.9z m0 0" fill="#2E2E3D" p-id="99423"></path><path d="M612.3 292.5c105.5 30.1 166.5 140 136.4 245.5-30.1 105.5-129.1 128.4-234.6 98.2-105.5-30.1-177.5-101.8-147.3-207.3 30.2-105.5 140-166.5 245.5-136.4z m0 0" fill="#FFFFFF" p-id="99424"></path><path d="M366.9 428.9c-30 105 41.5 176.5 145.9 206.9l1.4 0.4 98.1-343.7C506.8 262.4 397 323.4 366.9 428.9z m0 0" fill="#FFFFFF" p-id="99425"></path><path d="M514.2 636.2c43 12.3 84.8 15.9 121.5 8.4l36.7-128.4a118.9 118.9 0 0 0-81.9-147.3 118.9 118.9 0 0 0-147.3 81.9l-36.7 128.4c27.3 25.8 64.7 44.7 107.7 57z m0 0" fill="#FD595E" p-id="99426"></path><path d="M568.7 445.2c31.5 9 49.9 42.1 40.9 73.6-9 31.5-42.1 49.9-73.6 40.9-31.5-9-49.9-42.1-40.9-73.6 9-31.4 42.1-49.9 73.6-40.9z m0 0" fill="#FFFFFF" p-id="99427"></path><path d="M568.7 445.2c-31.5-9-64.6 9.4-73.6 40.9s9.4 64.6 40.9 73.6l32.7-114.5z m0 0" fill="#F2F2F2" p-id="99428"></path><path d="M560.5 473.9c15.8 4.5 25 21.1 20.5 36.8-4.5 15.8-21.1 25-36.8 20.5-15.8-4.5-25-21.1-20.5-36.8 4.5-15.8 21.1-25 36.8-20.5z m-52-139.4a5.5 5.5 0 0 1-1.7-10.7c14.6-4.8 29.9-7.5 45.4-8.1 3-0.1 5.5 2.2 5.7 5.3 0.1 3-2.2 5.5-5.3 5.7-14.5 0.5-28.7 3.1-42.4 7.6-0.6 0.1-1.2 0.2-1.7 0.2z m-99.1 94.6c-0.6 0-1.3-0.1-1.9-0.4a5.52 5.52 0 0 1-3.2-7c13.8-36.4 40.3-66.8 74.4-85.7 2.6-1.5 6-0.5 7.4 2.1s0.5 6-2.1 7.4c-31.9 17.6-56.6 46-69.5 80-0.8 2.3-2.9 3.6-5.1 3.6z" fill="#313145" p-id="99429"></path><path d="M830.3 458.3c-4 7.7-13.6 10.6-21.2 6.6-7.7-4-10.6-13.6-6.6-21.2a15.7 15.7 0 1 1 27.8 14.6z m-20.2-10.7c-1.8 3.5-0.5 7.8 3 9.7 3.5 1.8 7.8 0.5 9.7-3 1.8-3.5 0.5-7.8-3-9.7-3.5-1.8-7.9-0.5-9.7 3zM268.5 782.6c5.7 6.5 5.1 16.4-1.4 22.2-6.5 5.7-16.4 5.1-22.2-1.4-5.7-6.5-5.1-16.4 1.4-22.2a15.7 15.7 0 0 1 22.2 1.4z m-17.2 15.1c2.6 3 7.1 3.3 10.1 0.7 3-2.6 3.3-7.1 0.7-10.1-2.6-3-7.1-3.3-10.1-0.7-3 2.6-3.3 7.1-0.7 10.1zM385.2 252.9c-6.1 11.6-20.5 16-32.1 9.9-11.6-6.1-16-20.5-9.9-32.1 6.1-11.6 20.5-16 32.1-9.9 11.5 6.2 16 20.6 9.9 32.1z m-34.4-18.1c-3.9 7.4-1.1 16.6 6.3 20.5 7.4 3.9 16.6 1.1 20.5-6.3s1.1-16.6-6.3-20.5c-7.4-4-16.6-1.1-20.5 6.3zM210.9 387.3c1.4 1.6 1.2 3.9-0.3 5.3l-17.8 15.6a3.78 3.78 0 0 1-5.3-0.3c-1.4-1.6-1.2-3.9 0.3-5.3l17.8-15.6c1.6-1.4 3.9-1.2 5.3 0.3zM256.1 347.7c1.4 1.6 1.2 3.9-0.3 5.3L238 368.6a3.78 3.78 0 0 1-5.3-0.3c-1.4-1.6-1.2-3.9 0.3-5.3l17.8-15.6c1.6-1.4 3.9-1.3 5.3 0.3z" fill="#FFFFFF" p-id="99430"></path><path d="M196.9 343.8l15.6 17.8c1.4 1.6 1.2 3.9-0.3 5.3a3.78 3.78 0 0 1-5.3-0.3l-15.6-17.8c-1.4-1.6-1.2-3.9 0.3-5.3s4-1.2 5.3 0.3zM236.6 389l15.6 17.8c1.4 1.6 1.2 3.9-0.3 5.3a3.78 3.78 0 0 1-5.3-0.3L231 393.9c-1.4-1.6-1.2-3.9 0.3-5.3 1.6-1.3 3.9-1.1 5.3 0.4z" fill="#FFFFFF" p-id="99431"></path><path d="M875.9 527.3c1.4 1.6 1.2 3.9-0.3 5.3l-17.8 15.6a3.78 3.78 0 0 1-5.3-0.3c-1.4-1.6-1.2-3.9 0.3-5.3l17.8-15.6c1.6-1.4 3.9-1.2 5.3 0.3zM921.1 487.7c1.4 1.6 1.2 3.9-0.3 5.3L903 508.6a3.78 3.78 0 0 1-5.3-0.3c-1.4-1.6-1.2-3.9 0.3-5.3l17.8-15.6c1.6-1.4 3.9-1.3 5.3 0.3z" fill="#FFFFFF" p-id="99432"></path><path d="M861.9 483.8l15.6 17.8c1.4 1.6 1.2 3.9-0.3 5.3a3.78 3.78 0 0 1-5.3-0.3l-15.6-17.8c-1.4-1.6-1.2-3.9 0.3-5.3 1.6-1.4 4-1.2 5.3 0.3zM901.6 529l15.6 17.8c1.4 1.6 1.2 3.9-0.3 5.3a3.78 3.78 0 0 1-5.3-0.3L896 533.9c-1.4-1.6-1.2-3.9 0.3-5.3 1.6-1.3 3.9-1.1 5.3 0.4z" fill="#FFFFFF" p-id="99433"></path></svg>