<?xml version="1.0" standalone="no"?><!DOCTYPE svg PUBLIC "-//W3C//DTD SVG 1.1//EN" "http://www.w3.org/Graphics/SVG/1.1/DTD/svg11.dtd"><svg t="1649680518972" class="icon" viewBox="0 0 1024 1024" version="1.1" xmlns="http://www.w3.org/2000/svg" p-id="965" xmlns:xlink="http://www.w3.org/1999/xlink" width="200" height="200"><defs><style type="text/css">@font-face { font-family: "feedback-iconfont"; src: url("//at.alicdn.com/t/font_1031158_u69w8yhxdu.woff2?t=1630033759944") format("woff2"), url("//at.alicdn.com/t/font_1031158_u69w8yhxdu.woff?t=1630033759944") format("woff"), url("//at.alicdn.com/t/font_1031158_u69w8yhxdu.ttf?t=1630033759944") format("truetype"); }
</style></defs><path d="M819.04 503.84l-94.56-89.12a27.84 27.84 0 0 0-2.88-1.76 210.08 210.08 0 0 0-419.2 0 26.08 26.08 0 0 0-2.72 1.76l-94.56 87.84a23.68 23.68 0 0 0-7.68 17.6 23.84 23.84 0 0 0 7.68 17.6l94.56 87.84a23.84 23.84 0 0 0 16 6.4h392a23.68 23.68 0 0 0 16-6.24l94.72-86.72a24.48 24.48 0 0 0 7.68-17.6 22.88 22.88 0 0 0-7.04-17.6z" fill="#121244" p-id="966"></path><path d="M512 800a24 24 0 0 1-24-24V704a24 24 0 0 1 48 0v72A24 24 0 0 1 512 800z" fill="#2C21DD" p-id="967"></path><path d="M792 792a23.84 23.84 0 0 1-17.6-8l-73.92-80A24 24 0 0 1 736 672l73.76 80a24 24 0 0 1-17.6 40.32zM248 792a24 24 0 0 1-17.6-40l73.6-80a24 24 0 0 1 35.36 32l-73.76 80a23.84 23.84 0 0 1-17.6 8z" fill="#121244" p-id="968"></path><path d="M512 336m-48 0a48 48 0 1 0 96 0 48 48 0 1 0-96 0Z" fill="#DCDCDC" p-id="969"></path><path d="M400 520m-24 0a24 24 0 1 0 48 0 24 24 0 1 0-48 0Z" fill="#DCDCDC" p-id="970"></path><path d="M632 520m-24 0a24 24 0 1 0 48 0 24 24 0 1 0-48 0Z" fill="#DCDCDC" p-id="971"></path><path d="M320 544h-64a24 24 0 0 1 0-48h64a24 24 0 0 1 0 48zM784 544h-72a24 24 0 0 1 0-48H784a24 24 0 0 1 0 48z" fill="#DCDCDC" p-id="972"></path></svg>