<?xml version="1.0" standalone="no"?><!DOCTYPE svg PUBLIC "-//W3C//DTD SVG 1.1//EN" "http://www.w3.org/Graphics/SVG/1.1/DTD/svg11.dtd"><svg t="1649684708230" class="icon" viewBox="0 0 1024 1024" version="1.1" xmlns="http://www.w3.org/2000/svg" p-id="1783" xmlns:xlink="http://www.w3.org/1999/xlink" width="200" height="200"><defs><style type="text/css">@font-face { font-family: "feedback-iconfont"; src: url("//at.alicdn.com/t/font_1031158_u69w8yhxdu.woff2?t=1630033759944") format("woff2"), url("//at.alicdn.com/t/font_1031158_u69w8yhxdu.woff?t=1630033759944") format("woff"), url("//at.alicdn.com/t/font_1031158_u69w8yhxdu.ttf?t=1630033759944") format("truetype"); }
</style></defs><path d="M504.82176 564.62336m-422.61504 0a422.61504 422.61504 0 1 0 845.23008 0 422.61504 422.61504 0 1 0-845.23008 0Z" fill="#ECF3FE" p-id="1784"></path><path d="M504.82176 995.97312c-237.8496 0-431.33952-193.48992-431.33952-431.33952s193.48992-431.33952 431.33952-431.33952 431.33952 193.48992 431.33952 431.33952-193.48992 431.33952-431.33952 431.33952z m0-845.23008c-228.21376 0-413.88544 185.67168-413.88544 413.88544s185.67168 413.88544 413.88544 413.88544 413.88544-185.67168 413.88544-413.88544-185.67168-413.88544-413.88544-413.88544z" fill="#6C0000" p-id="1785"></path><path d="M504.82176 974.65856c137.76384 0 259.75808-67.28192 335.104-170.71616l-195.54816-465.06496H365.2608L169.71264 803.9424c75.35104 103.43424 197.34528 170.71616 335.10912 170.71616z" fill="#FFEC43" p-id="1786"></path><path d="M504.82176 983.39328c-134.73792 0-262.656-65.15712-342.17472-174.30016l-2.89792-3.9936 1.92-4.53632 197.79584-470.41536h290.7136l199.71584 474.95168-2.89792 3.9936c-79.51872 109.13792-207.4368 174.30016-342.17472 174.30016z m-325.13024-180.63872c76.416 102.272 197.5808 163.18464 325.13024 163.18464s248.71424-60.90752 325.13024-163.18464l-191.37024-455.14752h-267.52l-191.37024 455.14752z" fill="#6B0204" p-id="1787"></path><path d="M504.82176 974.65856c98.64192 0 189.18912-34.52416 260.34688-92.07296L615.79264 344.1152H393.85088L244.47488 882.5856c71.15776 57.5488 161.70496 92.07296 260.34688 92.07296z" fill="#FFEC43" p-id="1788"></path><path d="M504.82176 983.39328c-96.4608 0-190.8736-33.38752-265.84064-94.01344l-4.46464-3.6096L387.21024 335.39072h235.22304l152.69376 550.3744-4.46464 3.6096c-74.95168 60.62592-169.36448 94.01856-265.84064 94.01856z m-250.38848-104.0384c71.1424 55.86432 159.82592 86.5792 250.38848 86.5792 90.5728 0 179.26144-30.72 250.38848-86.5792L609.15712 352.84992H400.4864L254.43328 879.35488z" fill="#6B0204" p-id="1789"></path><path d="M507.62752 344.1152H432.44032L331.01824 933.38624c0.3584 1.19808 0.73216 2.36544 1.09056 3.55328a412.72832 412.72832 0 0 0 172.71296 37.72416 412.672 412.672 0 0 0 172.71296-37.72416c0.3584-1.18784 0.73216-2.3552 1.09056-3.55328L577.2032 344.1152H507.62752z" fill="#FFEC43" p-id="1790"></path><path d="M504.82176 983.39328c-61.3632 0-120.69376-12.94848-176.34816-38.52288l-3.55328-1.61792-2.85696-9.33888 0.34304-2.00192L425.07776 335.39072h159.488l103.0144 598.51776-2.57536 8.3712-3.84 2.5856c-55.64928 25.5744-114.97984 38.528-176.34304 38.528z m-164.5312-52.34176c52.03968 23.1424 107.36128 34.88256 164.5312 34.88256s112.49152-11.74016 164.5312-34.88256l-99.51232-578.2016H439.80288l-99.51232 578.2016z" fill="#6B0204" p-id="1791"></path><path d="M504.82176 987.2384c101.49376 0 194.60608-35.80928 267.4688-95.44192-59.4688-83.59424-157.06112-138.17856-267.4688-138.17856-110.40256 0-207.99488 54.58432-267.4688 138.17856 72.8576 59.63264 165.97504 95.44192 267.4688 95.44192z" fill="#FFC700" p-id="1792"></path><path d="M504.82176 994.51904c-98.97472 0-195.59424-34.4832-272.06656-97.1008l-5.2736-4.30592 3.95264-5.54496c62.91456-88.44288 165.11488-141.2352 273.38752-141.2352s210.47296 52.79232 273.38752 141.2352l3.95264 5.54496-5.2736 4.30592c-76.47232 62.6176-173.09184 97.1008-272.06656 97.1008zM247.32672 890.4704c73.00608 57.76896 164.17792 89.49248 257.49504 89.49248s184.48896-31.72864 257.49504-89.49248c-60.4672-81.26464-156.20608-129.58208-257.49504-129.58208s-197.02784 48.31744-257.49504 129.58208z" fill="#6C0000" p-id="1793"></path><path d="M719.3856 249.81504c-1.58208-117.18144-97.00864-211.69664-214.56384-211.69664-117.5552 0-212.98176 94.52032-214.56384 211.69664h429.12768z" fill="#00DFD5" p-id="1794"></path><path d="M728.24832 258.54976H281.3952l0.128-8.84224c1.64864-121.49248 101.82144-220.32384 223.29856-220.32384 121.49248 0 221.66016 98.83136 223.29856 220.32384l0.128 8.84224z m-428.9536-17.4592h411.05408c-6.11328-107.904-96.50176-194.25792-205.52704-194.25792-109.00992 0.00512-199.41376 86.35904-205.52704 194.25792z" fill="#6C0000" p-id="1795"></path><path d="M290.18112 248.71424h429.27616v35.28192H290.18112z" fill="#FFBD00" p-id="1796"></path><path d="M728.18688 292.72064H281.45664v-52.736h446.73536v52.736z m-429.27616-17.45408h411.82208v-17.82272H298.91072v17.82272z" fill="#6C0000" p-id="1797"></path><path d="M742.98368 283.904H266.65984c-26.79296 0-48.512 21.71904-48.512 48.512s21.71904 48.512 48.512 48.512h43.5968c-0.00512 0.15872-0.04608 0.30208-0.04608 0.4608v16.5376a18.7392 18.7392 0 1 0 37.48864 0v-16.5376c0-0.15872-0.04096-0.30208-0.04608-0.4608h314.33216c-0.00512 0.15872-0.04608 0.30208-0.04608 0.4608v16.5376a18.7392 18.7392 0 1 0 37.48864 0v-16.5376c0-0.15872-0.04096-0.30208-0.04608-0.4608h43.5968c26.79296 0 48.512-21.71904 48.512-48.512s-21.71392-48.512-48.50688-48.512z" fill="#5EB1BE" p-id="1798"></path><path d="M680.68352 425.40032a27.47904 27.47904 0 0 1-27.46368-27.46368v-8.27392H356.39296l0.04096 8.27392a27.4944 27.4944 0 0 1-27.47904 27.46368 27.4944 27.4944 0 0 1-27.47904-27.46368v-8.27392H266.6496c-31.56992 0-57.2416-25.67168-57.2416-57.2416s25.67168-57.2416 57.2416-57.2416h476.32896c31.56992 0 57.2416 25.67168 57.2416 57.2416s-25.67168 57.2416-57.2416 57.2416h-34.8416l0.01536 8.27392a27.47904 27.47904 0 0 1-27.4688 27.46368zM338.0992 371.8656l9.55392 0.34304H670.72l-0.04096 25.728c0 5.51424 4.49024 10.00448 10.00448 10.00448 5.5296 0 10.01984-4.49024 10.01984-10.00448v-25.27232l8.68352-0.45568h43.5968c21.93408 0 39.78752-17.85344 39.78752-39.78752s-17.85344-39.78752-39.78752-39.78752H266.65472c-21.93408 0-39.78752 17.85344-39.78752 39.78752s17.85344 39.78752 39.78752 39.78752H318.976l-0.04096 25.728a10.01984 10.01984 0 0 0 20.03968 0V381.3888l-0.87552-9.5232z" fill="#6C0000" p-id="1799"></path><path d="M407.1424 333.60896m-19.47136 0a19.47136 19.47136 0 1 0 38.94272 0 19.47136 19.47136 0 1 0-38.94272 0Z" fill="#FFFFFF" p-id="1800"></path><path d="M407.13728 360.36608a26.7776 26.7776 0 0 1-26.752-26.752 26.7776 26.7776 0 0 1 26.752-26.752 26.7776 26.7776 0 0 1 26.752 26.752 26.7776 26.7776 0 0 1-26.752 26.752z m0-38.94784a12.2112 12.2112 0 0 0-12.19584 12.19584c0 6.72256 5.47328 12.19584 12.19584 12.19584s12.19584-5.47328 12.19584-12.19584a12.2112 12.2112 0 0 0-12.19584-12.19584z" fill="#6C0000" p-id="1801"></path><path d="M504.82176 333.60896m-19.47136 0a19.47136 19.47136 0 1 0 38.94272 0 19.47136 19.47136 0 1 0-38.94272 0Z" fill="#FFFFFF" p-id="1802"></path><path d="M504.82176 360.36608a26.7776 26.7776 0 0 1-26.752-26.752 26.7776 26.7776 0 0 1 26.752-26.752 26.7776 26.7776 0 0 1 26.752 26.752 26.7776 26.7776 0 0 1-26.752 26.752z m0-38.94784a12.2112 12.2112 0 0 0-12.19584 12.19584c0 6.72256 5.47328 12.19584 12.19584 12.19584s12.19584-5.47328 12.19584-12.19584a12.2112 12.2112 0 0 0-12.19584-12.19584z" fill="#6C0000" p-id="1803"></path><path d="M602.50112 333.60896m-19.47136 0a19.47136 19.47136 0 1 0 38.94272 0 19.47136 19.47136 0 1 0-38.94272 0Z" fill="#FFFFFF" p-id="1804"></path><path d="M602.50624 360.36608a26.7776 26.7776 0 0 1-26.752-26.752 26.7776 26.7776 0 0 1 26.752-26.752 26.7776 26.7776 0 0 1 26.752 26.752 26.7776 26.7776 0 0 1-26.752 26.752z m0-38.94784a12.2112 12.2112 0 0 0-12.19584 12.19584 12.2112 12.2112 0 0 0 12.19584 12.19584 12.2112 12.2112 0 0 0 12.19584-12.19584 12.2112 12.2112 0 0 0-12.19584-12.19584z" fill="#6C0000" p-id="1805"></path></svg>