<?xml version="1.0" standalone="no"?><!DOCTYPE svg PUBLIC "-//W3C//DTD SVG 1.1//EN" "http://www.w3.org/Graphics/SVG/1.1/DTD/svg11.dtd"><svg t="1649680532640" class="icon" viewBox="0 0 1024 1024" version="1.1" xmlns="http://www.w3.org/2000/svg" p-id="1108" xmlns:xlink="http://www.w3.org/1999/xlink" width="200" height="200"><defs><style type="text/css">@font-face { font-family: "feedback-iconfont"; src: url("//at.alicdn.com/t/font_1031158_u69w8yhxdu.woff2?t=1630033759944") format("woff2"), url("//at.alicdn.com/t/font_1031158_u69w8yhxdu.woff?t=1630033759944") format("woff"), url("//at.alicdn.com/t/font_1031158_u69w8yhxdu.ttf?t=1630033759944") format("truetype"); }
</style></defs><path d="M512 680a24 24 0 0 0-24 24v72a24 24 0 0 0 48 0V704a24 24 0 0 0-24-24zM809.6 752L736 672a24 24 0 0 0-35.36 32l73.92 80a24 24 0 0 0 35.2-32zM304 672l-73.6 80a24 24 0 0 0 35.2 32l73.92-80A24 24 0 0 0 304 672z" fill="#121244" p-id="1109"></path><path d="M512 336m-48 0a48 48 0 1 0 96 0 48 48 0 1 0-96 0Z" fill="#E50001" p-id="1110"></path><path d="M400 520m-24 0a24 24 0 1 0 48 0 24 24 0 1 0-48 0Z" fill="#121244" p-id="1111"></path><path d="M632 520m-24 0a24 24 0 1 0 48 0 24 24 0 1 0-48 0Z" fill="#121244" p-id="1112"></path><path d="M819.04 503.84l-94.56-89.12a27.84 27.84 0 0 0-2.88-1.76 210.08 210.08 0 0 0-419.2 0 26.08 26.08 0 0 0-2.72 1.76l-94.56 87.84a23.68 23.68 0 0 0-7.68 17.6 23.84 23.84 0 0 0 7.68 17.6l94.56 87.84a23.68 23.68 0 0 0 16 6.4 24 24 0 0 0 16-41.6L282.4 544H336a24 24 0 0 0 0-48h-53.28l42.72-39.68h373.12L740.8 496h-44.8a24 24 0 0 0 0 48h46.24l-43.52 40h-304a24 24 0 0 0 0 48h313.28a23.68 23.68 0 0 0 16-6.24l94.72-86.88a23.84 23.84 0 0 0 7.68-17.44 22.88 22.88 0 0 0-7.36-17.6zM512 264a162.56 162.56 0 0 1 160 138.24H352a162.56 162.56 0 0 1 160-138.24z" fill="#121244" p-id="1113"></path></svg>