<?xml version="1.0" encoding="iso-8859-1"?>
<!-- Generator: Adobe Illustrator 22.0.0, SVG Export Plug-In . SVG Version: 6.00 Build 0)  -->
<svg version="1.1" xmlns="http://www.w3.org/2000/svg" xmlns:xlink="http://www.w3.org/1999/xlink" x="0px" y="0px"
	 viewBox="0 0 595.276 841.89" style="enable-background:new 0 0 595.276 841.89;" xml:space="preserve">
<g id="&#x56FE;&#x5C42;_1" style="display:none;">
	<path style="display:inline;fill:#FDF2DD;" d="M158,331.64c-12.454,22.577-26.811,35.226-45,53.5
		c-14.754,14.822-28.791,37.126-27.5,58c0.904,14.62,13.26,23.665,24.75,32.75c11.49,9.085,24.626,14.312,34.481,25.149
		c21.593,23.745,27.019,58.601,49.625,81.585c15.447,15.706,40.953,15.927,62.909,14.132c21.956-1.795,52.265-8.459,74.236-6.866
		c16.749,1.214,24.517,7.846,41.18,9.935c16.663,2.089,34.822,0.751,48.204-9.394c21.947-16.639,28.116-43.291,42.149-70.111
		c3.696-7.065,15.738-15.904,21.717-21.18c18.958-16.73,26.383-36.495,25.597-61.767c-0.152-4.9-2.614-11.397-4.347-15.983
		c-2.487-6.581-5.149-11.928-9.75-17.25c-7.588-8.775-17.412-15.225-25-24c-7.727-8.937-12.016-13.786-17.5-24.25
		c-7.735-14.758-8.76-38.103-13.75-54c-4.99-15.897-16.321-30.539-30.912-38.583c-22.821-12.582-51.041,1.66-77.088,0.833
		c-47.25-1.5-58.305-23.325-88.507-21.586c-11.584,0.667-24.146,8.351-34.166,14.502c-8.023,4.925-19.318,18.766-24.577,26.334
		C174.691,297.865,166.487,316.253,158,331.64z"/>
	<path style="display:inline;fill:#F6F07D;" d="M174.432,423.139c9.174,29.489,33.313,54.055,62.854,63.061
		c15.324,4.672,31.715,4.354,47.34,0.815c2.357-0.534,4.7-1.162,6.943-2.064c2.456-0.988,4.922-1.37,7.227-2.672
		c4.004-2.263,7.202-4.126,11.206-6.389c2.941-1.662,6.03-4.069,8.375-6.5c1.98-2.053,7.075-6.28,8.5-8.75
		c8.711-15.1,13.946-25.959,18.039-42.904c6.391-26.456,6.789-47.563-3.289-72.846c-3.274-8.212-14.027-26.284-20.875-31.875
		c-3.393-2.771-6.079-4.427-9.434-7.244c-2.718-2.282-8.691-4.799-11.566-6.881c-5.218-3.78-11.618-5.616-17.994-6.543
		c-8.47-1.232-13.536-1.932-22.093-1.767c-47.684,0.923-82.971,46.034-88.699,90.661
		C169.167,395.244,170.233,409.642,174.432,423.139z"/>
	<path style="display:inline;fill:#060102;" d="M265.258,378.148c-0.03,3.48,0.222,8.514,2.517,11.131
		c0.668,0.761,1.59,1.419,2.6,1.35c1.317-0.09,2.932-1.297,3.5-2.489c5-10.5,7.25-22.875,5.62-34.25
		c-0.305-2.127-1.039-4.044-2.495-5.625c-0.331-0.36-1.755-1.077-2.241-1.125c-0.599-0.06-1.172,0.304-1.587,0.74
		C266.25,355.14,265.34,368.631,265.258,378.148z"/>
	<path style="display:inline;fill:#FFFFFF;" d="M273.026,385.507c0.807,1.216,1.951-0.251,2.269-1.06
		c0.565-1.437,1.287-2.945,1.945-6.088c0.863-4.127,0.861-11.344-0.194-11.609c-0.27-0.068-1.296,0.973-1.99,3.112
		c-0.53,1.633-0.92,3.345-1.231,5.032C273.181,378.389,272.375,383.89,273.026,385.507z"/>
	<path style="display:inline;fill:#060102;" d="M309.866,383.361c-0.03,3.48,0.222,8.514,2.517,11.131
		c0.668,0.761,1.59,1.419,2.6,1.35c1.317-0.09,2.932-1.297,3.5-2.489c5-10.5,7.25-22.875,5.62-34.25
		c-0.305-2.127-1.039-4.044-2.495-5.625c-0.331-0.36-1.755-1.077-2.241-1.125c-0.599-0.06-1.172,0.304-1.587,0.74
		C310.857,360.352,309.947,373.844,309.866,383.361z"/>
	<path style="display:inline;fill:#FFFFFF;" d="M317.634,390.719c0.807,1.216,1.951-0.251,2.269-1.06
		c0.565-1.437,1.287-2.945,1.945-6.088c0.863-4.127,0.861-11.344-0.194-11.609c-0.27-0.068-1.296,0.973-1.99,3.112
		c-0.53,1.633-0.92,3.345-1.231,5.032C317.788,383.602,316.982,389.102,317.634,390.719z"/>
	<path style="display:inline;fill:none;stroke:#0E0E07;stroke-miterlimit:10;" d="M288.995,395.81
		c0.039,1.409-0.239,2.708,0.338,4.246c0.5,1.333,1.085,1.689,1.708,2.167c0.441,0.337,2.083,0.783,3.079,0.765
		c1.28-0.022,2.52-0.595,3.307-1.605c0.787-1.01,1.645-2.93,1.979-4.166"/>
</g>
<g id="&#x56FE;&#x5C42;_2" style="display:none;">
	<g style="display:inline;">
		<circle style="fill:#628CC9;" cx="308.447" cy="406.955" r="255.13"/>
		<circle style="fill:#6691CC;" cx="308.447" cy="406.955" r="246.79"/>
		<circle style="fill:#6997CF;" cx="308.447" cy="406.955" r="238.451"/>
		<circle style="fill:#6C9CD2;" cx="308.447" cy="406.955" r="230.111"/>
		<circle style="fill:#70A1D5;" cx="308.447" cy="406.955" r="221.771"/>
		<circle style="fill:#74A6D8;" cx="308.447" cy="406.955" r="213.431"/>
		<circle style="fill:#77ABDB;" cx="308.447" cy="406.955" r="205.092"/>
		<circle style="fill:#7BB0DE;" cx="308.447" cy="406.955" r="196.752"/>
		<circle style="fill:#7FB5E1;" cx="308.447" cy="406.955" r="188.412"/>
		<circle style="fill:#83BBE4;" cx="308.447" cy="406.955" r="180.072"/>
		<circle style="fill:#87C0E7;" cx="308.447" cy="406.955" r="171.733"/>
		<circle style="fill:#8BC5EA;" cx="308.447" cy="406.955" r="163.393"/>
	</g>
	<path style="display:inline;fill:none;stroke:#FFFFFF;stroke-width:13;stroke-miterlimit:10;" d="M479.373,521.694
		c-0.474-1.389-2.368,1.158-1.035,1.774c1.333,0.616,2.734-0.65,3.646-1.801c33.436-42.178,45.863-100.227,32.627-152.397
		s-51.836-97.273-101.336-118.409c-0.953-0.407-1.894-1.373-2.929-1.434c-1.035-0.062-2.033,1.289-1.3,2.021
		c0.214,0.213,0.513,0.314,0.805,0.393c1.336,0.36,2.759,0.393,4.11,0.096"/>
	<path style="display:inline;fill:none;stroke:#FFFFFF;stroke-width:13;stroke-miterlimit:10;" d="M451.064,544.594
		c-3.475-0.949-7.429,2.079-7.419,5.681c0.002,0.572,0.096,1.167,0.426,1.634c0.348,0.494,0.913,0.785,1.473,1.012
		c1.818,0.736,3.909,0.974,5.737,0.264s3.293-2.503,3.256-4.464c-0.037-1.961-1.865-3.813-3.809-3.559"/>
</g>
<g id="&#x56FE;&#x5C42;_3" style="display:none;">
	<path style="display:inline;fill:#F6DF6E;" d="M341.525,276.048c-21.656-16.834-55.551-20.712-78.196-5.235
		c-24.855,16.987-30.453,46.132-38.763,75.068c-11.485-2.352-24.228-0.557-35.492,2.691c-11.264,3.249-16.789,8.316-14.94,19.892
		c0.829,5.188,24.583,21.366,27.112,25.971c-0.821,23.776-3.683,50.596,22.603,75.02c14.164,13.16,29.762,23.303,48.955,25.638
		c15.704,1.91,39.228,2.665,48.812-0.291c22.509-10.939,36.018-23.027,42.763-35.673c2.717-5.094,7.703-20.178,10.475-27.046
		c1.063-2.633,3.562-8.948,4.994-12.136c9.243-0.719,19.41-2.643,26.68-7.913S423.934,401,421.06,392.492
		c-1.911-5.658-9.226-11.011-13.492-15.19c-13.567-7.751-20.416-9.49-37.242-14.566
		C370.008,340.335,362.611,289.575,341.525,276.048z"/>
	<path style="display:inline;fill:#F4B71A;" d="M294.258,353.008c1.496,5.417,3.071,7.501,8.229,10.295
		c11.4,9.336,22.181-9.68,20.996-21.437c-2.308-0.992-9.23-1.873-14.563-2c-3.23-0.077-12.58,0.051-15.523,1.29
		C293.789,346.108,293.158,349.025,294.258,353.008z"/>
	<path style="display:inline;fill:#30250E;" d="M327.789,327.912c-0.042,1.912,0.176,5.063,2.537,5.633
		c2.312,0.052,2.64-2.009,3.183-3.724c0.991-3.134,1.372-5.881,1.279-9.327c0.09-1.997-0.041-9.46-3.657-8.417
		c-1.6,1.121-2.53,6.549-2.764,8.47C328.067,322.993,327.843,325.448,327.789,327.912z"/>
	<path style="display:inline;fill:#30250E;" d="M285.973,326.444c-0.042,1.912,0.176,5.063,2.537,5.633
		c2.312,0.052,2.64-2.009,3.183-3.724c0.991-3.134,1.372-5.881,1.279-9.327c0.09-1.997-0.041-9.46-3.657-8.417
		c-1.6,1.121-2.53,6.549-2.764,8.47C286.252,321.525,286.027,323.98,285.973,326.444z"/>
</g>
<g id="&#x56FE;&#x5C42;_4" style="display:none;">
	<g style="display:inline;">
		
			<ellipse transform="matrix(0.9589 -0.2836 0.2836 0.9589 -100.8016 103.2013)" style="fill:#8BA4D4;" cx="305.97" cy="399.685" rx="141.74" ry="128.368"/>
		
			<ellipse transform="matrix(0.9589 -0.2836 0.2836 0.9589 -100.7881 103.1934)" style="fill:#8BA4D4;" cx="305.95" cy="399.634" rx="141.74" ry="128.368"/>
		
			<ellipse transform="matrix(0.9589 -0.2836 0.2836 0.9589 -100.7746 103.1856)" style="fill:#8BA4D4;" cx="305.929" cy="399.584" rx="141.74" ry="128.368"/>
		
			<ellipse transform="matrix(0.9589 -0.2836 0.2836 0.9589 -100.761 103.1778)" style="fill:#8BA4D4;" cx="305.909" cy="399.533" rx="141.74" ry="128.368"/>
		
			<ellipse transform="matrix(0.9589 -0.2836 0.2836 0.9589 -100.7475 103.17)" style="fill:#8BA4D4;" cx="305.889" cy="399.482" rx="141.74" ry="128.368"/>
		
			<ellipse transform="matrix(0.9589 -0.2836 0.2836 0.9589 -100.734 103.1621)" style="fill:#8BA4D4;" cx="305.869" cy="399.432" rx="141.74" ry="128.368"/>
		
			<ellipse transform="matrix(0.9589 -0.2836 0.2836 0.9589 -100.7204 103.1543)" style="fill:#8BA4D4;" cx="305.848" cy="399.381" rx="141.74" ry="128.368"/>
		
			<ellipse transform="matrix(0.9589 -0.2836 0.2836 0.9589 -100.7069 103.1465)" style="fill:#8BA4D4;" cx="305.828" cy="399.331" rx="141.74" ry="128.368"/>
		
			<ellipse transform="matrix(0.9589 -0.2836 0.2836 0.9589 -100.6934 103.1387)" style="fill:#8BA4D4;" cx="305.808" cy="399.28" rx="141.74" ry="128.368"/>
		
			<ellipse transform="matrix(0.9589 -0.2836 0.2836 0.9589 -100.6798 103.1308)" style="fill:#8BA4D4;" cx="305.788" cy="399.229" rx="141.74" ry="128.368"/>
		
			<ellipse transform="matrix(0.9589 -0.2836 0.2836 0.9589 -100.6663 103.123)" style="fill:#8BA4D4;" cx="305.767" cy="399.179" rx="141.74" ry="128.368"/>
		
			<ellipse transform="matrix(0.9589 -0.2836 0.2836 0.9589 -100.6528 103.1152)" style="fill:#8BA4D4;" cx="305.747" cy="399.128" rx="141.74" ry="128.368"/>
		
			<ellipse transform="matrix(0.9589 -0.2836 0.2836 0.9589 -100.6663 103.123)" style="fill:#8EA9D7;" cx="305.767" cy="399.179" rx="138.135" ry="125.103"/>
		
			<ellipse transform="matrix(0.9589 -0.2836 0.2836 0.9589 -100.6798 103.1308)" style="fill:#92AFDA;" cx="305.788" cy="399.229" rx="134.529" ry="121.838"/>
		
			<ellipse transform="matrix(0.9589 -0.2836 0.2836 0.9589 -100.6934 103.1387)" style="fill:#96B4DD;" cx="305.808" cy="399.28" rx="130.924" ry="118.573"/>
		
			<ellipse transform="matrix(0.9589 -0.2836 0.2836 0.9589 -100.7069 103.1465)" style="fill:#9ABADF;" cx="305.828" cy="399.331" rx="127.319" ry="115.308"/>
		
			<ellipse transform="matrix(0.9589 -0.2836 0.2836 0.9589 -100.7204 103.1543)" style="fill:#9DBFE2;" cx="305.848" cy="399.381" rx="123.714" ry="112.043"/>
		
			<ellipse transform="matrix(0.9589 -0.2836 0.2836 0.9589 -100.734 103.1621)" style="fill:#A1C5E4;" cx="305.869" cy="399.432" rx="120.109" ry="108.778"/>
		
			<ellipse transform="matrix(0.9589 -0.2836 0.2836 0.9589 -100.7475 103.17)" style="fill:#A5CBE6;" cx="305.889" cy="399.482" rx="116.504" ry="105.513"/>
		
			<ellipse transform="matrix(0.9589 -0.2836 0.2836 0.9589 -100.761 103.1778)" style="fill:#A9D0E9;" cx="305.909" cy="399.533" rx="112.899" ry="102.248"/>
		
			<ellipse transform="matrix(0.9589 -0.2836 0.2836 0.9589 -100.7746 103.1856)" style="fill:#ADD6EB;" cx="305.929" cy="399.584" rx="109.294" ry="98.983"/>
		
			<ellipse transform="matrix(0.9589 -0.2836 0.2836 0.9589 -100.7881 103.1934)" style="fill:#B1DBED;" cx="305.95" cy="399.634" rx="105.689" ry="95.718"/>
		
			<ellipse transform="matrix(0.9589 -0.2836 0.2836 0.9589 -100.8016 103.2013)" style="fill:#B5E0EE;" cx="305.97" cy="399.685" rx="102.084" ry="92.453"/>
	</g>
	<path style="display:inline;fill:none;stroke:#FFFFFF;stroke-width:9;stroke-miterlimit:10;" d="M335.877,307.039
		c-3.25,0.33-13.527-2.627-10.241-3.158c26.899,6.327,50.011,26.891,59.423,52.872c4.429,12.227,5.945,25.317,6.557,38.307
		c0.467,9.907,0.193,20.599-5.662,28.604c-1.983,1.872-0.489-5.145,1.749-6.055"/>
	<path style="display:inline;fill:none;stroke:#FFFFFF;stroke-width:9;stroke-miterlimit:10;" d="M373.428,444.216
		c-2.931-0.506-5.857,2.589-5.186,5.488c1.853,0.724,3.845,1.46,5.786,1.023c1.941-0.437,3.613-2.594,2.782-4.401
		c-0.584-1.269-2.155-1.835-3.543-1.681s-2.641,0.874-3.848,1.577"/>
</g>
<g id="&#x56FE;&#x5C42;_5" style="display:none;">
	<path style="display:inline;fill:#2F502D;" d="M290.875,326.452c-0.42-0.452-0.447,0.675,0.199,2.415
		c5.323,9.914,6.114,20.335,5.505,32.221c4.146-0.381,7.943-0.033,11.858-1.449c2.557-0.925,6.044-2.38,7.125-4.875
		c0.712-1.644,2.159-4.336,2.063-6.125c-0.628-11.674-1.812-23.755,0.537-35.207c0.251-1.225,0.798-2.71,2.043-2.829
		c0.537-0.051,1.058,0.191,1.519,0.473c4.171,2.549,4.396,7.925,4.338,12.813c-0.042,3.474-0.313,7-0.325,10.559
		c3.685-1.423,7.8-1.823,11.013-4.121s4.934-3.622,5.688-7.5c0.108-0.554,1.313-3.625,2.625-3.875
		c1.864-0.355,3.635,0.728,4.313,2.5c1.746,4.569,0.159,7.944-0.313,12.813c-0.178,1.842-0.863,3.37-2.375,4.438
		c-0.874,0.617-7.258,3.445-8.313,3.625c-4.869,0.83-3.666,0.212-8.535,1.042c-0.702,0.12-1.457,0.267-1.942,0.788
		c-0.409,0.439-0.544,1.058-0.663,1.646c-0.766,3.768-1.533,7.537-2.299,11.305c-0.963,4.736-1.252,10.353-4.918,13.502
		c-6.58,5.655-14.526,8.053-23.018,9.092c-0.055,16.762-0.759,29.752-1.813,45.938c-0.381,5.861-1.479,14.141-1.063,20
		c0.679,9.55,1.259,20.888,1.938,30.438c3.684,0.816,4.548-0.153,7.717-2.201c3.169-2.049,5.693-4.943,8.01-7.922
		c1.651-2.122,3.247-4.335,5.359-6c2.234-1.761,4.93-2.817,7.581-3.848c3.73-1.45,7.729-2.079,11.458-3.529
		c4.64-1.804,11.266-3.202,15.25-6.188s5.367-9.497,5.92-14.445c-4.115,0.863-8.444,0.682-12.472-0.522
		c-2.16-0.645-5.648-1.275-6.886-3.159c-1.064-1.619-1.277-3.635-1.436-5.566c-0.538-6.525,0.504-13.471,0.526-20.018
		c0.003-0.767,0.014-1.557,0.315-2.263c0.727-1.703,2.989-2.321,4.747-1.738c1.758,0.582,3.072,2.049,4.122,3.574
		c2.293,3.329,3.738,7.236,4.162,11.255c0.168,1.59,0.2,3.266,1.006,4.647c1.773,3.037,6.568,2.939,9.206,0.613
		s2.033-5.962,2.539-9.442c1.056-7.273-0.42-13.295-0.125-21.435c0.068-1.886-0.051-4.255,0.303-6.109
		c0.354-1.854,1.871-3.649,3.758-3.596c2.032,0.057,3.394,2.065,4.265,3.901c3.69,7.779,4.057,16.865,2.674,25.364
		c4.964-0.113,10.801-1.332,15.387-3.236c1.231-0.511,2.498-1.133,3.243-2.239c0.648-0.96,0.815-2.157,0.949-3.308
		c1.553-13.339,1.105-27.375,7.053-39.415c0.375-0.758,0.936-1.609,1.782-1.611c0.802-0.001,1.367,0.774,1.712,1.498
		c1.101,2.314,1.387,4.918,1.657,7.466c1.445,13.61,2.892,27.328,1.625,40.956c-0.17,1.825-0.487,3.836-1.906,4.996
		c-0.975,0.797-2.282,1.023-3.525,1.222c-6.203,0.992-12.407,1.985-18.61,2.977c-1.68,0.269-3.415,0.558-4.838,1.489
		c-2.514,1.645-4.729,5.042-5.465,7.954c-2.945,11.648-5.258,24.127-15.174,30.911c-7.263,4.969-9.934,2.522-18.389,4.964
		c-3.633,1.05-13.281,6.039-15.375,9.188c-1.354,2.036-2.529,4.283-3.577,6.492c-2.056,4.33-6.161,7.414-10.598,9.229
		c-4.437,1.815-9.238,2.507-13.984,3.185c0.463,10.571,0.361,21.14,2.659,31.469c-5.816,1.355-9.232,2.459-15.048,3.814
		c-4.193-13.951-5.729-25.075-3.702-39.501c0.699-4.979,2.5-12.536,2.625-17.563c0.167-6.747-1.597-14.376-1.563-21.125
		c0.063-12.313-0.636-22.813-0.188-34.25c-5.195-1.474-11.472-3.176-16.667-4.65c-4.994-1.417-9.284-3.403-13.958-5.662
		c-3.502-1.692-7.543-3.293-11.26-4.438c-3.347-1.031-5.823-1.919-9.24-2.687c-11.439-2.573-21.996-9.823-24-21.375
		c-9.119-0.579-18.444-2.734-27.563-3.313c-4.665-0.296-9.159-0.972-13.508-2.684c-4.349-1.713-7.038-3.362-8.242-7.878
		c-0.656-2.462-1.25-5.938-1.375-8.75c-1.657-2.339-7.438-2.02-9.813-3.625c-5.729-3.872-6.802-11.467-6.5-18.375
		c0.128-2.936,0.559-7.439,0.688-10.375c0.07-1.593,0.946-3.81,1.75-5.188s3.025-2.074,4.486-1.435
		c1.461,0.639,3.464,3.556,3.764,5.122c1.109,5.79-0.171,11.148,0.938,16.938c0.273,1.428,3.077,2.296,4.25,1.438
		c0.42-0.307,0.313-1.814,0.38-3.277c0.357-7.742-0.318-13.473,4.643-20.474c2.102-1.494,5.208,0.439,5.939,2.912
		c0.731,2.473-0.074,5.1-0.654,7.612c-0.942,4.084-1.285,8.305-1.014,12.488c2.315-0.24,4.069-2.351,4.71-4.588
		c0.642-2.237,0.425-4.615,0.351-6.942c-0.244-7.683,1.156-15.414,4.078-22.523c0.408-0.992,0.885-2.023,1.765-2.637
		c1.792-1.252,4.448-0.088,5.544,1.804c1.096,1.892,1.068,4.205,1.01,6.39c-0.121,4.509-0.241,9.019-0.362,13.528
		c-0.146,5.447-0.339,11.094-2.764,15.974c-2.425,4.88-9.062,6.673-13.562,8.173c1.563,3,2.78,4.782,3.812,7.686
		c0.806,2.267,1.315,3.908,3.063,5.563c1.471,1.393,5.178,1.12,7.188,1.375c9.809,1.243,15.688,1.563,26.75,1.5
		c2.003-0.476,2.373-0.532,3.125-2.188c2.714-6.038,4.434-11.704,7.066-17.778c2.371-5.472,5.559-3.41,4.809,1.403
		c-2.319,12.227-5.047,22.064-1.125,33.875c0.638,1.922,3.775,3.438,5.304,4.767c1.298,1.129,5.986,3.114,7.634,3.608
		c16.681,5,31.768,8.338,48.938,11.25c1.878-18.389,2.645-38.01-1.618-55.997c-0.427-1.803-0.253-6.533-1.382-8.003
		c-2.926-1.734-8.146-1.5-11.875-2.75c-9.401-3.151-16.465-8.186-19.5-17.625s-3.811-21.344-2.188-31.125
		c0.425-2.56,2.593-7.875,5.188-7.875c2.125,0,3.979,0.761,4.438,1.688c2.548,5.146,1.962,13.319,2.559,19.031
		c0.597,5.712,1.568,11.664,5.027,16.248c3.459,4.584,7.606,7.365,12.602,4.533c1.068-8.548,2.338-14.425,0.125-22.75
		c-1.563-5.878-3.255-14.637-3.644-20.707c-0.435-6.792,1.76-13.719,6.029-19.019c2.207-2.741,4.908,1.386,5.847,4.778
		c1.286,4.646,0.063,9.564-0.187,14.378c-0.609,11.722,6.068,24.767,4.893,36.446c3.75,0.313,5.081-0.15,7.25-3
		c1.514-3.916,0.688-10,0.5-14.938c-0.073-1.918-0.035-5.058,0.72-6.822c0.755-1.764,3.154-2.936,4.662-1.748
		c0.63,0.496,1.208,3.223,1.368,4.008c1.034,5.06,0.856,7.844,1.063,12.813c0.182,4.384,1.269,8.68,1.451,13.064
		c0.043,1.04-0.171,2.059-0.228,3.098c-0.098,1.775-0.82,4.859-1.723,5.838C299,323,295.125,324.577,290.875,326.452z"/>
</g>
<g id="&#x56FE;&#x5C42;_6">
	<path style="fill:#F0DDC8;" d="M390.385,348.567c3.664,19.001,2.261,38.955-4.024,57.257c-0.203,0.591-0.468,1.243-1.043,1.488
		c-0.581,0.247-1.241-0.023-1.813-0.29c-21.35-9.96-42.7-19.92-64.049-29.88c-3.914-1.826-7.828-3.652-11.725-5.512
		c-10.113-4.827-20.121-9.873-30.151-14.871c-6.734-3.355-14.37-6.75-13.647-15.614c1.357-16.634,29.444-25.826,42.168-30.903
		c12.471-4.976,24.924-5.353,38.093-3.557c5.973,0.815,14.399,2.991,19.42,6.329c4.959,3.297,8.611,5.037,12.516,9.926
		c0.769,0.963,1.638,1.708,2.373,2.696c0.745,1.002,3.176,4.135,3.777,5.09c1.883,2.997,3.511,5.238,5.069,8.406
		C389.437,343.387,389.627,344.639,390.385,348.567z"/>
	<path style="fill:#EB5B35;" d="M342.809,326.021c15.086,6.981,29.933,15.044,41.97,26.507c4.822,4.592,9.346,10.111,10.194,16.715
		c0.4,3.113-0.051,6.266-0.5,9.372c-1.214,8.388-2.442,16.834-5.212,24.844c-0.25,0.724-0.557,1.5-1.215,1.895
		c-1.078,0.647-2.436-0.05-3.491-0.735c-3.726-2.421-7.463-4.868-11.522-6.678c-4.494-2.004-9.3-3.19-14.031-4.544
		c-9.069-2.595-17.938-5.835-26.799-9.072c-10.951-4-21.935-8.015-32.313-13.327c-13.453-6.885-25.798-15.928-36.42-26.678
		c-0.792-0.802-1.601-1.656-1.93-2.734c-0.492-1.611,0.195-3.338,1.034-4.797c3.036-5.28,8.068-9.056,12.963-12.681
		c3.464-2.566,6.961-5.15,10.879-6.948c9.374-4.302,18.626-2.496,28.171-0.028C324.347,319.655,333.581,321.751,342.809,326.021z"/>
	<path style="fill:#F3A440;" d="M188.075,346.783c3.87,7.981,10.183,14.482,16.58,20.627c12.042,11.567,24.773,22.417,38.103,32.472
		c2.226,2.196,4.926,3.378,6.473,4.941c2.566,1.562,5.461,2.814,9.239,5.235c33.16,21.246,66,43.603,102.536,58.302
		c22.311,8.976,47.157,15.016,70.317,8.537c2.335-0.653,4.717-1.478,6.471-3.15c5.334-5.084,1.983-13.96-1.704-20.34
		c-4.785-8.282-9.683-16.543-15.66-24.011c-12.459-15.567-29.148-27.142-46.072-37.684c-36.958-23.022-76.281-42.244-117.149-57.267
		c-8.535-3.137-17.136-6.092-25.737-9.046c-7.437-2.554-14.956-5.127-22.781-5.902C189.061,317.552,178.792,327.637,188.075,346.783
		z"/>
	<path style="fill:#ED6B22;" d="M185.713,352.893c3.742,7.717,9.847,14.003,16.032,19.945
		c11.644,11.185,23.954,21.675,36.843,31.398c2.152,2.123,4.763,3.266,6.259,4.778c2.481,1.51,5.28,2.721,8.934,5.062
		c32.064,20.543,63.818,42.162,99.146,56.374c21.574,8.679,45.598,14.519,67.992,8.254c2.257-0.632,4.561-1.429,6.257-3.046
		c5.158-4.916,1.917-13.498-1.647-19.668c-4.627-8.008-9.363-15.996-15.142-23.217c-12.047-15.053-28.185-26.244-44.549-36.438
		c-35.736-22.26-73.758-40.847-113.275-55.373c-8.253-3.034-16.57-5.89-24.885-8.747c-7.191-2.47-14.461-4.958-22.027-5.707
		C186.667,324.629,176.737,334.381,185.713,352.893z"/>
	<path style="fill:#F1DDC9;" d="M295.995,341.413c1.572,0.625,3.397,0.289,4.892-0.503s2.723-1.998,3.92-3.193
		c2.095-2.093,4.21-4.275,5.394-6.99c0.611-1.401,0.892-3.198-0.137-4.328c-0.41-0.45-0.974-0.725-1.53-0.974
		C299.308,321.287,285.995,337.437,295.995,341.413z"/>
	<path style="fill:#F1DDC9;" d="M324.183,351.109c3.46,0.51,6.697-1.753,9.213-4.183c2.721-2.629,5.213-5.835,5.606-9.599
		c0.912-8.736-11.055-4.901-14.913-1.568C320.59,338.783,317.847,350.174,324.183,351.109z"/>
	<path style="fill:#F1DDC9;" d="M349.712,363.503c0.962,1.282,2.82,1.639,4.359,1.19c1.538-0.449,2.799-1.556,3.855-2.761
		c2.734-3.12,4.438-7.127,4.788-11.26c0.043-0.51,0.064-1.037-0.112-1.518c-1.584-4.328-9.173-2.896-11.295,0.085
		C349.242,352.139,347.568,360.646,349.712,363.503z"/>
	<path style="fill:#F1DDC9;" d="M369.05,375.684c-0.098,0.851-0.182,1.757,0.196,2.526c0.469,0.951,1.576,1.467,2.637,1.474
		c1.061,0.007,2.079-0.415,3.004-0.932c4.388-2.453,7.298-7.362,7.32-12.39c0.005-1.243-0.168-2.529-0.822-3.586
		c-2.135-3.449-7.548-2.286-9.768,0.499C369.239,366.261,369.46,372.133,369.05,375.684z"/>
	<path style="fill:none;stroke:#997955;stroke-miterlimit:10;" d="M331.741,265.405c0.245,13.983,0.489,27.966,0.734,41.949"/>
	<path style="fill:none;stroke:#997955;stroke-miterlimit:10;" d="M424.497,312.404c-13.594,9.17-22.548,13.876-39.654,23.136"/>
	<path style="fill:#EFEA42;" d="M325.622,263.348c0.61,0.9,1.558,1.513,2.531,1.998c1.613,0.805,3.395,1.33,5.197,1.29
		c1.802-0.04,3.625-0.682,4.904-1.953c0.476-0.472,0.88-1.042,1.034-1.695c0.233-0.988-0.149-2.05-0.812-2.819
		c-1.604-1.861-5.848-3.403-8.326-2.958C327.519,257.684,323.623,260.401,325.622,263.348z"/>
	<path style="fill:#EFEA42;" d="M425.588,314.671c1.303,2.115,3.352,4.171,5.832,4.031c0.387-0.022,0.789-0.106,1.089-0.352
		c0.504-0.412,0.585-1.142,0.589-1.793c0.027-4.569-1.947-9.114-5.305-12.213c-1.852-1.709-5.13-1.835-5.225,1.296
		C422.476,308.678,424.03,312.144,425.588,314.671z"/>
	<path style="fill:#F2EC47;" d="M205.81,345.094c2.934,0.018,9.83,1.721,12.461,3.021c4.205,2.079,6.849,5.574,8.929,9.779
		c-1.145,1.513-2.458,2.325-4.29,2.819c-2.167,0.583-3.327,0.011-5.556-0.244c-2.721-0.312-5.131-1.543-7.282-3.237
		C205.785,353.857,203.167,348.708,205.81,345.094z"/>
	<path style="fill:#F3EC45;" d="M290.543,381.433c0.313-0.501,0.826-0.952,0.826-1.391c-3.952-6.907-10.863-11.511-17.527-15.861
		c-1.565-1.021-3.133-2.044-4.801-2.888c-2.745-1.388-5.744-2.274-8.803-2.599c-0.797-0.085-1.722-0.084-2.25,0.518
		c-1.581,1.802-1.625,4.783-1.184,7.139c0.307,1.642,1.076,3.164,1.961,4.582c4.949,7.933,14.006,13.141,23.352,13.428
		c1.793,0.055,3.625-0.066,5.298-0.712C289.088,383.003,289.466,382.855,290.543,381.433z"/>
	<path style="fill:#F0E533;" d="M260.617,398.282c1.14-0.649,1.888-1.403,2.171-1.883c-5.713-7.372-14.853-11.969-24.178-12.159
		c0.312,5.36,3.228,10.573,7.985,13.063C251.352,399.793,256.034,401.08,260.617,398.282z"/>
	<path style="fill:#F1E534;" d="M368.391,415.338c3.176,2.696,6.391,5.434,8.753,8.866c-0.641,0.664-1.336,1.291-2.144,1.737
		c-2.229,1.229-4.961,0.924-7.466,0.474c-2.22-0.399-4.439-0.888-6.515-1.768c-4.781-2.027-8.539-6.056-10.914-10.674
		c-0.54-1.05-1.02-2.146-1.223-3.309c-0.367-2.097,0.231-4.344,1.593-5.98c0.405-0.486,4.592,1.417,5.161,1.679
		c1.69,0.776,3.401,1.745,4.817,2.962c1.078,0.926,1.783,1.755,3.059,2.455C365.291,412.756,366.849,414.029,368.391,415.338z"/>
	<path style="fill:#F3EA3F;" d="M404.33,450.146c2.683,3.299,4.963,6.926,6.772,10.774c0.107,0.227,0.215,0.474,0.171,0.721
		c-0.047,0.268-0.261,0.472-0.47,0.647c-2.226,1.861-5.29,2.678-8.147,2.171c-2.409-0.428-4.573-1.721-6.573-3.131
		c-3.809-2.684-7.349-6.009-9.213-10.28s-1.75-9.629,1.212-13.227c3.084,2.32,6.163,4.649,9.253,6.961
		C399.815,446.638,402.302,447.652,404.33,450.146z"/>
	<path style="fill:#F4E944;" d="M362.568,453.616c0.201,0.243,0.406,0.518,0.405,0.834c-0.001,0.266-0.152,0.507-0.315,0.717
		c-1.699,2.183-4.877,2.357-7.643,2.341c-2.152-0.012-4.392-0.044-6.313-1.013c-1.393-0.703-2.507-1.845-3.592-2.966
		c-1.202-1.241-2.424-2.513-3.165-4.073c-0.741-1.561-0.928-3.491-0.048-4.977c0.07-0.118,0.151-0.237,0.272-0.302
		c0.147-0.079,0.324-0.063,0.489-0.045C350.112,444.965,357.648,447.653,362.568,453.616z"/>
	<path style="fill:#F8F49F;" d="M327.651,436.007c-11.66,28.303-22.584,56.101-33.661,84.625c-1.993,5.132-3.889,10.8-5.898,15.926
		c-2.458,6.273-4.853,11.993-8.115,17.888c-0.518,0.936-1.058,1.898-1.905,2.552c-1.049,0.81-2.424,1.038-3.741,1.183
		c-6.632,0.726-13.326-0.012-19.956-0.75c-6.669-0.743-13.339-1.485-20.008-2.228c-7.789-0.867-15.683-1.76-22.974-4.634
		c-14.348-5.655-24.972-18.677-30.271-33.161c-0.23-0.628,0.058-6.638,0.119-7.305c0.119-1.318,1.273-2.259,2.263-3.138
		c4.108-3.65,7.057-5.302,10.943-9.823c13.439-15.635,28.755-33.048,41.572-49.196c14.43-18.18,30.397-40.3,49.304-53.764
		c7.121-5.071,8.516-3.873,16.83-3.015c5.155,0.532,9.496,2.959,14.241,5.28c5.302,2.593,10.681,7.685,13.722,12.623
		C335.258,417.42,331.16,427.489,327.651,436.007z"/>
</g>
</svg>
