<?xml version="1.0" standalone="no"?><!DOCTYPE svg PUBLIC "-//W3C//DTD SVG 1.1//EN" "http://www.w3.org/Graphics/SVG/1.1/DTD/svg11.dtd"><svg t="1649680424963" class="icon" viewBox="0 0 1024 1024" version="1.1" xmlns="http://www.w3.org/2000/svg" p-id="1421" xmlns:xlink="http://www.w3.org/1999/xlink" width="200" height="200"><defs><style type="text/css">@font-face { font-family: "feedback-iconfont"; src: url("//at.alicdn.com/t/font_1031158_u69w8yhxdu.woff2?t=1630033759944") format("woff2"), url("//at.alicdn.com/t/font_1031158_u69w8yhxdu.woff?t=1630033759944") format("woff"), url("//at.alicdn.com/t/font_1031158_u69w8yhxdu.ttf?t=1630033759944") format("truetype"); }
</style></defs><path d="M797.61 158.41c13.89 18.85 29.77 30.76 48.29 46.63 14.22 12.57 78.72 68.46 107.82 117.08 32.08 53.58 28.11 109.48 24.48 162.06-16.54 225.9-187.86 372.09-201.09 383-11.58 9.59-104.52 84.67-235.49 108.82 0 0-108.48 19.84-154.46-20.51-2.98-2.32-10.58-8.93-12.24-19.51-1.98-14.22 8.27-26.46 11.58-30.1 27.45-16.87 252.36-138.58 332.73-329.42 25.8-61.52 40.35-138.58 47.63-178.6 14.22-76.07 12.9-111.13 4.63-144.54-9.26-35.72-24.81-62.84-37.04-80.7-1.32-3.31-2.32-6.95-3.64-10.25" fill="#F6D840" p-id="1422"></path><path d="M953.72 322.12c-29.11-48.62-93.6-104.52-107.82-117.08-18.52-15.88-34.4-27.78-48.29-46.63l-31.99 1.9c6.28 5.45 12.79 10.89 19.79 16.89 14.22 12.57 78.71 68.46 107.82 117.08 32.08 53.58 28.11 109.48 24.48 162.06-16.54 225.9-187.86 372.09-201.09 383-11.58 9.59-104.52 84.67-235.49 108.82 0 0-52.38 9.19-99.8 1.46 2.21 2.67 4.53 4.85 5.84 5.87C433.14 995.84 541.63 976 541.63 976c130.98-24.14 223.91-99.22 235.49-108.82 13.23-10.91 184.56-157.1 201.09-383 3.62-52.58 7.59-108.48-24.49-162.06z" fill="#F7AC26" p-id="1423"></path><path d="M716.91 164.03v0.66c5.62 18.85 19.51 30.1 22.49 32.74 20.51 18.52 29.11 82.69 23.48 148.5C748 525.53 659.69 642.95 659.69 642.95c-31.42 42-105.51 137.26-240.78 176.29-34.07 9.92-157.43 43.33-282.79-17.53-58.21-28.44-83.02-38.7-86.66-59.86-2.65-15.21 1.65-39.36 16.54-47.96 9.26-5.29 19.84-2.98 22.49-2.65 39.36 7.94 130.31-21.17 186.87-39.36 39.03-12.57 126.68-40.68 215.98-111.13 0 0 157.1-124.36 192.82-297.34 1.32-5.62 9.92-48.29 0.33-71.44-0.33-0.66-0.66-1.98-1.32-3.64" fill="#F6D840" p-id="1424"></path><path d="M739.4 197.43c-2.98-2.65-16.87-13.89-22.49-32.75v-0.66l-18.61 2.37c17.74 22.66 25.07 82.29 19.81 143.86-14.88 179.59-103.19 297.01-103.19 297.01-31.42 42.01-105.51 137.26-240.78 176.29-34.07 9.92-157.44 43.33-282.79-17.53-16.03-7.83-29.3-14.21-40.51-19.89 6.26 18.33 31.26 29.16 85.29 55.57 125.35 60.86 248.72 27.45 282.79 17.53C554.2 780.2 628.28 684.95 659.7 642.94c0 0 88.31-117.41 103.19-297.01 5.61-65.81-2.99-129.97-23.49-148.5z" fill="#F7AC26" p-id="1425"></path><path d="M296.15 859.83c-60.22 0-118.19-12.68-169.93-37.78l-14.09-6.89c-53.07-25.72-79.66-38.66-84.97-69.5-3.49-20.19 0.93-55.98 27.53-71.36 15.2-8.7 30.93-6.36 36.1-5.61 36.01 7.25 131.67-23.59 177.67-38.31 40.34-13.03 123.19-39.77 208.9-107.41 1.46-1.15 151.07-121.55 184.69-284.15 3.23-13.74 6.94-45.11 1.55-58.19l19.57-12.28 20.94-8.48c0.66 1.5 1.24 3.05 1.77 4.64l12.24-0.18 20.5-6.1c3.45 11.66 12.19 19.18 15.07 21.65 31.81 28.72 36.81 108.3 31.72 167.99C770.16 531.8 681.53 651.5 677.77 656.54c-29.07 38.84-106.35 142.23-252.6 184.43-43.22 12.59-86.69 18.86-129.02 18.86zM79.91 713.05c-1.24 0-2.17 0.18-2.7 0.49-3.27 1.86-7.2 14.45-5.48 24.43 1.37 8 27.31 20.55 60.14 36.5l14.18 6.89c77.94 37.87 172.59 43.57 266.52 16.17 131.71-38 202.41-132.55 229.01-168.17 0.84-1.15 84.61-114.92 98.75-285.3 5.96-69.86-5.52-120.31-16.13-129.86-4.82-4.2-9.15-8.57-12.95-13.21 0.27 24.61-4.73 46.22-5.08 47.63-36.85 178.33-194.1 304.56-200.77 309.82-92.12 72.73-183.5 102.2-222.56 114.79-77.99 25.1-157.16 48.56-198.83 40.16-1.63-0.21-3-0.34-4.1-0.34z" fill="#000000" p-id="1426"></path><path d="M826.73 150.6l-164.75 20.44-11.28-90.97c-1.33-10.73 6.29-20.52 17.02-21.85L793.6 42.61c10.73-1.33 20.52 6.29 21.85 17.02l11.28 90.97z" fill="#F7AC26" p-id="1427"></path><path d="M642.33 196.26L628.24 82.84c-1.37-11.22 1.68-22.27 8.62-31.15 6.94-8.88 16.92-14.54 28.1-15.91L790.8 20.14c22.93-2.87 44.23 13.61 47.1 36.72l14.05 113.38-209.62 26.02zM793 62.43L670.52 80.68l10.38 65.22 120.58-14.98L793 62.43z" fill="#000000" p-id="1428"></path><path d="M292.61 742.65c-11.18 0-20.9-8.31-22.4-19.71-1.59-12.37 7.11-23.73 19.53-25.36 28.68-3.76 56.82-10.78 83.64-20.9 37.78-14.23 72.99-34.51 104.67-60.31 9.68-7.82 23.9-6.54 31.81 3.27 7.91 9.68 6.41 23.95-3.27 31.81-35.48 28.9-74.94 51.61-117.22 67.56-30.09 11.36-61.64 19.26-93.8 23.46-0.97 0.14-1.99 0.18-2.96 0.18z" fill="#FFFFFF" p-id="1429"></path><path d="M482.83 1003.65c-37.16 0-82.05-6.14-110.59-31.15-5.39-4.11-16.92-15.24-19.66-33.05-3.14-22.49 9.41-40.16 17.14-48.74l4.95-4.11 8.4-4.99c201-117.97 282.43-235.81 315.3-313.93 25.67-61.2 40.08-140.15 46.22-173.87 13.83-73.83 12.28-105.42 4.95-135.07-6.67-25.63-18.03-50.41-33.76-73.3l-4.51-10.47 40.52-20.99 2.39 6.63c17.59 26.51 31.15 56.03 39.24 87 8.88 35.97 10.96 72.64-4.33 154.43-6.36 35.08-21.39 117.4-49 183.19-35.57 84.44-122.39 211.16-334.12 335.41l-4.55 2.74c-2.78 3.62-4.37 7.29-4.06 9.5 0.27 1.63 2.39 3.71 3.58 4.64 31.99 28.1 109.45 21.12 136.62 16.22 121.95-22.45 208.95-90.53 225.12-103.92 7.29-6.01 176.92-148.06 192.95-367.26 3.49-49.88 7.07-101.36-21.3-148.81-17.41-29.07-51.61-66.14-101.62-110.15l-10.69-9.1c-15.16-12.77-29.47-24.88-42.59-42.64L815.84 145c9.94 13.48 21.16 22.93 35.35 34.91l9.5 8.04c55.45 48.78 92.66 89.47 112.45 122.57 35.7 59.65 31.42 120.98 27.66 175.1-17.45 238.55-201.44 392.62-209.3 399.08-17.63 14.63-112.76 89.08-245.75 113.6-5.66 0.98-31.51 5.35-62.92 5.35z" fill="#000000" p-id="1430"></path></svg>