<?xml version="1.0" standalone="no"?><!DOCTYPE svg PUBLIC "-//W3C//DTD SVG 1.1//EN" "http://www.w3.org/Graphics/SVG/1.1/DTD/svg11.dtd"><svg t="1649679204796" class="icon" viewBox="0 0 1024 1024" version="1.1" xmlns="http://www.w3.org/2000/svg" p-id="7917" xmlns:xlink="http://www.w3.org/1999/xlink" width="200" height="200"><defs><style type="text/css">@font-face { font-family: "feedback-iconfont"; src: url("//at.alicdn.com/t/font_1031158_u69w8yhxdu.woff2?t=1630033759944") format("woff2"), url("//at.alicdn.com/t/font_1031158_u69w8yhxdu.woff?t=1630033759944") format("woff"), url("//at.alicdn.com/t/font_1031158_u69w8yhxdu.ttf?t=1630033759944") format("truetype"); }
</style></defs><path d="M409.813173 424.300623c-18.099438-26.601174-46.216565-46.222565-75.98564-66.995919l-0.425987-0.297991c-16.635483 10.183684-43.398652 22.285308-76.64162 22.285308-8.68173 0-17.797447-0.823974-27.299152-2.723915-16.931474-3.385895-27.911133-19.855383-24.525238-36.786858 3.383895-16.929474 19.855383-27.907133 36.786857-24.525238 13.325586 2.665917 25.391211 1.505953 35.536897-1.209963-3.589889-3.251899-7.137778-6.569796-10.573672-10.043688-26.915164-27.215155-47.692519-63.43803-60.000137-102.368821-25.883196-6.067812-71.717773-26.567175-92.455128-95.807024-4.953846-16.541486 4.439862-33.962945 20.979348-38.916792 16.545486-4.951846 33.964945 4.439862 38.916792 20.977349 5.191839 17.331462 12.477613 29.077097 19.96338 37.040849-0.051998-4.679855 0.023999-9.34371 0.251992-13.977566 1.155964-23.443272 9.901693-58.042198 26.833166-82.493438 9.827695-14.195559 29.30309-17.733449 43.49865-7.905754s17.735449 29.30509 7.905754 43.498649c-8.979721 12.969597-15.079532 35.594895-15.78751 49.976448-1.835943 37.288842 8.323742 76.885612 27.039161 109.616596 3.691885-5.431831 7.975752-13.543579 12.101624-25.367212 8.69773-24.929226 10.667669-49.630459 9.261712-58.476184-2.711916-17.05147 8.911723-33.074973 25.963194-35.784889 17.047471-2.719916 33.072973 8.909723 35.786889 25.963194 3.567889 22.423304-1.245961 58.150194-11.977628 88.899239-7.937753 22.745294-18.191435 40.714736-30.357058 53.606335 13.635577 11.647638 28.9871 22.369305 45.004603 33.548958 33.096972 23.097283 67.321909 46.980541 91.897146 83.09542l27.275153 35.174907h-78.973548z" fill="#918291" p-id="7918"></path><path d="M272.577435 64.043811c-8.975721 12.963597-15.079532 35.602894-15.77751 49.982448-1.097966 21.939319 1.973939 44.696612 8.515736 66.357939-1.555952 8.655731-3.909879 18.249433-7.279774 27.883134l-0.077998 0.225993c-4.089873 11.717636-11.513642 11.877631-16.435489 0.483985-12.135623-28.097127-18.34343-59.422155-16.875476-89.251228 0.717978-14.379553-0.941971-26.267184 10.051688-45.688581 8.503736-15.021534 6.281805-33.666954-7.917755-43.500649a30.015068 30.015068 0 0 0-5.045843-2.831912c9.951691-13.563579 29.001099-16.793478 42.942667-7.159778 14.18156 9.831695 17.731449 29.31709 7.899754 43.498649zM488.782721 424.294624h-45.634583l-19.527393-25.191218c-24.573237-36.100879-58.798174-59.996137-91.887147-83.09142-13.52758-9.421707-26.559175-18.531425-38.492805-28.143126a8.147747 8.147747 0 0 1-1.247961-11.457644c9.875693-12.253619 18.319431-28.167125 25.083221-47.540524 10.729667-30.755045 15.557517-66.477936 11.987628-88.915238-1.735946-10.829664-8.835726-19.467395-18.149436-23.635266A31.181032 31.181032 0 0 1 331.159616 104.01457c17.05347-2.711916 33.068973 8.915723 35.780889 25.969193 3.569889 22.419304-1.235962 58.140194-11.967629 88.89524-7.937753 22.737294-18.189435 40.708736-30.357057 53.592335 13.623577 11.647638 28.9811 22.379305 44.996603 33.566958 33.088972 23.097283 67.31591 46.970541 91.887146 83.09142z" fill="#7A6D79" p-id="7919"></path><path d="M614.184827 424.300623c18.099438-26.601174 46.216565-46.222565 75.98564-66.995919l0.425987-0.297991c16.635483 10.183684 43.398652 22.285308 76.64162 22.285308 8.68173 0 17.797447-0.823974 27.299152-2.723915 16.931474-3.385895 27.911133-19.855383 24.525238-36.786858-3.383895-16.929474-19.855383-27.907133-36.786857-24.525238-13.325586 2.665917-25.391211 1.505953-35.536897-1.209963 3.589889-3.251899 7.137778-6.569796 10.573672-10.043688 26.915164-27.215155 47.692519-63.43803 60.000137-102.368821 25.883196-6.067812 71.717773-26.567175 92.455128-95.807024 4.953846-16.541486-4.439862-33.962945-20.979348-38.916792-16.545486-4.951846-33.964945 4.439862-38.916791 20.977349-5.191839 17.331462-12.477613 29.077097-19.963381 37.040849a232.072793 232.072793 0 0 0-0.251992-13.977566c-1.155964-23.443272-9.901693-58.042198-26.833166-82.493438-9.827695-14.195559-29.30309-17.733449-43.49865-7.905754s-17.735449 29.30509-7.905754 43.498649c8.979721 12.969597 15.079532 35.594895 15.78751 49.976448 1.835943 37.288842-8.323742 76.885612-27.039161 109.616596-3.691885-5.431831-7.975752-13.543579-12.101624-25.367212-8.69773-24.929226-10.667669-49.630459-9.259712-58.476184 2.711916-17.05147-8.911723-33.074973-25.963194-35.784889-17.047471-2.719916-33.072973 8.909723-35.786889 25.963194-3.567889 22.423304 1.245961 58.150194 11.977628 88.899239 7.937753 22.745294 18.191435 40.714736 30.357058 53.606335-13.635577 11.647638-28.9871 22.369305-45.004603 33.548958-33.096972 23.097283-67.321909 46.980541-91.897146 83.09542l-27.275153 35.174907h78.971548z" fill="#918291" p-id="7920"></path><path d="M819.056464 339.787248c3.389895 16.933474-7.579765 33.388963-24.513238 36.778858a139.595665 139.595665 0 0 1-27.305152 2.731915c-33.248967 0-60.016136-12.107624-76.64962-22.299307l-0.417987 0.29999c-29.759076 20.783355-57.882202 40.408745-75.99164 66.99592h-78.963548l18.749418-24.15325h36.998851c18.109438-26.607174 54.074321-52.998354 83.853396-73.75971l1.799944-1.223962a5.275836 5.275836 0 0 1 5.971814 0.033999c5.737822 3.993876 11.125654 7.761759 12.741605 8.679731 20.27137 11.507643 44.002634 19.3314 67.549902 17.029471 19.919381-1.94794 37.490836-12.663607 32.960976-35.286904 0-0.019999-0.019999-0.059998-0.019999-0.079998 11.447644 2.791913 20.803354 11.947629 23.235278 24.253247zM909.767647 105.828514c-20.743356 69.22985-66.577932 89.733213-92.447129 95.797025-10.391677 32.908978-26.847166 63.864017-47.948511 89.115232-3.673886 0.529984-8.68973 1.903941-14.757541 2.551921-11.047657 1.177963-18.03144-0.035999-25.7592-1.999938-2.293929-0.583982-3.067905-3.467892-1.337959-5.083842a237.736617 237.736617 0 0 0 6.573796-6.375802c24.489239-24.743232 45.476588-65.753958 58.334188-102.262824a21.173342 21.173342 0 0 1 14.489551-13.423584c25.985193-6.947784 61.588087-22.22931 79.639526-82.489438 1.515953-5.105841 1.695947-10.29168 0.697979-15.157529 0.517984 0.119996 1.017968 0.259992 1.535952 0.417987 16.551486 4.943846 25.947194 22.357306 20.979348 38.910792z" fill="#7A6D79" p-id="7921"></path><path d="M349.315052 447.723896s-81.919456-50.532431-166.312835-2.695916c-4.881848 2.767914-7.381771 8.399739-6.033813 13.84757 6.361802 25.685202 32.234999 97.300978 123.67616 102.496817zM675.024937 447.723896s81.919456-50.532431 166.312836-2.695916c4.881848 2.767914 7.381771 8.399739 6.033812 13.84757-6.361802 25.685202-32.234999 97.300978-123.676159 102.496817z" fill="#F0BDB1" p-id="7922"></path><path d="M312.308201 534.113213l-11.667637 27.265154c-91.429161-5.205838-117.318357-76.829614-123.680159-102.498817-1.335959-5.445831 1.155964-11.089656 6.043812-13.86157a162.804944 162.804944 0 0 1 22.917288-10.729667c6.261806 24.611236 29.597081 87.459284 106.386696 99.8249zM847.379585 458.87955c-6.361802 25.669203-32.250998 97.292979-123.680159 102.498817l-11.687637-27.305152c76.669619-12.525611 99.904897-75.413658 106.108705-99.904898a162.316959 162.316959 0 0 1 23.215279 10.849663c4.887848 2.771914 7.379771 8.417739 6.043812 13.86157z" fill="#EAA998" p-id="7923"></path><path d="M859.417211 756.970293c-1.181963-36.728859-15.007534-72.243756-32.862979-103.926773-19.095407-33.882948-50.988417-61.762082-64.076011-98.878929-24.305245-68.931859-57.62821-129.479979-130.421949-155.791162-31.733015-11.469644-75.67765-17.231465-110.716562-17.233465-35.038912 0.002-78.983547 5.763821-110.716562 17.233465-72.795739 26.313183-106.118705 86.859303-130.42195 155.791162-13.087594 37.116847-44.980603 64.995982-64.07601 98.878929-17.855446 31.683016-31.681016 67.197913-32.862979 103.926773-1.073967 33.370964 9.625701 76.397627 25.391211 105.748716 72.259756 134.527822 245.136387 158.003093 381.662148 141.783596 94.66706-11.245651 196.541896-53.964324 243.712432-141.783596 15.761511-29.349089 26.463178-72.375752 25.389211-105.748716z" fill="#E49280" p-id="7924"></path><path d="M834.016 862.713009c-47.170535 87.819273-149.031372 130.541946-243.710432 141.791596-53.852328 6.401801-113.368479 6.621794-170.152716-3.729884 40.090755 2.991907 80.259508 1.535952 117.696345-2.911909 94.66106-11.249651 196.539897-53.972324 243.710432-141.791597 15.757511-29.339089 26.467178-72.361753 25.391211-105.750716-1.175963-36.71886-15.019534-72.241757-32.868979-103.914773-19.087407-33.886948-50.980417-61.770082-64.06401-98.888929-24.313245-68.929859-57.64221-129.46398-130.42195-155.793162-11.069656-4.009875-23.655265-7.319773-36.838856-9.933691 30.337058 1.813944 63.76402 7.339772 89.295227 16.573485 72.799739 26.327182 106.128704 86.861303 130.42195 155.793162 13.083594 37.118847 44.976603 65.001981 64.084009 98.888929 17.851446 31.673016 31.673016 67.195913 32.84898 103.914773 1.075967 33.390963-9.613701 76.411627-25.391211 105.752716z" fill="#DD7F66" p-id="7925"></path><path d="M512 726.891227m-85.499345 0a85.499345 85.499345 0 1 0 170.99869 0 85.499345 85.499345 0 1 0-170.99869 0Z" fill="#EE6161" p-id="7926"></path><path d="M597.505345 726.885227c0 47.230533-38.294811 85.505345-85.505345 85.505344-27.983131 0-52.834359-13.443583-68.411875-34.224937a84.931362 84.931362 0 0 0 33.308965 6.741791c47.230533 0 85.505345-38.274811 85.505345-85.505345 0-19.227403-6.341803-36.958852-17.033471-51.240408 30.635049 12.983597 52.136381 43.340654 52.136381 78.723555z" fill="#E94444" p-id="7927"></path><path d="M893.082166 52.574167c-21.387336-6.389802-43.840639 3.479892-53.996324 22.435304-4.629856-18.377429-12.335617-38.284811-23.959256-55.07229A45.922574 45.922574 0 0 0 785.38951 0.773776a45.952573 45.952573 0 0 0-34.576926 7.477768c-10.149685 7.027782-16.955473 17.587454-19.163405 29.735076s0.447986 24.429241 7.473768 34.574927c7.127779 10.29568 12.55161 30.133064 13.145592 42.200689 1.173964 23.84326-3.061905 49.332468-11.875632 73.10573-6.465799-20.955349-7.711761-40.056756-6.811788-45.72058a45.908574 45.908574 0 0 0-8.235744-34.402932 45.910574 45.910574 0 0 0-30.145064-18.501425c-12.189621-1.94794-24.411242 0.97797-34.408932 8.231744a45.926574 45.926574 0 0 0-18.505425 30.151064c-3.983876 25.033223 0.97397 62.78405 12.625608 96.177013 6.343803 18.181435 14.18156 33.764951 23.385274 46.530555-10.141685 7.849756-21.077345 15.481519-32.468992 23.429272-30.301059 21.143343-61.480091 42.982665-86.369318 74.373691-13.86157-1.345958-26.951163-1.953939-38.122816-1.95394-15.663514 0-35.068911 1.167964-55.146287 3.947878-11.109655-14.365554-24.389243-27.801137-41.024726-41.574709a14.959535 14.959535 0 1 0-19.079408 23.041284c10.083687 8.349741 18.735418 16.507487 26.303183 24.81923-9.277712 2.211931-18.33943 4.813851-26.853166 7.889755-2.761914 0.997969-5.45983 2.049936-8.113748 3.137902-16.295494-15.313524-35.290904-28.629111-55.032291-42.406683l-0.241992-0.167995-0.179995-0.125996a14.965535 14.965535 0 0 0-16.377491-0.493985c-14.965535 9.161715-39.056787 20.085376-68.829863 20.085377-8.091749 0-16.291494-0.817975-24.365243-2.433925-8.815726-1.761945-14.553548-10.369678-12.791603-19.185404 1.761945-8.811726 10.379678-14.545548 19.183405-12.789603 14.049564 2.811913 28.295121 2.329928 42.338685-1.427955a14.961535 14.961535 0 0 0 6.175808-25.539207c-3.989876-3.613888-7.159778-6.623794-9.97969-9.475706-24.559237-24.833229-44.578616-59.054166-56.374249-96.361008a14.953536 14.953536 0 0 0-10.847664-10.053687C157.765001 174.802372 136.549659 128.213818 128.557908 101.534647c-2.57792-8.613733 2.329928-17.71745 10.93766-20.29537 8.613733-2.57792 17.71945 2.327928 20.29937 10.93966 5.281836 17.633452 13.151592 32.099003 23.395273 42.992665a14.959535 14.959535 0 0 0 25.857197-10.413676 219.513183 219.513183 0 0 1 0.233993-13.075594c1.017968-20.629359 9.02172-52.80836 24.191249-74.71768a16.191497 16.191497 0 0 1 10.485674-6.75579 16.191497 16.191497 0 0 1 12.197621 2.637918 16.197497 16.197497 0 0 1 6.75979 10.489674 16.201497 16.201497 0 0 1-2.637918 12.197621c-10.897662 15.741511-17.627453 41.506711-18.427428 57.756207-1.93394 39.242781 8.633732 82.171448 28.9931 117.778342a14.949536 14.949536 0 0 0 12.405615 7.521767 14.947536 14.947536 0 0 0 12.951598-6.537797c5.16384-7.597764 9.823695-17.303463 13.853569-28.849104 9.087718-26.045191 11.887631-53.318344 9.909693-65.753958-0.683979-4.301866 0.347989-8.611733 2.905909-12.135624s6.333803-5.841819 10.63967-6.527797a16.187497 16.187497 0 0 1 12.127623 2.90191 16.209497 16.209497 0 0 1 6.529798 10.63567c3.161902 19.883383-1.495954 53.44634-11.327649 81.621465-7.179777 20.573361-16.301494 36.810857-27.113158 48.266501a14.959535 14.959535 0 0 0 1.161964 21.643328c11.59764 9.905692 24.15125 18.98541 35.988883 27.319152a14.959535 14.959535 0 0 0 17.223465-24.461241c-7.367771-5.187839-15.007534-10.663669-22.401305-16.385491 9.205714-12.765604 17.041471-28.34912 23.385274-46.528555 11.651638-33.390963 16.609484-71.141791 12.625608-96.177013-1.93994-12.193621-8.513736-22.899289-18.507425-30.151064-9.99569-7.253775-22.21731-10.169684-34.400932-8.233744-12.193621 1.93994-22.901289 8.509736-30.151064 18.503425s-10.175684 22.21331-8.235744 34.404932c0.899972 5.661824-0.345989 24.763231-6.811788 45.71858-8.811726-23.775262-13.047595-49.26247-11.875631-73.10573 0.593982-12.065625 6.017813-31.903009 13.145591-42.198689a45.916574 45.916574 0 0 0 7.475768-34.576927 45.922574 45.922574 0 0 0-19.163405-29.735076A45.938573 45.938573 0 0 0 238.60849 0.769776a45.912574 45.912574 0 0 0-29.735076 19.163405c-11.623639 16.783479-19.3294 36.69486-23.959256 55.07229-10.157685-18.953411-32.612987-28.839104-54.000323-22.433304-24.413242 7.313773-38.32681 33.124971-31.015037 57.540213 20.881352 69.723835 65.575964 94.827055 95.119046 103.852775 11.173653 32.137002 27.873134 62.030074 48.146505 86.345319-24.46324-4.061874-48.002509 12.043626-52.898358 36.532865-4.995845 24.991224 11.26965 49.390466 36.262874 54.390311a154.5732 154.5732 0 0 0 30.231061 3.013907c31.429024 0 57.532213-9.743697 75.841645-19.551393 12.845601 9.00772 25.187218 17.911444 36.228875 27.313152a189.420118 189.420118 0 0 0-30.513052 23.553268c-30.963038-13.21759-95.683029-31.535021-162.688948 6.4478-10.699668 6.061812-16.119499 18.585423-13.181591 30.457054 5.275836 21.303338 26.39718 83.569405 94.67306 105.96271-7.107779 12.427614-16.209497 24.263247-25.673203 36.546865-9.909692 12.8656-20.155374 26.167187-28.357119 40.720735-21.969318 38.982789-33.672954 76.257632-34.78292 110.790559-1.139965 35.402901 9.777696 80.937487 27.163157 113.308482 34.938915 65.04798 94.03308 110.360573 175.636545 134.681817 49.436465 14.733542 99.626906 19.507394 143.919531 19.507394 28.781106 0 55.07629-2.017937 77.047607-4.627856 52.466371-6.233806 150.599323-27.36715 218.365219-98.886929a14.959535 14.959535 0 1 0-21.717325-20.577361c-61.290097 64.683991-151.725288 83.997391-200.177784 89.755213-52.984355 6.293805-132.233894 9.00172-208.893513-13.84557-73.691712-21.961318-126.792063-62.390062-157.825099-120.164269-14.875538-27.69514-24.587236-68.071886-23.619266-98.18895 0.95397-29.667079 11.365647-62.324065 30.943039-97.060986 7.149778-12.685606 16.303494-24.569237 25.995193-37.154846 15.011534-19.487395 30.533052-39.640769 39.156784-64.09601 21.57933-61.202099 51.220409-121.330232 121.40023-146.697444 27.461147-9.925692 68.92386-16.341493 105.630719-16.343493 36.70686 0.002 78.171572 6.417801 105.63272 16.343493 70.179821 25.365212 99.8209 85.495345 121.40023 146.697444 8.623732 24.455241 24.14525 44.608615 39.156784 64.09601 9.691699 12.585609 18.847415 24.46724 25.995192 37.154846 19.577392 34.736921 29.989069 67.393907 30.94304 97.060986 0.871973 27.077159-6.781789 62.368063-19.495395 89.905208a14.959535 14.959535 0 1 0 27.161157 12.53961c14.517549-31.441024 23.245278-72.029763 22.235309-103.406789-1.111965-34.534928-12.813602-71.80977-34.78292-110.790559-8.201745-14.551548-18.447427-27.855135-28.357119-40.720735-10.95166-14.215559-21.419335-27.829136-28.867104-42.456682 56.33825-25.935195 74.665681-80.409503 79.53153-100.050893 2.939909-11.871631-2.479923-24.395242-13.17759-30.455054-58.790174-33.324965-115.814403-23.311276-149.831347-11.425645a188.576144 188.576144 0 0 0-36.048881-24.885227c8.977721-7.127779 18.623422-14.037564 28.563113-21.005348 18.313431 9.809695 44.416621 19.551393 75.843645 19.551393 10.055688 0 20.227372-1.011969 30.235061-3.013907 24.989224-4.999845 41.254719-29.397087 36.258874-54.390311-4.897848-24.48724-28.437117-40.600739-52.898357-36.532865 20.27337-24.317245 36.972852-54.208317 48.146504-86.345319 29.543083-9.02572 74.239695-34.12694 95.121046-103.852775 7.315773-24.411242-6.597795-50.22444-31.015036-57.540213zM269.095543 540.849004c-52.81636-16.017503-71.14979-61.002106-77.127605-83.697401 49.220471-27.127158 97.082985-17.917444 124.936121-7.919754-21.681327 27.907133-36.270874 60.162132-47.808516 91.617155z m563.274508-83.697401c-5.329834 20.231372-20.463365 58.180193-61.090103 77.531593-11.805633-31.151033-26.853166-62.746051-49.020478-89.837211 28.481116-7.39777 69.025856-10.323679 110.110581 12.305618zM895.442092 101.534647c-7.991752 26.679171-29.209093 73.267725-81.539467 85.535344a14.955536 14.955536 0 0 0-10.849664 10.053687c-11.793634 37.304842-31.815012 71.525779-56.374249 96.361008-2.813913 2.845912-5.985814 5.857818-9.97969 9.475706a14.959535 14.959535 0 0 0 6.175808 25.539207c14.045564 3.759883 28.291121 4.237868 42.334686 1.427955 8.817726-1.761945 17.425459 3.977876 19.189404 12.787603 1.761945 8.817726-3.975877 17.425459-12.787603 19.187404a124.682128 124.682128 0 0 1-24.369243 2.433925c-29.775075 0-53.864327-10.923661-68.831863-20.085377-5.091842-3.115903-11.623639-2.853911-16.503487 0.581982l-0.303991 0.213994c-17.597454 12.279619-34.602925 24.199248-49.640458 37.492835-11.795634-3.919878-24.441241-7.023782-37.206845-9.425707 20.335368-21.373336 44.552616-38.31281 68.197882-54.814298 15.687513-10.94766 31.907009-22.265309 46.160567-34.44293a14.959535 14.959535 0 0 0 1.161964-21.643328c-10.811664-11.453644-19.933381-27.69114-27.113158-48.266501-9.831695-28.177125-14.48955-61.740083-11.327649-81.619465a16.199497 16.199497 0 0 1 6.529798-10.63767 16.157498 16.157498 0 0 1 12.133623-2.89991 16.203497 16.203497 0 0 1 10.635669 6.525797 16.207497 16.207497 0 0 1 2.90591 12.135623c-1.979939 12.437614 0.821974 39.708767 9.909693 65.755958 4.027875 11.541642 8.68773 21.24934 13.853569 28.849105a14.963535 14.963535 0 0 0 25.357213-0.98397c20.357368-35.604894 30.92504-78.533561 28.993099-117.778342-0.799975-16.249495-7.531766-42.014695-18.429427-57.760207a16.187497 16.187497 0 0 1-2.637918-12.193621 16.205497 16.205497 0 0 1 6.75979-10.489674 16.185497 16.185497 0 0 1 12.197621-2.637918 16.193497 16.193497 0 0 1 10.487674 6.75779c15.169529 21.90932 23.17328 54.08832 24.191249 74.71368 0.205994 4.17987 0.283991 8.579734 0.233993 13.077594a14.959535 14.959535 0 0 0 25.857197 10.413676c10.239682-10.891662 18.111438-25.357213 23.395273-42.994665 2.57792-8.609733 11.681637-13.52358 20.29337-10.93966 8.609733 2.57592 13.51958 11.679637 10.93966 20.29337z" p-id="7928"></path><path d="M369.486426 611.574808v29.819074a14.959535 14.959535 0 0 0 29.919071 0v-29.819074a14.959535 14.959535 0 0 0-29.919071 0zM624.594503 611.574808v29.819074a14.959535 14.959535 0 0 0 29.919071 0v-29.819074a14.959535 14.959535 0 0 0-29.919071 0zM612.45688 726.893227c0-55.39228-45.064601-100.45888-100.45688-100.458881s-100.45888 45.0666-100.45888 100.458881 45.0666 100.45688 100.45888 100.45688 100.45688-45.064601 100.45688-100.45688zM512 797.431036c-38.896792 0-70.541809-31.643017-70.541809-70.539809s31.645017-70.541809 70.541809-70.54181 70.539809 31.643017 70.539809 70.54181c0 38.896792-31.643017 70.539809-70.539809 70.539809zM528.125499 869.600795a18.867414 18.867414 0 0 1-16.397491 9.581702c-6.627794 0-12.643607-3.389895-16.0955-9.065718a14.957535 14.957535 0 0 0-20.553361-5.009845 14.959535 14.959535 0 0 0-5.011845 20.553362c8.923723 14.677544 24.497239 23.439272 41.658707 23.439272a48.828484 48.828484 0 0 0 42.444681-24.78123 14.959535 14.959535 0 0 0-26.045191-14.717543z" p-id="7929"></path></svg>