<?xml version="1.0" standalone="no"?><!DOCTYPE svg PUBLIC "-//W3C//DTD SVG 1.1//EN" "http://www.w3.org/Graphics/SVG/1.1/DTD/svg11.dtd"><svg t="1649680263446" class="icon" viewBox="0 0 1024 1024" version="1.1" xmlns="http://www.w3.org/2000/svg" p-id="1253" xmlns:xlink="http://www.w3.org/1999/xlink" width="200" height="200"><defs><style type="text/css">@font-face { font-family: "feedback-iconfont"; src: url("//at.alicdn.com/t/font_1031158_u69w8yhxdu.woff2?t=1630033759944") format("woff2"), url("//at.alicdn.com/t/font_1031158_u69w8yhxdu.woff?t=1630033759944") format("woff"), url("//at.alicdn.com/t/font_1031158_u69w8yhxdu.ttf?t=1630033759944") format("truetype"); }
</style></defs><path d="M944.671435 473.682946C944.671435 234.725279 750.965869 41.01151 512 41.01151 273.042333 41.01151 79.328565 234.725279 79.328565 473.682946c0 140.320883 66.799548 265.045089 170.329005 344.090674v92.862363s220.838782 162.774685 524.992446 0v-93.104331C878.007225 738.469662 944.671435 613.86439 944.671435 473.682946z" fill="#D4C4A5" p-id="1254"></path><path d="M860.220533 456.093109c0-201.809441-153.522488-382.231379-342.897239-382.231379s-398.135642 151.406294-373.43441 351.698309C163.402161 583.770143 243.374607 551.793469 302.550115 587.674439c59.757872 41.208366-96.438567 3.945307-73.053804 57.137236 44.284229 84.196631 71.29441 29.183791 79.910928 101.888997v78.409907s17.036181 13.386157 47.798916 27.621252c15.252181 7.058081 20.41553-117.022244 42.00809-111.067372 90.225323 0 60.467371 142.096681 88.154242 143.823266a376.247799 376.247799 0 0 0 67.074325-1.853721c15.539261-1.812709-3.494181-119.413215 48.27875-131.716668 73.312176-12.303453 33.772979 113.704413 51.387423 107.027739 23.027963-8.727249 46.85155-19.861875 71.351826-33.834496v-78.631369c0.024607-101.191801 134.759722-76.584895 134.759722-290.386101z" fill="#E0D4BB" p-id="1255"></path><path d="M965.177191 473.682946C965.177191 223.808015 761.883133 20.505755 512 20.505755S58.822809 223.808015 58.822809 473.682946c0 139.045425 61.96019 267.489375 170.329006 354.05237v82.900667c0 6.516729 3.096369 12.639748 8.33764 16.49893 2.399173 1.775798 59.839895 43.533718 156.233349 64.572624 88.43312 19.300017 227.978885 24.036846 390.601828-62.99368a20.509856 20.509856 0 0 0 10.83114-18.077874V827.489246C903.335934 740.926251 965.177191 612.597134 965.177191 473.682946z m-170.021419 299.523465v-55.345033h-41.011511v180.339915c-44.03816 22.564533-86.210296 38.058682-126.052978 48.139311v-161.577149h-41.011511v170.283892c-54.795479 9.313714-104.427609 8.620619-147.477391 2.796985v-173.076776h-41.011511v165.686502c-65.602012-14.842066-110.726977-39.822177-128.419343-50.837868V717.865479h-41.01151v55.632114C146.501318 695.81359 99.83432 588.74484 99.83432 473.682946 99.83432 246.413559 284.730614 61.517266 512 61.517266S924.16568 246.413559 924.16568 473.682946c0 114.922455-46.556267 221.86817-129.009908 299.523465z" fill="#6E6E96" p-id="1256"></path><path d="M487.995963 624.063952v55.68953a20.505755 20.505755 0 1 0 41.01151 0v-55.68953c0-11.327379-9.174275-20.505755-20.505755-20.505755s-20.505755 9.178376-20.505755 20.505755z" fill="#6E6E96" p-id="1257"></path><path d="M197.285871 383.806221c-3.047155-42.22135 13.353348-169.139671 126.20062-169.139672 96.23761 0 149.191673 106.834985 152.234727 149.056335 3.047155 42.22135-64.314251-23.011559-141.206732-17.470904-76.884279 5.548857-134.185561 79.77559-137.228615 37.554241zM533.580257 370.116578c-2.755974-38.169413 17.380678-151.348878 133.578591-151.348878 101.163093 0 154.359123 92.214381 157.106894 130.383794 2.755974 38.165312-66.861065-20.173562-147.128794-14.382736-80.280032 5.786724-140.800718 73.513132-143.556691 35.34782z" fill="#FFFFFF" opacity=".32" p-id="1258"></path><path d="M329.547992 396.921702m-128.066643 0a128.066644 128.066644 0 1 0 256.133287 0 128.066644 128.066644 0 1 0-256.133287 0Z" fill="#BFB195" p-id="1259"></path><path d="M676.070649 396.921702m-128.066644 0a128.066644 128.066644 0 1 0 256.133287 0 128.066644 128.066644 0 1 0-256.133287 0Z" fill="#BFB195" p-id="1260"></path><path d="M676.669417 327.177527c54.414072 0 99.813814 38.55082 110.394784 89.82341 1.529729-7.398476 2.329454-15.055325 2.329453-22.904928 0-62.255473-50.472866-112.724238-112.724237-112.724238s-112.720136 50.476967-112.720137 112.724238c0 7.849603 0.803826 15.506452 2.325353 22.904928 10.589172-51.27259 55.993015-89.82341 110.394784-89.82341zM330.126255 327.177527c54.409971 0 99.809713 38.55082 110.390682 89.82341a113.027723 113.027723 0 0 0 2.333555-22.904928c0-62.255473-50.472866-112.724238-112.724237-112.724238-62.259574 0-112.724238 50.476967-112.724238 112.724238 0 7.845502 0.803826 15.506452 2.329454 22.904928 10.585071-51.27259 55.988914-89.82341 110.394784-89.82341z" fill="#998E77" opacity=".43" p-id="1261"></path><path d="M329.547992 289.364914c28.728563 0 55.738744 11.192041 76.055846 31.509144 20.317102 20.313001 31.505042 47.327283 31.505043 76.055846 0 59.306745-48.250042 107.560888-107.560889 107.560888-59.306745 0-107.556787-48.250042-107.556787-107.560888 0-28.728563 11.18794-55.742845 31.500941-76.055846 20.313001-20.321203 47.323182-31.509143 76.055846-31.509144zM180.979694 396.921702c0 81.924593 66.643704 148.572399 148.568298 148.572399s148.572399-66.647806 148.572399-148.572399c0-39.686839-15.453137-76.990909-43.513212-105.055086s-65.372348-43.517314-105.055086-43.517313-76.990909 15.461339-105.055085 43.517313c-28.064177 28.064177-43.517314 65.372348-43.517314 105.055086zM676.070649 289.364914c59.306745 0 107.560888 48.254143 107.560888 107.56499s-48.254143 107.560888-107.560888 107.560888-107.560888-48.250042-107.560889-107.560888c0-28.728563 11.192041-55.742845 31.505043-76.055846 20.313001-20.321203 47.327283-31.509143 76.055846-31.509144z m-148.572399 107.556788c0 81.924593 66.643704 148.572399 148.572399 148.572399s148.572399-66.647806 148.572399-148.572399c0-81.928694-66.643704-148.5765-148.572399-148.5765-39.686839 0-76.990909 15.461339-105.050984 43.517313-28.064177 28.068278-43.521415 65.376449-43.521415 105.059187z" fill="#6E6E96" p-id="1262"></path><path d="M827.891159 620.783031m-53.417492 0a53.417492 53.417492 0 1 0 106.834985 0 53.417492 53.417492 0 1 0-106.834985 0Z" fill="#D4C4A5" p-id="1263"></path><path d="M773.448379 662.717301m-25.632194 0a25.632194 25.632194 0 1 0 51.264388 0 25.632194 25.632194 0 1 0-51.264388 0Z" fill="#D4C4A5" p-id="1264"></path><path d="M847.757135 566.828288m-22.01908 0a22.01908 22.01908 0 1 0 44.03816 0 22.01908 22.01908 0 1 0-44.03816 0Z" fill="#D4C4A5" p-id="1265"></path><path d="M676.046042 622.731078m-22.556331 0a22.556331 22.556331 0 1 0 45.112662 0 22.556331 22.556331 0 1 0-45.112662 0Z" fill="#D4C4A5" p-id="1266"></path></svg>