<svg xmlns="http://www.w3.org/2000/svg" viewBox="0 0 95.72 72.28"><defs><style>.cls-1{isolation:isolate;}.cls-2{fill:#a37ab5;}.cls-10,.cls-11,.cls-3,.cls-4{fill:#7f5d99;}.cls-3{opacity:0.6;}.cls-3,.cls-6{mix-blend-mode:multiply;}.cls-5,.cls-6,.cls-8{fill:#3c3c3c;}.cls-6{opacity:0.2;}.cls-7{fill:#f9b332;}.cls-10,.cls-11,.cls-8,.cls-9{mix-blend-mode:screen;}.cls-11,.cls-9{opacity:0.4;}.cls-12{fill:#f7cc2b;}</style></defs><title>资源 10</title><g class="cls-1"><g id="图层_2" data-name="图层 2"><g id="Layer_1" data-name="Layer 1"><path class="cls-2" d="M73.94,68.86c7.36-7.36-5-19.45-20.06-34.53s-27.17-27.42-34.53-20S16.71,41.35,31.79,56.42,66.57,76.22,73.94,68.86Z"/><path class="cls-3" d="M33.82,54.39C19.46,40,14.5,21.46,20.43,13.38a8.05,8.05,0,0,0-1.08.9C12,21.64,16.71,41.35,31.79,56.42s34.78,19.8,42.15,12.44a8.78,8.78,0,0,0,.89-1.08C66.75,73.72,48.18,68.75,33.82,54.39Z"/><path class="cls-4" d="M67.53,34.71c.72-1.54,5.48-2.81,5.65-3.09s-.15-1.31,0-1.46,1.59.11,1.73,0-.26-1,0-1.36,1.82.13,2.17-.26c.75-.85,1.16-7.8,2.37-9.46S96.07,17,95.71,16.53C92.05,12.25,70,7.29,67.33,8.93s-6.35,7.08-7,7c-6-1.24-12.06-.35-12.86,0a33.27,33.27,0,0,0-4.54,4.35c-1,1.15-7.69,5.33-9.7,6.91l-.22.18a1.5,1.5,0,0,0-.22.2c-3.47,3.47-.06,12.51,7.62,20.18s16.7,11.08,20.18,7.62C70.17,45.87,66.87,36.14,67.53,34.71Z"/><path class="cls-3" d="M60.55,55.41c9.62-9.54,6.32-19.27,7-20.7S73,31.9,73.18,31.62s-.15-1.31,0-1.46,1.59.11,1.73,0-.26-1,0-1.36,1.82.13,2.17-.26c.75-.85,1.16-7.8,2.37-9.46S95.24,17,95.7,16.57c-6.11-1.52-17.55-1.35-20.39-1-3.44.41-3.22,1.23-4.59,3.93s-2,2.06-3.15,3,.66,2.82-1,2.54S65,25.27,65,26.78s-3.87,1.48-5.6,3.23c-3.3,3.34,2.14,8.29-4.84,6C47.05,33.5,41.11,26.17,39,23.23c-2.2,1.5-4.68,3.14-5.78,4l-.22.18a1.5,1.5,0,0,0-.22.2c-3.47,3.47-.06,12.51,7.62,20.18S57.07,58.87,60.55,55.41Z"/><path class="cls-5" d="M48.55,39.66A36.72,36.72,0,0,1,39,23.25c-2.19,1.49-4.66,3.12-5.76,4l-.22.18a1.5,1.5,0,0,0-.22.2c-3.47,3.47-.06,12.51,7.62,20.18s16.7,11.08,20.18,7.62a24.18,24.18,0,0,0,4.58-6.1A36.8,36.8,0,0,1,48.55,39.66Z"/><path class="cls-6" d="M60.55,55.41a22,22,0,0,0,7-14.79c-2.18,9.77-12.18,15.89-25.27,5.11-8.69-7.17-10.63-12.35-10.8-15.35-.6,4.35,2.8,11.31,8.91,17.41C48.05,55.47,57.07,58.87,60.55,55.41Z"/><path class="cls-6" d="M38.38,50.47c-1.15-1.14-3.86-4.06-4.35-6.4-.66-3.1,2.44-6.33,3.41-7.25s3.77-3.36,6-2.77c2.08.56,5.18,3.5,6.42,4.73s4.45,4.64,4.78,6.58c.39,2.3-2.5,5.5-3.39,6.43C50,53.13,47.49,55.33,45.37,55,42.78,54.7,39.37,51.46,38.38,50.47Zm9.47-9.65c-2.45-2.46-4.38-3.79-5.13-4-.47,0-2.33.9-4.07,2.87-1.28,1.44-2,2.92-1.81,3.77s1.36,2.76,3.57,5,4.43,3.63,5.34,3.76c.26,0,1.28-.37,2.78-1.75,2.16-2,3.31-4.11,3.3-4.64S50.37,43.34,47.85,40.82Z"/><path class="cls-7" d="M38.38,49.46c-1.15-1.15-3.86-4.06-4.35-6.41-.65-3.09,2.44-6.33,3.41-7.24s3.77-3.37,6-2.77c2.08.55,5.18,3.49,6.42,4.73s4.45,4.63,4.78,6.58c.39,2.29-2.5,5.5-3.39,6.43C50,52.11,47.5,54.31,45.37,54,42.78,53.68,39.36,50.44,38.38,49.46Zm9.47-9.66c-2.45-2.45-4.38-3.79-5.13-4-.47,0-2.33.9-4.07,2.86-1.28,1.44-2,2.92-1.81,3.78s1.36,2.75,3.57,5,4.43,3.64,5.34,3.76c.26,0,1.28-.36,2.78-1.74,2.16-2,3.31-4.11,3.3-4.64S50.37,42.32,47.85,39.8Z"/><path class="cls-8" d="M42.78,35.29c-1,0-1.87-.4-1.86-.89s.83-.9,1.86-.9,1.87.4,1.87.9S43.82,35.29,42.78,35.29Z"/><path class="cls-8" d="M45.8,53.39c-1,0-1.87-.4-1.87-.89s.84-.9,1.87-.9,1.87.4,1.87.9S46.83,53.39,45.8,53.39Z"/><path class="cls-8" d="M40.61,36.25a1,1,0,1,1,0-1.38A1,1,0,0,1,40.61,36.25Z"/><path class="cls-8" d="M49.28,52.05a1,1,0,1,1,0-1.38A1,1,0,0,1,49.28,52.05Z"/><g class="cls-9"><polygon class="cls-10" points="95.68 16.58 95.69 16.57 95.68 16.58 95.68 16.58"/><path class="cls-10" d="M74.13,15.74c.34-.07.73-.13,1.18-.19,2.84-.32,14.27-.5,20.38,1,0,0,0,0,0,0C92.3,12.55,73,8,68.16,8.68,69,9.38,71,12,74.13,15.74Z"/></g><path class="cls-11" d="M59,30.47a4.14,4.14,0,0,1,.39-.46c1.73-1.75,5.58-1.72,5.6-3.23S64.87,24.7,66.55,25a.81.81,0,0,0,.63-.07c-2.81-2.69-6.35-8.21-6.85-9l0,0c-6-1.24-12.06-.35-12.86,0l-.09,0C47.91,17.41,56.25,28,59,30.47Z"/><path class="cls-12" d="M48.59,6.51c-5.79.4-6.11.73-6.51,6.52-.4-5.79-.72-6.12-6.51-6.52,5.79-.4,6.11-.72,6.51-6.51C42.48,5.79,42.8,6.11,48.59,6.51Z"/><path class="cls-12" d="M85.47,49.38c-5.79.4-6.11.73-6.51,6.52-.4-5.79-.72-6.12-6.51-6.52,5.79-.4,6.11-.72,6.51-6.51C79.36,48.66,79.68,49,85.47,49.38Z"/><path class="cls-12" d="M91,41.66c-3.8.26-4,.48-4.27,4.27-.26-3.79-.47-4-4.27-4.27,3.8-.26,4-.47,4.27-4.27C87,41.19,87.2,41.4,91,41.66Z"/><path class="cls-12" d="M5.52,43.77c5.79.4,6.12.72,6.52,6.51.4-5.79.72-6.11,6.51-6.51-5.79-.4-6.11-.73-6.51-6.52C11.64,43,11.31,43.37,5.52,43.77Z"/><path class="cls-12" d="M0,36c3.79.27,4,.48,4.27,4.27.26-3.79.47-4,4.27-4.27-3.8-.26-4-.47-4.27-4.26C4,35.57,3.79,35.78,0,36Z"/></g></g></g></svg>