<?xml version="1.0" standalone="no"?><!DOCTYPE svg PUBLIC "-//W3C//DTD SVG 1.1//EN" "http://www.w3.org/Graphics/SVG/1.1/DTD/svg11.dtd"><svg t="1649680087990" class="icon" viewBox="0 0 1024 1024" version="1.1" xmlns="http://www.w3.org/2000/svg" p-id="2399" xmlns:xlink="http://www.w3.org/1999/xlink" width="200" height="200"><defs><style type="text/css">@font-face { font-family: "feedback-iconfont"; src: url("//at.alicdn.com/t/font_1031158_u69w8yhxdu.woff2?t=1630033759944") format("woff2"), url("//at.alicdn.com/t/font_1031158_u69w8yhxdu.woff?t=1630033759944") format("woff"), url("//at.alicdn.com/t/font_1031158_u69w8yhxdu.ttf?t=1630033759944") format("truetype"); }
</style></defs><path d="M834.848 830.188L433.252 428.592l-0.036-0.04-110.312-110.308a30.128 30.128 0 0 0-2.224-2.012c-0.564-0.46-1.152-0.872-1.74-1.288-0.212-0.148-0.412-0.32-0.628-0.46a30.496 30.496 0 0 0-2.264-1.356c-0.084-0.048-0.16-0.1-0.244-0.144a30.82 30.82 0 0 0-2.468-1.168c-0.06-0.024-0.116-0.056-0.176-0.084a29.868 29.868 0 0 0-2.432-0.872l-0.336-0.12a29.308 29.308 0 0 0-2.336-0.584c-0.172-0.036-0.34-0.092-0.516-0.128-0.768-0.152-1.544-0.248-2.32-0.344-0.196-0.024-0.388-0.068-0.588-0.084a30.6 30.6 0 0 0-5.868 0c-0.232 0.024-0.452 0.072-0.68 0.1a27.86 27.86 0 0 0-2.224 0.332c-0.216 0.044-0.424 0.108-0.636 0.156a30.408 30.408 0 0 0-2.216 0.556c-0.16 0.048-0.316 0.116-0.476 0.168a29.404 29.404 0 0 0-2.288 0.82l-0.352 0.164a29.968 29.968 0 0 0-2.296 1.084c-0.152 0.08-0.292 0.176-0.44 0.26-0.7 0.392-1.4 0.792-2.072 1.24-0.288 0.192-0.56 0.416-0.84 0.62-0.512 0.368-1.032 0.724-1.528 1.132a31.136 31.136 0 0 0-2.232 2.016L150.376 448.36a30 30 0 0 0 0 42.424l110.308 110.308 0.048 0.048 401.584 401.584a30.016 30.016 0 0 0 42.436 0l130.1-130.104a30.008 30.008 0 0 0-0.004-42.432zM301.692 381.884l67.884 67.884-87.684 87.684-67.884-67.884 87.684-87.684z m381.832 557.2l-359.208-359.212L412 492.192l359.212 359.216-87.688 87.676z" fill="#6E6E96" opacity=".2" p-id="2400"></path><path d="M214.496 447.56l130.108-130.108 110.3 110.3L324.8 557.86z" fill="#FFFF00" p-id="2401"></path><path d="M871.752 786.188L470.156 384.592l-0.036-0.04-110.312-110.308a30.128 30.128 0 0 0-2.224-2.012c-0.564-0.46-1.152-0.872-1.74-1.288-0.212-0.148-0.412-0.32-0.628-0.46a30.496 30.496 0 0 0-2.264-1.356c-0.084-0.048-0.16-0.1-0.244-0.144a30.82 30.82 0 0 0-2.468-1.168c-0.06-0.024-0.116-0.056-0.176-0.084a29.868 29.868 0 0 0-2.432-0.872l-0.336-0.12a29.308 29.308 0 0 0-2.336-0.584c-0.172-0.036-0.34-0.092-0.516-0.128-0.768-0.152-1.544-0.248-2.32-0.344-0.196-0.024-0.388-0.068-0.588-0.084a30.6 30.6 0 0 0-5.868 0c-0.232 0.024-0.452 0.072-0.68 0.1a27.86 27.86 0 0 0-2.224 0.332c-0.216 0.044-0.424 0.108-0.636 0.156a30.408 30.408 0 0 0-2.216 0.556c-0.16 0.048-0.316 0.116-0.476 0.168a29.404 29.404 0 0 0-2.288 0.82l-0.352 0.164a29.968 29.968 0 0 0-2.296 1.084c-0.152 0.08-0.292 0.176-0.44 0.26-0.7 0.392-1.4 0.792-2.072 1.24-0.288 0.192-0.56 0.416-0.84 0.62-0.512 0.368-1.032 0.724-1.528 1.132a31.136 31.136 0 0 0-2.232 2.016L187.28 404.36a30 30 0 0 0 0 42.424l110.308 110.308 0.048 0.048 401.584 401.584a30.016 30.016 0 0 0 42.436 0l130.1-130.104a30.016 30.016 0 0 0-0.004-42.432zM338.596 337.884l67.884 67.884-87.684 87.684-67.884-67.884 87.684-87.684z m381.828 557.2l-359.208-359.212 87.684-87.684 359.212 359.216-87.688 87.68z" fill="#6E6E96" p-id="2402"></path><path d="M692.064 82.484h-60.5v-70h-60v70h-60.5v60h60.5v98h60v-98h60.5z" fill="#5BCCD4" p-id="2403"></path><path d="M212.636 155.676h-39.04V108.484h-60v47.192h-39.032v60h39.032v68.808h60V215.676h39.04z" fill="#FFC071" p-id="2404"></path></svg>