<svg xml:space="preserve" style="enable-background:new 0 0 500 500;" viewBox="0 0 500 500" y="0px" x="0px" xmlns:xlink="http://www.w3.org/1999/xlink" xmlns="http://www.w3.org/2000/svg" id="图层_1" version="1.1">
<style type="text/css">
	.st0{fill:#FFFFFF;}
	.st1{fill:#C1DEEF;}
	.st2{fill:#FF557E;}
	.st3{fill:#FCBBCB;}
	.st4{opacity:0.32;}
</style>
<g>
	<g>
		<path d="M289.27,397.81c0,0-54.72-2.05-84.38,23.01c-29.66,25.06-81.83,34.27-99.73,12.27s-3.07-83.87,58.81-77.22
			c4.09-3.07,12.79-57.79,51.14-78.76c-17.9-5.63-78.25-21.99-68.02-105.86c2.56-36.31,55.23-57.28,50.63-63.42
			s-23.53-16.37-10.74-23.01c12.79-6.65,88.99-6.65,120.69-2.56c31.71,4.09,65.46,7.16,65.97,17.39s-10.23,11.76-10.23,11.76
			s26.59,25.57,32.73,47.56s17.39,100.75-56.26,119.16c3.07,4.09,33.24,17.39,63.93,8.69c15.85-3.58,21.99-6.65,27.11-4.09
			c5.11,2.56,8.18,26.08-16.88,31.71c-25.06,5.63-42.96,17.39-70.58,10.74c1.53,8.69,12.79,34.78,10.74,43.98
			C352.18,378.37,353.2,408.03,289.27,397.81z" class="st0"></path>
	</g>
	<g>
		<g>
			<path d="M187.02,88.55c0.59-3.17,7.94-6.73,11.15-7.1c20.29-2.3,107.71-5.58,155.99,6.14
				c46.26,11.23,10.55,23.46,10.55,23.46s49.58,24.08,38.69,98.26s-97.85,79.27-140.36,74.48
				c-34.04-3.83-121.39-15.04-113.61-110.49c4.67-47.21,54.47-61.73,54.47-66.4C203.89,102.93,185.28,97.92,187.02,88.55z" class="st1"></path>
			<path d="M286.99,290.29c-10.52,0-19.16-0.72-24.54-1.33c-31.29-3.52-126.51-14.24-118.21-116.09
				c3.8-38.4,34.66-56.33,49.49-64.95c0.74-0.43,1.51-0.88,2.24-1.31c-0.26-0.16-0.52-0.32-0.76-0.47
				c-5.99-3.68-15.04-9.25-13.31-18.56c1.25-6.75,11.86-10.88,15.68-11.32c18.33-2.08,107.73-5.9,157.8,6.25
				c18.79,4.56,27.32,9.97,27.67,17.53c0.24,5.11-3.58,8.98-7.74,11.67c4.84,3.68,11.14,9.39,17.05,17.59
				c10.63,14.73,22.07,40.7,16.19,80.75c-5,34.06-26.36,58.62-61.75,71.01C325.85,288.41,303.97,290.29,286.99,290.29z
				 M192.12,89.92c0.27,2.29,5.6,5.56,8.54,7.37c4.53,2.78,8.44,5.19,8.44,9.61c0,4.14-3.39,6.11-10.14,10.03
				c-13.34,7.75-41.09,23.88-44.35,56.88c-6.7,82.18,59,99.18,109.01,104.81c13.35,1.5,47.85,3.79,79.74-7.37
				c31.96-11.19,50.43-32.28,54.89-62.7c4.28-29.13-0.43-53.59-14.01-72.69c-10.12-14.25-21.71-20.08-21.82-20.14
				c-1.88-0.93-3.03-2.91-2.9-5c0.14-2.1,1.51-3.91,3.5-4.59c4.07-1.41,8.53-4.05,9.51-5.57c-0.73-0.9-4.32-4.2-19.61-7.91
				c-48.75-11.83-136.22-8.06-154.17-6.02C197.19,86.8,193.36,88.65,192.12,89.92z M192.14,89.5
				C192.14,89.5,192.14,89.5,192.14,89.5C192.13,89.5,192.13,89.5,192.14,89.5C192.13,89.5,192.14,89.5,192.14,89.5z M187.02,88.55
				h0.01H187.02z" class="st2"></path>
		</g>
		<g>
			<path d="M366.11,331.25c-7.73,0-15.76-1.39-23.86-5.09c-2.62-1.19-3.77-4.28-2.57-6.9c1.19-2.62,4.28-3.76,6.9-2.57
				c19.11,8.72,38.46,1.81,54.01-3.74c6.05-2.16,11.28-4.03,15.9-4.77c8-1.28,16.56-12.59,16.87-19.79
				c0.09-1.99-0.45-2.83-1.25-3.27c-64.95,17.87-88.31-1.94-89.28-2.8c-2.15-1.91-2.35-5.19-0.45-7.35c1.89-2.14,5.14-2.35,7.3-0.49
				c0.45,0.37,21.66,16.93,81.17,0.18c0.87-0.25,1.79-0.26,2.67-0.04c6.72,1.68,10.55,6.99,10.23,14.22
				c-0.5,11.64-12.05,27.44-25.63,29.62c-3.67,0.59-8.48,2.3-14.05,4.29C393.46,326.55,380.3,331.25,366.11,331.25z" class="st2"></path>
		</g>
		<g>
			<path d="M202.02,419.22c-9.15,0-16.87-2.69-23.05-8.03c-15.36-13.3-14.95-38.28-14.85-41.17
				c-1.29-36.94,12.31-61.25,23.96-75.14c12.73-15.18,25.81-21.5,26.37-21.76c2.6-1.23,5.7-0.13,6.93,2.47
				c1.23,2.59,0.13,5.69-2.46,6.93c-0.16,0.08-11.92,5.85-23.18,19.43c-15.05,18.15-22.19,41-21.21,67.9c0.01,0.15,0,0.29,0,0.44
				c-0.01,0.22-0.87,22.58,11.28,33.06c5.91,5.1,14.29,6.63,24.9,4.57c18.46-3.59,28.13-7.79,35.89-11.16
				c10.91-4.74,18.8-8.16,40-5.08c5.17,0.75,6.96-0.22,7.12-0.5c0.37-0.62,0.11-4.01-3.98-9.45c-7.24-9.65-25.52-23.19-43.72-18.49
				c-2.78,0.72-5.62-0.95-6.34-3.74s0.95-5.62,3.74-6.34c10.05-2.6,21.11-1.21,31.99,4.03c8.88,4.28,17.14,10.94,22.66,18.29
				c6.15,8.19,7.79,15.65,4.61,21.01c-2,3.38-6.68,7.07-17.57,5.49c-18.27-2.66-23.98-0.18-34.35,4.33
				c-7.8,3.39-18.47,8.02-38.05,11.83C208.95,418.86,205.39,419.22,202.02,419.22z" class="st2"></path>
		</g>
		<g>
			<path d="M329.45,403.27c-2.59,0-4.83-1.93-5.16-4.57c-0.35-2.85,1.67-5.45,4.53-5.8
				c10.62-1.31,17.52-5.23,21.09-11.97c4.7-8.87,2.84-21.31,0.45-30.19c-2.73-10.16-6.79-18.13-6.83-18.21
				c-1.31-2.56-0.31-5.69,2.25-7.01c2.55-1.31,5.69-0.31,7.01,2.24c0.75,1.45,18.13,35.71,6.34,58.01
				c-5.2,9.84-14.97,15.71-29.02,17.45C329.88,403.26,329.66,403.27,329.45,403.27z" class="st2"></path>
		</g>
		<g>
			<path d="M313.26,387.07c-0.11,0-0.21,0-0.32-0.01c-2.87-0.17-5.05-2.64-4.88-5.51c1.34-22.12,18.66-41.6,19.4-42.42
				c1.92-2.14,5.21-2.31,7.35-0.39c2.13,1.92,2.31,5.21,0.39,7.35l0,0c-0.16,0.17-15.63,17.64-16.75,36.09
				C318.28,384.94,315.99,387.07,313.26,387.07z" class="st2"></path>
		</g>
		<g>
			<path d="M167.76,354.05c0,0-25.68-14.82-56.3,21.73s-10.86,108.65,118.53,29.63c55.31-28.64-18.77-62.23-47.41-19.75
				s-51.36,15.8-51.36,15.8" class="st0"></path>
		</g>
		<g>
			<path d="M295.92,109.08c-56.9,0-82.79-9.16-84.17-9.66c-2.7-0.99-4.09-3.97-3.1-6.67c0.98-2.7,3.97-4.09,6.66-3.11
				l0,0c0.42,0.15,42.88,14.97,138.13,6.24c2.86-0.26,5.39,1.85,5.66,4.71s-1.85,5.4-4.71,5.66
				C332.12,108.29,312.67,109.08,295.92,109.08z" class="st2"></path>
		</g>
		<g>
			<path d="M235.16,135.75c0,0-46.08,15.73-44.95,61.06c1.12,45.33,34.84,72.3,99.64,71.17s82.04-38.96,74.17-78.67
				c-9.36-24.35-16.86-40.83-16.86-40.83s-1.87-52.44-10.86-52.44s-20.6,39.33-20.6,39.33s-30.72-3-33.34-3
				c-2.62,0-4.12-41.21-16.48-39.71C253.51,94.17,235.16,135.75,235.16,135.75z" class="st0"></path>
		</g>
		<g>
			<ellipse ry="10.81" rx="9.04" cy="186.25" cx="257.65" class="st2"></ellipse>
		</g>
		<g>
			<path d="M296.07,218.23c0,0-4.21,33.92-17.66,29.81c-13.46-4.11,0.56-30.37,0.56-30.37s8.8-2.25,9.39-5.42
				C288.95,209.08,296.07,218.23,296.07,218.23z" class="st3"></path>
		</g>
		<g>
			
				<ellipse ry="8.28" rx="10.87" cy="190.95" cx="318.74" class="st2" transform="matrix(0.2179 -0.976 0.976 0.2179 62.9261 460.4218)"></ellipse>
		</g>
		<g>
			<ellipse ry="4.5" rx="4.71" cy="207.76" cx="288.85" class="st2"></ellipse>
		</g>
		<g>
			<path d="M277.68,218.57c-1.96,0-3.84-0.22-5.38-0.54c-1.41-0.29-2.31-1.67-2.02-3.08c0.29-1.41,1.68-2.31,3.07-2.02
				l0,0c0.11,0.02,10.7,2.02,12.23-3.23c0.4-1.38,1.85-2.18,3.23-1.77c1.38,0.4,2.17,1.85,1.77,3.23
				C288.9,216.94,282.98,218.57,277.68,218.57z" class="st2"></path>
		</g>
		<g>
			<path d="M300.38,221.43c-2.2,0-6.95-0.4-10.25-3.54c-2.4-2.29-3.51-5.45-3.33-9.41c0.07-1.44,1.27-2.55,2.72-2.47
				c1.44,0.07,2.54,1.29,2.47,2.72c-0.12,2.41,0.44,4.17,1.71,5.38c2.58,2.48,7.32,2.09,7.37,2.09c1.42-0.12,2.69,0.93,2.82,2.36
				c0.13,1.43-0.91,2.69-2.34,2.83C301.5,221.39,301.07,221.43,300.38,221.43z" class="st2"></path>
		</g>
		<g>
			<path d="M280.61,250.98c-0.88,0-1.77-0.12-2.66-0.37c-1.07-0.11-3.62-0.64-5.61-3.27
				c-3.06-4.05-3.17-11.07-0.34-20.85c0.01-0.04,0.02-0.08,0.04-0.11c2.55-7.5,5.19-10.83,5.3-10.97c0.9-1.12,2.54-1.3,3.66-0.4
				c1.12,0.9,1.3,2.54,0.4,3.66c-0.01,0.02-2.2,2.85-4.41,9.32c-3.01,10.43-1.65,14.57-0.57,16.1c0.87,1.23,1.94,1.33,2.06,1.34
				c0.26,0.02,0.45,0.04,0.7,0.11c1.42,0.44,2.67,0.26,3.93-0.55c6.26-4.06,9.62-20.93,10.39-27.09c0.18-1.42,1.48-2.44,2.9-2.26
				c1.43,0.18,2.44,1.48,2.26,2.9c-0.31,2.51-3.31,24.71-12.72,30.81C284.27,250.44,282.47,250.98,280.61,250.98z" class="st2"></path>
		</g>
		<g>
			<g>
				<path d="M235.02,145.22c-0.71,0-1.44-0.15-2.13-0.46c-2.62-1.18-3.79-4.26-2.61-6.88
					c0.22-0.49,5.46-12.07,12.26-23.81c13.35-23.04,20.68-25.77,25.57-25.57c10.39,0.42,14.03,14.89,15.86,25.74
					c1.82,10.79,2.14,21.33,2.16,21.77c0.08,2.87-2.18,5.27-5.05,5.35c-2.88,0.06-5.27-2.18-5.35-5.05c0-0.09-0.29-9.42-1.8-19.03
					c-2.41-15.37-5.75-18.05-6.24-18.37c-0.73,0.22-5.79,2.35-16.54,21.07c-6.33,11.03-11.32,22.05-11.37,22.16
					C238.9,144.08,237.01,145.22,235.02,145.22z" class="st2"></path>
			</g>
			<g>
				<path d="M345.38,164.14c-0.49,0-0.98-0.07-1.47-0.21c-2.76-0.81-4.33-3.7-3.52-6.46c0.79-2.69,0.93-15.4-0.64-30
					c-1.63-15.23-4.02-22.85-5.58-26.06c-3.45,5.08-8.82,20.23-12.46,35.61c-0.66,2.8-3.46,4.53-6.26,3.87
					c-2.8-0.66-4.53-3.46-3.87-6.26c0.09-0.4,2.34-9.87,5.63-19.83c6.45-19.58,11.1-23.48,14.79-24.71
					c2.65-0.88,5.44-0.33,7.65,1.51c11.2,9.33,13.21,60.34,10.71,68.81C349.71,162.67,347.63,164.14,345.38,164.14z" class="st2"></path>
			</g>
			<g>
				<path d="M278.91,275.84c-2.22,0-4.45-0.06-6.69-0.17c-20.01-1.03-38.38-6.57-53.13-16.04
					c-21.18-13.59-32.92-34.41-33.06-58.63c-0.11-18.06,4.09-42.91,24.67-58.76c12.42-9.56,24.92-11.18,25.45-11.25
					c2.84-0.34,5.45,1.68,5.8,4.54c0.35,2.85-1.68,5.44-4.52,5.79c-1.77,0.23-41.3,6.06-40.98,59.62
					c0.16,26.37,15.46,41.71,28.27,49.93c27.04,17.35,68.29,19.37,100.31,4.92c18.75-8.47,30.33-20.5,34.41-35.75
					c6-22.45-5.38-49.18-16.95-65.25c-1.68-2.33-1.15-5.58,1.18-7.26c2.33-1.68,5.58-1.15,7.26,1.18
					c13.52,18.78,25.49,48.08,18.55,74.02c-4.93,18.42-18.45,32.74-40.18,42.55C313.9,272.23,296.6,275.84,278.91,275.84z" class="st2"></path>
			</g>
			<g>
				<path d="M314.9,141.72c-1.02,0-2.05-0.3-2.95-0.92c-3.18-1.36-19.17-1.9-32.29-1.54c-0.05,0-0.1,0-0.14,0
					c-2.81,0-5.12-2.24-5.2-5.06c-0.08-2.87,2.19-5.27,5.06-5.34c21.9-0.6,34.93,0.59,38.72,3.55c2.27,1.76,2.68,5.03,0.91,7.3
					C317.98,141.03,316.45,141.72,314.9,141.72z M311.71,140.62C311.71,140.63,311.71,140.63,311.71,140.62
					C311.71,140.63,311.71,140.63,311.71,140.62z" class="st2"></path>
			</g>
			<g>
				<path d="M256.59,139.26c-0.39,0-0.79-0.04-1.19-0.14c-2.8-0.66-4.54-3.46-3.88-6.25
					c2.29-9.8,9.79-23.48,10.11-24.06c1.39-2.52,4.55-3.43,7.07-2.05c2.52,1.39,3.43,4.55,2.05,7.07
					c-0.07,0.13-7.13,13.01-9.09,21.41C261.09,137.64,258.95,139.26,256.59,139.26z" class="st2"></path>
			</g>
			<g>
				<path d="M333.79,147.3c-2.74,0-5.03-2.14-5.19-4.9l-0.98-16.85c-0.17-2.87,2.02-5.33,4.89-5.5
					c2.89-0.18,5.33,2.02,5.5,4.89l0.98,16.85c0.17,2.87-2.02,5.33-4.89,5.5C334,147.29,333.9,147.3,333.79,147.3z" class="st2"></path>
			</g>
		</g>
		<g>
			<path d="M274.63,298.38c0,0,68.54,6.85,83.49,0c14.95-6.85,22.43,19.32,5.61,24.3
				c-16.82,4.98-79.75,6.85-104.05,10.59" class="st0"></path>
		</g>
		<g>
			<path d="M259.67,338.47c-2.52,0-4.74-1.84-5.14-4.41c-0.44-2.84,1.51-5.5,4.35-5.93c10.41-1.6,27.29-2.83,45.16-4.14
				c22.96-1.67,48.98-3.57,58.2-6.3c4-1.18,5.31-3.93,5.71-6.02c0.6-3.14-0.53-6.73-2.61-8.37c-0.87-0.68-2.34-1.44-5.06-0.19
				c-2.59,1.19-10.49,4.8-49.75,3.04c-18.93-0.85-36.25-2.57-36.42-2.59c-2.86-0.29-4.95-2.84-4.66-5.7s2.83-4.95,5.7-4.66
				c25.96,2.59,70.85,5.01,80.8,0.45c5.6-2.57,11.36-2.03,15.82,1.46c5.17,4.05,7.75,11.49,6.42,18.51
				c-1.31,6.88-6.04,12-12.98,14.05c-10.3,3.05-35.77,4.91-60.4,6.7c-17.66,1.29-34.34,2.5-44.34,4.04
				C260.2,338.45,259.93,338.47,259.67,338.47z" class="st2"></path>
		</g>
		<g>
			<path d="M135.97,446.18c-18.29,0-28.41-6.84-33.87-13.18c-13.11-15.23-10.8-41.27,5.37-60.57
				c33.04-39.44,61.69-23.59,62.89-22.9c2.49,1.44,3.34,4.62,1.91,7.11c-1.43,2.48-4.59,3.34-7.07,1.93
				c-1-0.55-22.64-11.81-49.75,20.54c-12.72,15.19-15.12,35.87-5.46,47.09c6.92,8.04,19.4,11.09,36.08,8.84
				c21.63-2.92,48.95-14.39,81.21-34.09c0.1-0.06,0.21-0.12,0.32-0.18c11.37-5.89,17.77-12.62,17.12-18.01
				c-0.56-4.6-6.38-9-14.48-10.96c-13.72-3.3-32.44,0.59-43.34,16.75c-11.3,16.76-23.38,25.62-35.88,26.32
				c-14.35,0.82-23.38-9.61-23.76-10.05c-1.86-2.19-1.6-5.47,0.59-7.34c2.19-1.86,5.47-1.6,7.34,0.59c0.23,0.26,6.22,6.98,15.37,6.4
				c8.92-0.56,18.5-8.08,27.71-21.74c13.69-20.29,37.18-25.19,54.4-21.05c12.69,3.06,21.27,10.65,22.38,19.82
				c0.87,7.18-2.33,17.93-22.5,28.43c-33.43,20.4-62.06,32.32-85.08,35.42C143.31,445.93,139.49,446.18,135.97,446.18z" class="st2"></path>
		</g>
		<g class="st4">
			<path d="M187.02,88.55c0.59-3.17,7.94-6.73,11.15-7.1c20.29-2.3,107.71-5.58,155.99,6.14
				c46.26,11.23,10.55,23.46,10.55,23.46s49.58,24.08,38.69,98.26s-97.85,79.27-140.36,74.48
				c-34.04-3.83-121.39-15.04-113.61-110.49c4.67-47.21,54.47-61.73,54.47-66.4C203.89,102.93,185.28,97.92,187.02,88.55z" class="st1"></path>
			<path d="M286.99,290.29c-10.52,0-19.16-0.72-24.54-1.33c-31.29-3.52-126.51-14.24-118.21-116.09
				c3.8-38.4,34.66-56.33,49.49-64.95c0.74-0.43,1.51-0.88,2.24-1.31c-0.26-0.16-0.52-0.32-0.76-0.47
				c-5.99-3.68-15.04-9.25-13.31-18.56c1.25-6.75,11.86-10.88,15.68-11.32c18.33-2.08,107.73-5.9,157.8,6.25
				c18.79,4.56,27.32,9.97,27.67,17.53c0.24,5.11-3.58,8.98-7.74,11.67c4.84,3.68,11.14,9.39,17.05,17.59
				c10.63,14.73,22.07,40.7,16.19,80.75c-5,34.06-26.36,58.62-61.75,71.01C325.85,288.41,303.97,290.29,286.99,290.29z
				 M192.12,89.92c0.27,2.29,5.6,5.56,8.54,7.37c4.53,2.78,8.44,5.19,8.44,9.61c0,4.14-3.39,6.11-10.14,10.03
				c-13.34,7.75-41.09,23.88-44.35,56.88c-6.7,82.18,59,99.18,109.01,104.81c13.35,1.5,47.85,3.79,79.74-7.37
				c31.96-11.19,50.43-32.28,54.89-62.7c4.28-29.13-0.43-53.59-14.01-72.69c-10.12-14.25-21.71-20.08-21.82-20.14
				c-1.88-0.93-3.03-2.91-2.9-5c0.14-2.1,1.51-3.91,3.5-4.59c4.07-1.41,8.53-4.05,9.51-5.57c-0.73-0.9-4.32-4.2-19.61-7.91
				c-48.75-11.83-136.22-8.06-154.17-6.02C197.19,86.8,193.36,88.65,192.12,89.92z M192.14,89.5
				C192.14,89.5,192.14,89.5,192.14,89.5C192.13,89.5,192.13,89.5,192.14,89.5C192.13,89.5,192.14,89.5,192.14,89.5z M187.02,88.55
				h0.01H187.02z" class="st2"></path>
		</g>
	</g>
</g>
</svg>
