<?xml version="1.0" encoding="utf-8"?>
<!-- Generator: Adobe Illustrator 25.2.3, SVG Export Plug-In . SVG Version: 6.00 Build 0)  -->
<svg version="1.1" id="_12" xmlns="http://www.w3.org/2000/svg" xmlns:xlink="http://www.w3.org/1999/xlink" x="0px" y="0px"
	 viewBox="0 0 1024 1024" style="enable-background:new 0 0 1024 1024;" xml:space="preserve">
<style type="text/css">
	.st0{fill:#F7E3C7;}
	.st1{fill:#FEFEFD;}
	.st2{fill:#D8E2BF;}
	.st3{fill:#FDFAF7;}
	.st4{fill:#FEFEFE;}
	.st5{fill:#FEFDFD;}
	.st6{fill:#F6F4F1;}
	.st7{fill:#EE76A5;}
	.st8{fill:#96B252;}
	.st9{fill:#D75E59;}
	.st10{fill:#97B354;}
	.st11{fill:#FAE34D;}
	.st12{fill:#A0B961;}
	.st13{fill:#EDE5D9;}
	.st14{fill:#D65B56;}
	.st15{fill:#95CFF8;}
</style>
<g>
	<path class="st0" d="M277.2,597c0-2.1,0-4.2,0-6.2c2.2-5.4,2.7-10.8,1.8-16.8c-1.2-8.8,0.2-17.8,3.2-26c3.2-8.5,7-16.7,8.7-25.7
		c2.5-0.3,2.5-2,2.4-3.8c1.3-2.9,5.1-4.2,5.1-8.1c0-5.2,3.2-9.7,5.5-13.8c4.7-8.2,3.8-15.4-0.5-23c0.6-2.7-1.4-4.3-2.5-6.2
		c-1-6.2-0.1-13-4.5-18.4c-0.2-0.2,0-0.8,0-1.2c1.4-6.6-0.1-13.3,0.5-20.1c0.8-9.5,3.8-18.1,7.6-26.6c1.5-3.3,3.8-6.2,9.2-5.3
		c3.5,0.6,6.2,3,9.7,2.9c2,3.9,4.1,7.6,8.8,8.8c5.5,6.9,13,10.7,21,13.6c2.7,5,8.1,4.6,12.4,6.3c0.2,2.1,1.4,3.3,3.3,4.1
		c8,3.6,15,9.4,24.3,9.8c0.9,1.4,2.3,1.2,3.7,1.2c0.3,2.3,2,2.4,3.8,2.5c0.1,1.6,1,2.4,2.6,2.3c0.9,1.5,2.3,1.3,3.7,1.1
		c0.8,0.1,1.7,0.1,2.5,0.2c0.5,1,1.4,1.3,2.4,1.3l0,0c1,3.8,4,2,6.3,2.4c3.9-1,4.9,4.7,8.7,3.8c3.3,1.3,6.6,2.5,10,3.8
		c2.1,0.4,4.2,0.8,6.3,1.2c1.3,1.8,3.3,1.1,5,1.3c0,0.4,0.1,0.8,0.1,1.2c3.3,4,8.1,3,12.4,3.6c1.7,0.1,3.3,0.1,5,0.2
		c0.5,1,1.4,1.3,2.4,1.4c0,0.4,0,0.8,0.1,1.1c1.6,2.7,3.6,3.4,6.2,1.3c2.5,0.4,4.9,1.7,7.5,1.2c3.7,1.6,7.5,3.3,11.2,4.9
		c0.8,0,1.7,0,2.5,0.1c4.4,1.6,8.9,2.7,13.7,2.4c1.3,0,2.5,0.1,3.8,0.1c4,1.8,8.2,2.2,12.5,2.4c1.3,0,2.5,0.1,3.8,0.1
		c1.8,2.1,4.1,1,6.2,1.2c0.8,0,1.7,0,2.5,0.1c3.6,1.4,7.2,3.6,11.2,1.4c1.7,0.4,3.3,0.7,5,1.1c3.5,1.7,7.2,2.6,11.2,2.4
		c2.1,0,4.2,0.1,6.3,0.1c3.2,1.2,6.3,3.3,10,1.4c2.1,0.4,4.2,0.8,6.3,1.2c3.5,2,7.4,1.8,11.2,2.4c2.1,0.1,4.2,0.1,6.2,0.2
		c3.5,2,7.2,2.8,11.2,2.4c2.1-0.1,4.5,1,6.2-1.1c4.3-0.8,8.3,1.6,12.5,1.1c1.7,0,3.3,0.1,5,0.1c4.2,2.5,8.3,2.4,12.5-0.1
		c1.7,0,3.3,0.1,5,0.1c3.7,0.9,7.4,4.7,11.1,0c2.5,0,5.1,0,7.6,0c3.3-0.3,6.7-0.5,10-1c0.6-0.1,0.9-1.7,1.3-2.6c1.2,0,2.4,0,3.6,0
		c5.2,0,9.9-1.5,13.8-5c0.4,0,0.8,0,1.2-0.1c2.1-0.5,4.2-0.9,6.3-1.4c1.3,0,2.5,0.1,3.8,0.1c2.9,3.7-0.8,7.6,0.2,11.4
		c0,2.1-0.1,4.2-0.1,6.3c-1.7,3.6-2.6,7.2-2.4,11.2c-3.1,4.5-3.1,11-8.9,13.8c-1.7,0.7-2.5,1.9-2.4,3.7c-1.3,1.6-4,2.1-3.9,4.9
		c-2.8,0.6-4.5,2.2-5,5.1c-1,0-1.9,0.3-2.4,1.3c-1.6,0-2.4,0.8-2.6,2.4c-0.4,0-0.8,0-1.2,0.1c-1.6,0-2.4,0.9-2.5,2.4
		c-0.4,0-0.8,0.1-1.2,0.1c-1.6,0-2.4,0.8-2.5,2.4c-0.4,0.8-0.9,1.6-1.3,2.4c-2.8,0.6-4.5,2.2-5,5.1c-1,0-1.9,0.3-2.4,1.3
		c-1.6,0-2.5,0.8-2.6,2.4c-0.4,0-0.8,0-1.2,0.1c-5,2-1.2,4.1,0,6.2c-0.4,2.1-0.8,4.2-1.1,6.3c-1.7,3.5-2.6,7.2-2.4,11.2
		c-1,3.1,2.4,4.8,2.4,7.5c-1.5,3.6-3.6,7.1-1.4,11.2c-0.4,1.7-0.7,3.3-1.1,5c-1.7,3.5-2.6,7.2-2.4,11.2c0,2.1-0.1,4.2-0.1,6.3
		c-1.7,3.5-2.6,7.3-2.4,11.2c0,0.8,0,1.7-0.1,2.5c-2.4,1.1-3.6,2.9-4,5.6c-0.6,4-1.5,7.9-2.3,11.8c-1.6,2.3-1.4,4.8-1.3,7.4
		c-3.9,1.7-7.2,3.7-5,8.9c0.1,2.1-1.7,3.3-2.5,5c-2.5,0.2-2.5,2-2.4,3.8l-0.1,0.1c-5.5,0.7-3.2,5.8-5,8.6c-0.1,0.4-0.1,0.7-0.1,1.1
		c-1.5,0.2-2.4,1.1-2.4,2.6c-0.4,0.8-0.9,1.6-1.3,2.4c-4.9,2.2-7.8,6-8.6,11.3c-2.5,3.3-5.1,6.6-7.6,9.9c-3.4,0.8-5.4,2.9-6.3,6.3
		c-3.8,0.4-4.7,3.6-6.1,6.3c-1.6,0-2.5,0.8-2.4,2.5l-0.1,0.1c-2.7-0.2-4.8,0.5-5.1,3.6c-0.8,0.4-1.6,0.9-2.5,1.3
		c-1.6,0-2.4,0.9-2.6,2.4c-0.4,0-0.8,0.1-1.2,0.1c-2.4,0-5-0.5-6.2,2.4c-1.3,0.9-2.5,1.7-3.8,2.6c-4.1,2-8.2,4.1-12.4,6.1
		c-1.6,0.8-2.6,2-2.7,3.7c-3.8,1.5-8.7,0.5-11.1,5.1c-3.2-0.2-6.2,0.4-8.7,2.5c-1.1,0-2,0.3-2.5,1.3c-4.3-0.6-8.4,0.5-12.5,1.3
		c-2.6-0.3-5.2-0.5-7.5,1.2c-5,0-10.4-4.3-15,1.2c-0.8,0-1.7,0-2.5,0c-4.9-2.6-10-3.2-15.5-1.7c-4.8,1.3-9.4,0.2-13.7-2.1
		c-1.9-1-3.5-3.8-5.8-1.4c-2,2-3.8,4.6-1.2,7.6c0,2.5,0,5,0,7.5c1.3,4.2-3.1,8.3,0,12.5c0,1.2,0,2.5,0,3.7c0.9,5.1-1.7,9.9-1,15
		c0,1.3-0.1,2.5-0.1,3.8c-1.2,3.2-3.3,6.3-1.4,10c-0.8,2.5-1.7,5-2.5,7.4c-4.7,2.2-9.6,3.8-15,3.8c-1.2,0-2.5,0-3.7,0
		c-4.2-0.8-8.3-1.6-12.5-2.5c-1.6-2.1-3.8-2.6-6.3-2.5c-3-1.9-6.5-2-10-2.4c-2.5,0-5-0.1-7.5-0.1c-3.3-1.3-6.6-2.6-9.9-3.9
		c-1.6-0.8-3.2-1.4-5-1.1c-0.5-1-1.4-1.2-2.5-1.2c-0.8-0.5-1.6-0.9-2.5-1.4c-1.1-3.9-5.1-2.2-7.5-3.8l0,0c-0.1-1.6-0.9-2.4-2.6-2.4
		c-0.8-0.9-1.7-1.7-2.5-2.6c-0.5-3.3-0.9-6.7-1.4-10c0-1.7,0.1-3.3,0.1-5c2-3,1.9-6.6,2.4-10c1-1.5,1.7-3,1.5-4.9
		c3.7-1,1.9-4.1,2.4-6.4l0,0c3.2-0.2,3.9-2.2,3.6-5c0.4-2.1-0.6-4.5,1.4-6.2c4.9-3.9,4.2-9.9,5.7-15.1c0.1-0.2-1.3-0.8-1.9-1.2
		c0-1.4,0.2-2.8-1.2-3.7c-0.6-3.2-3-2.3-5.1-2.2c-1.3-0.5-2.5-1-3.8-1.5c-3.4-2.6-6.5-5.8-11.2-6.1c-1.2-0.5-2.5-1-3.7-1.5
		c-0.9-3.9-4.1-1.9-6.3-2.5l0,0c-0.2-3.2-2.3-3.9-5-3.7c-7.7-6.3-15.8-12.3-23.2-19c-8.8-8-16.6-17.1-24.6-25.9
		c-8.1-9-13.1-19.1-19-29.1c-7.2-12.1-7.8-25.3-9.3-38.5c-0.2-1.8-0.3-3.4-2.5-3.5c0-0.8,0-1.7,0-2.5
		C277.7,604.5,281.5,600.7,277.2,597z"/>
	<path class="st1" d="M277.2,539.6c2.2-0.2,2.6-1.7,2.5-3.5c-0.5-5.5,3.5-9.1,5.6-13.4c1.1-2.3,3.6-2.6,5.7-0.4
		c-1.7,9-5.5,17.2-8.7,25.7c-3.1,8.2-4.5,17.2-3.2,26c0.8,6,0.3,11.4-1.8,16.8C277.2,573.7,277.2,556.7,277.2,539.6z"/>
	<path class="st2" d="M790,407.2c3.8-2.8,7.5,0.6,11.2,0.2c0,1.7,0,3.3,0,5c-1.8-0.1-2.5,0.9-2.5,2.5c0,2.8-0.1,5.7-0.1,8.5
		c-2.2,1.7-4.5,3.4-5.1,6.4c-0.9-0.1-1.8-0.2-2.7-0.3c0.8-2.3,1.7-4.5,3.3-6.5C799,416.4,797.2,409.9,790,407.2z"/>
	<path class="st3" d="M465.6,831.5c1.8,5.7-5.8,3.7-6.2,7.5c-2.9,0-5.8,0-8.7,0c0-1.2,0-2.5,0-3.7
		C455.9,835.4,460.8,833.8,465.6,831.5z"/>
	<path class="st2" d="M465.4,203.8c-0.8-4,2.9-5.6,4.7-8.2c0.7-1,1.8-1.6,1.7-3c1.7,0,3.3,0,5,0c0.8,0.9,1.6,1.7,2.4,2.6
		C472.6,195,469.8,200.6,465.4,203.8z"/>
	<path class="st3" d="M444.4,839.1c-0.3-3-2.7-2.3-4.6-2.5c-2.4-0.3-4.9-0.6-5.4-3.7c4.2,0.8,8.3,1.6,12.5,2.4c0,1.2,0,2.5,0,3.7
		C446,839.1,445.2,839.1,444.4,839.1z"/>
	<path class="st4" d="M277.2,597c4.4,3.7,0.6,7.5,0,11.2C277.2,604.5,277.2,600.7,277.2,597z"/>
	<path class="st4" d="M446.9,839.1c0-1.2,0-2.5,0-3.7c1.2,0,2.5,0,3.7,0c0,1.2,0,2.5,0,3.7C449.4,839.1,448.1,839.1,446.9,839.1z"/>
	<path class="st5" d="M798.7,414.8c0-1.6,0.7-2.6,2.5-2.5c0,0.8,0,1.7,0,2.5C800.4,414.8,799.6,414.8,798.7,414.8z"/>
	<path class="st4" d="M443.1,460.9c-2.1-0.4-4.2-0.8-6.3-1.2c-1.9-5.1-5.3-6.1-10-3.8c-3.9,0.9-4.8-4.8-8.7-3.8
		c-0.9-3.9-4.1-1.9-6.3-2.4c0,0,0,0,0,0c-0.2-1.6-0.4-3.2-2.4-1.3c-0.8-0.1-1.7-0.1-2.5-0.2c-0.6-2.5-1.8-3-3.7-1.1
		c-1.6,0-2.5-0.7-2.6-2.3c-0.1-2.7-1.9-2.6-3.8-2.5c-1.4,0-2.8,0.2-3.7-1.2c0.1-1.9,1.4-2.6,3.1-2.9c5.1-0.3,9,2.4,13.1,4.8
		c1.7,4.8,5.8,2.5,9,2.9c3.3,0.8,6.5,1.7,9.8,2.5c0.7,3.5,2.4,5.4,6.2,3.8c2.4-0.5,4.5,0.7,6.7,1c1.3-0.2,4.1,0.9,2-2.3
		c1-4.5,4.3-7.2,7.5-10c0.8,0,1.7,0,2.5,0c0.4,0.4,0.8,0.8,1.2,1.2c-0.4,2-1.4,3.7-3,4.9c-4.6,1.4-3.3,5.2-3,8.3
		c0.3,3,3.1,3.8,5.5,4.1c2.6,0.4,5.4,0.1,8,0.2c0.4,0.6,0.9,1.1,1.3,1.7c3.9,4.6,8.9,2.6,13.6,2.3c1.7,0,3.4-0.2,5,0.8
		c0.2,2.3,1.4,2.9,3.5,2.3c1.6,1.1,3.4,1.5,5.3,1.5c0.7,1.2,1.8,1.3,3,0.8c1.9,0.1,3.8,0.3,5.8,0.4c1.7,1.9,2.3,0.9,2.6-0.9
		c0.3-1.3,0.6-2.6,0.9-3.9c0.5,0,1,0,1.5-0.1c0.6,0.1,1.3,0.1,1.9,0.2c2.5,3.9,5.1,7.8,10.6,7.3c2.9,3.1,6.5,2.7,10.1,2.1
		c2,0.1,4.1,0.3,6.1,0.4c0.5,1.1,1.4,1.2,2.4,1.4c0.3,1.7,0.7,3.1,2.6,1.1c1.6-0.1,3.4,0.6,4.8-0.8c2.6,0.3,5.2,0.6,7.7,1
		c0.7,1.1,1.7,1.1,2.7,0.6c0.7,0.1,1.5,0.2,2.2,0.3c1.3,2.2,3.2,1.5,5.1,1.2c0.8,0.1,1.6,0.1,2.4,0.2c1.4,2,2.6,1.6,3.8-0.3
		c1.8-0.8,3.7-1.5,4.9-3.3c0.2-0.1,0.5-0.2,0.5-0.3c0-0.3-0.1-0.7-0.2-1c-0.3-1.6,0.1-3,1.5-4c1.2,0.2,2.4,0.3,3.6,0.5
		c-0.1,1.6-0.2,3.2-0.3,4.8c-1.9,2.1-2.4,4,0.9,5.2c0.4,0.2,0.8,0.4,1.3,0.6c1,2,2.3,2.3,4,0.7c2.5,0.3,5,0.6,7.5,0.9
		c2.7,1.8,5.4,3.3,8.7,1.6c2.9,0.3,5.8,0.7,8.7,1c0.7,1.3,1.8,1.4,3,0.8c0.7,0.1,1.3,0.2,2,0.2c0.7,1.5,1.8,1.6,3.1,0.8
		c0.8-0.1,1.5-0.2,2.3-0.3c0.7-0.5,1.4-1,2.1-1.5c3.9-0.8,7,5.1,11.2,1.4c3.9-0.5,7.5,0.8,11.3,1.3c1.4,3.7,3.7,2.8,6.2,1.2
		c4.3,0.8,8.2-2.1,12.5-1.2c0.6,2.6,1.8,3,3.7,1.1c0.8,0,1.7,0,2.5,0.1c1.8,1.8,2.2,0.4,2.5-1.1c3.3-1.1,6.6-0.3,9.9-0.3
		c2.3,2.3,3.6,0.1,5-1.2c0.8,0,1.6,0,2.5,0c2,1.9,2.3,0.4,2.5-1.2c1.6-0.1,3.3-0.2,4.9-0.2c0.5,1.2,1.5,1.5,2.6,1.5
		c-0.3,3.9-5.7,1.5-6.3,5.1c-1.2,0-2.4,0-3.6,0c-4.1,0.2-8.8-1.5-11.3,3.6c-2.5,0-5.1,0-7.6,0c-3.7,0.3-7.4-3.1-11.1,0
		c-1.7,0-3.3-0.1-5-0.1c-4.2-3.7-8.3-0.8-12.5,0.1c-1.7,0-3.3-0.1-5-0.1c-4.3-4.5-8.8-4.9-12.5-1.1c-1.8,2.1-4.1,1-6.2,1.1
		c-3-4.3-6.9-4.4-11.2-2.4c-2.1-0.1-4.2-0.1-6.2-0.2c-3-4.1-6.9-4.5-11.2-2.4c-2.1-0.4-4.2-0.8-6.3-1.2c-3.1-1.8-6.2-4-10-1.4
		c-2.1,0-4.2-0.1-6.3-0.1c-3.2-3.4-6.8-4.5-11.2-2.4c-1.7-0.4-3.3-0.7-5-1.1c-3.6-1.3-7.1-4.1-11.2-1.4c-0.8,0-1.7,0-2.5-0.1
		c-1.5-3.7-3.8-2.8-6.2-1.2c-1.3,0-2.5-0.1-3.8-0.1c-3.6-3.7-7.7-4.7-12.5-2.4c-1.3,0-2.5-0.1-3.8-0.1c-3.7-5.9-8.8-3.8-13.7-2.4
		c-0.8,0-1.7,0-2.5-0.1c-2-5.5-5.9-6.8-11.2-4.9c-2.6,0.5-5-0.7-7.5-1.2c-1.7-2.1-4.1-1-6.2-1.3c-0.1-0.4-0.1-0.8-0.1-1.1
		c-0.2-1.6-0.3-3.2-2.4-1.4c-1.7-0.1-3.3-0.1-5-0.2c-3.3-4-8.1-3-12.4-3.6c0-0.4-0.1-0.8-0.1-1.2
		C446.9,460.2,445.5,458.6,443.1,460.9z"/>
	<path class="st3" d="M396.3,438.2c-1.7,0.3-3,1-3.1,2.9c-9.2-0.4-16.3-6.2-24.3-9.8c-1.8-0.8-3.1-2-3.3-4.1
		c0.1-0.7,0.2-1.4,0.3-2.1c0.7-0.2,1.4-0.4,2.1-0.6c1.8,0.3,2.8-0.4,2.7-2.3c0.1-0.4,0.1-0.8,0.2-1.1c5.6,7.5,13.2,11.8,22.3,13.7
		C394.9,435.1,395.6,436.7,396.3,438.2z"/>
	<path class="st6" d="M353.2,421c-8.1-2.9-15.6-6.6-21-13.6c0.4-0.3,0.8-0.7,1.1-1c3.3,0.5,6.6,1,9.8,1.4c0.8,2.3,2.9,2.9,4.9,3.4
		c0.2,0.3,0.4,0.6,0.4,0.9c-0.3,1.6,0.3,2.6,2,2.9c1.1,1.5,2.2,2.9,3.2,4.4C353.5,419.9,353.4,420.4,353.2,421z"/>
	<path class="st3" d="M506.7,769.2c-9.6,0.6-19.5,3.4-28.6-0.5c-5.1-2.2-6.1-0.7-7.6,3c-2.5-3-0.7-5.6,1.2-7.6
		c2.3-2.4,3.9,0.4,5.8,1.4c4.3,2.2,8.9,3.4,13.7,2.1C496.7,766,501.8,766.6,506.7,769.2z"/>
	<path class="st3" d="M660.4,640.7c-1.9,5.9-0.1,13.1-6.3,17.4c0.8-3.9,1.8-7.8,2.3-11.8C656.8,643.7,658,641.8,660.4,640.7z"/>
	<path class="st3" d="M524.2,768c-0.4,0.7-0.7,1.9-1.1,1.9c-4.6,0.2-9.3,0.7-13.8-0.7C513.9,763.8,519.2,768.1,524.2,768z"/>
	<path class="st3" d="M581.6,746.9c-2.2,7.6-10,6.7-15.1,9.8c0.2-1.8,1.1-3,2.7-3.7C573.4,750.9,577.5,748.9,581.6,746.9z"/>
	<path class="st3" d="M388.2,764.2c1.5-5.4,1.2-11.2,3.8-16.3c0.7,0.4,2,1,1.9,1.2C392.5,754.3,393.1,760.3,388.2,764.2z"/>
	<path class="st3" d="M634,698c-0.8,5.4-3.7,9.1-8.6,11.3C626.2,704,629.1,700.2,634,698z"/>
	<path class="st2" d="M333.3,406.4c-0.4,0.3-0.8,0.7-1.1,1c-4.7-1.2-6.9-4.9-8.8-8.8c0.1-0.6,0.3-1.1,0.4-1.7
		C326.9,400.1,330.1,403.2,333.3,406.4z"/>
	<path class="st3" d="M495.6,477.1c5-1.3,10-3.4,13.7,2.4C504.5,479.8,500,478.8,495.6,477.1z"/>
	<path class="st3" d="M691.4,492.2c0.5-3.6,6-1.1,6.3-5.1c2.5,0,5,0,7.5,0C701.3,490.8,696.6,492.2,691.4,492.2z"/>
	<path class="st3" d="M640.3,495.9c4.1-0.9,8.3-3.8,12.5-0.1C648.6,498.3,644.5,498.4,640.3,495.9z"/>
	<path class="st3" d="M716.4,485.8c3-1.6,3.6,0.5,3.6,2.6c0.1,3.3,0.9,7.1-3.5,8.7C715.6,493.4,719.3,489.6,716.4,485.8z"/>
	<path class="st3" d="M381.9,740.5c-4.8,0-9.5-0.2-11.2-6.1C375.4,734.7,378.5,738,381.9,740.5z"/>
	<path class="st3" d="M676.5,495.9c2.5-5.2,7.2-3.4,11.3-3.6c-0.4,0.9-0.8,2.5-1.3,2.6C683.2,495.4,679.8,495.6,676.5,495.9z"/>
	<path class="st3" d="M470.6,795.4c3.2,3.9,2.8,10.7-1,15C468.9,805.3,471.5,800.5,470.6,795.4z"/>
	<path class="st3" d="M544.2,765.5c-3.5,3.5-9.6,4.1-12.5,1.3C535.8,766,539.9,764.9,544.2,765.5z"/>
	<path class="st2" d="M353.2,421c0.2-0.5,0.4-1.1,0.5-1.6c4,2.2,7.3,5.6,12.2,5.8c-0.1,0.7-0.2,1.4-0.3,2.1
		C361.3,425.5,355.9,426,353.2,421z"/>
	<path class="st3" d="M622.8,494.6c3.7-3.8,8.2-3.4,12.5,1.1C631.1,496.2,627.1,493.8,622.8,494.6z"/>
	<path class="st3" d="M662.8,627c1.6,4.3,2.7,8.4-2.4,11.2C660.2,634.2,661.2,630.5,662.8,627z"/>
	<path class="st3" d="M665.3,609.5c1.6,4.3,2.6,8.4-2.4,11.2C662.7,616.8,663.7,613.1,665.3,609.5z"/>
	<path class="st3" d="M716.5,503.4c1.6,4.3,2.7,8.4-2.4,11.2C713.9,510.7,714.8,507,716.5,503.4z"/>
	<path class="st3" d="M513,479.6c4.8-2.3,8.9-1.3,12.5,2.4C521.2,481.9,517,481.5,513,479.6z"/>
	<path class="st3" d="M605.4,493.4c4.3-2,8.2-1.9,11.2,2.4C612.6,496.2,608.8,495.4,605.4,493.4z"/>
	<path class="st3" d="M642.8,683.2c0,3.9,0.3,7.9-5,8.6C639.6,689,637.3,683.9,642.8,683.2z"/>
	<path class="st3" d="M667.8,574.6c2.1,4.3,1.7,8.2-2.4,11.2C665.2,581.8,666.1,578.1,667.8,574.6z"/>
	<path class="st3" d="M481.8,472.2c5.3-1.9,9.2-0.6,11.2,4.9C489.3,475.4,485.6,473.8,481.8,472.2z"/>
	<path class="st3" d="M470.6,779.2c5.3,4.2,0.6,8.3,0,12.5C467.4,787.5,471.9,783.4,470.6,779.2z"/>
	<path class="st3" d="M667.8,593.3c2.4,4.1,0.9,7.7-1.4,11.2C664.3,600.4,666.4,596.9,667.8,593.3z"/>
	<path class="st3" d="M554.2,485.9c4.4-2.2,8-1.1,11.2,2.4C561.5,488.5,557.8,487.5,554.2,485.9z"/>
	<path class="st3" d="M538,483.4c4.1-2.7,7.6,0.1,11.2,1.4C545.1,486.9,541.6,484.8,538,483.4z"/>
	<path class="st3" d="M657.8,495.8c3.7-3.1,7.4,0.3,11.1,0C665.2,500.6,661.5,496.7,657.8,495.8z"/>
	<path class="st3" d="M410.7,827.9c-4.7,2.2-8.4,1.9-9.9-3.9C404,825.4,407.3,826.6,410.7,827.9z"/>
	<path class="st3" d="M428.1,830.4c-3.9,1.4-7.8,3.3-10-2.4C421.6,828.4,425.1,828.5,428.1,830.4z"/>
	<path class="st3" d="M448.2,463.5c4.3,0.6,9.1-0.5,12.4,3.6C456.3,466.5,451.5,467.5,448.2,463.5z"/>
	<path class="st3" d="M587.9,490.9c4.4-2.1,8.2-1.8,11.2,2.4C595.3,492.7,591.4,492.8,587.9,490.9z"/>
	<path class="st3" d="M652.7,665.5c-0.8,3.4-2.9,6.1-5,8.9C645.5,669.2,648.8,667.2,652.7,665.5z"/>
	<path class="st3" d="M376.9,796.6c-1.9-4-2.3-7.6,2.4-10C378.8,790.1,378.9,793.6,376.9,796.6z"/>
	<path class="st3" d="M469.4,814.2c2.3,3.7,1.5,7-1.4,10C466.1,820.5,468.2,817.4,469.4,814.2z"/>
	<path class="st3" d="M426.9,455.9c4.7-2.3,8.1-1.3,10,3.8C433.6,458.5,430.2,457.2,426.9,455.9z"/>
	<path class="st3" d="M571.7,488.3c3.7-2.6,6.8-0.4,10,1.4C578,491.6,574.9,489.6,571.7,488.3z"/>
	<path class="st3" d="M378.2,811.6c-2.7-3-6-6-1.4-10C377.2,805,377.7,808.3,378.2,811.6z"/>
	<path class="st3" d="M617.8,719.2c0.4,4.6-2.7,5.6-6.3,6.3C612.4,722.2,614.4,720,617.8,719.2z"/>
	<path class="st3" d="M555.4,761.8c-2.1,3.5-5.1,4.1-8.7,2.5C549.3,762.2,552.2,761.6,555.4,761.8z"/>
	<path class="st3" d="M390.7,820.4c-3-0.3-6.9,1.3-7.5-3.8C385.6,818.1,389.6,816.4,390.7,820.4z"/>
	<path class="st3" d="M706.4,487.1c1.3-4.1,3.1-5.5,6.3-1.4C710.6,486.2,708.5,486.7,706.4,487.1z"/>
	<path class="st3" d="M367,733c-2.2-0.5-5.4,1.5-6.3-2.5C363,731.1,366.1,729.1,367,733z"/>
	<path class="st3" d="M669,562.1c-0.9,2.1,2.2,4.1,0,6.2C667.8,566.2,664,564.2,669,562.1z"/>
	<path class="st3" d="M680.2,553.2c-0.2,3.1-1.9,4.8-5,5.1C675.6,555.4,677.4,553.8,680.2,553.2z"/>
	<path class="st3" d="M411.9,449.8c2.2,0.5,5.4-1.5,6.3,2.4C415.9,451.8,412.8,453.6,411.9,449.8z"/>
	<path class="st3" d="M698.9,537c-0.2,3.1-2,4.7-5,5.1C694.3,539.2,696.1,537.6,698.9,537z"/>
	<path class="st3" d="M602.9,734.4c-0.3,3.2-2.4,3.8-5.1,3.6C598.1,734.8,600.2,734.2,602.9,734.4z"/>
	<path class="st3" d="M529.2,482.1c2.5-1.6,4.8-2.5,6.2,1.2C533.3,483.2,531,484.2,529.2,482.1z"/>
	<path class="st3" d="M380.8,781.8c0.4-2.3-1.6-5.4,2.4-6.4C382.7,777.7,384.5,780.8,380.8,781.8z"/>
	<path class="st3" d="M383.2,775.4c0.4-2.2,0.8-4.5,3.6-5C387.1,773.2,386.4,775.2,383.2,775.4z"/>
	<path class="st3" d="M591.6,741.8c-0.9,3.9-4,1.9-6.2,2.4C586.7,741.3,589.2,741.8,591.6,741.8z"/>
	<path class="st3" d="M468.1,469.7c2.1,0.3,4.5-0.8,6.2,1.3C471.7,473.1,469.7,472.4,468.1,469.7z"/>
	<path class="st3" d="M360.7,730.5c-2.2-0.4-4.5-0.8-5-3.7C358.5,726.7,360.6,727.3,360.7,730.5z"/>
	<path class="st3" d="M390.8,744.2c-1.9-0.2-4.5,0.9-5.1-2.2C387.8,741.9,390.2,741,390.8,744.2z"/>
	<path class="st3" d="M443.1,460.9c2.4-2.3,3.7-0.7,5,1.3C446.4,462,444.4,462.8,443.1,460.9z"/>
	<path class="st3" d="M645.3,679.3c0,1.8,0.1,3.6-2.4,3.8C642.8,681.3,642.8,679.5,645.3,679.3z"/>
	<path class="st3" d="M403.2,447.2c1.9-1.9,3.1-1.4,3.7,1.1C405.6,448.5,404.1,448.7,403.2,447.2z"/>
	<path class="st3" d="M396.8,442.3c1.9-0.1,3.8-0.2,3.8,2.5C398.9,444.8,397.1,444.7,396.8,442.3z"/>
	<path class="st3" d="M705.2,528.4c0,1.8,0,3.5-2.4,3.7C702.7,530.3,703.5,529.1,705.2,528.4z"/>
	<path class="st3" d="M409.4,448.5c2-1.8,2.3-0.3,2.4,1.3C410.9,449.8,409.9,449.5,409.4,448.5z"/>
	<path class="st3" d="M395.7,822.9c-1.9,1.8-2.2,0.4-2.5-1.2C394.2,821.7,395.2,821.9,395.7,822.9z"/>
	<path class="st3" d="M383.3,816.6c-1.6,0-2.5-0.8-2.6-2.4C382.3,814.2,383.2,815,383.3,816.6z"/>
	<path class="st3" d="M691.5,543.4c-0.1,1.6-0.9,2.4-2.6,2.4C689,544.2,689.8,543.4,691.5,543.4z"/>
	<path class="st3" d="M687.7,545.9c-0.1,1.6-0.9,2.4-2.5,2.4C685.3,546.7,686.1,545.9,687.7,545.9z"/>
	<path class="st3" d="M684,548.4c-0.1,1.6-0.9,2.4-2.5,2.4C681.5,549.2,682.3,548.4,684,548.4z"/>
	<path class="st3" d="M672.7,559.6c-0.1,1.6-0.9,2.4-2.6,2.4C670.3,560.4,671.1,559.6,672.7,559.6z"/>
	<path class="st3" d="M465.6,467.2c2.1-1.9,2.2-0.2,2.4,1.4C467,468.5,466.1,468.2,465.6,467.2z"/>
	<path class="st3" d="M637.7,692.9c0.1,1.7-0.7,2.6-2.4,2.6C635.3,694,636.2,693.2,637.7,692.9z"/>
	<path class="st3" d="M605.4,731.8c-0.1,1.5-0.9,2.4-2.4,2.5C602.9,732.6,603.7,731.8,605.4,731.8z"/>
	<path class="st3" d="M595.4,739.3c-0.1,1.6-0.9,2.4-2.6,2.4C592.9,740.1,593.7,739.3,595.4,739.3z"/>
	<path class="st7" d="M642.8,488.6c-3.8-0.4-7.4-1.8-11.3-1.3c-3.5-1.9-8-2.3-9.9-6.6c-0.5-6.4-5.1-11.3-6.8-17.3
		c-0.5-2-1.3-5.3-4.5-6c0-3.6-2.1-6.5-2.8-9.9c1.4-0.9,3.3-2.1,1.9-3.7c-2.7-3.2-1.1-7-2.1-10.3c0.1-0.9,0.1-1.7,0.2-2.6
		c1.1-0.3,1.6-1.1,1.9-2.1c1,0,2,0,3.1,0c3.5,3.2,7.9,4.6,12.2,6.4c9.2,3.9,9.9,3.8,11.5-5.9c0.2-1,0.2-2.1,0.2-3.1
		c0.2-10.4,3-20.3,7.5-29.4c2-4,3-8.7,6.2-12.3c4.5-5.2,9.6-7.8,16.4-6.6c1.3,0.1,2.5,0.3,3.8,0.4c2.1,2.9,3.7,6.2,6.9,8.3
		c0.3,1.5,0.5,3,0.8,4.5c0.3,0.4,0.6,0.8,0.9,1.2c0,0.5,0.1,0.9,0.1,1.4c-2.5,4.4-0.3,7.8,2.4,11.1c0.4,2.6,0.7,5.1,1.1,7.7
		c0.6,2.2-1,5.2,2.4,6.3c0.4,0.4,0.7,0.9,1.1,1.3c1.4,3.1,2.9,2.8,4.5,0.1c0.3,0,0.6-0.1,0.9-0.3c1.6,0,2.4-0.9,2.7-2.3
		c0.8-0.5,1.5-0.9,2.3-1.4c1.7-0.1,3-0.8,3.7-2.5c2.1-0.1,4.2-0.2,6.3-0.2c1.7,2.2,4,1.3,6.2,1.2c1.2,0.1,2.4,0.2,3.6,0.4
		c2.6,2.4,0.5,5.8,1.8,8.5c-0.5,0.2-1,0.3-0.6,1c2.3,6.8,1.1,13.6-0.1,20.4c-0.4,0.7-0.7,1.4-1.1,2.2c-4.7,3.6-3.4,9.1-4.2,14
		c-1.4,1.9-3.8,3.3-3.1,6.2c-2.2,3.1-5.3,5.7-4.9,10c-3,1.8-2.8,6.2-6.2,7.6c-0.9,0.3-1.7,0.6-2.6,0.9c-1.6,0.1-3.3,0.2-4.9,0.2
		c-1,0-1.9,0.3-2.5,1.2c-0.8,0-1.6,0-2.5,0c-2.3-2.2-3.7-0.7-5,1.2c-3.3,0-6.7-0.8-9.9,0.3c-1.1-0.2-1.9,0.1-2.5,1.1
		c-0.8,0-1.7,0-2.5-0.1c-0.9-1.5-2.3-1.3-3.7-1.1c-4.3-0.9-8.2,1.9-12.5,1.2C647.2,487.8,644.9,488.6,642.8,488.6z"/>
	<path class="st8" d="M717.3,444.9c1.2-6.8,2.4-13.6,0.1-20.4c3-0.7,6.7,1.8,9-1.9c0.8,0,1.6-0.1,2.4-0.1c4.3,1.4,3.3-1.9,3.6-4
		c5.5-2.1,10.9-4.2,16.4-6.2c1.7,1.6,2.2,0.3,2.7-1c1.8-1.3,4.7,0.1,6-2.5c1.2-0.2,2.3-0.4,3.5-0.6c8.4-1.5,16.8-2.3,25.4-1.3
		c1.2,0.1,2.3,0.2,3.5,0.4c7.2,2.7,9,9.2,4.1,15.7c-1.5,2-2.5,4.2-3.3,6.5c-0.4,0.4-0.8,0.9-1.2,1.3c-2.3,1.2-4.2,2.6-4.5,5.5
		c0,0,0,0,0,0c-5.7,2.9-10.3,7-14.2,12c-0.7,0.6-1.4,1.1-2,1.7c-5.7,3.3-11.1,7-15.4,12.1c-0.3,0.1-0.6,0.2-0.8,0.5
		c-1.5-0.1-2.5,0.6-2.9,2c-1.5,1-3,2-4.5,3c-2.7-0.5-4.7,1.1-6.8,2.3c-4.6,2.7-9.3,5.2-14.4,6.9c-2.9,1-5.2,0.3-7.2-1.9
		c-1.9-2.1-2.1-4.3-0.9-6.8c0.7-1.4,2.1-2.7,0.8-4.5c0-0.8-0.1-1.6-0.1-2.4c0.1-0.7,0.2-1.3,0.3-2
		C719.2,454.3,722.8,449.7,717.3,444.9z"/>
	<path class="st2" d="M716.8,463.4c1.2,1.8-0.2,3.1-0.8,4.5c-1.2,2.5-1,4.7,0.9,6.8c2,2.2,4.2,2.9,7.2,1.9c5.1-1.7,9.8-4.2,14.4-6.9
		c2.1-1.2,4.1-2.8,6.8-2.3c-6.2,7.1-14.6,10.4-23.3,12.1c-5.7,1.1-8.4-3.2-9.4-8.5c0-0.8,0.1-1.7,0.1-2.5
		C714,466.8,715.4,465.1,716.8,463.4z"/>
	<path class="st2" d="M770.9,448.1c3.9-5,8.5-9.1,14.2-12C782.3,442.4,777.8,446.7,770.9,448.1z"/>
	<path class="st2" d="M753.5,461.9c4.3-5.1,9.7-8.8,15.4-12.1C765.7,456.3,760.1,459.8,753.5,461.9z"/>
	<path class="st3" d="M712.6,468.5c0,0.8-0.1,1.7-0.1,2.5c-5.2-1.2-5,5.2-8.6,6.2c-0.3-4.3,2.8-6.9,4.9-10
		C710.1,467.6,711.4,468,712.6,468.5z"/>
	<path class="st5" d="M793.5,429.7c0.6-3,2.9-4.7,5.1-6.4C799,427,797.5,429.4,793.5,429.7z"/>
	<path class="st2" d="M785.1,436.1c0.2-2.8,2.2-4.3,4.5-5.5C790,434,788,435.4,785.1,436.1z"/>
	<path class="st3" d="M695.1,485.7c0.9-0.3,1.7-0.6,2.6-0.9c0,0.8,0,1.6,0,2.4C696.6,487.2,695.6,486.9,695.1,485.7z"/>
	<path class="st2" d="M749.7,464.4c0.5-1.4,1.4-2.1,2.9-2C752.5,464.2,751.4,464.7,749.7,464.4z"/>
	<path class="st7" d="M465.4,203.8c4.4-3.2,7.2-8.9,13.8-8.6c2.2,0.3,4.4,0.6,6.5,0.9c0.5,1.7,1.7,2.5,3.4,2.7
		c0.6,0.9,1.1,1.7,1.7,2.6c1.1,2.5,0,5.9,3.2,7.4c1,1.7,2,3.4,2.9,5.1c-1.9,1.8-0.5,2.6,1.1,3.4c0,0,0.2,0.3,0.2,0.3
		c-0.6,2.8,0.2,5.2,2,7.3c0,1.2,0.3,2.2,1.4,3c1,2.2,1.8,2.2,2.7-0.1c0.9-1.3,1.8-2.7,2.7-4c3.2-1,3.4-3.6,3.1-6.3
		c2.3-1,3.1-2.7,2.8-5.1c1.3-0.9,1.1-2.2,1.2-3.5c2.7-3.9,6.4-6.7,10.2-9.5c3.5-2.7,7.5-2.5,10.5-0.9c3,1.6,3.8,5.7,3.5,9.2
		c-0.3,4.3-1.2,8.6-1.7,12.9c-0.2,1.6-0.7,3.4,1.4,4.3c1.8,0.8,3.2-0.2,4.5-1.2c1.6-1.3,3.3-2.5,5-3.7c6.9-4.8,16.4-3,21.4,4.1
		c1,1.4,1.7,2.9,1.4,4.6c-1.3,8.8-2.5,17.6-4,26.3c-0.2,1.3-1.6,2.3-2.4,3.5c-2.6,1.5-3.1,3.8-2.8,6.6c-1.9,1.4-2.9,4.3-5.9,4.1
		c-0.9-2.1-3.1-1.3-4.7-2c-1.2-4.7-5.1-7.4-7.8-10.9c-0.2-2.2-0.9-3.8-3.6-3.2c-1.2-0.1-2.5-0.3-3.7-0.4c-0.7-1.3-1.5-1.2-2.4-0.2
		c-1.1-0.1-2.2-0.1-3.3-0.2c-1.1-1.1-2.2-1.2-3.2,0.1c-1.6,1.3-3.2,2.6-4.7,4c-1.1,0.1-1.7,0.9-2.5,1.6c-5.2,4.5-3.1,11.8-6.4,17
		l0,0c-3,1.1-2.5,3-1.4,5.2c0,1-0.1,2.1-0.1,3.1c-2.4,2-2.9,4,0.1,6c0.1,2,0.2,3.9,0.4,5.9c-1.4,1-1.3,2.3-0.8,3.7
		c-0.2,2.4-0.5,4.8-0.7,7.2c-1.1,1.1-1,2.6-1,4c-5.7,1.4-9.3-1.2-11.5-6.2c0.1-1.5-0.7-2.4-2.2-2.6c-3.3-2.9-6.5-5.9-9.8-8.8
		c-1.1-2.9-4.2-2.5-6.4-3.7l0,0c-1.3-3.2-2.7-2.7-4.2-0.2c-1.1,0.2-2.3,0.3-3.4,0.5c-0.4,0-0.8,0-1.2,0c-0.8-0.1-1.7-0.2-2.5-0.3
		c-2.1-2.7-1.5-6.8-4.9-8.8c-0.7-7.3-4-13.7-7.4-20.1c-2-2.5,3.2-6.2-1.5-8.2c-0.1-3.1-0.1-6.1-0.2-9.2c1.5-0.8,1.3-2.2,1.2-3.6
		c0,0,0.3-0.3,0.3-0.3c4.2-0.3,3.8-3.1,3.2-6c0.2-1.7,0.3-3.4,0.5-5.1c1.4-1.1,1.4-2.2,0.3-3.5c0.1-0.8,0.1-1.7,0.2-2.5
		c3-1.5,1.9-4,1.7-6.4C460.7,210.7,466,208.3,465.4,203.8z"/>
	<path class="st9" d="M662.7,347.4c1,9.7,1,9.7,7.8,7.9c3.7-1.8,7.3,1.7,11.1,0.3c1.7,0.6,3.4,1.2,5.1,1.8c-0.5,3.3-2.2,6.5-1.3,10
		c-0.4,2.2-0.9,4.4-2.9,5.9c-5.3,1.5-10.1,0.2-14.7-2.4c-0.5,0-1,0-1.5,0c-10.1,0.4-17.5,4.9-21.3,14.6l-0.4,0.4
		c-1.2,0.1-1.6,1-2.1,1.9c-6.6,10.6-10.7,22.1-12,34.5c-0.7,6.9-4.6,8.5-10.4,4.3c-2.3-1.7-4.4-2.9-7.3-2.2
		c-3.1-0.8-7.1-0.7-6.1-5.8c1.1-1.6,1.3-3.3,0.6-5.1c0.1-0.8,0.3-1.7,0.4-2.5c1-1.5,2-3,3-4.5l-0.1-0.3l0.2,0.3
		c1.6-0.5,2.1-1.4,1.1-2.9c0.3-2.9,0.6-5.8,1-8.7c1.8-2.7,2.4-5.6,1.7-8.8c0.8-2.4,0.9-4.9,0.7-7.5c1.8-1.5,0.6-2.2-0.8-2.9
		c0-0.3-0.1-0.6-0.4-0.7c-0.2-0.9-0.3-1.7-0.5-2.6c-0.3-0.8-0.7-1.6-1-2.3c-0.3-0.9-0.5-1.7-0.8-2.6c-0.2-3.6-3.4-5-5.3-7.4
		c-0.1-1.6-0.6-2.6-2.4-2.2l-0.3-0.2c0.1-0.7-0.2-1-0.9-0.9c-1.1-2.4-3.4-2.1-5.5-2.3c-2.4-2.4,1.5-7.2-3.2-8.8
		c-0.8-3.9,1.3-7.4,1.2-11.2c0.1-1,0.2-2,0.2-3.1c0-0.6,0.1-1.3,0.1-1.9c0.3-0.6,0.6-1.2,0.9-1.9c1.6-0.8,2.8-1.8,2.5-3.8
		c3.8-1,7.5-2,11.3-3.1c2,0.2,4.1,0.5,6.1,0.7c2.5,1.1,4.9,2.2,5.9,5.1c1.9,5.6,3.1,11.4,3.4,17.2c0.1,3.1,0.8,5.9,3.5,6.4
		c2.9,0.5,3.9-2.6,5.1-5.1c4.5-9.3,8.3-19.5,20.9-20.6c1.2,0.2,2.5,0.4,3.7,0.5c1.5,2.6,4.1,4.5,4.5,7.8c-0.2,2.1-0.4,4.1-0.7,6.2
		C661.1,341.6,660.2,344.5,662.7,347.4z"/>
	<path class="st8" d="M577.1,256.1c0.1-1.9,0.3-3.9,0.4-5.8c-0.1-3.1-0.2-6.1-0.3-9.2c4-2.3,2.7-6.3,3.1-9.7
		c1.4-0.9,1.3-2.3,1.4-3.6c0,0,0,0,0,0c1.8-0.1,2.9-1,3.6-2.6c1.7,0,3.3,0,5,0c0.8,0.5,1.6,1,2.5,1.4c0.7,2.5,2,2.8,3.8,0.9
		c1.3-0.2,2.6-0.3,3.9-0.5c3.1,0.1,5.3,2,7.4,4c-0.1,1.7,0.7,2.6,2.4,2.7c0.7,0.2,1.4,0.4,2.1,0.6c0,0.3,0.1,0.5,0.3,0.7
		c0.6,2.9,1.8,5.3,5,6.2c2.3,0.7,2.9,2.6,3.1,4.8c-0.8,0.3-1.7,0.7-1.3,1.6c0.2,0.5,1.2,0.7,1.9,1.1c0.8,0.5,1.6,0.9,2.4,1.4
		c0,0,0,0,0,0c0.7,2.5,1.7,4.8,4.2,6c0.1,0.8,0.3,1.6,0.4,2.5c0.8,7.2,3.1,13.8,6.8,20c0,0,0.1,0.1,0.1,0.1
		c-0.5,5.2,1.8,9.5,4.1,13.9c-0.1,1.2-0.1,2.4-0.2,3.6c1.5,5.6,1.9,11.5,5.4,16.4c-0.1,1.3-0.2,2.5-0.3,3.8c-1.3,0.7-1,2.1-1.5,3.2
		c-3,7.2-6.6,9.7-12.6,9c0-1.8-0.1-3.6-2.6-3.6c-0.9-0.4-1.2-1.2-1.3-2.2c0.2-1.8-0.5-2.8-2.3-2.9c0,0,0,0,0,0
		c-0.4-4.5-0.8-4.8-3.8-3.6c-2.1,0-4.1-0.1-6.2-0.1c-0.8-0.4-1.7-0.8-2.5-1.2c-1.1-4.3-4.6-1.8-7-2.6c-0.6-2.1-0.5-4.1,0.5-6.1
		c4.3-1.2,3.2-3.7,1.5-6.3c-0.6-2.9-0.1-6-1.7-8.7c0.2-1.7,0.3-3.4,0.5-5c1.4-1,1.1-2,0-2.9c-1-0.8-1.9-0.5-2.5,0.5
		c-2-0.2-4.1-0.4-6.1-0.6c-0.6-2.8-2.7-3.8-5-3.1c-2.6,0.8-5,2.4-7.5,3.6c-1.4,0.2-2.8,0.3-3.9-0.8c0-3-3.4-4.9-2.4-8.1
		c0-1.6,0.1-3.1,0.1-4.7c-0.1-1.8,0.6-3.7-1.2-5.1C576.4,262.1,578.7,259.2,577.1,256.1z M612.2,275.7c-0.3-0.7-0.8-1.4-0.9-2.2
		c-0.6-4.9-4.3-8.3-6.1-12.7c-0.7-1.9-0.4-4.8-3.4-3.7c-1.8,0.7-2.2,3.1-1.5,5.4c1.6,5.1,5.6,9.1,6.9,14.3c0.4,1.5,2,2,3.6,1.4
		C611.9,277.8,612.2,276.9,612.2,275.7z"/>
	<path class="st10" d="M723.8,313.4c1.7,0.1,3.4,0.1,5.1,0.2c0.4,1,1.1,1.5,2.2,1.6c1.3,2.9,4.4,3.9,6.5,6c0,0,0,0,0,0
		c0.2,0.8,0.4,1.6,0.6,2.4c-0.1,0.9-0.2,1.8-0.3,2.7c-2.2,3.5-2.4,7.3-2,11.3c-0.7,1.7-1.3,3.3-2,5c-5.8,6.5-9.3,14.4-15.6,20.8
		c-8.4,8.6-15.6,18.3-25.7,25.3c-1,0.1-1.9,0.4-2.4,1.4c-1.1-0.2-2.3-0.4-3.4-0.5c-0.8-0.8-1.6-1.7-2.4-2.5c0-0.5,0-1,0.1-1.5
		c2.6-1.9,1.9-5.3,3.5-7.7c1.2-2.5,2.4-5,3.6-7.5c5.3-4.5,2.6-9.3,0.6-14.1c0.1-1.2,0.2-2.4,0.3-3.6c2.3-2.7,5.3-5,8.5-5.9
		c7.1-2.1,11.8-7.2,17.4-11.4c1.1-0.8,2-1.6,0.9-3c-0.8-1-2.1-0.8-2.8,0c-7.2,7.5-18.2,9.4-25.2,17.1c-0.8-0.1-1.7-0.2-2.5-0.3
		c-1.8-2-4.2-0.9-6.4-1.4c-3.4-0.7-7.1-0.8-10.1-2.2c-4.3-2,0.6-6.4-1.6-9.3c0.6-1.2,1.2-2.4,1.8-3.6c7.5-4.2,15.7-7.2,22.9-12.1
		c0.3-0.1,0.6-0.3,0.8-0.5c1.7,0.1,2.9-0.8,3.8-2c3,0.2,5.5-2.7,8.7-1.7c3.9-0.3,7.8-1,11.8-0.3
		C722.2,316.2,723.2,314.8,723.8,313.4z"/>
	<path class="st11" d="M736.4,371.1c-0.4,2.2-0.4,4.6-1.1,6.7c-2,6.4-1.2,7.7,5.6,8.4c10.5,1,13.9,4.3,15.6,15
		c-1.3,3.6-3.5,6-7.6,6.9c-6.4,1.4-12,5-17.4,8.6c-4.2,0.4-6.6-2.9-9.7-4.6c-0.9-1.2-1.8-2.4-2.7-3.5c-5.8-3.9-12.8-4.3-16.3-0.9
		c-2.6-0.7-4.6,0.2-6.3,2.3c-3.3,1.3-6.5,1.8-9.6-0.4c0.2-2,0.4-3.9,0.6-5.9c2-2.9,1.7-6.9,4.1-9.6c0,0,0-0.1,0-0.1
		c4.5-1.3,7.4-5.1,11-7.7c0.4-0.4,0.9-0.8,1.3-1.2c1.2-0.8,2.4-1.7,3.7-2.5c1.6-0.1,2.4-0.9,2.5-2.5c1.4-3.3,4.6-5.4,6.9-7.5
		c6.8-6.3,12.8-13,17.7-20.8c0.4-0.7,1.9-0.7,2.8-1c1.7,0.2,3.3,0.4,5,0.5c0.4,0.4,0.9,0.8,1.3,1.3c1,4.2-2.7,7-3,10.8
		C738.1,365.1,739,369.1,736.4,371.1z"/>
	<path class="st12" d="M577.8,274.8c-1,3.3,2.5,5.2,2.4,8.1c-1.2-0.1-3.3-0.5-3.5-0.1c-2.4,6.5-10.6,8.5-12,15.7
		c-3.1,1.6-3.2,4.5-3.3,7.4c-1.8-0.2-3.3,0.6-4.8,1.6c-1.2-0.5-2.3-1.1-3.5-1.6c-0.8-2.4-1.9-4.6-1.5-7.2c1-0.6,1.2-1.5,1.1-2.5
		c0.2-0.6,0.4-1.3,0.5-1.9c3.5-6,3.2-13.1,5.7-19.3c2.3-1.4,0.9-5.2,3.9-6.2c2.5-0.4,5-0.8,7.6-1.2c0.4,0.4,0.8,0.9,1.2,1.3
		c0,1.6-0.1,3.3,1.9,4c0.1,0.4,0.2,0.8,0.4,1.1C574.6,277,576.2,275.8,577.8,274.8z"/>
	<path class="st13" d="M612.8,424.4c2.9-0.7,5,0.6,7.3,2.2c5.8,4.2,9.7,2.7,10.4-4.3c1.3-12.5,5.4-23.9,12-34.5
		c0.6-0.9,0.9-1.8,2.1-1.9c0.3,0.2,0.7,0.7,0.7,0.7c0.8-0.6-0.3-0.7-0.3-1.1c3.8-9.7,11.1-14.2,21.3-14.6c-0.4,4.5-4.4,1.7-6.4,3.4
		c0.9,3.4,5.7,0.3,6.6,3.7c-6.8-1.2-11.9,1.4-16.4,6.6c-3.2,3.7-4.2,8.3-6.2,12.3c-4.5,9.1-7.3,19-7.5,29.4c0,1,0,2.1-0.2,3.1
		c-1.6,9.7-2.3,9.8-11.5,5.9c-4.3-1.8-8.7-3.2-12.2-6.4c1.4-0.6,3.2,0.3,4.4-1.1C616.3,425.5,613.2,426.6,612.8,424.4z"/>
	<path class="st6" d="M562.9,268.7c-2.9,1.1-1.5,4.8-3.9,6.2c-1.9,0.2-3.1,1.2-3.4,3.1c-0.9,4.8-3.3,9.4-2.6,14.5
		c-1.2,0-2.5,0-3.7,0c-1.9-5.1-2.5-10.6-2.6-15.8c-0.2-11.6-6.5-19.3-16.8-19.4c-3.3-0.1-5.2,2.3-8,2.9c0-1.3-0.1-2.6-0.1-3.9
		c1.6-1.3,3.2-2.6,4.7-4c1.1,0,2.1-0.1,3.2-0.1c1.1,0.1,2.2,0.1,3.3,0.2c0.7,1.3,1.5,1.5,2.4,0.2c1.2,0.1,2.5,0.3,3.7,0.4
		c0.4,2,1.6,3,3.6,3.2c2.7,3.6,6.7,6.3,7.8,10.9c0.8,2.4,2.2,3.5,4.7,2c3,0.1,4-2.7,5.9-4.1c1-0.4,2-0.9,3-1.3
		c0.4,0.5,0.9,1,1.3,1.5C564.6,266.5,562.8,266.9,562.9,268.7z"/>
	<path class="st13" d="M630.3,328.6c6,0.7,9.6-1.8,12.6-9c0.5-1.1,0.2-2.5,1.5-3.2c-0.5,7.8,2.6,10.2,9.8,6.7
		c0.1-0.1,0.7,0.8,1.1,1.2c-12.6,1.1-16.4,11.3-20.9,20.6c-1.2,2.6-2.3,5.6-5.1,5.1c-2.7-0.4-3.3-3.3-3.5-6.4
		c-0.3-5.8-1.5-11.6-3.4-17.2c-1-2.9-3.4-4-5.9-5.1c1-1.6,2.8-1.3,4.3-1.9l-0.4,0.3c0.7,1.5,1,0.4,1.5-0.2c0.7,0.1,1.5,0.2,2.2,0.4
		c0,0,0,0,0,0c0,1.6,0.9,2.4,2.3,2.9c0.1,1,0.4,1.8,1.3,2.2C628,326.6,628.5,328.1,630.3,328.6z"/>
	<path class="st13" d="M737.7,350.5c-1,0.3-2.4,0.4-2.8,1c-4.9,7.8-11,14.5-17.7,20.8c-2.3,2.1-5.5,4.2-6.9,7.5
		c-1.6,0-2.5,0.9-2.5,2.5c-1.2,0.8-2.4,1.7-3.7,2.5c-0.4,0.4-0.9,0.8-1.3,1.2c-3.7,2.6-6.5,6.4-11,7.7c-0.1-1.2-0.3-2.3-0.4-3.5
		c0.5-0.6,1-1.1,1.4-1.7c10-7,17.2-16.7,25.7-25.3c6.2-6.3,9.8-14.3,15.6-20.8C732.8,346.3,735.1,348.5,737.7,350.5z"/>
	<path class="st2" d="M691.4,349.2c7-7.7,18-9.6,25.2-17.1c0.7-0.7,2-1,2.8,0c1.1,1.3,0.2,2.2-0.9,3c-5.5,4.2-10.3,9.4-17.4,11.4
		c-3.2,0.9-6.2,3.2-8.5,5.9C691.4,351.6,691.4,350.4,691.4,349.2z"/>
	<path class="st13" d="M731.5,416.6c5.4-3.6,11-7.2,17.4-8.6c4.1-0.9,6.3-3.2,7.6-6.9c2,2.3,0.8,5,1.1,7.5c-1.2,2.6-4.2,1.2-6,2.5
		c-1.1-0.1-2.1,0-2.7,1c-5.5,2.1-10.9,4.2-16.4,6.2c-0.3-0.1-0.7-0.1-1-0.1C731.4,417.8,731.5,417.2,731.5,416.6z"/>
	<path class="st2" d="M670.9,336c2.2,2.9-2.7,7.3,1.6,9.3c3,1.4,6.7,1.4,10.1,2.2c2.1,0.5,4.6-0.6,6.4,1.4c-6.6,2.3-12.9,0-19-2
		C666.4,345.6,667,340.5,670.9,336z"/>
	<path class="st2" d="M786.5,406.8c-8.5-1-17-0.3-25.4,1.3c3.9-5.2,10-3.5,15.2-4.2C779.6,403.4,784.3,401.8,786.5,406.8z"/>
	<path class="st2" d="M695.6,320.3c-7.2,4.9-15.3,7.9-22.9,12.1c0.1-3.1,2.9-4.4,4.9-5.1C683.6,325.1,688.4,319.6,695.6,320.3z"/>
	<path class="st13" d="M635.4,278.7c-3.7-6.2-6-12.8-6.8-20C633.2,264.5,635.3,271.3,635.4,278.7z"/>
	<path class="st13" d="M644.7,312.6c-3.5-4.9-4-10.8-5.4-16.4C644.1,299.4,646.9,308.2,644.7,312.6z"/>
	<path class="st13" d="M623.9,250.2c-0.8-0.5-1.6-0.9-2.4-1.4c-0.2-0.9-0.4-1.8-0.6-2.7c-0.2-2.1-0.9-4.1-3.1-4.8
		c-3.2-0.9-4.4-3.3-5-6.2C618.3,238.8,625,241.7,623.9,250.2z"/>
	<path class="st13" d="M723.8,313.4c-0.6,1.4-1.6,2.8-3,2.5c-4-0.8-7.9-0.1-11.8,0.3c1.6-3.2,4.2-4,7.5-3.6
		C718.9,312.8,721.3,313.1,723.8,313.4z"/>
	<path class="st2" d="M573.5,272.9c-2-0.7-1.9-2.4-1.9-4c3.1-0.3,2.5-2.7,2.6-4.6c0.1-3,0-6.1,3-8.1c1.6,3.1-0.8,6-0.5,9
		c-2,1.7-0.6,3.3,0.1,4.9c-0.1,0.2-0.3,0.3-0.4,0.5C574.3,270,574.1,271.7,573.5,272.9z"/>
	<path class="st13" d="M639.5,292.6c-2.3-4.4-4.6-8.7-4.1-13.9C638.9,282.7,642.4,286.7,639.5,292.6z"/>
	<path class="st2" d="M692.3,356c2,4.8,4.7,9.6-0.6,14.1c-0.4-3.8,0.5-7.7-1.1-11.4C690,357.4,690.9,356.5,692.3,356z"/>
	<path class="st13" d="M667.8,370.9c4.6,2.6,9.4,3.9,14.7,2.4c-0.7,4.8-4.5,2.9-6.8,2.6C672.6,375.5,668.2,376.1,667.8,370.9z"/>
	<path class="st13" d="M681.6,355.6c-3.7,1.4-7.3-2.1-11.1-0.3C673.1,351.1,678,351.2,681.6,355.6z"/>
	<path class="st2" d="M577.3,241.1c0.1,3.1,0.2,6.1,0.3,9.2C572.9,246.7,572.8,244,577.3,241.1z"/>
	<path class="st0" d="M686.9,409.4c3.1,2.2,6.3,1.7,9.6,0.4c0,1.2,0,2.5-0.1,3.7l0,0C693.2,412.3,687.5,416.6,686.9,409.4z"/>
	<path class="st0" d="M691.7,393.9c-2.4,2.8-2.1,6.7-4.1,9.6C685.7,398.9,685.4,395,691.7,393.9z"/>
	<path class="st13" d="M735.9,337.6c-0.4-3.9-0.2-7.8,2-11.3C739.9,330.5,738.7,334.2,735.9,337.6z"/>
	<path class="st2" d="M600.5,227.2c-1.3,0.2-2.6,0.3-3.9,0.5c-1-1.3-2.4-1.2-3.8-0.9c-0.8-0.5-1.6-1-2.5-1.4
		C594.3,223,597.7,223.4,600.5,227.2z"/>
	<path class="st13" d="M677.3,386.6c-3.2-2-4.8-5.4-6.9-8.3C675.9,378.4,676.4,382.6,677.3,386.6z"/>
	<path class="st13" d="M681.5,404.7c-2.8-3.3-4.9-6.6-2.4-11.1C681,397.1,681.5,400.8,681.5,404.7z"/>
	<path class="st13" d="M663.6,332.6c-0.4-3.2-3-5.2-4.5-7.8C664,325.2,665.7,328,663.6,332.6z"/>
	<path class="st13" d="M736.4,371.1c2.7-2,1.8-6,4.6-7.9C741.4,367,742.6,371.2,736.4,371.1z"/>
	<path class="st13" d="M662.7,347.4c-2.5-3-1.6-5.8,0.2-8.7C664.6,341.7,664.7,344.6,662.7,347.4z"/>
	<path class="st2" d="M688,377.7c-1.6,2.4-0.9,5.8-3.5,7.7C684.1,382.1,682.4,378.2,688,377.7z"/>
	<path class="st13" d="M685.4,367.4c-0.9-3.5,0.9-6.7,1.3-10C687.8,361,689.7,364.6,685.4,367.4z"/>
	<path class="st13" d="M737.6,321.2c-2.1-2.1-5.1-3.1-6.5-6C735.6,314.7,737.6,316.9,737.6,321.2z"/>
	<path class="st2" d="M500.3,225c-1.9-2.1-2.6-4.5-2-7.3C501.3,219.5,501.5,222,500.3,225z"/>
	<path class="st2" d="M494,209c-3.3-1.5-2.2-4.9-3.2-7.4C494.6,202.8,494.2,205.9,494,209z"/>
	<path class="st2" d="M562.9,268.7c-0.1-1.8,1.7-2.3,2.6-3.5c2,0,4.5-1.1,5,2.2C567.9,267.9,565.4,268.3,562.9,268.7z"/>
	<path class="st13" d="M564.1,263.8c-1,0.4-2,0.9-3,1.3c-0.4-2.7,0.2-5.1,2.8-6.6C564,260.3,564.1,262.1,564.1,263.8z"/>
	<path class="st13" d="M628.2,256.2c-2.6-1.2-3.5-3.5-4.2-6C626.9,251.1,628.9,252.7,628.2,256.2z"/>
	<path class="st2" d="M510.1,217.6c0.3,2.8,0.1,5.3-3.1,6.3C507.5,221.5,507.3,218.9,510.1,217.6z"/>
	<path class="st13" d="M685,418.7c-3.5-1.1-1.8-4.1-2.4-6.3C686.9,413.2,684.6,416.5,685,418.7z"/>
	<path class="st2" d="M700.2,317.8c-1,1.2-2.2,2.1-3.8,2C697.2,318.3,697,314.8,700.2,317.8z"/>
	<path class="st2" d="M489.1,198.9c-1.7-0.2-2.9-1.1-3.4-2.7C488.6,195,489,196.7,489.1,198.9z"/>
	<path class="st2" d="M585.4,225.2c-0.7,1.6-1.9,2.5-3.6,2.6C582.2,225.9,582,223,585.4,225.2z"/>
	<path class="st2" d="M581.8,227.8c-0.1,1.3,0,2.7-1.4,3.6C578.4,229.3,578.9,228.1,581.8,227.8z"/>
	<path class="st13" d="M690.6,420.2c-1.6,2.7-3.1,3-4.5-0.1C687.6,420.1,689.1,420.1,690.6,420.2z"/>
	<path class="st2" d="M498,217.4c-1.6-0.7-3-1.5-1.1-3.4C498.1,214.9,497.9,216.2,498,217.4z"/>
	<path class="st2" d="M514.2,209c-0.1,1.3,0.1,2.6-1.2,3.5C511.2,210.6,512.8,209.8,514.2,209z"/>
	<path class="st13" d="M700.2,413.6c-0.6,1.7-2,2.4-3.7,2.5c0-0.9-0.1-1.7-0.1-2.6c0,0,0,0,0,0C697.7,413.6,698.9,413.6,700.2,413.6
		z"/>
	<path class="st13" d="M744,352.3c-0.4-0.4-0.9-0.8-1.3-1.3c0.4-0.7,1.1-1.1,1.7-0.5C745.1,351.2,744.7,351.9,744,352.3z"/>
	<path class="st13" d="M694.2,417.6c-0.4,1.4-1.2,2.3-2.7,2.3C691.5,418,692.5,417.3,694.2,417.6z"/>
	<path class="st2" d="M684.5,386.9c0.8,0.8,1.6,1.7,2.4,2.5C684.7,389.9,683.9,389,684.5,386.9z"/>
	<path class="st13" d="M731.1,315.2c-1.1-0.1-1.8-0.6-2.2-1.6C731.3,311.9,731.1,313.7,731.1,315.2z"/>
	<path class="st13" d="M612.5,234.4c-0.7-0.2-1.4-0.4-2.1-0.6c-0.1-0.8-0.2-1.6-0.2-2.3C612.2,231.5,612.9,232.5,612.5,234.4z"/>
	<path class="st12" d="M610.1,231.5c0.1,0.8,0.2,1.6,0.2,2.3c-1.8,0-2.5-1-2.4-2.7C608.7,231.3,609.4,231.4,610.1,231.5z"/>
	<path class="st2" d="M504.3,227.9c-0.8,2.3-1.7,2.3-2.7,0.1C502.5,228,503.4,227.9,504.3,227.9z"/>
	<path class="st2" d="M692.7,388.6c-0.5,0.6-1,1.1-1.4,1.7c-0.3-0.1-0.7-0.2-1-0.4C690.8,388.9,691.7,388.7,692.7,388.6z"/>
	<path class="st13" d="M738.2,323.6c-0.2-0.8-0.4-1.6-0.6-2.4C738.9,321.8,739.1,322.6,738.2,323.6z"/>
	<path class="st13" d="M679,392.3c-0.3-0.4-0.6-0.8-0.9-1.2C678.3,391.5,678.7,391.9,679,392.3z"/>
	<path class="st10" d="M423.5,221.9c0.6,0.8,1.1,1.6,1.7,2.4c1,2.3,3.3,2.6,5.1,3.6c0.1,0.3,0.2,0.6,0.5,0.8
		c-0.2,1.6,0.6,2.5,2.1,2.8c0.5,0.7,1,1.5,1.5,2.2c-0.2,1.6,0.6,2.5,2.1,2.9c3.1,4,6.2,8,9.2,12.1c1.1,3.3,0,7.6,4.3,9.3
		c0.1,0.3,0.2,0.6,0.5,0.8c0,1.5,0.6,2.4,2.1,2.8c0.5,0.8,1,1.6,1.5,2.4c1.9,5.7,4,11.2,7.5,16c1.4,5.4,1.3,10.8,1,16.3
		c-0.2,2.1-0.4,4.1-0.6,6.2c-2.9,2.9,0.9,5.2,0.7,8c-0.9,14.3,2.3,28.1,4.9,41.9c-0.2,0.8-0.6,1.6-0.7,2.4
		c-0.7,6.3-5.1,11.4-11.1,12.5c-3.1,0.6-5.9-0.2-7.4-3.2c-1.5-3-0.2-6.1,0-9.2c0.3-7.5-0.6-14.7-4.3-21.3c-3.4-6.4-7.4-7.2-13.8-2.9
		l0.1,0.3c0,0-0.1-0.3-0.1-0.3c-3.7,0.7-7.4,1.4-11.1,2.1c-1.2-0.2-2.4-0.4-3.6-0.6c-3.4-11.3-10.8-20.8-14.3-32.2
		c-4.2-13.6-7.7-27-9.1-41.3c-0.5-5.7,1.4-12.3-2.9-17.5c0-0.8,0.1-1.6,0.1-2.5c1.3-5.4,2.7-10.7,4-16.1c1.2-1.7,2.4-3.3,3.6-5
		c2.2-0.6,5.1,0.6,6.4-2.4c0.7-0.5,1.5-0.9,2.2-1.4c1.6,0.2,3.2,0.4,4.8,0.6c2.3,1,3.3,4.4,6.6,3.8
		C419.3,219.5,420.5,222.5,423.5,221.9z M424.6,263.8c0.1,0.8,0.3,1.6,0.4,2.4c-0.6,1.6,0.2,2.5,1.5,3.1c3.2,14.2,6.5,28.3,11.5,42
		c0.8,2.2,1.2,5.1,4.1,4.4c3.3-0.9,2.1-4,1.5-6.3c-3.8-15.7-8.4-31.1-15.5-45.7c-0.8-6.5-3.9-12-7.7-17.2c-0.8-1.1-0.4-4.7-3.2-3.3
		c-2.5,1.2-0.1,3,0.1,4.7C418.3,254,421.7,258.8,424.6,263.8z"/>
	<path class="st13" d="M378.2,223.9c4.3,2.1,11.5,0.9,9,11.1c3.8-4.7,0.3-10.9,6.3-12.2c-1.3,5.4-2.7,10.7-4,16.1
		c-0.9-0.6-2.1-2-2.6-1.8c-1.9,0.7-1,2.6-0.9,4l-0.2,0.2c-3.9-2-1.2-5.2-1-7.8c0.2-4-0.5-6.1-5.1-6.3c-2.9-0.1-6.2-0.3-8.8-2.3
		c0.4-0.4,0.8-0.7,1.2-1.1C374.1,223.9,376.2,223.9,378.2,223.9z"/>
	<path class="st1" d="M312,297.5c-2.4,0.1-4.6-0.5-4.8-3.4c-0.2-3.2-0.8-6.7,2.5-8.8c1.1-0.7,2.2-1,2.4-2.4c0.2-0.1,0.4-0.2,0.6-0.3
		c0.3,3.8,1.7,7.5,1,11.3C312,294.5,312.3,296.2,312,297.5z"/>
	<path class="st2" d="M452.7,261.6c-1.5-0.3-2.1-1.3-2.1-2.8c4-1,3.2-4.4,3.7-7.2c4.6,2-0.5,5.7,1.5,8.2c0,0-0.2,0.3-0.2,0.3
		C454.3,260,453.4,260.5,452.7,261.6z"/>
	<path class="st2" d="M445.9,248.7c0.7,0.1,1.4,0.2,2.2,0.3c0.4,3.1,2.6,5.7,2.1,9C445.8,256.3,446.9,252,445.9,248.7z"/>
	<path class="st2" d="M410.6,213.6c3.2,0.3,5.6,1.5,6.5,4.9c-3.3,0.6-4.2-2.8-6.6-3.8C410.5,214.3,410.5,214,410.6,213.6z"/>
	<path class="st2" d="M458.8,232.6c0.6,2.9,1,5.7-3.2,6C456.6,236.6,456.2,233.8,458.8,232.6z"/>
	<path class="st2" d="M461.4,215.2c0.2,2.3,1.4,4.9-1.7,6.4C459.7,219.2,458.2,216.6,461.4,215.2z"/>
	<path class="st13" d="M312.7,282.6c-0.2,0.1-0.4,0.2-0.6,0.3c-0.4-0.9-0.8-1.9-1.2-2.8c0-1.8,0-3.7,2.6-3.6
		C313.6,278.5,313.7,280.6,312.7,282.6z"/>
	<path class="st2" d="M429.2,224c0.7,1.2,1.6,2.4,1.1,4c-1.8-1.1-4.2-1.4-5.1-3.6C426.6,224.2,427.9,224.1,429.2,224z"/>
	<path class="st2" d="M312,297.5c0.3-1.4,0-3,1.7-3.6c1.1,1.8,1.3,3.5-0.7,4.8c-0.3,0.1-0.6,0.2-0.9,0.3
		C312.1,298.5,312,298,312,297.5z"/>
	<path class="st2" d="M459.5,224c1.2,1.2,1.1,2.4-0.3,3.5C457.9,226.2,457.9,225.1,459.5,224z"/>
	<path class="st2" d="M455.3,238.8c0.1,1.4,0.3,2.8-1.2,3.6C452.6,240.6,453.1,239.5,455.3,238.8z"/>
	<path class="st11" d="M550.5,477.3c-2.6-0.3-5.2-0.6-7.7-1c-3-1.9-6.2-3-9.7-1.7c-2-0.1-4.1-0.3-6.1-0.4c-3-2.7-6.4-3.3-10.1-2.1
		c-5.5,0.5-8.1-3.4-10.6-7.3c1.7-4.7-2.1-7.7-3.6-11.4c-4-10.2-6.2-21-9.9-31.3c2.7-3.6,1.7-6.8-1.1-9.9c0-0.9,0-1.7-0.1-2.6
		c1.7-4,3.1-8.1,2.2-12.5c0.1-1.6,0.3-3.3,0.4-4.9c0.6-0.7,1.2-1.4,1.7-2c0.5,0,1,0,1.5,0c0.8,1.1,1.5,2.3,2.9,0.8
		c3.2,0.6,6,1.6,8.8,3.8c3.7,2.9,6.3,7.2,11.1,8.8c1.7,3.3,3.4,3.2,5.2,0c2.1-0.4,2.7-1.9,2.6-3.8c1.5-2.2-0.4-2.8-1.8-3.7
		c0-0.9,0-1.8,0-2.7c1.6-1,1.7-2.3,0.5-3.7c0-0.7,0.1-1.4,0.1-2.1c2.6-1.2,2.2-3.3,1.6-5.5c0.1-1.6,0.2-3.3,0.4-4.9
		c1.4-1,1.2-2.4,0.7-3.8c0.2-0.4,0.4-0.9,0.6-1.3c2.1-0.3,4.1-0.7,2.6-3.5c1.6-7.1,4.6-9.8,10.9-9.7c0.7,1.1,1.3,2.7,2.8,0.8
		c5.7,1,5.4,6.1,6.9,10c-0.3,2.1-1.3,4.3,1.9,5.2c1.5,2.6,3,5.2,4.5,7.9c2.9,2.9,4.4,1.3,5.6-1.6c0.2-0.2,0.3-0.5,0.3-0.8
		c2.6-3.5,3.4-7.5,2.7-11.7c0.3-0.8,0.7-1.5,1-2.3c2.6-4.7,7.3-6,12-7c5.5-1.9,10.9,1.2,16.4,0.1c0.8,0.6,1.5,1.2,2.3,1.8
		c0.7,2.5,3.2,2.8,5,3.9c0,0.4,0.2,0.7,0.4,0.9c0.6,5,1.1,10,1.7,15c-0.1,1.7-0.2,3.4-0.4,5.1c-1.6,3.5-2.8,7.2-2.1,11.2
		c-0.1,1.7-0.3,3.4-0.4,5.1c-3.9,7.9-5.9,16.5-9.7,24.4c-1.2,2.5-4.5,4.5-3.6,8c-0.1,1.7-0.2,3.3-0.4,5
		c-8.8,8.1-12.2,19.3-16.8,29.8c-0.2,0.4-0.4,0.7-0.5,1.1c-1.4,1-1.8,2.4-1.5,4c-0.1,0.4-0.2,0.8-0.3,1.3c-1.2,1.7-3.1,2.5-4.9,3.3
		c-1.3-0.6-2.6-0.9-3.8,0.3c-0.8-0.1-1.6-0.1-2.4-0.2c-1.2-2.5-3-2.5-5.1-1.2c-0.7-0.1-1.5-0.2-2.2-0.3
		C552.6,476.7,551.8,475.7,550.5,477.3z"/>
	<path class="st14" d="M396.3,438.2c-0.7-1.5-1.4-3.1-3.2-3.5c-9.1-1.9-16.7-6.2-22.3-13.7c0.1-2.3-0.2-4.4-0.8-6.7
		c-3.7-14.3-7-28.6-8.2-43.3c1-2.7-1.9-4.6-1.4-7.1c1.8-9.9-1.8-20.1,2.1-29.8c0.9-2.1-1-5.8,2.4-6.2c3.2-0.3,6.5-0.4,9.1,3.3
		c2,2.8,3,7.4,7.8,7.5l0,0c-0.7,2.1-0.3,4.4,0.6,5.9c6.4,10.3,10.5,21.9,18.2,31.4c0.1,1.9,1.1,2.8,2.8,2.1c1.5-0.6,2.2-1.8,1.2-3.5
		c0.7-2,1.5-4.1,2.2-6.1c1.2-0.5,2.5-0.9,1.4-2.6c0.2-0.8,0.4-1.6,0.6-2.4c4.7-8.6,9.2-17.3,15.8-24.6c0.3,0,0.6-0.2,0.8-0.5
		c1.5,0.1,2.4-0.7,2.9-2.1c0.3-0.4,0.7-0.8,1-1.2c1.6-0.2,3.3-0.3,4.9-0.5c1.5,1.4,3.3,1.1,5.1,1.1l0.2,0.2
		c-0.3,3.9,1.4,7.5,1.9,11.3c-0.4,1.7-0.4,3.4,0.5,4.9c0.4,0.9,0.7,1.7,1.1,2.6c-0.8,2-1.3,4.1-0.9,6.3c-1.8,1.4-1.6,3.1-0.9,4.9
		c-0.8,3-1.6,5.9,0.7,8.6c0.3,2.4-1.2,5.9,3.5,5.3c0.8,0,1.6,0,2.4,0c2.6,1.2,3.3-0.9,4.3-2.5c0.3,0,0.6-0.1,0.8-0.4
		c1.5,0,2.3-0.8,2.8-2.2c0.7-0.5,1.4-1,2.2-1.6c1.5,0,2.4-0.8,2.9-2.1c1.9-2.2,5.3-0.7,7.1-3c4.3-0.9,8.3,2.1,12.6,0.8
		c1.3,0.6,2.3,1.3,2.9,2.9c3.1,7.9,1.2,15.2-1.9,22.5c-2.5,4.3-5,8.5-7.5,12.8c-0.3,0.1-0.3,0.3-0.2,0.5
		c-5.9,8.9-11.7,17.8-17.6,26.7c-0.3,0-0.5,0.1-0.7,0.4c-3.5,0.6-4.2,3.4-5,6.1c-3.2,2.8-6.6,5.5-7.5,10c-0.7,0.8-1.3,1.5-2,2.3
		c-2.2-0.3-4.4-1.5-6.7-1c-2.1-1.3-3.3-4-6.2-3.8c-3.3-0.8-6.5-1.7-9.8-2.5c-2.1-3.7-5.7-2.9-9-2.9
		C405.3,440.7,401.4,437.9,396.3,438.2z"/>
	<path class="st10" d="M481.8,464.5c-1.5-1.1-3.3-0.9-5-0.8c-4.3-2.1-8.8-3.1-13.6-2.3c-0.4-0.6-0.9-1.1-1.3-1.7
		c-1.1-2.7-3.7-2-5.8-2.3c-4.1-0.5-6.6-1.9-4.8-6.7c0.4-1.1,0.1-2.4,0.1-3.6c1.6-1.3,2.6-2.9,3-4.9c1.2-0.9,2.5-1.9,3.7-2.8
		c8.6-6.9,14.9-15.5,18.8-25.8c0.1-2.5,3-3.5,3.4-5.5c0.7-3.5,2.9-3,5.4-3c3.5,0,2.7,2.8,3.2,4.8c-0.9,1.8-1.1,3.7,0.2,5.4
		c0.2,0.6,0.4,1.3,0.5,1.9c0,2.1-0.5,4.2-0.1,6.2c3,13.5,6.2,26.9,13.1,39.1c0.1,0.8,0.1,1.5,0.2,2.3c-0.3,1.3-0.6,2.6-0.9,3.9
		c-1-0.1-2,0-2.6,0.9c-1.9-0.1-3.8-0.3-5.8-0.4c-0.8-1.1-1.5-2.2-3-0.8c-1.9-0.1-3.7-0.4-5.3-1.5
		C484.8,464.9,484.1,463.5,481.8,464.5z"/>
	<path class="st10" d="M607.5,447.5c0.7,3.4,2.8,6.3,2.8,9.9c-1,0.9-0.5,1.7-0.1,2.7c2.7,7.2,6.1,14.1,9.8,20.8
		c-0.1,0.7-0.3,1.3-0.4,2c-1.6,1.1-2.2,2.6-1.4,4.5c-0.8,0.1-1.5,0.2-2.3,0.3c-0.8-1-1.6-2.2-3.1-0.8c-0.7-0.1-1.3-0.2-2-0.2
		c-0.7-1.3-1.5-2.3-3-0.8c-2.9-0.3-5.8-0.7-8.7-1c-2.7-1.6-5.4-3.1-8.7-1.6c-2.5-0.3-5-0.6-7.5-0.9c-1.1-1.5-2.5-1.4-4-0.7
		c-0.4-0.2-0.8-0.4-1.3-0.6c0.1-1.8,0.5-3.6-0.9-5.2c0.1-1.6,0.2-3.2,0.3-4.8c0,0,0.1-0.1,0.1-0.1c7.8-9,12.6-19.8,18.2-30.1
		c0.2-0.6,0.3-1.2,0.5-1.8c1.5-0.3,3.1-0.6,4.6-0.8c1.1,0.6,2.2,1.1,3.4,1.7C605,442.5,606.2,445,607.5,447.5z"/>
	<path class="st2" d="M502.6,462.5c-6.9-12.2-10.1-25.7-13.1-39.1c-0.4-1.9,0-4.1,0.1-6.2c3.2,0.3,1.5,3.8,3.2,5
		c3.7,10.3,5.8,21.1,9.9,31.3c1.4,3.6,5.3,6.7,3.6,11.4c-0.6-0.1-1.3-0.1-1.9-0.2C504.2,463.6,504,462.6,502.6,462.5z"/>
	<path class="st13" d="M451.4,447.2c0,1.2,0.3,2.5-0.1,3.6c-1.8,4.8,0.7,6.2,4.8,6.7c2.1,0.3,4.6-0.4,5.8,2.3c-2.7,0-5.4,0.2-8-0.2
		c-2.4-0.3-5.3-1.1-5.5-4.1C448.1,452.4,446.7,448.6,451.4,447.2z"/>
	<path class="st2" d="M463.2,461.4c4.8-0.8,9.3,0.2,13.6,2.3C472.1,464,467.1,466,463.2,461.4z"/>
	<path class="st3" d="M619.6,482.9c0.1-0.7,0.3-1.3,0.4-2c0.5-0.1,1.1-0.1,1.6-0.2c1.9,4.3,6.4,4.7,9.9,6.6
		c-4.3,3.8-7.3-2.2-11.2-1.4C620,484.9,619.8,483.9,619.6,482.9z"/>
	<path class="st2" d="M516.8,472.2c3.8-1.2,7.2-0.6,10.1,2.1C523.3,474.9,519.7,475.3,516.8,472.2z"/>
	<path class="st6" d="M458,439.4c-1.2,0.9-2.5,1.9-3.7,2.8c-0.4-0.4-0.8-0.8-1.2-1.2c0.8-2.1,1.7-4.1,2.5-6.2
		c0.1-0.3,0.3-0.4,0.7-0.4C460.3,434.9,458.4,437.4,458,439.4z"/>
	<path class="st2" d="M533.1,474.6c3.6-1.3,6.7-0.2,9.7,1.7c-1.4,1.4-3.2,0.6-4.8,0.8c-0.6-0.9-1.5-1.1-2.6-1.1
		C534.5,475.8,533.5,475.7,533.1,474.6z"/>
	<path class="st3" d="M409.4,443c3.3,0,6.9-0.8,9,2.9C415.2,445.5,411.2,447.8,409.4,443z"/>
	<path class="st2" d="M590.4,483.3c3.3-1.5,6-0.1,8.7,1.6C595.8,486.6,593,485.1,590.4,483.3z"/>
	<path class="st13" d="M455.6,434.9c-0.8,2.1-1.7,4.1-2.5,6.2c-0.8,0-1.7,0-2.5,0C451.4,438.3,452.1,435.4,455.6,434.9z"/>
	<path class="st3" d="M428.2,448.4c2.9-0.2,4.2,2.5,6.2,3.8C430.6,453.8,428.9,451.9,428.2,448.4z"/>
	<path class="st3" d="M642.8,488.6c2.1,0,4.4-0.8,6.2,1.2C646.5,491.3,644.2,492.3,642.8,488.6z"/>
	<path class="st3" d="M680.2,488.4c1.3-1.9,2.7-3.4,5-1.2C683.7,488.4,682.5,490.6,680.2,488.4z"/>
	<path class="st2" d="M555.5,478.1c2.1-1.3,3.9-1.3,5.1,1.2C558.8,479.6,556.8,480.4,555.5,478.1z"/>
	<path class="st2" d="M576.7,476c1.4,1.5,1,3.4,0.9,5.2C574.3,479.9,574.8,478.1,576.7,476z"/>
	<path class="st3" d="M481.8,464.5c2.4-1.1,3.1,0.4,3.5,2.3C483.2,467.4,481.9,466.8,481.8,464.5z"/>
	<path class="st3" d="M661.5,488.6c1.4-0.2,2.8-0.4,3.7,1.1C663.3,491.6,662.1,491.2,661.5,488.6z"/>
	<path class="st2" d="M578.9,481.7c1.5-0.7,2.9-0.8,4,0.7C581.2,484,579.9,483.6,578.9,481.7z"/>
	<path class="st2" d="M563,479.5c1.2-1.1,2.5-0.9,3.8-0.3C565.6,481.1,564.4,481.5,563,479.5z"/>
	<path class="st2" d="M619.6,482.9c0.2,1,0.5,2,0.7,3.1c-0.7,0.5-1.4,1-2.1,1.5C617.4,485.5,617.9,484,619.6,482.9z"/>
	<path class="st3" d="M667.8,489.8c0.5-1,1.4-1.3,2.5-1.1C669.9,490.2,669.6,491.5,667.8,489.8z"/>
	<path class="st2" d="M550.5,477.3c1.3-1.6,2-0.5,2.7,0.6C552.2,478.4,551.3,478.4,550.5,477.3z"/>
	<path class="st3" d="M535.5,476c1,0,1.9,0.2,2.6,1.1C536.1,479.1,535.8,477.7,535.5,476z"/>
	<path class="st2" d="M607.8,485.8c1.5-1.5,2.3-0.5,3,0.8C609.6,487.2,608.5,487.2,607.8,485.8z"/>
	<path class="st2" d="M612.8,486.9c1.5-1.4,2.2-0.2,3.1,0.8C614.6,488.4,613.5,488.4,612.8,486.9z"/>
	<path class="st3" d="M687.7,487.2c0.6-0.9,1.5-1.2,2.5-1.2C690,487.6,689.7,489.1,687.7,487.2z"/>
	<path class="st2" d="M490.5,468.4c1.4-1.4,2.2-0.3,3,0.8C492.3,469.7,491.3,469.6,490.5,468.4z"/>
	<path class="st2" d="M499.3,469.6c0.7-0.9,1.6-1,2.6-0.9C501.5,470.5,500.9,471.5,499.3,469.6z"/>
	<path class="st3" d="M502.6,462.5c1.4,0.1,1.6,1.1,1.7,2.2c-0.5,0-1,0-1.5,0.1C502.7,464,502.7,463.3,502.6,462.5z"/>
	<path class="st3" d="M441.1,453.2c0.7-0.8,1.3-1.5,2-2.3C445.2,454.1,442.5,453.1,441.1,453.2z"/>
	<path class="st3" d="M573.4,470.7c0.2-0.4,0.4-0.7,0.5-1.1c1.1,0.5,2.1,1,3.2,1.5c0,0-0.1,0.1-0.1,0.1
		C575.8,471,574.6,470.9,573.4,470.7z"/>
	<path class="st13" d="M571.7,476c0.1-0.4,0.2-0.8,0.3-1.3c0.1,0.3,0.2,0.7,0.2,1C572.2,475.8,571.8,475.9,571.7,476z"/>
	<path class="st11" d="M313,298.7c2-1.4,1.8-3,0.7-4.8c0.7-3.9-0.7-7.5-1-11.3c1-2,0.8-4.1,0.8-6.2c1.9-3.2,0.1-7.2,2.3-10.2
		c0.6-0.2,1.1-0.5,1.7-0.7l0,0c1.9-5.2,4.1-10.3,8.5-14c0.7-0.6,1.5-1.1,2.2-1.7c5.5,0.7,10.8-1.4,16.3-1.4c1.2,0.1,2.5,0.2,3.7,0.4
		c6.7,1.6,10-2.4,9.1-11.3c0.2-2.1,0.5-4.2,0.7-6.2c2.6-2,6.1-3,7.6-6.4c1.7,0,3.4,0.1,5.1,0.1c2.6,2,5.9,2.1,8.8,2.3
		c4.6,0.2,5.3,2.3,5.1,6.3c-0.1,2.5-2.9,5.7,1,7.8c-2.1,7.2,1.4,14.4,0.2,21.6c-0.2,1,0.9,2.2,1.4,3.3c-0.3,1-0.2,1.9,0.7,2.6
		c-1.1,3.5,1.9,6.5,1.4,9.9c-2.1,3.2,0,5,2.2,6.8c0.3,4.6,1,8.9,3.1,13.2c2.7,5.5,4.4,11.5,7,17.1c3.5,7.4,7.6,13.9,13.7,19.3l0.1,0
		c0.2,0.4,0.4,0.7,0.6,1.1c-0.1,1.3-0.2,2.5-0.3,3.8c-2,7.7-8.5,13.2-10.3,21c-0.4,0.1-0.7,0.2-1,0.5c-1.1-0.2-2,0.1-2.5,1.3
		c-3.8,0.3-5.4-2.1-6.2-5.3c-0.4-0.5-0.8-1-1.1-1.5c-0.7-1.1-1.4-2.3-2.1-3.4c-0.2-0.3-0.4-0.5-0.6-0.8c-1.8-3.5-3.5-6.9-5.3-10.4
		c-0.3-0.4-0.6-0.7-1-1.1c-0.9-1.5-2-2.5-3.8-1.4c0,0,0,0,0,0c-0.7-6.5-4.6-11.4-9.4-14.6c-6.1-4-14.3,0.5-15.5,7.5
		c-1,5.7-1.7,11.4-2.5,17c-6.6,0.2-11.5-4.2-13.9-11.6c-1.3-4-2.3-9-8.2-9.3c-1.1-1.1-2.2-2.2-3.3-3.3c-0.2-2.8-2.3-4.4-4.3-5.8
		c-3.7-2.6-7.6-4.9-10.3-8.6c0-0.9,0-1.8,0-2.7c1.7-1.7,1.4-3-0.9-3.8C313.4,302,313.2,300.4,313,298.7z"/>
	<path class="st8" d="M329.1,324.5c1.1,1.1,2.2,2.2,3.3,3.3c0.2,1.2,0.2,2.5,0.7,3.6c4.5,11.1,14.1,19.1,18.7,30.1
		c0.8,3.1,1,6.5,4.7,7.7c1.1,1.5,2.5,2.2,4.3,1.3c0.4,0.2,0.7,0.3,1.1,0.5c1.1,14.7,4.5,29.1,8.2,43.3c0.6,2.3,0.9,4.4,0.8,6.7
		c0,0.4-0.1,0.8-0.2,1.1c-1.4,0.2-2.3,0.9-2.7,2.3c-0.7,0.2-1.4,0.4-2.1,0.6c-4.9-0.2-8.2-3.7-12.2-5.8c-1.1-1.5-2.2-2.9-3.2-4.4
		c0.3-1.6-0.5-2.5-2-2.9c-0.1-0.3-0.2-0.6-0.4-0.9c-0.2-3.3-1.9-4.3-4.9-3.4c-3.3-0.5-6.6-1-9.8-1.4c-3.2-3.1-6.4-6.3-9.6-9.4
		c-0.8-1.4-1.7-2.9-2.5-4.3c-0.3-3.5,4.4-7.7-1.5-10.4c-0.8-1.1-1.5-2.2-2.3-3.3c0.9-2.4-0.5-4.5-1.3-6.5
		c-3.5-9.1-7.5-17.9-9.5-27.5c-0.1-0.6-1.1-1-1.7-1.6c-0.2-1.2-0.5-2.3-0.7-3.5c1.4-0.7,1.5-2,1-3.2c-1.5-4-0.8-8.2-0.6-12.2
		c0.3-6.2,5.9-9.1,11.9-7.1C321.2,318.9,324.3,323,329.1,324.5z"/>
	<path class="st2" d="M329.1,324.5c-4.7-1.5-7.9-5.6-12.7-7.2c-5.9-2-11.5,0.9-11.9,7.1c-0.2,4-0.9,8.2,0.6,12.2
		c0.5,1.2,0.4,2.4-1,3.2c-5.6-10.3-2.9-20.4,7.4-26.1c1.7-1,1.6-2.8,2.9-3.7c2.8,3.7,6.6,6,10.3,8.6
		C326.8,320.1,328.8,321.7,329.1,324.5z"/>
	<path class="st2" d="M304.9,343.4c0.6,0.5,1.6,0.9,1.7,1.6c2.1,9.5,6.1,18.4,9.5,27.5c0.8,2,2.2,4.1,1.3,6.5
		c-3.6-1.6-4-5.4-4.7-8.2C310.3,361.5,303.9,353.5,304.9,343.4z"/>
	<path class="st2" d="M319.7,382.2c5.9,2.7,1.2,6.9,1.5,10.4C318,389.5,320.2,385.7,319.7,382.2z"/>
	<path class="st2" d="M313.6,303.6c2.3,0.8,2.6,2.1,0.9,3.8C313.2,306.4,313.4,305,313.6,303.6z"/>
	<path class="st2" d="M367.9,424.5c0.4-1.4,1.3-2.2,2.7-2.3C370.7,424.1,369.8,424.8,367.9,424.5z"/>
	<path class="st2" d="M343.1,407.8c3-0.9,4.7,0.1,4.9,3.4C346,410.7,344,410.1,343.1,407.8z"/>
	<path class="st2" d="M348.5,412.1c1.5,0.4,2.3,1.2,2,2.9C348.8,414.7,348.2,413.7,348.5,412.1z"/>
	<path class="st3" d="M595.8,439.2c-0.2,0.6-0.3,1.2-0.5,1.8c-1.7,0.2-3.2-0.2-4.6-1.2c0.1-1.7,0.2-3.3,0.4-5
		c2.8-1.2,4.2-3.5,5.8-6.1c2.7-4.5,2.3-10.1,4.9-14.3c2.4-4,2.9-7.8,2.6-12c0.1-1.7,0.3-3.4,0.4-5c4.2-3.1,3.7-7,2.1-11.2
		c0.1-1.7,0.2-3.4,0.4-5.1c3.1-4.8,2.5-10.8-1.7-15c-0.2-0.3-0.4-0.6-0.4-0.9c0.2-3.7-2.1-4.2-5-3.9c-0.8-0.6-1.5-1.2-2.3-1.8
		c-0.5-2.3-2.3-2-3.9-2c-2.2-0.1-1.4-1.4-1.1-2.6c1.5-0.2,2.9-0.3,4.4-0.5c2.1,0.2,4.4-0.1,5.5,2.3c0.3,0.3,0.6,0.6,0.9,0.9
		c0,0,0.3,0.2,0.3,0.2c0.1,1.5,0.9,2.3,2.4,2.2c1.9,2.4,5.1,3.8,5.3,7.4c-1.9,1.6-1,2.2,0.8,2.6c0.3,0.8,0.7,1.6,1,2.3
		c-0.8,0.2-1.7,0.7-1.4,1.5c0.2,0.5,1.2,0.7,1.8,1.1c0.3,0.2,0.4,0.4,0.4,0.7c-0.3,1.1-0.3,2.2,0.8,2.9c0.2,2.5,0.1,5-0.7,7.5
		c-2.2,2.6-4,5.3-1.7,8.8c-0.3,2.9-0.6,5.8-1,8.7c-1.3,0.6-1.4,1.7-1.1,2.9l-0.2-0.3c0,0,0.1,0.3,0.1,0.3c-3.6-0.2-5,1.1-3,4.6
		c-0.1,0.8-0.3,1.7-0.4,2.5c-2.8,1.4-2.4,3.1-0.6,5.1c-1,5.1,3,5,6.1,5.8c0.4,2.3,3.5,1.1,4.2,3.4c-1.2,1.4-3.1,0.4-4.4,1.1
		c-1,0-2,0-3.1,0c-1.6-0.2-3.1-0.3-1.9,2.1c-0.1,0.9-0.1,1.7-0.2,2.6c-3.5,0.9-0.6,5.4-3.6,6.6c-1.1-0.6-2.2-1.1-3.4-1.7
		c-0.2-1.7-1.2-2.4-2.9-2.2C595.7,436.4,595.4,437.6,595.8,439.2z"/>
	<path class="st5" d="M700.2,413.6c-1.3,0-2.5,0-3.8-0.1c0-1.2,0-2.5,0.1-3.7c1.6-2,3.7-2.9,6.3-2.3c5.3,2,10.9,0.5,16.3,0.9
		c0.9,1.2,1.8,2.4,2.7,3.5c0.4,5.2,3.7,6.6,8.3,6.6c-0.4,1.3-0.7,2.6-1.1,3.9c-0.8,0-1.6,0.1-2.4,0.1c-1.7-2.5-4.2-1.2-6.3-1.4
		c-0.5-2.6,1.7-6.8-3.9-6.2c-1.2-0.1-2.4-0.2-3.6-0.4c-1.4-3.5-3.7-2.7-6.2-1.2C704.4,413.5,702.3,413.5,700.2,413.6z"/>
	<path class="st2" d="M621.6,480.7c-0.5,0.1-1.1,0.1-1.6,0.2c-3.7-6.7-7.1-13.6-9.8-20.8c-0.4-1-0.9-1.9,0.1-2.7
		c3.2,0.7,3.9,4.1,4.5,6C616.5,469.5,621.1,474.3,621.6,480.7z"/>
	<path class="st3" d="M717,459c-0.1,0.7-0.2,1.3-0.3,2c-1.5,0-3.1,0-4.6,0c0.8-4.8-0.5-10.3,4.2-14C720.2,450.8,714.8,455.1,717,459
		z"/>
	<path class="st13" d="M603.7,440c3-1.2,0.1-5.6,3.6-6.6c1,3.4-0.6,7.1,2.1,10.3c1.4,1.6-0.5,2.8-1.9,3.7
		C606.2,445,605,442.5,603.7,440z"/>
	<path class="st4" d="M712,461c1.5,0,3.1,0,4.6,0c0,0.8,0.1,1.6,0.1,2.4c-1.4,1.7-2.8,3.4-4.2,5.1c-1.3-0.4-2.5-0.9-3.8-1.3
		C708.2,464.3,710.6,462.9,712,461z"/>
	<path class="st2" d="M717,459c-2.2-3.9,3.2-8.2-0.7-12c0.4-0.7,0.7-1.5,1.1-2.2C722.8,449.7,719.2,454.3,717,459z"/>
	<path class="st2" d="M720.1,421.2c2.2,0.2,4.7-1.2,6.3,1.4c-2.3,3.8-6,1.2-9,1.9c-0.4-0.7,0.1-0.9,0.6-1
		C719.4,423.3,720.1,422.6,720.1,421.2z"/>
	<path class="st13" d="M720.1,421.2c-0.1,1.4-0.8,2.1-2.1,2.3c-1.3-2.7,0.8-6.1-1.8-8.5C721.8,414.4,719.6,418.7,720.1,421.2z"/>
	<path class="st13" d="M706.5,413.4c2.4-1.4,4.7-2.3,6.2,1.2C710.5,414.7,708.2,415.6,706.5,413.4z"/>
	<path class="st13" d="M607.5,430.9c-1.2-2.4,0.3-2.3,1.9-2.1C609.1,429.8,608.6,430.6,607.5,430.9z"/>
	<path class="st2" d="M728.9,422.5c0.4-1.3,0.7-2.6,1.1-3.9c0.5-0.1,1-0.2,1.5-0.2c0.3,0,0.7,0.1,1,0.1
		C732.1,420.6,733.1,423.9,728.9,422.5z"/>
	<path class="st2" d="M748.9,412.2c0.7-1,1.7-1.1,2.7-1C751.1,412.6,750.5,413.9,748.9,412.2z"/>
	<path class="st6" d="M510.3,306c0.2-2.4,0.5-4.8,0.7-7.2c2.3-0.8,2.6-2,0.8-3.7c-0.1-2-0.2-3.9-0.4-5.9c0-2-0.1-4-0.1-6
		c0-1,0.1-2.1,0.1-3.1c2.1-1.3,1.4-3.3,1.4-5.2c0,0,0,0,0,0c1.3,0.5,2.6,0.9,3.9,1.4c-0.4,4.3-1.9,8.9-1,12.9
		c2.5,11-1,21.3-2.5,31.8c-0.3,1.8-0.2,3.9-2.9,4c-2.1,0-4.1,0.2-5.6-1.8c-3.2-4.3-6.8-8.4-9.5-12.9c-4.5-7.7-10.3-13.8-18.4-17.7
		c0.6-1,1.5-1.2,2.5-1.2c1.9,2.1,4.3,1,6.5,1.1c3.3,2.9,6.5,5.9,9.8,8.8c-0.1,1.5,0.6,2.5,2.2,2.6c2.2,5.1,5.8,7.6,11.5,6.2
		C510.8,308.9,510.5,307.4,510.3,306z"/>
	<path class="st3" d="M479.3,291.3c-1,0-1.9,0.2-2.5,1.2c-4.2-0.4-6.7,1-6.3,5.7c0.2,2-0.6,3.6-2.5,4.4c-2,1.3-3.9,5.5-5.9,0
		c0.2-2.1,0.4-4.1,0.6-6.2c2-0.7,2.9-2.1,2.9-4.2c0-1.8,0.3-3.3,2.5-3.4c0.8,0.1,1.7,0.2,2.5,0.3c0.4,0.6,0.8,0.5,1.2,0
		c1.1-0.2,2.3-0.3,3.4-0.5c1.4,0.1,2.8,0.1,4.2,0.2c0,0,0,0,0,0C479.4,289.5,479.3,290.4,479.3,291.3z"/>
	<path class="st13" d="M516.8,276.3c-1.3-0.5-2.6-0.9-3.9-1.4c3.3-5.2,1.2-12.4,6.4-17c0.8-0.7,1.4-1.5,2.5-1.6
		c0,1.3,0.1,2.6,0.1,3.9C522.8,266.4,518.3,270.9,516.8,276.3z"/>
	<path class="st2" d="M461.7,280.1c-3.6-4.8-5.7-10.4-7.5-16c1.7-0.9,1.5-2.4,1.4-3.9c0,0,0.2-0.3,0.2-0.3
		c3.4,6.3,6.7,12.7,7.4,20.1C462.7,280,462.2,280,461.7,280.1z"/>
	<path class="st13" d="M461.7,280.1c0.5,0,1-0.1,1.5-0.1c3.4,2,2.8,6.1,4.9,8.8c-2.2,0.2-2.5,1.7-2.5,3.4c0,2.1-0.8,3.5-2.9,4.2
		C463,290.9,463.1,285.4,461.7,280.1z"/>
	<path class="st13" d="M479.3,291.3c0-0.9,0.1-1.7,0.1-2.6c2.1,1.2,5.2,0.8,6.4,3.7C483.6,292.2,481.2,293.4,479.3,291.3z"/>
	<path class="st13" d="M512.8,274.9c0.1,1.9,0.8,3.9-1.4,5.2C510.3,278,509.8,276,512.8,274.9z"/>
	<path class="st13" d="M511.3,283.2c0,2,0.1,4,0.1,6C508.4,287.3,508.9,285.3,511.3,283.2z"/>
	<path class="st13" d="M555.2,269.3c-2.5,1.6-3.8,0.4-4.7-2C552.1,268,554.3,267.1,555.2,269.3z"/>
	<path class="st13" d="M542.7,256.3c-2-0.2-3.2-1.2-3.6-3.2C541.9,252.5,542.6,254.1,542.7,256.3z"/>
	<path class="st13" d="M511.8,295.1c1.7,1.7,1.4,2.9-0.8,3.7C510.5,297.4,510.4,296.1,511.8,295.1z"/>
	<path class="st13" d="M479.4,288.7c-1.4-0.1-2.8-0.1-4.2-0.2C476.7,286,478.1,285.5,479.4,288.7z"/>
	<path class="st13" d="M535.4,252.7c-0.9,1.3-1.7,1-2.4-0.2C533.9,251.5,534.7,251.5,535.4,252.7z"/>
	<path class="st13" d="M497.8,303.8c-1.6-0.1-2.3-1-2.2-2.6C497.1,301.4,497.9,302.2,497.8,303.8z"/>
	<path class="st13" d="M510.3,306c0.2,1.5,0.5,3-1,4C509.3,308.6,509.2,307.1,510.3,306z"/>
	<path class="st13" d="M529.7,252.3c-1.1,0-2.1,0.1-3.2,0.1C527.5,251.1,528.5,251.2,529.7,252.3z"/>
	<path class="st13" d="M471.8,289c-0.4,0.6-0.8,0.6-1.2,0C471,289,471.4,289,471.8,289z"/>
	<path class="st6" d="M620.8,319.5c-1.4,0.6-3.3,0.3-4.3,1.9c-2-0.2-4.1-0.5-6.1-0.7c-3.4-4.4-7.1-0.2-10.6-0.1
		c-1.3,0-2.5,1.6-0.7,3.2c0.3,2-0.9,3-2.5,3.8c-0.3,0.6-0.6,1.2-0.9,1.9c0,0.6-0.1,1.3-0.1,1.9c-1.1,0.1-2.2,0.2-3.3,0.3
		c-1.3,0-2.7,0-4-0.1c-0.6-0.6-1.2-1.2-1.9-1.8c0.5-0.8,0.9-1.5,1.4-2.3c0.4-0.5,0.7-0.9,1.1-1.4c1.4-7.8,6.5-13.8,9.7-20.8
		c3.5-7.5,1.8-12.9-6.6-14c-2.6-0.4-4.8-0.3-7.6,0.7c-6,2.1-11.5,5.1-17.5,7.1c-0.7-0.1-1.4-0.3-2.2-0.4c1.4-7.2,9.6-9.2,12-15.7
		c0.1-0.3,2.3,0.1,3.5,0.1c1.1,1.1,2.5,1,3.9,0.8c4.3,2.3,8.3-1.3,12.5-0.5c2,0.2,4.1,0.4,6.1,0.6c0,0.3,0.1,0.7,0.1,1
		c0.4,2.2-1.4,5.1,1.9,6.4c1.6,2.7,1.1,5.8,1.7,8.7c-1.6,1.9-2.2,4-1.5,6.3c-1,2-1.1,4-0.5,6.1c-0.2,3.5,3,2,4.5,3.1
		c1.4,2.8,3.1,2.5,5.1,0.7c2.1,0,4.1,0.1,6.2,0.1C620.5,317.4,620.6,318.4,620.8,319.5z"/>
	<path class="st12" d="M588.3,331.5c1.3,0,2.7,0,4,0.1c0.5,1.5,1.7,2.3,3.1,2.8c0,3.8-2,7.3-1.2,11.2c-1.8,2.3-1.1,5-1.4,7.6
		c-8.1,4.9-11.1,3.5-12.7-5.8c0.9-2.1,2.7-3.7,2.9-6.2C586,338.7,587,335,588.3,331.5z"/>
	<path class="st13" d="M599.1,323.7c-1.7-1.5-0.6-3.1,0.7-3.2c3.5-0.1,7.1-4.3,10.6,0.1C606.6,321.7,602.9,322.7,599.1,323.7z"/>
	<path class="st0" d="M592.7,353.1c0.3-2.6-0.4-5.3,1.4-7.6c4.6,1.7,0.7,6.4,3.2,8.8c-1.5,0.2-2.9,0.3-4.4,0.5
		C592.8,354.3,592.8,353.7,592.7,353.1z"/>
	<path class="st13" d="M612.8,394.8c-2.3-3.5-0.5-6.2,1.7-8.8C615.2,389.2,614.5,392.1,612.8,394.8z"/>
	<path class="st13" d="M607.7,411c-2-3.5-0.6-4.7,3-4.6C609.7,408,608.7,409.5,607.7,411z"/>
	<path class="st13" d="M606.7,418.6c-1.7-1.9-2.1-3.7,0.6-5.1C607.9,415.3,607.8,417,606.7,418.6z"/>
	<path class="st13" d="M615.1,378.6c-1.1-0.8-1-1.8-0.8-2.9C615.7,376.3,617,377,615.1,378.6z"/>
	<path class="st0" d="M606.4,359.9c-1.5,0-2.3-0.7-2.4-2.2C605.8,357.3,606.4,358.4,606.4,359.9z"/>
	<path class="st13" d="M595.3,334.3c-1.4-0.5-2.6-1.2-3.1-2.8c1.1-0.1,2.2-0.2,3.3-0.3C595.5,332.3,595.4,333.3,595.3,334.3z"/>
	<path class="st13" d="M610.7,406.4c-0.4-1.2-0.2-2.3,1.1-2.9C612.8,405,612.4,405.9,610.7,406.4z"/>
	<path class="st13" d="M612.5,369.9c-1.8-0.4-2.8-1-0.8-2.6C612,368.2,612.3,369.1,612.5,369.9z"/>
	<path class="st13" d="M614,374.9c-0.6-0.4-1.7-0.6-1.8-1.1c-0.3-0.8,0.6-1.3,1.4-1.5C613.7,373.1,613.8,374,614,374.9z"/>
	<path class="st13" d="M595.7,329.3c0.3-0.6,0.6-1.2,0.9-1.9C596.3,328.1,596,328.7,595.7,329.3z"/>
	<path class="st0" d="M603.7,357.5c-0.3-0.3-0.6-0.6-0.9-0.9C603.5,356.5,603.8,356.8,603.7,357.5z"/>
	<path class="st2" d="M612.2,275.7c0.1,1.2-0.3,2.2-1.4,2.6c-1.6,0.6-3.3,0.1-3.6-1.4c-1.3-5.3-5.3-9.2-6.9-14.3
		c-0.7-2.3-0.3-4.7,1.5-5.4c3-1.1,2.7,1.8,3.4,3.7c1.7,4.3,5.4,7.7,6.1,12.7C611.3,274.2,611.9,275,612.2,275.7z"/>
	<path class="st12" d="M596.7,283.3c-4.2-0.8-8.2,2.8-12.5,0.5c2.5-1.2,4.9-2.8,7.5-3.6C593.9,279.5,596.1,280.4,596.7,283.3z"/>
	<path class="st12" d="M609,315.5c-1.5-1-4.7,0.4-4.5-3.1c2.4,0.8,5.9-1.7,7,2.6C610.7,315.2,609.9,315.3,609,315.5z"/>
	<path class="st12" d="M605.1,306.4c-0.7-2.4-0.1-4.5,1.5-6.3C608.3,302.6,609.4,305.1,605.1,306.4z"/>
	<path class="st12" d="M620.8,319.5c-0.2-1.1-0.3-2.1-0.5-3.2c3-1.2,3.4-0.8,3.8,3.6c-0.7-0.1-1.5-0.2-2.2-0.4
		c-0.5,0.1-1,0.1-1.4,0.2L620.8,319.5z"/>
	<path class="st13" d="M604.9,291.3c-3.4-1.3-1.5-4.2-1.9-6.4c0.8,0.5,1.6,0.9,2.4,1.4C605.2,288,605,289.6,604.9,291.3z"/>
	<path class="st2" d="M577.8,274.8c-1.5,1-3.2,2.2-3.8-0.9c2.2-0.3,2.9-1.5,2.3-3.5c0.1-0.2,0.3-0.3,0.4-0.5
		c0.4,0.1,0.7,0.1,1.1,0.2C577.8,271.7,577.8,273.3,577.8,274.8z"/>
	<path class="st13" d="M609,315.5c0.9-0.2,1.7-0.3,2.6-0.5c0.8,0.4,1.7,0.8,2.5,1.2C612.1,318,610.4,318.3,609,315.5z"/>
	<path class="st12" d="M605.3,286.3c-0.8-0.5-1.6-0.9-2.4-1.4c-0.1-0.3-0.1-0.7-0.1-1c0.6-1.1,1.5-1.3,2.5-0.5
		C606.4,284.2,606.8,285.3,605.3,286.3z"/>
	<path class="st12" d="M577.8,270.2c-0.4-0.1-0.7-0.1-1.1-0.2c-0.7-1.6-2.1-3.2-0.1-4.9C578.5,266.4,577.8,268.4,577.8,270.2z"/>
	<path class="st12" d="M592.8,226.7c1.4-0.3,2.8-0.4,3.8,0.9C594.8,229.5,593.5,229.2,592.8,226.7z"/>
	<path class="st12" d="M630.3,328.6c-1.8-0.5-2.4-1.9-2.6-3.6C630.2,325,630.3,326.8,630.3,328.6z"/>
	<path class="st12" d="M626.4,322.8c-1.4-0.5-2.3-1.3-2.3-2.9C625.9,320.1,626.6,321.1,626.4,322.8z"/>
	<path class="st12" d="M621,246.2c0.2,0.9,0.4,1.8,0.6,2.7c-0.7-0.3-1.7-0.6-1.9-1.1C619.3,246.9,620.2,246.5,621,246.2z"/>
	<path class="st0" d="M719,408.4c-5.4-0.4-10.9,1.1-16.3-0.9C706.2,404.1,713.2,404.5,719,408.4z"/>
	<path class="st0" d="M731.4,418.3c-0.5,0.1-1,0.2-1.5,0.2c-4.5,0-7.9-1.4-8.3-6.6c3.1,1.8,5.6,5,9.7,4.6
		C731.5,417.2,731.4,417.8,731.4,418.3z"/>
	<path class="st0" d="M707.7,382.4c0-1.7,0.9-2.5,2.5-2.5C710.1,381.5,709.3,382.3,707.7,382.4z"/>
	<path class="st0" d="M702.7,386c0.4-0.4,0.9-0.8,1.3-1.2C703.6,385.3,703.1,385.6,702.7,386z"/>
	<path class="st13" d="M549.2,292.6c1.2,0,2.5,0,3.7,0c0.1,0.6,0.2,1.1,0.3,1.7c-0.2,0.6-0.4,1.3-0.5,1.9c-1.6,0.3-3,0.7-1.1,2.5
		c-0.4,2.6,0.8,4.9,1.5,7.2c-2.2,2-2.1,4.6-0.9,6.7c1.4,2.5,3.6-0.3,5.5-0.1c-0.2,2.9-1.8,4.9-4.7,4.5c-2.8-0.4-3.5-2.8-3.8-5.6
		C548.6,305.2,547.2,298.9,549.2,292.6z"/>
	<path class="st2" d="M553.3,294.3c-0.1-0.6-0.2-1.1-0.3-1.7c-0.7-5.1,1.7-9.7,2.6-14.5c0.4-1.9,1.6-2.8,3.4-3.1
		C556.5,281.2,556.8,288.3,553.3,294.3z"/>
	<path class="st5" d="M557.7,312.5c-1.9-0.2-4.1,2.6-5.5,0.1c-1.2-2-1.3-4.7,0.9-6.7c1.2,0.5,2.3,1.1,3.5,1.6
		c0.9,0.8,1.8,1.7,2.7,2.5C558.8,310.9,558.3,311.7,557.7,312.5z"/>
	<path class="st13" d="M564.8,298.6c0.7,0.1,1.4,0.3,2.2,0.4c-1.7,2.5-0.9,6.7-5.3,7.3l-0.2-0.3
		C561.5,303.1,561.7,300.2,564.8,298.6z"/>
	<path class="st13" d="M559.4,310.1c-0.9-0.8-1.8-1.7-2.7-2.5c1.4-1,2.9-1.8,4.8-1.6c0,0,0.2,0.3,0.2,0.3
		C561.6,307.9,561.7,309.7,559.4,310.1z"/>
	<path class="st5" d="M576.3,270.4c0.6,2.1-0.1,3.3-2.3,3.5c-0.2-0.4-0.3-0.7-0.4-1.1C574.1,271.7,574.3,270,576.3,270.4z"/>
	<path class="st2" d="M551.7,298.8c-1.8-1.8-0.5-2.2,1.1-2.5C552.9,297.3,552.7,298.2,551.7,298.8z"/>
	<path class="st5" d="M645.1,385.5c0.1,0.4,1.1,0.5,0.3,1.1c-0.1,0-0.5-0.4-0.7-0.7C644.7,385.9,645.1,385.5,645.1,385.5z"/>
	<path class="st15" d="M559.4,310.1c2.3-0.4,2.2-2.2,2.3-3.9c4.3-0.6,3.6-4.8,5.3-7.3c6-2,11.5-5,17.5-7.1c2.8-1,5-1,7.6-0.7
		c8.5,1.1,10.1,6.5,6.6,14c-3.2,6.9-8.4,13-9.7,20.8c-0.4,0.5-0.7,0.9-1.1,1.4c-0.5,0.8-0.9,1.5-1.4,2.3c-4.1,2.1-5.7,5.7-6,10
		c-1.4,0.6-2,2-2.8,3.1c-4.3,5.5-3.4,13.8-9.7,18.2c-1.5,0.8-2.4,2.1-2.3,3.9c-5.7,1.3-7.8-3.4-10.8-6.6c-3.2-3.4-6.5-7.3-11.6-6.8
		c-5.2,0.5-18.3,14.6-18.6,19.9c-0.4,5.6-1.8,11-2.6,16.5c-0.3,2,0.2,4.5-2.2,5.3c-2.3,0.8-4-0.1-6.1-1.8c-4.3-3.4-9.1-6.5-14.9-6.6
		c-5.1-0.1-6.8-2.6-7-7.4c-0.4-8.6-5.4-14.6-13.7-16.7c-4.7-1.2-7.3-3.6-7.5-8.5c0.3-0.8,1-1.6,0.9-2.3c-1.5-5.7-1.9-11.8-3.7-17.2
		c-1.7-5.1,2.6-9.9-0.6-14.3c-1.6-2.3-1.4-4.5-0.6-7c0.8-2.9,1.1-6,1.6-9.1c1.9-0.9,2.7-2.5,2.5-4.4c-0.4-4.7,2.2-6.1,6.3-5.7
		c8.1,3.9,13.8,10,18.4,17.7c2.7,4.6,6.3,8.6,9.5,12.9c1.5,2,3.6,1.8,5.6,1.8c2.7,0,2.6-2.2,2.9-4c1.6-10.5,5-20.8,2.5-31.8
		c-0.9-4,0.6-8.6,1-12.9c1.5-5.4,6-9.8,5-16c2.8-0.6,4.7-3,8-2.9c10.3,0.2,16.7,7.8,16.8,19.4c0.1,5.2,0.7,10.7,2.6,15.8
		c-2,6.3-0.6,12.6,0,18.9c0.3,2.7,1,5.2,3.8,5.6c2.9,0.4,4.5-1.6,4.7-4.5C558.3,311.7,558.8,310.9,559.4,310.1z"/>
	<path class="st6" d="M620.4,319.7c0.5-0.1,1-0.1,1.4-0.2C621.4,320.2,621.1,321.3,620.4,319.7z"/>
	<path class="st6" d="M470.4,352.5c0.2,4.8,2.8,7.3,7.5,8.5c8.3,2,13.3,8,13.7,16.7c0.2,4.8,2,7.3,7,7.4c5.8,0.1,10.6,3.1,14.9,6.6
		c2,1.6,3.8,2.6,6.1,1.8c2.4-0.9,2-3.3,2.2-5.3c0.7-5.5,2.2-10.9,2.6-16.5c0.3-5.3,13.4-19.4,18.6-19.9c5.1-0.5,8.4,3.3,11.6,6.8
		c3,3.2,5.1,7.9,10.8,6.6c0.8-0.4,1.6-0.8,2.3-1.3c0.1,1.2,0.4,2.2,1.6,2.7c-0.3,0.8-0.7,1.5-1,2.3c-2.9,3.5-2.7,7.6-2.7,11.7
		c0,0.3-0.1,0.6-0.3,0.8c-1.9,0.5-3.7,1.1-5.6,1.6c-1.5-2.6-3-5.2-4.5-7.9c-0.1-1.9,0.9-4.2-1.9-5.2c-1.5-3.9-1.2-9-6.9-10
		c-0.7-1.1-1.7-1.1-2.8-0.8c-6.2-0.1-9.2,2.6-10.9,9.7c-1.6,0.6-2.5,1.8-2.6,3.5c-0.2,0.4-0.4,0.9-0.6,1.3c-2,0.9-2.3,2.2-0.7,3.8
		c-0.1,1.6-0.2,3.3-0.4,4.9c-2.8,1.2-1.8,3.4-1.6,5.5c0,0.7-0.1,1.4-0.1,2.1c-1.7,1-1.8,2.3-0.5,3.7c0,0.9,0,1.8,0,2.7
		c-1.7,2.3,0.3,2.9,1.8,3.7c0,1.9-0.5,3.4-2.6,3.8c-1.7,0-3.5,0-5.2,0c-4.8-1.5-7.4-5.9-11.1-8.8c-2.8-2.3-5.6-3.2-8.8-3.8
		c-0.8-1.1-1.8-1.2-2.9-0.8c-0.5,0-1,0-1.5,0c-1.5-0.1-3.6-0.7-1.7,2c-0.1,1.6-0.3,3.3-0.4,4.9c-3.1,3.8-3.5,8-2.2,12.5
		c0,0.9,0,1.7,0.1,2.6c-0.8,0.4-1.6,0.8-2.4,1.2c-0.2-1.2-0.3-2.4-0.5-3.7c-0.5-1.9,0.3-4.8-3.2-4.8c-2.4,0-4.6-0.5-5.4,3
		c-0.4,1.9-3.3,3-3.4,5.5c-5.7,0.5-1.8-3.9-3-5.8c-0.1-0.3,0-0.4,0.2-0.5c4.9-2.8,8.3-6.6,7.5-12.8c3.1-7.3,5-14.6,1.9-22.5
		c-0.6-1.6-1.6-2.3-2.9-2.9c-4.1-2.7-8.1-5.3-12.6-0.8c-1.8,2.3-5.3,0.8-7.1,3c-1.7-0.3-2.7,0.4-2.9,2.1c-0.7,0.5-1.4,1-2.2,1.6
		c-1.7-0.2-2.7,0.4-2.8,2.2c-0.2,0.3-0.4,0.4-0.8,0.4c-2.2-0.5-3.5,0.6-4.3,2.5c-0.8,0-1.6,0-2.4,0c-1.4-1.6-0.5-4.8-3.6-5.3
		c-2.3-2.7-1.6-5.7-0.7-8.6c2.4-1.2,2.1-3,0.9-4.9c-0.3-2.2,0.1-4.3,0.9-6.3c1.7-1.8,0.6-2.3-1.1-2.6c-0.9-1.6-1-3.2-0.5-4.9
		c3.8-4.5-0.1-7.8-1.9-11.3c0,0-0.2-0.2-0.2-0.2c-1.1-3-3-2.7-5.1-1.1c-1.6,0.2-3.3,0.3-4.9,0.5c-0.1-0.6-0.1-1.1-0.2-1.7
		c0.3-0.9,0.7-1.8,1-2.7l0.1,0.3c0,0-0.1-0.3-0.1-0.3c5.1-1.3,9.6,0.1,13.8,2.9c3.7,6.6,4.6,13.8,4.3,21.3c-0.1,3.1-1.4,6.2,0,9.2
		c1.5,3,4.3,3.8,7.4,3.2c6-1.2,10.4-6.3,11.1-12.5c0.1-0.8,0.5-1.6,0.7-2.4C468.6,352.5,469.5,352.5,470.4,352.5z"/>
	<path class="st13" d="M389.5,278.8c0.5-3.4-2.4-6.4-1.4-9.9c1.9-1.5,1-2.1-0.7-2.6c-0.5-1.1-1.6-2.3-1.4-3.3
		c1.2-7.2-2.4-14.4-0.2-21.6c0,0,0.2-0.2,0.2-0.2c1.1,0.1,2.3,0.2,3.4,0.2c4.3,5.2,2.3,11.9,2.9,17.5c1.4,14.3,4.8,27.7,9.1,41.3
		c3.6,11.4,10.9,20.9,14.3,32.2c-0.1,0.9-0.2,1.8-0.2,2.7c-6.1-5.3-10.2-11.9-13.7-19.3c-2.6-5.6-4.3-11.6-7-17.1
		c-2.1-4.3-2.7-8.6-3.1-13.2C391.8,283,391.1,280.8,389.5,278.8z"/>
	<path class="st13" d="M425.1,266.2c-0.1-0.8-0.3-1.6-0.4-2.4c1.2,0,2.4-0.1,3.7-0.1c7.1,14.6,11.7,30,15.5,45.7
		c0.5,2.3,1.8,5.4-1.5,6.3c-2.9,0.7-3.3-2.2-4.1-4.4c-5-13.7-8.3-27.8-11.5-42C427,267.8,426.7,266.7,425.1,266.2z"/>
	<path class="st13" d="M470.4,352.5c-0.9,0-1.8,0.1-2.7,0.1c-2.6-13.9-5.8-27.7-4.9-41.9c0.2-2.8-3.6-5.1-0.7-8c2,5.5,3.9,1.3,5.9,0
		c-0.5,3-0.8,6.1-1.6,9.1c-0.7,2.5-1,4.6,0.6,7c3.2,4.5-1.1,9.3,0.6,14.3c1.8,5.5,2.3,11.5,3.7,17.2
		C471.5,350.8,470.7,351.7,470.4,352.5z"/>
	<path class="st2" d="M428.3,263.7c-1.2,0-2.4,0.1-3.7,0.1c-2.9-5-6.4-9.8-7.1-15.9c-0.2-1.6-2.5-3.5-0.1-4.7
		c2.8-1.3,2.4,2.2,3.2,3.3C424.4,251.7,427.5,257.2,428.3,263.7z"/>
	<path class="st3" d="M415.5,335.1c0.1-0.9,0.2-1.8,0.2-2.7c1.2,0.2,2.4,0.4,3.6,0.6c1.3,2.9,3.8,2.5,5.5,1.3c1.7-1.2,3-0.6,4.5-0.6
		c0.1,0.6,0.1,1.1,0.2,1.7c-0.3,0.4-0.7,0.8-1,1.2c-1.7-0.3-2.8,0.2-2.9,2.1c-0.2,0.3-0.4,0.4-0.8,0.5c-4.4-1.5-5.2,2.9-7.3,5.2
		c-1-1.7-0.3-3.4-1.8-4.2c0.1-1.3,0.2-2.5,0.3-3.8c0.1-0.2,0.3-0.5,0.3-0.5C416.1,335.5,415.8,335.3,415.5,335.1L415.5,335.1z"/>
	<path class="st13" d="M444.2,333.8c-4.2-2.7-8.7-4.2-13.8-2.9C436.8,326.5,440.7,327.4,444.2,333.8z"/>
	<path class="st13" d="M429.4,333.6c-1.5,0-2.9-0.6-4.5,0.6c-1.7,1.2-4.3,1.6-5.5-1.3c3.7-0.7,7.4-1.4,11.1-2.1
		C430.1,331.8,429.7,332.7,429.4,333.6z"/>
	<path class="st1" d="M389.4,241.3c-1.1-0.1-2.3-0.2-3.4-0.2c-0.1-1.5-1.1-3.3,0.9-4c0.6-0.2,1.7,1.2,2.6,1.8
		C389.5,239.7,389.4,240.5,389.4,241.3z"/>
	<path class="st2" d="M397.1,217.9c0.8-4.4,4.1-2.1,6.4-2.4C402.2,218.4,399.3,217.2,397.1,217.9z"/>
	<path class="st5" d="M455.6,260.1c0.1,1.5,0.3,3-1.4,3.9c-0.5-0.8-1-1.6-1.5-2.4C453.4,260.5,454.3,260,455.6,260.1z"/>
	<path class="st2" d="M425.1,266.2c1.7,0.5,1.9,1.6,1.5,3.1C425.3,268.7,424.4,267.8,425.1,266.2z"/>
	<path class="st2" d="M434.5,233.8c1.7,0.2,2.4,1.2,2.1,2.9C435.1,236.3,434.4,235.4,434.5,233.8z"/>
	<path class="st2" d="M430.9,228.8c1.7,0.2,2.4,1.1,2.1,2.8C431.4,231.3,430.7,230.4,430.9,228.8z"/>
	<path class="st13" d="M344.6,248.5c-5.5,0-10.8,2.1-16.3,1.4C333.6,245.2,340.9,244.6,344.6,248.5z"/>
	<path class="st13" d="M317.5,265.5c-0.6,0.2-1.1,0.5-1.7,0.7c0.6-6.8,2.1-13.1,10.2-14.6C321.6,255.2,319.4,260.3,317.5,265.5
		C317.5,265.5,317.5,265.5,317.5,265.5z"/>
	<path class="st13" d="M357.4,237.5c0.9,8.8-2.4,12.9-9.1,11.3C354.2,247.3,355,241.8,357.4,237.5z"/>
	<path class="st13" d="M365.7,224.9c-1.5,3.4-5,4.4-7.6,6.4C357.8,225.9,361.8,225.4,365.7,224.9z"/>
	<path class="st13" d="M590.7,439.8c1.4,1.1,2.9,1.4,4.6,1.2c-5.6,10.3-10.4,21.1-18.2,30.1c-1-0.5-2.1-1-3.1-1.5
		C578.6,459.1,581.9,447.9,590.7,439.8z"/>
	<path class="st1" d="M569.4,366.4c-1.1-0.6-1.5-1.6-1.6-2.7c0-0.9,0-1.7-0.1-2.6c6.3-4.4,5.5-12.6,9.7-18.2
		c0.9-1.1,1.4-2.5,2.8-3.1c0.5,1.1,1.5,1.5,2.6,1.5c-0.2,2.4-2,4.1-2.9,6.2c-3.6,1.7-2.4,4.3-1,6.7c1.1,1.7,2.9,3,2.4,5.4
		C576.7,360.4,572.1,361.6,569.4,366.4z"/>
	<path class="st13" d="M604.3,402.5c0.3,4.2-0.2,8-2.6,12c-2.5,4.2-2.2,9.8-4.9,14.3c-1.5,2.6-3,4.9-5.8,6.1c-0.9-3.5,2.4-5.5,3.6-8
		C598.5,418.9,600.4,410.3,604.3,402.5z"/>
	<path class="st13" d="M581.5,359.4c0.5-2.4-1.3-3.7-2.4-5.4c-1.5-2.3-2.6-4.9,1-6.7c1.5,9.3,4.5,10.7,12.7,5.8
		c0.1,0.6,0.1,1.2,0.2,1.7c-0.3,1.2-1.1,2.5,1.1,2.6c1.6,0.1,3.5-0.3,3.9,2C592.4,360.6,587,357.5,581.5,359.4z"/>
	<path class="st13" d="M605.5,366.2c4.2,4.3,4.8,10.2,1.7,15C606.6,376.2,606.1,371.2,605.5,366.2z"/>
	<path class="st0" d="M489.3,413.5c0.8-0.4,1.6-0.8,2.4-1.2c2.8,3,3.8,6.2,1.1,9.9c-1.8-1.2-0.1-4.7-3.2-5c-0.2-0.6-0.4-1.3-0.5-1.9
		C489.1,414.7,489.2,414.1,489.3,413.5z"/>
	<path class="st13" d="M606.8,386.2c1.6,4.2,2.1,8.1-2.1,11.2C604,393.4,605.2,389.8,606.8,386.2z"/>
	<path class="st0" d="M491.6,409.8c-1.4-4.5-0.9-8.8,2.2-12.5C494.7,401.7,493.3,405.8,491.6,409.8z"/>
	<path class="st13" d="M565.7,380.4c-0.1-4.1-0.2-8.3,2.7-11.7C569.2,372.9,568.3,376.8,565.7,380.4z"/>
	<path class="st13" d="M600.1,361.3c2.9-0.3,5.2,0.2,5,3.9C603.3,364.1,600.8,363.8,600.1,361.3z"/>
	<path class="st0" d="M553.5,369.8c2.8,1,1.7,3.3,1.9,5.2C552.3,374.1,553.2,371.8,553.5,369.8z"/>
	<path class="st0" d="M520.4,403.7c1.7,0,3.5,0,5.2,0C523.9,406.9,522.1,406.9,520.4,403.7z"/>
	<path class="st0" d="M527.1,387.7c-0.2-2-1.2-4.3,1.6-5.5C529.3,384.4,529.6,386.5,527.1,387.7z"/>
	<path class="st13" d="M559.8,382.8c1.9-0.5,3.7-1.1,5.6-1.6C564.2,384.1,562.7,385.7,559.8,382.8z"/>
	<path class="st0" d="M530.4,372.2c0.1-1.7,0.9-2.9,2.6-3.5C534.5,371.5,532.5,371.9,530.4,372.2z"/>
	<path class="st0" d="M528.2,399.9c-1.4-0.8-3.5-1.4-1.8-3.7C527.9,397,529.7,397.6,528.2,399.9z"/>
	<path class="st0" d="M526.4,393.5c-1.3-1.4-1.2-2.6,0.5-3.7C528.2,391.2,528.1,392.5,526.4,393.5z"/>
	<path class="st0" d="M529,377.3c-1.5-1.6-1.3-2.9,0.7-3.8C530.3,374.9,530.4,376.3,529,377.3z"/>
	<path class="st0" d="M494.3,392.3c-1.9-2.8,0.2-2.2,1.7-2C495.4,391,494.9,391.7,494.3,392.3z"/>
	<path class="st0" d="M543.8,359c1.1-0.3,2.1-0.3,2.8,0.8C545.1,361.7,544.5,360.1,543.8,359z"/>
	<path class="st0" d="M497.6,390.3c1.1-0.4,2.2-0.4,2.9,0.8C499.1,392.6,498.3,391.4,497.6,390.3z"/>
	<path class="st6" d="M361.9,371.1c-0.3-0.2-0.7-0.4-1.1-0.5c-1.1-1.4-2.5-2.1-4.3-1.3c-3.7-1.2-4-4.6-4.7-7.7
		c1.1-4.2-2.4-9.4,2.8-12.8c0.8-5.7,1.6-11.4,2.5-17c1.2-7.1,9.3-11.5,15.5-7.5c4.8,3.2,8.8,8.1,9.4,14.6c-4.8-0.1-5.8-4.8-7.8-7.5
		c-2.6-3.7-5.9-3.6-9.1-3.3c-3.5,0.4-1.6,4.1-2.4,6.2c-4,9.7-0.4,20-2.1,29.8C360,366.5,362.9,368.4,361.9,371.1z"/>
	<path class="st6" d="M381.9,338.8c1.8-1.1,2.9-0.1,3.8,1.4c0.3,0.4,0.6,0.7,1,1.1c1.8,3.5,3.5,6.9,5.3,10.4
		c0.1,0.3,0.3,0.6,0.6,0.8c0.7,1.1,1.4,2.3,2.1,3.4c0.4,0.5,0.8,1,1.1,1.5c0.8,3.2,2.4,5.6,6.2,5.3c1.8,1.5,2.2,0.2,2.5-1.3
		c0.3-0.2,0.6-0.4,1-0.5c1.8,0,2.6,1.5,3.6,2.7c-0.2,0.8-0.4,1.6-0.6,2.4c-1.3,0.4-1.5,1.4-1.4,2.6c-0.7,2-1.5,4.1-2.2,6.1
		c-1.3,0.5-2.7,0.9-4,1.4c-7.7-9.5-11.8-21.1-18.2-31.4C381.6,343.1,381.2,340.8,381.9,338.8z"/>
	<path class="st13" d="M473.9,407.8c1.2,1.8-2.7,6.3,3,5.8c-3.9,10.3-10.2,18.9-18.8,25.8c0.4-2,2.3-4.5-1.8-4.9
		C462.1,425.6,468,416.7,473.9,407.8z"/>
	<path class="st0" d="M409,363.6c-1-1.2-1.7-2.6-3.6-2.7c1.8-7.8,8.2-13.3,10.3-21c1.5,0.8,0.8,2.6,1.8,4.2c2.1-2.3,2.9-6.7,7.3-5.2
		C418.2,346.3,413.7,355,409,363.6z"/>
	<path class="st13" d="M481.6,394.5c0.8,6.2-2.6,9.9-7.5,12.8C476.6,403,479.1,398.7,481.6,394.5z"/>
	<path class="st0" d="M468,368.3c4.5-4.6,8.5-1.9,12.6,0.8C476.3,370.5,472.3,367.4,468,368.3z"/>
	<path class="st0" d="M439.7,336.2c1.8,3.6,5.7,6.8,1.9,11.3C441.1,343.7,439.3,340.1,439.7,336.2z"/>
	<path class="st0" d="M442.1,374.9c3,0.5,2.1,3.7,3.6,5.3C440.9,380.8,442.4,377.2,442.1,374.9z"/>
	<path class="st0" d="M400.8,376.1c1.3-0.5,2.7-0.9,4-1.4c1,1.7,0.2,2.9-1.2,3.5C401.8,378.9,400.8,378,400.8,376.1z"/>
	<path class="st0" d="M434.4,334.9c2.1-1.6,3.9-1.9,5.1,1.1C437.7,336,435.9,336.2,434.4,334.9z"/>
	<path class="st0" d="M442.3,361.3c1.2,1.9,1.5,3.7-0.9,4.9C440.7,364.4,440.5,362.7,442.3,361.3z"/>
	<path class="st0" d="M448.1,380.2c0.8-1.9,2.1-3,4.3-2.5C451.3,379.2,450.7,381.4,448.1,380.2z"/>
	<path class="st0" d="M425.6,338.6c0.1-1.9,1.2-2.4,2.9-2.1C428,337.8,427.2,338.6,425.6,338.6z"/>
	<path class="st0" d="M453.1,377.3c0.1-1.8,1.1-2.4,2.8-2.2C455.4,376.4,454.6,377.3,453.1,377.3z"/>
	<path class="st0" d="M442.1,352.4c1.8,0.3,2.8,0.8,1.1,2.6C442.8,354.1,442.5,353.2,442.1,352.4z"/>
	<path class="st0" d="M407,368.7c-0.1-1.2,0.1-2.2,1.4-2.6C409.5,367.7,408.2,368.2,407,368.7z"/>
	<path class="st0" d="M458.1,373.5c0.2-1.8,1.2-2.4,2.9-2.1C460.5,372.7,459.5,373.5,458.1,373.5z"/>
	<path class="st2" d="M489.3,413.5c-0.1,0.6-0.2,1.2-0.3,1.8c-1.3-1.7-1.1-3.6-0.2-5.4C489,411.1,489.1,412.3,489.3,413.5z"/>
	<path class="st13" d="M595.8,439.2c-0.3-1.5-0.1-2.8,1.8-3c1.6-0.2,2.6,0.5,2.9,2.2C598.8,438.6,597.3,438.9,595.8,439.2z"/>
	<path class="st2" d="M354.5,348.7c-5.2,3.4-1.7,8.6-2.8,12.8c-4.6-11.1-14.1-19-18.7-30.1c-0.4-1.1-0.4-2.4-0.7-3.6
		c5.9,0.3,6.8,5.2,8.2,9.3C343,344.5,347.9,348.9,354.5,348.7z"/>
	<path class="st0" d="M389.5,278.8c1.6,2,2.3,4.2,2.2,6.8C389.5,283.8,387.4,282,389.5,278.8z"/>
	<path class="st0" d="M387.4,266.3c1.7,0.5,2.6,1.1,0.7,2.6C387.2,268.2,387.1,267.3,387.4,266.3z"/>
	<path class="st0" d="M404.5,361.4c-0.3,1.4-0.6,2.8-2.5,1.3C402.5,361.5,403.4,361.2,404.5,361.4z"/>
	<path class="st1" d="M317.5,265.5C317.5,265.5,317.5,265.5,317.5,265.5C317.5,265.5,317.5,265.5,317.5,265.5z"/>
	<path class="st0" d="M386.7,341.2c-0.3-0.4-0.6-0.7-1-1.1C386,340.5,386.3,340.8,386.7,341.2z"/>
	<path class="st13" d="M415.5,335.1c0.3,0.2,0.6,0.4,0.8,0.6c0,0-0.2,0.3-0.3,0.5C415.9,335.8,415.7,335.4,415.5,335.1z"/>
	<path class="st0" d="M395.8,357.3c-0.4-0.5-0.8-1-1.1-1.5C395.1,356.3,395.4,356.8,395.8,357.3z"/>
	<path class="st0" d="M392.6,352.4c-0.3-0.2-0.5-0.5-0.6-0.8C392.2,351.9,392.4,352.1,392.6,352.4z"/>
	<path class="st2" d="M356.5,369.3c1.8-0.8,3.2-0.2,4.3,1.3C358.9,371.4,357.6,370.7,356.5,369.3z"/>
	<path class="st13" d="M583,341.2c-1.1,0-2.1-0.3-2.6-1.5c0.3-4.4,2-7.9,6-10c0.6,0.6,1.2,1.2,1.9,1.8C587,335,586,338.7,583,341.2z
		"/>
	<path class="st13" d="M587.8,327.4c0.4-0.5,0.7-0.9,1.1-1.4C588.5,326.5,588.2,326.9,587.8,327.4z"/>
	<path class="st13" d="M567.8,361c0,0.9,0,1.7,0.1,2.6c-0.8,0.4-1.6,0.8-2.3,1.3C565.4,363.1,566.3,361.8,567.8,361z"/>
</g>
<g>
	<path d="M269.6,570.8c3-11.2,2.9-23.1,8-33.8c3.7-7.8,6.5-16.1,10.5-23.8c4.2-8.2,7.2-17.1,12.5-24.8c1.2-1.7,0.6-3-0.4-4.5
		c-14.2-21.6-16.7-45.5-11.1-69.9c2.5-10.8,7.6-21.7,18-28.1c4.3-2.6,2.3-4.8,0.5-7.5c-8.8-12.8-14.7-26.7-13.7-42.5
		c0.6-10,2-20.1,13.2-24.7c2.3-0.9,0.8-2.2,0.8-3.5c-0.6-16-3.5-32.1,3.4-47.8c4.9-11.3,17.3-21.9,31.8-20.1
		c3.7,0.5,4.9-0.8,5.8-4.4c4.4-18.1,19.6-25.2,36.3-17.2c2.2,1,3.3,0.7,4.9-0.6c13.7-11.5,24.5-11.3,38.4,0.3
		c6.8,5.7,11.9,12.7,17.4,19.5c0.6,0.8,1.5,1.3,2.7,2.4c3.6-8.8,3.5-17.8,5.8-26.3c1.6-6,3.8-11.7,7.6-16.8
		c12.1-16,29.2-15,39.2,2.4c4.5,7.8,4.5,7.8,10.3,0.8c3-3.5,6.3-6.7,10.2-9.1c11.8-7.6,25.3-1.8,27.3,12c0.7,4.7,2,4.9,6.2,4.4
		c9.8-1.1,18.2,1.6,23.1,11c1.3,2.4,2.5,2.7,4.9,1.7c15.2-6.4,27.5-0.4,38.1,10.1c12.6,12.4,20.2,27.8,25,44.6
		c3.5,12.1,7,24.3,8.3,36.9c0.2,2.3,1.6,2.8,3.3,2.8c5.8,0.1,9.8,3.2,13,7.5c2.2,2.9,4,3.3,7.2,1.2c10.8-7.1,22.4-12.8,35.2-15.3
		c7-1.4,14.4-3.1,21.5-0.1c11.1,4.7,16,14.2,13.7,26.3c-0.5,2.6-0.9,4.9,0.9,7c8.2,9.4,5.6,19.5,1,29.1c-2.5,5.3-1.6,7.7,3.2,9.5
		c7.7,2.9,12.3,8.1,13.5,16.3c0.6,4,3.3,3.3,6.2,2.5c6.5-1.9,13.3-1.8,19.7-0.4c17.3,3.8,19.7,15.9,10.9,30.4
		c-11.6,19.2-30.4,30.9-49.7,41.4c-5.1,2.7-10.4,5.3-15.7,7.4c-4,1.6-5.5,4.1-6,8.3c-0.9,8.7-1.7,17.4-3.9,25.8
		c-5.1,19.5-18.8,32.8-34.3,44.5c-2.8,2.1-5.5,4.6-8.7,6c-7.3,3.3-7.4,8.8-7.3,15.8c0.5,20-1.4,39.9-5.5,59.4
		c-1.8,8.7-3.9,17.3-7,25.8c-6.1,17-15.7,31.9-25.4,46.9c-19.4,30.1-48.5,47.8-79.9,62.5c-9,4.2-19.2,4.9-28.9,7.1
		c-14.4,3.3-28.9,2.2-43.3,1.5c-3.8-0.2-5.2,0.9-5.2,4.9c0,13.7,0.2,27.4-3,40.9c-1.1,4.5-2.6,8.9-5,12.7
		c-4.6,7.3-11.2,10.6-20.1,9.9c-13.8-1.2-27-4.8-40.3-8c-12.6-3-24.7-6.6-35.6-14c-12.8-8.8-16.6-24.5-10.2-38.6
		c4.7-10.3,9.2-20.7,14.2-31c1.2-2.4,1.5-4.3-2-5.7c-24-9.9-44.1-25.3-62.5-43.3c-14.8-14.5-27.9-30.2-37.2-48.8
		c-6.1-12.2-9.3-25.2-10.9-38.7c-0.2-1.4-0.7-2.8-1.1-4.1C269.6,601.6,269.6,586.2,269.6,570.8z M514.5,766c14-1.1,25-0.9,34.7-5
		c32.1-13.7,61.2-31.5,80.8-61.9c11.9-18.4,22.7-37.4,27.6-58.8c3.9-16.8,5.4-34,7.7-51.1c0.8-6.1,2.5-13,0.7-18.5
		c-2.4-7.1,1-9.9,5-13.5c12.5-11.2,26.5-20.9,36.2-35c5.8-8.4,10.2-17.6,9.4-28.3c-0.3-3.6-1.2-5.1-4.9-2.7c-3.5,2.3-7.4,3.7-11.4,5
		c-16.6,5.4-33.9,5.3-51,5.2c-14.7-0.1-29.3-2.3-43.9-3.8c-7-0.7-14-2.2-21-2.8c-27.8-2.5-55.2-7.1-82.5-12.6
		c-13.5-2.7-26.9-6.6-40.2-10.6c-8.9-2.6-17.9-5.3-26.6-8.2c-9.5-3.3-19-7.1-28.4-10.9c-14-5.7-27.7-12-41-19
		c-17.5-9.2-34-19.9-49-32.7c-2.2-1.9-4-2-5.6,0.5c-7.7,11.6-11.3,24.4-10.1,38.3c1.1,12.5,4.6,24.4,9,36.1
		c2.7,7.1,2.1,14.5-0.5,21.2c-4,10.4-9.1,20.3-13.6,30.5c-6.4,14.6-12.8,29.3-12.3,45.8c0.3,10.1-1,20.2-0.4,30.4
		c1,18.8,3.9,36.9,12.9,53.8c8.8,16.5,21.1,30.3,34.4,43.2c17.5,17.1,37.2,31.1,60.1,40.2c7.3,2.9,9.8,8.6,7.1,16
		c-4.5,12.3-9.8,24.2-14.5,36.3c-4.9,12.5-0.5,18.9,9.6,24.5c14.6,8.1,31.2,9.6,46.9,13.9c4.6,1.3,9.4,2,14.1,2.3
		c7.5,0.5,10.3-2.4,12.1-9.6c4.2-17.3,2-34.8,2.1-52.1c0.1-9,3.4-12,12-8.3c4.5,1.9,9.2,2.7,14,2.3C501.9,765.2,510,767.4,514.5,766
		z M531.7,397.3c0.8,4.6,1,9.6-4,11.8c-5,2.2-9.1-0.8-12.7-4.3c-2.6-2.4-5.2-4.7-8-7c-5-4.1-7.3-3.1-8.9,3c-1.7,6.5-0.5,12.7,0,19.1
		c1.3,16.4,6.6,31.5,14.6,45.7c1,1.8,2,4,4.7,4.5c15.3,3.1,30.6,6.1,46.1,7.3c2.5,0.2,4.7-0.3,5.6-2.9c2-5.7,5.7-10.5,8.3-15.9
		c8.2-16.7,17.7-32.7,23.2-50.6c2.9-9.5,5.9-19,4.8-29.2c-1.1-10.4-7.5-16.6-16.8-16c-9.9,0.7-14.6,5.2-17.2,16.4
		c-1,4.2-2.3,8.4-7.3,9c-5.3,0.6-7.7-3.3-9.6-7.4c-1.8-4-3.2-8.1-4.9-12.1c-1.1-2.6-2.7-4.9-5.8-5c-3-0.1-4,2.7-5.2,4.8
		C533.4,377.3,532.1,387.1,531.7,397.3z M439.5,360.5c0.1,0,0.3,0,0.4,0c-0.5-5.4-0.6-10.8-1.5-16.1c-1-5.7-3.1-6.4-7.4-2.7
		c-11.1,9.5-17.2,22.1-21,35.9c-0.9,3.2-1.1,6.4-4.8,7.1c-3.4,0.7-5.3-2-6.7-4.5c-4.8-8.5-9.6-17-14.1-25.6
		c-3.6-6.8-7.4-13.5-12.3-19.4c-0.9-1.1-1.6-2.8-3.3-2.5c-2.1,0.3-1.8,2.4-2.3,3.9c-2.9,9-1.3,18.2-0.6,27.1
		c1.4,18.1,5,35.9,10.3,53.4c1.7,5.6,4.7,9.6,10.5,12c14.9,6.1,29.8,12.3,44.8,18c7,2.6,9.7,0.6,13.7-4.1
		c7.3-8.8,15.1-17.1,21.1-26.9c6.2-10.2,14.2-19.6,16.4-31.8c1.6-9.1-2.7-12.9-11.6-10.7c-6,1.5-10.8,5.1-15.7,8.5
		c-3.8,2.6-7.7,4.5-12.2,2.4c-4.5-2-3.8-6.6-4-10.4C438.8,369.6,439.3,365.1,439.5,360.5z M520.8,297.7c-0.7,8.3-1.3,15.8-1.9,23.2
		c-0.4,4.2-0.6,8.7-5.5,10.2c-4.9,1.5-7.6-2.3-10.4-5.3c-1.3-1.4-2.2-3-3.3-4.5c-4.6-6.4-8.9-13.1-14.7-18.5c-2.4-2.3-5-5.2-8.2-5
		c-3.1,0.2-1.2,4.3-2.8,6.2c-0.5,0.6-1.2,1.2-1.5,2c-1.7,3.8-2.6,7.8-2.1,12.1c1.5,11.6,3.3,23.2,4.5,34.8c0.4,3.6,1.8,5,5,5.9
		c11,3,15,7.5,16.2,18.5c0.4,4.3,2,6.4,6.6,6.3c4.7-0.1,9.1,1,12.6,4.5c2.9,2.9,4.2,2.1,5.1-1.7c1.7-7.6,2-15.4,6.1-22.6
		c4.2-7.5,9.2-13,17.8-13.8c7.7-0.7,12.6,4.4,16.5,10.4c1.7,2.6,2.4,3.1,4.8,0.2c5.6-6.6,8-14.9,12.3-22.2
		c6.5-11,13.8-21.6,18.2-33.8c0.9-2.7,3.1-5.5,0.7-8.2c-2.4-2.7-6-1.6-8.8-0.6c-9.4,3.3-17.8,8-23.3,16.7c-1.4,2.3-2.9,4.6-4.7,6.5
		c-2,2.1-4.6,3.9-7.8,2.5c-3.1-1.4-4.5-4-4.6-7.5c-0.4-8.9-0.5-17.8-1.8-26.6c-1-7.1-1.1-14.6-5.4-20.9c-2-2.9-4.6-5.1-8.3-4.4
		c-3.5,0.6-5.6,3-6.8,6.5C522.2,278.3,519.8,288.2,520.8,297.7z M658.6,486.5c0-0.3,0-0.6,0-0.9c5.4,0,10.8,0.3,16.2-0.1
		c5.6-0.5,11-2.1,16.6-2.4c5.4-0.3,8.3-3.4,10.4-7.6c2.5-4.8,4.7-9.7,7.1-14.5c4.8-9.7,7.9-20,8.8-30.9c0.4-4.4-0.4-8.5-4.2-11
		c-3.9-2.5-8-1.7-11.8,0.5c-2.3,1.3-4.5,3-6.7,4.5c-6.2,4.3-12.6,2.3-14.4-5.1c-1.8-7.4-3.1-14.9-4.1-22.5c-0.9-6.6-5-13.7-9.2-14.4
		c-6.8-1.1-10.7,3.2-14.2,8.2c-0.7,1-1.2,2.1-1.8,3.2c-7.1,12.3-10.6,25.5-11,39.7c-0.1,2.2-0.6,4.6-1.4,6.7c-1.9,5-5.2,6-9.7,3.1
		c-3.8-2.5-7.7-4.9-11.5-7.3c-1.4-0.9-2.9-2-4.6-0.8c-1.7,1.2-1.7,3.2-1.2,5.1c3.1,12.5,7.3,24.6,13.1,36.1
		c2.6,5.2,6.1,9.3,12.7,9.4C644.5,485.6,651.6,486.2,658.6,486.5z M354.3,349.4c-0.3-4-0.8-6.6-0.6-9.3c0.2-2.9,1-5.7,1.6-8.6
		c2.5-11.6,12.7-15.3,22.2-8.2c6.8,5.1,11.3,12.1,15.4,19.3c2.6,4.5,5,9.1,7.5,13.6c1.9,3.4,3.6,2.8,5.1-0.3c1.5-3,2.4-6.4,4.5-8.8
		c3.8-4.4,2.7-7.8-0.5-12c-14-18.9-20.9-40.7-24.4-63.7c-1.7-11.5-2.1-23-2.4-34.5c0-1.8,0.7-4.1-1.6-4.9c-4.3-1.5-8.6-3.6-13.2-1.6
		c-4.4,1.9-6.2,5.6-6.4,10.5c-0.5,12.5-2.7,14.2-15.3,13.2c-1.4-0.1-2.9-0.2-4.3-0.4c-7.4-1.2-13,1.9-17,7.8c-3,4.5-5,9.3-5.9,14.9
		c-1.2,7.9-0.7,15.7-0.8,23.6c-0.1,4.8-0.6,10.7,4.5,13.5c9.3,4.9,14.5,13.4,20.6,21.2C347,339,349.2,344.5,354.3,349.4z
		 M506.9,307.7c1.2-0.4,1.2-1.3,1.2-2.1c0.4-14.1,1.5-28.1,5.9-41.7c2.4-7.5,9.3-13.5,17-14.2c10.8-1,17.9,3.9,22.7,13
		c1.8,3.4,2.9,3.6,4.8,0.2c1.6-2.9,3.8-5.5,5-8.5c3.2-8.6,7.2-17.2,2.9-26.7c-2.9-6.4-7.4-8.1-13.4-4.2c-2.8,1.8-5.3,4.1-7.9,6
		c-2.9,2.1-5.9,1.7-8.8,0.2c-3.2-1.7-3.2-4.6-2.8-7.6c0.5-4.3,1.3-8.6,1.5-13c0.1-2.1,0.6-4.9-1.8-6.2c-2.6-1.4-4.8,0.3-6.8,1.9
		c-6.6,5.2-10.1,12.4-13.2,19.9c-1.6,3.8-2.8,8.9-8.2,9.1c-5.8,0.1-6.9-5.2-8.7-9.3c-0.8-1.7-1.1-3.5-1.7-5.3
		c-1.7-5.6-4-10.9-7.5-15.6c-3.8-5.1-7.7-5.5-12.6-1.3c-2.2,1.9-4,4.1-5.3,6.8c-5.3,11.9-5.8,25-9.7,37.3c-1,3.1,0.1,7,0.7,10.5
		c1.6,9.3,7.4,17,9.8,26c0.7,2.5,2.3,4.2,5.6,2.8c3.1-1.3,6,0.1,8.9,1.7c7.3,3.9,13,9.5,18,16C503.7,304.9,504.5,307.3,506.9,307.7z
		 M453,353.3c-0.1,14.1,0,12.7,8.7,8.7c0.8-0.3,1.6-0.5,2.3-0.9c1.8-0.8,2.8-1.7,2.2-4.2c-2.7-11.8-4.7-23.9-5.5-36
		c-0.5-7.8-2.4-15.8,0.5-23.4c1.2-3.2,1.1-5.9-0.1-9c-4.9-12.2-10.5-24-17.6-34.9c-8-12.3-15.9-24.9-29.8-31.9
		c-6.8-3.4-11.4-1.9-15.2,4.8c-4.3,7.6-3.1,15.6-2.7,23.7c0.4,10.6,2.4,20.9,4.6,31.2c3.4,15.9,10.4,30.5,17.8,44.9
		c2.8,5.4,4.4,5.3,8.9,2.5c9.7-5.9,18.8-2.4,23.2,8C452.9,343,452.7,349.3,453,353.3z M670.2,361.1c-8,0.1-9.5-1.4-9.7-8.3
		c-0.2-5.4-0.5-10.8,0.5-16.2c0.5-2.9-0.6-5.4-3-7.1c-2.4-1.8-4.3,0.2-6.3,1.2c-7.7,3.5-10,11.2-13.4,18c-1.8,3.5-4.4,5.8-8.3,5.4
		c-3.7-0.4-5.5-3.2-6.1-6.9c-0.7-4.3-1.6-8.5-2.4-12.8c-1-5.8-3.7-9.5-10.3-8.9c-5.8,0.5-9.9,3.8-11,10c-0.7,4.1-0.9,8.2,0,12.4
		c0.5,2.3,1.3,3.5,3.5,4.6c8.6,4.3,13.6,11.7,15.3,20.8c2.6,13.8-0.7,27.1-5.7,40c-2.8,7.3-2.9,7.3,4.5,9.2c2.3,0.6,4.1,1.9,6.1,3.1
		c2.9,1.7,5.1,1.5,5.4-2.7c0.7-12.7,5.5-24.1,11-35.3c7.8-15.9,21.5-22,36.1-16.1c2,0.8,3.8,2.2,5.4-0.2c1.9-2.7,2.3-5.9,1.8-9
		c-0.4-2.5-3.3-2.4-5.2-2.3C675.2,360.1,672.1,360.9,670.2,361.1z M607.2,283.7c-0.9-3.8-2.4-6.8-4.1-9.9c-3-5.5-5.3-11.3-3.7-17.9
		c0.4-1.7,0.9-3.3,2.9-3.4c1.8-0.1,3.2,0.5,4,2.3c7,13.9,14.9,27.3,18.8,42.5c0.6,2.4,1.1,4.6-1.5,5.9c-2.6,1.3-4.3-0.5-5.7-2.5
		c-1.9-2.8-3.8-5.7-6.2-9.3c-1,5.8,0.5,10.9-1.9,15.5c-2.2,4.2-0.6,6.2,4,6.2c8.5,0,14.8,3.4,18.4,11.4c0.5,1.1,0.9,2.3,2.7,1.9
		c3.6-0.8,7.9-8.1,6.8-12c-2.8-10.4-5.4-20.8-8.3-31.2c-3.5-12.2-7.6-24.2-15-34.7c-4.3-6.2-8.8-12.5-15.8-15.5
		c-10-4.3-17-5.2-19.4,6.1c-2.8,13.1-1.6,26.5-1.6,39.7c0,2.7,2.3,3.8,4.4,3C593.3,279,599.9,282,607.2,283.7z M314.3,321.4
		c-2.9,0.3-5.3,1.2-5.8,3.6c-1.4,6.6-2.9,13.1-1.3,20.1c2.7,12.5,8.4,23.9,13.6,35.3c1.9,4.1,1.1,9.5,5.1,12.5
		c10.9,8.2,22.4,15.5,34.2,22.4c1.3,0.7,2.7,1.8,4,0.7c1.3-1.1,0.5-2.7,0.1-4.1c-1.9-8-4.3-16-5.7-24.1c-0.9-5.2-1-10.9-3.6-15.4
		c-8.6-14.6-17.7-29.1-28.5-42.3C323,326.2,318.6,323.5,314.3,321.4z M689.4,386.7c3,0.7,4.1-1.5,5.6-2.7c10-7.9,18.6-17.3,26.6-27
		c6.5-7.9,13.1-16.1,13.6-27.3c0.3-6-3.3-11-9.2-10.4c-7.2,0.6-14.4,0.9-21.2,3.8c-9.2,3.9-18.4,7.5-26.5,13.5
		c-2.8,2.1-4.3,4.8-1.8,7.8c1.9,2.2,14.4,2,17.2,0.3c6.5-4,13-8.1,19.6-12c2.7-1.6,5.4-3.2,8.7-2.8c2,0.2,4.5,0,5.3,2.4
		c0.9,2.5-1.3,3.6-2.8,5c-6.8,6.5-15.5,10.4-23.2,15.6c-1.8,1.2-4.3,2.3-3.3,5.2c2.3,6.7-0.6,12.5-3,18.5
		C693.5,380.1,689.9,382.5,689.4,386.7z M741,357.1c-0.2-0.3-0.3-1.3-0.8-1.6c-1.1-0.6-1.9,0.3-2.5,1.1
		c-11.8,17.1-26.3,31.5-43.2,43.4c-0.3,0.2-0.7,0.5-0.9,0.8c-1.6,2-2.2,4.4-0.7,6.3c1.4,1.8,2.9-0.4,4.2-1.1
		c9.2-4.4,19.2-4.8,26.2,2.2c6.7,6.7,11.1,4.7,17.1,0.8c2.7-1.8,5.9-3.1,9.1-4c4-1.1,4.2-3.3,3-6.5c-2.1-5.7-6.9-7.2-12.3-7.8
		c-8.6-0.9-11.2-5.3-7.8-13.1C735.3,371,738,364.3,741,357.1z M486.4,409.9c-9.2,15.3-18.7,28.6-30.1,40.4c-2.5,2.6-2.9,4.4,1.2,5.6
		c13,3.5,26,7.2,39,10.7c1.5,0.4,3.2,1.1,4.9-0.4C492.3,449.1,487.1,430.9,486.4,409.9z M732,432.8c0.1,5.1,1.2,6.2,5.3,4.3
		c13-6,26.8-9.5,40.4-14c3.4-1.1,6.6-0.9,9.1,1.9c1,1.1,2.3,2.7,3.4,1c2.1-3.2,5.3-5.8,5.3-10.2c0-2.5-0.9-4-3.4-4.3
		c-5.3-0.5-10.9-2-16-1.1c-13,2.3-25.7,6.2-37.5,12.3C734.8,424.6,731.6,427.3,732,432.8z M783.9,431.2c-9.6,4.4-19.2,8.7-29.3,11.4
		c-7.8,2-14.9,8.3-23.8,4.5c-1.1-0.5-1.6,1-1.7,2.1c-0.5,4.7-3.6,8.4-4.9,12.7c-0.8,2.6-4.8,5.2-2.3,7.7c2.5,2.5,6.2,0.3,9.3-0.7
		c0.8-0.2,1.5-0.7,2.2-1.1c17-9.6,33.8-19.5,48.5-32.4C783,434.3,784.4,433.5,783.9,431.2z M601.2,443.3
		c-7,11.3-13.4,21.8-19.8,32.3c-1.6,2.7-0.4,4.3,2.7,4.4c9.3,0.4,18.3,3.1,27.7,3.2c5.5,0,4.8-1.9,3.2-5.3
		c-3.1-6.5-6.4-12.9-8.5-19.9C605.2,453.3,603.3,448.9,601.2,443.3z M559.8,290c0.4,2.2-0.2,4,1.1,4.9c1.6,1,2.5-0.7,3.6-1.5
		c8.5-6.3,8.5-6.3,7.4-16.4c-0.2-1.6-1.3-4.2-2.5-2.3C566.1,279.9,560.5,283.9,559.8,290z"/>
	<path d="M612.5,559.1c-2.1,18.2-3.7,36.5-10.7,53.6c-10.7,26.2-25.7,49.8-44.9,70.8c-13.9,15.2-29.2,28.2-47.7,37.4
		c-4.3,2.1-8.5,4.3-12.8,6.3c-2.3,1-5.2,1.8-6.7-0.9c-1.5-2.7-0.1-5.4,2.3-7c4.3-2.9,8.6-6,13.2-8.3c27.6-13.9,46.6-36.7,64.4-60.9
		c10-13.6,17-28.8,23.4-44.2c5.6-13.4,7.9-27.9,9.5-42.3c0.3-2.5,0.2-5,1.8-7.2c1.4-1.8,3.3-2.6,5.5-2
		C612.1,555,612.9,556.8,612.5,559.1z"/>
	<path d="M367.9,539.8c2.4,0.1,2.7,2.3,3.5,4.2c8.3,19.8,16.7,39.5,24.7,59.4c1,2.4,5.8,5.9,0.7,8.3c-4.8,2.2-6.5-2.7-7.9-5.8
		c-8.8-19.3-17.6-38.7-24.9-58.6C362.6,543.3,364.4,539.6,367.9,539.8z"/>
	<path d="M360.5,605.1c0.5-2.1,0-4.5,2-5.3c2.3-1,4.1,0.9,5.2,2.5c3.3,5,6.5,10.1,9.4,15.3c6.4,11.6,12.7,23.2,19,34.9
		c1.5,2.9,2.4,6.6-0.8,8.3c-2.9,1.6-4.8-1.8-6.1-4c-9.4-16.1-19-32-27.4-48.7C361.2,607.1,360.9,606,360.5,605.1z"/>
	<path d="M449.3,319.3c0.4,2.4-0.9,3.9-2.9,4.9c-2.2,1.1-3.9,0.3-5.5-1.4c-3-3.3-4.6-7.4-5.8-11.6c-6-21.1-12.6-42-20.1-62.6
		c-0.9-2.4-0.6-4.9-0.4-7.4c0.2-2,1.4-3.6,3.4-4c2.5-0.6,4,1.2,4.9,3.1c10.4,22.1,19.7,44.6,24.8,68.6
		C448.5,312.3,448.8,315.8,449.3,319.3z"/>
	<path d="M338.2,390.3c-4.1-0.1-6.5-2.1-8.2-4.8c-6.8-10.2-12.5-20.9-15.7-32.8c-0.6-2.2-1.1-4.4,0.1-6.7c1.7-3.2,3.9-4.4,6.8-1.4
		c1.4,1.5,3,3,3.8,4.8c5.4,12,10.5,24.2,16.1,36.1C342.8,389.9,340.6,390.2,338.2,390.3z"/>
</g>
</svg>
