<?xml version="1.0" standalone="no"?><!DOCTYPE svg PUBLIC "-//W3C//DTD SVG 1.1//EN" "http://www.w3.org/Graphics/SVG/1.1/DTD/svg11.dtd"><svg t="1649680456246" class="icon" viewBox="0 0 1088 1024" version="1.1" xmlns="http://www.w3.org/2000/svg" p-id="2472" xmlns:xlink="http://www.w3.org/1999/xlink" width="212.5" height="200"><defs><style type="text/css">@font-face { font-family: "feedback-iconfont"; src: url("//at.alicdn.com/t/font_1031158_u69w8yhxdu.woff2?t=1630033759944") format("woff2"), url("//at.alicdn.com/t/font_1031158_u69w8yhxdu.woff?t=1630033759944") format("woff"), url("//at.alicdn.com/t/font_1031158_u69w8yhxdu.ttf?t=1630033759944") format("truetype"); }
</style></defs><path d="M972.298912 790.452375c-31.060997 45.722371-76.791953 32.9838-76.791952 32.983801 9.171943 27.429989-5.068818 65.113498-5.068818 65.113498-31.400063 62.950345-26.979332 101.711139-26.979333 101.711139-43.91116-21.906222-50.104474-110.930293-36.001056-139.201509 14.103418-28.275508-16.193608-48.456357-16.193608-48.456357l23.661638-74.191018s42.675072 70.027806 105.140424 16.704352c52.327715-44.666547 108.256395-26.42996 108.256395-26.42996s-30.824939 5.223329-76.02369 71.766054z" fill="#B1CFE0" p-id="2473"></path><path d="M856.158166 762.872167c55.327804 67.735893 94.577882 12.64844 94.577882 12.64844 33.425873-50.50792 97.582262-56.834285 97.582262-56.834286-18.103535 6.05168-40.889612 23.090806-73.409879 73.598726-21.35685 33.176939-81.33715 38.09983-81.33715 38.099831s26.760442 6.425081-3.137431 58.164796c-29.902165 51.735423-26.979332 101.711139-26.979333 101.711139-35.859421-17.888937-58.490986-89.058407-40.456122-125.213974 18.034864-36.151275-40.314487-85.337268-40.314488-85.337268 48.379102-0.639504 73.474259-16.841696 73.474259-16.837404z" fill="#88ADC2" p-id="2474"></path><path d="M1038.215009 717.94381a10.133345 10.133345 0 0 1 8.407972-9.249198c-3.588088 0.613752-36.417377 7.918687-82.710581 76.062317-26.38704 38.850925-64.147805 29.331333-65.688622 28.923596a10.137636 10.137636 0 0 0-12.330834 12.974629c7.897227 23.610135-4.807008 57.984534-4.935767 58.315016 0.124467-0.32619 0.26181-0.635212 0.416321-0.944234-32.370048 64.890316-28.1725 105.685504-27.983654 107.389417a10.141928 10.141928 0 0 1 14.592703-10.219184c-37.885232-18.89755-43.082809-102.307723-31.46015-125.608835 14.313725-28.700413-6.592468-52.722577-19.644354-61.422403a10.137636 10.137636 0 0 1 4.034454 11.519651l23.66593-74.191018a10.129053 10.129053 0 0 1-18.30955 2.193198c0.87127 1.433518 21.786047 35.146954 57.126139 40.79948 21.172295 3.377782 42.447597-3.905694 63.242199-21.66158 47.117262-40.215772 96.492101-25.150952 98.573708-24.494281l-0.038628-0.008584a10.141928 10.141928 0 0 1-6.957286-10.377987z m11.79863 10.734221a10.137636 10.137636 0 0 0 1.450686-19.627185c-2.506511-0.811183-61.971775-19.446922-117.973418 28.361347-16.039097 13.687097-31.773464 19.434047-46.778197 17.077754-26.047975-4.090249-42.979802-31.099625-43.13002-31.344267a10.133345 10.133345 0 0 0-18.30955 2.188905l-23.661639 74.191018a10.184848 10.184848 0 0 0 4.000118 11.485316c2.33054 1.588029 22.498514 16.047681 12.785782 35.528939-16.987623 34.048209-8.716994 128.214062 40.541962 152.794182a10.14622 10.14622 0 0 0 9.854367-0.446365 10.14622 10.14622 0 0 0 4.742628-9.717023c-0.04292-0.364818-3.429285-37.159889 25.975011-96.09724 0.150219-0.30473 0.287562-0.622336 0.412029-0.944234 0.63092-1.678161 15.395301-41.404648 5.197578-71.903397a10.141928 10.141928 0 0 1-12.330834 12.970338c18.240879 5.085986 60.0876 3.87565 87.895282-37.048297 41.241553-60.722812 69.289587-67.456915 69.328215-67.469791z" fill="#6E6E96" p-id="2475"></path><path d="M600.910334 247.801262c149.231846-7.14184 272.767659 160.476811 256.101934 193.864056 0 0-100.784073-77.753354-198.061605-69.654404-91.843896 7.639709-117.222323-45.95843-100.56089-79.345675 16.657141-33.391538-49.52935-40.451831 42.520561-44.863977z" fill="#9FC1D4" p-id="2476"></path><path d="M723.519081 305.257883c136.128457 67.92474 133.493187 136.411727 133.493187 136.411727 16.665725-33.387246-106.870088-201.005897-256.101934-193.864056-10.802892 0.519329-19.343915 1.072993-26.176734 1.69962 18.498397 64.52979 113.75441 122.501448 113.853126 122.565828 0 0.004292 0 0 0 0-0.012876-0.034336-46.288912-107.342205 34.932355-66.813119z" fill="#C0DDED" p-id="2477"></path><path d="M564.329861 257.217847c-0.699591-1.012905-1.652409-2.403504-1.897051-2.909957 0.317606 0.656672 0.93565 2.957168-0.017168 5.686862-0.931358 2.661022-2.738278 4.017285-3.356321 4.30914 2.450716-1.176 11.798629-2.888497 42.430429-4.356351 102.646788-4.914307 187.99264 76.585938 222.233988 125.518704 20.446952 29.215449 23.940617 47.117262 22.399799 50.795481l0.012876-0.030043 18.30955-4.197548c-4.270512-3.291942-105.685504-80.534552-206.499621-72.14804-40.872444 3.399241-72.075076-6.107475-85.611954-26.08231-7.528118-11.116206-8.674074-24.464237-3.060175-35.713494 9.721315-19.498426-0.180263-33.932326-4.944352-40.872444z m-24.142339-6.983038c-4.261928 8.583943 0.969986 16.1979 4.090249 20.74739 4.665373 6.798483 6.266278 10.171972 3.227563 16.257988-9.446629 18.931886-7.648293 42.001232 4.691124 60.212067 10.935943 16.133521 39.468969 42.361758 107.758527 36.674896 91.324568-7.601081 188.657896 66.42255 189.627881 67.16506l11.708498 9.030308 6.601052-13.227856c9.030308-18.099243-5.553811-47.181642-19.386835-68.388272-47.185934-72.358346-144.97421-147.987174-248.178955-143.051407-44.567831 2.137402-55.250548 4.725461-60.139104 14.579826z" fill="#6E6E96" p-id="2478"></path><path d="M95.084335 449.841524c-7.14184-11.511067-12.914542-22.760324-17.318105-33.691976-17.197929-35.189874-39.606312-86.84375-30.395741-100.548014C61.705673 294.27902 91.487663 304.72997 91.487663 304.72997v0.017168c11.644118-12.609812 27.464325-23.464208 47.559335-32.202661 101.324861-44.065671 250.629671-101.857066 389.427734 41.863889 138.815231 143.733831 355.795846 560.527175 278.321471 481.748039-149.369189-151.905744-390.303297-79.483019-566.128198-203.782802-68.933353-48.731043-117.501301-97.419167-145.381948-142.205889v0.04292l-0.201722-0.36911z" fill="#D4DBDE" p-id="2479"></path><path d="M106.028862 443.055917c-6.695475-10.790016-12.184907-21.459857-16.318075-31.717669a13.227856 13.227856 0 0 0-0.373402-0.841226c-35.636239-72.916302-31.181172-87.676392-30.970866-88.268684 0 0-0.081547 0.223183-0.30473 0.553664 8.532439-12.691359 28.395683-6.163271 29.23691-5.880001A12.777199 12.777199 0 0 1 78.61604 304.72997a12.875914 12.875914 0 1 0 22.33542 8.75133c10.575418-11.45098 25.125201-21.253842 43.233028-29.12961 114.947578-49.984299 248.204707-92.320305 375.032462 39.001144 118.84898 123.059404 291.944188 444.030195 290.96991 478.207163 0.04292-1.347679 1.279007-4.83276 4.85422-6.957285s7.22768-1.54511 8.433724-0.931358c-0.085839-0.047212-2.184613-1.145956-7.493783-6.540964-82.980975-84.388742-194.288962-102.196131-301.927313-119.406937-91.813853-14.687126-186.75226-29.872121-265.947716-85.860888-65.040535-45.97989-114.10206-93.873999-141.883991-138.501918a12.875914 12.875914 0 0 0-23.807566 6.802775c0-5.819913 3.905694-10.897315 9.528177-12.412381a12.893082 12.893082 0 0 1 14.485403 5.991592l-0.399153-0.686716z m2.13311 7.150425v-0.04292a12.871622 12.871622 0 0 1-23.807566 6.802775c29.580267 47.516416 81.062464 97.972831 148.879905 145.918444 84.084012 59.443804 182.0268 75.1095 276.746316 90.255867 108.295023 17.322397 210.589869 33.687684 287.639341 112.037621 5.759826 5.854249 21.05212 21.408353 33.365786 9.408002 7.476614-7.283475 10.51533-17.305229-18.644324-80.208362-17.670046-38.112706-43.645057-87.440334-73.139485-138.896779-71.890521-125.419989-147.206036-233.839479-201.465138-290.025676C387.882625 150.291963 222.671769 222.135273 133.9138 260.737263c-21.412645 9.309286-38.868093 21.180879-51.885642 35.275714a12.875914 12.875914 0 0 1 22.335419 8.734161 12.901666 12.901666 0 0 0-8.613987-12.167739c-14.554075-5.103154-43.366079-7.51095-59.06611 15.841667-7.416527 11.03895-9.704147 33.138311 29.511595 113.385301a11.373724 11.373724 0 0 1-0.373401-0.841227c4.686833 11.622659 10.850104 23.623011 18.322426 35.666283a14.421024 14.421024 0 0 1-0.407738-0.708176l0.416322 0.751095a12.880206 12.880206 0 0 0 14.485403 5.970133 12.88879 12.88879 0 0 0 9.523885-12.438133z" fill="#6E6E96" p-id="2480"></path><path d="M579.836754 201.023065c124.544427 128.956573 146.618036 306.777241 207.30222 441.085902 57.014548 126.179668 98.582291 123.492894 68.156506 152.880022-79.483019 76.761909-285.798085-349.654035-563.385628-435.351828-151.249073-46.696649-205.945956-74.989325-241.389056-133.815085C-0.394861 141.295991 16.575594 31.060997 81.659048 28.039449c121.428455-5.643942 296.36921-35.96672 498.177706 172.983616z" fill="#B1CFE0" p-id="2481"></path><path d="M42.503393 51.636708c124.540135-2.643854 296.622436-12.107651 502.044772 200.585284 134.570472 139.343144 176.812054 313.060687 280.686347 461.683073 1.802628 2.583767 0 0 1.708204 2.489344-11.064702-17.609959-23.738894-43.786692-37.322983-73.839077-60.684184-134.30437-82.753501-312.125037-207.302219-441.085902C380.509018-7.48949 205.585431 22.83758 84.1441 28.47723c-17.502659 0.815475-31.48161 9.425169-41.640707 23.159478z" fill="#C0DDED" p-id="2482"></path><path d="M322.228338 372.933688s-42.739451 27.700384-118.188017 20.502748C114.651432 384.91258 7.957315 302.184831 41.915393 207.830132" fill="#F0F0FF" p-id="2483"></path><path d="M316.391257 363.929132l0.034336-0.02146c-0.403445 0.257518-41.044123 25.55869-111.368075 18.846047-55.662577-5.304877-113.930381-39.597728-141.699436-83.388713-12.511097-19.725901-24.631624-50.98862-11.347972-87.899574l-20.189434-7.266308c-12.84587 35.679158-8.206249 72.564361 13.416703 106.65549 31.082457 49.014314 95.964189 87.363078 157.785745 93.260247 78.264099 7.46803 123.166704-20.96628 125.042295-22.176617l-11.674162-18.009112z" fill="#6E6E96" p-id="2484"></path><path d="M104.488044 50.76973c0 45.71808 50.980036 93.127196 50.980037 93.127196-73.551514-108.385154 42.872502-86.569063 42.872502-86.569064S104.488044 5.047358 104.488044 50.76973z" fill="#C0DDED" p-id="2485"></path><path d="M50.520796 225.817784c35.4431 58.82576 90.139984 87.118436 241.384764 133.815085 277.587543 85.702085 483.906901 512.113737 563.385628 435.35612 17.506951-16.901783 10.206308-18.953346-9.184819-45.280298 0 0-7.274892 51.739715-56.744154-3.008672-49.460679-54.748387-201.804204-387.264581-437.90126-483.095719-206.93311-83.989589-209.122015-137.905334-239.376122-200.353517-8.669782-17.918981-23.974952-32.945173-46.894079-31.824968C14.06479 50.846985 4.210424 148.95716 50.520796 225.817784z" fill="#9FC1D4" p-id="2486"></path><path d="M361.989161 190.284553m-22.494222 0a22.494222 22.494222 0 1 0 44.988444 0 22.494222 22.494222 0 1 0-44.988444 0Z" fill="#6E6E96" p-id="2487"></path><path d="M346.4651 576.252958C243.826896 558.067875 67.040593 382.912522 86.646319 386.384727c54.825643 9.712731 153.983058 48.28897 219.27682 34.949523 128.86215-26.322661 316.932045 228.577522 316.932045 228.577521 85.796509 86.933881-103.874292-43.091393-276.390084-73.658813z" fill="#E8EFF2" p-id="2488"></path><path d="M466.262607 635.267565c0.626628 28.610281-33.777815 53.877117-63.053352-18.326718-29.271245-72.195251-4.729752-157.31792-4.729753-157.31792 22.047857-47.130138 67.139309 147.025773 67.783105 175.644638z" fill="#DCE3E6" p-id="2489"></path><path d="M113.080571 36.417377C230.144091 29.292705 390.466391 19.532762 572.548987 208.06619c84.487457 87.474669 120.660192 197.091619 155.652635 303.09473 15.811623 47.915569 30.747683 93.165824 49.705321 135.119844 26.382748 58.396563 49.928503 90.212947 63.993294 109.213504 16.549842 22.365463 16.549842 22.365463 6.356409 32.211246-4.721169 4.558074-9.794279 6.571008-15.974717 6.33495-33.533173-1.283299-89.775166-64.598462-154.897248-137.905334-102.573825-115.462615-230.234223-259.170694-382.483325-306.176365-152.154679-46.975627-202.817109-74.78331-235.702194-129.36431C24.683128 163.292344 24.859098 99.204627 42.876794 65.516944c6.386453-11.944556 18.382514-26.38704 39.254371-27.357026l30.949406-1.742541z m-1.227504-20.223769l-30.666136 1.725373c-23.695974 1.098745-43.649349 14.609871-56.181906 38.039742C0.854102 101.118847 7.931563 174.760492 41.838137 231.049697c36.022516 59.78287 89.13137 89.504772 247.080211 138.270151 146.84551 45.331802 272.415718 186.692173 373.311381 300.274904 73.787573 83.066815 127.102441 143.081451 169.271061 144.690941 11.738542 0.450657 22.107945-3.588088 30.829231-12.008936 22.974923-22.189492 12.768615-35.983888-4.150337-58.834344-14.463944-19.54993-36.318662-49.082985-61.812972-105.509534-18.515565-40.975451-33.28853-85.736421-48.928474-133.128369-35.696326-108.166264-72.620156-220.015039-160.318008-310.820278C398.552466-1.257548 232.843741 8.828585 111.853067 16.193608z" fill="#6E6E96" p-id="2490"></path><path d="M505.941882 802.409808c62.422432 53.786986 6.927242-93.813911 76.852041-233.959654 27.438573-54.988738-102.556657-130.205537-102.556657-130.205537-136.059786-117.020601-36.709232 310.378205 25.704616 364.165191z" fill="#9FC1D4" p-id="2491"></path><path d="M505.941882 802.4141c48.782547 36.245699 27.528705-13.575506 37.580502-75.555865-0.004292 0.02146 0.004292-0.034336 0 0-21.399769 196.379152-69.62436-111.724308-77.688975-190.941224-13.880236-136.274384 61.967483-68.280973 61.967484-68.280974 0.93565-41.572035 12.850162 10.382279-3.849899-11.519651-25.455682-22.863332-43.709437-17.871769-43.709436-17.871769-12.62698-10.858688-23.219565-17.013375-32.005231-19.228032-3.128847-0.472117-6.223359-0.716759-9.304994-0.811182-69.834667 6.648264 9.369374 341.374822 67.010549 384.208697z" fill="#B1CFE0" p-id="2492"></path><path d="M488.168829 420.917929c-43.941203-28.614573-60.864447-16.601345-72.336887-3.279067-31.468734 36.550429-8.455184 153.22338 2.901373 201.688321 18.116411 77.328449 49.653817 166.764549 79.272712 192.288904 10.171972 8.768498 23.502835 18.133579 36.33583 12.678483 16.077725-6.832818 17.275185-28.327011 19.455507-67.341031 2.588059-46.254576 6.489461-116.157914 39.872414-183.074041 31.627537-63.388126-91.187225-144.673772-105.500949-152.961569z m-53.902869 12.58406c8.07749-9.38225 29.138194 1.970015 39.880998 11.210629 0 0-0.004292-0.004292 0 0 31.151129 18.043448 115.969068 81.822143 97.762525 118.3039-35.623363 71.401236-39.696444 144.321831-42.391802 192.572174-1.064409 19.030601-2.386336 42.717991-5.957256 47.177349 0.54508-0.682423 2.085898-1.300467 2.948584-1.184584-0.145927-0.017168-3.532292-0.549372-12.631272-8.390804-46.696649-40.241524-116.599987-316.726031-79.611777-359.688664z" fill="#6E6E96" p-id="2493"></path><path d="M513.787606 957.169713c10.82006 17.773054 6.274862 27.206807-2.970044 32.833581-9.25349 5.635358-19.725901 5.330628-30.537377-12.433841-10.82006-17.773054-19.339623-48.662372-10.090425-54.289146 9.25349-5.635358 32.777786 16.120645 43.597846 33.889406z" fill="#61A7D9" opacity=".42" p-id="2494"></path><path d="M602.021954 831.372031c6.399329 10.511038 4.369227 15.708615-0.309022 18.5499-4.669665 2.849869-10.214892 2.270453-16.618513-8.249169s-12.099067-28.408559-7.42511-31.249844c4.669665-2.849869 17.944732 10.425199 24.352645 20.949113z" fill="#61A7D9" opacity=".26" p-id="2495"></path><path d="M804.972115 163.429688c9.193403 5.918629 7.648293 13.8459 2.643854 21.61866s-11.579739 12.451009-20.777433 6.53238-18.751623-20.992032-13.742893-28.764792c5.004439-7.77276 22.674485-5.304877 31.876472 0.613752z" fill="#61A7D9" opacity=".31" p-id="2496"></path><path d="M952.229654 638.611011c6.403621 10.511038 4.369227 15.708615-0.309022 18.5499-4.669665 2.849869-10.214892 2.270453-16.618513-8.249169-6.399329-10.519622-12.094775-28.408559-7.420819-31.249844 4.665373-2.845577 17.940441 10.429491 24.348354 20.949113z" fill="#61A7D9" opacity=".26" p-id="2497"></path><path d="M325.176922 780.555089c6.047388 9.931622 2.193197 16.026221-4.613869 20.15939-6.794191 4.150336-13.966075 4.776964-20.017755-5.163241-6.05168-9.935914-9.502425-28.022281-2.69965-32.164034 6.794191-4.146044 21.279594 7.223388 27.331274 17.167885z" fill="#61A7D9" opacity=".51" p-id="2498"></path><path d="M131.231318 359.675789s-75.749003-59.418052-19.558514-40.232941 165.052053 55.825672 186.396027 52.851336c0 0-209.692847-70.671601-252.183365-147.420634 0.004292 0-17.073462 95.543576 85.345852 134.802239z" fill="#6E6E96" opacity=".15" p-id="2499"></path></svg>