<?xml version="1.0" encoding="utf-8"?>
<!-- Generator: Adobe Illustrator 24.0.0, SVG Export Plug-In . SVG Version: 6.00 Build 0)  -->
<svg version="1.1" id="图层_1" xmlns="http://www.w3.org/2000/svg" xmlns:xlink="http://www.w3.org/1999/xlink" x="0px" y="0px"
	 viewBox="0 0 1024 1024" style="enable-background:new 0 0 1024 1024;" xml:space="preserve">
<style type="text/css">
	.st0{fill:url(#SVGID_1_);}
	.st1{fill:#DD9318;}
	.st2{fill:#E4A225;}
	.st3{fill:url(#SVGID_2_);}
	.st4{fill:#E3A920;}
	.st5{fill:url(#SVGID_3_);}
	.st6{fill:url(#SVGID_4_);}
	.st7{fill:url(#SVGID_5_);}
	.st8{fill:url(#SVGID_6_);}
	.st9{fill:#F5D784;}
	.st10{fill:url(#SVGID_7_);}
	.st11{fill:url(#SVGID_8_);}
	.st12{fill:url(#SVGID_9_);}
	.st13{fill:url(#SVGID_10_);}
	.st14{fill:url(#SVGID_11_);}
	.st15{fill:#FFFFFF;}
	.st16{opacity:0.1;fill:#040000;}
	.st17{fill:#040000;}
	.st18{clip-path:url(#SVGID_13_);}
</style>
<g>
	<linearGradient id="SVGID_1_" gradientUnits="userSpaceOnUse" x1="712.392" y1="793.1227" x2="955.1797" y2="927.5356">
		<stop  offset="0.1389" style="stop-color:#E5675E"/>
		<stop  offset="0.6271" style="stop-color:#E25448"/>
	</linearGradient>
	<path class="st0" d="M741.8,756.9C756.6,790.5,806.9,912.7,954,908c1.2,0,1.7,1.6,0.7,2.2c-14.7,8.4-74.5,32.7-195.3-38.5
		C625.9,793,729,759.6,740.4,756.2C740.9,756.1,741.5,756.3,741.8,756.9z"/>
	<path class="st1" d="M303.7,760L303.7,760c-24.9-18.9-29.8-54.8-10.9-79.7l53.2-70.1c18.9-24.9,54.8-29.8,79.7-10.9l0,0
		c24.9,18.9,29.8,54.8,10.9,79.7L383.3,749C364.4,773.9,328.6,778.9,303.7,760z"/>
	<g>
		<path class="st2" d="M456.7,954L456.7,954c-20.1,0-36.6-16.5-36.6-36.6v-57.6c0-20.1,16.5-36.6,36.6-36.6h0
			c20.1,0,36.6,16.5,36.6,36.6v57.6C493.3,937.5,476.8,954,456.7,954z"/>
		<path class="st2" d="M655.9,954L655.9,954c-20.1,0-36.6-16.5-36.6-36.6v-57.6c0-20.1,16.5-36.6,36.6-36.6h0
			c20.1,0,36.6,16.5,36.6,36.6v57.6C692.6,937.5,676.1,954,655.9,954z"/>
	</g>
	<linearGradient id="SVGID_2_" gradientUnits="userSpaceOnUse" x1="628.2574" y1="42.2138" x2="277.2188" y2="909.0642">
		<stop  offset="0.1082" style="stop-color:#ECC14B"/>
		<stop  offset="1" style="stop-color:#E3A920"/>
	</linearGradient>
	<path class="st3" d="M755.9,676.1c-2.9-29.3-6.5-58.6-10.3-87.9c-7.4-58.1-15.5-116.3-20.8-174.9c-4.1-45.6-11.1-82.6-20.4-112.8
		c-5.6-18.6-13.1-37-22.8-54.7C637.5,166.5,564.7,136,494,128.7c-56.5-5.5-157.4-23.5-249.6,34.4c-46,28.9-92.6,60.1-123.9,105.5
		c-31.7,45.9-47.7,102.8-51.1,158.1c-1.3,21.6-0.7,43.3,2.3,64.7c4.4,31.1,16.7,65.6,47.8,78.9c49.3,21,121.9,18.8,174,15.3
		c16-1.7,32.5-3.1,49.4-4.3c4.2-0.3,7.7,3.2,7.4,7.4c-5.3,80.1-7.7,151.8-6.6,231.9c0.2,16.8-1.3,33.2,7.8,47.5
		c7.8,12.2,20.4,22.2,35.1,25.9c77.4,19.4,155.7,19.3,233.1,2.2c72.3-17.5,135.8-87.6,141.1-151.9C763,719,758.4,701.3,755.9,676.1z
		"/>
	<g>
		<path class="st4" d="M755.9,676.1c-2.9-29.3-6.5-58.6-10.3-87.9c-7.4-58.1-15.5-116.3-20.8-174.9c-4.1-45.6-11.1-82.6-20.4-112.8
			c-5.6-18.6-13.1-37-22.8-54.7C637.5,166.5,564.7,136,494,128.7c-28.2-2.8-67.6-8.6-111.4-6.6c28.4,1.2,53.6,4.6,73.3,6.6
			c70.7,7.3,143.5,37.8,187.7,117.2c9.7,17.7,17.2,36.1,22.8,54.7c9.3,30.2,16.3,67.2,20.4,112.8c5.2,58.6,13.3,116.8,20.8,174.9
			c3.8,29.3,7.4,58.6,10.3,87.9c2.5,25.2,7.1,42.9,5,68.1c-5.4,64.3-68.8,134.4-141.1,151.9c-31.4,6.9-63,11-94.6,12.2
			c44.3,1.7,88.6-2.5,132.7-12.2c72.3-17.5,135.8-87.6,141.1-151.9C763,719,758.4,701.3,755.9,676.1z"/>
		<path class="st4" d="M304.8,581.2c-16.9,1.3-33.4,2.7-49.4,4.3c-12.3,0.8-25.7,1.6-39.7,1.9c27.4,0.9,54.6-0.4,77.8-1.9
			c5.7-0.6,11.4-1.1,17.2-1.7C309.3,582.2,307.2,581.1,304.8,581.2z"/>
	</g>
	<g>
		<g>
			<path class="st1" d="M574.9,547.3c-21,6.8-127.1,20.8-221.4,32l0,0l-14.9,2.4c1.4-0.1,2.8-0.2,4.2-0.3c4.2-0.3,7.7,3.2,7.4,7.4
				c-0.3,5.1-0.7,10.2-1,15.2l70,5.4c0,0,110.3,1,169.5-15.9C647.9,576.5,608.1,536.5,574.9,547.3z"/>
		</g>
	</g>
	<g>
		
			<linearGradient id="SVGID_3_" gradientUnits="userSpaceOnUse" x1="1276.8315" y1="1518.9764" x2="1278.808" y2="1597.0491" gradientTransform="matrix(0.746 0.6659 -0.6659 0.746 742.7761 -1804.418)">
			<stop  offset="0.1389" style="stop-color:#E5675E"/>
			<stop  offset="0.7284" style="stop-color:#E25448"/>
		</linearGradient>
		<path class="st5" d="M657.6,223.4c0,0-13.1-11.7-13.1-11.7c-6.3-5.6,5.9-15.8,9.7-19.1c6.9-6.1,14.1-11.8,21-17.8
			c5.4-4.8,12.2-5.4,16-2.1c5.4,4.8,2.1,12.2-1.1,17.2c-5.6,8.8-11.5,17.3-17.8,25.6C669.5,219.1,663,228.1,657.6,223.4z"/>
	</g>
	<g>
		
			<linearGradient id="SVGID_4_" gradientUnits="userSpaceOnUse" x1="1774.0201" y1="1851.5789" x2="1775.7306" y2="1919.1415" gradientTransform="matrix(0.5523 0.8336 -0.8336 0.5523 1288.3635 -2240.3179)">
			<stop  offset="0.1389" style="stop-color:#E5675E"/>
			<stop  offset="0.7284" style="stop-color:#E25448"/>
		</linearGradient>
		<path class="st6" d="M693,292.6c0,0-8.4-12.7-8.4-12.7c-4-6.1,8.4-11.9,12.3-13.9c7.1-3.6,14.4-6.7,21.5-10.3
			c5.6-2.8,11.4-1.8,13.8,1.8c3.4,5.2-0.9,10.6-4.7,14.1c-6.6,6.1-13.5,12-20.5,17.5C703.9,291.6,696.4,297.7,693,292.6z"/>
	</g>
	<g>
		
			<linearGradient id="SVGID_5_" gradientUnits="userSpaceOnUse" x1="2162.9502" y1="2009.5942" x2="2164.5896" y2="2074.3491" gradientTransform="matrix(0.4047 0.9144 -0.9144 0.4047 1704.1709 -2444.9299)">
			<stop  offset="0.1389" style="stop-color:#E5675E"/>
			<stop  offset="0.7284" style="stop-color:#E25448"/>
		</linearGradient>
		<path class="st7" d="M707,370.8c0,0-5.9-13.3-5.9-13.3c-2.8-6.4,9.9-9.9,13.8-11.1c7.3-2.2,14.7-4.1,22-6.3
			c5.7-1.7,11.1,0.1,12.8,3.9c2.4,5.5-2.6,9.9-6.7,12.6c-7.2,4.7-14.6,9.1-22.2,13.3C717.4,371.6,709.4,376.3,707,370.8z"/>
	</g>
	<g>
		
			<linearGradient id="SVGID_6_" gradientUnits="userSpaceOnUse" x1="2809.2991" y1="2115.3877" x2="2810.7771" y2="2173.769" gradientTransform="matrix(0.1205 0.9927 -0.9927 0.1205 2503.6655 -2625.0376)">
			<stop  offset="0.1389" style="stop-color:#E5675E"/>
			<stop  offset="0.7284" style="stop-color:#E25448"/>
		</linearGradient>
		<path class="st8" d="M705.5,430.6c0,0-1.6-13-1.6-13.1c-0.8-6.3,11.1-6,14.9-6c6.9,0,13.7,0.4,20.6,0.4c5.4,0,9.5,3,10,6.7
			c0.6,5.3-4.8,7.9-9.1,9.1c-7.5,2.2-15,4-22.6,5.6C714.3,434,706.1,435.9,705.5,430.6z"/>
	</g>
	<path class="st1" d="M831.5,718.7L831.5,718.7c-22.1,22.1-58.3,22.1-80.4,0l-62.2-62.2c-22.1-22.1-22.1-58.3,0-80.4l0,0
		c22.1-22.1,58.3-22.1,80.4,0l62.2,62.2C853.7,660.4,853.7,696.6,831.5,718.7z"/>
	<path class="st9" d="M449.3,700.7c-24.6-16.7-52.9-23.9-74.9-23.9c-8,0-19.8,1-29.1,3c-1.8,46.3-2.4,92-1.7,140.8
		c0.2,16.8-1.3,33.2,7.8,47.5c7.8,12.2,20.4,22.2,35.1,25.9c38,9.5,76.2,14.3,114.4,14.7c1,0,2,0,3,0c4.6,0,9.1,0,13.7-0.1
		c0.1,0,0.1,0,0.2,0c18.9-0.4,37.9-1.9,56.8-4.5C554.3,812.7,484.3,724.5,449.3,700.7z"/>
	<g>
		<ellipse transform="matrix(0.866 -0.5 0.5 0.866 -74.171 144.873)" class="st2" cx="233.3" cy="210.8" rx="38.1" ry="11.7"/>
		
			<linearGradient id="SVGID_7_" gradientUnits="userSpaceOnUse" x1="467.0649" y1="-1045.2721" x2="470.5442" y2="-907.8406" gradientTransform="matrix(0.866 -0.5 0.5 0.866 308.338 1278.5737)">
			<stop  offset="0.1389" style="stop-color:#E5675E"/>
			<stop  offset="0.7284" style="stop-color:#E25448"/>
		</linearGradient>
		<path class="st10" d="M249.9,208c0,0-26.8,15.5-26.8,15.5c-12.9,7.5-23.2-18.6-26.6-26.7c-6.3-14.9-11.9-30.1-18.2-45
			c-5-11.7-2.3-23.4,5.3-27.8c11-6.3,21.5,3.2,28.1,11.3c11.6,14.2,22.6,28.8,33,43.9C249.2,185.8,260.8,201.7,249.9,208z"/>
	</g>
	<g>
		
			<ellipse transform="matrix(0.9397 -0.342 0.342 0.9397 -37.3895 123.9254)" class="st2" cx="332.7" cy="168" rx="34.4" ry="10.6"/>
		
			<linearGradient id="SVGID_8_" gradientUnits="userSpaceOnUse" x1="428.9093" y1="-660.8975" x2="432.0495" y2="-536.8567" gradientTransform="matrix(0.9397 -0.342 0.342 0.9397 128.57 865.8361)">
			<stop  offset="0.1389" style="stop-color:#E5675E"/>
			<stop  offset="0.7284" style="stop-color:#E25448"/>
		</linearGradient>
		<path class="st11" d="M347.9,168.1c0,0-26.2,9.5-26.3,9.6c-12.6,4.6-17.7-20.2-19.5-27.9c-3.3-14.2-5.8-28.6-9.2-42.9
			c-2.6-11.1,1.6-21.2,9.1-23.9c10.7-3.9,18.6,6.2,23.2,14.5c8.1,14.4,15.6,29.1,22.5,44.2C350.8,148.3,358.6,164.2,347.9,168.1z"/>
	</g>
	<g>
		
			<ellipse transform="matrix(0.9848 -0.1736 0.1736 0.9848 -18.561 76.8047)" class="st2" cx="429.7" cy="144.5" rx="28.7" ry="8.8"/>
		
			<linearGradient id="SVGID_9_" gradientUnits="userSpaceOnUse" x1="447.8466" y1="-264.9482" x2="450.467" y2="-161.442" gradientTransform="matrix(0.9848 -0.1736 0.1736 0.9848 22.4482 421.8068)">
			<stop  offset="0.1389" style="stop-color:#E5675E"/>
			<stop  offset="0.7284" style="stop-color:#E25448"/>
		</linearGradient>
		<path class="st12" d="M442.1,146.8c0,0-22.9,4-23,4c-11.1,1.9-11.6-19.2-12-25.7c-0.6-12.2-0.7-24.4-1.3-36.6
			c-0.5-9.5,4.4-17.2,10.9-18.3c9.4-1.7,14.4,7.8,17,15.3c4.5,13,8.6,26.2,12.1,39.5C447.4,130.9,451.5,145.1,442.1,146.8z"/>
	</g>
	<g>
		<ellipse class="st2" cx="519.2" cy="141.5" rx="27.1" ry="8.3"/>
		
			<linearGradient id="SVGID_10_" gradientUnits="userSpaceOnUse" x1="522.7065" y1="120.5503" x2="525.1846" y2="218.4376" gradientTransform="matrix(1 0 0 1 -4.7591 -38.1622)">
			<stop  offset="0.1389" style="stop-color:#E5675E"/>
			<stop  offset="0.7284" style="stop-color:#E25448"/>
		</linearGradient>
		<path class="st13" d="M530.5,145.7c0,0-22,0-22.1,0c-10.6,0-7.7-19.8-6.9-25.9c1.4-11.4,3.4-22.8,4.8-34.3
			c1.1-9,6.9-15.3,13.2-15.3c9,0,12.1,9.6,13.3,17c2.1,12.9,3.7,25.8,4.7,38.8C538,131.8,539.4,145.7,530.5,145.7z"/>
	</g>
	<path class="st2" d="M584.7,153.4c-5.6,0.4-9.4,1.9-9.8,4.2c-0.7,4.1,9.6,9.4,23,11.8c6,1.1,11.6,1.4,16.1,1
		C604.5,163.9,594.7,158.2,584.7,153.4z"/>
	
		<linearGradient id="SVGID_11_" gradientUnits="userSpaceOnUse" x1="743.5033" y1="801.0068" x2="745.7595" y2="890.1287" gradientTransform="matrix(0.9476 0.3194 -0.3194 0.9476 162.0889 -887.1793)">
		<stop  offset="0.1389" style="stop-color:#E5675E"/>
		<stop  offset="0.7284" style="stop-color:#E25448"/>
	</linearGradient>
	<path class="st14" d="M603.2,167.6c0,0-19-6.4-19-6.4c-9.2-3.1-0.9-19.3,1.6-24.4c4.5-9.5,9.6-18.7,14.1-28.2
		c3.5-7.4,10.4-11.2,15.8-9.4c7.8,2.6,7.6,11.8,6.5,18.5c-1.9,11.7-4.3,23.3-7.2,34.9C613.7,157.8,610.9,170.2,603.2,167.6z"/>
	<g>
		<circle class="st2" cx="236.7" cy="410.6" r="104.8"/>
		<circle class="st15" cx="236.7" cy="410.6" r="92.4"/>
		<path class="st16" d="M299.3,342.6c10,14.9,15.8,32.9,15.8,52.2c0,52-42.2,94.2-94.2,94.2c-19.3,0-37.2-5.8-52.2-15.8
			c16.9,18.3,41.1,29.8,68,29.8c51,0,92.4-41.4,92.4-92.4C329.2,383.7,317.7,359.5,299.3,342.6z"/>
		<g>
			<circle class="st17" cx="236.7" cy="410.6" r="22"/>
			<circle class="st15" cx="226.2" cy="419.4" r="4.4"/>
		</g>
	</g>
	<g>
		<circle class="st2" cx="497.3" cy="384.8" r="112.3"/>
		<circle class="st15" cx="497.3" cy="384.8" r="99.1"/>
		<path class="st16" d="M564.4,311.9c10.7,16,16.9,35.2,16.9,55.9c0,55.8-45.2,101-101,101c-20.7,0-39.9-6.2-55.9-16.9
			c18.1,19.7,44.1,32,72.9,32c54.7,0,99.1-44.4,99.1-99.1C596.4,355.9,584.1,330,564.4,311.9z"/>
		<g>
			<circle class="st17" cx="497.3" cy="384.8" r="23.6"/>
			<circle class="st15" cx="486" cy="394.2" r="4.7"/>
		</g>
	</g>
	<path class="st2" d="M568.8,555.3c-2.4,0.7-4.9,1.5-7.3,2.2c-18.5,5.1-37.5,7.1-56.5,9c-23.5,2.3-47.1,4.1-70.6,6
		c-37.5,3-74.9,7.3-112.4,10.4c6.9-0.6,13.8-1.1,20.8-1.7c4.2-0.3,7.7,3.2,7.4,7.4c-0.3,5.1-0.7,10.2-1,15.2
		c76.6,2.8,154.9,2.6,233.6-13.4c8.2-1.7,17.1-3.9,24-8.8c7.5-5.3,9.1-13.6,3.1-20.7c-5.8-6.9-14.9-9.3-23.6-9.2
		C580.3,552,574.6,553.6,568.8,555.3z"/>
	<g>
		<defs>
			<path id="SVGID_12_" d="M568.8,555.3c-2.4,0.7-4.9,1.5-7.3,2.2c-18.5,5.1-37.5,7.1-56.5,9c-23.5,2.3-47.1,4.1-70.6,6
				c-37.5,3-74.9,7.3-112.4,10.4c6.9-0.6,13.8-1.1,20.8-1.7c4.2-0.3,7.7,3.2,7.4,7.4c-0.3,5.1-0.7,10.2-1,15.2
				c76.6,2.8,154.9,2.6,233.6-13.4c8.2-1.7,17.1-3.9,24-8.8c7.5-5.3,9.1-13.6,3.1-20.7c-5.8-6.9-14.9-9.3-23.6-9.2
				C580.3,552,574.6,553.6,568.8,555.3z"/>
		</defs>
		<clipPath id="SVGID_13_">
			<use xlink:href="#SVGID_12_"  style="overflow:visible;"/>
		</clipPath>
		<g class="st18">
			<path class="st15" d="M575.2,581.3l-21.3,1.6c-2.2,0.2-4.1-1.5-4.3-3.7l-4-53.4c-0.2-2.2,1.5-4.1,3.7-4.3l21.3-1.6
				c2.2-0.2,4.1,1.5,4.3,3.7l4,53.4C579,579.2,577.4,581.2,575.2,581.3z"/>
			<path class="st15" d="M537.4,581.2l-19.2,1.4c-2,0.1-3.7-1.3-3.8-3.3l-3.6-48.1c-0.1-2,1.3-3.7,3.3-3.8l19.2-1.4
				c2-0.1,3.7,1.3,3.8,3.3l3.6,48.1C540.9,579.3,539.4,581,537.4,581.2z"/>
			<path class="st15" d="M502.6,592.6l-21.3,1.6c-2.2,0.2-4.1-1.5-4.3-3.7l-4-53.4c-0.2-2.2,1.5-4.1,3.7-4.3l21.3-1.6
				c2.2-0.2,4.1,1.5,4.3,3.7l4,53.4C506.4,590.5,504.8,592.4,502.6,592.6z"/>
			<path class="st15" d="M464.8,592.5l-19.2,1.4c-2,0.1-3.7-1.3-3.8-3.3l-3.6-48.1c-0.1-2,1.3-3.7,3.3-3.8l19.2-1.4
				c2-0.1,3.7,1.3,3.8,3.3l3.6,48.1C468.2,590.6,466.7,592.3,464.8,592.5z"/>
			<path class="st15" d="M429.5,598l-21.3,1.6c-2.2,0.2-4.1-1.5-4.3-3.7l-4-53.4c-0.2-2.2,1.5-4.1,3.7-4.3l21.3-1.6
				c2.2-0.2,4.1,1.5,4.3,3.7l4,53.4C433.4,596,431.7,597.9,429.5,598z"/>
			<path class="st15" d="M391.7,597.9l-19.2,1.4c-2,0.1-3.7-1.3-3.8-3.3l-3.6-48.1c-0.1-2,1.3-3.7,3.3-3.8l19.2-1.4
				c2-0.1,3.7,1.3,3.8,3.3l3.6,48.1C395.2,596,393.7,597.8,391.7,597.9z"/>
		</g>
	</g>
	<g>
		<circle class="st1" cx="347.5" cy="508.1" r="7.3"/>
		<circle class="st1" cx="391.2" cy="502.8" r="7.3"/>
	</g>
</g>
</svg>
