<?xml version="1.0" standalone="no"?><!DOCTYPE svg PUBLIC "-//W3C//DTD SVG 1.1//EN" "http://www.w3.org/Graphics/SVG/1.1/DTD/svg11.dtd"><svg t="1649680289074" class="icon" viewBox="0 0 1024 1024" version="1.1" xmlns="http://www.w3.org/2000/svg" p-id="1234" xmlns:xlink="http://www.w3.org/1999/xlink" width="200" height="200"><defs><style type="text/css">@font-face { font-family: "feedback-iconfont"; src: url("//at.alicdn.com/t/font_1031158_u69w8yhxdu.woff2?t=1630033759944") format("woff2"), url("//at.alicdn.com/t/font_1031158_u69w8yhxdu.woff?t=1630033759944") format("woff"), url("//at.alicdn.com/t/font_1031158_u69w8yhxdu.ttf?t=1630033759944") format("truetype"); }
</style></defs><path d="M504.931644 531.788853m-228.260837 0a228.260836 228.260836 0 1 0 456.521673 0 228.260836 228.260836 0 1 0-456.521673 0Z" fill="#DE7FFF" opacity=".22" p-id="1235"></path><path d="M507.759834 507.759834m-447.337474 0a447.337474 447.337474 0 1 0 894.674948 0 447.337474 447.337474 0 1 0-894.674948 0Z" fill="#DE7FFF" opacity=".22" p-id="1236"></path><path d="M496.451313 519.068356m-330.024812 0a330.024812 330.024812 0 1 0 660.049623 0 330.024812 330.024812 0 1 0-660.049623 0Z" fill="#DE7FFF" opacity=".22" p-id="1237"></path><path d="M390.061317 533.205068a21.205068 21.205068 0 0 1-20.9761-18.330236c-16.087188-117.533151 8.95523-222.095636 72.42627-302.374691 67.774807-85.727669 175.059478-139.734658 302.0906-152.06506a21.183867 21.183867 0 0 1 23.151304 19.051064 21.200828 21.200828 0 0 1-19.051064 23.151304c-115.44699 11.210998-212.372936 59.565847-272.930981 136.160199-56.144033 71.014294-78.163213 164.492986-63.678808 270.32752a21.200828 21.200828 0 0 1-21.031221 24.0799z" fill="#6E6E96" p-id="1238"></path><path d="M425.776232 619.403395a21.090584 21.090584 0 0 1-12.8053-4.316488c-94.483611-71.730882-150.708207-163.373582-162.597632-265.018832-12.690816-108.544 24.983056-222.591735 106.084704-321.137425a21.205068 21.205068 0 0 1 32.742559 26.942013c-73.706799 89.556538-108.052141 192.291511-96.709698 289.272579 10.515611 89.912712 61.041424 171.578302 146.120348 236.172986a21.200828 21.200828 0 0 1-12.834981 38.085167z" fill="#6E6E96" p-id="1239"></path><path d="M447.053383 659.655288c-89.942393 0-170.073043-26.187263-234.549002-77.158294-85.731909-67.774807-139.738899-175.063718-152.07354-302.094841a21.200828 21.200828 0 0 1 19.051064-23.151304 21.175387 21.175387 0 0 1 23.151304 19.051064c11.210998 115.44699 59.565847 212.372936 136.164439 272.930981 71.018534 56.144033 164.497226 78.163213 270.32328 63.670328a21.205068 21.205068 0 0 1 5.749664 42.011561c-23.130104 3.167404-45.776828 4.740505-67.817209 4.740505z" fill="#6E6E96" p-id="1240"></path><path d="M308.450849 776.039354c-95.670857 0-193.499959-37.707793-279.520199-108.505838a21.200828 21.200828 0 1 1 26.946253-32.738319c89.552298 73.706799 192.26607 108.056381 289.264099 96.713938 89.916952-10.511371 171.582542-61.041424 236.181466-146.124588a21.200828 21.200828 0 0 1 33.772919 25.640281c-71.735122 94.487851-163.382062 150.716687-265.027312 162.601872-13.801739 1.611263-27.692522 2.412654-41.617226 2.412654z" fill="#6E6E96" p-id="1241"></path><path d="M278.324472 963.666683a21.200828 21.200828 0 0 1-2.026799-42.304132c115.45123-11.215238 212.377176-59.570087 272.935221-136.168679 56.139793-71.014294 78.158973-164.488745 63.670328-270.32328a21.200828 21.200828 0 0 1 18.130948-23.876373 21.192348 21.192348 0 0 1 23.880613 18.126709c16.091429 117.533151-8.95099 222.087155-72.417789 302.370451-67.774807 85.731909-175.063718 139.738899-302.099081 152.07354a20.081424 20.081424 0 0 1-2.073441 0.101764z" fill="#6E6E96" p-id="1242"></path><path d="M651.149516 1002.799172a21.200828 21.200828 0 0 1-16.358559-34.676075c73.706799-89.552298 108.052141-192.283031 96.713937-289.264099-10.511371-89.916952-61.041424-171.586783-146.124588-236.177226a21.200828 21.200828 0 0 1 25.640282-33.772919c94.487851 71.735122 150.716687 163.377822 162.601872 265.027313 12.690816 108.544-24.987296 222.591735-106.093185 321.133184a21.132986 21.132986 0 0 1-16.379759 7.729822z" fill="#6E6E96" p-id="1243"></path><path d="M942.444654 766.850915a21.200828 21.200828 0 0 1-21.077863-19.152828c-11.215238-115.44699-59.570087-212.377176-136.164439-272.930981-71.014294-56.144033-164.484505-78.158973-270.32752-63.674568a21.196588 21.196588 0 1 1-5.749664-42.007321c117.554352-16.082948 222.095636 8.95523 302.370451 72.417789 85.731909 67.774807 139.738899 175.063718 152.07354 302.094841a21.200828 21.200828 0 0 1-21.124505 23.253068z" fill="#6E6E96" p-id="1244"></path><path d="M425.776232 446.994021a21.200828 21.200828 0 0 1-16.871619-34.023089c71.735122-94.487851 163.377822-150.712447 265.023072-162.601872 108.55672-12.690816 222.591735 24.987296 321.141665 106.088944a21.200828 21.200828 0 0 1-26.946253 32.742559C878.566559 315.493764 775.835826 281.131462 678.850518 292.486625c-89.912712 10.511371-171.582542 61.041424-236.172986 146.124588a21.158427 21.158427 0 0 1-16.9013 8.382808z" fill="#6E6E96" p-id="1245"></path><path d="M512 655.11407c-78.913723 0-143.11407-64.200348-143.11407-143.11407 0-78.913723 64.200348-143.11407 143.11407-143.11407 78.913723 0 143.11407 64.200348 143.11407 143.11407 0 78.913723-64.200348 143.11407-143.11407 143.11407z m0-243.826484c-55.533449 0-100.712414 45.178965-100.712414 100.712414s45.178965 100.712414 100.712414 100.712414 100.712414-45.178965 100.712414-100.712414-45.178965-100.712414-100.712414-100.712414z" fill="#6E6E96" p-id="1246"></path></svg>