<?xml version="1.0" standalone="no"?><!DOCTYPE svg PUBLIC "-//W3C//DTD SVG 1.1//EN" "http://www.w3.org/Graphics/SVG/1.1/DTD/svg11.dtd"><svg t="1649680080807" class="icon" viewBox="0 0 1024 1024" version="1.1" xmlns="http://www.w3.org/2000/svg" p-id="2258" xmlns:xlink="http://www.w3.org/1999/xlink" width="200" height="200"><defs><style type="text/css">@font-face { font-family: "feedback-iconfont"; src: url("//at.alicdn.com/t/font_1031158_u69w8yhxdu.woff2?t=1630033759944") format("woff2"), url("//at.alicdn.com/t/font_1031158_u69w8yhxdu.woff?t=1630033759944") format("woff"), url("//at.alicdn.com/t/font_1031158_u69w8yhxdu.ttf?t=1630033759944") format("truetype"); }
</style></defs><path d="M513.34 513.34m-385.34 0a385.34 385.34 0 1 0 770.68 0 385.34 385.34 0 1 0-770.68 0Z" fill="#FFFFFF" p-id="2259"></path><path d="M513.84 508.432m-131.72 0a131.72 131.72 0 1 0 263.44 0 131.72 131.72 0 1 0-263.44 0Z" fill="#FFFFFF" p-id="2260"></path><path d="M921.628 567.328h-60c0-191.912-156.128-348.044-348.036-348.044-191.912 0-348.044 156.132-348.044 348.044h-60c0-224.996 183.048-408.044 408.044-408.044 224.992 0 408.036 183.048 408.036 408.044z" fill="#63FFEF" opacity=".7" p-id="2261"></path><path d="M519.688 710.156c-89.176 0-161.724-72.556-161.724-161.728 0-89.172 72.548-161.72 161.724-161.72 89.172 0 161.72 72.544 161.72 161.72 0 89.172-72.548 161.728-161.72 161.728z m0-263.444c-56.092 0-101.724 45.632-101.724 101.716 0 56.088 45.632 101.728 101.724 101.728 56.084 0 101.72-45.632 101.72-101.728 0-56.084-45.636-101.716-101.72-101.716z" fill="#63FFEF" opacity=".7" p-id="2262"></path><path d="M989.964 542.524v-60h-69.188a406.04 406.04 0 0 0-14.248-81.028l64.936-23.632-20.52-56.384-64.996 23.656a408.268 408.268 0 0 0-41.232-71.108l53.152-44.6-38.572-45.964-53.192 44.636a411.132 411.132 0 0 0-62.908-52.876l34.664-60.044-51.96-30-34.612 59.956a404.752 404.752 0 0 0-77.248-28.188l12.008-68.132L566.964 38.4l-12.012 68.148a410.964 410.964 0 0 0-82.22-0.004l-12.016-68.124-59.088 10.42 12.012 68.1a405.1 405.1 0 0 0-77.272 28.196l-34.62-59.96-51.96 30 34.672 60.052a411.128 411.128 0 0 0-62.904 52.88L168.388 183.488l-38.568 45.96L182.956 274.04a408.3 408.3 0 0 0-41.232 71.112l-65.024-23.668-20.52 56.38 64.968 23.644a405.812 405.812 0 0 0-14.412 83.636H40.472v60h66.636a405.064 405.064 0 0 0 14.996 81.624l-63.2 23 20.52 56.384 63.728-23.192a408.38 408.38 0 0 0 42.052 71.116l-52.592 44.136 38.568 45.956 53.048-44.512a411.66 411.66 0 0 0 63.304 52.216l-34.98 60.588 51.96 30 35.208-60.98a404.8 404.8 0 0 0 76.992 27.36l-12.344 69.988 59.088 10.42 12.428-70.476c12.504 1.16 25.16 1.78 37.96 1.78 14.652 0 29.116-0.792 43.376-2.308l12.524 71.012 59.088-10.42-12.58-71.3a405.48 405.48 0 0 0 76.048-28.128l36.408 63.056 51.96-30-36.54-63.284a411.448 411.448 0 0 0 61.784-52.032l56.12 47.084 38.564-45.96-56.048-47.028a408.084 408.084 0 0 0 40.78-69.992l68.444 24.912 20.524-56.384-68.18-24.812a405.952 405.952 0 0 0 14.66-82.448h69.188z m-128.088-30a346.012 346.012 0 0 1-58.16 192.396l-146.036-122.708a160.66 160.66 0 0 0 17.884-73.78c0-64.148-37.544-119.688-91.808-145.812l39.176-180.608c138.636 45.876 238.952 176.688 238.944 330.512z m-246.312-4.092c0 56.092-45.632 101.724-101.72 101.724-56.092 0-101.724-45.632-101.724-101.724 0-56.088 45.632-101.72 101.724-101.72 56.084 0 101.72 45.632 101.72 101.72zM513.84 164.48c17.216 0 34.136 1.276 50.692 3.704l-38.832 179.008a163.76 163.76 0 0 0-11.856-0.48c-89.176 0-161.724 72.548-161.724 161.72 0 10.208 0.996 20.188 2.812 29.88l-177.26 64.388a347.172 347.172 0 0 1-11.872-90.176c0-191.912 156.128-348.044 348.04-348.044z m0 696.084c-139.584 0-260.216-82.604-315.636-201.492l178.62-64.884c28.632 45.584 79.332 75.968 137.016 75.968 40.98 0 78.424-15.352 106.956-40.572l145.5 122.256c-63.46 66.92-153.164 108.724-252.456 108.724z" fill="#6E6E96" p-id="2263"></path></svg>