<?xml version="1.0" standalone="no"?><!DOCTYPE svg PUBLIC "-//W3C//DTD SVG 1.1//EN" "http://www.w3.org/Graphics/SVG/1.1/DTD/svg11.dtd"><svg t="1649681091400" class="icon" viewBox="0 0 1025 1024" version="1.1" xmlns="http://www.w3.org/2000/svg" p-id="109879" xmlns:xlink="http://www.w3.org/1999/xlink" width="200.1953125" height="200"><defs><style type="text/css">@font-face { font-family: "feedback-iconfont"; src: url("//at.alicdn.com/t/font_1031158_u69w8yhxdu.woff2?t=1630033759944") format("woff2"), url("//at.alicdn.com/t/font_1031158_u69w8yhxdu.woff?t=1630033759944") format("woff"), url("//at.alicdn.com/t/font_1031158_u69w8yhxdu.ttf?t=1630033759944") format("truetype"); }
</style></defs><path d="M1025.289363 725.000759c0 76.825583 0 237.081153-1.334388 299.000264H518.425327c-202.323604 0-329.471192-0.00307-517.090938-0.00307-1.334389-79.312212 0-218.563441 0-298.997194 0-282.757357 229.22013-511.977487 511.977487-511.977487s511.977487 229.22013 511.977487 511.977487z" fill="#7C6152" p-id="109880"></path><path d="M29.317664 1023.997953c68.481561-202.122013 259.760643-347.593908 485.016493-347.593908 225.257897 0 416.538002 145.473942 485.018539 347.596978-64.409833-0.00307-912.728976-0.00307-970.035032-0.00307z" fill="#F6F3CC" p-id="109881"></path><path d="M365.812815 483.827413a70.039029 70.039029 0 0 0 4.506632-26.029787c-0.656961-37.677036-31.472743-68.398673-69.151825-68.934885-39.689875-0.564864-71.954655 31.821689-71.192293 71.555567 0.714266 37.244178 30.916065 67.729432 68.152056 68.778318 17.279514 0.486069 33.186777-5.291506 45.656762-15.207323a18.646648 18.646648 0 0 0 13.559803 4.09424c8.811672-0.819667 15.956382-7.917304 16.825167-16.724883 0.720406-7.316625-2.783387-13.867818-8.356302-17.531247z" fill="#FFFFFD" p-id="109882"></path><path d="M292.759132 420.185058c-15.988104 0-28.949274 12.96117-28.949275 28.949275 0 15.988104 12.96117 28.949274 28.949275 28.949274 18.363193 0 28.949274-10.586081 28.949274-28.949274 0-15.988104-12.96117-28.949274-28.949274-28.949275z m-1.113355 32.51242c-7.994052 0-14.474637-6.480585-14.474637-14.474638 0-7.994052 6.480585-14.474637 14.474637-14.474637 7.994052 0 14.474637 6.480585 14.474637 14.474637 0 7.994052-6.480585 14.474637-14.474637 14.474638z" fill="#050505" p-id="109883"></path><path d="M660.088484 483.827413a70.039029 70.039029 0 0 1-4.506632-26.029787c0.656961-37.677036 31.472743-68.398673 69.151825-68.934885 39.689875-0.564864 71.954655 31.821689 71.192293 71.555567-0.714266 37.244178-30.916065 67.729432-68.152056 68.778318-17.279514 0.486069-33.186777-5.291506-45.656762-15.207323a18.646648 18.646648 0 0 1-13.559803 4.09424c-8.811672-0.819667-15.956382-7.917304-16.825167-16.724883-0.721429-7.316625 2.783387-13.867818 8.356302-17.531247z" fill="#FFFFFD" p-id="109884"></path><path d="M704.192893 449.134333c0 18.363193 10.586081 28.949274 28.949274 28.949274 15.988104 0 28.949274-12.96117 28.949275-28.949274 0-15.988104-12.96117-28.949274-28.949275-28.949275-15.988104 0-28.949274 12.96117-28.949274 28.949275z m15.587992-10.911493c0-7.994052 6.480585-14.474637 14.474637-14.474637s14.474637 6.480585 14.474637 14.474637c0 7.994052-6.480585 14.474637-14.474637 14.474638s-14.474637-6.480585-14.474637-14.474638z" fill="#050505" p-id="109885"></path><path d="M507.739985 561.760211s-23.024343-11.427237-32.063189-11.085454c-9.038846 0.34076-13.985498-12.62041 10.06215-17.225279s37.17971-7.334021 64.979813 2.046609-2.2175 17.567062-3.240804 18.590366-19.102019 5.116521-23.195235 7.674781-16.542735-0.001023-16.542735-0.001023z" fill="#4B362C" p-id="109886"></path><path d="M290.60917 19.618787c-106.423632 202.614222 0 270.152296 0 270.152297l77.771115-47.071991c8.186433-206.707439-77.771116-223.080305-77.771115-223.080306zM735.292129 19.618787s-85.957549 16.372866-77.771115 223.080306l77.771115 47.071991s106.423632-67.538074 0-270.152297z" fill="#7C6152" p-id="109887"></path><path d="M968.799904 511.092329l-201.003542 36.316041c107.877747 2.155079 188.54993-31.33255 201.003542-36.316041zM968.799904 511.092329l1.002838-0.181125c1.177823-0.666171 0.798177-0.539281-1.002838 0.181125zM1017.448807 540.540976l-249.626862 24.243099c162.795411 10.676132 249.626862-24.243099 249.626862-24.243099zM978.6533 599.849638L770.776224 576.65031c146.771491 36.677267 193.557981 25.079138 207.877076 23.199328z" fill="#4B362C" p-id="109888"></path><path d="M57.145397 530.972059l201.003542 36.316041c-107.877747 2.154055-188.54993-31.33255-201.003542-36.316041zM57.145397 530.972059l-1.002838-0.181125c-1.177823-0.666171-0.798177-0.539281 1.002838 0.181125zM8.497518 560.420706l249.626861 24.243099c-162.796434 10.675109-249.626862-24.243099-249.626861-24.243099zM47.292001 619.729368l207.877076-23.199328c-146.771491 36.677267-193.557981 25.079138-207.877076 23.199328z" fill="#4B362C" p-id="109889"></path><path d="M327.943398 817.931103s44.480985-26.854571 78.92438-16.915218-3.526306-32.320038-29.475253-29.185658-49.449127 46.100875-49.449127 46.100876zM475.446552 781.155598s46.593085-27.176912 76.743719 0c20.936803 18.870752 5.158476-35.230315-36.831787-34.851693-30.453532 0.275269-39.911932 34.851693-39.911932 34.851693zM613.81774 804.762202s51.19693-13.406308 77.662645 9.800184-3.923348-30.212032-25.054579-34.38609c-21.132254-4.175081-44.818675 11.890794-52.608066 24.585906zM722.603158 871.268785s50.648439 0.306991 75.792045 19.573762c25.143606 19.266771-2.804877-19.830611-23.375337-26.112675-20.571483-6.281041-44.343862-0.169868-52.416708 6.538913zM538.334732 851.072854s50.485734-4.069681 77.200112 12.952984c26.714378 17.022665-4.507655-19.513387-25.544741-23.995459-21.037087-4.481049-44.192413 3.660359-51.655371 11.042475zM404.751585 864.07598s47.177391-18.428684 77.660599-9.815533c30.483207 8.613151-9.933213-17.391054-31.370412-15.626878s-41.266787 16.224487-46.290187 25.442411zM215.834289 890.558069s46.084503-21.014574 76.997497-14.104202c30.914018 6.910373-10.881816-16.813911-32.188032-13.864748s-40.303857 18.48599-44.809465 27.96895z" fill="#4B362C" p-id="109890"></path><path d="M1025.289363 725.000759c0 76.825583-1.334389 225.824807-1.334388 299.000264M1023.954975 1024.001023H518.425327c-202.323604 0-329.471192-0.00307-517.090938-0.00307" fill="#7C6152" p-id="109891"></path></svg>